<?xml version="1.0" encoding="utf-8"?>
<!-- Generator: Adobe Illustrator 26.2.1, SVG Export Plug-In . SVG Version: 6.00 Build 0)  -->
<svg version="1.1" id="dislike-normal" xmlns="http://www.w3.org/2000/svg" xmlns:xlink="http://www.w3.org/1999/xlink" x="0px"
	 y="0px" viewBox="0 0 48 48" style="enable-background:new 0 0 48 48;" xml:space="preserve">
<style type="text/css">
	.st0{fill-rule:evenodd;clip-rule:evenodd;fill:#CCCCCC;}
	.st1{fill:#343433;}
</style>
<g>
	<path id="Path_37430_00000002358547046896158850000009277422054345292210_" class="st0" d="M36.7,12.5h4.8c1.1,0,1.9,0.9,1.9,1.9
		v18.4c0,1.1-0.9,1.9-1.9,1.9h-4.8c-1.1,0-1.9-0.9-1.9-1.9V14.4C34.7,13.3,35.6,12.5,36.7,12.5L36.7,12.5z"/>
	<g>
		<path class="st1" d="M3.6,29.6c0,2.1,1.7,3.8,3.8,3.8h11.2c-0.9,2.4-2.5,7.7-0.2,11.1c0.2,0.3,0.4,0.5,0.5,0.7
			c0.6,0.8,1.5,1.2,2.5,1.3c1.9,0.2,3.6-1.3,3.8-3.2l0.3-3.3l0,0c0-0.4,0.2-0.9,0.4-1.2l0,0c0.9-1.4,1.8-2.8,2.9-4.1
			c0.5-0.6,1.3-0.9,2-0.9h3.1c0.4,1.2,1.5,2,2.8,2h4.8c1.6,0,2.9-1.3,2.9-2.9V14.5c0-1.6-1.3-2.9-2.9-2.9h-4.8
			c-1.6,0-2.9,1.3-2.9,2.9v0.1h-2.9c-2.9-3-6.7-4.6-10.7-4.6H13l0,0c-1.8,0-3.3,1.5-3.3,3.3c0,0.5,0.1,1,0.3,1.4
			c-1.6,0.4-2.9,1.8-2.9,3.6c0,0.8,0.2,1.6,0.7,2.2c-1.3,0.6-2.2,1.9-2.2,3.4c0,0.7,0.2,1.4,0.6,2C4.7,26.5,3.6,27.9,3.6,29.6z
			 M35.7,14.4L35.7,14.4c0-0.5,0.4-0.9,0.9-0.9h4.9c0.5,0,0.9,0.4,0.9,0.9v18.4c0,0.5-0.4,0.9-0.9,0.9h-4.8c-0.5,0-0.9-0.4-0.9-0.9
			L35.7,14.4L35.7,14.4z M7.4,27.8h2h0.4h0.8v-2H9.8H9.4c-1,0-1.8-0.8-1.8-1.8s0.8-1.8,1.8-1.8h1.4h1h0.6v-2h-0.6h-1
			c-0.9,0-1.7-0.8-1.7-1.7c0-1,0.8-1.8,1.7-1.8H13h0.1h0.7v-2h-0.7H13c-0.7,0-1.3-0.6-1.3-1.3s0.6-1.3,1.3-1.3h7.2
			c3.6,0,7,1.5,9.5,4.2c0.2,0.2,0.5,0.3,0.7,0.3h3.3v15.2h-2.9c-1.3,0-2.6,0.6-3.5,1.5c-1.2,1.4-2.2,2.8-3.2,4.4
			c-0.4,0.6-0.6,1.4-0.7,2.1l-0.3,3.3c0,0.6-0.5,1.1-1.1,1.3s-1.2,0-1.6-0.5c-0.1-0.2-0.3-0.4-0.5-0.6c-1.2-1.8-0.9-4.5-0.5-6.4
			c0.3-1.2,0.7-2.4,1.2-3.6h2v-2H7.2c-1,0-1.8-0.8-1.8-1.8S6.4,27.8,7.4,27.8z"/>
	</g>
	<circle id="Ellipse_789" class="st1" cx="39.1" cy="17.5" r="1.5"/>
</g>
</svg>
