<?xml version="1.0" encoding="utf-8"?>
<!-- Generator: Adobe Illustrator 26.2.1, SVG Export Plug-In . SVG Version: 6.00 Build 0)  -->
<svg version="1.1" id="dislike-active" xmlns="http://www.w3.org/2000/svg" xmlns:xlink="http://www.w3.org/1999/xlink" x="0px"
	 y="0px" viewBox="0 0 48 48" style="enable-background:new 0 0 48 48;" xml:space="preserve">
<style type="text/css">
	.st0{fill:#FCD66F;}
	.st1{fill-rule:evenodd;clip-rule:evenodd;fill:#E64A31;}
	.st2{fill:#333333;}
	.st3{fill:#FFFFFF;}
</style>
<path class="st0" d="M27.3,33.3c-1.2,1.4-2.2,2.8-3.1,4.4c-0.4,0.6-0.6,1.4-0.7,2.1l-0.3,3.3c0,0.6-0.5,1.1-1.1,1.3
	c-0.6,0.2-1.2,0-1.6-0.5c-0.1-0.2-0.3-0.4-0.5-0.6c-1.2-1.8-0.9-4.5-0.5-6.4c0.3-1.2,0.7-2.4,1.2-3.6h2v-2H7.4c-1,0-1.8-0.8-1.8-1.8
	s0.8-1.8,1.8-1.8h3.3v-2H9.8v0H9.4c-1,0-1.8-0.8-1.8-1.8s0.8-1.8,1.8-1.8h1.4h1h0.6v-2h-0.6h-1c-1,0-1.8-0.8-1.8-1.8
	s0.8-1.8,1.8-1.8H13h0.1h0.7v-2h-0.7H13c-0.7,0-1.3-0.6-1.3-1.3c0-0.7,0.6-1.3,1.3-1.3h7.2c3.6,0,7,1.5,9.5,4.2
	c0.2,0.2,0.5,0.3,0.7,0.3h3.3v15.3h-2.9C29.5,31.8,28.2,32.3,27.3,33.3z"/>
<path id="Path_37287" class="st1" d="M36.7,12.5h4.8c1.1,0,1.9,0.9,1.9,1.9v18.4c0,1.1-0.9,1.9-1.9,1.9h-4.8c-1.1,0-1.9-0.9-1.9-1.9
	V14.4C34.7,13.3,35.6,12.5,36.7,12.5C36.7,12.5,36.7,12.5,36.7,12.5z"/>
<path class="st2" d="M41.5,11.5h-4.8c-1.6,0-2.9,1.3-2.9,2.9v0.1h-2.9C28,11.6,24.2,10,20.2,10H13h0c-1.8,0-3.3,1.5-3.3,3.3
	c0,0.5,0.1,1,0.3,1.4c-1.7,0.4-3,1.9-3,3.7c0,0.8,0.3,1.6,0.7,2.2c-1.2,0.6-2.1,1.9-2.1,3.4c0,0.7,0.2,1.4,0.6,2
	c-1.5,0.5-2.6,1.9-2.6,3.6c0,2.1,1.7,3.8,3.8,3.8h11.2c-0.9,2.4-2.5,7.7-0.2,11.1c0.2,0.3,0.4,0.5,0.5,0.7c0.6,0.8,1.5,1.2,2.5,1.3
	c1.9,0.2,3.6-1.3,3.8-3.2l0.3-3.3v0c0-0.4,0.2-0.9,0.4-1.2l0,0c0.9-1.4,1.8-2.8,2.9-4.1c0.5-0.6,1.3-0.9,2-0.9h3.1
	c0.4,1.2,1.5,2,2.8,2h4.8c1.6,0,2.9-1.3,2.9-2.9V14.4C44.4,12.8,43.1,11.5,41.5,11.5z M27.3,33.3c-1.2,1.4-2.2,2.8-3.1,4.4
	c-0.4,0.6-0.6,1.4-0.7,2.1l-0.3,3.3c0,0.6-0.5,1.1-1.1,1.3c-0.6,0.2-1.2,0-1.6-0.5c-0.1-0.2-0.3-0.4-0.5-0.6
	c-1.2-1.8-0.9-4.5-0.5-6.4c0.3-1.2,0.7-2.4,1.2-3.6h2v-2H7.4c-1,0-1.8-0.8-1.8-1.8s0.8-1.8,1.8-1.8h3.3v-2H9.8v0H9.4
	c-1,0-1.8-0.8-1.8-1.8s0.8-1.8,1.8-1.8h1.4h1h0.6v-2h-0.6h-1c-1,0-1.8-0.8-1.8-1.8s0.8-1.8,1.8-1.8H13h0.1h0.7v-2h-0.7H13
	c-0.7,0-1.3-0.6-1.3-1.3c0-0.7,0.6-1.3,1.3-1.3h7.2c3.6,0,7,1.5,9.5,4.2c0.2,0.2,0.5,0.3,0.7,0.3h3.3v15.3h-2.9
	C29.5,31.8,28.2,32.3,27.3,33.3z M42.4,32.8c0,0.5-0.4,0.9-0.9,0.9h-4.8c-0.5,0-0.9-0.4-0.9-0.9V14.4c0,0,0,0,0,0
	c0-0.5,0.4-0.9,0.9-0.9h4.8c0.5,0,0.9,0.4,0.9,0.9V32.8z"/>
<circle id="Ellipse_788" class="st3" cx="39.1" cy="17.5" r="1.5"/>
</svg>
