<?xml version="1.0" encoding="utf-8"?>
<!-- Generator: Adobe Illustrator 26.2.1, SVG Export Plug-In . SVG Version: 6.00 Build 0)  -->
<svg version="1.1" id="Layer_1" xmlns="http://www.w3.org/2000/svg" xmlns:xlink="http://www.w3.org/1999/xlink" x="0px" y="0px"
	 viewBox="0 0 48 48" style="enable-background:new 0 0 48 48;" xml:space="preserve">
<style type="text/css">
	.st0{fill:#FCD66F;}
	.st1{fill-rule:evenodd;clip-rule:evenodd;fill:#55C96B;}
	.st2{fill:#333333;}
	.st3{fill:#FFFFFF;}
</style>
<path class="st0" d="M40.5,28.2h-2H38h-0.8v2H38h0.4c1,0,1.8,0.8,1.8,1.8s-0.8,1.8-1.8,1.8h-1.4c0,0,0,0,0,0h-1v0h-0.6v2h1.6
	c1,0,1.8,0.8,1.8,1.8c0,1-0.8,1.8-1.8,1.8h-3v2h0.7v0h0.1c0.7,0,1.3,0.6,1.3,1.3c0,0.7-0.6,1.3-1.3,1.3h-7.2c-3.6,0-7-1.5-9.5-4.2
	c-0.2-0.2-0.5-0.3-0.7-0.3h-3.3V24.2H17c1.3,0,2.6-0.6,3.5-1.5c1.2-1.4,2.2-2.8,3.1-4.4c0.4-0.6,0.6-1.4,0.7-2.1l0.3-3.3
	c0-0.6,0.5-1.1,1.1-1.3c0.6-0.2,1.2,0,1.6,0.5c0.1,0.2,0.3,0.4,0.5,0.6c1.2,1.8,0.9,4.5,0.5,6.4c-0.3,1.2-0.7,2.4-1.2,3.6h-2v2h15.4
	c1,0,1.8,0.8,1.8,1.8S41.5,28.2,40.5,28.2z"/>
<path id="Path_37287" class="st1" d="M11.3,43.5H6.5c-1.1,0-1.9-0.9-1.9-1.9V23.2c0-1.1,0.9-1.9,1.9-1.9h4.8c1.1,0,1.9,0.9,1.9,1.9
	v18.4C13.3,42.7,12.4,43.5,11.3,43.5C11.3,43.5,11.3,43.5,11.3,43.5z"/>
<g>
	<path class="st2" d="M44.4,26.4c0-2.1-1.7-3.8-3.8-3.8H29.4c0.9-2.4,2.5-7.7,0.2-11.1c-0.2-0.3-0.4-0.5-0.5-0.7
		c-0.6-0.8-1.5-1.2-2.5-1.3c-1.9-0.2-3.6,1.3-3.8,3.2L22.5,16v0c0,0.4-0.2,0.9-0.4,1.2l0,0c-0.9,1.4-1.8,2.8-2.9,4.1
		c-0.5,0.6-1.3,0.9-2,0.9h-3.1c-0.4-1.2-1.5-2-2.8-2H6.5c-1.6,0-2.9,1.3-2.9,2.9v18.4c0,1.6,1.3,2.9,2.9,2.9h4.8
		c1.6,0,2.9-1.3,2.9-2.9v-0.1h2.9C20,44.4,23.8,46,27.8,46H35h0c1.8,0,3.3-1.5,3.3-3.3c0-0.5-0.1-1-0.3-1.4c1.7-0.4,3-1.9,3-3.7
		c0-0.8-0.3-1.6-0.7-2.2c1.2-0.6,2.1-1.9,2.1-3.4c0-0.7-0.2-1.4-0.6-2C43.3,29.5,44.4,28.1,44.4,26.4z M12.3,41.6
		C12.3,41.6,12.3,41.6,12.3,41.6c0,0.5-0.4,0.9-0.9,0.9H6.5c-0.5,0-0.9-0.4-0.9-0.9V23.2c0-0.5,0.4-0.9,0.9-0.9h4.8
		c0.5,0,0.9,0.4,0.9,0.9V41.6z M40.6,28.2h-2h-0.4h-0.8v2h0.8h0.4c1,0,1.8,0.8,1.8,1.8s-0.8,1.8-1.8,1.8h-1.4c0,0,0,0,0,0h-1v0h-0.6
		v2h1.6c1,0,1.8,0.8,1.8,1.8c0,1-0.8,1.8-1.8,1.8h-3v2h0.7v0H35c0.7,0,1.3,0.6,1.3,1.3c0,0.7-0.6,1.3-1.3,1.3h-7.2
		c-3.6,0-7-1.5-9.5-4.2c-0.2-0.2-0.5-0.3-0.7-0.3h-3.3V24.2h2.9c1.3,0,2.6-0.6,3.5-1.5c1.2-1.4,2.2-2.8,3.2-4.4
		c0.4-0.6,0.6-1.4,0.7-2.1l0.3-3.3c0-0.6,0.5-1.1,1.1-1.3c0.6-0.2,1.2,0,1.6,0.5c0.1,0.2,0.3,0.4,0.5,0.6c1.2,1.8,0.9,4.5,0.5,6.4
		c-0.3,1.2-0.7,2.4-1.2,3.6h-2v2h15.4c1,0,1.8,0.8,1.8,1.8S41.6,28.2,40.6,28.2z"/>
	<rect x="13.7" y="12.6" class="st2" width="4.3" height="2"/>
	<rect x="34.6" y="12.6" class="st2" width="4.3" height="2"/>
	<rect x="25.3" y="1" class="st2" width="2" height="4.3"/>
	<rect x="17.9" y="4.1" transform="matrix(0.7071 -0.7071 0.7071 0.7071 1.1571 15.1885)" class="st2" width="2" height="4.3"/>
	<rect x="31.5" y="5.2" transform="matrix(0.7071 -0.7071 0.7071 0.7071 5.4852 25.6371)" class="st2" width="4.3" height="2"/>
</g>
<circle id="Ellipse_788" class="st3" cx="8.9" cy="38.5" r="1.5"/>
</svg>
