<svg width="16" height="16" viewBox="0 0 16 16" fill="none" xmlns="http://www.w3.org/2000/svg">
<path d="M8.15002 14.99C12.016 14.99 15.15 11.856 15.15 7.99001C15.15 4.12401 12.016 0.990005 8.15002 0.990005C4.28403 0.990005 1.15002 4.12401 1.15002 7.99001C1.15002 11.856 4.28403 14.99 8.15002 14.99Z" stroke="#1F3060" stroke-width="0.5" stroke-miterlimit="10"/>
<path d="M7.21002 11.7V12.65L6.98004 12.47C6.94004 12.44 6.10003 11.76 5.25003 10.78C4.07003 9.43 3.48004 8.22001 3.48004 7.18001V7.08001C3.48004 5.02001 5.15002 3.35001 7.21002 3.35001C9.27002 3.35001 10.94 5.02001 10.94 7.08001V7.18001C10.94 7.27001 10.94 7.36001 10.93 7.45001L10.2 6.78001C10.05 5.26001 8.77002 4.08001 7.21002 4.08001C5.56002 4.08001 4.21002 5.43001 4.21002 7.08001V7.18001C4.21002 8.92001 6.48002 11.05 7.21002 11.7ZM9.45004 11.17H10.54V10.08H9.45004V11.17ZM7.21002 5.52001C8.06002 5.52001 8.76004 6.21001 8.76004 7.07001C8.76004 7.92001 8.07002 8.62 7.21002 8.62C6.35002 8.62 5.66003 7.93001 5.66003 7.07001C5.67003 6.21001 6.36002 5.52001 7.21002 5.52001ZM7.21002 6.25001C6.76002 6.25001 6.39005 6.62001 6.39005 7.07001C6.39005 7.52001 6.76002 7.89001 7.21002 7.89001C7.66002 7.89001 8.03003 7.52001 8.03003 7.07001C8.03003 6.61001 7.67002 6.25001 7.21002 6.25001ZM12.33 10.68L12.13 10.49V11.66C12.13 12.2 11.69 12.65 11.14 12.65H8.84003C8.30003 12.65 7.85004 12.21 7.85004 11.66V10.49L7.65002 10.68L7.16003 10.14L9.99002 7.56001L12.82 10.14L12.33 10.68ZM11.4 9.83001L9.99002 8.54001L8.58002 9.83001V11.66C8.58002 11.8 8.70003 11.92 8.84003 11.92H11.14C11.28 11.92 11.4 11.8 11.4 11.66V9.83001Z" fill="#1F3060"/>
</svg>
