<svg width="16" height="15" viewBox="0 0 16 15" fill="none" xmlns="http://www.w3.org/2000/svg">
<path d="M8.15002 14.71C12.016 14.71 15.15 11.576 15.15 7.70999C15.15 3.844 12.016 0.709991 8.15002 0.709991C4.28403 0.709991 1.15002 3.844 1.15002 7.70999C1.15002 11.576 4.28403 14.71 8.15002 14.71Z" stroke="#1F3060" stroke-width="0.5" stroke-miterlimit="10"/>
<path d="M10.8701 8.83C10.6801 8.63 10.4501 8.52 10.2001 8.52C9.96008 8.52 9.72007 8.62 9.53007 8.82L8.91007 9.44C8.86007 9.41 8.81008 9.39 8.76008 9.36C8.69008 9.32 8.62007 9.29 8.56007 9.26C7.98007 8.89 7.45007 8.41 6.94007 7.78C6.69007 7.47 6.53007 7.21 6.41007 6.94C6.57007 6.79 6.72006 6.64 6.87006 6.49C6.93006 6.43 6.98008 6.38 7.04008 6.32C7.45008 5.91 7.45008 5.37 7.04008 4.95L6.50007 4.41C6.44007 4.35 6.38008 4.29 6.32008 4.22C6.20008 4.1 6.08008 3.97 5.95008 3.85C5.76008 3.66 5.53008 3.56 5.29008 3.56C5.05008 3.56 4.82006 3.66 4.62006 3.85L3.95008 4.53C3.70008 4.78 3.55006 5.09 3.52006 5.45C3.47006 6.03 3.64006 6.56 3.77006 6.91C4.09006 7.77 4.57007 8.57 5.28007 9.43C6.14007 10.46 7.18006 11.28 8.37006 11.85C8.82006 12.07 9.43005 12.32 10.1101 12.36C10.1501 12.36 10.1901 12.36 10.2301 12.36C10.6901 12.36 11.0701 12.2 11.3701 11.87L11.3801 11.86C11.4801 11.74 11.6001 11.62 11.7301 11.5C11.8101 11.42 11.9001 11.33 11.9901 11.25C12.1901 11.05 12.2901 10.81 12.2901 10.57C12.2901 10.33 12.1901 10.09 11.9901 9.89L10.8701 8.83ZM11.5701 10.91C11.4901 10.99 11.4101 11.07 11.3301 11.15C11.2001 11.27 11.0701 11.4 10.9501 11.54C10.7501 11.75 10.5201 11.85 10.2101 11.85C10.1801 11.85 10.1501 11.85 10.1201 11.85C9.53006 11.81 8.99005 11.58 8.58005 11.39C7.46005 10.85 6.48008 10.08 5.67008 9.11C5.00008 8.3 4.55007 7.55 4.25007 6.74C4.07007 6.25 4.00007 5.87 4.03007 5.51C4.05007 5.28 4.14006 5.09 4.30006 4.92L4.97007 4.25C5.07007 4.16 5.17006 4.11 5.27006 4.11C5.39006 4.11 5.49007 4.18 5.56007 4.25C5.56007 4.25 5.56008 4.25 5.57008 4.26C5.69008 4.37 5.80006 4.49 5.93006 4.61C5.99006 4.67 6.05006 4.74 6.12006 4.8L6.66007 5.34C6.87007 5.55 6.87007 5.74 6.66007 5.95C6.60007 6.01 6.55006 6.06 6.49006 6.12C6.32006 6.29 6.17006 6.45 5.99006 6.6L5.98008 6.61C5.81008 6.78 5.84007 6.95 5.88007 7.06C5.88007 7.07 5.88008 7.07 5.89008 7.08C6.03008 7.42 6.23007 7.74 6.53007 8.12C7.07007 8.79 7.65007 9.31 8.28007 9.71C8.36007 9.76 8.44006 9.8 8.52006 9.84C8.59006 9.88 8.66007 9.91 8.72007 9.94C8.73007 9.94 8.74006 9.95 8.74006 9.95C8.81006 9.98 8.87007 10 8.94007 10C9.10007 10 9.21006 9.9 9.24006 9.86L9.91007 9.19C9.98007 9.12 10.0801 9.04 10.2101 9.04C10.3301 9.04 10.4301 9.12 10.4901 9.18L11.5801 10.27C11.7701 10.49 11.7701 10.7 11.5701 10.91Z" fill="#1F3060"/>
<path d="M8.53003 5.25998C9.05003 5.34998 9.52004 5.58998 9.89004 5.96998C10.26 6.33998 10.51 6.80998 10.6 7.32998C10.62 7.45998 10.73 7.54998 10.86 7.54998C10.88 7.54998 10.89 7.54998 10.91 7.54998C11.06 7.52998 11.15 7.38998 11.13 7.23998C11.02 6.60998 10.73 6.03998 10.28 5.58998C9.83003 5.13998 9.26003 4.83998 8.63003 4.73998C8.48003 4.71998 8.35004 4.80998 8.32004 4.95998C8.29004 5.09998 8.39003 5.23998 8.53003 5.25998Z" fill="#1F3060"/>
<path d="M12.8201 7.15999C12.6401 6.12999 12.1601 5.18999 11.4101 4.44999C10.6601 3.69999 9.73009 3.21999 8.70009 3.03999C8.56009 3.00999 8.4201 3.10999 8.3901 3.25999C8.3701 3.40999 8.46007 3.53999 8.61007 3.56999C9.53007 3.72999 10.3701 4.15999 11.0301 4.82999C11.7001 5.49999 12.1301 6.33999 12.2901 7.24999C12.3101 7.37999 12.4201 7.46999 12.5501 7.46999C12.5701 7.46999 12.5801 7.46999 12.6001 7.46999C12.7401 7.44999 12.8401 7.30999 12.8201 7.15999Z" fill="#1F3060"/>
</svg>
