<svg width="131" height="51" viewBox="0 0 131 51" fill="none" xmlns="http://www.w3.org/2000/svg">
<path d="M8.14 24.37C7.12 24.37 6.06 24.55 5.09 24.9C4.21 25.25 3.37 25.78 2.66 26.45C2 27.16 1.42 28 1.07 28.92C0.67 29.94 0.5 31 0.5 32.06C0.5 33.16 0.68 34.22 1.07 35.24C1.42 36.17 2 37.05 2.66 37.8C4.07 39.3 6.06 40.14 8.14 40.1H16.66V37H8.14C7.52 37 6.9 36.87 6.33 36.65C5.8 36.43 5.31 36.08 4.87 35.63C4.47 35.19 4.12 34.66 3.9 34.08C3.68 33.51 3.59 32.84 3.59 32.18C3.59 31.52 3.68 30.85 3.94 30.24C4.16 29.67 4.47 29.18 4.87 28.74C5.27 28.3 5.75 27.99 6.33 27.77C6.91 27.55 7.52 27.42 8.14 27.42H16.66V24.33L8.14 24.37ZM39.28 24.37V40.09H42.33V27.46H50.5C51.25 27.42 51.96 27.68 52.53 28.17C53.06 28.74 53.28 29.5 53.24 30.25C53.28 31.05 53.06 31.8 52.53 32.41C52 32.94 51.25 33.21 50.5 33.12H43.92V35.9H49.75L53.64 40.14H58.01L53.24 35.33C54.12 34.93 54.87 34.31 55.4 33.52C56.02 32.5 56.33 31.36 56.28 30.21C56.28 29.41 56.15 28.58 55.88 27.82C55.39 26.41 54.29 25.35 52.92 24.82C52.12 24.55 51.33 24.42 50.49 24.42L39.28 24.37ZM58.71 24.37V40.09H61.76V27.46H69.67C70.42 27.42 71.17 27.68 71.75 28.17C72.24 28.7 72.5 29.41 72.46 30.11C72.5 30.86 72.24 31.57 71.75 32.1C71.18 32.63 70.47 32.9 69.67 32.85H63.31V35.85H69.67C70.51 35.85 71.35 35.72 72.1 35.41C73.51 34.88 74.57 33.78 75.1 32.41C75.63 30.91 75.63 29.23 75.1 27.73C74.83 27.07 74.44 26.45 73.95 25.96C73.42 25.47 72.8 25.08 72.14 24.81C71.34 24.54 70.55 24.41 69.71 24.41L58.71 24.37ZM82.39 36.65C81.86 36.43 81.37 36.08 80.93 35.63C80.53 35.19 80.18 34.66 80 34.13C79.78 33.51 79.65 32.85 79.65 32.19C79.65 31.53 79.74 30.86 80 30.25C80.22 29.68 80.53 29.19 80.93 28.75C81.33 28.35 81.81 28 82.39 27.78C82.96 27.56 83.58 27.43 84.2 27.43H87.91C88.53 27.43 89.19 27.56 89.77 27.78C90.87 28.22 91.76 29.15 92.2 30.25C92.42 30.87 92.55 31.53 92.55 32.15C92.55 32.81 92.42 33.48 92.2 34.09C91.76 35.24 90.92 36.17 89.77 36.61C89.2 36.88 88.53 36.96 87.91 36.96H84.2C83.58 37 82.96 36.91 82.39 36.65ZM84.24 24.37C83.18 24.37 82.16 24.55 81.19 24.9C80.31 25.25 79.47 25.78 78.76 26.45C78.05 27.16 77.52 28 77.17 28.88C76.77 29.9 76.6 30.96 76.6 32.02C76.6 33.12 76.78 34.18 77.17 35.2C77.88 37.1 79.33 38.65 81.19 39.44C82.16 39.84 83.18 40.06 84.24 40.06H88C89.06 40.06 90.12 39.84 91.09 39.44C92.02 39.04 92.86 38.47 93.52 37.76C94.23 37.01 94.76 36.17 95.11 35.2C95.51 34.18 95.68 33.12 95.68 32.02C95.68 30.96 95.5 29.9 95.11 28.88C94.76 27.95 94.23 27.16 93.52 26.45C92.81 25.74 91.97 25.21 91.09 24.86C90.12 24.46 89.06 24.29 87.95 24.29H84.24V24.37ZM97.45 24.37V40.09H100.5V27.46H108.67C109.42 27.42 110.13 27.68 110.7 28.17C111.23 28.74 111.45 29.5 111.41 30.25C111.45 31.05 111.23 31.8 110.7 32.41C110.17 32.94 109.42 33.21 108.67 33.12H102.09V35.9H107.92L111.81 40.14H116.18L111.41 35.37C112.29 34.97 113.04 34.35 113.57 33.56C114.19 32.54 114.5 31.4 114.45 30.25C114.45 29.45 114.32 28.62 114.05 27.86C113.56 26.45 112.46 25.39 111.09 24.86C110.29 24.59 109.5 24.46 108.66 24.46H97.44L97.45 24.37ZM115.65 24.37V27.46H121.48V40.09H124.57V27.46H130.36V24.37H115.65ZM26.87 24.41C26.6 24.59 26.43 24.85 26.25 25.12L17.24 40.09H20.77L27.62 28.52L30.67 33.69H26.21L24.71 36.25H32.22L34.52 40.09H38.23L29.22 25.12C29.09 24.85 28.87 24.63 28.65 24.41C28.38 24.23 28.08 24.14 27.77 24.14C27.4 24.15 27.09 24.24 26.87 24.41Z" fill="#1F3060"/>
<path d="M128.15 22.55L65.43 0.290009L2.71002 22.47V23.27L65.43 7.02001L128.15 23.27V22.55ZM80.8 44.24C80.45 43.93 80.05 43.67 79.61 43.49C79.12 43.31 78.64 43.22 78.11 43.22H75.5V50.2H78.11C78.64 50.2 79.13 50.11 79.61 49.93C80.05 49.75 80.45 49.53 80.8 49.18C81.11 48.87 81.37 48.47 81.55 48.08C81.73 47.64 81.82 47.2 81.82 46.71C81.82 46.22 81.73 45.78 81.55 45.34C81.37 44.95 81.11 44.59 80.8 44.24ZM80.53 46.8C80.53 47.11 80.49 47.46 80.35 47.73C80.26 48 80.08 48.26 79.86 48.48C79.64 48.7 79.37 48.88 79.11 48.97C78.8 49.1 78.45 49.15 78.09 49.15H76.72V44.38H78.09C78.44 44.38 78.75 44.42 79.11 44.56C79.38 44.69 79.64 44.83 79.86 45.05C80.08 45.27 80.26 45.54 80.35 45.8C80.45 46.1 80.53 46.4 80.53 46.8ZM83.36 50.25H84.6V43.27H83.36V50.25ZM91.18 47.33C91.36 47.2 91.58 47.06 91.71 46.89C91.84 46.72 91.98 46.49 92.06 46.27C92.15 46 92.19 45.74 92.19 45.47C92.19 45.2 92.15 44.9 92.06 44.63C91.97 44.36 91.79 44.14 91.62 43.97C91.4 43.75 91.09 43.57 90.78 43.44C90.43 43.31 90.03 43.26 89.63 43.26H86.54V50.24H87.78V47.81H89.33L91.05 50.24H92.51L90.61 47.59C90.74 47.55 90.96 47.46 91.18 47.33ZM87.69 46.76V44.37H89.5C89.9 44.37 90.25 44.46 90.56 44.68C90.83 44.9 90.96 45.21 90.96 45.56C90.96 45.87 90.83 46.22 90.56 46.4C90.25 46.62 89.9 46.75 89.5 46.71L87.69 46.76ZM94.89 47.29H98.38V46.19H94.89V44.38H98.82V43.28H93.65V50.26H98.86V49.16H94.88C94.89 49.14 94.89 47.29 94.89 47.29ZM104.74 49.01C104.39 49.19 104.03 49.28 103.64 49.28C103.02 49.28 102.4 49.01 101.96 48.53C101.74 48.31 101.61 48.04 101.47 47.73C101.34 47.42 101.29 47.11 101.29 46.76C101.29 46.45 101.33 46.1 101.47 45.79C101.56 45.48 101.74 45.22 101.96 44.99C102.18 44.77 102.4 44.59 102.71 44.46C103.02 44.33 103.33 44.28 103.64 44.28C103.99 44.28 104.39 44.37 104.7 44.5C105.01 44.68 105.32 44.9 105.58 45.12L106.38 44.19C106.2 44.01 106.03 43.88 105.85 43.75C105.67 43.62 105.45 43.48 105.23 43.4C105.01 43.31 104.74 43.22 104.52 43.18C104.21 43.14 103.95 43.09 103.64 43.09C103.15 43.09 102.67 43.18 102.18 43.36C101.74 43.54 101.38 43.8 101.03 44.16C100.72 44.47 100.46 44.87 100.28 45.31C100.1 45.75 100.01 46.24 100.01 46.72C100.01 47.21 100.1 47.69 100.28 48.13C100.81 49.46 102.14 50.34 103.55 50.29C103.86 50.29 104.12 50.25 104.43 50.2C104.69 50.16 104.92 50.07 105.18 49.93C105.4 49.84 105.62 49.71 105.8 49.53C106.02 49.35 106.2 49.22 106.37 49L105.57 48.2C105.31 48.61 105 48.83 104.74 49.01ZM107.17 43.27V44.42H109.38V50.25H110.62V44.42H112.83V43.27H107.17ZM115.6 43.27H114.27L118.11 46.76L114.27 50.25H115.6L119.44 46.76L115.6 43.27ZM118.16 43.27H116.83L120.72 46.76L116.83 50.25H118.16L122.05 46.76L118.16 43.27ZM120.77 43.27H119.44L123.28 46.76L119.44 50.25H120.77L124.61 46.76L120.77 43.27ZM58.89 43.14L53.94 50.12H59.15L64.05 43.14H58.89ZM65.3 43.14L60.35 50.12H65.56L70.46 43.14H65.3ZM71.66 43.14L66.76 50.12H74.45V43.14H71.66Z" fill="#DE3639"/>
</svg>
