<svg width="16" height="15" viewBox="0 0 16 15" fill="none" xmlns="http://www.w3.org/2000/svg">
<path d="M8.15002 14.35C12.016 14.35 15.15 11.216 15.15 7.35001C15.15 3.48401 12.016 0.350006 8.15002 0.350006C4.28403 0.350006 1.15002 3.48401 1.15002 7.35001C1.15002 11.216 4.28403 14.35 8.15002 14.35Z" stroke="#1F3060" stroke-width="0.5" stroke-miterlimit="10"/>
<path d="M12 4.07001H4.31C3.86 4.07001 3.48999 4.44001 3.48999 4.89001V9.81001C3.48999 10.26 3.86 10.63 4.31 10.63H12C12.45 10.63 12.82 10.26 12.82 9.81001V4.89001C12.82 4.44001 12.45 4.07001 12 4.07001ZM11.89 4.62001C11.72 4.79001 8.83999 7.66001 8.73999 7.75001C8.58999 7.90001 8.38 7.99001 8.16 7.99001C7.94 7.99001 7.72999 7.90001 7.57999 7.75001C7.50999 7.68001 4.65999 4.85001 4.42999 4.62001H11.89ZM4.03 9.70001V5.00001L6.39001 7.35001L4.03 9.70001ZM4.42001 10.09L6.78 7.74001L7.17999 8.14001C7.43999 8.40001 7.77999 8.54001 8.14999 8.54001C8.51999 8.54001 8.85999 8.40001 9.12 8.14001L9.51999 7.74001L11.88 10.09H4.42001ZM12.27 9.70001L9.91 7.35001L12.27 5.00001V9.70001Z" fill="#1F3060"/>
</svg>
