<?xml version="1.0" encoding="utf-8"?>
<!-- Generator: Adobe Illustrator 24.2.3, SVG Export Plug-In . SVG Version: 6.00 Build 0)  -->
<svg version="1.1" id="Layer_1" xmlns="http://www.w3.org/2000/svg" xmlns:xlink="http://www.w3.org/1999/xlink" x="0px" y="0px"
	 viewBox="0 0 300 116.67" style="enable-background:new 0 0 300 116.67;" xml:space="preserve">
<style type="text/css">
	.st0{fill:url(#Path_5945_1_);}
	.st1{opacity:0.28;fill:#831618;enable-background:new    ;}
	.st2{fill:url(#Path_5946_1_);}
	.st3{opacity:0.09;fill:#FFFFFF;enable-background:new    ;}
	.st4{fill:#1A1213;}
	.st5{fill:url(#Ellipse_370_1_);}
	.st6{fill:url(#Ellipse_371_1_);stroke:#707171;}
	.st7{fill:#9B9B9B;}
	.st8{fill:url(#Path_5951_1_);}
	.st9{fill:url(#Ellipse_373_1_);}
	.st10{fill:url(#Path_5951-2_1_);}
	.st11{fill:url(#Ellipse_373-2_1_);}
	.st12{fill:url(#Path_5952_1_);}
	.st13{fill:url(#Path_5959_1_);}
	.st14{fill:url(#Path_5972_1_);}
	.st15{fill:url(#Path_5960_1_);}
	.st16{fill:url(#Path_5959-2_1_);}
	.st17{fill:url(#Path_5972-2_1_);}
	.st18{fill:url(#Path_5960-2_1_);}
	.st19{fill:#29292E;}
	.st20{fill:url(#Path_5954_1_);}
	.st21{fill:url(#Path_5955_1_);}
	.st22{fill:url(#Path_5956_1_);}
	.st23{fill:#CD6328;}
	.st24{fill:url(#Ellipse_378_1_);}
	.st25{fill:url(#Ellipse_377_1_);}
	.st26{fill:#831618;}
	.st27{fill:url(#Path_5962_1_);}
	.st28{fill:url(#Path_5963_1_);}
	.st29{fill:url(#Path_5964_1_);}
	.st30{fill:#7C7C7C;}
	.st31{fill:url(#Ellipse_376_1_);}
</style>
<g id="Group_5075" transform="translate(-1485 -542.671)">
	
		<linearGradient id="Path_5945_1_" gradientUnits="userSpaceOnUse" x1="2323.4031" y1="903.1398" x2="2323.4009" y2="903.6166" gradientTransform="matrix(7.000000e-15 -115.5903 437.4501 2.700000e-14 -393526.2188 269163.8438)">
		<stop  offset="5.699541e-03" style="stop-color:#B82025"/>
		<stop  offset="0.0786" style="stop-color:#EF5254"/>
		<stop  offset="0.4293" style="stop-color:#EE4344"/>
		<stop  offset="0.6079" style="stop-color:#DC3437"/>
		<stop  offset="0.8311" style="stop-color:#CB262B"/>
		<stop  offset="1" style="stop-color:#C52127"/>
	</linearGradient>
	<path id="Path_5945" class="st0" d="M1551.59,542.67c-4.22,0.93-12.53,5.87-16.57,5.87c0,0-13.13,0.12-17.66,1.07
		c0,0-1.87,0.08-1.54,2.77c0,0,0.18,99.52,0.1,100.94c-0.1,1.86,0.08,3.56,6.96,2.63c0,0,8.87-1.81,19.44-0.36
		c0,0,11.02,3.75,15.29,3.75l46.65-0.08l36.52-12.24l97.55-2.02c0,0,15.36,0.57,18.87-6.08c0,0,8.79-29.72,0.58-64.53
		c0,0-1.45-6.03-2.55-7.75c-3.01-4.71-5.76-5.38-21.48-6.25l-90.98-3.12l-38.75-14.59C1604.02,542.67,1559.86,542.67,1551.59,542.67
		z M1559.11,653.43v-1.74l0.14-100.1c-0.16-0.82,0.27-1.64,0.99-1.9h1.67c2.55,0,2.41,1.74,2.41,1.74l-0.14,102.79L1559.11,653.43z"
		/>
	<path id="Path_5973" class="st1" d="M1594.11,641.16c0,0,12.63,2.36,43.62,7.12c0,0,2.67-88.35-0.09-92.2c0,0-11.28,5.71-13.12,3.3
		l-33.36,6.01L1594.11,641.16z"/>
	<g>
		
			<linearGradient id="Path_5946_1_" gradientUnits="userSpaceOnUse" x1="2310.752" y1="912.2214" x2="2310.752" y2="912.8596" gradientTransform="matrix(3.000000e-15 -55.121 33.5184 2.000000e-15 -29047.5117 127973.4922)">
			<stop  offset="0" style="stop-color:#161616"/>
			<stop  offset="1" style="stop-color:#4D4D5D"/>
		</linearGradient>
		<path id="Path_5946" class="st2" d="M1528.68,616.98c0,0,8.96,1.06,12.87-5.26c0,0,5.54-6.93,1.52-16.53
			c-1.36-2.72-3.51-4.86-6.09-6.08c0,0-5.58-2.44-8.31,0C1528.68,589.11,1539.11,599.72,1528.68,616.98z"/>
		<path id="Path_5947" class="st3" d="M1530.19,591.24c0,0,10.39,1.03,10.61,10.27c0,0,0.32,4.74-3.7,11.42
			c0,0,4.89-1.82,5.54-11.42c0,0,0.65-6.32-6.3-10.82c-2.3-1.29-4.92-1.71-7.45-1.2L1530.19,591.24z"/>
		<ellipse id="Ellipse_369" class="st4" cx="1496.94" cy="603.57" rx="6.47" ry="7.23"/>
		
			<radialGradient id="Ellipse_370_1_" cx="2325.248" cy="906.1063" r="0.2366" gradientTransform="matrix(5.000000e-15 -96.8343 103.6563 7.000000e-15 -92420.3828 225766.75)" gradientUnits="userSpaceOnUse">
			<stop  offset="0" style="stop-color:#AEAEAE"/>
			<stop  offset="1" style="stop-color:#2A2B33"/>
		</radialGradient>
		<ellipse id="Ellipse_370" class="st5" cx="1509.53" cy="603" rx="24.52" ry="22.91"/>
		
			<linearGradient id="Ellipse_371_1_" gradientUnits="userSpaceOnUse" x1="2286.1895" y1="916.2352" x2="2286.8486" y2="916.2352" gradientTransform="matrix(2.000000e-15 -27.486 27.346 2.000000e-15 -23557.5898 63448.3711)">
			<stop  offset="0" style="stop-color:#EAEAE9"/>
			<stop  offset="0.406" style="stop-color:#F3F4F5"/>
			<stop  offset="1" style="stop-color:#959595"/>
		</linearGradient>
		<ellipse id="Ellipse_371" class="st6" cx="1497.78" cy="602.94" rx="6.47" ry="7.23"/>
	</g>
	<g>
		<path id="Path_5950" class="st7" d="M1592.76,640.68l28.49,5.53c0,0,2.52-5.77,0.36-14.19c0,0-1.98-12.51,2.52-12.51
			c0,0,7.93,0,3.25,27.66l5.59,2.16l1.08-78.17c0,0,0.72-10.1-1.98-13.95c0,0-6.13-3.13-4.51,10.34c0,0,1.98,8.66,1.26,13.47
			c0,0-0.54,7.7-5.23,6.49c0,0-4.51-4.81,0-18.04c0,0,0.72-8.18-1.08-10.58l-32.64,6.01L1592.76,640.68z"/>
		<g id="Group_5070" transform="translate(1734.967 582.996) rotate(-90)">
			
				<linearGradient id="Path_5951_1_" gradientUnits="userSpaceOnUse" x1="-1089.6733" y1="699.9365" x2="-1090.458" y2="699.9777" gradientTransform="matrix(36.3187 0 0 17.9118 39596.1875 -12645.7773)">
				<stop  offset="0" style="stop-color:#766446"/>
				<stop  offset="0.642" style="stop-color:#F9CF72"/>
				<stop  offset="1" style="stop-color:#C9AA64"/>
			</linearGradient>
			<path id="Path_5951" class="st8" d="M32.16-103c1.35-1.65-1.06-7.11-5.14-9.3c0,0-3.56-2.31-12.17-0.55c0,0-8.35,3.08-6.63,9.23
				l9.46-1.32l3.93-0.77C21.61-105.7,30.81-101.35,32.16-103z"/>
			
				<radialGradient id="Ellipse_373_1_" cx="-1077.0787" cy="692.2445" r="0.3039" gradientTransform="matrix(39.7663 -2.3748 2.1165 28.6202 41386.4766 -22471.9961)" gradientUnits="userSpaceOnUse">
				<stop  offset="0" style="stop-color:#766446"/>
				<stop  offset="0.5" style="stop-color:#F9CF72"/>
				<stop  offset="1" style="stop-color:#C9AA64"/>
			</radialGradient>
			<path id="Ellipse_373" class="st9" d="M19.54-110.63c6.67-0.4,12.37,3.17,12.72,7.97c0.36,4.8-4.76,9.02-11.44,9.41
				S8.46-96.42,8.1-101.22C7.75-106.02,12.87-110.24,19.54-110.63z"/>
		</g>
		<g id="Group_5074" transform="translate(1733.229 679.939) rotate(-90)">
			
				<linearGradient id="Path_5951-2_1_" gradientUnits="userSpaceOnUse" x1="-990.4625" y1="798.6556" x2="-991.2471" y2="798.6968" gradientTransform="matrix(36.3187 0 0 17.9118 36012.2188 -14413.3389)">
				<stop  offset="0" style="stop-color:#766446"/>
				<stop  offset="0.642" style="stop-color:#F9CF72"/>
				<stop  offset="1" style="stop-color:#C9AA64"/>
			</linearGradient>
			<path id="Path_5951-2" class="st10" d="M51.4-102.32c1.35-1.65-1.06-7.11-5.14-9.3c0,0-3.56-2.31-12.17-0.55
				c0,0-8.35,3.08-6.63,9.23l9.46-1.32l3.93-0.77C40.86-105.02,50.05-100.67,51.4-102.32z"/>
			
				<radialGradient id="Ellipse_373-2_1_" cx="-977.6436" cy="791.0121" r="0.3038" gradientTransform="matrix(39.7663 -2.3748 2.1165 28.6202 37242.5195 -25061.9199)" gradientUnits="userSpaceOnUse">
				<stop  offset="0" style="stop-color:#766446"/>
				<stop  offset="0.5" style="stop-color:#F9CF72"/>
				<stop  offset="1" style="stop-color:#C9AA64"/>
			</radialGradient>
			<path id="Ellipse_373-2" class="st11" d="M38.79-109.95c6.67-0.4,12.37,3.17,12.72,7.97c0.36,4.8-4.76,9.02-11.44,9.41
				s-12.37-3.17-12.72-7.97S32.12-109.55,38.79-109.95z"/>
		</g>
		
			<linearGradient id="Path_5952_1_" gradientUnits="userSpaceOnUse" x1="2322.9084" y1="906.5277" x2="2323.7146" y2="906.5277" gradientTransform="matrix(7.000000e-15 -114.666 72.8736 4.000000e-15 -64451.0117 267007.9688)">
			<stop  offset="0" style="stop-color:#C2C5C6"/>
			<stop  offset="0.928" style="stop-color:#D5D6D5"/>
		</linearGradient>
		<path id="Path_5952" class="st12" d="M1591.68,640.68l28.49,5.53c0,0,2.52-5.77,0.36-14.19c0,0-1.98-12.51,2.52-12.51
			c0,0,7.93,0,3.25,27.66l5.59,2.16l1.08-78.17c0,0,0.72-10.1-1.98-13.95c0,0-6.13-3.13-4.51,10.34c0,0,1.98,8.66,1.26,13.47
			c0,0-0.54,7.7-5.23,6.49c0,0-4.51-4.81,0-18.04c0,0,0.72-8.18-1.08-10.58l-32.64,6.01L1591.68,640.68z"/>
		<g id="Group_5072" transform="translate(1748.082 542.671)">
			
				<linearGradient id="Path_5959_1_" gradientUnits="userSpaceOnUse" x1="-1196.7157" y1="913.5245" x2="-1197.3225" y2="913.4918" gradientTransform="matrix(2.000000e-15 -37.5551 24.1129 1.000000e-15 -22138.9043 -44935.5508)">
				<stop  offset="0" style="stop-color:#BCBDBF"/>
				<stop  offset="3.000000e-03" style="stop-color:#BCBDBF"/>
				<stop  offset="0.336" style="stop-color:#FFFFFF"/>
				<stop  offset="0.656" style="stop-color:#929497"/>
				<stop  offset="0.826" style="stop-color:#929497"/>
				<stop  offset="1" style="stop-color:#767576"/>
			</linearGradient>
			<path id="Path_5959" class="st13" d="M-105.52,28.48c-1.97,0.98-4.1,1.48-6.26,1.49c0,0-2.05,0.21-3.64-2.5
				c0,0-4.01-4.9-1.96-13.36c0,0,1.49-4.28,5.04-5.32c1.64-0.7,3.49-0.4,4.89,0.79l-3.86,6.1l0.56,8.87L-105.52,28.48z"/>
			
				<linearGradient id="Path_5972_1_" gradientUnits="userSpaceOnUse" x1="-1210.3574" y1="917.2628" x2="-1210.6907" y2="917.2827" gradientTransform="matrix(2.000000e-15 -27.252 17.6 1.000000e-15 -16249.3906 -32970.9102)">
				<stop  offset="0" style="stop-color:#15181D"/>
				<stop  offset="1" style="stop-color:#B2B2B2"/>
			</linearGradient>
			<path id="Path_5972" class="st14" d="M-110.09,19.33c0,6.24,2.48,8.45,2.48,8.45s7.31-3.3,7.31-9.54s-7.87-8.09-7.87-8.09
				S-110.09,13.09-110.09,19.33z M-103.38,17.32c0,3.14-1.6,5.69-3.57,5.69s-3.57-2.55-3.57-5.69s1.6-5.69,3.57-5.69
				S-103.38,14.18-103.38,17.32z"/>
			
				<radialGradient id="Path_5960_1_" cx="-370.3488" cy="582.239" r="7.9781" gradientTransform="matrix(0.9999 0 0 -1.1127 262.8617 667.0273)" gradientUnits="userSpaceOnUse">
				<stop  offset="0" style="stop-color:#BCBDBF"/>
				<stop  offset="0" style="stop-color:#929497"/>
				<stop  offset="1.000000e-03" style="stop-color:#BCBDBF"/>
				<stop  offset="0.218" style="stop-color:#FFFFFF"/>
				<stop  offset="0.826" style="stop-color:#929497"/>
				<stop  offset="1" style="stop-color:#767576"/>
			</radialGradient>
			<path id="Path_5960" class="st15" d="M-114.72,19.17c0,5.3,3.25,9.6,7.27,9.6s7.27-4.3,7.27-9.6s-3.25-9.6-7.27-9.6
				S-114.72,13.87-114.72,19.17z M-103.2,18.35c0,2.67-1.36,4.83-3.03,4.83s-3.03-2.16-3.03-4.83s1.36-4.83,3.03-4.83
				S-103.2,15.68-103.2,18.35L-103.2,18.35z"/>
		</g>
		<g id="Group_5073" transform="translate(1748.951 643.107)">
			
				<linearGradient id="Path_5959-2_1_" gradientUnits="userSpaceOnUse" x1="-1197.8811" y1="913.4424" x2="-1198.5002" y2="913.409" gradientTransform="matrix(2.000000e-15 -37.5551 24.1129 1.000000e-15 -22138.9023 -45000.8242)">
				<stop  offset="0" style="stop-color:#BCBDBF"/>
				<stop  offset="3.000000e-03" style="stop-color:#BCBDBF"/>
				<stop  offset="0.336" style="stop-color:#FFFFFF"/>
				<stop  offset="0.656" style="stop-color:#929497"/>
				<stop  offset="0.826" style="stop-color:#929497"/>
				<stop  offset="1" style="stop-color:#767576"/>
			</linearGradient>
			<path id="Path_5959-2" class="st16" d="M-107.39,7.4c-2.01,1-4.18,1.51-6.38,1.52c0,0-2.09,0.21-3.71-2.55c0,0-4.09-5-2-13.63
				c0,0,1.52-4.37,5.14-5.43c1.68-0.71,3.57-0.41,4.99,0.8l-3.94,6.22l0.57,9.05L-107.39,7.4z"/>
			
				<linearGradient id="Path_5972-2_1_" gradientUnits="userSpaceOnUse" x1="-1211.349" y1="917.0933" x2="-1211.6511" y2="917.1114" gradientTransform="matrix(2.000000e-15 -27.252 17.6 1.000000e-15 -16249.3906 -33018.2773)">
				<stop  offset="0" style="stop-color:#15181D"/>
				<stop  offset="1" style="stop-color:#B2B2B2"/>
			</linearGradient>
			<path id="Path_5972-2" class="st17" d="M-112.65-1.19c0,5.41,2.15,7.33,2.15,7.33s6.74-2.83,6.74-8.24s-7.47-7.73-7.47-7.73
				S-112.65-6.6-112.65-1.19z M-106.84-2.93c0,2.72-1.38,4.93-3.09,4.93s-3.09-2.21-3.09-4.93s1.38-4.93,3.09-4.93
				C-108.23-7.86-106.84-5.65-106.84-2.93z"/>
			
				<radialGradient id="Path_5960-2_1_" cx="-373.118" cy="511.0895" r="8.1388" gradientTransform="matrix(0.9999 0 0 -1.1127 263.7307 566.5893)" gradientUnits="userSpaceOnUse">
				<stop  offset="0" style="stop-color:#BCBDBF"/>
				<stop  offset="0" style="stop-color:#929497"/>
				<stop  offset="1.000000e-03" style="stop-color:#BCBDBF"/>
				<stop  offset="0.218" style="stop-color:#FFFFFF"/>
				<stop  offset="0.826" style="stop-color:#929497"/>
				<stop  offset="1" style="stop-color:#767576"/>
			</radialGradient>
			<path id="Path_5960-2" class="st18" d="M-116.77-2.1c0,5.41,3.32,9.79,7.42,9.79s7.42-4.38,7.42-9.79s-3.32-9.79-7.42-9.79
				S-116.77-7.5-116.77-2.1z M-105.01-2.93c0,2.72-1.38,4.93-3.09,4.93s-3.09-2.21-3.09-4.93s1.38-4.93,3.09-4.93
				C-106.4-7.86-105.01-5.66-105.01-2.93L-105.01-2.93z"/>
		</g>
	</g>
	<path class="st19" d="M1598.71,597.31c-1.65-26.6-11.51-25.25-11.51-25.25c-8.4,0.21-9.03,10.69-9.03,10.69l0.49,18.26l-0.49,18.26
		c0,0,0.62,10.48,9.03,10.69c0,0,9.86,1.35,11.51-25.25l-13.26-3.7L1598.71,597.31z"/>
	<g id="Group_5071" transform="translate(1653.007 650.14) rotate(-90)">
		
			<linearGradient id="Path_5954_1_" gradientUnits="userSpaceOnUse" x1="-971.0974" y1="849.6335" x2="-970.2568" y2="849.6335" gradientTransform="matrix(19.651 0 0 17.7579 19132.2012 -15129.9072)">
			<stop  offset="0" style="stop-color:#EAEAE9"/>
			<stop  offset="0.406" style="stop-color:#F3F4F5"/>
			<stop  offset="1" style="stop-color:#959595"/>
		</linearGradient>
		<path id="Path_5954" class="st20" d="M42.93-46.89c0,0-0.81,5.37,0,7.13c0.47,1.03,1.23,2.22,4.45,2.33
			c7.25,0.38,8.42-0.91,8.38-3.44c-0.03-1.76,0-6.23,0-6.23L42.93-46.89z"/>
		
			<linearGradient id="Path_5955_1_" gradientUnits="userSpaceOnUse" x1="-927.2281" y1="846.7163" x2="-926.6208" y2="846.7163" gradientTransform="matrix(56.1515 0 0 21.8103 52113.7969 -18525.498)">
			<stop  offset="0" style="stop-color:#3C414C"/>
			<stop  offset="0.066" style="stop-color:#3A4055"/>
			<stop  offset="0.134" style="stop-color:#5D6274"/>
			<stop  offset="0.845" style="stop-color:#323239"/>
			<stop  offset="0.91" style="stop-color:#302F37"/>
			<stop  offset="1" style="stop-color:#111113"/>
		</linearGradient>
		<path id="Path_5955" class="st21" d="M30.34-58.36c0.37,1.65,0.2,3.37-0.5,4.93c-0.76,1.7,0.13,3.63,2.01,4.34
			c0,0,11.87,6.88,29.27,2.54l4.35-1.35c0,0,2.84-0.9,1.84-3.14c0,0-1.88-5.08-0.71-6.57L30.34-58.36z"/>
		
			<linearGradient id="Path_5956_1_" gradientUnits="userSpaceOnUse" x1="-924.5195" y1="841.657" x2="-925.0469" y2="841.6887" gradientTransform="matrix(63.4071 0 0 38.5142 58670.9219 -32484.0273)">
			<stop  offset="0" style="stop-color:#F8A24B"/>
			<stop  offset="0.471" style="stop-color:#F9A445"/>
			<stop  offset="1" style="stop-color:#CD7628"/>
		</linearGradient>
		<path id="Path_5956" class="st22" d="M30.97-78.17c0,0-2.63,2.47-1.96,5.46c0,0,0.34,6.43-0.67,8.97c0,0-2.34,4.19,2.01,5.38
			c0,0,12.71,7.18,35.29,1.2c1.46-0.49,2.82-1.2,4.01-2.09c0,0,1.67-0.6,0.5-3.59c0,0-1.34-2.39-0.84-6.73s1.09-6.96-1.41-8.6H30.97
			z"/>
		<g id="Path_5967">
			<polygon class="st23" points="62.62,-75.55 63.62,-75.6 64.57,-56.85 63.58,-56.66 			"/>
		</g>
		<g id="Path_5968">
			<polygon class="st23" points="55.74,-73.94 56.74,-73.96 57.15,-55.4 56.08,-55.28 			"/>
		</g>
		<g id="Path_5970">
			<polygon class="st23" points="37.57,-55.88 40.39,-75.08 41.38,-74.94 38.57,-55.7 			"/>
		</g>
		<g id="Path_5971">
			<polygon class="st23" points="30.82,-58.13 34.5,-77.22 35.48,-77.03 31.78,-57.68 			"/>
		</g>
		
			<radialGradient id="Ellipse_378_1_" cx="-917.4098" cy="859.0799" r="0.4307" gradientTransform="matrix(0 -60.848 16.2465 0 -13908.0283 -55900.4258)" gradientUnits="userSpaceOnUse">
			<stop  offset="0" style="stop-color:#E58725"/>
			<stop  offset="1" style="stop-color:#F79430"/>
		</radialGradient>
		
			<ellipse id="Ellipse_378" transform="matrix(-2.535182e-06 -1 1 -2.535182e-06 127.3521 -28.3722)" class="st24" cx="49.49" cy="-77.86" rx="4.93" ry="18.48"/>
		<g id="Path_5969">
			<polygon class="st23" points="47.55,-54.79 48.65,-73.45 49.65,-73.4 48.59,-54.75 			"/>
		</g>
		
			<radialGradient id="Ellipse_377_1_" cx="-917.4098" cy="859.1009" r="0.4307" gradientTransform="matrix(0 -60.848 16.2465 0 -13908.3691 -55900.9531)" gradientUnits="userSpaceOnUse">
			<stop  offset="0" style="stop-color:#FBB969"/>
			<stop  offset="1" style="stop-color:#F79430"/>
		</radialGradient>
		
			<ellipse id="Ellipse_377" transform="matrix(-2.535182e-06 -1 1 -2.535182e-06 127.889 -28.8923)" class="st25" cx="49.5" cy="-78.39" rx="4.93" ry="18.48"/>
	</g>
	<g>
		<path id="Path_5961" class="st26" d="M1743.98,581.81h-63.93c-10,0.07-18.05,9.15-17.98,20.27l0,0
			c-0.06,11.12,7.99,20.2,17.98,20.27h64.43C1745.59,617.99,1748.84,602.2,1743.98,581.81z"/>
		
			<linearGradient id="Path_5962_1_" gradientUnits="userSpaceOnUse" x1="2313.7412" y1="903.619" x2="2313.73" y2="904.2711" gradientTransform="matrix(4.000000e-15 -63.05 147.3992 9.000000e-15 -131543.9375 146483)">
			<stop  offset="0" style="stop-color:#EE3838"/>
			<stop  offset="1" style="stop-color:#EC1E24"/>
		</linearGradient>
		<path id="Path_5962" class="st27" d="M1742.37,582.62h-61.87c-9.63,0.03-17.43,8.74-17.4,19.46l0,0l0,0
			c-0.02,10.72,7.77,19.43,17.4,19.46l0,0h62.34C1743.92,617.36,1747.07,602.19,1742.37,582.62z"/>
		
			<linearGradient id="Path_5963_1_" gradientUnits="userSpaceOnUse" x1="2300.1384" y1="906.3747" x2="2300.1484" y2="905.8298" gradientTransform="matrix(2.000000e-15 -38.4257 59.6315 4.000000e-15 -52347.1836 88986.1641)">
			<stop  offset="0" style="stop-color:#0F0F10"/>
			<stop  offset="1" style="stop-color:#343539"/>
		</linearGradient>
		<path id="Path_5963" class="st28" d="M1700.4,612.87l-19.4,0.58c0,0-8.48,0.77-11.25-6.94c0,0-3.1-7.52,1.79-13.1
			c0,0,1.96-3.28,7.34-3.47l22.99-0.19L1700.4,612.87z"/>
		
			<linearGradient id="Path_5964_1_" gradientUnits="userSpaceOnUse" x1="2316.0315" y1="903.4328" x2="2315.4348" y2="903.4347" gradientTransform="matrix(4.000000e-15 -69.6851 195.0648 1.200000e-14 -174486.6719 161973.7969)">
			<stop  offset="0" style="stop-color:#3C414C"/>
			<stop  offset="0.066" style="stop-color:#3A4055"/>
			<stop  offset="0.134" style="stop-color:#5D6274"/>
			<stop  offset="0.845" style="stop-color:#323239"/>
			<stop  offset="0.91" style="stop-color:#302F37"/>
			<stop  offset="1" style="stop-color:#111113"/>
		</linearGradient>
		<path id="Path_5964" class="st29" d="M1761.65,622.5h-46.35c0,0-7.06-1.35-11.03-4.82c0,0-7.41-4.62-6.37-18.31
			c0,0,0.69-10.02,7.93-14.07c0,0,3.96-3.08,10.51-2.89l37.04-1.54l19.71-1.44c0,0,6.03-0.58,9.48,2.7c1.74,1.92,2.63,4.6,2.41,7.32
			v21.97c0,0,0.37,6.37-2.58,8.86c0,0-1.9,2.31-7.24,2.12L1761.65,622.5z"/>
		<ellipse id="Ellipse_375" class="st30" cx="1732.48" cy="602.2" rx="11.2" ry="11.96"/>
		
			<linearGradient id="Ellipse_376_1_" gradientUnits="userSpaceOnUse" x1="2296.1807" y1="907.2527" x2="2296.9534" y2="907.2527" gradientTransform="matrix(2.000000e-15 -34.766 36.162 2.000000e-15 -31075.5918 80441.9453)">
			<stop  offset="0" style="stop-color:#EAEAE9"/>
			<stop  offset="0.406" style="stop-color:#F3F4F5"/>
			<stop  offset="1" style="stop-color:#959595"/>
		</linearGradient>
		<ellipse id="Ellipse_376" class="st31" cx="1732.48" cy="602.2" rx="10.03" ry="10.73"/>
		<path id="Path_5965" class="st30" d="M1730.99,613.64l5.83-21.91l-2.91-1.09l-5.34,22.81L1730.99,613.64z"/>
	</g>
	<path id="Path_5948" class="st30" d="M1501.68,612.53c0,0-6.06-7.04-3.97-17.29l0.91-0.38c0,0-1.65,13,4.62,17.27L1501.68,612.53z"
		/>
</g>
</svg>
