<?xml version="1.0" encoding="utf-8"?>
<!-- Generator: Adobe Illustrator 24.2.3, SVG Export Plug-In . SVG Version: 6.00 Build 0)  -->
<svg version="1.1" id="Layer_1" xmlns="http://www.w3.org/2000/svg" xmlns:xlink="http://www.w3.org/1999/xlink" x="0px" y="0px"
	 viewBox="0 0 300 426.92" style="enable-background:new 0 0 300 426.92;" xml:space="preserve">
<style type="text/css">
	.st0{fill:#E1E1E1;}
	.st1{fill:url(#SVGID_1_);}
	.st2{fill:#A2A6AB;}
	.st3{fill:url(#SVGID_2_);}
	.st4{fill:url(#SVGID_3_);}
	.st5{fill:#707070;}
	.st6{fill:url(#SVGID_4_);}
	.st7{opacity:0.62;enable-background:new    ;}
	.st8{fill:url(#SVGID_5_);}
	.st9{fill:url(#SVGID_6_);}
</style>
<path id="Union_22" class="st0" d="M173.04,406.98l15.83-54.67h-78.43l12.52,54.67l-27.39,1.33L0,24.44L19.42,3.06l88.02,333.26
	l85.35,0L281.52,0L300,20.01l-95.65,388.3L173.04,406.98z"/>
<linearGradient id="SVGID_1_" gradientUnits="userSpaceOnUse" x1="99.8513" y1="255.0743" x2="99.8536" y2="257.7555" gradientTransform="matrix(8.402180e-15 137.218 17.535 -1.073709e-15 -4351.7661 -13460.4746)">
	<stop  offset="0" style="stop-color:#BCBEC0"/>
	<stop  offset="0.606" style="stop-color:#F5F5F5"/>
	<stop  offset="0.628" style="stop-color:#9E9E9E"/>
	<stop  offset="0.653" style="stop-color:#BFBFBF"/>
	<stop  offset="1" style="stop-color:#939598"/>
</linearGradient>
<rect x="140.52" y="80.27" class="st1" width="19.99" height="321.71"/>
<path class="st2" d="M161.01,402.47h-20.99V79.77h20.99V402.47z M141.02,401.47h18.99V80.77h-18.99V401.47z"/>
<linearGradient id="SVGID_2_" gradientUnits="userSpaceOnUse" x1="84.163" y1="257.6462" x2="84.163" y2="258.7172" gradientTransform="matrix(5.240264e-16 8.558 23.503 -1.439144e-15 -5918.3652 -594.474)">
	<stop  offset="0" style="stop-color:#BCBEC0"/>
	<stop  offset="0.134" style="stop-color:#939598"/>
	<stop  offset="0.514" style="stop-color:#FFFFFF"/>
	<stop  offset="1" style="stop-color:#939598"/>
</linearGradient>
<rect x="138.76" y="121.52" class="st3" width="23.5" height="8.54"/>
<path class="st2" d="M162.77,130.57h-24.5v-9.54h24.5V130.57z M139.26,129.57h22.5v-7.54h-22.5V129.57z"/>
<linearGradient id="SVGID_3_" gradientUnits="userSpaceOnUse" x1="25.6988" y1="411.0794" x2="274.3652" y2="412.9609">
	<stop  offset="0" style="stop-color:#EAEAEA"/>
	<stop  offset="0.079" style="stop-color:#D4D4D4"/>
	<stop  offset="0.086" style="stop-color:#EEEEEE"/>
	<stop  offset="0.117" style="stop-color:#F4F4F4"/>
	<stop  offset="0.911" style="stop-color:#B0B0B0"/>
	<stop  offset="0.911" style="stop-color:#A9A9A9"/>
	<stop  offset="1" style="stop-color:#969696"/>
</linearGradient>
<rect x="25.2" y="397.59" class="st4" width="240.62" height="28.79"/>
<path class="st5" d="M266.33,426.88H24.7v-29.79h241.62V426.88z M25.7,425.88h239.62v-27.79H25.7V425.88z"/>
<linearGradient id="SVGID_4_" gradientUnits="userSpaceOnUse" x1="98.2277" y1="262.9551" x2="98.2209" y2="261.9138" gradientTransform="matrix(44.3429 0 0 -26.378 -4206.3428 7319.7886)">
	<stop  offset="0" style="stop-color:#EAEAEA"/>
	<stop  offset="0" style="stop-color:#EEEEEE"/>
	<stop  offset="0.087" style="stop-color:#D4D4D4"/>
	<stop  offset="0.784" style="stop-color:#F4F4F4"/>
	<stop  offset="0.911" style="stop-color:#B0B0B0"/>
	<stop  offset="0.911" style="stop-color:#A9A9A9"/>
	<stop  offset="1" style="stop-color:#969696"/>
</linearGradient>
<path class="st6" d="M170,384.04h-16.84l0.02-0.47h-24.54c-8.92,1.12-2.54,10.01,0,11.15c4.58,2.06,8.23,4.16,7.81,6.69
	c-0.59,4.11,0.41,8.3,2.79,11.71l7.3-0.32l0.01,0.23l12.86,0.56c2.38-3.41,3.38-7.59,2.79-11.71c-0.42-2.53,3.23-4.63,7.81-6.69
	C172.53,394.05,178.91,385.16,170,384.04z"/>
<path class="st5" d="M159.65,414.11l-13.6-0.59l-0.01-0.19l-7.07,0.31l-0.16-0.23c-2.46-3.53-3.48-7.81-2.87-12.07
	c0.38-2.29-3.58-4.4-7.52-6.16c-1.93-0.87-5.32-5.23-4.84-8.43c0.21-1.42,1.25-3.21,4.98-3.67l25.12,0l-0.02,0.47l16.39,0
	c3.73,0.47,4.77,2.25,4.98,3.67c0.48,3.2-2.91,7.56-4.84,8.44c-3.93,1.77-7.9,3.88-7.52,6.15c0.61,4.27-0.41,8.55-2.87,12.08
	L159.65,414.11z M147.02,412.56l12.12,0.53c2.21-3.27,3.11-7.21,2.55-11.13c-0.46-2.76,2.9-4.88,8.1-7.22
	c1.42-0.64,4.69-4.53,4.26-7.37c-0.24-1.56-1.61-2.51-4.08-2.82h-17.33l0.02-0.47h-24.02c-2.44,0.31-3.82,1.26-4.06,2.83
	c-0.43,2.84,2.84,6.73,4.26,7.37c5.2,2.33,8.56,4.45,8.1,7.23c-0.56,3.9,0.35,7.84,2.55,11.11l7.52-0.33L147.02,412.56z"/>
<rect id="Rectangle_22777" x="115.5" y="413.13" class="st7" width="70.03" height="8.78"/>
<linearGradient id="SVGID_5_" gradientUnits="userSpaceOnUse" x1="97.5074" y1="262.0045" x2="98.6472" y2="262.0205" gradientTransform="matrix(41.546 0 0 -10.904 -3924.2012 3274.4971)">
	<stop  offset="0" style="stop-color:#EAEAEA"/>
	<stop  offset="0.079" style="stop-color:#D4D4D4"/>
	<stop  offset="0.086" style="stop-color:#EEEEEE"/>
	<stop  offset="0.117" style="stop-color:#F4F4F4"/>
	<stop  offset="0.911" style="stop-color:#B0B0B0"/>
	<stop  offset="0.911" style="stop-color:#A9A9A9"/>
	<stop  offset="1" style="stop-color:#969696"/>
</linearGradient>
<rect x="126.84" y="411.31" class="st8" width="47.36" height="12.41"/>
<path class="st5" d="M174.69,424.22h-48.36v-13.41h48.36V424.22z M127.33,423.22h46.36v-11.41h-46.36V423.22z"/>
<linearGradient id="SVGID_6_" gradientUnits="userSpaceOnUse" x1="95.2817" y1="262.1704" x2="96.4216" y2="262.1864" gradientTransform="matrix(21.654 0 0 -16.53 -1925.0549 4751.3232)">
	<stop  offset="0" style="stop-color:#EAEAEA"/>
	<stop  offset="0.079" style="stop-color:#D4D4D4"/>
	<stop  offset="0.086" style="stop-color:#EEEEEE"/>
	<stop  offset="0.117" style="stop-color:#F4F4F4"/>
	<stop  offset="0.911" style="stop-color:#B0B0B0"/>
	<stop  offset="0.911" style="stop-color:#A9A9A9"/>
	<stop  offset="1" style="stop-color:#969696"/>
</linearGradient>
<rect x="138.17" y="408.11" class="st9" width="24.68" height="18.81"/>
<path class="st5" d="M163.36,427.42h-25.68v-19.81h25.68V427.42z M138.67,426.42h23.68v-17.81h-23.68V426.42z"/>
</svg>
