<?xml version="1.0" encoding="utf-8"?>
<!-- Generator: Adobe Illustrator 24.2.3, SVG Export Plug-In . SVG Version: 6.00 Build 0)  -->
<svg version="1.1" id="Layer_1" xmlns="http://www.w3.org/2000/svg" xmlns:xlink="http://www.w3.org/1999/xlink" x="0px" y="0px"
	 viewBox="0 0 300 905.91" style="enable-background:new 0 0 300 905.91;" xml:space="preserve">
<style type="text/css">
	.st0{fill:#7B7B7B;}
	.st1{fill:url(#Path_4672-2_5_);}
	.st2{fill:url(#Path_4672-2_6_);}
	.st3{fill:#FFFFFF;}
	.st4{fill:#E1E1E1;}
	.st5{fill:url(#Path_4680-2_13_);}
	.st6{fill:url(#Path_4680-2_14_);}
	.st7{fill:url(#Path_4680-2_15_);}
	.st8{fill:url(#Path_4680-2_16_);}
	.st9{fill:url(#Path_4680-2_17_);}
	.st10{fill:url(#Path_4680-2_18_);}
	.st11{fill:url(#SVGID_1_);}
	.st12{fill:#F3F4F5;}
	.st13{fill:url(#Path_4672-2_7_);}
	.st14{fill:url(#Path_4672-2_8_);}
	.st15{fill:url(#Path_4680-2_19_);}
	.st16{fill:url(#Path_4680-2_20_);}
	.st17{fill:url(#Path_4680-2_21_);}
	.st18{fill:url(#Path_4680-2_22_);}
	.st19{fill:url(#Path_4680-2_23_);}
	.st20{fill:url(#Path_4680-2_24_);}
	.st21{opacity:0.44;fill:url(#Path_9573_1_);enable-background:new    ;}
</style>
<g>
	<g id="Group_4600-2_4_" transform="translate(0)">
		<path id="Path_4671-2_4_" class="st0" d="M259.13,301.41L188.41,0.95L200.9,0l73.08,301.4L259.13,301.41z"/>
		
			<linearGradient id="Path_4672-2_5_" gradientUnits="userSpaceOnUse" x1="-669.4359" y1="-888.8783" x2="-663.7912" y2="-884.8268" gradientTransform="matrix(-3.000000e-15 -45.929 -54.105 3.000000e-15 -47715.9336 -30443.5957)">
			<stop  offset="0" style="stop-color:#EBEAEA"/>
			<stop  offset="0.608" style="stop-color:#B9B8B9"/>
			<stop  offset="1" style="stop-color:#929497"/>
		</linearGradient>
		<path id="Path_4672-2_4_" class="st1" d="M222.32,0l76.24,301.59l-24.65-0.19L200.76,0H222.32z"/>
	</g>
	<g id="Group_4600-2_1_" transform="translate(0)">
		<path id="Path_4671-2_1_" class="st0" d="M41.04,301.64L111.69,0.18L99.01,0.05L25.97,301.44L41.04,301.64z"/>
		
			<linearGradient id="Path_4672-2_6_" gradientUnits="userSpaceOnUse" x1="-669.4367" y1="-782.0222" x2="-663.7921" y2="-777.9709" gradientTransform="matrix(3.000000e-15 -45.929 54.105 3.000000e-15 42234.4414 -30443.5957)">
			<stop  offset="0" style="stop-color:#EBEAEA"/>
			<stop  offset="0.608" style="stop-color:#B9B8B9"/>
			<stop  offset="1" style="stop-color:#929497"/>
		</linearGradient>
		<path id="Path_4672-2_1_" class="st2" d="M77.63,0.04L1.39,301.63l24.65-0.19L99.19,0.04H77.63z"/>
	</g>
	<g id="Group_4604-2_12_" transform="translate(36.32 49.574)">
		<g id="Path_4679-2_12_" transform="translate(-308.72 -850.376)">
			<path class="st3" d="M473.01,809.65l-6.57,6.89h-88.01l-8.01-6.2L473.01,809.65z"/>
			<path class="st4" d="M378.68,816.33l87.35-0.03l6.91-6.61l-102.03,1.06L378.68,816.33z M370.36,810.3l103.38-1.03l-7.25,7.44
				h-88.1L370.36,810.3z"/>
		</g>
		
			<linearGradient id="Path_4680-2_13_" gradientUnits="userSpaceOnUse" x1="-1499.0813" y1="-773.8218" x2="-1497.7048" y2="-774.7983" gradientTransform="matrix(1.000000e-15 -8.27 66.4371 4.000000e-15 51553.043 -12436.7344)">
			<stop  offset="0" style="stop-color:#EBEAEA"/>
			<stop  offset="0.608" style="stop-color:#B9B8B9"/>
			<stop  offset="1" style="stop-color:#929497"/>
		</linearGradient>
		<path id="Path_4680-2_12_" class="st5" d="M64.41-49.57l98.16,0.26l2.46,8.34L61.7-40.03L64.41-49.57z"/>
	</g>
	<g id="Group_4604-2_5_" transform="translate(36.32 49.574)">
		<g id="Path_4679-2_5_" transform="translate(-308.72 -850.376)">
			<path class="st3" d="M479.78,844.01l-6.88,8.93H372.07l-8.5-8.03L479.78,844.01z"/>
			<path class="st4" d="M372.34,852.66l100.09-0.04l7.27-8.56l-115.58,1.38L372.34,852.66z M363.5,844.86l117.08-1.24l-7.63,9.55
				H372.02L363.5,844.86z"/>
		</g>
		
			<linearGradient id="Path_4680-2_14_" gradientUnits="userSpaceOnUse" x1="-1503.2266" y1="-773.7309" x2="-1501.5571" y2="-774.9149" gradientTransform="matrix(1.000000e-15 -8.27 66.4371 4.000000e-15 51553.043 -12436.7344)">
			<stop  offset="0" style="stop-color:#EBEAEA"/>
			<stop  offset="0.608" style="stop-color:#B9B8B9"/>
			<stop  offset="1" style="stop-color:#929497"/>
		</linearGradient>
		<path id="Path_4680-2_5_" class="st6" d="M57.89-17.83l111.25,0.34l2.76,10.8L54.85-5.46L57.89-17.83z"/>
	</g>
	<g id="Group_4604-2_4_" transform="translate(36.32 49.574)">
		<g id="Path_4679-2_4_" transform="translate(-308.72 -850.376)">
			<path class="st3" d="M491.14,890.37l-7.05,9.47H360.93l-8.77-8.51L491.14,890.37z"/>
			<path class="st4" d="M361.22,899.54l122.37-0.05l7.47-9.08l-138.31,1.46L361.22,899.54z M352.09,891.27l139.9-1.32l-7.85,10.12
				H360.89L352.09,891.27z"/>
		</g>
		
			<linearGradient id="Path_4680-2_15_" gradientUnits="userSpaceOnUse" x1="-1508.8956" y1="-773.6608" x2="-1507.016" y2="-774.9939" gradientTransform="matrix(1.000000e-15 -8.27 66.4371 4.000000e-15 51553.043 -12436.7344)">
			<stop  offset="0" style="stop-color:#EBEAEA"/>
			<stop  offset="0.608" style="stop-color:#B9B8B9"/>
			<stop  offset="1" style="stop-color:#929497"/>
		</linearGradient>
		<path id="Path_4680-2_4_" class="st7" d="M46.66,27.84l133.71,0.36l2.93,11.45l-139.86,1.3L46.66,27.84z"/>
	</g>
	<g id="Group_4604-2_3_" transform="translate(36.32 49.574)">
		<g id="Path_4679-2_3_" transform="translate(-308.72 -850.376)">
			<path class="st3" d="M504.15,944.39l-7.05,9.47H347.93l-8.77-8.51L504.15,944.39z"/>
			<path class="st4" d="M348.22,953.56l148.37-0.05l7.47-9.08l-164.32,1.46L348.22,953.56z M339.09,945.28L505,943.96l-7.85,10.12
				H347.88L339.09,945.28z"/>
		</g>
		
			<linearGradient id="Path_4680-2_16_" gradientUnits="userSpaceOnUse" x1="-1515.5157" y1="-773.5982" x2="-1513.4553" y2="-775.0596" gradientTransform="matrix(1.000000e-15 -8.27 66.4371 4.000000e-15 51553.043 -12436.7344)">
			<stop  offset="0" style="stop-color:#EBEAEA"/>
			<stop  offset="0.608" style="stop-color:#B9B8B9"/>
			<stop  offset="1" style="stop-color:#929497"/>
		</linearGradient>
		<path id="Path_4680-2_3_" class="st8" d="M33.66,81.86l159.72,0.36l2.93,11.45l-165.87,1.3L33.66,81.86z"/>
	</g>
	<g id="Group_4604-2_2_" transform="translate(36.32 49.574)">
		<g id="Path_4679-2_2_" transform="translate(-308.72 -850.376)">
			<path class="st3" d="M516.15,994.48l-7.05,9.47H335.93l-8.77-8.51L516.15,994.48z"/>
			<path class="st4" d="M336.22,1003.64l172.38-0.05l7.47-9.08l-188.32,1.46L336.22,1003.64z M327.09,995.37L517,994.05l-7.85,10.12
				H335.88L327.09,995.37z"/>
		</g>
		
			<linearGradient id="Path_4680-2_17_" gradientUnits="userSpaceOnUse" x1="-1521.6538" y1="-773.5398" x2="-1519.4265" y2="-775.1196" gradientTransform="matrix(1.000000e-15 -8.27 66.4371 4.000000e-15 51553.043 -12436.7344)">
			<stop  offset="0" style="stop-color:#EBEAEA"/>
			<stop  offset="0.608" style="stop-color:#B9B8B9"/>
			<stop  offset="1" style="stop-color:#929497"/>
		</linearGradient>
		<path id="Path_4680-2_2_" class="st9" d="M21.66,131.94l183.72,0.36l2.93,11.45l-189.87,1.3L21.66,131.94z"/>
	</g>
	<g id="Group_4604-2_1_" transform="translate(36.32 49.574)">
		<g id="Path_4679-2_1_" transform="translate(-308.72 -850.376)">
			<path class="st3" d="M531.15,1056.61l-7.05,9.47H321.92l-8.77-8.51L531.15,1056.61z"/>
			<path class="st4" d="M322.22,1065.78l201.38-0.05l7.47-9.08l-217.33,1.46L322.22,1065.78z M313.08,1057.51l218.92-1.32
				l-7.85,10.12H321.88L313.08,1057.51z"/>
		</g>
		
			<linearGradient id="Path_4680-2_18_" gradientUnits="userSpaceOnUse" x1="-1529.2662" y1="-773.4622" x2="-1526.8374" y2="-775.185" gradientTransform="matrix(1.000000e-15 -8.27 66.4371 4.000000e-15 51553.043 -12436.7344)">
			<stop  offset="0" style="stop-color:#EBEAEA"/>
			<stop  offset="0.608" style="stop-color:#B9B8B9"/>
			<stop  offset="1" style="stop-color:#929497"/>
		</linearGradient>
		<path id="Path_4680-2_1_" class="st10" d="M7.66,194.08l212.73,0.36l2.93,11.45l-218.88,1.3L7.66,194.08z"/>
	</g>
</g>
<linearGradient id="SVGID_1_" gradientUnits="userSpaceOnUse" x1="-1574.4038" y1="-762.2469" x2="-1572.5963" y2="-762.2469" gradientTransform="matrix(1.000000e-14 -171.3593 163.9728 1.000000e-14 125137.75 -269177.5625)">
	<stop  offset="0" style="stop-color:#C2C5C6"/>
	<stop  offset="0.928" style="stop-color:#D5D6D5"/>
</linearGradient>
<path class="st11" d="M298.19,301.44v309.73H1.81V301.44H298.19z"/>
<path class="st12" d="M3.62,609.37h292.77V303.25H3.62V609.37 M0,612.98V299.63h300v313.35H0z"/>
<g>
	<g id="Group_4600-2_3_" transform="translate(0)">
		<path id="Path_4671-2_3_" class="st0" d="M259.13,604.51l-70.71,300.46l12.49,0.95l73.08-301.4L259.13,604.51z"/>
		
			<linearGradient id="Path_4672-2_7_" gradientUnits="userSpaceOnUse" x1="-502.3819" y1="-888.8783" x2="-496.7375" y2="-884.8268" gradientTransform="matrix(-3.000000e-15 45.929 -54.105 -3.000000e-15 -47715.9336 23676.8926)">
			<stop  offset="0" style="stop-color:#EBEAEA"/>
			<stop  offset="0.608" style="stop-color:#B9B8B9"/>
			<stop  offset="1" style="stop-color:#929497"/>
		</linearGradient>
		<path id="Path_4672-2_3_" class="st13" d="M222.32,905.91l76.24-301.59l-24.65,0.19l-73.14,301.4L222.32,905.91L222.32,905.91z"/>
	</g>
	<g id="Group_4600-2_2_" transform="translate(0)">
		<path id="Path_4671-2_2_" class="st0" d="M41.04,604.27l70.65,301.46l-12.68,0.13L25.97,604.48L41.04,604.27z"/>
		
			<linearGradient id="Path_4672-2_8_" gradientUnits="userSpaceOnUse" x1="-502.3826" y1="-782.0222" x2="-496.7381" y2="-777.9709" gradientTransform="matrix(3.000000e-15 45.929 54.105 -3.000000e-15 42234.4414 23676.8926)">
			<stop  offset="0" style="stop-color:#EBEAEA"/>
			<stop  offset="0.608" style="stop-color:#B9B8B9"/>
			<stop  offset="1" style="stop-color:#929497"/>
		</linearGradient>
		<path id="Path_4672-2_2_" class="st14" d="M77.63,905.87L1.39,604.29l24.65,0.19l73.14,301.4H77.63V905.87z"/>
	</g>
	<g id="Group_4604-2_11_" transform="translate(36.32 49.574)">
		<g id="Path_4679-2_11_" transform="translate(-308.72 -850.376)">
			<path class="st3" d="M473.01,1697.87l-6.57-6.89h-88.01l-8.01,6.2L473.01,1697.87z"/>
			<path class="st4" d="M378.68,1691.19l87.35,0.03l6.91,6.61l-102.03-1.06L378.68,1691.19z M370.36,1697.22l103.38,1.03l-7.25-7.44
				h-88.1L370.36,1697.22z"/>
		</g>
		
			<linearGradient id="Path_4680-2_19_" gradientUnits="userSpaceOnUse" x1="-571.3162" y1="-773.8226" x2="-569.9398" y2="-774.7991" gradientTransform="matrix(1.000000e-15 8.27 66.4371 -4.000000e-15 51553.043 5570.8906)">
			<stop  offset="0" style="stop-color:#EBEAEA"/>
			<stop  offset="0.608" style="stop-color:#B9B8B9"/>
			<stop  offset="1" style="stop-color:#929497"/>
		</linearGradient>
		<path id="Path_4680-2_11_" class="st15" d="M64.41,856.34l98.16-0.26l2.46-8.34L61.7,846.79L64.41,856.34z"/>
	</g>
	<g id="Group_4604-2_10_" transform="translate(36.32 49.574)">
		<g id="Path_4679-2_10_" transform="translate(-308.72 -850.376)">
			<path class="st3" d="M479.78,1663.51l-6.88-8.93H372.07l-8.5,8.03L479.78,1663.51z"/>
			<path class="st4" d="M372.34,1654.86l100.09,0.04l7.27,8.56l-115.58-1.38L372.34,1654.86z M363.5,1662.66l117.08,1.24l-7.63-9.55
				H372.02L363.5,1662.66z"/>
		</g>
		
			<linearGradient id="Path_4680-2_20_" gradientUnits="userSpaceOnUse" x1="-575.4617" y1="-773.7319" x2="-573.7922" y2="-774.916" gradientTransform="matrix(1.000000e-15 8.27 66.4371 -4.000000e-15 51553.043 5570.8906)">
			<stop  offset="0" style="stop-color:#EBEAEA"/>
			<stop  offset="0.608" style="stop-color:#B9B8B9"/>
			<stop  offset="1" style="stop-color:#929497"/>
		</linearGradient>
		<path id="Path_4680-2_10_" class="st16" d="M57.89,824.59l111.25-0.34l2.76-10.8l-117.05-1.23L57.89,824.59z"/>
	</g>
	<g id="Group_4604-2_9_" transform="translate(36.32 49.574)">
		<g id="Path_4679-2_9_" transform="translate(-308.72 -850.376)">
			<path class="st3" d="M491.14,1617.15l-7.05-9.47H360.93l-8.77,8.51L491.14,1617.15z"/>
			<path class="st4" d="M361.22,1607.98l122.37,0.05l7.47,9.08l-138.31-1.46L361.22,1607.98z M352.09,1616.25l139.9,1.32
				l-7.85-10.12H360.89L352.09,1616.25z"/>
		</g>
		
			<linearGradient id="Path_4680-2_21_" gradientUnits="userSpaceOnUse" x1="-581.1307" y1="-773.6619" x2="-579.251" y2="-774.9951" gradientTransform="matrix(1.000000e-15 8.27 66.4371 -4.000000e-15 51553.043 5570.8906)">
			<stop  offset="0" style="stop-color:#EBEAEA"/>
			<stop  offset="0.608" style="stop-color:#B9B8B9"/>
			<stop  offset="1" style="stop-color:#929497"/>
		</linearGradient>
		<path id="Path_4680-2_9_" class="st17" d="M46.66,778.92l133.71-0.36l2.93-11.45l-139.86-1.3L46.66,778.92z"/>
	</g>
	<g id="Group_4604-2_8_" transform="translate(36.32 49.574)">
		<g id="Path_4679-2_8_" transform="translate(-308.72 -850.376)">
			<path class="st3" d="M504.15,1563.13l-7.05-9.47H347.93l-8.77,8.51L504.15,1563.13z"/>
			<path class="st4" d="M348.22,1553.96l148.37,0.05l7.47,9.08l-164.32-1.46L348.22,1553.96z M339.09,1562.24l165.91,1.32
				l-7.85-10.12H347.88L339.09,1562.24z"/>
		</g>
		
			<linearGradient id="Path_4680-2_22_" gradientUnits="userSpaceOnUse" x1="-587.7504" y1="-773.5987" x2="-585.6899" y2="-775.0602" gradientTransform="matrix(1.000000e-15 8.27 66.4371 -4.000000e-15 51553.043 5570.8906)">
			<stop  offset="0" style="stop-color:#EBEAEA"/>
			<stop  offset="0.608" style="stop-color:#B9B8B9"/>
			<stop  offset="1" style="stop-color:#929497"/>
		</linearGradient>
		<path id="Path_4680-2_8_" class="st18" d="M33.66,724.91l159.72-0.36l2.93-11.45l-165.87-1.3L33.66,724.91z"/>
	</g>
	<g id="Group_4604-2_7_" transform="translate(36.32 49.574)">
		<g id="Path_4679-2_7_" transform="translate(-308.72 -850.376)">
			<path class="st3" d="M516.15,1513.04l-7.05-9.47H335.93l-8.77,8.51L516.15,1513.04z"/>
			<path class="st4" d="M336.22,1503.87l172.38,0.05l7.47,9.08l-188.32-1.46L336.22,1503.87z M327.09,1512.15l189.91,1.32
				l-7.85-10.12H335.88L327.09,1512.15z"/>
		</g>
		
			<linearGradient id="Path_4680-2_23_" gradientUnits="userSpaceOnUse" x1="-593.8887" y1="-773.5408" x2="-591.6616" y2="-775.1208" gradientTransform="matrix(1.000000e-15 8.27 66.4371 -4.000000e-15 51553.043 5570.8906)">
			<stop  offset="0" style="stop-color:#EBEAEA"/>
			<stop  offset="0.608" style="stop-color:#B9B8B9"/>
			<stop  offset="1" style="stop-color:#929497"/>
		</linearGradient>
		<path id="Path_4680-2_7_" class="st19" d="M21.66,674.82l183.72-0.36l2.93-11.45l-189.87-1.3L21.66,674.82z"/>
	</g>
	<g id="Group_4604-2_6_" transform="translate(36.32 49.574)">
		<g id="Path_4679-2_6_" transform="translate(-308.72 -850.376)">
			<path class="st3" d="M531.15,1450.91l-7.05-9.47H321.92l-8.77,8.51L531.15,1450.91z"/>
			<path class="st4" d="M322.22,1441.74l201.38,0.05l7.47,9.08l-217.33-1.46L322.22,1441.74z M313.08,1450.01l218.92,1.32
				l-7.85-10.12H321.88L313.08,1450.01z"/>
		</g>
		
			<linearGradient id="Path_4680-2_24_" gradientUnits="userSpaceOnUse" x1="-601.5007" y1="-773.4629" x2="-599.0718" y2="-775.1857" gradientTransform="matrix(1.000000e-15 8.27 66.4371 -4.000000e-15 51553.043 5570.8906)">
			<stop  offset="0" style="stop-color:#EBEAEA"/>
			<stop  offset="0.608" style="stop-color:#B9B8B9"/>
			<stop  offset="1" style="stop-color:#929497"/>
		</linearGradient>
		<path id="Path_4680-2_6_" class="st20" d="M7.66,612.69l212.73-0.36l2.93-11.45l-218.88-1.3L7.66,612.69z"/>
	</g>
</g>
<linearGradient id="Path_9573_1_" gradientUnits="userSpaceOnUse" x1="-552.6106" y1="-764.4381" x2="-550.1452" y2="-761.8445" gradientTransform="matrix(9.000000e-15 -153.132 146.6 9.000000e-15 112037.5391 -83988.2656)">
	<stop  offset="0" style="stop-color:#EAEAE9"/>
	<stop  offset="0.897" style="stop-color:#B2B3B3"/>
	<stop  offset="1" style="stop-color:#959595"/>
</linearGradient>
<path id="Path_9573" class="st21" d="M17.48,594.7h264.98V317.91H17.48V594.7z"/>
</svg>
