<?xml version="1.0" encoding="utf-8"?>
<!-- Generator: Adobe Illustrator 24.2.3, SVG Export Plug-In . SVG Version: 6.00 Build 0)  -->
<svg version="1.1" id="Layer_1" xmlns="http://www.w3.org/2000/svg" xmlns:xlink="http://www.w3.org/1999/xlink" x="0px" y="0px"
	 viewBox="0 0 300 204.55" style="enable-background:new 0 0 300 204.55;" xml:space="preserve">
<style type="text/css">
	.st0{fill:#363634;}
	.st1{fill:none;stroke:#B4B6B2;}
	.st2{opacity:0.66;fill:#7B7B7B;enable-background:new    ;}
	.st3{fill:url(#Path_6034_1_);}
	.st4{opacity:0.5;fill:url(#Path_6033_1_);enable-background:new    ;}
	.st5{fill:url(#Path_6021_1_);}
	.st6{fill:none;stroke:#B4B6B2;stroke-width:0.5;stroke-miterlimit:10;}
	.st7{fill:url(#Rectangle_22822_1_);}
	.st8{fill:url(#Rectangle_22823_1_);}
	.st9{fill:#ECEBEB;}
	.st10{fill:url(#Rectangle_22825_1_);}
	.st11{fill:#272A25;}
	.st12{fill:#B4B5B2;}
	.st13{fill:url(#Path_6023_1_);}
	.st14{fill:url(#Path_6024_1_);}
	.st15{fill:url(#Path_6025_1_);}
	.st16{fill:url(#Rectangle_22830_1_);}
	.st17{fill:#9193A1;}
	.st18{fill:#121216;}
	.st19{fill:url(#Path_6028_1_);}
	.st20{fill:#1A191C;}
	.st21{fill:#0B0B0B;}
	.st22{opacity:0.42;}
	.st23{opacity:0.88;fill:url(#Rectangle_22834_1_);enable-background:new    ;}
	.st24{opacity:0.61;fill:#767576;enable-background:new    ;}
	.st25{opacity:0.61;fill:#787879;enable-background:new    ;}
	.st26{opacity:0.8;fill:url(#Rectangle_22834-2_2_);enable-background:new    ;}
	.st27{opacity:0.42;fill:#606161;enable-background:new    ;}
	.st28{opacity:0.59;fill:#606161;enable-background:new    ;}
	.st29{opacity:0.8;fill:url(#Rectangle_22834-2_3_);enable-background:new    ;}
	.st30{fill:none;stroke:#CECDD3;}
	.st31{fill:#FFFFFF;}
	.st32{fill:#D0D4CF;}
	.st33{opacity:0.88;fill:url(#Rectangle_22834-3_1_);enable-background:new    ;}
	.st34{opacity:0.8;fill:url(#Rectangle_22834-4_2_);enable-background:new    ;}
	.st35{opacity:0.8;fill:url(#Rectangle_22834-4_3_);enable-background:new    ;}
	.st36{fill:#313131;}
	.st37{fill:none;stroke:#B4B6B2;stroke-width:0.5;}
	.st38{fill:#030404;}
</style>
<g id="Group_5106" transform="translate(-700 -302)">
	<path id="Rectangle_22837" class="st0" d="M712.23,322.6h275.38c6.57,0,11.89,5.31,11.89,11.85v138.48
		c0,6.54-5.32,11.85-11.89,11.85H712.23c-6.57,0-11.89-5.31-11.89-11.85V334.45C700.34,327.91,705.66,322.6,712.23,322.6z"/>
	<g id="Group_5104" transform="translate(867.673 612.625)">
		<g id="Group_5099" transform="translate(0 0)">
			<path id="Path_6041" class="st1" d="M-19.58-117.91v4.04"/>
			<path id="Path_6037" class="st1" d="M-26.3-117.91v2.49"/>
			<path id="Path_6038" class="st1" d="M-24.62-117.91v2.49"/>
			<path id="Path_6039" class="st1" d="M-22.94-117.91v2.49"/>
			<path id="Path_6040" class="st1" d="M-21.26-117.91v2.49"/>
		</g>
		<g id="Group_5100" transform="translate(12.005 0)">
			<path id="Path_6041-2" class="st1" d="M-23.19-117.91v4.04"/>
			<path id="Path_6037-2" class="st1" d="M-29.9-117.91v2.49"/>
			<path id="Path_6038-2" class="st1" d="M-28.22-117.91v2.49"/>
			<path id="Path_6039-2" class="st1" d="M-26.54-117.91v2.49"/>
			<path id="Path_6040-2" class="st1" d="M-24.86-117.91v2.49"/>
		</g>
		<g id="Group_5101" transform="translate(24.01 0)">
			<path id="Path_6041-3" class="st1" d="M-26.79-117.91v4.04"/>
			<path id="Path_6037-3" class="st1" d="M-33.51-117.91v2.49"/>
			<path id="Path_6038-3" class="st1" d="M-31.83-117.91v2.49"/>
			<path id="Path_6039-3" class="st1" d="M-30.15-117.91v2.49"/>
			<path id="Path_6040-3" class="st1" d="M-28.47-117.91v2.49"/>
		</g>
	</g>
	<g id="Group_5092" transform="translate(700 302)">
		<path id="Path_6042" class="st2" d="M220.13,192.85v-2.75h0.85v-2.75H81.27v3.35h0.97v2.75h-0.97v4.79h139.7v-5.39H220.13z"/>
		
			<linearGradient id="Path_6034_1_" gradientUnits="userSpaceOnUse" x1="-1650.171" y1="1130.1244" x2="-1650.171" y2="1129.4272" gradientTransform="matrix(186.673 0 0 -243.919 308192.9688 275675.4688)">
			<stop  offset="0" style="stop-color:#AFB5AE"/>
			<stop  offset="1" style="stop-color:#B5B7B3"/>
		</linearGradient>
		<path id="Path_6034" class="st3" d="M84.95,16.69h131.23c2.04,0,3.69,1.65,3.69,3.7v162.65c0,2.03-1.65,3.68-3.68,3.68H86.19
			c-2.71,0-4.92-2.21-4.92-4.92V20.37C81.27,18.34,82.92,16.69,84.95,16.69z"/>
		
			<linearGradient id="Path_6033_1_" gradientUnits="userSpaceOnUse" x1="-1626.0415" y1="1129.8467" x2="-1626.0415" y2="1129.193" gradientTransform="matrix(15.9932 0 0 -166.3174 26183.125 187985.375)">
			<stop  offset="0" style="stop-color:#252223"/>
			<stop  offset="1" style="stop-color:#B4B6B2"/>
		</linearGradient>
		<path id="Path_6033" class="st4" d="M183.08,70.5l-11.1,4.55v111.47h11.19L183.08,70.5z"/>
		
			<linearGradient id="Path_6021_1_" gradientUnits="userSpaceOnUse" x1="-1650.17" y1="1122.0592" x2="-1650.17" y2="1121.3622" gradientTransform="matrix(186.488 0 0 -15.625 307888 17718.8926)">
			<stop  offset="0" style="stop-color:#CFD1D0"/>
			<stop  offset="1" style="stop-color:#EBEAEA"/>
		</linearGradient>
		<path id="Path_6021" class="st5" d="M219.52,192.22v-2.75h0.84v-2.75H81.88v3.35h0.96v2.75h-0.96v4.79h138.48v-5.39H219.52z"/>
		<line id="Line_61" class="st6" x1="82.84" y1="192.82" x2="218.2" y2="192.82"/>
		
			<linearGradient id="Rectangle_22822_1_" gradientUnits="userSpaceOnUse" x1="-1647.1603" y1="1130.245" x2="-1647.1603" y2="1129.1959" gradientTransform="matrix(86.528 0 0 -244.188 142565.7813 275979.5938)">
			<stop  offset="0" style="stop-color:#C6C5C3"/>
			<stop  offset="0.421" style="stop-color:#F0F0EE"/>
			<stop  offset="1" style="stop-color:#ACACAB"/>
		</linearGradient>
		<path id="Rectangle_22822" class="st7" d="M11.89,16.59h56.82c6.57,0,11.89,5.31,11.89,11.85v146.52
			c0,6.54-5.32,11.85-11.89,11.85H11.89C5.32,186.8,0,181.5,0,174.95V28.44C0,21.89,5.32,16.59,11.89,16.59z"/>
		
			<linearGradient id="Rectangle_22823_1_" gradientUnits="userSpaceOnUse" x1="-1647.6964" y1="1130.2131" x2="-1647.6964" y2="1129.4297" gradientTransform="matrix(84.878 0 0 -244.632 140113.4531 276481.75)">
			<stop  offset="0" style="stop-color:#ACACA5"/>
			<stop  offset="0.474" style="stop-color:#D5D5CE"/>
			<stop  offset="1" style="stop-color:#AFAFA8"/>
		</linearGradient>
		<path id="Rectangle_22823" class="st8" d="M232.45,16.59h55.66c6.57,0,11.89,5.31,11.89,11.85v146.82
			c0,6.54-5.32,11.85-11.89,11.85h-55.66c-6.57,0-11.89-5.31-11.89-11.85V28.44C220.55,21.89,225.88,16.59,232.45,16.59z"/>
		<rect id="Rectangle_22838" x="114.81" y="16.69" class="st9" width="2.69" height="141.75"/>
		<rect id="Rectangle_22839" x="185.02" y="16.69" class="st9" width="2.69" height="54.39"/>
		
			<linearGradient id="Rectangle_22825_1_" gradientUnits="userSpaceOnUse" x1="-1496.4645" y1="1129.9496" x2="-1496.4645" y2="1129.2526" gradientTransform="matrix(2.881 0 0 -203.347 4427.4692 229788.5625)">
			<stop  offset="0" style="stop-color:#272A25"/>
			<stop  offset="0.351" style="stop-color:#838680"/>
			<stop  offset="0.707" style="stop-color:#222320"/>
			<stop  offset="1" style="stop-color:#6F716E"/>
		</linearGradient>
		<rect id="Rectangle_22825" x="115.15" y="16.69" class="st10" width="2.02" height="141.75"/>
		<rect id="Rectangle_22826" x="185.35" y="16.69" class="st11" width="2.02" height="54.39"/>
		<rect id="Rectangle_22829" x="185.24" y="188.87" class="st12" width="5.53" height="15.68"/>
		<ellipse id="Ellipse_383" class="st11" cx="188.3" cy="193.74" rx="1.62" ry="1.62"/>
		<ellipse id="Ellipse_384" class="st11" cx="188.3" cy="202.11" rx="1.62" ry="1.62"/>
		<ellipse id="Ellipse_385" class="st11" cx="103.11" cy="145.24" rx="1.62" ry="1.62"/>
		<ellipse id="Ellipse_386" class="st11" cx="102.43" cy="54.01" rx="1.62" ry="1.62"/>
		<ellipse id="Ellipse_387" class="st11" cx="146.75" cy="39.79" rx="1.62" ry="1.62"/>
		<ellipse id="Ellipse_388" class="st11" cx="199.07" cy="54.01" rx="1.62" ry="1.62"/>
		<ellipse id="Ellipse_389" class="st11" cx="147.72" cy="145.24" rx="1.62" ry="1.62"/>
		<ellipse id="Ellipse_390" class="st11" cx="159.65" cy="145.24" rx="1.62" ry="1.62"/>
		<ellipse id="Ellipse_391" class="st11" cx="198.81" cy="145.24" rx="1.62" ry="1.62"/>
		<line id="Line_62" class="st6" x1="82.84" y1="190.07" x2="218.2" y2="190.07"/>
		
			<linearGradient id="Path_6023_1_" gradientUnits="userSpaceOnUse" x1="-1638.9446" y1="1129.4677" x2="-1638.9446" y2="1128.7705" gradientTransform="matrix(31.7938 0 0 -129.6849 52267.5781 146525.8281)">
			<stop  offset="0" style="stop-color:#151514"/>
			<stop  offset="0.518" style="stop-color:#4B4A4A"/>
			<stop  offset="1" style="stop-color:#1A1C1D"/>
		</linearGradient>
		<path id="Path_6023" class="st13" d="M148.5,51.34l-0.22,88.4c0,0-0.45,1.34,2.23,1.34l17.21,0.22c0,0,3.35-0.22,2.68-4.9
			l-0.45-85.5L148.5,51.34z"/>
		
			<linearGradient id="Path_6024_1_" gradientUnits="userSpaceOnUse" x1="-1617.8871" y1="1129.0398" x2="-1617.8871" y2="1128.3079" gradientTransform="matrix(12.4784 0 0 -94.9226 20345.8164 107245.7266)">
			<stop  offset="0" style="stop-color:#A8ABB5"/>
			<stop  offset="0.274" style="stop-color:#A2A3AC"/>
			<stop  offset="0.693" style="stop-color:#A1A5B2"/>
			<stop  offset="1" style="stop-color:#8D909B"/>
		</linearGradient>
		<path id="Path_6024" class="st14" d="M153.28,76.28l-0.45,63.9c0,0-0.27,1.92,1.56,2h4.02c0,0,3.12,0.56,2.68-2.67l0.45-63.46
			C161.55,76.05,159.76,80.95,153.28,76.28z"/>
		
			<linearGradient id="Path_6025_1_" gradientUnits="userSpaceOnUse" x1="-1647.7474" y1="1129.1941" x2="-1648.0427" y2="1128.5979" gradientTransform="matrix(89.3108 0 0 -147.251 147342.8594 166285.8594)">
			<stop  offset="0" style="stop-color:#232120"/>
			<stop  offset="0.207" style="stop-color:#363433"/>
			<stop  offset="0.536" style="stop-color:#616262"/>
			<stop  offset="1" style="stop-color:#000000"/>
		</linearGradient>
		<path id="Path_6025" class="st15" d="M153.19,100.06c0,0-2.41-1.01-2.62-14.48l-1.31-26.64c0,0-4.75-34,4.13-45.76
			c0,0,8.82-15.93,31.23-12.75c0,0,16.17,1.56,23.21,16.28c-5.77,0.13-11.87,0.01-13.27,0.03c-0.8-0.77-1.7-1.43-2.72-2.01
			c0,0-9.26-6.41-19.53-1.54c0,0-16.15,4.39-11.8,40.04l3.22,29.75c0,0,1.43,11.79-2.27,16.88
			C161.46,99.84,157.48,104.22,153.19,100.06z"/>
		
			<linearGradient id="Rectangle_22830_1_" gradientUnits="userSpaceOnUse" x1="-1646.5504" y1="1097.3236" x2="-1645.8435" y2="1097.439" gradientTransform="matrix(70.374 0 0 -4.549 115976.4922 5153.5229)">
			<stop  offset="0" style="stop-color:#DCDEE7"/>
			<stop  offset="1" style="stop-color:#9497A3"/>
		</linearGradient>
		<rect id="Rectangle_22830" x="103.32" y="159.94" class="st16" width="49.23" height="3.17"/>
		<path id="Path_6026" class="st17" d="M103.32,159.94l1.12-1.57l-13.86-0.29l78.17-0.44l-15.9,0.73l-0.32,1.57L103.32,159.94z"/>
		<path id="Path_6027" class="st18" d="M152.55,163.11c4.9-1.31,9.97-1.88,15.05-1.69v-3.63l-13.71,0.44h-1.34L152.55,163.11
			L152.55,163.11z"/>
		
			<linearGradient id="Path_6028_1_" gradientUnits="userSpaceOnUse" x1="-1645.163" y1="1126.5334" x2="-1645.7772" y2="1126.2205" gradientTransform="matrix(65.0724 0 0 -34.6901 107194.8281 39240.3984)">
			<stop  offset="0" style="stop-color:#151514"/>
			<stop  offset="1" style="stop-color:#3D4041"/>
		</linearGradient>
		<path id="Path_6028" class="st19" d="M90.59,158.08v3.39l7.97,0.24c0,0,0.08,11.93,7.15,16.89c4.57,3.07,10.13,4.57,15.55,3.54
			c3.87-0.74,9.82-2.68,12.98-9.14c1.09-2.23,2.62-5.19,1.49-9.84l-32.41-0.04l0-3.18l1.39-1.92L90.59,158.08z"/>
		<g id="Group_5098" transform="translate(116.464 275.211)">
			<path id="Path_6029" class="st20" d="M-10.91-105.82l2.57-1.53c0,0,3.9,6.99,8.64,7.47l-1.56,2.96
				C-1.26-96.92-9.43-99.1-10.91-105.82z"/>
			<path id="Path_6035" class="st20" d="M12.32-105.56l-2.79-1.43c0,0-3.44,6.59-8.18,7.07l0.74,3.15
				C2.09-96.76,10.45-98.83,12.32-105.56z"/>
			<ellipse id="Ellipse_392" class="st21" cx="0.34" cy="-98.5" rx="2.45" ry="2.44"/>
		</g>
		<g id="Group_5097" transform="translate(8.448 78.753)" class="st22">
			
				<linearGradient id="Rectangle_22834_1_" gradientUnits="userSpaceOnUse" x1="-1644.5137" y1="1051.2195" x2="-1644.5137" y2="1050.5287" gradientTransform="matrix(29.313 0 0 -203.028 48237.0234 213380.6094)">
				<stop  offset="0" style="stop-color:#C0C1BD"/>
				<stop  offset="1" style="stop-color:#999999"/>
			</linearGradient>
			<path id="Rectangle_22834" class="st23" d="M24.64-47.67h13.51c1.93,0,3.5,1.56,3.5,3.49V90.37c0,1.92-1.57,3.49-3.5,3.49H24.64
				c-1.93,0-3.5-1.56-3.5-3.49V-44.18C21.15-46.11,22.71-47.67,24.64-47.67z"/>
			<path id="Rectangle_22835" class="st24" d="M28.52-44.67L28.52-44.67c0.98,0,1.77,0.79,1.77,1.76V89.42
				c0,0.97-0.79,1.76-1.76,1.76h0c-0.97,0-1.76-0.79-1.76-1.76V-42.91C26.75-43.88,27.54-44.67,28.52-44.67z"/>
			<path id="Rectangle_22836" class="st25" d="M34.07-44.67L34.07-44.67c0.98,0,1.77,0.79,1.77,1.76V89.42
				c0,0.97-0.79,1.76-1.76,1.76h0c-0.97,0-1.76-0.79-1.76-1.76V-42.91C32.3-43.88,33.09-44.67,34.07-44.67z"/>
		</g>
		<g id="Group_5096" transform="translate(45.424 78.753)" class="st22">
			
				<linearGradient id="Rectangle_22834-2_2_" gradientUnits="userSpaceOnUse" x1="-1681.9115" y1="1051.2195" x2="-1681.9115" y2="1050.5287" gradientTransform="matrix(29.313 0 0 -203.028 49320.9023 213380.6094)">
				<stop  offset="0" style="stop-color:#C0C1BD"/>
				<stop  offset="1" style="stop-color:#999999"/>
			</linearGradient>
			<path id="Rectangle_22834-2" class="st26" d="M12.28-47.67h13.51c1.93,0,3.5,1.56,3.5,3.49V90.37c0,1.92-1.57,3.49-3.5,3.49
				H12.28c-1.93,0-3.5-1.56-3.5-3.49V-44.18C8.78-46.11,10.35-47.67,12.28-47.67z"/>
			<path id="Rectangle_22835-2" class="st27" d="M16.15-44.67L16.15-44.67c0.98,0,1.77,0.79,1.77,1.76V89.42
				c0,0.97-0.79,1.76-1.76,1.76h0c-0.97,0-1.76-0.79-1.76-1.76V-42.91C14.39-43.88,15.18-44.67,16.15-44.67z"/>
			<path id="Rectangle_22836-2" class="st28" d="M21.7-44.67L21.7-44.67c0.98,0,1.77,0.79,1.77,1.76V89.42
				c0,0.97-0.79,1.76-1.76,1.76h0c-0.97,0-1.76-0.79-1.76-1.76V-42.91C19.94-43.88,20.73-44.67,21.7-44.67z"/>
		</g>
		<g id="Group_5096_1_" transform="translate(45.424 78.753)" class="st22">
			
				<linearGradient id="Rectangle_22834-2_3_" gradientUnits="userSpaceOnUse" x1="-1683.5906" y1="1051.2195" x2="-1683.5906" y2="1050.5287" gradientTransform="matrix(29.313 0 0 -203.028 49320.9023 213380.6094)">
				<stop  offset="0" style="stop-color:#C0C1BD"/>
				<stop  offset="1" style="stop-color:#999999"/>
			</linearGradient>
			<path id="Rectangle_22834-2_1_" class="st29" d="M-36.94-47.67h13.51c1.93,0,3.5,1.56,3.5,3.49V90.37c0,1.92-1.57,3.49-3.5,3.49
				h-13.51c-1.93,0-3.5-1.56-3.5-3.49V-44.18C-40.44-46.11-38.88-47.67-36.94-47.67z"/>
			<path id="Rectangle_22835-2_1_" class="st27" d="M-33.07-44.67L-33.07-44.67c0.98,0,1.77,0.79,1.77,1.76V89.42
				c0,0.97-0.79,1.76-1.76,1.76h0c-0.97,0-1.76-0.79-1.76-1.76V-42.91C-34.83-43.88-34.04-44.67-33.07-44.67z"/>
			<path id="Rectangle_22836-2_1_" class="st28" d="M-27.52-44.67L-27.52-44.67c0.98,0,1.77,0.79,1.77,1.76V89.42
				c0,0.97-0.79,1.76-1.76,1.76h0c-0.97,0-1.76-0.79-1.76-1.76V-42.91C-29.28-43.88-28.49-44.67-27.52-44.67z"/>
		</g>
		<g id="Group_5093" transform="translate(187.76 174.595)">
			<path id="Path_6031" class="st30" d="M-30.67-76.7v10.19"/>
			<path id="Path_6032" class="st30" d="M-32.33-68.09l1.7,1.58l1.57-1.62"/>
		</g>
		<rect id="Rectangle_22827" x="183.07" y="70.49" class="st31" width="8.48" height="118.5"/>
		<rect id="Rectangle_22828" x="186.47" y="70.49" class="st32" width="1.7" height="118.5"/>
		<g id="Group_5107" transform="translate(284.748 78.753)" class="st22">
			
				<linearGradient id="Rectangle_22834-3_1_" gradientUnits="userSpaceOnUse" x1="-1923.5399" y1="1051.2195" x2="-1923.5399" y2="1050.5287" gradientTransform="matrix(29.313 0 0 -203.028 56336.207 213380.6094)">
				<stop  offset="0" style="stop-color:#C0C1BD"/>
				<stop  offset="1" style="stop-color:#999999"/>
			</linearGradient>
			<path id="Rectangle_22834-3" class="st33" d="M-55.27-47.67h13.51c1.93,0,3.5,1.56,3.5,3.49V90.37c0,1.92-1.57,3.49-3.5,3.49
				h-13.51c-1.93,0-3.5-1.56-3.5-3.49V-44.18C-58.77-46.11-57.2-47.67-55.27-47.67z"/>
			<path id="Rectangle_22835-3" class="st24" d="M-51.4-44.67L-51.4-44.67c0.98,0,1.77,0.79,1.77,1.76V89.42
				c0,0.97-0.79,1.76-1.76,1.76h0c-0.97,0-1.76-0.79-1.76-1.76V-42.91C-53.16-43.88-52.37-44.67-51.4-44.67z"/>
			<path id="Rectangle_22836-3" class="st25" d="M-45.85-44.67L-45.85-44.67c0.98,0,1.77,0.79,1.77,1.76V89.42
				c0,0.97-0.79,1.76-1.76,1.76h0c-0.97,0-1.76-0.79-1.76-1.76V-42.91C-47.61-43.88-46.82-44.67-45.85-44.67z"/>
		</g>
		<g id="Group_5108" transform="translate(321.724 78.753)" class="st22">
			
				<linearGradient id="Rectangle_22834-4_2_" gradientUnits="userSpaceOnUse" x1="-1960.9475" y1="1051.2195" x2="-1960.9475" y2="1050.5287" gradientTransform="matrix(29.313 0 0 -203.028 57420.0859 213380.6094)">
				<stop  offset="0" style="stop-color:#C0C1BD"/>
				<stop  offset="1" style="stop-color:#999999"/>
			</linearGradient>
			<path id="Rectangle_22834-4" class="st34" d="M-67.93-47.67h13.51c1.93,0,3.5,1.56,3.5,3.49V90.37c0,1.92-1.57,3.49-3.5,3.49
				h-13.51c-1.93,0-3.5-1.56-3.5-3.49V-44.18C-71.42-46.11-69.86-47.67-67.93-47.67z"/>
			<path id="Rectangle_22835-4" class="st27" d="M-64.05-44.67L-64.05-44.67c0.98,0,1.77,0.79,1.77,1.76V89.42
				c0,0.97-0.79,1.76-1.76,1.76h0c-0.97,0-1.76-0.79-1.76-1.76V-42.91C-65.81-43.88-65.02-44.67-64.05-44.67z"/>
			<path id="Rectangle_22836-4" class="st28" d="M-58.5-44.67L-58.5-44.67c0.98,0,1.77,0.79,1.77,1.76V89.42
				c0,0.97-0.79,1.76-1.76,1.76h0c-0.97,0-1.76-0.79-1.76-1.76V-42.91C-60.27-43.88-59.48-44.67-58.5-44.67z"/>
		</g>
		<g id="Group_5108_1_" transform="translate(321.724 78.753)" class="st22">
			
				<linearGradient id="Rectangle_22834-4_3_" gradientUnits="userSpaceOnUse" x1="-1960.1178" y1="1051.2195" x2="-1960.1178" y2="1050.5287" gradientTransform="matrix(29.313 0 0 -203.028 57420.0859 213380.6094)">
				<stop  offset="0" style="stop-color:#C0C1BD"/>
				<stop  offset="1" style="stop-color:#999999"/>
			</linearGradient>
			<path id="Rectangle_22834-4_1_" class="st35" d="M-43.6-47.67h13.51c1.93,0,3.5,1.56,3.5,3.49V90.37c0,1.92-1.57,3.49-3.5,3.49
				H-43.6c-1.93,0-3.5-1.56-3.5-3.49V-44.18C-47.1-46.11-45.54-47.67-43.6-47.67z"/>
			<path id="Rectangle_22835-4_1_" class="st27" d="M-39.73-44.67L-39.73-44.67c0.98,0,1.77,0.79,1.77,1.76V89.42
				c0,0.97-0.79,1.76-1.76,1.76h0c-0.97,0-1.76-0.79-1.76-1.76V-42.91C-41.49-43.88-40.7-44.67-39.73-44.67z"/>
			<path id="Rectangle_22836-4_1_" class="st28" d="M-34.18-44.67L-34.18-44.67c0.98,0,1.77,0.79,1.77,1.76V89.42
				c0,0.97-0.79,1.76-1.76,1.76h0c-0.97,0-1.76-0.79-1.76-1.76V-42.91C-35.95-43.88-35.15-44.67-34.18-44.67z"/>
		</g>
		<path id="Path_6022" class="st36" d="M157.12,189.65v12.05h5.08l2.1,1.92h18.93l2.01-1.42v-12.4L157.12,189.65z"/>
		<rect id="Rectangle_22831" x="166.91" y="202" class="st21" width="3.15" height="0.82"/>
		<rect id="Rectangle_22832" x="160.46" y="192.96" class="st31" width="4.35" height="4.93"/>
		<rect id="Rectangle_22833" x="176.95" y="202.15" class="st21" width="4.72" height="0.75"/>
	</g>
	<g id="Group_5103_1_" transform="translate(831.657 612.625)">
		<g id="Group_5099-3_1_" transform="translate(0 0)">
			<path id="Path_6041-7_1_" class="st37" d="M16.4-117.91v4.04"/>
			<path id="Path_6037-7_1_" class="st37" d="M9.68-117.91v2.49"/>
			<path id="Path_6038-7_1_" class="st37" d="M11.36-117.91v2.49"/>
			<path id="Path_6039-7_1_" class="st37" d="M13.04-117.91v2.49"/>
			<path id="Path_6040-7_1_" class="st37" d="M14.72-117.91v2.49"/>
		</g>
		<g id="Group_5100-3_1_" transform="translate(12.005 0)">
			<path id="Path_6041-8_1_" class="st37" d="M12.79-117.91v4.04"/>
			<path id="Path_6037-8_1_" class="st37" d="M6.08-117.91v2.49"/>
			<path id="Path_6038-8_1_" class="st37" d="M7.75-117.91v2.49"/>
			<path id="Path_6039-8_1_" class="st37" d="M9.44-117.91v2.49"/>
			<path id="Path_6040-8_1_" class="st37" d="M11.11-117.91v2.49"/>
		</g>
	</g>
	<ellipse id="Ellipse_393" class="st38" cx="865.36" cy="436.53" rx="1.62" ry="1.62"/>
	<path id="Path_6036" class="st37" d="M788.97,494.72v4.04"/>
	<g id="Group_5102" transform="translate(795.162 612.625)">
		<g id="Group_5099-2" transform="translate(0 0)">
			<path id="Path_6041-4" class="st37" d="M2.21-117.91v4.04"/>
			<path id="Path_6037-4" class="st37" d="M-4.51-117.91v2.49"/>
			<path id="Path_6038-4" class="st37" d="M-2.83-117.91v2.49"/>
			<path id="Path_6039-4" class="st37" d="M-1.15-117.91v2.49"/>
			<path id="Path_6040-4" class="st37" d="M0.53-117.91v2.49"/>
		</g>
		<g id="Group_5100-2" transform="translate(12.005 0)">
			<path id="Path_6041-5" class="st37" d="M-1.4-117.91v4.04"/>
			<path id="Path_6037-5" class="st37" d="M-8.11-117.91v2.49"/>
			<path id="Path_6038-5" class="st37" d="M-6.44-117.91v2.49"/>
			<path id="Path_6039-5" class="st37" d="M-4.76-117.91v2.49"/>
			<path id="Path_6040-5" class="st37" d="M-3.08-117.91v2.49"/>
		</g>
		<g id="Group_5101-2" transform="translate(24.01 0)">
			<path id="Path_6041-6" class="st37" d="M-5-117.91v4.04"/>
			<path id="Path_6037-6" class="st37" d="M-11.72-117.91v2.49"/>
			<path id="Path_6038-6" class="st37" d="M-10.04-117.91v2.49"/>
			<path id="Path_6039-6" class="st37" d="M-8.36-117.91v2.49"/>
			<path id="Path_6040-6" class="st37" d="M-6.68-117.91v2.49"/>
		</g>
	</g>
	<g id="Group_5103" transform="translate(831.657 612.625)">
		<g id="Group_5099-3" transform="translate(0 0)">
			<path id="Path_6041-7" class="st37" d="M-8.76-117.91v4.04"/>
			<path id="Path_6037-7" class="st37" d="M-15.47-117.91v2.49"/>
			<path id="Path_6038-7" class="st37" d="M-13.79-117.91v2.49"/>
			<path id="Path_6039-7" class="st37" d="M-12.11-117.91v2.49"/>
			<path id="Path_6040-7" class="st37" d="M-10.43-117.91v2.49"/>
		</g>
		<g id="Group_5100-3" transform="translate(12.005 0)">
			<path id="Path_6041-8" class="st37" d="M-12.36-117.91v4.04"/>
			<path id="Path_6037-8" class="st37" d="M-19.08-117.91v2.49"/>
			<path id="Path_6038-8" class="st37" d="M-17.4-117.91v2.49"/>
			<path id="Path_6039-8" class="st37" d="M-15.72-117.91v2.49"/>
			<path id="Path_6040-8" class="st37" d="M-14.04-117.91v2.49"/>
		</g>
		<g id="Group_5101-3" transform="translate(24.01 0)">
			<path id="Path_6041-9" class="st37" d="M-15.97-117.91v4.04"/>
			<path id="Path_6037-9" class="st37" d="M-22.69-117.91v2.49"/>
			<path id="Path_6038-9" class="st37" d="M-21.01-117.91v2.49"/>
			<path id="Path_6039-9" class="st37" d="M-19.33-117.91v2.49"/>
			<path id="Path_6040-9" class="st37" d="M-17.65-117.91v2.49"/>
		</g>
	</g>
	<g id="Group_5105" transform="translate(937.302 612.625)">
		<g id="Group_5099-4" transform="translate(0 0)">
			<path id="Path_6041-10" class="st37" d="M-38.08-117.91v4.04"/>
			<path id="Path_6037-10" class="st37" d="M-44.8-117.91v2.49"/>
			<path id="Path_6038-10" class="st37" d="M-43.12-117.91v2.49"/>
			<path id="Path_6039-10" class="st37" d="M-41.44-117.91v2.49"/>
			<path id="Path_6040-10" class="st37" d="M-39.76-117.91v2.49"/>
		</g>
		<g id="Group_5100-4" transform="translate(12.005 0)">
			<path id="Path_6041-11" class="st37" d="M-41.69-117.91v4.04"/>
			<path id="Path_6037-11" class="st37" d="M-48.41-117.91v2.49"/>
			<path id="Path_6038-11" class="st37" d="M-46.73-117.91v2.49"/>
			<path id="Path_6039-11" class="st37" d="M-45.05-117.91v2.49"/>
			<path id="Path_6040-11" class="st37" d="M-43.37-117.91v2.49"/>
		</g>
		<g id="Group_5101-4" transform="translate(24.01 0)">
			<path id="Path_6037-12" class="st37" d="M-52.02-117.91v2.49"/>
			<path id="Path_6038-12" class="st37" d="M-50.34-117.91v2.49"/>
			<path id="Path_6039-12" class="st37" d="M-48.66-117.91v2.49"/>
			<path id="Path_6039-12_1_" class="st37" d="M-46.9-117.91v2.49"/>
			<path id="Path_6041-12_1_" class="st37" d="M-45.02-117.91v4.04"/>
		</g>
	</g>
</g>
</svg>
