<svg xmlns="http://www.w3.org/2000/svg" width="64" height="64" viewBox="0 0 64 64">
  <g id="illustration-save" transform="translate(-918 -174)">
    <circle id="Shape" cx="32" cy="32" r="32" transform="translate(918 174)" fill="#f7f7f7"/>
    <path id="Shape-2" data-name="Shape" d="M12,40H52a1,1,0,0,0,.848-1.53l-5-8A1,1,0,0,0,47,30H17a1,1,0,0,0-.848.47l-5,8A1,1,0,0,0,12,40Z" transform="translate(917.999 174)" fill="#333"/>
    <path id="Shape-3" data-name="Shape" d="M13.806,38l3.75-6H46.447l3.75,6Z" transform="translate(917.999 174)" fill="#e2e4ea"/>
    <path id="Shape-4" data-name="Shape" d="M16,48V14a3,3,0,0,1,3-3H45a3,3,0,0,1,3,3V48Z" transform="translate(917.999 174)" fill="#333"/>
    <path id="Shape-5" data-name="Shape" d="M18,46H46V14a1,1,0,0,0-1-1H19a1,1,0,0,0-1,1Z" transform="translate(917.999 174)" fill="#fff"/>
    <path id="Shape-6" data-name="Shape" d="M26.626,24.219a1,1,0,1,0-1.249,1.562l5,4a1,1,0,0,0,1.414-.167l7-9a1,1,0,0,0-1.579-1.228l-6.378,8.2Z" transform="translate(917.999 174)" fill="#111"/>
    <path id="Shape-7" data-name="Shape" d="M12,39H25.065L26,43l12,.008L39.045,39H52V50a2,2,0,0,1-2,2H14a2,2,0,0,1-2-2Z" transform="translate(917.999 174)" fill="#fff" fill-rule="evenodd"/>
    <path id="Shape-8" data-name="Shape" d="M12,49H52v1a2,2,0,0,1-2,2H14a2,2,0,0,1-2-2Z" transform="translate(917.999 174)" fill="#e64a31" fill-rule="evenodd"/>
    <path id="Shape-9" data-name="Shape" d="M38.077,38.748A1,1,0,0,1,39.045,38H52a1,1,0,0,1,1,1V50a3,3,0,0,1-3,3H14a3,3,0,0,1-3-3V39a1,1,0,0,1,1-1H25.065a1,1,0,0,1,.974.772L26.795,42l10.432.007ZM13,40V50a1,1,0,0,0,1,1H50a1,1,0,0,0,1-1V40H39.817l-.85,3.26a1,1,0,0,1-.968.748L26,44a1,1,0,0,1-.973-.772L24.272,40Z" transform="translate(917.999 174)" fill="#333"/>
  </g>
</svg>
