<?xml version="1.0" encoding="utf-8"?>
<!-- Generator: Adobe Illustrator 24.2.0, SVG Export Plug-In . SVG Version: 6.00 Build 0)  -->
<svg version="1.1" id="Layer_1" xmlns="http://www.w3.org/2000/svg" xmlns:xlink="http://www.w3.org/1999/xlink" x="0px" y="0px"
	 viewBox="0 0 104 72" style="enable-background:new 0 0 104 72;" xml:space="preserve">
<style type="text/css">
	.st0{fill:#313638;}
</style>
<g>
	<path class="st0" d="M92,68V46h9V22H79v0L34,0l0,4v7h-2v2h2v1h2v-1h2v-2h-2V7.3l41,26.4V46h9v22H74v4h30v-4H92z M77,31.3L36,4.9
		V3.2l41,20V31.3z M79,44V24h20v20h-7h-6H79z M88,46h2v22h-2V46z"/>
	<path class="st0" d="M40.2,21.1c1.2-2.5,0.1-5.5-2.4-6.6c-1-0.5-2.1-0.6-3.2-0.4l0.4,2c0.6-0.1,1.3-0.1,1.9,0.2
		c1.5,0.7,2.1,2.5,1.5,4c-0.7,1.5-2.5,2.1-4,1.5c-0.6-0.3-1.2-0.8-1.5-1.5l-1.8,0.8c0.3,0.7,0.8,1.2,1.3,1.7L1,41.4v7.4l3-2V70H0v2
		h21h28h19v-2h-4V46.6l4,2v-7.2L37.2,23.7C38.5,23.3,39.6,22.4,40.2,21.1z M62,45.6V70H49V50h3v-7H18v7h3v20H6V45.6l28-16.4l10.2,6
		L62,45.6z M21,46v2h-1v-3h30v3h-1v-2H21z M66,45.4l-2.5-1.2L34,26.8L4,44.4v0l-1,0.7v-2.6l31-18.4l32,18.4V45.4z"/>
</g>
</svg>
