<?xml version="1.0" encoding="utf-8"?>
<!-- Generator: Adobe Illustrator 25.0.1, SVG Export Plug-In . SVG Version: 6.00 Build 0)  -->
<svg version="1.1" id="Layer_1" xmlns="http://www.w3.org/2000/svg" xmlns:xlink="http://www.w3.org/1999/xlink" x="0px" y="0px"
	 viewBox="0 0 66.4 75" style="enable-background:new 0 0 66.4 75;" xml:space="preserve">
<style type="text/css">
	.st0{opacity:0.15;fill:#222222;enable-background:new    ;}
	.st1{fill:url(#SVGID_1_);}
	.st2{fill:none;stroke:#B74646;stroke-miterlimit:10;}
	.st3{enable-background:new    ;}
</style>
<path id="Path_20395" class="st0" d="M52.3,19.6c0,0,13.5,30.4,10.7,38.6c-3,5.5-17.5,8.8-38.6,13.4L52.3,19.6z"/>
<linearGradient id="SVGID_1_" gradientUnits="userSpaceOnUse" x1="9.8668" y1="77.9279" x2="33.9367" y2="29.788">
	<stop  offset="0" style="stop-color:#61D5BE"/>
	<stop  offset="1" style="stop-color:#40FF65"/>
</linearGradient>
<path class="st1" d="M14.9,74.8c0,0,41.7-11.3,44.8-19c0.6-13.9-4-30.7-7.1-41c-1.7-5.7-2.7-9.5-2.7-9.5L0,20.1L14.9,74.8z"/>
<path id="Path_20397" class="st2" d="M45.9,9V8.8l7.6,1.9c0.1,0,2.3,0.9,2,2.5c-0.2,1.4-1.5,2.4-2.9,2.2c-0.1,0-0.1,0-0.2,0
	C50.9,15.2,38.6,12.1,38,12c-0.4-0.2-0.7-0.4-1-0.7c-0.6-0.7-0.9-1.7-0.6-2.6c0.2-0.9,0.9-1.6,1.7-1.8c0.5-0.1,0.9-0.2,1.4-0.2
	L49.7,9l-0.2,0.2l-9.9-2.4c0,0-2.5-0.1-2.9,1.9c-0.3,1.3,0.3,2.6,1.5,3.1c0.1,0,12.9,3.2,14.3,3.4c1.3,0.3,2.5-0.6,2.8-1.9
	c0-0.1,0-0.1,0-0.2c0.2-1.4-1.9-2.2-1.9-2.2L45.9,9z"/>
<g class="st3">
	<path d="M19,51.8v2.5h-1.5v-7.1h2.8c0.5,0,1,0.1,1.4,0.3s0.7,0.5,0.9,0.8c0.2,0.4,0.3,0.8,0.3,1.2c0,0.7-0.2,1.2-0.7,1.6
		c-0.5,0.4-1.1,0.6-2,0.6H19V51.8z M19,50.6h1.3c0.4,0,0.7-0.1,0.9-0.3s0.3-0.4,0.3-0.8c0-0.3-0.1-0.6-0.3-0.8s-0.5-0.3-0.8-0.3H19
		V50.6z"/>
	<path d="M25.2,49.6c0.4-0.4,0.8-0.7,1.4-0.7c1.1,0,1.7,0.7,1.7,2v3.4H27V51c0-0.3-0.1-0.5-0.2-0.7c-0.1-0.1-0.3-0.2-0.6-0.2
		c-0.4,0-0.7,0.2-0.9,0.5v3.8h-1.4v-7.5h1.4L25.2,49.6L25.2,49.6z"/>
	<path d="M29.2,51.6c0-0.5,0.1-1,0.3-1.4s0.5-0.7,0.9-1s0.8-0.3,1.3-0.3c0.7,0,1.3,0.2,1.7,0.7s0.7,1,0.8,1.8v0.4
		c0,0.8-0.2,1.5-0.7,2s-1.1,0.7-1.8,0.7s-1.4-0.2-1.8-0.7S29.2,52.5,29.2,51.6L29.2,51.6z M30.6,51.7c0,0.5,0.1,0.9,0.3,1.2
		s0.5,0.4,0.8,0.4s0.6-0.1,0.8-0.4s0.3-0.7,0.3-1.3c0-0.5-0.1-0.9-0.3-1.1s-0.5-0.4-0.8-0.4s-0.6,0.1-0.8,0.4
		C30.7,50.8,30.6,51.2,30.6,51.7z"/>
	<path d="M36.8,47.7V49h0.9v1h-0.9v2.6c0,0.2,0,0.3,0.1,0.4c0.1,0.1,0.2,0.1,0.4,0.1s0.3,0,0.4,0v1.1c-0.3,0.1-0.6,0.1-0.9,0.1
		c-1,0-1.5-0.5-1.5-1.5V50h-0.8v-1h0.8v-1.3H36.8z"/>
	<path d="M38.1,51.6c0-0.5,0.1-1,0.3-1.4s0.5-0.7,0.9-1c0.4-0.2,0.8-0.3,1.3-0.3c0.7,0,1.3,0.2,1.7,0.7c0.5,0.4,0.7,1,0.8,1.8v0.4
		c0,0.8-0.2,1.5-0.7,2s-1.1,0.7-1.8,0.7s-1.4-0.2-1.8-0.7S38.1,52.5,38.1,51.6L38.1,51.6z M39.5,51.7c0,0.5,0.1,0.9,0.3,1.2
		s0.5,0.4,0.8,0.4s0.6-0.1,0.8-0.4c0.2-0.3,0.3-0.7,0.3-1.3c0-0.5-0.1-0.9-0.3-1.1c-0.2-0.3-0.5-0.4-0.8-0.4s-0.6,0.1-0.8,0.4
		C39.6,50.8,39.5,51.2,39.5,51.7z"/>
	<path d="M46.9,52.9c0-0.2-0.1-0.3-0.3-0.4c-0.2-0.1-0.4-0.2-0.8-0.3c-1.3-0.3-1.9-0.8-1.9-1.6c0-0.5,0.2-0.9,0.6-1.2
		c0.4-0.3,0.9-0.5,1.5-0.5c0.7,0,1.2,0.2,1.6,0.5c0.4,0.3,0.6,0.7,0.6,1.2h-1.4c0-0.2-0.1-0.4-0.2-0.5C46.5,50,46.3,50,46,50
		c-0.2,0-0.4,0.1-0.6,0.2c-0.1,0.1-0.2,0.2-0.2,0.4s0.1,0.3,0.2,0.4c0.1,0.1,0.4,0.2,0.7,0.2c0.4,0.1,0.6,0.1,0.9,0.2
		c0.7,0.3,1.1,0.7,1.1,1.4c0,0.5-0.2,0.9-0.6,1.2c-0.4,0.3-0.9,0.4-1.6,0.4c-0.4,0-0.8-0.1-1.2-0.2c-0.3-0.2-0.6-0.4-0.8-0.7
		s-0.3-0.6-0.3-0.9h1.3c0,0.3,0.1,0.4,0.3,0.6c0.2,0.1,0.4,0.2,0.7,0.2s0.5-0.1,0.6-0.2C46.8,53.2,46.9,53,46.9,52.9z"/>
</g>
<g>
	<circle cx="32.8" cy="32" r="7.5"/>
	<path d="M32.8,22c-5.5,0-10,4.5-10,10s4.5,10,10,10s10-4.5,10-10S38.3,22,32.8,22z M32.8,40.5c-4.7,0-8.5-3.8-8.5-8.5
		s3.8-8.5,8.5-8.5s8.5,3.8,8.5,8.5S37.5,40.5,32.8,40.5z"/>
</g>
</svg>
