<?xml version="1.0" encoding="utf-8"?>
<!-- Generator: Adobe Illustrator 26.2.1, SVG Export Plug-In . SVG Version: 6.00 Build 0)  -->
<svg version="1.1" id="Layer_1" xmlns="http://www.w3.org/2000/svg" xmlns:xlink="http://www.w3.org/1999/xlink" x="0px" y="0px"
	 viewBox="0 0 140 110" style="enable-background:new 0 0 140 110;" xml:space="preserve">
<g>
	<path d="M131.7,24.6L32.1,7c-1.9-0.4-3.7,0.8-4.1,2.7l-4.7,26.7H8.9c-1.9-0.1-3.5,1.4-3.6,3.3v60c0.1,1.9,1.7,3.4,3.6,3.3H110
		c1.9,0.1,3.5-1.4,3.6-3.3V89.1l6.5,1.1c1.9,0.4,3.7-0.8,4.1-2.7l10.4-59.1C134.9,26.6,133.6,24.9,131.7,24.6z M105.3,84.5
		L85.1,70.2c-1.6-1.1-3.6-1-5.1,0.1L56.6,88.5c-1.8,1.4-4.3,1.4-6.2,0.1l-13.4-9.4c-1.4-1-3.3-1-4.8,0.1L13.6,93.1V47.2
		c0.1-1.4,1.3-2.6,2.7-2.5h86.2c1.4-0.1,2.7,1.1,2.8,2.5V84.5z M125.2,34.5l-6.5,36.8l-5-5.1V39.7c-0.1-1.9-1.7-3.4-3.6-3.3H62.2
		c0.5-4.4-2.4-8.4-6.8-9.2c-4.5-0.8-8.9,2.2-9.7,6.8c-0.1,0.8-0.2,1.6-0.1,2.4H31.7l3.2-17.9c0.3-1.4,1.7-2.3,3.1-2l84.9,15
		C124.3,31.7,125.3,33,125.2,34.5z"/>
	<circle cx="35.3" cy="60.6" r="8.3"/>
</g>
</svg>
