<svg xmlns="http://www.w3.org/2000/svg" width="205" height="24" viewBox="0 0 205 24"><defs><style>.a{fill:#f6f7fb;}.b{fill:#263d84;}.b,.g,.h{fill-rule:evenodd;}.c{fill:#f6bb43;}.d{fill:#3d73ad;}.e{fill:#231f20;opacity:0.06;isolation:isolate;}.f{fill:#e6e9ee;}.g{fill:#f16722;}.h{fill:#434a54;}.i{fill:#335996;}.j{fill:#4b89dc;}.k{fill:#db4453;}.l{fill:#4097d3;}.m{fill:#fff;}.n{fill:#3e99d6;}</style></defs><g transform="translate(-1315 -513)"><g transform="translate(1358 513)"><rect class="a" width="33" height="13.5" transform="translate(0 5.25)"/><path class="b" d="M14.146,12.725l-3.566,9h-2.4l-2.025-7.9A8.968,8.968,0,0,0,3.8,12.866l.02-.141H7.474a.937.937,0,0,1,1.026.758l.792,4.1v0l.237,1.229,2.218-6.087Zm1.767,9,1.418-9H15.064l-1.417,9Zm8.217-8.774a5.483,5.483,0,0,0-2.028-.376c-2.242,0-3.818,1.21-3.831,2.942-.014,1.286,1.126,2,1.984,2.427.884.436,1.179.717,1.177,1.107-.009.595-.707.867-1.358.867a4.444,4.444,0,0,1-2.129-.468l-.3-.141L17.332,21.3a6.709,6.709,0,0,0,2.526.479c2.378,0,3.924-1.2,3.942-3.049.011-1.016-.594-1.787-1.9-2.424-.789-.412-1.279-.686-1.27-1.1,0-.37.41-.766,1.3-.766a3.854,3.854,0,0,1,1.695.342l.2.1Zm3.016,5.624h1.881c-.09-.45-.525-2.616-.525-2.616l-.151-.793c-.117.333-.316.908-.3.884,0,0-.715,1.925-.9,2.525Zm4.628,3.15h-2.1s-.207-1.06-.278-1.372c-.33,0-2.639.014-2.9.014-.087.242-.477,1.359-.477,1.359h-2.38L27,13.509a1.161,1.161,0,0,1,1.189-.784h1.75Z" transform="translate(-1.4 -5.225)"/><path class="c" d="M1,25.875v2.738a2.52,2.52,0,0,0,2.512,2.512H31.488A2.52,2.52,0,0,0,34,28.613V25.875Z" transform="translate(-1 -7.125)"/><path class="d" d="M1,9.25V6.512A2.52,2.52,0,0,1,3.512,4H31.488A2.52,2.52,0,0,1,34,6.512V9.25Z" transform="translate(-1 -4)"/><path class="e" d="M33.621,4H27.847L15.93,28H33.621a2.52,2.52,0,0,0,2.512-2.512V6.512A2.52,2.52,0,0,0,33.621,4Z" transform="translate(-3.133 -4)"/></g><g transform="translate(1401 513)"><path class="f" d="M31.488,28H3.512A2.52,2.52,0,0,1,1,25.488V6.512A2.52,2.52,0,0,1,3.512,4H31.488A2.52,2.52,0,0,1,34,6.512V25.488A2.52,2.52,0,0,1,31.488,28Z" transform="translate(-1 -4)"/><path class="g" d="M8.383,30.373a99.817,99.817,0,0,0,15.891-4.386,53.779,53.779,0,0,0,10.781-5.374v7.455a2.285,2.285,0,0,1-2.283,2.286Z" transform="translate(-2.055 -6.373)"/><path class="h" d="M4.582,13.577H6a2.2,2.2,0,0,1,2.1,2.152v.033A2.2,2.2,0,0,1,6,17.915H4.582V13.577ZM5.4,17.192s1.825.206,1.825-1.408v-.026c0-1.614-1.825-1.409-1.825-1.409Zm3.081.73h.867V13.577H8.481Zm4-3.905a2.11,2.11,0,0,0-1.224-.513,1.277,1.277,0,0,0-1.387,1.309c0,.974,1.011,1.11,1.379,1.246s.5.355.5.577a.56.56,0,0,1-.632.6,1.219,1.219,0,0,1-.941-.576l-.541.54a1.855,1.855,0,0,0,1.558.825,1.415,1.415,0,0,0,1.44-1.459c0-.968-.806-1.131-1.353-1.36s-.541-.334-.541-.52a.552.552,0,0,1,.605-.441,1.006,1.006,0,0,1,.669.329Zm3.758-.285a2.285,2.285,0,1,0,0,4.054V16.763a1.5,1.5,0,0,1-1.056.473,1.478,1.478,0,1,1,1.055-2.476Zm6.559,4.3h.538l1.827-4.455h-.935L23.1,16.424l-1.2-2.847h-.935Zm5.657-4.455h1.416a1.27,1.27,0,0,1,1.353,1.281,1.254,1.254,0,0,1-.931,1.248l1.327,1.816H30.562L29.39,16.188H29.3v1.734h-.848V13.577Zm.847.724v1.268h.467a.606.606,0,0,0,.586-.607v-.054a.606.606,0,0,0-.586-.607Zm-2.953.988v-.946H27.89v-.766H25.484v4.345H27.89v-.765H26.347v-1.1h1.475V15.29Zm-14.3,5.3h.223V19.547a1.091,1.091,0,0,0,.145.168l.971.931V19.091h-.223v1.038l-.083-.1A.984.984,0,0,0,13,19.947l-.951-.914v1.555Zm2.092,0h.835V20.37h-.592v-.483h.592v-.213h-.592V19.3h.592v-.207h-.835Zm1.934-1.3H16.4v-.207h-.9v.207h.329v1.305h.243V19.289Zm.846-.2.578,1.555.335-.849a2.024,2.024,0,0,0,.071-.214,1.73,1.73,0,0,0,.074.21l.341.854.579-1.555h-.243l-.281.761c-.013.037-.027.078-.042.124s-.025.082-.031.109c-.023-.081-.05-.16-.078-.238l-.316-.813-.3.8-.031.091c-.017.052-.034.105-.051.16-.013-.043-.025-.082-.038-.119s-.027-.077-.042-.117l-.283-.756Zm3.567.354a.509.509,0,0,0-.385-.164.465.465,0,0,0-.348.122.7.7,0,0,0-.159.223.6.6,0,0,0-.04.218.547.547,0,0,0,.159.4.537.537,0,0,0,.773,0,.57.57,0,0,0,0-.794Zm.18.954a.781.781,0,0,1-.565.231.8.8,0,0,1-.567-.23.755.755,0,0,1-.174-.254.793.793,0,0,1-.058-.3.752.752,0,0,1,.233-.558.815.815,0,0,1,1.131,0,.776.776,0,0,1,0,1.113Zm1.09-.669a.583.583,0,0,0,.249-.038c.047-.025.071-.081.071-.168A.191.191,0,0,0,22,19.347a.481.481,0,0,0-.247-.046h-.044v.429Zm-.058.858H21.47v-1.5h.339a1.206,1.206,0,0,1,.222.016.354.354,0,0,1,.258.206.463.463,0,0,1,.038.19.358.358,0,0,1-.344.4l.515.681h-.273l-.5-.669H21.7v.669Zm1.317,0h.243v-.763l.591.764h.315l-.664-.831.592-.666h-.3l-.538.621v-.621h-.243Z" transform="translate(-1.512 -5.353)"/><path class="g" d="M23.126,15.779a2.254,2.254,0,1,1-2.253-2.253A2.254,2.254,0,0,1,23.126,15.779Z" transform="translate(-3.517 -5.361)"/><path class="e" d="M33.471,4H27.7L14.88,28H33.471a2.52,2.52,0,0,0,2.512-2.512V6.512A2.52,2.52,0,0,0,33.471,4Z" transform="translate(-2.983 -4)"/></g><g transform="translate(1315 513)"><path class="f" d="M31.488,28H3.512A2.52,2.52,0,0,1,1,25.488V6.512A2.52,2.52,0,0,1,3.512,4H31.488A2.52,2.52,0,0,1,34,6.512V25.488A2.52,2.52,0,0,1,31.488,28Z" transform="translate(-1 -4)"/><g transform="translate(2.55 9)"><path class="i" d="M6.652,14.5c.415.011.83.014,1.243.037a2.407,2.407,0,0,1,1.137.309,1.3,1.3,0,0,1,.64,1.029A2.108,2.108,0,0,1,9.42,17.2a2.289,2.289,0,0,1-.971.885,3.693,3.693,0,0,1-1.417.381c-.269.021-.538.025-.808.031a.44.44,0,0,0-.462.371q-.139.6-.277,1.209a.427.427,0,0,1-.434.355H4.259c-.217,0-.321-.135-.272-.354l.278-1.233.9-3.969a.43.43,0,0,1,.439-.359c.35,0,.7,0,1.05,0Zm-.009,2.877,0,.023a5.935,5.935,0,0,0,.655-.112.968.968,0,0,0,.779-.833.628.628,0,0,0-.513-.808A2.389,2.389,0,0,0,6.8,15.6a.424.424,0,0,0-.383.35c-.029.125-.057.251-.086.377-.053.233-.108.466-.159.7a.262.262,0,0,0,.273.35Z" transform="translate(-3.975 -14.5)"/><path class="i" d="M16.733,22.754h-.459a.151.151,0,0,1-.157-.219.729.729,0,0,1,.06-.129c.213-.38.419-.765.646-1.137a.806.806,0,0,0,.1-.576q-.222-1.39-.454-2.778c-.081-.483-.165-.967-.248-1.449a.24.24,0,0,1,.235-.3c.272-.006.544-.006.816,0a.455.455,0,0,1,.426.38c.105.693.222,1.384.335,2.077a1.271,1.271,0,0,0,.032.171c.009.028.036.065.06.069a.1.1,0,0,0,.079-.045c.051-.076.093-.159.139-.238q.584-1.018,1.167-2.037a.7.7,0,0,1,.656-.388c.3.006.6,0,.895,0,.129,0,.172.051.134.178a1.176,1.176,0,0,1-.108.253Q19.394,19.5,17.7,22.415a.622.622,0,0,1-.583.34C16.988,22.751,16.86,22.754,16.733,22.754Z" transform="translate(-5.708 -14.736)"/><path class="i" d="M12.947,20.182c-.075.05-.135.088-.194.131a2.338,2.338,0,0,1-.963.441,1.882,1.882,0,0,1-.915-.03,1.089,1.089,0,0,1-.772-1.181,1.515,1.515,0,0,1,.419-.987,1.994,1.994,0,0,1,.663-.419,4.515,4.515,0,0,1,1.208-.284c.324-.039.649-.066.974-.1.114-.011.157-.057.159-.171a.41.41,0,0,0-.321-.452,2.414,2.414,0,0,0-.993-.069,4.448,4.448,0,0,0-.981.231c-.141.049-.219,0-.193-.151a4.733,4.733,0,0,1,.155-.635.42.42,0,0,1,.338-.274,6.588,6.588,0,0,1,2.094-.125,2.374,2.374,0,0,1,.794.207.93.93,0,0,1,.538.943,5.792,5.792,0,0,1-.177.946q-.238,1.057-.48,2.112a.436.436,0,0,1-.427.346q-.332,0-.662,0c-.232,0-.337-.135-.285-.365C12.931,20.267,12.937,20.235,12.947,20.182Zm-.773-.315a1.511,1.511,0,0,0,.825-.3.329.329,0,0,0,.12-.17c.066-.246.12-.5.175-.744.019-.081,0-.1-.086-.088-.129.015-.259.021-.386.044a6.728,6.728,0,0,0-.765.157.637.637,0,0,0-.5.647.347.347,0,0,0,.264.387A2.979,2.979,0,0,0,12.174,19.866Z" transform="translate(-4.85 -14.725)"/></g><g transform="translate(17.903 9.037)"><path class="j" d="M24.492,14.545c.3,0,.591,0,.886,0a4.156,4.156,0,0,1,1.121.142,1.372,1.372,0,0,1,1.081,1.281,2.169,2.169,0,0,1-.168,1.067,2.206,2.206,0,0,1-.935,1,3.5,3.5,0,0,1-1.253.416,6.657,6.657,0,0,1-1.093.063.443.443,0,0,0-.472.38c-.093.4-.183.811-.276,1.216a.424.424,0,0,1-.423.338h-.809a.242.242,0,0,1-.255-.322q.393-1.747.788-3.5.2-.878.4-1.755a.417.417,0,0,1,.413-.328Zm.015,2.868v.009c.149-.013.3-.025.447-.04a1.15,1.15,0,0,0,.16-.031A1.035,1.035,0,0,0,26,16.434a.631.631,0,0,0-.494-.759,2.536,2.536,0,0,0-.779-.059.437.437,0,0,0-.405.346c-.086.366-.17.733-.249,1.1a.269.269,0,0,0,.279.351Z" transform="translate(-21.887 -14.543)"/><path class="j" d="M30.864,20.182c-.052.032-.088.051-.121.075a2.986,2.986,0,0,1-.747.416,1.926,1.926,0,0,1-1.279.027,1.053,1.053,0,0,1-.7-1.005,1.5,1.5,0,0,1,.443-1.15,2.075,2.075,0,0,1,.736-.431,4.5,4.5,0,0,1,1.065-.239c.345-.039.689-.074,1.034-.11a.143.143,0,0,0,.146-.159.419.419,0,0,0-.319-.471,2.258,2.258,0,0,0-.829-.086,4.354,4.354,0,0,0-1.158.245c-.136.047-.206,0-.181-.143a4.813,4.813,0,0,1,.16-.649.379.379,0,0,1,.3-.245c.166-.036.334-.067.5-.094a6.439,6.439,0,0,1,1.341-.062,2.812,2.812,0,0,1,1.007.2.913.913,0,0,1,.584,1.051c-.074.448-.175.892-.272,1.336-.117.537-.243,1.072-.365,1.609a.446.446,0,0,1-.457.369c-.215,0-.43,0-.645,0a.25.25,0,0,1-.279-.226.523.523,0,0,1,.016-.14C30.849,20.268,30.855,20.235,30.864,20.182Zm-.769-.291a1.691,1.691,0,0,0,.821-.311.3.3,0,0,0,.115-.154c.068-.254.124-.511.179-.768.018-.086-.007-.1-.092-.093-.169.021-.34.03-.508.06a4.355,4.355,0,0,0-.657.146.642.642,0,0,0-.484.7.315.315,0,0,0,.2.318A3.969,3.969,0,0,0,30.1,19.892Z" transform="translate(-22.763 -14.764)"/><path class="j" d="M34.478,20.46c-.145-.007-.291,0-.434-.023a.226.226,0,0,1-.189-.291c.138-.646.279-1.292.417-1.937q.348-1.607.7-3.216a.452.452,0,0,1,.2-.33.48.48,0,0,1,.2-.063c.249-.008.5-.005.747,0a.247.247,0,0,1,.257.335q-.162.752-.327,1.5-.347,1.6-.7,3.208c-.032.149-.063.3-.1.447a.438.438,0,0,1-.448.36h-.334Z" transform="translate(-23.596 -14.55)"/></g><path class="e" d="M33.471,4H27.7L14.88,28H33.471a2.52,2.52,0,0,0,2.512-2.512V6.512A2.52,2.52,0,0,0,33.471,4Z" transform="translate(-2.983 -4)"/></g><g transform="translate(1444 513)"><path class="f" d="M31.488,28H3.512A2.52,2.52,0,0,1,1,25.488V6.512A2.52,2.52,0,0,1,3.512,4H31.488A2.52,2.52,0,0,1,34,6.512V25.488A2.52,2.52,0,0,1,31.488,28Z" transform="translate(-1 -4)"/><circle class="k" cx="7.95" cy="7.95" r="7.95" transform="translate(3.75 4.031)"/><circle class="c" cx="7.95" cy="7.95" r="7.95" transform="translate(13.29 4.031)"/><path class="e" d="M33.621,4H27.847L15.93,28H33.621a2.52,2.52,0,0,0,2.512-2.512V6.512A2.52,2.52,0,0,0,33.621,4Z" transform="translate(-3.133 -4)"/></g><g transform="translate(1487 513)"><path class="l" d="M31.488,28H3.512A2.52,2.52,0,0,1,1,25.488V6.512A2.52,2.52,0,0,1,3.512,4H31.488A2.52,2.52,0,0,1,34,6.512V25.488A2.52,2.52,0,0,1,31.488,28Z" transform="translate(-1 -4)"/><path class="m" d="M20.935,22.736V21.452h-.142v1.284H18.511v-1.5a3.524,3.524,0,0,1-1.137.357h-.289v1.141h-2.7l-.682-.752-.687.752H8.387V17.6h4.557l.767.835.769-.835h3.285c.032,0,.033-.068.086-.068a1.892,1.892,0,0,1,.661.059V17.6h3.048c.036,0,.037-.063.1-.063a1.848,1.848,0,0,1,.706.086V17.6H26.64v.021a2.574,2.574,0,0,1,.838-.082c.021,0,.125.061.137.061h2.3v.026a2.643,2.643,0,0,1,.862-.087c.02,0,.136.061.148.061h2.412v2.282H33.4a1.61,1.61,0,0,1,.2.766A1.918,1.918,0,0,1,31.631,22.7a1.24,1.24,0,0,0-.143.033H28.921v-.281a1.326,1.326,0,0,1-.71.221c-.06,0,0,.061-.038.061H20.935ZM18.8,16.462H17.371V15.178h-.143v1.284H9.955V16.32l.111.142H8.385l-.141-.16v.16H5.326L5,15.749H4.228l-.332.713H1.324l2.161-5.134h2.27l.066.457v-.457H8.655l.571,1.27.567-1.27h8.138c.036,0,0-.064.057-.064a1.365,1.365,0,0,1,.666.084v-.02h2.424v.157a2.345,2.345,0,0,1,1.042-.3l.062-.008,1.407.1.017.055h2.263l.057.411v-.411h2.608l.243.473v-.473H31.06v5.134H28.852l-.5-.747v.747h-2.9l-.333-.713h-.773l-.326.713h-2l-.111-.069a2.686,2.686,0,0,1-.832-.352v.422Zm3.754-2.982a.5.5,0,0,0-.037.163,1.715,1.715,0,0,0-.009.177l.144-.341Z" transform="translate(-1.046 -5.025)"/><path class="n" d="M18.342,15.9v-.72a.606.606,0,0,0-.626-.564H16.8V15.9h-.939V12.2h2.281a1.028,1.028,0,0,1,1.19,1.083.944.944,0,0,1-.526.865.908.908,0,0,1,.457.84V15.9h-.921M16.8,13.743h.971c.282,0,.514-.157.514-.351s-.232-.351-.514-.351H16.8v.7h0M29.434,15.9l-1.491-2.475V15.9H26.1l-.333-.777H24.052l-.327.777H22.253a1.606,1.606,0,0,1-1.266-1.748c0-2.055,1.436-1.974,1.485-1.987l1.159.032v.833l-.951.013s-.621,0-.7.808a2.514,2.514,0,0,0-.012.257.788.788,0,0,0,1.122.852L24.258,12.2h1.316l1.409,3.358V12.2h1.329l1.473,2.438V12.2h.946v3.7h-1.3m-4.981-1.723h.915l-.451-1.1-.464,1.1h0M10.968,15.9V13.343L9.789,15.9H9.018L7.834,13.355V15.9H5.979l-.325-.777H3.936L3.6,15.9H2.577l1.56-3.7H5.46l1.428,3.4V12.2H8.373l1.034,2.3,1.028-2.3H11.92v3.7h-.952m-6.63-1.723h.915l-.458-1.1-.457,1.1h0m8.1,1.723h2.932v-.8H13.386V14.47h1.936v-.839H13.386v-.57h1.986V12.2H12.44v3.7m7.281.013h.946V12.2h-.946v3.716m2.249,6.266v-.72a.607.607,0,0,0-.627-.564H20.43v1.284h-.94v-3.7H21.77a1.029,1.029,0,0,1,1.191,1.084.944.944,0,0,1-.526.865.907.907,0,0,1,.452.839v.915h-.915M20.43,20.022H21.4c.281,0,.513-.157.513-.351s-.232-.351-.513-.351H20.43v.7h0M15.7,22.171h-.821l-1-1.1-1,1.1h-3.5V18.462H12.81l1.077,1.178,1.084-1.172h.721v-.007h2.281a1.038,1.038,0,0,1,1.191,1.09c0,1.09-.4,1.429-1.611,1.429h-.921v1.191H15.7m-1.179-1.823,1.166,1.291V19.063l-1.166,1.285h0M10.334,21.37h1.98l.927-1.021-.927-1.016h-1.98V19.9h1.93v.841h-1.93v.627h0m6.3-1.354H17.6c.282,0,.513-.157.513-.351s-.231-.351-.513-.351h-.971v.7h0m11.749,2.15a1.059,1.059,0,0,0,.114.005,1.175,1.175,0,0,0,1.252-1.3c0-1.115-1.436-1.01-1.436-1.01s-.682.044-.682-.262c0-.364.5-.263.5-.263h1.454v-.865H27.78a1.084,1.084,0,0,0-1.172,1.141c0,1.215,1.3,1.1,1.3,1.1s.8-.026.8.308c0,.356-.526.294-.526.294H26.708v.852h1.673m-5.031.006h2.932v-.8H24.3v-.627h1.937V19.9H24.3v-.569h1.987v-.859H23.35v3.7m8.346-.006a1.059,1.059,0,0,0,.114.005,1.175,1.175,0,0,0,1.252-1.3c0-1.115-1.435-1.01-1.435-1.01s-.683.044-.683-.262c0-.364.5-.263.5-.263h1.448v-.865h-1.8a1.083,1.083,0,0,0-1.171,1.141c0,1.215,1.3,1.1,1.3,1.1s.8-.026.8.308c0,.356-.532.294-.532.294H30.023v.852H31.7" transform="translate(-1.225 -5.166)"/><path class="e" d="M33.471,4H27.7L14.88,28H33.471a2.52,2.52,0,0,0,2.512-2.512V6.512A2.52,2.52,0,0,0,33.471,4Z" transform="translate(-2.983 -4)"/></g></g></svg>