<?xml version="1.0" encoding="UTF-8"?><svg xmlns="http://www.w3.org/2000/svg" xmlns:xlink="http://www.w3.org/1999/xlink" viewBox="0 0 40 40"><defs><style>.h{fill:url(#d);}.i{fill:#fff;}</style><linearGradient id="d" x1="20" y1=".43" x2="20" y2="39.74" gradientTransform="matrix(1, 0, 0, 1, 0, 0)" gradientUnits="userSpaceOnUse"><stop offset="0" stop-color="#fff"/><stop offset=".51" stop-color="#cdd0d5"/><stop offset=".99" stop-color="#dcdee2"/></linearGradient></defs><g id="a"/><g id="b"><g id="c"><g><path id="e" class="h" d="M20,0h0c11.05,0,20,8.95,20,20h0c0,11.05-8.95,20-20,20h0C8.95,40,0,31.05,0,20H0C0,8.95,8.95,0,20,0Z"/><path id="f" class="i" d="M16.84,28.42l-5.34,1.08,1.08-5.34,4.27,4.27Zm-3.2-5.33l4.27,4.27,11.59-11.6-4.27-4.27-11.59,11.6Z"/><path id="g" d="M16.34,27.92l-5.34,1.08,1.08-5.34,4.27,4.27Zm-3.2-5.33l4.27,4.27,11.59-11.6-4.27-4.27-11.59,11.6Z"/></g></g></g></svg>