<?xml version="1.0" encoding="utf-8"?>
<!-- Generator: Adobe Illustrator 24.2.0, SVG Export Plug-In . SVG Version: 6.00 Build 0)  -->
<svg version="1.1" id="expert" xmlns="http://www.w3.org/2000/svg" xmlns:xlink="http://www.w3.org/1999/xlink" x="0px" y="0px"
	 viewBox="0 0 72 72" style="enable-background:new 0 0 72 72;" xml:space="preserve">
<style type="text/css">
	.st0{fill:#313638;}
</style>
<path class="st0" d="M61,54.4l-17-6.1v-6l0,0c0.8-0.4,1.5-1,2-1.7h5.7l1.6-2.7v-6.7c0.9-1,1.5-2.2,1.6-3.7c0.2-2.1-0.7-4.1-2.2-5.4
	v-1.4c0-10.4-8-18.8-17.9-18.8c-10,0-18.1,8.5-18.1,19v2h0.1c-1,1.3-1.5,2.9-1.4,4.6c0.3,3.3,3.1,5.8,6.4,5.8c0.2,0,0.3,0,0.5,0
	l0.3,3.3c0.2,2.4,1.6,4.6,3.6,5.6l1.7,1.1v4.9l-17,6.1c-1.8,0.4-3,2-3,3.8V72h2V58.2c0-0.9,0.6-1.7,1.5-1.9l16.2-5.8l3.3,3.7
	l-1.3,0.9l1.7,5.3l-1.5,10.4l2,0.3l1.4-9.8h3.1l1.5,9.8l2-0.3L38.4,61l2-5.8l-1.1-0.8l3.9-4.3l17.2,6.1l0.1,0c0.9,0.2,1.5,1,1.5,1.9
	V72h2V58.2C64,56.4,62.8,54.8,61,54.4z M50.6,38.6h-3.4c0-0.1,0.1-0.2,0.1-0.4l0-0.2c0-0.3,0.1-0.7,0.3-1l0.1-0.2l0.3-3.6l0,0
	c0.2,0,0.4,0,0.6,0c1,0,1.9-0.2,2.7-0.6v4.6L50.6,38.6z M49.2,31.3l0.8-8.5c1.9,0.7,3.1,2.5,3,4.6C52.8,29.5,51.1,31.1,49.2,31.3z
	 M34.8,4c8.8,0,15.9,7.5,15.9,16.8V21c-0.5-0.2-1-0.3-1.5-0.4l-0.5-0.1c-0.5-7.1-6.4-12.6-13.6-12.6c0,0-0.1,0-0.1,0
	C27.9,8,22.1,13.6,21.5,20.6l-0.3,0c-0.9,0.1-1.7,0.4-2.4,0.8V21C18.8,11.6,26,4,34.8,4z M17.5,27.4c-0.2-2.1,1.1-3.9,3-4.6l0.8,8.5
	C19.3,31.1,17.7,29.5,17.5,27.4z M24.6,36.5l-1.2-15C23.5,15.2,28.7,10,35,9.9c0,0,0.1,0,0.1,0c6.4,0,11.6,5.1,11.7,11.5l-1,15
	c-0.2,0.4-0.3,0.9-0.4,1.3c-0.1,0.3-0.2,0.6-0.4,0.9h-8.3v2h6.1l-6,3.8h-3.5l-6.1-3.9C25.7,39.8,24.7,38.2,24.6,36.5z M38,55.9
	l-1.2,3.5h-3.6L32.1,56l3-2.1L38,55.9z M35,51.4l-2.4,1.7l-2.9-3.3l0.3-0.1v-5l2.8,1.8h4.7l4.5-2.9v4.9l-4.3,4.8L35,51.4z"/>
</svg>
