<svg xmlns="http://www.w3.org/2000/svg" width="80.798" height="100" viewBox="0 0 80.798 100">
  <g id="Group_9451" data-name="Group 9451" transform="translate(1273 -4580)">
    <path id="Path_43" data-name="Path 43" d="M-239.267-95.448c-.089,1.87-1.808,3.3-3.215,2.972a40.919,40.919,0,0,1-5.79-1.757c-2.241-.745-2.471-2.7-1.923-5.713,1.769,3.99,3.722,3.585,6.1,3.95a16.532,16.532,0,0,0,2.362.291c.476.049,1.867.159,2.471.257" transform="translate(-996.172 4714.302)" fill="#222"/>
    <path id="Path_44" data-name="Path 44" d="M-230.427-95.537c.089,1.871,1.808,3.3,3.215,2.972a40.8,40.8,0,0,0,5.79-1.757c2.24-.744,2.471-2.7,1.923-5.713-1.769,3.99-3.722,3.584-6.1,3.95a16.684,16.684,0,0,1-2.362.291c-.476.049-1.867.159-2.471.256" transform="translate(-999.129 4714.313)" fill="#222"/>
    <path id="Path_48" data-name="Path 48" d="M-200.6-106.352c-13.766-11.068-27.292-22.1-40.87-33.022-13.347,10.942-39.971,32.946-39.928,33.022h0l20.318,35.981h3.422l-18.607-32.951h15.975c-.01,2.55-.022,5.05.016,7.548.132,8.512,4.223,14.405,11.561,18.142a3.545,3.545,0,0,1,1.363,1.279c1.479,2.487,1.447,2.506,2.88,5.021.406.712,2.314.678,3,.617.559-.05,2.658.2,2.986-.372,1.318-2.313,1.346-2.3,2.61-4.642a3.553,3.553,0,0,1,1.988-1.736c6.426-2.495,12.36-9.867,12.08-18.225-.085-2.541-.043-5.087-.022-7.632h16.1l-18.607,32.951h3.421l20.319-35.981Zm-50.859-18.393a12.639,12.639,0,0,1,4.872-6.236c1.731-1.318,3.353-2.787,5.14-4.285l31.538,25.274c-.028.084-.058.169-.086.254h-.965c-7.83,0-15.66.078-23.489-.03a27.568,27.568,0,0,1-13.179-3.2,8.39,8.39,0,0,1-4.578-6.179A11.981,11.981,0,0,1-251.463-124.745Zm14.091,44.618a1.019,1.019,0,0,1-.793.479c-2.3-.038-4.592-.111-6.885-.237a1.159,1.159,0,0,1-.844-.6c-.865-2.266-1.666-4.559-2.487-6.845,4.6-3.169,9.148-3.044,13.8.005C-235.5-84.925-236.408-82.515-237.372-80.127Zm12.07-12.861c-.527,4.934-3.288,8.658-7.375,11.327a1.484,1.484,0,0,1-.307.131c-.023.008-.06-.024-.19-.084.925-2.43,1.852-4.867,2.831-7.438a30.236,30.236,0,0,1-3.944-2.042c-3.26-2.325-6.916-1.888-10.536-1.837a.788.788,0,0,0-.335.049c-1.7.875-4.941,2.816-6.9,3.728,0,0,1.576,6.5.8,6.9-5.6-6.362-6.85-12.4-5.933-21.071h32.179A97.224,97.224,0,0,1-225.3-92.988Z" transform="translate(-991.598 4719.374)" fill="#222"/>
    <g id="Group_9450" data-name="Group 9450" transform="translate(-1263.494 4649.005)">
      <g id="Group_11" data-name="Group 11">
        <path id="Path_50" data-name="Path 50" d="M-259.875-57.86l-1.862,2.3a1.162,1.162,0,0,0-.238-.337,2.8,2.8,0,0,0-.735-.462,3.265,3.265,0,0,0-1.18-.243H-264a1.4,1.4,0,0,0-.728.2.87.87,0,0,0-.421.658.416.416,0,0,0-.015.125.746.746,0,0,0,.3.627,2.551,2.551,0,0,0,.927.447c.215.068.409.126.582.177s.35.1.529.16a4.224,4.224,0,0,1,2.322,1.5,4.862,4.862,0,0,1,.728,2.586v.188A3.739,3.739,0,0,1-260.3-48a4,4,0,0,1-1.617,1.473,5.808,5.808,0,0,1-2.428.58h-.1a5.832,5.832,0,0,1-2.084-.369,7.914,7.914,0,0,1-1.663-.8q-.644-.447-.789-.58l1.961-2.408a4.951,4.951,0,0,0,.927.737,2.211,2.211,0,0,0,1.272.369,2.35,2.35,0,0,0,.314-.016,2.553,2.553,0,0,0,1.05-.275.928.928,0,0,0,.4-.816v-.031a.823.823,0,0,0-.475-.728,7.98,7.98,0,0,0-1.456-.557,6.463,6.463,0,0,1-1.288-.455,6.031,6.031,0,0,1-1.058-.752,3.355,3.355,0,0,1-.8-1.121,3.823,3.823,0,0,1-.33-1.686v-.1a3.952,3.952,0,0,1,.6-2.038,4.131,4.131,0,0,1,1.54-1.459,4.476,4.476,0,0,1,2.069-.548h.091A5.731,5.731,0,0,1-259.875-57.86Z" transform="translate(268.977 60.102)" fill="#222"/>
        <path id="Path_51" data-name="Path 51" d="M-256.183-46.263V-59.19h7.538l.643,2.862h-4.93v2.038h3.55v2.862h-3.581v2.3h5.314l-.835,2.862Z" transform="translate(267.087 60.053)" fill="#222"/>
        <path id="Path_52" data-name="Path 52" d="M-244.369-46.1V-60.18l7.982,7.4v-6.538l3.19-.337v14.182l-7.921-7.259v6.342Z" transform="translate(265.341 60.18)" fill="#222"/>
        <path id="Path_53" data-name="Path 53" d="M-220.091-57.86l-1.861,2.3a1.183,1.183,0,0,0-.238-.337,2.815,2.815,0,0,0-.735-.462,3.259,3.259,0,0,0-1.18-.243h-.107a1.393,1.393,0,0,0-.727.2.871.871,0,0,0-.422.658.42.42,0,0,0-.015.125.744.744,0,0,0,.3.627,2.537,2.537,0,0,0,.926.447c.215.068.409.126.583.177s.349.1.528.16a4.218,4.218,0,0,1,2.321,1.5,4.862,4.862,0,0,1,.728,2.586v.188A3.744,3.744,0,0,1-220.512-48a4.012,4.012,0,0,1-1.617,1.473,5.808,5.808,0,0,1-2.429.58h-.1a5.832,5.832,0,0,1-2.084-.369,7.932,7.932,0,0,1-1.663-.8q-.643-.447-.789-.58l1.962-2.408a4.942,4.942,0,0,0,.926.737,2.214,2.214,0,0,0,1.272.369,2.337,2.337,0,0,0,.314-.016,2.55,2.55,0,0,0,1.05-.275.926.926,0,0,0,.4-.816v-.031a.821.821,0,0,0-.475-.728,7.979,7.979,0,0,0-1.456-.557,6.49,6.49,0,0,1-1.288-.455,6,6,0,0,1-1.057-.752,3.36,3.36,0,0,1-.8-1.121,3.825,3.825,0,0,1-.33-1.686v-.1a3.954,3.954,0,0,1,.6-2.038,4.132,4.132,0,0,1,1.54-1.459,4.479,4.479,0,0,1,2.069-.548h.092A5.728,5.728,0,0,1-220.091-57.86Z" transform="translate(263.099 60.102)" fill="#222"/>
        <path id="Path_54" data-name="Path 54" d="M-216.4-46.263V-59.19h7.537l.644,2.862h-4.93v2.038h3.551v2.862h-3.581v2.3h5.314l-.836,2.862Z" transform="translate(261.209 60.053)" fill="#222"/>
        <path id="Path_55" data-name="Path 55" d="M-203.586-46.054V-59.24l3.236-.337v13.265Z" transform="translate(259.316 60.102)" fill="#222"/>
      </g>
      <path id="Path_24143" data-name="Path 24143" d="M5.875,7.9a7.489,7.489,0,0,1-3.127-.58A4.482,4.482,0,0,1,.885,5.883,3.228,3.228,0,0,1,.248,4.172a.372.372,0,0,1,.124-.285.42.42,0,0,1,.295-.114H3.29a.662.662,0,0,1,.361.086.821.821,0,0,1,.247.276q.361.932,2,.932a2.163,2.163,0,0,0,1.445-.437,1.469,1.469,0,0,0,.513-1.179q0-1.426-1.9-1.426H3.822a.487.487,0,0,1-.494-.494V.408a.716.716,0,0,1,.323-.646l3.061-2.51H1.465a.456.456,0,0,1-.333-.143.456.456,0,0,1-.143-.333V-5.106a.5.5,0,0,1,.133-.352A.447.447,0,0,1,1.465-5.6h8.859a.447.447,0,0,1,.342.143.5.5,0,0,1,.133.352v1.692a.741.741,0,0,1-.3.627L7.681-.22l.133.038A4.932,4.932,0,0,1,10.533,1a3.47,3.47,0,0,1,1.008,2.681,3.582,3.582,0,0,1-.732,2.234A4.622,4.622,0,0,1,8.794,7.385,7.806,7.806,0,0,1,5.875,7.9Zm8.194-.19a.487.487,0,0,1-.475-.475V-5.106a.5.5,0,0,1,.133-.352.447.447,0,0,1,.342-.143h5a6.5,6.5,0,0,1,4.373,1.34A5.013,5.013,0,0,1,25.077-.41q.019.551.019,1.464T25.077,2.5q-.19,5.209-5.913,5.209Zm5-2.852a2.411,2.411,0,0,0,1.768-.57,2.618,2.618,0,0,0,.608-1.825q.038-.551.038-1.426T21.446-.372a2.468,2.468,0,0,0-.656-1.8,2.561,2.561,0,0,0-1.816-.58H17.168v7.6Z" transform="translate(16.976 23.096)" fill="#222"/>
    </g>
  </g>
</svg>
