<svg xmlns="http://www.w3.org/2000/svg" width="207.055" height="103.528" viewBox="0 0 207.055 103.528">
  <g id="Group_17" data-name="Group 17" transform="translate(-695.132 -7.07)">
    <g id="Group_5" data-name="Group 5" transform="translate(767.271 41.391)">
      <g id="Group_1" data-name="Group 1" transform="translate(1.134 0.819)">
        <path id="Path_1" data-name="Path 1" d="M177.634,90.071l-5.126,2.89v.1l5.126,2.89v13.967l-6.8,3.853H148.6V73.6h22.231l6.8,3.853Zm-20.851-9.584v9.054H169.4V80.487Zm0,15.941v10.451H169.4V96.428Z" transform="translate(-148.6 -73.311)" fill="#282221"/>
        <path id="Path_2" data-name="Path 2" d="M250.191,109.891l-6.8,3.853H225l-6.8-3.853V76.853L225,73h18.386l6.8,3.853Zm-23.759-30v26.97h15.527V79.887Z" transform="translate(-183.892 -73)" fill="#282221"/>
        <path id="Path_3" data-name="Path 3" d="M293.191,93.083V76.853l6.8-3.853h14.837l6.8,3.853v7.609H313.4V79.887H301.374v9.584h13.457l6.8,3.853v16.567l-6.8,3.853H299.4l-6.8-3.853v-7.609h8.232v4.575h12.619V96.936H299.994Z" transform="translate(-221.618 -73)" fill="#282221"/>
        <path id="Path_4" data-name="Path 4" d="M361.692,93.083V76.853l6.8-3.853h14.837l6.8,3.853v7.609H381.9V79.887H369.874v9.584h13.457l6.8,3.853v16.567l-6.8,3.853H367.9l-6.8-3.853v-7.609h8.232v4.575h12.619V96.936H368.494Z" transform="translate(-256.352 -73)" fill="#282221"/>
      </g>
      <g id="Group_2" data-name="Group 2" transform="translate(1.134)">
        <path id="Path_5" data-name="Path 5" d="M177.634,88.323l-5.126,2.89v.1l5.126,2.89v13.967l-6.8,3.853H148.6V71.9h22.231l6.8,3.853Zm-20.851-9.536v9.054H169.4V78.787Zm0,15.941v10.451H169.4V94.728Z" transform="translate(-148.6 -71.611)" fill="#d12029"/>
        <path id="Path_6" data-name="Path 6" d="M250.191,108.143l-6.8,3.853H225l-6.8-3.853V75.153L225,71.3h18.386l6.8,3.853ZM226.432,78.187v26.97h15.527V78.187Z" transform="translate(-183.892 -71.3)" fill="#d12029"/>
        <path id="Path_7" data-name="Path 7" d="M293.191,91.335V75.153l6.8-3.853h14.837l6.8,3.853v7.609H313.4V78.187H301.374v9.584h13.457l6.8,3.853v16.567l-6.8,3.853H299.4l-6.8-3.853v-7.658h8.232v4.575h12.619V95.188H299.994Z" transform="translate(-221.618 -71.3)" fill="#d12029"/>
        <path id="Path_8" data-name="Path 8" d="M361.692,91.335V75.153l6.8-3.853h14.837l6.8,3.853v7.609H381.9V78.187H369.874v9.584h13.457l6.8,3.853v16.567l-6.8,3.853H367.9l-6.8-3.853v-7.658h8.232v4.575h12.619V95.188H368.494Z" transform="translate(-256.352 -71.3)" fill="#d12029"/>
      </g>
      <g id="Group_3" data-name="Group 3" transform="translate(0 46.379)">
        <path id="Path_9" data-name="Path 9" d="M280.624,186.72H146.3V167.6H280.624l-8.725,9.536Z" transform="translate(-146.3 -167.6)" fill="#282221"/>
      </g>
      <g id="Group_4" data-name="Group 4" transform="translate(3.155 48.402)">
        <path id="Path_10" data-name="Path 10" d="M163.446,178.216l-1.873,1.06v.048l1.873,1.06v5.153l-2.514,1.445H152.7V172.1h8.232l2.514,1.445Zm-7.739-3.564v3.371h4.683v-3.371Zm0,5.924v3.853h4.683v-3.853Z" transform="translate(-152.7 -171.955)" fill="#fff"/>
        <path id="Path_11" data-name="Path 11" d="M192.574,172.1h3.056v13.533l-2.514,1.445h-6.8l-2.514-1.445V172.1h3.056v12.233h5.767V172.1Z" transform="translate(-168.47 -171.955)" fill="#fff"/>
        <path id="Path_12" data-name="Path 12" d="M217,186.982V172.1h3.056v14.882Z" transform="translate(-185.304 -171.955)" fill="#fff"/>
        <path id="Path_13" data-name="Path 13" d="M232.5,186.982V172.1h3.056v12.329h5.176v2.552Z" transform="translate(-193.164 -171.955)" fill="#fff"/>
        <path id="Path_14" data-name="Path 14" d="M267.63,185.537l-2.514,1.445H255.8V172.1h9.316l2.514,1.445Zm-8.774-10.884v9.777h5.767v-9.777Z" transform="translate(-204.979 -171.955)" fill="#fff"/>
        <path id="Path_15" data-name="Path 15" d="M289.1,186.982V172.1h3.056v14.882Z" transform="translate(-221.864 -171.955)" fill="#fff"/>
        <path id="Path_16" data-name="Path 16" d="M307.556,177.349v9.632H304.5V172.1h2.859l6.556,9.632h.049V172.1h3.056v14.882h-2.859l-6.605-9.632Z" transform="translate(-229.673 -171.955)" fill="#fff"/>
        <path id="Path_17" data-name="Path 17" d="M344.369,181.677v-2.553h5.521v6.454l-2.514,1.445h-6.162l-2.514-1.445V173.345l2.514-1.445h6.162l2.514,1.445v3.034h-3.056v-1.926h-5.127v9.969h5.127v-2.745Z" transform="translate(-247.015 -171.852)" fill="#fff"/>
        <path id="Path_18" data-name="Path 18" d="M370,179.265v-6.02l2.514-1.445h5.521l2.514,1.445v2.841H377.49V174.4h-4.436v3.564h4.979l2.514,1.445v6.116l-2.514,1.445h-5.718l-2.514-1.445v-2.842h3.056v1.686h4.683v-3.66H372.56Z" transform="translate(-262.784 -171.8)" fill="#fff"/>
      </g>
    </g>
    <path id="Path_19" data-name="Path 19" d="M53.85,70.175S52.765,59.82,56.66,53.752c3.993-6.165,91-31.4,100.115-30.2,8.331,1.108,56.1,16.856,56.1,16.856a17.043,17.043,0,0,0-3.056-.1,7.594,7.594,0,0,0-2.465.433S168.161,28.034,156.774,28.13c-9.316.1-93.066,22.154-96.122,29.185-2.76,6.309-18.127,12.811-18.127,12.811Z" transform="translate(668.318 -5.137)" fill="#282221"/>
    <g id="Group_16" data-name="Group 16" transform="translate(695.132 7.07)">
      <g id="Group_15" data-name="Group 15">
        <g id="Group_6" data-name="Group 6" transform="translate(27.47 12.128)">
          <path id="Path_21" data-name="Path 21" d="M60.635,30.363a1.253,1.253,0,0,0,.69-.289,32.616,32.616,0,0,1,7.542-4.383c.148-.048.493-.048.345-.385a13.431,13.431,0,0,0-7.148.963A10.83,10.83,0,0,0,56.1,34.408a2.345,2.345,0,0,0,.542-.963,13.144,13.144,0,0,1,1.676-3.179C59.551,28.725,59.551,28.725,60.635,30.363Z" transform="translate(-55.893 -25.219)" fill="#bcc1c5"/>
          <path id="Path_22" data-name="Path 22" d="M60.422,34.565c-1.084-1.637-1.134-1.637-2.317-.1a13.144,13.144,0,0,0-1.676,3.179c-.148.337-.2.722-.542.963-.1.193-.246.337-.2.578,1.035-.433,1.528-1.4,2.267-2.119A10,10,0,0,0,60.422,34.565Z" transform="translate(-55.68 -29.421)" fill="#fff"/>
        </g>
        <g id="Group_7" data-name="Group 7" transform="translate(16.241)">
          <path id="Path_23" data-name="Path 23" d="M84.72,3.15c0-.626-.641-.722-.937-.722h-.148c-1.528-.289-3.105-.433-3.105-.433L79.3,1.031C71.756-.7,65.791-.173,60.566,2.668L58.2,3.92l2.613-.53a24.9,24.9,0,0,1,9.711-.337,1.47,1.47,0,0,0,.789-.048,2.551,2.551,0,0,0,.444-.1v.1a18.709,18.709,0,0,1,.592,9.151V12.2a.653.653,0,0,0,.444.867.982.982,0,0,0,.394.048c.69,0,1.824-.337,2.021-.867,1.528-3.419,4.239-6.02,8.331-7.995a.49.49,0,0,0,.246-.193C84.128,4.017,84.769,3.824,84.72,3.15ZM72.544,2.716a5.936,5.936,0,0,1,.986-.193.483.483,0,0,0-.2.241,1.056,1.056,0,0,0,.049.867c0,.144.049.337.049.482,0,.1.049.193.049.289A8.147,8.147,0,0,0,72.544,2.716Z" transform="translate(-45.729 -0.037)" fill="#282221"/>
          <path id="Path_24" data-name="Path 24" d="M58.927,5.732c-.148-.337-1.232-.193-1.972-.241-3.451-.289-6.31-.337-8.774.433-3.451,1.108-5.373,4.19-6.655,8.043l-.049.193a4.481,4.481,0,0,0-.345,2.167l.2,1.445.838-1.782a22.714,22.714,0,0,0-1.232,5.2c-.1.722-.2,1.4-.246,2.119-.2,1.445-.345,2.986-.641,4.479a14.586,14.586,0,0,1-5.817,9.343c-.049.048-.1.048-.1.1a1.855,1.855,0,0,0-.542.53l-.69.289.937.771.3-.433A10.185,10.185,0,0,0,38.421,35.4a14.992,14.992,0,0,0,2.465-3.179,6.747,6.747,0,0,1-.394.867c-.2.433-.394.867-.542,1.252l-.394.915.937-.385a2.827,2.827,0,0,0,1.282-1.348l.049-.1a21.327,21.327,0,0,0,2.662-8.38c.049-.433.148-.867.2-1.3a38.851,38.851,0,0,1,.937-4.768c.493-1.686,1.084-2.938,2.267-3.66a1.308,1.308,0,0,0-.345.385l-.246.337.394.241a.843.843,0,0,0,.986-.048l.049-.048c3.549-1.782,6.507-1.975,9.316-.578a.958.958,0,0,0,.838.048c.345-.193.345-.53.394-.771,0-.048.542.289.592.241a12.317,12.317,0,0,0-.592-8.332Z" transform="translate(-32.9 -2.764)" fill="#282221"/>
        </g>
        <path id="Path_25" data-name="Path 25" d="M108.284,149.8l-4.584,9.825,2.169,2.264,5.274-4.238Z" transform="translate(-52.559 -77.673)" fill="#fff"/>
        <g id="Group_13" data-name="Group 13" transform="translate(0 41.352)">
          <path id="Path_26" data-name="Path 26" d="M32.783,96.645c-.493-.289-.838-.819-1.479-.963a.952.952,0,0,0-1.134.385c-.394.482.2.578.394.771,2.021,1.734,2.267,4.045,2.169,6.405a19.805,19.805,0,0,1-2.563,8.91,8.306,8.306,0,0,0-.493.915c-.049.048,0,.144,0,.241,1.134-.771,2.465-3.227,3.451-6.405a21.175,21.175,0,0,0,.789-7.272,6.36,6.36,0,0,1,.986,3.612,45.208,45.208,0,0,1-.592,6.839,23.171,23.171,0,0,0-.1,4.527,6.771,6.771,0,0,0,5.077,6.261c.394.144.739.241,1.183.385a1.332,1.332,0,0,1-1.43.722c-.592,0-.789.193-.937.771-.542,2.023-.592,2.36.1,4.72a6.383,6.383,0,0,1-4.141-2.119c-.148-.193-.246-.578-.592-.433a.888.888,0,0,0-.493.771,2.63,2.63,0,0,0,.592,1.975,9.235,9.235,0,0,0,5.127,3.564,5.911,5.911,0,0,1-6.31.626,2.3,2.3,0,0,0,.838,2.408c2.613,2.215,5.274,4.383,7.986,6.405.838.626,1.824.433,2.76.578a7.95,7.95,0,0,0,1.479-.048,5.454,5.454,0,0,1-2.07-5.683c.345.771.641,1.541,1.035,2.312a5.044,5.044,0,0,0,3.6,2.793,1.91,1.91,0,0,0,1.775-.337,13.72,13.72,0,0,0,.789-4c.246-3.034-.542-4.094-3.451-4.623-.049,0-.049-.048-.1-.1a1.792,1.792,0,0,0-.542.193c-1.43.771-2.859,1.637-4.338,2.36a3.6,3.6,0,0,1-4.486-.53,7.4,7.4,0,0,0,4.634-1.252,24.051,24.051,0,0,1,3.7-1.878c.444-.674,1.134-.626,1.775-.674,1.824-.1,1.972-.193,1.824-2.023-.049-.482-.049-1.011-.1-1.493-.1-1.2-.542-1.4-1.577-.722-.789.482-1.331,1.3-2.267,1.637a8.449,8.449,0,0,1-4.486,3.13c-2.366.53-5.274-.963-5.866-3.082.444.241.838.482,1.232.722a5.17,5.17,0,0,0,6.359-.771,14.037,14.037,0,0,0,1.429-1.541,14.383,14.383,0,0,1,3.105-2.841c.049-.53.493-.53.887-.626a3.868,3.868,0,0,1,2.218-.048c.838.193,1.134-.145,1.035-.915s.1-1.637-.444-2.36c-1.922.53-3.648,1.4-5.521,2.023.345-.674,1.035-.867,1.577-1.349.049-.193.148-.337.394-.241l.1-.048c.542-1.156,1.725-1.637,2.711-2.312a2.615,2.615,0,0,0,1.183-1.541,18.188,18.188,0,0,0-.246-8.765,3.043,3.043,0,0,0-1.824-1.975,13.79,13.79,0,0,1-5.077-3.564c0-.048-.049-.048-.049-.1,0,.048,0,.048.049.1l1.479.289a13.838,13.838,0,0,0,4.683.433,21.646,21.646,0,0,1-9.07-3.13c.336.1.672.2,1.288.389a42.59,42.59,0,0,0,5.268,1.441c-.148-.674-.986-.53-1.331-1.011a26.871,26.871,0,0,1-5.817-2.071,12.3,12.3,0,0,0-4.387-1.926c-.493-.048-.542-.337-.542-.722.049-.674,0-1.4,0-2.167a10.618,10.618,0,0,0-3.451,1.3c-.542.289-.493.578-.148.963a3.224,3.224,0,0,1,.69,1.493c0,.1.049.241,0,.289C32.882,96.838,32.832,96.742,32.783,96.645Z" transform="translate(-15.014 -89.373)" fill="#fff"/>
          <path id="Path_27" data-name="Path 27" d="M15.972,108.678a4.416,4.416,0,0,0-5.57-3.8,7.91,7.91,0,0,0-4.141,2.36,15.7,15.7,0,0,0-3.8,7.658c-.887,3.853-.493,7.369,2.317,10.4a23.16,23.16,0,0,1,1.577,2.071c.493-.048.592-.482.739-.819a43.161,43.161,0,0,0,4.338-12.137c.148-.626.148-1.445.641-1.637.542-.193.887.626,1.232,1.011.493.53.838.867,1.134-.193C14.937,111.9,15.479,110.315,15.972,108.678Z" transform="translate(-1.013 -95.674)" fill="#fff"/>
          <path id="Path_28" data-name="Path 28" d="M20.463,112.9c-.493,1.637-1.035,3.227-1.479,4.864-.3,1.06-.69.722-1.134.193-.394-.433-.739-1.252-1.232-1.011-.493.193-.493,1.06-.641,1.637a42.631,42.631,0,0,1-4.338,12.136c-.2.337-.246.771-.739.819.345.433.641.867,1.084,1.445a49.245,49.245,0,0,0,5.472-12.714c.592.674.493,1.445.937,2.215C19.773,119.354,21.252,116.368,20.463,112.9Z" transform="translate(-5.503 -99.897)" fill="#bcc1c5"/>
          <path id="Path_29" data-name="Path 29" d="M66.564,92.257a13.71,13.71,0,0,1-.2-6.357,16.22,16.22,0,0,1-5.915,3.853c-2.12.867-4.338,1.445-6.852,2.264a22.362,22.362,0,0,0,7.936,1.975c.246,0,.592,0,.69-.337s-.2-.53-.394-.626a8.645,8.645,0,0,0-1.577-.53,3.112,3.112,0,0,1-1.775-.963,13.57,13.57,0,0,0,7.1-3.419C65.726,89.608,65.48,91.15,66.564,92.257Z" transform="translate(-27.155 -85.9)" fill="#bcc1c5"/>
          <g id="Group_9" data-name="Group 9" transform="translate(49.317 29.667)">
            <g id="Group_8" data-name="Group 8">
              <path id="Path_30" data-name="Path 30" d="M103.2,149.026a.984.984,0,0,0,.542-.626A.719.719,0,0,0,103.2,149.026Z" transform="translate(-101.623 -147.967)" fill="#bcc1c5"/>
              <path id="Path_31" data-name="Path 31" d="M103.2,149.777Z" transform="translate(-101.623 -148.669)" fill="#bcc1c5"/>
              <path id="Path_32" data-name="Path 32" d="M104.3,148.4Z" transform="translate(-102.18 -147.967)" fill="#bcc1c5"/>
              <path id="Path_33" data-name="Path 33" d="M104.78,147.548c-.1,0-.2-.048-.3-.048a.453.453,0,0,0-.2.482A.735.735,0,0,0,104.78,147.548Z" transform="translate(-102.167 -147.5)" fill="#bcc1c5"/>
              <path id="Path_34" data-name="Path 34" d="M100,151.593a.453.453,0,0,1,.246.048c.1-.048.148-.145.246-.193V151.4A.641.641,0,0,0,100,151.593Z" transform="translate(-100 -149.522)" fill="#bcc1c5"/>
              <path id="Path_35" data-name="Path 35" d="M101,151.193h0a.49.49,0,0,0,.246-.193C101.1,151,101.049,151.1,101,151.193Z" transform="translate(-100.507 -149.314)" fill="#bcc1c5"/>
              <path id="Path_36" data-name="Path 36" d="M101.5,151Z" transform="translate(-100.761 -149.314)" fill="#bcc1c5"/>
            </g>
          </g>
          <path id="Path_37" data-name="Path 37" d="M101.5,150.793a1.071,1.071,0,0,0,.246-.193h0a.49.49,0,0,1-.246.193Z" transform="translate(-51.444 -119.44)" fill="#7e6d5a"/>
          <path id="Path_38" data-name="Path 38" d="M112.746,166.1a1.081,1.081,0,0,0-.246.145A1.081,1.081,0,0,1,112.746,166.1Z" transform="translate(-57.021 -127.475)" fill="#b77c6a"/>
          <path id="Path_39" data-name="Path 39" d="M102.1,150.393a1.072,1.072,0,0,0,.246-.193h0a.49.49,0,0,1-.246.193Z" transform="translate(-51.748 -119.233)" fill="#7e6d5a"/>
          <path id="Path_40" data-name="Path 40" d="M108.8,139.2c0,.048,0,.048.049.1-.049-.048-.049-.048-.049-.1Z" transform="translate(-55.145 -113.53)" fill="#87735d"/>
          <path id="Path_41" data-name="Path 41" d="M102.6,149.993c.1-.048.2-.145.3-.193h0c-.1.048-.2.144-.3.193Z" transform="translate(-52.001 -119.025)" fill="#7e6d5a"/>
          <path id="Path_42" data-name="Path 42" d="M62.57,108.112a15.773,15.773,0,0,0,4.979-.289A4.694,4.694,0,0,0,71.2,104.5c-3.3,3.275-7.2,2.938-11.14,2.36a59.8,59.8,0,0,1-6.556-1.83A23.277,23.277,0,0,0,62.57,108.112Z" transform="translate(-27.104 -95.542)" fill="#282221"/>
          <path id="Path_44" data-name="Path 44" d="M59.349,110.4c0-.048,0-.048-.049-.1.049,0,.049.048.049.1Z" transform="translate(-30.045 -98.549)" fill="#87735d"/>
          <path id="Path_45" data-name="Path 45" d="M36,100.844c.049.1.049.241.2.144.049-.048,0-.193,0-.289A.679.679,0,0,1,36,100.844Z" transform="translate(-18.231 -93.572)" fill="#131926"/>
          <g id="Group_11" data-name="Group 11" transform="translate(20.283 6.892)">
            <path id="Path_46" data-name="Path 46" d="M66.2,122.841c.493.722.3,1.541.444,2.36.1.722-.2,1.06-1.035.915a4.332,4.332,0,0,0-2.218.048c-.345.1-.838.1-.887.626a4.011,4.011,0,0,1,4.091.578c-3.056-.144-4.781,1.445-5.964,3.8.937-.337,1.479-1.156,2.267-1.637,1.035-.674,1.479-.482,1.577.722.049.482.049,1.011.1,1.493.1,1.83,0,1.926-1.824,2.023-.641.048-1.38,0-1.775.674.887.048,1.487-.34,2.375.238-.493.482-1.1.224-1.443.8,0,.048.2.212.251.212,2.908.53,3.746,1.589,3.451,4.623a11.318,11.318,0,0,1-.789,4,3.206,3.206,0,0,0,3.091-3.88,22.092,22.092,0,0,0-.1-2.553c-.1-1.156-.221-2.429-1.65-2.959a4.776,4.776,0,0,0,1.32-.915,2.868,2.868,0,0,0,.91-1.647c.444,1.2.417,1.984,1.5,2.562-2.514,2.071-1.277,5.057-2.066,7.609,2.662-.674,3.388-1.026,3.684-3.386.1-.674.2-1.3.246-1.975.049-.771.161-1,.851-.755a3.234,3.234,0,0,1,2.218,1.975c.2.53.394.433.789.241.394-.241.875-.489.53-.874-1.183-1.2-2.216-2.328-4.139-2.376,1.331-.722,1.785-.266,3.067.842.345.289.592.722.937,1.059.246.241.246.867.789.674s1.352-.5,1.4-1.13a34.822,34.822,0,0,1,.422-5.564c.3-1.108.748-2.017,1.093-3.125.2-.674.311-1.581-.379-1.389a2.586,2.586,0,0,1-1.72.086,23.939,23.939,0,0,0,2.317-2.122,2.48,2.48,0,0,1-.6,0c-2.415,1.06-2.364,1.3-4.139-.385-.937-.867-1.9-1.613-2.836-2.431a5.181,5.181,0,0,1-1.3-1.229,1.247,1.247,0,0,1,1.3.069c1.331.578,1.812-.325,2.107-1.288,1.331-4.046-.285-9.639-4.031-12.769a7.665,7.665,0,0,0,2.071-1.086c1.676-.963,2.514-.722,3.451.963a26.772,26.772,0,0,1,1.873,5.009c.986,3.13,1.824,6.309,3.6,9.1a2.19,2.19,0,0,1,.062,2.26c.1,0,.543.258.641.258.887-.722,1.346-1.535.656-2.691a23.312,23.312,0,0,1-3.745-9.878,2.4,2.4,0,0,1,0-1.331,27.4,27.4,0,0,0,4.654,9.7l.315.266a4.058,4.058,0,0,0-.408-2.648c-1.824-4-3.906-8.406-4.547-12.837-.1.482-.406,1.06-.554,1.83a11.591,11.591,0,0,1-1.067-3.275c-.444.915-.887,1.686-1.824,1.782-.641.1-1.134,0-.739-.867.2-.433.3-.963.493-1.445.345-.819-.1-1.2-.838-1.493-.838-.337-.789.337-.986.771a4.733,4.733,0,0,1-3.549,2.7,18.748,18.748,0,0,1-5.915.048l-2.366-.289c.3.482,1.183.337,1.331,1.011,3.943.578,7.838.915,11.14-2.36A4.619,4.619,0,0,1,70.54,105.5a15.69,15.69,0,0,1-4.979.289,14.074,14.074,0,0,1-4.683-.433L59.4,105.07h0a13.79,13.79,0,0,0,5.077,3.564,3.152,3.152,0,0,1,1.824,1.975,17.6,17.6,0,0,1,.246,8.765,2.615,2.615,0,0,1-1.183,1.541c-.986.674-2.14,1.221-2.683,2.377,1.331-.578,2.822-1.279,4.153-1.761a1.82,1.82,0,0,0,1.38-1.878c.1-1.493.232-2.7.281-4.191a7.481,7.481,0,0,1,1.157,4.153,2.286,2.286,0,0,0,1.232,2.167,10.759,10.759,0,0,1,3.451,3.179c.1.048.345,0,.246.193-.049.1-.275-.2-.373-.3a11.239,11.239,0,0,1-2.288-1.417c-1.922-1.108-1.873-.93-2.12,1.285a7.946,7.946,0,0,1-.867,3.611c-.148-1.637-.269-2.773-.466-4.266C68.221,122.186,68.076,122.167,66.2,122.841Zm8.035,6.992c-.542-1.156-2.07-1.791-3.4-2.754,1.577.337,1.725-.289,1.528-1.156-.1-.482-.246-.963-.345-1.445-.049-.048-.049-.1-.1-.145.049.048.1.048.148.1a12.458,12.458,0,0,1,3.8,2.938c.542.578.848,1.06,1.686.674.69-.289.838-.048.739.626-.345,1.926-.7,3.533-1.093,5.459-.049.241,0,.626-.394.626-.69.048-.445.561-.4.9.049.289.3.626,0,.963-1.232-1.686-2.662-2.842-5.126-2.071a10.74,10.74,0,0,0,.9-5.14c.69.1.553.289.947.53.434,1.738,2.2,3.863,2.434,3.049C75.625,132.83,74.193,129.855,74.237,129.833Z" transform="translate(-50.379 -100.211)" fill="#bcc1c5"/>
            <g id="Group_10" data-name="Group 10" transform="translate(0 4.826)">
              <path id="Path_47" data-name="Path 47" d="M75.6,141.021l.1-.048a11.327,11.327,0,0,0-3.451-3.179,2.286,2.286,0,0,1-1.232-2.167,8.753,8.753,0,0,0-1.282-4.527c0,1.541-.246,3.034-.345,4.527a1.82,1.82,0,0,1-1.38,1.878c-1.38.482-2.662,1.156-3.993,1.734a2.388,2.388,0,0,0-.444.289c-.542.433-1.232.674-1.577,1.348,1.873-.674,3.648-1.541,5.521-2.023,1.873-.674,1.922-.674,2.169,1.156.2,1.493.3,2.986.444,4.623a9.423,9.423,0,0,0,1.035-3.949c.246-2.215.246-2.167,2.12-1.06A12.843,12.843,0,0,0,75.6,141.021Z" transform="translate(-51.698 -121.049)" fill="#282221"/>
              <path id="Path_48" data-name="Path 48" d="M53.226,155.079a13.257,13.257,0,0,0-3.105,2.841c-.493.53-.937,1.06-1.43,1.541a5.178,5.178,0,0,1-6.359.771,11.677,11.677,0,0,1-1.232-.722c.542,2.119,3.5,3.612,5.866,3.082a8.64,8.64,0,0,0,4.486-3.13c1.183-2.36,2.908-3.949,5.964-3.8A4.227,4.227,0,0,0,53.226,155.079Z" transform="translate(-41.1 -133.325)" fill="#282221"/>
              <path id="Path_49" data-name="Path 49" d="M53.931,171.261a29.58,29.58,0,0,0-3.7,1.878,7.4,7.4,0,0,1-4.634,1.252,3.609,3.609,0,0,0,4.486.53c1.479-.722,2.908-1.541,4.338-2.36a1.793,1.793,0,0,1,.542-.193c.345-.578,1.134-.385,1.627-.819C55.754,171.02,54.818,171.309,53.931,171.261Z" transform="translate(-43.382 -141.849)" fill="#282221"/>
              <path id="Path_50" data-name="Path 50" d="M92.537,125.868c-1.775-2.793-2.613-6.02-3.6-9.1a30.733,30.733,0,0,0-1.873-5.009c-.937-1.686-1.775-1.926-3.451-.963a9.875,9.875,0,0,1-2.415,1.06c3.746,3.082,5.57,8.717,4.239,12.763-.345.963-.641,1.734-1.972,1.156a2.412,2.412,0,0,0-1.725.1c.394.674,1.134.867,1.627,1.3.937.867,1.922,1.637,2.81,2.5,1.775,1.637,1.824,1.637,4.289.626a.51.51,0,0,1,.493-.193.27.27,0,0,1,.3-.193,2529.133,2529.133,0,0,1,.493-.385,1.072,1.072,0,0,0,.246-.193c.049-.337.2-.578.542-.626a.611.611,0,0,1,.2-.482A2.17,2.17,0,0,0,92.537,125.868Z" transform="translate(-61.433 -110.23)" fill="#282221"/>
              <path id="Path_51" data-name="Path 51" d="M89.45,153.968c-.789.385-1.331,0-1.873-.53a12.458,12.458,0,0,0-3.8-2.938l-.1.048c.1.482.246.963.345,1.445.2.867.049,1.493-1.528,1.156,1.331.963,2.415,1.589,2.958,2.745a6.511,6.511,0,0,1,1.331,2.745,13.686,13.686,0,0,1-1.627-2.5c-.394-.241-.641-.722-1.331-.819a13.1,13.1,0,0,1-.887,5.346c2.415-.771,3.894.385,5.126,2.071.345-.289.246-.626.2-.915-.049-.385-.246-.771.394-.819.394-.048.345-.385.394-.626.345-1.926.69-3.8,1.084-5.731C90.288,153.968,90.14,153.679,89.45,153.968Z" transform="translate(-62.093 -131.106)" fill="#282221"/>
            </g>
          </g>
          <path id="Path_53" data-name="Path 53" d="M89.6,151.6c.1.144.246.241.345.1.1-.193-.148-.145-.246-.193C89.7,151.548,89.6,151.6,89.6,151.6Z" transform="translate(-45.409 -119.906)" fill="#282221"/>
          <path id="Path_54" data-name="Path 54" d="M84.948,150.4c-.049-.048-.1-.048-.148-.1.049.048.049.1.1.145Z" transform="translate(-42.975 -119.284)" fill="#131926"/>
          <g id="Group_12" data-name="Group 12" transform="translate(0 1.397)">
            <path id="Path_56" data-name="Path 56" d="M3.623,97.758a23.661,23.661,0,0,1,2.81-2.36c2.021-1.252,2.613-2.071,4.979-2.023a1.159,1.159,0,0,0,1.134-.433A13.177,13.177,0,0,1,17.918,88.8l1.627,2.215a16.736,16.736,0,0,0-2.12.963c-.542.289-.493.578-.148.963a3.224,3.224,0,0,1,.69,1.493c-.049.048-.148.1-.2.144-.493-.289-.838-.819-1.479-.963A.952.952,0,0,0,15.158,94c-.394.482.2.578.394.771,2.021,1.734,2.267,4.046,2.169,6.405a19.805,19.805,0,0,1-2.563,8.91,8.3,8.3,0,0,0-.493.915c-.049.048,0,.145,0,.241,1.134-.771,2.465-3.227,3.451-6.405a21.175,21.175,0,0,0,.789-7.272,6.36,6.36,0,0,1,.986,3.612,45.209,45.209,0,0,1-.592,6.839,23.17,23.17,0,0,0-.1,4.527,6.77,6.77,0,0,0,5.077,6.261c.394.144.739.241,1.183.385a1.332,1.332,0,0,1-1.43.722c-.592,0-.789.193-.937.771-.542,2.023-.592,2.36.1,4.72a6.384,6.384,0,0,1-4.141-2.119c-.148-.193-.246-.578-.592-.433a.888.888,0,0,0-.493.771,2.63,2.63,0,0,0,.592,1.975,9.235,9.235,0,0,0,5.126,3.564,5.911,5.911,0,0,1-6.31.626,2.3,2.3,0,0,0,.838,2.408c2.613,2.215,5.274,4.383,7.986,6.405.838.626,1.824.433,2.76.578a7.95,7.95,0,0,0,1.479-.048,5.454,5.454,0,0,1-2.07-5.683c.345.771.641,1.541,1.035,2.312A5.044,5.044,0,0,0,33,138.55a1.91,1.91,0,0,0,1.775-.337h.1c2.613-1.156,2.662-1.156,2.76-3.949a22.1,22.1,0,0,0-.1-2.553,2.848,2.848,0,0,0-1.922-2.745,8.953,8.953,0,0,0,1.824-1.06,3.489,3.489,0,0,0,.789-1.878c.444,1.2.739,2.312,1.824,2.89-2.514,2.071-1.479,4.961-2.267,7.513,2.662-.674,3.105-1.108,3.4-3.468.1-.674.2-1.3.246-1.975.049-.771.444-.915,1.134-.674a3.234,3.234,0,0,1,2.218,1.975c.2.53.394.433.789.241.394-.241.493-.433.148-.819a6.214,6.214,0,0,0-4.436-2.167,2.973,2.973,0,0,1,3.746.578c.345.289.592.722.937,1.06.246.241.246.867.789.674a1.3,1.3,0,0,0,.986-1.156,34.963,34.963,0,0,1,.838-5.539c.3-1.108.493-2.264.838-3.371.2-.674.049-.867-.641-.674A2.816,2.816,0,0,1,47,121.068c.789-.771,1.873-1.156,2.563-2.023.1-.048.148-.144.246-.193s.148-.144.246-.193a11331.1,11331.1,0,0,1,.493-.385c.1-.048.2-.144.3-.193a.984.984,0,0,0,.542-.626.638.638,0,0,0,.493-.433,1.628,1.628,0,0,0,.444-2.5,23.187,23.187,0,0,1-3.549-9.921,3.439,3.439,0,0,1,.1-1.541,28.616,28.616,0,0,0,4.732,9.921,3.457,3.457,0,0,0-.444-2.312c-1.824-4-3.8-7.995-4.436-12.425-.1.482-.148.963-.3,1.734a13.832,13.832,0,0,1-1.084-3.612c-.444.915-.887,1.686-1.824,1.782-.641.1-1.134,0-.739-.867.2-.433.3-.963.493-1.445.345-.819-.1-1.2-.838-1.493-.838-.337-.789.337-.986.771l.739-4.046a3.806,3.806,0,0,0,.542.193c-.148-.241-.3-.53-.444-.771l.148-.722L48.776,92.6a4.185,4.185,0,0,1-.739.193A6.894,6.894,0,0,1,51.98,98.24a.917.917,0,0,0,.592.674c4.831,2.745,6.9,6.983,8.232,12.137.049.241,2.908,8.669,2.908,8.669,1.655,6.943-28.592,25.865-35.1,24.707C25.566,145.977,5.25,125.21,2,118.226-2.637,108.161,1.8,101.129,3.623,97.758Zm51.561,28.559c.1-.048.148-.1.246-.144a1.083,1.083,0,0,0,.246-.144,2.015,2.015,0,0,0,1.232-2.7,30.386,30.386,0,0,1-.542-3.275,12.567,12.567,0,0,0-1.775,2.793,16.777,16.777,0,0,0-2.07,5.442A12.963,12.963,0,0,0,55.184,126.317Zm-40.125,3.275a8.656,8.656,0,0,0-.739-3.179C14.468,127.377,13.925,128.533,15.059,129.592ZM3.722,116.974A23.166,23.166,0,0,1,5.3,119.045c.345.433.641.867,1.084,1.445a49.246,49.246,0,0,0,5.472-12.714c.592.674.493,1.445.937,2.215,1.43-3.13,2.908-6.116,2.12-9.632a4.416,4.416,0,0,0-5.57-3.8A7.91,7.91,0,0,0,5.2,98.914a15.7,15.7,0,0,0-3.8,7.658C.518,110.424.912,113.94,3.722,116.974Z" transform="translate(0.048 -88.8)" fill="#282221"/>
            <path id="Path_57" data-name="Path 57" d="M64.436,106.767l-2.366-.289L60,105.9l7.1,1.108A16.575,16.575,0,0,1,64.436,106.767Z" transform="translate(-30.4 -97.664)" fill="#282221"/>
            <path id="Path_58" data-name="Path 58" d="M42.4,97.3l1.824,1.06a5.974,5.974,0,0,0-1.331-.337C42.449,97.974,42.4,97.733,42.4,97.3Z" transform="translate(-21.476 -93.206)" fill="#282221"/>
            <path id="Path_59" data-name="Path 59" d="M80.694,104.749c-.148.048-.246.048-.394.1l3.943-2.745A4.875,4.875,0,0,1,80.694,104.749Z" transform="translate(-40.694 -95.695)" fill="#282221"/>
          </g>
        </g>
        <path id="Path_60" data-name="Path 60" d="M86.933,95.394a.731.731,0,0,0,.345-.578c0-.145-.148-.289-.246-.433a1.114,1.114,0,0,1,.049-1.108,3.487,3.487,0,0,1,.838-.867c.444-.385.887-.722,1.38-1.108.394.193.542.626.739,1.011a3.426,3.426,0,0,0,1.824,1.348,8.225,8.225,0,0,1,2.021,1.108,1.75,1.75,0,0,1,.592,2.023c-.394.819-1.38,1.011-2.267,1.3-2.317.771-4.289,2.745-6.7,2.793a.841.841,0,0,1-.592-.144,1.006,1.006,0,0,1-.2-.289,3.571,3.571,0,0,1-.3-2.745C84.814,96.838,86.145,96.068,86.933,95.394Z" transform="translate(-42.693 -47.347)" fill="#333"/>
        <path id="Path_61" data-name="Path 61" d="M36.19,88.33a.772.772,0,0,1,.2-.337,31.048,31.048,0,0,1,2.07-2.36,1,1,0,0,1,.345-.289,2.9,2.9,0,0,1,.69-.144,14.867,14.867,0,0,1,3.894.482c0,.144-.2.241-.3.385a.517.517,0,0,0,.049.53,1.771,1.771,0,0,0,.493.337c1.972,1.06,3.7,2.553,5.817,3.323a29.556,29.556,0,0,0-5.373-1.108,6.707,6.707,0,0,1-1.676-.241c.148-.1.3-.241.3-.385,0-.289-.394-.433-.69-.433a5.521,5.521,0,0,0-3.549.53c-.345.241-.592.53-.937.771-.246.193-.838.53-1.084.144-.1-.144-.049-.433-.1-.578C36.288,88.764,36.14,88.571,36.19,88.33Z" transform="translate(-18.322 -44.185)" fill="#fff"/>
        <path id="Path_62" data-name="Path 62" d="M33.456,96.232a20.813,20.813,0,0,1,5.176.337,51.872,51.872,0,0,1,6.063,1.2c-2.958-.241-5.915-.53-8.922-.53a2.591,2.591,0,0,0-1.824.433.421.421,0,0,1-.246.144.184.184,0,0,1-.148-.048C32.668,97.484,32.076,96.377,33.456,96.232Z" transform="translate(-16.525 -49.871)" fill="#fff"/>
        <path id="Path_63" data-name="Path 63" d="M61.76,101.1a1.99,1.99,0,0,1,.592.915v.193a.258.258,0,0,1-.2.1,4.745,4.745,0,0,1-2.169-.144A48.854,48.854,0,0,0,52,101.2a9.957,9.957,0,0,0,1.627.385,60.151,60.151,0,0,1,9.859,2.793c-.2-.1.1-1.011.2-1.156.148-.289.739-.674.739-.963C64.373,101.822,62.2,101.244,61.76,101.1Z" transform="translate(-26.344 -52.427)" fill="#fff"/>
        <path id="Path_64" data-name="Path 64" d="M95.543,99.141a1.022,1.022,0,0,0-.246-.819,5,5,0,0,0-.641-.433c-.345-.145-.69-.337-1.035-.482A3.141,3.141,0,0,1,92.142,96.3a2.091,2.091,0,0,1-.148.963,1.984,1.984,0,0,1-.739.674c-.246.144-.493.289-.789.482a1.865,1.865,0,0,1,.739.433c.049.048.1.1.1.144a.284.284,0,0,1-.049.193,4.4,4.4,0,0,1-1.725,1.4c-.493.241-.937.482-1.43.722a3.142,3.142,0,0,1,.2,1.637c0-.048,1.43-.53,1.577-.578a15.251,15.251,0,0,0,1.528-.819,18.786,18.786,0,0,1,3.105-1.589C95,99.816,95.445,99.768,95.543,99.141Z" transform="translate(-44.649 -49.939)" fill="#fff"/>
        <path id="Path_65" data-name="Path 65" d="M51.4,44.5c-.049.1-.148.193-.2.289A1.006,1.006,0,0,0,51.4,44.5Z" transform="translate(-25.938 -23.086)" fill="#981e20"/>
        <path id="Path_66" data-name="Path 66" d="M125.5,137a2.834,2.834,0,0,1-.2.385C125.349,137.241,125.448,137.144,125.5,137Z" transform="translate(-63.512 -71.038)" fill="#f6f2dc"/>
        <g id="Group_14" data-name="Group 14" transform="translate(8.93 40.792)">
          <path id="Path_67" data-name="Path 67" d="M106.442,113.448c-.2,0-.345-.048-.542-.048A.393.393,0,0,0,106.442,113.448Z" transform="translate(-62.605 -99.595)" fill="#282221"/>
          <path id="Path_68" data-name="Path 68" d="M45,95.342A37.811,37.811,0,0,1,39.332,93.8c-2.415-.819-3.7.289-4.338,1.782-.246.578-.2,1.2-.394,1.782,2.366.144,4.683.674,7.1.819,1.824.1,3.5.337,5.324.578a32.363,32.363,0,0,1,4.338.578c1.824.433,3.8.482,5.619,1.06.148.048.345.048.3-.193-.049-.289-.1-.674-.493-.722-.246-.048-.057-.1-.205-.144a2.111,2.111,0,0,0-.731.144c-.3-.626-1.134-.53-1.479-1.06a5.47,5.47,0,0,1-1.922-1.252,27.165,27.165,0,0,1-4.387-.867A16.081,16.081,0,0,1,45,95.342Z" transform="translate(-26.451 -89.291)" fill="#ba2025"/>
          <path id="Path_69" data-name="Path 69" d="M91.36,93.571c.049-.193.049-.433.1-.626a22.093,22.093,0,0,0-2.52-.145,5.271,5.271,0,0,1-1.276,3.034c-.2.241-.2.289.148.482,1.134.626,1.676,0,2.218-.771a2.324,2.324,0,0,1,.591-.771c-.1.289-.1.626-.444.819a4.365,4.365,0,0,1-.345.674c-.592.915-.641.915.1,1.878.049,0,.2.214.246.165a29.308,29.308,0,0,0,2.915-1.8c.345-.193-.056-.481-.254-.625-.493-.385-1.035-.819-1.577-1.2C91.183,94.6,90.916,93.86,91.36,93.571Z" transform="translate(-53.29 -88.965)" fill="#ba2025"/>
          <path id="Path_70" data-name="Path 70" d="M54.69,90.195c-.739.1-1.429.144-2.169.241a.5.5,0,0,0-.345.193c-.1.193.148.241.246.337.542.289,1.134.53,1.725.819a39.471,39.471,0,0,1,3.894,1.686c.345.144.887.433,1.331.144a28.387,28.387,0,0,1-2.07-3.275A24.431,24.431,0,0,1,54.69,90.195Z" transform="translate(-35.352 -87.564)" fill="#ba2025"/>
          <path id="Path_71" data-name="Path 71" d="M93.817,94.3a.688.688,0,0,0-.049,1.156c.542.385,1.035.771,1.577,1.2.2.144.394.385.049.578a32.343,32.343,0,0,1-2.76,1.686c-.049.048-.256,0-.305,0,0,.337-.117.768-.117,1.105a2.086,2.086,0,0,0,1.408-.286A18.668,18.668,0,0,0,96.281,98.1c.789-.578,1.183-.674,1.972.1l.2-.1c0-.1-.049-.065,0-.209-.3-.722-.64-1.621-1.724-1.573-.148,0-.3-.144-.444-.241C95.394,95.5,94.606,94.926,93.817,94.3Z" transform="translate(-55.746 -89.694)" fill="#d12029"/>
          <path id="Path_72" data-name="Path 72" d="M97.808,101.764c-.739-.819-1.277-.655-2.115-.077a18.667,18.667,0,0,1-2.662,1.637,1.876,1.876,0,0,1-1.344.215,3.806,3.806,0,0,1-.332,1.059c-.049.1-.247.319-.149.415.1.144.445-.052.592-.1a15.082,15.082,0,0,0,4.19-1.734A4.041,4.041,0,0,0,97.808,101.764Z" transform="translate(-55.208 -93.276)" fill="#ba2025"/>
          <path id="Path_73" data-name="Path 73" d="M39.03,88.134a24.642,24.642,0,0,0,2.662.144,1.343,1.343,0,0,0-1.084-1.3c-.542-.144-1.084-.385-1.627-.578m.049,0a8.332,8.332,0,0,0-2.675-.345,4.165,4.165,0,0,0-2.3,1.035.608.608,0,0,1-.739.155,15.7,15.7,0,0,0-5.962-.834,2.188,2.188,0,0,0-.834.371A21.577,21.577,0,0,0,21.4,92.39c-.3.482-.161.753.431.8,1.972.1,4.157.277,6.129.374.2-.578.133-1.153.33-1.731.641-1.493,1.8-2.613,4.263-1.746a43.986,43.986,0,0,0,5.643,1.466,16.08,16.08,0,0,0,3.056.963,24.206,24.206,0,0,0,4.141.819c0-.867-.937-1.445-1.577-1.926a1.825,1.825,0,0,1-1.429-.048c-1.282-.626-2.563-1.156-3.894-1.686-.148-.048-1.035-.5-1.627-.793-.148-.048-.384-.178-.285-.371.049-.1.371-.106.519-.155.739-.1,1.295-.031,2.034-.079m.1-.482-.1.1C39.178,87.845,39.227,87.845,39.227,87.8Z" transform="translate(-19.691 -85.502)" fill="#d12029"/>
          <path id="Path_74" data-name="Path 74" d="M90.3,92.1a14.608,14.608,0,0,1,2.514,0h.2V91.74a3.513,3.513,0,0,0-2.171-.673C90.494,91.067,90.448,91.81,90.3,92.1Z" transform="translate(-54.694 -88.119)" fill="#d12029"/>
          <path id="Path_75" data-name="Path 75" d="M85.412,101.491h0a2.028,2.028,0,0,0-1.676-.819c-.69-.1-1.134.048-.937.867.049.144-.049.337-.049.482-.345-.241-.592-.241-.641.241s-.739-.385-.789.1c-.345-.241-.1.867-.493.626a1.953,1.953,0,0,0,.69,1.975.765.765,0,0,0,.394.289,2.059,2.059,0,0,0,1.183.289,1.615,1.615,0,0,0,1.232-.337C85.708,104.91,86.546,102.5,85.412,101.491Z" transform="translate(-49.856 -92.984)" fill="#bcc1c5"/>
          <path id="Path_77" data-name="Path 77" d="M104.249,101.7a.92.92,0,0,1-.049.337C104.4,101.893,104.348,101.8,104.249,101.7Z" transform="translate(-61.743 -93.53)" fill="#a91f25"/>
          <path id="Path_78" data-name="Path 78" d="M95.549,92.4c0,.1-.049.193-.049.289C95.6,92.641,95.6,92.5,95.549,92.4Z" transform="translate(-57.331 -88.709)" fill="#a91f25"/>
          <path id="Path_79" data-name="Path 79" d="M99.4,94.7v0Z" transform="translate(-59.309 -89.901)" fill="#8a613c"/>
          <path id="Path_80" data-name="Path 80" d="M84.3,91.5h0Z" transform="translate(-51.652 -88.243)" fill="#c9a465"/>
          <path id="Path_81" data-name="Path 81" d="M19.168,91.124c.789-1.445,2.07-2.553,2.859-4a1.049,1.049,0,0,1,.148-.241,6.724,6.724,0,0,1,1.38-1.011c0,.048.049.048.049.1.148-.1.3-.241.444-.337A8.05,8.05,0,0,1,27.3,84.96c.493.048.937.048,1.43.1a10.85,10.85,0,0,1,3.2.915,8.268,8.268,0,0,1,6.556-.963c0,.1.1.145.2.193.3.048.542.289.887.241V85.3a6.13,6.13,0,0,1,.641.241,10.155,10.155,0,0,0,1.38,4.046,11.772,11.772,0,0,0,.986,1.2,11.065,11.065,0,0,0,5.324,3.323,2.171,2.171,0,0,0,2.76-1.637,4.629,4.629,0,0,0,2.317-3.227,9.382,9.382,0,0,1,.838-2.5l.641-.144c0,.1-.049.193,0,.289.148.433.887.241,1.331.385.986.241,1.38.626,1.43,1.589.049.578.838.771.838.771a3.429,3.429,0,0,1,1.134.722c.69.867,1.775,1.156,2.12,2.167a1.511,1.511,0,0,1-.3,1.637c-.592.578-.2.867.1,1.252a6.963,6.963,0,0,1,1.232,2.745c.1.433-.1.578-.493.482a6.324,6.324,0,0,0-1.479-3.419c-.148-.241-.345-.144-.542-.048a18.846,18.846,0,0,1-5.373,2.312c-.937.048-1.824.144-2.76.193a2.5,2.5,0,0,1-1.331-.193,13.87,13.87,0,0,0-4.141-1.108c-.789-.1-16.957-2.408-19.767-2.6-1.38-.1-2.76-.144-4.19-.241-1.232-.1-2.465-.193-3.7-.241-.542-.048-.641-.241-.345-.674A10.379,10.379,0,0,0,19.168,91.124Zm35.047,5.25c.1.144.3.048.444,0a15.08,15.08,0,0,0,4.19-1.734A4,4,0,0,0,60.525,93.2v-.048c.148-.1.1-.193.049-.337-.3-.722-.493-1.541-1.577-1.493-.148,0-.3-.144-.444-.241-.789-.578-1.627-1.2-2.415-1.782.049-.193.049-.433.1-.626h0c.148-.048.148-.193.049-.289a3.257,3.257,0,0,0-2.12-.53c-.394,0-.345.53-.493.819a4.87,4.87,0,0,1-1.282,2.89c-.2.241-.2.289.148.482,1.134.626,1.676,0,2.218-.771.049,0,.1.048.2.048a4.365,4.365,0,0,1-.345.674c-.592.915-.641.915.1,1.878,0,.337-.049.722-.049,1.06a3.517,3.517,0,0,1-.345,1.011C54.265,96.133,54.117,96.229,54.216,96.374Zm-4.141.193a.659.659,0,0,0,.345.289A1.46,1.46,0,0,0,51.5,97.1a1.445,1.445,0,0,0,1.134-.337c1.282-.289,2.021-2.5.986-3.419a1.8,1.8,0,0,0-1.528-.722c-.592-.1-1.282.048-1.084.771.049.144-.246.578-.69.626-.345.048-.592.53-.887.722A1.7,1.7,0,0,0,50.075,96.566ZM20.252,92.425c1.972.1,3.993.289,5.964.385,2.366.144,4.781.433,7.2.578,1.824.1,3.549.337,5.373.53a29.947,29.947,0,0,1,4.141.819c1.824.433,3.8.482,5.619,1.06.148.048.345.048.3-.193-.049-.289-.1-.674-.493-.722-.246-.048-.444-.012-.444.133a4.826,4.826,0,0,1-1.972-1.192c-2.563-.433-5.422-5.153-5.817-6.405a1.344,1.344,0,0,0-1.084-1.3c-.542-.144-1.084-.385-1.627-.578a8.5,8.5,0,0,0-2.711-.1,3.907,3.907,0,0,0-2.218,1.011.692.692,0,0,1-.789.193,15.988,15.988,0,0,0-6.014-.867,1.668,1.668,0,0,0-.739.241,21.677,21.677,0,0,0-5.126,5.635C19.562,92.232,19.661,92.376,20.252,92.425Z" transform="translate(-18.068 -84.736)" fill="#282221"/>
        </g>
        <path id="Path_82" data-name="Path 82" d="M97.987,6.209l-.2.193c-3.8,1.83-6.852,4.334-8.528,8.187a2.5,2.5,0,0,1-1.873.578c-.246-.1-.2-.289-.148-.482A18.981,18.981,0,0,0,86.6,5.342c1.232,1.589,1.429,3.323,1.922,4.961a15.934,15.934,0,0,0-.3-4.334c-.246-.433-.2-.722.394-.819a27.785,27.785,0,0,1,9.366.144c.3.048.739,0,.789.385C98.775,6.064,98.332,6.112,97.987,6.209Z" transform="translate(-43.888 -2.518)" fill="#d12029"/>
        <path id="Path_83" data-name="Path 83" d="M43.222,14.7c-.049.1-.1.144-.148.241-.3.626-.542,1.2-.838,1.83a5.535,5.535,0,0,1,.394-2.215C43.764,11.181,45.49,8.2,49.088,7.04a25.734,25.734,0,0,1,9.218-.674c.493.048.887.771,1.035,1.108a23.041,23.041,0,0,1,.986,7.8A.954.954,0,0,1,59,15.8c-3.352-1.637-6.556-1.011-9.711.578-.2.1-.345.289-.641.1.444-.674,1.331-.963,1.922-1.734a10.41,10.41,0,0,0-1.282.385c-2.021.722-2.76,2.456-3.3,4.286a43.768,43.768,0,0,0-1.134,6.165,22.124,22.124,0,0,1-2.613,8.236,2.672,2.672,0,0,1-1.183,1.252,20.946,20.946,0,0,0,1.873-5.346c-.049-.048-.1-.048-.148-.1a19.879,19.879,0,0,1-3.993,6.02,10.2,10.2,0,0,1-4.239,2.89.667.667,0,0,0-.148.193l-.1-.1c.1-.048.148-.048.246-.1a1.142,1.142,0,0,1,.592-.578A15.2,15.2,0,0,0,41.1,28.375c.444-2.167.592-4.383.887-6.6a18.152,18.152,0,0,1,2.218-7.224,17.217,17.217,0,0,1,3.3-3.757,1.43,1.43,0,0,0-1.035.385A15.95,15.95,0,0,0,43.222,14.7Z" transform="translate(-17.369 -3.253)" fill="#d12029"/>
        <path id="Path_84" data-name="Path 84" d="M63.4,3.41a26.118,26.118,0,0,1,9.859-.337,1.031,1.031,0,0,0,.542,0,26.361,26.361,0,0,1,7.246-1.06,5.9,5.9,0,0,0,.789-.193C75.329.327,69.217.231,63.4,3.41Z" transform="translate(-32.124 -0.442)" fill="#fff"/>
        <path id="Path_85" data-name="Path 85" d="M66.7,40.46a12.415,12.415,0,0,1-1.824,5.25c-.3.433-.345.674,0,1.011.739.674,1.183,1.686,2.366,1.734.69-3.612,1.331-7.224,2.317-10.788a4.3,4.3,0,0,1,.493-1.589c.444-.626.986.337,1.577.1-1.183-1.108-2.711-1.782-4.042-2.89.3,0,.394-.048.444,0a12.747,12.747,0,0,1,1.183.53c1.183.53,1.183.53,1.43-.626.049-.289.1-.53.148-.819.1-.53.394-.626.887-.385.444.193.838.626,1.528.578a16.384,16.384,0,0,0-3.056-2.215c.937.144,1.084-.241,1.134-.771.148-1.445,1.241-3.8,1.783-3.894-1.183-1.4-1.582-1.457-3.209-.927-6.408,2.119-11.341,6.218-15.531,11.275a3.574,3.574,0,0,0-.937,2.7,9.379,9.379,0,0,1-.2,3.082c.739-.289,1.38-.626,2.07-.289.1.048.148.1.246.1h.049a2.205,2.205,0,0,1,1.38.915c.789,1.011,1.479,2.167,3.105,1.4.049-.048.148.048.345.1-1.232.722-2.613,1.108-3.549,2.119h.739c.493.048,1.035-.626,1.43-.1a4.2,4.2,0,0,1,.394,1.589,1.9,1.9,0,0,1,0,.53c-.246,1.493-.493,2.986-.789,4.479-.049.578-.148,1.156-.2,1.734-.049.241.049.626-.3.674s-.739.144-1.035-.193A3.671,3.671,0,0,1,56,52.693a1.988,1.988,0,0,1-.148-2.36,2.455,2.455,0,0,0,.2-2.119,9.955,9.955,0,0,0-1.331-2.456,3.032,3.032,0,0,0-1.43,3.516,17.774,17.774,0,0,0,3.352,7.85,8.954,8.954,0,0,0,1.577,1.445c.937.674.986.626,1.232-.433,1.084-4.046,2.12-8.043,3.2-12.088a6.481,6.481,0,0,0,.542-2.408c-.2-.771-1.38-.819-2.07-1.252a14.319,14.319,0,0,1-3.155-2.5c-.493-.241-.3-.53-.148-.867.394-.867.789-1.686,1.183-2.5.246-.53.493-.578.986-.289,1.676,1.011,3.4,1.975,5.126,2.986.69.385,1.331.963,1.972-.193A2.759,2.759,0,0,1,66.7,40.46Z" transform="translate(-26.944 -12.737)" fill="#fff"/>
        <path id="Path_86" data-name="Path 86" d="M87.469,26.33c-.542.1-.887-.433-1.429-.53a15.917,15.917,0,0,1-.2,4.334c-.049.53-.246.915-1.134.771a22.343,22.343,0,0,1,3.056,2.215,2.548,2.548,0,0,1-1.528-.578c-.493-.241-.789-.1-.887.385-.049.289-.1.53-.148.819-.246,1.156-.246,1.156-1.43.626a12.746,12.746,0,0,0-1.183-.53c-.1-.048-.2,0-.444,0,1.331,1.108,2.859,1.734,4.042,2.89-.592.241-1.134-.674-1.577-.1a5.465,5.465,0,0,0-.493,1.589c-.986,3.564-1.676,7.176-2.317,10.788,1.035-.626,1.922-1.252,1.577-2.745a8.851,8.851,0,0,1,.2-3.757c.1-.433.246-.722.838-.771a26.116,26.116,0,0,0,4.732-.722c.345-.1.444,0,.493.289.345.674,0,1.4.2,2.023.493-1.637.493-3.323.887-4.961a7.192,7.192,0,0,1,.789-2.167,2.758,2.758,0,0,0,.148-2.071,17.679,17.679,0,0,0-2.76-6.309C88.5,27.341,87.962,26.86,87.469,26.33Z" transform="translate(-41.454 -13.393)" fill="#bcc1c5"/>
        <path id="Path_87" data-name="Path 87" d="M86.2,80.43a6.363,6.363,0,0,0,2.514-4.816c0-2.119.838-4.046,1.331-6.068.345-1.349.986-2.649,1.232-4.045a24.27,24.27,0,0,1-3.105,1.2c-.345.048-.345.337-.345.578-.394,2.36-.789,4.672-1.183,7.031a16.827,16.827,0,0,0-.345,2.7C86.3,78.118,85.705,79.274,86.2,80.43Z" transform="translate(-43.585 -33.973)" fill="#bcc1c5"/>
        <path id="Path_88" data-name="Path 88" d="M71.884,76.167c-.148.289-.2.578.148.771,1.577,1.011,3.2,1.637,5.077.915.345-.144.739-.144.641-.722-.049-.482.592-.578.789-.963-.2-.241-.493-.1-.69-.048a9.377,9.377,0,0,1-4.338-.482c-.394-.144-.789-.289-1.134.1.148.482.739.482,1.084.867C72.821,76.649,72.426,76.264,71.884,76.167Z" transform="translate(-36.369 -39.15)" fill="#f3f3f3"/>
        <path id="Path_89" data-name="Path 89" d="M71.3,52.745A2.748,2.748,0,0,0,71.7,51.2c-.641,1.156-1.282.578-1.972.193-1.676-1.011-3.4-1.975-5.126-2.986-.493-.289-.789-.241-.986.289-.345.867-.789,1.686-1.183,2.5-.148.289-.345.626.148.867.394-.915.838-1.782,1.232-2.7.246-.53.444-.433.838-.1a20.307,20.307,0,0,0,5.126,3.082A3.116,3.116,0,0,0,71.3,52.745Z" transform="translate(-31.547 -25.023)" fill="#bcc1c5"/>
        <path id="Path_90" data-name="Path 90" d="M72.221,81.464c-.049-.1-.1-.144-.148-.241-.1-.048-.3-.1-.148-.241a.188.188,0,0,1,.3.048,5.672,5.672,0,0,0,5.619-.482c.246-.144.542-.337.345-.674-.2-.289-.444,0-.641.1a5.478,5.478,0,0,1-5.176-.1c-.394-.193-.789-.433-1.183-.674a2.343,2.343,0,0,0-.3,1.252.536.536,0,0,1,.345.433C71.285,81.656,71.679,81.656,72.221,81.464Z" transform="translate(-35.917 -41.075)" fill="#bcc1c5"/>
        <path id="Path_91" data-name="Path 91" d="M71.921,82.915c-.542.193-.937.193-1.035-.482A.615.615,0,0,0,70.54,82a2.156,2.156,0,0,0,1.38,3.179c.394.145.641.145.69-.337a.364.364,0,0,1,.1-.241C73.153,83.734,72.906,83.156,71.921,82.915Z" transform="translate(-35.617 -42.526)" fill="#bcc1c5"/>
        <path id="Path_92" data-name="Path 92" d="M69.1,54.5c.1.867-.2,1.734.3,2.119a4.643,4.643,0,0,0,3.253.771C71.515,56.475,70.382,55.56,69.1,54.5Z" transform="translate(-35.015 -28.27)" fill="#f3f3f3"/>
        <path id="Path_93" data-name="Path 93" d="M86.6,60.56c2.12,1.156,2.958.915,3.894-1.06C89.163,59.741,87.98,60.222,86.6,60.56Z" transform="translate(-43.888 -30.862)" fill="#f3f3f3"/>
        <path id="Path_94" data-name="Path 94" d="M53.762,61.3c-.592-.433-1.084-.048-1.528.385-.394.048-.937-.53-1.232.1s.148,1.011.592,1.4c.246.193.542.385.838.578h.049c-.049-.482-.3-.867-.2-1.348l.2.193c.3.241.246,1.011.887.771C53.811,63.077,54.058,61.536,53.762,61.3Z" transform="translate(-25.789 -31.695)" fill="#bcc1c5"/>
        <path id="Path_95" data-name="Path 95" d="M91.806,60.223c-.246-.674.1-1.4-.2-2.023-.246,2.5-.2,3.179-3.549,4.094a.98.98,0,0,0-.838,1.011l-1.035,7.224a33.768,33.768,0,0,0-.493,5.876c0,.337,0,.337.394.241-.493-1.156.1-2.264.1-3.419a25.222,25.222,0,0,1,.345-2.7c.394-2.36.789-4.672,1.183-7.031.049-.241.049-.482.345-.578a24.273,24.273,0,0,0,3.105-1.2h0c.049-.048.1-.145.148-.193l.444-.722c.049-.1.049-.144.1-.241A.92.92,0,0,1,91.806,60.223Z" transform="translate(-43.425 -30.188)" fill="#fff"/>
        <path id="Path_96" data-name="Path 96" d="M83.545,84.1c-1.134.289-1.183,1.011-.838,1.975a3.582,3.582,0,0,0,.838-1.975Z" transform="translate(-41.819 -43.615)" fill="#c9a465"/>
        <path id="Path_97" data-name="Path 97" d="M72,76.433c.493.1.937.482,1.577.385-.3-.337-.887-.385-1.084-.819A.449.449,0,0,0,72,76.433Z" transform="translate(-36.485 -39.416)" fill="#bcc1c5"/>
        <path id="Path_98" data-name="Path 98" d="M54,66.5c0,.145-.049.385.2.433a.048.048,0,0,0,.049-.048c.049-.193-.1-.289-.246-.385Z" transform="translate(-27.354 -34.491)" fill="#8a613c"/>
        <path id="Path_99" data-name="Path 99" d="M57.746,59.8c-.1-.048-.148-.1-.246-.1C57.6,59.7,57.648,59.748,57.746,59.8Z" transform="translate(-29.133 -30.966)" fill="#8a613c"/>
        <path id="Path_100" data-name="Path 100" d="M84.6,84.048c.049,0,.049,0,.1-.048-.049.048-.049.048-.1.048Z" transform="translate(-42.874 -43.563)" fill="#c9a465"/>
        <path id="Path_101" data-name="Path 101" d="M60.538,64.179c-.394-.53-.937.144-1.43.1h-.739a.048.048,0,0,1-.049.048H58.27l.1-.1c.986-1.011,2.317-1.348,3.549-2.119-.2-.048-.3-.1-.345-.1-1.627.722-2.317-.385-3.105-1.4a2.139,2.139,0,0,0-1.38-.915c.739,1.541-.2,2.793-.887,4.046A8.559,8.559,0,0,1,57.531,66.2a2.637,2.637,0,0,1-.2,2.119,1.916,1.916,0,0,0,.148,2.36,4.338,4.338,0,0,0,1.084,2.167c.3.337.69.241,1.035.193.394-.048.3-.385.3-.674.049-.578.148-1.156.2-1.734.246-1.493.493-2.986.789-4.479a1.9,1.9,0,0,0,0-.53A3.253,3.253,0,0,0,60.538,64.179Z" transform="translate(-28.473 -30.966)" fill="#bcc1c5"/>
        <path id="Path_102" data-name="Path 102" d="M60.4,69.2l-.1.1h.049c.049,0,.049-.048.049-.1Z" transform="translate(-30.552 -35.891)" fill="#d2aa68"/>
        <path id="Path_103" data-name="Path 103" d="M73.268,82.992c-.1-.1-.246-.145-.3-.048-.1.144.1.193.148.241A.667.667,0,0,1,73.268,82.992Z" transform="translate(-36.964 -42.988)" fill="#282221"/>
        <path id="Path_104" data-name="Path 104" d="M74.654,38.639c-.246,1.445-.148,2.938-.838,4.286a13.438,13.438,0,0,0-1.035,2.649,1.033,1.033,0,0,0,0,.771h0l-.394.915c-.148.048-.246.193-.3.53v.1c-.148.578-.591,1.3-.493,1.782L71.2,51.449c-.3.193-.2.771-.246,1.156a23.32,23.32,0,0,1-.937,4.334c-.148.385-1.775,3.034-2.12,3.516-3.352,5.153-9.514.53-9.514.53-.345-.385-.641-.771-.937-1.108-.2-1.2-1.183-1.589-2.12-2.071a17.051,17.051,0,0,1-3.155-4.286,1.74,1.74,0,0,0-.69-1.156l-.444-1.637h.1c-.1-.482-.2-.915-.3-1.445l.049-4.334c.444-.144.246-.385,0-.722a1.484,1.484,0,0,0-.394-.385c-1.38-1.108-1.479-1.686-.592-3.13a4.33,4.33,0,0,0,.3-.53.376.376,0,0,0-.246.048l.049-.819c.641-.193.838-.53.739-1.252a5.5,5.5,0,0,1,1.972-4.768,1.781,1.781,0,0,0,.345-.771,7.879,7.879,0,0,0,2.317-2.071,13.058,13.058,0,0,0,2.465-2.456,1.253,1.253,0,0,0,.69-.289,34.581,34.581,0,0,1,7.64-4.238c.148-.048.493-.048.394-.385a3.97,3.97,0,0,0,1.479-.241c.592-.193,1.183-.53,1.824-.193A6.258,6.258,0,0,1,71.8,24.19a19.508,19.508,0,0,1,3.993,7.754,4.165,4.165,0,0,1-.1,2.986A12.652,12.652,0,0,0,74.654,38.639ZM61.3,54.435c.394.144.641.144.69-.337a.364.364,0,0,1,.1-.241c.493-.915.246-1.493-.789-1.734-.049-.1-.1-.144-.148-.241l.148-.144a5.672,5.672,0,0,0,5.619-.482c.246-.144.542-.337.345-.674-.2-.289-.444,0-.641.1a5.478,5.478,0,0,1-5.176-.1c-.394-.193-.789-.433-1.183-.674a2.343,2.343,0,0,0-.3,1.252C59.275,52.8,59.768,53.809,61.3,54.435ZM59.324,40.083a4.643,4.643,0,0,0,3.253.771c-1.084-.915-2.218-1.83-3.5-2.89C59.176,38.831,58.831,39.7,59.324,40.083Zm2.81,8.139c-.394-.144-.789-.289-1.134.1-.345,0-.493.144-.493.482-.148.289-.2.578.148.771,1.577,1.011,3.2,1.637,5.077.915.345-.144.739-.144.641-.722-.049-.482.592-.578.789-.963-.2-.241-.493-.1-.69-.048A10.263,10.263,0,0,1,62.134,48.223ZM50.2,41.769c-.3.626.148,1.011.592,1.4.246.193.542.385.838.578,0,.144-.049.385.2.433a.048.048,0,0,0,.049-.048c.049-.193-.1-.337-.246-.433-.049-.482-.3-.867-.2-1.349l.2.193c.3.241.246,1.011.887.771.444-.193.739-1.734.394-1.975-.592-.433-1.084-.048-1.528.385C51.043,41.721,50.55,41.143,50.2,41.769ZM75.2,32.57a17.678,17.678,0,0,0-2.76-6.309,14.451,14.451,0,0,0-1.43-1.589c-1.183-1.4-1.38-1.445-3.007-.915-6.408,2.119-11.387,6.116-15.577,11.173a3.574,3.574,0,0,0-.937,2.7,9.379,9.379,0,0,1-.2,3.082c.739-.289,1.38-.626,2.07-.289.1.048.148.1.246.1h.049c.739,1.541-.2,2.793-.887,4.046a3.032,3.032,0,0,0-1.43,3.516,17.774,17.774,0,0,0,3.352,7.85,8.954,8.954,0,0,0,1.577,1.445c.937.674.986.626,1.232-.433,1.084-4.046,2.12-8.043,3.2-12.088a6.48,6.48,0,0,0,.542-2.408c-.2-.771-1.38-.819-2.07-1.252a14.32,14.32,0,0,1-3.155-2.5c.394-.915.838-1.782,1.232-2.7.246-.53.444-.433.838-.1a20.307,20.307,0,0,0,5.126,3.082,2.843,2.843,0,0,0,1.528.337,12.415,12.415,0,0,1-1.824,5.25c-.3.433-.345.674,0,1.011.739.674,1.183,1.686,2.366,1.734,1.035-.626,1.922-1.252,1.577-2.745a8.851,8.851,0,0,1,.2-3.757c.1-.433.246-.722.838-.771a26.116,26.116,0,0,0,4.732-.722c.345-.1.444,0,.493.289-.246,2.5-.2,3.179-3.549,4.094a.98.98,0,0,0-.838,1.011L67.7,51.931a33.765,33.765,0,0,0-.493,5.876c0,.337,0,.337.394.241a6.363,6.363,0,0,0,2.514-4.816c0-2.119.838-4.046,1.331-6.068.345-1.348.986-2.649,1.232-4.046h0c.049-.048.1-.144.148-.193l.444-.722a.174.174,0,0,0,.1-.241v-.289c.493-1.637.493-3.323.887-4.961a7.191,7.191,0,0,1,.789-2.167A2.487,2.487,0,0,0,75.2,32.57ZM67.7,41.432c2.12,1.156,2.958.915,3.894-1.06C70.267,40.613,69.084,41.095,67.7,41.432Z" transform="translate(-24.992 -11.735)" fill="#282221"/>
      </g>
      <path id="Path_20" data-name="Path 20" d="M2,144.4s12.866,21.961,28.294,28.848c0,0,8.676.193,29.231-16.423A75.532,75.532,0,0,1,29.013,178.4C29.062,178.4,9.542,167.662,2,144.4Z" transform="translate(-0.99 -74.874)" fill="#d12029"/>
    </g>
    <path id="Path_105" data-name="Path 105" d="M141,30.856s53.187-15.8,61.173-14.785c8.331,1.06,32.189,9.825,32.189,9.825s-25.14-12.763-31.3-12.763C203.011,13.133,200.546,11.062,141,30.856Z" transform="translate(623.659 0.276)" fill="#d12029"/>
  </g>
</svg>
