<svg xmlns="http://www.w3.org/2000/svg" xmlns:xlink="http://www.w3.org/1999/xlink" width="66.376" height="74.981" viewBox="0 0 66.376 74.981">
  <defs>
    <linearGradient id="linear-gradient" x1="0.217" y1="1.156" x2="0.698" y2="0.086" gradientUnits="objectBoundingBox">
      <stop offset="0" stop-color="#fff1a8"/>
      <stop offset="1" stop-color="#ffdf40"/>
    </linearGradient>
    <filter id="Path_20396" x="35.008" y="0" width="21.854" height="22.478" filterUnits="userSpaceOnUse">
      <feOffset dy="0.5" input="SourceAlpha"/>
      <feGaussianBlur result="blur"/>
      <feFlood flood-opacity="0.161"/>
      <feComposite operator="in" in2="blur"/>
      <feComposite in="SourceGraphic"/>
    </filter>
  </defs>
  <g id="on" transform="translate(-1849.327 -332.645)">
    <path id="Path_20395" data-name="Path 20395" d="M5093.6,2385.272s13.492,30.447,10.73,38.611c-2.991,5.525-17.524,8.841-38.633,13.435Z" transform="translate(-3192 -2033)" fill="#222" opacity="0.15"/>
    <path id="Path_20384" data-name="Path 20384" d="M473.831,344.815S515.5,333.506,518.617,325.8c.577-13.9-3.987-30.726-7.072-41.047-1.7-5.7-2.723-9.522-2.723-9.522l-49.934,14.932Z" transform="translate(1390.44 62.812)" fill="url(#linear-gradient)"/>
    <path id="Path_24142" data-name="Path 24142" d="M-8.976,0h-1.9l-3.707-6.081V0h-1.9V-9.242h1.9l3.713,6.094V-9.242h1.9Zm1.257-3.5a4.073,4.073,0,0,1,.394-1.822A2.881,2.881,0,0,1-6.192-6.557,3.306,3.306,0,0,1-4.475-7a3.128,3.128,0,0,1,2.269.851,3.414,3.414,0,0,1,.981,2.311l.013.47A3.59,3.59,0,0,1-2.095-.828,3.067,3.067,0,0,1-4.462.127,3.082,3.082,0,0,1-6.833-.825a3.653,3.653,0,0,1-.885-2.59Zm1.834.133a2.56,2.56,0,0,0,.368,1.495,1.215,1.215,0,0,0,1.054.517,1.218,1.218,0,0,0,1.041-.511A2.8,2.8,0,0,0-3.047-3.5a2.535,2.535,0,0,0-.375-1.485A1.218,1.218,0,0,0-4.475-5.51a1.2,1.2,0,0,0-1.041.524A2.849,2.849,0,0,0-5.884-3.364Zm8-5.192v1.688H3.288v1.346H2.114v3.428a.818.818,0,0,0,.146.546.733.733,0,0,0,.559.165,2.925,2.925,0,0,0,.54-.044v1.39A3.777,3.777,0,0,1,2.247.127,1.752,1.752,0,0,1,.279-1.822v-3.7h-1V-6.868h1V-8.557ZM7.471.127A3.372,3.372,0,0,1,5.011-.8a3.294,3.294,0,0,1-.949-2.469v-.178a4.149,4.149,0,0,1,.4-1.85A2.935,2.935,0,0,1,5.6-6.554,3.18,3.18,0,0,1,7.268-7a2.85,2.85,0,0,1,2.219.889,3.611,3.611,0,0,1,.809,2.52v.749H5.922a1.7,1.7,0,0,0,.536,1.079,1.621,1.621,0,0,0,1.133.406A1.98,1.98,0,0,0,9.249-2.12l.9,1.009A2.754,2.754,0,0,1,9.033-.2,3.665,3.665,0,0,1,7.471.127ZM7.262-5.51a1.149,1.149,0,0,0-.885.368,1.9,1.9,0,0,0-.435,1.054H8.493v-.146a1.356,1.356,0,0,0-.33-.943A1.186,1.186,0,0,0,7.262-5.51ZM15.057-1.9a.591.591,0,0,0-.333-.53,3.785,3.785,0,0,0-1.07-.346Q11.2-3.288,11.2-4.856a1.887,1.887,0,0,1,.759-1.527A3.06,3.06,0,0,1,13.946-7a3.293,3.293,0,0,1,2.092.616,1.94,1.94,0,0,1,.784,1.6H14.987a.888.888,0,0,0-.254-.651,1.075,1.075,0,0,0-.793-.257,1.1,1.1,0,0,0-.717.209.661.661,0,0,0-.254.533.565.565,0,0,0,.289.492,2.971,2.971,0,0,0,.974.324,7.958,7.958,0,0,1,1.155.308A1.9,1.9,0,0,1,16.84-1.974a1.792,1.792,0,0,1-.806,1.52,3.478,3.478,0,0,1-2.082.581,3.632,3.632,0,0,1-1.533-.308,2.572,2.572,0,0,1-1.051-.844,1.962,1.962,0,0,1-.381-1.158h1.739a.958.958,0,0,0,.362.749,1.435,1.435,0,0,0,.9.26,1.328,1.328,0,0,0,.8-.2A.622.622,0,0,0,15.057-1.9Zm-37.029,14.41a2.119,2.119,0,0,1,.359-1.187A4.98,4.98,0,0,1-20.3,10.112a6.467,6.467,0,0,1-.647-1.038,2.3,2.3,0,0,1-.235-1.012A2.363,2.363,0,0,1-20.5,6.307a2.5,2.5,0,0,1,1.838-.676,2.4,2.4,0,0,1,1.7.616A2.009,2.009,0,0,1-16.3,7.783a2.423,2.423,0,0,1-1.117,1.949l-.711.514,1.593,1.854a3.532,3.532,0,0,0,.375-1.625H-14.6a4.768,4.768,0,0,1-.832,2.92L-14.044,15h-2.082l-.476-.546a4.174,4.174,0,0,1-2.349.673,3.22,3.22,0,0,1-2.2-.72A2.394,2.394,0,0,1-21.972,12.512Zm3.11,1.143a2.325,2.325,0,0,0,1.25-.368l-1.822-2.107-.133.1a1.454,1.454,0,0,0-.565,1.136,1.2,1.2,0,0,0,.352.9A1.253,1.253,0,0,0-18.862,13.654Zm-.673-5.618a2.166,2.166,0,0,0,.559,1.2l.489-.324a1.659,1.659,0,0,0,.517-.47,1.009,1.009,0,0,0,.143-.546.756.756,0,0,0-.235-.552.816.816,0,0,0-.6-.235.825.825,0,0,0-.632.254A.944.944,0,0,0-19.535,8.037Zm15.266,2.958H-7.925V13.47h4.291V15h-6.2V5.758h6.183V7.3H-7.925V9.5h3.656Zm4.247-.812,1.155-2.05H3.094L1.139,11.5,3.177,15H1.209L-.016,12.842-1.235,15H-3.209l2.038-3.5L-3.12,8.132h1.968Zm6.2-3.739V8.132H7.347V9.478H6.173v3.428a.818.818,0,0,0,.146.546.733.733,0,0,0,.559.165,2.926,2.926,0,0,0,.54-.044v1.39a3.777,3.777,0,0,1-1.111.165,1.752,1.752,0,0,1-1.968-1.949v-3.7h-1V8.132h1V6.443Zm6.056,3.409a4.984,4.984,0,0,0-.66-.051,1.344,1.344,0,0,0-1.365.7V15H8.369V8.132H10.1l.051.819A1.7,1.7,0,0,1,11.683,8a1.922,1.922,0,0,1,.571.083ZM16.9,15a2.037,2.037,0,0,1-.184-.616,2.22,2.22,0,0,1-1.733.743,2.439,2.439,0,0,1-1.673-.584,1.878,1.878,0,0,1-.663-1.473,1.941,1.941,0,0,1,.809-1.676A3.994,3.994,0,0,1,15.8,10.8h.844v-.394a1.132,1.132,0,0,0-.244-.762.961.961,0,0,0-.771-.286,1.093,1.093,0,0,0-.727.222.755.755,0,0,0-.263.609H12.8a1.843,1.843,0,0,1,.368-1.1,2.434,2.434,0,0,1,1.041-.8A3.794,3.794,0,0,1,15.72,8a3,3,0,0,1,2.015.638,2.232,2.232,0,0,1,.746,1.793v2.977a3.284,3.284,0,0,0,.273,1.479V15Zm-1.517-1.276a1.58,1.58,0,0,0,.749-.181,1.188,1.188,0,0,0,.508-.486V11.877h-.686q-1.377,0-1.466.952l-.006.108a.734.734,0,0,0,.241.565A.937.937,0,0,0,15.384,13.724Z" transform="translate(1882 369)" fill="#222"/>
    <g id="Group_8379" data-name="Group 8379">
      <g transform="matrix(1, 0, 0, 1, 1849.33, 332.65)" filter="url(#Path_20396)">
        <path id="Path_20396-2" data-name="Path 20396" d="M-35.432-2.5A3,3,0,0,1-33.988-5c1.554-1.051,3.242.039,3.918.763l.019.02,5.682,8.99-.706-.03-5.437-8.6a4.034,4.034,0,0,0-1.025-.734,2.01,2.01,0,0,0-2.127.073,2.458,2.458,0,0,0-.988,3.091c.3.486,7.081,11.3,7.97,12.454a2.188,2.188,0,0,0,3.192.468c.948-.706.2-2.525.12-2.717l-4.212-6.73.493-.308,1.876,3-.028,0,.028,0,2.347,3.75.018.034c.045.1,1.076,2.417-.293,3.437a2.768,2.768,0,0,1-4-.578c-.923-1.192-7.725-12.054-8.013-12.517l-.016-.029A3.258,3.258,0,0,1-35.432-2.5Z" transform="matrix(0.72, -0.69, 0.69, 0.72, 64.27, -11.67)" fill="#f26b6b"/>
      </g>
      <path id="Path_20397" data-name="Path 20397" d="M-27.6,2.062l.163-.1,4.131,6.633c.041.092,1.006,2.262-.232,3.184a2.559,2.559,0,0,1-3.7-.537C-28.152,10.06-34.9-.736-35.189-1.2a3.027,3.027,0,0,1-.242-1.247,2.794,2.794,0,0,1,1.348-2.326,2.384,2.384,0,0,1,2.511-.092,4.217,4.217,0,0,1,1.142.837l5.54,8.784-.232-.01-5.459-8.658c-.017-.018-1.738-1.825-3.394-.7A2.629,2.629,0,0,0-35.021-1.3c.07.113,7.027,11.247,7.932,12.418a2.376,2.376,0,0,0,3.435.5c1.114-.831.18-2.93.176-2.94Z" transform="matrix(0.719, -0.695, 0.695, 0.719, 1913.598, 320.971)" fill="#b74646"/>
    </g>
  </g>
</svg>
