<svg width="22" height="24" viewBox="0 0 22 24" fill="none" xmlns="http://www.w3.org/2000/svg">
<path fill-rule="evenodd" clip-rule="evenodd" d="M11.5525 0.619141C13.3807 0.619141 14.868 2.13683 14.868 4.00248V8.51359C14.868 10.3792 13.3807 11.8969 11.5525 11.8969H8.23706V0.619141H11.5525ZM7.1319 4.00248C7.1319 5.86812 5.64466 7.38582 3.81644 7.38582H2.71128V11.8969H0.500977V0.619141H3.81644C5.64466 0.619141 7.1319 2.13683 7.1319 4.00248ZM10.9999 23.7169L6.90314 19.5362L8.4659 17.9414L9.89479 19.3996V12.9703H12.1051V19.3996L13.5341 17.9414L15.0968 19.5361L10.9999 23.7169ZM18.1834 2.8747H21.4989V0.619141H15.9731V11.8969H18.1834V7.38582H20.3938V5.13026H18.1834V2.8747ZM3.82011 2.87464H2.71495V5.13019H3.82011C4.42986 5.13019 4.92526 4.62465 4.92526 4.00241C4.92526 3.38018 4.42986 2.87464 3.82011 2.87464ZM12.6564 4.00241V8.51353C12.6564 9.13576 12.161 9.64131 11.5512 9.64131H10.4461V2.87464H11.5512C12.161 2.87464 12.6564 3.38018 12.6564 4.00241Z" fill="#062C44"/>
</svg>
