<svg xmlns="http://www.w3.org/2000/svg" width="16" height="16" viewBox="0 0 16 16">
  <g id="Group_8253" data-name="Group 8253" transform="translate(-782 -427)">
    <path id="Rectangle_3391" data-name="Rectangle 3391" d="M0,0H14a2,2,0,0,1,2,2V14a2,2,0,0,1-2,2H0a0,0,0,0,1,0,0V0A0,0,0,0,1,0,0Z" transform="translate(782 427)" fill="#fff"/>
    <g id="edit" transform="translate(784 429)">
      <rect id="Rectangle" width="12" height="12" fill="#fff" opacity="0"/>
      <g id="content" transform="translate(0.6 0.6)">
        <path id="Path_714" data-name="Path 714" d="M4.24,10.22.5,11.3l1-3.806L8.613.5,11.3,3.174Z" transform="translate(-0.5 -0.5)" fill="none" stroke="#444" stroke-linecap="round" stroke-linejoin="round" stroke-miterlimit="10" stroke-width="1.5"/>
        <line id="Line_481" data-name="Line 481" x2="3.044" y2="2.971" transform="translate(6.117 1.644)" fill="none" stroke="#444" stroke-linejoin="round" stroke-miterlimit="10" stroke-width="1.5"/>
        <path id="Path_715" data-name="Path 715" d="M1728.494,2569.378l3.033,3.033" transform="translate(-1727.239 -2563.173)" fill="none" stroke="#444" stroke-width="1.5"/>
      </g>
    </g>
  </g>
</svg>
