<svg xmlns="http://www.w3.org/2000/svg" width="56" height="19.008" viewBox="0 0 56 19.008">
  <g id="Group_15267" data-name="Group 15267" transform="translate(-6955.793 -9968)">
    <g id="Group_15266" data-name="Group 15266" transform="translate(6989.876 9968)">
      <path id="Path_43" data-name="Path 43" d="M-247.379-98.7a.829.829,0,0,1-.263.6.823.823,0,0,1-.619.22,11.142,11.142,0,0,1-1.588-.486c-.615-.206-.677-.748-.528-1.582.485,1.1,1.021.993,1.672,1.094a4.5,4.5,0,0,0,.649.081c.131.014.512.044.677.071" transform="translate(257.242 109.459)" fill="#2b394e"/>
      <path id="Path_44" data-name="Path 44" d="M-230.427-98.789a.829.829,0,0,0,.263.6.823.823,0,0,0,.619.22,11.115,11.115,0,0,0,1.588-.486c.615-.206.677-.748.528-1.582-.485,1.1-1.021.992-1.672,1.094a4.531,4.531,0,0,1-.648.081c-.131.014-.512.044-.677.071" transform="translate(241.904 109.525)" fill="#2b394e"/>
      <g id="Group_10" data-name="Group 10" transform="translate(0)">
        <path id="Path_48" data-name="Path 48" d="M-259.483-130.281c-3.734-3.048-7.4-6.086-11.086-9.093-3.62,3.013-10.842,9.072-10.831,9.093h0l5.511,9.908h.928l-5.045-9.074h4.334c0,.7-.006,1.391,0,2.078a5.367,5.367,0,0,0,3.136,5,.968.968,0,0,1,.37.352c.4.685.393.69.781,1.382.111.2.628.187.813.17.151-.014.721.056.81-.1.358-.637.365-.633.708-1.278a.969.969,0,0,1,.539-.478,5.42,5.42,0,0,0,3.277-5.018c-.023-.7-.012-1.4-.006-2.1h4.367l-5.047,9.073H-265l5.511-9.908Zm-13.8-5.065a3.473,3.473,0,0,1,1.322-1.717c.469-.363.91-.767,1.395-1.18l8.555,6.959-.023.07h-.262c-2.124,0-4.248.022-6.376-.008a7.388,7.388,0,0,1-3.575-.882,2.307,2.307,0,0,1-1.242-1.7,3.345,3.345,0,0,1,.205-1.542Zm3.823,12.286a.276.276,0,0,1-.215.132c-.623-.011-1.245-.031-1.867-.065a.315.315,0,0,1-.229-.166c-.234-.624-.452-1.255-.674-1.885a3.051,3.051,0,0,1,3.745,0c-.25.663-.5,1.327-.761,1.984Zm3.275-3.541a4.2,4.2,0,0,1-2,3.119.4.4,0,0,1-.084.036.346.346,0,0,1-.052-.023l.768-2.048a8.169,8.169,0,0,1-1.07-.562,4.369,4.369,0,0,0-2.858-.506.211.211,0,0,0-.091.013c-.461.241-1.34.775-1.873,1.026,0,0,.427,1.791.217,1.9a6.806,6.806,0,0,1-1.61-5.8h8.729a27.183,27.183,0,0,1-.08,2.846Z" transform="translate(281.4 139.374)" fill="#2b394e"/>
      </g>
    </g>
    <path id="Path_37476" data-name="Path 37476" d="M-14.486-1.5V0h-.876V-4.266H-13.7a1.912,1.912,0,0,1,.842.176,1.292,1.292,0,0,1,.559.5,1.4,1.4,0,0,1,.2.737,1.227,1.227,0,0,1-.428.989,1.776,1.776,0,0,1-1.184.362Zm0-.712h.782a.767.767,0,0,0,.53-.164.6.6,0,0,0,.182-.469.705.705,0,0,0-.184-.507.685.685,0,0,0-.508-.2h-.8Zm2.755.6a1.886,1.886,0,0,1,.181-.841,1.328,1.328,0,0,1,.521-.571,1.515,1.515,0,0,1,.789-.2A1.435,1.435,0,0,1-9.2-2.836,1.578,1.578,0,0,1-8.745-1.77l.006.217a1.661,1.661,0,0,1-.406,1.17,1.407,1.407,0,0,1-1.089.441,1.414,1.414,0,0,1-1.09-.439,1.69,1.69,0,0,1-.407-1.2Zm.843.062a1.185,1.185,0,0,0,.169.69.558.558,0,0,0,.484.239A.559.559,0,0,0-9.755-.86a1.3,1.3,0,0,0,.172-.754A1.173,1.173,0,0,0-9.755-2.3a.559.559,0,0,0-.484-.243.55.55,0,0,0-.479.242A1.319,1.319,0,0,0-10.888-1.553Zm5.414.4.414-2.019h.814L-5.05,0h-.706l-.6-2-.6,2h-.7l-.806-3.17h.814l.412,2.016.578-2.016h.61Zm3.1,1.21A1.547,1.547,0,0,1-3.5-.369a1.524,1.524,0,0,1-.436-1.14v-.082a1.921,1.921,0,0,1,.184-.854,1.353,1.353,0,0,1,.521-.58,1.458,1.458,0,0,1,.769-.2,1.308,1.308,0,0,1,1.02.41,1.671,1.671,0,0,1,.372,1.163v.346H-3.086a.788.788,0,0,0,.247.5.744.744,0,0,0,.521.188.909.909,0,0,0,.762-.354l.414.466a1.267,1.267,0,0,1-.514.42A1.68,1.68,0,0,1-2.374.059Zm-.1-2.6a.527.527,0,0,0-.407.17.88.88,0,0,0-.2.486H-1.9v-.067a.627.627,0,0,0-.152-.435A.544.544,0,0,0-2.47-2.543Zm3.648.167a2.283,2.283,0,0,0-.3-.023.617.617,0,0,0-.628.325V0H-.6V-3.17H.2l.023.378a.781.781,0,0,1,.7-.437.881.881,0,0,1,.263.038ZM2.982.059A1.547,1.547,0,0,1,1.851-.369a1.524,1.524,0,0,1-.436-1.14v-.082A1.921,1.921,0,0,1,1.6-2.445a1.353,1.353,0,0,1,.521-.58,1.458,1.458,0,0,1,.769-.2,1.308,1.308,0,0,1,1.02.41,1.671,1.671,0,0,1,.372,1.163v.346H2.27a.788.788,0,0,0,.247.5.744.744,0,0,0,.521.188A.909.909,0,0,0,3.8-.979l.414.466a1.267,1.267,0,0,1-.514.42A1.68,1.68,0,0,1,2.982.059Zm-.1-2.6a.527.527,0,0,0-.407.17.88.88,0,0,0-.2.486H3.452v-.067A.627.627,0,0,0,3.3-2.389.544.544,0,0,0,2.886-2.543Zm1.742.935a1.916,1.916,0,0,1,.331-1.181,1.073,1.073,0,0,1,.906-.439.966.966,0,0,1,.762.346V-4.5h.846V0H6.712L6.671-.337a.991.991,0,0,1-.811.4,1.071,1.071,0,0,1-.895-.441A1.977,1.977,0,0,1,4.628-1.608Zm.843.062a1.252,1.252,0,0,0,.155.683.5.5,0,0,0,.449.237.564.564,0,0,0,.552-.331V-2.209a.556.556,0,0,0-.546-.331Q5.471-2.54,5.471-1.547Zm6.99-.009a1.925,1.925,0,0,1-.324,1.188,1.072,1.072,0,0,1-.9.426.985.985,0,0,1-.82-.4L10.375,0H9.616V-4.5h.843v1.614a.959.959,0,0,1,.768-.343,1.08,1.08,0,0,1,.906.426,1.928,1.928,0,0,1,.328,1.2Zm-.843-.062a1.265,1.265,0,0,0-.152-.7.513.513,0,0,0-.452-.221.556.556,0,0,0-.555.331V-.958a.564.564,0,0,0,.56.334.521.521,0,0,0,.537-.4A2.093,2.093,0,0,0,11.618-1.617Zm2.51.419.584-1.972h.9L14.347.492l-.07.167a.963.963,0,0,1-.934.621,1.323,1.323,0,0,1-.374-.056V.583l.128,0a.692.692,0,0,0,.358-.073A.481.481,0,0,0,13.641.27l.1-.261L12.634-3.17h.908Z" transform="translate(6971.155 9981)" fill="#555"/>
  </g>
</svg>
