<svg xmlns="http://www.w3.org/2000/svg" width="32" height="38" viewBox="0 0 32 38">
  <path id="Union_10" data-name="Union 10" d="M9357.108-2542.26a2.284,2.284,0,0,1-.976-.771,2.182,2.182,0,0,1-.383-1.23h1.816a.952.952,0,0,0,.269.622.854.854,0,0,0,.6.213.918.918,0,0,0,.6-.182.621.621,0,0,0,.22-.5.615.615,0,0,0-.176-.449,1.444,1.444,0,0,0-.429-.293,6.9,6.9,0,0,0-.724-.26,7.775,7.775,0,0,1-1.11-.438,2.048,2.048,0,0,1-.736-.646,1.829,1.829,0,0,1-.312-1.114,1.957,1.957,0,0,1,.712-1.6,2.827,2.827,0,0,1,1.845-.578,2.867,2.867,0,0,1,1.869.578,2.105,2.105,0,0,1,.757,1.612h-1.845a.787.787,0,0,0-.251-.558.844.844,0,0,0-.586-.2.713.713,0,0,0-.5.172.636.636,0,0,0-.189.495.618.618,0,0,0,.319.552,5.123,5.123,0,0,0,1,.428,9.043,9.043,0,0,1,1.1.458,2.1,2.1,0,0,1,.734.636,1.747,1.747,0,0,1,.311,1.073,2.177,2.177,0,0,1-.306,1.135,2.154,2.154,0,0,1-.884.814,2.91,2.91,0,0,1-1.366.3A3.482,3.482,0,0,1,9357.108-2542.26Zm-18.749,0a2.278,2.278,0,0,1-.976-.771,2.19,2.19,0,0,1-.385-1.23h1.816a.95.95,0,0,0,.272.622.844.844,0,0,0,.6.213.918.918,0,0,0,.6-.182.624.624,0,0,0,.22-.5.617.617,0,0,0-.174-.449,1.457,1.457,0,0,0-.429-.293,7,7,0,0,0-.727-.26,7.864,7.864,0,0,1-1.107-.438,2.054,2.054,0,0,1-.738-.646,1.848,1.848,0,0,1-.312-1.114,1.95,1.95,0,0,1,.71-1.6,2.828,2.828,0,0,1,1.846-.578,2.865,2.865,0,0,1,1.868.578,2.105,2.105,0,0,1,.757,1.612h-1.844a.779.779,0,0,0-.25-.558.853.853,0,0,0-.587-.2.711.711,0,0,0-.5.172.624.624,0,0,0-.191.495.618.618,0,0,0,.319.552,5.07,5.07,0,0,0,1,.428,9.291,9.291,0,0,1,1.1.458,2.11,2.11,0,0,1,.733.636,1.741,1.741,0,0,1,.31,1.073,2.157,2.157,0,0,1-.3,1.135,2.148,2.148,0,0,1-.884.814,2.917,2.917,0,0,1-1.367.3A3.469,3.469,0,0,1,9338.359-2542.26Zm28.931.188v-7.317H9369v7.317Zm-5.3,0v-7.317h4.293v1.429H9363.7v1.48h2.285v1.375H9363.7v1.6h2.586v1.429Zm-8.888,0-2.856-4.513v4.513h-1.707v-7.317h1.707l2.856,4.533v-4.533h1.708v7.317Zm-9.861,0v-7.317h4.29v1.429h-2.587v1.48h2.286v1.375h-2.286v1.6h2.587v1.429Zm16.291-10.421,7.186-13.135H9360.5c-.008,1.014-.025,2.028.007,3.041a7.851,7.851,0,0,1-4.663,7.267,1.386,1.386,0,0,0-.77.691c-.485.935-.5.928-1,1.851-.1.167-.556.158-.879.149-.118,0-.218-.006-.276,0-.263.024-1,.038-1.158-.246-.554-1-.541-1.01-1.11-2a1.413,1.413,0,0,0-.528-.511,7.774,7.774,0,0,1-4.461-7.23c-.015-1-.011-1.994-.008-3.009h-6.169l7.187,13.135h-1.323l-7.846-14.344c-.014-.031,10.266-8.8,15.419-13.163,5.244,4.352,10.464,8.751,15.783,13.163l-7.845,14.344Zm-9.282-6.761c.316.912.624,1.824.959,2.73a.45.45,0,0,0,.323.238c.886.05,1.776.079,2.66.095a.4.4,0,0,0,.308-.19c.373-.952.721-1.914,1.078-2.869a4.8,4.8,0,0,0-2.7-.931A4.5,4.5,0,0,0,9350.252-2559.254Zm5.438-1.5a11.95,11.95,0,0,0,1.527.814c-.378,1.025-.737,2-1.094,2.964.05.024.064.037.073.034a.647.647,0,0,0,.115-.052,6.075,6.075,0,0,0,2.851-4.516,40.154,40.154,0,0,0,.11-4.119h-.689c.052.8-.149,1.336-.829,1.571a15.579,15.579,0,0,1-2.239.7c-.543.133-1.207-.439-1.242-1.185.237-.038.771-.083.955-.1a6.17,6.17,0,0,0,.915-.116c.749-.12,1.391-.033,1.972-.868h-9.974c.589.868,1.237.778,2,.9a5.919,5.919,0,0,0,.912.117c.185.02.723.063.955.1-.035.746-.7,1.317-1.242,1.185a15.331,15.331,0,0,1-2.235-.7c-.688-.237-.889-.781-.83-1.6h-.851c-.352,3.455.129,5.863,2.29,8.4.3-.161-.309-2.753-.309-2.753.76-.364,2.012-1.137,2.668-1.485a.275.275,0,0,1,.128-.02c.419-.006.839-.026,1.256-.026A4.45,4.45,0,0,1,9355.69-2560.754Zm-4.747-15.9a5.025,5.025,0,0,0-1.883,2.486,4.925,4.925,0,0,0-.291,2.23,3.346,3.346,0,0,0,1.771,2.463,10.389,10.389,0,0,0,5.088,1.277c3.023.042,6.047.012,9.07.012h.372a.828.828,0,0,0,.033-.1l-12.177-10.076C9352.237-2577.765,9351.607-2577.181,9350.943-2576.654Z" transform="translate(-9336.999 2579.999)" fill="#555"/>
</svg>
