<svg width="16" height="19" viewBox="0 0 16 19" fill="none" xmlns="http://www.w3.org/2000/svg">
<path d="M1.06519 18.6544C1.35508 18.5212 7.23898 16.0062 7.45052 15.7633L14.1806 7.34096L15.4733 5.727C15.6654 5.49656 15.8099 5.23035 15.8985 4.94376C15.9872 4.65717 16.0182 4.35586 15.9898 4.05722C15.9614 3.75858 15.8741 3.46852 15.733 3.20378C15.5919 2.93904 15.3998 2.70486 15.1678 2.51475L12.6371 0.493386C12.1662 0.119081 11.566 -0.0531791 10.9683 0.0143821C10.3705 0.0819432 9.8239 0.383811 9.44838 0.853785L8.15565 2.46775L1.42559 10.9058C1.22972 11.1643 0.0858479 17.4086 0.0153351 17.769C-0.0122965 17.9066 -0.00246004 18.0491 0.0438161 18.1816C0.0900922 18.3141 0.171109 18.4317 0.278399 18.5222C0.385688 18.6127 0.51531 18.6727 0.653717 18.6959C0.792124 18.7192 0.934234 18.7048 1.06519 18.6544ZM8.89995 4.06604L12.5118 6.9884L6.75323 14.1885L4.98257 12.7078L3.17274 11.2583L8.89995 4.06604ZM1.84867 16.6016L2.58514 12.794L5.37431 15.0582L1.84867 16.6016ZM11.6813 1.71561L14.2119 3.72914C14.355 3.84711 14.4465 4.01618 14.4669 4.20049C14.4874 4.38479 14.4353 4.56982 14.3216 4.71632L13.5381 5.727L9.87146 2.83598L10.6549 1.83313C10.7117 1.75766 10.7831 1.69449 10.865 1.64746C10.9468 1.60043 11.0374 1.57051 11.1312 1.55952C11.225 1.54853 11.32 1.5567 11.4105 1.58353C11.501 1.61036 11.5851 1.6553 11.6578 1.71561H11.6813Z" fill="black"/>
</svg>
