<svg xmlns="http://www.w3.org/2000/svg" width="52" height="64" viewBox="0 0 52 64"><path d="M18.809 63.626a2.884 2.884 0 0 1-1.2-.923 2.035 2.035 0 0 1-.409-1.093.234.234 0 0 1 .078-.183.284.284 0 0 1 .191-.07h1.688a.4.4 0 0 1 .233.057.547.547 0 0 1 .158.173q.234.6 1.288.6a1.41 1.41 0 0 0 .931-.282.944.944 0 0 0 .331-.756q0-.912-1.222-.912h-1.376a.311.311 0 0 1-.321-.315v-.722a.456.456 0 0 1 .212-.413l1.967-1.609h-3.377a.3.3 0 0 1-.212-.09.3.3 0 0 1-.09-.213v-1.2a.3.3 0 0 1 .088-.223.272.272 0 0 1 .217-.092h5.7a.283.283 0 0 1 .221.092.308.308 0 0 1 .083.223v1.084a.475.475 0 0 1-.193.4l-1.807 1.641.085.022a3.156 3.156 0 0 1 1.748.758 2.2 2.2 0 0 1 .649 1.712 2.29 2.29 0 0 1-.47 1.434 3.006 3.006 0 0 1-1.295.942 5.123 5.123 0 0 1-1.885.332h-.143a4.881 4.881 0 0 1-1.869-.373zm7.286.247a.31.31 0 0 1-.306-.3v-7.897a.31.31 0 0 1 .087-.223.283.283 0 0 1 .219-.094h3.217a4.217 4.217 0 0 1 2.814.853 3.21 3.21 0 0 1 1.059 2.467c.01.236.012.548.012.938s0 .7-.012.923q-.123 3.338-3.806 3.335zm2-1.831l1.221.006a1.551 1.551 0 0 0 1.137-.365 1.681 1.681 0 0 0 .394-1.173c.015-.236.024-.54.024-.911s-.011-.675-.024-.9a1.575 1.575 0 0 0-.424-1.152 1.66 1.66 0 0 0-1.165-.373h-1.17zm-6.395-13.12v4.053l-2.09.186v-9l5.139 4.739v-4.188l2.053-.219v9.077zm7.813 4.053a5.175 5.175 0 0 1-1.071-.512c-.275-.19-.446-.315-.507-.371l1.265-1.539a3.317 3.317 0 0 0 .6.47 1.438 1.438 0 0 0 .817.236 1.643 1.643 0 0 0 .2-.011 1.668 1.668 0 0 0 .678-.175.606.606 0 0 0 .256-.525v-.017a.527.527 0 0 0-.306-.466 4.979 4.979 0 0 0-.939-.356 4.559 4.559 0 0 1-.829-.289 3.843 3.843 0 0 1-.677-.483 2.089 2.089 0 0 1-.515-.719 2.415 2.415 0 0 1-.212-1.079v-.063a2.507 2.507 0 0 1 .386-1.3 2.662 2.662 0 0 1 .992-.935 2.95 2.95 0 0 1 1.333-.35h.058a3.694 3.694 0 0 1 2.754 1.1l-1.2 1.481a.655.655 0 0 0-.153-.219 1.825 1.825 0 0 0-.474-.293 2.069 2.069 0 0 0-.758-.156h-.067a.9.9 0 0 0-.469.129.54.54 0 0 0-.271.421.252.252 0 0 0-.011.079.476.476 0 0 0 .193.4 1.638 1.638 0 0 0 .6.288l.375.114.339.1a2.738 2.738 0 0 1 1.495.96 3.109 3.109 0 0 1 .469 1.654v.119a2.375 2.375 0 0 1-.337 1.235 2.56 2.56 0 0 1-1.041.942 3.7 3.7 0 0 1-1.561.373h-.1a3.779 3.779 0 0 1-1.307-.233zm-21.822 0a5.175 5.175 0 0 1-1.072-.512c-.274-.19-.446-.315-.507-.371l1.26-1.533a3.273 3.273 0 0 0 .6.47 1.443 1.443 0 0 0 .82.236 1.6 1.6 0 0 0 .2-.011 1.668 1.668 0 0 0 .678-.175.6.6 0 0 0 .256-.525v-.017a.533.533 0 0 0-.305-.466 5.052 5.052 0 0 0-.938-.356 4.331 4.331 0 0 1-.829-.289 4.217 4.217 0 0 1-.682-.483 2.174 2.174 0 0 1-.515-.719 2.441 2.441 0 0 1-.212-1.079v-.063a2.526 2.526 0 0 1 .385-1.3 2.656 2.656 0 0 1 .993-.935 2.931 2.931 0 0 1 1.331-.35h.058a3.694 3.694 0 0 1 2.763 1.1l-1.2 1.473a.758.758 0 0 0-.153-.219 1.815 1.815 0 0 0-.475-.293 2.06 2.06 0 0 0-.757-.156h-.068a.9.9 0 0 0-.468.129.543.543 0 0 0-.272.421.252.252 0 0 0-.011.079.474.474 0 0 0 .193.4 1.654 1.654 0 0 0 .6.288l.376.114.339.1a2.724 2.724 0 0 1 1.495.96 3.109 3.109 0 0 1 .467 1.654v.119a2.365 2.365 0 0 1-.341 1.234 2.523 2.523 0 0 1-1.04.942 3.7 3.7 0 0 1-1.563.373h-.097a3.769 3.769 0 0 1-1.305-.234zm34.292-8.275l2.086-.219v8.492l-2.086.164zm-7.03 0h4.847l.416 1.834h-3.173v1.3h2.284v1.831h-2.3v1.473h3.421l-.538 1.829h-4.96zm-21.822 0h4.85l.415 1.834h-3.179v1.3h2.283v1.831h-2.3v1.473h3.421l-.538 1.829h-4.949zm23.592-.555l11.97-21.083h-10.356c-.012 1.629-.039 3.261.016 4.887a12.587 12.587 0 0 1-7.775 11.661 2.289 2.289 0 0 0-1.281 1.11c-.814 1.5-.831 1.493-1.68 2.971-.155.267-.926.254-1.466.24h-.454c-.442.039-1.671.061-1.931-.4-.923-1.609-.9-1.621-1.854-3.215a2.305 2.305 0 0 0-.877-.817c-4.721-2.389-7.355-6.162-7.438-11.611-.026-1.6-.019-3.2-.012-4.831h-10.28l11.971 21.093h-2.2l-13.076-23.016c-.03-.05 17.107-14.134 25.7-21.134 8.737 6.99 17.44 14.05 26.3 21.134l-13.074 23.026zm-15.47-10.839c.53 1.462 1.042 2.929 1.6 4.381a.742.742 0 0 0 .543.383q2.214.122 4.432.15a.661.661 0 0 0 .512-.3c.62-1.53 1.2-3.071 1.8-4.606a8.237 8.237 0 0 0-4.5-1.493 7.7 7.7 0 0 0-4.386 1.489zm9.071-2.406a19.224 19.224 0 0 0 2.542 1.3c-.636 1.646-1.226 3.2-1.822 4.758l.122.054a.885.885 0 0 0 .2-.083 9.74 9.74 0 0 0 4.747-7.248 62.186 62.186 0 0 0 .19-6.613h-1.164c.082 1.292-.25 2.15-1.386 2.523a26.023 26.023 0 0 1-3.728 1.125 1.917 1.917 0 0 1-1.443-.5 1.944 1.944 0 0 1-.627-1.4c.386-.061 1.282-.131 1.589-.162a10.945 10.945 0 0 0 1.521-.186c1.252-.194 2.319-.052 3.291-1.4h-16.623c.982 1.4 2.06 1.252 3.332 1.445a10.557 10.557 0 0 0 1.519.186c.306.031 1.2.107 1.589.164a1.948 1.948 0 0 1-.629 1.4 1.921 1.921 0 0 1-1.442.5 26.063 26.063 0 0 1-3.726-1.125c-1.152-.381-1.483-1.254-1.387-2.573h-1.408c-.59 5.547.212 9.414 3.82 13.488.5-.256-.516-4.417-.516-4.417 1.26-.586 3.345-1.825 4.439-2.387a.514.514 0 0 1 .212-.029c.7-.011 1.4-.042 2.093-.042a7.668 7.668 0 0 1 4.694 1.222zm15.011-11.934h.618l.058-.162-20.299-16.175c-1.153.96-2.195 1.9-3.309 2.743a8.072 8.072 0 0 0-3.135 3.988 7.663 7.663 0 0 0-.481 3.583 5.374 5.374 0 0 0 2.946 3.957 17.838 17.838 0 0 0 8.482 2.05c5.04.066 10.078.016 15.12.016z"/></svg>