<svg width="25" height="24" viewBox="0 0 25 24" fill="none" xmlns="http://www.w3.org/2000/svg">
<path fill-rule="evenodd" clip-rule="evenodd" d="M4.56875 7.26631H3.62369C3.36976 7.26631 3.16334 7.06569 3.16334 6.81882V5.19657C3.16334 4.9494 3.36976 4.74873 3.62369 4.74873H4.56959C4.6515 4.48955 4.75876 4.24151 4.88734 4.00582L4.21757 3.35494C4.1315 3.27096 4.08319 3.15709 4.08319 3.03804C4.08319 2.91945 4.1315 2.80558 4.21757 2.72155L5.39768 1.57463C5.48776 1.48747 5.60573 1.44399 5.72366 1.44399C5.84158 1.44399 5.95945 1.48747 6.04963 1.57504L6.71871 2.22591C6.96115 2.10092 7.21666 1.99627 7.48362 1.91701V0.997425C7.48362 0.75025 7.68999 0.549988 7.94387 0.549988H9.61217C9.86605 0.549988 10.0717 0.750199 10.0717 0.997425V1.91701C10.3394 1.99622 10.5942 2.10092 10.8366 2.22591L11.5073 1.57422C11.5974 1.48665 11.7145 1.44327 11.8324 1.44327C11.9503 1.44327 12.0682 1.48665 12.1583 1.57422L13.3377 2.72078C13.4245 2.80517 13.4728 2.91899 13.4728 3.03763C13.4728 3.15627 13.4245 3.27014 13.3377 3.35412L12.6678 4.00541C12.7963 4.2411 12.9044 4.48955 12.9863 4.74873H13.9323C14.1861 4.74873 14.3925 4.94935 14.3925 5.19657V5.48082L11.6854 6.57795C11.7239 6.39328 11.7448 6.20296 11.7448 6.00788C11.7448 4.41747 10.4135 3.12366 8.7776 3.12366C7.14204 3.12366 5.8112 4.41747 5.8112 6.00788C5.8112 7.0139 6.34559 7.89883 7.15058 8.41518L5.45243 9.10353C5.12155 9.23724 4.8423 9.43828 4.61342 9.67873L4.21741 9.29385C4.038 9.11902 4.038 8.83523 4.21741 8.66081L4.88734 8.00952C4.75876 7.77383 4.6515 7.52543 4.56875 7.26631ZM10.9052 6.00813C10.9052 4.86721 9.95025 3.93921 8.77668 3.93921C7.60353 3.93921 6.64897 4.86721 6.64897 6.00813C6.64897 6.95325 7.30783 7.74384 8.19931 7.99024L10.63 7.00534C10.8 6.70843 10.9052 6.37163 10.9052 6.00813ZM4.15789 21.08C4.15789 19.7854 5.24102 18.7324 6.57271 18.7324C7.90439 18.7324 8.98752 19.7853 8.98752 21.08C8.98752 22.3746 7.90439 23.4276 6.57271 23.4276C5.24102 23.4276 4.15789 22.3746 4.15789 21.08ZM5.4159 21.08C5.4159 21.7003 5.93468 22.2046 6.57271 22.2046C7.21068 22.2046 7.72956 21.7003 7.72951 21.08C7.72951 20.4598 7.21068 19.9554 6.57271 19.9554C5.93468 19.9554 5.4159 20.4598 5.4159 21.08ZM15.5455 21.08C15.5455 19.7854 16.6287 18.7324 17.9604 18.7324C19.292 18.7324 20.3752 19.7853 20.3752 21.08C20.3752 22.3746 19.292 23.4276 17.9604 23.4276C16.6287 23.4276 15.5455 22.3746 15.5455 21.08ZM16.8036 21.08C16.8036 21.7003 17.3224 22.2046 17.9604 22.2046C18.5984 22.2046 19.1172 21.7003 19.1172 21.08C19.1172 20.4598 18.5984 19.9554 17.9604 19.9554C17.3224 19.9554 16.8036 20.4598 16.8036 21.08ZM4.92157 11.8699C5.17545 12.4615 5.76432 12.8182 6.38426 12.8182C6.58735 12.8182 6.79377 12.78 6.99364 12.6992L16.9247 8.67603L18.4374 9.19115C18.7339 9.29225 19.0418 9.34203 19.3482 9.34203C19.8641 9.34203 20.3759 9.20109 20.8223 8.92598L21.5708 8.46459C22.2163 8.06648 22.4726 7.27507 22.1786 6.58912C22.1253 6.46372 22.0008 6.38804 21.8698 6.38804C21.8264 6.38804 21.7822 6.39645 21.7396 6.41357L20.0001 7.11777C19.9247 7.14843 19.8469 7.16279 19.7699 7.16279C19.5357 7.16279 19.3129 7.02784 19.2171 6.80374L18.6864 5.56684C18.6257 5.4239 18.6241 5.26389 18.6855 5.12094C18.7453 4.97759 18.8616 4.86418 19.0082 4.80486L20.7477 4.10025C20.9198 4.03052 21 3.83985 20.9287 3.67384C20.6814 3.09617 20.1032 2.73466 19.4808 2.73466C19.3653 2.73466 19.2473 2.74707 19.1302 2.77332L18.267 2.96482C17.4456 3.14714 16.7559 3.68496 16.394 4.42382L15.7044 5.83237L5.77419 9.85592C4.96661 10.1832 4.58495 11.0842 4.92157 11.8699ZM23.618 19.1853H24.0778C24.3857 19.1853 24.6352 19.4277 24.6352 19.7271V21.1881C24.6352 21.4875 24.3857 21.7299 24.0778 21.7299H22.6512C22.3432 21.7299 22.0938 21.4874 22.0938 21.1881V21.1702H20.9948C20.9952 21.1557 20.9973 21.1415 20.9994 21.1274C21.0018 21.1119 21.0041 21.0963 21.0041 21.0802C21.0041 19.4485 19.6389 18.1211 17.9604 18.1211C17.1513 18.1211 16.4199 18.4344 15.874 18.9368C15.2876 19.4762 14.9166 20.2351 14.9166 21.0802C14.9166 21.0963 14.919 21.1118 14.9214 21.1274C14.9236 21.1415 14.9257 21.1556 14.9261 21.1702H9.60835C9.60875 21.1556 9.61092 21.1415 9.61308 21.1274C9.61547 21.1118 9.61785 21.0963 9.61785 21.0802C9.61785 19.4485 8.25257 18.1211 6.57408 18.1211C4.89555 18.1211 3.53032 19.4484 3.53032 21.0802C3.53032 21.0963 3.53268 21.1118 3.53504 21.1274C3.53717 21.1415 3.53931 21.1557 3.53971 21.1702H2.54138V21.1881C2.54138 21.4875 2.29193 21.7299 1.984 21.7299H0.556964C0.249397 21.7299 0 21.4874 0 21.1881V19.7271C0 19.4277 0.249397 19.1853 0.556911 19.1853H0.748138V10.2395C0.748138 9.60623 1.27641 9.09266 1.92788 9.09266H3.26869C3.29569 9.37572 3.40254 9.65356 3.62451 9.86971L4.14783 10.3789C3.91077 10.9371 3.89231 11.5832 4.14952 12.1835C4.5278 13.0649 5.40578 13.6338 6.38607 13.6338C6.70719 13.6338 7.02003 13.5725 7.31816 13.4523L16.7156 9.64479C16.8249 9.8188 16.8913 10.0211 16.8913 10.2396V10.7233H17.7434C19.3245 10.7233 20.7171 11.7341 21.1664 13.2079L21.91 15.6474C22.878 15.8042 23.618 16.6167 23.618 17.6025V19.1853ZM19.9604 13.5553C19.7106 12.7361 18.9952 12.1306 18.1492 11.9817V15.6143H20.5882L19.9604 13.5553Z" fill="#062C44" fill-opacity="0.6"/>
</svg>
