<svg width="23" height="25" viewBox="0 0 23 25" fill="none" xmlns="http://www.w3.org/2000/svg">
<path d="M2.05336 2.35553H18.4766V10.4897H20.5295V0.321777H0.000244141V24.7246H11.2914V22.6908H2.05336V2.35553Z" fill="#0F1F3C" fill-opacity="0.6"/>
<path d="M16.9365 11.6757L11.291 14.4721V16.9254C11.291 19.9917 13.0399 22.7948 15.8084 24.166L16.9365 24.7245L18.0645 24.166C20.833 22.7948 22.5819 19.9917 22.5819 16.9254V14.4721L16.9365 11.6757ZM20.5291 16.9251C20.5291 19.2361 19.2329 21.3135 17.1464 22.3469L16.9365 22.4509L16.7265 22.3469C14.64 21.3135 13.3439 19.2358 13.3439 16.9251V15.7288L16.9365 13.9494L20.5291 15.7288V16.9251Z" fill="#0F1F3C" fill-opacity="0.6"/>
<path d="M15.3851 17.2832L14.3654 18.4262L16.9827 20.7179L20.1804 17.0733L19.0187 16.0724L16.8396 18.5563L15.3851 17.2832ZM4.10571 5.4057H16.4233V7.43917H4.10571V5.4057ZM4.10571 10.4897H12.3174V12.5231H4.10571V10.4897ZM4.10571 15.5733H8.21167V17.6068H4.10571V15.5733Z" fill="#0F1F3C" fill-opacity="0.6"/>
</svg>
