<?xml version="1.0" encoding="utf-8"?>
<!-- Generator: Adobe Illustrator 24.2.3, SVG Export Plug-In . SVG Version: 6.00 Build 0)  -->
<svg version="1.1" id="Layer_1" xmlns="http://www.w3.org/2000/svg" xmlns:xlink="http://www.w3.org/1999/xlink" x="0px" y="0px"
	 viewBox="0 0 300 500" style="enable-background:new 0 0 300 500;" xml:space="preserve">
<style type="text/css">
	.st0{fill:#333333;}
	.st1{fill:#010101;}
	.st2{fill:#323232;}
	.st3{fill:#CCCBCB;}
	.st4{fill:#989898;}
	.st5{fill:#313131;}
	.st6{fill:#0D0C0D;}
	.st7{fill:#D2D2D2;}
	.st8{fill:#59C1AE;}
	.st9{fill:#74C8BC;}
	.st10{fill:#33342E;}
	.st11{fill:#CA2026;}
	.st12{fill:#666667;}
	.st13{fill:#575858;}
	.st14{opacity:0.44;enable-background:new    ;}
	.st15{opacity:0.11;fill:#FFFFFF;enable-background:new    ;}
	.st16{opacity:0.24;enable-background:new    ;}
	.st17{fill:#F16422;}
	.st18{fill:#646565;}
	.st19{fill:#818282;}
	.st20{opacity:0.5;fill:#CCCBCB;enable-background:new    ;}
	.st21{clip-path:url(#SVGID_2_);}
	.st22{fill:#FFFFFF;}
	.st23{fill:#979998;}
	.st24{fill:#BFBEBE;}
	.st25{fill:#2A2A2A;}
	.st26{clip-path:url(#SVGID_4_);}
	.st27{fill:#CBCACA;}
	.st28{fill:#F16622;}
	.st29{fill:#CDCCCC;}
	.st30{fill:#3A3A3A;}
	.st31{fill:#676767;}
	.st32{fill:#F89C1C;}
	.st33{fill:#C07A2A;}
	.st34{fill:#FDC672;}
	.st35{fill:#FDC56F;}
	.st36{fill:#979797;}
	.st37{fill:url(#Path_3543_1_);}
	.st38{fill:url(#Path_3545_1_);}
	.st39{fill:url(#Path_3546_1_);}
	.st40{fill:url(#Path_3547_1_);}
	.st41{clip-path:url(#SVGID_6_);}
	.st42{fill:#0E0E0E;}
	.st43{fill:#0C0C0C;}
	.st44{clip-path:url(#SVGID_8_);}
</style>
<g id="Group_3950" transform="translate(1693.018 319.952)">
	<path id="Path_3423" class="st4" d="M-1604.42,127.23c0,0-2.07,14.98,9.73,18.94l-0.98,8.52c0,0-0.79,1.98,1.57,2.38
		c3.59,0.96,7.31,1.36,11.02,1.19c0.85,0.23,1.72-0.27,1.95-1.13c0.01-0.02,0.01-0.04,0.01-0.06c0,0,0.79-7.53,0.79-9.1
		c0,0,3.68-0.47,4-3.6L-1604.42,127.23z"/>
	<path id="Path_3424" class="st3" d="M-1595.71,134.21c0,0,1.23,12.17,11.46,10.98c0,0-2.34-2.65-1.76-5.09L-1595.71,134.21z"/>
	<path id="Path_3577" class="st3" d="M-1587.58,149.77c1.07,0.14,1.83,1.13,1.69,2.22c0,0,0,0,0,0l-0.31,2.36
		c-0.15,1.09-1.13,1.85-2.21,1.7l0,0c-1.07-0.14-1.83-1.14-1.69-2.22v0l0.31-2.36C-1589.64,150.38-1588.65,149.62-1587.58,149.77z"
		/>
</g>
<g id="Group_3952" transform="translate(1646.283 83.357)">
	<path id="Path_3425" d="M-1621.92-37.61l1.57-13.07c0.16-2.8,2.06-5.18,4.72-5.94c0,0,24.2-6.14,41.51,1.39
		c1.81,0.69,3.05,2.4,3.14,4.36l-1.36,110.02c0,0-6.51,7.23-36.8,4.05c0,0-11.02-0.4-12.2-9.1c0,0-3.93-37.23-3.14-53.47
		C-1624.48,0.61-1623.69-29.88-1621.92-37.61z"/>
	<path id="Path_3426" class="st30" d="M-1615.03-41.15h3.1l-1.03,2.43l2.07-1.39v3.47l-2.07-1.04l1.03,2.43h-3.44l1.03-2.08
		l-2.07,0.69v-3.47l2.07,1.39L-1615.03-41.15z"/>
	<g id="Group_3951" transform="translate(5.444 0)">
		<path id="Path_3427" class="st30" d="M-1611.82-47.71h3.54l-1.18,2.77l2.36-1.59v3.96l-2.36-1.19l1.18,2.77h-3.94l1.18-2.38
			l-2.36,0.79v-3.96l2.36,1.59L-1611.82-47.71z"/>
		<path id="Path_3428" class="st30" d="M-1603.36-53.45h3.54l-1.18,2.77l2.36-1.59v3.96l-2.36-1.19l1.18,2.77h-3.93l1.18-2.38
			l-2.36,0.79v-3.96l2.36,1.59L-1603.36-53.45z"/>
		<path id="Path_3429" class="st30" d="M-1593.72-47.48h3.1l-1.03,2.43l2.07-1.39v3.47l-2.07-1.04l1.03,2.43h-3.44l1.03-2.08
			l-2.07,0.69v-3.47l2.07,1.39L-1593.72-47.48z"/>
		<path id="Path_3430" class="st30" d="M-1602.77-41.15h3.1l-1.03,2.43l2.07-1.39v3.47l-2.07-1.04l1.03,2.43h-3.44l1.03-2.08
			l-2.07,0.69v-3.47l2.07,1.39L-1602.77-41.15z"/>
		<path id="Path_3431" class="st30" d="M-1611.82-35.21h3.1l-1.03,2.43l2.07-1.39v3.47l-2.07-1.04l1.03,2.43h-3.44l1.03-2.08
			l-2.07,0.69v-3.47l2.07,1.39L-1611.82-35.21z"/>
		<path id="Path_3432" class="st30" d="M-1620.48,32.13h3.1l-1.03,2.43l2.07-1.39v3.47l-2.07-1.04l1.03,2.43h-3.44l1.03-2.08
			l-2.07,0.69v-3.47l2.07,1.39L-1620.48,32.13z"/>
		<path id="Path_3433" class="st30" d="M-1620.87,44.01h3.1l-1.03,2.43l2.07-1.39v3.47l-2.07-1.04l1.03,2.43h-3.44l1.03-2.08
			l-2.07,0.69v-3.47l2.07,1.39L-1620.87,44.01z"/>
		<path id="Path_3434" class="st30" d="M-1593.33,50.74h3.1l-1.03,2.43l2.07-1.39v3.47l-2.07-1.04l1.03,2.43h-3.44l1.03-2.08
			l-2.07,0.69v-3.47l2.07,1.39L-1593.33,50.74z"/>
		<path id="Path_3435" class="st30" d="M-1611.82,50.74h3.1l-1.03,2.43l2.07-1.39v3.47l-2.07-1.04l1.03,2.43h-3.44l1.03-2.08
			l-2.07,0.69v-3.47l2.07,1.39L-1611.82,50.74z"/>
		<path id="Path_3436" class="st30" d="M-1602.77,56.29h3.1l-1.03,2.43l2.07-1.39v3.47l-2.07-1.04l1.03,2.43h-3.44l1.03-2.08
			l-2.07,0.69v-3.47l2.07,1.39L-1602.77,56.29z"/>
		<path id="Path_3437" class="st30" d="M-1585.07,55.1h3.1l-1.03,2.43l2.07-1.39v3.47l-2.07-1.04l1.03,2.43h-3.44l1.03-2.08
			l-2.07,0.69v-3.47l2.07,1.39L-1585.07,55.1z"/>
		<path id="Path_3438" class="st30" d="M-1620.08,55.89h3.1l-1.03,2.43l2.07-1.39v3.47l-2.07-1.04l1.03,2.43h-3.44l1.03-2.08
			l-2.07,0.69v-3.47l2.07,1.39L-1620.08,55.89z"/>
		<path id="Path_3439" class="st30" d="M-1584.28-53.82h3.1l-1.03,2.43l2.07-1.39v3.47l-2.07-1.04l1.03,2.43h-3.44l1.03-2.08
			l-2.07,0.69v-3.47l2.07,1.39L-1584.28-53.82z"/>
		<path id="Path_3440" class="st30" d="M-1620.87-53.82h3.1l-1.03,2.43l2.07-1.39v3.47l-2.07-1.04l1.03,2.43h-3.44l1.03-2.08
			l-2.07,0.69v-3.47l2.07,1.39L-1620.87-53.82z"/>
		<path id="Path_3441" class="st30" d="M-1620.87-29.27h3.1l-1.03,2.43l2.07-1.39v3.47l-2.07-1.04l1.03,2.43h-3.44l1.03-2.08
			l-2.07,0.69v-3.47l2.07,1.39L-1620.87-29.27z"/>
		<path id="Path_3442" class="st30" d="M-1611.82-22.93h3.1l-1.03,2.43l2.07-1.39v3.47l-2.07-1.04l1.03,2.43h-3.44l1.03-2.08
			l-2.07,0.69v-3.47l2.07,1.39L-1611.82-22.93z"/>
		<path id="Path_3443" class="st30" d="M-1620.87-16.59h3.1l-1.03,2.43l2.07-1.39v3.47l-2.07-1.04l1.03,2.43h-3.44l1.03-2.08
			l-2.07,0.69v-3.47l2.07,1.39L-1620.87-16.59z"/>
		<path id="Path_3444" class="st30" d="M-1613.18-58.09v3.65l2.14-1.59l-1.18,2.38h3.94l-1.18-2.77l2.36,1.59v-3.74l-1.97,1.37
			v-1.59l-2.36,0.4l0.39,1.19L-1613.18-58.09z"/>
		<path id="Path_3445" class="st30" d="M-1592.34-58.21l-2.75-0.79v3.56l1.97-1.19l-0.79,2.38h3.54l-0.79-2.38l1.97,1.19v-2.77
			l-1.97,0.4L-1592.34-58.21z"/>
		<path id="Path_3446" class="st30" d="M-1604.15-27.7v3.56l1.97-1.59l-0.39,2.77l5.51-4.75l-3.14,0.79l1.18-2.38h-3.93l1.18,1.59
			H-1604.15z"/>
		<path id="Path_3447" class="st30" d="M-1592.34-31.67l-2.75,1.59v-3.96l2.36,1.19l-1.18-2.38h3.94l-1.57,2.77L-1592.34-31.67z"/>
		<path id="Path_3448" class="st30" d="M-1585.98-36.47l-0.06-3.91l1.97,1.19l-0.79-2.38h3.93l-1.54,2.39L-1585.98-36.47z"/>
	</g>
</g>
<g id="Group_3954" transform="translate(1654.546 258.232)">
	<path id="Path_3449" d="M-1618.38,121.15l1.57-13.07c0.16-2.8,2.06-5.18,4.72-5.94c0,0,24.2-6.14,41.51,1.39
		c1.81,0.69,3.05,2.4,3.14,4.36l-1.36,110.02c0,0-6.51,7.23-36.8,4.05c0,0-11.02-0.4-12.2-9.1c0,0-3.94-37.23-3.14-53.47
		C-1620.94,159.37-1620.15,128.87-1618.38,121.15z"/>
	<path id="Path_3450" class="st30" d="M-1611.49,117.61h3.1l-1.03,2.43l2.07-1.39v3.47l-2.07-1.04l1.03,2.43h-3.44l1.03-2.08
		l-2.07,0.69v-3.47l2.07,1.39L-1611.49,117.61z"/>
	<g id="Group_3953" transform="translate(5.444)">
		<path id="Path_3451" class="st30" d="M-1608.28,111.05h3.54l-1.18,2.77l2.36-1.59v3.96l-2.36-1.19l1.18,2.77h-3.93l1.18-2.38
			l-2.36,0.79v-3.96l2.36,1.59L-1608.28,111.05z"/>
		<path id="Path_3452" class="st30" d="M-1599.82,105.31h3.54l-1.18,2.77l2.36-1.59v3.96l-2.36-1.19l1.18,2.77h-3.93l1.18-2.38
			l-2.36,0.79v-3.96l2.36,1.59L-1599.82,105.31z"/>
		<path id="Path_3453" class="st30" d="M-1590.18,111.27h3.1l-1.03,2.43l2.07-1.39v3.47l-2.07-1.04l1.03,2.43h-3.44l1.03-2.08
			l-2.07,0.69v-3.47l2.07,1.39L-1590.18,111.27z"/>
		<path id="Path_3454" class="st30" d="M-1599.23,117.61h3.1l-1.03,2.43l2.07-1.39v3.47l-2.07-1.04l1.03,2.43h-3.44l1.03-2.08
			l-2.07,0.69v-3.47l2.07,1.39L-1599.23,117.61z"/>
		<path id="Path_3455" class="st30" d="M-1608.28,123.55h3.1l-1.03,2.43l2.07-1.39v3.47l-2.07-1.04l1.03,2.43h-3.44l1.03-2.08
			l-2.07,0.69v-3.47l2.07,1.39L-1608.28,123.55z"/>
		<path id="Path_3456" class="st30" d="M-1616.94,190.89h3.1l-1.03,2.43l2.07-1.39v3.47l-2.07-1.04l1.03,2.43h-3.44l1.03-2.08
			l-2.07,0.69v-3.47l2.07,1.39L-1616.94,190.89z"/>
		<path id="Path_3457" class="st30" d="M-1617.33,202.77h3.1l-1.03,2.43l2.07-1.39v3.47l-2.07-1.04l1.03,2.43h-3.44l1.03-2.08
			l-2.07,0.69v-3.47l2.07,1.39L-1617.33,202.77z"/>
		<path id="Path_3458" class="st30" d="M-1589.79,209.5h3.1l-1.03,2.43l2.07-1.39v3.47l-2.07-1.04l1.03,2.43h-3.44l1.03-2.08
			l-2.07,0.69v-3.47l2.07,1.39L-1589.79,209.5z"/>
		<path id="Path_3459" class="st30" d="M-1608.28,209.5h3.1l-1.03,2.43l2.07-1.39v3.47l-2.07-1.04l1.03,2.43h-3.44l1.03-2.08
			l-2.07,0.69v-3.47l2.07,1.39L-1608.28,209.5z"/>
		<path id="Path_3460" class="st30" d="M-1599.23,215.05h3.1l-1.03,2.43l2.07-1.39v3.47l-2.07-1.04l1.03,2.43h-3.44l1.03-2.08
			l-2.07,0.69v-3.47l2.07,1.39L-1599.23,215.05z"/>
		<path id="Path_3461" class="st30" d="M-1581.52,213.86h3.1l-1.03,2.43l2.07-1.39v3.47l-2.07-1.04l1.03,2.43h-3.44l1.03-2.08
			l-2.07,0.69v-3.47l2.07,1.39L-1581.52,213.86z"/>
		<path id="Path_3462" class="st30" d="M-1616.54,214.65h3.1l-1.03,2.43l2.07-1.39v3.47l-2.07-1.04l1.03,2.43h-3.44l1.03-2.08
			l-2.07,0.69v-3.47l2.07,1.39L-1616.54,214.65z"/>
		<path id="Path_3463" class="st30" d="M-1580.74,104.94h3.1l-1.03,2.43l2.07-1.39v3.47l-2.07-1.04l1.03,2.43h-3.44l1.03-2.08
			l-2.07,0.69v-3.47l2.07,1.39L-1580.74,104.94z"/>
		<path id="Path_3464" class="st30" d="M-1617.33,104.94h3.1l-1.03,2.43l2.07-1.39v3.47l-2.07-1.04l1.03,2.43h-3.44l1.03-2.08
			l-2.07,0.69v-3.47l2.07,1.39L-1617.33,104.94z"/>
		<path id="Path_3465" class="st30" d="M-1617.33,129.49h3.1l-1.03,2.43l2.07-1.39V134l-2.07-1.04l1.03,2.43h-3.44l1.03-2.08
			l-2.07,0.69v-3.47l2.07,1.39L-1617.33,129.49z"/>
		<path id="Path_3466" class="st30" d="M-1608.28,135.83h3.1l-1.03,2.43l2.07-1.39v3.47l-2.07-1.04l1.03,2.43h-3.44l1.03-2.08
			l-2.07,0.69v-3.47l2.07,1.39L-1608.28,135.83z"/>
		<path id="Path_3467" class="st30" d="M-1617.33,142.17h3.1l-1.03,2.43l2.07-1.39v3.47l-2.07-1.04l1.03,2.43h-3.44l1.03-2.08
			l-2.07,0.69v-3.47l2.07,1.39L-1617.33,142.17z"/>
		<path id="Path_3468" class="st30" d="M-1609.64,100.67v3.65l2.14-1.59l-1.18,2.38h3.93l-1.18-2.77l2.36,1.59v-3.74l-1.97,1.37
			v-1.59l-2.36,0.4l0.39,1.19L-1609.64,100.67z"/>
		<path id="Path_3469" class="st30" d="M-1588.8,100.55l-2.75-0.79v3.56l1.97-1.19l-0.79,2.38h3.54l-0.79-2.38l1.97,1.19v-2.77
			l-1.97,0.4L-1588.8,100.55z"/>
		<path id="Path_3470" class="st30" d="M-1600.61,131.06v3.56l1.97-1.59l-0.39,2.77l5.51-4.75l-3.14,0.79l1.18-2.38h-3.94l1.18,1.59
			L-1600.61,131.06z"/>
		<path id="Path_3471" class="st30" d="M-1588.8,127.09l-2.75,1.59v-3.96l2.36,1.19l-1.18-2.38h3.93l-1.57,2.77L-1588.8,127.09z"/>
		<path id="Path_3472" class="st30" d="M-1582.44,122.29l-0.06-3.91l1.97,1.19l-0.79-2.38h3.94l-1.54,2.39L-1582.44,122.29z"/>
	</g>
</g>
<g id="Group_3956" transform="translate(1779.047 258.232)">
	<path id="Path_3473" d="M-1516.73,121.15l-1.57-13.07c-0.16-2.8-2.06-5.18-4.72-5.94c0,0-24.2-6.14-41.51,1.39
		c-1.81,0.69-3.05,2.4-3.14,4.36l1.36,110.02c0,0,6.51,7.23,36.8,4.05c0,0,11.02-0.4,12.2-9.1c0,0,3.94-37.23,3.14-53.47
		C-1514.17,159.37-1514.96,128.87-1516.73,121.15z"/>
	<path id="Path_3474" class="st30" d="M-1523.62,117.61h-3.1l1.03,2.43l-2.07-1.39v3.47l2.07-1.04l-1.03,2.43h3.44l-1.03-2.08
		l2.07,0.69v-3.47l-2.07,1.39L-1523.62,117.61z"/>
	<g id="Group_3955" transform="translate(2.617)">
		<path id="Path_3475" class="st30" d="M-1534.89,111.05h-3.54l1.18,2.77l-2.36-1.59v3.96l2.36-1.19l-1.18,2.77h3.93l-1.18-2.38
			l2.36,0.79v-3.96l-2.36,1.59L-1534.89,111.05z"/>
		<path id="Path_3476" class="st30" d="M-1543.35,105.31h-3.54l1.18,2.77l-2.36-1.59v3.96l2.36-1.19l-1.18,2.77h3.93l-1.18-2.38
			l2.36,0.79v-3.96l-2.36,1.59L-1543.35,105.31z"/>
		<path id="Path_3477" class="st30" d="M-1552.99,111.27h-3.1l1.03,2.43l-2.07-1.39v3.47l2.07-1.04l-1.03,2.43h3.44l-1.03-2.08
			l2.07,0.69v-3.47l-2.07,1.39L-1552.99,111.27z"/>
		<path id="Path_3478" class="st30" d="M-1543.94,117.61h-3.1l1.03,2.43l-2.07-1.39v3.47l2.07-1.04l-1.03,2.43h3.44l-1.03-2.08
			l2.07,0.69v-3.47l-2.07,1.39L-1543.94,117.61z"/>
		<path id="Path_3479" class="st30" d="M-1534.89,123.55h-3.1l1.03,2.43l-2.07-1.39v3.47l2.07-1.04l-1.03,2.43h3.44l-1.03-2.08
			l2.07,0.69v-3.47l-2.07,1.39L-1534.89,123.55z"/>
		<path id="Path_3480" class="st30" d="M-1526.24,190.89h-3.1l1.03,2.43l-2.07-1.39v3.47l2.07-1.04l-1.03,2.43h3.44l-1.03-2.08
			l2.07,0.69v-3.47l-2.07,1.39L-1526.24,190.89z"/>
		<path id="Path_3481" class="st30" d="M-1525.84,202.77h-3.1l1.03,2.43l-2.07-1.39v3.47l2.07-1.04l-1.03,2.43h3.44l-1.03-2.08
			l2.07,0.69v-3.47l-2.07,1.39L-1525.84,202.77z"/>
		<path id="Path_3482" class="st30" d="M-1553.39,209.5h-3.1l1.03,2.43l-2.07-1.39v3.47l2.07-1.04l-1.03,2.43h3.44l-1.03-2.08
			l2.07,0.69v-3.47l-2.07,1.39L-1553.39,209.5z"/>
		<path id="Path_3483" class="st30" d="M-1534.89,209.5h-3.1l1.03,2.43l-2.07-1.39v3.47l2.07-1.04l-1.03,2.43h3.44l-1.03-2.08
			l2.07,0.69v-3.47l-2.07,1.39L-1534.89,209.5z"/>
		<path id="Path_3484" class="st30" d="M-1543.94,215.05h-3.1l1.03,2.43l-2.07-1.39v3.47l2.07-1.04l-1.03,2.43h3.44l-1.03-2.08
			l2.07,0.69v-3.47l-2.07,1.39L-1543.94,215.05z"/>
		<path id="Path_3485" class="st30" d="M-1561.65,213.86h-3.1l1.03,2.43l-2.07-1.39v3.47l2.07-1.04l-1.03,2.43h3.44l-1.03-2.08
			l2.07,0.69v-3.47l-2.07,1.39L-1561.65,213.86z"/>
		<path id="Path_3486" class="st30" d="M-1526.63,214.65h-3.1l1.03,2.43l-2.07-1.39v3.47l2.07-1.04l-1.03,2.43h3.44l-1.03-2.08
			l2.07,0.69v-3.47l-2.07,1.39L-1526.63,214.65z"/>
		<path id="Path_3487" class="st30" d="M-1562.44,104.94h-3.1l1.03,2.43l-2.07-1.39v3.47l2.07-1.04l-1.03,2.43h3.44l-1.03-2.08
			l2.07,0.69v-3.47l-2.07,1.39L-1562.44,104.94z"/>
		<path id="Path_3488" class="st30" d="M-1525.84,104.94h-3.1l1.03,2.43l-2.07-1.39v3.47l2.07-1.04l-1.03,2.43h3.44l-1.03-2.08
			l2.07,0.69v-3.47l-2.07,1.39L-1525.84,104.94z"/>
		<path id="Path_3489" class="st30" d="M-1525.84,129.49h-3.1l1.03,2.43l-2.07-1.39V134l2.07-1.04l-1.03,2.43h3.44l-1.03-2.08
			l2.07,0.69v-3.47l-2.07,1.39L-1525.84,129.49z"/>
		<path id="Path_3490" class="st30" d="M-1534.89,135.83h-3.1l1.03,2.43l-2.07-1.39v3.47l2.07-1.04l-1.03,2.43h3.44l-1.03-2.08
			l2.07,0.69v-3.47l-2.07,1.39L-1534.89,135.83z"/>
		<path id="Path_3491" class="st30" d="M-1525.84,142.17h-3.1l1.03,2.43l-2.07-1.39v3.47l2.07-1.04l-1.03,2.43h3.44l-1.03-2.08
			l2.07,0.69v-3.47l-2.07,1.39L-1525.84,142.17z"/>
		<path id="Path_3492" class="st30" d="M-1533.54,100.67v3.65l-2.14-1.59l1.18,2.38h-3.93l1.18-2.77l-2.36,1.59v-3.74l1.97,1.37
			v-1.59l2.36,0.4l-0.39,1.19L-1533.54,100.67z"/>
		<path id="Path_3493" class="st30" d="M-1554.37,100.55l2.75-0.79v3.56l-1.97-1.19l0.79,2.38h-3.54l0.79-2.38l-1.97,1.19v-2.77
			l1.97,0.4L-1554.37,100.55z"/>
		<path id="Path_3494" class="st30" d="M-1542.57,131.06v3.56l-1.97-1.59l0.39,2.77l-5.51-4.75l3.14,0.79l-1.18-2.38h3.93
			l-1.18,1.59L-1542.57,131.06z"/>
		<path id="Path_3495" class="st30" d="M-1554.37,127.09l2.75,1.59v-3.96l-2.36,1.19l1.18-2.38h-3.94l1.57,2.77L-1554.37,127.09z"/>
		<path id="Path_3496" class="st30" d="M-1560.73,122.29l0.06-3.91l-1.97,1.19l0.79-2.38h-3.93l1.54,2.39L-1560.73,122.29z"/>
	</g>
</g>
<g id="Group_3958" transform="translate(1787.586 83.357)">
	<path id="Path_3497" d="M-1513.08-37.61l-1.57-13.07c-0.16-2.8-2.06-5.18-4.72-5.94c0,0-24.2-6.14-41.51,1.39
		c-1.81,0.69-3.05,2.4-3.14,4.36l1.36,110.02c0,0,6.51,7.23,36.8,4.05c0,0,11.02-0.4,12.2-9.1c0,0,3.93-37.23,3.14-53.47
		C-1510.51,0.61-1511.3-29.88-1513.08-37.61z"/>
	<path id="Path_3498" class="st30" d="M-1519.96-41.15h-3.1l1.03,2.43l-2.07-1.39v3.47l2.07-1.04l-1.03,2.43h3.44l-1.03-2.08
		l2.07,0.69v-3.47l-2.07,1.39L-1519.96-41.15z"/>
	<g id="Group_3957" transform="translate(2.617 0)">
		<path id="Path_3499" class="st30" d="M-1531.23-47.71h-3.54l1.18,2.77l-2.36-1.59v3.96l2.36-1.19l-1.18,2.77h3.94l-1.18-2.38
			l2.36,0.79v-3.96l-2.36,1.59L-1531.23-47.71z"/>
		<path id="Path_3500" class="st30" d="M-1539.69-53.45h-3.54l1.18,2.77l-2.36-1.59v3.96l2.36-1.19l-1.18,2.77h3.94l-1.18-2.38
			l2.36,0.79v-3.96l-2.36,1.59L-1539.69-53.45z"/>
		<path id="Path_3501" class="st30" d="M-1549.33-47.48h-3.1l1.03,2.43l-2.07-1.39v3.47l2.07-1.04l-1.03,2.43h3.44l-1.03-2.08
			l2.07,0.69v-3.47l-2.07,1.39L-1549.33-47.48z"/>
		<path id="Path_3502" class="st30" d="M-1540.28-41.15h-3.1l1.03,2.43l-2.07-1.39v3.47l2.07-1.04l-1.03,2.43h3.44l-1.03-2.08
			l2.07,0.69v-3.47l-2.07,1.39L-1540.28-41.15z"/>
		<path id="Path_3503" class="st30" d="M-1531.23-35.21h-3.1l1.03,2.43l-2.07-1.39v3.47l2.07-1.04l-1.03,2.43h3.44l-1.03-2.08
			l2.07,0.69v-3.47l-2.07,1.39L-1531.23-35.21z"/>
		<path id="Path_3504" class="st30" d="M-1522.58,32.13h-3.1l1.03,2.43l-2.07-1.39v3.47l2.07-1.04l-1.03,2.43h3.44l-1.03-2.08
			l2.07,0.69v-3.47l-2.07,1.39L-1522.58,32.13z"/>
		<path id="Path_3505" class="st30" d="M-1522.19,44.01h-3.1l1.03,2.43l-2.07-1.39v3.47l2.07-1.04l-1.03,2.43h3.44l-1.03-2.08
			l2.07,0.69v-3.47l-2.07,1.39L-1522.19,44.01z"/>
		<path id="Path_3506" class="st30" d="M-1549.73,50.74h-3.1l1.03,2.43l-2.07-1.39v3.47l2.07-1.04l-1.03,2.43h3.44l-1.03-2.08
			l2.07,0.69v-3.47l-2.07,1.39L-1549.73,50.74z"/>
		<path id="Path_3507" class="st30" d="M-1531.23,50.74h-3.1l1.03,2.43l-2.07-1.39v3.47l2.07-1.04l-1.03,2.43h3.44l-1.03-2.08
			l2.07,0.69v-3.47l-2.07,1.39L-1531.23,50.74z"/>
		<path id="Path_3508" class="st30" d="M-1540.28,56.29h-3.1l1.03,2.43l-2.07-1.39v3.47l2.07-1.04l-1.03,2.43h3.44l-1.03-2.08
			l2.07,0.69v-3.47l-2.07,1.39L-1540.28,56.29z"/>
		<path id="Path_3509" class="st30" d="M-1557.99,55.1h-3.1l1.03,2.43l-2.07-1.39v3.47l2.07-1.04l-1.03,2.43h3.44l-1.03-2.08
			l2.07,0.69v-3.47l-2.07,1.39L-1557.99,55.1z"/>
		<path id="Path_3510" class="st30" d="M-1522.97,55.89h-3.1l1.03,2.43l-2.07-1.39v3.47l2.07-1.04l-1.03,2.43h3.44l-1.03-2.08
			l2.07,0.69v-3.47l-2.07,1.39L-1522.97,55.89z"/>
		<path id="Path_3511" class="st30" d="M-1558.78-53.82h-3.1l1.03,2.43l-2.07-1.39v3.47l2.07-1.04l-1.03,2.43h3.44l-1.03-2.08
			l2.07,0.69v-3.47l-2.07,1.39L-1558.78-53.82z"/>
		<path id="Path_3512" class="st30" d="M-1522.19-53.82h-3.1l1.03,2.43l-2.07-1.39v3.47l2.07-1.04l-1.03,2.43h3.44l-1.03-2.08
			l2.07,0.69v-3.47l-2.07,1.39L-1522.19-53.82z"/>
		<path id="Path_3513" class="st30" d="M-1522.19-29.27h-3.1l1.03,2.43l-2.07-1.39v3.47l2.07-1.04l-1.03,2.43h3.44l-1.03-2.08
			l2.07,0.69v-3.47l-2.07,1.39L-1522.19-29.27z"/>
		<path id="Path_3514" class="st30" d="M-1531.23-22.93h-3.1l1.03,2.43l-2.07-1.39v3.47l2.07-1.04l-1.03,2.43h3.44l-1.03-2.08
			l2.07,0.69v-3.47l-2.07,1.39L-1531.23-22.93z"/>
		<path id="Path_3515" class="st30" d="M-1522.19-16.59h-3.1l1.03,2.43l-2.07-1.39v3.47l2.07-1.04l-1.03,2.43h3.44l-1.03-2.08
			l2.07,0.69v-3.47l-2.07,1.39L-1522.19-16.59z"/>
		<path id="Path_3516" class="st30" d="M-1529.88-58.09v3.65l-2.14-1.59l1.18,2.38h-3.94l1.18-2.77l-2.36,1.59v-3.74l1.97,1.37
			v-1.59l2.36,0.4l-0.39,1.19L-1529.88-58.09z"/>
		<path id="Path_3517" class="st30" d="M-1550.71-58.21l2.75-0.79v3.56l-1.97-1.19l0.79,2.38h-3.54l0.79-2.38l-1.97,1.19v-2.77
			l1.97,0.4L-1550.71-58.21z"/>
		<path id="Path_3518" class="st30" d="M-1538.91-27.7v3.56l-1.97-1.59l0.39,2.77l-5.51-4.75l3.14,0.79l-1.18-2.38h3.94l-1.18,1.59
			H-1538.91z"/>
		<path id="Path_3519" class="st30" d="M-1550.71-31.67l2.75,1.59v-3.96l-2.36,1.19l1.18-2.38h-3.93l1.57,2.77L-1550.71-31.67z"/>
		<path id="Path_3520" class="st30" d="M-1557.07-36.47l0.06-3.91l-1.97,1.19l0.79-2.38h-3.94l1.54,2.39L-1557.07-36.47z"/>
	</g>
</g>
<path id="Path_3521" class="st31" d="M98.29,224.48H83.41c-6.39-0.02-11.58,5.21-11.6,11.67c0,0,0,0,0,0l0,0
	c0.01,6.46,5.21,11.69,11.6,11.68c0,0,0,0,0,0h14.88c6.39,0.02,11.58-5.21,11.6-11.68v0l0,0
	C109.87,229.69,104.68,224.46,98.29,224.48C98.29,224.48,98.29,224.48,98.29,224.48z M108.31,236.32
	c-0.01,5.79-4.67,10.48-10.4,10.46l0,0H83.26c-4.04,0.01-7.72-2.36-9.43-6.06h28.04v-0.88h-28.4c-0.4-1.13-0.61-2.32-0.61-3.53l0,0
	c0-1.2,0.2-2.39,0.61-3.53h28.4v-0.88H73.83c1.71-3.7,5.39-6.06,9.43-6.06h14.66C103.65,225.84,108.3,230.52,108.31,236.32
	C108.31,236.32,108.31,236.32,108.31,236.32L108.31,236.32z"/>
<path id="Path_3522" class="st31" d="M199.81,224.48h14.88c6.39-0.02,11.58,5.21,11.6,11.68v0l0,0c-0.02,6.46-5.21,11.69-11.6,11.68
	l0,0h-14.88c-6.39,0.02-11.58-5.21-11.6-11.67c0,0,0,0,0,0l0,0C188.23,229.69,193.42,224.46,199.81,224.48
	C199.81,224.48,199.81,224.48,199.81,224.48z M189.79,236.32c0.01,5.79,4.67,10.48,10.4,10.46l0,0h14.66
	c4.04,0.01,7.72-2.36,9.43-6.06h-27.43v-0.88h27.79c0.4-1.13,0.61-2.32,0.61-3.53l0,0c0-1.2-0.2-2.39-0.61-3.53h-27.79v-0.88h27.43
	c-1.71-3.7-5.39-6.06-9.43-6.06h-14.66C194.45,225.84,189.8,230.52,189.79,236.32C189.79,236.32,189.79,236.32,189.79,236.32
	L189.79,236.32z"/>
<path id="Path_3523" class="st0" d="M104.44,165.96c0,0-6.69,46.37-4.72,72.52c-0.04,2.55-0.44,5.09-1.18,7.53
	c0,0-5.12,82.48,0,91.59l102.3,0.4c0,0,3.54-83.27-0.79-91.99c-0.66-2.46-1.06-4.98-1.18-7.53c0,0,0-66.97-5.12-71.72L104.44,165.96
	z"/>
<path id="Path_3524" class="st32" d="M114.27,310.23c0,0-40.14,30.93-63.74,47.96c-7.21,5.45-11.09,14.31-10.23,23.37
	c0,0,0.39,40.4,10.23,78.03l6.69,26.54c0,0,2.36,8.71,11.02,5.15c0,0,18.1-3.96,17.71-20.2l2.75-26.93l25.18-74.07L114.27,310.23z"
	/>
<path id="Path_3525" class="st33" d="M111.97,360.08c0,0-18.55,37.72-24.86,62.28l-3.94,13.47c0,0-1.18,7.53,1.97,9.51
	c0,0,20.46,16.24,35.02,20.6l11.41-38.82l-9.44-42.38L111.97,360.08z"/>
<path id="Path_3526" class="st32" d="M185.1,309.84c0,0,44.07,32.91,62.17,47.56c0,0,12.59,7.92,11.41,22.98
	c0,0,1.57,44.76-16.13,101.01c0,0-1.97,10.69-5.9,9.9c0,0-13.38,1.98-23.61-13.86c0,0-1.57-22.58-3.93-31.29l2.75-6.34v-11.9
	l-18.49-44.76l-8.66-14.66L185.1,309.84z"/>
<path id="Path_3527" class="st34" d="M217.76,426.32c0,0-5.9-55.06-18.89-71.3c0,0-4.33-4.75,1.97-4.36c0,0,29.12,5.15,46.43,19.8
	c1.7,1.34,2.71,3.37,2.75,5.54c0,0,0,72.88-11.8,101.4c0,0-1.18,3.17-2.75,3.56c0,0-9.44,2.38-15.74-10.3c0,0-1.18-1.59-1.18-5.94
	C218.54,464.74,219.33,433.84,217.76,426.32z"/>
<g id="Group_3959" transform="translate(1709.984 311.544)">
	<path id="Path_3528" class="st32" d="M-1597.28,125.08c0,0,3.54,37.23,14.95,49.51c0,0,12.2,16.64,24.79,13.47
		c10.35-2.6,18.93-9.92,23.21-19.8c0,0,11.8-27.73,10.23-44.76L-1597.28,125.08z"/>
	<path id="Path_3529" class="st35" d="M-1555.58,157.55c0,0,12.99,1.19,25.18-13.86c0,0-3.54,19.01-21.25,36.84
		c0,0-5.12,5.55-4.71,0.79C-1557.96,173.44-1557.69,165.3-1555.58,157.55z"/>
</g>
<path id="Path_3530" d="M122.65,184.58c0,0-25.05,135.59-24.01,170.44c0,0-2.08,68.13,3.65,79.22l95.41,0.94
	c0,0,3.24-32.22,2.71-49.66c0,0-1.16-50.95-4.75-66.47c0,0-15.08-131.7-22.91-136.45L122.65,184.58z"/>
<path id="Path_3531" class="st33" d="M97.11,149.86c0,0,17.95,86.09,15.6,151.05c0,0,10.14-107.56,20.81-123.43L97.11,149.86z"/>
<path id="Path_3532" class="st33" d="M202.41,148.93c0,0-18.1,86.62-15.74,151.59c0,0-12.2-106.82-20.86-123.86L202.41,148.93z"/>
<path id="Path_3533" class="st33" d="M88.5,123.38l-9.64-14.06c0,0-5.9-5.54-1.18-20.99c0,0,9.44-52.28,37.77-70.5l26.36-11.09
	l7.48-1.98l5.9,1.19l14.95,5.94c0,0,14.17,3.17,28.72,20.6c0,0,14.95,20.2,21.64,54.26c0,0,6.69,20.6-10.23,35.25L88.5,123.38z"/>
<path id="Path_3534" class="st32" d="M96.96,24.56c0,0-55.09,35.25-69.25,60.21c0,0-9.44,11.49,4.72,24.16
	c0,0,18.49,22.98,33.45,29.31c0,0,14.95,10.3,27.54,7.92c0,0,27.54,33.67,58.23,36.44c0,0,25.18-0.79,53.51-37.23
	c0,0,14.17,7.53,46.04-20.2c0,0,27.54-22.98,22.43-34.86c0,0-7.08-25.35-72.01-65.75c0,0,18.49,41.59,21.64,59.41
	c0,0,6.33,17.01-4.9,26.92l-7.69,13.48c0,0-14.95-51.1-28.33-71.3c0,0-22.82-45.15-33.45-53.08c0,0-38.56,47.93-53.51,99.81
	c0,0-5.51,16.64-6.69,21.39l-0.79,3.96l-11.8-18.22c0,0-5.51-12.28-0.79-24.56C75.32,82.39,93.42,28.52,96.96,24.56z"/>
<path id="Path_3535" d="M122.59,80.29c0,0-12.06,20.52-3.4,35.57c0,0,12.2,22.98,15.74,27.73c0,0,3.34,6.14,6.89,7.33
	c0,0,9.05,3.56,15.34-0.4c0,0,3.54,0,7.87-9.1l12.2-20.2c0,0,8.66-15.05,4.33-28.52l-5.9-14.66l-25.57-7.13l-20.07,4.75
	L122.59,80.29z"/>
<g id="Group_3960" transform="translate(1758.324 320.315)">
	<path id="Path_3536" class="st36" d="M-1576.57,145.02c1.2,1.39,2.9,2.25,4.72,2.38l0.59,9.31c0,0,0,1.19,1.97,1.19
		c0,0,7.87,0.4,12.2-1.19c0.73-0.55,1.04-1.5,0.79-2.38l-1.18-8.32c5.41-2.39,9.06-7.61,9.48-13.56c0,0-0.03-3.47-1.61-5.06
		L-1576.57,145.02z"/>
	<path id="Path_3537" class="st29" d="M-1566.41,139.89c0.32,1.92-0.5,3.85-2.1,4.93c0,0,9.67,2.67,11.71-10.75L-1566.41,139.89z"/>
	<path id="Path_3578" class="st29" d="M-1564.51,149.39c0.97-0.11,1.85,0.59,1.96,1.57c0,0,0,0,0,0l0.27,2.41
		c0.11,0.98-0.59,1.86-1.56,1.97c0,0,0,0,0,0l0,0c-0.97,0.11-1.85-0.59-1.96-1.57c0,0,0,0,0,0l-0.27-2.41
		C-1566.18,150.38-1565.48,149.5-1564.51,149.39C-1564.51,149.39-1564.51,149.39-1564.51,149.39z"/>
</g>
<path id="Path_3538" class="st32" d="M170.54,17.82c0,0,28.33,5.15,41.31,49.91c0,0,6.69,20.2,5.12,32.48c0,0-1.57,11.88-6.3,5.94
	c-3.28-5.57-5.8-11.57-7.48-17.82c0,0-12.2-36.04-20.86-49.91L170.54,17.82z"/>
<path id="Path_3539" class="st35" d="M219.33,45.55c0,0,34.63,24.56,44.07,40.4c0,0,17.31,17.82-18.49,28.91
	c0,0-13.38,6.34-11.02-7.53c4.48-7.31,4.93-16.44,1.18-24.16L219.33,45.55z"/>
<path id="Path_3540" class="st35" d="M189.03,107.74l-11.8,27.33c0,0-12.2,21.78-2.36,24.16c0,0,19.28,7.13,31.48-24.56
	c0,0,3.93-13.86-1.18-21.39c0,0-1.97,14.66-7.87-1.19L189.03,107.74z"/>
<path id="Path_3541" class="st33" d="M186.28,359.38c0,0,22.82,43.97,27.54,71.69c0,0,2.75,8.71,0.79,12.67
	c0,0-10.62,11.49-34.63,22.58v-55.06L186.28,359.38z"/>
<path id="Path_3542" class="st32" d="M191.39,384.73c0,0,18.1,28.12,18.89,49.91c0,0,0.79,6.34-2.75,9.1c0,0-9.44,9.9-17.31,12.67
	c0,0-3.93,1.59-0.39-5.15c0,0,7.87-22.98,5.12-43.57L191.39,384.73z"/>
<linearGradient id="Path_3543_1_" gradientUnits="userSpaceOnUse" x1="-2450.6455" y1="402.6378" x2="-2450.5759" y2="404.6277" gradientTransform="matrix(51.141 0 0 -148.7377 125477.5859 60354.2617)">
	<stop  offset="0" style="stop-color:#191919"/>
	<stop  offset="0.124" style="stop-color:#333333"/>
	<stop  offset="0.156" style="stop-color:#3D3D3D"/>
	<stop  offset="0.897" style="stop-color:#626363"/>
	<stop  offset="0.925" style="stop-color:#7C7C7C"/>
	<stop  offset="1" style="stop-color:#AEAEAE"/>
</linearGradient>
<path id="Path_3543" class="st37" d="M136.74,171.51c0,0,32.77-3.44,36.48,4.42c0,0,13.63,140.67,16.24,168.4l8.35,76.84
	c0,0,2.61,20.99-9.39,28.12c0,0-16.18,11.88-29.75,15.45c0,0-10.44,5.15-24.53-1.59c0,0-20.87-8.71-27.14-17.03
	c0,0-6.79-4.75-5.74-15.45l4.17-55.45c0,0,10.44-142.29,14.61-156.55l3.65-36.08C123.68,182.59,124.22,171.9,136.74,171.51z"/>
<path id="Path_3544" d="M100.89,102.98c0,0,11.8-37.23,30.3-66.54c0,0,8.26-15.84,14.56-21.39c0,0,2.75-3.17,4.33-2.38
	c0,0,8.26,3.56,26.76,40.8c0,0,17.71,31.69,20.86,49.91c0,0-11.41-23.37-34.23-27.73C163.46,75.65,124.11,62.98,100.89,102.98z"/>
<linearGradient id="Path_3545_1_" gradientUnits="userSpaceOnUse" x1="-2460.3088" y1="397.0623" x2="-2460.3088" y2="396.3398" gradientTransform="matrix(63.4709 0 0 -37.8661 156307.5156 15078.4531)">
	<stop  offset="0" style="stop-color:#333333"/>
	<stop  offset="1" style="stop-color:#777677"/>
</linearGradient>
<path id="Path_3545" class="st38" d="M104.04,97.83c0,0,15.34-34.46,39.74-51.89c0,0,3.94-4.36,8.26-1.98
	c0,0,16.86,5.83,42.66,54.01c0,0-17.87-28.26-50.53-24.3C127.82,75,113,83.93,104.04,97.83z"/>
<linearGradient id="Path_3546_1_" gradientUnits="userSpaceOnUse" x1="-2322.6416" y1="389.9359" x2="-2323.5596" y2="388.4538" gradientTransform="matrix(14.3447 0 0 -22.3046 33461.5039 8720.9727)">
	<stop  offset="0" style="stop-color:#333333"/>
	<stop  offset="1" style="stop-color:#777677"/>
</linearGradient>
<path id="Path_3546" class="st39" d="M125.29,51.49c0,0,8.26-19.01,16.92-28.91c0,0,1.57-2.38,2.36-0.4
	c0.97,5.49,1.1,11.1,0.39,16.64c0,0,0,3.96-5.9,7.92c0,0-6.3,4.75-11.41,6.34C127.65,53.08,123.72,55.06,125.29,51.49z"/>
<linearGradient id="Path_3547_1_" gradientUnits="userSpaceOnUse" x1="-2322.1853" y1="390.0201" x2="-2323.1077" y2="388.5309" gradientTransform="matrix(14.3451 0 0 -22.3046 33482.2461 8721.2461)">
	<stop  offset="0" style="stop-color:#333333"/>
	<stop  offset="1" style="stop-color:#777677"/>
</linearGradient>
<path id="Path_3547" class="st40" d="M173.36,51.89c0,0-8.26-19.01-16.92-28.91c0,0-1.57-2.38-2.36-0.4
	c-0.97,5.49-1.1,11.1-0.39,16.64c0,0,0,3.96,5.9,7.92c0,0,6.3,4.75,11.41,6.34C171,53.47,174.94,55.45,173.36,51.89z"/>
<g id="Group_3992" transform="translate(1631.095 132.466)">
	<g id="Group_3973" transform="translate(0 5.564)">
		<g id="Group_3963" transform="translate(47.35 0.243)">
			<path id="Path_3548" class="st27" d="M-1610.8-22.02c0,0,20.26-8.91,32.66-11.09c0,0,17.12-1.78,22.62-1.39l0.39,9.51
				c0,0-12.59-1.19-20.07,0.79c0,0-21.25,3.96-33.05,10.69L-1610.8-22.02z"/>
			<g id="Group_3962">
				<g>
					<defs>
						<path id="SVGID_5_" d="M-1610.8-22.02c0,0,20.26-8.91,32.66-11.09c0,0,17.12-1.78,22.62-1.39l0.39,9.51
							c0,0-12.59-1.19-20.07,0.79c0,0-21.25,3.96-33.05,10.69L-1610.8-22.02z"/>
					</defs>
					<clipPath id="SVGID_2_">
						<use xlink:href="#SVGID_5_"  style="overflow:visible;"/>
					</clipPath>
					<g id="Group_3961" class="st21">
						<path id="Path_3549" class="st22" d="M-1610.13-19.49c0,0,25.08-10,32.57-11.05c5.52-0.77,15.05-1.8,22.28-0.3v2.86
							c0,0-15.77-1.38-26.21,1.4c-7.25,1.93-28.33,9.9-28.33,9.9L-1610.13-19.49z"/>
					</g>
				</g>
			</g>
		</g>
		<g id="Group_3972">
			<g id="Group_3970" transform="translate(3.737 2.476)">
				<path id="Path_3551" class="st2" d="M-1594.93-21.68l12.79-5.35l-0.39-0.79l-4.72,0.4v-0.79h-4.33c0,0-1.18,0-1.57-1.98
					c0,0-0.59-3.37,1.77-3.37h12.59l0.39,4.36l6.69-1.98c0,0,7.08,5.54,8.26,22.58l-22.82,9.9c0.47-2.22,0.47-4.51,0-6.73
					C-1587.28-11.6-1590.6-20.1-1594.93-21.68z"/>
				<path id="Path_3579" d="M-1595.23-21.72c1.78-0.64,5.08,4.14,7.37,10.66c2.29,6.52,2.69,12.32,0.91,12.96s-5.09-4.13-7.37-10.65
					C-1596.61-15.28-1597.02-21.08-1595.23-21.72z"/>
				<g id="Group_3964" transform="translate(24.908 13.343)">
					<path id="Path_3552" class="st27" d="M-1618.66-25.91c1.3,2.02,2.11,4.33,2.36,6.73c0,0,0,0.79,1.18,0.4c0,0,1.97,0,0.79-3.56
						c0,0-0.79-4.36-2.75-5.15C-1617.08-27.5-1619.44-28.29-1618.66-25.91z"/>
					<path id="Path_3553" class="st22" d="M-1617.64-23.73l2.52-1l1.02,2.94l-2.59,1.02L-1617.64-23.73z"/>
				</g>
				<g id="Group_3969" transform="translate(0 14.458)">
					<path id="Path_3554" class="st2" d="M-1595.32-27.13l-31.27,10.92l2.52,7.87l32.07-10.54L-1595.32-27.13z"/>
					<g id="Group_3965" transform="translate(3.811 6.213)">
						<g id="Line_18">
							
								<rect x="-1625.91" y="-19.16" transform="matrix(0.9554 -0.2955 0.2955 0.9554 -67.0213 -480.3636)" class="st42" width="5.73" height="1.5"/>
						</g>
						<g id="Line_19">
							
								<rect x="-1627.14" y="-21.51" transform="matrix(0.9554 -0.2955 0.2955 0.9554 -66.3809 -480.8307)" class="st42" width="5.73" height="1.5"/>
						</g>
						<g id="Line_20">
							
								<rect x="-1627.98" y="-24.27" transform="matrix(0.9554 -0.2955 0.2955 0.9554 -65.604 -481.2024)" class="st42" width="5.73" height="1.5"/>
						</g>
					</g>
					<g id="Group_3966" transform="translate(8.735 4.471)">
						<g id="Line_21">
							
								<rect x="-1623.8" y="-19.93" transform="matrix(0.9554 -0.2955 0.2955 0.9554 -66.6981 -479.7747)" class="st42" width="5.73" height="1.5"/>
						</g>
						<g id="Line_22">
							
								<rect x="-1625.03" y="-22.28" transform="matrix(0.9554 -0.2955 0.2955 0.9554 -66.0577 -480.2419)" class="st42" width="5.73" height="1.5"/>
						</g>
						<g id="Line_23">
							
								<rect x="-1625.87" y="-25.04" transform="matrix(0.9554 -0.2955 0.2955 0.9554 -65.2806 -480.6137)" class="st42" width="5.73" height="1.5"/>
						</g>
					</g>
					<g id="Group_3967" transform="translate(13.935 2.725)">
						<g id="Line_24">
							
								<rect x="-1621.58" y="-20.71" transform="matrix(0.9554 -0.2955 0.2955 0.9554 -66.369 -479.1511)" class="st42" width="5.73" height="1.5"/>
						</g>
						<g id="Line_25">
							
								<rect x="-1622.8" y="-23.06" transform="matrix(0.9554 -0.2955 0.2955 0.9554 -65.7287 -479.6184)" class="st42" width="5.73" height="1.5"/>
						</g>
						<g id="Line_26">
							
								<rect x="-1623.64" y="-25.82" transform="matrix(0.9554 -0.2955 0.2955 0.9554 -64.9516 -479.9899)" class="st42" width="5.73" height="1.5"/>
						</g>
					</g>
					<g id="Group_3968" transform="translate(18.865 1.257)">
						<g id="Line_27">
							
								<rect x="-1619.46" y="-21.36" transform="matrix(0.9554 -0.2955 0.2955 0.9554 -66.0818 -478.5561)" class="st42" width="5.73" height="1.5"/>
						</g>
						<g id="Line_28">
							
								<rect x="-1620.69" y="-23.71" transform="matrix(0.9554 -0.2955 0.2955 0.9554 -65.4414 -479.0233)" class="st42" width="5.73" height="1.5"/>
						</g>
						<g id="Line_29">
							
								<rect x="-1621.53" y="-26.47" transform="matrix(0.9554 -0.2955 0.2955 0.9554 -64.6642 -479.3951)" class="st42" width="5.73" height="1.5"/>
						</g>
					</g>
					<path id="Path_3580" class="st43" d="M-1628.15-18.12c0.74-0.23,2.16,2.31,3.17,5.66c1.01,3.35,1.23,6.25,0.49,6.47
						c-0.74,0.23-2.16-2.31-3.17-5.66C-1628.67-14.99-1628.89-17.89-1628.15-18.12z"/>
				</g>
				<path id="Path_3555" d="M-1584.5-8.01l5.12-2.38c1.69,1.63,2.44,4.02,1.97,6.34l-5.51,1.98
					C-1582.92-2.07-1582.14-6.83-1584.5-8.01z"/>
				<path id="Path_3556" d="M-1573.48-12.77l5.12-2.38c1.69,1.63,2.44,4.02,1.97,6.34l-5.51,1.98
					C-1571.91-6.83-1571.12-11.58-1573.48-12.77z"/>
				<rect id="Rectangle_20255" x="-1588.04" y="-33.36" width="1.18" height="4.75"/>
			</g>
			<g id="Group_3971">
				<path id="Path_3557" class="st3" d="M-1589.42-30.1c-1.57-0.1-3.07,0.66-3.94,1.98c0,0-0.98,2.58-6.49,2.18
					c0,0-15.34,1.19-25.18-5.15c0,0,0-3.17-2.75-3.56c-1.53-0.21-2.94,0.88-3.14,2.43c-0.03,0.25-0.03,0.49,0,0.74
					c0,0,0,1.98,3.54,3.17c6.65,2.87,13.67,4.73,20.86,5.54h11.41c0,0,0.39,4.36,2.75,5.54l4.33-2.77c0.51-2.25,2.15-4.06,4.33-4.75
					l0.07-0.94L-1589.42-30.1z"/>
				<path id="Path_3558" class="st36" d="M-1622.29-26.35c0,0-6.46-2.73-6.68-5.13c-0.2-2.18,1.43-1.9,1.97-1.59
					c0.72,0.59,1.38,1.26,1.97,1.98c-0.05-1.74-1.3-3.22-3-3.52c0,0-3.89,0.14-2.91,3.52
					C-1630.93-31.09-1630.34-28.51-1622.29-26.35z"/>
				<path id="Path_3559" class="st36" d="M-1594.88-21.62c0,0-0.83-4.91,1.53-5.3c0,0,4.33-0.4,5.12,7.13l-4.33,2.77
					C-1592.56-17.02-1594.83-19.49-1594.88-21.62z"/>
			</g>
		</g>
	</g>
	<g id="Group_3986" transform="translate(123.674 5.564)">
		<g id="Group_3976" transform="translate(0 0.243)">
			<path id="Path_3560" class="st27" d="M-1522.42-22.02c0,0-20.26-8.91-32.66-11.09c0,0-17.12-1.78-22.62-1.39l-0.39,9.51
				c0,0,12.59-1.19,20.07,0.79c0,0,21.25,3.96,33.05,10.69L-1522.42-22.02z"/>
			<g id="Group_3975">
				<g>
					<defs>
						<path id="SVGID_7_" d="M-1522.42-22.02c0,0-20.26-8.91-32.66-11.09c0,0-17.12-1.78-22.62-1.39l-0.39,9.51
							c0,0,12.59-1.19,20.07,0.79c0,0,21.25,3.96,33.05,10.69L-1522.42-22.02z"/>
					</defs>
					<clipPath id="SVGID_4_">
						<use xlink:href="#SVGID_7_"  style="overflow:visible;"/>
					</clipPath>
					<g id="Group_3974" class="st26">
						<path id="Path_3561" class="st22" d="M-1523.09-19.49c0,0-25.08-10-32.57-11.05c-5.52-0.77-15.05-1.8-22.28-0.3v2.86
							c0,0,15.77-1.38,26.21,1.4c7.25,1.93,28.33,9.9,28.33,9.9L-1523.09-19.49z"/>
					</g>
				</g>
			</g>
		</g>
		<g id="Group_3985" transform="translate(36.359)">
			<g id="Group_3983" transform="translate(0 2.476)">
				<path id="Path_3563" class="st2" d="M-1531.03-21.68l-12.79-5.35l0.39-0.79l4.72,0.4v-0.79h4.33c0,0,1.18,0,1.57-1.98
					c0,0,0.59-3.37-1.77-3.37h-12.59l-0.39,4.36l-6.69-1.98c0,0-7.08,5.54-8.26,22.58l22.82,9.9c-0.47-2.22-0.47-4.51,0-6.73
					C-1538.68-11.6-1535.36-20.1-1531.03-21.68z"/>
				<path id="Path_3581" d="M-1538.1-11.05c2.28-6.52,5.58-11.29,7.37-10.66c1.78,0.63,1.38,6.43-0.9,12.96
					c-2.28,6.52-5.58,11.29-7.37,10.67C-1540.78,1.28-1540.38-4.53-1538.1-11.05z"/>
				<g id="Group_3977" transform="translate(17.915 13.343)">
					<path id="Path_3564" class="st27" d="M-1550.13-25.91c-1.3,2.02-2.11,4.33-2.36,6.73c0,0,0,0.79-1.18,0.4c0,0-1.97,0-0.79-3.56
						c0,0,0.79-4.36,2.75-5.15C-1551.7-27.5-1549.34-28.29-1550.13-25.91z"/>
					<path id="Path_3565" class="st22" d="M-1551.15-23.73l-2.52-1l-1.02,2.94l2.59,1.02L-1551.15-23.73z"/>
				</g>
				<g id="Group_3982" transform="translate(19.999 14.458)">
					<path id="Path_3566" class="st2" d="M-1550.63-27.13l31.27,10.92l-2.52,7.87l-32.07-10.54L-1550.63-27.13z"/>
					<g id="Group_3978" transform="translate(17.139 6.213)">
						<g id="Line_30">
							
								<rect x="-1544.61" y="-21.27" transform="matrix(0.2954 -0.9554 0.9554 0.2954 -1070.2153 -1487.9313)" class="st42" width="1.5" height="5.73"/>
						</g>
						<g id="Line_31">
							
								<rect x="-1543.38" y="-23.63" transform="matrix(0.2954 -0.9554 0.9554 0.2954 -1067.177 -1488.4406)" class="st42" width="1.5" height="5.73"/>
						</g>
						<g id="Line_32">
							
								<rect x="-1542.54" y="-26.38" transform="matrix(0.2954 -0.9554 0.9554 0.2954 -1063.9514 -1489.5808)" class="st42" width="1.5" height="5.73"/>
						</g>
					</g>
					<g id="Group_3979" transform="translate(12.214 4.471)">
						<g id="Line_33">
							
								<rect x="-1546.72" y="-22.05" transform="matrix(0.2955 -0.9553 0.9553 0.2955 -1070.7966 -1490.4406)" class="st42" width="1.5" height="5.73"/>
						</g>
						<g id="Line_34">
							
								<rect x="-1545.49" y="-24.4" transform="matrix(0.2956 -0.9553 0.9553 0.2956 -1067.6107 -1490.9016)" class="st42" width="1.5" height="5.73"/>
						</g>
						<g id="Line_35">
							
								<rect x="-1544.65" y="-27.16" transform="matrix(0.2954 -0.9554 0.9554 0.2954 -1064.6238 -1492.1196)" class="st42" width="1.5" height="5.73"/>
						</g>
					</g>
					<g id="Group_3980" transform="translate(7.014 2.725)">
						<g id="Line_36">
							
								<rect x="-1548.95" y="-22.82" transform="matrix(0.2954 -0.9554 0.9554 0.2954 -1071.7897 -1493.1702)" class="st42" width="1.5" height="5.73"/>
						</g>
						<g id="Line_37">
							
								<rect x="-1547.72" y="-25.18" transform="matrix(0.2954 -0.9554 0.9554 0.2954 -1068.7516 -1493.6794)" class="st42" width="1.5" height="5.73"/>
						</g>
						<g id="Line_38">
							
								<rect x="-1546.88" y="-27.93" transform="matrix(0.2956 -0.9553 0.9553 0.2956 -1065.212 -1494.7172)" class="st42" width="1.5" height="5.73"/>
						</g>
					</g>
					<g id="Group_3981" transform="translate(2.084 1.257)">
						<g id="Line_39">
							
								<rect x="-1551.06" y="-23.48" transform="matrix(0.2954 -0.9554 0.9554 0.2954 -1072.7284 -1495.6725)" class="st42" width="1.5" height="5.73"/>
						</g>
						<g id="Line_40">
							
								<rect x="-1549.83" y="-25.83" transform="matrix(0.2954 -0.9554 0.9554 0.2954 -1069.5421 -1496.1338)" class="st42" width="1.5" height="5.73"/>
						</g>
						<g id="Line_41">
							
								<rect x="-1548.99" y="-28.59" transform="matrix(0.2954 -0.9554 0.9554 0.2954 -1066.3156 -1497.2745)" class="st42" width="1.5" height="5.73"/>
						</g>
					</g>
					<path id="Path_3582" class="st43" d="M-1520.98-12.46c1.01-3.35,2.43-5.88,3.17-5.66s0.52,3.12-0.49,6.47
						c-1.01,3.35-2.43,5.88-3.17,5.66S-1521.99-9.12-1520.98-12.46z"/>
				</g>
				<path id="Path_3567" d="M-1541.46-8.01l-5.12-2.38c-1.69,1.63-2.44,4.02-1.97,6.34l5.51,1.98
					C-1543.04-2.07-1543.82-6.83-1541.46-8.01z"/>
				<path id="Path_3568" d="M-1552.48-12.77l-5.11-2.38c-1.69,1.63-2.44,4.02-1.97,6.34l5.51,1.98
					C-1554.05-6.83-1554.84-11.58-1552.48-12.77z"/>
				<rect id="Rectangle_20256" x="-1539.1" y="-33.36" width="1.18" height="4.75"/>
			</g>
			<g id="Group_3984" transform="translate(16.751)">
				<path id="Path_3569" class="st3" d="M-1549.55-30.1c1.57-0.1,3.07,0.66,3.94,1.98c0,0,0.98,2.58,6.49,2.18
					c0,0,15.34,1.19,25.18-5.15c0,0,0-3.17,2.75-3.56c1.53-0.21,2.94,0.88,3.14,2.43c0.03,0.25,0.03,0.49,0,0.74
					c0,0,0,1.98-3.54,3.17c-6.65,2.87-13.67,4.73-20.86,5.54h-11.41c0,0-0.39,4.36-2.75,5.54l-4.33-2.77
					c-0.51-2.25-2.15-4.06-4.33-4.75l-0.07-0.94L-1549.55-30.1z"/>
				<path id="Path_3570" class="st36" d="M-1516.69-26.35c0,0,6.46-2.73,6.68-5.13c0.2-2.18-1.43-1.9-1.97-1.59
					c-0.72,0.59-1.38,1.26-1.97,1.98c0.05-1.74,1.3-3.22,3-3.52c0,0,3.89,0.14,2.91,3.52
					C-1508.05-31.09-1508.64-28.51-1516.69-26.35z"/>
				<path id="Path_3571" class="st36" d="M-1544.1-21.62c0,0,0.83-4.91-1.53-5.3c0,0-4.33-0.4-5.12,7.13l4.33,2.77
					C-1546.41-17.02-1544.14-19.49-1544.1-21.62z"/>
			</g>
		</g>
	</g>
	<g id="Group_3991" transform="translate(85.499 0)">
		<path id="Path_3572" class="st4" d="M-1576.35-29.88h18.1c1.76-0.07,3.43-0.77,4.72-1.98c0,0,3.94-5.54,7.48-5.15
			c0,0,5.51,0,6.3,4.75v15.05c0,0-0.39,6.73-5.12,6.73c0,0-3.14,1.59-7.87-4.36c-1.39-1.59-3.41-2.46-5.51-2.38h-17.31
			c-2.03-0.12-4.01,0.6-5.51,1.98c-1.61,2.69-4.38,4.45-7.48,4.75c0,0-5.51-0.4-5.9-5.54v-14.66c0,0,0-6.34,5.11-6.34
			c0,0,3.94-1.19,6.69,3.56C-1582.65-33.44-1579.5-29.09-1576.35-29.88z"/>
		<g id="Group_3987" transform="translate(1.653 2.832)">
			<ellipse id="Ellipse_166" class="st27" cx="-1590.4" cy="-32.51" rx="3.34" ry="3.37"/>
			<path id="Path_3573" class="st0" d="M-1588.82-32.91h-1.18v-1.19c0-0.22-0.18-0.4-0.39-0.4c-0.22,0-0.39,0.18-0.39,0.4v1.19
				h-1.18c-0.22,0-0.39,0.18-0.39,0.4c0,0.22,0.18,0.4,0.39,0.4h1.18v1.19c0,0.22,0.18,0.4,0.39,0.4c0.22,0,0.39-0.18,0.39-0.4
				v-1.19h1.18c0.22,0,0.39-0.18,0.39-0.4C-1588.43-32.73-1588.61-32.91-1588.82-32.91L-1588.82-32.91z"/>
		</g>
		<g id="Group_3988" transform="translate(1.653 11.329)">
			<ellipse id="Ellipse_167" class="st27" cx="-1590.4" cy="-28.73" rx="3.34" ry="3.37"/>
			<path id="Path_3574" class="st0" d="M-1588.82-29.12h-1.18v-1.19c0-0.22-0.18-0.4-0.39-0.4c-0.22,0-0.39,0.18-0.39,0.4v1.19
				h-1.18c-0.22,0-0.39,0.18-0.39,0.4c0,0.22,0.18,0.4,0.39,0.4h1.18v1.19c0,0.22,0.18,0.4,0.39,0.4c0.22,0,0.39-0.18,0.39-0.4
				v-1.19h1.18c0.22,0,0.39-0.18,0.39-0.4C-1588.43-28.95-1588.61-29.12-1588.82-29.12L-1588.82-29.12z"/>
		</g>
		<g id="Group_3989" transform="translate(31.401 2.832)">
			<ellipse id="Ellipse_168" class="st27" cx="-1577.65" cy="-32.51" rx="3.34" ry="3.37"/>
			<path id="Path_3575" class="st0" d="M-1576.08-32.91h-1.18v-1.19c0-0.22-0.18-0.4-0.39-0.4c-0.22,0-0.39,0.18-0.39,0.4v1.19
				h-1.18c-0.22,0-0.39,0.18-0.39,0.4c0,0.22,0.18,0.4,0.39,0.4h1.18v1.19c0,0.22,0.18,0.4,0.39,0.4c0.22,0,0.39-0.18,0.39-0.4
				v-1.19h1.18c0.22,0,0.39-0.18,0.39-0.4C-1575.69-32.73-1575.86-32.91-1576.08-32.91z"/>
		</g>
		<g id="Group_3990" transform="translate(31.401 11.329)">
			<ellipse id="Ellipse_169" class="st27" cx="-1577.65" cy="-28.73" rx="3.34" ry="3.37"/>
			<path id="Path_3576" class="st0" d="M-1576.08-29.12h-1.18v-1.19c0-0.22-0.18-0.4-0.39-0.4c-0.22,0-0.39,0.18-0.39,0.4v1.19
				h-1.18c-0.22,0-0.39,0.18-0.39,0.4c0,0.22,0.18,0.4,0.39,0.4h1.18v1.19c0,0.22,0.18,0.4,0.39,0.4c0.22,0,0.39-0.18,0.39-0.4
				v-1.19h1.18c0.22,0,0.39-0.18,0.39-0.4C-1575.69-28.95-1575.86-29.12-1576.08-29.12z"/>
		</g>
		<ellipse id="Ellipse_170" class="st27" cx="-1567.11" cy="-20.18" rx="8.46" ry="0.99"/>
	</g>
</g>
</svg>
