<?xml version="1.0" encoding="utf-8"?>
<!-- Generator: Adobe Illustrator 24.2.3, SVG Export Plug-In . SVG Version: 6.00 Build 0)  -->
<svg version="1.1" id="Layer_1" xmlns="http://www.w3.org/2000/svg" xmlns:xlink="http://www.w3.org/1999/xlink" x="0px" y="0px"
	 viewBox="0 0 300 790.24" style="enable-background:new 0 0 300 790.24;" xml:space="preserve">
<style type="text/css">
	.st0{fill:#E3E3E4;}
	.st1{fill:#282929;}
	.st2{fill:#C6C6C8;}
	.st3{fill:#788E98;}
	.st4{clip-path:url(#SVGID_2_);}
	.st5{fill:#8C8B8B;}
	.st6{fill:#4F4F4F;}
	.st7{fill:#DFDFDE;stroke:#BBBBBB;stroke-miterlimit:10;}
	.st8{clip-path:url(#SVGID_4_);}
	.st9{fill:url(#Path_3124_1_);}
	.st10{clip-path:url(#SVGID_6_);}
	.st11{fill:url(#Path_3127_1_);}
	.st12{fill:none;stroke:#BBBBBB;stroke-miterlimit:10;}
	.st13{fill:#FFD465;}
	.st14{fill:none;stroke:#BBBBBB;stroke-width:2;stroke-miterlimit:10;}
	.st15{fill:#7C8E95;}
	.st16{fill:#C7C7C9;}
	.st17{fill:#3A3A3A;}
	.st18{fill:#D12B27;}
	.st19{fill:#EDF2F6;}
	.st20{fill:#DBDADD;}
	.st21{fill:#F2F2F2;}
	.st22{fill:#8A8E95;}
	.st23{opacity:0.7;fill:#A7CCDF;enable-background:new    ;}
	.st24{opacity:0.7;fill:#C2DFE5;enable-background:new    ;}
	.st25{opacity:0.5;fill:#9599A4;enable-background:new    ;}
	.st26{opacity:0.5;fill:#ADAFB6;enable-background:new    ;}
	.st27{fill:#21140C;}
	.st28{fill:#382215;}
	.st29{fill:#301919;}
	.st30{fill:url(#Path_6816_2_);}
	.st31{fill:url(#Path_6817_2_);}
	.st32{fill:url(#Path_6818_2_);}
	.st33{fill:url(#Path_6819_2_);}
	.st34{fill:#2A1A11;}
	.st35{clip-path:url(#SVGID_8_);}
	.st36{fill:#E9E8EC;}
	.st37{fill:url(#Path_6825_2_);}
	.st38{fill:url(#Path_6827_2_);}
	.st39{fill:url(#Path_6828_2_);}
	.st40{fill:url(#Rectangle_24379_2_);}
	.st41{fill:#D3C4AA;}
	.st42{fill:url(#Path_6830_2_);}
	.st43{fill:url(#Rectangle_24403_2_);}
	.st44{clip-path:url(#SVGID_10_);}
	.st45{fill:url(#Path_6831_1_);}
	.st46{fill:url(#Path_6832_1_);}
	.st47{fill:url(#Path_6831_4_);}
	.st48{fill:url(#Path_6832_4_);}
	.st49{fill:url(#Path_6833_2_);}
	.st50{fill:url(#Path_6834_2_);}
	.st51{fill:url(#Path_6835_2_);}
	.st52{fill:url(#Path_6836_2_);}
	.st53{fill:url(#Path_6837_2_);}
	.st54{fill:url(#Path_6838_2_);}
	.st55{clip-path:url(#SVGID_12_);}
	.st56{fill:#FFE340;}
	.st57{fill:#FFE33E;}
	.st58{fill:#FFE13D;}
	.st59{fill:#FDE03E;}
	.st60{fill:#FDDF3C;}
	.st61{fill:#FCDE3C;}
	.st62{fill:#FCDD3B;}
	.st63{fill:#FDDC3B;}
	.st64{fill:#FDDB3A;}
	.st65{fill:#FCDA39;}
	.st66{fill:#FBD939;}
	.st67{fill:#FCD838;}
	.st68{fill:#FCD736;}
	.st69{fill:#FCD636;}
	.st70{fill:#FCD635;}
	.st71{fill:#FCD634;}
	.st72{fill:#FCD434;}
	.st73{fill:#FCD333;}
	.st74{fill:#FBD232;}
	.st75{fill:#FBD132;}
	.st76{fill:#FBD131;}
	.st77{fill:#FBD030;}
	.st78{fill:#FBCF30;}
	.st79{fill:#FBCE30;}
	.st80{fill:#FBCD2F;}
	.st81{fill:#FBCC2E;}
	.st82{fill:#FACB2C;}
	.st83{fill:#FACA2B;}
	.st84{fill:#FAC92A;}
	.st85{fill:#FAC829;}
	.st86{fill:#FAC729;}
	.st87{fill:#F9C629;}
	.st88{fill:#F9C526;}
	.st89{fill:#F8C325;}
	.st90{fill:#F8C224;}
	.st91{fill:#F8C124;}
	.st92{fill:#F8C023;}
	.st93{fill:#F7BF21;}
	.st94{fill:#F6BE21;}
	.st95{fill:#F6BD21;}
	.st96{fill:#F6BC20;}
	.st97{fill:#F6BB1E;}
	.st98{fill:#F6BA1D;}
	.st99{fill:#F6B91D;}
	.st100{fill:#F5B81D;}
	.st101{fill:#F5B61C;}
	.st102{fill:#F5B41B;}
	.st103{fill:#F6B419;}
	.st104{fill:#F6B319;}
	.st105{fill:#F5B11A;}
	.st106{fill:#F4B11A;}
	.st107{fill:#F4B01A;}
	.st108{fill:#F4AF1B;}
	.st109{fill:#F4AE1B;}
	.st110{fill:#F3AD1C;}
	.st111{fill:#F3AC1C;}
	.st112{fill:#F3AB1C;}
	.st113{fill:#F3AA1C;}
	.st114{fill:#F3A71D;}
	.st115{fill:#F3A61D;}
	.st116{fill:#F3A51D;}
	.st117{fill:#F2A31E;}
	.st118{fill:#F2A21E;}
	.st119{fill:#F1A11E;}
	.st120{fill:#F1A01F;}
	.st121{fill:#F19F1F;}
	.st122{fill:#F29F1E;}
	.st123{fill:#F29D1F;}
	.st124{fill:#F19C1F;}
	.st125{fill:#F09A1F;}
	.st126{fill:#F1991F;}
	.st127{fill:#F19820;}
	.st128{fill:#EF9720;}
	.st129{fill:#EF9620;}
	.st130{fill:#EF9521;}
	.st131{fill:#EF9321;}
	.st132{fill:#F09220;}
	.st133{fill:#EF9121;}
	.st134{fill:#EF8F21;}
	.st135{fill:#EE8F21;}
	.st136{clip-path:url(#SVGID_14_);}
	.st137{fill:url(#Path_7011_2_);}
	.st138{fill:url(#Path_7012_2_);}
	.st139{fill:url(#Path_7013_2_);}
	.st140{fill:url(#Path_7016_2_);}
	.st141{fill:url(#Path_7017_2_);}
	.st142{fill:url(#Path_7020_2_);}
	.st143{fill:url(#Path_7021_2_);}
	.st144{fill:url(#Path_7024_2_);}
	.st145{fill:url(#Path_7025_2_);}
	.st146{fill:url(#Path_7026_2_);}
	.st147{fill:url(#Path_7027_2_);}
	.st148{fill:url(#Rectangle_24409_1_);}
	.st149{fill:url(#Rectangle_24410_1_);}
	.st150{fill:url(#Rectangle_24411_1_);}
	.st151{fill:url(#Rectangle_24412_1_);}
	.st152{fill:url(#Rectangle_24413_1_);}
	.st153{fill:url(#Rectangle_24414_1_);}
	.st154{fill:url(#Rectangle_24415_1_);}
	.st155{fill:url(#Rectangle_24416_1_);}
	.st156{fill:url(#Rectangle_24417_1_);}
	.st157{fill:url(#Rectangle_24418_1_);}
	.st158{fill:url(#Rectangle_24419_1_);}
	.st159{fill:url(#Rectangle_24420_1_);}
	.st160{fill:url(#Rectangle_24421_1_);}
	.st161{fill:url(#Rectangle_24409_2_);}
	.st162{fill:url(#Rectangle_24410_2_);}
	.st163{fill:url(#Rectangle_24411_2_);}
	.st164{fill:url(#Rectangle_24412_2_);}
	.st165{fill:url(#Rectangle_24413_2_);}
	.st166{fill:url(#Rectangle_24414_2_);}
	.st167{fill:url(#Rectangle_24415_2_);}
	.st168{fill:url(#Rectangle_24416_2_);}
	.st169{fill:url(#Rectangle_24417_2_);}
	.st170{fill:url(#Rectangle_24418_2_);}
	.st171{fill:url(#Rectangle_24419_2_);}
	.st172{fill:url(#Rectangle_24420_2_);}
	.st173{fill:url(#Rectangle_24421_2_);}
	.st174{fill:url(#Rectangle_24409_3_);}
	.st175{fill:url(#Rectangle_24410_3_);}
	.st176{fill:url(#Rectangle_24411_3_);}
	.st177{fill:url(#Rectangle_24412_3_);}
	.st178{fill:url(#Rectangle_24413_3_);}
	.st179{fill:url(#Rectangle_24414_3_);}
	.st180{fill:url(#Rectangle_24415_3_);}
	.st181{fill:url(#Rectangle_24416_3_);}
	.st182{fill:url(#Rectangle_24417_3_);}
	.st183{fill:url(#Rectangle_24418_3_);}
	.st184{fill:url(#Rectangle_24419_3_);}
	.st185{fill:url(#Rectangle_24420_3_);}
	.st186{fill:url(#Rectangle_24421_3_);}
	.st187{fill:url(#Rectangle_24409_8_);}
	.st188{fill:url(#Rectangle_24410_8_);}
	.st189{fill:url(#Rectangle_24411_8_);}
	.st190{fill:url(#Rectangle_24412_8_);}
	.st191{fill:url(#Rectangle_24413_8_);}
	.st192{fill:url(#Rectangle_24414_8_);}
	.st193{fill:url(#Rectangle_24415_8_);}
	.st194{fill:url(#Rectangle_24416_8_);}
	.st195{fill:url(#Rectangle_24417_8_);}
	.st196{fill:url(#Rectangle_24418_8_);}
	.st197{fill:url(#Rectangle_24419_8_);}
	.st198{fill:url(#Rectangle_24420_8_);}
	.st199{fill:url(#Rectangle_24421_8_);}
	.st200{fill:url(#Path_7028_2_);}
	.st201{fill:url(#Path_7029_2_);}
	.st202{fill:#B2B3B3;}
	.st203{fill:url(#Rectangle_24435_2_);}
	.st204{fill:#9E3E22;}
	.st205{fill:url(#Path_7034_2_);}
	.st206{fill:url(#Path_7035_2_);}
	.st207{fill:#C6C1A8;}
	.st208{fill:#EFBD89;}
	.st209{fill:#FFFDF1;}
	.st210{fill:#D0A478;}
	.st211{fill:#E7B989;}
	.st212{fill:#A5774D;}
	.st213{fill:#B98457;}
	.st214{fill:#185F79;}
	.st215{fill:#FFD736;}
	.st216{fill:#114659;}
	.st217{fill:#0C3442;}
	.st218{fill:#58C0ED;}
	.st219{fill:#3FA3DB;}
	.st220{fill:#F0624A;}
	.st221{opacity:0.1;fill:#B98457;}
	.st222{fill:#F68E1E;}
	.st223{fill:url(#Path_3223_2_);}
	.st224{fill:#F79420;}
	.st225{fill:url(#Path_3226_2_);}
	.st226{fill:url(#Path_3227_2_);}
	.st227{fill:#FCC962;}
	.st228{fill:#FBC861;}
	.st229{fill:#FAA819;}
	.st230{fill:url(#Path_3232_2_);}
	.st231{fill:url(#Path_3234_2_);}
	.st232{fill:url(#Path_3235_2_);}
	.st233{fill:url(#Path_3237_2_);}
	.st234{fill:url(#Path_3238_2_);}
	.st235{fill:#00384B;}
	.st236{fill:url(#Path_3240_2_);}
	.st237{fill:url(#Path_3242_2_);}
	.st238{fill:url(#Rectangle_20194_2_);}
	.st239{fill:#E3E2E2;}
	.st240{fill:#C8C8C8;}
	.st241{fill:#071F28;}
	.st242{fill:#286377;}
	.st243{opacity:0.5;fill:#FBC861;}
	.st244{opacity:0.67;fill:#FAA819;enable-background:new    ;}
	.st245{fill:url(#Rectangle_20198_2_);}
	.st246{fill:url(#Rectangle_20199_2_);}
	.st247{fill:url(#Rectangle_20200_2_);}
	.st248{fill:url(#Rectangle_20201_2_);}
	.st249{fill:url(#Rectangle_20202_2_);}
	.st250{fill:url(#Rectangle_20203_2_);}
	.st251{fill:url(#Rectangle_20204_2_);}
	.st252{fill:url(#Rectangle_20205_2_);}
	.st253{fill:url(#Rectangle_20206_2_);}
	.st254{fill:url(#Rectangle_20207_2_);}
	.st255{opacity:0.36;fill:#C1C1C1;enable-background:new    ;}
	.st256{fill:url(#Rectangle_20217_2_);}
	.st257{fill:url(#Path_3254_2_);}
	.st258{fill:url(#Path_3257_2_);}
	.st259{fill:url(#Path_3258_2_);}
	.st260{fill:url(#Path_3260_2_);}
	.st261{fill:url(#Path_3261_2_);}
	.st262{fill:url(#Path_3262_2_);}
	.st263{fill:url(#Path_3263_2_);}
	.st264{fill:url(#Path_3264_2_);}
	.st265{fill:url(#Path_3265_2_);}
	.st266{fill:url(#Path_3266_2_);}
	.st267{fill:url(#Path_3267_2_);}
	.st268{fill:url(#Path_3268_2_);}
	.st269{fill:url(#Path_3269_2_);}
	.st270{fill:url(#Path_3270_2_);}
	.st271{fill:url(#Path_3271_2_);}
	.st272{fill:url(#Path_3272_2_);}
	.st273{fill:url(#Path_3276_2_);}
	.st274{fill:url(#Path_3277_2_);}
	.st275{fill:url(#Path_3283_2_);}
	.st276{fill:url(#Path_3284_2_);}
	.st277{fill:url(#Path_3285_2_);}
	.st278{fill:url(#Path_3286_2_);}
	.st279{opacity:0.63;fill:#DFDFDE;enable-background:new    ;}
	.st280{opacity:0.48;fill:#CECECD;enable-background:new    ;}
	.st281{fill:#D5D6D5;}
	.st282{fill:url(#Rectangle_20235_2_);}
	.st283{fill:#CDCCCC;}
</style>
<g id="Group_3846_1_" transform="translate(-1526.971 -439.332)">
	<g transform="matrix(1, 0, 0, 1, 1526.97, 439.33)">
		<path id="Path_3220-2_1_" class="st208" d="M154.84,0c0,0-152.57,221.66-154.75,357.8c-1.73,107.81,24.83,318.51,35.96,373.26
			c2.71,13.27,14.14,22.86,27.5,23.06l81.23,1.3l81.23,1.3c13.37,0.22,25.09-8.99,28.22-22.17
			c12.88-54.37,44.01-264.14,45.74-371.95C302.16,226.46,154.84,0,154.84,0z"/>
	</g>
	<g id="Group_3845_1_" transform="translate(2153.107 676.428) rotate(158)">
		<g id="Group_3844_1_" transform="translate(346.593 126.516)">
			<path id="Path_3177_1_" class="st208" d="M1.58,269.86c0,0,224.49-148.36,277.52-273.77c41.99-99.31,96.29-304.62,106.48-359.55
				c2.46-13.32-4.55-26.49-16.86-31.68l-74.83-31.63l-74.83-31.64c-12.31-5.21-26.64-1.06-34.48,9.98
				C152.27-402.86,44.83-220.01,2.84-120.71C-50.19,4.7,1.58,269.86,1.58,269.86z"/>
			<path id="Path_3178_1_" class="st209" d="M215.68-450.43c-8.61-3.7-18.67-0.78-24.13,6.98
				c-32.89,46.4-139.32,227.93-180.82,326.07C-34.22-11.08-6.58,216.86,6.65,257.85C45.29,238.79,226.26,99.04,271.21-7.26
				c41.49-98.14,95.56-301.8,105.94-357.73c1.77-9.33-3.15-18.57-11.8-22.17L215.68-450.43z"/>
			<path id="Path_3179_1_" class="st208" d="M71.94,198.18L3.98,169.44c-14.3-67.41-1.95-214.92,25.16-279.04
				c40.71-96.28,157.94-293.36,190.42-339.2l141.84,59.97c-10.25,55.28-67.91,277.51-108.61,373.78
				C225.68,49.08,130.26,161.48,71.94,198.18z"/>
			<path id="Path_3180_1_" class="st210" d="M183.68-355.22C149.39-305.67,91.45-183.63,55.44-98.46
				C32.95-45.28,17.43,88.4,29.02,148.62l40.42,17.09C120.7,132.06,204,27.03,226.49-26.15c35.94-84.99,80.62-214.63,92.27-273.8
				L183.68-355.22z"/>
			<path id="Path_3181_1_" class="st208" d="M37.89,217c2.8-6.63-0.22-14.25-6.76-17.02c-6.54-2.77-14.11,0.36-16.92,7
				c-2.8,6.63,0.22,14.25,6.76,17.02c0,0,0,0,0,0c6.53,2.77,14.11-0.36,16.91-6.99C37.88,217,37.89,217,37.89,217z"/>
			<path id="Path_3182_1_" class="st211" d="M24.24,206.24c-3.63,8.59,3.85,15.13,10.91,14.83c-4.99,5.15-13.14,5.28-18.19,0.29
				s-5.1-13.22-0.11-18.37c2.73-2.81,6.55-4.25,10.41-3.9L24.24,206.24z"/>
			<polygon id="Rectangle_20179_1_" class="st209" points="149.96,-345.33 166.67,-385.89 357.11,-305.32 340.39,-264.77 			"/>
			<path id="Path_3183_1_" class="st209" d="M187.1,96.88L-3.35,16.36L16.16-78.9l99.8,75.71l123.86,18.84L187.1,96.88z"/>
			<g id="Group_3840_1_" transform="translate(47.886 44.724)">
				
					<rect id="Rectangle_20180_1_" x="-4.25" y="-258.49" transform="matrix(0.3892 -0.9211 0.9211 0.3892 288.9104 -70.5245)" class="st212" width="191.06" height="10.74"/>
				<polygon id="Rectangle_20181_1_" class="st212" points="157.02,-121.62 244.29,-329.57 254.18,-325.39 166.91,-117.43 				"/>
				
					<rect id="Rectangle_20182_3_" x="163.49" y="-371.25" transform="matrix(0.3889 -0.9213 0.9213 0.3889 382.1178 -22.246)" class="st213" width="21.6" height="144.2"/>
				
					<rect id="Rectangle_20182_2_" x="175.37" y="-400.66" transform="matrix(0.3889 -0.9213 0.9213 0.3889 416.4651 -29.2699)" class="st213" width="21.6" height="144.2"/>
				
					<rect id="Rectangle_20183_1_" x="152.3" y="-344.75" transform="matrix(0.3892 -0.9212 0.9212 0.3892 350.7599 -16.2854)" class="st213" width="21.6" height="144.23"/>
				
					<rect id="Rectangle_20184_1_" x="141.1" y="-318.27" transform="matrix(0.3892 -0.9212 0.9212 0.3892 319.5232 -10.4252)" class="st213" width="21.6" height="144.23"/>
				
					<rect id="Rectangle_20185_1_" x="129.9" y="-291.78" transform="matrix(0.3892 -0.9212 0.9212 0.3892 288.2858 -4.5615)" class="st213" width="21.6" height="144.23"/>
				
					<rect id="Rectangle_20186_1_" x="118.7" y="-265.29" transform="matrix(0.3892 -0.9212 0.9212 0.3892 257.0469 1.3)" class="st213" width="21.6" height="144.23"/>
				
					<rect id="Rectangle_20187_1_" x="107.5" y="-238.81" transform="matrix(0.3892 -0.9212 0.9212 0.3892 225.808 7.1616)" class="st213" width="21.6" height="144.23"/>
			</g>
			<path id="Path_3184_1_" class="st214" d="M34.74-122.38c6.36-2.84,31.77-0.98,31.77-0.98L237.1-51.25
				c0,0,15.18,13.55,20.96,23.28c-9.1,22.08-29.11,53.51-54.57,56.19S41.2-33.02,41.2-33.02S22.01-109.89,34.74-122.38z"/>
			<g id="Group_3841_1_" transform="translate(88.265 149.175)">
				<path id="Path_3185_1_" class="st215" d="M105.11-199.56c0.51-1.21-0.04-2.6-1.23-3.1c-1.19-0.5-2.57,0.07-3.08,1.28
					c-0.51,1.21,0.04,2.6,1.23,3.1C103.22-197.78,104.59-198.35,105.11-199.56C105.11-199.56,105.11-199.56,105.11-199.56z"/>
				<path id="Path_3186_1_" class="st215" d="M114.33-195.67c0.51-1.21-0.04-2.6-1.23-3.1c-1.19-0.5-2.57,0.07-3.08,1.28
					c-0.51,1.21,0.04,2.6,1.23,3.1C112.44-193.89,113.82-194.46,114.33-195.67z"/>
				<path id="Path_3187_1_" class="st215" d="M123.55-191.77c0.51-1.21-0.04-2.6-1.23-3.11c-1.19-0.51-2.57,0.06-3.09,1.27
					c-0.51,1.21,0.04,2.6,1.23,3.11c0,0,0,0,0.01,0C121.66-189.99,123.04-190.56,123.55-191.77
					C123.55-191.76,123.55-191.77,123.55-191.77z"/>
				<path id="Path_3188_1_" class="st215" d="M140.1-177.84c1.33-3.14-0.1-6.74-3.19-8.05c-3.09-1.31-6.68,0.17-8,3.3
					c-1.33,3.14,0.1,6.74,3.19,8.05c0,0,0,0,0.01,0C135.19-173.23,138.77-174.7,140.1-177.84
					C140.1-177.84,140.1-177.84,140.1-177.84z"/>
			</g>
			<path id="Path_3190_1_" class="st216" d="M35.04-122.48c6.76-2.69,31.48-0.88,31.48-0.88L237.1-51.25
				c0,0,14.86,13.27,20.78,22.97L35.04-122.48z"/>
			<path id="Path_3191_1_" class="st217" d="M258.06-27.97l-1.9,3.95l-2.28,4.74c-0.99,1.81-2.11,3.88-3.38,6.21
				c-3.11,5.51-6.55,10.82-10.3,15.9c-4.88,6.45-10.45,12.33-16.61,17.53c-7.22,6-15.33,10.81-24.03,14.24
				c-9.72,3.65-19.94,5.72-30.28,6.12c-11.15,0.38-22.28-0.62-33.16-2.97c-22.68-4.9-44.23-14.02-63.55-26.87
				C63.31,4.7,54.83-2.59,47.34-10.85c-6.91-7.7-12.55-16.47-16.71-25.98c-3.6-8.63-5.8-17.79-6.52-27.15
				c-0.56-8.05-0.22-16.14,1-24.13c1.03-6.24,2.44-12.41,4.22-18.47c0.79-2.53,1.49-4.79,2.11-6.76c0.71-1.94,1.32-3.59,1.81-4.93
				l1.5-4.12l-2.09,3.85c-0.67,1.27-1.51,2.82-2.49,4.66l-2.98,6.51c-1.16,2.43-2.07,5.27-3.28,8.3c-1.14,3.05-2.06,6.46-3.1,10.1
				c-2.16,8.27-3.26,16.77-3.28,25.3c-0.06,10.26,1.68,20.44,5.14,30.05c3.91,10.76,9.66,20.73,17,29.46
				c7.74,9.27,16.69,17.43,26.6,24.27c20.29,14.16,43.3,23.89,67.59,28.57c11.82,2.34,23.9,3.07,35.94,2.17
				c11.37-0.82,22.53-3.64,32.97-8.33c9.3-4.22,17.81-10.06,25.14-17.25c6.1-5.96,11.43-12.67,15.86-19.98
				c1.9-3.27,3.7-6.31,5.09-9.25c1.33-2.97,2.72-5.6,3.67-8.13s1.84-4.74,2.6-6.68c0.63-1.97,1.16-3.65,1.6-5.02L258.06-27.97z"/>
			<path id="Path_3192_1_" class="st218" d="M100.82,32.63C65.29,17.61-10.61-28.27,34.74-122.38c-5.61,12.79-11.72,55.43,90,98.43
				s128.05,8.91,133.32-4.02C222.15,70.12,136.35,47.65,100.82,32.63z"/>
			<path id="Path_3193_1_" class="st219" d="M100.82,32.63C65.29,17.61-10.61-28.27,34.74-122.38
				c-5.61,12.79-14.96,63.1,86.76,106.1s131.29,1.24,136.56-11.68C222.15,70.12,136.35,47.65,100.82,32.63z"/>
			<path id="Path_3196_1_" class="st209" d="M34.74-122.39c0,0-0.48,1.09-1.25,3.18c-1.01,3.07-1.66,6.26-1.94,9.48l-0.26,3.28
				c0.03,1.15,0.07,2.36,0.11,3.62c0.13,2.72,0.44,5.42,0.94,8.1c1.37,6.39,3.71,12.52,6.95,18.17c0.84,1.62,1.76,3.19,2.76,4.71
				c1.08,1.51,2.19,3.04,3.31,4.6l1.7,2.36c0.64,0.73,1.29,1.47,1.95,2.21l4.02,4.5c1.38,1.54,2.85,2.99,4.41,4.33l4.67,4.29
				c3.17,2.87,6.81,5.29,10.3,8.03c1.77,1.37,3.61,2.63,5.53,3.78l5.73,3.65c3.77,2.57,7.9,4.63,11.96,6.86
				c8.05,4.67,16.79,8.22,25.3,12.26c8.88,3.31,17.39,7.05,26.41,9.6c4.45,1.37,8.81,2.9,13.28,3.81l6.61,1.57
				c2.16,0.57,4.35,1.02,6.56,1.33c2.19,0.34,4.37,0.67,6.52,1c2.12,0.4,4.26,0.66,6.42,0.8l6.33,0.36
				c2.06,0.18,4.12,0.23,6.19,0.14l6.04-0.25l2.95-0.14l2.88-0.43l5.61-0.84c1.79-0.34,3.56-0.77,5.31-1.3
				c6.31-1.61,12.34-4.2,17.88-7.67c2.26-1.51,4.42-3.16,6.46-4.97l2.67-2.45l2.18-2.48c2.12-2.44,3.94-5.13,5.44-8
				c0.97-2.01,1.41-3.11,1.41-3.11s-0.5,1.08-1.55,3.04c-1.63,2.77-3.55,5.35-5.72,7.69l-2.23,2.37c-0.86,0.74-1.77,1.51-2.71,2.32
				c-2.07,1.7-4.25,3.26-6.52,4.66c-5.54,3.19-11.51,5.55-17.71,7.01c-1.72,0.48-3.46,0.86-5.22,1.16l-5.51,0.7l-2.82,0.37
				l-2.89,0.07l-5.92,0.12c-2.03,0.04-4.06-0.05-6.07-0.27l-6.21-0.48c-4.18-0.39-8.4-1.27-12.72-1.91
				c-2.18-0.33-4.34-0.78-6.46-1.36l-6.52-1.59c-4.41-0.93-8.7-2.47-13.07-3.85c-8.77-2.54-17.46-6.42-26.14-9.7
				c-8.45-3.94-17.17-7.42-25.15-11.98c-4.04-2.18-8.15-4.18-11.88-6.7l-5.68-3.56c-1.9-1.12-3.73-2.35-5.48-3.68
				c-3.47-2.66-7.04-5.07-10.23-7.8l-4.68-4.12c-1.56-1.29-3.04-2.68-4.42-4.17l-4.03-4.33c-0.66-0.71-1.32-1.42-1.97-2.13
				l-1.71-2.28l-3.34-4.44c-1.01-1.47-1.94-2.99-2.8-4.55c-3.27-5.46-5.74-11.39-7.31-17.59c-0.57-2.61-0.97-5.25-1.19-7.92
				c-0.08-1.24-0.16-2.43-0.21-3.56c0.05-1.14,0.1-2.22,0.15-3.25c0.17-3.2,0.68-6.37,1.53-9.46
				C34.31-121.27,34.74-122.39,34.74-122.39z"/>
			<path id="Path_3197_1_" class="st210" d="M348.98-403.5l-9.63,43.95c-2.06,9.37-11.24,15.36-20.5,13.36
				c-0.36-0.08-0.72-0.17-1.07-0.27c-17.11-4.95-33.88-10.96-50.24-18c-16.44-6.83-32.45-14.67-47.92-23.5
				c-8.2-4.74-10.98-15.33-6.21-23.66c0.18-0.32,0.37-0.63,0.57-0.93l24.82-37.53L348.98-403.5z"/>
			<path id="Path_3198_1_" class="st211" d="M176.8-381.55l47.72-74.56l43.9,18.56l-29.65,74.54l-14.08,1.71L176.8-381.55z"/>
			<path id="Path_3199_1_" class="st217" d="M322.16-452.28c-10.14-3.57-20.05-7.76-29.68-12.55c-8.44-4.27-18.78-1.29-23.81,6.88
				l-27.44,47.49c-4.89,8.23,0.05,20.23,11.48,25.91c12.83,6.38,26.05,11.97,39.57,16.73c12.05,4.24,24.09-0.57,26.59-9.81
				c4.98-17.59,9.96-35.18,14.95-52.77C336.16-439.7,331.1-449.2,322.16-452.28z"/>
			<path id="Path_3200_1_" class="st214" d="M317.16-454.39c-6.81-2.16-13.4-4.94-19.69-8.32c-5.49-2.94-13.34,0.98-17.84,9.4
				l-25.34,48.37c-4.49,8.41-2.41,19.19,5.07,23.19c8.39,4.51,17.17,8.22,26.24,11.1c8.09,2.57,17.27-3.45,20.17-12.52
				c5.68-17.29,11.37-34.59,17.06-51.88C325.76-444.14,323.09-452.5,317.16-454.39z"/>
			<path id="Path_3201_1_" class="st220" d="M310.62-397.86c-1.28,3.89-2.56,7.78-3.84,11.67l-51.01-21.56l5.7-10.88L310.62-397.86z
				"/>
			<path id="Path_3202_1_" class="st220" d="M316.41-415.46c-1.28,3.89-2.56,7.78-3.84,11.67l-48.19-20.38
				c1.9-3.62,3.8-7.25,5.7-10.88L316.41-415.46z"/>
			<path id="Path_3203_1_" class="st217" d="M307.48-437.75c1.8-4.26-0.15-9.14-4.34-10.92c-4.2-1.78-9.06,0.24-10.85,4.49
				c-1.8,4.26,0.15,9.14,4.34,10.92c4.19,1.78,9.05-0.22,10.85-4.47C307.47-437.73,307.48-437.74,307.48-437.75z"/>
			<g id="Group_3842_1_" transform="translate(53.381 133.532)">
				<path id="Path_3204_1_" class="st217" d="M119.61-183.81c5.29-12.51-4.65-28.67-22.21-36.09s-36.08-3.3-41.36,9.21
					s4.65,28.67,22.21,36.09S114.32-171.3,119.61-183.81z M110.63-187.61c-3.8,8.98-17.09,11.94-29.68,6.61
					c-12.6-5.33-19.73-16.92-15.94-25.9c3.79-8.97,17.09-11.94,29.68-6.61S114.42-196.59,110.63-187.61L110.63-187.61z"/>
				<path id="Path_3205_1_" class="st220" d="M112.22-175.8c-3.53-0.63-6.86-2.08-9.74-4.22c2.39-0.93,4.52-2.44,6.2-4.4
					c0.08,0.03,0.13,0.07,0.21,0.1c5.1,2.16,9.07,1.19,11.26-1.07c-0.17,0.53-0.32,1.05-0.54,1.57c-1.44,3.31-3.8,6.13-6.79,8.13
					C112.62-175.72,112.4-175.76,112.22-175.8z"/>
				<path id="Path_3206_1_" class="st220" d="M55.43-199.81c2.92,2.09,6.27,3.48,9.81,4.05c-1-2.36-1.4-4.94-1.16-7.51
					c-0.08-0.03-0.15-0.05-0.23-0.08c-5.1-2.16-7.17-5.68-7.07-8.82c-0.26,0.49-0.53,0.96-0.75,1.48c-1.37,3.34-1.75,7-1.1,10.53
					C55.09-200.04,55.27-199.91,55.43-199.81z"/>
				<path id="Path_3207_1_" class="st217" d="M89.44-198.56l-22.15-16.1L64.37-212l22.15,16.1L89.44-198.56z"/>
				<path id="Path_3208_1_" class="st217" d="M88.32-194.86l26.57,1.4l-0.91-4.03l-26.57-1.4L88.32-194.86z"/>
				<path id="Path_3209_1_" class="st217" d="M85.39-191.51c-4.45-1.88-6.97-5.98-5.63-9.15c1.34-3.17,6.04-4.22,10.49-2.34
					s6.97,5.98,5.63,9.15C94.53-190.67,89.84-189.62,85.39-191.51z"/>
				<path id="Path_3210_1_" class="st220" d="M86.37-193.85c-2.64-1.11-4.14-3.55-3.34-5.43c0.8-1.88,3.58-2.5,6.22-1.39
					c2.64,1.11,4.14,3.55,3.34,5.43C91.8-193.35,89.02-192.73,86.37-193.85z"/>
			</g>
			<path id="Path_3211_1_" class="st217" d="M207.16-37.63l-18.44-7.79c-1.97-0.84-4.26,0.1-5.11,2.1c0,0,0,0.01-0.01,0.01l0,0.02
				c-0.85,2,0.07,4.3,2.04,5.14c0,0,0,0,0,0l18.44,7.79c1.98,0.84,4.27-0.11,5.12-2.11c0,0,0,0,0,0l0-0.02
				C210.06-34.49,209.14-36.79,207.16-37.63C207.17-37.63,207.16-37.63,207.16-37.63z"/>
			
				<rect id="Rectangle_20188_1_" x="181.51" y="-35.41" transform="matrix(0.3889 -0.9213 0.9213 0.3889 144.5929 150.1656)" class="st216" width="7.95" height="3"/>
			
				<rect id="Rectangle_20189_1_" x="196.59" y="-29.03" transform="matrix(0.3889 -0.9213 0.9213 0.3889 147.9318 167.9475)" class="st216" width="7.95" height="3"/>
			
				<rect id="Rectangle_20190_1_" x="188.47" y="-40.69" transform="matrix(0.3893 -0.9211 0.9211 0.3893 153.9698 153.0658)" class="st220" width="7.89" height="2.22"/>
			
				<rect id="Rectangle_20191_1_" x="196.28" y="-37.39" transform="matrix(0.3893 -0.9211 0.9211 0.3893 155.6963 162.2757)" class="st220" width="7.89" height="2.22"/>
			<path id="Path_3212_1_" class="st220" d="M95.84-80.4c1-2.38-0.08-5.11-2.42-6.1c-2.34-0.99-5.06,0.13-6.06,2.51
				c-1,2.37,0.08,5.1,2.42,6.09C92.12-76.91,94.84-78.03,95.84-80.4C95.84-80.4,95.84-80.4,95.84-80.4z"/>
			<path id="Path_3213_1_" class="st215" d="M82.13-86.2c0.44-1.03-0.03-2.21-1.05-2.65c-1.01-0.43-2.19,0.05-2.63,1.08
				c-0.44,1.03,0.03,2.21,1.05,2.65c0,0,0,0,0,0C80.52-84.69,81.69-85.17,82.13-86.2z"/>
			<path id="Path_3214_1_" class="st215" d="M74.97-89.23c0.44-1.03-0.03-2.21-1.05-2.64c-1.02-0.43-2.19,0.05-2.63,1.08
				c-0.44,1.03,0.03,2.21,1.05,2.64c0,0,0,0,0,0C73.35-87.71,74.53-88.2,74.97-89.23z"/>
			<path id="Path_3215_1_" class="st215" d="M67.81-92.26c0.43-1.03-0.04-2.21-1.05-2.64c-1.01-0.43-2.19,0.06-2.62,1.09
				s0.04,2.21,1.05,2.64c0,0,0,0,0,0C66.2-90.74,67.37-91.23,67.81-92.26z"/>
			<g id="Group_3843_1_" transform="translate(85.918 3.459)">
				<path id="Path_3216_1_" class="st214" d="M176.79-461.64c-1.83-0.77-3.95-0.17-5.13,1.45l-26.04,35.83L131-390.51
					c-0.88,2.23-2.47,11.33-0.27,12.2c2.13,0.84,7.21-6.74,8.16-8.86l14.42-33.39l25.24-34.54c1.41-1.93,1.02-4.64-0.88-6.05
					c0,0,0,0,0,0C177.39-461.35,177.1-461.52,176.79-461.64z"/>
			</g>
			<path id="Path_3217_1_" class="st220" d="M228.98-403.89L228.98-403.89c-4.37-1.85-9.44,0.24-11.31,4.68l-10.95,26.03
				c-1.87,4.43-5.53,14.96,1.85,17.95c0,0,0.01,0,0.01,0l0,0c6.61,3.42,12.09-6.83,13.97-11.26l10.96-26.03
				C235.37-396.96,233.35-402.05,228.98-403.89C228.98-403.89,228.98-403.89,228.98-403.89z"/>
			<path id="Path_3218_1_" class="st221" d="M21.9,177.03l18.96-23.41L91.01,57.1L1.08,16.56c0,0-11.55,100.34,2.9,152.89
				L21.9,177.03z"/>
			<path id="Path_3219_1_" class="st211" d="M153.95-343.17c0,0-88.84,150.61-119.66,222.09c2.16-0.55,2.9-0.57,2.9-0.57l32.7-0.38
				L172.52-334.9L153.95-343.17z"/>
		</g>
	</g>
</g>
</svg>
