<?xml version="1.0" encoding="utf-8"?>
<!-- Generator: Adobe Illustrator 24.2.3, SVG Export Plug-In . SVG Version: 6.00 Build 0)  -->
<svg version="1.1" id="Layer_1" xmlns="http://www.w3.org/2000/svg" xmlns:xlink="http://www.w3.org/1999/xlink" x="0px" y="0px"
	 viewBox="0 0 300 730.4" style="enable-background:new 0 0 300 730.4;" xml:space="preserve">
<style type="text/css">
	.st0{fill:#FAA859;}
	.st1{fill:#EF4849;}
	.st2{fill:#ED2324;}
	.st3{fill:#F48182;}
	.st4{fill:#00364D;}
	.st5{fill:#BD202E;}
	.st6{opacity:0.4;}
	.st7{fill:#02566E;}
	.st8{opacity:0.4;enable-background:new    ;}
	.st9{fill:#FFFAF1;}
	.st10{opacity:0.65;fill:url(#Rectangle_24586_2_);enable-background:new    ;}
	.st11{fill:#FEC769;}
	.st12{fill:#4EC9F5;}
	.st13{fill:#F15A2A;}
	.st14{fill:#4A1210;}
	.st15{opacity:0.3;}
	.st16{fill:#FFFFFF;}
	.st17{fill:#C1C1C5;}
	.st18{fill:url(#Path_2973_1_);}
	.st19{fill:url(#Path_2974_1_);}
	.st20{fill:#181415;}
	.st21{fill:#004D65;}
	.st22{fill:#00384B;}
	.st23{fill:#FFDD68;}
	.st24{fill:#FDCE2E;}
	.st25{fill:#242021;}
	.st26{clip-path:url(#SVGID_2_);}
	.st27{fill:#0C151A;}
	.st28{fill:#FEDE54;}
	.st29{fill:#505051;}
	.st30{fill:url(#Path_2823_1_);}
	.st31{fill:#E3BD22;}
	.st32{opacity:0.2;fill:#D0D2D3;enable-background:new    ;}
	.st33{opacity:0.1;fill:#FBCED0;enable-background:new    ;}
	.st34{opacity:0.3;fill:#FEF8E2;enable-background:new    ;}
	.st35{fill:url(#Path_2833_1_);}
	.st36{fill:#221F1F;}
	.st37{fill:#C92127;}
	.st38{fill:#D6A029;}
	.st39{fill:#152426;}
	.st40{fill:url(#Path_2845_1_);}
	.st41{fill:#3CB39E;}
	.st42{opacity:0.4;fill:#7BCCC3;enable-background:new    ;}
	.st43{opacity:0.81;fill:#55C1AF;enable-background:new    ;}
	.st44{fill:#59C2AF;}
	.st45{fill:#158772;}
	.st46{fill:#228E79;}
	.st47{fill:#1C1D1D;}
	.st48{fill:url(#Path_2652_1_);}
	.st49{opacity:0.3;fill:#D1EDF3;enable-background:new    ;}
	.st50{fill:#3ABBA2;}
	.st51{fill:#424143;}
	.st52{fill:none;}
	.st53{fill:#ED2024;}
	.st54{fill:#EF3E3D;}
	.st55{fill:url(#Path_2679_1_);}
	.st56{fill:#991B1E;}
	.st57{opacity:0.3;fill:#FFFFFF;enable-background:new    ;}
	.st58{fill:#F05050;}
	.st59{fill:#FDFEFE;}
	.st60{opacity:0.5;fill:#F38096;enable-background:new    ;}
	.st61{opacity:0.55;fill:#F38096;enable-background:new    ;}
	.st62{fill:#8F191C;}
	.st63{fill:#A3A3A3;}
	.st64{fill:#DCDBDB;}
	.st65{fill:#B6B6B6;}
	.st66{fill:#D2D2D1;}
	.st67{fill:#F6F6F6;}
	.st68{fill:url(#Path_2702_1_);}
	.st69{fill:url(#Path_2703_1_);}
	.st70{fill:#F48789;}
	.st71{fill:#4D4D4E;}
	.st72{fill:#EECAE0;}
	.st73{fill:#F287B6;}
	.st74{fill:#2B5766;}
	.st75{fill:#396B7B;}
	.st76{fill:#EBEBEB;}
</style>
<g id="Group_3614_1_" transform="translate(-349 -57.445)">
	<g transform="matrix(1, 0, 0, 1, 349, 57.45)">
		<path id="Path_2606-2_1_" class="st0" d="M271.2,529.6V231.4l3-7.7V113.4c0-98.7-75.8-97.4-75.8-97.4C193.3,9.5,186.3,5.8,179,5.8
			H121c-7.3,0-14.3,3.7-19.5,10.2c0,0-75.8-1.3-75.8,97.4v110.2l3,7.7v298.2l-5.6,15.8v107.7c0,13.5,13,77.3,38.6,77.3h176.4
			c25.6,0,38.6-63.9,38.6-77.3V545.4L271.2,529.6z"/>
	</g>
	<g id="Group_3613_1_" transform="translate(349 61.293)">
		<g id="Group_3588_1_" transform="translate(128.373 86.3)">
			<path id="Path_2586_1_" class="st0" d="M142.8,141.2h18.4c0,0,10.4,3.5,10.4,15.7v13.8h-28.8V141.2z"/>
		</g>
		<g id="Group_3589_1_" transform="translate(10.996 2.152)">
			<path id="Path_2587_1_" class="st0" d="M260.2,523.6V225.4l3-7.7V107.4c0-98.7-75.8-97.4-75.8-97.4C182.3,3.5,175.3-0.2,168-0.2
				H110c-7.3,0-14.3,3.7-19.5,10.2c0,0-75.8-1.3-75.8,97.4v110.2l3,7.7v298.2l-5.6,15.8v107.7c0,13.5,13,77.3,38.6,77.3h176.4
				c25.6,0,38.6-63.9,38.6-77.3V539.4L260.2,523.6z"/>
		</g>
		<g id="Group_3590_1_" transform="translate(0 86.3)">
			<path id="Path_2588_1_" class="st0" d="M28.8,141.2H10.4c0,0-10.4,3.5-10.4,15.7v13.8h28.8L28.8,141.2z"/>
		</g>
		<g id="Group_3591_1_" transform="translate(18.646 13.626)">
			<path id="Path_2589_1_" class="st11" d="M214.2,294.6l22.2-85.6l3-7.7V96c0-73.2-49.5-76.9-59.4-76.9H82.7
				c-9.9,0-59.5,3.7-59.5,76.9v105.4l3,7.7l22.2,85.6v211.5l-27.8,55.5v73.9c1.3,12.3,4.1,24.3,8.3,35.6c5.4,14.6,11.1,21.3,14,21.3
				h176.4c9.3,0,22.1-41.6,22.4-56.8v-73.9l-27.8-55.5L214.2,294.6z"/>
		</g>
		<g id="Group_3592_1_" transform="translate(23.825 67.493)">
			<path id="Path_2590_1_" class="st4" d="M126.2,109.6c0,0-59.3-0.9-99.7,35.5l23.6,86.3c0,0,25.2-15.4,76.1-15.4
				s76.1,15.4,76.1,15.4l23.6-86.3C185.4,108.7,126.2,109.6,126.2,109.6z"/>
		</g>
		<g id="Group_3593_1_" transform="translate(23.187 195.789)">
			<path id="Path_2591_1_" class="st4" d="M202.2,325.3c-16.8,12.4-75.4,12.4-75.4,12.4s-58.6,0-75.4-12.4l-25.6,53
				c0,0,35.7,17.5,101,17.5s101-17.5,101-17.5L202.2,325.3z"/>
		</g>
		<g id="Group_3594_1_" transform="translate(113.233 91.798)">
			<path id="Path_2592_1_" class="st4" d="M146.7,386.6l-1.9-236.2L126,225.9v119.3L146.7,386.6z"/>
		</g>
		<g id="Group_3595_1_" transform="translate(113.233 175.124)">
			<path id="Path_2593_1_" class="st4" d="M126,290.5v48.4l21.4,42.3l-0.4-48.7L126,290.5z"/>
		</g>
		<g id="Group_3596_1_" transform="translate(18.943 91.798)">
			<path id="Path_2594_1_" class="st4" d="M21.1,386.6L23,150.5l18.9,75.4v119.3L21.1,386.6z"/>
		</g>
		<g id="Group_3597_1_" transform="translate(18.646 175.124)">
			<path id="Path_2595_1_" class="st4" d="M42.1,290.5v48.4l-21.4,42.3l0.4-48.7L42.1,290.5z"/>
		</g>
		<g id="Group_3598_1_" transform="translate(90.091 6.526)">
			<path id="Path_2596_1_" class="st0" d="M112.3,13.9l12.4,132.9L100.4,16.6c-0.7-4.1,1.3-8.3,4.6-9.2c3.2-0.9,6.5,1.6,7.2,5.7
				C112.3,13.3,112.3,13.6,112.3,13.9z"/>
		</g>
		<g id="Group_3599_1_" transform="translate(40.321 6.526)">
			<path id="Path_2597_1_" class="st0" d="M69.2,16.6L44.9,146.8L57.2,13.9c0.4-4.2,3.4-7.2,6.7-6.7c3.3,0.5,5.7,4.3,5.3,8.6l0,0
				C69.3,16,69.2,16.3,69.2,16.6z"/>
		</g>
		<g id="Group_3601" transform="translate(96.659 7.649)">
			<g id="Group_3600">
				<path id="Path_2598" class="st12" d="M154.5,47.5c-1.2,0-2.4-0.7-3.2-1.9c-12.3-19.4-40.2-26.3-40.5-26.4
					c-2.2-0.5-3.6-3.2-3.2-6c0.4-2.8,2.5-4.6,4.7-4.1l0,0c1.3,0.3,31.2,7.7,45.3,30c1.4,2.2,1.1,5.4-0.6,7.2
					C156.3,47.1,155.4,47.5,154.5,47.5L154.5,47.5z"/>
			</g>
		</g>
		<g id="Group_3602" transform="translate(113.85 14.651)">
			<path id="Path_2599" class="st13" d="M130.8,20.8l-4.1,8.9l0.1,0.1c2.8,2.5,5.3,5.5,7.4,8.8c1.4,2.2,3.9,2.6,5.7,0.8
				c1.7-1.8,2-5,0.6-7.2C137.7,27.8,134.4,24,130.8,20.8z"/>
		</g>
		<g id="Group_3604" transform="translate(21.196 7.649)">
			<g id="Group_3603">
				<path id="Path_2600" class="st12" d="M27.6,47.5c1.2,0,2.4-0.7,3.2-1.9C43.1,26.2,71,19.2,71.3,19.2c2.2-0.5,3.6-3.2,3.2-6
					c-0.4-2.8-2.5-4.6-4.7-4.1c-1.3,0.3-31.2,7.7-45.3,30c-1.4,2.2-1.1,5.4,0.6,7.2C25.8,47.1,26.7,47.5,27.6,47.5L27.6,47.5z"/>
			</g>
		</g>
		<g id="Group_3605" transform="translate(21.196 14.651)">
			<path id="Path_2601" class="st13" d="M34.2,20.8l4.1,8.9l-0.1,0.1c-2.8,2.5-5.3,5.5-7.4,8.8c-1.4,2.2-3.9,2.6-5.7,0.8
				c-1.7-1.8-2-5-0.6-7.2C27.3,27.8,30.5,24,34.2,20.8z"/>
		</g>
		<g id="Group_3607_1_" transform="translate(96.261 266.788)">
			<g id="Group_3606_1_">
				<path id="Path_2602_1_" class="st5" d="M134.6,454.9h-23.4c-2.2-0.1-4-2.4-3.9-5.2c0-2.7,1.8-4.9,3.9-5h23.4
					c2.2-0.1,4.1,2.2,4.1,5c0.1,2.8-1.7,5.2-3.9,5.2C134.7,454.9,134.6,454.9,134.6,454.9z"/>
			</g>
		</g>
		<g id="Group_3609_1_" transform="translate(30.838 266.788)">
			<g id="Group_3608_1_">
				<path id="Path_2603_1_" class="st5" d="M61.8,454.9H38.4c-2.2-0.1-4-2.4-3.9-5.2c0-2.7,1.8-4.9,3.9-5h23.4
					c2.2,0.1,4,2.4,3.9,5.2C65.7,452.6,63.9,454.8,61.8,454.9z"/>
			</g>
		</g>
		<g id="Group_3610_1_" transform="translate(57.533)">
			<path id="Rectangle_20151_1_" class="st14" d="M64.9-3.8h55.2c0.5,0,0.8,0.5,0.8,1.1v9.4c0,0.6-0.4,1.1-0.8,1.1H64.9
				c-0.5,0-0.8-0.5-0.8-1.1l0,0v-9.4C64-3.4,64.4-3.8,64.9-3.8z"/>
		</g>
		<g id="Group_3611_1_" transform="translate(70.999 195.789)" class="st15">
			<path id="Path_2604_1_" class="st16" d="M180,378.2l-25.6-53C137.6,337.6,79,337.6,79,337.6v58.1
				C144.3,395.8,180,378.2,180,378.2z"/>
		</g>
		<g id="Group_3612_1_" transform="translate(70.999 67.493)" class="st15">
			<path id="Path_2605_1_" class="st16" d="M155.1,231.4l23.6-86.3C138.3,108.7,79,109.6,79,109.6V216
				C129.8,216,155.1,231.4,155.1,231.4z"/>
		</g>
	</g>
</g>
</svg>
