<?xml version="1.0" encoding="utf-8"?>
<!-- Generator: Adobe Illustrator 24.2.3, SVG Export Plug-In . SVG Version: 6.00 Build 0)  -->
<svg version="1.1" id="Layer_1" xmlns="http://www.w3.org/2000/svg" xmlns:xlink="http://www.w3.org/1999/xlink" x="0px" y="0px"
	 viewBox="0 0 300 771.4" style="enable-background:new 0 0 300 771.4;" xml:space="preserve">
<style type="text/css">
	.st0{fill:url(#Path_2815-2_1_);}
	.st1{fill:url(#Path_2768_1_);}
	.st2{fill:url(#Path_2769_1_);}
	.st3{fill:#EBEBEB;}
	.st4{fill:#FFFFFF;}
	.st5{fill:#00384B;}
	.st6{fill:#F2F2F3;}
	.st7{fill:#2B5766;}
	.st8{fill:#356D81;}
	.st9{fill:url(#Path_2779_1_);}
	.st10{fill:url(#Path_2780_1_);}
	.st11{fill:url(#Path_2781_1_);}
	.st12{fill:url(#Path_2782_1_);}
	.st13{fill:url(#Path_2783_1_);}
	.st14{fill:#595A5A;}
	.st15{fill:url(#Path_2786_1_);}
	.st16{fill:#0A0A0B;}
	.st17{fill:url(#Rectangle_20159_1_);}
	.st18{fill:url(#Rectangle_20160_1_);}
	.st19{fill:url(#Path_2788_1_);}
	.st20{fill:url(#Path_2789_1_);}
	.st21{fill:url(#Path_2791_1_);}
	.st22{fill:url(#Path_2792_1_);}
	.st23{fill:url(#Path_2794_1_);}
	.st24{fill:url(#Path_2795_1_);}
	.st25{fill:url(#Path_2797_1_);}
	.st26{fill:url(#Path_2798_1_);}
	.st27{fill:url(#Path_2799_1_);}
	.st28{fill:url(#Path_2800_1_);}
	.st29{fill:url(#Path_2801_1_);}
	.st30{fill:#C2C2C1;}
	.st31{fill:url(#Path_2803_1_);}
	.st32{fill:url(#Path_2804_1_);}
	.st33{fill:url(#Path_2805_1_);}
	.st34{fill:url(#Path_2806_1_);}
	.st35{fill:#9B9B9B;}
	.st36{fill:url(#Path_2808_1_);}
	.st37{fill:url(#Path_2809_1_);}
	.st38{fill:url(#Path_2810_1_);}
	.st39{fill:#D04B4B;}
	.st40{fill:#F6A84B;}
	.st41{opacity:0.8;fill:#356D81;enable-background:new    ;}
	.st42{fill:#F26B77;}
	.st43{fill:#EC5A66;}
	.st44{clip-path:url(#SVGID_2_);}
	.st45{fill:#AE2425;}
	.st46{fill:#E6E3DE;}
	.st47{fill:#06314E;}
	.st48{clip-path:url(#SVGID_4_);}
	.st49{fill:#8293A0;}
	.st50{clip-path:url(#SVGID_6_);}
	.st51{clip-path:url(#SVGID_8_);}
	.st52{clip-path:url(#SVGID_10_);}
	.st53{fill:#E3E5DA;}
	.st54{fill:#EADFDD;}
	.st55{fill:#EAEAEA;}
	.st56{fill:#2D86A5;}
	.st57{clip-path:url(#SVGID_12_);}
	.st58{fill:#296277;}
	.st59{clip-path:url(#SVGID_14_);}
	.st60{fill:#FCF8F7;}
	.st61{fill:#E7E3E4;}
	.st62{fill:none;stroke:#06314E;stroke-width:3;stroke-linecap:round;stroke-miterlimit:10;}
	.st63{fill:#929FB1;}
	.st64{fill:#E8ECEE;}
	.st65{fill:#ED1C24;}
	.st66{fill:#F15959;}
	.st67{opacity:0.5;fill:#A2ADAF;enable-background:new    ;}
	.st68{clip-path:url(#SVGID_16_);}
	.st69{fill:#059DD1;}
	.st70{fill:#33ACE2;}
	.st71{opacity:0.8;fill:#39C6F4;enable-background:new    ;}
	.st72{fill:#061C23;}
	.st73{opacity:0.52;fill:#296277;enable-background:new    ;}
	.st74{opacity:0.7;fill:#2B5766;enable-background:new    ;}
	.st75{opacity:0.3;fill:#296277;enable-background:new    ;}
	.st76{fill:#1E4E5D;}
	.st77{clip-path:url(#SVGID_18_);}
	.st78{fill:#CBE3EA;}
	.st79{clip-path:url(#SVGID_20_);}
	.st80{fill:#AF2E2B;}
	.st81{fill:#2CB7EA;}
	.st82{clip-path:url(#SVGID_22_);}
	.st83{fill:#2697D4;}
	.st84{clip-path:url(#SVGID_24_);}
	.st85{opacity:0.7;fill:#39C6F4;enable-background:new    ;}
	.st86{fill:#343C43;}
	.st87{fill:none;stroke:#1A1F23;stroke-width:0.5;stroke-linecap:round;stroke-miterlimit:10;}
	.st88{fill:#BEBEC0;}
	.st89{fill:#C1C1C5;}
	.st90{fill:#E6E7E9;}
	.st91{fill:#181415;}
	.st92{fill:#004D65;}
	.st93{fill:#00364D;}
	.st94{fill:#F3F3F1;}
	.st95{fill:#242021;}
	.st96{fill:#D2D3D5;}
	.st97{clip-path:url(#SVGID_26_);}
	.st98{clip-path:url(#SVGID_28_);}
	.st99{clip-path:url(#SVGID_30_);}
	.st100{fill:#BEBFC1;}
	.st101{fill:#0C151A;}
	.st102{fill:#E86255;}
	.st103{fill:#010101;}
	.st104{fill:#065E7B;}
	.st105{fill:#F5B4D1;stroke:#CE2527;stroke-width:0.5;stroke-miterlimit:10;}
	.st106{fill:#F3766B;}
	.st107{fill:#CE2527;}
	.st108{fill:#171314;}
	.st109{fill:#AE1F24;}
	.st110{clip-path:url(#SVGID_32_);}
	.st111{fill:#096E8E;}
	.st112{clip-path:url(#SVGID_34_);}
	.st113{fill:#E9DCE6;}
	.st114{fill:none;stroke:#CE2527;stroke-width:0.5;stroke-linecap:round;stroke-miterlimit:10;}
	.st115{clip-path:url(#SVGID_36_);}
	.st116{fill:#F4858F;}
	.st117{clip-path:url(#SVGID_38_);}
	.st118{fill:#D7CDD5;}
	.st119{clip-path:url(#SVGID_40_);}
	.st120{opacity:0.2;fill:#A21D21;enable-background:new    ;}
	.st121{opacity:0.3;fill:#991B1F;enable-background:new    ;}
	.st122{fill:#050203;}
	.st123{clip-path:url(#SVGID_42_);}
	.st124{clip-path:url(#SVGID_44_);}
	.st125{fill:#F5B4D1;}
	.st126{fill:url(#Path_3060_2_);}
	.st127{fill:url(#Path_3061_2_);}
	.st128{fill:#2E2E2E;}
	.st129{fill:#BD202E;}
	.st130{fill:#DCDBDB;}
	.st131{fill:#F6F6F6;}
	.st132{fill:url(#Path_3069_2_);}
	.st133{fill:#094F66;}
	.st134{fill:#848585;}
	.st135{fill:url(#Path_3079_2_);}
	.st136{fill:url(#Path_3080_2_);}
	.st137{fill:url(#Path_3081_2_);}
	.st138{fill:url(#Path_3082_2_);}
	.st139{fill:url(#Path_3083_2_);}
	.st140{fill:url(#Path_3084_2_);}
	.st141{fill:url(#Path_3085_2_);}
	.st142{fill:url(#Path_3086_2_);}
	.st143{fill:#7B7B7B;}
	.st144{fill:#49A9C9;}
	.st145{fill:none;}
	.st146{fill:#00253A;}
	.st147{opacity:0.49;fill:#DCDBDB;enable-background:new    ;}
	.st148{fill:#DFE0D5;}
	.st149{fill:#333333;}
	.st150{fill:#F6F8EB;}
	.st151{opacity:0.2;fill:url(#Path_6732_1_);enable-background:new    ;}
	.st152{fill:#EFEFEA;}
	.st153{fill:#CCCCCB;}
	.st154{opacity:0.5;fill:url(#Path_6742_1_);enable-background:new    ;}
	.st155{opacity:0.3;fill:url(#Path_6743_1_);enable-background:new    ;}
	.st156{opacity:0.3;fill:url(#Path_6744_1_);enable-background:new    ;}
	.st157{fill:#666766;}
	.st158{fill:#F26722;}
	.st159{fill:#E0F2F6;}
	.st160{fill:#F7F7F7;}
	.st161{fill:url(#Path_6755_1_);}
	.st162{fill:#676B86;}
	.st163{opacity:0.2;enable-background:new    ;}
	.st164{opacity:0.5;fill:url(#Path_6770_1_);enable-background:new    ;}
	.st165{opacity:0.3;fill:url(#Path_6771_1_);enable-background:new    ;}
	.st166{opacity:0.4;enable-background:new    ;}
	.st167{opacity:0.5;fill:url(#Path_6777_1_);enable-background:new    ;}
	.st168{opacity:0.3;fill:url(#Path_6778_1_);enable-background:new    ;}
	.st169{fill:url(#Path_6780_1_);}
	.st170{fill:#CB2026;}
	.st171{fill:url(#Path_6782_1_);}
	.st172{opacity:0.3;fill:#640D0D;enable-background:new    ;}
	.st173{opacity:0.5;fill:#EF3C23;enable-background:new    ;}
	.st174{fill:url(#Path_6786_1_);}
	.st175{fill:url(#Path_6788_1_);}
	.st176{fill:url(#Path_6792_1_);}
	.st177{fill:url(#Path_6794_1_);}
	.st178{opacity:0.5;fill:url(#Path_6798_1_);enable-background:new    ;}
	.st179{opacity:0.3;fill:url(#Path_6799_1_);enable-background:new    ;}
	.st180{opacity:0.4;fill:url(#Path_6801_1_);enable-background:new    ;}
	.st181{opacity:0.4;fill:url(#Path_6803_1_);enable-background:new    ;}
	.st182{fill:url(#Path_6805_1_);}
	.st183{opacity:0.5;fill:url(#Path_6809_1_);enable-background:new    ;}
	.st184{opacity:0.3;fill:url(#Path_6810_1_);enable-background:new    ;}
	.st185{opacity:0.4;fill:url(#Path_6812_1_);enable-background:new    ;}
	.st186{opacity:0.4;fill:url(#Path_6814_1_);enable-background:new    ;}
</style>
<g id="Group_3703" transform="translate(-1333 -59.282)">
	<g transform="matrix(1, 0, 0, 1, 1333, 59.28)">
		
			<linearGradient id="Path_2815-2_1_" gradientUnits="userSpaceOnUse" x1="-2453.324" y1="5660.9888" x2="-2451.333" y2="5660.9888" gradientTransform="matrix(118.2138 0 0 -267.6548 288671.125 1515583.625)">
			<stop  offset="0" style="stop-color:#D2D2D1"/>
			<stop  offset="0.165" style="stop-color:#E5E6E6"/>
			<stop  offset="0.881" style="stop-color:#BDBFBE"/>
			<stop  offset="1" style="stop-color:#7D807D"/>
		</linearGradient>
		<path id="Path_2815-2" class="st0" d="M27.7,341.8c0.3-33.2-1.5-184.9,6-270.6c2.9-32.4,7.6-28.5,15.7-41.9c3.4,1,2.4,8.3,5.5,5.4
			l26.3-19.7c4.1,1.4,8.3,2.2,12.5,2.4v16.5h112.4V23.4c4.5-2.2,9.4-3.4,13-7l25.9,18.2c3,2.9,2.3-4.2,5.6-5.1
			c8.1,13.5,12.7,9.3,15.6,41.7c7.5,85.7,5.7,237.5,6,270.6c0.1,6.8-3.8,48.5-3.6,103c0.5,120.5-0.1,304-7.3,313.7
			c-13,17.3-209.5,17.3-222.5,0c-7.3-9.7-7.8-193.2-7.3-313.7C31.5,390.3,27.6,348.6,27.7,341.8z"/>
	</g>
	<g id="Group_3702" transform="translate(996.886 -145.378)">
		<g id="Group_3701" transform="translate(336.115 205.378)">
			<g id="Group_3696">
				<g id="Group_3688" transform="translate(45.311)">
					
						<linearGradient id="Path_2768_1_" gradientUnits="userSpaceOnUse" x1="-2508.8232" y1="5635.8296" x2="-2506.7556" y2="5635.8296" gradientTransform="matrix(54.342 0 0 -13.4848 134953.5625 76016.2188)">
						<stop  offset="0" style="stop-color:#000000"/>
						<stop  offset="1" style="stop-color:#1B1C1B"/>
					</linearGradient>
					<path id="Path_2768" class="st1" d="M160.7,7.9v29.5H48.4V7.9C82.5-3.6,126.6-3.6,160.7,7.9z"/>
				</g>
				
					<linearGradient id="Path_2769_1_" gradientUnits="userSpaceOnUse" x1="-2453.325" y1="5660.2686" x2="-2451.334" y2="5660.2686" gradientTransform="matrix(118.2138 0 0 -267.6548 288671.25 1515390.25)">
					<stop  offset="0" style="stop-color:#D2D2D1"/>
					<stop  offset="0.165" style="stop-color:#E5E6E6"/>
					<stop  offset="0.881" style="stop-color:#BDBFBE"/>
					<stop  offset="1" style="stop-color:#7D807D"/>
				</linearGradient>
				<path id="Path_2769" class="st2" d="M27.7,341.1c0.3-33.2-1.5-184.9,6-270.6C36.5,38,41.3,42,49.4,28.5c3.4,1,2.4,8.3,5.5,5.4
					l26.3-19.7c4.1,1.4,8.3,2.2,12.5,2.4v16.5H206V22.7c4.5-2.2,9.4-3.4,13-7l25.9,18.2c3,2.9,2.3-4.2,5.6-5.1
					c8.1,13.5,12.7,9.3,15.6,41.7c7.5,85.7,5.7,237.5,6,270.6c0.1,6.8-3.8,48.5-3.6,103c0.5,120.5-0.1,304-7.3,313.7
					c-13,17.3-209.5,17.3-222.5,0c-7.3-9.7-7.8-193.2-7.3-313.7C31.5,389.5,27.6,347.9,27.7,341.1z"/>
				<path id="Path_2770" class="st3" d="M261.9,336c0.1,7.5-7.3,51.3-6,108.1c2.7,121.3,5.7,301.4-2,311.5
					c-13.5,17.9-199.2,14.9-208.2,0C39,744.5,41.6,565,44,444.1c1.1-56.7-6.3-100.6-6.3-108.1c0.3-31.9-8-178.2-0.9-260.5
					c4.6-53.6,11.5-46.7,36.9-58.9c37.7-18.1,113.4-20,152.2,0c27.5,14.2,32.3,5.3,36.9,58.9C270,157.8,261.7,304.1,261.9,336z"/>
				<path id="Path_2771" class="st4" d="M210.7,155.5L183.3,24.9h-0.1c0-5.9-14.9-10.7-33.3-10.7s-33.3,4.8-33.3,10.7L89.1,155.5
					H210.7z"/>
				<path id="Path_2772" class="st5" d="M197.5,256.8c13.6,1.7,27,5.1,40,10.3l-1.6,8.6c-13.2-5.8-26.8-9.6-40.5-11.3
					c-21.3-3-69.8-3-91.1,0c-13.8,1.7-27.4,5.5-40.5,11.3l-1.6-8.6c13.1-5.1,26.5-8.6,40-10.3C124.6,253.7,175.2,253.7,197.5,256.8z
					"/>
				<g id="Group_3689" transform="translate(70.471 9.069)">
					<path id="Path_2773" class="st6" d="M79.4,192.2c0,0-1.4-11-2.4-27.6c-0.5-8.3-1-17.9-1.3-28.2c-0.1-5.2-0.3-10.5-0.4-15.9
						s-0.1-10.9-0.1-16.4c0-5.5,0.1-11,0.1-16.4c0-5.4,0.3-10.8,0.4-15.9c0.3-10.3,0.7-20,1.3-28.2c1-16.5,2.4-27.6,2.4-27.6
						s1.4,11,2.4,27.6c0.5,8.3,1,17.9,1.3,28.2c0.1,5.2,0.3,10.5,0.4,15.9c0,5.4,0.1,10.9,0.1,16.4c0,5.5-0.1,11-0.1,16.4
						c0,5.4-0.3,10.8-0.4,15.9c-0.3,10.3-0.7,20-1.3,28.2C80.8,181.2,79.4,192.2,79.4,192.2z"/>
				</g>
				<path id="Path_2774" class="st5" d="M243.8,172.2c-14-5.9-28.4-10.3-42.9-13.2c-33.9-6.4-68.2-6.4-102.1,0
					c-14.5,2.9-28.8,7.3-42.9,13.2c-2.4,0.8-4.6,2.1-6.7,3.8l-0.1-0.3c0,0-1.4-6.2-0.5-7.9c0.8-1.5,3.1-2.8,7.3-4.5
					c14-5.9,28.4-10.3,42.9-13.2c33.9-6.4,68.2-6.4,102.1,0c14.5,2.9,28.8,7.3,42.9,13.2c4.1,1.7,6.5,3.1,7.3,4.5
					c0.9,1.7-0.5,7.9-0.5,7.9l0,0.3C248.4,174.2,246.1,172.9,243.8,172.2z"/>
				<path id="Path_2775" class="st7" d="M197.5,256.8c-22.3-3-72.9-3-95.2,0c-13.6,1.7-27,5.1-40,10.3l-13-91.1
					c2.1-1.7,4.4-3,6.7-3.8c14-5.9,28.4-10.3,42.9-13.2c33.9-6.4,68.2-6.4,102.1,0c14.5,2.9,28.8,7.3,42.9,13.2
					c2.4,0.8,4.6,2.1,6.7,3.8l-13,91.1C224.5,261.9,211,258.5,197.5,256.8z"/>
				<path id="Path_2776" class="st5" d="M254.2,349.1c0,15.9-1,81.7-2.9,97.4l-11.9,7.2l-1-50l2.9-100.3L257.6,184
					c0,0,1.4,30.6,0,74.5C256.7,286.2,254.2,324.4,254.2,349.1z"/>
				<path id="Path_2777" class="st5" d="M60.3,453.7L47,446.5c-0.4-7.8-1.5-74-1.5-97.4c0-24.6-2.5-62.8-3.4-90.6
					c-1.4-43.9,0-74.5,0-74.5l16.3,119.4l2.9,100.3L60.3,453.7z"/>
				<path id="Path_2778" class="st8" d="M56,172.2c14-5.9,28.4-10.3,42.9-13.2c7.5-1.6,15.6-2.7,24-3.5c21.5,22.3,47,82.7,57.5,99.8
					c-25-1.4-60.4-0.9-78,1.5c-13.6,1.7-27,5.1-40,10.3l-13-91.1C51.3,174.2,53.6,172.9,56,172.2z"/>
				
					<linearGradient id="Path_2779_1_" gradientUnits="userSpaceOnUse" x1="-2461.7222" y1="5702.8223" x2="-2459.2129" y2="5699.7612" gradientTransform="matrix(23.114 0 0 -54.5771 56242.4648 308734.6875)">
					<stop  offset="0" style="stop-color:#F7F7F7"/>
					<stop  offset="1" style="stop-color:#DCDBDB"/>
				</linearGradient>
				<path id="Path_2779" class="st9" d="M214.4,33.1c0,0,36.9-3.8,40.8,51.8c4,56.8,7,102.4,7,102.4S245.9,63.2,214.4,33.1z"/>
				
					<linearGradient id="Path_2780_1_" gradientUnits="userSpaceOnUse" x1="-2425.3933" y1="5652.8369" x2="-2422.1924" y2="5648.8906" gradientTransform="matrix(23.12 0 0 -54.0338 56171.4648 305658.2188)">
					<stop  offset="0" style="stop-color:#F7F7F7"/>
					<stop  offset="1" style="stop-color:#DCDBDB"/>
				</linearGradient>
				<path id="Path_2780" class="st10" d="M85.1,38.7c-1-0.3-35.8-24.4-40.8,46.1c-4,56.8-7,102.4-7,102.4
					C39.8,169.8,51.2,71.2,85.1,38.7z"/>
				<g id="Group_3690" transform="translate(0 67.556)">
					
						<linearGradient id="Path_2781_1_" gradientUnits="userSpaceOnUse" x1="-2536.0081" y1="5680.4038" x2="-2531.314" y2="5676.9272" gradientTransform="matrix(6.1772 0 0 -16.1495 14742.8887 90015.5625)">
						<stop  offset="0" style="stop-color:#363B39"/>
						<stop  offset="1" style="stop-color:#1B1C1B"/>
					</linearGradient>
					<path id="Path_2781" class="st11" d="M42.7,122.7c0,0-11.9,3.1-12.2,16.6s12,40.8,12.2,23.5C43,145.5,43.8,127.8,42.7,122.7z"
						/>
					
						<linearGradient id="Path_2782_1_" gradientUnits="userSpaceOnUse" x1="-2489.1692" y1="5533.562" x2="-2487.1782" y2="5533.562" gradientTransform="matrix(16.8143 0 0 -7.9417 40735.9727 44094.5117)">
						<stop  offset="0" style="stop-color:#363B39"/>
						<stop  offset="1" style="stop-color:#0D0E0E"/>
					</linearGradient>
					<path id="Path_2782" class="st12" d="M1.2,152.2c2.6-4.7,26.7-14.5,26.7-14.5c4.7-2.1,6.4,3.5,6.9,8.2L0.3,159.7
						C-0.3,157.2,0,154.4,1.2,152.2z"/>
					
						<linearGradient id="Path_2783_1_" gradientUnits="userSpaceOnUse" x1="-2491.9731" y1="5512.5542" x2="-2489.9058" y2="5512.5542" gradientTransform="matrix(16.8122 0 0 -5.963 40730.9688 33025.668)">
						<stop  offset="0" style="stop-color:#D6D6D6"/>
						<stop  offset="1" style="stop-color:#FFFFFF"/>
					</linearGradient>
					<path id="Path_2783" class="st13" d="M34.8,145.9c0.2,1.9,0.3,3.8,0.3,5.8L1.2,162.7c-0.4-1-0.7-2-0.9-3L34.8,145.9z"/>
				</g>
				<path id="Path_2784" class="st14" d="M32.8,308.5c-1.4,0-2.6,1.5-2.6,3.4c0,0,0,0,0,0v28.3c0,1.9,1.2,3.4,2.6,3.4V308.5z"/>
				<path id="Path_2785" class="st14" d="M267.7,308.5c1.4,0,2.6,1.5,2.6,3.4c0,0,0,0,0,0v28.3c0,1.9-1.2,3.5-2.6,3.4c0,0,0,0,0,0
					V308.5z"/>
				
					<linearGradient id="Path_2786_1_" gradientUnits="userSpaceOnUse" x1="-2454.7424" y1="5656.728" x2="-2452.7556" y2="5656.728" gradientTransform="matrix(105.6187 0 0 -129.8083 257882.7344 734900.3125)">
					<stop  offset="0" style="stop-color:#C2C2C1"/>
					<stop  offset="6.100000e-02" style="stop-color:#E1E1E1"/>
					<stop  offset="0.1" style="stop-color:#F1F0F0"/>
					<stop  offset="0.195" style="stop-color:#F5F5F5"/>
					<stop  offset="0.508" style="stop-color:#F7F7F7"/>
					<stop  offset="0.809" style="stop-color:#F5F5F5"/>
					<stop  offset="0.9" style="stop-color:#F1F0F0"/>
					<stop  offset="0.939" style="stop-color:#E0DFDF"/>
					<stop  offset="1" style="stop-color:#BFBFBF"/>
				</linearGradient>
				<path id="Path_2786" class="st15" d="M66.5,472.3c0-6.9,0-13.6,0-20h166.8c0,6.4,0,13.1,0,20c0,12.2,23-8.2,23.3-7.8
					c3.5,102.8,4.5,284.7-2.6,292.8c-13.5,15.4-199.2,12.8-208.2,0c-6.3-8.9-5.6-142.9-2.4-245.3v-43.2
					C43.4,468.8,66.5,484.4,66.5,472.3z"/>
				<path id="Path_2787" class="st16" d="M120.3,756.5c0-2.4,1.4-4.4,3.2-4.4l0,0h52.9c1.8,0,3.2,2,3.2,4.4l0,0
					c0,2.4-1.4,4.4-3.2,4.4l0,0h-52.9C121.8,760.9,120.3,758.9,120.3,756.5C120.3,756.5,120.3,756.5,120.3,756.5z"/>
				
					<linearGradient id="Rectangle_20159_1_" gradientUnits="userSpaceOnUse" x1="-2781.8516" y1="5658.5928" x2="-2779.7839" y2="5658.5928" gradientTransform="matrix(2.536 0 0 -173.22 5856.3633 980689.1875)">
					<stop  offset="0" style="stop-color:#F7F7F7"/>
					<stop  offset="0.28" style="stop-color:#FFFFFF"/>
					<stop  offset="1" style="stop-color:#000000"/>
				</linearGradient>
				<rect id="Rectangle_20159" x="63.8" y="273" class="st17" width="5.2" height="469.6"/>
				
					<linearGradient id="Rectangle_20160_1_" gradientUnits="userSpaceOnUse" x1="-2879.5642" y1="5658.5928" x2="-2877.4966" y2="5658.5928" gradientTransform="matrix(2.536 0 0 -173.22 5937.1216 980689.1875)">
					<stop  offset="0" style="stop-color:#7B7B7B"/>
					<stop  offset="0.72" style="stop-color:#FFFFFF"/>
					<stop  offset="1" style="stop-color:#F7F7F7"/>
				</linearGradient>
				<rect id="Rectangle_20160" x="230.7" y="273" class="st18" width="5.2" height="469.6"/>
				
					<linearGradient id="Path_2788_1_" gradientUnits="userSpaceOnUse" x1="-2437.2756" y1="5661.4321" x2="-2437.2756" y2="5658.6504" gradientTransform="matrix(62.612 0 0 -47.7937 152752.5781 270403.625)">
					<stop  offset="0" style="stop-color:#DCDBDB"/>
					<stop  offset="1" style="stop-color:#F7F7F7"/>
				</linearGradient>
				<path id="Path_2788" class="st19" d="M214.5,436.7H85.2c0-40.1,0-152.7,0-152.7s15.9-14.7,64.7-14.4
					c48.6-0.3,64.7,14.4,64.7,14.4S214.5,442.5,214.5,436.7z"/>
				<g id="Group_3691" transform="translate(42.185 97.982)">
					
						<linearGradient id="Path_2789_1_" gradientUnits="userSpaceOnUse" x1="-2170.2048" y1="5554.4028" x2="-2168.1372" y2="5554.4028" gradientTransform="matrix(2.862 0 0 -73.66 6743.3271 409640.8125)">
						<stop  offset="0" style="stop-color:#F7F7F7"/>
						<stop  offset="1" style="stop-color:#B4B4B5"/>
					</linearGradient>
					<path id="Path_2789" class="st20" d="M51,416.3c0-1.2-1.3-2.3-3-2.3l0,0c-1.6,0-3,1-3,2.3v174.6c0,1.3,1.3,2.3,3,2.3l0,0
						c1.6,0,3-1,3-2.3V416.3z"/>
					
						<linearGradient id="Path_2791_1_" gradientUnits="userSpaceOnUse" x1="-2165.8801" y1="5554.4028" x2="-2163.8127" y2="5554.4028" gradientTransform="matrix(2.862 0 0 -73.66 6754.9219 409640.8125)">
						<stop  offset="0" style="stop-color:#F7F7F7"/>
						<stop  offset="1" style="stop-color:#B4B4B5"/>
					</linearGradient>
					<path id="Path_2791" class="st21" d="M74.9,416.3c0-1.2-1.3-2.3-3-2.3l0,0c-1.6,0-3,1-3,2.3v174.6c0,1.3,1.3,2.3,3,2.3l0,0
						c1.6,0,3-1,3-2.3V416.3z"/>
					
						<linearGradient id="Path_2792_1_" gradientUnits="userSpaceOnUse" x1="-2153.1311" y1="5554.4028" x2="-2151.0637" y2="5554.4028" gradientTransform="matrix(2.866 0 0 -73.66 6799.6602 409640.8125)">
						<stop  offset="0" style="stop-color:#F7F7F7"/>
						<stop  offset="1" style="stop-color:#B4B4B5"/>
					</linearGradient>
					<path id="Path_2792" class="st22" d="M146.9,416.3c0-1.2-1.3-2.3-3-2.3l0,0c-1.6,0-3,1-3,2.3v174.6c0,1.3,1.3,2.3,3,2.3l0,0
						c1.6,0,3-1,3-2.3V416.3z"/>
					
						<linearGradient id="Path_2794_1_" gradientUnits="userSpaceOnUse" x1="-2148.3389" y1="5554.4028" x2="-2146.2712" y2="5554.4028" gradientTransform="matrix(2.858 0 0 -73.66 6791.3779 409640.8125)">
						<stop  offset="0" style="stop-color:#F7F7F7"/>
						<stop  offset="1" style="stop-color:#B4B4B5"/>
					</linearGradient>
					<path id="Path_2794" class="st23" d="M170.9,416.3c0-1.2-1.3-2.3-3-2.3l0,0c-1.6,0-3,1-3,2.3v174.6c0,1.3,1.3,2.3,3,2.3l0,0
						c1.6,0,3-1,3-2.3V416.3z"/>
					
						<linearGradient id="Path_2795_1_" gradientUnits="userSpaceOnUse" x1="-2161.3369" y1="5554.4028" x2="-2159.2693" y2="5554.4028" gradientTransform="matrix(2.866 0 0 -73.66 6777.6294 409640.8125)">
						<stop  offset="0" style="stop-color:#F7F7F7"/>
						<stop  offset="1" style="stop-color:#B4B4B5"/>
					</linearGradient>
					<path id="Path_2795" class="st24" d="M101.3,416.3c0-1.2-1.3-2.3-3-2.3l0,0c-1.6,0-3,1-3,2.3v174.6c0,1.3,1.3,2.3,3,2.3l0,0
						c1.6,0,3-1,3-2.3V416.3z"/>
					
						<linearGradient id="Path_2797_1_" gradientUnits="userSpaceOnUse" x1="-2156.5669" y1="5554.4028" x2="-2154.4995" y2="5554.4028" gradientTransform="matrix(2.858 0 0 -73.66 6769.3477 409640.8125)">
						<stop  offset="0" style="stop-color:#F7F7F7"/>
						<stop  offset="1" style="stop-color:#B4B4B5"/>
					</linearGradient>
					<path id="Path_2797" class="st25" d="M125.3,416.3c0-1.2-1.3-2.3-3-2.3l0,0c-1.6,0-3,1-3,2.3v174.6c0,1.3,1.3,2.3,3,2.3l0,0
						c1.6,0,3-1,3-2.3V416.3z"/>
				</g>
				<g id="Group_3692" transform="translate(124.168 67.383)">
					
						<linearGradient id="Path_2798_1_" gradientUnits="userSpaceOnUse" x1="-2447.397" y1="5536.189" x2="-2442.7451" y2="5532.7427" gradientTransform="matrix(6.1807 0 0 -16.1488 15504.1709 90014.3438)">
						<stop  offset="0" style="stop-color:#363B39"/>
						<stop  offset="1" style="stop-color:#1B1C1B"/>
					</linearGradient>
					<path id="Path_2798" class="st26" d="M133.1,122.4c0,0,11.9,3.1,12.2,16.6c0.3,13.5-11.9,40.8-12.2,23.5S132,127.5,133.1,122.4
						z"/>
					
						<linearGradient id="Path_2799_1_" gradientUnits="userSpaceOnUse" x1="-2513.948" y1="5533.8057" x2="-2511.9551" y2="5533.8057" gradientTransform="matrix(16.8181 0 0 -7.9457 42837.6914 44118.25)">
						<stop  offset="0" style="stop-color:#363B39"/>
						<stop  offset="1" style="stop-color:#0D0E0E"/>
					</linearGradient>
					<path id="Path_2799" class="st27" d="M174.6,151.9c-2.6-4.7-26.7-14.5-26.7-14.5c-4.7-2.1-6.4,3.5-6.9,8.2l34.5,13.8
						C176.1,156.8,175.8,154,174.6,151.9z"/>
					
						<linearGradient id="Path_2800_1_" gradientUnits="userSpaceOnUse" x1="-2512.6487" y1="5512.8633" x2="-2510.5813" y2="5512.8633" gradientTransform="matrix(16.8114 0 0 -5.969 42820.3789 33060.25)">
						<stop  offset="0" style="stop-color:#D6D6D6"/>
						<stop  offset="1" style="stop-color:#FFFFFF"/>
					</linearGradient>
					<path id="Path_2800" class="st28" d="M141.1,145.6c-0.2,1.9-0.3,3.8-0.3,5.8l33.9,11.1c0.4-1,0.7-2,0.9-3L141.1,145.6z"/>
				</g>
				
					<linearGradient id="Path_2801_1_" gradientUnits="userSpaceOnUse" x1="-2822.6316" y1="5533.1646" x2="-2820.6448" y2="5533.1646" gradientTransform="matrix(2.593 0 0 -4.176 6036.041 23404.0137)">
					<stop  offset="0" style="stop-color:#363B39"/>
					<stop  offset="1" style="stop-color:#0D0E0E"/>
				</linearGradient>
				<path id="Path_2801" class="st29" d="M147.2,297.4c0,3.3,1.2,5.9,2.7,5.9s2.7-2.6,2.7-5.9c0-3.3-1.2-5.9-2.7-5.9
					S147.2,294.1,147.2,297.4z"/>
				<path id="Path_2802" d="M149,297.4l0.3,127.9h1l0.3-127.9H149z"/>
				<g id="Group_3693" transform="translate(30.693 262.491)">
					<path id="Path_2872" class="st30" d="M32.8,478.7c0,0,43.3,5,86.5,5s86.4-5,86.4-5v23.2c0,0-39.8,5-83,5s-89.8-5-89.8-5V478.7z
						"/>
				</g>
				<g id="Group_3694" transform="translate(20.121 5.242)">
					
						<linearGradient id="Path_2803_1_" gradientUnits="userSpaceOnUse" x1="-2436.7288" y1="5647.5977" x2="-2435.1697" y2="5650.6074" gradientTransform="matrix(19.0003 0 0 -16.484 46463.1406 92914.4453)">
						<stop  offset="0" style="stop-color:#9B9B9B"/>
						<stop  offset="1" style="stop-color:#1B1C1B"/>
					</linearGradient>
					<path id="Path_2803" class="st31" d="M60.8,8.9c0,0-30,8.6-36.3,25s-0.9,21.6-0.9,21.6S51.6,41.3,60.8,8.9z"/>
					
						<linearGradient id="Path_2804_1_" gradientUnits="userSpaceOnUse" x1="-2435.0454" y1="5631.0239" x2="-2434.9087" y2="5633.9434" gradientTransform="matrix(13.7449 0 0 -13.318 33509.4844 75003.5859)">
						<stop  offset="0" style="stop-color:#FFFFFF"/>
						<stop  offset="1" style="stop-color:#000000"/>
					</linearGradient>
					<path id="Path_2804" class="st32" d="M25.8,51.2c-0.3-2.5-1.9-9.6,0.6-16.3c3.3-8.6,17.6-17.6,27-21.4
						C50.5,34,32.3,46.8,25.8,51.2z"/>
					
						<linearGradient id="Path_2805_1_" gradientUnits="userSpaceOnUse" x1="-2325.8579" y1="5389.9526" x2="-2325.0063" y2="5393.7549" gradientTransform="matrix(3.1557 0 0 -1.183 7408.1895 6354.4966)">
						<stop  offset="0" style="stop-color:#9B9B9B"/>
						<stop  offset="1" style="stop-color:#1B1C1B"/>
					</linearGradient>
					<path id="Path_2805" class="st33" d="M36.4,36.7c0.1,0.9-1.3,1.8-3.1,2.1c-1.8,0.3-3.3-0.1-3.4-1c-0.1-0.9,1.3-1.8,3.1-2.1
						C34.8,35.3,36.4,35.8,36.4,36.7z"/>
					
						<linearGradient id="Path_2806_1_" gradientUnits="userSpaceOnUse" x1="-2379.5054" y1="5490.9038" x2="-2378.6567" y2="5494.7173" gradientTransform="matrix(5.1285 0 0 -1.921 12269.9277 10530.4688)">
						<stop  offset="0" style="stop-color:#9B9B9B"/>
						<stop  offset="1" style="stop-color:#1B1C1B"/>
					</linearGradient>
					<path id="Path_2806" class="st34" d="M37.3,40c0.1,1.4-2.1,3-5.1,3.5c-2.9,0.5-5.4-0.2-5.5-1.7c-0.1-1.4,2.1-2.9,5.1-3.5
						C34.7,37.8,37.2,38.6,37.3,40z"/>
				</g>
				<g id="Group_3695" transform="translate(107.09 5.242)">
					<path id="Path_2807" class="st35" d="M114.3,8.9c0,0,30,8.6,36.2,25s0.9,21.6,0.9,21.6S123.5,41.3,114.3,8.9z"/>
					
						<linearGradient id="Path_2808_1_" gradientUnits="userSpaceOnUse" x1="-2514.3945" y1="5646.2441" x2="-2514.2544" y2="5649.2354" gradientTransform="matrix(13.743 0 0 -13.318 34701.9727 75003.5859)">
						<stop  offset="0" style="stop-color:#FFFFFF"/>
						<stop  offset="1" style="stop-color:#000000"/>
					</linearGradient>
					<path id="Path_2808" class="st36" d="M149.3,51.2c0.2-2.5,1.9-9.6-0.6-16.3c-3.3-8.6-17.6-17.6-27-21.4
						C124.6,34,142.7,46.8,149.3,51.2z"/>
					
						<linearGradient id="Path_2809_1_" gradientUnits="userSpaceOnUse" x1="-2364.5469" y1="5464.02" x2="-2363.6677" y2="5467.9473" gradientTransform="matrix(3.1621 0 0 -1.183 7706.6709 6354.4966)">
						<stop  offset="0" style="stop-color:#9B9B9B"/>
						<stop  offset="1" style="stop-color:#1B1C1B"/>
					</linearGradient>
					<path id="Path_2809" class="st37" d="M138.6,36.7c-0.1,0.9,1.3,1.8,3.1,2.1c1.8,0.3,3.3-0.1,3.4-1s-1.3-1.8-3.1-2.1
						C140.3,35.3,138.7,35.8,138.6,36.7z"/>
					
						<linearGradient id="Path_2810_1_" gradientUnits="userSpaceOnUse" x1="-2436.2148" y1="5537.0674" x2="-2435.3354" y2="5541.0063" gradientTransform="matrix(5.1288 0 0 -1.921 12725.6191 10530.4688)">
						<stop  offset="0" style="stop-color:#9B9B9B"/>
						<stop  offset="1" style="stop-color:#1B1C1B"/>
					</linearGradient>
					<path id="Path_2810" class="st38" d="M137.8,40c-0.1,1.4,2.1,3,5.1,3.5c2.9,0.5,5.4-0.2,5.5-1.7s-2.1-2.9-5.1-3.5
						C140.4,37.8,137.9,38.6,137.8,40z"/>
				</g>
			</g>
			<g id="Group_3697" transform="translate(21.962 152.65)">
				<path id="Path_2811" class="st5" d="M37.7,313.9l0.6,109.9H25.1l-1.7-115.7L37.7,313.9z"/>
			</g>
			<g id="Group_3698" transform="translate(21.962 207.747)">
				<path id="Path_2812" class="st5" d="M37.7,378.7l1.7,139.9l-12.7-7.5l-3.2-132.4L37.7,378.7z"/>
			</g>
			<g id="Group_3699" transform="translate(115.948 152.648)">
				<path id="Path_2813" class="st5" d="M124.4,313.9l-0.6,109.9H137l1.7-115.7L124.4,313.9z"/>
			</g>
			<g id="Group_3700" transform="translate(115.452 207.747)">
				<path id="Path_2814" class="st5" d="M124.9,378.7l-1.7,139.9l12.7-7.5l3.2-132.4L124.9,378.7z"/>
			</g>
		</g>
	</g>
</g>
</svg>
