<?xml version="1.0" encoding="utf-8"?>
<!-- Generator: Adobe Illustrator 24.2.3, SVG Export Plug-In . SVG Version: 6.00 Build 0)  -->
<svg version="1.1" id="Layer_1" xmlns="http://www.w3.org/2000/svg" xmlns:xlink="http://www.w3.org/1999/xlink" x="0px" y="0px"
	 viewBox="0 0 300 827" style="enable-background:new 0 0 300 827;" xml:space="preserve">
<style type="text/css">
	.st0{fill:#FAA859;}
	.st1{fill:#EF4849;}
	.st2{fill:#ED2324;}
	.st3{fill:#F48182;}
	.st4{fill:#00364D;}
	.st5{fill:#BD202E;}
	.st6{opacity:0.4;}
	.st7{fill:#02566E;}
	.st8{opacity:0.4;enable-background:new    ;}
	.st9{fill:#FFFAF1;}
	.st10{opacity:0.65;fill:url(#Rectangle_24586_2_);enable-background:new    ;}
	.st11{fill:#FEC769;}
	.st12{fill:#4EC9F5;}
	.st13{fill:#F15A2A;}
	.st14{fill:#4A1210;}
	.st15{opacity:0.3;}
	.st16{fill:#FFFFFF;}
	.st17{fill:#C1C1C5;}
	.st18{fill:url(#Path_2973_1_);}
	.st19{fill:url(#Path_2974_1_);}
	.st20{fill:#181415;}
	.st21{fill:#004D65;}
	.st22{fill:#00384B;}
	.st23{fill:#FFDD68;}
	.st24{fill:#FDCE2E;}
	.st25{fill:#242021;}
	.st26{clip-path:url(#SVGID_2_);}
	.st27{fill:#0C151A;}
	.st28{fill:#FEDE54;}
	.st29{fill:#505051;}
	.st30{fill:url(#Path_2823_1_);}
	.st31{fill:#E3BD22;}
	.st32{opacity:0.2;fill:#D0D2D3;enable-background:new    ;}
	.st33{opacity:0.1;fill:#FBCED0;enable-background:new    ;}
	.st34{opacity:0.3;fill:#FEF8E2;enable-background:new    ;}
	.st35{fill:url(#Path_2833_1_);}
	.st36{fill:#221F1F;}
	.st37{fill:#C92127;}
	.st38{fill:#D6A029;}
	.st39{fill:#152426;}
	.st40{fill:url(#Path_2845_1_);}
	.st41{fill:#3CB39E;}
	.st42{opacity:0.4;fill:#7BCCC3;enable-background:new    ;}
	.st43{opacity:0.81;fill:#55C1AF;enable-background:new    ;}
	.st44{fill:#59C2AF;}
	.st45{fill:#158772;}
	.st46{fill:#228E79;}
	.st47{fill:#1C1D1D;}
	.st48{fill:url(#Path_2652_1_);}
	.st49{opacity:0.3;fill:#D1EDF3;enable-background:new    ;}
	.st50{fill:#3ABBA2;}
	.st51{fill:#424143;}
	.st52{fill:none;}
	.st53{fill:#ED2024;}
	.st54{fill:#EF3E3D;}
	.st55{fill:url(#Path_2679_1_);}
	.st56{fill:#991B1E;}
	.st57{opacity:0.3;fill:#FFFFFF;enable-background:new    ;}
	.st58{fill:#F05050;}
	.st59{fill:#FDFEFE;}
	.st60{opacity:0.5;fill:#F38096;enable-background:new    ;}
	.st61{opacity:0.55;fill:#F38096;enable-background:new    ;}
	.st62{fill:#8F191C;}
	.st63{fill:#A3A3A3;}
	.st64{fill:#DCDBDB;}
	.st65{fill:#B6B6B6;}
	.st66{fill:#D2D2D1;}
	.st67{fill:#F6F6F6;}
	.st68{fill:url(#Path_2702_1_);}
	.st69{fill:url(#Path_2703_1_);}
	.st70{fill:#F48789;}
	.st71{fill:#4D4D4E;}
	.st72{fill:#EECAE0;}
	.st73{fill:#F287B6;}
	.st74{fill:#2B5766;}
	.st75{fill:#396B7B;}
	.st76{fill:#EBEBEB;}
</style>
<g id="Group_3653" transform="translate(-200.881 -58.359)">
	<path id="Path_2639" class="st41" d="M473.7,795.6c0,0-1,63-74.1,83.5c-16.1,4.3-32.4,6.4-48.8,6.3c-16.6,0.1-33.3-2.1-49.6-6.6
		C229,858.1,228,795.6,228,795.6c-18.3-36.9-15.9-124-9.3-149.2c6.7-25.2,4.3-89.8,4.3-89.8l1.5-138.2c2.8-48-5.6-154.3-5.6-154.3
		c-11.5-70.5,1.9-107.5,1.9-107.5c2.2-6.4,4.8-12.5,7.7-18.4c6.5-13.2,14.5-24.9,23.7-34.5c41.9-44.2,98.6-40.5,98.6-40.5
		s95.1-6.3,130,93.4c0,0,13.4,37,1.9,107.5c0,0-8.4,106.3-5.6,154.3l1.5,138.2c0,0-2.4,64.6,4.3,89.8
		C489.6,671.6,492,758.7,473.7,795.6z"/>
	<path id="Path_2640" class="st42" d="M480.1,693c-5.1-51.3-2-65.5-4.3-116.8c-2.7-59.4,1.7-267,2.8-280c0.1-26.6,6.8-65.4,8-80.7
		c-4.6-57.7-22.2-84.1-28.9-89.8c-5.1-4.8-31.8-34.9-40.3-35.5c-10.2-0.7,4.7,24.3,11.9,42.9c10.5,27.1,31.3,72.8,34.5,121.2
		c7.6,114.3,8,280.8,2.1,406.8c-0.9,90.5-26.8,136.7-34.1,153.3c45.2-19.8,51.9-50.6,52.7-67.8C485.5,729.4,481,698.2,480.1,693z"/>
	<path id="Path_2641" class="st43" d="M221,693c5.1-51.3,2-65.5,4.3-116.8c2.7-59.4-1.7-267-2.8-280c-0.1-26.6-6.8-65.4-8-80.7
		c4.6-57.7,22.2-84.1,28.9-89.8c5.1-4.8,31.8-34.9,40.3-35.5c10.2-0.7-4.7,24.3-11.9,42.9c-10.5,27.1-31.3,72.8-34.5,121.2
		c-7.6,114.3-8,280.8-2.1,406.8c0.9,90.5,26.8,136.7,34.1,153.3c-45.2-19.8-51.9-50.6-52.7-67.8C215.7,729.4,220.1,698.2,221,693z"
		/>
	<path id="Path_2642" class="st36" d="M293.7,79.7c36-28.6,80.2-28.4,116.1,0.6L293.7,79.7z"/>
	<path id="Path_2643" class="st44" d="M224.6,365.2c0,0-23.5,3.1-23.7,33.1c0,0,1,7.3,31.9-11C232.7,387.3,236,344.3,224.6,365.2z"
		/>
	<g id="Group_3639" transform="translate(215.8 305.371)">
		<path id="Path_2644" class="st36" d="M75.6,569.9c0,0-59.9-17.4-58.6-79c0,0,3.1,2.5,7.5,6.3c0.2,0.2,0.5,0.4,0.7,0.6
			c9.6,8,18.8,16.7,27.7,26.1c6.4,7.3,9.5,15.9,12.7,24.6c0.7,1.9,1.4,3.8,2.1,5.7C69.9,559.9,72.5,565.2,75.6,569.9z"/>
		<path id="Path_2645" class="st37" d="M62.4,548.5c-31-11.2-38.7-41-40.3-50.7c9.6,8,18.8,16.7,27.7,26.1
			C56.1,531.2,59.2,539.8,62.4,548.5z"/>
		<g id="Group_3638" transform="translate(82.193)">
			<path id="Path_2646" class="st36" d="M111,569.9c0,0,59.9-17.4,58.6-79c0,0-3.1,2.5-7.5,6.3c-0.2,0.2-0.5,0.4-0.7,0.6
				c-9.6,8-18.8,16.7-27.7,26.1c-6.4,7.3-9.5,15.9-12.7,24.6c-0.7,1.9-1.4,3.8-2.1,5.7C116.8,559.9,114.1,565.2,111,569.9z"/>
			<path id="Path_2647" class="st37" d="M121,548.5c31-11.2,38.7-41,40.3-50.7c-9.6,8-18.8,16.7-27.7,26.1
				C127.2,531.2,124.1,539.8,121,548.5z"/>
		</g>
	</g>
	<path id="Path_2648" class="st41" d="M462.9,676.7c-4.7,27.6-24.8,136.7-57.4,193.3c-3.6,6.2-8.9,10.4-14.8,11.6
		c-1.9,0.4-3.9,0.8-5.8,1.1c-11.3,1.8-22.7,2.8-34.1,2.8c-11.9,0-23.7-1-35.5-3.1c-2.4-0.4-4.8-0.9-7.1-1.4c-4.6-1-8.8-4.3-11.6-9.1
		c-33.2-55.9-53.8-167.2-58.5-195.2c-0.5-2.9,0.9-5.7,3.1-6.4c0.3-0.1,0.6-0.1,0.9-0.1c32.9-0.2,108.4,0,108.4,0s75.5-0.2,108.4,0
		c2.3,0,4.1,2.4,4.1,5.4C463,675.9,463,676.3,462.9,676.7z"/>
	<path id="Path_2649" class="st45" d="M465.9,598c0,0-0.2,36.3-1.4,60.3c-0.3,5.5-3,10.1-6.7,11.4c-3.7,1.3-9,2.9-15.4,4.4
		c-38.4,12.3-157.2,8.4-181,0.6c-4.9-1.1-9.3-2.2-12.8-3.3c-6.9-2.1-12-10.7-12.4-20.9c-0.9-23.3-1.1-52.5-1.1-52.5
		s0.3-133.4,0.3-173.6s10.3-60.6,38-87.1c26.6-25.5,73.6-29.1,76.9-29.4c0.1,0,0.2,0,0.4,0c3.4,0.2,50.3,3.9,76.9,29.4
		c27.6,26.5,37.9,46.9,37.9,87.1S465.9,598,465.9,598z"/>
	<g id="Group_3642" transform="translate(219.141 64.978)">
		<path id="Path_2650" class="st46" d="M129.6,13.1C11.8,19.1,21,316.9,21,316.9l108.6-1.4H241C241,315.6,247.4,19.1,129.6,13.1z"/>
		<g id="Group_3641" transform="translate(0.079 73.835)">
			<g id="Group_3640">
				<path id="Path_2651" class="st47" d="M131.3,129.9c0,0-88.7-5.8-110.3,80.9c0,0,5.4,60.8,26.6,61.5c21.2,0.7,83.8,0,83.8,0
					s62.6,0.7,83.8,0s26.6-61.5,26.6-61.5C220,124.1,131.3,129.9,131.3,129.9z"/>
				
					<linearGradient id="Path_2652_1_" gradientUnits="userSpaceOnUse" x1="-3894.1646" y1="5573.6592" x2="-3892.0215" y2="5573.6592" gradientTransform="matrix(100.587 0 0 -42.414 391725.875 236607.0313)">
					<stop  offset="0" style="stop-color:#949494"/>
					<stop  offset="4.400000e-02" style="stop-color:#868686"/>
					<stop  offset="0.193" style="stop-color:#5D5E5E"/>
					<stop  offset="0.345" style="stop-color:#3B3B3B"/>
					<stop  offset="0.499" style="stop-color:#212121"/>
					<stop  offset="0.658" style="stop-color:#0F0F0F"/>
					<stop  offset="0.821" style="stop-color:#030303"/>
					<stop  offset="1" style="stop-color:#000000"/>
				</linearGradient>
				<path id="Path_2652" class="st48" d="M183.9,269.2c-24.5,0-52.3-0.3-52.6-0.3c-0.3,0-28.1,0.3-52.7,0.3
					c-14.4,0-24.8-0.1-31.1-0.3C30,268.3,24.2,222,23.5,215.1c19-69.2,90.2-72.7,104.3-72.7c2.1,0,3.3,0.1,3.3,0.1
					c0.2,0,1.4-0.1,3.6-0.1c14.1,0,85.4,3.5,104.3,72.7c-0.8,6.8-6.6,53.2-24.1,53.7C208.7,269.1,198.3,269.2,183.9,269.2z"/>
			</g>
		</g>
	</g>
	<g id="Group_3645" transform="translate(218.127 65.711)">
		<path id="Path_2653" class="st41" d="M130.7,14.6c-115,5.2-106,264-106,264l106-1.2h108.8C239.4,277.4,245.7,19.7,130.7,14.6z"/>
		<path id="Path_2654" class="st49" d="M146.1,16.9c-5.1-1.4-10.2-2.2-15.4-2.4c-115,5.2-106,264-106,264l28.2-0.4
			C93.4,219.2,127.8,114.8,146.1,16.9z"/>
		<g id="Group_3644" transform="translate(0 72.843)">
			<path id="Path_2655" class="st50" d="M183.8,271.8c-24,0-51.2-0.3-51.4-0.3c-0.2,0-27.4,0.3-51.4,0.3c-14.1,0-24.4-0.1-30.5-0.3
				c-24.5-0.7-30.4-55.6-30.6-57.9l-0.2-1.5l0.4-1.5c19.9-69.6,94.2-73.2,108.9-73.2c1.8,0,2.9,0,3.4,0.1c0.5,0,1.6-0.1,3.4-0.1
				c14.7,0,89,3.5,108.9,73.2l0.4,1.5l-0.2,1.5c-0.2,2.3-6.1,57.2-30.6,57.9C208.1,271.7,197.9,271.8,183.8,271.8L183.8,271.8z"/>
			<g id="Group_3643" transform="translate(2.304)">
				<path id="Path_2656" class="st47" d="M130.1,135.5c0,0-86.6-5.1-107.7,70.3c0,0,5.3,52.8,25.9,53.4s81.8,0,81.8,0
					s61.1,0.6,81.8,0s25.9-53.4,25.9-53.4C216.7,130.4,130.1,135.5,130.1,135.5z"/>
				<path id="Path_2657" class="st22" d="M181.5,256.5c-23.9,0-51.1-0.3-51.4-0.3c-0.3,0-27.5,0.3-51.4,0.3
					c-14.1,0-24.3-0.1-30.3-0.3c-17.1-0.5-22.8-40.8-23.5-46.7c18.5-60.1,88.1-63.2,101.9-63.2c2.1,0,3.2,0.1,3.3,0.1
					c0.2,0,1.4-0.1,3.5-0.1c13.8,0,83.4,3.1,101.9,63.2c-0.7,5.9-6.4,46.2-23.5,46.7C205.7,256.4,195.5,256.5,181.5,256.5
					L181.5,256.5z"/>
				<path id="Path_2658" class="st32" d="M24.8,209.5c0.7,5.9,6.4,46.2,23.5,46.7c6.1,0.2,16.3,0.3,30.3,0.3
					c19.9-30.4,44.7-110.1,44.7-110.1C104.1,147,42.1,153.3,24.8,209.5z"/>
			</g>
		</g>
	</g>
	<path id="Path_2659" class="st36" d="M384.9,882.4c-11.3,2-22.7,3-34.1,3c-11.9,0-23.7-1.1-35.5-3.3
		C338.2,874.2,362.1,874.3,384.9,882.4z"/>
	<path id="Rectangle_20158" class="st44" d="M267,421.3h163.6c5.1,0,9.3,7.1,9.3,15.9v204.9c0,8.8-4.1,15.9-9.3,15.9H267
		c-5.1,0-9.3-7.1-9.3-15.9V437.2C257.7,428.4,261.9,421.3,267,421.3z"/>
	<path id="Path_2660" class="st49" d="M289,597.5c-21.7-30.1-18.7-119.4-12.5-154.3c1.2-6.6,6.7-19.5,23.1-21.9h-30
		c-6.6,0-12,9.2-12,20.5v195.7c0,11.3,5.4,20.5,12,20.5c0,0,0,0,0,0h158.2c6.6,0,12-9.2,12-20.5c0,0,0,0,0,0v-29.8
		C409.3,635.5,310.6,627.6,289,597.5z"/>
	<g id="Group_3646" transform="translate(236.257 99.737)">
		<path id="Path_2661" class="st51" d="M45.5,146.5c0,0,1.6-79.7,25.3-100.9L45.5,146.5z"/>
		<path id="Path_2662" class="st51" d="M186.2,142.3c0,0-1.6-79.7-25.3-100.9L186.2,142.3z"/>
	</g>
	<g id="Group_3647" transform="translate(215.707 168.093)">
		<path id="Path_2663" class="st22" d="M32.8,289.9c0,0-7.9-70.1-11.2-71.7c-3.3-1.6-4.1,12.8-4.1,12.8L17,306l2.3,122.2v39.1
			c0.3,14.1,13.3,25.7,13.3,25.7l-0.9-105.4L32.8,289.9z"/>
		<path id="Path_2664" class="st32" d="M32.8,289.9c0,0-7.9-70.1-11.2-71.7c-3.3-1.6-4.1,12.8-4.1,12.8L17,306l1.3,68.3
			c4.9-12.6,9.6-25.2,14.1-38L32.8,289.9z"/>
	</g>
	<g id="Group_3648" transform="translate(318.204 168.093)">
		<path id="Path_2665" class="st22" d="M134.1,289.9c0,0,7.9-70.1,11.2-71.7c3.3-1.6,4.1,12.8,4.1,12.8l0.6,75l-2.3,122.2v39.1
			c-0.3,14.1-13.3,25.7-13.3,25.7l0.9-105.4L134.1,289.9z"/>
		<path id="Path_2666" class="st32" d="M134.1,289.9c0,0,7.9-70.1,11.2-71.7c3.3-1.6,4.1,12.8,4.1,12.8l0.6,75l-1.3,68.3
			c-4.9-12.6-9.6-25.2-14.1-38L134.1,289.9z"/>
	</g>
	<g id="Group_3649" transform="translate(221.692 263.625)">
		<path id="Path_2667" class="st39" d="M40.5,493.8L24,427.6c-0.7-2.7,0.5-5.5,2.5-6.4c0.6-0.2,1.2-0.3,1.7-0.2
			C52,425.6,140.7,440,230,421.2c2.1-0.5,4.1,1.4,4.4,4.1c0.1,0.8,0,1.7-0.2,2.5l-18.1,66.2c-0.3,1.1-0.9,2.1-1.8,2.7
			c-10.4,7.6-83.4,56.5-171.9,0C41.6,496.2,40.8,495.1,40.5,493.8z"/>
		<path id="Path_2668" class="st22" d="M41.5,493.5l-16.3-65.4c-0.7-2.6,0.4-5.4,2.4-6.3c0.6-0.2,1.2-0.3,1.7-0.2
			c23.5,4.5,111.2,18.7,199.5,0.2c2.1-0.5,4,1.4,4.4,4.1c0.1,0.8,0,1.7-0.2,2.5l-17.9,65.5c-0.3,1.1-0.9,2.1-1.7,2.7
			c-10.3,7.5-82.4,55.9-169.9,0C42.6,495.9,41.9,494.8,41.5,493.5z"/>
		<path id="Path_2669" class="st32" d="M29.4,421.6c-2.1-0.4-4,1.5-4.3,4.2c-0.1,0.8,0,1.5,0.1,2.3l16.3,65.4c0.3,1.3,1,2.4,2,3
			c4.4,2.8,8.7,5.2,12.9,7.5c8.5-25,16.2-50.5,24.4-75.4C56.7,426.5,38.3,423.3,29.4,421.6z"/>
	</g>
	<g id="Group_3652" transform="translate(213.791 69.035)">
		<g id="Group_3650">
			<path id="Path_2670" class="st36" d="M70.3,21.2c-39.6,64.2-50.4,55-50.4,55c-2.4-1-4.3-3.6-5.1-7c6.5-13.2,14.5-24.9,23.7-34.5
				C48.8,28.9,59.4,24.4,70.3,21.2z"/>
			<ellipse id="Ellipse_143" class="st16" cx="35.6" cy="52.8" rx="7.9" ry="11.1"/>
			<path id="Path_2671" class="st16" d="M62.9,28.5c0,0-11.4,19.4-14.7,19.4c-3.2,0-5.9-3.7-5.9-8.2c0-4.5,2.9-5.7,6.1-5.7
				C51.7,34,62.9,28.5,62.9,28.5z"/>
		</g>
		<g id="Group_3651" transform="translate(88.089)">
			<path id="Path_2672" class="st36" d="M115.4,21.2c39.6,64.2,50.4,55,50.4,55c2.4-1,4.3-3.6,5.1-7c-6.5-13.2-14.5-24.9-23.7-34.5
				C136.9,28.9,126.3,24.4,115.4,21.2z"/>
			<ellipse id="Ellipse_144" class="st16" cx="150.1" cy="52.8" rx="7.9" ry="11.1"/>
			<path id="Path_2673" class="st16" d="M122.8,28.5c0,0,11.4,19.4,14.7,19.4c3.2,0,5.9-3.7,5.9-8.2c0,0,0,0,0,0
				c0-4.5-2.9-5.7-6.1-5.7C134,34,122.8,28.5,122.8,28.5z"/>
		</g>
	</g>
	<path id="Path_2674" class="st44" d="M477.1,365.2c0,0,23.5,3.1,23.7,33.1c0,0-1,7.3-31.9-11C469,387.3,465.8,344.3,477.1,365.2z"
		/>
</g>
</svg>
