<?xml version="1.0" encoding="utf-8"?>
<!-- Generator: Adobe Illustrator 24.2.3, SVG Export Plug-In . SVG Version: 6.00 Build 0)  -->
<svg version="1.1" id="Layer_1" xmlns="http://www.w3.org/2000/svg" xmlns:xlink="http://www.w3.org/1999/xlink" x="0px" y="0px"
	 viewBox="0 0 300 729.7" style="enable-background:new 0 0 300 729.7;" xml:space="preserve">
<style type="text/css">
	.st0{fill:url(#Path_2815-2_1_);}
	.st1{fill:url(#Path_2768_1_);}
	.st2{fill:url(#Path_2769_1_);}
	.st3{fill:#EBEBEB;}
	.st4{fill:#FFFFFF;}
	.st5{fill:#00384B;}
	.st6{fill:#F2F2F3;}
	.st7{fill:#2B5766;}
	.st8{fill:#356D81;}
	.st9{fill:url(#Path_2779_1_);}
	.st10{fill:url(#Path_2780_1_);}
	.st11{fill:url(#Path_2781_1_);}
	.st12{fill:url(#Path_2782_1_);}
	.st13{fill:url(#Path_2783_1_);}
	.st14{fill:#595A5A;}
	.st15{fill:url(#Path_2786_1_);}
	.st16{fill:#0A0A0B;}
	.st17{fill:url(#Rectangle_20159_1_);}
	.st18{fill:url(#Rectangle_20160_1_);}
	.st19{fill:url(#Path_2788_1_);}
	.st20{fill:url(#Path_2789_1_);}
	.st21{fill:url(#Path_2791_1_);}
	.st22{fill:url(#Path_2792_1_);}
	.st23{fill:url(#Path_2794_1_);}
	.st24{fill:url(#Path_2795_1_);}
	.st25{fill:url(#Path_2797_1_);}
	.st26{fill:url(#Path_2798_1_);}
	.st27{fill:url(#Path_2799_1_);}
	.st28{fill:url(#Path_2800_1_);}
	.st29{fill:url(#Path_2801_1_);}
	.st30{fill:#C2C2C1;}
	.st31{fill:url(#Path_2803_1_);}
	.st32{fill:url(#Path_2804_1_);}
	.st33{fill:url(#Path_2805_1_);}
	.st34{fill:url(#Path_2806_1_);}
	.st35{fill:#9B9B9B;}
	.st36{fill:url(#Path_2808_1_);}
	.st37{fill:url(#Path_2809_1_);}
	.st38{fill:url(#Path_2810_1_);}
	.st39{fill:#D04B4B;}
	.st40{fill:#F6A84B;}
	.st41{opacity:0.8;fill:#356D81;enable-background:new    ;}
	.st42{fill:#F26B77;}
	.st43{fill:#EC5A66;}
	.st44{clip-path:url(#SVGID_2_);}
	.st45{fill:#AE2425;}
	.st46{fill:#E6E3DE;}
	.st47{fill:#06314E;}
	.st48{clip-path:url(#SVGID_4_);}
	.st49{fill:#8293A0;}
	.st50{clip-path:url(#SVGID_6_);}
	.st51{clip-path:url(#SVGID_8_);}
	.st52{clip-path:url(#SVGID_10_);}
	.st53{fill:#E3E5DA;}
	.st54{fill:#EADFDD;}
	.st55{fill:#EAEAEA;}
	.st56{fill:#2D86A5;}
	.st57{clip-path:url(#SVGID_12_);}
	.st58{fill:#296277;}
	.st59{clip-path:url(#SVGID_14_);}
	.st60{fill:#FCF8F7;}
	.st61{fill:#E7E3E4;}
	.st62{fill:none;stroke:#06314E;stroke-width:3;stroke-linecap:round;stroke-miterlimit:10;}
	.st63{fill:#929FB1;}
	.st64{fill:#E8ECEE;}
	.st65{fill:#ED1C24;}
	.st66{fill:#F15959;}
	.st67{opacity:0.5;fill:#A2ADAF;enable-background:new    ;}
	.st68{clip-path:url(#SVGID_16_);}
	.st69{fill:#059DD1;}
	.st70{fill:#33ACE2;}
	.st71{opacity:0.8;fill:#39C6F4;enable-background:new    ;}
	.st72{fill:#061C23;}
	.st73{opacity:0.52;fill:#296277;enable-background:new    ;}
	.st74{opacity:0.7;fill:#2B5766;enable-background:new    ;}
	.st75{opacity:0.3;fill:#296277;enable-background:new    ;}
	.st76{fill:#1E4E5D;}
	.st77{clip-path:url(#SVGID_18_);}
	.st78{fill:#CBE3EA;}
	.st79{clip-path:url(#SVGID_20_);}
	.st80{fill:#AF2E2B;}
	.st81{fill:#2CB7EA;}
	.st82{clip-path:url(#SVGID_22_);}
	.st83{fill:#2697D4;}
	.st84{clip-path:url(#SVGID_24_);}
	.st85{opacity:0.7;fill:#39C6F4;enable-background:new    ;}
	.st86{fill:#343C43;}
	.st87{fill:none;stroke:#1A1F23;stroke-width:0.5;stroke-linecap:round;stroke-miterlimit:10;}
	.st88{fill:#BEBEC0;}
	.st89{fill:#C1C1C5;}
	.st90{fill:#E6E7E9;}
	.st91{fill:#181415;}
	.st92{fill:#004D65;}
	.st93{fill:#00364D;}
	.st94{fill:#F3F3F1;}
	.st95{fill:#242021;}
	.st96{fill:#D2D3D5;}
	.st97{clip-path:url(#SVGID_26_);}
	.st98{clip-path:url(#SVGID_28_);}
	.st99{clip-path:url(#SVGID_30_);}
	.st100{fill:#BEBFC1;}
	.st101{fill:#0C151A;}
	.st102{fill:#E86255;}
	.st103{fill:#010101;}
	.st104{fill:#065E7B;}
	.st105{fill:#F5B4D1;stroke:#CE2527;stroke-width:0.5;stroke-miterlimit:10;}
	.st106{fill:#F3766B;}
	.st107{fill:#CE2527;}
	.st108{fill:#171314;}
	.st109{fill:#AE1F24;}
	.st110{clip-path:url(#SVGID_32_);}
	.st111{fill:#096E8E;}
	.st112{clip-path:url(#SVGID_34_);}
	.st113{fill:#E9DCE6;}
	.st114{fill:none;stroke:#CE2527;stroke-width:0.5;stroke-linecap:round;stroke-miterlimit:10;}
	.st115{clip-path:url(#SVGID_36_);}
	.st116{fill:#F4858F;}
	.st117{clip-path:url(#SVGID_38_);}
	.st118{fill:#D7CDD5;}
	.st119{clip-path:url(#SVGID_40_);}
	.st120{opacity:0.2;fill:#A21D21;enable-background:new    ;}
	.st121{opacity:0.3;fill:#991B1F;enable-background:new    ;}
	.st122{fill:#050203;}
	.st123{clip-path:url(#SVGID_42_);}
	.st124{clip-path:url(#SVGID_44_);}
	.st125{fill:#F5B4D1;}
	.st126{fill:url(#Path_3060_2_);}
	.st127{fill:url(#Path_3061_2_);}
	.st128{fill:#2E2E2E;}
	.st129{fill:#BD202E;}
	.st130{fill:#DCDBDB;}
	.st131{fill:#F6F6F6;}
	.st132{fill:url(#Path_3069_2_);}
	.st133{fill:#094F66;}
	.st134{fill:#848585;}
	.st135{fill:url(#Path_3079_2_);}
	.st136{fill:url(#Path_3080_2_);}
	.st137{fill:url(#Path_3081_2_);}
	.st138{fill:url(#Path_3082_2_);}
	.st139{fill:url(#Path_3083_2_);}
	.st140{fill:url(#Path_3084_2_);}
	.st141{fill:url(#Path_3085_2_);}
	.st142{fill:url(#Path_3086_2_);}
	.st143{fill:#7B7B7B;}
	.st144{fill:#49A9C9;}
	.st145{fill:none;}
	.st146{fill:#00253A;}
	.st147{opacity:0.49;fill:#DCDBDB;enable-background:new    ;}
	.st148{fill:#DFE0D5;}
	.st149{fill:#333333;}
	.st150{fill:#F6F8EB;}
	.st151{opacity:0.2;fill:url(#Path_6732_1_);enable-background:new    ;}
	.st152{fill:#EFEFEA;}
	.st153{fill:#CCCCCB;}
	.st154{opacity:0.5;fill:url(#Path_6742_1_);enable-background:new    ;}
	.st155{opacity:0.3;fill:url(#Path_6743_1_);enable-background:new    ;}
	.st156{opacity:0.3;fill:url(#Path_6744_1_);enable-background:new    ;}
	.st157{fill:#666766;}
	.st158{fill:#F26722;}
	.st159{fill:#E0F2F6;}
	.st160{fill:#F7F7F7;}
	.st161{fill:url(#Path_6755_1_);}
	.st162{fill:#676B86;}
	.st163{opacity:0.2;enable-background:new    ;}
	.st164{opacity:0.5;fill:url(#Path_6770_1_);enable-background:new    ;}
	.st165{opacity:0.3;fill:url(#Path_6771_1_);enable-background:new    ;}
	.st166{opacity:0.4;enable-background:new    ;}
	.st167{opacity:0.5;fill:url(#Path_6777_1_);enable-background:new    ;}
	.st168{opacity:0.3;fill:url(#Path_6778_1_);enable-background:new    ;}
	.st169{fill:url(#Path_6780_1_);}
	.st170{fill:#CB2026;}
	.st171{fill:url(#Path_6782_1_);}
	.st172{opacity:0.3;fill:#640D0D;enable-background:new    ;}
	.st173{opacity:0.5;fill:#EF3C23;enable-background:new    ;}
	.st174{fill:url(#Path_6786_1_);}
	.st175{fill:url(#Path_6788_1_);}
	.st176{fill:url(#Path_6792_1_);}
	.st177{fill:url(#Path_6794_1_);}
	.st178{opacity:0.5;fill:url(#Path_6798_1_);enable-background:new    ;}
	.st179{opacity:0.3;fill:url(#Path_6799_1_);enable-background:new    ;}
	.st180{opacity:0.4;fill:url(#Path_6801_1_);enable-background:new    ;}
	.st181{opacity:0.4;fill:url(#Path_6803_1_);enable-background:new    ;}
	.st182{fill:url(#Path_6805_1_);}
	.st183{opacity:0.5;fill:url(#Path_6809_1_);enable-background:new    ;}
	.st184{opacity:0.3;fill:url(#Path_6810_1_);enable-background:new    ;}
	.st185{opacity:0.4;fill:url(#Path_6812_1_);enable-background:new    ;}
	.st186{opacity:0.4;fill:url(#Path_6814_1_);enable-background:new    ;}
</style>
<g id="Group_3783" transform="translate(-100 -423)">
	<g transform="matrix(1, 0, 0, 1, 100, 423)">
		<path id="Path_2996-2" class="st6" d="M27.8,221.9l-7.1-8.4v-95.3l7.8-8.4V106l-5.5,0.4c0,0-1.3,0-1.3-14.5c0,0-7.8-51.9,44.8-74
			c0,0,43.5-28.2,134.5-13.7c0,0,78,17.5,76.7,74.7l-0.6,22.9c0,0,3.2,4.6-5.2,3.8c0,0-3.9,1.5,1.9,6.1c0,0,7.1,3.1,6.5,16
			l-1.3,81.6c0,0,1.9,7.6-5.8,16l-1.3,307.4c0,0-1.9,6.9,1.9,9.9l5.2,6.9l0.6,91.5c0,0,1.3,1.5-3.9,9.2l-4.5,6.1c0,0,1.3,0,1.3,5.3
			c0,0,6.5,33.6-22.1,45c0,0-63,36.6-169,13.7c0,0-53.3-9.9-53.3-49.6v-434L27.8,221.9z"/>
	</g>
	<g id="Group_3782_1_" transform="translate(-434.872 297.926)">
		<path id="Path_2971" class="st88" d="M564.6,657.6l-9.1,10.6l-0.7,93.5c2.6,3.5,5,7.3,7.2,11.3c0,0-4.6,0.8-4.6,5.3l-0.7,17.3
			c0,0-0.7,16.6,10.4,27.1c0,0,18.9,27.1,108.8,31.7c0,0,77.5,6,122.5-25.6c0,0,19.5-13.6,14.3-49.8c0,0,0.7-6.8-9.1-3.8L792,808.4
			L694.6,828l-85.7,1.5l-34.5-29.4l-5.2-133.4L564.6,657.6z"/>
		<path id="Path_2972_1_" class="st89" d="M566.9,343.6l3.9-155.3l10.8-25.3l13.9-7.1l-11.1,122.9l3.3,52.8l-5.8,7.7l-4.8,8.3
			L566.9,343.6z"/>
		<path id="Path_2973_1_" class="st6" d="M562.3,344.4l-7.2-8.3v-94.2l7.8-8.3v-3.8l-5.5,0.4c0,0-1.3,0-1.3-14.3
			c0,0-7.8-51.3,45-73.1c0,0,43.7-27.9,134.9-13.6c0,0,78.2,17.3,76.9,73.9l-0.7,22.6c0,0,3.3,4.5-5.2,3.8c0,0-3.9,1.5,2,6
			c0,0,7.2,3,6.5,15.8l-1.3,80.7c0,0,2,7.5-5.9,15.8L807,651.6c0,0-2,6.8,2,9.8l5.2,6.8l0.7,90.5c0,0,1.3,1.5-3.9,9l-4.6,6
			c0,0,1.3,0,1.3,5.3c0,0,6.5,33.2-22.2,44.5c0,0-63.2,36.2-169.4,13.6c0,0-53.4-9.8-53.4-49V359.1L562.3,344.4z"/>
		<path id="Path_2974_1_" class="st90" d="M562.6,344V200c0,0-1.3-24.1,26.1-43.7c0,0,31.3-31.7,110.1-25.6c0,0,52.1-3,94.5,36.9
			c0,0,16.3,12.1,13.7,61.8c0,0-3.9,0.8,2,6L805,344.8l-9.1-8.3c0,0,8.5-150.8-6.5-167.3l-5.2-6.8c2.2,6.3,3.5,12.9,3.9,19.6
			c0,0,5.2,89,2.6,155.3c0,0,3.3-46.7-64.5-49.8c0,0-82.7-9-123.1,9.8c0,0-26.7,9.8-24.1,53.5l-0.7-151.5c0,0-0.7-24.9,11.1-38.4
			c0,0-17.6,11.3-16.3,43L571.8,338L562.6,344z"/>
		<path id="Path_2975_1_" class="st91" d="M612.8,791h-0.6c-1.5,0-2.6-1.4-2.6-3.1c0,0,0,0,0,0V408.8l5.9-2.3V788
			C615.4,789.7,614.2,791,612.8,791L612.8,791z"/>
		<path id="Path_2976_1_" class="st91" d="M758.1,791h-0.6c-1.5,0-2.6-1.4-2.6-3.1c0,0,0,0,0,0V405.1l5.9,1.5V788
			C760.7,789.7,759.5,791,758.1,791C758.1,791,758.1,791,758.1,791z"/>
		<path id="Path_2977_1_" class="st92" d="M610.2,808.4c0,0,5.2,6.8,22.8,5.3h113.4c4.8,0.2,9.4-1.7,13-5.3c0,0-1.3,12.1-24.8,16.6
			c0,0-53.4,3.8-86,2.3C648.6,827.2,618,827.2,610.2,808.4z"/>
		<path id="Path_2978_1_" class="st93" d="M573.1,331.9c-3.1,26.7-4.7,53.7-4.6,80.7l-0.7,85.2l28,4.5v-49.8c0,0-2-33.2-7.2-49
			L573.1,331.9z"/>
		<path id="Path_2979_1_" class="st93" d="M568.5,512.9l27.4,3V632c0,0,2.6,15.1-9.8,18.8l-17.6,6V512.9z"/>
		<path id="Path_2980_1_" class="st93" d="M596.5,659.1c0,0-17.6,24.9-17.6,40v53.5c0,0,0.7,28.6,16.3,32.4L596.5,659.1z"/>
		<path id="Path_2981_1_" class="st5" d="M797.2,331.9c3.1,26.7,4.7,53.7,4.6,80.7l0.7,85.2l-28,4.5v-49.8c0,0,2-33.2,7.2-49
			L797.2,331.9z"/>
		<path id="Path_2982_1_" class="st5" d="M801.7,512.9l-27.4,3V632c0,0-2.6,15.1,9.8,18.8l17.6,6L801.7,512.9z"/>
		<path id="Path_2983_1_" class="st5" d="M773.7,659.1c0,0,17.6,24.9,17.6,40v53.5c0,0-0.7,28.6-16.3,32.4L773.7,659.1z"/>
		<path id="Path_2986_1_" class="st94" d="M627.8,240l18.9-80.7c0,0,7.8-21.9,27.4-24.1c0,0-20.8,10.6-26.1,31.7
			C648,166.9,627.8,237.7,627.8,240z"/>
		<path id="Path_2987_1_" class="st89" d="M740.5,240l-18.9-80.7c0,0-7.8-21.9-27.4-24.1c0,0,20.8,10.6,26.1,31.7
			C720.3,166.9,740.5,237.7,740.5,240z"/>
		<rect id="Rectangle_20168_1_" x="560" y="472.2" class="st95" width="2.6" height="24.1"/>
		<rect id="Rectangle_20169_1_" x="807.6" y="472.2" class="st95" width="2.6" height="24.1"/>
		<rect id="Rectangle_20170_1_" x="560" y="617.6" class="st95" width="2.6" height="24.1"/>
		<rect id="Rectangle_20171_1_" x="807.6" y="617.6" class="st95" width="2.6" height="24.1"/>
		<path id="Path_2988_1_" class="st96" d="M574.4,654.6L574,794.3c0,0-3.5,11.8,8.8,22.3c0,0,12.4,9.8,17.6,12.1
			c0,0-22.8-11.3-20.8-32.4v-144L574.4,654.6z"/>
		<path id="Path_2989_1_" class="st96" d="M602.9,412.4l-2.1,368.5c0,0-1,22.3,13.5,30.8c0,0-8-5.5-8-32.6l1.3-369.4L602.9,412.4z"
			/>
		<g id="Group_3776" transform="translate(573.759 263.383)">
			<path id="Rectangle_20172" class="st93" d="M77.6,226.5h66.2c16.3,0,29.5,15.3,29.5,34.3v132c0,18.9-13.2,34.3-29.5,34.3H77.6
				c-16.3,0-29.5-15.3-29.5-34.3v-132C48.2,241.9,61.4,226.5,77.6,226.5z"/>
			<g id="Group_3775" transform="translate(0)">
				<g>
					<defs>
						<path id="SVGID_25_" d="M77.6,226.5h66.2c16.3,0,29.5,15.3,29.5,34.3v132c0,18.9-13.2,34.3-29.5,34.3H77.6
							c-16.3,0-29.5-15.3-29.5-34.3v-132C48.2,241.9,61.4,226.5,77.6,226.5z"/>
					</defs>
					<clipPath id="SVGID_2_">
						<use xlink:href="#SVGID_25_"  style="overflow:visible;"/>
					</clipPath>
					<g id="Group_3774" class="st44">
						<path id="Path_2990" class="st92" d="M67.4,226.7c0,0,94.1,102,94.1,203l18.3-42.6l-3.3-164.3L67.4,226.7z"/>
					</g>
				</g>
			</g>
		</g>
		<g id="Group_3779_1_" transform="translate(555.932 192.602)">
			<path id="Path_2991_1_" class="st93" d="M44.5,220.8l-15-60.3c0,0-13-30.9,11.7-52.8c0,0,23.7-16.6,96.6-14.7
				c0,0,75.8-3.9,90.3,28.8c0,0,9.9,9.3-1.2,46.3l-13,53.5c0,0-9.9-8.3-41-12.8C135.6,203.3,74,202.7,44.5,220.8z"/>
			<g id="Group_3778_1_" transform="translate(0 0)">
				<g>
					<defs>
						<path id="SVGID_27_" d="M44.5,220.8l-15-60.3c0,0-13-30.9,11.7-52.8c0,0,23.7-16.6,96.6-14.7c0,0,75.8-3.9,90.3,28.8
							c0,0,9.9,9.3-1.2,46.3l-13,53.5c0,0-9.9-8.3-41-12.8C135.6,203.3,74,202.7,44.5,220.8z"/>
					</defs>
					<clipPath id="SVGID_4_">
						<use xlink:href="#SVGID_27_"  style="overflow:visible;"/>
					</clipPath>
					<g id="Group_3777_1_" class="st48">
						<path id="Path_2992_1_" class="st92" d="M28.5,126.5c0,0,55.1-30.1,145,33.9c0,0,40.4,35.4,45,61.1l21.5-67.8l-31.3-84.4
							L105.7,70L23.1,94.9v13.9L28.5,126.5z"/>
					</g>
				</g>
			</g>
		</g>
		<g id="Group_3781" transform="translate(543.931 131.074)">
			<g>
				<defs>
					<path id="SVGID_29_" d="M18.4,213.3l-7.2-8.3v-94.2l7.8-8.3v-3.8l-5.5,0.4c0,0-1.3,0-1.3-14.3c0,0-7.8-51.3,45-73.1
						c0,0,43.7-27.9,134.9-13.6c0,0,78.2,17.3,76.9,73.9l-0.7,22.6c0,0,3.3,4.5-5.2,3.8c0,0-3.9,1.5,2,6c0,0,7.2,3,6.5,15.8
						l-1.3,80.7c0,0,2,7.5-5.9,15.8L263,520.5c0,0-2,6.8,2,9.8l5.2,6.8l0.7,90.5c0,0,1.3,1.5-3.9,9l-4.6,6c0,0,1.3,0,1.3,5.3
						c0,0,6.5,33.2-22.2,44.5c0,0-63.2,36.2-169.4,13.6c0,0-53.4-9.8-53.4-49V228L18.4,213.3z"/>
				</defs>
				<clipPath id="SVGID_6_">
					<use xlink:href="#SVGID_29_"  style="overflow:visible;"/>
				</clipPath>
				<g id="Group_3780" transform="translate(0 0)" class="st50">
					<path id="Path_2994" class="st100" d="M18.4,213.3L18.1,65.9c0,0,2.4-33.3,45.5-52.5c0,0,43.8-23.7,117.4-12.4
						c18.6,4.2,36.6,11.6,53.4,21.9c0,0,28.7,17.2,28.4,44.8l0.3,30.6l8.5,2.3l3.3-6l-3.9-40.7L228.5-4.9l-116-11.3L22.6,6.4
						l-51.5,98L-8,163.2l6.5,27.9l15.6,21.1L18.4,213.3z"/>
				</g>
			</g>
		</g>
	</g>
	<path id="Path_2997_1_" class="st101" d="M137.5,635.1c-4.8,3.9-10.1,7-15.6,9c0,0-25.4,9.8-21.5,23.4l24.8-9c0,0,4.6-3,5.9,0
		c0,0,2.6,1.5,3.9,10.6C134.9,669.1,137.9,642.3,137.5,635.1z"/>
	<path id="Path_2998_1_" class="st101" d="M363,636.7c4.4,4,9.5,6.8,15,8.3c0,0,25.5,9,21.6,22.6l-24.8-9c0,0-4.6-3-5.9,0
		c0,0-2,1.5-3.3,10.6C365.7,669.1,362.9,645,363,636.7z"/>
</g>
</svg>
