<?xml version="1.0" encoding="utf-8"?>
<!-- Generator: Adobe Illustrator 24.2.3, SVG Export Plug-In . SVG Version: 6.00 Build 0)  -->
<svg version="1.1" id="Layer_1" xmlns="http://www.w3.org/2000/svg" xmlns:xlink="http://www.w3.org/1999/xlink" x="0px" y="0px"
	 viewBox="0 0 300 700" style="enable-background:new 0 0 300 700;" xml:space="preserve">
<style type="text/css">
	.st0{fill:#333333;}
	.st1{fill:#010101;}
	.st2{fill:#323232;}
	.st3{fill:#CCCBCB;}
	.st4{fill:#989898;}
	.st5{fill:#313131;}
	.st6{fill:#0D0C0D;}
	.st7{fill:#D2D2D2;}
	.st8{fill:#59C1AE;}
	.st9{fill:#74C8BC;}
	.st10{fill:#33342E;}
	.st11{fill:#CA2026;}
	.st12{fill:#666667;}
	.st13{fill:#575858;}
	.st14{opacity:0.44;enable-background:new    ;}
	.st15{opacity:0.11;fill:#FFFFFF;enable-background:new    ;}
	.st16{opacity:0.24;enable-background:new    ;}
	.st17{fill:#F16422;}
	.st18{fill:#646565;}
	.st19{fill:#818282;}
	.st20{opacity:0.5;fill:#CCCBCB;enable-background:new    ;}
	.st21{clip-path:url(#SVGID_2_);}
	.st22{fill:#FFFFFF;}
	.st23{fill:#979998;}
	.st24{fill:#BFBEBE;}
	.st25{fill:#2A2A2A;}
	.st26{clip-path:url(#SVGID_4_);}
	.st27{fill:#CBCACA;}
	.st28{fill:#F16622;}
	.st29{fill:#CDCCCC;}
	.st30{fill:#3A3A3A;}
	.st31{fill:#676767;}
	.st32{fill:#F89C1C;}
	.st33{fill:#C07A2A;}
	.st34{fill:#FDC672;}
	.st35{fill:#FDC56F;}
	.st36{fill:#979797;}
	.st37{fill:url(#Path_3543_1_);}
	.st38{fill:url(#Path_3545_1_);}
	.st39{fill:url(#Path_3546_1_);}
	.st40{fill:url(#Path_3547_1_);}
	.st41{clip-path:url(#SVGID_6_);}
	.st42{fill:#0E0E0E;}
	.st43{fill:#0C0C0C;}
	.st44{clip-path:url(#SVGID_8_);}
</style>
<g id="Path_3356_1_">
	<path d="M68.61,238.9l-0.88-0.48c0.54-1,13.49-24.55,26.83-24.55v1C81.82,214.88,68.74,238.66,68.61,238.9z"/>
</g>
<path id="Path_3357_1_" class="st0" d="M60,242.83c0,0,3.14-7.63,10.05-5.55c6.75,2.18,11.84,8.34,13.2,15.96l2.51,54.12
	l-1.88,13.88c-2.27,5.21-7.01,8.57-12.25,8.67c-7.96-0.67-14.18-7.84-14.45-16.65C57.18,313.26,54.03,256.36,60,242.83z"/>
<g id="Line_6_1_">
	<rect x="27.12" y="286.39" transform="matrix(9.765159e-03 -1 1 9.765159e-03 -224.9771 346.5982)" width="70.78" height="1"/>
</g>
<g id="Line_7_1_">
	<polygon points="67.1,322.63 66.1,322.62 66.72,251.84 67.72,249.38 	"/>
</g>
<g id="Line_8_1_">
	<rect x="35.92" y="286.74" transform="matrix(9.765159e-03 -1 1 9.765159e-03 -216.6137 355.737)" width="70.78" height="1"/>
</g>
<g id="Line_9_1_">
	<polygon points="75.89,322.63 74.89,322.62 75.52,247.84 76.52,247.85 	"/>
</g>
<g id="Line_10_1_">
	<polygon points="80.29,322.63 79.29,322.62 79.92,244.88 80.92,246.52 	"/>
</g>
<g id="Group_3925_1_" transform="translate(13.665 32.67)">
	<path id="Path_3358_1_" class="st1" d="M32.51,253.87L13.66,285.1l10.05,6.94l17.6-30.53L32.51,253.87z"/>
	<path id="Path_3359_1_" class="st2" d="M16.49,286.14c2.75-7.63,6.33-14.85,10.68-21.51c0,0,6.28-11.1,6.91-6.94
		C34.09,257.69,24.66,281.28,16.49,286.14z"/>
</g>
<path id="Path_3360_1_" class="st3" d="M73.19,268.5l-10.68-8.33c0,0,6.74-9.72,5.03-13.88c0,0-0.78-7.98-12.25-5.9
	c0,0-6.28,2.08-9.42,15.27c0,0-9.42,2.78-10.68,9.02c0,0-5.03,20.12-17.6,22.9c0,0-11.31,2.78-10.68,8.33c0,0,3.14,8.33,21.36-9.02
	c0,0,9.42-20.82,23.25-19.44l-5.65,12.49c0,0-1.88,2.08,0,3.47l12.57,8.33C58.42,291.74,64.71,291.76,73.19,268.5z"/>
<path id="Path_3361_1_" class="st4" d="M62.2,267.46l-30.16,0.69c0,0-4.4,0-4.4,6.24v9.72l-20.1,0.69l-6.28,2.08L0,292.44h44.6
	l0.63-4.86c0,0-3.14-2.08-12.57-2.78l-0.63-7.63c0,0,0-4.16,6.28-4.86h23.25c1.38-1.09,1.7-3.21,0.72-4.74
	C62.25,267.54,62.23,267.5,62.2,267.46z"/>
<g id="Group_3926_1_" transform="translate(25.602 29.843)">
	<path id="Path_3362_1_" class="st5" d="M28.12,250.46l-2.51,4.16l7.54,4.86l2.51-4.16L28.12,250.46z"/>
	<ellipse id="Ellipse_148_1_" class="st6" cx="32.2" cy="256.35" rx="2.2" ry="2.43"/>
</g>
<g id="Group_3927_1_" transform="translate(27.487 27.33)">
	<path id="Path_3363_1_" class="st5" d="M30,247.42l-2.51,4.16l7.54,4.86l2.51-4.16L30,247.42z"/>
	<ellipse id="Ellipse_149_1_" class="st6" cx="34.08" cy="253.31" rx="2.2" ry="2.43"/>
</g>
<g id="Path_3364_1_">
	<path d="M231.39,238.9c-0.13-0.24-13.2-24.03-25.95-24.03v-1c13.34,0,26.28,23.55,26.83,24.55L231.39,238.9z"/>
</g>
<g id="Group_3929_1_" transform="translate(4.398 10.204)">
	<path id="Path_3365_1_" class="st0" d="M235.6,232.62c0,0-3.14-7.63-10.05-5.55c-6.75,2.18-11.84,8.34-13.2,15.96l-2.51,54.12
		l1.88,13.88c2.27,5.21,7.01,8.57,12.25,8.67c7.96-0.67,14.18-7.84,14.45-16.65C238.42,303.05,241.57,246.15,235.6,232.62z"/>
	<g id="Line_11_1_">
		<rect x="232.59" y="241.3" transform="matrix(1 -8.871309e-03 8.871309e-03 1 -2.4454 2.0787)" width="1" height="70.78"/>
	</g>
	<g id="Line_12_1_">
		<rect x="228.19" y="241.64" transform="matrix(1 -8.871309e-03 8.871309e-03 1 -2.4487 2.0397)" width="1" height="70.78"/>
	</g>
	<g id="Line_13_1_">
		<rect x="223.79" y="241.64" transform="matrix(1 -8.871309e-03 8.871309e-03 1 -2.4488 2.0007)" width="1" height="70.78"/>
	</g>
	<g id="Line_14_1_">
		<rect x="219.39" y="241.64" transform="matrix(1 -8.871309e-03 8.871309e-03 1 -2.449 1.9617)" width="1" height="70.78"/>
	</g>
	<g id="Line_15_1_">
		<rect x="215" y="241.64" transform="matrix(1 -8.885104e-03 8.885104e-03 1 -2.453 1.9256)" width="1" height="70.78"/>
	</g>
</g>
<g id="Group_3930_1_" transform="translate(19.791 32.67)">
	<path id="Path_3366_1_" class="st1" d="M234.04,253.87l18.85,31.23l-10.05,6.94l-17.6-30.53L234.04,253.87z"/>
	<path id="Path_3367_1_" class="st2" d="M250.06,286.14c-2.75-7.63-6.33-14.85-10.68-21.51c0,0-6.28-11.1-6.91-6.94
		C232.46,257.69,241.89,281.28,250.06,286.14z"/>
</g>
<path id="Path_3368_1_" class="st3" d="M226.81,268.5l10.68-8.33c0,0-6.92-9.72-5.03-13.88c0,0,2.38-8.51,12.25-5.9
	c0,0,6.28,2.08,9.42,15.27c0,0,9.42,2.78,10.68,9.02c0,0,5.03,20.12,17.6,22.9c0,0,11.31,2.78,10.68,8.33c0,0-3.14,8.33-21.36-9.02
	c0,0-9.42-20.82-23.25-19.44l5.65,12.49c0,0,1.88,2.08,0,3.47l-12.57,8.33C241.58,291.74,235.29,291.76,226.81,268.5z"/>
<path id="Path_3369_1_" class="st4" d="M237.8,267.46l30.16,0.69c0,0,4.4,0,4.4,6.24v9.72l20.1,0.69l6.28,2.08l1.26,5.55h-44.6
	l-0.63-4.86c0,0,3.14-2.08,12.57-2.78l0.63-7.63c0,0,0-4.16-6.28-4.86h-23.25c-1.38-1.09-1.7-3.21-0.72-4.74
	C237.75,267.54,237.77,267.5,237.8,267.46z"/>
<g id="Group_3931_1_" transform="translate(16.649 29.843)">
	<path id="Path_3370_1_" class="st5" d="M229.63,250.46l2.51,4.16l-7.54,4.86l-2.51-4.16L229.63,250.46z"/>
	<ellipse id="Ellipse_150_1_" class="st6" cx="225.55" cy="256.35" rx="2.2" ry="2.43"/>
</g>
<g id="Group_3932_1_" transform="translate(14.764 27.33)">
	<path id="Path_3371_1_" class="st5" d="M227.75,247.42l2.51,4.16l-7.54,4.86l-2.51-4.16L227.75,247.42z"/>
	<ellipse id="Ellipse_151_1_" class="st6" cx="223.66" cy="253.31" rx="2.2" ry="2.43"/>
</g>
<path id="Path_3372_1_" d="M107.75,357.32H95.18L95.15,359l-1.85,85.06l10.68,8.33l74.14,4.86l24.14-4.66l2.25-61.26l-4.4-40.94
	l-44.6-0.7"/>
<g id="Group_3934_1_" transform="translate(-581.61 256.208)">
	<path id="Path_3373_1_" class="st4" d="M678.68,86.54c0,0-13.2-2.08-15.71,22.9c0,0-4.08,26.72-3.46,47.53
		c0,0,1.26,13.19-3.14,22.9c0,0-10.68,23.59-10.05,43.72v108.94l-0.63,39.55c-1.25,8.42,1.34,16.99,6.91,22.9
		c0,0,30.16,36.08,24.5,2.78l-0.2-148.07l4.26-150.03L678.68,86.54z"/>
	<path id="Path_3374_1_" class="st7" d="M677.11,101.46c0,0-8.8,10.41-11.31,55.51c0,0-5.65,26.37-7.54,35.39
		c-2.26,16.08-3.52,32.31-3.77,48.57l-0.3,156.69l4.73,4.71l0.6-157.93c0,0,0-37.47,5.03-53.43c0,0,7.54-30.53,6.91-40.25
		C671.45,150.72,669.57,118.11,677.11,101.46z"/>
</g>
<path id="Path_3375_1_" class="st4" d="M201.97,342.75c0,0,13.2-2.08,15.71,22.9c0,0,4.08,26.72,3.46,47.53
	c0,0-1.26,13.19,3.14,22.9c0,0,10.68,23.59,10.05,43.72v108.94l0.63,39.55c1.25,8.42-1.34,16.99-6.91,22.9
	c0,0-30.16,36.08-24.5,2.78l0.2-148.07l-4.26-150.03L201.97,342.75z"/>
<path id="Path_3376_1_" class="st7" d="M203.54,357.67c0,0,8.8,10.41,11.31,55.51c0,0,5.65,26.37,7.54,35.39
	c2.26,16.08,3.52,32.31,3.77,48.57l0.3,156.69l-4.73,4.71l-0.6-157.93c0,0,0-37.47-5.03-53.43c0,0-7.54-30.53-6.91-40.25
	C209.2,406.93,211.08,374.32,203.54,357.67z"/>
<path id="Path_3377_1_" class="st8" d="M107.75,513.45c0,0-10.05,21.51-1.88,126.29c0,0,6.6,44.76,26.7,55.17
	c0,0,36.44,15.96,50.89-18.74c0,0,13.82-24.29,13.2-99.92c0,0,1.88-42.33-4.4-63.84L107.75,513.45z"/>
<path id="Path_3378_1_" class="st9" d="M175.29,676.87c-2.15-12.43-1.72-25.24,1.26-37.47c0,0,2.51-11.8,9.42-10.41
	c0,0,5.65,3.47,1.26,21.51c0,0-2.51,12.49-4.4,18.74C182.82,669.24,179.68,681.72,175.29,676.87z"/>
<path id="Path_3379_1_" class="st10" d="M143.87,637.32c0,0-18.22,4.86-16.96,15.27c0.71,5.88,7.54,5.55,10.05,6.24
	c0,0,23.25,3.47,32.04-2.78c0,0,7.54-2.77,0-11.1C169,644.95,163.35,635.93,143.87,637.32z"/>
<path id="Path_3380_1_" class="st4" d="M126.91,676.87l0.08-23.37l45.15-0.92l-0.63,23.59
	C171.52,676.17,143.88,669.23,126.91,676.87z"/>
<path id="Path_3381_1_" class="st11" d="M126.91,676.87c0,0,1.88,4.16,2.51,6.24c0.58,3.92,3.36,6.99,6.91,7.63
	c0,0,18.22,2.08,26.39-0.69c0,0,8.17-1.39,8.8-13.88C171.51,676.17,147.64,669.23,126.91,676.87z"/>
<path id="Path_3382_1_" class="st12" d="M141.68,629.33l-1.26,9.72l-5.65,9.72l29.53-0.69l-5.65-9.02l-1.26-9.72L141.68,629.33z"/>
<path id="Path_3383_1_" d="M93.44,462.45c0,0-12.4,16.65-4.22,35.39c0,0,1.26,4.86,9.42,12.49c0,0,20.38,15.96,5.8,74.95l90.33-1.39
	c0,0-15.08-48.57,3.77-71.47c0,0,28.27-20.12,6.28-55.51L93.44,462.45z"/>
<path id="Path_3384_1_" class="st13" d="M123.77,400.69l-4.4,2.78c0,0-2.51,2.08-1.88,7.63c-0.9,5.26-2.83,10.23-5.65,14.58
	c-4.4,6.24-13.2,21.51-13.2,21.51s-11.31,16.65-6.28,32.61s9.42,19.44,16.96,25.67c0,0-1.88,3.47,3.77,11.1
	c0,0,6.91,16.65,1.88,33.31c0,0-5.65,19.44-7.54,23.59c0,0-7.54,22.2-2.51,35.39c0,0,6.91,21.51,38.32,24.29
	c16.34,1.01,32.51-4.13,45.86-14.58c0,0,11.94-10.41,5.65-34.7c0,0-15.08-36.78-11.94-56.21c0,0,0-8.33,5.03-12.49
	c0,0,4.4-5.55,0.63-9.02c0,0,26.39-13.88,16.34-49.26l-15.71-28.45c0,0-7.54-8.33-6.91-15.96c0,0,0.63-11.8-8.17-11.8L123.77,400.69
	z"/>
<path id="Path_3386_1_" class="st14" d="M114.03,507.9c0,0,34.55,12.49,71,0.69C185.03,508.59,142.93,538.43,114.03,507.9z"/>
<path id="Path_3387_1_" class="st15" d="M126.6,492.63c0,0-22.62,2.08-8.17,7.63c0,0,30.79,7.63,59.69-0.69
	c0,0,15.08-2.08,16.96-14.58c0,0,0.63-8.33-10.05-4.16l-5.97,5.9c0,0-25.76,5.55-41.47,4.86L126.6,492.63z"/>
<path id="Path_3389_1_" class="st16" d="M170.57,606.44c0,0,4.4-0.69,6.91-7.63c0,0,2.2-9.37,9.11-5.9c0,0,8.8,7.63-4.4,24.29
	c0,0-8.17,9.02-13.82,3.47C168.38,620.65,160.84,613.72,170.57,606.44z"/>
<path id="Path_3390_1_" class="st0" d="M130.99,29.79c0,0-2.83-23.25,12.88-28.1c0,0,13.82-5.55,21.99,3.47c0,0,5.65,4.86,6.28,9.72
	v14.58c0,0-8.8-9.02-16.96-11.1c0,0-8.17-2.08-18.22,6.24L130.99,29.79z"/>
<g id="Path_3391_1_">
	<polygon class="st6" points="138.72,25.98 137.72,25.98 137.72,14 150.33,-0.63 154.4,2.11 155.06,13.04 151.28,15.83 
		151.28,19.74 150.28,19.74 150.28,15.32 154.03,12.56 153.43,2.66 150.51,0.7 138.72,14.37 	"/>
</g>
<g id="Line_16_1_">
	
		<rect x="158.03" y="11.32" transform="matrix(0.7578 -0.6525 0.6525 0.7578 27.0357 107.6627)" class="st6" width="1" height="12.2"/>
</g>
<g id="Path_3392_1_">
	<path class="st6" d="M172.64,26.67h-1c0-3.29-5.52-12.13-5.58-12.22l-0.08-0.13l0.39-8.42l1,0.05l-0.37,8.1
		C167.73,15.23,172.64,23.3,172.64,26.67z"/>
</g>
<path id="Path_3393_1_" class="st4" d="M124.28,83.86c0,0-1.46-4.1-9-2.71c-3.8,0.6-6.46,4.47-5.97,8.67v38.86
	c0,0-4.4,1.39-5.03,9.72l0.63,20.12c0,0-11.94,12.49-8.17,22.2c0,0,2.51,6.24,10.05,0.69c1.89,3.35,2.13,7.52,0.63,11.1
	c0,0-5.03,6.24,8.17,11.1l10.68,4.16l-22.62,0.69c-4.51-0.29-8.81,2.09-11.31,6.24l-28,46.78l3.31,2.62l25.32-43.86
	c3.03-4.74,7.95-7.58,13.2-7.63h81.68c0,0,8.17-0.69,11.31,1.39c3.72,1.91,6.8,5.07,8.8,9.02l23.72,41.64l3.81-2.86l-27.53-45.72
	c0,0-6.28-9.72-15.71-7.63l-15.08-0.69c0,0,14.45-2.78,18.22-9.02c0,0,3.14-0.69,1.26-6.24l-1.88-4.16l1.88-6.94
	c0,0,6.91,4.86,9.42,0c0,0,7.54-0.69-6.91-23.59v-18.04c0,0,0.63-9.02-5.03-10.41l0.63-42.33c0,0-3.14-11.1-15.71-3.47L124.28,83.86
	z"/>
<g id="Group_3938_1_" transform="translate(-523.971 157.055)">
	<path id="Path_3394_1_" class="st17" d="M745.44-26.99c0,0,2.23-2.67-6.09-5.78c-1.55-0.58-12.13-2.55-15.58,6.13L745.44-26.99z"/>
	<path id="Path_3395_1_" class="st18" d="M703.34-23.52c0,0,5.65-6.24,6.91,2.08l13.51,0.35c-0.73-1.76-0.73-3.79,0-5.55
		c0,0,6.91-6.24,21.99-0.69c0,0-0.63,13.19-5.03,18.04c0,0-9.42,11.8-15.71-6.94h-15.71c0,0-5.03,4.16-6.28,0L703.34-23.52z"/>
	<path id="Path_3396_1_" class="st3" d="M741.35-25.96c0,0,3.14,0.69,1.88,6.94c-0.38,3.16-2.31,5.84-5.03,6.94c0,0-4.4,0-2.51-7.63
		S740.1-25.96,741.35-25.96z"/>
</g>
<g id="Group_3939_1_" transform="translate(-572.348 157.841)">
	<path id="Path_3397_1_" class="st17" d="M654.96-26.04c0,0-2.23-2.67,6.09-5.78c1.55-0.58,12.13-2.55,15.58,6.13L654.96-26.04z"/>
	<path id="Path_3398_1_" class="st18" d="M697.05-22.57c0,0-5.65-6.24-6.91,2.08l-13.51,0.35c0.73-1.76,0.73-3.79,0-5.55
		c0,0-6.91-6.24-21.99-0.69c0,0,0.63,13.19,5.03,18.04c0,0,9.42,11.8,15.71-6.94h15.71c0,0,6.6,4.51,7.85,0.35L697.05-22.57z"/>
	<path id="Path_3399_1_" class="st3" d="M659.05-25.01c0,0-3.14,0.69-1.88,6.94c0.38,3.16,2.31,5.84,5.03,6.94c0,0,4.4,0,2.51-7.63
		S660.31-25.01,659.05-25.01z"/>
</g>
<path id="Path_3400_1_" class="st12" d="M178.11,98.49c0,0,1.88-13.19,6.28-9.02c0,0,3.77,4.16,0.63,22.2c0,0-1.12,13.43-6.21,9.14
	l-2.7-3.31L178.11,98.49z"/>
<path id="Path_3401_1_" class="st12" d="M124.53,88.36c0,0-4.21-3.76-6.1,2.5v22.9c0,0-1.26,4.86,3.77,4.86c0,0,3.14,0.69,3.77-6.24
	l-1.44-22.95"/>
<path id="Path_3402_1_" class="st8" d="M125.65,117.58c0,0-3.77-46.49-1.26-63.15c0,0,0.25-18.88,7.35-25.4
	c0,0,11.18-13.11,21.52-10.7c0,0,9.77,0.36,18.88,11.12c2.2,2.5,3.72,5.62,4.4,9.02c2.23,9.28,3.28,18.85,3.14,28.45
	c0.07,17.03-0.67,34.06-2.2,51C177.49,117.92,153.93,95.37,125.65,117.58z"/>
<path id="Path_3403_1_" class="st12" d="M129.74,147.76c-0.71,1.74-0.18,3.8,1.26,4.86c0,0,2.2,1.04-2.83,1.04
	c0,0-6.28-0.69-6.28,6.24c0,0,0,1.39,2.51,0l8.17-4.16l2.51,2.78c0,0,1.88,0.69,0,3.47c0,0-2.51,5.55,1.88,7.63
	c2.97,1.38,6.23,1.86,9.42,1.39c0,0,7.54-0.69,11.31,0.69c0,0,10.05,3.47,14.45-2.78c0,0,5.03-4.86-3.77-10.41
	c0,0,5.03-5.55,4.4-9.02L129.74,147.76z"/>
<path id="Path_3404_1_" class="st9" d="M155.15,107.47c0,0,0.03-44.02,1.29-50.96l1.26-14.58c0,0,0.63-13.88,5.65-12.49
	c0,0,10.68,1.39,11.94,29.14c0,0,3.91,36.73-5.34,53.78C169.95,112.37,160.52,108.9,155.15,107.47z"/>
<g id="Path_3405_1_">
	<path class="st4" d="M181.25,135.27c0,9.58-12.34,23.25-27.96,23.25s-28.9-9.02-30.16-22.9c-3.77-18.74,12.57-29.14,31.41-27.76
		C182.82,112.02,181.25,125.69,181.25,135.27z"/>
	<path class="st19" d="M153.3,159.02c-16.54,0-29.43-9.82-30.66-23.36c-1.5-7.43,0.08-14.07,4.57-19.16
		c5.78-6.56,16.03-9.96,27.38-9.14c27.35,4.03,27.25,17,27.17,26.47c0,0.49-0.01,0.97-0.01,1.44
		C181.75,144.61,169.53,159.02,153.3,159.02z M151.21,108.23c-9.68,0-18.23,3.23-23.25,8.92c-4.28,4.85-5.77,11.2-4.33,18.36
		c1.19,13.06,13.66,22.5,29.67,22.5c15.67,0,27.46-13.8,27.46-22.75c0-0.47,0-0.95,0.01-1.44c0.08-9.61,0.17-21.58-26.28-25.47
		C153.38,108.27,152.29,108.23,151.21,108.23z"/>
</g>
<path id="Path_3406_1_" class="st20" d="M152.67,162.68c0,0-3.77-2.08-1.26-22.9c0,0,2.51-21.51,13.82-19.44c0,0,8.17,0,8.17,7.63
	c-0.33,8.22-3.22,16.06-8.17,22.2l-5.65,8.33C159.58,158.5,157.07,164.76,152.67,162.68z"/>
<g id="Group_3941_1_" transform="translate(-552.002 149.994)">
	<g>
		<defs>
			<path id="SVGID_1_" d="M732.86-14.75c0,9.45-12.17,22.93-27.58,22.93c-15.4,0-28.51-8.9-29.74-22.59
				c-3.72-18.48,12.4-28.75,30.98-27.38C734.4-36.31,732.86-24.21,732.86-14.75z"/>
		</defs>
		<clipPath id="SVGID_2_">
			<use xlink:href="#SVGID_1_"  style="overflow:visible;"/>
		</clipPath>
		<g id="Group_3940_1_" transform="translate(0 0)" class="st21">
			<path id="Path_3407_1_" class="st22" d="M676.78-28.1c17.09-8.06,36.36-8.38,53.67-0.91l1.48-7.99l-53.91-19.85L661.9-34.26
				l2.48,6.85L676.78-28.1z"/>
		</g>
	</g>
</g>
<ellipse id="Ellipse_152_1_" class="st12" cx="119.37" cy="171.01" rx="3.46" ry="4.51"/>
<ellipse id="Ellipse_153_1_" transform="matrix(0.2434 -0.9699 0.9699 0.2434 -27.3323 305.5847)" class="st12" cx="182.2" cy="170.31" rx="4.47" ry="3.49"/>
<path id="Path_3409_1_" class="st12" d="M181.26,158.86c-2.6-1.79-6.65-1.8-5.64-3.59c1.01-1.79,4.3-2.37,6.89-0.57
	c2.59,1.79,6.67,3.76,5.65,5.55C187.15,162.05,183.85,160.65,181.26,158.86z"/>
<path id="Path_3410_1_" class="st12" d="M107.44,191.13c0,0,14.45-11.1,43.98-12.49c0,0,25.93-1.04,44.38,12.67
	c0,0,3.37,6.76-1.66,8.15c0,0-23.25-11.8-47.12-11.1c0,0-23.46,2.19-39.37,9.77C107.64,198.12,104.29,198.76,107.44,191.13z"/>
<g id="Group_3942_1_" transform="translate(-545.175 190.887)">
	<ellipse id="Ellipse_154_1_" class="st12" cx="685.91" cy="15.51" rx="4.08" ry="7.98"/>
	<ellipse id="Ellipse_155_1_" class="st4" cx="685.91" cy="19.67" rx="4.08" ry="7.98"/>
</g>
<path id="Path_3411_1_" class="st8" d="M124.08,401.73c0,0-12.57-3.47-20.1-29.84L87.96,320.2c0,0-8.8-31.23-8.17-51.35
	c0,0-4.52-40.93,46.74-49.26c0,0,41.21-4.86,68.23,7.63c0,0,23.87,11.8,23.87,32.61c0,0,3.14,25.67-11.94,77.72
	c0,0-13.82,61.06-32.04,64.53L124.08,401.73z"/>
<g id="Group_3943_1_" transform="translate(-533.867 190.887)">
	<ellipse id="Ellipse_156_1_" class="st12" cx="697.22" cy="15.51" rx="4.08" ry="7.98"/>
	<ellipse id="Ellipse_157_1_" class="st4" cx="697.22" cy="19.67" rx="4.08" ry="7.98"/>
</g>
<path id="Path_3412_1_" class="st23" d="M126.28,400c0,0-2.51-146.42-3.77-156.13c0,0-2.51-18.74,2.51-22.9c0,0,2.51-4.16,9.42-3.47
	l31.41,0.69c0,0,6.91-0.69,9.42,4.86c0,0,1.26,2.78,1.26,10.41l-2.51,89.52L172.15,400C172.15,400,145.76,388.89,126.28,400z"/>
<ellipse id="Ellipse_158_1_" class="st24" cx="149.21" cy="249.76" rx="14.76" ry="16.31"/>
<ellipse id="Ellipse_159_1_" class="st0" cx="149.22" cy="249.77" rx="12.88" ry="14.23"/>
<g id="Line_17_1_">
	
		<rect x="137.79" y="251.54" transform="matrix(0.6711 -0.7414 0.7414 0.6711 -139.5981 190.4347)" class="st6" width="14.04" height="2"/>
</g>
<path id="Path_3413_1_" class="st25" d="M131.62,272.66v5.55h35.81v-5.55C167.43,272.66,131.86,272.41,131.62,272.66z"/>
<path id="Path_3414_1_" class="st3" d="M160.52,233.81c0,0-10.05-3.47-3.14-9.72c0,0,2.83-3.12,11.62-1.73
	c1.36-0.01,2.69,0.48,3.77,1.39c0,0,4.4,24.98,1.26,45.1c0,0,0.63,13.19-2.51,11.8c0,0-2.51,2.08-2.51-6.24c0,0,0.63-3.47-4.4-3.47
	c0,0-8.17,1.39-8.17-3.47c0,0-1.88-2.08,2.51-1.39c0,0,5.03,2.08,6.28-6.24C165.23,259.83,170.26,237.62,160.52,233.81z"/>
<path id="Path_3415_1_" class="st12" d="M131.63,396.87l-4.4-113.8h44.6l-3.66,115.55L131.63,396.87z"/>
<g id="Group_3946_1_" transform="translate(-542.113 269.578)">
	<ellipse id="Ellipse_160_1_" class="st4" cx="692.11" cy="110.64" rx="7.23" ry="7.98"/>
	<g id="Group_3945_1_" transform="translate(0 0)">
		<g>
			<defs>
				<ellipse id="SVGID_3_" cx="692.11" cy="110.64" rx="7.23" ry="7.98"/>
			</defs>
			<clipPath id="SVGID_4_">
				<use xlink:href="#SVGID_3_"  style="overflow:visible;"/>
			</clipPath>
			<g id="Group_3944_1_" class="st26">
				<rect id="Rectangle_20252_1_" x="689.91" y="101.62" class="st27" width="4.4" height="18.04"/>
			</g>
		</g>
	</g>
</g>
<path id="Path_3416_1_" class="st9" d="M212.04,271.28c0,0-1.26-13.88-12.88-15.61c-4.65-1.99-7.67-6.99-7.54-12.49
	c0,0-1.26-15.27,10.05-7.63c0,0,16.34,12.49,15.08,33.31c0,0-1.26,45.8-19.48,82.58l-11.31,24.98c0,0-10.05,20.82-10.05,4.16
	c0,0-1.88-20.12,4.4-34c0,0,3.77-9.02,6.28,0c0,0,1.26,15.27,6.28,4.86C192.88,351.42,216.44,293.48,212.04,271.28z"/>
<g id="Group_3947_1_" transform="translate(-573.624 405.545)">
	<path id="Path_3417_1_" class="st28" d="M653.42,288.67c0,0,0.63,4.86,8.17,5.55c0,0,12.32,1.99,13.7-5.6L653.42,288.67z"/>
	<path id="Path_3418_1_" class="st4" d="M703.05,277.57l-29.53-0.69c0,0-3.14-11.1-10.68-9.72c0,0-8.17,2.78-9.42,18.04
		c0,0-0.63,4.86,3.14,4.86c0,0,10.05,2.08,15.71,0c0,0,3.77-0.69,3.77-4.16l-1.26-4.16l29.85-0.08L703.05,277.57z"/>
	<path id="Path_3419_1_" class="st29" d="M655.3,282.42l1.26-4.86c0,0,0.63-3.47,3.14-2.78c0,0,1.88,1.39,1.88,6.24
		c0,0,0,5.55-3.77,5.55C657.81,286.59,653.42,287.98,655.3,282.42z"/>
</g>
<g id="Group_3948_1_" transform="translate(-529.331 405.545)">
	<path id="Path_3420_1_" class="st28" d="M748.88,288.67c0,0-0.63,4.86-8.17,5.55c0,0-12.32,1.99-13.7-5.6L748.88,288.67z"/>
	<path id="Path_3421_1_" class="st4" d="M699.25,277.57l29.53-0.69c0,0,3.14-11.1,10.68-9.72c0,0,8.17,2.78,9.42,18.04
		c0,0,0.63,4.86-3.14,4.86c0,0-10.05,2.08-15.71,0c0,0-3.77-0.69-3.77-4.16l1.26-4.16l-29.85-0.08L699.25,277.57z"/>
	<path id="Path_3422_1_" class="st29" d="M747,282.42l-1.26-4.86c0,0-0.63-3.47-3.14-2.78c0,0-1.88,1.39-1.88,6.24
		c0,0,0,5.55,3.77,5.55C744.48,286.59,748.88,287.98,747,282.42z"/>
</g>
</svg>
