<?xml version="1.0" encoding="utf-8"?>
<!-- Generator: Adobe Illustrator 24.2.3, SVG Export Plug-In . SVG Version: 6.00 Build 0)  -->
<svg version="1.1" id="Layer_1" xmlns="http://www.w3.org/2000/svg" xmlns:xlink="http://www.w3.org/1999/xlink" x="0px" y="0px"
	 viewBox="0 0 300 892.31" style="enable-background:new 0 0 300 892.31;" xml:space="preserve">
<style type="text/css">
	.st0{fill:#E3E3E4;}
	.st1{fill:#282929;}
	.st2{fill:#C6C6C8;}
	.st3{fill:#788E98;}
	.st4{clip-path:url(#SVGID_2_);}
	.st5{fill:#8C8B8B;}
	.st6{fill:#4F4F4F;}
	.st7{fill:#DFDFDE;stroke:#BBBBBB;stroke-miterlimit:10;}
	.st8{clip-path:url(#SVGID_4_);}
	.st9{fill:url(#Path_3124_1_);}
	.st10{clip-path:url(#SVGID_6_);}
	.st11{fill:url(#Path_3127_1_);}
	.st12{fill:none;stroke:#BBBBBB;stroke-miterlimit:10;}
	.st13{fill:#FFD465;}
	.st14{fill:none;stroke:#BBBBBB;stroke-width:2;stroke-miterlimit:10;}
	.st15{fill:#7C8E95;}
	.st16{fill:#C7C7C9;}
	.st17{fill:#3A3A3A;}
	.st18{fill:#D12B27;}
	.st19{fill:#EDF2F6;}
	.st20{fill:#DBDADD;}
	.st21{fill:#F2F2F2;}
	.st22{fill:#8A8E95;}
	.st23{opacity:0.7;fill:#A7CCDF;enable-background:new    ;}
	.st24{opacity:0.7;fill:#C2DFE5;enable-background:new    ;}
	.st25{opacity:0.5;fill:#9599A4;enable-background:new    ;}
	.st26{opacity:0.5;fill:#ADAFB6;enable-background:new    ;}
</style>
<g transform="matrix(1, 0, 0, 1, 833.9, 439.85)">
	<path id="Path_3155-2_2_" class="st0" d="M-815.25-408.27c0,0,43.94-17.45,145.21-15.49c0,0,83.59,4.36,114.16,14.06
		c0,0,20.06,35.88,19.11,140.61l2.86,155.16l-0.95,215.28v312.24c0,0,0.95,29.09-26.75,32c0,0-39.17,7.75-163.36,6.79l-81.2-4.85
		c0,0-28.66,2.91-27.71-45.58l0.95-140.61l-0.95-404.38l2.86-144.5C-831.02-287.55-830.06-377.71-815.25-408.27z"/>
</g>
<path id="Path_3114_2_" class="st1" d="M18.67,31.59c0,0-0.95-19.4,41.09-24.24c0,0,106.04-19.4,192.98,4.85
	c0,0,25.79,3.87,25.79,18.42L18.67,31.59z"/>
<path id="Path_3115_2_" class="st2" d="M4.33,168.32l14.33,1.94c0,0-2.86-105.7,8.6-132.85c-5.81-0.19-11.13,3.28-13.38,8.73
	C13.89,46.14-0.44,119.84,4.33,168.32z"/>
<path id="Path_3116_2_" class="st2" d="M294.74,168.32l-14.33,1.94c0,0,2.86-105.7-8.6-132.85c5.81-0.19,11.13,3.28,13.38,8.73
	C285.19,46.14,299.52,119.84,294.74,168.32z"/>
<path id="Path_3117_2_" class="st0" d="M18.66,31.58c0,0,43.94-17.45,145.21-15.49c0,0,83.59,4.36,114.16,14.06
	c0,0,20.06,35.88,19.11,140.61L300,325.92l-0.95,215.28v312.24c0,0,0.95,29.09-26.75,32c0,0-39.17,7.75-163.36,6.79l-81.2-4.85
	c0,0-28.66,2.91-27.71-45.58l0.95-140.61L0.03,296.82l2.86-144.5C2.9,152.31,3.86,62.13,18.66,31.58z"/>
<path id="Path_3118_2_" class="st3" d="M26.79,231.84l-4.78-53.33c0,0-3.82-31.03,19.11-35.88c0,0,16.24-6.79,48.72-7.75
	c0,0,94.58-6.79,145.21,3.87c0,0,30.57,4.85,32.48,16.49c0,0,8.6,31.03,0,73.7C267.53,228.93,107.99,214.38,26.79,231.84z"/>
<g id="Group_3823_2_" transform="translate(125.888 181.977)">
	<g>
		<g>
			<defs>
				<path id="SVGID_1_" d="M-99.1,50.83l-4.78-54.31c0,0-3.82-31.03,19.11-35.88c0,0,16.24-6.79,48.72-7.75
					c0,0,94.58-6.79,145.21,3.87c0,0,30.57,4.85,32.48,16.49c0,0,8.6,32,0,74.67C141.64,47.92-17.9,33.38-99.1,50.83z"/>
			</defs>
			<clipPath id="SVGID_2_">
				<use xlink:href="#SVGID_1_"  style="overflow:visible;"/>
			</clipPath>
			<g id="Group_3822_2_" transform="translate(0)" class="st4">
				<path id="Path_3119_2_" class="st1" d="M-96.23,52.77l-4.78-58.18c0,0-0.95-23.27,21.97-27.15c0,0,106.04-15.52,193.94-0.97
					c0,0,27.71,0.97,26.75,27.15c0,0-0.95,53.33-0.95,61.08l7.63-4.85l4.78-44.61v-46.53L-4.52-93.66l-87.89,36.85l-20.06,29.09
					l-1.91,72.73l-0.95,29.09L-96.23,52.77z"/>
			</g>
		</g>
	</g>
</g>
<path id="Path_3121_2_" class="st5" d="M50.19,130.5c0,0-9.08-22.79,40.12-24.24c11.61-0.82,23.25-0.99,34.87-0.49
	c0,0,21.97,0,21.97,19.39C114.81,120.26,81.82,122.08,50.19,130.5z"/>
<path id="Path_3122_2_" class="st6" d="M85.54,38.38c0,0,4.78-15.52,24.84-15.52h81.2c0,0,23.88,0.97,22.93,16.49L85.54,38.38z"/>
<g id="Group_3826_2_" transform="translate(128.297 145.75)">
	<path id="Path_3123_2_" class="st7" d="M-43.71-120.95c0,0-28.66,2.91-38.21,11.64l-14.82,15.03c0,0-8.6,11.64,4.78,14.55
		c0,0,10.51,6.79,27.71-8.73L-43.71-120.95z"/>
	<g id="Group_3825_2_" transform="translate(0 0)">
		<g>
			<g>
				<defs>
					<path id="SVGID_3_" d="M-43.71-120.95c0,0-28.66,2.91-38.21,11.64l-14.82,15.03c0,0-8.6,11.64,4.78,14.55
						c0,0,10.51,6.79,27.71-8.73L-43.71-120.95z"/>
				</defs>
				<clipPath id="SVGID_4_">
					<use xlink:href="#SVGID_3_"  style="overflow:visible;"/>
				</clipPath>
				<g id="Group_3824_2_" class="st8">
					
						<linearGradient id="Path_3124_1_" gradientUnits="userSpaceOnUse" x1="-2468.0774" y1="-5279.2646" x2="-2465.6655" y2="-5277.5332" gradientTransform="matrix(12.694 0 0 12.694 31257.9199 66908.0938)">
						<stop  offset="0.109" style="stop-color:#FFFFFF"/>
						<stop  offset="1" style="stop-color:#000000"/>
					</linearGradient>
					<path id="Path_3124_2_" class="st9" d="M-77.63-78.76c0,0,9.55-31.03,37.26-37.82l-24.84,37.82H-77.63z"/>
				</g>
			</g>
		</g>
	</g>
</g>
<g id="Group_3829_2_" transform="translate(191.765 145.912)">
	<path id="Path_3126_2_" class="st7" d="M23.37-120.63c0,0,28.66,2.91,38.21,11.64l14.81,15.03c0,0,8.6,11.64-4.78,14.55
		c0,0-10.51,6.79-27.71-8.73L23.37-120.63z"/>
	<g id="Group_3828_2_">
		<g>
			<g>
				<defs>
					<path id="SVGID_5_" d="M23.37-120.63c0,0,28.66,2.91,38.21,11.64l14.81,15.03c0,0,8.6,11.64-4.78,14.55
						c0,0-10.51,6.79-27.71-8.73L23.37-120.63z"/>
				</defs>
				<clipPath id="SVGID_6_">
					<use xlink:href="#SVGID_5_"  style="overflow:visible;"/>
				</clipPath>
				<g id="Group_3827_2_" class="st10">
					
						<linearGradient id="Path_3127_1_" gradientUnits="userSpaceOnUse" x1="-2547.5383" y1="-5250.9692" x2="-2545.1399" y2="-5249.2476" gradientTransform="matrix(12.694 0 0 12.694 32860.6719 66908.0938)">
						<stop  offset="0.109" style="stop-color:#FFFFFF"/>
						<stop  offset="1" style="stop-color:#000000"/>
					</linearGradient>
					<path id="Path_3127_2_" class="st11" d="M57.28-78.44c0,0-9.55-31.03-37.26-37.82l24.84,37.82H57.28z"/>
				</g>
			</g>
		</g>
	</g>
</g>
<path id="Path_3129_2_" class="st12" d="M36.82,66.5C30,97.83,25.59,129.66,23.64,161.68"/>
<path id="Path_3130_2_" class="st12" d="M257.02,67.95c7.29,30.78,11.92,62.14,13.85,93.73"/>
<path id="Path_3131_2_" class="st13" d="M13.89,46.14c4.22-5.5,10.81-8.58,17.67-8.24c0,0,6.69,0.97,6.69-3.87
	c-6.98-3.33-15.15-2.76-21.62,1.49L13.89,46.14z"/>
<path id="Path_3132_2_" class="st13" d="M283.29,43.23c-5.22-4.38-11.86-6.63-18.63-6.3c0,0-6.69,0.97-6.69-3.87
	c6.98-3.33,15.15-2.76,21.62,1.49L283.29,43.23z"/>
<line id="Line_3_2_" class="st14" x1="274.69" y1="170.26" x2="271.83" y2="850.04"/>
<path id="Path_3133_2_" class="st15" d="M6.72,192.08c0,0-2.86,53.33-2.86,74.67c0,0,0,13.58,10.51,13.58c0,0,2.86-7.75,2.86-29.09
	l-1.91-54.3c0,0,0.95-8.73-3.82-8.73C11.49,188.2,9.59,185.29,6.72,192.08z"/>
<path id="Path_3134_2_" class="st15" d="M294.28,192.08c0,0,2.86,53.33,2.86,74.67c0,0,0,13.58-10.51,13.58
	c0,0-2.86-7.75-2.86-29.09l1.91-54.3c0,0-0.95-8.73,3.82-8.73C289.51,188.2,291.4,185.29,294.28,192.08z"/>
<path id="Path_3135_2_" class="st14" d="M0.14,850.38c0,0,70.12,0.63,88.27,1.59L224.07,851c0,0,65.92-2.91,74.52,0.97"/>
<path id="Path_3136_2_" class="st16" d="M36.82,861.67l205.4-0.97c0,0,24.84-1.94,27.71,4.85c0,0,7.63,14.55-19.11,13.58
	c0,0-140.44,6.79-196.8,0.97c0,0-23.88-0.97-23.88-12.61C30.13,867.49,27.26,861.67,36.82,861.67z"/>
<line id="Line_4_2_" class="st14" x1="149.55" y1="885.92" x2="149.57" y2="851.29"/>
<path id="Path_3137_2_" class="st17" d="M18.19,877.67c40.51,5.69,81.41,7.96,122.28,6.79c0,0,89.8,1.94,117.51-2.91l19.11-2.91
	c0,0,1.91-1.94,3.82,0.97c0,0,8.6,7.75-64.01,9.7c0,0-88.85,3.87-140.44,0c0,0-51.59-0.97-56.36-5.82
	C20.1,883.49,13.41,877.67,18.19,877.67z"/>
<g id="Group_3830_2_" transform="translate(121.901 426.472)">
	<path id="Path_3138_2_" class="st18" d="M-111.83,447.81V435.2c0,0,5.73-1.94,8.6,1.94c1.07,2.77,1.4,5.78,0.95,8.73
		C-102.28,445.87-106.1,452.66-111.83,447.81z"/>
	<path id="Path_3139_2_" class="st19" d="M-111.83,445.67v-3.54c1.41-0.31,2.89-0.11,4.18,0.55c0.5,0.71,0.67,1.6,0.47,2.45
		C-108.47,446.28-110.33,446.5-111.83,445.67z"/>
</g>
<g id="Group_3831_2_" transform="translate(212.292 426.472)">
	<path id="Path_3140_2_" class="st18" d="M72.91,447.81V435.2c0,0-5.73-1.94-8.6,1.94c-1.07,2.77-1.4,5.78-0.96,8.73
		C63.36,445.87,67.18,452.66,72.91,447.81z"/>
	<path id="Path_3141_2_" class="st19" d="M72.91,445.67v-3.54c-1.41-0.31-2.89-0.11-4.18,0.55c-0.5,0.71-0.67,1.6-0.47,2.45
		C69.54,446.28,71.4,446.5,72.91,445.67z"/>
</g>
<g id="Group_3834_2_" transform="translate(132.316 227.051)">
	<g id="Group_3832_2_" transform="translate(0 0)">
		<path id="Rectangle_20175_2_" class="st20" d="M-72.57,39.98L-72.57,39.98c10.55,0,19.11,8.68,19.11,19.4v535.77
			c0,10.71-8.55,19.4-19.11,19.4l0,0c-10.55,0-19.11-8.68-19.11-19.4V59.38C-91.68,48.66-83.12,39.98-72.57,39.98z"/>
		<path id="Path_3142_2_" class="st21" d="M-71.62,40.18c-0.48,0-0.96,0.04-1.43,0.07c9.96,0.75,17.67,9.18,17.67,19.32v535.77
			c0,10.14-7.71,18.57-17.67,19.32c0.48,0.04,0.95,0.07,1.43,0.07c10.55,0,19.11-8.68,19.11-19.39l0,0V59.58
			C-52.51,48.87-61.06,40.19-71.62,40.18C-71.61,40.18-71.62,40.18-71.62,40.18z"/>
		<path id="Path_3143_2_" class="st22" d="M-87.86,595.15V59.37c0-10.14,7.72-18.57,17.68-19.32c-0.48-0.04-0.95-0.07-1.43-0.07
			c-10.55,0-19.11,8.67-19.11,19.38c0,0,0,0,0,0.01v535.78c0,10.71,8.56,19.39,19.11,19.39c0.48,0,0.96-0.04,1.43-0.07
			C-80.15,613.72-87.86,605.29-87.86,595.15z"/>
	</g>
	<g id="Group_3833_2_" transform="translate(19.854 0)">
		<path id="Rectangle_20176_2_" class="st20" d="M-34.15,39.98L-34.15,39.98c10.55,0,19.11,8.68,19.11,19.4v535.77
			c0,10.71-8.55,19.4-19.11,19.4l0,0c-10.55,0-19.11-8.68-19.11-19.4V59.38C-53.26,48.66-44.7,39.98-34.15,39.98z"/>
		<path id="Path_3144_2_" class="st21" d="M-33.19,40.18c-0.48,0-0.96,0.04-1.43,0.07c9.96,0.75,17.67,9.18,17.67,19.32v535.77
			c0,10.14-7.71,18.57-17.67,19.32c0.48,0.04,0.95,0.07,1.43,0.07c10.55,0,19.11-8.68,19.11-19.39l0,0V59.58
			C-14.09,48.87-22.64,40.19-33.19,40.18L-33.19,40.18z"/>
		<path id="Path_3145_2_" class="st22" d="M-49.44,595.15V59.37c0-10.14,7.72-18.57,17.68-19.32c-0.48-0.04-0.95-0.07-1.43-0.07
			c-10.55,0-19.11,8.67-19.11,19.38c0,0,0,0,0,0.01v535.78c0,10.71,8.56,19.39,19.11,19.39c0.48,0,0.96-0.04,1.43-0.07
			C-41.73,613.72-49.43,605.29-49.44,595.15z"/>
	</g>
</g>
<g id="Group_3835_2_" transform="translate(0 0)">
	<path id="Rectangle_20177_2_" class="st20" d="M171.51,267.03L171.51,267.03c10.55,0,19.11,8.68,19.11,19.4V822.2
		c0,10.71-8.55,19.4-19.11,19.4l0,0c-10.55,0-19.11-8.68-19.11-19.4V286.43C152.41,275.71,160.96,267.03,171.51,267.03z"/>
	<path id="Path_3146_2_" class="st21" d="M172.47,267.23c-0.48,0-0.96,0.04-1.43,0.07c9.96,0.75,17.67,9.18,17.67,19.32v535.77
		c0,10.14-7.71,18.57-17.67,19.32c0.48,0.04,0.95,0.07,1.43,0.07c10.55,0,19.11-8.68,19.11-19.39c0,0,0,0,0-0.01V286.63
		C191.58,275.92,183.03,267.24,172.47,267.23L172.47,267.23z"/>
	<path id="Path_3147_2_" class="st22" d="M156.23,822.2V286.42c0-10.14,7.72-18.57,17.68-19.32c-0.48-0.04-0.95-0.07-1.43-0.07
		c-10.55,0-19.11,8.67-19.11,19.38c0,0,0,0,0,0.01V822.2c0,10.71,8.56,19.39,19.11,19.39c0.48,0,0.96-0.04,1.43-0.07
		C163.94,840.77,156.23,832.34,156.23,822.2z"/>
</g>
<g id="Group_3836_2_" transform="translate(19.854 0)">
	<path id="Rectangle_20178_2_" class="st20" d="M209.93,267.03L209.93,267.03c10.55,0,19.11,8.68,19.11,19.4V822.2
		c0,10.71-8.55,19.4-19.11,19.4l0,0c-10.55,0-19.11-8.68-19.11-19.4V286.43C190.83,275.71,199.38,267.03,209.93,267.03z"/>
	<path id="Path_3148_2_" class="st21" d="M210.89,267.23c-0.48,0-0.96,0.04-1.43,0.07c9.96,0.75,17.67,9.18,17.67,19.32v535.77
		c0,10.14-7.71,18.57-17.67,19.32c0.48,0.04,0.95,0.07,1.43,0.07c10.55,0,19.11-8.68,19.11-19.39c0,0,0,0,0-0.01V286.63
		C230,275.92,221.45,267.24,210.89,267.23L210.89,267.23z"/>
	<path id="Path_3149_2_" class="st22" d="M194.65,822.2V286.42c0.01-10.14,7.72-18.57,17.68-19.32c-0.48-0.04-0.95-0.07-1.43-0.07
		c-10.55,0-19.11,8.67-19.11,19.38c0,0,0,0,0,0.01V822.2c0,10.71,8.56,19.39,19.11,19.39c0.48,0,0.96-0.04,1.43-0.07
		C202.36,840.77,194.65,832.34,194.65,822.2z"/>
</g>
<path id="Path_3150_2_" class="st23" d="M0.94,335.64h298.57v13.06H0.94C0.94,348.69,1.65,334.61,0.94,335.64z"/>
<path id="Path_3151_2_" class="st24" d="M0.94,348.24h298.57v16.92H0.94C0.94,365.16,1.65,346.92,0.94,348.24z"/>
<line id="Line_5_2_" class="st14" x1="18.66" y1="170.26" x2="21.53" y2="850.04"/>
<path id="Path_3152_2_" class="st25" d="M0.94,744.84h298.57v9.13H0.94C0.94,753.97,1.65,744.12,0.94,744.84z"/>
<path id="Path_3153_2_" class="st26" d="M0.94,753.89h298.57v88.38H0.94C0.94,842.27,1.65,746.92,0.94,753.89z"/>
<path id="Path_3154_2_" class="st1" d="M28.31,231.34c0,0,64.87-12.59,162.32-8.71l76.43,5.82v1.94
	C267.05,230.39,127.27,217.27,28.31,231.34z"/>
</svg>
