<?xml version="1.0" encoding="utf-8"?>
<!-- Generator: Adobe Illustrator 24.2.3, SVG Export Plug-In . SVG Version: 6.00 Build 0)  -->
<svg version="1.1" id="Layer_1" xmlns="http://www.w3.org/2000/svg" xmlns:xlink="http://www.w3.org/1999/xlink" x="0px" y="0px"
	 viewBox="0 0 300 957.69" style="enable-background:new 0 0 300 957.69;" xml:space="preserve">
<style type="text/css">
	.st0{fill:url(#Rectangle_24403_2_);}
	.st1{fill:url(#SVGID_1_);}
	.st2{fill:url(#SVGID_2_);}
	.st3{fill:url(#SVGID_3_);}
	.st4{fill:url(#SVGID_4_);}
	.st5{fill:url(#SVGID_5_);}
	.st6{fill:url(#SVGID_6_);}
	.st7{fill:url(#SVGID_7_);}
	.st8{fill:url(#SVGID_8_);}
	.st9{fill:url(#SVGID_9_);}
	.st10{fill:url(#SVGID_10_);}
	.st11{fill:#21140C;}
	.st12{fill:#382215;}
	.st13{fill:#301919;}
	.st14{fill:url(#Path_6816_2_);}
	.st15{fill:url(#Path_6817_2_);}
	.st16{fill:url(#Path_6818_2_);}
	.st17{fill:url(#Path_6819_2_);}
	.st18{fill:#2A1A11;}
	.st19{clip-path:url(#SVGID_12_);}
	.st20{fill:#E9E8EC;}
	.st21{fill:url(#Path_6825_2_);}
	.st22{fill:url(#Path_6827_2_);}
	.st23{fill:url(#Path_6828_2_);}
	.st24{fill:url(#Rectangle_24379_2_);}
	.st25{fill:#D3C4AA;}
	.st26{fill:url(#Path_6830_2_);}
	.st27{fill:none;}
</style>
<linearGradient id="Rectangle_24403_2_" gradientUnits="userSpaceOnUse" x1="-618.0632" y1="116.9352" x2="-620.3721" y2="116.9305" gradientTransform="matrix(22.193 0 0 156.981 14016.6904 -17650.1387)">
	<stop  offset="0" style="stop-color:#B22B24"/>
	<stop  offset="0.476" style="stop-color:#F05E3A"/>
	<stop  offset="1" style="stop-color:#A93324"/>
</linearGradient>
<rect id="Rectangle_24403_1_" x="248.79" y="474.29" class="st0" width="51.21" height="463.61"/>
<g id="Group_5693_1_">
	<g>
		<linearGradient id="SVGID_1_" gradientUnits="userSpaceOnUse" x1="233.9004" y1="612.3539" x2="288.2954" y2="608.8671">
			<stop  offset="0" style="stop-color:#C1C0C0"/>
			<stop  offset="0.576" style="stop-color:#FAFDFF"/>
			<stop  offset="1" style="stop-color:#A8A8A8"/>
		</linearGradient>
		<polygon class="st1" points="300.01,617.88 300.01,595.63 241.49,604.74 238.67,624.53 		"/>
		<linearGradient id="SVGID_2_" gradientUnits="userSpaceOnUse" x1="236.5467" y1="653.636" x2="290.9417" y2="650.1491">
			<stop  offset="0" style="stop-color:#C1C0C0"/>
			<stop  offset="0.576" style="stop-color:#FAFDFF"/>
			<stop  offset="1" style="stop-color:#A8A8A8"/>
		</linearGradient>
		<polygon class="st2" points="300.01,637.07 241.48,646.21 238.66,666 300,659.46 		"/>
		<linearGradient id="SVGID_3_" gradientUnits="userSpaceOnUse" x1="228.5234" y1="528.4736" x2="282.9185" y2="524.9868">
			<stop  offset="0" style="stop-color:#C1C0C0"/>
			<stop  offset="0.576" style="stop-color:#FAFDFF"/>
			<stop  offset="1" style="stop-color:#A8A8A8"/>
		</linearGradient>
		<polygon class="st3" points="300,511.36 241.5,520.56 238.68,540.35 300,533.74 		"/>
		<linearGradient id="SVGID_4_" gradientUnits="userSpaceOnUse" x1="231.1713" y1="569.7809" x2="285.5663" y2="566.294">
			<stop  offset="0" style="stop-color:#C1C0C0"/>
			<stop  offset="0.576" style="stop-color:#FAFDFF"/>
			<stop  offset="1" style="stop-color:#A8A8A8"/>
		</linearGradient>
		<polygon class="st4" points="300.02,552.85 241.48,562.03 238.66,581.82 300.02,575.23 		"/>
		<linearGradient id="SVGID_5_" gradientUnits="userSpaceOnUse" x1="249.7612" y1="859.7833" x2="304.1563" y2="856.2965">
			<stop  offset="0" style="stop-color:#C1C0C0"/>
			<stop  offset="0.576" style="stop-color:#FAFDFF"/>
			<stop  offset="1" style="stop-color:#A8A8A8"/>
		</linearGradient>
		<polygon class="st5" points="299.98,853.12 239.61,844.12 238.67,866.27 300.01,872.87 		"/>
		<linearGradient id="SVGID_6_" gradientUnits="userSpaceOnUse" x1="252.4085" y1="901.0807" x2="306.8035" y2="897.5938">
			<stop  offset="0" style="stop-color:#C1C0C0"/>
			<stop  offset="0.576" style="stop-color:#FAFDFF"/>
			<stop  offset="1" style="stop-color:#A8A8A8"/>
		</linearGradient>
		<polygon class="st6" points="238.67,907.74 300.01,914.34 300.04,894.34 239.61,885.59 		"/>
		<linearGradient id="SVGID_7_" gradientUnits="userSpaceOnUse" x1="239.1745" y1="694.6299" x2="293.5695" y2="691.143">
			<stop  offset="0.25" style="stop-color:#C1C0C0"/>
			<stop  offset="0.576" style="stop-color:#FAFDFF"/>
			<stop  offset="0.9555" style="stop-color:#A8A8A8"/>
		</linearGradient>
		<polygon class="st7" points="300.01,678.97 241.48,684 238.66,703.79 300.04,702.48 		"/>
		<linearGradient id="SVGID_8_" gradientUnits="userSpaceOnUse" x1="241.8478" y1="736.3335" x2="296.2428" y2="732.8467">
			<stop  offset="0" style="stop-color:#C1C0C0"/>
			<stop  offset="0.576" style="stop-color:#FAFDFF"/>
			<stop  offset="1" style="stop-color:#A8A8A8"/>
		</linearGradient>
		<polygon class="st8" points="300.01,720.67 241.48,725.95 238.66,745.73 300.01,744.53 		"/>
		<linearGradient id="SVGID_9_" gradientUnits="userSpaceOnUse" x1="244.5629" y1="778.6885" x2="298.9579" y2="775.2016">
			<stop  offset="0" style="stop-color:#C1C0C0"/>
			<stop  offset="0.576" style="stop-color:#FAFDFF"/>
			<stop  offset="1" style="stop-color:#A8A8A8"/>
		</linearGradient>
		<polygon class="st9" points="300.01,763.38 241.48,768.36 238.66,788.15 299.98,786.89 		"/>
		<linearGradient id="SVGID_10_" gradientUnits="userSpaceOnUse" x1="247.1292" y1="818.7238" x2="301.5242" y2="815.237">
			<stop  offset="0" style="stop-color:#C1C0C0"/>
			<stop  offset="0.576" style="stop-color:#FAFDFF"/>
			<stop  offset="1" style="stop-color:#A8A8A8"/>
		</linearGradient>
		<polygon class="st10" points="241.78,808.41 238.96,828.2 300.04,826.94 300.07,803.73 		"/>
	</g>
</g>
<g id="Group_5638_1_" transform="translate(1160.814 475.756)">
	<rect id="Rectangle_24376_1_" x="-1133.55" y="-397.41" class="st11" width="200.66" height="20"/>
</g>
<g id="Group_5639_1_" transform="translate(1160.814 476.678)">
	<rect id="Rectangle_24377_1_" x="-1133.55" y="-396.19" class="st12" width="200.66" height="20"/>
</g>
<g id="Group_5640_1_" transform="translate(1151.485 442)">
	<path id="Path_6815_1_" class="st13" d="M-909.17-191.47l-16.06-148.79h-198.19l-18.74,148.55h-5.11l6.96-164.67
		c0.02-0.18,1.78-14.17,9.33-24.25l47.1-59.89h0.25l114.25-1.26l0.16,0.2l48.61,60.52c0.05,0.03,11.43,9.98,11.43,29.34l3.85,161.05
		L-909.17-191.47z M-1124.27-341.32h199.93l17.25,142.97l-3.14-153.34c0-18.89-11.02-28.52-11.13-28.61l-48.52-60.39l-113.47,1.25
		l-46.78,59.48c-7.36,9.84-9.09,23.55-9.11,23.69l-5.15,155.67L-1124.27-341.32z"/>
</g>
<g id="Group_5641_1_" transform="translate(1160.391 447.717)">
	
		<linearGradient id="Path_6816_2_" gradientUnits="userSpaceOnUse" x1="-2968.1768" y1="112.1797" x2="-2968.1768" y2="114.4362" gradientTransform="matrix(86.639 0 0 29.066 256125.7344 -3693.1948)">
		<stop  offset="0" style="stop-color:#201109"/>
		<stop  offset="0.453" style="stop-color:#341C10"/>
		<stop  offset="0.522" style="stop-color:#361E12"/>
		<stop  offset="1" style="stop-color:#3A2115"/>
	</linearGradient>
	<path id="Path_6816_1_" class="st14" d="M-1134.1-367.51l53.66-66.75l98.03,2.33l48.24,64.94L-1134.1-367.51z"/>
</g>
<g id="Group_5642_1_" transform="translate(1166.282 476.669)">
	
		<linearGradient id="Path_6817_2_" gradientUnits="userSpaceOnUse" x1="-2978.6396" y1="112.8032" x2="-2978.6396" y2="115.1755" gradientTransform="matrix(74.8751 0 0 8.3181 221985.9375 -1334.994)">
		<stop  offset="0" style="stop-color:#171819"/>
		<stop  offset="0.192" style="stop-color:#607274"/>
		<stop  offset="0.248" style="stop-color:#435155"/>
		<stop  offset="1" style="stop-color:#10191A"/>
	</linearGradient>
	<path id="Path_6817_1_" class="st15" d="M-1125.88-382.14l1.43-10.05c0,0,0.86-4.02,7.15-4.02l154.85,0.29
		c3.46-0.49,6.66,1.93,7.15,5.4c0,0.02,0,0.04,0.01,0.05l1.43,6.6c0.89,2.78-0.64,5.76-3.41,6.65c-0.65,0.21-1.34,0.29-2.03,0.24
		h-162.85C-1122.16-376.97-1128.17-376.69-1125.88-382.14z"/>
</g>
<g id="Group_5643_1_" transform="translate(1152.036 459.808)">
	
		<radialGradient id="Path_6818_2_" cx="-2917.1738" cy="177.9211" r="1.3066" gradientTransform="matrix(11.1682 -35.504 2.9501 24.049 30920.8203 -108177.6328)" gradientUnits="userSpaceOnUse">
		<stop  offset="0" style="stop-color:#8B7C74"/>
		<stop  offset="1" style="stop-color:#25160E"/>
	</radialGradient>
	<path id="Path_6818_1_" class="st16" d="M-1114.64-418.37l-3.69,29.9l-6.75,32l-19.95,142.84l4.3-151.9c0,0-0.46-21.29,9.98-33.67
		L-1114.64-418.37z"/>
</g>
<g id="Group_5644_1_" transform="translate(1242.694 459.808)">
	
		<radialGradient id="Path_6819_2_" cx="-3194.1714" cy="198.454" r="1.248" gradientTransform="matrix(-11.2543 -32.8079 2.2638 -20.5632 -37407.0586 -101054.6172)" gradientUnits="userSpaceOnUse">
		<stop  offset="0" style="stop-color:#8B7C74"/>
		<stop  offset="0.207" style="stop-color:#76675E"/>
		<stop  offset="1" style="stop-color:#25160E"/>
	</radialGradient>
	<path id="Path_6819_1_" class="st17" d="M-1028.02-418.91l10.38,60.84l19.47,142.88l-2.62-149.45c0,0,1.5-21.02-10.5-33.73
		L-1028.02-418.91z"/>
</g>
<g id="Group_5645_1_" transform="translate(1162.597 442.664)">
	<path id="Path_6820_1_" class="st18" d="M-1131.22-361.86l49.38-65.53l-12.69-13.33l-30.67,39.5L-1131.22-361.86z"/>
</g>
<g id="Group_5646_1_" transform="translate(1224.057 442.188)">
	<path id="Path_6821_1_" class="st18" d="M-1001.33-361.45l-49.74-64.86l8.75-15.88l34.08,43.83L-1001.33-361.45z"/>
</g>
<g id="Group_5651_1_" transform="translate(1178.411 442.231)">
	<g id="Group_5647_1_">
		<path id="Path_6822_1_" class="st12" d="M-1110.54-440.21l13.2,14.02h91.79l9-15.28L-1110.54-440.21z"/>
	</g>
	<g id="Group_5650_1_">
		<g>
			<g>
				<defs>
					<polygon id="SVGID_11_" points="-1110.54,-440.21 -1097.34,-426.19 -1005.56,-426.19 -996.56,-441.46 					"/>
				</defs>
				<clipPath id="SVGID_12_">
					<use xlink:href="#SVGID_11_"  style="overflow:visible;"/>
				</clipPath>
				<g id="Group_5649_1_" class="st19">
					<g id="Group_5648_1_" transform="translate(2.839 4.821)">
						<rect id="Rectangle_24378_1_" x="-1106.83" y="-435.14" class="st11" width="106.98" height="6.03"/>
					</g>
				</g>
			</g>
		</g>
	</g>
</g>
<g id="Group_5652_1_" transform="translate(1165.541 450.888)">
	<path id="Path_6824_1_" class="st20" d="M-1127.37-424.88l24.2,0.23c-0.42-3.17-3.15-5.51-6.33-5.44h-11.54
		C-1123.94-429.63-1126.36-427.64-1127.37-424.88z"/>
</g>
<g id="Group_5653_1_" transform="translate(1167.346 453.188)">
	
		<linearGradient id="Path_6825_2_" gradientUnits="userSpaceOnUse" x1="-2888.8003" y1="109.2717" x2="-2891.1091" y2="109.2717" gradientTransform="matrix(6.811 0 0 6.764 18566.3906 -1158.359)">
		<stop  offset="0" style="stop-color:#321E11"/>
		<stop  offset="0.5" style="stop-color:#7E6F66"/>
		<stop  offset="1" style="stop-color:#1B0F0C"/>
	</linearGradient>
	<path id="Path_6825_1_" class="st21" d="M-1125.01-427.07c0,0-0.09,10.78,5.11,15.31c2.64,0.62,5.42,0.39,7.92-0.68
		c0,0,4.3-8.62,2.04-14.51L-1125.01-427.07z"/>
</g>
<g id="Group_5654_1_" transform="translate(1231.263 450.888)">
	<path id="Path_6826_1_" class="st20" d="M-1041.43-424.88l24.2,0.23c-0.42-3.17-3.15-5.51-6.33-5.44h-11.54
		C-1038-429.63-1040.42-427.64-1041.43-424.88z"/>
</g>
<g id="Group_5655_1_" transform="translate(1233.066 453.188)">
	
		<linearGradient id="Path_6827_2_" gradientUnits="userSpaceOnUse" x1="-3007.6223" y1="109.2717" x2="-3009.9312" y2="109.2717" gradientTransform="matrix(6.811 0 0 6.764 19461.5723 -1158.359)">
		<stop  offset="0" style="stop-color:#321E11"/>
		<stop  offset="0.5" style="stop-color:#7E6F66"/>
		<stop  offset="1" style="stop-color:#1B0F0C"/>
	</linearGradient>
	<path id="Path_6827_1_" class="st22" d="M-1039.07-427.07c0,0-0.09,10.78,5.11,15.31c2.64,0.62,5.42,0.39,7.92-0.68
		c0,0,4.3-8.62,2.04-14.51L-1039.07-427.07z"/>
</g>
<g id="Group_5656_1_" transform="translate(1153.06 485.633)">
	
		<linearGradient id="Path_6828_2_" gradientUnits="userSpaceOnUse" x1="-2954.7534" y1="113.78" x2="-2954.7534" y2="117.2684" gradientTransform="matrix(101.642 0 0 42.71 299300.625 -5243.9629)">
		<stop  offset="0" style="stop-color:#A79B85"/>
		<stop  offset="0.132" style="stop-color:#EEDFC1"/>
		<stop  offset="0.202" style="stop-color:#E9DABB"/>
		<stop  offset="0.535" style="stop-color:#E1D3B3"/>
		<stop  offset="0.84" style="stop-color:#E1D3B3"/>
		<stop  offset="1" style="stop-color:#C3B59A"/>
	</linearGradient>
	<path id="Path_6828_1_" class="st23" d="M-1125.4-384.42l-18.29,138.25v10.74h234.56v-6.71l-18.69-141.46
		C-927.82-383.59-1124.68-383.69-1125.4-384.42z"/>
</g>
<g id="Group_5657_1_" transform="translate(1150.868 528.357)">
	
		<linearGradient id="Rectangle_24379_2_" gradientUnits="userSpaceOnUse" x1="-2949.4622" y1="115.8045" x2="-2951.811" y2="115.7883" gradientTransform="matrix(105.804 0 0 216.178 311166.3438 -24960.2773)">
		<stop  offset="0" style="stop-color:#968B7A"/>
		<stop  offset="0.051" style="stop-color:#EEDFC1"/>
		<stop  offset="0.102" style="stop-color:#FFF2DA"/>
		<stop  offset="0.136" style="stop-color:#E7D8BA"/>
		<stop  offset="0.535" style="stop-color:#E1D3B3"/>
		<stop  offset="0.902" style="stop-color:#FFF2D8"/>
		<stop  offset="0.928" style="stop-color:#E1D3B3"/>
		<stop  offset="1" style="stop-color:#A09684"/>
	</linearGradient>
	<rect id="Rectangle_24379_1_" x="-1146.56" y="-278.12" class="st24" width="244.16" height="700.91"/>
</g>
<g id="Group_5658_1_" transform="translate(1163.383 537.745)">
	<path id="Path_6829_1_" class="st25" d="M-943.78,393.9h-186.41v-659.68h186.41V393.9z M-1129.12,392.83h184.28v-657.54h-184.28
		V392.83z"/>
</g>
<g id="Group_5659_1_" transform="translate(1165.065 537.495)">
	<rect id="Rectangle_24380_1_" x="-1127.99" y="-266.11" class="st25" width="1.06" height="659.17"/>
</g>
<g id="Group_5660_1_" transform="translate(1168.593 537.495)">
	<rect id="Rectangle_24381_1_" x="-1123.38" y="-266.11" class="st25" width="1.06" height="659.17"/>
</g>
<g id="Group_5661_1_" transform="translate(1172.121 537.495)">
	<rect id="Rectangle_24382_1_" x="-1118.76" y="-266.11" class="st25" width="1.06" height="659.17"/>
</g>
<g id="Group_5662_1_" transform="translate(1175.648 537.495)">
	<rect id="Rectangle_24383_1_" x="-1114.15" y="-266.11" class="st25" width="1.06" height="659.17"/>
</g>
<g id="Group_5663_1_" transform="translate(1179.176 537.495)">
	<rect id="Rectangle_24384_1_" x="-1109.54" y="-266.11" class="st25" width="1.06" height="659.17"/>
</g>
<g id="Group_5664_1_" transform="translate(1182.703 537.495)">
	<rect id="Rectangle_24385_1_" x="-1104.93" y="-266.11" class="st25" width="1.06" height="659.17"/>
</g>
<g id="Group_5665_1_" transform="translate(1186.23 537.495)">
	<rect id="Rectangle_24386_1_" x="-1100.31" y="-266.11" class="st25" width="1.06" height="659.17"/>
</g>
<g id="Group_5666_1_" transform="translate(1189.758 537.495)">
	<rect id="Rectangle_24387_1_" x="-1095.7" y="-266.11" class="st25" width="1.06" height="659.17"/>
</g>
<g id="Group_5667_1_" transform="translate(1193.285 537.495)">
	<rect id="Rectangle_24388_1_" x="-1091.09" y="-266.11" class="st25" width="1.06" height="659.17"/>
</g>
<g id="Group_5668_1_" transform="translate(1196.813 537.495)">
	<rect id="Rectangle_24389_1_" x="-1086.47" y="-266.11" class="st25" width="1.06" height="659.17"/>
</g>
<g id="Group_5669_1_" transform="translate(1200.34 537.495)">
	<rect id="Rectangle_24390_1_" x="-1081.86" y="-266.11" class="st25" width="1.06" height="659.17"/>
</g>
<g id="Group_5670_1_" transform="translate(1203.867 537.495)">
	<rect id="Rectangle_24391_1_" x="-1077.25" y="-266.11" class="st25" width="1.06" height="659.17"/>
</g>
<g id="Group_5671_1_" transform="translate(1207.395 537.495)">
	<rect id="Rectangle_24392_1_" x="-1072.64" y="-266.11" class="st25" width="1.06" height="659.17"/>
</g>
<g id="Group_5672_1_" transform="translate(1210.922 537.495)">
	<rect id="Rectangle_24393_1_" x="-1068.02" y="-266.11" class="st25" width="1.06" height="659.17"/>
</g>
<g id="Group_5673_1_" transform="translate(1214.449 537.495)">
	<rect id="Rectangle_24394_1_" x="-1063.41" y="-266.11" class="st25" width="1.06" height="659.17"/>
</g>
<g id="Group_5674_1_" transform="translate(1217.977 537.495)">
	<rect id="Rectangle_24395_1_" x="-1058.8" y="-266.11" class="st25" width="1.06" height="659.17"/>
</g>
<g id="Group_5675_1_" transform="translate(1221.504 537.495)">
	<rect id="Rectangle_24396_1_" x="-1054.19" y="-266.11" class="st25" width="1.06" height="659.17"/>
</g>
<g id="Group_5676_1_" transform="translate(1225.031 537.495)">
	<rect id="Rectangle_24397_1_" x="-1049.57" y="-266.11" class="st25" width="1.06" height="659.17"/>
</g>
<g id="Group_5677_1_" transform="translate(1228.559 537.495)">
	<rect id="Rectangle_24398_1_" x="-1044.96" y="-266.11" class="st25" width="1.06" height="659.17"/>
</g>
<g id="Group_5678_1_" transform="translate(1232.087 537.495)">
	<rect id="Rectangle_24399_1_" x="-1040.35" y="-266.11" class="st25" width="1.06" height="659.17"/>
</g>
<g id="Group_5679_1_" transform="translate(1235.614 537.495)">
	<rect id="Rectangle_24400_1_" x="-1035.74" y="-266.11" class="st25" width="1.06" height="659.17"/>
</g>
<g id="Group_5680_1_" transform="translate(1239.142 537.495)">
	<rect id="Rectangle_24401_1_" x="-1031.12" y="-266.11" class="st25" width="1.06" height="659.17"/>
</g>
<g id="Group_5681_1_" transform="translate(1242.669 537.495)">
	<rect id="Rectangle_24402_1_" x="-1026.51" y="-266.11" class="st25" width="1.06" height="659.17"/>
</g>
<g id="Group_5682_1_" transform="translate(1149 735.751)">
	
		<linearGradient id="Path_6830_2_" gradientUnits="userSpaceOnUse" x1="-2945.9592" y1="165.1628" x2="-2948.3108" y2="165.1628" gradientTransform="matrix(109.2324 0 0 11.6125 320899.5625 -1709.4514)">
		<stop  offset="0" style="stop-color:#BCBDBF"/>
		<stop  offset="0.134" style="stop-color:#929497"/>
		<stop  offset="0.514" style="stop-color:#FFFFFF"/>
		<stop  offset="1" style="stop-color:#929497"/>
	</linearGradient>
	<path id="Path_6830_1_" class="st26" d="M-1145.48,195.08h-3.29v22.62c0,0-1.88,3.77,5.17,4.24h238.69c0,0,7.99,0,7.99-6.6v-13.66
		h-4.7v13.72h-243.06C-1144.69,215.4-1144.78,194.37-1145.48,195.08z"/>
</g>
<rect x="248.79" y="474.29" class="st27" width="51.21" height="463.61"/>
</svg>
