<?xml version="1.0" encoding="utf-8"?>
<!-- Generator: Adobe Illustrator 24.2.3, SVG Export Plug-In . SVG Version: 6.00 Build 0)  -->
<svg version="1.1" id="Layer_1" xmlns="http://www.w3.org/2000/svg" xmlns:xlink="http://www.w3.org/1999/xlink" x="0px" y="0px"
	 viewBox="0 0 300 709.1" style="enable-background:new 0 0 300 709.1;" xml:space="preserve">
<style type="text/css">
	.st0{fill:#FAA859;}
	.st1{fill:#EF4849;}
	.st2{fill:#ED2324;}
	.st3{fill:#F48182;}
	.st4{fill:#00364D;}
	.st5{fill:#BD202E;}
	.st6{opacity:0.4;}
	.st7{fill:#02566E;}
	.st8{opacity:0.4;enable-background:new    ;}
	.st9{fill:#FFFAF1;}
	.st10{opacity:0.65;fill:url(#Rectangle_24586_2_);enable-background:new    ;}
	.st11{fill:#FEC769;}
	.st12{fill:#4EC9F5;}
	.st13{fill:#F15A2A;}
	.st14{fill:#4A1210;}
	.st15{opacity:0.3;}
	.st16{fill:#FFFFFF;}
	.st17{fill:#C1C1C5;}
	.st18{fill:url(#Path_2973_1_);}
	.st19{fill:url(#Path_2974_1_);}
	.st20{fill:#181415;}
	.st21{fill:#004D65;}
	.st22{fill:#00384B;}
	.st23{fill:#FFDD68;}
	.st24{fill:#FDCE2E;}
	.st25{fill:#242021;}
	.st26{clip-path:url(#SVGID_2_);}
	.st27{fill:#0C151A;}
	.st28{fill:#FEDE54;}
	.st29{fill:#505051;}
	.st30{fill:url(#Path_2823_1_);}
	.st31{fill:#E3BD22;}
	.st32{opacity:0.2;fill:#D0D2D3;enable-background:new    ;}
	.st33{opacity:0.1;fill:#FBCED0;enable-background:new    ;}
	.st34{opacity:0.3;fill:#FEF8E2;enable-background:new    ;}
	.st35{fill:url(#Path_2833_1_);}
	.st36{fill:#221F1F;}
	.st37{fill:#C92127;}
	.st38{fill:#D6A029;}
	.st39{fill:#152426;}
	.st40{fill:url(#Path_2845_1_);}
	.st41{fill:#3CB39E;}
	.st42{opacity:0.4;fill:#7BCCC3;enable-background:new    ;}
	.st43{opacity:0.81;fill:#55C1AF;enable-background:new    ;}
	.st44{fill:#59C2AF;}
	.st45{fill:#158772;}
	.st46{fill:#228E79;}
	.st47{fill:#1C1D1D;}
	.st48{fill:url(#Path_2652_1_);}
	.st49{opacity:0.3;fill:#D1EDF3;enable-background:new    ;}
	.st50{fill:#3ABBA2;}
	.st51{fill:#424143;}
	.st52{fill:none;}
	.st53{fill:#ED2024;}
	.st54{fill:#EF3E3D;}
	.st55{fill:url(#Path_2679_1_);}
	.st56{fill:#991B1E;}
	.st57{opacity:0.3;fill:#FFFFFF;enable-background:new    ;}
	.st58{fill:#F05050;}
	.st59{fill:#FDFEFE;}
	.st60{opacity:0.5;fill:#F38096;enable-background:new    ;}
	.st61{opacity:0.55;fill:#F38096;enable-background:new    ;}
	.st62{fill:#8F191C;}
	.st63{fill:#A3A3A3;}
	.st64{fill:#DCDBDB;}
	.st65{fill:#B6B6B6;}
	.st66{fill:#D2D2D1;}
	.st67{fill:#F6F6F6;}
	.st68{fill:url(#Path_2702_1_);}
	.st69{fill:url(#Path_2703_1_);}
	.st70{fill:#F48789;}
	.st71{fill:#4D4D4E;}
	.st72{fill:#EECAE0;}
	.st73{fill:#F287B6;}
	.st74{fill:#2B5766;}
	.st75{fill:#396B7B;}
	.st76{fill:#EBEBEB;}
</style>
<g id="Group_3614" transform="translate(-84.999 -57.445)">
	<g transform="matrix(1, 0, 0, 1, 85, 57.45)">
		<path id="Path_2606-2" class="st0" d="M271.2,512.6V220.8l3-7.5V105.4c0-96.6-75.8-95.3-75.8-95.3C193.3,3.6,186.3,0,179,0H121
			c-7.3,0-14.3,3.6-19.5,10c0,0-75.8-1.3-75.8,95.3v107.9l3,7.5v291.8l-5.6,15.5v105.4c0,13.2,13,75.7,38.6,75.7h176.4
			c25.6,0,38.6-62.5,38.6-75.7V528L271.2,512.6z"/>
	</g>
	<g id="Group_3613" transform="translate(349 61.293)">
		<g id="Group_3588" transform="translate(128.373 86.3)">
			<path id="Path_2586" class="st1" d="M-121.2,130.6h18.4c0,0,10.4,3.5,10.4,15.4v13.5h-28.8V130.6z"/>
		</g>
		<g id="Group_3589" transform="translate(10.996 2.152)">
			<path id="Path_2587" class="st2" d="M-3.8,506.6V214.7l3-7.5V99.4C-0.8,2.8-76.5,4-76.5,4C-81.7-2.4-88.7-6-96-6H-154
				c-7.3,0-14.3,3.6-19.5,10c0,0-75.8-1.3-75.8,95.3v107.9l3,7.5v291.8l-5.6,15.5v105.4c0,13.2,13,75.7,38.6,75.7h176.4
				c25.6,0,38.6-62.5,38.6-75.7V522L-3.8,506.6z"/>
		</g>
		<g id="Group_3590" transform="translate(0 86.3)">
			<path id="Path_2588" class="st1" d="M-235.2,130.6h-18.4c0,0-10.4,3.5-10.4,15.4v13.5h28.8L-235.2,130.6z"/>
		</g>
		<g id="Group_3591" transform="translate(18.646 13.626)">
			<path id="Path_2589" class="st1" d="M-49.8,272.2l22.2-73.7l3-7.5V87.9c0-71.6-49.5-75.3-59.4-75.3h-97.3
				c-9.9,0-59.5,3.6-59.5,75.3V191l3,7.5l22.2,73.7v227.1l-31.2,51.5l-0.5,65.5c1.3,12.1,4.9,23.8,9.1,34.8
				c5.4,14.3,14.2,20.5,17.2,20.5l180.9-0.3c9.3,0,22-43.3,22.3-58.1l1.8-66.8l-33.9-46.9L-49.8,272.2z"/>
		</g>
		<path id="Path_9467_1_" class="st3" d="M-21.1,548.3l-7,42.3c-56.3,15-112.8,11.8-168.9,1.5l-4.9-41l-3.1-11.6l182.6-0.2
			L-21.1,548.3z"/>
		<g>
			<path id="Path_9466_1_" class="st3" d="M-195.6,57.2c0,0,69.3-29.8,158.4,4.4l20.8,140.1l-194.1,0.8L-195.6,57.2z"/>
			<path id="Path_9471_1_" class="st1" d="M-159.7,181.2V89.5l-24.1,95.3L-159.7,181.2z"/>
			<path id="Path_9472_1_" class="st1" d="M-72.3,181.2V89.5l24.1,95.3L-72.3,181.2z"/>
		</g>
		<g id="Group_3592" transform="translate(23.825 67.493)">
			<path id="Path_2590" class="st4" d="M-137.8,100.1c0,0-59.3-0.8-99.7,34.7l23.6,74.4c0,0,25.2-15,76.1-15s76.1,15,76.1,15
				l23.6-74.4C-78.6,99.2-137.8,100.1-137.8,100.1z"/>
		</g>
		<g id="Group_3593" transform="translate(23.187 195.789)">
			<path id="Path_2591" class="st4" d="M-61.8,318.4c-16.8,12.1-75.4,12.1-75.4,12.1s-58.6,0-75.4-12.1l-30,52.1
				c0,0,40.1,16.9,105.4,16.9s107.6-18.8,107.6-18.8L-61.8,318.4z"/>
		</g>
		<g id="Group_3594" transform="translate(113.233 91.798)">
			<path id="Path_2592" class="st4" d="M-117.3,380.7l-1.9-241.2l-18.9,63.7v136.9L-117.3,380.7z"/>
		</g>
		<g id="Group_3595" transform="translate(113.233 175.124)">
			<path id="Path_2593" class="st4" d="M-138,274.8l-0.2,56.4l21.6,32.3l-0.4-47.6L-138,274.8z"/>
		</g>
		<g id="Group_3596" transform="translate(18.943 91.798)">
			<path id="Path_2594" class="st4" d="M-242.9,380.7l1.9-241.2l18.9,63.7v136.9L-242.9,380.7z"/>
		</g>
		<g id="Group_3597" transform="translate(18.646 175.124)">
			<path id="Path_2595" class="st4" d="M-221.9,274.8l0.6,55.9l-21.3,35.3l-0.3-50.1L-221.9,274.8z"/>
		</g>
		<g id="Group_3607" transform="translate(96.261 266.788)">
			<g id="Group_3606">
				<path id="Path_2602" class="st5" d="M-129.4,433.6h-23.4c-2.2-0.1-4-2.4-3.9-5.1c0-2.7,1.8-4.8,3.9-4.9h23.4
					c2.2-0.1,4.1,2.1,4.1,4.9c0.1,2.8-1.7,5.1-3.9,5.1C-129.3,433.6-129.4,433.6-129.4,433.6z"/>
			</g>
		</g>
		<g id="Group_3609" transform="translate(30.838 266.788)">
			<g id="Group_3608">
				<path id="Path_2603" class="st5" d="M-202.2,433.6h-23.4c-2.2-0.1-4-2.4-3.9-5.1c0-2.7,1.8-4.8,3.9-4.9h23.4
					c2.2,0.1,4,2.4,3.9,5.1C-198.3,431.4-200.1,433.6-202.2,433.6z"/>
			</g>
		</g>
		<g id="Group_3611" transform="translate(70.999 195.789)" class="st6">
			<path id="Path_2604" class="st7" d="M-77.8,368.2l-31.8-49.8c-16.8,12.1-75.4,12.1-75.4,12.1v56.9
				C-119.7,387.4-77.8,368.2-77.8,368.2z"/>
		</g>
		<path class="st4" d="M-180.7,17.9c0,0,53.7-19.7,132.1,1.5v4c0,0-64.3-16.7-132.1-1.5V17.9z"/>
		<g id="Group_3612" transform="translate(70.999 67.493)" class="st8">
			<path id="Path_2605" class="st7" d="M-108.9,209.1l23.6-74.4c-40.4-35.5-99.7-34.7-99.7-34.7v94
				C-134.2,194.1-108.9,209.1-108.9,209.1z"/>
		</g>
		<path id="Path_9480_1_" class="st9" d="M-174.7,16.8c0,0-23.6-10.5-35.9,20.7c0,0-0.7,7.7,9.2,0
			C-201.5,37.5-167.4,22.3-174.7,16.8z"/>
		<path id="Path_9480_2_" class="st9" d="M-52.1,16.8c0,0,23.6-10.5,35.9,20.7c0,0,0.7,7.7-9.2,0C-25.3,37.5-59.3,22.3-52.1,16.8z"
			/>
		
			<linearGradient id="Rectangle_24586_2_" gradientUnits="userSpaceOnUse" x1="-2701.6641" y1="5588.4604" x2="-2701.6641" y2="5592.6152" gradientTransform="matrix(64.945 0 0 -49.766 175344.9063 278613.6563)">
			<stop  offset="0" style="stop-color:#FFFFFF"/>
			<stop  offset="1" style="stop-color:#F8DD81;stop-opacity:0"/>
		</linearGradient>
		<path id="Rectangle_24586_1_" class="st10" d="M-171,291.6h113.7c7,0,12.7,5.7,12.7,12.8l0,0l-1,181.2c0,7.1-5.7,12.8-12.7,12.8
			l0,0H-172c-7,0-12.7-5.7-12.7-12.8l1-181.2C-183.7,297.3-178,291.6-171,291.6L-171,291.6z"/>
	</g>
</g>
</svg>
