<?xml version="1.0" encoding="utf-8"?>
<!-- Generator: Adobe Illustrator 24.2.3, SVG Export Plug-In . SVG Version: 6.00 Build 0)  -->
<svg version="1.1" id="Layer_1" xmlns="http://www.w3.org/2000/svg" xmlns:xlink="http://www.w3.org/1999/xlink" x="0px" y="0px"
	 viewBox="0 0 300 750" style="enable-background:new 0 0 300 750;" xml:space="preserve">
<style type="text/css">
	.st0{fill:#E29026;}
	.st1{fill:#F6B518;}
	.st2{fill:#1D1C1A;}
	.st3{fill:#3B3B37;}
	.st4{fill:#624427;}
	.st5{fill:#FFE4A8;}
	.st6{fill:#F26E21;}
	.st7{fill:#B11F24;}
	.st8{fill:#131029;}
	.st9{fill:#6CC6C6;}
	.st10{fill:#2A252C;}
	.st11{fill:#CA2027;}
	.st12{fill:none;stroke:#000000;stroke-width:1.0001;stroke-miterlimit:10.0014;}
	.st13{fill:none;stroke:#131029;stroke-width:1.0001;stroke-miterlimit:10.0014;}
	.st14{fill:#26262C;}
	.st15{fill:none;stroke:#000000;stroke-miterlimit:10;}
	.st16{fill:#333333;}
	.st17{fill:#010101;}
	.st18{fill:#323232;}
	.st19{fill:#CCCBCB;}
	.st20{fill:#989898;}
	.st21{fill:#313131;}
	.st22{fill:#0D0C0D;}
	.st23{fill:#D2D2D2;}
	.st24{fill:#59C1AE;}
	.st25{fill:#74C8BC;}
	.st26{fill:#33342E;}
	.st27{fill:#CA2026;}
	.st28{fill:#666667;}
	.st29{fill:#575858;}
	.st30{opacity:0.44;enable-background:new    ;}
	.st31{opacity:0.11;fill:#FFFFFF;enable-background:new    ;}
	.st32{opacity:0.24;enable-background:new    ;}
	.st33{fill:none;stroke:#0D0C0D;stroke-miterlimit:10;}
	.st34{fill:#F16422;}
	.st35{fill:#646565;}
	.st36{fill:#989898;stroke:#818282;stroke-miterlimit:10;}
	.st37{opacity:0.5;fill:#CCCBCB;enable-background:new    ;}
	.st38{clip-path:url(#SVGID_2_);}
	.st39{fill:#FFFFFF;}
	.st40{fill:#979998;}
	.st41{fill:#BFBEBE;}
	.st42{fill:none;stroke:#0D0C0D;stroke-width:2;stroke-miterlimit:10;}
	.st43{fill:#2A2A2A;}
	.st44{clip-path:url(#SVGID_4_);}
	.st45{fill:#CBCACA;}
	.st46{fill:#F16622;}
	.st47{fill:#CDCCCC;}
	.st48{fill:#3A3A3A;}
	.st49{fill:#676767;}
	.st50{fill:#F89C1C;}
	.st51{fill:#C07A2A;}
	.st52{fill:#FDC672;}
	.st53{fill:#FDC56F;}
	.st54{fill:#979797;}
	.st55{fill:url(#Path_3543_1_);}
	.st56{fill:url(#Path_3545_1_);}
	.st57{fill:url(#Path_3546_1_);}
	.st58{fill:url(#Path_3547_1_);}
	.st59{clip-path:url(#SVGID_6_);}
	.st60{fill:none;stroke:#0E0E0E;stroke-width:1.5;stroke-miterlimit:10;}
	.st61{fill:#0C0C0C;}
	.st62{clip-path:url(#SVGID_8_);}
</style>
<g id="Group_3923_1_" transform="translate(-100.209 -902.773)">
	<g transform="matrix(1, 0, 0, 1, 100.21, 902.77)">
		<path id="Union_16-2_1_" class="st7" d="M40.52,732.74c-23.17-5.77-21.2-31.74-21.2-31.74l2.82-189.04
			c-1.68-37.93,8.29-40.58,11.25-40.53l-8.67-105.85c-11.42,7.73-18.46-0.33-18.46-0.33c-8.63-7.26-5.11-14.73-5.11-14.73
			c2.28-8.69,19.13-17.64,19.13-17.64c0.57-0.34,1.13-0.63,1.69-0.9l-2.15-26.26c-5.18-42.66,0.45-78.54,11.91-108.41l0.47-149.99
			c0,0-1.75-30.85,22.36-42.39c0,0,20.52-7.77,31.77,10.55c0,0,8.69,10.96,10.27,31.93l1.03,60.09
			c18.55-15.59,39.27-28.31,61.49-37.73c22,9.31,42.43,22.07,60.54,37.81l-1.07-62.34c0.86-21.01,9.17-32.28,9.17-32.28
			C238.36-5.74,259.14,1.3,259.14,1.3c24.48,10.68,23.8,41.57,23.8,41.57l6.35,188.95l-1.84-4.27c5.73,26.5,7.26,53.76,4.55,80.75
			l-5.5,36.25c3.88,3.57,13.02,12.71,13.37,19.78c0,0,1.91,8.06-8.02,13.33c-3.14,2.05-7.03,2.57-10.58,1.41l-12.19,80.34
			l-2.46,25.33c6.55,5.47,5.69,21.56,5.69,21.56l-1.4,201.38c-0.69,30.9-28.58,33.88-28.58,33.88c-21.75,5.94-46.1,8.12-70.18,8.12
			C105.21,749.64,40.52,732.74,40.52,732.74z"/>
	</g>
	<g id="Group_3922_1_" transform="matrix(1, -0.017, 0.017, 1, 44.864, 641.807)">
		<g id="Group_3920_1_" transform="translate(71.468 270.315)">
			<path id="Path_3335_1_" class="st8" d="M7.37,191.56l3.13-151.99c0,0-1.21-30.88,23.09-42c0,0,20.65-7.42,31.58,11.11
				c0,0,8.5,11.11,9.72,32.11l-0.02,62.99l-9.74,56.81l-42.51,30.89L7.37,191.56z"/>
			<path id="Rectangle_20248_1_" class="st9" d="M41.16,41.41L41.16,41.41c7.38,0,13.36,6.08,13.36,13.58l-0.03,97.57
				c0,7.5-5.99,13.59-13.36,13.59l0,0c-7.38,0-13.36-6.08-13.36-13.58L27.79,55C27.79,47.5,33.78,41.42,41.16,41.41z"/>
			<path id="Rectangle_20249_1_" class="st10" d="M41.14,105.64L41.14,105.64c4.7,0,8.5,3.87,8.5,8.64l-0.01,27.17
				c0,4.78-3.81,8.65-8.5,8.65l0,0c-4.7,0-8.5-3.87-8.5-8.64l0.01-27.17C32.63,109.51,36.44,105.64,41.14,105.64z"/>
		</g>
		<g id="Group_3921_1_" transform="translate(147.435 270.315)">
			<path id="Path_3336_1_" class="st8" d="M188.35,228.54L185.31,39.5c0,0,1.22-30.88-23.07-41.99c0,0-20.65-7.4-31.58,11.13
				c0,0-8.51,11.12-9.74,32.11l-0.02,62.99l9.71,56.81l42.5,30.86L188.35,228.54z"/>
			<path id="Rectangle_20250_1_" class="st9" d="M154.64,166.1L154.64,166.1c-7.38,0-13.36-6.08-13.36-13.58l0.03-97.57
				c0-7.5,5.99-13.59,13.36-13.59l0,0c7.38,0,13.36,6.08,13.36,13.58L168,152.51C168,160.01,162.02,166.1,154.64,166.1z"/>
			<path id="Rectangle_20251_1_" class="st10" d="M154.64,164.87L154.64,164.87c-4.7,0-8.5-3.87-8.5-8.64l0.01-41.99
				c0-4.78,3.81-8.65,8.5-8.65l0,0c4.7,0,8.5,3.87,8.5,8.64l-0.01,41.99C163.14,160.99,159.33,164.86,154.64,164.87z"/>
		</g>
		<path id="Path_3337_1_" class="st8" d="M76.57,734.05c0,0-13.97-4.24-12.75,40.22l-6.13,188.96c0,0-2.44,25.94,20.64,32.11
			c0,0,119.02,33.31,201.62,12.29c0,0,27.94-2.48,29.16-33.35l4.92-201.31c0,0,1.22-17.29-6.07-22.23l-43.78,197.62l-97.17,9.92
			l-72.86-51.86L76.57,734.05z"/>
		<path id="Path_3338_1_" class="st7" d="M208.48,334.55c0,0-161.56,58.09-143.39,233.46l21.77,338.4c0,0-4.87,46.92,19.42,50.63
			c0,0,85.02,14.8,127.53,11.08c0,0,53.44-1.25,53.45-29.66l24.35-212.44l25.55-150.68C337.16,575.35,363.93,404.9,208.48,334.55z"
			/>
		<path id="Path_3339_1_" class="st11" d="M156.15,707.55c0,0,18.24-103.74-38.83-128.43c0,0-17.3-15.08-26.8-20.39
			c-3.12-2.38-4.48-6.45-3.45-10.27c5-27.07,26.57-112.96,105.61-164.5c0,0,13.37-12.36,32.79,2.46c0,0,75.29,58.02,88.62,161.77
			c0,0,4.86,13.59-3.65,17.29c0,0-63.17,19.78-71.68,75.35l-3.66,74.11c0,0-12.13-43.22-40.07-35.81
			C195.02,679.13,170.73,675.43,156.15,707.55z"/>
		<path id="Path_3340_1_" class="st12" d="M204.83,377.78l-10.96,112.39c0,0-2.43,14.82,9.72,18.51c0,0,12.15,0,9.74-28.41
			L204.83,377.78z"/>
		<path id="Path_3341_1_" class="st8" d="M153.72,717.43c0,0,3.72-36.33,38.92-38.56c0,0,38.84-7.16,42.47,41l-2.48,185.26
			c0,0,4.85,32.11-24.3,42c0,0-31.58,13.6-59.51-17.27c0,0-7.29-2.47-3.63-41.99L153.72,717.43z"/>
		<path id="Path_3342_1_" class="st7" d="M159.76,821.17l64.37,1.22c0,0,4.85,32.11-24.3,38.3c0,0-27.94,3.71-37.66-16.05
			C162.18,844.64,157.33,836,159.76,821.17z"/>
		<path id="Path_3343_1_" class="st8" d="M119.14,577.26c0,0,34.02-40.77,88.68-39.55c0,0,39.88-0.9,75.8,41.52
			c0,0-1.12,7.24-12.05,13.42c0,0-65.58-72.85-143.33,1.28C128.24,593.93,123.38,577.88,119.14,577.26z"/>
		<path id="Path_3344_1_" class="st8" d="M120.35,576.24c-13.08,4.53-25.38,11.13-36.44,19.56c-5.55-4.11-13.02-4.36-18.83-0.61
			c0,0-17.01,8.65-19.44,17.3c0,0-3.65,7.41,4.85,14.82c0,0,7.29,8.64,19.43-0.01l15.79-9.9c0,0,8.5-4.94,1.22-17.29
			c10.51-9.33,22.98-16.09,36.44-19.77L120.35,576.24z"/>
		<path id="Path_3345_1_" class="st8" d="M280.25,577.96c11.61,7.61,21.96,17.05,30.67,27.95c6.37-2.62,13.67-1.01,18.41,4.05
			c0,0,14.43,12.58,14.71,21.57c0,0,1.76,8.09-8.26,13.19c0,0-9.14,6.6-18.85-4.79l-12.95-13.48c0,0-7.07-6.89,2.96-17.07
			c-7.96-11.64-18.44-21.27-30.62-28.16L280.25,577.96z"/>
		<path id="Path_3346_1_" class="st13" d="M129.46,591.46c0,0,11.53,47.55,31.56,64.21c0,0,23.07,27.16,61.94,7.39
			c0,0,32.8-21,48.61-70.41"/>
		<path id="Path_3347_1_" class="st8" d="M175.62,569.22c14.89-2.13,29.96-2.55,44.94-1.25c0,0,6.07-1.24,4.86,11.11l0,16.06
			c0,0-1.22,7.41,7.29,7.41l40.08-0.01c0,0,8.5-2.47,8.5,4.94l0,11.12c0,0,0,7.41-10.93,7.41l-19.43,0.01
			c-4.23,0.04-7.82,3.17-8.51,7.41c0,0,0,4.94-7.29,6.18l-68.02,0.02c0,0-12.94,0.54-12.54-10.23c0,0,3.14-5.83-1.27-6.44
			l-34.78,0.63c0,0-6.07,0-6.07-9.89c0,0-2.43-13.59,10.94-13.59l43.73,1.22c0,0,7.29,2.47,7.29-3.71l0.01-22.23
			C174.41,575.39,173.19,570.45,175.62,569.22z"/>
		<path id="Path_3349_1_" class="st14" d="M153.72,717.43c0,0,3.72-36.33,38.92-38.56c0,0,38.84-7.16,42.47,41l-0.72,53.43
			l-83.37-2.01L153.72,717.43z"/>
	</g>
</g>
</svg>
