<?xml version="1.0" encoding="utf-8"?>
<!-- Generator: Adobe Illustrator 24.2.3, SVG Export Plug-In . SVG Version: 6.00 Build 0)  -->
<svg version="1.1" id="Layer_1" xmlns="http://www.w3.org/2000/svg" xmlns:xlink="http://www.w3.org/1999/xlink" x="0px" y="0px"
	 viewBox="0 0 300 681.1" style="enable-background:new 0 0 300 681.1;" xml:space="preserve">
<style type="text/css">
	.st0{fill:#FAA859;}
	.st1{fill:#EF4849;}
	.st2{fill:#ED2324;}
	.st3{fill:#F48182;}
	.st4{fill:#00364D;}
	.st5{fill:#BD202E;}
	.st6{opacity:0.4;}
	.st7{fill:#02566E;}
	.st8{opacity:0.4;enable-background:new    ;}
	.st9{fill:#FFFAF1;}
	.st10{opacity:0.65;fill:url(#Rectangle_24586_2_);enable-background:new    ;}
	.st11{fill:#FEC769;}
	.st12{fill:#4EC9F5;}
	.st13{fill:#F15A2A;}
	.st14{fill:#4A1210;}
	.st15{opacity:0.3;}
	.st16{fill:#FFFFFF;}
	.st17{fill:#C1C1C5;}
	.st18{fill:url(#Path_2973_1_);}
	.st19{fill:url(#Path_2974_1_);}
	.st20{fill:#181415;}
	.st21{fill:#004D65;}
	.st22{fill:#00384B;}
	.st23{fill:#FFDD68;}
	.st24{fill:#FDCE2E;}
	.st25{fill:#242021;}
	.st26{clip-path:url(#SVGID_2_);}
	.st27{fill:#0C151A;}
	.st28{fill:#FEDE54;}
	.st29{fill:#505051;}
	.st30{fill:url(#Path_2823_1_);}
	.st31{fill:#E3BD22;}
	.st32{opacity:0.2;fill:#D0D2D3;enable-background:new    ;}
	.st33{opacity:0.1;fill:#FBCED0;enable-background:new    ;}
	.st34{opacity:0.3;fill:#FEF8E2;enable-background:new    ;}
	.st35{fill:url(#Path_2833_1_);}
	.st36{fill:#221F1F;}
	.st37{fill:#C92127;}
	.st38{fill:#D6A029;}
	.st39{fill:#152426;}
	.st40{fill:url(#Path_2845_1_);}
	.st41{fill:#3CB39E;}
	.st42{opacity:0.4;fill:#7BCCC3;enable-background:new    ;}
	.st43{opacity:0.81;fill:#55C1AF;enable-background:new    ;}
	.st44{fill:#59C2AF;}
	.st45{fill:#158772;}
	.st46{fill:#228E79;}
	.st47{fill:#1C1D1D;}
	.st48{fill:url(#Path_2652_1_);}
	.st49{opacity:0.3;fill:#D1EDF3;enable-background:new    ;}
	.st50{fill:#3ABBA2;}
	.st51{fill:#424143;}
	.st52{fill:none;}
	.st53{fill:#ED2024;}
	.st54{fill:#EF3E3D;}
	.st55{fill:url(#Path_2679_1_);}
	.st56{fill:#991B1E;}
	.st57{opacity:0.3;fill:#FFFFFF;enable-background:new    ;}
	.st58{fill:#F05050;}
	.st59{fill:#FDFEFE;}
	.st60{opacity:0.5;fill:#F38096;enable-background:new    ;}
	.st61{opacity:0.55;fill:#F38096;enable-background:new    ;}
	.st62{fill:#8F191C;}
	.st63{fill:#A3A3A3;}
	.st64{fill:#DCDBDB;}
	.st65{fill:#B6B6B6;}
	.st66{fill:#D2D2D1;}
	.st67{fill:#F6F6F6;}
	.st68{fill:url(#Path_2702_1_);}
	.st69{fill:url(#Path_2703_1_);}
	.st70{fill:#F48789;}
	.st71{fill:#4D4D4E;}
	.st72{fill:#EECAE0;}
	.st73{fill:#F287B6;}
	.st74{fill:#2B5766;}
	.st75{fill:#396B7B;}
	.st76{fill:#EBEBEB;}
</style>
<g id="Group_3687" transform="translate(-225.815 -283.161)">
	<path id="Path_2675" class="st52" d="M519.9,599.3c-3.5-5.7-9.1-9.3-15.2-9.8c-0.1,0-0.3,0-0.4,0c-1.2,0-2.5,0.2-3.6,0.5
		c-0.1-7.1,0.2-14.3,1-21.3c0-0.4,0.1-0.9,0.1-1.3c0.3-2.4,0.6-4.7,1-7c0-0.2,0-0.3,0-0.5c0-0.8,3.4-82.3,5.6-115.7
		c0.3-4.6,0.7-9.1,1.1-14c2.6-30.4,5.5-64.9-14.9-100.6c-1.2-2.4-13.1-24.7-50.3-34.7c-13.7-3.7-23.3-6-30.9-7.7
		c-0.8-0.2-1.6-0.3-2.4-0.5c-3.1-0.6-5.9-1.2-8.6-1.6c-0.7-0.1-1.3-0.2-2-0.3c-2-0.3-3.8-0.5-5.7-0.8c-0.6-0.1-1.2-0.1-1.7-0.2
		l-0.1,0c-0.6-0.1-1.2-0.1-1.8-0.2c-1.2-0.1-2.4-0.2-3.6-0.3c-0.6,0-1.2-0.1-1.8-0.1h-0.1l-1.7-0.1h-0.2c-0.6,0-1.1,0-1.7-0.1
		c-1.6,0-3.3-0.1-5.3-0.1h-0.8c-3.3,0-6,0.1-8.7,0.2l-1.7,0.1h-0.1c-0.6,0-1.1,0.1-1.7,0.1h-0.1c-0.6,0-1.1,0.1-1.7,0.1
		c-1.2,0.1-2.4,0.2-3.6,0.3c-0.6,0.1-1.2,0.1-1.8,0.2h0h-0.1c-0.6,0.1-1.2,0.1-1.8,0.2h-0.1c-0.6,0.1-1.2,0.2-1.9,0.3
		c-1.3,0.2-2.6,0.4-4,0.6c-0.7,0.1-1.3,0.2-2.1,0.4l-0.1,0c-0.7,0.1-1.4,0.2-2.1,0.4l-0.1,0c-0.7,0.1-1.4,0.3-2.2,0.4
		c-8.1,1.7-18.3,4.2-33.9,8.3c-37.3,10-49.2,32.3-50.3,34.7c-20.5,35.7-17.5,70.2-14.9,100.6c0.4,4.8,0.8,9.4,1.1,14
		c2.2,33.4,5.5,114.9,5.6,115.7c0,0.2,0,0.3,0,0.5c1.5,9.6,2.2,19.3,2.1,29c-0.2,0.2-0.4,0.4-0.6,0.6c-1.2-0.4-2.4-0.6-3.7-0.6H247
		c-6.1,0.5-11.7,4.1-15.2,9.8c-4.9,6.9-6.9,15.8-5.6,24.5c0.5,2.4,2.6,3.9,4.8,3.3c0.3-0.1,0.7-0.2,1-0.4c0.2,0,0.4-0.1,0.6-0.2
		c0.6-0.2,1.4-0.6,2.4-1c4.6-1.9,10.3-4.5,15-7.1c-0.5,5.1-1,10.4-1.6,15.9c-1.1,10.6-2.2,21.5-3,33.5c-1.1,15.7-2.4,37.8-3.8,65.7
		v0.1v0.1c-1.5,29.4-2.6,54.8-2.6,55.1c0,0.2,0,0.4,0,0.5c4.1,42.7,13.1,93.6,17.2,108.6c0.1,0.5,0.3,1,0.5,1.5l0,0.1v0
		c0,0.1,0.1,0.3,0.1,0.4l0,0.1l0.1,0.2c0.1,0.2,0.1,0.4,0.2,0.7l0.1,0.2l0,0.1c0.1,0.2,0.2,0.4,0.2,0.6l0.1,0.2
		c0.1,0.1,0.1,0.3,0.2,0.4l0.1,0.2l0.1,0.2l0.3,0.7l0.1,0.2l0.1,0.3l0.2,0.3l0.1,0.2l0.1,0.2c0.1,0.2,0.1,0.3,0.2,0.5l0,0.1l0.1,0.2
		c0.1,0.2,0.2,0.4,0.3,0.6l0,0.1l0.1,0.1l0.2,0.5l0.1,0.2c0.1,0.2,0.2,0.4,0.3,0.6l0.1,0.2l0,0.1l0.1,0.1l0.1,0.1l0.1,0.3l0,0
		c0.1,0.2,0.2,0.4,0.3,0.6l0.1,0.3l0.1,0.2l0.2,0.3c0,0,0,0.1,0,0.1l0.1,0.2l0,0.1l0.3,0.6l0.1,0.1c0.1,0.1,0.1,0.3,0.2,0.4l0.1,0.2
		l0,0.1c0.1,0.2,0.2,0.3,0.3,0.5c0.1,0.1,0.1,0.2,0.2,0.3l0.2,0.4l0.2,0.3l0.1,0.1l0.2,0.3l0.1,0.2l0.1,0.1l0.1,0.1l0.1,0.2l0.2,0.4
		l0.1,0.1l0,0.1l0.2,0.4l0.1,0.1l0.2,0.3l0.3,0.5l0.1,0.2c0.1,0.1,0.2,0.3,0.3,0.4l0,0.1l0.1,0.2c0.2,0.3,0.4,0.6,0.6,0.9l0.2,0.2
		l0.1,0.1c0.2,0.4,0.5,0.7,0.7,1.1l0.1,0.1c0.3,0.4,0.5,0.8,0.8,1.2c2.6,3.8,5.5,7.5,8.4,11c0,0.1,0.1,0.1,0.1,0.2
		c0.2,0.2,0.5,0.5,0.7,0.7l0.2,0.2l0.1,0.1l0.3,0.3c12.7,12.3,30.3,21.2,52.3,26.5c6.7,1.6,13.5,2.8,20.4,3.6
		c1.7,0.2,3.5,0.4,5.1,0.5h0.1l1,0.1l0.2,0c1.4,0.1,2.8,0.2,4.3,0.3h0.1h0.1h0.1l0.8,0l0.3,0c0.9,0.1,1.8,0.1,2.7,0.1h0.1h0.1h0.1
		l0.6,0h0.2h0.1h0.1l0.6,0h0.1h0.1c0.8,0,1.5,0,2.1,0h0.2c1,0,1.8,0,2.6,0c1.9,0,3.2,0,3.6-0.1c0.4,0,1.7,0.1,3.6,0.1s3.9,0,6-0.1
		h0.1c0.3,0,0.6,0,0.8,0c0.1,0,0.1,0,0.2,0c0.9,0,1.9-0.1,2.9-0.1h0.2l0.9-0.1h0.1c20.9-1.3,59.5-7.3,84.2-31.9l0.1-0.1l0.2-0.2
		l0.1-0.1l0.1-0.1c0.1-0.1,0.1-0.1,0.2-0.2c3-3.6,5.9-7.3,8.5-11.2l0.1-0.2l0.1-0.1c0.2-0.4,0.5-0.7,0.7-1l0.1-0.1l0-0.1l0.1-0.2
		l0.1-0.1l0.1-0.1l0.5-0.7l0.1-0.2l0.1-0.2l0.1-0.2l0.1-0.2l0.3-0.5l0.1-0.2l0.1-0.2l0.1-0.2c0.1-0.1,0.1-0.2,0.2-0.3
		c0.1-0.1,0.1-0.1,0.1-0.2l0.2-0.3l0.1-0.2l0.2-0.4l0-0.1l0.1-0.2l0.2-0.4l0.1-0.2l0.1-0.1l0.1-0.2l0.2-0.3l0.1-0.2l0.3-0.5l0.2-0.4
		l0.2-0.4l0.5-0.8l0.1-0.1l0.1-0.2l0.1-0.3c0.2-0.3,0.3-0.6,0.5-0.9l0.1-0.2l0.1-0.3l0.1-0.1l0-0.1c0.1-0.2,0.3-0.5,0.4-0.7l0-0.1
		l0.1-0.1l0.3-0.6l0.1-0.2l0.2-0.4l0.1-0.2l0.1-0.1c0.1-0.2,0.2-0.4,0.3-0.6l0.2-0.3l0.1-0.3l0.1-0.2l0-0.1l0.3-0.6l0.1-0.4l0-0.1
		l0.2-0.4l0.1-0.2l0-0.1c0.1-0.1,0.1-0.3,0.2-0.4c0.1-0.2,0.1-0.3,0.2-0.5l0.1-0.2l0.1-0.2l0.1-0.4l0-0.1l0.1-0.2
		c0.1-0.2,0.2-0.5,0.3-0.8l0-0.1l0-0.1c0-0.1,0.1-0.3,0.1-0.4l0-0.1c0.2-0.5,0.3-1,0.5-1.6c4.2-14.9,13.2-65.8,17.2-108.6
		c0-0.2,0-0.4,0-0.5c0-0.8-3.4-78.7-6.3-120.9c-0.8-12-1.9-22.9-3-33.5c-0.5-5.3-1.1-10.5-1.5-15.5c4.6,2.5,10.1,4.9,14.4,6.7
		c1,0.4,1.8,0.7,2.4,1c0.2,0.1,0.4,0.2,0.6,0.2c0.6,0.4,1.2,0.5,1.9,0.5c0.5,0,1.1-0.1,1.6-0.4c1.1-0.6,2-1.7,2.3-3.1
		C526.8,615.1,524.7,606.2,519.9,599.3z M363.5,283.5"/>
	<g id="Group_3686" transform="translate(227.286 284.636)">
		<path id="Path_2676" class="st53" d="M276.4,383.4c-3-42.7-9.7-73.6-4.1-108.3c0,0,3.3-82,5.6-115.8c2.2-33.9,9.7-72.3-13.4-112.5
			c0,0-10.8-23-48.4-33c-37-9.9-48-11.7-66.9-11.7h-0.8c-18.8,0-29.8,1.8-66.9,11.7c-37.6,10-48.4,33-48.4,33
			c-23.1,40.1-15.6,78.6-13.4,112.5s5.6,115.8,5.6,115.8c5.6,34.7-1.1,65.6-4.1,108.3S15,504.2,15,504.2
			c4.1,43.1,13,93.2,17.1,107.9c4.1,14.6,19.3,32.2,19.3,32.2c33.7,34.2,95.5,31.9,97.4,31.8c1.9,0.1,63.7,2.4,97.4-31.8
			c0,0,15.2-17.6,19.3-32.2c4.1-14.6,13-64.8,17.1-107.9C282.7,504.2,279.4,426,276.4,383.4z"/>
		<path id="Path_2677" class="st54" d="M57.4,645.1c0,0-1.1-34.5-6.7-47.7l15.1-6.9c0,0,12.3,25.1,33.5,33.9v41.4
			C99.2,665.8,74.1,658.3,57.4,645.1z"/>
		<path id="Path_2678" class="st54" d="M240.4,645.1c0,0,1.1-34.5,6.7-47.7l-15.1-6.9c0,0-12.3,25.1-33.5,33.9v41.4
			C198.5,665.8,223.7,658.3,240.4,645.1z"/>
		
			<linearGradient id="Path_2679_1_" gradientUnits="userSpaceOnUse" x1="-4255.6582" y1="5590.0928" x2="-4255.6582" y2="5590.9507" gradientTransform="matrix(124.847 0 0 -263.5261 531454.875 1473365.375)">
			<stop  offset="0" style="stop-color:#F287B6"/>
			<stop  offset="1" style="stop-color:#ED2024"/>
		</linearGradient>
		<path id="Path_2679" class="st55" d="M282.7,504.2c0,0-3.3-78.2-6.3-120.8c-3-42.6-9.7-73.6-4.1-108.3c0,0,3.3-82,5.6-115.8
			c2.2-33.9,9.7-72.3-13.4-112.5c0,0-10.8-23-48.4-33c-37-9.9-48-11.7-66.9-11.7h-0.8c-18.8,0-29.8,1.8-66.9,11.7
			c-37.6,10-48.4,33-48.4,33c-23.1,40.1-15.6,78.6-13.4,112.5s5.6,115.8,5.6,115.8c5.6,34.7-1.1,65.6-4.1,108.3S15,504.2,15,504.2
			c4.1,43.1,13,93.2,17.1,107.9c2.4,8.4,8.4,17.8,13.1,24.3c0.8-0.7,1.2-1.8,1.2-2.9c-0.2-5.5-0.7-11-1.5-16.5
			c-1.3-9-5-26.5-8.9-44.9c-4.7-22.5-10.1-48-11.5-59.9c-2.5-21,1.4-56.8,1.5-57.2c0-0.2,0-0.3,0-0.5c-0.3-30.8,4.5-76.3,6.8-98.1
			c0.2-2.3,0.5-4.3,0.6-6c1.9-17.9,2-30.2-1.1-67.2c-1.5-18.3-2-46.2-2.4-73.1c-0.4-25.6-0.8-49.7-2.1-63.7
			c-2.5-27.3-2.3-40.1-1.1-51.9c1-9.9,7.7-25.9,8.5-27.9l14-23.8l30.3-21.5c30.7-10.7,67.7-11.4,69-11.4c1.2,0,38.2,0.7,69,11.4
			l30.3,21.5l14,23.8c0.8,2,7.6,18,8.5,27.9c1.2,11.8,1.4,24.6-1.1,51.9c-1.3,14-1.7,38.1-2.1,63.7c-0.4,26.9-0.9,54.7-2.4,73.1
			c-3.1,37-3,49.3-1.1,67.2c0.2,1.7,0.4,3.7,0.6,6c2.3,21.8,7.1,67.3,6.8,98.1c0,0.2,0,0.3,0,0.5c0,0.4,4,36.2,1.5,57.2
			c-1.4,11.9-6.8,37.4-11.5,59.9c-3.9,18.5-7.6,35.9-8.9,44.9c-0.9,5.8-1.4,11.6-1.5,17.5c0,1.1,0.4,2.2,1.2,2.9
			c4.8-6.5,11.3-16.4,13.8-25.2C269.7,597.5,278.6,547.3,282.7,504.2z"/>
		<path id="Path_2680" class="st56" d="M282.7,504.2c0,0-3.3-78.2-6.3-120.8c-3-42.6-9.7-73.6-4.1-108.3c0,0,3.3-82,5.6-115.8
			c2.2-33.9,9.7-72.3-13.4-112.5c0,0-10.8-23-48.4-33c-37-9.9-48-11.7-66.9-11.7h-0.8c-18.8,0-29.8,1.8-66.9,11.7
			c-37.6,10-48.4,33-48.4,33c-23.1,40.1-15.6,78.6-13.4,112.5s5.6,115.8,5.6,115.8c5.6,34.7-1.1,65.6-4.1,108.3S15,504.2,15,504.2
			c4.1,43.1,13,93.2,17.1,107.9c2.6,7.8,6.4,15.1,11.1,21.5c-0.2-5.4-0.7-10.7-1.5-16c-3-20.1-17.9-83.2-20.5-104.9
			c-2.6-21.7,1.5-58.1,1.5-58.1c-0.4-34.3,5.6-86.6,7.4-104.5c1.9-18,1.9-30.5-1.1-66.5s-1.9-108.3-4.5-136.7s-2.2-41.4-1.1-52.7
			c1.1-11.3,8.9-29.3,8.9-29.3L47,40.1l31.2-22.2c32-11.3,70.3-11.7,70.3-11.7c0,0,38.3,0.4,70.3,11.7l31.2,22.2l14.5,24.7
			c0,0,7.8,18,8.9,29.3c1.1,11.3,1.5,24.2-1.1,52.7c-2.6,28.4-1.5,100.8-4.5,136.7s-3,48.5-1.1,66.5c1.9,18,7.8,70.2,7.4,104.5
			c0,0,4.1,36.4,1.5,58.1c-2.6,21.7-17.5,84.9-20.5,104.9c-0.8,5.6-1.3,11.3-1.5,17c4.5-6.3,9.7-14.8,11.8-22.5
			C269.7,597.5,278.6,547.3,282.7,504.2z"/>
		<path id="Path_2681" class="st57" d="M49,258.2c0,0,31.8-30.1,45.2-33.2c0,0-7.3-108.5,1.7-136.7l1.7-6.9
			C97.6,81.3,45.7,112,49,258.2z"/>
		<path id="Path_2682" class="st58" d="M248.2,255.6c0,0-1.7-144.9-49.7-177.5c0,0,12.8,85.9,5,144.2l20.1,15.1L248.2,255.6z"/>
		<g id="Group_3654" transform="translate(14.209 0.029)">
			<path id="Path_2684" class="st59" d="M87.8,616.9l1.6,49.5c12.9,3,25.9,4.6,39.1,4.9l-1-50.6L87.8,616.9z M141.9,620.6l-1,50.6
				c13.1-0.2,26.2-1.9,39.1-4.9l1.6-49.5L141.9,620.6z"/>
			<path id="Path_2685" class="st59" d="M87.8,226.1l17.9,13.2l21.8-17.6l0.1-215.3c-10.4,0-20.8,1.1-31,3.3
				C92.2,37.4,87.8,226.1,87.8,226.1z M171.2,9.7c-10.2-2.2-20.6-3.3-31.1-3.2l0.2,215.3l21.8,17.6l17.9-13.2
				C179.9,226.1,175.6,36,171.2,9.7z"/>
			<path id="Path_2686" class="st60" d="M64.4,30.5c-21.3,16.6-35.6,42.3-39.6,71.2C18.1,150.3,24.3,267,24.3,267s24.9-36.8,52-44.9
				c0,0-4.5-121.7,7.9-144.8c0,0-10.2,76.1-1.1,149.2L65.6,237c0,0-31.7,20-44.1,51.2c0,0-5.7-80.5-2.8-154.8S52,41.1,64.4,30.5z"/>
			<path id="Path_2687" class="st61" d="M204.1,30.5c21.3,16.6,35.6,42.3,39.6,71.2c6.8,48.7,0.6,165.4,0.6,165.4
				s-24.9-36.8-52-44.9c0,0,4.5-121.7-7.9-144.8c0,0,10.2,76.1,1.1,149.2L203,237c0,0,31.7,20,44.1,51.2c0,0,5.7-80.5,2.8-154.8
				S216.6,41.1,204.1,30.5z"/>
		</g>
		<path id="Union_12" class="st62" d="M73.6,60l0.2,0.3c0.9-1.3,1.9-2.5,2.9-3.7c1.5-1.8,7-9.3,31.9-17.5l-0.2,11.4L91.4,65
			l-8.3,9.6c-3.9,6.7-31.2,56.3-30.2,152.9l-4.5,9.4C48.5,236.8,39,107,73.6,60z"/>
		<path id="Union_13" class="st62" d="M244.2,227.4c1-91.8-23.6-141.2-29.5-151.6L205.4,65l-16.9-14.6L188.2,39
			c24.9,8.2,31.9,17.5,31.9,17.5c1.1,1.3,2.1,2.6,3.1,4l0.4-0.5c34.6,47,25.1,176.9,25.1,176.9L244.2,227.4z"/>
		<g id="Group_3655" transform="translate(58.542 5.969)">
			<path id="Path_2690" class="st63" d="M95.9,10.5v5.7l8.4,11.7h-8.4v3.6H111L95.9,10.5z"/>
			<path id="Path_2691" class="st63" d="M75.2,27.9l7.9-11v-5.7L68.6,31.4h14.5v-3.6H75.2z"/>
			<path id="Path_2692" class="st64" d="M104.4,27.9l-8.4-11.7v11.7H104.4z"/>
			<path id="Path_2693" class="st64" d="M75.2,27.9h7.9v-11L75.2,27.9z"/>
		</g>
		<g id="Group_3656" transform="translate(14.179 6.418)">
			<path id="Path_2694" class="st65" d="M17.9,58.8c0,0,34.2-38,47.2-47.7c-11.8,2.3-23,7.6-32.7,15.5C15.7,40,17.9,58.8,17.9,58.8z
				"/>
			<path id="Path_2695" class="st66" d="M17.9,58.8c0,0,34.2-38,47.2-47.7C58,12.4,51,14.9,44.5,18.6c2.9-0.6,5.8-0.9,8.8-0.8
				c-10.4,7.1-31.6,30.1-31.6,30.1c0.5-5.2,4.4-13.2,6.8-17.6C21.2,37.5,17.3,48,17.9,58.8z"/>
			<path id="Path_2696" class="st67" d="M17.9,58.8c0,0,34.2-38,47.2-47.7c0,0-1.5,0.2-4,0.8c-8.5,6.8-36.7,35.9-43.3,42.8
				C17.8,56.1,17.8,57.4,17.9,58.8z"/>
		</g>
		<g id="Group_3657" transform="translate(100.733 6.418)">
			<path id="Path_2697" class="st65" d="M164.1,58.8c0,0-34.2-38-47.2-47.7c11.8,2.3,23,7.6,32.7,15.5
				C166.3,40,164.1,58.8,164.1,58.8z"/>
			<path id="Path_2698" class="st66" d="M164.1,58.8c0,0-34.2-38-47.2-47.7c7.2,1.3,14.2,3.8,20.7,7.5c-2.9-0.6-5.8-0.9-8.8-0.8
				c10.4,7.1,31.6,30.1,31.6,30.1c-0.5-5.2-4.4-13.2-6.8-17.6C160.8,37.5,164.7,48,164.1,58.8z"/>
			<path id="Path_2699" class="st67" d="M164.1,58.8c0,0-34.2-38-47.2-47.7c0,0,1.5,0.2,4,0.8c8.5,6.8,36.7,35.9,43.3,42.8
				C164.3,56.1,164.2,57.4,164.1,58.8z"/>
		</g>
		<g id="Group_3661" transform="translate(15.425 117.061)">
			<path id="Path_2701" class="st53" d="M245.4,275.3c-2.2-17.6-8.9-53.3-8.9-53.3l5-28.8l1.1-11.9c0,0-3.3-13.2-9.5-13.2
				c-5.2,0-77.7,11.6-100.1,15.3c-22.4-3.6-94.9-15.3-100.1-15.3c-6.1,0-9.5,13.2-9.5,13.2l1.1,11.9l5,28.8c0,0-6.7,35.7-8.9,53.3
				c-2.2,17.6,0.6,70.9,7.8,119.8c4.2,29.1,13.9,56.9,28.5,81.5c19.5,33.9,68.6,31.4,68.6,31.4l7.4-26l7.4,26
				c0,0,49.1,2.5,68.6-31.4c14.5-24.6,24.2-52.4,28.5-81.5C244.9,346.2,247.7,292.9,245.4,275.3z"/>
			
				<linearGradient id="Path_2702_1_" gradientUnits="userSpaceOnUse" x1="-4220.1416" y1="5467.9746" x2="-4222.5459" y2="5468.7236" gradientTransform="matrix(32.523 0 0 -92.364 137330.7656 505328)">
				<stop  offset="0" style="stop-color:#ED2024"/>
				<stop  offset="1" style="stop-color:#ECC1DB"/>
			</linearGradient>
			<path id="Path_2702" class="st68" d="M119.5,296.9c0,61.5,0,111.3-24.8,111.3s-44.9-49.8-44.9-111.3s20.1-111.3,44.9-111.3
				S119.5,235.5,119.5,296.9z"/>
			
				<linearGradient id="Path_2703_1_" gradientUnits="userSpaceOnUse" x1="-4218.3535" y1="5467.9565" x2="-4216" y2="5468.9575" gradientTransform="matrix(32.524 0 0 -92.364 137380.3594 505328)">
				<stop  offset="0" style="stop-color:#ED2024"/>
				<stop  offset="1" style="stop-color:#ECC1DB"/>
			</linearGradient>
			<path id="Path_2703" class="st69" d="M146.9,296.9c0,61.5,0,111.3,24.8,111.3s44.9-49.8,44.9-111.3s-20.1-111.3-44.9-111.3
				S146.9,235.5,146.9,296.9z"/>
			<path id="Path_2704" class="st53" d="M57,476.6c19.5,33.9,68.6,31.4,68.6,31.4l7.4-26l7.4,26c0,0,49.1,2.5,68.6-31.4
				c14.5-24.6,24.2-52.4,28.5-81.5c3.3-22.5,5.7-46,7.1-66.5H21.4c1.4,20.5,3.8,43.9,7.1,66.5C32.8,424.2,42.5,452,57,476.6z"/>
			<path id="Path_2705" class="st70" d="M52,448.4c-7.6-26.1-12.6-53-15.1-80.3c-3.3-42-1.7-64.6-1.7-64.6L33,231.4l3.3-3.8
				c0,0,9.5-2.5,10,66.5S33,331.8,52,448.4z"/>
			<path id="Path_2706" class="st70" d="M214.9,448.4c7.6-26.1,12.6-53,15.1-80.3c3.3-42,1.7-64.6,1.7-64.6l2.2-72.1l-3.3-3.8
				c0,0-9.5-2.5-10,66.5S233.9,331.8,214.9,448.4z"/>
			<path id="Path_2709" class="st59" d="M185.7,210.1l-44.6-6.3V508c3.5,1.2,21.7,0.2,39.2-7C182,466.5,190.3,284.8,185.7,210.1z
				 M86.6,502.4c12.6,4.7,25.9,6.6,39.1,5.6V203.8L81,210.1C76.5,285,84.9,468.5,86.6,502.4z"/>
		</g>
		<g id="Group_3664" transform="translate(23.769 13.877)">
			<g id="Group_3662">
				<path id="Path_2722" class="st16" d="M90.5,31.3l6.4-9.7c-4.5,1.1-8.5,2.3-12.2,3.5l-0.2,11.4L90.5,31.3z"/>
			</g>
			<g id="Group_3663" transform="translate(13.049 3.902)">
				<path id="Path_2725" d="M43.7,59.7c0,0,20.1-5.6,24.3-12.9s9.8-19.8,9.8-19.8S59.1,29,51.5,36.9S43.7,59.7,43.7,59.7z"/>
				<path id="Path_2726" class="st71" d="M53.5,39.7c5.5-5.7,17-8.3,22.8-9.2c0.9-2,1.5-3.3,1.5-3.3S59.1,29,51.5,36.9
					s-7.8,22.9-7.8,22.9s0.9-0.2,2.2-0.7C46.5,54.1,48.2,45.2,53.5,39.7z"/>
			</g>
		</g>
		<g id="Group_3667" transform="translate(81.357 13.877)">
			<g id="Group_3665">
				<path id="Path_2727" class="st16" d="M101.1,31.3l-6.4-9.7c4.5,1.1,8.5,2.3,12.2,3.5l0.2,11.4L101.1,31.3z"/>
			</g>
			<g id="Group_3666" transform="translate(2.944 3.902)">
				<path id="Path_2730" d="M132.1,59.7c0,0-20.1-5.6-24.3-12.9s-9.8-19.8-9.8-19.8s18.7,1.9,26.2,9.7S132.1,59.7,132.1,59.7z"/>
				<path id="Path_2731" class="st71" d="M122.3,39.7c-5.5-5.7-17-8.3-22.8-9.2c-0.9-2-1.5-3.3-1.5-3.3s18.7,1.9,26.2,9.7
					c7.5,7.8,7.8,22.9,7.8,22.9s-0.9-0.2-2.2-0.7C129.3,54.1,127.6,45.2,122.3,39.7z"/>
			</g>
		</g>
		<g id="Group_3672" transform="translate(0 123.998)">
			<path id="Path_2732" d="M34.1,177.4c-0.1-0.2-0.3-0.4-0.5-0.5c-0.1,0-0.1,0-0.2,0c-0.2,0-0.3,0.1-0.5,0.2c-3,2.5-5.7,5.4-8.3,8.4
				c-1.4-0.8-2.9-1.2-4.5-1.2h-0.3c-5.2,0.5-9.8,3.6-12.8,8.4c-4.3,6-6.2,13.9-5,21.5c0.1,0.5,0.5,0.8,1,0.7c0.1,0,0.1-0.1,0.2-0.1
				l0.6-0.4c0.1,0,0.1,0,0.2,0c0.1,0,0.2,0,0.3-0.1c0.6-0.2,1.4-0.6,2.4-1c7.1-3,19.5-8.6,22.5-12.6c0.1-0.1,0.2-0.3,0.2-0.4
				c0,0,0-0.2,0.1-0.6l5.8-0.2c0.4,0,0.7-0.3,0.8-0.7C35.9,198.4,37.9,185.6,34.1,177.4z"/>
			<g id="Group_3671" transform="translate(0.367 0.369)">
				<g id="Group_3668" transform="translate(9.732)">
					<path id="Path_2733" d="M17.9,198.6l7.1-0.2c0,0,2-13-1.7-20.9c-3.5,3-6.7,6.4-9.5,10.2C11,192.3,17.9,198.6,17.9,198.6z"/>
					<path id="Path_2734" class="st71" d="M16.6,186.3l1.3,2.1l5.9-3.1c-0.3-1.8-0.7-3.5-1.3-5.2C20.3,181.7,18.3,183.9,16.6,186.3z
						"/>
				</g>
				<g id="Group_3670" transform="translate(0 3.078)">
					<path id="Path_2735" class="st53" d="M19.5,181.8c-10.6,0.3-19.5,16.9-17,28.8c0,0,0.4-0.3,1.2-0.7
						c3.9-2.5,16.7-10.4,23.1-12.6c0.5-0.2,1-0.3,1.4-0.4C28.1,196.9,30.1,181.5,19.5,181.8z"/>
					<path id="Path_2736" d="M26.7,197.3c-6.4,2.2-19.2,10.2-23.1,12.6c0,0.1,0,0.2,0,0.3c0.6-0.2,1.4-0.6,2.4-1
						c6.3-2.7,19.2-8.4,22.1-12.4C27.7,197,27.2,197.1,26.7,197.3z"/>
					<g id="Group_3669" transform="translate(0.738 0.737)">
						<path id="Path_2737" class="st72" d="M18.8,185.7H19c1.3-0.1,2.7,0.3,3.8,1.2c0.2-0.8,0.3-1.6,0.4-2.5
							c-1.2-1.1-2.7-1.6-4.2-1.5h-0.3c-4.4,0.5-8.5,3.2-11,7.4l-0.1,0.1c0.6,0.1,1.3,0.2,2,0.3C12,187.8,15.3,186,18.8,185.7z"/>
						<path id="Path_2738" class="st73" d="M23.8,185c-0.2-0.2-0.4-0.4-0.6-0.6c-0.1,0.8-0.2,1.7-0.4,2.5c0.4,0.3,0.7,0.6,1,1
							c1.3,2,2,4.4,2.1,6.9h0C26.2,191.3,25.5,187.9,23.8,185z M2.9,207c0.4-5.1,2.1-9.9,4.9-14c0.6-0.8,1.2-1.7,1.9-2.4
							c-0.7-0.1-1.4-0.2-2-0.3C4.4,195.1,2.7,201,2.9,207L2.9,207z"/>
					</g>
				</g>
			</g>
		</g>
		<g id="Group_3677" transform="translate(120.811 123.998)">
			<path id="Path_2739" d="M142.2,177.4c0.1-0.3,0.4-0.5,0.7-0.5c0.2,0,0.3,0.1,0.5,0.2c3,2.5,5.7,5.3,8.3,8.4
				c1.4-0.8,2.9-1.2,4.5-1.2h0.3c5.2,0.5,9.8,3.6,12.8,8.4c4.3,6,6.2,13.9,5,21.5c-0.1,0.4-0.4,0.7-0.8,0.7c-0.1,0-0.3,0-0.4-0.1
				l-0.6-0.4c-0.1,0-0.1,0-0.2,0c-0.1,0-0.2,0-0.3-0.1c-0.6-0.2-1.4-0.6-2.4-1c-7.1-3-19.5-8.6-22.4-12.6c-0.1-0.1-0.2-0.3-0.2-0.4
				c0,0,0-0.2-0.1-0.6l-5.8-0.2c-0.4,0-0.7-0.3-0.8-0.7C140.4,198.4,138.4,185.6,142.2,177.4z"/>
			<g id="Group_3676" transform="translate(0.373 0.369)">
				<g id="Group_3673">
					<path id="Path_2740" d="M147.9,198.6l-7.1-0.2c0,0-2-13,1.7-20.9c3.5,3,6.7,6.4,9.5,10.2C154.8,192.3,147.9,198.6,147.9,198.6z
						"/>
					<path id="Path_2741" class="st71" d="M149.2,186.3l-1.3,2.1l-6-3.1c0.3-1.8,0.7-3.5,1.3-5.2
						C145.5,181.7,147.5,183.9,149.2,186.3z"/>
				</g>
				<g id="Group_3675" transform="translate(3.274 3.078)">
					<path id="Path_2742" class="st53" d="M152.8,181.8c10.6,0.3,19.5,16.9,17,28.8c0,0-0.4-0.3-1.2-0.7
						c-3.9-2.5-16.7-10.4-23.1-12.6c-0.5-0.2-1-0.3-1.4-0.4C144.2,196.9,142.2,181.5,152.8,181.8z"/>
					<path id="Path_2743" d="M145.6,197.3c6.4,2.2,19.2,10.2,23.1,12.6c0,0.1,0,0.2,0,0.3c-0.6-0.2-1.4-0.6-2.4-1
						c-6.3-2.7-19.2-8.4-22.1-12.4C144.6,197,145.1,197.1,145.6,197.3z"/>
					<g id="Group_3674" transform="translate(0.735 0.737)">
						<path id="Path_2744" class="st72" d="M152,185.7h-0.3c-1.3-0.1-2.7,0.3-3.8,1.2c-0.2-0.8-0.3-1.6-0.4-2.5
							c1.2-1.1,2.7-1.6,4.2-1.5h0.3c4.4,0.5,8.5,3.2,11,7.4c0,0,0.1,0.1,0.1,0.1c-0.6,0.1-1.3,0.2-2,0.3
							C158.8,187.8,155.5,186,152,185.7z"/>
						<path id="Path_2745" class="st73" d="M144.9,194.7L144.9,194.7c0.1-2.5,0.8-4.9,2.1-6.9c0.3-0.4,0.6-0.7,1-1
							c-0.2-0.8-0.3-1.6-0.4-2.5c-0.2,0.2-0.4,0.4-0.6,0.6C145.3,187.9,144.6,191.3,144.9,194.7z M163.1,190.4
							c-0.6,0.1-1.3,0.2-2,0.3c0.7,0.8,1.3,1.6,1.9,2.4c2.8,4,4.5,8.9,4.9,14C168.1,201,166.4,195.1,163.1,190.4L163.1,190.4z"/>
					</g>
				</g>
			</g>
		</g>
		<g id="Group_3685" transform="translate(15.752 89.977)">
			<g id="Group_3678">
				<path id="Path_2746" d="M213.5,393.1H52.3c-0.7,0-0.8,0.7-0.8,1.3c0.1,3.9,0.2,7.8,0.4,11.8c0.3,7.6,0.6,15.1,1,22.7
					c0.5,9.1,1,18.2,1.7,27.4c0.7,8.6,1.4,17.2,2.6,25.8c0.6,6.1,1.8,12.2,3.6,18c1.3,3.4,3.2,6.5,5.6,9.1
					c4.1,4.6,8.8,8.5,13.9,11.6c11.8,7.3,24.8,12.1,38.1,14.1c12.8,2,25.9,1.3,38.5-1.9c6.6-1.7,13-4,19.2-6.9
					c6-2.8,11.7-6.3,17-10.6c4.2-3.2,7.8-7.3,10.6-12c1.1-2.1,1.9-4.3,2.5-6.6c1.6-6.7,2.7-13.5,3.3-20.4c1-8.9,1.7-17.8,2.4-26.7
					c0.6-8.9,1.1-17.9,1.5-26.8c0.3-6.9,0.6-13.8,0.8-20.7c0.1-1.9,0.1-3.8,0.2-5.7C214.2,395.6,214.6,393.1,213.5,393.1z"/>
				<path id="Path_2747" d="M40.3,262.9c-0.8-4.4-2-8.7-3.4-12.9c-1.9-6.2-4-12.4-6.1-18.6c-1.7-5-3.4-10-4.9-15.1
					c-0.5-1.6-0.9-3.1-1.2-4.7c-0.2-1-0.4-2.1-0.5-3.1c-0.1-0.5,0.1-1.2-0.4-1.5c-0.4-0.3-0.9-0.1-1.1,0.3c-0.1,0.1-0.1,0.2-0.1,0.4
					c-0.3,4.9-0.6,9.7-0.8,14.6c-0.6,12-1.1,24-1.5,36c-0.5,15.8-0.9,31.7-0.6,47.6c0.1,15.6,1.4,31.2,3.9,46.6
					c1.8,11.9,4.7,23.6,8.7,34.9c0.8,2.3,1.7,4.6,2.8,6.9c0.2,0.5,0.4,1.1,0.9,1.2c1.1,0.2,0.9-1.4,0.9-2.2c0-1.2,0-2.3,0-3.5
					c0-5.4,0.1-10.8,0.4-16.3c0.2-5.9,0.8-11.8,1.9-17.6c0.6-2.8,1.1-5.5,1.4-8.3c0.2-1.9,0.4-3.9,0.6-5.8c0.4-4.6,0.7-9.3,0.9-14
					c0.5-11.4,0.7-22.8,0.5-34.2C42.6,283.3,41.8,273.1,40.3,262.9z"/>
				<path id="Path_2748" d="M245.3,249.8c-0.4-10.9-0.9-21.7-1.5-32.5c-0.2-3.2-0.4-6.4-0.6-9.7c0-0.5-0.4-0.9-0.9-0.8
					c-0.1,0-0.2,0.1-0.3,0.1c-0.5,0.3-0.4,1-0.4,1.6c-0.1,1-0.3,2-0.5,3c-0.3,1.5-0.7,3-1.2,4.5c-1,3.4-2.1,6.7-3.2,10
					c-2.5,7.4-5,14.7-7.3,22.1c-1.7,5.1-3.1,10.4-4.1,15.8c-1.5,10.3-2.2,20.7-2.1,31.1c-0.2,11.4,0,22.7,0.6,34.1
					c0.2,4.6,0.5,9.2,0.9,13.7c0.3,3.1,0.6,6.1,1.1,9.2c0.4,2.2,0.9,4.4,1.3,6.7c0.9,6.5,1.4,13,1.6,19.6c0.1,3.7,0.2,7.4,0.2,11.1
					c0,1.7-0.1,3.5,0,5.2c0,0.5,0.4,0.9,0.8,0.9c0.3,0,0.6-0.2,0.7-0.5c0.1-0.2,0.1-0.3,0.2-0.5c0.3-0.7,0.7-1.5,1-2.3
					c1.4-3.3,2.5-6.6,3.6-10c3.9-12.7,6.7-25.7,8.3-39c1.9-15.7,2.8-31.5,2.6-47.3C246.2,280.6,245.9,265.2,245.3,249.8z"/>
				<path id="Path_2749" class="st74" d="M223.9,252.8c4.1-8.5,7.6-17.4,10.5-26.5c2.3-6.9,4.1-13.9,5.3-21.1
					c0.4-1.6,0.6-3.2,0.6-4.8c-0.1-1.3-0.3-2.6-0.7-3.9c-1-3-2.3-5.8-3.8-8.5c-3.2-6-6.6-11.9-10.3-17.5
					c-3.7-5.5-7.9-10.7-12.5-15.4c-9.4-9.4-20.6-16.4-32.8-20.4c-12-3.7-24.4-5.7-36.9-5.7c-12-0.5-24-0.2-36,1
					c-12.7,1.2-25.1,5-36.6,11.3c-11,6.4-20.6,15.3-28.3,26.1c-2,2.8-3.9,5.7-5.8,8.7c-1.8,3-3.5,6.1-5.2,9.2
					c-1.5,2.6-2.9,5.4-4.2,8.2c-1.2,2.4-1.8,5.1-1.7,7.8c2.1,13.5,5.8,26.7,11.1,39.1c1.5,3.7,3.1,7.3,4.7,10.9
					c0.2,0.6,0.5,1.1,0.8,1.6c0.6,0.6,1.2-0.1,1.7-0.5c0.7-0.5,1.5-1,2.3-1.4c4.8-2.5,9.8-4.4,15-5.7c6.3-1.7,12.8-3,19.2-3.9
					c6.5-0.9,13-1.6,19.5-2.1c5-0.4,10-0.6,15.1-0.8c7.6-0.3,15.3-0.4,22.9-0.3c6.7,0.1,13.4,0.3,20.1,0.6
					c5.2,0.3,10.4,0.7,15.7,1.2c6.9,0.7,13.9,1.6,20.7,3c7,1.2,13.9,3.2,20.5,5.8c1.6,0.7,3.3,1.4,4.8,2.3c0.7,0.4,1.3,0.8,2,1.2
					C222.3,252.8,223.3,253.9,223.9,252.8z"/>
			</g>
			<g id="Group_3684" transform="translate(0.381 0.393)">
				<path id="Path_2750" class="st22" d="M61.9,501.4c7.8,15.6,38.1,33,70.3,33.2l0,0h0.6l0,0c32.2-0.2,62.5-17.6,70.3-33.2
					c7.8-15.7,10-107.9,10-107.9H51.9C51.9,393.6,54.1,485.8,61.9,501.4z"/>
				<path id="Path_2751" class="st74" d="M195.9,421.8h-36.8c-11.7,16.4-33,19-47.5,5.9c-1.9-1.7-3.7-3.7-5.2-5.9H69.5
					c-3.3,66.1,12.3,92,12.3,92l12.3-8l38.6-4.2l38.6,4.2l12.3,8C183.6,513.8,199.2,487.8,195.9,421.8z"/>
				<path id="Path_2752" class="st75" d="M185.6,441.9c-10.3-2-34.6,0.4-52.8,0.4s-42.5-2.4-52.8-0.4c-8.6,1.7-8.2,15.5-8.2,15.5
					c0,34.7,10.8,56.4,10.8,56.4c16.4,16.3,50.2,14.6,50.2,14.6c0,0,33.9,1.7,50.2-14.6c0,0,10.8-21.7,10.8-56.4
					C193.8,457.3,194.1,443.5,185.6,441.9z"/>
				<path id="Path_2753" d="M108.1,403.5c3.8,11.3,9.9,23.2,21.7,24.5c4.8,0.7,9.7-0.4,14-3c4.6-3.5,8.2-8.3,10.4-14
					c2.6-5.7,3.5-12.8,8.6-16.5c0.5-0.3,1-0.7,1.5-0.9h-2.3c-1.3,0.9-2.4,2.1-3.3,3.5c-1.3,2.4-2.3,4.9-3.1,7.5
					c-1.2,3.5-2.7,6.8-4.4,10c-5.7,11.5-18.6,15.7-28.8,9.3c-1-0.6-2-1.4-3-2.2c-4.8-4.6-7.7-11.4-9.9-17.9
					c-1.1-4.1-3.3-7.7-6.3-10.3h-2.2c0.7,0.4,1.4,0.8,2.1,1.3C105.5,397,107.3,400,108.1,403.5z"/>
				<g id="Group_3679" transform="translate(0 32.264)">
					<path id="Path_2754" class="st22" d="M23,175c0,0-3,44.3-3,93.2c0,62.7,15.6,93.7,15.6,93.7s-0.4-28,2.6-40.1
						c3-12.1,5.6-75.7-0.4-97S23,182.1,23,175z"/>
					<path id="Path_2755" class="st74" d="M32.8,344.4c-4.3-14.9-9.5-40.3-9.5-76.1c0-28.4,1-55.5,1.9-73c0.5,1.6,1.1,3.3,1.7,5
						c2.6,7.8,5.6,16.7,8.1,25.6c5.7,20.6,3.2,83.2,0.3,95C33.7,328.6,32.9,336.5,32.8,344.4L32.8,344.4z"/>
					<path id="Path_2756" class="st22" d="M26.8,190.3C24.6,183.5,23,178,23,175c0,0-3,44.3-3,93.2c0,62.7,15.6,93.7,15.6,93.7
						s-0.1-6.8,0.2-15.2C17.2,300.4,25.2,207.5,26.8,190.3z"/>
				</g>
				<g id="Group_3680" transform="translate(2.75)">
					<path id="Path_2757" class="st22" d="M229.1,183c-7.3-14.2-17.3-26.5-29.3-35.8c-21.4-15.7-44.8-17.6-69.8-17.7h-0.4
						c-24.9,0-48.4,1.9-69.8,17.7c-12,9.3-22.1,21.5-29.3,35.8c-2,3.8-7.9,13.1-7.3,18c3.3,24.7,16.4,51,16.4,51s15.2-15,90.2-15
						c75,0,90.2,15,90.2,15s13-26.3,16.4-51C237.1,196.1,231.1,186.8,229.1,183z"/>
					<path id="Path_2758" class="st74" d="M236.4,201c0.7-4.9-5.3-14.3-7.3-18c-7.3-14.2-17.3-26.5-29.3-35.8
						c-21.4-15.7-44.8-17.6-69.8-17.7h-0.4c-24.9,0-48.4,1.9-69.8,17.7c-12,9.3-22.1,21.5-29.3,35.8c-2,3.8-7.9,13.1-7.3,18
						c0.2,1.2,0.4,2.4,0.6,3.6c2.2-6.3,25.5-65.9,106.1-65.9c79.5,0.1,103.2,58,106,65.6C236.1,203.2,236.2,202.1,236.4,201z"/>
				</g>
				<g id="Group_3681" transform="translate(94.943 32.264)">
					<path id="Path_2759" class="st22" d="M150.2,268.3c0-48.9-3-93.2-3-93.2c0,7.1-8.9,28.4-14.9,49.8c-5.9,21.3-3.3,84.9-0.4,97
						c3,12.1,2.6,40.1,2.6,40.1S150.2,331,150.2,268.3z"/>
					<path id="Path_2760" class="st74" d="M137.4,344.4c-0.1-7.9-1-15.8-2.5-23.5c-2.9-11.8-5.4-74.4,0.3-95
						c2.5-8.8,5.5-17.7,8.1-25.6c0.6-1.8,1.2-3.4,1.7-5c0.8,17.5,1.9,44.6,1.9,73C147,304.1,141.8,329.5,137.4,344.4L137.4,344.4z"
						/>
					<path id="Path_2761" class="st22" d="M150.1,268.3c0-48.9-3-93.2-3-93.2c-0.6,5.1-1.9,10.2-3.7,14.9
						c1.6,16.2,9.9,110.6-9.1,157.1c0.3,8.2,0.2,14.8,0.2,14.8S150.1,331,150.1,268.3z"/>
				</g>
				<g id="Group_3682" transform="translate(1.639 88.635)">
					<path id="Path_2762" class="st76" d="M26.7,262.7c3.6-1.5,7.3-2.9,11-4.1c0.1-1.2,0.3-2.6,0.4-4c-4.1,1.3-8.1,2.8-12.1,4.4
						C26.3,260.2,26.5,261.4,26.7,262.7z"/>
					<path id="Path_2763" class="st76" d="M26.7,262.7c-0.2-1.2-0.4-2.5-0.6-3.7c-1.4,0.6-2.8,1.1-4.2,1.7c0.2,1.3,0.4,2.5,0.6,3.8
						C23.9,263.8,25.3,263.2,26.7,262.7z"/>
				</g>
				<g id="Group_3683" transform="translate(95.758 88.85)">
					<path id="Path_2764" class="st76" d="M141.1,263.2c0.2-1.3,0.4-2.5,0.6-3.8c-4-1.7-8-3.1-12.1-4.5c0.1,1.5,0.3,2.9,0.5,4.2
						C133.8,260.3,137.4,261.7,141.1,263.2z"/>
					<path id="Path_2765" class="st76" d="M141.1,263.2c1.4,0.6,2.7,1.1,4,1.7c0.2-1.2,0.4-2.5,0.6-3.8c-1.3-0.6-2.7-1.2-4-1.7
						C141.5,260.6,141.3,261.9,141.1,263.2z"/>
				</g>
				<path id="Path_2766" class="st74" d="M223.9,249.7c0.8-8.8,2.9-42.3-8.6-67.4c0,0-23.4-31-82-31l-0.4,0.6l-0.4-0.6
					c-58.6,0-82,31-82,31c-12.6,27.5-8.9,64.9-8.4,69.2c0.1,0.2,0.2,0.3,0.2,0.4l0.2,0c1.5-1.3,18.7-14.9,90.1-14.9
					c74.4,0,89.9,14.8,90.2,15l0,0C222.8,252,223.2,251.1,223.9,249.7z"/>
			</g>
		</g>
	</g>
</g>
</svg>
