<?xml version="1.0" encoding="utf-8"?>
<!-- Generator: Adobe Illustrator 24.2.3, SVG Export Plug-In . SVG Version: 6.00 Build 0)  -->
<svg version="1.1" id="Layer_1" xmlns="http://www.w3.org/2000/svg" xmlns:xlink="http://www.w3.org/1999/xlink" x="0px" y="0px"
	 viewBox="0 0 300 1050" style="enable-background:new 0 0 300 1050;" xml:space="preserve">
<style type="text/css">
	.st0{fill:#E3E3E4;}
	.st1{fill:#282929;}
	.st2{fill:#C6C6C8;}
	.st3{fill:#788E98;}
	.st4{clip-path:url(#SVGID_2_);}
	.st5{fill:#8C8B8B;}
	.st6{fill:#4F4F4F;}
	.st7{fill:#DFDFDE;stroke:#BBBBBB;stroke-miterlimit:10;}
	.st8{clip-path:url(#SVGID_4_);}
	.st9{fill:url(#Path_3124_1_);}
	.st10{clip-path:url(#SVGID_6_);}
	.st11{fill:url(#Path_3127_1_);}
	.st12{fill:none;stroke:#BBBBBB;stroke-miterlimit:10;}
	.st13{fill:#FFD465;}
	.st14{fill:none;stroke:#BBBBBB;stroke-width:2;stroke-miterlimit:10;}
	.st15{fill:#7C8E95;}
	.st16{fill:#C7C7C9;}
	.st17{fill:#3A3A3A;}
	.st18{fill:#D12B27;}
	.st19{fill:#EDF2F6;}
	.st20{fill:#DBDADD;}
	.st21{fill:#F2F2F2;}
	.st22{fill:#8A8E95;}
	.st23{opacity:0.7;fill:#A7CCDF;enable-background:new    ;}
	.st24{opacity:0.7;fill:#C2DFE5;enable-background:new    ;}
	.st25{opacity:0.5;fill:#9599A4;enable-background:new    ;}
	.st26{opacity:0.5;fill:#ADAFB6;enable-background:new    ;}
	.st27{fill:#21140C;}
	.st28{fill:#382215;}
	.st29{fill:#301919;}
	.st30{fill:url(#Path_6816_2_);}
	.st31{fill:url(#Path_6817_2_);}
	.st32{fill:url(#Path_6818_2_);}
	.st33{fill:url(#Path_6819_2_);}
	.st34{fill:#2A1A11;}
	.st35{clip-path:url(#SVGID_8_);}
	.st36{fill:#E9E8EC;}
	.st37{fill:url(#Path_6825_2_);}
	.st38{fill:url(#Path_6827_2_);}
	.st39{fill:url(#Path_6828_2_);}
	.st40{fill:url(#Rectangle_24379_2_);}
	.st41{fill:#D3C4AA;}
	.st42{fill:url(#Path_6830_2_);}
	.st43{fill:url(#Rectangle_24403_2_);}
	.st44{clip-path:url(#SVGID_10_);}
	.st45{fill:url(#Path_6831_1_);}
	.st46{fill:url(#Path_6832_1_);}
	.st47{fill:url(#Path_6831_4_);}
	.st48{fill:url(#Path_6832_4_);}
	.st49{fill:url(#Path_6833_2_);}
	.st50{fill:url(#Path_6834_2_);}
	.st51{fill:url(#Path_6835_2_);}
	.st52{fill:url(#Path_6836_2_);}
	.st53{fill:url(#Path_6837_2_);}
	.st54{fill:url(#Path_6838_2_);}
	.st55{clip-path:url(#SVGID_12_);}
	.st56{fill:#FFE340;}
	.st57{fill:#FFE33E;}
	.st58{fill:#FFE13D;}
	.st59{fill:#FDE03E;}
	.st60{fill:#FDDF3C;}
	.st61{fill:#FCDE3C;}
	.st62{fill:#FCDD3B;}
	.st63{fill:#FDDC3B;}
	.st64{fill:#FDDB3A;}
	.st65{fill:#FCDA39;}
	.st66{fill:#FBD939;}
	.st67{fill:#FCD838;}
	.st68{fill:#FCD736;}
	.st69{fill:#FCD636;}
	.st70{fill:#FCD635;}
	.st71{fill:#FCD634;}
	.st72{fill:#FCD434;}
	.st73{fill:#FCD333;}
	.st74{fill:#FBD232;}
	.st75{fill:#FBD132;}
	.st76{fill:#FBD131;}
	.st77{fill:#FBD030;}
	.st78{fill:#FBCF30;}
	.st79{fill:#FBCE30;}
	.st80{fill:#FBCD2F;}
	.st81{fill:#FBCC2E;}
	.st82{fill:#FACB2C;}
	.st83{fill:#FACA2B;}
	.st84{fill:#FAC92A;}
	.st85{fill:#FAC829;}
	.st86{fill:#FAC729;}
	.st87{fill:#F9C629;}
	.st88{fill:#F9C526;}
	.st89{fill:#F8C325;}
	.st90{fill:#F8C224;}
	.st91{fill:#F8C124;}
	.st92{fill:#F8C023;}
	.st93{fill:#F7BF21;}
	.st94{fill:#F6BE21;}
	.st95{fill:#F6BD21;}
	.st96{fill:#F6BC20;}
	.st97{fill:#F6BB1E;}
	.st98{fill:#F6BA1D;}
	.st99{fill:#F6B91D;}
	.st100{fill:#F5B81D;}
	.st101{fill:#F5B61C;}
	.st102{fill:#F5B41B;}
	.st103{fill:#F6B419;}
	.st104{fill:#F6B319;}
	.st105{fill:#F5B11A;}
	.st106{fill:#F4B11A;}
	.st107{fill:#F4B01A;}
	.st108{fill:#F4AF1B;}
	.st109{fill:#F4AE1B;}
	.st110{fill:#F3AD1C;}
	.st111{fill:#F3AC1C;}
	.st112{fill:#F3AB1C;}
	.st113{fill:#F3AA1C;}
	.st114{fill:#F3A71D;}
	.st115{fill:#F3A61D;}
	.st116{fill:#F3A51D;}
	.st117{fill:#F2A31E;}
	.st118{fill:#F2A21E;}
	.st119{fill:#F1A11E;}
	.st120{fill:#F1A01F;}
	.st121{fill:#F19F1F;}
	.st122{fill:#F29F1E;}
	.st123{fill:#F29D1F;}
	.st124{fill:#F19C1F;}
	.st125{fill:#F09A1F;}
	.st126{fill:#F1991F;}
	.st127{fill:#F19820;}
	.st128{fill:#EF9720;}
	.st129{fill:#EF9620;}
	.st130{fill:#EF9521;}
	.st131{fill:#EF9321;}
	.st132{fill:#F09220;}
	.st133{fill:#EF9121;}
	.st134{fill:#EF8F21;}
	.st135{fill:#EE8F21;}
	.st136{clip-path:url(#SVGID_14_);}
	.st137{fill:url(#Path_7011_2_);}
	.st138{fill:url(#Path_7012_2_);}
	.st139{fill:url(#Path_7013_2_);}
	.st140{fill:url(#Path_7016_2_);}
	.st141{fill:url(#Path_7017_2_);}
	.st142{fill:url(#Path_7020_2_);}
	.st143{fill:url(#Path_7021_2_);}
	.st144{fill:url(#Path_7024_2_);}
	.st145{fill:url(#Path_7025_2_);}
	.st146{fill:url(#Path_7026_2_);}
	.st147{fill:url(#Path_7027_2_);}
	.st148{fill:url(#Rectangle_24409_1_);}
	.st149{fill:url(#Rectangle_24410_1_);}
	.st150{fill:url(#Rectangle_24411_1_);}
	.st151{fill:url(#Rectangle_24412_1_);}
	.st152{fill:url(#Rectangle_24413_1_);}
	.st153{fill:url(#Rectangle_24414_1_);}
	.st154{fill:url(#Rectangle_24415_1_);}
	.st155{fill:url(#Rectangle_24416_1_);}
	.st156{fill:url(#Rectangle_24417_1_);}
	.st157{fill:url(#Rectangle_24418_1_);}
	.st158{fill:url(#Rectangle_24419_1_);}
	.st159{fill:url(#Rectangle_24420_1_);}
	.st160{fill:url(#Rectangle_24421_1_);}
	.st161{fill:url(#Rectangle_24409_2_);}
	.st162{fill:url(#Rectangle_24410_2_);}
	.st163{fill:url(#Rectangle_24411_2_);}
	.st164{fill:url(#Rectangle_24412_2_);}
	.st165{fill:url(#Rectangle_24413_2_);}
	.st166{fill:url(#Rectangle_24414_2_);}
	.st167{fill:url(#Rectangle_24415_2_);}
	.st168{fill:url(#Rectangle_24416_2_);}
	.st169{fill:url(#Rectangle_24417_2_);}
	.st170{fill:url(#Rectangle_24418_2_);}
	.st171{fill:url(#Rectangle_24419_2_);}
	.st172{fill:url(#Rectangle_24420_2_);}
	.st173{fill:url(#Rectangle_24421_2_);}
	.st174{fill:url(#Rectangle_24409_3_);}
	.st175{fill:url(#Rectangle_24410_3_);}
	.st176{fill:url(#Rectangle_24411_3_);}
	.st177{fill:url(#Rectangle_24412_3_);}
	.st178{fill:url(#Rectangle_24413_3_);}
	.st179{fill:url(#Rectangle_24414_3_);}
	.st180{fill:url(#Rectangle_24415_3_);}
	.st181{fill:url(#Rectangle_24416_3_);}
	.st182{fill:url(#Rectangle_24417_3_);}
	.st183{fill:url(#Rectangle_24418_3_);}
	.st184{fill:url(#Rectangle_24419_3_);}
	.st185{fill:url(#Rectangle_24420_3_);}
	.st186{fill:url(#Rectangle_24421_3_);}
	.st187{fill:url(#Rectangle_24409_8_);}
	.st188{fill:url(#Rectangle_24410_8_);}
	.st189{fill:url(#Rectangle_24411_8_);}
	.st190{fill:url(#Rectangle_24412_8_);}
	.st191{fill:url(#Rectangle_24413_8_);}
	.st192{fill:url(#Rectangle_24414_8_);}
	.st193{fill:url(#Rectangle_24415_8_);}
	.st194{fill:url(#Rectangle_24416_8_);}
	.st195{fill:url(#Rectangle_24417_8_);}
	.st196{fill:url(#Rectangle_24418_8_);}
	.st197{fill:url(#Rectangle_24419_8_);}
	.st198{fill:url(#Rectangle_24420_8_);}
	.st199{fill:url(#Rectangle_24421_8_);}
	.st200{fill:url(#Path_7028_2_);}
	.st201{fill:url(#Path_7029_2_);}
	.st202{fill:#B2B3B3;}
	.st203{fill:url(#Rectangle_24435_2_);}
	.st204{fill:#9E3E22;}
	.st205{fill:url(#Path_7034_2_);}
	.st206{fill:url(#Path_7035_2_);}
	.st207{fill:#C6C1A8;}
	.st208{fill:#EFBD89;}
	.st209{fill:#FFFDF1;}
	.st210{fill:#D0A478;}
	.st211{fill:#E7B989;}
	.st212{fill:#A5774D;}
	.st213{fill:#B98457;}
	.st214{fill:#185F79;}
	.st215{fill:#FFD736;}
	.st216{fill:#114659;}
	.st217{fill:#0C3442;}
	.st218{fill:#58C0ED;}
	.st219{fill:#3FA3DB;}
	.st220{fill:#F0624A;}
	.st221{opacity:0.1;fill:#B98457;}
	.st222{fill:#F68E1E;}
	.st223{fill:url(#Path_3223_2_);}
	.st224{fill:#F79420;}
	.st225{fill:url(#Path_3226_2_);}
	.st226{fill:url(#Path_3227_2_);}
	.st227{fill:#FCC962;}
	.st228{fill:#FBC861;}
	.st229{fill:#FAA819;}
	.st230{fill:url(#Path_3232_2_);}
	.st231{fill:url(#Path_3234_2_);}
	.st232{fill:url(#Path_3235_2_);}
	.st233{fill:url(#Path_3237_2_);}
	.st234{fill:url(#Path_3238_2_);}
	.st235{fill:#00384B;}
	.st236{fill:url(#Path_3240_2_);}
	.st237{fill:url(#Path_3242_2_);}
	.st238{fill:url(#Rectangle_20194_2_);}
	.st239{fill:#E3E2E2;}
	.st240{fill:#C8C8C8;}
	.st241{fill:#071F28;}
	.st242{fill:#286377;}
	.st243{opacity:0.5;fill:#FBC861;}
	.st244{opacity:0.67;fill:#FAA819;enable-background:new    ;}
	.st245{fill:url(#Rectangle_20198_2_);}
	.st246{fill:url(#Rectangle_20199_2_);}
	.st247{fill:url(#Rectangle_20200_2_);}
	.st248{fill:url(#Rectangle_20201_2_);}
	.st249{fill:url(#Rectangle_20202_2_);}
	.st250{fill:url(#Rectangle_20203_2_);}
	.st251{fill:url(#Rectangle_20204_2_);}
	.st252{fill:url(#Rectangle_20205_2_);}
	.st253{fill:url(#Rectangle_20206_2_);}
	.st254{fill:url(#Rectangle_20207_2_);}
	.st255{opacity:0.36;fill:#C1C1C1;enable-background:new    ;}
	.st256{fill:url(#Rectangle_20217_2_);}
	.st257{fill:url(#Path_3254_2_);}
	.st258{fill:url(#Path_3257_2_);}
	.st259{fill:url(#Path_3258_2_);}
	.st260{fill:url(#Path_3260_2_);}
	.st261{fill:url(#Path_3261_2_);}
	.st262{fill:url(#Path_3262_2_);}
	.st263{fill:url(#Path_3263_2_);}
	.st264{fill:url(#Path_3264_2_);}
	.st265{fill:url(#Path_3265_2_);}
	.st266{fill:url(#Path_3266_2_);}
	.st267{fill:url(#Path_3267_2_);}
	.st268{fill:url(#Path_3268_2_);}
	.st269{fill:url(#Path_3269_2_);}
	.st270{fill:url(#Path_3270_2_);}
	.st271{fill:url(#Path_3271_2_);}
	.st272{fill:url(#Path_3272_2_);}
	.st273{fill:url(#Path_3276_2_);}
	.st274{fill:url(#Path_3277_2_);}
	.st275{fill:url(#Path_3283_2_);}
	.st276{fill:url(#Path_3284_2_);}
	.st277{fill:url(#Path_3285_2_);}
	.st278{fill:url(#Path_3286_2_);}
	.st279{opacity:0.63;fill:#DFDFDE;enable-background:new    ;}
	.st280{opacity:0.48;fill:#CECECD;enable-background:new    ;}
	.st281{fill:#D5D6D5;}
	.st282{fill:url(#Rectangle_20235_2_);}
	.st283{fill:#CDCCCC;}
</style>
<g id="Group_3906_1_" transform="translate(-369.141 -13.549)">
	<g id="Group_3905_1_" transform="translate(369.141 13.549)">
		<g id="Group_3904_1_">
			<g id="Group_3902_1_">
				<g id="Group_3901_1_">
					<g id="Group_3898_1_">
						<g id="Group_3856_1_" transform="translate(89.886 220.811)">
							
								<linearGradient id="Rectangle_20198_2_" gradientUnits="userSpaceOnUse" x1="-2105.9834" y1="153.7128" x2="-2103.0137" y2="153.7128" gradientTransform="matrix(11.137 0 0 -28.82 23631.377 5170.3584)">
								<stop  offset="0" style="stop-color:#363B39"/>
								<stop  offset="1" style="stop-color:#1B1C1C"/>
							</linearGradient>
							<path id="Rectangle_20198_1_" class="st245" d="M182.98,697.6h21.19c3.28,0,5.94,2.66,5.94,5.93v73.64
								c0,3.28-2.66,5.93-5.94,5.93h-21.19c-3.28,0-5.94-2.66-5.94-5.93v-73.64C177.04,700.26,179.7,697.6,182.98,697.6z"/>
							
								<linearGradient id="Rectangle_20199_2_" gradientUnits="userSpaceOnUse" x1="-2105.9834" y1="156.0794" x2="-2103.0137" y2="156.0794" gradientTransform="matrix(11.137 0 0 -28.819 23631.377 5135.4771)">
								<stop  offset="0" style="stop-color:#363B39"/>
								<stop  offset="1" style="stop-color:#1B1C1C"/>
							</linearGradient>
							<path id="Rectangle_20199_1_" class="st246" d="M182.98,594.67h21.19c3.28,0,5.94,2.66,5.94,5.93v73.64
								c0,3.28-2.66,5.93-5.94,5.93h-21.19c-3.28,0-5.94-2.66-5.94-5.93V600.6C177.04,597.33,179.7,594.67,182.98,594.67z"/>
						</g>
						<g id="Group_3857_1_" transform="translate(89.886 110.643)">
							
								<linearGradient id="Rectangle_20200_2_" gradientUnits="userSpaceOnUse" x1="-2105.9834" y1="274.5197" x2="-2103.0137" y2="274.5197" gradientTransform="matrix(11.137 0 0 -28.819 23631.377 8345.0986)">
								<stop  offset="0" style="stop-color:#363B39"/>
								<stop  offset="1" style="stop-color:#1B1C1C"/>
							</linearGradient>
							<path id="Rectangle_20200_1_" class="st247" d="M182.98,390.96h21.19c3.28,0,5.94,2.66,5.94,5.93v73.64
								c0,3.28-2.66,5.93-5.94,5.93h-21.19c-3.28,0-5.94-2.66-5.94-5.93V396.9C177.04,393.62,179.7,390.96,182.98,390.96z"/>
							
								<linearGradient id="Rectangle_20201_2_" gradientUnits="userSpaceOnUse" x1="-2105.9834" y1="276.8875" x2="-2103.0137" y2="276.8875" gradientTransform="matrix(11.137 0 0 -28.819 23631.377 8310.4092)">
								<stop  offset="0" style="stop-color:#363B39"/>
								<stop  offset="1" style="stop-color:#1B1C1C"/>
							</linearGradient>
							<path id="Rectangle_20201_1_" class="st248" d="M182.98,288.03h21.19c3.28,0,5.94,2.66,5.94,5.93v73.64
								c0,3.28-2.66,5.93-5.94,5.93h-21.19c-3.28,0-5.94-2.66-5.94-5.93v-73.64C177.04,290.69,179.7,288.03,182.98,288.03z"/>
						</g>
						<g id="Group_3858_1_" transform="translate(0 220.811)">
							
								<linearGradient id="Rectangle_20202_2_" gradientUnits="userSpaceOnUse" x1="-2032.012" y1="153.7128" x2="-2029.0424" y2="153.7128" gradientTransform="matrix(11.138 0 0 -28.82 22632.5488 5170.3584)">
								<stop  offset="0" style="stop-color:#363B39"/>
								<stop  offset="1" style="stop-color:#1B1C1C"/>
							</linearGradient>
							<path id="Rectangle_20202_1_" class="st249" d="M5.94,697.6h21.2c3.28,0,5.94,2.66,5.94,5.93v73.64
								c0,3.28-2.66,5.93-5.94,5.93H5.94c-3.28,0-5.94-2.66-5.94-5.93v-73.64C0,700.26,2.66,697.6,5.94,697.6z"/>
							
								<linearGradient id="Rectangle_20203_2_" gradientUnits="userSpaceOnUse" x1="-2032.012" y1="156.0794" x2="-2029.0424" y2="156.0794" gradientTransform="matrix(11.138 0 0 -28.819 22632.5488 5135.4771)">
								<stop  offset="0" style="stop-color:#363B39"/>
								<stop  offset="1" style="stop-color:#1B1C1C"/>
							</linearGradient>
							<path id="Rectangle_20203_1_" class="st250" d="M5.94,594.67h21.2c3.28,0,5.94,2.66,5.94,5.93v73.64
								c0,3.28-2.66,5.93-5.94,5.93H5.94c-3.28,0-5.94-2.66-5.94-5.93V600.6C0,597.33,2.66,594.67,5.94,594.67z"/>
						</g>
						<g id="Group_3859_1_" transform="translate(0 110.643)">
							
								<linearGradient id="Rectangle_20204_2_" gradientUnits="userSpaceOnUse" x1="-2032.012" y1="274.5197" x2="-2029.0424" y2="274.5197" gradientTransform="matrix(11.138 0 0 -28.819 22632.5488 8345.0986)">
								<stop  offset="0" style="stop-color:#363B39"/>
								<stop  offset="1" style="stop-color:#1B1C1C"/>
							</linearGradient>
							<path id="Rectangle_20204_1_" class="st251" d="M5.94,390.96h21.2c3.28,0,5.94,2.66,5.94,5.93v73.64
								c0,3.28-2.66,5.93-5.94,5.93H5.94c-3.28,0-5.94-2.66-5.94-5.93V396.9C0,393.62,2.66,390.96,5.94,390.96z"/>
							
								<linearGradient id="Rectangle_20205_2_" gradientUnits="userSpaceOnUse" x1="-2032.012" y1="276.8875" x2="-2029.0424" y2="276.8875" gradientTransform="matrix(11.138 0 0 -28.819 22632.5488 8310.4092)">
								<stop  offset="0" style="stop-color:#363B39"/>
								<stop  offset="1" style="stop-color:#1B1C1C"/>
							</linearGradient>
							<path id="Rectangle_20205_1_" class="st252" d="M5.94,288.03h21.2c3.28,0,5.94,2.66,5.94,5.93v73.64
								c0,3.28-2.66,5.93-5.94,5.93H5.94c-3.28,0-5.94-2.66-5.94-5.93v-73.64C0,290.69,2.66,288.03,5.94,288.03z"/>
						</g>
						
							<linearGradient id="Rectangle_20206_2_" gradientUnits="userSpaceOnUse" x1="-2209.0586" y1="407.7281" x2="-2205.9463" y2="407.7281" gradientTransform="matrix(95.31 0 0 -212.473 210545.3125 87286.5078)">
							<stop  offset="0" style="stop-color:#DEDEDD"/>
							<stop  offset="0.076" style="stop-color:#CECECD"/>
							<stop  offset="0.898" style="stop-color:#ACAEAD"/>
							<stop  offset="1" style="stop-color:#7C7E7D"/>
						</linearGradient>
						<path id="Rectangle_20206_1_" class="st253" d="M23.64,260.15h254.88c7.78,0,14.08,6.3,14.08,14.07v762.17
							c0,7.77-6.3,14.06-14.08,14.06l0,0H23.64c-7.77,0-14.08-6.3-14.08-14.06l0,0V274.21C9.56,266.44,15.86,260.15,23.64,260.15z"
							/>
						
							<linearGradient id="Rectangle_20207_2_" gradientUnits="userSpaceOnUse" x1="-2206.7532" y1="408.631" x2="-2200.5454" y2="406.0427" gradientTransform="matrix(83.559 0 0 -200.708 184317.6875 82442.9922)">
							<stop  offset="0" style="stop-color:#F6F7F7"/>
							<stop  offset="0.165" style="stop-color:#F2F2F2"/>
							<stop  offset="0.513" style="stop-color:#D5D6D5"/>
							<stop  offset="0.847" style="stop-color:#DFDFDE"/>
							<stop  offset="1" style="stop-color:#DBDBDA"/>
						</linearGradient>
						<rect id="Rectangle_20207_1_" x="27.01" y="277.6" class="st254" width="248.14" height="755.39"/>
						<rect id="Rectangle_20208_1_" x="32.51" y="277.6" class="st255" width="16.16" height="755.39"/>
						<rect id="Rectangle_20209_1_" x="57.91" y="277.6" class="st255" width="16.16" height="755.39"/>
						<rect id="Rectangle_20210_1_" x="83.31" y="277.6" class="st255" width="16.16" height="755.39"/>
						<rect id="Rectangle_20211_1_" x="108.71" y="277.6" class="st255" width="16.16" height="755.39"/>
						<rect id="Rectangle_20212_1_" x="134.11" y="277.6" class="st255" width="16.16" height="755.39"/>
						<rect id="Rectangle_20213_1_" x="159.51" y="277.6" class="st255" width="16.16" height="755.39"/>
						<rect id="Rectangle_20214_1_" x="184.91" y="277.6" class="st255" width="16.16" height="755.39"/>
						<rect id="Rectangle_20215_1_" x="210.31" y="277.6" class="st255" width="16.16" height="755.39"/>
						<rect id="Rectangle_20216_1_" x="235.7" y="277.6" class="st255" width="16.16" height="755.39"/>
						
							<linearGradient id="Rectangle_20217_2_" gradientUnits="userSpaceOnUse" x1="-1790.6028" y1="407.496" x2="-1787.0304" y2="407.496" gradientTransform="matrix(5.441 0 0 -200.708 10002.2227 82442.9922)">
							<stop  offset="0" style="stop-color:#FFFFFF"/>
							<stop  offset="0.226" style="stop-color:#F3F4F5"/>
							<stop  offset="0.612" style="stop-color:#D9D9D8"/>
							<stop  offset="1" style="stop-color:#B8B8B8"/>
						</linearGradient>
						<rect id="Rectangle_20217_1_" x="261.1" y="277.6" class="st256" width="16.16" height="755.39"/>
						<g id="Group_3897_1_" transform="translate(2.661)">
							
								<linearGradient id="Path_3254_2_" gradientUnits="userSpaceOnUse" x1="-2206.3325" y1="403.5006" x2="-2203.363" y2="403.5006" gradientTransform="matrix(78.381 0 0 -52.786 172966.5469 21377.9336)">
								<stop  offset="0" style="stop-color:#D1D1D1"/>
								<stop  offset="1" style="stop-color:#A8AAA9"/>
							</linearGradient>
							<path id="Path_3254_1_" class="st257" d="M32.04,107.93V55.2c0-37.57,30.43-54.76,67.98-54.76h96.81
								c37.54,0,67.97,17.21,67.97,54.76v52.73l-15.12,47.25l-201.52,1.88L32.04,107.93z"/>
							<path id="Path_3255_1_" class="st224" d="M48.24,48.88c1.02-0.19,1.75-1.1,1.72-2.13c0.03-4.14,1.61-8.12,4.43-11.16
								c0.73-0.74,0.82-1.89,0.21-2.73l0,0c-0.77-0.74-2-0.72-2.74,0.05c-0.06,0.06-0.11,0.12-0.15,0.18
								c-3.45,3.71-5.38,8.58-5.42,13.65c-0.12,1.07,0.65,2.03,1.72,2.15c0.07,0.01,0.15,0.01,0.23,0.01V48.88z"/>
							<path id="Path_3256_1_" class="st224" d="M248.56,48.88c-1.02-0.19-1.75-1.1-1.73-2.13c-0.03-4.14-1.61-8.12-4.43-11.16
								c-0.73-0.74-0.81-1.89-0.2-2.73l0,0c0.77-0.74,2-0.72,2.74,0.05c0.06,0.06,0.11,0.12,0.15,0.18
								c3.45,3.71,5.38,8.58,5.41,13.65c0.12,1.07-0.65,2.03-1.71,2.14c-0.08,0.01-0.15,0.01-0.23,0.01L248.56,48.88z"/>
							
								<linearGradient id="Path_3257_2_" gradientUnits="userSpaceOnUse" x1="-2206.3328" y1="391.8826" x2="-2203.363" y2="391.8826" gradientTransform="matrix(78.381 0 0 -20.203 172966.6094 7947.6187)">
								<stop  offset="0" style="stop-color:#363B39"/>
								<stop  offset="1" style="stop-color:#0D0E0E"/>
							</linearGradient>
							<path id="Path_3257_1_" class="st258" d="M196.81,0.44H100c-37.54,0-67.98,17.21-67.98,54.76v5.18
								c0-13.17,3.8-22.5,10.28-29.15C54.3,15.87,75.62,8.56,100,8.56h96.81c24.38,0,45.7,7.31,57.69,22.68
								c6.48,6.65,10.29,15.98,10.29,29.15V55.2C264.79,17.64,234.36,0.44,196.81,0.44z"/>
							
								<radialGradient id="Path_3258_2_" cx="-2179.3813" cy="401.3314" r="2.1146" gradientTransform="matrix(42.2376 0 0 -42.2324 92200.2813 17027.8652)" gradientUnits="userSpaceOnUse">
								<stop  offset="0" style="stop-color:#FFFFFF"/>
								<stop  offset="1" style="stop-color:#D5D6D5"/>
							</radialGradient>
							<path id="Path_3258_1_" class="st259" d="M38.77,107.09l8.8-51.89c0-35.4,36.67-39.22,52.44-39.22h96.81
								c15.77,0,52.44,3.82,52.44,39.22l8.8,51.89l-19.74,32.64L59.39,141.4L38.77,107.09z"/>
							<path id="Path_3259_1_" d="M242.12,154.12c-61.76-13.37-125.67-13.37-187.43,0l-1.92,0.42l-0.3-1.95
								c-1.04-7.89-1.52-15.85-1.44-23.81c0.04-6.52-0.26-13.04-0.89-19.53l-0.17-1.51l1.44-0.46
								c32.43-10.45,66.3-15.77,100.37-15.76c31.42,0.31,62.71,4.02,93.33,11.05l1.45,0.32v1.48c0.41,16.09-0.34,32.18-2.23,48.17
								l-0.26,2L242.12,154.12z"/>
							
								<linearGradient id="Path_3260_2_" gradientUnits="userSpaceOnUse" x1="-2200.1772" y1="388.4597" x2="-2197.2075" y2="388.4597" gradientTransform="matrix(64.9477 0 0 -19.864 142948.4063 7839.2231)">
								<stop  offset="0" style="stop-color:#363B39"/>
								<stop  offset="1" style="stop-color:#0D0E0E"/>
							</linearGradient>
							<path id="Path_3260_1_" class="st260" d="M242.52,152.31c-62.02-13.43-126.2-13.43-188.22,0
								c-2.33-15.73-0.62-28.01-2.33-43.27c62.15-19.73,120.99-20.31,192.76-4.66C245.14,120.39,244.4,136.41,242.52,152.31z"/>
							
								<linearGradient id="Path_3261_2_" gradientUnits="userSpaceOnUse" x1="-2204.8394" y1="399.5229" x2="-2204.8394" y2="397.1671" gradientTransform="matrix(78.359 0 0 -37.4771 172917.5156 15115.7637)">
								<stop  offset="0" style="stop-color:#D1D1D1"/>
								<stop  offset="1" style="stop-color:#A8AAA9"/>
							</linearGradient>
							<path id="Path_3261_1_" class="st261" d="M42.84,254.01h210.84c0,0,11.03-7.71,11.03-11.46c0.03-24.46,0.05-45.4,0.06-59.8
								c0-13.22-15.09-27.57-15.09-27.57s-13.44-12.76-101.26-12.36c-59.22-0.26-85.5,8.55-100.24,14.24
								c-6.99,2.71-16.12,15.35-16.11,25.69c0.02,18.13,0.05,44.6,0.07,59.8C32.15,251.05,42.84,254.01,42.84,254.01z"/>
							
								<linearGradient id="Path_3262_2_" gradientUnits="userSpaceOnUse" x1="-2200.6865" y1="399.1606" x2="-2200.6865" y2="396.8047" gradientTransform="matrix(68.766 0 0 -36.572 151480.8125 14743.6152)">
								<stop  offset="0" style="stop-color:#F6F7F7"/>
								<stop  offset="1" style="stop-color:#DBDBDA"/>
							</linearGradient>
							<path id="Path_3262_1_" class="st262" d="M53.56,254.01c0,0-7.25-19.11-7.25-50.2c0-21.59,7.19-48.09,7.19-48.09
								c6.72-2.28,50.8-10.2,94.89-10.21c44.08-0.01,88.2,7.17,94.96,9.47c4.3,15.94,6.71,32.33,7.18,48.84
								c0,32.82-7.24,50.2-7.24,50.2L53.56,254.01z"/>
							<g id="Group_3863_1_" transform="translate(80.648 40.586)">
								
									<linearGradient id="Path_3263_2_" gradientUnits="userSpaceOnUse" x1="-1955.0446" y1="354.9485" x2="-1951.0114" y2="350.3513" gradientTransform="matrix(6.2358 0 0 -10.6057 12208.0957 3561.2988)">
									<stop  offset="0" style="stop-color:#363B39"/>
									<stop  offset="1" style="stop-color:#1B1C1C"/>
								</linearGradient>
								<path id="Path_3263_1_" class="st263" d="M174.99,80.28c0,0,10.19,6.28,7,15.46c-3.19,9.18-21.46,23.28-17.28,11.55
									C168.89,95.56,172.66,83.39,174.99,80.28z"/>
								
									<radialGradient id="Path_3264_2_" cx="-1872.7964" cy="280.0042" r="2.474" gradientTransform="matrix(5.4537 0 0 -5.2508 10402.6191 1570.1118)" gradientUnits="userSpaceOnUse">
									<stop  offset="0" style="stop-color:#FFFFFF"/>
									<stop  offset="1" style="stop-color:#D2D5D4"/>
								</radialGradient>
								<path id="Path_3264_1_" class="st264" d="M209.68,102.55c-2.59-3.36-26.27-10.47-26.27-10.47
									c-4.67-1.48-6.28,2.52-6.82,5.91l33.95,9.96C211.13,106.12,210.81,104.11,209.68,102.55z"/>
								
									<linearGradient id="Path_3265_2_" gradientUnits="userSpaceOnUse" x1="-2107.2207" y1="255.0363" x2="-2104.2273" y2="255.0363" gradientTransform="matrix(11.531 0 0 -4.1 24474.7305 1149.7262)">
									<stop  offset="0" style="stop-color:#363B39"/>
									<stop  offset="1" style="stop-color:#1B1C1C"/>
								</linearGradient>
								<path id="Path_3265_1_" class="st265" d="M176.59,97.99c-0.22,1.37-0.32,2.76-0.3,4.15l33.37,8.01
									c0.37-0.7,0.67-1.43,0.87-2.2L176.59,97.99z"/>
							</g>
							<g id="Group_3864_1_" transform="translate(0 40.586)">
								
									<linearGradient id="Path_3266_2_" gradientUnits="userSpaceOnUse" x1="-1961.5509" y1="428.9416" x2="-1957.517" y2="424.3406" gradientTransform="matrix(6.2358 0 0 -10.6057 11714.6934 3561.2988)">
									<stop  offset="0" style="stop-color:#363B39"/>
									<stop  offset="1" style="stop-color:#1B1C1C"/>
								</linearGradient>
								<path id="Path_3266_1_" class="st266" d="M41.07,80.28c0,0-10.19,6.28-7,15.46s21.46,23.28,17.28,11.55
									S43.39,83.39,41.07,80.28z"/>
								
									<radialGradient id="Path_3267_2_" cx="-2407.2644" cy="280.0042" r="2.4737" gradientTransform="matrix(-5.4545 0 0 -5.2508 -15079.042 1570.1118)" gradientUnits="userSpaceOnUse">
									<stop  offset="0" style="stop-color:#FFFFFF"/>
									<stop  offset="1" style="stop-color:#D2D5D4"/>
								</radialGradient>
								<path id="Path_3267_1_" class="st267" d="M6.39,102.55c2.58-3.36,26.27-10.47,26.27-10.47c4.67-1.48,6.28,2.52,6.82,5.91
									l-33.95,9.96C4.92,106.12,5.25,104.11,6.39,102.55z"/>
								
									<linearGradient id="Path_3268_2_" gradientUnits="userSpaceOnUse" x1="-2161.5691" y1="255.0363" x2="-2158.5728" y2="255.0363" gradientTransform="matrix(11.532 0 0 -4.1 23542.9473 1149.7262)">
									<stop  offset="0" style="stop-color:#363B39"/>
									<stop  offset="1" style="stop-color:#1B1C1C"/>
								</linearGradient>
								<path id="Path_3268_1_" class="st268" d="M39.48,97.99c0.22,1.37,0.32,2.76,0.3,4.15l-33.37,8.01
									c-0.38-0.7-0.67-1.43-0.87-2.2L39.48,97.99z"/>
							</g>
							
								<linearGradient id="Path_3269_2_" gradientUnits="userSpaceOnUse" x1="-2184.1187" y1="384.9031" x2="-2181.1489" y2="384.9031" gradientTransform="matrix(44.9 0 0 -17.1775 98150.1641 6732.5405)">
								<stop  offset="0" style="stop-color:#3B3B3B"/>
								<stop  offset="1" style="stop-color:#000000"/>
							</linearGradient>
							<path id="Path_3269_1_" class="st269" d="M91.09,145.96c39.07-5.06,78.63-4.92,117.66,0.39l7.84-46.49
								c-44.25-5.84-89.06-5.96-133.34-0.36L91.09,145.96z"/>
							
								<linearGradient id="Path_3270_2_" gradientUnits="userSpaceOnUse" x1="-2155.042" y1="271.7729" x2="-2152.0723" y2="271.7729" gradientTransform="matrix(28.78 0 0 -2.737 62127.7852 748.3458)">
								<stop  offset="0" style="stop-color:#F6F7F7"/>
								<stop  offset="1" style="stop-color:#DBDBDA"/>
							</linearGradient>
							<path id="Path_3270_1_" class="st270" d="M191.15,8.56h-85.47l5.24-8.12h74.99L191.15,8.56z"/>
							<g id="Group_3866_1_" transform="translate(65.886 0.517)">
								<g id="Group_3865_1_">
									
										<linearGradient id="Path_3271_2_" gradientUnits="userSpaceOnUse" x1="-2166.4724" y1="372.4707" x2="-2165.6357" y2="373.773" gradientTransform="matrix(17.7621 0 0 -10.2229 38638.1445 3828.658)">
										<stop  offset="0" style="stop-color:#FFFFFF"/>
										<stop  offset="1" style="stop-color:#363B39"/>
									</linearGradient>
									<path id="Path_3271_1_" class="st271" d="M178.64,31.79c-1.79,0.05-3.54-0.61-4.85-1.84c-6.7-6.5-14.6-8.63-23.76-11.09
										c-2.29-0.61-4.64-1.25-7.04-1.97c-5.54-1.66-8.23-4.2-7.96-7.57c0.33-4.19,5.66-7.18,8.31-7.53
										c1.66-0.23,3.33-0.34,5.01-0.34c16.65,0,30.68,10.84,35.93,15.49c2.94,2.04,4.19,5.78,3.06,9.18
										c-1.54,3.43-4.95,5.65-8.72,5.66H178.64z"/>
									
										<linearGradient id="Path_3272_2_" gradientUnits="userSpaceOnUse" x1="-2153.2029" y1="365.0026" x2="-2150.2332" y2="365.0026" gradientTransform="matrix(16.0306 0 0 -8.476 34654.6953 3110.396)">
										<stop  offset="0" style="stop-color:#F6F7F7"/>
										<stop  offset="1" style="stop-color:#DBDBDA"/>
									</linearGradient>
									<path id="Path_3272_1_" class="st272" d="M143.69,4.36c-2.8,0.38-12.18,6.39,0.04,10.05c12.22,3.66,22.94,5.04,31.85,13.68
										c3.84,3.71,14.55-2.5,7-9.2S160.09,2.15,143.69,4.36z"/>
								</g>
							</g>
							<g id="Group_3868_1_" transform="translate(13.444 0.517)">
								<g id="Group_3867_1_">
									
										<linearGradient id="Path_3276_2_" gradientUnits="userSpaceOnUse" x1="-2143.519" y1="335.704" x2="-2142.6819" y2="337.007" gradientTransform="matrix(17.7622 0 0 -10.2229 37706.7461 3828.6421)">
										<stop  offset="0" style="stop-color:#FFFFFF"/>
										<stop  offset="1" style="stop-color:#363B39"/>
									</linearGradient>
									<path id="Path_3276_1_" class="st273" d="M40.87,31.79c1.8,0.05,3.54-0.61,4.85-1.84c6.7-6.5,14.6-8.63,23.76-11.09
										c2.29-0.61,4.64-1.25,7.04-1.97c5.55-1.66,8.23-4.2,7.97-7.57c-0.33-4.19-5.67-7.18-8.31-7.53
										c-1.66-0.23-3.34-0.34-5.02-0.34c-16.65,0-30.68,10.84-35.93,15.49c-2.94,2.04-4.19,5.78-3.05,9.18
										C33.71,29.56,37.12,31.78,40.87,31.79L40.87,31.79z"/>
									
										<linearGradient id="Path_3277_2_" gradientUnits="userSpaceOnUse" x1="-2196.9502" y1="365.0026" x2="-2193.9807" y2="365.0026" gradientTransform="matrix(16.0309 0 0 -8.476 33814.8359 3110.396)">
										<stop  offset="0" style="stop-color:#F6F7F7"/>
										<stop  offset="1" style="stop-color:#DBDBDA"/>
									</linearGradient>
									<path id="Path_3277_1_" class="st274" d="M75.83,4.36c2.8,0.38,12.18,6.39-0.05,10.05s-22.94,5.04-31.85,13.68
										c-3.84,3.71-14.55-2.5-6.99-9.2S59.43,2.15,75.83,4.36z"/>
								</g>
							</g>
							<g id="Group_3869_1_" transform="translate(83.767 56.704)">
								
									<linearGradient id="Path_3283_2_" gradientUnits="userSpaceOnUse" x1="-1658.9147" y1="335.1946" x2="-1644.5082" y2="331.1238" gradientTransform="matrix(3.627 0 0 -24.892 6178.0752 8468.8926)">
									<stop  offset="0" style="stop-color:#363B39"/>
									<stop  offset="1" style="stop-color:#1B1C1C"/>
								</linearGradient>
								<path id="Path_3283_1_" class="st275" d="M176.5,111.99l-6.27,9.75c3.23,21.25,3.23,42.86,0,64.11l10.71-10.36l0,0
									c0.03-24.46,0.05-35.01,0.06-49.42C180.74,121.06,179.19,116.21,176.5,111.99z"/>
								
									<linearGradient id="Path_3284_2_" gradientUnits="userSpaceOnUse" x1="-1656.1514" y1="324.8435" x2="-1647.0543" y2="321.0581" gradientTransform="matrix(3.622 0 0 -16.896 6166.5474 5634.4443)">
									<stop  offset="0" style="stop-color:#3B3B3B"/>
									<stop  offset="1" style="stop-color:#000000"/>
								</linearGradient>
								<path id="Path_3284_1_" class="st276" d="M180.96,175.48L180.96,175.48c0.02-18.76,0.04-29.34,0.05-39.76
									c-2.87,2-5.8,4.14-8.68,6.34c0.86,14.63,0.16,29.31-2.08,43.79L180.96,175.48z"/>
							</g>
							<g id="Group_3870_1_" transform="translate(9.033 56.704)">
								
									<linearGradient id="Path_3285_2_" gradientUnits="userSpaceOnUse" x1="-1983.6785" y1="436.6443" x2="-1969.2781" y2="432.5736" gradientTransform="matrix(3.631 0 0 -24.892 5915.9888 8468.8926)">
									<stop  offset="0" style="stop-color:#363B39"/>
									<stop  offset="1" style="stop-color:#1B1C1C"/>
								</linearGradient>
								<path id="Path_3285_1_" class="st277" d="M27.55,111.99l6.27,9.75c-3.23,21.25-3.23,42.86,0,64.11L23.1,175.48l0,0
									c-0.03-24.46-0.05-35.01-0.06-49.42C23.3,121.06,24.86,116.21,27.55,111.99z"/>
								
									<linearGradient id="Path_3286_2_" gradientUnits="userSpaceOnUse" x1="-1626.7612" y1="324.9659" x2="-1617.0012" y2="323.3803" gradientTransform="matrix(3.626 0 0 -16.896 5904.7593 5634.4443)">
									<stop  offset="0" style="stop-color:#000000"/>
									<stop  offset="1" style="stop-color:#3B3B3B"/>
								</linearGradient>
								<path id="Path_3286_1_" class="st278" d="M23.1,175.48L23.1,175.48c-0.03-18.76-0.04-29.34-0.06-39.76
									c2.87,2,5.81,4.14,8.67,6.34c-0.85,14.63-0.15,29.31,2.09,43.79L23.1,175.48z"/>
							</g>
							<path id="Path_3287_1_" class="st279" d="M90.18,240.82c0,1.4-1.13,2.53-2.53,2.53l0,0c-1.4,0-2.53-1.13-2.53-2.53
								c0,0,0,0,0,0v-77.6c0-1.4,1.13-2.53,2.53-2.53c0,0,0,0,0,0l0,0c1.4,0,2.53,1.14,2.53,2.53V240.82z M102.34,163.22
								c0-1.4-1.14-2.53-2.54-2.53l0,0c-1.4,0-2.53,1.14-2.54,2.53v77.6c0,1.4,1.14,2.53,2.54,2.53l0,0c1.4,0,2.54-1.13,2.54-2.53
								V163.22z M114.49,163.22c0-1.4-1.14-2.53-2.54-2.53l0,0l0,0c-1.4,0-2.53,1.13-2.53,2.53c0,0,0,0,0,0v77.6
								c0,1.4,1.13,2.53,2.53,2.53c0,0,0,0,0,0l0,0c1.4,0,2.54-1.13,2.54-2.53l0,0V163.22z M126.65,163.22
								c0-1.4-1.14-2.53-2.54-2.53l0,0l0,0c-1.4,0-2.53,1.14-2.54,2.53v77.6c0,1.4,1.14,2.53,2.54,2.53l0,0
								c1.4,0,2.54-1.13,2.54-2.53l0,0V163.22z M138.8,163.22c0-1.4-1.14-2.53-2.54-2.53l0,0c-1.4,0-2.53,1.14-2.53,2.53v77.6
								c0,1.4,1.13,2.53,2.53,2.53l0,0c1.4,0,2.54-1.13,2.54-2.53V163.22z M150.95,163.22c0-1.4-1.14-2.53-2.54-2.53l0,0
								c-1.4,0-2.53,1.14-2.53,2.53v77.6c0,1.4,1.13,2.53,2.53,2.53l0,0c1.4,0,2.54-1.13,2.54-2.53V163.22z M163.11,163.22
								c0-1.4-1.13-2.53-2.53-2.53c0,0,0,0,0,0l0,0c-1.4,0-2.54,1.13-2.54,2.53v0v77.6c0,1.4,1.14,2.53,2.54,2.53l0,0l0,0
								c1.4,0,2.53-1.13,2.53-2.53c0,0,0,0,0,0V163.22z M175.26,163.22c0-1.4-1.14-2.53-2.54-2.53l0,0l0,0
								c-1.4,0-2.53,1.14-2.53,2.53v77.6c0,1.4,1.13,2.53,2.53,2.53l0,0c1.4,0,2.54-1.13,2.54-2.53l0,0V163.22z M187.42,163.22
								c0-1.4-1.13-2.53-2.53-2.53l0,0c-1.4,0-2.53,1.14-2.54,2.53v77.6c0,1.4,1.14,2.53,2.54,2.53l0,0c1.4,0,2.53-1.14,2.53-2.53
								V163.22z M199.59,163.22c0-1.4-1.14-2.54-2.55-2.53l0,0c-1.4,0-2.53,1.14-2.53,2.53v77.6c0,1.4,1.13,2.53,2.53,2.53l0,0
								c1.4,0,2.54-1.13,2.55-2.53V163.22z M211.73,163.22c0-1.4-1.13-2.53-2.52-2.53c0,0,0,0,0,0l0,0c-1.4,0-2.54,1.13-2.54,2.53v0
								v77.6c0,1.4,1.14,2.53,2.54,2.53l0,0l0,0c1.4,0,2.53-1.13,2.53-2.53c0,0,0,0,0,0V163.22z"/>
							<g id="Group_3896_1_" transform="translate(27.446 10.091)">
								<g id="Group_3875_1_" transform="translate(12.392)">
									<rect id="Rectangle_20221_1_" x="85.28" y="20.29" class="st280" width="46.81" height="4.41"/>
								</g>
								<g id="Group_3880_1_" transform="translate(9.294 3.574)">
									<rect id="Rectangle_20224_1_" x="78.67" y="27.32" class="st280" width="65.36" height="4.41"/>
								</g>
								<g id="Group_3885_1_" transform="translate(6.196 7.148)">
									<rect id="Rectangle_20227_1_" x="72.93" y="34.35" class="st280" width="83.9" height="4.41"/>
								</g>
								<g id="Group_3890_1_" transform="translate(3.098 10.722)">
									<rect id="Rectangle_20230_1_" x="67.2" y="41.38" class="st280" width="101.56" height="4.41"/>
								</g>
								<g id="Group_3895_1_" transform="translate(0 14.296)">
									<rect id="Rectangle_20233_1_" x="60.58" y="48.42" class="st280" width="120.99" height="4.41"/>
								</g>
							</g>
						</g>
					</g>
					<g id="Group_3899_1_" transform="translate(83.915 13.442)">
						<path id="Path_3298_1_" class="st281" d="M165.33,26.89c1.28,3.05,2.4,6.17,3.34,9.34c0.89,2.82,1.8,6.14,2.67,9.72
							s1.66,7.42,2.43,11.25c0.66,3.86,1.34,7.71,1.78,11.38s0.82,7.07,1.01,10.03c0.26,3.3,0.34,6.61,0.23,9.92
							c-1.29-3.05-2.4-6.17-3.35-9.34c-0.89-2.82-1.81-6.14-2.67-9.72c-0.87-3.58-1.66-7.42-2.43-11.26
							c-0.66-3.86-1.34-7.71-1.78-11.38c-0.45-3.66-0.81-7.07-1-10.03C165.3,33.5,165.22,30.19,165.33,26.89z"/>
					</g>
					<g id="Group_3900_1_" transform="translate(13.836 13.442)">
						<path id="Path_3299_1_" class="st281" d="M38.77,26.89c0.1,3.31,0.02,6.62-0.24,9.92c-0.19,2.97-0.53,6.38-1,10.03
							c-0.48,3.65-1.12,7.52-1.78,11.38c-0.77,3.86-1.53,7.69-2.43,11.26s-1.78,6.89-2.67,9.72c-0.94,3.17-2.06,6.29-3.35,9.34
							c-0.1-3.31-0.02-6.62,0.24-9.92c0.19-2.97,0.52-6.38,1-10.03c0.44-3.65,1.12-7.51,1.78-11.38c0.77-3.84,1.53-7.68,2.44-11.25
							c0.86-3.58,1.78-6.9,2.67-9.72C36.37,33.06,37.49,29.94,38.77,26.89z"/>
					</g>
				</g>
				
					<linearGradient id="Rectangle_20235_2_" gradientUnits="userSpaceOnUse" x1="-2200.6267" y1="145.5374" x2="-2197.657" y2="145.5374" gradientTransform="matrix(71.106 0 0 -2.068 156523.2656 558.0523)">
					<stop  offset="0" style="stop-color:#363B39"/>
					<stop  offset="1" style="stop-color:#0D0E0E"/>
				</linearGradient>
				<rect id="Rectangle_20235_1_" x="45.5" y="254.01" class="st282" width="211.16" height="6.14"/>
			</g>
			<g id="Group_3903_1_" transform="translate(42.655 30.673)">
				<path id="Path_3300_1_" d="M188.88,81.82c-29.56-12.17-61.35-17.98-93.3-17.06c0-1.3,0.02-2.6,0.04-3.9
					c32.46-0.9,64.75,5.01,94.78,17.38C189.88,79.43,189.38,80.62,188.88,81.82z"/>
				<path id="Path_3301_1_" d="M129.91,65c0,2.33-10.27,4.21-22.94,4.21S84.02,67.33,84.02,65s10.27-4.21,22.95-4.21
					S129.91,62.66,129.91,65z"/>
			</g>
		</g>
		<path id="Path_3302_1_" class="st239" d="M267.43,225.49c1.2,0.02,2.2-0.93,2.22-2.13c0,0,0,0,0,0v-17.7
			c-0.02-1.2-1.02-2.16-2.22-2.14V225.49z"/>
		<path id="Path_3303_1_" class="st240" d="M34.73,225.49c-1.2,0.02-2.2-0.93-2.22-2.13c0,0,0,0,0,0v-17.7
			c0.02-1.2,1.02-2.16,2.22-2.14V225.49z"/>
	</g>
	<path id="Path_3306_1_" class="st283" d="M450.54,106.67c0,0,10.91-51.38,42.58-73.37c-13.78,9.45-40.73,14.17-46.91,75.01
		C450.54,107.49,450.54,106.67,450.54,106.67z"/>
	<path id="Path_3307_1_" class="st283" d="M589.17,104.43c0,0-13.51-51.31-42.05-71.12c13.46,9.23,39.49,13.96,46.54,71.75
		L589.17,104.43z"/>
</g>
</svg>
