<svg width="21" height="16" viewBox="0 0 21 16" fill="none" xmlns="http://www.w3.org/2000/svg">
<path d="M19.3089 6.38364L3.1724 0.316747C2.4926 0.0611314 1.72459 0.173578 1.16814 0.610057C0.611696 1.04661 0.378962 1.71923 0.560837 2.36542L1.99713 7.46896H9.0294C9.35299 7.46896 9.61538 7.70666 9.61538 7.9999C9.61538 8.29311 9.35303 8.53085 9.0294 8.53085H1.99713L0.560837 13.6343C0.378962 14.2806 0.611657 14.9532 1.16814 15.3897C1.72572 15.8271 2.49381 15.9381 3.17244 15.683L19.3089 9.61617C20.0436 9.33996 20.5 8.72063 20.5 7.9999C20.5 7.27917 20.0436 6.65981 19.3089 6.38364Z" fill="white"/>
</svg>
