<svg width="10" height="18" viewBox="0 0 10 18" fill="none" xmlns="http://www.w3.org/2000/svg">
<path d="M9.59449 16.2926C9.59121 16.2573 8.96107 12.5194 8.27629 12.0247C7.94154 11.7905 7.58495 11.8222 6.87066 11.8845C6.75556 11.8947 6.47946 11.918 6.27512 11.9271C6.1362 11.6539 6.01703 11.3712 5.91852 11.081C5.40367 9.58922 5.40367 7.96794 5.91852 6.47618C6.01703 6.18598 6.1362 5.90321 6.27512 5.63004C6.48019 5.63914 6.75665 5.66282 6.87467 5.67302C7.58531 5.7353 7.94191 5.76626 8.27701 5.53169C8.96981 5.04506 9.59121 1.29989 9.59485 1.26419C9.6246 1.09219 9.61579 0.915723 9.56905 0.747539C9.52231 0.579356 9.43881 0.423647 9.32458 0.291654C8.69153 -0.341405 2.76717 0.195493 2.37197 0.5907C2.34902 0.613647 0.0495374 2.97942 0 8.78185C0.0495374 14.5777 2.34902 16.9435 2.37197 16.9665C2.76681 17.3613 8.69153 17.8986 9.32459 17.2655C9.43874 17.1334 9.52216 16.9776 9.56883 16.8094C9.61551 16.6411 9.62427 16.4646 9.59449 16.2926ZM3.06221 16.1953C2.773 15.8522 1.07161 13.6343 1.02826 8.78222C1.07197 3.90643 2.7832 1.69181 3.06221 1.36254C4.28904 1.0906 7.31969 0.985838 8.5746 1.05111C8.5746 1.08025 8.57205 1.12141 8.56841 1.17459C8.38359 2.37188 8.07989 3.54777 7.6618 4.68482C7.4273 4.68552 7.19294 4.67275 6.9599 4.64657C6.60576 4.59873 6.24761 4.58774 5.89121 4.61379C5.82404 4.62506 5.75978 4.64953 5.70213 4.68579C5.64449 4.72206 5.5946 4.76939 5.55537 4.82505C5.29854 5.23605 5.0935 5.67722 4.9449 6.13852C4.35477 7.84899 4.3549 9.70788 4.94526 11.4183C5.09357 11.8797 5.29851 12.321 5.55537 12.7321C5.59442 12.7879 5.64425 12.8354 5.70192 12.8717C5.7596 12.908 5.82396 12.9323 5.89121 12.9434C6.24896 12.9694 6.60845 12.9583 6.96391 12.9102C7.21451 12.8884 7.54889 12.8592 7.65816 12.8658C8.07857 14.0045 8.3834 15.1825 8.56805 16.3822C8.57278 16.4379 8.5746 16.4791 8.57606 16.506C7.32091 16.5715 4.28999 16.4667 3.06294 16.1946L3.06221 16.1953Z" fill="black"/>
</svg>
