<svg width="24" height="25" viewBox="0 0 24 25" fill="none" xmlns="http://www.w3.org/2000/svg">
<path fill-rule="evenodd" clip-rule="evenodd" d="M2.61383 0.0533777C4.1201 0.0533777 17.0706 1.19242e-05 17.0706 1.19242e-05C17.4026 -0.00134101 17.9113 0.112606 18.2075 0.254514C18.2075 0.254514 18.0146 0.0472146 18.2852 0.327423C18.5277 0.578468 23.6326 5.8459 23.7324 5.95203C23.8324 6.05831 23.7687 6.00194 23.7687 6.00194C23.9076 6.30365 24 6.82573 24 7.1581V21.5311C24 22.5959 22.7255 24.0292 21.5083 24.0292C20.291 24.0292 3.68941 23.9795 2.47372 23.9795C1.25803 23.9795 0.0685007 23.0369 0.0149845 21.5592C-0.0385316 20.0812 0.0685006 3.78117 0.0685006 2.49783C0.0685006 1.21465 1.10756 0.0533777 2.61383 0.0533777ZM2.33753 2.73715L2.36008 20.9266C2.36053 21.2571 2.63066 21.5284 2.96318 21.5302L21.0868 21.6261C21.1657 21.6267 21.2439 21.6116 21.317 21.5818C21.39 21.5519 21.4564 21.5079 21.5123 21.4523C21.5682 21.3966 21.6125 21.3305 21.6427 21.2576C21.6729 21.1847 21.6883 21.1065 21.6881 21.0277L21.6666 7.44357C21.6665 7.27851 21.5691 7.05032 21.4494 6.93426L17.0548 2.67747C16.9344 2.56082 16.8379 2.60186 16.8379 2.76782V8.05059C16.8379 8.55253 16.1411 9.42457 15.51 9.42457H6.43061C5.73911 9.42457 4.99349 8.71593 4.99349 8.05059C4.99349 7.38524 4.99139 2.76812 4.99139 2.76812C4.99139 2.60216 4.8573 2.46596 4.69194 2.46401L2.63638 2.44071C2.59722 2.44031 2.55838 2.44769 2.5221 2.46242C2.48582 2.47714 2.45282 2.49893 2.42502 2.5265C2.39722 2.55408 2.37518 2.5869 2.36016 2.62306C2.34514 2.65922 2.33744 2.698 2.33753 2.73715ZM7.22945 2.8033V6.98312C7.22945 7.14848 7.36414 7.28392 7.5301 7.28392H14.2498C14.4171 7.28392 14.5505 7.14923 14.5505 6.98312V2.80345C14.5504 2.72371 14.5187 2.64725 14.4624 2.59084C14.406 2.53442 14.3296 2.50265 14.2498 2.50249H7.53025C7.36279 2.50249 7.2296 2.63719 7.2296 2.80345L7.22945 2.8033Z" fill="white"/>
<path fill-rule="evenodd" clip-rule="evenodd" d="M11.9855 10.8032C14.4172 10.8415 16.7709 12.9721 16.7709 15.5728C16.7709 18.1734 14.5739 20.3504 12.1084 20.3117C9.64286 20.2727 7.18848 18.0922 7.18848 15.5698C7.18848 13.0473 9.55401 10.7649 11.9855 10.8032ZM9.55657 15.5099C9.55657 16.9645 10.7118 18.0477 11.9946 18.0419C13.2774 18.036 14.3651 16.9703 14.3715 15.5329C14.378 14.0954 13.2128 13.0749 11.9686 13.0749C10.7245 13.0749 9.55657 14.0551 9.55657 15.5098V15.5099Z" fill="white"/>
</svg>
