<svg width="21" height="18" viewBox="0 0 21 18" fill="none" xmlns="http://www.w3.org/2000/svg">
<path d="M8.29074 6.5082C8.29878 6.27834 8.49185 6.09831 8.72171 6.10635L18.2992 6.44116C19.2178 6.47327 19.9387 7.24643 19.9066 8.16504C19.8745 9.08364 19.1013 9.80457 18.1827 9.77246L9.43808 9.46676C9.20822 9.45873 9.02819 9.26565 9.03622 9.03579C9.04426 8.80593 9.23733 8.6259 9.46719 8.63394L18.2119 8.93964C18.6716 8.95571 19.0577 8.59481 19.0738 8.13592C19.0898 7.67704 18.7298 7.29006 18.2701 7.27399L8.6926 6.93917C8.46274 6.93114 8.28271 6.73806 8.29074 6.5082Z" fill="black"/>
<path d="M8.94723 11.5343C8.95527 11.3044 9.14834 11.1244 9.3782 11.1324L13.1259 11.2634C13.5856 11.2795 13.9718 10.9186 13.9879 10.4597C14.0039 10.0008 13.6439 9.61385 13.1841 9.59778C12.9543 9.58974 12.7743 9.39667 12.7823 9.16681C12.7903 8.93695 12.9834 8.75692 13.2133 8.76495C14.1319 8.79707 14.8528 9.57022 14.8207 10.4888C14.7886 11.4074 14.0154 12.1284 13.0968 12.0963L9.34909 11.9652C9.11923 11.9572 8.9392 11.7641 8.94723 11.5343Z" fill="black"/>
<path d="M8.86014 14.0327C8.86817 13.8029 9.06125 13.6229 9.29111 13.6309L12.206 13.7328C12.6657 13.7489 13.0519 13.388 13.0679 12.9291C13.084 12.4702 12.7239 12.0832 12.2642 12.0671C12.0344 12.0591 11.8543 11.866 11.8624 11.6362C11.8704 11.4063 12.0635 11.2263 12.2933 11.2343C13.2119 11.2664 13.9329 12.0396 13.9008 12.9582C13.8686 13.8768 13.0955 14.5977 12.1769 14.5656L9.26199 14.4637C9.03213 14.4557 8.8521 14.2626 8.86014 14.0327Z" fill="black"/>
<path d="M0.56204 12.9088L0.730523 8.08922C0.775912 6.79085 1.4745 5.62704 2.59793 4.97589L8.81764 1.37183C8.82103 1.37028 8.82359 1.3687 8.82615 1.36712C9.0911 1.20628 9.40322 1.12713 9.72885 1.13852C10.6475 1.17063 11.3684 1.94379 11.3363 2.8624C11.3256 3.16887 11.2345 3.46004 11.0725 3.70453C11.069 3.71107 11.0646 3.71759 11.0602 3.72328L9.05397 6.75253C8.9272 6.94405 8.66851 6.99755 8.47618 6.86992C8.28549 6.74318 8.23206 6.48282 8.35963 6.29216L10.3544 3.28085C10.3597 3.27186 10.365 3.26371 10.3711 3.25475C10.452 3.13667 10.4979 2.99068 10.5034 2.83328C10.5195 2.37439 10.1595 1.98741 9.69974 1.97134C9.54483 1.96593 9.39433 2.00152 9.27098 2.07142C9.265 2.07538 9.25906 2.07851 9.25308 2.08247L3.0155 5.69676C2.14144 6.2032 1.59866 7.10812 1.56335 8.11833L1.39486 12.9379C1.33867 14.5452 2.6005 15.8985 4.20785 15.9547L11.2869 16.2021C11.7466 16.2182 12.1328 15.8573 12.1488 15.3984C12.1648 14.9395 11.8048 14.5526 11.3451 14.5365C11.1152 14.5285 10.9352 14.3354 10.9432 14.1055C10.9513 13.8757 11.1443 13.6956 11.3742 13.7037C12.2928 13.7358 13.0137 14.5089 12.9816 15.4275C12.9495 16.3462 12.1764 17.0671 11.2577 17.035L4.17874 16.7875C2.1125 16.7153 0.489807 14.975 0.56204 12.9088Z" fill="black"/>
</svg>
