<svg width="12" height="15" viewBox="0 0 12 15" fill="none" xmlns="http://www.w3.org/2000/svg">
    <path fill-rule="evenodd" clip-rule="evenodd" d="M0 5.03851C0 2.25893 2.68993 0 6 0C9.31007 0 12 2.25893 12 5.03851C12 5.94547 11.71 6.844 11.15 7.61655L6.44337 14.1251C6.3334 14.2846 6.1233 14.3518 5.93337 14.3266C5.79333 14.3098 5.67333 14.2426 5.59327 14.1334L0.900033 7.68375C0.310067 6.89439 0 5.97903 0 5.03851ZM6 7C7.10457 7 8 6.10457 8 5C8 3.89543 7.10457 3 6 3C4.89543 3 4 3.89543 4 5C4 6.10457 4.89543 7 6 7Z" fill="#FD003A"/>
    </svg>
    