<?xml version="1.0" encoding="utf-8"?>
<!-- Generator: Adobe Illustrator 24.2.3, SVG Export Plug-In . SVG Version: 6.00 Build 0)  -->
<svg version="1.1" id="Layer_1" xmlns="http://www.w3.org/2000/svg" xmlns:xlink="http://www.w3.org/1999/xlink" x="0px" y="0px"
	 viewBox="0 0 300 252.63" style="enable-background:new 0 0 300 252.63;" xml:space="preserve">
<style type="text/css">
	.st0{fill:#AAAAAA;}
	.st1{fill:#282929;}
	.st2{fill:none;stroke:#C6C5C5;stroke-width:2;stroke-miterlimit:10;}
	.st3{fill:url(#Path_6280_1_);}
	.st4{fill:url(#Rectangle_23624_1_);}
	.st5{fill:url(#Path_6281_1_);}
	.st6{fill:url(#Rectangle_23625_1_);}
	.st7{fill:url(#Path_6282_1_);}
	.st8{fill:url(#Path_6315_1_);}
	.st9{fill:url(#Path_6316_1_);}
	.st10{fill:url(#Path_6317_1_);}
	.st11{fill:none;stroke:#467236;stroke-miterlimit:10;}
	.st12{fill:url(#Rectangle_23799_1_);}
	.st13{fill:#313131;}
	.st14{fill:url(#Path_6323_1_);}
	.st15{fill:url(#SVGID_1_);}
	.st16{fill:#2F6F3B;}
	.st17{fill:url(#Path_6437-2_1_);}
	.st18{fill:url(#Path_6438_1_);}
	.st19{fill:url(#Path_6439-2_1_);}
	.st20{fill:url(#Rectangle_24082_1_);stroke:#B1C3B4;stroke-miterlimit:10;}
	.st21{fill:url(#Path_6440-2_1_);}
	.st22{fill:url(#Path_6441-2_1_);}
	.st23{fill:#4AB763;}
	.st24{fill:url(#Path_6443-2_1_);}
	.st25{fill:url(#Path_6444_1_);}
	.st26{opacity:0.5;}
	.st27{fill:#636464;}
	.st28{fill:#066634;}
	.st29{fill:url(#Rectangle_24081_1_);}
	.st30{fill:#14191C;}
	.st31{opacity:0.3;fill:#8F8F8F;enable-background:new    ;}
	.st32{fill:#C6C5C5;}
	.st33{fill:#F2F2F2;}
	.st34{fill:url(#Path_6449_1_);}
	.st35{fill:#DE7C26;stroke:#4D2E11;stroke-miterlimit:10;}
	.st36{fill:#F7951D;}
	.st37{fill:#A1B7C0;}
	.st38{clip-path:url(#SVGID_3_);}
	.st39{fill:#659BB6;}
	.st40{fill:#457D9A;}
	.st41{fill:#7DAAC2;}
	.st42{fill:#5888A0;}
	.st43{fill:#608EA5;}
	.st44{fill:#3A6882;}
	.st45{opacity:0.29;fill:#4989A9;enable-background:new    ;}
	.st46{opacity:0.29;}
	.st47{fill:#4989A9;}
	.st48{fill:#98BBCD;}
	.st49{fill:none;stroke:#98BBCD;stroke-width:2;stroke-miterlimit:10;}
	.st50{fill:#14191D;}
	.st51{fill:#4A8AAA;}
	.st52{fill:url(#Path_6459_1_);}
	.st53{fill:#2B2C2E;}
	.st54{fill:#D7D7D7;}
	.st55{clip-path:url(#SVGID_5_);}
	.st56{fill:#A8B0BA;}
	.st57{fill:#858585;}
	.st58{fill:#6B6B6B;}
	.st59{clip-path:url(#SVGID_7_);}
	.st60{fill:#D5D6D5;}
	.st61{opacity:0.5;fill:url(#Rectangle_24151_1_);enable-background:new    ;}
	.st62{opacity:0.5;fill:#B3BAC4;enable-background:new    ;}
	.st63{fill:#575757;}
	.st64{clip-path:url(#SVGID_9_);}
	.st65{fill:#3A3A3A;}
	.st66{fill:url(#Path_6466_1_);}
	.st67{fill:#CECECD;}
	.st68{fill:#F1F0EF;}
	.st69{fill:#A9D2DC;}
	.st70{clip-path:url(#SVGID_11_);}
	.st71{fill:#3A8EA0;}
	.st72{fill:#5AAAC1;}
	.st73{fill:none;stroke:#DBDBDA;stroke-width:2;stroke-linecap:round;stroke-miterlimit:10;}
	.st74{fill:#616362;}
	.st75{fill:#1E1E1E;}
	.st76{fill:url(#SVGID_12_);}
	.st77{fill:#707171;}
	.st78{fill:url(#SVGID_13_);}
	.st79{fill:#3F4040;}
	.st80{fill:url(#SVGID_14_);}
	.st81{fill:#808080;}
	.st82{fill:#9D9D9D;}
	.st83{fill:#6F6E6F;}
	.st84{fill:#1A1A1A;}
	.st85{fill:#161616;}
	.st86{fill:#2F2F2F;}
	.st87{fill:#121112;}
	.st88{fill:#2E2E2E;}
	.st89{fill:url(#SVGID_15_);}
	.st90{fill:url(#SVGID_16_);}
	.st91{fill:url(#SVGID_17_);}
	.st92{fill:url(#SVGID_18_);}
	.st93{fill:url(#SVGID_19_);}
	.st94{fill:#545452;}
	.st95{fill:url(#SVGID_20_);}
	.st96{fill:url(#SVGID_21_);}
	.st97{fill:url(#SVGID_22_);}
	.st98{fill:url(#SVGID_23_);}
	.st99{fill:url(#SVGID_24_);}
	.st100{fill:url(#SVGID_25_);}
	.st101{fill:url(#SVGID_26_);}
	.st102{fill:url(#SVGID_27_);}
	.st103{fill:url(#SVGID_28_);}
	.st104{fill:url(#SVGID_29_);}
	.st105{fill:url(#SVGID_30_);}
	.st106{fill:url(#SVGID_31_);}
	.st107{fill:url(#SVGID_32_);}
	.st108{fill:url(#SVGID_33_);}
	.st109{fill:url(#SVGID_34_);}
	.st110{fill:url(#SVGID_35_);}
	.st111{fill:url(#SVGID_36_);}
	.st112{fill:url(#SVGID_37_);}
	.st113{fill:url(#SVGID_38_);}
	.st114{fill:url(#SVGID_39_);}
	.st115{fill:url(#SVGID_40_);}
	.st116{fill:url(#SVGID_41_);}
	.st117{fill:url(#SVGID_42_);}
	.st118{fill:url(#SVGID_43_);}
	.st119{fill:url(#SVGID_44_);}
	.st120{fill:url(#SVGID_45_);}
	.st121{fill:url(#SVGID_46_);}
	.st122{fill:url(#SVGID_47_);}
	.st123{fill:#141414;}
	.st124{fill:#958932;}
	.st125{fill:url(#SVGID_48_);}
	.st126{fill:url(#SVGID_49_);}
	.st127{fill:none;stroke:#575757;stroke-miterlimit:10;}
	.st128{fill:#7F7F7F;}
	.st129{fill:url(#SVGID_50_);}
	.st130{fill:#515252;}
	.st131{fill:#A4A4A4;}
</style>
<g id="Group_5381" transform="translate(-304.398 -127.246)">
	<path id="Path_6320" class="st0" d="M368.5,310.73l7.95-0.8v22.53l-9.01,1.33L368.5,310.73z"/>
	<path id="Path_6321" class="st0" d="M367.7,194.38l0.27-24.39l9.54,1.86l-1.33,23.33L367.7,194.38z"/>
	<path id="Path_6278" class="st1" d="M552.86,305.82l-18.09-3.05v-93.01l18.09-3.05V305.82z"/>
	<path id="Path_6279" class="st2" d="M401.79,329.05l-16.58-0.03c0,0-9.54,2.39-9.54-14.05l0.53-128.54c0,0-0.27-11.66,8.75-10.87
		l16.71-0.27"/>
	
		<linearGradient id="Path_6280_1_" gradientUnits="userSpaceOnUse" x1="-1935.3896" y1="1597.387" x2="-1936.3298" y2="1597.3737" gradientTransform="matrix(216.9736 0 0 -141.998 420533.9688 227077.625)">
		<stop  offset="0" style="stop-color:#487436"/>
		<stop  offset="0.052" style="stop-color:#63A544"/>
		<stop  offset="0.103" style="stop-color:#63A544"/>
		<stop  offset="0.77" style="stop-color:#629E43"/>
		<stop  offset="0.799" style="stop-color:#4D7C3A"/>
		<stop  offset="1" style="stop-color:#4E7C39"/>
	</linearGradient>
	<path id="Path_6280" class="st3" d="M588.32,311.93l16.09-1.94l-0.01,28.42l-11.95,4.85l-157.06-0.64
		c-5.78,0.05-11.55-0.71-17.12-2.26l-12.6-2.58c0,0-4.52-0.97-3.88-8.72l0.32-155.63c0,0-1.62-4.2,6.14-6.78l21.32-2.58l12.67-1.94
		l148.91,0.65l13.3,1.78l-0.07,26.42l-6.77,6.36l-9.05-0.65L588.32,311.93z"/>
	<g>
		<g id="Group_5335" transform="translate(504.112 192.914)">
			
				<linearGradient id="Rectangle_23624_1_" gradientUnits="userSpaceOnUse" x1="-2409.9543" y1="1277.1094" x2="-2409.7922" y2="1277.1094" gradientTransform="matrix(19.937 0 0 -4.659 48103.5703 6008.7104)">
				<stop  offset="0" style="stop-color:#363B39"/>
				<stop  offset="1" style="stop-color:#1B1C1C"/>
			</linearGradient>
			<rect id="Rectangle_23624" x="-199.71" y="55.13" class="st4" width="13.82" height="7.06"/>
			
				<linearGradient id="Path_6281_1_" gradientUnits="userSpaceOnUse" x1="-2320.7195" y1="1335.9872" x2="-2319.3181" y2="1335.9872" gradientTransform="matrix(5.977 0 0 -8.427 14030.5068 11317.0254)">
				<stop  offset="0" style="stop-color:#363B39"/>
				<stop  offset="1" style="stop-color:#1B1C1C"/>
			</linearGradient>
			<path id="Path_6281" class="st5" d="M-179.88,52.13v13.06l-5.94-3.01v-7.05L-179.88,52.13z"/>
		</g>
		<g id="Group_5336" transform="translate(530.808 192.914)">
			
				<linearGradient id="Rectangle_23625_1_" gradientUnits="userSpaceOnUse" x1="-2445.179" y1="1277.1094" x2="-2445.0259" y2="1277.1094" gradientTransform="matrix(30.162 0 0 -4.659 73886.2813 6008.7104)">
				<stop  offset="0" style="stop-color:#363B39"/>
				<stop  offset="1" style="stop-color:#1B1C1C"/>
			</linearGradient>
			<rect id="Rectangle_23625" x="-199.86" y="55.15" class="st6" width="29.98" height="7.01"/>
			
				<linearGradient id="Path_6282_1_" gradientUnits="userSpaceOnUse" x1="-2348.5457" y1="1335.9872" x2="-2347.144" y2="1335.9872" gradientTransform="matrix(5.978 0 0 -8.427 14172.6191 11317.0254)">
				<stop  offset="0" style="stop-color:#363B39"/>
				<stop  offset="1" style="stop-color:#1B1C1C"/>
			</linearGradient>
			<path id="Path_6282" class="st7" d="M-205.87,52.13v13.06l5.94-3.01v-7.05L-205.87,52.13z"/>
		</g>
	</g>
	
		<linearGradient id="Path_6315_1_" gradientUnits="userSpaceOnUse" x1="-1928.7654" y1="1553.0364" x2="-1928.7654" y2="1554.0304" gradientTransform="matrix(43.227 0 0 -12.348 83710.1172 19399.6426)">
		<stop  offset="0.581" style="stop-color:#424243"/>
		<stop  offset="0.659" style="stop-color:#494848"/>
		<stop  offset="0.768" style="stop-color:#5A5B5B"/>
		<stop  offset="0.843" style="stop-color:#6B6B6B"/>
		<stop  offset="1" style="stop-color:#767576"/>
	</linearGradient>
	<path id="Path_6315" class="st8" d="M313.91,222.74l4.52-5.49l37.8-6.78l0.65,7.43L313.91,222.74z"/>
	
		<linearGradient id="Path_6316_1_" gradientUnits="userSpaceOnUse" x1="-1928.7654" y1="1495.7329" x2="-1928.7654" y2="1496.7336" gradientTransform="matrix(43.227 0 0 -12.348 83710.1172 19433.7578)">
		<stop  offset="0.581" style="stop-color:#424243"/>
		<stop  offset="0.659" style="stop-color:#494848"/>
		<stop  offset="0.768" style="stop-color:#5A5B5B"/>
		<stop  offset="0.843" style="stop-color:#6B6B6B"/>
		<stop  offset="1" style="stop-color:#767576"/>
	</linearGradient>
	<path id="Path_6316" class="st9" d="M313.91,286.16l4.52,5.49l37.8,6.87l0.64-7.51L313.91,286.16z"/>
	
		<linearGradient id="Path_6317_1_" gradientUnits="userSpaceOnUse" x1="-1935.6592" y1="1594.1198" x2="-1934.4883" y2="1594.1198" gradientTransform="matrix(157.182 0 0 -80.912 304607.0313 129238.4297)">
		<stop  offset="0" style="stop-color:#3F6731"/>
		<stop  offset="4.000000e-03" style="stop-color:#63A544"/>
		<stop  offset="0.479" style="stop-color:#538B3F"/>
		<stop  offset="0.508" style="stop-color:#6FB144"/>
		<stop  offset="0.812" style="stop-color:#63A444"/>
		<stop  offset="0.918" style="stop-color:#8EC63E"/>
		<stop  offset="1" style="stop-color:#99CA3C"/>
	</linearGradient>
	<path id="Path_6317" class="st10" d="M356.23,210.28v88.22l90.21,15.51l65.06,1.19v-5.49l-18.09,0.32l-0.97-107.51l20.03-1.29
		l-0.65-6.46l-65.39,3.88L356.23,210.28z"/>
	<line id="Line_63" class="st11" x1="446.44" y1="198.67" x2="446.44" y2="313.98"/>
	
		<linearGradient id="Rectangle_23799_1_" gradientUnits="userSpaceOnUse" x1="-1927.4189" y1="1578.3749" x2="-1927.4189" y2="1574.4331" gradientTransform="matrix(36.076 0 0 -59.465 70101.8047 94883.7422)">
		<stop  offset="0" style="stop-color:#5C5C5C"/>
		<stop  offset="0.581" style="stop-color:#424243"/>
		<stop  offset="0.659" style="stop-color:#808080"/>
		<stop  offset="0.768" style="stop-color:#5A5B5B"/>
		<stop  offset="0.843" style="stop-color:#6B6B6B"/>
		<stop  offset="1" style="stop-color:#767576"/>
	</linearGradient>
	<rect id="Rectangle_23799" x="550.31" y="202.48" class="st12" width="35.86" height="99.11"/>
	<path id="Path_6318" class="st13" d="M586.17,301.59h-35.86l2.03,4.52h30.78L586.17,301.59z"/>
	<path id="Path_6318_1_" class="st13" d="M586.17,202.81h-35.86l2.03-4.52h30.78L586.17,202.81z"/>
	<path id="Path_6319" class="st2" d="M456.49,178.37l8.82-8.32l-0.29,168.38l-10.24-8.7"/>
	<path id="Path_6322" class="st2" d="M567.61,168.41h13.12c4.83,1.12,8.29,5.37,8.41,10.33v130.51"/>
	
		<linearGradient id="Path_6323_1_" gradientUnits="userSpaceOnUse" x1="-1932.6694" y1="1595.7672" x2="-1932.678" y2="1594.3424" gradientTransform="matrix(76.086 0 0 -92.294 147567.3125 147469.5313)">
		<stop  offset="0" style="stop-color:#558D3F"/>
		<stop  offset="1" style="stop-color:#72BA44"/>
	</linearGradient>
	<path id="Path_6323" class="st14" d="M549.19,205.97v-10.81c0-3.04-2.47-5.51-5.51-5.51c0,0,0,0,0,0h-32.25
		c-3.04,0-5.51,2.46-5.51,5.5c0,0,0,0,0,0v5.28H492.7c-3.39,0-6.14,2.75-6.14,6.14v97.88c0,3.39,2.75,6.14,6.14,6.14h13.23v5.29
		c0,3.04,2.47,5.51,5.51,5.51c0,0,0,0,0,0h32.24c3.04,0,5.51-2.46,5.51-5.5c0,0,0,0,0,0v-10.81h-13.98v-99.11H549.19z"/>
	<path id="Path_6324" class="st2" d="M455.18,329.93l10.32,9.44h13.21l0.32-170.81"/>
	<path id="Path_6325" class="st2" d="M478.71,339.38l112.84-0.1l-2.46-27.5c-0.47-5.21,1.98-10.26,6.36-13.12
		c0,0,5.17-5.57,4.37-18.29V179.93c0,0,0.6-11.69-9.46-11.53l-105.97,0.4l-18.59-0.23l-6.72,7.4"/>
</g>
</svg>
