<?xml version="1.0" encoding="utf-8"?>
<!-- Generator: Adobe Illustrator 24.2.3, SVG Export Plug-In . SVG Version: 6.00 Build 0)  -->
<svg version="1.1" id="Layer_1" xmlns="http://www.w3.org/2000/svg" xmlns:xlink="http://www.w3.org/1999/xlink" x="0px" y="0px"
	 viewBox="0 0 300 750" style="enable-background:new 0 0 300 750;" xml:space="preserve">
<style type="text/css">
	.st0{fill:#323234;stroke:#12100C;stroke-width:0.5;stroke-miterlimit:10;}
	.st1{fill:#DB9241;}
	.st2{fill:#BC802D;}
	.st3{fill:#282B34;}
	.st4{fill:#242427;}
	.st5{fill:#393939;}
	.st6{fill:#1F1F21;}
	.st7{fill:#383838;}
	.st8{fill:#282927;}
	.st9{fill:#A6A9B1;}
	.st10{fill:#4C4D55;}
	.st11{fill:#F2A14B;}
	.st12{fill:#CC8530;}
	.st13{fill:#353537;}
	.st14{fill:#CA822B;}
	.st15{fill:#272727;}
	.st16{fill:#161616;}
	.st17{fill:#1E1E1E;}
	.st18{fill:#555555;}
	.st19{fill:#353535;}
	.st20{fill:#4E4E4E;}
	.st21{fill:#30313D;}
	.st22{fill:#151717;}
	.st23{fill:#434447;}
	.st24{fill:#282827;}
	.st25{fill:none;stroke:#626367;stroke-width:2;stroke-miterlimit:10;}
	.st26{clip-path:url(#SVGID_2_);}
	.st27{clip-path:url(#SVGID_4_);}
	.st28{clip-path:url(#SVGID_6_);}
	.st29{clip-path:url(#SVGID_8_);}
	.st30{clip-path:url(#SVGID_10_);}
	.st31{clip-path:url(#SVGID_12_);}
	.st32{clip-path:url(#SVGID_14_);}
	.st33{clip-path:url(#SVGID_16_);}
	.st34{fill:#262626;}
	.st35{clip-path:url(#SVGID_18_);}
	.st36{fill:#161617;}
	.st37{fill:#1B1A1F;}
	.st38{fill:#1A191D;}
	.st39{fill:none;}
	.st40{fill:#1E1E1F;}
</style>
<g id="Group_5601" transform="translate(8.157 110.481)">
	<path id="Path_6619" class="st0" d="M8.16,141.53h20.37l7.4,6.49l-7.04,7.47H8.16V141.53z"/>
	<path id="Path_6620" class="st0" d="M8.16,155.3h20.37l7.4,6.49l-7.04,7.47H8.16C8.16,169.26,8.34,155.3,8.16,155.3z"/>
	<path id="Path_6621" class="st0" d="M8.16,169.26h20.37l7.4,6.49l-7.04,7.47H8.16C8.16,183.22,8.34,169.26,8.16,169.26z"/>
	<path id="Path_6622" class="st0" d="M55.75,148.79H35.78l-7.26,6.49l6.9,7.47h20.33C55.75,162.75,55.56,148.79,55.75,148.79z"/>
	<path id="Path_6623" class="st0" d="M55.75,162.56H35.78l-7.26,6.49l6.9,7.47l20.33,0.28V162.56z"/>
	<path id="Path_6624" class="st0" d="M55.75,176.52H35.78L28.52,183l6.9,7.47h20.51C55.93,190.47,55.56,176.52,55.75,176.52z"/>
	<path id="Path_6625" class="st0" d="M30.43,143.11l3.32-1.95h22v7.82H36.01l-4.52-4.8L30.43,143.11z"/>
</g>
<g id="Group_5602" transform="translate(118.157 110.481)">
	<path id="Path_6619-2" class="st0" d="M118.16,141.53h20.37l7.4,6.49l-7.04,7.47h-20.73V141.53z"/>
	<path id="Path_6620-2" class="st0" d="M118.16,155.3h20.37l7.4,6.49l-7.04,7.47h-20.73C118.16,169.26,118.34,155.3,118.16,155.3z"
		/>
	<path id="Path_6621-2" class="st0" d="M118.16,169.26h20.37l7.4,6.49l-7.04,7.47h-20.73C118.16,183.22,118.34,169.26,118.16,169.26
		z"/>
	<path id="Path_6622-2" class="st0" d="M165.75,148.79h-19.96l-7.26,6.49l6.9,7.47h20.33C165.75,162.75,165.56,148.79,165.75,148.79
		z"/>
	<path id="Path_6623-2" class="st0" d="M165.75,162.56h-19.96l-7.26,6.49l6.9,7.47l20.33,0.28L165.75,162.56z"/>
	<path id="Path_6624-2" class="st0" d="M165.75,176.52h-19.96l-7.26,6.49l6.9,7.47h20.51C165.93,190.47,165.56,176.52,165.75,176.52
		z"/>
	<path id="Path_6625-2" class="st0" d="M140.43,143.11l3.32-1.95h22v7.82h-19.73l-4.52-4.8L140.43,143.11z"/>
</g>
<g id="Group_5600" transform="translate(113.992 276.347)">
	<g id="Group_5547" transform="translate(0)">
		<path id="Path_6575" class="st0" d="M161.77,338.36H141.4l-7.4,6.49l7.04,7.47h20.74C161.77,352.32,161.58,338.36,161.77,338.36z"
			/>
		<path id="Path_6576" class="st0" d="M161.77,352.13H141.4l-7.4,6.49l7.04,7.47h20.74C161.77,366.09,161.58,352.13,161.77,352.13z"
			/>
		<path id="Path_6577" class="st0" d="M161.76,366.09H141.4l-7.4,6.49l7.04,7.47h20.74L161.76,366.09z"/>
		<path id="Path_6578" class="st0" d="M114.17,345.63h19.96l7.26,6.49l-6.9,7.47h-20.51C113.99,359.59,114.35,345.63,114.17,345.63z
			"/>
		<path id="Path_6579" class="st0" d="M114.17,359.39h19.96l7.26,6.49l-6.9,7.47h-20.51C113.99,373.35,114.35,359.39,114.17,359.39z
			"/>
		<path id="Path_6580" class="st0" d="M114.17,373.35h19.96l7.26,6.49l-6.9,7.47h-20.51C113.99,387.31,114.35,373.35,114.17,373.35z
			"/>
		<path id="Path_6581" class="st0" d="M138.99,339.84l-2.68-1.86h-21.02v7.82h18.85C135.62,343.7,137.24,341.71,138.99,339.84z"/>
	</g>
	<g id="Group_5548" transform="translate(0 20.966)">
		<path id="Path_6582" class="st0" d="M114.18,408.02h20.37l7.4-6.49l-7.04-7.47h-20.92C113.99,394.06,114.36,408.02,114.18,408.02z
			"/>
		<path id="Path_6583" class="st0" d="M114.18,394.24h20.37l7.4-6.49l-7.04-7.47h-20.92C113.99,380.28,114.36,394.24,114.18,394.24z
			"/>
		<path id="Path_6584" class="st0" d="M114.18,380.28h20.37l7.4-6.49l-7.04-7.47h-20.92C113.99,366.32,114.36,380.28,114.18,380.28z
			"/>
		<path id="Path_6585" class="st0" d="M161.77,400.76H141.8l-7.26-6.49l6.9-7.47h20.33C161.77,386.8,161.59,400.76,161.77,400.76z"
			/>
		<path id="Path_6586" class="st0" d="M161.77,386.98H141.8l-7.26-6.49l6.9-7.47h20.33C161.77,373.02,161.59,386.98,161.77,386.98z"
			/>
		<path id="Path_6587" class="st0" d="M161.77,373.02H141.8l-7.26-6.49l6.9-7.47h20.33C161.77,359.06,161.59,373.02,161.77,373.02z"
			/>
		<path id="Path_6588" class="st0" d="M136.95,406.52l2.68,1.86h21.02v-7.82H141.8C140.33,402.66,138.7,404.65,136.95,406.52z"/>
	</g>
	<g id="Group_5549" transform="translate(0 31.529)">
		<path id="Path_6589" class="st0" d="M114.18,411.37h20.37l7.4-6.49l-7.04-7.47h-20.92C113.99,397.41,114.36,411.37,114.18,411.37z
			"/>
		<path id="Path_6666" class="st0" d="M114.18,419.41h20.37l7.4-6.49l-7.04-7.47h-20.92C113.99,405.46,114.36,419.41,114.18,419.41z
			"/>
		<path id="Path_6590" class="st0" d="M114.18,397.6h20.37l7.4-6.49l-7.04-7.47h-20.92C113.99,383.64,114.36,397.6,114.18,397.6z"/>
		<path id="Path_6591" class="st0" d="M114.18,383.65h20.37l7.4-6.49l-7.04-7.47h-20.92C113.99,369.69,114.36,383.65,114.18,383.65z
			"/>
		<path id="Path_6592" class="st0" d="M161.77,404.11H141.8l-7.26-6.49l6.9-7.47h20.33C161.77,390.16,161.59,404.11,161.77,404.11z"
			/>
		<path id="Path_6595" class="st0" d="M138.25,409.89l2.68,1.86h20.78v-7.82H143.1C141.62,406.02,140,408.01,138.25,409.89z"/>
	</g>
	<path id="Path_6596" class="st0" d="M134.09,449.01l2.67,1.86h25.01v-7.82h-22.86C137.44,445.15,135.83,447.14,134.09,449.01z"/>
</g>
<g id="Group_5550" transform="translate(12.992 274.341)">
	<g id="Group_5547-2">
		<path id="Path_6575-2" class="st0" d="M13.18,336.34h20.37l7.4,6.49l-7.04,7.47H13.18C13.18,350.3,13.36,336.34,13.18,336.34z"/>
		<path id="Path_6576-2" class="st0" d="M13.18,350.12h20.37l7.4,6.49l-7.04,7.47H13.18C13.18,364.07,13.36,350.12,13.18,350.12z"/>
		<path id="Path_6577-2" class="st0" d="M13.18,364.07h20.37l7.4,6.49l-7.04,7.47H13.18V364.07z"/>
		<path id="Path_6578-2" class="st0" d="M60.77,343.61H40.8l-7.26,6.49l6.9,7.47h20.51C60.95,357.57,60.59,343.61,60.77,343.61z"/>
		<path id="Path_6579-2" class="st0" d="M60.77,357.37H40.8l-7.26,6.49l6.9,7.47h20.51C60.95,371.33,60.59,357.37,60.77,357.37z"/>
		<path id="Path_6580-2" class="st0" d="M60.77,371.33H40.8l-7.26,6.49l6.9,7.47h20.51C60.95,385.29,60.59,371.33,60.77,371.33z"/>
		<path id="Path_6581-2" class="st0" d="M35.95,337.82l2.68-1.86h21.02v7.82H40.8C39.33,341.69,37.7,339.69,35.95,337.82z"/>
	</g>
	<g id="Group_5548-2" transform="translate(0.09 20.966)">
		<path id="Path_6582-2" class="st0" d="M60.67,406H40.3l-7.4-6.49l7.04-7.47h20.92C60.86,392.04,60.49,406,60.67,406z"/>
		<path id="Path_6583-2" class="st0" d="M60.67,392.22H40.3l-7.4-6.49l7.04-7.47h20.92C60.86,378.26,60.49,392.22,60.67,392.22z"/>
		<path id="Path_6584-2" class="st0" d="M60.67,378.26H40.3l-7.4-6.49l7.04-7.47h20.92C60.86,364.31,60.49,378.26,60.67,378.26z"/>
		<path id="Path_6585-2" class="st0" d="M13.08,398.74h19.96l7.26-6.49l-6.9-7.47H13.08C13.08,384.78,13.26,398.74,13.08,398.74z"/>
		<path id="Path_6586-2" class="st0" d="M13.08,384.96h19.96l7.26-6.49L33.4,371H13.08C13.08,371.01,13.26,384.96,13.08,384.96z"/>
		<path id="Path_6587-2" class="st0" d="M13.08,371.01h19.96l7.26-6.49l-6.9-7.47H13.08C13.08,357.05,13.26,371.01,13.08,371.01z"/>
		<path id="Path_6588-2" class="st0" d="M37.9,404.51l-2.68,1.86H14.2v-7.82h18.85C34.52,400.64,36.15,402.64,37.9,404.51z"/>
	</g>
	<g id="Group_5549-2" transform="translate(0.091 31.529)">
		<path id="Path_6589-2" class="st0" d="M60.67,409.36H40.3l-7.4-6.49l7.04-7.47h20.92C60.87,395.4,60.49,409.36,60.67,409.36z"/>
		<path id="Path_6590-2" class="st0" d="M60.67,395.59H40.3l-7.4-6.49l7.04-7.47h20.92C60.87,381.63,60.49,395.59,60.67,395.59z"/>
		<path id="Path_6591-2" class="st0" d="M60.67,381.63H40.3l-7.4-6.49l7.04-7.47h20.92C60.87,367.67,60.49,381.63,60.67,381.63z"/>
		<path id="Path_6592-2" class="st0" d="M13.08,402.1h19.96l7.26-6.49l-6.9-7.47H13.08C13.08,388.14,13.26,402.1,13.08,402.1z"/>
		<path id="Path_6595-2" class="st0" d="M36.6,407.87l-2.68,1.86H13.14v-7.82h18.61C33.23,404.01,34.85,406,36.6,407.87z"/>
	</g>
	<path id="Path_6596-2" class="st0" d="M40.85,446.99l-2.67,1.86H13.17v-7.82h22.86C37.5,443.13,39.11,445.12,40.85,446.99z"/>
</g>
<path id="Path_6633" class="st1" d="M5.76,294.15h30.92l6.9,6.8l193.04-0.71l-2.43-6.55l20.55-0.21l41.47,1.77v138.48H5.2
	C5.2,433.74,5.21,294.7,5.76,294.15z"/>
<path id="Path_6634" class="st2" d="M27.87,433.81L29.94,670c0,0-3.46,43.76,24.88,57.65c0,0,31.81,24.23,105.04,22.23
	c24.57-0.67,64.96-4.17,93.29-31.26c0,0,18.66-11.11,14.51-43.07l2.76-242.45L27.87,433.81z"/>
<path id="Path_6635" class="st3" d="M45.35,648.52l24.73-22.86L58.72,607.3l-13.82,0.99L45.35,648.52z"/>
<path id="Path_6636" class="st4" d="M75.63,0v234.18h20.81V0H75.63z M86.98,16.84c-1.97,0-3.57-1.59-3.57-3.56S85,9.7,86.96,9.7
	c1.97,0,3.57,1.59,3.57,3.56v0.01C90.54,15.24,88.95,16.84,86.98,16.84L86.98,16.84L86.98,16.84z"/>
<path id="Path_6637" class="st4" d="M201.34,0v234.18h20.81V0H201.34z M212.69,16.84c-1.97,0-3.57-1.59-3.57-3.56
	s1.59-3.58,3.55-3.58c1.97,0,3.57,1.59,3.57,3.56v0.01C216.24,15.24,214.65,16.84,212.69,16.84L212.69,16.84z"/>
<rect id="Rectangle_24249" y="224.99" class="st5" width="300" height="14.8"/>
<g id="Group_5557" transform="translate(32.416 104.064)">
	<rect id="Rectangle_24250" x="43.58" y="134.7" class="st6" width="50.4" height="18.37"/>
	<rect id="Rectangle_24251" x="56.44" y="147.7" class="st7" width="21.59" height="27.56"/>
	<path id="Path_6638" class="st8" d="M44.06,147.28l-11.64,25.05v31.7l8.25,14.64l1.7-29.51h-2.43V175.5h16.5v-22.92H43.58
		L44.06,147.28z"/>
	<rect id="Rectangle_24252" x="46" y="153.31" class="st9" width="8.25" height="18.78"/>
	<rect id="Rectangle_24253" x="78.03" y="158.92" class="st8" width="3.88" height="5.12"/>
	<path id="Rectangle_24254" class="st10" d="M84.1,146.97L84.1,146.97c1.65,0,3,1.34,3,3v23.09c0,1.66-1.34,3-3,3l0,0
		c-1.65,0-2.99-1.34-2.99-3v-23.09C81.1,148.32,82.44,146.97,84.1,146.97z"/>
</g>
<path id="Path_6639" class="st11" d="M43.58,300.96l13.56,132.81h181.11l15.64-132.68C253.88,301.09,43.58,301.26,43.58,300.96z"/>
<path id="Path_6640" class="st12" d="M36.68,294.15l7.86,139.61h12.6L43.58,300.95L36.68,294.15z"/>
<g id="Group_5590">
	<path id="Path_6661" class="st13" d="M43.72,433.6l1.8,238.68c0,0-3.42,37.54,18.16,50.51c0,0,30.89,20.63,94.25,18.89
		c21.26-0.58,52.56-0.91,80.98-24c7.82-6.36,15.6-13.87,14.11-43.1l0.58-241.59L43.72,433.6z"/>
</g>
<path id="Path_6641" class="st14" d="M238.25,433.76l15.64-132.68l5.21-0.44l-16.5,133.99L238.25,433.76z"/>
<rect id="Rectangle_24255" x="72.33" y="373.95" class="st15" width="156.36" height="60.26"/>
<path id="Path_6642" class="st16" d="M228.69,373.95l-6.52,59.81h6.52V373.95z"/>
<g id="Group_5558" transform="translate(64.999 156.476)">
	<rect id="Rectangle_24256" x="65.54" y="217.47" class="st17" width="35.68" height="26.43"/>
	<ellipse id="Ellipse_410" class="st18" cx="83.78" cy="245.49" rx="18.78" ry="5.15"/>
	<path id="Path_6643" class="st19" d="M97.19,246.08c-4.56-1.74-9.34-2.87-14.2-3.35c-4.47-0.28-13.42,3.35-13.42,3.35v31.53H97.2
		L97.19,246.08z"/>
</g>
<g id="Group_5560" transform="translate(20.941 159.506)">
	<rect id="Rectangle_24257" x="23.92" y="220.52" class="st20" width="19.32" height="22.38"/>
	<path id="Path_6644" class="st21" d="M27.68,241.7l6.71,32.63h11.54l-7.51-33.17C38.41,241.16,27.27,242.1,27.68,241.7z"/>
	<g id="Group_5559" transform="translate(0 0.208)">
		<path id="Path_6645" d="M28.48,250.69h-7.54v-29.96h1.66v28.29h5.88V250.69z"/>
	</g>
</g>
<g id="Group_5562" transform="translate(115.933 159.506)">
	<rect id="Rectangle_24258" x="118.61" y="220.52" class="st20" width="19.32" height="22.38"/>
	<path id="Path_6646" class="st21" d="M134.18,241.7l-6.71,32.63h-11.54l7.51-33.17C123.45,241.16,134.58,242.1,134.18,241.7z"/>
	<g id="Group_5561" transform="translate(8.719 0.208)">
		<path id="Path_6647" d="M124.65,250.69h7.54v-29.96h-1.66v28.29h-5.87L124.65,250.69z"/>
	</g>
</g>
<path id="Path_6648" class="st22" d="M42.48,433.61l2.47,177.18c0,0,8.4,7.94,12.84-1.49V434.2L42.48,433.61z"/>
<path id="Rectangle_24259" class="st23" d="M56,434.2h186.53l0,0v157.23c0,19.94-16.12,36.1-36,36.1H92c-19.88,0-36-16.16-36-36.1
	V434.2L56,434.2z"/>
<g id="Group_5565" transform="translate(36 193.361)">
	<g id="Rectangle_24260">
		<path class="st24" d="M46,254.56L46,254.56c5.52,0,10,4.49,10,10.03v71.3c0,5.54-4.48,10.03-10,10.03l0,0
			c-5.52,0-10-4.49-10-10.03v-71.3C36,259.05,40.48,254.56,46,254.56z"/>
		<path class="st25" d="M46,252.55L46,252.55c6.63,0,12,5.39,12,12.03v71.3c0,6.65-5.37,12.03-12,12.03l0,0
			c-6.63,0-12-5.39-12-12.03v-71.3C34,257.94,39.37,252.55,46,252.55z"/>
	</g>
	<g id="Group_5564">
		<g>
			<g>
				<g>
					<defs>
						<path id="SVGID_1_" d="M46,254.56L46,254.56c5.52,0,10,4.49,10,10.03v71.3c0,5.54-4.48,10.03-10,10.03l0,0
							c-5.52,0-10-4.49-10-10.03v-71.3C36,259.05,40.48,254.56,46,254.56z"/>
					</defs>
					<clipPath id="SVGID_2_">
						<use xlink:href="#SVGID_1_"  style="overflow:visible;"/>
					</clipPath>
					<g id="Group_5563" class="st26">
						<path id="Path_6649" class="st16" d="M35.87,267.21l6.66,0.24c0,0,4.65-1.43,5.11,6.66v73.31l11.62-2.86l3.25-44.52
							l-5.27-43.8l-9.45-11.43L32,250.06l-0.62,18.33L35.87,267.21z"/>
					</g>
				</g>
			</g>
		</g>
	</g>
</g>
<path class="st24" d="M127.77,449.8L127.77,449.8c5.34,0,9.67,4.34,9.67,9.7v68.96c0,5.36-4.33,9.7-9.67,9.7l0,0
	c-5.34,0-9.67-4.34-9.67-9.7V459.5C118.1,454.14,122.43,449.8,127.77,449.8z"/>
<path class="st25" d="M127.77,447.85L127.77,447.85c6.41,0,11.61,5.21,11.61,11.63v68.96c0,6.43-5.19,11.63-11.61,11.63l0,0
	c-6.41,0-11.61-5.21-11.61-11.63v-68.96C116.17,453.07,121.36,447.85,127.77,447.85z"/>
<g>
	<g>
		<g>
			<defs>
				<path id="SVGID_3_" d="M127.77,449.8L127.77,449.8c5.34,0,9.67,4.34,9.67,9.7v68.96c0,5.36-4.33,9.7-9.67,9.7l0,0
					c-5.34,0-9.67-4.34-9.67-9.7V459.5C118.1,454.14,122.43,449.8,127.77,449.8z"/>
			</defs>
			<clipPath id="SVGID_4_">
				<use xlink:href="#SVGID_3_"  style="overflow:visible;"/>
			</clipPath>
			<g id="Group_5566" class="st27">
				<path id="Path_6650" class="st16" d="M117.98,462.03l6.44,0.23c0,0,4.5-1.38,4.94,6.44v70.9l11.24-2.77l3.14-43.06l-5.1-42.36
					l-9.14-11.05l-15.27,5.08l-0.6,17.73L117.98,462.03z"/>
			</g>
		</g>
	</g>
</g>
<path class="st24" d="M168.39,449.8L168.39,449.8c5.34,0,9.67,4.34,9.67,9.7v68.96c0,5.36-4.33,9.7-9.67,9.7l0,0
	c-5.34,0-9.67-4.34-9.67-9.7V459.5C158.72,454.14,163.06,449.8,168.39,449.8z"/>
<path class="st25" d="M168.39,447.85L168.39,447.85c6.41,0,11.61,5.21,11.61,11.63v68.96c0,6.43-5.19,11.63-11.61,11.63l0,0
	c-6.41,0-11.61-5.21-11.61-11.63v-68.96C156.79,453.07,161.98,447.85,168.39,447.85z"/>
<g>
	<g>
		<g>
			<defs>
				<path id="SVGID_5_" d="M168.39,449.8L168.39,449.8c5.34,0,9.67,4.34,9.67,9.7v68.96c0,5.36-4.33,9.7-9.67,9.7l0,0
					c-5.34,0-9.67-4.34-9.67-9.7V459.5C158.72,454.14,163.06,449.8,168.39,449.8z"/>
			</defs>
			<clipPath id="SVGID_6_">
				<use xlink:href="#SVGID_5_"  style="overflow:visible;"/>
			</clipPath>
			<g id="Group_5569" class="st28">
				<path id="Path_6651" class="st16" d="M158.6,462.03l6.44,0.23c0,0,4.5-1.38,4.94,6.44v70.9l11.24-2.77l3.14-43.06l-5.1-42.36
					l-9.14-11.05l-15.27,5.08l-0.6,17.73L158.6,462.03z"/>
			</g>
		</g>
	</g>
</g>
<path class="st24" d="M212,447.92L212,447.92c5.52,0,10,4.49,10,10.03v71.3c0,5.54-4.48,10.03-10,10.03l0,0
	c-5.52,0-10-4.49-10-10.03v-71.3C202,452.41,206.48,447.92,212,447.92z"/>
<path class="st25" d="M212,445.91L212,445.91c6.63,0,12,5.39,12,12.03v71.3c0,6.65-5.37,12.03-12,12.03l0,0
	c-6.63,0-12-5.39-12-12.03v-71.3C200,451.3,205.37,445.91,212,445.91z"/>
<g>
	<defs>
		<path id="SVGID_7_" d="M212,447.92L212,447.92c5.52,0,10,4.49,10,10.03v71.3c0,5.54-4.48,10.03-10,10.03l0,0
			c-5.52,0-10-4.49-10-10.03v-71.3C202,452.41,206.48,447.92,212,447.92z"/>
	</defs>
	<clipPath id="SVGID_8_">
		<use xlink:href="#SVGID_7_"  style="overflow:visible;"/>
	</clipPath>
	<g id="Group_5572" class="st29">
		<path id="Path_6652" class="st16" d="M201.87,460.57l6.66,0.24c0,0,4.65-1.43,5.11,6.66v73.31l11.62-2.86l3.25-44.52l-5.27-43.79
			l-9.45-11.43l-15.8,5.24l-0.62,18.33L201.87,460.57z"/>
	</g>
</g>
<path class="st24" d="M82.16,554.48L82.16,554.48c0-3.22,2.6-5.83,5.81-5.83h48.63c3.21,0,5.81,2.61,5.81,5.83l0,0
	c0,3.22-2.6,5.83-5.81,5.83H87.99C84.77,560.31,82.16,557.7,82.16,554.48z"/>
<path class="st25" d="M80.23,554.48L80.23,554.48c0-4.29,3.47-7.78,7.75-7.78h48.63c4.28,0,7.75,3.48,7.75,7.78l0,0
	c0,4.29-3.47,7.78-7.75,7.78H87.99C83.7,562.25,80.23,558.77,80.23,554.48z"/>
<g>
	<g>
		<g>
			<defs>
				<path id="SVGID_9_" d="M82.16,554.48L82.16,554.48c0-3.22,2.6-5.83,5.81-5.83h48.63c3.21,0,5.81,2.61,5.81,5.83l0,0
					c0,3.22-2.6,5.83-5.81,5.83H87.99C84.77,560.31,82.16,557.7,82.16,554.48z"/>
			</defs>
			<clipPath id="SVGID_10_">
				<use xlink:href="#SVGID_9_"  style="overflow:visible;"/>
			</clipPath>
			<g id="Group_5575" transform="translate(0 0)" class="st30">
				<path id="Path_6653" class="st16" d="M134.08,560.33l-0.15-3.78c0-0.04,0-0.07,0.01-0.1c0.1-0.37,0.51-2.69-4.41-2.94H82.31
					c-0.6,0-1.06-0.31-0.97-0.65l-0.92-6.42c1.12-0.02,2.25,0.07,3.36,0.24l28.48-1.84c0.1-0.01,0.19-0.01,0.29,0l28.39,3.02
					c0.21,0.02,0.42,0.09,0.59,0.2l7.02,5.14c0.16,0.09,0.25,0.28,0.19,0.46l-3.2,8.53c-0.19,0.31-0.54,0.47-0.91,0.44l-10.12,0.3
					c-0.63,0.02-1.12-0.3-1.02-0.66l0.56-1.88C134.08,560.4,134.08,560.37,134.08,560.33z"/>
			</g>
		</g>
	</g>
</g>
<path class="st24" d="M158.49,556.15L158.49,556.15c0-3.33,2.69-6.03,6.01-6.03h50.28c3.32,0,6.01,2.7,6.01,6.03l0,0
	c0,3.33-2.69,6.03-6.01,6.03h-50.28C161.18,562.18,158.49,559.48,158.49,556.15z"/>
<path class="st25" d="M156.49,556.15L156.49,556.15c0-4.44,3.59-8.04,8.01-8.04h50.28c4.43,0,8.01,3.6,8.01,8.04l0,0
	c0,4.44-3.59,8.04-8.01,8.04h-50.28C160.08,564.19,156.49,560.59,156.49,556.15z"/>
<g>
	<g>
		<g>
			<defs>
				<path id="SVGID_11_" d="M158.49,556.16L158.49,556.16c0-3.33,2.69-6.03,6.01-6.03h50.28c3.32,0,6.01,2.7,6.01,6.03l0,0
					c0,3.33-2.69,6.03-6.01,6.03h-50.28C161.18,562.19,158.49,559.49,158.49,556.16z"/>
			</defs>
			<clipPath id="SVGID_12_">
				<use xlink:href="#SVGID_11_"  style="overflow:visible;"/>
			</clipPath>
			<g id="Group_5578" class="st31">
				<path id="Path_6654" class="st16" d="M212.17,562.21l-0.16-3.91c0-0.04,0-0.07,0.01-0.1c0.1-0.38,0.53-2.78-4.56-3.04h-48.81
					c-0.62,0-1.1-0.32-1-0.67l-0.95-6.64c1.16-0.02,2.33,0.07,3.47,0.25l29.45-1.9c0.1-0.01,0.2-0.01,0.3,0l29.35,3.12
					c0.22,0.02,0.43,0.09,0.61,0.21l7.26,5.31c0.17,0.09,0.26,0.29,0.2,0.48l-3.31,8.82c-0.2,0.31-0.56,0.49-0.94,0.46l-10.46,0.31
					c-0.65,0.02-1.16-0.31-1.05-0.68l0.58-1.94C212.17,562.28,212.17,562.25,212.17,562.21z"/>
			</g>
		</g>
	</g>
</g>
<ellipse class="st24" cx="98.59" cy="592.52" rx="17.1" ry="17.19"/>
<ellipse class="st25" cx="98.59" cy="592.52" rx="19.1" ry="19.19"/>
<g>
	<g>
		<g>
			<defs>
				<ellipse id="SVGID_13_" cx="98.59" cy="592.51" rx="16.76" ry="16.84"/>
			</defs>
			<clipPath id="SVGID_14_">
				<use xlink:href="#SVGID_13_"  style="overflow:visible;"/>
			</clipPath>
			<g id="Group_5581" class="st32">
				<path id="Path_6655" class="st16" d="M80.5,585.1c0,0,24.97,4.72,23.8,26.95l26.47-9.77l-4.86-32.34l-36.86-0.51l-8.2,10.27
					L80.5,585.1z"/>
			</g>
		</g>
	</g>
</g>
<ellipse class="st24" cx="199.3" cy="592.52" rx="17.1" ry="17.19"/>
<ellipse class="st25" cx="199.3" cy="592.52" rx="19.1" ry="19.19"/>
<g>
	<g>
		<g>
			<defs>
				<ellipse id="SVGID_15_" cx="199.3" cy="592.51" rx="16.76" ry="16.84"/>
			</defs>
			<clipPath id="SVGID_16_">
				<use xlink:href="#SVGID_15_"  style="overflow:visible;"/>
			</clipPath>
			<g id="Group_5584" class="st33">
				<path id="Path_6656" class="st16" d="M181.2,585.1c0,0,24.97,4.72,23.8,26.95l26.47-9.77l-4.86-32.34l-36.86-0.51l-8.21,10.27
					L181.2,585.1z"/>
			</g>
		</g>
	</g>
</g>
<g id="Group_5589" transform="translate(22.765 282.548)">
	<path id="Path_6657" class="st34" d="M44.93,344.45l-21.65,21.84l207.24-0.15l-23.23-21.69
		C207.29,344.45,44.43,343.95,44.93,344.45z"/>
	<g id="Group_5588">
		<g>
			<g>
				<g>
					<defs>
						<path id="SVGID_17_" d="M44.93,344.45l-22.16,22.03l205.68-0.18l-21.16-21.84C207.29,344.45,44.43,343.95,44.93,344.45z"/>
					</defs>
					<clipPath id="SVGID_18_">
						<use xlink:href="#SVGID_17_"  style="overflow:visible;"/>
					</clipPath>
					<g id="Group_5587" class="st35">
						<rect id="Rectangle_24272" x="24.82" y="337.04" class="st36" width="189.56" height="18.99"/>
						<path id="Path_6658" class="st37" d="M219.12,367.36l-25.8-24.2l14.54-2.45l31.14,28.8l-8.6,6.13L219.12,367.36z"/>
						<path id="Path_6659" class="st38" d="M58.64,341.33L34.02,368.9l-19.88-0.92l16.32-28.18L58.64,341.33z"/>
					</g>
				</g>
			</g>
		</g>
	</g>
</g>
<rect x="35.42" y="648.25" class="st39" width="236.91" height="100.45"/>
<path id="Path_6662" class="st24" d="M230.06,626.99l23.25,21.29l3.46-215.17l-13.95,1.09l0.12,171.62
	C242.94,605.82,244.91,625.65,230.06,626.99z"/>
<path id="Path_6663" class="st40" d="M74.81,293.23h150.62v30.23l-150.62,0.02V293.23z"/>
<rect id="Rectangle_24274" x="76" y="238.76" class="st6" width="50.4" height="18.37"/>
<rect id="Rectangle_24275" x="88.86" y="251.76" class="st7" width="21.59" height="27.56"/>
<path id="Path_6664" class="st8" d="M76.48,251.34l-11.64,25.05v31.7l9.95,15.64v-30.52h-2.43v-13.65h16.5v-22.92H76L76.48,251.34z"
	/>
<rect id="Rectangle_24276" x="78.42" y="257.37" class="st9" width="8.25" height="18.78"/>
<rect id="Rectangle_24277" x="110.45" y="262.98" class="st8" width="3.88" height="5.12"/>
<path id="Rectangle_24278" class="st10" d="M116.52,251.03L116.52,251.03c1.65,0,3,1.34,3,3v23.09c0,1.66-1.34,3-3,3l0,0
	c-1.65,0-2.99-1.34-2.99-3v-23.09C113.52,252.38,114.86,251.03,116.52,251.03z"/>
<rect id="Rectangle_24279" x="174.36" y="238.76" class="st6" width="50.4" height="18.37"/>
<rect id="Rectangle_24280" x="190.3" y="251.76" class="st7" width="21.59" height="27.56"/>
<path id="Path_6665" class="st8" d="M224.26,251.34l11.65,25.05v31.7l-10.92,15.56l0.36-30.44h3.04v-13.65h-16.5v-22.92h12.86
	L224.26,251.34z"/>
<rect id="Rectangle_24281" x="214.08" y="257.37" class="st9" width="8.25" height="18.78"/>
<rect id="Rectangle_24282" x="186.42" y="262.98" class="st8" width="3.88" height="5.12"/>
<path id="Rectangle_24283" class="st10" d="M184.24,280.13L184.24,280.13c-1.65,0-3-1.34-3-3v-23.09c0-1.66,1.34-3,3-3l0,0
	c1.65,0,2.99,1.34,2.99,3v23.09C187.23,278.78,185.89,280.13,184.24,280.13z"/>
</svg>
