<?xml version="1.0" encoding="utf-8"?>
<!-- Generator: Adobe Illustrator 24.2.3, SVG Export Plug-In . SVG Version: 6.00 Build 0)  -->
<svg version="1.1" id="Layer_1" xmlns="http://www.w3.org/2000/svg" xmlns:xlink="http://www.w3.org/1999/xlink" x="0px" y="0px"
	 viewBox="0 0 300 285.44" style="enable-background:new 0 0 300 285.44;" xml:space="preserve">
<style type="text/css">
	.st0{fill:url(#Path_6473_1_);}
	.st1{fill:#636464;}
	.st2{opacity:0.5;}
	.st3{fill:url(#Path_6476_1_);}
	.st4{fill:#F6C52C;}
	.st5{fill:#E8E7E7;}
	.st6{fill:#181919;}
	.st7{fill:url(#Rectangle_24235_1_);}
	.st8{fill:#B23225;}
	.st9{fill:url(#Rectangle_24236_1_);stroke:#9E9E9E;}
	.st10{fill:#911E1D;}
	.st11{fill:#A92E23;}
	.st12{clip-path:url(#SVGID_2_);}
	.st13{fill:#EF4E3C;}
	.st14{clip-path:url(#SVGID_4_);}
	.st15{fill:#9E9E9E;}
	.st16{opacity:0.61;fill:url(#Rectangle_24240_2_);enable-background:new    ;}
	.st17{opacity:0.61;fill:url(#Rectangle_24240_3_);enable-background:new    ;}
	.st18{opacity:0.61;fill:url(#Rectangle_24241_1_);enable-background:new    ;}
	.st19{opacity:0.61;fill:url(#Rectangle_24242_1_);enable-background:new    ;}
	.st20{opacity:0.61;fill:url(#Rectangle_24243_1_);enable-background:new    ;}
	.st21{opacity:0.61;fill:url(#Rectangle_24244_1_);enable-background:new    ;}
	.st22{opacity:0.61;fill:url(#Rectangle_24245_1_);enable-background:new    ;}
	.st23{opacity:0.61;fill:url(#Rectangle_24246_1_);enable-background:new    ;}
	.st24{fill:url(#Rectangle_24247_2_);}
	.st25{fill:url(#Rectangle_24248_2_);}
	.st26{fill:#AAAAAA;}
	.st27{fill:none;stroke:#616262;}
</style>
<g id="Group_5523" transform="translate(144.047 176.012)">
	<g id="Group_5522" transform="translate(0 0)">
		<rect id="Rectangle_24157" x="107.97" y="-85.33" width="1.9" height="67.9"/>
		<g id="Group_5521" transform="translate(1.216 0)">
			
				<linearGradient id="Path_6473_1_" gradientUnits="userSpaceOnUse" x1="-3953.1467" y1="-2199.8376" x2="-3953.1467" y2="-2199.0356" gradientTransform="matrix(33.7841 0 0 100.672 133675.0781 221370.7813)">
				<stop  offset="0" style="stop-color:#3B3B3B"/>
				<stop  offset="0.21" style="stop-color:#6E6E6F"/>
				<stop  offset="0.388" style="stop-color:#7B7B7B"/>
				<stop  offset="0.54" style="stop-color:#444444"/>
				<stop  offset="0.898" style="stop-color:#161616"/>
				<stop  offset="1" style="stop-color:#262626"/>
			</linearGradient>
			<path id="Path_6473" class="st0" d="M128.86-92.21h-14.58c-3.22,0-5.84,3.08-5.84,6.88v66.17c0,3.8,2.62,6.89,5.84,6.89h14.58
				c3.22,0,5.84-3.09,5.84-6.89v-66.17C134.7-89.14,132.08-92.21,128.86-92.21z"/>
			<g id="Group_5515" transform="translate(0 2.826)">
				<path id="Path_6474" class="st1" d="M108.44-88.16h6.69v-4.64h-5.14C108.97-91.48,108.43-89.84,108.44-88.16z"/>
				<rect id="Rectangle_24158" x="107.7" y="-81.66" class="st1" width="7.43" height="4.64"/>
				<rect id="Rectangle_24159" x="107.7" y="-70.51" class="st1" width="7.43" height="4.64"/>
				<rect id="Rectangle_24160" x="107.7" y="-59.37" class="st1" width="7.43" height="4.64"/>
				<rect id="Rectangle_24161" x="107.7" y="-48.22" class="st1" width="7.43" height="4.64"/>
				<rect id="Rectangle_24162" x="107.7" y="-37.08" class="st1" width="7.43" height="4.64"/>
				<rect id="Rectangle_24163" x="107.7" y="-25.93" class="st1" width="7.43" height="4.64"/>
			</g>
			<g id="Group_5516" transform="translate(25.174 2.826)" class="st2">
				<path id="Path_6475" class="st1" d="M102.09-92.8v4.64h7.43c0.01-1.68-0.54-3.31-1.55-4.64H102.09z"/>
				<rect id="Rectangle_24164" x="102.09" y="-81.66" class="st1" width="7.43" height="4.64"/>
				<rect id="Rectangle_24165" x="102.09" y="-70.51" class="st1" width="7.43" height="4.64"/>
				<rect id="Rectangle_24166" x="102.09" y="-59.37" class="st1" width="7.43" height="4.64"/>
				<rect id="Rectangle_24167" x="102.09" y="-48.22" class="st1" width="7.43" height="4.64"/>
				<rect id="Rectangle_24168" x="102.09" y="-37.08" class="st1" width="7.43" height="4.64"/>
				<rect id="Rectangle_24169" x="102.09" y="-25.93" class="st1" width="7.43" height="4.64"/>
			</g>
			<g id="Group_5517" transform="translate(13.067 10.622)" class="st2">
				<rect id="Rectangle_24170" x="104.79" y="-94.4" class="st1" width="7.43" height="4.64"/>
				<rect id="Rectangle_24171" x="104.79" y="-83.26" class="st1" width="7.43" height="4.64"/>
				<rect id="Rectangle_24172" x="104.79" y="-72.11" class="st1" width="7.43" height="4.64"/>
				<rect id="Rectangle_24173" x="104.79" y="-60.97" class="st1" width="7.43" height="4.64"/>
				<rect id="Rectangle_24174" x="104.79" y="-49.83" class="st1" width="7.43" height="4.64"/>
				<rect id="Rectangle_24175" x="104.79" y="-38.68" class="st1" width="7.43" height="4.64"/>
			</g>
			<g id="Group_5518" transform="translate(13.067 2.826)" class="st2">
				<rect id="Rectangle_24176" x="104.79" y="-92.8" class="st1" width="7.43" height="4.64"/>
				<rect id="Rectangle_24177" x="104.79" y="-81.66" class="st1" width="7.43" height="4.64"/>
				<rect id="Rectangle_24178" x="104.79" y="-70.51" class="st1" width="7.43" height="4.64"/>
				<rect id="Rectangle_24179" x="104.79" y="-59.37" class="st1" width="7.43" height="4.64"/>
				<rect id="Rectangle_24180" x="104.79" y="-48.22" class="st1" width="7.43" height="4.64"/>
				<rect id="Rectangle_24181" x="104.79" y="-37.08" class="st1" width="7.43" height="4.64"/>
				<rect id="Rectangle_24182" x="104.79" y="-25.93" class="st1" width="7.43" height="4.64"/>
			</g>
			<g id="Group_5519" transform="translate(25.174 10.622)" class="st2">
				<rect id="Rectangle_24183" x="102.09" y="-94.4" class="st1" width="7.43" height="4.64"/>
				<rect id="Rectangle_24184" x="102.09" y="-83.26" class="st1" width="7.43" height="4.64"/>
				<rect id="Rectangle_24185" x="102.09" y="-72.11" class="st1" width="7.43" height="4.64"/>
				<rect id="Rectangle_24186" x="102.09" y="-60.97" class="st1" width="7.43" height="4.64"/>
				<rect id="Rectangle_24187" x="102.09" y="-49.83" class="st1" width="7.43" height="4.64"/>
				<rect id="Rectangle_24188" x="102.09" y="-38.68" class="st1" width="7.43" height="4.64"/>
			</g>
			<g id="Group_5520" transform="translate(0 10.622)">
				<rect id="Rectangle_24189" x="107.7" y="-94.4" class="st1" width="7.43" height="4.64"/>
				<rect id="Rectangle_24190" x="107.7" y="-83.26" class="st1" width="7.43" height="4.64"/>
				<rect id="Rectangle_24191" x="107.7" y="-72.11" class="st1" width="7.43" height="4.64"/>
				<rect id="Rectangle_24192" x="107.7" y="-60.97" class="st1" width="7.43" height="4.64"/>
				<rect id="Rectangle_24193" x="107.7" y="-49.83" class="st1" width="7.43" height="4.64"/>
				<rect id="Rectangle_24194" x="107.7" y="-38.68" class="st1" width="7.43" height="4.64"/>
			</g>
		</g>
	</g>
</g>
<g id="Group_5532" transform="translate(0 176.012)">
	<g id="Group_5531" transform="translate(0 0)">
		<rect id="Rectangle_24195" x="46.09" y="-85.33" width="1.9" height="67.9"/>
		<g id="Group_5530" transform="translate(0 0)">
			
				<linearGradient id="Path_6476_1_" gradientUnits="userSpaceOnUse" x1="-3665.2161" y1="-2199.8376" x2="-3665.2161" y2="-2199.0356" gradientTransform="matrix(33.783 0 0 100.672 123855.1719 221370.7813)">
				<stop  offset="0" style="stop-color:#3B3B3B"/>
				<stop  offset="0.21" style="stop-color:#6E6E6F"/>
				<stop  offset="0.388" style="stop-color:#7B7B7B"/>
				<stop  offset="0.54" style="stop-color:#444444"/>
				<stop  offset="0.898" style="stop-color:#161616"/>
				<stop  offset="1" style="stop-color:#262626"/>
			</linearGradient>
			<path id="Path_6476" class="st3" d="M25.88-92.21h14.58c3.22,0,5.84,3.08,5.84,6.88v66.17c0,3.8-2.62,6.89-5.84,6.89H25.88
				c-3.22,0-5.84-3.09-5.84-6.89v-66.17C20.04-89.14,22.66-92.21,25.88-92.21z"/>
			<g id="Group_5524" transform="translate(25.174 2.826)">
				<path id="Path_6477" class="st1" d="M21.13-88.16h-6.69v-4.64h5.14C20.59-91.48,21.14-89.84,21.13-88.16z"/>
				<rect id="Rectangle_24196" x="14.43" y="-81.66" class="st1" width="7.43" height="4.64"/>
				<rect id="Rectangle_24197" x="14.43" y="-70.51" class="st1" width="7.43" height="4.64"/>
				<rect id="Rectangle_24198" x="14.43" y="-59.37" class="st1" width="7.43" height="4.64"/>
				<rect id="Rectangle_24199" x="14.43" y="-48.22" class="st1" width="7.43" height="4.64"/>
				<rect id="Rectangle_24200" x="14.43" y="-37.08" class="st1" width="7.43" height="4.64"/>
				<rect id="Rectangle_24201" x="14.43" y="-25.93" class="st1" width="7.43" height="4.64"/>
			</g>
			<g id="Group_5525" transform="translate(0 2.826)" class="st2">
				<path id="Path_6478" class="st1" d="M27.47-92.8v4.64h-7.43c-0.01-1.68,0.54-3.31,1.55-4.64H27.47z"/>
				<rect id="Rectangle_24202" x="20.04" y="-81.66" class="st1" width="7.43" height="4.64"/>
				<rect id="Rectangle_24203" x="20.04" y="-70.51" class="st1" width="7.43" height="4.64"/>
				<rect id="Rectangle_24204" x="20.04" y="-59.37" class="st1" width="7.43" height="4.64"/>
				<rect id="Rectangle_24205" x="20.04" y="-48.22" class="st1" width="7.43" height="4.64"/>
				<rect id="Rectangle_24206" x="20.04" y="-37.08" class="st1" width="7.43" height="4.64"/>
				<rect id="Rectangle_24207" x="20.04" y="-25.93" class="st1" width="7.43" height="4.64"/>
			</g>
			<g id="Group_5526" transform="translate(12.11 10.622)" class="st2">
				<rect id="Rectangle_24208" x="17.34" y="-94.4" class="st1" width="7.43" height="4.64"/>
				<rect id="Rectangle_24209" x="17.34" y="-83.26" class="st1" width="7.43" height="4.64"/>
				<rect id="Rectangle_24210" x="17.34" y="-72.11" class="st1" width="7.43" height="4.64"/>
				<rect id="Rectangle_24211" x="17.34" y="-60.97" class="st1" width="7.43" height="4.64"/>
				<rect id="Rectangle_24212" x="17.34" y="-49.83" class="st1" width="7.43" height="4.64"/>
				<rect id="Rectangle_24213" x="17.34" y="-38.68" class="st1" width="7.43" height="4.64"/>
			</g>
			<g id="Group_5527" transform="translate(12.11 2.826)" class="st2">
				<rect id="Rectangle_24214" x="17.34" y="-92.8" class="st1" width="7.43" height="4.64"/>
				<rect id="Rectangle_24215" x="17.34" y="-81.66" class="st1" width="7.43" height="4.64"/>
				<rect id="Rectangle_24216" x="17.34" y="-70.51" class="st1" width="7.43" height="4.64"/>
				<rect id="Rectangle_24217" x="17.34" y="-59.37" class="st1" width="7.43" height="4.64"/>
				<rect id="Rectangle_24218" x="17.34" y="-48.22" class="st1" width="7.43" height="4.64"/>
				<rect id="Rectangle_24219" x="17.34" y="-37.08" class="st1" width="7.43" height="4.64"/>
				<rect id="Rectangle_24220" x="17.34" y="-25.93" class="st1" width="7.43" height="4.64"/>
			</g>
			<g id="Group_5528" transform="translate(0 10.622)" class="st2">
				<rect id="Rectangle_24221" x="20.04" y="-94.4" class="st1" width="7.43" height="4.64"/>
				<rect id="Rectangle_24222" x="20.04" y="-83.26" class="st1" width="7.43" height="4.64"/>
				<rect id="Rectangle_24223" x="20.04" y="-72.11" class="st1" width="7.43" height="4.64"/>
				<rect id="Rectangle_24224" x="20.04" y="-60.97" class="st1" width="7.43" height="4.64"/>
				<rect id="Rectangle_24225" x="20.04" y="-49.83" class="st1" width="7.43" height="4.64"/>
				<rect id="Rectangle_24226" x="20.04" y="-38.68" class="st1" width="7.43" height="4.64"/>
			</g>
			<g id="Group_5529" transform="translate(25.174 10.622)">
				<rect id="Rectangle_24227" x="14.43" y="-94.4" class="st1" width="7.43" height="4.64"/>
				<rect id="Rectangle_24228" x="14.43" y="-83.26" class="st1" width="7.43" height="4.64"/>
				<rect id="Rectangle_24229" x="14.43" y="-72.11" class="st1" width="7.43" height="4.64"/>
				<rect id="Rectangle_24230" x="14.43" y="-60.97" class="st1" width="7.43" height="4.64"/>
				<rect id="Rectangle_24231" x="14.43" y="-49.83" class="st1" width="7.43" height="4.64"/>
				<rect id="Rectangle_24232" x="14.43" y="-38.68" class="st1" width="7.43" height="4.64"/>
			</g>
		</g>
	</g>
</g>
<g id="Group_5535" transform="translate(47.262 0)">
	<g id="Group_5533">
		<path id="Path_6479" class="st4" d="M74.83,31.45l0.32,10.45l-5.94,1.16l-0.61-12.2l28.28-19.79l0.02-8.54h4.9l2,8.52L74.83,31.45
			z"/>
	</g>
	<g id="Group_5534" transform="translate(42.463)">
		<path id="Path_6480" class="st4" d="M87.66,31.45L87.34,41.9l5.94,1.16l0.61-12.2L65.61,11.07l-0.02-8.54h-4.9l-2,8.52
			L87.66,31.45z"/>
	</g>
</g>
<rect id="Rectangle_24233" x="31.47" y="49.64" class="st5" width="235.38" height="235.8"/>
<rect id="Rectangle_24234" x="43.68" y="53.55" class="st6" width="210.98" height="203.78"/>
<linearGradient id="Rectangle_24235_1_" gradientUnits="userSpaceOnUse" x1="-3673.0864" y1="-2205.9392" x2="-3673.0864" y2="-2204.9658" gradientTransform="matrix(100.682 0 0 205.127 369962.875 452555.3438)">
	<stop  offset="0" style="stop-color:#444444"/>
	<stop  offset="1" style="stop-color:#2F3334"/>
</linearGradient>
<rect id="Rectangle_24235" x="50.03" y="53.58" class="st7" width="198.27" height="203.74"/>
<g id="Group_5536" transform="translate(31.163 105.442)">
	<path id="Path_6481" class="st8" d="M88.97-57.08l2.01-0.02l0.91,0.6h-2.04L88.97-57.08z"/>
	<path id="Path_6482" class="st8" d="M94.54-56.5H92.5l-0.92-0.61l2.01-0.02L94.54-56.5z"/>
	<path id="Path_6483" class="st8" d="M93.07-57.47l-2.01,0.02l-0.89-0.58l2.01-0.02L93.07-57.47z"/>
	<path id="Path_6484" class="st8" d="M86.35-57.06l2.01-0.02l0.87,0.57h-2.04L86.35-57.06z"/>
	<path id="Path_6485" class="st8" d="M19.72-57.93l62.01-0.02l0.89,0.58l-2.01,0.02L19.72-57.93z"/>
	<path id="Path_6486" class="st8" d="M83.74-57.03l2.01-0.02l0.83,0.55h-2.04L83.74-57.03z"/>
	<path id="Path_6487" class="st8" d="M81.13-57.01l2.01-0.02l0.79,0.52h-2.04L81.13-57.01z"/>
	<path id="Path_6488" class="st8" d="M18.31-58.85l62.01-0.02l0.89,0.58L19.2-58.27L18.31-58.85z"/>
	<path id="Path_6489" class="st8" d="M83.82-58.32l-2.01,0.02l-0.89-0.58l2.01-0.02L83.82-58.32z"/>
	<path id="Path_6490" class="st8" d="M90.46-57.44l-2.01,0.02L87.56-58l2.01-0.02L90.46-57.44z"/>
	<path id="Path_6491" class="st8" d="M82.33-57.95l2.01-0.02l0.89,0.58l-2.01,0.02L82.33-57.95z"/>
	<path id="Path_6492" class="st8" d="M87.85-57.42l-2.01,0.02l-0.89-0.58L86.96-58L87.85-57.42z"/>
	<path id="Path_6493" class="st8" d="M89.05-58.37l-2.01,0.02l-0.89-0.58l2.01-0.02L89.05-58.37z"/>
	<path id="Path_6494" class="st8" d="M86.44-58.35l-2.01,0.02l-0.89-0.58l2.01-0.02L86.44-58.35z"/>
	<path id="Path_6495" class="st8" d="M17.01-57.9l2.11-0.02l0.89,0.58l-2.11,0.02L17.01-57.9z"/>
	<path id="Path_6496" class="st8" d="M80.53-57l0.75,0.49H19.15l-0.73-0.48L80.53-57z"/>
	<path id="Path_6497" class="st8" d="M95.15-56.51l-0.96-0.63l3.16-0.03l1.11,0.66H95.15z"/>
	<path id="Path_6498" class="st8" d="M93.67-57.48l-0.89-0.58l3.02-0.03l0.98,0.58L93.67-57.48z"/>
	<path id="Path_6499" class="st8" d="M95.23-58.43l-2.97,0.03l-0.89-0.58l2.89-0.03L95.23-58.43z"/>
	<path id="Path_6500" class="st8" d="M90.85-59.33l-0.91-0.6l2.83,0.02l0.92,0.55L90.85-59.33z"/>
	<path id="Path_6501" class="st8" d="M17.19-59.19l-2.12,0.02l-1.34-0.87l2.18,0.02L17.19-59.19z"/>
	<path id="Path_6502" class="st8" d="M18.59-60.01l1.21,0.79l-2.01,0.02l-1.26-0.83L18.59-60.01z"/>
	<path id="Path_6503" class="st8" d="M82.41-59.24l-2.01,0.02L19.21-60l62.07,0.02L82.41-59.24z"/>
	<path id="Path_6504" class="st8" d="M85.03-59.27l-2.01,0.02l-1.12-0.74l2.07,0.02L85.03-59.27z"/>
	<path id="Path_6505" class="st8" d="M17.71-58.85l0.89,0.58l-2.11,0.02l-0.89-0.58L17.71-58.85z"/>
	<path id="Path_6506" class="st8" d="M87.64-59.29l-2.01,0.02l-1.05-0.69l2.07,0.02L87.64-59.29z"/>
	<path id="Path_6507" class="st8" d="M90.25-59.32l-2.01,0.02l-0.98-0.64l2.07,0.02L90.25-59.32z"/>
	<path id="Path_6508" class="st8" d="M91.66-58.39l-2.01,0.02l-0.89-0.58l2.01-0.02L91.66-58.39z"/>
</g>
<g id="Group_5537" transform="translate(65.624 105.442)">
	<path id="Path_6509" class="st8" d="M81.29-57.08l2.01-0.02l0.91,0.6h-2.04L81.29-57.08z"/>
	<path id="Path_6510" class="st8" d="M86.87-56.5h-2.04l-0.92-0.61l2.01-0.02L86.87-56.5z"/>
	<path id="Path_6511" class="st8" d="M85.4-57.47l-2.01,0.02l-0.89-0.58l2.01-0.02L85.4-57.47z"/>
	<path id="Path_6512" class="st8" d="M78.68-57.06l2.01-0.02l0.87,0.57h-2.04L78.68-57.06z"/>
	<path id="Path_6513" class="st8" d="M72.05-57.93l2.01-0.02l0.89,0.58l-2.01,0.02L72.05-57.93z"/>
	<path id="Path_6514" class="st8" d="M76.07-57.03l2.01-0.02l0.83,0.55h-2.04L76.07-57.03z"/>
	<path id="Path_6515" class="st8" d="M73.46-57.01l2.01-0.02l0.79,0.52h-2.04L73.46-57.01z"/>
	<path id="Path_6516" class="st8" d="M70.64-58.85l2.01-0.02l0.89,0.58l-2.01,0.02L70.64-58.85z"/>
	<path id="Path_6517" class="st8" d="M76.15-58.32l-2.01,0.02l-0.89-0.58l2.01-0.02L76.15-58.32z"/>
	<path id="Path_6518" class="st8" d="M82.79-57.44l-2.01,0.02L79.89-58l2.01-0.02L82.79-57.44z"/>
	<path id="Path_6519" class="st8" d="M74.66-57.95l2.01-0.02l0.89,0.58l-2.01,0.02L74.66-57.95z"/>
	<path id="Path_6520" class="st8" d="M80.17-57.42l-2.01,0.02l-0.89-0.58L79.28-58L80.17-57.42z"/>
	<path id="Path_6521" class="st8" d="M81.38-58.37l-2.01,0.02l-0.89-0.58l2.01-0.02L81.38-58.37z"/>
	<path id="Path_6522" class="st8" d="M78.76-58.35l-2.01,0.02l-0.89-0.58l2.01-0.02L78.76-58.35z"/>
	<path id="Path_6523" class="st8" d="M69.33-57.9l2.11-0.02l0.89,0.58l-2.11,0.02L69.33-57.9z"/>
	<path id="Path_6524" class="st8" d="M72.86-57l0.75,0.49h-2.14l-0.73-0.48L72.86-57z"/>
	<path id="Path_6525" class="st8" d="M87.48-56.51l-0.96-0.63l3.16-0.03l1.11,0.66H87.48z"/>
	<path id="Path_6526" class="st8" d="M86-57.48l-0.89-0.58l3.02-0.03l0.98,0.58L86-57.48z"/>
	<path id="Path_6527" class="st8" d="M87.56-58.43l-2.97,0.03l-0.89-0.58l2.89-0.03L87.56-58.43z"/>
	<path id="Path_6528" class="st8" d="M83.18-59.33l-0.91-0.6l2.83,0.02l0.92,0.55L83.18-59.33z"/>
	<path id="Path_6529" class="st8" d="M69.52-59.19l-2.12,0.02l-1.34-0.87l2.18,0.02L69.52-59.19z"/>
	<path id="Path_6530" class="st8" d="M70.92-60.01l1.21,0.79l-2.01,0.02l-1.26-0.83L70.92-60.01z"/>
	<path id="Path_6531" class="st8" d="M74.74-59.24l-2.01,0.02L71.54-60l2.07,0.02L74.74-59.24z"/>
	<path id="Path_6532" class="st8" d="M77.35-59.27l-2.01,0.02l-1.12-0.74l2.07,0.02L77.35-59.27z"/>
	<path id="Path_6533" class="st8" d="M70.04-58.85l0.89,0.58l-2.12,0.03l-0.89-0.58L70.04-58.85z"/>
	<path id="Path_6534" class="st8" d="M79.97-59.29l-2.01,0.02l-1.05-0.69l2.07,0.02L79.97-59.29z"/>
	<path id="Path_6535" class="st8" d="M82.58-59.32l-2.01,0.02l-0.98-0.64l2.07,0.02L82.58-59.32z"/>
	<path id="Path_6536" class="st8" d="M83.99-58.39l-2.01,0.02l-0.89-0.58l2.01-0.02L83.99-58.39z"/>
</g>
<g id="Group_5538" transform="translate(100.084 105.442)">
	<path id="Path_6537" class="st8" d="M73.62-57.08l2.01-0.02l0.91,0.6H74.5L73.62-57.08z"/>
	<path id="Path_6538" class="st8" d="M79.2-56.5h-2.04l-0.92-0.61l2.01-0.02L79.2-56.5z"/>
	<path id="Path_6539" class="st8" d="M77.73-57.47l-2.01,0.02l-0.89-0.58l2.01-0.02L77.73-57.47z"/>
	<path id="Path_6540" class="st8" d="M71.01-57.06l2.01-0.02l0.87,0.57h-2.04L71.01-57.06z"/>
	<path id="Path_6541" class="st8" d="M64.37-57.93l2.01-0.02l0.89,0.58l-2.01,0.02L64.37-57.93z"/>
	<path id="Path_6542" class="st8" d="M68.4-57.03l2.01-0.02l0.83,0.55H69.2L68.4-57.03z"/>
	<path id="Path_6543" class="st8" d="M65.79-57.01l2.01-0.02l0.79,0.52h-2.04L65.79-57.01z"/>
	<path id="Path_6544" class="st8" d="M62.96-58.85l2.01-0.02l0.89,0.58l-2.01,0.02L62.96-58.85z"/>
	<path id="Path_6545" class="st8" d="M68.48-58.32l-2.01,0.02l-0.89-0.58l2.01-0.02L68.48-58.32z"/>
	<path id="Path_6546" class="st8" d="M75.11-57.44l-2.01,0.02l-0.89-0.59l2.01-0.02L75.11-57.44z"/>
	<path id="Path_6547" class="st8" d="M66.99-57.95L69-57.97l0.89,0.58l-2.01,0.02L66.99-57.95z"/>
	<path id="Path_6548" class="st8" d="M72.5-57.42l-2.01,0.02l-0.89-0.58L71.61-58L72.5-57.42z"/>
	<path id="Path_6549" class="st8" d="M73.7-58.37l-2.01,0.02l-0.89-0.58l2.01-0.02L73.7-58.37z"/>
	<path id="Path_6550" class="st8" d="M71.09-58.35l-2.01,0.02l-0.89-0.58l2.01-0.02L71.09-58.35z"/>
	<path id="Path_6551" class="st8" d="M61.66-57.9l2.11-0.02l0.89,0.58l-2.11,0.02L61.66-57.9z"/>
	<path id="Path_6552" class="st8" d="M65.19-57l0.75,0.49H63.8l-0.73-0.48L65.19-57z"/>
	<path id="Path_6553" class="st8" d="M79.81-56.51l-0.96-0.63l3.16-0.03l1.11,0.66H79.81z"/>
	<path id="Path_6554" class="st8" d="M78.33-57.48l-0.89-0.58l3.02-0.03l0.98,0.58L78.33-57.48z"/>
	<path id="Path_6555" class="st8" d="M79.89-58.43l-2.97,0.03l-0.89-0.58l2.89-0.03L79.89-58.43z"/>
	<path id="Path_6556" class="st8" d="M75.5-59.33l-0.91-0.6l2.83,0.02l0.92,0.55L75.5-59.33z"/>
	<path id="Path_6557" class="st8" d="M61.84-59.19l-2.12,0.02l-1.34-0.87l2.18,0.02L61.84-59.19z"/>
	<path id="Path_6558" class="st8" d="M63.25-60.01l1.21,0.79l-2.01,0.02l-1.26-0.83L63.25-60.01z"/>
	<path id="Path_6559" class="st8" d="M67.07-59.24l-2.01,0.02L63.87-60l2.07,0.02L67.07-59.24z"/>
	<path id="Path_6560" class="st8" d="M69.68-59.27l-2.01,0.02l-1.12-0.74l2.07,0.02L69.68-59.27z"/>
	<path id="Path_6561" class="st8" d="M62.37-58.85l0.89,0.58l-2.11,0.02l-0.89-0.58L62.37-58.85z"/>
	<path id="Path_6562" class="st8" d="M72.29-59.29l-2.01,0.02l-1.05-0.69l2.07,0.02L72.29-59.29z"/>
	<path id="Path_6563" class="st8" d="M74.91-59.32L72.9-59.3l-0.98-0.64l2.07,0.02L74.91-59.32z"/>
	<path id="Path_6564" class="st8" d="M76.32-58.39l-2.01,0.02l-0.89-0.58l2.01-0.02L76.32-58.39z"/>
</g>
<path id="Path_6565" class="st8" d="M257.57,54.75c0,0-215.2-0.53-215.2,0l-21.7-10.54h256L257.57,54.75z M124.04,45.42l-78.19-0.14
	l5.18,3.38h78.46L124.04,45.42z M150.86,45.42l-18.19-0.14l5.18,3.38h18.46L150.86,45.42z M176.49,45.42l-18.19-0.14l5.18,3.38
	h18.46L176.49,45.42z"/>
<linearGradient id="Rectangle_24236_1_" gradientUnits="userSpaceOnUse" x1="-3675.2378" y1="-2178.6199" x2="-3673.2524" y2="-2178.6199" gradientTransform="matrix(148.429 0 0 38.098 545543.375 83274.4219)">
	<stop  offset="0" style="stop-color:#EAEAE9"/>
	<stop  offset="0.406" style="stop-color:#F3F4F5"/>
	<stop  offset="1" style="stop-color:#959595"/>
</linearGradient>
<rect id="Rectangle_24236" x="31.47" y="261.31" class="st9" width="235.38" height="24.12"/>
<path id="Path_6566" class="st10" d="M253.88,256.99H44.45l-12.98,4.27h235.38L253.88,256.99z"/>
<g id="Group_5541" transform="translate(13.902 110.778)">
	<path id="Path_6567" class="st11" d="M30.55,146.45l-12.98,4.27V-59.32l12.2,5.12C29.78-54.2,30.07,146.94,30.55,146.45z"/>
	<g id="Group_5540" transform="translate(0 0)">
		<g>
			<g>
				<defs>
					<path id="SVGID_1_" d="M30.55,146.21l-12.98,4.27V-61.14l12.2,5.12C29.78-56.02,30.07,146.7,30.55,146.21z"/>
				</defs>
				<clipPath id="SVGID_2_">
					<use xlink:href="#SVGID_1_"  style="overflow:visible;"/>
				</clipPath>
				<g id="Group_5539" class="st12">
					<rect id="Rectangle_24237" x="15.68" y="-68.22" class="st13" width="6.02" height="222.35"/>
				</g>
			</g>
		</g>
	</g>
</g>
<g id="Group_5544" transform="translate(145.636 110.778)">
	<path id="Path_6569" class="st11" d="M108.24,146.21l12.98,4.27V-61.14l-12.2,5.12C109.02-56.02,108.72,146.7,108.24,146.21z"/>
	<g id="Group_5543" transform="translate(0 0)">
		<g>
			<g>
				<defs>
					<path id="SVGID_3_" d="M108.24,146.21l12.98,4.27V-61.14l-12.2,5.12C109.02-56.02,108.72,146.7,108.24,146.21z"/>
				</defs>
				<clipPath id="SVGID_4_">
					<use xlink:href="#SVGID_3_"  style="overflow:visible;"/>
				</clipPath>
				<g id="Group_5542" class="st14">
					<rect id="Rectangle_24238" x="117.1" y="-68.22" class="st13" width="6.02" height="222.35"/>
				</g>
			</g>
		</g>
	</g>
</g>
<rect id="Rectangle_24239" x="31.47" y="272.64" class="st15" width="235.38" height="1.47"/>
<linearGradient id="Rectangle_24240_2_" gradientUnits="userSpaceOnUse" x1="-3673.1013" y1="-1897.3857" x2="-3673.1013" y2="-1896.5908" gradientTransform="matrix(101.036 0 0 3.95 371264.6563 7705.8145)">
	<stop  offset="0" style="stop-color:#505050"/>
	<stop  offset="0.152" style="stop-color:#8F8F8F"/>
	<stop  offset="0.187" style="stop-color:#7F7F7F"/>
	<stop  offset="0.828" style="stop-color:#777677"/>
	<stop  offset="0.871" style="stop-color:#8D8D8D"/>
	<stop  offset="1" style="stop-color:#474748"/>
</linearGradient>
<rect id="Rectangle_24240" x="49.9" y="211.14" class="st16" width="198.54" height="3.14"/>
<linearGradient id="Rectangle_24240_3_" gradientUnits="userSpaceOnUse" x1="-3673.1013" y1="-1891.7097" x2="-3673.1013" y2="-1890.9158" gradientTransform="matrix(101.036 0 0 3.95 371264.6563 7705.8145)">
	<stop  offset="0" style="stop-color:#505050"/>
	<stop  offset="0.152" style="stop-color:#8F8F8F"/>
	<stop  offset="0.187" style="stop-color:#7F7F7F"/>
	<stop  offset="0.828" style="stop-color:#777677"/>
	<stop  offset="0.871" style="stop-color:#8D8D8D"/>
	<stop  offset="1" style="stop-color:#474748"/>
</linearGradient>
<rect id="Rectangle_24240_1_" x="49.9" y="233.56" class="st17" width="198.54" height="3.14"/>
<linearGradient id="Rectangle_24241_1_" gradientUnits="userSpaceOnUse" x1="-3673.1013" y1="-1895.8635" x2="-3673.1013" y2="-1895.0686" gradientTransform="matrix(101.036 0 0 3.95 371264.6563 7677.3818)">
	<stop  offset="0" style="stop-color:#505050"/>
	<stop  offset="0.152" style="stop-color:#8F8F8F"/>
	<stop  offset="0.187" style="stop-color:#7F7F7F"/>
	<stop  offset="0.828" style="stop-color:#777677"/>
	<stop  offset="0.871" style="stop-color:#8D8D8D"/>
	<stop  offset="1" style="stop-color:#474748"/>
</linearGradient>
<rect id="Rectangle_24241" x="49.9" y="188.72" class="st18" width="198.54" height="3.14"/>
<linearGradient id="Rectangle_24242_1_" gradientUnits="userSpaceOnUse" x1="-3673.1013" y1="-1894.3413" x2="-3673.1013" y2="-1893.5464" gradientTransform="matrix(101.036 0 0 3.95 371264.6563 7648.9492)">
	<stop  offset="0" style="stop-color:#505050"/>
	<stop  offset="0.152" style="stop-color:#8F8F8F"/>
	<stop  offset="0.187" style="stop-color:#7F7F7F"/>
	<stop  offset="0.828" style="stop-color:#777677"/>
	<stop  offset="0.871" style="stop-color:#8D8D8D"/>
	<stop  offset="1" style="stop-color:#474748"/>
</linearGradient>
<rect id="Rectangle_24242" x="49.9" y="166.3" class="st19" width="198.54" height="3.14"/>
<linearGradient id="Rectangle_24243_1_" gradientUnits="userSpaceOnUse" x1="-3673.1013" y1="-1892.8195" x2="-3673.1013" y2="-1892.0255" gradientTransform="matrix(101.036 0 0 3.95 371264.6563 7620.5176)">
	<stop  offset="0" style="stop-color:#505050"/>
	<stop  offset="0.152" style="stop-color:#8F8F8F"/>
	<stop  offset="0.187" style="stop-color:#7F7F7F"/>
	<stop  offset="0.828" style="stop-color:#777677"/>
	<stop  offset="0.871" style="stop-color:#8D8D8D"/>
	<stop  offset="1" style="stop-color:#474748"/>
</linearGradient>
<rect id="Rectangle_24243" x="49.9" y="143.88" class="st20" width="198.54" height="3.14"/>
<linearGradient id="Rectangle_24244_1_" gradientUnits="userSpaceOnUse" x1="-3673.1013" y1="-1891.297" x2="-3673.1013" y2="-1890.5031" gradientTransform="matrix(101.036 0 0 3.95 371264.6563 7592.084)">
	<stop  offset="0" style="stop-color:#505050"/>
	<stop  offset="0.152" style="stop-color:#8F8F8F"/>
	<stop  offset="0.187" style="stop-color:#7F7F7F"/>
	<stop  offset="0.828" style="stop-color:#777677"/>
	<stop  offset="0.871" style="stop-color:#8D8D8D"/>
	<stop  offset="1" style="stop-color:#474748"/>
</linearGradient>
<rect id="Rectangle_24244" x="49.9" y="121.46" class="st21" width="198.54" height="3.14"/>
<linearGradient id="Rectangle_24245_1_" gradientUnits="userSpaceOnUse" x1="-3673.1013" y1="-1889.7736" x2="-3673.1013" y2="-1888.9796" gradientTransform="matrix(101.036 0 0 3.95 371264.6563 7563.6504)">
	<stop  offset="0" style="stop-color:#505050"/>
	<stop  offset="0.152" style="stop-color:#8F8F8F"/>
	<stop  offset="0.187" style="stop-color:#7F7F7F"/>
	<stop  offset="0.828" style="stop-color:#777677"/>
	<stop  offset="0.871" style="stop-color:#8D8D8D"/>
	<stop  offset="1" style="stop-color:#474748"/>
</linearGradient>
<rect id="Rectangle_24245" x="49.9" y="99.04" class="st22" width="198.54" height="3.14"/>
<linearGradient id="Rectangle_24246_1_" gradientUnits="userSpaceOnUse" x1="-3673.1013" y1="-1888.2513" x2="-3673.1013" y2="-1887.4564" gradientTransform="matrix(101.036 0 0 3.95 371264.6563 7535.2188)">
	<stop  offset="0" style="stop-color:#505050"/>
	<stop  offset="0.152" style="stop-color:#8F8F8F"/>
	<stop  offset="0.187" style="stop-color:#7F7F7F"/>
	<stop  offset="0.828" style="stop-color:#777677"/>
	<stop  offset="0.871" style="stop-color:#8D8D8D"/>
	<stop  offset="1" style="stop-color:#474748"/>
</linearGradient>
<rect id="Rectangle_24246" x="49.9" y="76.62" class="st23" width="198.54" height="3.14"/>
<path id="Path_6571" class="st13" d="M35.75,53.18l227.82,0.16l3.29-3.7H31.47L35.75,53.18z"/>
<path id="Path_6572" class="st13" d="M20.67,44.21h256v-3.02h-256L20.67,44.21z"/>
<path id="Path_6573" class="st10" d="M35.35,53.05l8.81,3.83h210.35l8.04-3.43C262.55,53.45,35.55,53.25,35.35,53.05z"/>
<linearGradient id="Rectangle_24247_2_" gradientUnits="userSpaceOnUse" x1="-3663.7629" y1="-2109.5198" x2="-3662.7898" y2="-2109.5198" gradientTransform="matrix(32.398 0 0 13.022 118835.1406 27481.3496)">
	<stop  offset="0" style="stop-color:#EAEAE9"/>
	<stop  offset="0.406" style="stop-color:#F3F4F5"/>
	<stop  offset="1" style="stop-color:#959595"/>
</linearGradient>
<rect id="Rectangle_24247_1_" x="136.55" y="6.01" class="st24" width="25.18" height="10.34"/>
<linearGradient id="Rectangle_24248_2_" gradientUnits="userSpaceOnUse" x1="-3657.5906" y1="-2054.175" x2="-3656.6172" y2="-2054.175" gradientTransform="matrix(22.036 0 0 8.445 80739.2422 17358.6836)">
	<stop  offset="0" style="stop-color:#ABABAB"/>
	<stop  offset="0.406" style="stop-color:#F3F4F5"/>
	<stop  offset="1" style="stop-color:#959595"/>
</linearGradient>
<rect id="Rectangle_24248_1_" x="140.58" y="7.82" class="st25" width="17.13" height="6.71"/>
<ellipse id="Ellipse_409" class="st26" cx="150" cy="2.38" rx="2.33" ry="2.38"/>
<path id="Path_6574" class="st27" d="M148.06,1.05l3.43,2.79"/>
</svg>
