<?xml version="1.0" encoding="utf-8"?>
<!-- Generator: Adobe Illustrator 24.2.3, SVG Export Plug-In . SVG Version: 6.00 Build 0)  -->
<svg version="1.1" id="Layer_1" xmlns="http://www.w3.org/2000/svg" xmlns:xlink="http://www.w3.org/1999/xlink" x="0px" y="0px"
	 viewBox="0 0 300 557.14" style="enable-background:new 0 0 300 557.14;" xml:space="preserve">
<style type="text/css">
	.st0{fill:url(#Path_6043_2_);}
	.st1{opacity:0.5;}
	.st2{fill:#636464;}
	.st3{fill:url(#Path_6046_2_);}
	.st4{fill:url(#Path_6047_2_);}
	.st5{fill:url(#Path_6048_2_);}
	.st6{fill:url(#Path_6051_2_);}
	.st7{fill:url(#Path_6052_2_);}
	.st8{fill:url(#Path_6053_2_);}
	.st9{fill:url(#Path_6056_2_);}
	.st10{fill:url(#Path_6059_2_);}
	.st11{fill:url(#Path_6060_2_);}
	.st12{fill:#558D3F;}
	.st13{fill:url(#Path_6062_2_);}
	.st14{fill:url(#Rectangle_22992_2_);}
	.st15{fill:url(#Path_6063_2_);}
	.st16{fill:url(#Rectangle_22993_2_);}
	.st17{fill:url(#Path_6064_2_);}
	.st18{fill:url(#Path_6065_2_);}
	.st19{fill:#68A744;}
	.st20{opacity:0.2;fill:#A1CC40;}
	.st21{fill:url(#Path_6068_2_);}
	.st22{fill:url(#Path_6069_2_);}
	.st23{fill:url(#Path_6070_2_);}
	.st24{fill:#A1CC40;}
	.st25{fill:#CFCFCF;}
	.st26{fill:url(#Rectangle_22995_2_);}
	.st27{fill:url(#Rectangle_22996_2_);}
	.st28{fill:url(#Rectangle_22997_2_);}
	.st29{fill:url(#Rectangle_22998_2_);}
	.st30{opacity:0.1;fill:#FFFFFF;enable-background:new    ;}
	.st31{fill:url(#Path_6073_2_);}
	.st32{fill:url(#Path_6074_2_);}
	.st33{fill:url(#Rectangle_22999_2_);}
	.st34{fill:url(#Rectangle_23000_2_);}
	.st35{fill:url(#Rectangle_23001_2_);}
	.st36{fill:url(#Rectangle_23002_2_);}
	.st37{fill:url(#Rectangle_23003_2_);}
	.st38{fill:url(#Rectangle_23004_2_);}
	.st39{fill:url(#Rectangle_23005_2_);}
	.st40{fill:url(#Rectangle_23006_2_);}
	.st41{fill:url(#Rectangle_23007_2_);}
	.st42{fill:url(#Rectangle_23008_2_);}
	.st43{fill:url(#Rectangle_23009_2_);}
	.st44{fill:url(#Rectangle_23010_2_);}
	.st45{fill:url(#Rectangle_23011_2_);}
	.st46{fill:url(#Rectangle_23012_2_);}
</style>
<g id="Group_5152_1_" transform="translate(-251.271 -291.276)">
	<g id="Group_5117_1_" transform="translate(363.35 291.594)">
		<g id="Group_5116_1_">
			<rect id="Rectangle_22840_1_" x="98.07" y="10.62" width="3.85" height="135.91"/>
			<g id="Group_5115_1_" transform="translate(1.023)">
				
					<linearGradient id="Path_6043_2_" gradientUnits="userSpaceOnUse" x1="-1946.2864" y1="-2293.6162" x2="-1946.2864" y2="-2291.7109" gradientTransform="matrix(30.8196 0 0 84.822 60108.6406 194551.3594)">
					<stop  offset="0" style="stop-color:#3B3B3B"/>
					<stop  offset="0.21" style="stop-color:#6E6E6F"/>
					<stop  offset="0.388" style="stop-color:#7B7B7B"/>
					<stop  offset="0.54" style="stop-color:#444444"/>
					<stop  offset="0.898" style="stop-color:#161616"/>
					<stop  offset="1" style="stop-color:#262626"/>
				</linearGradient>
				<path id="Path_6043_1_" class="st0" d="M140.91,160.3h-32.07c-7.32-0.24-13.07-6.4-12.85-13.77V14.07
					c-0.22-7.37,5.53-13.53,12.85-13.78h32.07c7.32,0.25,13.07,6.41,12.85,13.78v132.46C153.99,153.89,148.24,160.06,140.91,160.3z"
					/>
				<g id="Group_5109_1_" transform="translate(0 6.572)" class="st1">
					<path id="Path_6044_1_" class="st2" d="M100.47,139.95h13.58v9.28h-10.43C101.56,146.59,100.45,143.32,100.47,139.95z"/>
					<rect id="Rectangle_22841_1_" x="98.96" y="117.65" class="st2" width="15.08" height="9.28"/>
					<rect id="Rectangle_22842_1_" x="98.96" y="95.34" class="st2" width="15.08" height="9.28"/>
					<rect id="Rectangle_22843_1_" x="98.96" y="73.04" class="st2" width="15.08" height="9.28"/>
					<rect id="Rectangle_22844_1_" x="98.96" y="50.72" class="st2" width="15.08" height="9.28"/>
					<rect id="Rectangle_22845_1_" x="98.96" y="28.42" class="st2" width="15.08" height="9.28"/>
					<rect id="Rectangle_22846_1_" x="98.96" y="6.11" class="st2" width="15.08" height="9.28"/>
				</g>
				<g id="Group_5110_1_" transform="translate(21.179 6.572)" class="st1">
					<path id="Path_6045_1_" class="st2" d="M117.5,149.23v-9.28h15.09c0.02,3.36-1.09,6.63-3.15,9.28H117.5z"/>
					<rect id="Rectangle_22847_1_" x="117.5" y="117.65" class="st2" width="15.08" height="9.28"/>
					<rect id="Rectangle_22848_1_" x="117.5" y="95.34" class="st2" width="15.08" height="9.28"/>
					<rect id="Rectangle_22849_1_" x="117.5" y="73.04" class="st2" width="15.08" height="9.28"/>
					<rect id="Rectangle_22850_1_" x="117.5" y="50.72" class="st2" width="15.08" height="9.28"/>
					<rect id="Rectangle_22851_1_" x="117.5" y="28.42" class="st2" width="15.08" height="9.28"/>
					<rect id="Rectangle_22852_1_" x="117.5" y="6.11" class="st2" width="15.08" height="9.28"/>
				</g>
				<g id="Group_5111_1_" transform="translate(10.993 11.829)" class="st1">
					<rect id="Rectangle_22853_1_" x="108.58" y="122.3" class="st2" width="15.08" height="9.28"/>
					<rect id="Rectangle_22854_1_" x="108.58" y="100" class="st2" width="15.08" height="9.28"/>
					<rect id="Rectangle_22855_1_" x="108.58" y="77.68" class="st2" width="15.08" height="9.29"/>
					<rect id="Rectangle_22856_1_" x="108.58" y="55.38" class="st2" width="15.08" height="9.28"/>
					<rect id="Rectangle_22857_1_" x="108.58" y="33.06" class="st2" width="15.08" height="9.29"/>
					<rect id="Rectangle_22858_1_" x="108.58" y="10.77" class="st2" width="15.08" height="9.28"/>
				</g>
				<g id="Group_5112_1_" transform="translate(10.993 6.572)" class="st1">
					<rect id="Rectangle_22859_1_" x="108.58" y="139.95" class="st2" width="15.08" height="9.28"/>
					<rect id="Rectangle_22860_1_" x="108.58" y="117.65" class="st2" width="15.08" height="9.28"/>
					<rect id="Rectangle_22861_1_" x="108.58" y="95.34" class="st2" width="15.08" height="9.28"/>
					<rect id="Rectangle_22862_1_" x="108.58" y="73.04" class="st2" width="15.08" height="9.28"/>
					<rect id="Rectangle_22863_1_" x="108.58" y="50.72" class="st2" width="15.08" height="9.28"/>
					<rect id="Rectangle_22864_1_" x="108.58" y="28.42" class="st2" width="15.08" height="9.28"/>
					<rect id="Rectangle_22865_1_" x="108.58" y="6.11" class="st2" width="15.08" height="9.28"/>
				</g>
				<g id="Group_5113_1_" transform="translate(21.179 11.829)" class="st1">
					<rect id="Rectangle_22866_1_" x="117.5" y="122.3" class="st2" width="15.08" height="9.28"/>
					<rect id="Rectangle_22867_1_" x="117.5" y="100" class="st2" width="15.08" height="9.28"/>
					<rect id="Rectangle_22868_1_" x="117.5" y="77.68" class="st2" width="15.08" height="9.29"/>
					<rect id="Rectangle_22869_1_" x="117.5" y="55.38" class="st2" width="15.08" height="9.28"/>
					<rect id="Rectangle_22870_1_" x="117.5" y="33.06" class="st2" width="15.08" height="9.29"/>
					<rect id="Rectangle_22871_1_" x="117.5" y="10.77" class="st2" width="15.08" height="9.28"/>
				</g>
				<g id="Group_5114_1_" transform="translate(0 11.829)" class="st1">
					<rect id="Rectangle_22872_1_" x="98.96" y="122.3" class="st2" width="15.08" height="9.28"/>
					<rect id="Rectangle_22873_1_" x="98.96" y="100" class="st2" width="15.08" height="9.28"/>
					<rect id="Rectangle_22874_1_" x="98.96" y="77.68" class="st2" width="15.08" height="9.29"/>
					<rect id="Rectangle_22875_1_" x="98.96" y="55.38" class="st2" width="15.08" height="9.28"/>
					<rect id="Rectangle_22876_1_" x="98.96" y="33.06" class="st2" width="15.08" height="9.29"/>
					<rect id="Rectangle_22877_1_" x="98.96" y="10.77" class="st2" width="15.08" height="9.28"/>
				</g>
			</g>
		</g>
	</g>
	
		<linearGradient id="Path_6046_2_" gradientUnits="userSpaceOnUse" x1="-1218.3717" y1="-2291.7131" x2="-1218.3717" y2="-2290.2717" gradientTransform="matrix(32.2624 0 0 74.772 39778.1602 171710.625)">
		<stop  offset="0" style="stop-color:#4D4E4E"/>
		<stop  offset="0.102" style="stop-color:#3A3A3A"/>
		<stop  offset="0.445" style="stop-color:#424243"/>
		<stop  offset="0.547" style="stop-color:#494848"/>
		<stop  offset="0.689" style="stop-color:#5A5B5B"/>
		<stop  offset="0.788" style="stop-color:#6B6B6B"/>
		<stop  offset="1" style="stop-color:#767576"/>
	</linearGradient>
	<path id="Path_6046_1_" class="st3" d="M493.67,321.34c-2.01-0.91-4.19-1.39-6.39-1.4h-40.69l-6.27,106.31l2.53,18.3
		c1.7,7.43,5.4,16.45,15.07,16.45H484c7.89-0.11,14.43-6.19,15.16-14.09l1.65-104.38C500.91,334.85,498.39,327.37,493.67,321.34z"/>
	
		<linearGradient id="Path_6047_2_" gradientUnits="userSpaceOnUse" x1="-1198.6681" y1="-2265.8784" x2="-1196.6584" y2="-2266.5027" gradientTransform="matrix(11.689 0 0 22.5822 14467.7686 51503.6719)">
		<stop  offset="0" style="stop-color:#497939"/>
		<stop  offset="0.51" style="stop-color:#4E803B"/>
		<stop  offset="1" style="stop-color:#558A3E"/>
	</linearGradient>
	<path id="Path_6047_1_" class="st4" d="M474.6,329.07v-10.71c0-5.63-4.9-4.56-10.95-4.56h-10.96l8,42.52l7-11.13
		C471.5,339.09,474.6,331.88,474.6,329.07z"/>
	<g id="Group_5126_1_" transform="translate(268.945 291.276)">
		<g id="Group_5125_1_">
			<rect id="Rectangle_22878_1_" x="68.33" y="10.34" width="3.85" height="135.9"/>
			<g id="Group_5124_1_">
				
					<linearGradient id="Path_6048_2_" gradientUnits="userSpaceOnUse" x1="-1758.0614" y1="-2293.6196" x2="-1758.0614" y2="-2291.7144" gradientTransform="matrix(30.6974 0 0 84.824 54012.1445 194555.9375)">
					<stop  offset="0" style="stop-color:#3B3B3B"/>
					<stop  offset="0.21" style="stop-color:#6E6E6F"/>
					<stop  offset="0.388" style="stop-color:#7B7B7B"/>
					<stop  offset="0.54" style="stop-color:#444444"/>
					<stop  offset="0.898" style="stop-color:#161616"/>
					<stop  offset="1" style="stop-color:#262626"/>
				</linearGradient>
				<path id="Path_6048_1_" class="st5" d="M28.26,160.02h31.95c7.31-0.26,13.03-6.42,12.8-13.77V13.78
					C73.24,6.43,67.52,0.27,60.21,0H28.26c-7.31,0.26-13.03,6.43-12.8,13.78v132.46C15.23,153.6,20.95,159.76,28.26,160.02z"/>
				<g id="Group_5118_1_" transform="translate(21.179 6.573)" class="st1">
					<path id="Path_6049_1_" class="st2" d="M47.58,139.67H34v9.29h10.43C46.49,146.31,47.6,143.03,47.58,139.67z"/>
					<rect id="Rectangle_22879_1_" x="34" y="117.37" class="st2" width="15.08" height="9.29"/>
					<rect id="Rectangle_22880_1_" x="34" y="95.06" class="st2" width="15.08" height="9.28"/>
					<rect id="Rectangle_22881_1_" x="34" y="72.75" class="st2" width="15.08" height="9.29"/>
					<rect id="Rectangle_22882_1_" x="34" y="50.44" class="st2" width="15.08" height="9.29"/>
					<rect id="Rectangle_22883_1_" x="34" y="28.14" class="st2" width="15.08" height="9.28"/>
					<rect id="Rectangle_22884_1_" x="34" y="5.83" class="st2" width="15.08" height="9.29"/>
				</g>
				<g id="Group_5119_1_" transform="translate(0 6.573)" class="st1">
					<path id="Path_6050_1_" class="st2" d="M30.55,148.96v-9.29H15.47c-0.02,3.37,1.09,6.64,3.15,9.29H30.55z"/>
					<rect id="Rectangle_22885_1_" x="15.47" y="117.37" class="st2" width="15.08" height="9.29"/>
					<rect id="Rectangle_22886_1_" x="15.47" y="95.06" class="st2" width="15.08" height="9.28"/>
					<rect id="Rectangle_22887_1_" x="15.47" y="72.75" class="st2" width="15.08" height="9.29"/>
					<rect id="Rectangle_22888_1_" x="15.47" y="50.44" class="st2" width="15.08" height="9.29"/>
					<rect id="Rectangle_22889_1_" x="15.47" y="28.14" class="st2" width="15.08" height="9.28"/>
					<rect id="Rectangle_22890_1_" x="15.47" y="5.83" class="st2" width="15.08" height="9.29"/>
				</g>
				<g id="Group_5120_1_" transform="translate(10.189 11.831)" class="st1">
					<rect id="Rectangle_22891_1_" x="24.38" y="122.02" class="st2" width="15.08" height="9.28"/>
					<rect id="Rectangle_22892_1_" x="24.38" y="99.72" class="st2" width="15.08" height="9.29"/>
					<rect id="Rectangle_22893_1_" x="24.38" y="77.4" class="st2" width="15.08" height="9.29"/>
					<rect id="Rectangle_22894_1_" x="24.38" y="55.1" class="st2" width="15.08" height="9.29"/>
					<rect id="Rectangle_22895_1_" x="24.38" y="32.79" class="st2" width="15.08" height="9.29"/>
					<rect id="Rectangle_22896_1_" x="24.38" y="10.49" class="st2" width="15.08" height="9.29"/>
				</g>
				<g id="Group_5121_1_" transform="translate(10.189 6.573)" class="st1">
					<rect id="Rectangle_22897_1_" x="24.38" y="139.67" class="st2" width="15.08" height="9.29"/>
					<rect id="Rectangle_22898_1_" x="24.38" y="117.37" class="st2" width="15.08" height="9.29"/>
					<rect id="Rectangle_22899_1_" x="24.38" y="95.06" class="st2" width="15.08" height="9.28"/>
					<rect id="Rectangle_22900_1_" x="24.38" y="72.75" class="st2" width="15.08" height="9.29"/>
					<rect id="Rectangle_22901_1_" x="24.38" y="50.44" class="st2" width="15.08" height="9.29"/>
					<rect id="Rectangle_22902_1_" x="24.38" y="28.14" class="st2" width="15.08" height="9.28"/>
					<rect id="Rectangle_22903_1_" x="24.38" y="5.83" class="st2" width="15.08" height="9.29"/>
				</g>
				<g id="Group_5122_1_" transform="translate(0 11.831)" class="st1">
					<rect id="Rectangle_22904_1_" x="15.47" y="122.02" class="st2" width="15.08" height="9.28"/>
					<rect id="Rectangle_22905_1_" x="15.47" y="99.72" class="st2" width="15.08" height="9.29"/>
					<rect id="Rectangle_22906_1_" x="15.47" y="77.4" class="st2" width="15.08" height="9.29"/>
					<rect id="Rectangle_22907_1_" x="15.47" y="55.1" class="st2" width="15.08" height="9.29"/>
					<rect id="Rectangle_22908_1_" x="15.47" y="32.79" class="st2" width="15.08" height="9.29"/>
					<rect id="Rectangle_22909_1_" x="15.47" y="10.49" class="st2" width="15.08" height="9.29"/>
				</g>
				<g id="Group_5123_1_" transform="translate(21.18 11.831)" class="st1">
					<rect id="Rectangle_22910_1_" x="34" y="122.02" class="st2" width="15.08" height="9.28"/>
					<rect id="Rectangle_22911_1_" x="34" y="99.72" class="st2" width="15.08" height="9.29"/>
					<rect id="Rectangle_22912_1_" x="34" y="77.4" class="st2" width="15.08" height="9.29"/>
					<rect id="Rectangle_22913_1_" x="34" y="55.1" class="st2" width="15.08" height="9.29"/>
					<rect id="Rectangle_22914_1_" x="34" y="32.79" class="st2" width="15.08" height="9.29"/>
					<rect id="Rectangle_22915_1_" x="34" y="10.49" class="st2" width="15.08" height="9.29"/>
				</g>
			</g>
		</g>
	</g>
	
		<linearGradient id="Path_6051_2_" gradientUnits="userSpaceOnUse" x1="-1220.374" y1="-2291.7168" x2="-1220.374" y2="-2290.2756" gradientTransform="matrix(32.2625 0 0 74.772 39704.3047 171710.2969)">
		<stop  offset="0" style="stop-color:#4D4E4E"/>
		<stop  offset="0.102" style="stop-color:#3A3A3A"/>
		<stop  offset="0.445" style="stop-color:#424243"/>
		<stop  offset="0.547" style="stop-color:#494848"/>
		<stop  offset="0.689" style="stop-color:#5A5B5B"/>
		<stop  offset="0.788" style="stop-color:#6B6B6B"/>
		<stop  offset="1" style="stop-color:#767576"/>
	</linearGradient>
	<path id="Path_6051_1_" class="st6" d="M308.88,320.74c2.01-0.91,4.18-1.39,6.39-1.4h40.69l6.27,106.3l-2.53,18.3
		c-1.7,7.42-5.41,16.45-15.07,16.45h-26.08c-7.89-0.11-14.43-6.19-15.16-14.1l-1.65-104.39
		C301.63,334.24,304.15,326.77,308.88,320.74z"/>
	
		<linearGradient id="Path_6052_2_" gradientUnits="userSpaceOnUse" x1="-1202.2169" y1="-2265.7468" x2="-1204.4454" y2="-2266.5754" gradientTransform="matrix(11.689 0 0 22.5478 14401.2412 51424.5781)">
		<stop  offset="0" style="stop-color:#497939"/>
		<stop  offset="0.51" style="stop-color:#4E803B"/>
		<stop  offset="1" style="stop-color:#558A3E"/>
	</linearGradient>
	<path id="Path_6052_1_" class="st7" d="M327.94,329.07v-10.23c0-5.63,4.9-5.05,10.95-5.05h10.96l-8.01,42.52l-6.99-11.13
		C331.04,339.09,327.94,331.89,327.94,329.07z"/>
	<g id="Group_5135_1_" transform="translate(365.656 431.604)">
		<g id="Group_5134_1_">
			<rect id="Rectangle_22916_1_" x="100.09" y="180.23" width="5.8" height="204.93"/>
			<g id="Group_5133_1_" transform="translate(1.544)">
				
					<linearGradient id="Path_6053_2_" gradientUnits="userSpaceOnUse" x1="-1955.2241" y1="-2295.5522" x2="-1955.2241" y2="-2293.647" gradientTransform="matrix(42.862 0 0 127.908 83948.7031 293787)">
					<stop  offset="0" style="stop-color:#3B3B3B"/>
					<stop  offset="0.21" style="stop-color:#6E6E6F"/>
					<stop  offset="0.388" style="stop-color:#7B7B7B"/>
					<stop  offset="0.54" style="stop-color:#444444"/>
					<stop  offset="0.898" style="stop-color:#161616"/>
					<stop  offset="1" style="stop-color:#262626"/>
				</linearGradient>
				<path id="Path_6053_1_" class="st8" d="M166.19,405.94h-44.61c-9.86,0-17.88-9.3-17.88-20.78V185.43
					c0-11.47,8.02-20.78,17.88-20.78h44.61c9.86,0,17.88,9.31,17.88,20.78v199.74C184.07,396.65,176.05,405.94,166.19,405.94z"/>
				<g id="Group_5127_1_" transform="translate(0 9.907)">
					<path id="Path_6054_1_" class="st2" d="M103.7,375.26h20.47v14.01h-15.72C105.35,385.27,103.67,380.33,103.7,375.26z"/>
					<rect id="Rectangle_22917_1_" x="101.44" y="341.63" class="st2" width="22.74" height="14"/>
					<rect id="Rectangle_22918_1_" x="101.44" y="307.98" class="st2" width="22.74" height="14"/>
					<rect id="Rectangle_22919_1_" x="101.44" y="274.35" class="st2" width="22.74" height="14"/>
					<rect id="Rectangle_22920_1_" x="101.44" y="240.7" class="st2" width="22.74" height="14"/>
					<rect id="Rectangle_22921_1_" x="101.44" y="207.07" class="st2" width="22.74" height="14"/>
					<rect id="Rectangle_22922_1_" x="101.44" y="173.43" class="st2" width="22.74" height="14.01"/>
				</g>
				<g id="Group_5128_1_" transform="translate(31.936 9.907)" class="st1">
					<path id="Path_6055_1_" class="st2" d="M129.38,389.26v-14h22.75c0.03,5.07-1.64,10.01-4.75,14H129.38z"/>
					<rect id="Rectangle_22923_1_" x="129.38" y="341.63" class="st2" width="22.75" height="14"/>
					<rect id="Rectangle_22924_1_" x="129.38" y="307.98" class="st2" width="22.75" height="14"/>
					<rect id="Rectangle_22925_1_" x="129.38" y="274.35" class="st2" width="22.75" height="14"/>
					<rect id="Rectangle_22926_1_" x="129.38" y="240.7" class="st2" width="22.75" height="14"/>
					<rect id="Rectangle_22927_1_" x="129.38" y="207.07" class="st2" width="22.75" height="14"/>
					<rect id="Rectangle_22928_1_" x="129.38" y="173.43" class="st2" width="22.75" height="14.01"/>
				</g>
				<g id="Group_5129_1_" transform="translate(16.576 17.836)">
					<rect id="Rectangle_22929_1_" x="115.94" y="348.64" class="st2" width="22.74" height="14"/>
					<rect id="Rectangle_22930_1_" x="115.94" y="315.01" class="st2" width="22.74" height="14"/>
					<rect id="Rectangle_22931_1_" x="115.94" y="281.36" class="st2" width="22.74" height="14"/>
					<rect id="Rectangle_22932_1_" x="115.94" y="247.73" class="st2" width="22.74" height="14"/>
					<rect id="Rectangle_22933_1_" x="115.94" y="214.08" class="st2" width="22.74" height="14.01"/>
					<rect id="Rectangle_22934_1_" x="115.94" y="180.46" class="st2" width="22.74" height="14"/>
				</g>
				<g id="Group_5130_1_" transform="translate(16.576 9.907)">
					<rect id="Rectangle_22935_1_" x="115.94" y="375.26" class="st2" width="22.74" height="14"/>
					<rect id="Rectangle_22936_1_" x="115.94" y="341.63" class="st2" width="22.74" height="14"/>
					<rect id="Rectangle_22937_1_" x="115.94" y="307.98" class="st2" width="22.74" height="14"/>
					<rect id="Rectangle_22938_1_" x="115.94" y="274.35" class="st2" width="22.74" height="14"/>
					<rect id="Rectangle_22939_1_" x="115.94" y="240.7" class="st2" width="22.74" height="14"/>
					<rect id="Rectangle_22940_1_" x="115.94" y="207.07" class="st2" width="22.74" height="14"/>
					<rect id="Rectangle_22941_1_" x="115.94" y="173.43" class="st2" width="22.74" height="14.01"/>
				</g>
				<g id="Group_5131_1_" transform="translate(31.937 17.836)" class="st1">
					<rect id="Rectangle_22942_1_" x="129.38" y="348.64" class="st2" width="22.75" height="14"/>
					<rect id="Rectangle_22943_1_" x="129.38" y="315.01" class="st2" width="22.75" height="14"/>
					<rect id="Rectangle_22944_1_" x="129.38" y="281.36" class="st2" width="22.75" height="14"/>
					<rect id="Rectangle_22945_1_" x="129.38" y="247.73" class="st2" width="22.75" height="14"/>
					<rect id="Rectangle_22946_1_" x="129.38" y="214.08" class="st2" width="22.75" height="14.01"/>
					<rect id="Rectangle_22947_1_" x="129.38" y="180.46" class="st2" width="22.75" height="14"/>
				</g>
				<g id="Group_5132_1_" transform="translate(0 17.836)">
					<rect id="Rectangle_22948_1_" x="101.44" y="348.64" class="st2" width="22.74" height="14"/>
					<rect id="Rectangle_22949_1_" x="101.44" y="315.01" class="st2" width="22.74" height="14"/>
					<rect id="Rectangle_22950_1_" x="101.44" y="281.36" class="st2" width="22.74" height="14"/>
					<rect id="Rectangle_22951_1_" x="101.44" y="247.73" class="st2" width="22.74" height="14"/>
					<rect id="Rectangle_22952_1_" x="101.44" y="214.08" class="st2" width="22.74" height="14.01"/>
					<rect id="Rectangle_22953_1_" x="101.44" y="180.46" class="st2" width="22.74" height="14"/>
				</g>
			</g>
		</g>
	</g>
	<g id="Group_5144_1_" transform="translate(251.271 431.604)">
		<g id="Group_5143_1_">
			<rect id="Rectangle_22954_1_" x="79.73" y="180.23" width="5.8" height="204.93"/>
			<g id="Group_5142_1_">
				
					<linearGradient id="Path_6056_2_" gradientUnits="userSpaceOnUse" x1="-1725.759" y1="-2295.5522" x2="-1725.759" y2="-2293.647" gradientTransform="matrix(42.864 0 0 127.908 74013.1172 293787)">
					<stop  offset="0" style="stop-color:#3B3B3B"/>
					<stop  offset="0.21" style="stop-color:#6E6E6F"/>
					<stop  offset="0.388" style="stop-color:#7B7B7B"/>
					<stop  offset="0.54" style="stop-color:#444444"/>
					<stop  offset="0.898" style="stop-color:#161616"/>
					<stop  offset="1" style="stop-color:#262626"/>
				</linearGradient>
				<path id="Path_6056_1_" class="st9" d="M17.88,405.94h44.61c9.86,0,17.88-9.3,17.88-20.78V185.43
					c0-11.47-8.02-20.78-17.88-20.78h-44.6C8.02,164.64,0,173.96,0,185.43v199.74C0,396.65,8.02,405.94,17.88,405.94z"/>
				<g id="Group_5136_1_" transform="translate(31.943 9.907)">
					<path id="Path_6057_1_" class="st2" d="M48.43,375.26H27.95v14.01h15.72C46.78,385.27,48.46,380.33,48.43,375.26z"/>
					<rect id="Rectangle_22955_1_" x="27.95" y="341.63" class="st2" width="22.74" height="14"/>
					<rect id="Rectangle_22956_1_" x="27.95" y="307.98" class="st2" width="22.74" height="14"/>
					<rect id="Rectangle_22957_1_" x="27.95" y="274.35" class="st2" width="22.74" height="14"/>
					<rect id="Rectangle_22958_1_" x="27.95" y="240.7" class="st2" width="22.74" height="14"/>
					<rect id="Rectangle_22959_1_" x="27.95" y="207.07" class="st2" width="22.74" height="14"/>
					<rect id="Rectangle_22960_1_" x="27.95" y="173.43" class="st2" width="22.74" height="14.01"/>
				</g>
				<g id="Group_5137_1_" transform="translate(0 9.907)" class="st1">
					<path id="Path_6058_1_" class="st2" d="M22.76,389.26v-14H0c-0.03,5.07,1.64,10.01,4.75,14H22.76z"/>
					<rect id="Rectangle_22961_1_" y="341.63" class="st2" width="22.75" height="14"/>
					<rect id="Rectangle_22962_1_" y="307.98" class="st2" width="22.75" height="14"/>
					<rect id="Rectangle_22963_1_" y="274.35" class="st2" width="22.75" height="14"/>
					<rect id="Rectangle_22964_1_" y="240.7" class="st2" width="22.75" height="14"/>
					<rect id="Rectangle_22965_1_" y="207.07" class="st2" width="22.75" height="14"/>
					<rect id="Rectangle_22966_1_" y="173.43" class="st2" width="22.75" height="14.01"/>
				</g>
				<g id="Group_5138_1_" transform="translate(15.368 17.836)">
					<rect id="Rectangle_22967_1_" x="13.45" y="348.64" class="st2" width="22.74" height="14"/>
					<rect id="Rectangle_22968_1_" x="13.45" y="315.01" class="st2" width="22.74" height="14"/>
					<rect id="Rectangle_22969_1_" x="13.45" y="281.36" class="st2" width="22.74" height="14"/>
					<rect id="Rectangle_22970_1_" x="13.45" y="247.73" class="st2" width="22.74" height="14"/>
					<rect id="Rectangle_22971_1_" x="13.45" y="214.08" class="st2" width="22.74" height="14.01"/>
					<rect id="Rectangle_22972_1_" x="13.45" y="180.46" class="st2" width="22.74" height="14"/>
				</g>
				<g id="Group_5139_1_" transform="translate(15.368 9.907)">
					<rect id="Rectangle_22973_1_" x="13.45" y="375.26" class="st2" width="22.74" height="14"/>
					<rect id="Rectangle_22974_1_" x="13.45" y="341.63" class="st2" width="22.74" height="14"/>
					<rect id="Rectangle_22975_1_" x="13.45" y="307.98" class="st2" width="22.74" height="14"/>
					<rect id="Rectangle_22976_1_" x="13.45" y="274.35" class="st2" width="22.74" height="14"/>
					<rect id="Rectangle_22977_1_" x="13.45" y="240.7" class="st2" width="22.74" height="14"/>
					<rect id="Rectangle_22978_1_" x="13.45" y="207.07" class="st2" width="22.74" height="14"/>
					<rect id="Rectangle_22979_1_" x="13.45" y="173.43" class="st2" width="22.74" height="14.01"/>
				</g>
				<g id="Group_5140_1_" transform="translate(0.001 17.836)" class="st1">
					<rect id="Rectangle_22980_1_" x="0" y="348.64" class="st2" width="22.75" height="14"/>
					<rect id="Rectangle_22981_1_" x="0" y="315.01" class="st2" width="22.75" height="14"/>
					<rect id="Rectangle_22982_1_" x="0" y="281.36" class="st2" width="22.75" height="14"/>
					<rect id="Rectangle_22983_1_" x="0" y="247.73" class="st2" width="22.75" height="14"/>
					<rect id="Rectangle_22984_1_" x="0" y="214.08" class="st2" width="22.75" height="14.01"/>
					<rect id="Rectangle_22985_1_" x="0" y="180.46" class="st2" width="22.75" height="14"/>
				</g>
				<g id="Group_5141_1_" transform="translate(31.944 17.836)">
					<rect id="Rectangle_22986_1_" x="27.95" y="348.64" class="st2" width="22.74" height="14"/>
					<rect id="Rectangle_22987_1_" x="27.95" y="315.01" class="st2" width="22.74" height="14"/>
					<rect id="Rectangle_22988_1_" x="27.95" y="281.36" class="st2" width="22.74" height="14"/>
					<rect id="Rectangle_22989_1_" x="27.95" y="247.73" class="st2" width="22.74" height="14"/>
					<rect id="Rectangle_22990_1_" x="27.95" y="214.08" class="st2" width="22.74" height="14.01"/>
					<rect id="Rectangle_22991_1_" x="27.95" y="180.46" class="st2" width="22.74" height="14"/>
				</g>
			</g>
		</g>
	</g>
	
		<linearGradient id="Path_6059_2_" gradientUnits="userSpaceOnUse" x1="-1221.2076" y1="-2295.6721" x2="-1221.2076" y2="-2294.2307" gradientTransform="matrix(44.5252 0 0 137.58 54881.9961 316491.25)">
		<stop  offset="0.581" style="stop-color:#424243"/>
		<stop  offset="0.659" style="stop-color:#494848"/>
		<stop  offset="0.768" style="stop-color:#5A5B5B"/>
		<stop  offset="0.843" style="stop-color:#6B6B6B"/>
		<stop  offset="1" style="stop-color:#767576"/>
	</linearGradient>
	<path id="Path_6059_1_" class="st10" d="M538.27,591.01c-3.08-1.39-6.42-2.12-9.8-2.14H485.9l-19.24,206.21l-0.92,28.07
		c2.61,11.39,8.29,25.26,23.13,25.26h24.96c12.11-0.17,22.13-9.51,23.25-21.64l12.14-203.27
		C549.37,611.74,545.51,600.27,538.27,591.01z"/>
	
		<linearGradient id="Path_6060_2_" gradientUnits="userSpaceOnUse" x1="-1223.3635" y1="-2295.6721" x2="-1223.3635" y2="-2294.2307" gradientTransform="matrix(44.0352 0 0 137.58 54165.6406 316491.25)">
		<stop  offset="0.581" style="stop-color:#424243"/>
		<stop  offset="0.659" style="stop-color:#494848"/>
		<stop  offset="0.768" style="stop-color:#5A5B5B"/>
		<stop  offset="0.843" style="stop-color:#6B6B6B"/>
		<stop  offset="1" style="stop-color:#767576"/>
	</linearGradient>
	<path id="Path_6060_1_" class="st11" d="M264.28,591.01c3.08-1.39,6.42-2.12,9.8-2.14h42.56l19.23,206.21l-0.07,28.07
		c-2.61,11.39-8.29,25.26-23.13,25.26h-23.96c-12.11-0.17-22.14-9.51-23.25-21.64L253.31,623.5
		C253.17,611.74,257.04,600.27,264.28,591.01z"/>
	<path id="Path_6061_1_" class="st12" d="M437.67,786.88h-72.79c-11.76,0.16-21.43-9.31-21.59-21.14v-21.15h115.97v21.15
		C459.1,777.58,449.43,787.04,437.67,786.88z"/>
	
		<linearGradient id="Path_6062_2_" gradientUnits="userSpaceOnUse" x1="-1221.1293" y1="-2294.7769" x2="-1219.2544" y2="-2294.7769" gradientTransform="matrix(39.755 0 0 128.838 49012.0391 296347.4063)">
		<stop  offset="4.000000e-03" style="stop-color:#558D3F"/>
		<stop  offset="0.216" style="stop-color:#599241"/>
		<stop  offset="0.51" style="stop-color:#63A444"/>
		<stop  offset="0.852" style="stop-color:#76BF43"/>
		<stop  offset="1" style="stop-color:#83C341"/>
	</linearGradient>
	<path id="Path_6062_1_" class="st13" d="M466.05,792.78c0.01,11.99,9.68,21.7,21.59,21.69h20.15c12.11-0.18,22.13-9.51,23.25-21.64
		l9.54-178.01c-0.19-23.97-14.51-43.4-31.99-43.4h-42.55v221.36H466.05z"/>
	<g id="Group_5145_1_" transform="translate(367.967 401.324)">
		
			<linearGradient id="Rectangle_22992_2_" gradientUnits="userSpaceOnUse" x1="-1951.7875" y1="-1836.1569" x2="-1949.9124" y2="-1836.1569" gradientTransform="matrix(25.63 0 0 2.038 50126.4219 3884.6079)">
			<stop  offset="0" style="stop-color:#767576"/>
			<stop  offset="0.157" style="stop-color:#6B6B6B"/>
			<stop  offset="0.232" style="stop-color:#5A5B5B"/>
			<stop  offset="0.341" style="stop-color:#494848"/>
			<stop  offset="0.419" style="stop-color:#424243"/>
		</linearGradient>
		<rect id="Rectangle_22992_1_" x="102.11" y="140.6" class="st14" width="48.06" height="3.84"/>
		
			<linearGradient id="Path_6063_2_" gradientUnits="userSpaceOnUse" x1="-1937.8148" y1="-2198.0903" x2="-1935.8966" y2="-2198.0903" gradientTransform="matrix(17.0982 0 0 9.106 33372.1367 20162.1973)">
			<stop  offset="0.581" style="stop-color:#424243"/>
			<stop  offset="0.659" style="stop-color:#494848"/>
			<stop  offset="0.768" style="stop-color:#5A5B5B"/>
			<stop  offset="0.843" style="stop-color:#6B6B6B"/>
			<stop  offset="1" style="stop-color:#767576"/>
		</linearGradient>
		<path id="Path_6063_1_" class="st15" d="M146.77,139.89c0.39-1.65,4.26-2.5,8.63-1.89c2.33,0.32,5.04,0.68,7.92,1.08
			c8.74,1.2,15.46,4.24,14.95,6.79c-0.33,1.59-0.36,7.17-1.44,7.92c-5.74,4.02-19.72-3.42-24.04-4.46c-4.32-1.05-7.21-4.5-6.42-7.79
			L146.77,139.89z"/>
	</g>
	<g id="Group_5146_1_" transform="translate(253.941 401.324)">
		
			<linearGradient id="Rectangle_22993_2_" gradientUnits="userSpaceOnUse" x1="-1735.2874" y1="-1836.1569" x2="-1733.4122" y2="-1836.1569" gradientTransform="matrix(25.63 0 0 2.038 44296.4531 3884.6079)">
			<stop  offset="0" style="stop-color:#767576"/>
			<stop  offset="0.157" style="stop-color:#6B6B6B"/>
			<stop  offset="0.232" style="stop-color:#5A5B5B"/>
			<stop  offset="0.341" style="stop-color:#494848"/>
			<stop  offset="0.419" style="stop-color:#424243"/>
		</linearGradient>
		<rect id="Rectangle_22993_1_" x="30.47" y="140.6" class="st16" width="48.06" height="3.84"/>
		
			<linearGradient id="Path_6064_2_" gradientUnits="userSpaceOnUse" x1="-1724.1772" y1="-2198.0903" x2="-1722.261" y2="-2198.0903" gradientTransform="matrix(17.099 0 0 9.106 29450.6777 20162.1973)">
			<stop  offset="0.581" style="stop-color:#424243"/>
			<stop  offset="0.659" style="stop-color:#494848"/>
			<stop  offset="0.768" style="stop-color:#5A5B5B"/>
			<stop  offset="0.843" style="stop-color:#6B6B6B"/>
			<stop  offset="1" style="stop-color:#767576"/>
		</linearGradient>
		<path id="Path_6064_1_" class="st17" d="M33.87,139.89c-0.39-1.65-4.26-2.5-8.62-1.89c-2.33,0.32-5.04,0.68-7.92,1.08
			c-8.74,1.2-15.46,4.24-14.95,6.79c0.33,1.59,0.36,7.17,1.44,7.92c5.74,4.02,19.72-3.42,24.04-4.46s7.21-4.5,6.43-7.79
			L33.87,139.89z"/>
	</g>
	
		<linearGradient id="Path_6065_2_" gradientUnits="userSpaceOnUse" x1="-1224.3958" y1="-2294.1941" x2="-1226.775" y2="-2295.3044" gradientTransform="matrix(71.594 0 0 110.1718 88121.7578 253234.7969)">
		<stop  offset="4.000000e-03" style="stop-color:#558D3F"/>
		<stop  offset="0.171" style="stop-color:#589241"/>
		<stop  offset="0.404" style="stop-color:#63A444"/>
		<stop  offset="0.675" style="stop-color:#76BF43"/>
		<stop  offset="0.973" style="stop-color:#95C83D"/>
		<stop  offset="1" style="stop-color:#99CA3C"/>
	</linearGradient>
	<path id="Path_6065_1_" class="st18" d="M468.15,545.77l-10.85-24.26l4.11-195.95c0-28.32-120.29-29.64-120.29,0l4.1,195.78
		l-11.32,24.43l11.71-8.2l0.34,14.34h110.62l0.33-13.99L468.15,545.77z"/>
	<path id="Path_6066_1_" class="st19" d="M468.15,545.77l-7.07-24.26l0.33-195.95c0-28.32-120.29-29.64-120.29,0l0.33,195.78
		l-7.55,24.43l11.71-8.2l0.34,14.34h110.62l0.33-13.99L468.15,545.77z"/>
	<path id="Path_6067_1_" class="st20" d="M388.07,304.25c-25.08,1.69-46.94,8.68-46.94,21.32l4.1,195.78l-11.32,24.42l11.71-8.2
		l0.34,14.33h12.31c16.97-15.38,33.87-31.19,39.23-37.86c11.92-14.83,11.27-65.68-9.89-138.2
		C380.8,352.45,380.95,327.55,388.07,304.25z"/>
	
		<linearGradient id="Path_6068_2_" gradientUnits="userSpaceOnUse" x1="-1224.5129" y1="-2032.8391" x2="-1224.5129" y2="-2030.3999" gradientTransform="matrix(62.069 0 0 3.885 76405.3672 8655.6934)">
		<stop  offset="0.208" style="stop-color:#212120"/>
		<stop  offset="0.48" style="stop-color:#272727"/>
		<stop  offset="0.858" style="stop-color:#393939"/>
		<stop  offset="1" style="stop-color:#424243"/>
	</linearGradient>
	<path id="Path_6068_1_" class="st21" d="M446.92,767.56h-91.69l-12.35-7.33h116.38L446.92,767.56z"/>
	
		<linearGradient id="Path_6069_2_" gradientUnits="userSpaceOnUse" x1="-1228.3307" y1="-2294.7769" x2="-1226.4557" y2="-2294.7769" gradientTransform="matrix(39.761 0 0 128.838 48910.6367 296347.4063)">
		<stop  offset="4.000000e-03" style="stop-color:#558D3F"/>
		<stop  offset="0.216" style="stop-color:#599241"/>
		<stop  offset="0.51" style="stop-color:#63A444"/>
		<stop  offset="0.852" style="stop-color:#76BF43"/>
		<stop  offset="1" style="stop-color:#83C341"/>
	</linearGradient>
	<path id="Path_6069_1_" class="st22" d="M336.5,792.78c-0.01,11.99-9.68,21.7-21.6,21.69h-20.15
		c-12.11-0.18-22.13-9.51-23.25-21.64l-9.54-178.01c0.19-23.97,14.5-43.4,31.99-43.4h42.56L336.5,792.78z"/>
	
		<linearGradient id="Path_6070_2_" gradientUnits="userSpaceOnUse" x1="-1225.3486" y1="-2208.124" x2="-1225.3486" y2="-2209.8577" gradientTransform="matrix(73.105 0 0 10.1 89980.6563 22846.2949)">
		<stop  offset="0.208" style="stop-color:#212120"/>
		<stop  offset="0.48" style="stop-color:#272727"/>
		<stop  offset="0.858" style="stop-color:#393939"/>
		<stop  offset="1" style="stop-color:#424243"/>
	</linearGradient>
	<path id="Path_6070_1_" class="st23" d="M470.08,545.77H333l9.57-19.05H460.5L470.08,545.77z"/>
	<path id="Rectangle_22994_1_" class="st24" d="M331.48,536.71h139.58c11.54,0,20.9,9.41,20.9,21.02l0,0v183.64
		c0,11.61-9.35,21.02-20.89,21.02l0,0H331.48c-11.54,0-20.89-9.41-20.89-21.02l0,0V557.73
		C310.58,546.12,319.94,536.71,331.48,536.71z"/>
	<g id="Group_5147_1_" transform="translate(295.098 414.558)">
		<path id="Path_6071_1_" class="st25" d="M171.13,262.92h-4.31V153.88H42.69v109.04h-4.32V149.53h132.78L171.13,262.92z"/>
	</g>
	<g id="Group_5148_1_" transform="translate(376.807 518.528)">
		
			<linearGradient id="Rectangle_22995_2_" gradientUnits="userSpaceOnUse" x1="-1953.4164" y1="-2258.8433" x2="-1951.5413" y2="-2258.8433" gradientTransform="matrix(12.511 0 0 24.243 24549.0313 55025.7031)">
			<stop  offset="0.581" style="stop-color:#424243"/>
			<stop  offset="0.659" style="stop-color:#494848"/>
			<stop  offset="0.768" style="stop-color:#5A5B5B"/>
			<stop  offset="0.843" style="stop-color:#6B6B6B"/>
			<stop  offset="1" style="stop-color:#767576"/>
		</linearGradient>
		<rect id="Rectangle_22995_1_" x="109.84" y="241.7" class="st26" width="23.46" height="45.73"/>
		
			<radialGradient id="Rectangle_22996_2_" cx="-1953.9054" cy="-2371.4407" r="0.3902" gradientTransform="matrix(41.1811 0 0 41.3931 80585.625 98425.8516)" gradientUnits="userSpaceOnUse">
			<stop  offset="0.017" style="stop-color:#DA1F26"/>
			<stop  offset="1" style="stop-color:#801B1C"/>
		</radialGradient>
		<rect id="Rectangle_22996_1_" x="112" y="243.87" class="st27" width="19.14" height="41.39"/>
	</g>
	<g id="Group_5149_1_" transform="translate(272.664 518.528)">
		
			<linearGradient id="Rectangle_22997_2_" gradientUnits="userSpaceOnUse" x1="-1752.4098" y1="-2258.8433" x2="-1750.5352" y2="-2258.8433" gradientTransform="matrix(12.509 0 0 24.243 21939.6133 55025.7031)">
			<stop  offset="0.581" style="stop-color:#424243"/>
			<stop  offset="0.659" style="stop-color:#494848"/>
			<stop  offset="0.768" style="stop-color:#5A5B5B"/>
			<stop  offset="0.843" style="stop-color:#6B6B6B"/>
			<stop  offset="1" style="stop-color:#767576"/>
		</linearGradient>
		<rect id="Rectangle_22997_1_" x="18.72" y="241.7" class="st28" width="23.45" height="45.73"/>
		
			<radialGradient id="Rectangle_22998_2_" cx="-1711.3251" cy="-2371.4407" r="0.3902" gradientTransform="matrix(19.14 0 0 41.3931 32785.1523 98425.8516)" gradientUnits="userSpaceOnUse">
			<stop  offset="0.017" style="stop-color:#DA1F26"/>
			<stop  offset="1" style="stop-color:#801B1C"/>
		</radialGradient>
		<rect id="Rectangle_22998_1_" x="20.88" y="243.87" class="st29" width="19.14" height="41.39"/>
	</g>
	<path id="Path_6072_1_" class="st30" d="M348.06,536.71c-21.85-1.52-37.46,1.28-37.48,25.26v168.36
		c0.01,23.98,5.33,32.09,29.17,32.07c0,0,14.01,0,14.02,0h23.65c0.78-19.15,0.56-37.71-2.28-47.09
		c-7.28-24.06-19.99-95.54,9.88-119.06c13.13-10.33,21.85-35.06,27.5-59.54H348.06z"/>
	<g id="Group_5150_1_" transform="translate(321.795 407.075)">
		
			<linearGradient id="Path_6073_2_" gradientUnits="userSpaceOnUse" x1="-1824.6193" y1="-2247.0295" x2="-1822.9093" y2="-2247.0295" gradientTransform="matrix(18.952 0 0 17.268 35244.0469 38960.8867)">
			<stop  offset="0" style="stop-color:#363B39"/>
			<stop  offset="1" style="stop-color:#0D0E0E"/>
		</linearGradient>
		<path id="Path_6073_1_" class="st31" d="M97.24,159.18c0,8.98-7.97,16.29-17.77,16.29s-17.77-7.31-17.77-16.29
			c0-8.98,7.97-16.29,17.77-16.29S97.24,150.21,97.24,159.18z"/>
		
			<radialGradient id="Path_6074_2_" cx="-1779.3258" cy="-2265.2856" r="0.5" gradientTransform="matrix(2.000000e-15 -30.1308 32.8725 2.000000e-15 76688.7109 -54351.5234)" gradientUnits="userSpaceOnUse">
			<stop  offset="0.017" style="stop-color:#FDD800"/>
			<stop  offset="1" style="stop-color:#F58B1F"/>
		</radialGradient>
		<path id="Path_6074_1_" class="st32" d="M79.47,144.13c9.08,0,16.44,6.74,16.44,15.06c0,8.32-7.36,15.07-16.44,15.07
			s-16.43-6.75-16.43-15.07S70.4,144.13,79.47,144.13z"/>
	</g>
	<g id="Group_5151_1_" transform="translate(294.862 481.958)">
		
			<linearGradient id="Rectangle_22999_2_" gradientUnits="userSpaceOnUse" x1="-1706.5547" y1="-2261.3486" x2="-1706.5547" y2="-2263.218" gradientTransform="matrix(2.777 0 0 25.513 4779.8472 57950.7695)">
			<stop  offset="0" style="stop-color:#FFFFFF"/>
			<stop  offset="0.996" style="stop-color:#8C8B8B"/>
		</linearGradient>
		<rect id="Rectangle_22999_1_" x="38.14" y="209.28" class="st33" width="5.21" height="48.13"/>
		
			<linearGradient id="Rectangle_23000_2_" gradientUnits="userSpaceOnUse" x1="-1704.9769" y1="-2261.3486" x2="-1704.9769" y2="-2263.218" gradientTransform="matrix(2.779 0 0 25.513 4788.7559 57950.7695)">
			<stop  offset="0" style="stop-color:#FFFFFF"/>
			<stop  offset="0.996" style="stop-color:#8C8B8B"/>
		</linearGradient>
		<rect id="Rectangle_23000_1_" x="48.02" y="209.28" class="st34" width="5.21" height="48.13"/>
		
			<linearGradient id="Rectangle_23001_2_" gradientUnits="userSpaceOnUse" x1="-1703.234" y1="-2261.3486" x2="-1703.234" y2="-2263.218" gradientTransform="matrix(2.777 0 0 25.513 4790.3857 57950.7695)">
			<stop  offset="0" style="stop-color:#FFFFFF"/>
			<stop  offset="0.996" style="stop-color:#8C8B8B"/>
		</linearGradient>
		<rect id="Rectangle_23001_1_" x="57.9" y="209.28" class="st35" width="5.21" height="48.13"/>
		
			<linearGradient id="Rectangle_23002_2_" gradientUnits="userSpaceOnUse" x1="-1701.574" y1="-2261.3486" x2="-1701.574" y2="-2263.218" gradientTransform="matrix(2.777 0 0 25.513 4795.6558 57950.7695)">
			<stop  offset="0" style="stop-color:#FFFFFF"/>
			<stop  offset="0.996" style="stop-color:#8C8B8B"/>
		</linearGradient>
		<rect id="Rectangle_23002_1_" x="67.78" y="209.28" class="st36" width="5.21" height="48.13"/>
		
			<linearGradient id="Rectangle_23003_2_" gradientUnits="userSpaceOnUse" x1="-1699.9104" y1="-2261.3486" x2="-1699.9104" y2="-2263.218" gradientTransform="matrix(2.777 0 0 25.513 4800.9258 57950.7695)">
			<stop  offset="0" style="stop-color:#FFFFFF"/>
			<stop  offset="0.996" style="stop-color:#8C8B8B"/>
		</linearGradient>
		<rect id="Rectangle_23003_1_" x="77.67" y="209.28" class="st37" width="5.21" height="48.13"/>
		
			<linearGradient id="Rectangle_23004_2_" gradientUnits="userSpaceOnUse" x1="-1698.2535" y1="-2261.3486" x2="-1698.2535" y2="-2263.218" gradientTransform="matrix(2.777 0 0 25.513 4806.1948 57950.7695)">
			<stop  offset="0" style="stop-color:#FFFFFF"/>
			<stop  offset="0.996" style="stop-color:#8C8B8B"/>
		</linearGradient>
		<rect id="Rectangle_23004_1_" x="87.54" y="209.28" class="st38" width="5.21" height="48.13"/>
		
			<linearGradient id="Rectangle_23005_2_" gradientUnits="userSpaceOnUse" x1="-1696.6791" y1="-2261.3486" x2="-1696.6791" y2="-2263.218" gradientTransform="matrix(2.779 0 0 25.513 4815.106 57950.7695)">
			<stop  offset="0" style="stop-color:#FFFFFF"/>
			<stop  offset="0.996" style="stop-color:#8C8B8B"/>
		</linearGradient>
		<rect id="Rectangle_23005_1_" x="97.43" y="209.28" class="st39" width="5.21" height="48.13"/>
		
			<linearGradient id="Rectangle_23006_2_" gradientUnits="userSpaceOnUse" x1="-1695.02" y1="-2261.3486" x2="-1695.02" y2="-2263.218" gradientTransform="matrix(2.779 0 0 25.513 4820.3755 57950.7695)">
			<stop  offset="0" style="stop-color:#FFFFFF"/>
			<stop  offset="0.996" style="stop-color:#8C8B8B"/>
		</linearGradient>
		<rect id="Rectangle_23006_1_" x="107.31" y="209.28" class="st40" width="5.21" height="48.13"/>
		
			<linearGradient id="Rectangle_23007_2_" gradientUnits="userSpaceOnUse" x1="-1693.2701" y1="-2261.3486" x2="-1693.2701" y2="-2263.218" gradientTransform="matrix(2.777 0 0 25.513 4822.0059 57950.7695)">
			<stop  offset="0" style="stop-color:#FFFFFF"/>
			<stop  offset="0.996" style="stop-color:#8C8B8B"/>
		</linearGradient>
		<rect id="Rectangle_23007_1_" x="117.19" y="209.28" class="st41" width="5.21" height="48.13"/>
		
			<linearGradient id="Rectangle_23008_2_" gradientUnits="userSpaceOnUse" x1="-1691.6101" y1="-2261.3486" x2="-1691.6101" y2="-2263.218" gradientTransform="matrix(2.777 0 0 25.513 4827.2759 57950.7695)">
			<stop  offset="0" style="stop-color:#FFFFFF"/>
			<stop  offset="0.996" style="stop-color:#8C8B8B"/>
		</linearGradient>
		<rect id="Rectangle_23008_1_" x="127.07" y="209.28" class="st42" width="5.21" height="48.13"/>
		
			<linearGradient id="Rectangle_23009_2_" gradientUnits="userSpaceOnUse" x1="-1689.95" y1="-2261.3486" x2="-1689.95" y2="-2263.218" gradientTransform="matrix(2.777 0 0 25.513 4832.5459 57950.7695)">
			<stop  offset="0" style="stop-color:#FFFFFF"/>
			<stop  offset="0.996" style="stop-color:#8C8B8B"/>
		</linearGradient>
		<rect id="Rectangle_23009_1_" x="136.95" y="209.28" class="st43" width="5.21" height="48.13"/>
		
			<linearGradient id="Rectangle_23010_2_" gradientUnits="userSpaceOnUse" x1="-1688.2896" y1="-2261.3486" x2="-1688.2896" y2="-2263.218" gradientTransform="matrix(2.777 0 0 25.513 4837.8149 57950.7695)">
			<stop  offset="0" style="stop-color:#FFFFFF"/>
			<stop  offset="0.996" style="stop-color:#8C8B8B"/>
		</linearGradient>
		<rect id="Rectangle_23010_1_" x="146.83" y="209.28" class="st44" width="5.21" height="48.13"/>
		
			<linearGradient id="Rectangle_23011_2_" gradientUnits="userSpaceOnUse" x1="-1686.7257" y1="-2261.3486" x2="-1686.7257" y2="-2263.218" gradientTransform="matrix(2.779 0 0 25.513 4846.7256 57950.7695)">
			<stop  offset="0" style="stop-color:#FFFFFF"/>
			<stop  offset="0.996" style="stop-color:#8C8B8B"/>
		</linearGradient>
		<rect id="Rectangle_23011_1_" x="156.71" y="209.28" class="st45" width="5.21" height="48.13"/>
		
			<linearGradient id="Rectangle_23012_2_" gradientUnits="userSpaceOnUse" x1="-1685.0664" y1="-2261.3486" x2="-1685.0664" y2="-2263.218" gradientTransform="matrix(2.779 0 0 25.513 4851.9946 57950.7695)">
			<stop  offset="0" style="stop-color:#FFFFFF"/>
			<stop  offset="0.996" style="stop-color:#8C8B8B"/>
		</linearGradient>
		<rect id="Rectangle_23012_1_" x="166.59" y="209.28" class="st46" width="5.21" height="48.13"/>
	</g>
</g>
</svg>
