<?xml version="1.0" encoding="utf-8"?>
<!-- Generator: Adobe Illustrator 24.2.3, SVG Export Plug-In . SVG Version: 6.00 Build 0)  -->
<svg version="1.1" id="Layer_1" xmlns="http://www.w3.org/2000/svg" xmlns:xlink="http://www.w3.org/1999/xlink" x="0px" y="0px"
	 viewBox="0 0 300 872.73" style="enable-background:new 0 0 300 872.73;" xml:space="preserve">
<style type="text/css">
	.st0{fill:#14191C;}
	.st1{opacity:0.3;fill:#8F8F8F;enable-background:new    ;}
	.st2{fill:#C6C5C5;}
	.st3{fill:#F2F2F2;}
	.st4{fill:url(#Path_6449_1_);}
	.st5{fill:#DE7C26;stroke:#4D2E11;stroke-miterlimit:10;}
	.st6{fill:#F7951D;}
	.st7{fill:#A1B7C0;}
	.st8{clip-path:url(#SVGID_2_);}
	.st9{fill:#659BB6;}
	.st10{fill:#457D9A;}
	.st11{fill:#7DAAC2;}
	.st12{fill:#5888A0;}
	.st13{fill:#608EA5;}
	.st14{fill:#3A6882;}
	.st15{opacity:0.29;fill:#4989A9;enable-background:new    ;}
	.st16{opacity:0.29;}
	.st17{fill:#4989A9;}
	.st18{fill:#98BBCD;}
	.st19{fill:none;stroke:#98BBCD;stroke-width:2;stroke-miterlimit:10;}
	.st20{fill:#14191D;}
	.st21{fill:#4A8AAA;}
	.st22{fill:#2B2C2E;}
	.st23{fill:#575757;}
	.st24{clip-path:url(#SVGID_4_);}
	.st25{fill:#3A3A3A;}
	.st26{fill:url(#Path_6466_1_);}
	.st27{fill:#CECECD;}
	.st28{fill:#F1F0EF;}
	.st29{fill:#A9D2DC;}
	.st30{clip-path:url(#SVGID_6_);}
	.st31{fill:#3A8EA0;}
	.st32{fill:#5AAAC1;}
	.st33{fill:none;stroke:#DBDBDA;stroke-width:2;stroke-linecap:round;stroke-miterlimit:10;}
	.st34{fill:#D7D7D7;}
	.st35{fill:none;}
	.st36{fill:#A8B0BA;}
	.st37{fill:url(#Path_6459_1_);}
	.st38{opacity:0.5;fill:#D5D6D5;enable-background:new    ;}
	.st39{opacity:0.5;fill:#B3BAC4;enable-background:new    ;}
	.st40{opacity:0.5;fill:url(#Rectangle_24151_1_);enable-background:new    ;}
	.st41{fill:#858585;}
	.st42{fill:#6B6B6B;}
</style>
<path id="Path_6472" class="st0" d="M41.17,189.04V331.6l222.91,3.07V180.7L41.17,189.04z"/>
<g id="Group_5490" transform="translate(76.101 148.855)">
	<path id="Path_6447" class="st1" d="M-52.53-110.78c0,0-18.82-5.68-22.38,7.49l-1.19,19.43c0,0,0,11.91,9.49,11.91v11.91
		c0,0-5.34-1.25-4.75,10.66v96.53c0,0-0.59,11.91,9.49,11.91v16.92c0,0-1.78,9.4,1.78,10.03v33.86c0,0-4.15,1.88-2.37,11.91
		l0.59,10.03l2.37,3.13l-1.19,8.14c0,0,2.37,25.07,31.44,16.3V-1.75h-26.68l10.69-54.53L-52.53-110.78z"/>
	<path id="Path_6448" class="st2" d="M-55.04,42.51v95.28c0,0-0.82,14.23,8.16,14.66h14.69V42.51
		C-32.19,42.51-55.04,41.64-55.04,42.51z"/>
	<rect id="Rectangle_24122" x="-59.53" y="57.59" class="st3" width="26.52" height="15.52"/>
	<rect id="Rectangle_24123" x="-59.53" y="116.66" class="st3" width="26.52" height="15.52"/>
</g>
<linearGradient id="Path_6449_1_" gradientUnits="userSpaceOnUse" x1="-1098.1804" y1="2730.1633" x2="-1098.1646" y2="2728.0227" gradientTransform="matrix(134.0218 0 0 -84.9314 147332.5938 231894.4688)">
	<stop  offset="0" style="stop-color:#2470A1"/>
	<stop  offset="0.111" style="stop-color:#2C8CCB"/>
	<stop  offset="0.264" style="stop-color:#3694D1"/>
	<stop  offset="1" style="stop-color:#7EC3EC"/>
</linearGradient>
<path id="Path_6449" class="st4" d="M23.21,88.35h-8.79c0,0-4.4-1.16-4.12,9.58l0.55,87.12c0,0-0.55,8.14,7.97,6.39l48.64,0.58
	l219.3-0.58c0,0,9.89,1.45,10.71-5.81l-0.55-94.09c0,0,0.27-5.23-6.87-4.65l-7.14-0.58l-0.27-50.82c0,0-1.65-20.62-26.11-25.55
	c0,0-62.11-12.2-125.31-9.58c0,0-66.5,4.07-89.86,13.07c-11.06,4.2-18.5,15.18-18.69,27.58l1.1,5.52L23.21,88.35z"/>
<path id="Rectangle_24124" d="M74.33,13.66l14.87-2.45c2.66-0.44,5.15,1.48,5.56,4.28l0,0c0.41,2.8-1.4,5.43-4.06,5.87l-14.87,2.45
	c-2.66,0.44-5.15-1.48-5.56-4.28l0,0C69.86,16.72,71.68,14.1,74.33,13.66z"/>
<path id="Rectangle_24125" d="M231.34,24.08l-14.86-2.44c-2.66-0.44-4.48-3.07-4.07-5.87l0,0c0.41-2.81,2.91-4.73,5.57-4.29
	l14.86,2.44c2.66,0.44,4.48,3.07,4.07,5.87l0,0C236.49,22.6,234,24.52,231.34,24.08z"/>
<g id="Group_5491" transform="translate(130.696 163.241)">
	<path id="Rectangle_24126" class="st5" d="M-8.56-91.6H2.56c2.84,0,5.15,2.43,5.15,5.43l0,0c0,3-2.31,5.43-5.15,5.43H-8.56
		c-2.84,0-5.15-2.43-5.15-5.43l0,0C-13.71-89.17-11.4-91.6-8.56-91.6z"/>
	<path id="Rectangle_24127" class="st6" d="M-8.56-93.86H2.56c2.84,0,5.15,2.43,5.15,5.43l0,0c0,3-2.31,5.43-5.15,5.43H-8.56
		c-2.84,0-5.15-2.43-5.15-5.43l0,0C-13.71-91.42-11.4-93.86-8.56-93.86z"/>
</g>
<g id="Group_5492" transform="translate(93.651 177.964)">
	<path id="Rectangle_24128" class="st5" d="M-50.89-73.03h11.12c2.84,0,5.15,2.43,5.15,5.43l0,0c0,3-2.31,5.43-5.15,5.43h-11.12
		c-2.84,0-5.15-2.43-5.15-5.43l0,0C-56.04-70.6-53.74-73.03-50.89-73.03z"/>
	<path id="Rectangle_24129" class="st6" d="M-50.89-75.29h11.12c2.84,0,5.15,2.43,5.15,5.43l0,0c0,3-2.31,5.43-5.15,5.43h-11.12
		c-2.84,0-5.15-2.43-5.15-5.43l0,0C-56.04-72.86-53.74-75.29-50.89-75.29z"/>
</g>
<g id="Group_5493" transform="translate(192.439 177.964)">
	<path id="Rectangle_24130" class="st5" d="M62.01-73.03h11.12c2.84,0,5.15,2.43,5.15,5.43l0,0c0,3-2.31,5.43-5.15,5.43H62.01
		c-2.84,0-5.15-2.43-5.15-5.43l0,0C56.86-70.6,59.16-73.03,62.01-73.03z"/>
	<path id="Rectangle_24131" class="st6" d="M62.01-75.29h11.12c2.84,0,5.15,2.43,5.15,5.43l0,0c0,3-2.31,5.43-5.15,5.43H62.01
		c-2.84,0-5.15-2.43-5.15-5.43l0,0C56.86-72.86,59.16-75.29,62.01-75.29z"/>
</g>
<g id="Group_5494" transform="translate(154.452 163.241)">
	<path id="Rectangle_24132" class="st5" d="M18.59-91.6h11.12c2.84,0,5.15,2.43,5.15,5.43l0,0c0,3-2.31,5.43-5.15,5.43H18.59
		c-2.84,0-5.15-2.43-5.15-5.43l0,0C13.44-89.17,15.75-91.6,18.59-91.6z"/>
	<path id="Rectangle_24133" class="st6" d="M18.59-93.86h11.12c2.84,0,5.15,2.43,5.15,5.43l0,0c0,3-2.31,5.43-5.15,5.43H18.59
		c-2.84,0-5.15-2.43-5.15-5.43l0,0C13.44-91.42,15.75-93.86,18.59-93.86z"/>
</g>
<g id="Group_5498" transform="translate(128.815 172.061)">
	<g id="Group_5497" transform="translate(0 0.002)">
		<path id="Rectangle_24134" class="st7" d="M-7.28-82.73h63c4.73,0,8.57,4.05,8.57,9.04v40.77c0,4.99-3.84,9.04-8.57,9.04h-63
			c-4.73,0-8.57-4.05-8.57-9.04v-40.77C-15.86-78.68-12.02-82.73-7.28-82.73z"/>
		<g id="Group_5496">
			<g>
				<g>
					<g>
						<defs>
							<path id="SVGID_1_" d="M-7.28-82.73h63c4.73,0,8.57,4.05,8.57,9.04v40.77c0,4.99-3.84,9.04-8.57,9.04h-63
								c-4.73,0-8.57-4.05-8.57-9.04v-40.77C-15.86-78.68-12.02-82.73-7.28-82.73z"/>
						</defs>
						<clipPath id="SVGID_2_">
							<use xlink:href="#SVGID_1_"  style="overflow:visible;"/>
						</clipPath>
						<g id="Group_5495" class="st8">
							<rect id="Rectangle_24135" x="-16.86" y="-84.86" class="st9" width="85.68" height="12.25"/>
							<rect id="Rectangle_24136" x="54.2" y="-104.57" class="st9" width="11.59" height="90.55"/>
							<rect id="Rectangle_24137" x="-16.86" y="-34.6" class="st10" width="85.68" height="12.25"/>
							<rect id="Rectangle_24138" x="-18.12" y="-97.38" class="st10" width="11.59" height="90.55"/>
						</g>
					</g>
				</g>
			</g>
		</g>
	</g>
	<path id="Path_6450" class="st11" d="M54.33-82.73v10.38h9.95C64.28-72.35,65.8-82.99,54.33-82.73z"/>
	<path id="Path_6451" class="st12" d="M-5.83-82.73v10.38h-9.96C-15.79-72.35-17.3-82.99-5.83-82.73z"/>
	<path id="Path_6452" class="st13" d="M54.33-23.88l-0.12-10.67l10.07-0.05C64.29-34.59,65.8-23.61,54.33-23.88z"/>
	<path id="Path_6453" class="st14" d="M-5.83-23.88v-10.39h-9.96C-15.79-34.27-17.3-23.61-5.83-23.88z"/>
</g>
<path id="Rectangle_24140" class="st15" d="M207.61,62.09L207.61,62.09c2.34,0,4.24,2,4.24,4.48v102.16c0,2.47-1.9,4.48-4.24,4.48
	l0,0c-2.34,0-4.24-2-4.24-4.48V66.56C203.36,64.09,205.26,62.09,207.61,62.09z"/>
<path id="Rectangle_24141" class="st15" d="M71.46,62.09L71.46,62.09c2.34,0,4.24,2,4.24,4.48v102.16c0,2.47-1.9,4.48-4.24,4.48l0,0
	c-2.34,0-4.24-2-4.24-4.48V66.56C67.22,64.09,69.12,62.09,71.46,62.09z"/>
<path id="Rectangle_24142" class="st15" d="M98.77,62.09L98.77,62.09c2.34,0,4.24,2,4.24,4.48v102.16c0,2.47-1.9,4.48-4.24,4.48l0,0
	c-2.34,0-4.24-2-4.24-4.48V66.56C94.52,64.09,96.42,62.09,98.77,62.09z"/>
<g id="Group_5499" transform="translate(184.166 160.013)" class="st16">
	<path id="Rectangle_24143" class="st17" d="M51.65-97.93L51.65-97.93c2.34,0,4.24,2,4.24,4.48V8.71c0,2.47-1.9,4.48-4.24,4.48l0,0
		c-2.34,0-4.24-2-4.24-4.48V-93.45C47.4-95.92,49.3-97.93,51.65-97.93z"/>
	<rect id="Rectangle_24144" x="51.28" y="-95" class="st18" width="2.77" height="45.03"/>
	<rect id="Rectangle_24145" x="51.28" y="-46.66" class="st18" width="2.77" height="12.15"/>
</g>
<path id="Path_6455" class="st19" d="M287.29,90.57l4.8-0.41c0,0,2.95-0.78,2.58,5.07l-0.37,14.23"/>
<line id="Line_64" class="st19" x1="294.13" y1="113.74" x2="294.13" y2="120.37"/>
<path id="Path_6456" d="M291.04,37.88h-11.01v-5.16h-8.49v11.97h8.49v-5.82h11.03c0.31,0,7.71-0.21,8.01,7.14l-0.32,13.29l0.94,0.02
	l0.32-13.34C299.67,37.62,291.11,37.88,291.04,37.88z"/>
<path id="Path_6457" d="M22.84,37.88h3.47v-5.16h8.49v11.97h-8.49v-3.83h-3.48C22.51,40.86,22.76,37.88,22.84,37.88z"/>
<rect id="Rectangle_24146" x="282.91" y="48.44" class="st20" width="10.96" height="43.9"/>
<path id="Path_6458" class="st21" d="M284.42,86.38v104.4c0,0,11.57,2.86,13.05-5.15l-0.6-90.04
	C296.88,95.6,304.76,84.63,284.42,86.38z"/>
<path id="Path_6460" class="st22" d="M57.66,321.08v-87.3c0,0-0.23-11.48,8.6-11.72h182.72v108.1L57.66,321.08z"/>
<g id="Group_5509" transform="translate(106.163 223.156)">
	<path id="Rectangle_24152" class="st23" d="M-24.6-18.3h17.19c9.47,0,17.14,8.1,17.14,18.09v60.27c0,9.99-7.68,18.09-17.14,18.09
		H-24.6c-9.47,0-17.14-8.1-17.14-18.09V-0.21C-41.74-10.21-34.07-18.3-24.6-18.3z"/>
	<g id="Group_5508">
		<g>
			<g>
				<g>
					<defs>
						<path id="SVGID_3_" d="M-24.6-18.3h17.19c9.47,0,17.14,8.1,17.14,18.09v60.27c0,9.99-7.68,18.09-17.14,18.09H-24.6
							c-9.47,0-17.14-8.1-17.14-18.09V-0.21C-41.74-10.21-34.07-18.3-24.6-18.3z"/>
					</defs>
					<clipPath id="SVGID_4_">
						<use xlink:href="#SVGID_3_"  style="overflow:visible;"/>
					</clipPath>
					<g id="Group_5507" class="st24">
						<rect id="Rectangle_24153" x="-45.31" y="-22.24" class="st25" width="8.46" height="104.6"/>
					</g>
				</g>
			</g>
		</g>
	</g>
</g>
<g id="Group_5510" transform="translate(134.833 217.461)">
	
		<linearGradient id="Path_6466_1_" gradientUnits="userSpaceOnUse" x1="-1500.316" y1="2505.7261" x2="-1500.316" y2="2504.0054" gradientTransform="matrix(78.8516 0 0 -47.2344 118377.8359 118351.5391)">
		<stop  offset="0" style="stop-color:#E2E2E2"/>
		<stop  offset="1" style="stop-color:#AAAAAA"/>
	</linearGradient>
	<path id="Path_6466" class="st26" d="M-8.98,73.78L1.73,58.5l-8.46-6.46c0,0-2.11-0.99-2.11-11.18V29.43c0,0,1.17-8.7,11.05-8.45
		v-7.7h8.23V-2.13c0.6-2.52,3.01-4.07,5.41-3.48h7.76c0,0,2.11,0,1.41,3.73h3.29v-1.49h100.87v-22.65h22.76v16.93
		c0,0-2.07,4.97,4.29,7.95c0,0,4,1.49,3.76,9.44v60.13c0,0,0.47,11.93-12,11.68H45.4c0,0-18.79,3.6-22.88-5.97
		C22.52,74.14-8.98,73.16-8.98,73.78z"/>
	<rect id="Rectangle_24155" x="2.67" y="13.77" class="st27" width="18.11" height="43.23"/>
	<path id="Rectangle_24156" class="st28" d="M143.05,10.91L143.05,10.91c0,5.5-4.23,9.96-9.44,9.96H34.35
		c-5.21,0-9.44-4.46-9.44-9.96l0,0c0-5.5,4.23-9.96,9.44-9.96h99.26C138.82,0.95,143.05,5.41,143.05,10.91z"/>
</g>
<g id="Group_5513" transform="translate(93.265 140.359)">
	<path id="Path_6467" class="st29" d="M-56.31-103.12c0,0,43.42-21.48,128.89-19.46c0,0,62.11,1.16,103.05,18v18.59
		c0,0-79.97-16.26-156.92-9.87c0,0-60.15,4.65-74.99,10.74C-56.27-85.11-56.72-103.55-56.31-103.12z"/>
	<g id="Group_5512" transform="translate(0)">
		<g>
			<g>
				<g>
					<defs>
						<path id="SVGID_5_" d="M-56.31-103.12c0,0,43.42-21.48,128.89-19.46c0,0,62.11,1.16,103.05,18v18.59
							c0,0-79.97-16.26-156.92-9.87c0,0-60.15,4.65-74.99,10.74C-56.27-85.11-56.72-103.55-56.31-103.12z"/>
					</defs>
					<clipPath id="SVGID_6_">
						<use xlink:href="#SVGID_5_"  style="overflow:visible;"/>
					</clipPath>
					<g id="Group_5511" class="st30">
						<path id="Path_6468" class="st31" d="M77.14-128.5L66.17-94.05h23.36l12.12-32.01L77.14-128.5z"/>
						<path id="Path_6469" class="st32" d="M124.74-128.5L113.2-90.39l63.54,10.29l12.12-35.99L124.74-128.5z"/>
					</g>
				</g>
			</g>
		</g>
	</g>
</g>
<path id="Path_6471" class="st33" d="M226.96,9.42c0,0,39.23-0.31,47.6,16.77"/>
<path id="Path_6461" class="st34" d="M76.44,811.75l4.17,32.96c0,0,0,8.01,8.42,7.12l131.74,0.89c0,0,8.42,0,8.42-6.67l5.05-33.36
	L76.44,811.75z"/>
<path class="st35" d="M76.44,811.75l4.17,32.96c0,0,0,8.01,8.42,7.12l131.74,0.89c0,0,8.42,0,8.42-6.67l5.05-33.36L76.44,811.75z"/>
<g id="Group_5500">
	<path id="Path_6462" class="st36" d="M77.53,824.43c0,0,77.75,29.28,155.2,0.38l4.15-28.13L75.56,810.03L77.53,824.43z"/>
</g>
<linearGradient id="Path_6459_1_" gradientUnits="userSpaceOnUse" x1="-1097.0458" y1="2732.1411" x2="-1099.1886" y2="2732.1411" gradientTransform="matrix(131.542 0 0 -235.5213 144602.4063 644035)">
	<stop  offset="0" style="stop-color:#E8E7E7"/>
	<stop  offset="0.539" style="stop-color:#E8E7E7"/>
	<stop  offset="0.901" style="stop-color:#C2C1C1"/>
	<stop  offset="1" style="stop-color:#B3B3B4"/>
</linearGradient>
<path id="Path_6459" class="st37" d="M28.31,394.76c0,0,3.74-57.9,28.23-72.82c0,0,28-13.6,68.68-16.67l0.64-14.04h31.96
	c0,0,2.91,7.01,9.13,7.01l13.29-0.44v9.21c0,0,57.7,3.51,75.55,20.18c0,0,9.96,3.51,12.87,30.71l24.91,140.37l1.24,132.47
	l-23.25,139.93c0,0,1.01,26.95-21.65,38.85c0,0-48.51,18.62-113.68,13.35c0,0-47.42-0.25-73.99-12.97c0,0-20.23-6.33-23.15-37.92
	L14.6,631.64l-1.66-133.79L28.31,394.76z"/>
<path id="Rectangle_24150_2_" class="st38" d="M35.36,362.02H268.3l-0.23-3.1c1.99-22.85-17.57-44.61-39.63-44.61l-148.53-0.63
	C56.65,313.68,35.36,338.75,35.36,362.02L35.36,362.02z"/>
<path class="st35" d="M28.31,394.76c0,0,3.74-57.9,28.23-72.82c0,0,28-13.6,68.68-16.67l0.64-14.47l31.95,0.43
	c2.03,3.56,5.59,5.83,9.52,6.08l12.83-0.09l0.06,9.81c0,0,57.7,3.51,75.55,20.18c0,0,9.96,3.51,12.87,30.71l24.91,140.37
	l1.24,132.47l-23.25,139.93c0,0-1.24,27.64-20.76,36.85c0,0-49.4,20.62-114.57,15.35c0,0-48.15-1.32-74.72-14.04
	c0,0-19.5-5.26-22.42-36.85L14.59,631.64l-1.65-133.78L28.31,394.76z"/>
<path id="Path_6464" class="st39" d="M78.02,322.82L43.24,499.14l0.74,128.66l32.39,186.52c0,0-14.91-2.73-22.43-9.45
	c-9.22-6.94-13.43-22.2-13.43-22.2L15.4,632.5l-2.39-133.06l20.08-135.52l2.42-7.92c0,0,8.77-30.03,19.81-33.18
	C60.85,318.5,78.02,322.82,78.02,322.82z"/>
<path id="Rectangle_24150" class="st38" d="M38.91,772.32L272,771.57l-0.38,3.85c-1.62,22-19.95,39.02-42.01,39.02H81.03
	C57.77,814.43,38.91,795.58,38.91,772.32L38.91,772.32z"/>
<linearGradient id="Rectangle_24151_1_" gradientUnits="userSpaceOnUse" x1="-1179.4534" y1="2460.7283" x2="-1181.3185" y2="2460.7385" gradientTransform="matrix(139.622 0 0 -58.312 164965.5938 144055.25)">
	<stop  offset="0" style="stop-color:#2F7BAA"/>
	<stop  offset="0.286" style="stop-color:#448FBE"/>
	<stop  offset="0.766" style="stop-color:#0E75B3"/>
	<stop  offset="1" style="stop-color:#084974"/>
</linearGradient>
<polygon id="Rectangle_24151" class="st40" points="13.07,499.03 294.12,499.03 294.12,630.88 14.68,630.88 "/>
<g id="Group_5503" transform="translate(24.534)">
	<path id="Rectangle_24147" class="st41" d="M129.52,789.12L129.52,789.12c13.83,0,25.04,11.83,25.04,26.42v30.77
		c0,14.59-11.21,26.42-25.04,26.42l0,0c-13.83,0-25.04-11.83-25.04-26.42v-30.77C104.48,800.95,115.69,789.12,129.52,789.12z"/>
	<path id="Rectangle_24148" class="st42" d="M129.52,793.23L129.52,793.23c11.51,0,20.83,9.84,20.83,21.98v28.53
		c0,12.14-9.33,21.98-20.83,21.98l0,0c-11.51,0-20.83-9.84-20.83-21.98v-28.53C108.69,803.07,118.01,793.23,129.52,793.23z"/>
</g>
</svg>
