<?xml version="1.0" encoding="utf-8"?>
<!-- Generator: Adobe Illustrator 24.2.3, SVG Export Plug-In . SVG Version: 6.00 Build 0)  -->
<svg version="1.1" id="Layer_1" xmlns="http://www.w3.org/2000/svg" xmlns:xlink="http://www.w3.org/1999/xlink" x="0px" y="0px"
	 viewBox="0 0 300 308.33" style="enable-background:new 0 0 300 308.33;" xml:space="preserve">
<style type="text/css">
	.st0{fill:#AAAAAA;}
	.st1{fill:#282929;}
	.st2{fill:none;stroke:#C6C5C5;stroke-width:2;stroke-miterlimit:10;}
	.st3{fill:url(#Path_6280_1_);}
	.st4{fill:url(#Rectangle_23624_1_);}
	.st5{fill:url(#Path_6281_1_);}
	.st6{fill:url(#Rectangle_23625_1_);}
	.st7{fill:url(#Path_6282_1_);}
	.st8{fill:url(#Path_6315_1_);}
	.st9{fill:url(#Path_6316_1_);}
	.st10{fill:url(#Path_6317_1_);}
	.st11{fill:none;stroke:#467236;stroke-miterlimit:10;}
	.st12{fill:url(#Rectangle_23799_1_);}
	.st13{fill:#313131;}
	.st14{fill:url(#Path_6323_1_);}
	.st15{fill:url(#SVGID_1_);}
	.st16{fill:#2F6F3B;}
	.st17{fill:url(#Path_6437-2_1_);}
	.st18{fill:url(#Path_6438_1_);}
	.st19{fill:url(#Path_6439-2_1_);}
	.st20{fill:url(#Rectangle_24082_1_);stroke:#B1C3B4;stroke-miterlimit:10;}
	.st21{fill:url(#Path_6440-2_1_);}
	.st22{fill:url(#Path_6441-2_1_);}
	.st23{fill:#4AB763;}
	.st24{fill:url(#Path_6443-2_1_);}
	.st25{fill:url(#Path_6444_1_);}
	.st26{opacity:0.5;}
	.st27{fill:#636464;}
	.st28{fill:#066634;}
	.st29{fill:url(#Rectangle_24081_1_);}
	.st30{fill:#14191C;}
	.st31{opacity:0.3;fill:#8F8F8F;enable-background:new    ;}
	.st32{fill:#C6C5C5;}
	.st33{fill:#F2F2F2;}
	.st34{fill:url(#Path_6449_1_);}
	.st35{fill:#DE7C26;stroke:#4D2E11;stroke-miterlimit:10;}
	.st36{fill:#F7951D;}
	.st37{fill:#A1B7C0;}
	.st38{clip-path:url(#SVGID_3_);}
	.st39{fill:#659BB6;}
	.st40{fill:#457D9A;}
	.st41{fill:#7DAAC2;}
	.st42{fill:#5888A0;}
	.st43{fill:#608EA5;}
	.st44{fill:#3A6882;}
	.st45{opacity:0.29;fill:#4989A9;enable-background:new    ;}
	.st46{opacity:0.29;}
	.st47{fill:#4989A9;}
	.st48{fill:#98BBCD;}
	.st49{fill:none;stroke:#98BBCD;stroke-width:2;stroke-miterlimit:10;}
	.st50{fill:#14191D;}
	.st51{fill:#4A8AAA;}
	.st52{fill:url(#Path_6459_1_);}
	.st53{fill:#2B2C2E;}
	.st54{fill:#D7D7D7;}
	.st55{clip-path:url(#SVGID_5_);}
	.st56{fill:#A8B0BA;}
	.st57{fill:#858585;}
	.st58{fill:#6B6B6B;}
	.st59{clip-path:url(#SVGID_7_);}
	.st60{fill:#D5D6D5;}
	.st61{opacity:0.5;fill:url(#Rectangle_24151_1_);enable-background:new    ;}
	.st62{opacity:0.5;fill:#B3BAC4;enable-background:new    ;}
	.st63{fill:#575757;}
	.st64{clip-path:url(#SVGID_9_);}
	.st65{fill:#3A3A3A;}
	.st66{fill:url(#Path_6466_1_);}
	.st67{fill:#CECECD;}
	.st68{fill:#F1F0EF;}
	.st69{fill:#A9D2DC;}
	.st70{clip-path:url(#SVGID_11_);}
	.st71{fill:#3A8EA0;}
	.st72{fill:#5AAAC1;}
	.st73{fill:none;stroke:#DBDBDA;stroke-width:2;stroke-linecap:round;stroke-miterlimit:10;}
	.st74{fill:#616362;}
	.st75{fill:#1E1E1E;}
	.st76{fill:url(#SVGID_12_);}
	.st77{fill:#707171;}
	.st78{fill:url(#SVGID_13_);}
	.st79{fill:#3F4040;}
	.st80{fill:url(#SVGID_14_);}
	.st81{fill:#808080;}
	.st82{fill:#9D9D9D;}
	.st83{fill:#6F6E6F;}
	.st84{fill:#1A1A1A;}
	.st85{fill:#161616;}
	.st86{fill:#2F2F2F;}
	.st87{fill:#121112;}
	.st88{fill:#2E2E2E;}
	.st89{fill:url(#SVGID_15_);}
	.st90{fill:url(#SVGID_16_);}
	.st91{fill:url(#SVGID_17_);}
	.st92{fill:url(#SVGID_18_);}
	.st93{fill:url(#SVGID_19_);}
	.st94{fill:#545452;}
	.st95{fill:url(#SVGID_20_);}
	.st96{fill:url(#SVGID_21_);}
	.st97{fill:url(#SVGID_22_);}
	.st98{fill:url(#SVGID_23_);}
	.st99{fill:url(#SVGID_24_);}
	.st100{fill:url(#SVGID_25_);}
	.st101{fill:url(#SVGID_26_);}
	.st102{fill:url(#SVGID_27_);}
	.st103{fill:url(#SVGID_28_);}
	.st104{fill:url(#SVGID_29_);}
	.st105{fill:url(#SVGID_30_);}
	.st106{fill:url(#SVGID_31_);}
	.st107{fill:url(#SVGID_32_);}
	.st108{fill:url(#SVGID_33_);}
	.st109{fill:url(#SVGID_34_);}
	.st110{fill:url(#SVGID_35_);}
	.st111{fill:url(#SVGID_36_);}
	.st112{fill:url(#SVGID_37_);}
	.st113{fill:url(#SVGID_38_);}
	.st114{fill:url(#SVGID_39_);}
	.st115{fill:url(#SVGID_40_);}
	.st116{fill:url(#SVGID_41_);}
	.st117{fill:url(#SVGID_42_);}
	.st118{fill:url(#SVGID_43_);}
	.st119{fill:url(#SVGID_44_);}
	.st120{fill:url(#SVGID_45_);}
	.st121{fill:url(#SVGID_46_);}
	.st122{fill:url(#SVGID_47_);}
	.st123{fill:#141414;}
	.st124{fill:#958932;}
	.st125{fill:url(#SVGID_48_);}
	.st126{fill:url(#SVGID_49_);}
	.st127{fill:none;stroke:#575757;stroke-miterlimit:10;}
	.st128{fill:#7F7F7F;}
	.st129{fill:url(#SVGID_50_);}
	.st130{fill:#515252;}
	.st131{fill:#A4A4A4;}
</style>
<g id="Group_5489" transform="translate(-487.86 -681.053)">
	<linearGradient id="SVGID_1_" gradientUnits="userSpaceOnUse" x1="636.623" y1="941.4103" x2="638.1296" y2="711.6504">
		<stop  offset="0" style="stop-color:#299854"/>
		<stop  offset="0.976" style="stop-color:#0A9447"/>
		<stop  offset="0.983" style="stop-color:#0C7F40"/>
		<stop  offset="1" style="stop-color:#066434"/>
	</linearGradient>
	<path class="st15" d="M639.08,942.51h-2.44c-82.17,0-148.78-66.61-148.78-148.78v-82.44h300v82.44
		C787.86,875.9,721.25,942.51,639.08,942.51z"/>
	<polygon id="Rectangle_24079" class="st16" points="489.09,813.02 786.62,813.02 786.53,813.76 489.19,813.76 	"/>
	<g transform="matrix(1, 0, 0, 1, 487.86, 681.05)">
		
			<linearGradient id="Path_6437-2_1_" gradientUnits="userSpaceOnUse" x1="-2710.4226" y1="2139.7356" x2="-2710.4226" y2="2138.9084" gradientTransform="matrix(7.344 0 0 -261.66 20003.5898 559913.5625)">
			<stop  offset="0" style="stop-color:#0FA74B"/>
			<stop  offset="1" style="stop-color:#4CB648"/>
		</linearGradient>
		<path id="Path_6437-2" class="st17" d="M96.27,244.29L95.25,30.25h6.03v216.44L96.27,244.29z"/>
	</g>
	
		<linearGradient id="Path_6438_1_" gradientUnits="userSpaceOnUse" x1="-2224.3562" y1="2819.1843" x2="-2223.5356" y2="2819.1843" gradientTransform="matrix(7.344 0 0 -197.9 16965.2578 558669.9375)">
		<stop  offset="0" style="stop-color:#5B5C5E"/>
		<stop  offset="0.492" style="stop-color:#8D8D8D"/>
		<stop  offset="1" style="stop-color:#424241"/>
	</linearGradient>
	<path id="Path_6438" class="st18" d="M629.6,823.6V681.05h6.03v144.52L629.6,823.6z"/>
	<g transform="matrix(1, 0, 0, 1, 487.86, 681.05)">
		
			<linearGradient id="Path_6439-2_1_" gradientUnits="userSpaceOnUse" x1="-2713.1204" y1="2139.8088" x2="-2713.1204" y2="2138.9841" gradientTransform="matrix(7.345 0 0 -267.494 20119.7813 572416.3125)">
			<stop  offset="0" style="stop-color:#0FA74B"/>
			<stop  offset="1" style="stop-color:#4CB648"/>
		</linearGradient>
		<path id="Path_6439-2" class="st19" d="M194.4,248.7V30.24l-4.28,0.02l-0.53,220.55L194.4,248.7z"/>
	</g>
	
		<linearGradient id="Rectangle_24082_1_" gradientUnits="userSpaceOnUse" x1="-2271.8477" y1="2797.5847" x2="-2272.6682" y2="2797.5847" gradientTransform="matrix(24.528 0 0 -33.004 56366.8516 93136.8984)">
		<stop  offset="0" style="stop-color:#DAD1C0"/>
		<stop  offset="0.246" style="stop-color:#E1E1DC"/>
		<stop  offset="0.589" style="stop-color:#708588"/>
		<stop  offset="0.737" style="stop-color:#728688"/>
		<stop  offset="0.802" style="stop-color:#7B8E8F"/>
		<stop  offset="0.857" style="stop-color:#889B98"/>
		<stop  offset="0.905" style="stop-color:#9EB0A7"/>
		<stop  offset="0.949" style="stop-color:#B7C8B8"/>
		<stop  offset="0.99" style="stop-color:#D7E6CD"/>
		<stop  offset="1" style="stop-color:#E2EFD4"/>
	</linearGradient>
	<rect id="Rectangle_24082" x="622.85" y="791.87" class="st20" width="20.13" height="27.08"/>
	<g id="Group_5478" transform="translate(568.486 687.053)">
		<g transform="matrix(1, 0, 0, 1, -80.63, -6)">
			
				<linearGradient id="Path_6440-2_1_" gradientUnits="userSpaceOnUse" x1="-2768.4924" y1="2137.5781" x2="-2768.4924" y2="2136.792" gradientTransform="matrix(41.758 0 0 -153.928 115725.1016 329209.9063)">
				<stop  offset="0" style="stop-color:#0FA74B"/>
				<stop  offset="1" style="stop-color:#4CB648"/>
			</linearGradient>
			<path id="Path_6440-2" class="st21" d="M105.62,247.15l-0.83-68.88l-3.47-1.47l-0.04,70.68l34.27,50.34l-0.48-13.21
				L105.62,247.15z"/>
		</g>
		<g transform="matrix(1, 0, 0, 1, -80.63, -6)">
			
				<linearGradient id="Path_6441-2_1_" gradientUnits="userSpaceOnUse" x1="-2764.3208" y1="2139.2373" x2="-2764.3208" y2="2138.6311" gradientTransform="matrix(31.157 0 0 -238.286 86241.2891 509758.4688)">
				<stop  offset="0" style="stop-color:#59B94F"/>
				<stop  offset="0.1224" style="stop-color:#0D5B2F"/>
				<stop  offset="0.193" style="stop-color:#2DB24A"/>
				<stop  offset="0.3518" style="stop-color:#19B14B"/>
				<stop  offset="1" style="stop-color:#4CB648"/>
			</linearGradient>
			<path id="Path_6441-2" class="st22" d="M124.07,0h-8.92l3.26,30.35l-16.86,124.88l-0.25,21.59l2.91-17.25l21.28-128.69L124.07,0z
				"/>
		</g>
	</g>
	<g id="Group_5479" transform="translate(633.369 687.053)">
		<path id="Path_6442" class="st23" d="M44.24,170.02l-3.91,1.71l-0.54,72.62L9.52,276.46l-0.51,11.49l35.12-43.28L44.24,170.02z"/>
		<g transform="matrix(1, 0, 0, 1, -145.51, -6)">
			
				<linearGradient id="Path_6443-2_1_" gradientUnits="userSpaceOnUse" x1="-2763.7986" y1="2139.4414" x2="-2763.7986" y2="2138.3447" gradientTransform="matrix(29.494 0 0 -238.2889 81692.5781 509763.75)">
				<stop  offset="0" style="stop-color:#59B94F"/>
				<stop  offset="0.193" style="stop-color:#2DB24A"/>
				<stop  offset="0.2509" style="stop-color:#0D5B2F"/>
				<stop  offset="0.338" style="stop-color:#19B14B"/>
				<stop  offset="1" style="stop-color:#4CB648"/>
			</linearGradient>
			<path id="Path_6443-2" class="st24" d="M171.67,29.55L176.04,0l-8.7,0l-2.73,30.36l25.15,145.68l0.09-21.54L171.67,29.55z"/>
		</g>
	</g>
	<g id="Group_5488" transform="translate(609.387 1041.413)">
		<g id="Group_5487">
			<rect id="Rectangle_24083" x="13.31" y="-83.99" width="1.37" height="20.62"/>
			<rect id="Rectangle_24121" x="33.01" y="-83.99" width="1.37" height="20.62"/>
			<g id="Group_5486" transform="translate(1.477)">
				
					<linearGradient id="Path_6444_1_" gradientUnits="userSpaceOnUse" x1="-2881.782" y1="1765.981" x2="-2881.7698" y2="1766.8016" gradientTransform="matrix(23.022 0 0 -51.6389 66366.8359 91141.3438)">
					<stop  offset="0" style="stop-color:#3B3B3B"/>
					<stop  offset="0.21" style="stop-color:#6E6E6F"/>
					<stop  offset="0.388" style="stop-color:#7B7B7B"/>
					<stop  offset="0.54" style="stop-color:#444444"/>
					<stop  offset="0.842" style="stop-color:#161616"/>
					<stop  offset="1" style="stop-color:#262626"/>
				</linearGradient>
				<path id="Path_6444" class="st25" d="M27.74-52.03H17.25c-2.32,0-4.2-1.63-4.2-3.65v-35.08c0-2.01,1.89-3.65,4.2-3.65h10.49
					c2.32,0,4.2,1.64,4.2,3.65v35.08C31.94-53.66,30.06-52.03,27.74-52.03z"/>
				<g id="Group_5480" transform="translate(0.187 4.001)" class="st26">
					<path id="Path_6445" class="st27" d="M13.48-59.68h4.2v2.46h-3.22C13.83-57.88,13.48-58.76,13.48-59.68z"/>
					<rect id="Rectangle_24084" x="13.01" y="-65.59" class="st27" width="4.66" height="2.46"/>
					<rect id="Rectangle_24085" x="13.01" y="-71.49" class="st27" width="4.66" height="2.46"/>
					<rect id="Rectangle_24086" x="13.01" y="-77.4" class="st27" width="4.66" height="2.46"/>
					<rect id="Rectangle_24087" x="13.01" y="-83.31" class="st27" width="4.66" height="2.46"/>
					<rect id="Rectangle_24088" x="13.01" y="-89.22" class="st27" width="4.66" height="2.46"/>
					<rect id="Rectangle_24089" x="13.01" y="-95.13" class="st27" width="4.66" height="2.46"/>
				</g>
				<g id="Group_5481" transform="translate(16.508 4.001)" class="st26">
					<path id="Path_6446" class="st27" d="M10.09-57.22v-2.46h5.35c-0.01,0.94-0.42,1.83-1.12,2.46H10.09z"/>
					<rect id="Rectangle_24090" x="10.09" y="-65.59" class="st27" width="5.35" height="2.46"/>
					<rect id="Rectangle_24091" x="10.09" y="-71.49" class="st27" width="5.35" height="2.46"/>
					<rect id="Rectangle_24092" x="10.09" y="-77.4" class="st27" width="5.35" height="2.46"/>
					<rect id="Rectangle_24093" x="10.09" y="-83.31" class="st27" width="5.35" height="2.46"/>
					<rect id="Rectangle_24094" x="10.09" y="-89.22" class="st27" width="5.35" height="2.46"/>
					<rect id="Rectangle_24095" x="10.09" y="-95.13" class="st27" width="5.35" height="2.46"/>
				</g>
				<g id="Group_5482" transform="translate(8.255 7.203)" class="st26">
					<rect id="Rectangle_24096" x="11.57" y="-66.16" class="st27" width="5.35" height="2.46"/>
					<rect id="Rectangle_24097" x="11.57" y="-72.07" class="st27" width="5.35" height="2.46"/>
					<rect id="Rectangle_24098" x="11.57" y="-77.98" class="st27" width="5.35" height="2.46"/>
					<rect id="Rectangle_24099" x="11.57" y="-83.88" class="st27" width="5.35" height="2.46"/>
					<rect id="Rectangle_24100" x="11.57" y="-89.8" class="st27" width="5.35" height="2.46"/>
					<rect id="Rectangle_24101" x="11.57" y="-95.7" class="st27" width="5.35" height="2.46"/>
				</g>
				<g id="Group_5483" transform="translate(8.255 4.001)" class="st26">
					<rect id="Rectangle_24102" x="11.57" y="-59.68" class="st27" width="5.35" height="2.46"/>
					<rect id="Rectangle_24103" x="11.57" y="-65.59" class="st27" width="5.35" height="2.46"/>
					<rect id="Rectangle_24104" x="11.57" y="-71.49" class="st27" width="5.35" height="2.46"/>
					<rect id="Rectangle_24105" x="11.57" y="-77.4" class="st27" width="5.35" height="2.46"/>
					<rect id="Rectangle_24106" x="11.57" y="-83.31" class="st27" width="5.35" height="2.46"/>
					<rect id="Rectangle_24107" x="11.57" y="-89.22" class="st27" width="5.35" height="2.46"/>
					<rect id="Rectangle_24108" x="11.57" y="-95.13" class="st27" width="5.35" height="2.46"/>
				</g>
				<g id="Group_5484" transform="translate(16.508 7.203)" class="st26">
					<rect id="Rectangle_24109" x="10.09" y="-66.16" class="st27" width="5.35" height="2.46"/>
					<rect id="Rectangle_24110" x="10.09" y="-72.07" class="st27" width="5.35" height="2.46"/>
					<rect id="Rectangle_24111" x="10.09" y="-77.98" class="st27" width="5.35" height="2.46"/>
					<rect id="Rectangle_24112" x="10.09" y="-83.88" class="st27" width="5.35" height="2.46"/>
					<rect id="Rectangle_24113" x="10.09" y="-89.8" class="st27" width="5.35" height="2.46"/>
					<rect id="Rectangle_24114" x="10.09" y="-95.7" class="st27" width="5.35" height="2.46"/>
				</g>
				<g id="Group_5485" transform="translate(0.131 7.203)" class="st26">
					<rect id="Rectangle_24115" x="13.02" y="-66.16" class="st27" width="4.71" height="2.46"/>
					<rect id="Rectangle_24116" x="13.02" y="-72.07" class="st27" width="4.71" height="2.46"/>
					<rect id="Rectangle_24117" x="13.02" y="-77.98" class="st27" width="4.71" height="2.46"/>
					<rect id="Rectangle_24118" x="13.02" y="-83.88" class="st27" width="4.71" height="2.46"/>
					<rect id="Rectangle_24119" x="13.02" y="-89.8" class="st27" width="4.71" height="2.46"/>
					<rect id="Rectangle_24120" x="13.02" y="-95.7" class="st27" width="4.71" height="2.46"/>
				</g>
			</g>
		</g>
	</g>
	<rect id="Rectangle_24080" x="626.65" y="835.32" class="st28" width="12.51" height="5.37"/>
	
		<linearGradient id="Rectangle_24081_1_" gradientUnits="userSpaceOnUse" x1="-2278.0505" y1="2783.1411" x2="-2278.8984" y2="2783.1675" gradientTransform="matrix(35.134 0 0 -21.123 80685.3594 59615.9375)">
		<stop  offset="0" style="stop-color:#036233"/>
		<stop  offset="0.107" style="stop-color:#4BB75E"/>
		<stop  offset="0.911" style="stop-color:#13B14C"/>
		<stop  offset="1" style="stop-color:#066434"/>
	</linearGradient>
	<rect id="Rectangle_24081" x="618.49" y="818.69" class="st29" width="28.83" height="17.33"/>
</g>
</svg>
