<?xml version="1.0" encoding="utf-8"?>
<!-- Generator: Adobe Illustrator 24.2.3, SVG Export Plug-In . SVG Version: 6.00 Build 0)  -->
<svg version="1.1" id="Layer_1" xmlns="http://www.w3.org/2000/svg" xmlns:xlink="http://www.w3.org/1999/xlink" x="0px" y="0px"
	 viewBox="0 0 300 790.91" style="enable-background:new 0 0 300 790.91;" xml:space="preserve">
<style type="text/css">
	.st0{fill:#323234;stroke:#12100C;stroke-width:0.5;stroke-miterlimit:10;}
	.st1{fill:#DB9241;}
	.st2{fill:#BC802D;}
	.st3{fill:#282B34;}
	.st4{fill:#242427;}
	.st5{fill:#393939;}
	.st6{fill:#1F1F21;}
	.st7{fill:#383838;}
	.st8{fill:#282927;}
	.st9{fill:#A6A9B1;}
	.st10{fill:#4C4D55;}
	.st11{fill:#F2A14B;}
	.st12{fill:#CC8530;}
	.st13{fill:#CA822B;}
	.st14{fill:#272727;}
	.st15{fill:#161616;}
	.st16{fill:#1E1E1E;}
	.st17{fill:#555555;}
	.st18{fill:#353535;}
	.st19{fill:#4E4E4E;}
	.st20{fill:#30313D;}
	.st21{fill:#151717;}
	.st22{fill:#434447;}
	.st23{fill:#282827;}
	.st24{fill:none;stroke:#626367;stroke-width:2;stroke-miterlimit:10;}
	.st25{clip-path:url(#SVGID_2_);}
	.st26{clip-path:url(#SVGID_4_);}
	.st27{clip-path:url(#SVGID_6_);}
	.st28{clip-path:url(#SVGID_8_);}
	.st29{clip-path:url(#SVGID_10_);}
	.st30{clip-path:url(#SVGID_12_);}
	.st31{clip-path:url(#SVGID_14_);}
	.st32{clip-path:url(#SVGID_16_);}
	.st33{fill:#262626;}
	.st34{clip-path:url(#SVGID_18_);}
	.st35{fill:#161617;}
	.st36{fill:#1B1A1F;}
	.st37{fill:#1A191D;}
	.st38{clip-path:url(#SVGID_20_);}
	.st39{fill:#353537;}
	.st40{fill:#1E1E1F;}
	.st41{fill:url(#Rectangle_24284_2_);stroke:#9D9E9E;}
	.st42{fill:#AC2626;}
	.st43{fill:url(#Path_6669_2_);}
	.st44{clip-path:url(#SVGID_22_);}
	.st45{opacity:0.3;}
	.st46{fill:#636464;}
	.st47{fill:url(#Path_6674_2_);}
	.st48{clip-path:url(#SVGID_24_);}
	.st49{fill:#F6A4AF;}
	.st50{fill:url(#Path_6711_2_);}
	.st51{fill:url(#Path_6678_2_);}
	.st52{fill:#7A7677;}
	.st53{fill:url(#Path_6679_2_);}
	.st54{fill:none;}
	.st55{fill:none;stroke:#F6F7F7;stroke-miterlimit:10;}
	.st56{fill:#BC3E40;}
	.st57{fill:url(#Path_6681_2_);}
	.st58{fill:url(#Path_6682_2_);}
	.st59{fill:#74706F;}
	.st60{opacity:0.55;fill:#210F11;enable-background:new    ;}
	.st61{fill:#281F20;}
	.st62{fill:#4C4848;}
	.st63{fill:#302E2F;}
	.st64{fill:url(#Path_6686_2_);}
	.st65{fill:url(#Path_6687_2_);}
	.st66{fill:url(#Path_6689_2_);}
	.st67{fill:url(#Path_6690_2_);}
	.st68{fill:url(#Path_6691_2_);}
	.st69{fill:url(#Path_6692_2_);}
	.st70{fill:#444040;}
	.st71{opacity:0.2;fill:#3F2D2B;}
	.st72{fill:#2F2929;}
	.st73{fill:url(#Rectangle_24361_2_);}
	.st74{fill:#575757;}
	.st75{fill:#EF484B;}
	.st76{fill:none;stroke:#CE2027;stroke-miterlimit:10;}
	.st77{fill:#CE2027;}
	.st78{opacity:0.21;fill:#68473D;enable-background:new    ;}
	.st79{fill:#A31E22;}
	.st80{fill:#CB272A;}
	.st81{fill:#141414;}
	.st82{fill:#212120;}
	.st83{fill:#252522;}
	.st84{fill:#B2B0B1;}
	.st85{fill:#272624;}
	.st86{fill:#2F2B2C;}
	.st87{fill:#494541;}
	.st88{fill:#181715;}
	.st89{fill:url(#Path_6714_1_);}
	.st90{fill:#F1A9B1;}
	.st91{fill:url(#Path_6712_2_);}
	.st92{fill:#444445;}
	.st93{fill:#333333;}
	.st94{fill:#1F1F1F;}
	.st95{fill:#2A2424;}
	.st96{clip-path:url(#SVGID_26_);}
	.st97{fill:#4D4C4D;}
	.st98{fill:#4D4B4C;}
	.st99{fill:url(#Path_6722_2_);}
	.st100{fill:#3E3D3B;}
	.st101{fill:#DA4542;}
	.st102{clip-path:url(#SVGID_28_);}
	.st103{fill:#EF484A;}
	.st104{fill:#383735;}
	.st105{fill:none;stroke:#A8A7AA;stroke-width:0.5;stroke-miterlimit:10;}
	.st106{fill:#F6ED62;}
	.st107{fill:url(#Rectangle_24370_2_);}
	.st108{fill:#301919;}
	.st109{fill:#964A4B;}
	.st110{fill:url(#Path_6688_2_);}
</style>
<g id="Group_5630_1_" transform="translate(-584.698 -278.366)">
	
		<linearGradient id="Rectangle_24284_2_" gradientUnits="userSpaceOnUse" x1="-1808.4626" y1="1722.068" x2="-1808.4762" y2="1721.0105" gradientTransform="matrix(46.643 0 0 -48.792 85094.7578 84526.6641)">
		<stop  offset="0" style="stop-color:#8C8C8C"/>
		<stop  offset="0.137" style="stop-color:#F3F3F3"/>
		<stop  offset="1" style="stop-color:#959595"/>
	</linearGradient>
	<rect id="Rectangle_24284_1_" x="707.39" y="488.14" class="st41" width="69.96" height="73.19"/>
	<path id="Path_6667_1_" class="st42" d="M691.08,592.18c0,0-1.81,0.66-1.65,3.78l0.16,4.28c0.34,1.57,1.69,2.72,3.3,2.8l99.74-1.65
		l0.16-23.19l-76.16,0.16l-9.73,10.36L691.08,592.18z"/>
	<path id="Path_6668_1_" class="st33" d="M729.53,586.3v13.37l40.48-0.29l2.71,2.7l3.71-2.99v-3.98h4.84v-14.93h-46.18l-2.64-2.63
		l-2.28-2.28l0.5,8.89L729.53,586.3z"/>
	<g id="Group_5612_1_" transform="translate(627.059 412.813)">
		
			<linearGradient id="Path_6669_2_" gradientUnits="userSpaceOnUse" x1="-2379.397" y1="1327.387" x2="-2379.397" y2="1326.1555" gradientTransform="matrix(22.548 0 0 -68.8621 53688.6719 91535.5313)">
			<stop  offset="0" style="stop-color:#070808"/>
			<stop  offset="0.595" style="stop-color:#515252"/>
			<stop  offset="1" style="stop-color:#1C1D1D"/>
		</linearGradient>
		<path id="Path_6669_1_" class="st43" d="M38.09,213.72L38.09,213.72c-9.34,0-15.45-7.55-15.45-16.87l-1.46-69.55
			c0.01-9.33,7.58-16.88,16.91-16.87c0,0,0,0,0,0l0,0c9.33-0.01,16.9,7.54,16.91,16.87v0v69.54
			C54.99,206.18,47.42,213.73,38.09,213.72L38.09,213.72z"/>
		<g id="Group_5611_1_" transform="translate(0 0)">
			<g>
				<defs>
					<path id="SVGID_21_" d="M38.09,213.72L38.09,213.72c-9.34,0-15.45-7.55-15.45-16.87l-1.46-69.55
						c0.01-9.33,7.58-16.88,16.91-16.87c0,0,0,0,0,0l0,0c9.33-0.01,16.9,7.54,16.91,16.87v0v69.54
						C54.99,206.18,47.42,213.73,38.09,213.72L38.09,213.72z"/>
				</defs>
				<clipPath id="SVGID_2_">
					<use xlink:href="#SVGID_21_"  style="overflow:visible;"/>
				</clipPath>
				<g id="Group_5610_1_" class="st25">
					<g id="Group_5609_1_" transform="translate(-0.686 5.894)" class="st45">
						<g id="Group_5603_1_" transform="translate(16.955)">
							<path id="Path_6670_1_" class="st46" d="M38.01,198.48h-8.7v5.91h6.68C37.31,202.71,38.02,200.62,38.01,198.48z"/>
							<rect id="Rectangle_24285_1_" x="29.31" y="184.3" class="st46" width="9.66" height="5.91"/>
							<rect id="Rectangle_24286_1_" x="29.31" y="170.12" class="st46" width="9.66" height="5.9"/>
							<rect id="Rectangle_24287_1_" x="29.31" y="155.94" class="st46" width="9.66" height="5.91"/>
							<rect id="Rectangle_24288_1_" x="29.31" y="141.75" class="st46" width="9.66" height="5.91"/>
							<rect id="Rectangle_24289_1_" x="29.31" y="127.57" class="st46" width="9.66" height="5.9"/>
							<rect id="Rectangle_24290_1_" x="29.31" y="113.38" class="st46" width="9.66" height="5.91"/>
						</g>
						<g id="Group_5604_1_">
							<path id="Path_6671_1_" class="st46" d="M30.5,204.39v-5.91h-9.66c-0.01,2.14,0.7,4.22,2.02,5.91H30.5z"/>
							<rect id="Rectangle_24291_1_" x="20.84" y="184.3" class="st46" width="9.66" height="5.91"/>
							<rect id="Rectangle_24292_1_" x="20.84" y="170.12" class="st46" width="9.66" height="5.9"/>
							<rect id="Rectangle_24293_1_" x="20.84" y="155.94" class="st46" width="9.66" height="5.91"/>
							<rect id="Rectangle_24294_1_" x="20.84" y="141.75" class="st46" width="9.66" height="5.91"/>
							<rect id="Rectangle_24295_1_" x="20.84" y="127.57" class="st46" width="9.66" height="5.9"/>
							<rect id="Rectangle_24295_2_" x="33.04" y="127.57" class="st46" width="9.66" height="5.9"/>
							<rect id="Rectangle_24296_1_" x="20.84" y="113.38" class="st46" width="9.66" height="5.91"/>
						</g>
						<g id="Group_5605_1_" transform="translate(8.156 4.205)">
							<rect id="Rectangle_24297_1_" x="24.91" y="186.4" class="st46" width="9.66" height="5.9"/>
							<rect id="Rectangle_24298_1_" x="24.91" y="172.22" class="st46" width="9.66" height="5.91"/>
							<rect id="Rectangle_24299_1_" x="24.91" y="158.03" class="st46" width="9.66" height="5.91"/>
							<rect id="Rectangle_24300_1_" x="24.91" y="143.85" class="st46" width="9.66" height="5.91"/>
							<rect id="Rectangle_24301_1_" x="24.91" y="129.66" class="st46" width="9.66" height="5.91"/>
							<rect id="Rectangle_24302_1_" x="24.91" y="115.48" class="st46" width="9.66" height="5.91"/>
						</g>
						<g id="Group_5606_1_" transform="translate(8.156)">
							<rect id="Rectangle_24303_1_" x="24.91" y="198.48" class="st46" width="9.66" height="5.91"/>
							<rect id="Rectangle_24304_1_" x="24.91" y="184.3" class="st46" width="9.66" height="5.91"/>
							<rect id="Rectangle_24305_1_" x="24.91" y="170.12" class="st46" width="9.66" height="5.9"/>
							<rect id="Rectangle_24306_1_" x="24.91" y="155.94" class="st46" width="9.66" height="5.91"/>
							<rect id="Rectangle_24307_1_" x="24.91" y="141.75" class="st46" width="9.66" height="5.91"/>
							<rect id="Rectangle_24308_1_" x="24.91" y="113.38" class="st46" width="9.66" height="5.91"/>
						</g>
						<g id="Group_5607_1_" transform="translate(0 4.205)">
							<rect id="Rectangle_24309_1_" x="20.84" y="186.4" class="st46" width="9.66" height="5.9"/>
							<rect id="Rectangle_24310_1_" x="20.84" y="172.22" class="st46" width="9.66" height="5.91"/>
							<rect id="Rectangle_24311_1_" x="20.84" y="158.03" class="st46" width="9.66" height="5.91"/>
							<rect id="Rectangle_24312_1_" x="20.84" y="143.85" class="st46" width="9.66" height="5.91"/>
							<rect id="Rectangle_24313_1_" x="20.84" y="129.66" class="st46" width="9.66" height="5.91"/>
							<rect id="Rectangle_24314_1_" x="20.84" y="115.48" class="st46" width="9.66" height="5.91"/>
						</g>
						<g id="Group_5608_1_" transform="translate(16.955 4.205)">
							<rect id="Rectangle_24315_1_" x="29.31" y="186.4" class="st46" width="9.66" height="5.9"/>
							<rect id="Rectangle_24316_1_" x="29.31" y="172.22" class="st46" width="9.66" height="5.91"/>
							<rect id="Rectangle_24317_1_" x="29.31" y="158.03" class="st46" width="9.66" height="5.91"/>
							<rect id="Rectangle_24318_1_" x="29.31" y="143.85" class="st46" width="9.66" height="5.91"/>
							<rect id="Rectangle_24319_1_" x="29.31" y="129.66" class="st46" width="9.66" height="5.91"/>
							<rect id="Rectangle_24320_1_" x="29.31" y="115.48" class="st46" width="9.66" height="5.91"/>
						</g>
					</g>
				</g>
			</g>
		</g>
	</g>
	<g id="Group_5622_1_" transform="translate(718.031 412.327)">
		
			<linearGradient id="Path_6674_2_" gradientUnits="userSpaceOnUse" x1="-2468.342" y1="1327.8772" x2="-2468.342" y2="1326.6458" gradientTransform="matrix(22.546 0 0 -68.8631 55734.8594 91570.4219)">
			<stop  offset="0" style="stop-color:#070808"/>
			<stop  offset="0.595" style="stop-color:#515252"/>
			<stop  offset="1" style="stop-color:#1C1D1D"/>
		</linearGradient>
		<path id="Path_6674_1_" class="st47" d="M83.57,213.48L83.57,213.48c-9.34,0-15.45-7.55-15.45-16.87l-1.46-69.55
			c0.01-9.33,7.58-16.88,16.91-16.87h0l0,0c9.33-0.01,16.9,7.54,16.91,16.87v0v69.55C100.47,205.94,92.9,213.49,83.57,213.48z"/>
		<g id="Group_5621_1_" transform="translate(0)">
			<g>
				<defs>
					<path id="SVGID_23_" d="M83.57,213.48L83.57,213.48c-9.34,0-15.45-7.55-15.45-16.87l-1.46-69.55
						c0.01-9.33,7.58-16.88,16.91-16.87h0l0,0c9.33-0.01,16.9,7.54,16.91,16.87v0v69.55C100.47,205.94,92.9,213.49,83.57,213.48z"/>
				</defs>
				<clipPath id="SVGID_4_">
					<use xlink:href="#SVGID_23_"  style="overflow:visible;"/>
				</clipPath>
				<g id="Group_5620_1_" class="st26">
					<g id="Group_5619_1_" transform="translate(-0.686 5.894)" class="st45">
						<g id="Group_5613_1_" transform="translate(16.955)">
							<path id="Path_6675_1_" class="st46" d="M83.49,198.24h-8.7v5.91h6.68C82.79,202.46,83.51,200.38,83.49,198.24z"/>
							<rect id="Rectangle_24321_1_" x="74.79" y="184.06" class="st46" width="9.66" height="5.91"/>
							<rect id="Rectangle_24322_1_" x="74.79" y="169.87" class="st46" width="9.66" height="5.9"/>
							<rect id="Rectangle_24323_1_" x="74.79" y="155.69" class="st46" width="9.66" height="5.91"/>
							<rect id="Rectangle_24324_1_" x="74.79" y="141.51" class="st46" width="9.66" height="5.91"/>
							<rect id="Rectangle_24325_1_" x="74.79" y="127.33" class="st46" width="9.66" height="5.9"/>
							<rect id="Rectangle_24326_1_" x="74.79" y="113.14" class="st46" width="9.66" height="5.91"/>
						</g>
						<g id="Group_5614_1_">
							<path id="Path_6676_1_" class="st46" d="M75.98,204.15v-5.91h-9.66c-0.01,2.14,0.7,4.22,2.02,5.91H75.98z"/>
							<rect id="Rectangle_24327_1_" x="66.32" y="184.06" class="st46" width="9.66" height="5.91"/>
							<rect id="Rectangle_24328_1_" x="66.32" y="169.87" class="st46" width="9.66" height="5.9"/>
							<rect id="Rectangle_24329_1_" x="66.32" y="155.69" class="st46" width="9.66" height="5.91"/>
							<rect id="Rectangle_24330_1_" x="66.32" y="141.51" class="st46" width="9.66" height="5.91"/>
							<rect id="Rectangle_24331_1_" x="66.32" y="127.33" class="st46" width="9.66" height="5.9"/>
							<rect id="Rectangle_24332_1_" x="66.32" y="113.14" class="st46" width="9.66" height="5.91"/>
						</g>
						<g id="Group_5615_1_" transform="translate(8.156 4.205)">
							<rect id="Rectangle_24333_1_" x="70.4" y="186.16" class="st46" width="9.66" height="5.9"/>
							<rect id="Rectangle_24334_1_" x="70.4" y="171.97" class="st46" width="9.66" height="5.91"/>
							<rect id="Rectangle_24335_1_" x="70.4" y="157.79" class="st46" width="9.66" height="5.91"/>
							<rect id="Rectangle_24336_1_" x="70.4" y="143.61" class="st46" width="9.66" height="5.91"/>
							<rect id="Rectangle_24337_1_" x="70.4" y="129.42" class="st46" width="9.66" height="5.91"/>
							<rect id="Rectangle_24338_1_" x="70.4" y="115.24" class="st46" width="9.66" height="5.91"/>
						</g>
						<g id="Group_5616_1_" transform="translate(8.156)">
							<rect id="Rectangle_24339_1_" x="70.4" y="198.24" class="st46" width="9.66" height="5.91"/>
							<rect id="Rectangle_24340_1_" x="70.4" y="184.06" class="st46" width="9.66" height="5.91"/>
							<rect id="Rectangle_24341_1_" x="70.4" y="169.87" class="st46" width="9.66" height="5.9"/>
							<rect id="Rectangle_24342_1_" x="70.4" y="155.69" class="st46" width="9.66" height="5.91"/>
							<rect id="Rectangle_24343_1_" x="70.4" y="141.51" class="st46" width="9.66" height="5.91"/>
							<rect id="Rectangle_24344_1_" x="70.4" y="127.33" class="st46" width="9.66" height="5.9"/>
							<rect id="Rectangle_24345_1_" x="70.4" y="113.14" class="st46" width="9.66" height="5.91"/>
						</g>
						<g id="Group_5617_1_" transform="translate(0 4.205)">
							<rect id="Rectangle_24346_1_" x="66.32" y="186.16" class="st46" width="9.66" height="5.9"/>
							<rect id="Rectangle_24347_1_" x="66.32" y="171.97" class="st46" width="9.66" height="5.91"/>
							<rect id="Rectangle_24348_1_" x="66.32" y="157.79" class="st46" width="9.66" height="5.91"/>
							<rect id="Rectangle_24349_1_" x="66.32" y="143.61" class="st46" width="9.66" height="5.91"/>
							<rect id="Rectangle_24350_1_" x="66.32" y="129.42" class="st46" width="9.66" height="5.91"/>
							<rect id="Rectangle_24351_1_" x="66.32" y="115.24" class="st46" width="9.66" height="5.91"/>
						</g>
						<g id="Group_5618_1_" transform="translate(16.955 4.205)">
							<rect id="Rectangle_24352_1_" x="74.79" y="186.16" class="st46" width="9.66" height="5.9"/>
							<rect id="Rectangle_24353_1_" x="74.79" y="171.97" class="st46" width="9.66" height="5.91"/>
							<rect id="Rectangle_24354_1_" x="74.79" y="157.79" class="st46" width="9.66" height="5.91"/>
							<rect id="Rectangle_24355_1_" x="74.79" y="143.61" class="st46" width="9.66" height="5.91"/>
							<rect id="Rectangle_24356_1_" x="74.79" y="129.42" class="st46" width="9.66" height="5.91"/>
							<rect id="Rectangle_24357_1_" x="74.79" y="115.24" class="st46" width="9.66" height="5.91"/>
						</g>
					</g>
				</g>
			</g>
		</g>
	</g>
	<rect id="Rectangle_24358_1_" x="584.7" y="278.58" class="st49" width="299.9" height="39.11"/>
	
		<linearGradient id="Path_6711_2_" gradientUnits="userSpaceOnUse" x1="-1836.7979" y1="1721.6024" x2="-1836.7979" y2="1721.4495" gradientTransform="matrix(98.9271 0 0 -49.755 182450.25 86309.9531)">
		<stop  offset="0" style="stop-color:#171719"/>
		<stop  offset="1" style="stop-color:#787677"/>
	</linearGradient>
	<path id="Path_6711_1_" class="st50" d="M693.33,602.82l-16.39,17.62c0,0-2.12,1.41-2.12,5.4l-0.47,20.92c0,0,0,3.76,6.12,4.23
		l122.97-3.06c0,0,4.48,0,3.77-4.23l-5.42-23.98l-17.9-18.1l0.24-11.75l0.84-5.04l2.53-0.24c0,0-2.67,12.1,6.75,18.68l12.49,11.99
		c0,0,1.65,1.41,2.59,5.88l5.65,22.57c0,0,2.03,4.83-3.94,9.66c-1.03,0.71-2.16,1.26-3.36,1.63l-126.75,4.23c0,0-10.13,0-12.72-7.05
		c0,0-1.71-2.13-1.18-9.87l1.18-21.86l21.25-25.64c0,0-0.43,5.58,1.79,7.59C691.84,602.86,692.61,603.01,693.33,602.82z"/>
	
		<linearGradient id="Path_6678_2_" gradientUnits="userSpaceOnUse" x1="-1849.5768" y1="1737.1669" x2="-1849.5768" y2="1735.667" gradientTransform="matrix(200.0038 0 0 -62.261 370657.0625 108475.4141)">
		<stop  offset="0" style="stop-color:#F27B8C"/>
		<stop  offset="0.669" style="stop-color:#EF4D5F"/>
		<stop  offset="1" style="stop-color:#B4202A"/>
	</linearGradient>
	<path id="Path_6678_1_" class="st51" d="M584.7,317.69c0,0,8.05,65.27,12.41,84.35c0,0,1.01,8.37,8.72,9.04l258.64-2.34
		c0,0,5.37,0.67,7.05-6.36c0,0,14.43-67.95,13.08-84.69H584.7z"/>
	<rect id="Rectangle_24359_1_" x="589.06" y="281.26" class="st52" width="291.18" height="33.75"/>
	
		<linearGradient id="Path_6679_2_" gradientUnits="userSpaceOnUse" x1="-1821.7346" y1="1748.1267" x2="-1823.287" y2="1748.1267" gradientTransform="matrix(63.1863 0 0 -83.143 115894.7266 145771.5)">
		<stop  offset="0" style="stop-color:#DB1F30"/>
		<stop  offset="0.279" style="stop-color:#EE6C7A"/>
		<stop  offset="0.517" style="stop-color:#F48F9E"/>
		<stop  offset="1" style="stop-color:#D23F4F"/>
	</linearGradient>
	<path id="Path_6679_1_" class="st53" d="M731.45,349.63c0,0,29.33,1.63,43.18,26.28c0,0,8.42,10.84,8.15,32.25
		c-0.27,21.41,0,31.7,0,31.7s-44.81-12.73-90.7,0.81v61.16l-4.07,2.5v-73.15L731.45,349.63z"/>
	<g id="Rectangle_24360_1_" transform="translate(589.618 281.49)">
		<path class="st54" d="M5.46,1.78H284.6c1.66,0,3,1.34,3,3v23.74c0,1.66-1.34,3-3,3H5.46c-1.66,0-3-1.34-3-3V4.78
			C2.46,3.12,3.8,1.78,5.46,1.78z"/>
		<path class="st55" d="M5.46,2.53H284.6c1.24,0,2.25,1.01,2.25,2.25v23.74c0,1.24-1.01,2.25-2.25,2.25H5.46
			c-1.24,0-2.25-1.01-2.25-2.25V4.78C3.21,3.54,4.22,2.53,5.46,2.53z"/>
	</g>
	<path id="Path_6680_1_" class="st56" d="M675.87,407.6c0,0-0.93-1.2-2.43,0.15c0,0-0.81-0.07,0.72,5.92c0,0,2.38,13.05,10.07,17.82
		c0,0,10.21,7.26,22.51,5.83c0,0,14.02-1.71,20.02-14.7c2.66-5.68,4.12-11.85,4.29-18.12c0,0,0-1.14-2-1.28c0,0-1.57-0.15-1.57,2
		l-12.61,14.7l-23.45,1.26L675.87,407.6z"/>
	
		<linearGradient id="Path_6681_2_" gradientUnits="userSpaceOnUse" x1="-1805.5468" y1="1709.3298" x2="-1806.9927" y2="1709.3043" gradientTransform="matrix(44.5408 0 0 -39.6812 81151.7656 68160.0938)">
		<stop  offset="0" style="stop-color:#4B494B"/>
		<stop  offset="0.068" style="stop-color:#727172"/>
		<stop  offset="0.901" style="stop-color:#444445"/>
		<stop  offset="0.934" style="stop-color:#30302F"/>
		<stop  offset="1" style="stop-color:#373737"/>
	</linearGradient>
	<path id="Path_6681_1_" class="st57" d="M666.04,309.01c0,0-0.5-5.85,6.94-5.84c0,0,46.02-1.02,54.24,0.51c0,0,6.94,1.27,5.4,10.16
		l-0.51,43.44l0.26,4.32l-65.51,0.76C666.86,362.35,667.84,321.46,666.04,309.01z"/>
	
		<linearGradient id="Path_6682_2_" gradientUnits="userSpaceOnUse" x1="-1806.807" y1="1722.7833" x2="-1808.1089" y2="1722.7714" gradientTransform="matrix(45.5569 0 0 -48.6871 83044.0234 84274.6094)">
		<stop  offset="0" style="stop-color:#4B494B"/>
		<stop  offset="0.178" style="stop-color:#727172"/>
		<stop  offset="0.802" style="stop-color:#444445"/>
		<stop  offset="0.941" style="stop-color:#30302F"/>
		<stop  offset="1" style="stop-color:#373737"/>
	</linearGradient>
	<path id="Path_6682_1_" class="st58" d="M666.85,362.89l-1.28-1.28c0,0,2.57,12.56,1.8,20.51c0,0-0.03,5.03,0.26,7.18h3.85
		l-0.26-16.66c0,0,1.67-3.2,2,4.88c0,0,2.36,19.22,2.36,26.39c0,0,0.26,16.92,9.51,24.86c0,0,14.39,9.74,29.29,2.31
		c0,0,14.39-6.15,13.1-28.45v-24.09c0,0-0.8-10.32,1.28-5.38c0.69,4.84,0.77,9.75,0.26,14.61c1.03,1.22,2.85,1.38,4.07,0.36
		c0.21-0.18,0.4-0.38,0.55-0.61l-0.26-17.94l-0.26-4.1l0.77-4.61l-1.54,1.28L666.85,362.89z"/>
	<path id="Path_6693_1_" class="st59" d="M778.98,359.3l-0.3-12.61h4.65l0.6,12.41L778.98,359.3z"/>
	<path id="Path_6694_1_" class="st60" d="M778.98,359.3l-1.52,0.4l0.4-14.23l5.56,0.2l-0.1,1.01h-4.65L778.98,359.3z"/>
	<g id="Group_5623_1_" transform="translate(614.896 317.984)">
		<path id="Path_6683_1_" class="st61" d="M15.1,44.67l2.58,1.76l-0.27,5.83l29.05,0.68l1.5-8.94L15.1,44.67z"/>
		<path id="Path_6684_1_" class="st62" d="M47.14,36.41l-31.91,1.35l-0.14,6.91l32.31,1.22L47.14,36.41z"/>
		<path id="Path_6685_1_" class="st63" d="M46.6,33.02l0.54,3.39l-1.5,0.41l-0.14,6.77l1.5,0.27l-0.14,4.61H45.1l0.27,5.55
			l1.77-0.41L47,60.12l4.62,0.27l-0.95-27.37L46.6,33.02z"/>
	</g>
	
		<linearGradient id="Path_6686_2_" gradientUnits="userSpaceOnUse" x1="-1090.9084" y1="1618.473" x2="-1090.9084" y2="1616.973" gradientTransform="matrix(3.239 0 0 -17.954 4269.5229 29408.4316)">
		<stop  offset="0" style="stop-color:#4B494B"/>
		<stop  offset="0.068" style="stop-color:#727172"/>
		<stop  offset="0.901" style="stop-color:#444445"/>
		<stop  offset="0.934" style="stop-color:#30302F"/>
		<stop  offset="1" style="stop-color:#373737"/>
	</linearGradient>
	<path id="Path_6686_1_" class="st64" d="M733.69,350.45l4.57-0.1l0.29,26.93h-4.62L733.69,350.45z"/>
	
		<linearGradient id="Path_6687_2_" gradientUnits="userSpaceOnUse" x1="-1787.0797" y1="1497.3553" x2="-1787.0797" y2="1496.5513" gradientTransform="matrix(33.4319 0 0 -10.412 60508.9766 15948.7041)">
		<stop  offset="0" style="stop-color:#878787"/>
		<stop  offset="0.406" style="stop-color:#D7D7D7"/>
		<stop  offset="1" style="stop-color:#959595"/>
	</linearGradient>
	<path id="Path_6687_1_" class="st65" d="M788.21,354.73l-2.29,3.77l-47.57-0.05v8.6h47.57l2.58,3.3L788.21,354.73z"/>
	
		<linearGradient id="Path_6689_2_" gradientUnits="userSpaceOnUse" x1="-1766.4296" y1="1399.7404" x2="-1766.4355" y2="1398.2404" gradientTransform="matrix(26.375 0 0 -7.7663 47399.332 11227.1504)">
		<stop  offset="0" style="stop-color:#878787"/>
		<stop  offset="0.406" style="stop-color:#D7D7D7"/>
		<stop  offset="1" style="stop-color:#959595"/>
	</linearGradient>
	<path id="Path_6689_1_" class="st66" d="M789.89,357.87c4.44,0.39,8.92,0.18,13.31-0.63c0,0,18.45-2.17,26.16,0.45l0.09,9.15
		c0,0-8.18,2.45-24.89,0.36c0,0-11.76-1.36-14.4-0.27C790.16,366.94,789.89,357.6,789.89,357.87z"/>
	
		<linearGradient id="Path_6690_2_" gradientUnits="userSpaceOnUse" x1="-720.8563" y1="1409.0875" x2="-722.3569" y2="1409.0815" gradientTransform="matrix(2.2178 0 0 -7.975 2431.3635 11599.5957)">
		<stop  offset="0" style="stop-color:#4B494B"/>
		<stop  offset="0.404" style="stop-color:#727172"/>
		<stop  offset="0.5" style="stop-color:#545554"/>
		<stop  offset="1" style="stop-color:#373737"/>
	</linearGradient>
	<path id="Path_6690_1_" class="st67" d="M829.36,357.69l1.81-1.54l1.45,1.54v8.88l-1.18,1.54l-1.99-1.27
		C829.45,366.85,829.18,357.51,829.36,357.69z"/>
	
		<linearGradient id="Path_6691_2_" gradientUnits="userSpaceOnUse" x1="-1060.225" y1="1303.8726" x2="-1060.225" y2="1303.0686" gradientTransform="matrix(3.1561 0 0 -6.224 4181.0332 8474.9229)">
		<stop  offset="0" style="stop-color:#878787"/>
		<stop  offset="0.406" style="stop-color:#D7D7D7"/>
		<stop  offset="1" style="stop-color:#959595"/>
	</linearGradient>
	<path id="Path_6691_1_" class="st68" d="M832.63,357.69c1.53,0.35,3.13,0.29,4.63-0.18v9.34c0,0-3.27-1.18-4.63-0.27
		C832.63,366.58,832.4,357.92,832.63,357.69z"/>
	
		<linearGradient id="Path_6692_2_" gradientUnits="userSpaceOnUse" x1="-714.6815" y1="1379.611" x2="-716.1823" y2="1379.605" gradientTransform="matrix(2.2082 0 0 -7.3943 2418.6814 10563.0869)">
		<stop  offset="0" style="stop-color:#4B494B"/>
		<stop  offset="0.404" style="stop-color:#727172"/>
		<stop  offset="0.5" style="stop-color:#545554"/>
		<stop  offset="1" style="stop-color:#373737"/>
	</linearGradient>
	<path id="Path_6692_1_" class="st69" d="M837.26,357.51c0.48-1.01,1.69-1.43,2.7-0.95c0.21,0.1,0.4,0.24,0.57,0.41v9.33
		c0,0,0.18,2.17-3.27,0.54C837.26,366.85,837.16,357.51,837.26,357.51z"/>
	<path id="Path_6695_1_" class="st70" d="M782.77,439.86l1.41,0.88l0.21,16.3L784.3,497l-17.28,7.17c0,0-40.62-2.82-45.86-1.78
		l-29.08-0.56v-61.16c0,0,28.67-9.13,56.1-6.2C759.89,434.8,771.51,436.62,782.77,439.86z"/>
	<path id="Path_6696_1_" class="st71" d="M692.08,453.96c0,0,32.08-7.8,47.21-7.62l10.14-11.36l-57.42,9.28L692.08,453.96z"/>
	<path id="Path_6697_1_" class="st72" d="M749.07,452.37c0,0-2.49,1.42,3.74,2.84c4.1,0.39,8.23,0.21,12.28-0.53l4.27-0.89
		L749.07,452.37z"/>
	<path id="Path_6698_1_" class="st72" d="M731.64,452.91l8.01-0.36c0,0,0.53,0.71-1.42,1.95l-8.54,0.71L731.64,452.91z"/>
	
		<linearGradient id="Rectangle_24361_2_" gradientUnits="userSpaceOnUse" x1="-1803.1436" y1="1712.8639" x2="-1803.1436" y2="1711.364" gradientTransform="matrix(42.542 0 0 -42.488 77471.8906 73293.125)">
		<stop  offset="0" style="stop-color:#4B494B"/>
		<stop  offset="0.068" style="stop-color:#727172"/>
		<stop  offset="0.901" style="stop-color:#444445"/>
		<stop  offset="0.934" style="stop-color:#30302F"/>
		<stop  offset="1" style="stop-color:#373737"/>
	</linearGradient>
	<path id="Rectangle_24361_1_" class="st73" d="M745.07,516.97h34.97c7.96,0,14.42,6.46,14.42,14.42v34.89
		c0,7.96-6.46,14.42-14.42,14.42h-34.97c-7.96,0-14.42-6.46-14.42-14.42v-34.89C730.65,523.42,737.11,516.97,745.07,516.97z"/>
	<path id="Path_6699_1_" class="st74" d="M746.59,516.97l0.6,25.83c0,0,0.15,13.44,10.62,18.96c0,0,12.27,5.82,19.9-4.48
		c0,0,4.34-2.24,3.59-17.62l-0.75-22.84"/>
	<path id="Path_6700_1_" class="st75" d="M756.94,538.6c0,0,1.95,0.32,4-2.37c0,0,2.38-3.66,5.94-1.4l1.95,1.51
		c0,0,2.05,2.37,3.56,2.05c0,0,3.79,0.67,4.75,3.56c0.3,0.92,0.43,1.72-0.86,3.77c-0.61,1.12-0.44,2.51,0.43,3.45
		c0.85,1.79,0.77,3.88-0.22,5.6c0,0-0.54,1.83-3.56,2.05c0,0-2.7-0.11-3.35,2.05c-1.67,2.48-5.04,3.13-7.52,1.46
		c-0.68-0.46-1.25-1.07-1.66-1.78c-0.71-1.11-2.09-1.6-3.35-1.19c0,0-4.21-0.32-4.43-4.31c-0.24-0.98-0.12-2.01,0.32-2.91
		c0.55-0.99,0.46-2.22-0.22-3.13c0,0-1.84-2.37,0.54-6.04C753.26,540.97,755.21,537.84,756.94,538.6z"/>
	<ellipse id="Ellipse_415_1_" class="st76" cx="765.15" cy="547.87" rx="3.46" ry="3.45"/>
	<ellipse id="Ellipse_416_1_" class="st77" cx="765.15" cy="547.87" rx="1.19" ry="1.18"/>
	<path id="Path_6701_1_" class="st78" d="M739.84,580.56l-1.26-1.03l2.64-2.06l46.28-0.8l-0.46,2.63l-1.49,1.26L739.84,580.56z"/>
	<g id="Group_5624_1_" transform="translate(709.843 451.114)">
		<path id="Path_6702_1_" class="st79" d="M65.82,133.61v3.73l1.98,1.44l2.5-2.05l0.1-3.37L65.82,133.61z"/>
		<path id="Path_6703_1_" class="st80" d="M62.69,129.88l-0.12,3.97l8.21-0.48l0.36,3.85l2.29,1.44l1.69-2.17v-2.77l2.53-0.24
			l-0.06-3.91L62.69,129.88z"/>
	</g>
	<path id="Path_6704_1_" class="st81" d="M720.26,586.45l49.74-0.29l-0.28-4.69l-39.05,0.71v1.99l-2.47-1.71l-2.1-0.42
		L720.26,586.45z"/>
	<rect id="Rectangle_24362_1_" x="729.81" y="586.02" class="st82" width="13.97" height="13.79"/>
	<path id="Path_6705_1_" class="st83" d="M775.85,509.18v7.72h9.57v-14.8C785.42,502.1,782.37,508.77,775.85,509.18z"/>
	<path id="Path_6706_1_" class="st84" d="M785.42,506.23c0.62-0.78,1.48-1.32,2.45-1.53l14.1-0.46c0,0,2.76-0.46,3.37,1.22v26.92
		h-10.88v-8.4c-0.25-2.99-2.14-5.59-4.9-6.74l-4.29-0.15L785.42,506.23z"/>
	<path id="Path_6707_1_" class="st85" d="M791.86,518.01v-9.64h7.36v24.01h-4.75C794.46,532.38,795.54,520.15,791.86,518.01z"/>
	<path id="Path_6708_1_" class="st85" d="M785.27,508.52l4.9-0.3l0.15,9.18l-5.06-0.3L785.27,508.52z"/>
	<path id="Path_6709_1_" class="st86" d="M800.44,505.62c0,0-1.84,2.91,0.61,4.28c0,0,1.99,2.29,5.52-1.07l6.9-1.22
		c0,0-12.11,13-10.88,24.62h2.76c0,0-0.15-10.55,7.2-17.59l3.37-4.28c0,0,4.75-5.97-1.84-5.51l-6.9,0.92
		C807.18,505.77,803.36,503.48,800.44,505.62z"/>
	<rect id="Rectangle_24363_1_" x="794.6" y="532.62" class="st87" width="17.07" height="20.05"/>
	<path id="Path_6710_1_" class="st88" d="M794.6,552.68l2.46-3.03h14.72v3.03C811.78,552.68,794.6,552.51,794.6,552.68z"/>
	
		<linearGradient id="Path_6714_1_" gradientUnits="userSpaceOnUse" x1="-1786.426" y1="1758.1803" x2="-1786.785" y2="1758.1521" gradientTransform="matrix(33.5181 0 0 -122.715 60716.1406 216567.4688)">
		<stop  offset="0" style="stop-color:#0A0B0B"/>
		<stop  offset="1" style="stop-color:#A0A5AB"/>
	</linearGradient>
	<path id="Path_6714" class="st89" d="M808.49,618.42l4.58,2.7l5.55,24.19c1.52,1.75,2.8,3.7,3.79,5.79l32.36,359.13
		c0,0-6.14-3.13-10.43,1.65L814.08,650.1l0.86-3.8L808.49,618.42z"/>
	<rect id="Rectangle_24364_1_" x="797.24" y="536.75" class="st90" width="13.4" height="9.23"/>
	
		<linearGradient id="Path_6712_2_" gradientUnits="userSpaceOnUse" x1="-1697.8273" y1="1758.6786" x2="-1698.5487" y2="1758.6857" gradientTransform="matrix(15.083 0 0 -125.241 26271.4355 221077.6719)">
		<stop  offset="0" style="stop-color:#0A0B0B"/>
		<stop  offset="1" style="stop-color:#A0A5AB"/>
	</linearGradient>
	<path id="Path_6712_1_" class="st91" d="M665.41,622.88l-2.07,21.62c-0.36,2.49-1.25,4.88-2.61,7l-18.61,364.89
		c0,0,7.69-3.4,11.47,0.91l2.96-51.5l12.19-313.17c0,0-1.87-1.65-1.73-8.92l1.21-23.27L665.41,622.88z"/>
	<path id="Path_6713_1_" class="st92" d="M643.73,1013.62c-1.43,0.66-2.73,1.84-3.3,6l-1.89,27.21c0,0,0.57,13.23,15.15,17.76
		c4.04,0.89,8.17,1.27,12.31,1.13l174.22-6.05c0,0,17.42,0.57,22.91-11.9c0,0,3.6-4.16,0.38-16.63l-5.11-21.73
		c-2.16-2.08-5.19-2.99-8.14-2.46c0,0-4.73,1.32-6.06,3.97c0,0-0.47,1.13,0.38,4.72l4.92,21.73c0,0,1.47,5.51-5.91,5.88
		l-179.86,6.02l-0.95-35.15c0,0,0.91-5.76-8.75-4.43l-0.17,2.31l2.86-0.34c0,0,4.27-0.31,4.17,2.65l1.15,35.11
		c0,0-7.21,0.22-7.77-5.07l1.41-26.22c0,0-0.74-5.34-6.75-5.57C647.32,1012.51,645.17,1012.95,643.73,1013.62z"/>
	<path id="Path_6715_1_" class="st93" d="M654.45,1002.66l188.62-5.9l-0.27-3.6l-188.23,6.63L654.45,1002.66z"/>
	<g id="Path_6716_1_">
		<path class="st94" d="M662.12,999.52c-1.38-34.21,16.58-297.84,16.76-300.5l0.03-0.13c5.3-15,9.02-30.6,11.06-46.37l3.32-49.65
			l1,0.07l-3.32,49.68c-2.06,15.85-5.79,31.5-11.09,46.54c-0.38,5.51-18.12,266.35-16.75,300.32L662.12,999.52z"/>
	</g>
	<path id="Rectangle_24365_1_" class="st94" d="M692.94,615.11L692.94,615.11c1.81,0.1,3.2,1.65,3.1,3.46l-1.15,20.78
		c-0.1,1.81-1.65,3.2-3.46,3.1l0,0c-1.81-0.1-3.2-1.65-3.1-3.46l1.15-20.78C689.58,616.4,691.12,615.01,692.94,615.11z"/>
	<g id="Path_6717_1_">
		<polygon class="st94" points="835.51,1026.6 813.93,903.29 795.3,667.59 781.88,601.98 782.86,601.78 796.29,667.45 
			814.92,903.16 836.49,1026.43 		"/>
	</g>
	<g id="Group_5625_1_" transform="translate(722.556 506.91)">
		<path id="Path_6726_1_" class="st95" d="M79.43,238.89c1.81-0.17,3.41,1.15,3.59,2.96l2.44,25.45c0.17,1.81-1.15,3.41-2.96,3.58
			s-3.41-1.15-3.58-2.96l-2.45-25.45c-0.17-1.8,1.15-3.4,2.95-3.58C79.42,238.89,79.42,238.89,79.43,238.89z"/>
		<path id="Path_6727_1_" class="st15" d="M82.06,266.42c1.84-0.19,3.43,0.65,3.55,1.86c0.12,1.21-1.27,2.35-3.1,2.54
			c-1.84,0.19-3.43-0.65-3.56-1.86C78.83,267.75,80.22,266.61,82.06,266.42z"/>
	</g>
	<g id="Path_6718_1_">
		<path class="st15" d="M836.89,1043.63l-2.01,0.06l0.77-28.87c-0.16-3.93,0.12-6.53,1.5-7.91c0.72-0.73,1.62-1.1,1.96-1.12
			l4.62-1.27l0.18,2.16l-4.66,1.17c0,0-2,0.16-1.6,6.93L836.89,1043.63z"/>
	</g>
	<g id="Group_5627_1_" transform="translate(638.922 285.867)">
		<g>
			<defs>
				<path id="SVGID_25_" d="M27.12,23.14c0,0-0.5-5.85,6.94-5.84c0,0,46.02-1.02,54.24,0.51c0,0,6.94,1.27,5.4,10.16l-0.51,43.44
					l0.26,4.32l-65.51,0.76C27.93,76.49,28.92,35.59,27.12,23.14z"/>
			</defs>
			<clipPath id="SVGID_6_">
				<use xlink:href="#SVGID_25_"  style="overflow:visible;"/>
			</clipPath>
			<g id="Group_5626_1_" transform="translate(0 0)" class="st27">
				<rect id="Rectangle_24367_1_" x="25.51" y="17.17" class="st23" width="69.05" height="4.64"/>
				<rect id="Rectangle_24368_1_" x="25.51" y="16.44" class="st97" width="69.05" height="4.64"/>
			</g>
		</g>
	</g>
	<path id="Path_6720_1_" class="st23" d="M733.96,364.15l-67.23,0.73v-3.71l67.23-0.73L733.96,364.15z"/>
	<path id="Path_6721_1_" class="st98" d="M733.96,364.88l-67.23,0.73v-3.71l67.23-0.73L733.96,364.88z"/>
	
		<linearGradient id="Path_6722_2_" gradientUnits="userSpaceOnUse" x1="-1808.1161" y1="1687.934" x2="-1808.1206" y2="1689.0109" gradientTransform="matrix(46.0868 0 0 -31.5005 84031.6172 53630.7266)">
		<stop  offset="0" style="stop-color:#EF5356"/>
		<stop  offset="1" style="stop-color:#80292A"/>
	</linearGradient>
	<path id="Path_6722_1_" class="st99" d="M674.64,415.93l-3.09,0.57c0,0-1.54,0.47-1.29,5.42l0.43,21.98c0,0,0.98,11.76,12.59,11.99
		l34.04-0.57c0,0,9.58-0.43,12.01-6.42c1.56-3.65,2.3-7.59,2.14-11.56l0.15-19.55c0,0,0.29-2.14-2.29-1.86l0.72-3
		c1.43-0.36,2.94,0.14,3.86,1.28c0,0,1.57,0.86,1.57,7.99l0.29,19.98c0,0-0.42,9.39-8.25,14.58c-0.89,0.6-3.19,3.69-41.67,3.25
		c0,0-13.15,1.39-17.73-10.45c-0.89-2.77-1.22-6.42-1.44-9.53l0.29-21.98c-0.07-2.67,1.32-4.29,3.25-4.82
		c0.06-0.01,0.12-0.02,0.18-0.03l3.58-0.29L674.64,415.93z"/>
	<path id="Path_6723_1_" class="st100" d="M689.35,558.27h-14.9l-6.22,15.11c-1.53,3.11-0.25,6.88,2.87,8.41
		c0.01,0,0.01,0.01,0.02,0.01l24.65,12.41c0,0,8.66,4.21,16.21-1.77l9.99-7.76c0,0,4.44-3.77,6.22-2.22l2.95,0.89l-0.15-21.5
		L689.35,558.27z"/>
	<ellipse id="Ellipse_418_1_" class="st101" cx="696.07" cy="580.1" rx="7.91" ry="7.89"/>
	<g id="Group_5629_1_" transform="translate(653.676 445.458)">
		<g>
			<defs>
				<ellipse id="SVGID_27_" cx="42.39" cy="134.64" rx="7.91" ry="7.89"/>
			</defs>
			<clipPath id="SVGID_8_">
				<use xlink:href="#SVGID_27_"  style="overflow:visible;"/>
			</clipPath>
			<g id="Group_5628_1_" transform="translate(0)" class="st28">
				<path id="Path_6724_1_" class="st103" d="M49.28,139.72l-15.69-4.98l1.54-4.74l15.69,4.98L49.28,139.72z"/>
			</g>
		</g>
	</g>
	<rect id="Rectangle_24369_1_" x="732.66" y="589.43" class="st104" width="48.46" height="5.55"/>
	<line id="Line_65_1_" class="st105" x1="724.94" y1="508.33" x2="775.45" y2="507.28"/>
	<ellipse id="Ellipse_420_1_" class="st106" cx="775.85" cy="499.51" rx="9.7" ry="9.67"/>
	
		<linearGradient id="Rectangle_24370_2_" gradientUnits="userSpaceOnUse" x1="-1782.0275" y1="1712.3829" x2="-1782.0275" y2="1710.8831" gradientTransform="matrix(31.078 0 0 -42.135 56086.793 72652.6016)">
		<stop  offset="0" style="stop-color:#4B494B"/>
		<stop  offset="0.068" style="stop-color:#727172"/>
		<stop  offset="0.901" style="stop-color:#444445"/>
		<stop  offset="0.934" style="stop-color:#30302F"/>
		<stop  offset="1" style="stop-color:#373737"/>
	</linearGradient>
	<path id="Rectangle_24370_1_" class="st107" d="M696.06,501.35h17.77c7.96,0,14.42,6.46,14.42,14.42v34.36
		c0,7.96-6.46,14.42-14.42,14.42h-17.77c-7.96,0-14.42-6.46-14.42-14.42v-34.36C681.64,507.81,688.1,501.35,696.06,501.35z"/>
	<line id="Line_66_1_" class="st105" x1="727.86" y1="512.39" x2="775.45" y2="512.39"/>
	<rect id="Rectangle_24371_1_" x="759.42" y="511.44" class="st108" width="7.36" height="5.13"/>
	<path id="Path_6725_1_" class="st109" d="M764.07,547.44l0.11-14.55c0,0,0.22-16.81-2.48-18.86c0,0-0.75-1.62,0.97-1.51
		c0,0,1.95,0.54,2.59,7.44l0.22,20.91l0.11,6.79L764.07,547.44z"/>
	
		<linearGradient id="Path_6688_2_" gradientUnits="userSpaceOnUse" x1="-773.5391" y1="1527.1725" x2="-773.5391" y2="1525.6725" gradientTransform="matrix(2.311 0 0 -11.601 2577.4534 18070.4531)">
		<stop  offset="0" style="stop-color:#4B494B"/>
		<stop  offset="0.068" style="stop-color:#727172"/>
		<stop  offset="0.901" style="stop-color:#444445"/>
		<stop  offset="0.934" style="stop-color:#30302F"/>
		<stop  offset="1" style="stop-color:#373737"/>
	</linearGradient>
	<path id="Path_6688_1_" class="st110" d="M788.04,353.71h3.05l0.42,17.22l-3.05,0.18L788.04,353.71z"/>
</g>
</svg>
