<?xml version="1.0" encoding="utf-8"?>
<!-- Generator: Adobe Illustrator 24.2.3, SVG Export Plug-In . SVG Version: 6.00 Build 0)  -->
<svg version="1.1" id="Layer_1" xmlns="http://www.w3.org/2000/svg" xmlns:xlink="http://www.w3.org/1999/xlink" x="0px" y="0px"
	 viewBox="0 0 300 1152" style="enable-background:new 0 0 300 1152;" xml:space="preserve">
<style type="text/css">
	.st0{fill:url(#Path_6330_1_);}
	.st1{fill:url(#Rectangle_23811_1_);}
	.st2{fill:url(#Rectangle_23812_1_);}
	.st3{fill:url(#Rectangle_23802_2_);}
	.st4{fill:url(#Rectangle_23806_2_);}
	.st5{fill:url(#Rectangle_23802_3_);}
	.st6{fill:url(#Rectangle_23806_3_);}
	.st7{fill:url(#Path_6366_1_);}
	.st8{opacity:0.08;fill:#FFFFFF;}
	.st9{fill:url(#Rectangle_23810_1_);}
	.st10{fill:#363636;}
	.st11{fill:#CDCCCC;}
	.st12{fill:#050606;}
	.st13{fill:#DCDCDB;}
	.st14{fill:#BEBCBC;}
	.st15{fill:url(#Path_6338_1_);}
	.st16{fill:#F47E20;}
	.st17{fill:url(#Path_6341_1_);}
	.st18{fill:url(#Path_6342_1_);}
	.st19{fill:url(#Path_6344_1_);}
	.st20{fill:url(#Path_6345_1_);}
	.st21{fill:url(#Path_6346_1_);}
	.st22{fill:url(#Path_6347_1_);}
	.st23{fill:url(#Path_6348_1_);}
	.st24{fill:url(#Path_6349_1_);}
	.st25{fill:url(#Path_6350_1_);}
	.st26{fill:url(#Path_6351_1_);}
	.st27{fill:url(#Path_6352_1_);}
	.st28{fill:url(#Path_6353_1_);}
	.st29{fill:url(#Path_6354_1_);}
	.st30{fill:url(#Path_6355_1_);}
	.st31{fill:url(#Path_6356_1_);}
	.st32{fill:url(#Path_6361_1_);}
	.st33{fill:url(#Path_6362_1_);}
	.st34{fill:url(#SVGID_1_);}
	.st35{fill:url(#SVGID_2_);}
	.st36{fill:url(#SVGID_3_);}
	.st37{fill:url(#SVGID_4_);}
	.st38{fill:url(#Path_6369_1_);}
	.st39{opacity:0.2;fill:url(#Path_6370_1_);enable-background:new    ;}
	.st40{fill:url(#Path_6371_1_);}
	.st41{opacity:0.2;fill:url(#Path_6372_1_);enable-background:new    ;}
	.st42{fill:url(#Path_6373_1_);}
	.st43{fill:url(#SVGID_5_);}
	.st44{fill:url(#SVGID_6_);}
	.st45{fill:url(#SVGID_7_);}
	.st46{fill:url(#SVGID_8_);}
	.st47{fill:url(#Path_6378_1_);}
	.st48{fill:#E0E2E2;}
	.st49{fill:url(#Rectangle_23821_1_);}
	.st50{fill:url(#Path_6380_1_);}
	.st51{fill:url(#Path_6381_1_);}
</style>
<g id="Group_5399" transform="translate(-206.423 -145.696)">
	<g>
		
			<linearGradient id="Path_6330_1_" gradientUnits="userSpaceOnUse" x1="-1354.3395" y1="-6242.936" x2="-1352.1415" y2="-6242.936" gradientTransform="matrix(118.4161 0 0 6.2661 160601.3906 40381.7695)">
			<stop  offset="0" style="stop-color:#2A2D2C"/>
			<stop  offset="1" style="stop-color:#161616"/>
		</linearGradient>
		<path id="Path_6330" class="st0" d="M468.1,1269.76H243.65c-13.32,0.11-17.84,0.3-17.84-4.95c0-8.2-0.73-8.88,9.18-8.88h243.03
			c8.3-0.5,8.14,3.09,8.03,6.91C485.89,1268.47,485.57,1270.59,468.1,1269.76z"/>
		
			<radialGradient id="Rectangle_23811_1_" cx="-1212.757" cy="-6086.7417" r="3.2433" gradientTransform="matrix(2.6243 0 0 2.6321 3642.5049 17293.332)" gradientUnits="userSpaceOnUse">
			<stop  offset="0.017" style="stop-color:#CE2027"/>
			<stop  offset="1" style="stop-color:#6C0F16"/>
		</radialGradient>
		<rect id="Rectangle_23811" x="448.16" y="1269.76" class="st1" width="23.34" height="5.9"/>
		
			<radialGradient id="Rectangle_23812_1_" cx="-1331.1919" cy="-6086.7417" r="3.2436" gradientTransform="matrix(10.415 0 0 2.6321 14114.6748 17293.332)" gradientUnits="userSpaceOnUse">
			<stop  offset="0.017" style="stop-color:#CE2027"/>
			<stop  offset="1" style="stop-color:#6C0F16"/>
		</radialGradient>
		<rect id="Rectangle_23812" x="238.72" y="1269.76" class="st2" width="23.35" height="5.9"/>
	</g>
	<g>
		
			<linearGradient id="Rectangle_23802_2_" gradientUnits="userSpaceOnUse" x1="-1334.7352" y1="-6324.5381" x2="-1332.7725" y2="-6324.5381" gradientTransform="matrix(17.812 0 0 46.027 24211.6641 292294.9375)">
			<stop  offset="0" style="stop-color:#2A2D2C"/>
			<stop  offset="1" style="stop-color:#161616"/>
		</linearGradient>
		<path id="Rectangle_23802" class="st3" d="M448.05,1150.1h13.59c5.9,0,10.68,4.8,10.68,10.72l0,0V1230
			c0,5.92-4.78,10.72-10.68,10.72l0,0h-13.59c-5.9,0-10.69-4.8-10.69-10.72v-69.17C437.37,1154.9,442.15,1150.1,448.05,1150.1
			L448.05,1150.1z"/>
		
			<linearGradient id="Rectangle_23806_2_" gradientUnits="userSpaceOnUse" x1="-1340.1824" y1="-6324.5381" x2="-1338.2197" y2="-6324.5381" gradientTransform="matrix(17.813 0 0 46.027 24112.2383 292294.9375)">
			<stop  offset="0" style="stop-color:#2A2D2C"/>
			<stop  offset="1" style="stop-color:#161616"/>
		</linearGradient>
		<path id="Rectangle_23806" class="st4" d="M250.25,1150.1h13.59c5.9,0,10.69,4.8,10.69,10.72v69.17c0,5.92-4.78,10.72-10.68,10.72
			l0,0h-13.59c-5.9,0-10.69-4.8-10.69-10.72v-69.17C239.56,1154.9,244.35,1150.1,250.25,1150.1L250.25,1150.1z"/>
	</g>
	<g>
		
			<linearGradient id="Rectangle_23802_3_" gradientUnits="userSpaceOnUse" x1="-1334.7352" y1="-6339.5063" x2="-1332.7725" y2="-6339.5063" gradientTransform="matrix(17.812 0 0 46.027 24211.6641 292294.9375)">
			<stop  offset="0" style="stop-color:#2A2D2C"/>
			<stop  offset="1" style="stop-color:#161616"/>
		</linearGradient>
		<path id="Rectangle_23802_1_" class="st5" d="M448.05,461.15h13.59c5.9,0,10.68,4.8,10.68,10.72l0,0v69.18
			c0,5.92-4.78,10.72-10.68,10.72l0,0h-13.59c-5.9,0-10.69-4.8-10.69-10.72v-69.17C437.37,465.95,442.15,461.15,448.05,461.15
			L448.05,461.15z"/>
		
			<linearGradient id="Rectangle_23806_3_" gradientUnits="userSpaceOnUse" x1="-1340.1824" y1="-6339.5068" x2="-1338.2197" y2="-6339.5068" gradientTransform="matrix(17.813 0 0 46.027 24112.2383 292294.9375)">
			<stop  offset="0" style="stop-color:#2A2D2C"/>
			<stop  offset="1" style="stop-color:#161616"/>
		</linearGradient>
		<path id="Rectangle_23806_1_" class="st6" d="M250.25,461.15h13.59c5.9,0,10.69,4.8,10.69,10.72v69.17
			c0,5.92-4.78,10.72-10.68,10.72l0,0h-13.59c-5.9,0-10.69-4.8-10.69-10.72v-69.17C239.56,465.95,244.35,461.15,250.25,461.15
			L250.25,461.15z"/>
	</g>
	
		<linearGradient id="Path_6366_1_" gradientUnits="userSpaceOnUse" x1="-1352.8558" y1="-6335.3071" x2="-1354.8617" y2="-6335.2974" gradientTransform="matrix(149.9986 0 0 255.305 203433.3594 1618297.125)">
		<stop  offset="0" style="stop-color:#931A1D"/>
		<stop  offset="0.26" style="stop-color:#D03327"/>
		<stop  offset="0.446" style="stop-color:#E84825"/>
		<stop  offset="0.829" style="stop-color:#E95424"/>
		<stop  offset="1" style="stop-color:#9E2B21"/>
	</linearGradient>
	<path id="Path_6366" class="st7" d="M277.84,439.77c0,0-45.19,67.85-58.84,155.28c0,0-25.88,253.04-4.79,375.91
		c0,0,15,105.45,23.53,142.85c9.57,42.01,40.34,172.12,40.34,172.12h155.69c9.5,3.24,69.53-289.47,70.45-363.22
		c0,0,10.69-278.78-12.72-344.18c0,0-25.47-111.52-57.86-139.18L277.84,439.77z"/>
	<path id="Path_6382" class="st8" d="M291.18,464.25L343.5,467c0,0-154.43,331.89-30.98,802.7l-11.7-3.12
		C300.82,1266.58,152.21,717.9,291.18,464.25z"/>
	
		<linearGradient id="Rectangle_23810_1_" gradientUnits="userSpaceOnUse" x1="-1353.4386" y1="-6332.7886" x2="-1351.476" y2="-6332.7886" gradientTransform="matrix(93.622 0 0 2.717 126975.7031 17646.8926)">
		<stop  offset="0" style="stop-color:#2A2D2C"/>
		<stop  offset="1" style="stop-color:#0E0E0F"/>
	</linearGradient>
	<rect id="Rectangle_23810" x="264.07" y="437.03" class="st9" width="183.75" height="7.35"/>
	<path id="Path_6337" class="st10" d="M423.07,1297.7H289.39c-4.87,0.16-8.91-2.19-10.09-5.58l-1.21-6.18l156.38-0.25
		c0,0-0.46,4.55-0.91,5.91C432.32,1295.36,430.73,1297.59,423.07,1297.7z"/>
	<g>
		<g id="Group_5384" transform="translate(324.945 163.369)">
			<path id="Path_6331" class="st11" d="M116.47,17.12c1.09,1.59,2.05,3.26,2.88,5.01c3.58,7.47,5.91,15.48,6.87,23.72
				c0.23,1.92,0.31,3.85,0.24,5.78c-1.09-1.59-2.06-3.26-2.89-5c-1.8-3.72-3.28-7.59-4.41-11.57c-1.16-3.97-1.98-8.03-2.45-12.14
				C116.48,20.99,116.4,19.05,116.47,17.12z"/>
		</g>
		<g id="Group_5385" transform="translate(232.676 163.369)">
			<path id="Path_6332" class="st11" d="M37.63,17.12c0.07,1.93-0.01,3.86-0.24,5.78c-0.47,4.11-1.28,8.17-2.45,12.14
				c-1.13,3.98-2.61,7.85-4.41,11.57c-0.83,1.74-1.79,3.42-2.89,5c-0.08-1.93,0-3.86,0.24-5.78c0.96-8.23,3.28-16.25,6.87-23.72
				C35.57,20.39,36.54,18.71,37.63,17.12z"/>
		</g>
		<path id="Path_6333" class="st12" d="M426.01,224.17c-25.73-10.61-53.39-15.68-81.19-14.88c0-1.13,0.02-2.27,0.03-3.4
			c28.25-0.79,56.34,4.37,82.47,15.16C426.88,222.09,426.44,223.13,426.01,224.17z"/>
		<path id="Path_6334" class="st12" d="M374.69,209.5c0,2.03-8.94,3.68-19.97,3.68s-19.97-1.65-19.97-3.68s8.94-3.68,19.97-3.68
			S374.69,207.46,374.69,209.5z"/>
		<path id="Path_6335" class="st13" d="M457.25,412.2c1.05,0.02,1.91-0.81,1.93-1.86l0,0v-15.45c-0.02-1.05-0.89-1.88-1.93-1.86
			V412.2z"/>
		<path id="Path_6336" class="st14" d="M254.75,412.2c-1.05,0.02-1.91-0.81-1.93-1.86l0,0v-15.45c0.02-1.05,0.89-1.88,1.93-1.86
			V412.2z"/>
		
			<linearGradient id="Path_6338_1_" gradientUnits="userSpaceOnUse" x1="-1353.6982" y1="-6339.0537" x2="-1351.7355" y2="-6339.0537" gradientTransform="matrix(100.5954 0 0 59.608 136433.0781 378062.7188)">
			<stop  offset="0" style="stop-color:#C7C7C6"/>
			<stop  offset="1" style="stop-color:#989B99"/>
		</linearGradient>
		<path id="Path_6338" class="st15" d="M257.62,220.19c-1.02-6.6,0.54-26.72,0.54-26.72c0-32.77,23.05-47.77,55.72-47.77h84.24
			c32.67,0,55.73,15,55.73,47.77c0,0,1.53,20.12,0.53,26.72c-1.62,10.69-10.25,41.22-10.25,41.22l-175.35,1.64
			C268.76,263.05,259.34,231.33,257.62,220.19z"/>
		<path id="Path_6339" class="st16" d="M268.82,187.95c0.89-0.17,1.52-0.95,1.5-1.86c0.03-3.61,1.41-7.09,3.86-9.74
			c0.63-0.64,0.71-1.65,0.18-2.38l0,0c-0.67-0.65-1.74-0.63-2.39,0.04c-0.05,0.05-0.09,0.1-0.13,0.15c-3,3.24-4.68,7.48-4.71,11.89
			c-0.1,0.93,0.57,1.77,1.5,1.87C268.69,187.94,268.76,187.95,268.82,187.95L268.82,187.95z"/>
		<path id="Path_6340" class="st16" d="M443.14,187.95c-0.89-0.17-1.52-0.95-1.5-1.86c-0.03-3.61-1.4-7.09-3.86-9.74
			c-0.63-0.64-0.71-1.65-0.18-2.38l0,0c0.67-0.65,1.74-0.63,2.39,0.04c0.05,0.05,0.09,0.1,0.13,0.15c3,3.24,4.68,7.48,4.71,11.89
			c0.1,0.93-0.57,1.77-1.5,1.87C443.27,187.94,443.2,187.95,443.14,187.95L443.14,187.95z"/>
		
			<linearGradient id="Path_6341_1_" gradientUnits="userSpaceOnUse" x1="-1353.6687" y1="-6342.8296" x2="-1351.7013" y2="-6342.8296" gradientTransform="matrix(99.7052 0 0 26.566 135225.6719 168675.5156)">
			<stop  offset="0" style="stop-color:#2A2D2C"/>
			<stop  offset="1" style="stop-color:#0E0E0F"/>
		</linearGradient>
		<path id="Path_6341" class="st17" d="M398.12,145.71h-84.24c-32.67,0-55.6,14.16-55.72,47.77l-0.3,4.61
			c1.53-12.41,2.16-20.65,6.34-26.64c10.44-13.41,28.46-18.65,49.67-18.65h84.24c21.21,0,39.41,6.56,49.85,19.97
			c3.68,4.32,5.42,13.97,6.07,25l-0.19-4.29C453.84,160.7,430.78,145.71,398.12,145.71z"/>
		
			<radialGradient id="Path_6342_1_" cx="-1349.0958" cy="-6338.521" r="1.5688" gradientTransform="matrix(44.9043 0 0 45.0639 60936.0703 285842.8438)" gradientUnits="userSpaceOnUse">
			<stop  offset="0" style="stop-color:#FFFFFF"/>
			<stop  offset="1" style="stop-color:#CDCCCC"/>
		</radialGradient>
		<path id="Path_6342" class="st18" d="M267.14,219.46c-0.8-6.72,1.1-25.98,1.1-25.98c0-30.88,31.91-34.21,45.63-34.21h84.24
			c13.72,0,42.91,1.75,45.97,34.28c0,0,1.53,16.73,0.1,25.6c-1.02,8.36-8.46,28.66-8.46,28.66l-159.71,1.63
			C276.01,249.44,267.65,228.23,267.14,219.46z"/>
		<path id="Path_6343" class="st12" d="M437.55,260.6c-54.09-7.79-109.01-7.79-163.1,0l-1.29,0.46c0,0-1.96-10.81-2.24-13.97
			c-0.33-3.65-0.58-13.5-0.58-13.5l1.25-0.26c28.71-6.14,57.99-9.21,87.34-9.18c27.19,0.17,54.34,2.32,81.22,6.43l1.26,0.19v0.86
			c0,11.13,0,17.85-1.94,28.06l-0.22,1.16L437.55,260.6z"/>
		
			<linearGradient id="Path_6344_1_" gradientUnits="userSpaceOnUse" x1="-1353.0815" y1="-6344.1641" x2="-1351.1189" y2="-6344.1641" gradientTransform="matrix(85.465 0 0 17.4369 115913.1875 110864.9844)">
			<stop  offset="0" style="stop-color:#2A2D2C"/>
			<stop  offset="1" style="stop-color:#0E0E0F"/>
		</linearGradient>
		<path id="Path_6344" class="st19" d="M437.89,259.56c-54.32-7.83-108.78-7.75-163.1,0.08c-2.03-9.16-2.24-16.52-2.72-25.28
			c54.08-11.49,105.28-11.83,167.74-2.72C439.81,242.78,439.81,249.42,437.89,259.56z"/>
		
			<linearGradient id="Path_6345_1_" gradientUnits="userSpaceOnUse" x1="-1352.8035" y1="-6339.627" x2="-1352.8035" y2="-6336.6226" gradientTransform="matrix(103.173 0 0 49.2768 139928.7813 312647.125)">
			<stop  offset="0" style="stop-color:#C7C7C6"/>
			<stop  offset="1" style="stop-color:#989B99"/>
		</linearGradient>
		<path id="Path_6345" class="st20" d="M264.12,437.07h183.47c0,0,9.6-6.74,9.6-10c0.02-21.34,0.04-129.04,0.05-141.62
			c0.01-11.53-13.13-24.05-13.13-24.05s-11.7-11.12-88.13-10.78c-51.53-0.22-74.41,7.46-87.22,12.42
			c-6.08,2.36-14.03,13.39-14.02,22.41c0.02,15.82,0.05,128.37,0.06,141.62C254.82,434.49,264.12,437.07,264.12,437.07z"/>
		
			<linearGradient id="Path_6346_1_" gradientUnits="userSpaceOnUse" x1="-1352.3293" y1="-6339.6699" x2="-1352.3293" y2="-6336.6294" gradientTransform="matrix(90.543 0 0 48.076 122799.9453 305038.9375)">
			<stop  offset="0" style="stop-color:#F4F6F6"/>
			<stop  offset="1" style="stop-color:#D4D2D2"/>
		</linearGradient>
		<path id="Path_6346" class="st21" d="M273.45,437.07c0,0-6.31-16.67-6.31-43.79c0-18.83,6.26-131.41,6.26-131.41
			c5.85-1.99,44.21-8.9,82.57-8.9s76.74,6.25,82.63,8.27c0,0,6.25,111.7,6.25,132.04c0,28.63-6.3,43.79-6.3,43.79L273.45,437.07z"/>
		
			<linearGradient id="Path_6347_1_" gradientUnits="userSpaceOnUse" x1="-1312.6152" y1="-6350.8662" x2="-1309.9441" y2="-6347.8198" gradientTransform="matrix(8.2127 0 0 13.9415 11190.75 88717.3203)">
			<stop  offset="0" style="stop-color:#2A2D2C"/>
			<stop  offset="1" style="stop-color:#161616"/>
		</linearGradient>
		<path id="Path_6347" class="st22" d="M449.3,231.48c0,0,8.87,5.48,6.08,13.48s-18.67,20.31-15.04,10.08
			C443.98,244.8,447.28,234.19,449.3,231.48z"/>
		
			<radialGradient id="Path_6348_1_" cx="-1303.0511" cy="-6346.6548" r="1.6664" gradientTransform="matrix(7.0477 0 0 6.7982 9650.7676 43394.4648)" gradientUnits="userSpaceOnUse">
			<stop  offset="0" style="stop-color:#FFFFFF"/>
			<stop  offset="1" style="stop-color:#C8CCCB"/>
		</radialGradient>
		<path id="Path_6348" class="st23" d="M479.48,250.89c-2.25-2.93-22.86-9.12-22.86-9.12c-4.06-1.29-5.46,2.19-5.93,5.16l29.55,8.69
			C480.76,254.01,480.48,252.25,479.48,250.89z"/>
		
			<linearGradient id="Path_6349_1_" gradientUnits="userSpaceOnUse" x1="-1330.5867" y1="-6360.3691" x2="-1328.6083" y2="-6360.3691" gradientTransform="matrix(15.1831 0 0 5.385 20652.9316 34502.8203)">
			<stop  offset="0" style="stop-color:#2A2D2C"/>
			<stop  offset="1" style="stop-color:#161616"/>
		</linearGradient>
		<path id="Path_6349" class="st24" d="M450.7,246.93c-0.19,1.2-0.27,2.41-0.25,3.63l29.04,6.97c0.33-0.61,0.58-1.25,0.76-1.92
			L450.7,246.93z"/>
		
			<linearGradient id="Path_6350_1_" gradientUnits="userSpaceOnUse" x1="-1319.6982" y1="-6346.5659" x2="-1317.0267" y2="-6343.519" gradientTransform="matrix(8.2115 0 0 13.9415 11095.4434 88717.3203)">
			<stop  offset="0" style="stop-color:#2A2D2C"/>
			<stop  offset="1" style="stop-color:#161616"/>
		</linearGradient>
		<path id="Path_6350" class="st25" d="M262.59,231.48c0,0-8.87,5.48-6.08,13.48s18.68,20.31,15.04,10.08
			C267.9,244.8,264.61,234.19,262.59,231.48z"/>
		
			<radialGradient id="Path_6351_1_" cx="-1400.7231" cy="-6346.6548" r="1.666" gradientTransform="matrix(-7.0479 0 0 6.7982 -9526.3652 43394.4648)" gradientUnits="userSpaceOnUse">
			<stop  offset="0" style="stop-color:#FFFFFF"/>
			<stop  offset="1" style="stop-color:#C8CCCB"/>
		</radialGradient>
		<path id="Path_6351" class="st26" d="M232.4,250.89c2.25-2.93,22.86-9.12,22.86-9.12c4.06-1.29,5.46,2.19,5.93,5.16l-29.55,8.69
			C231.13,254.01,231.41,252.25,232.4,250.89z"/>
		
			<linearGradient id="Path_6352_1_" gradientUnits="userSpaceOnUse" x1="-1333.8324" y1="-6360.3691" x2="-1331.8521" y2="-6360.3691" gradientTransform="matrix(15.1821 0 0 5.385 20540.1113 34502.8203)">
			<stop  offset="0" style="stop-color:#2A2D2C"/>
			<stop  offset="1" style="stop-color:#161616"/>
		</linearGradient>
		<path id="Path_6352" class="st27" d="M261.19,246.93c0.19,1.2,0.27,2.41,0.25,3.63l-29.04,6.97c-0.33-0.61-0.58-1.25-0.76-1.92
			L261.19,246.93z"/>
		
			<linearGradient id="Path_6353_1_" gradientUnits="userSpaceOnUse" x1="-1351.2451" y1="-6345.3867" x2="-1349.2823" y2="-6345.3867" gradientTransform="matrix(59.118 0 0 15.0798 80182.1953 95928.3984)">
			<stop  offset="0" style="stop-color:#2D2D2D"/>
			<stop  offset="1" style="stop-color:#050606"/>
		</linearGradient>
		<path id="Path_6353" class="st28" d="M306.11,255.85c34.07-2.94,68.33-2.87,102.39,0.23l6.82-27.08
			c-38.6-3.4-77.42-3.47-116.03-0.21L306.11,255.85z"/>
		
			<linearGradient id="Path_6354_1_" gradientUnits="userSpaceOnUse" x1="-1347.9374" y1="-6386.3057" x2="-1345.9747" y2="-6386.3057" gradientTransform="matrix(37.893 0 0 3.6 51396.1992 23139.9355)">
			<stop  offset="0" style="stop-color:#F4F6F6"/>
			<stop  offset="1" style="stop-color:#D4D2D2"/>
		</linearGradient>
		<path id="Path_6354" class="st29" d="M393.18,152.78h-74.37l4.56-7.09h65.25L393.18,152.78z"/>
		
			<linearGradient id="Path_6355_1_" gradientUnits="userSpaceOnUse" x1="608.984" y1="1152.4395" x2="691.7604" y2="1099.9669" gradientTransform="matrix(1 0 0 -1 -206.423 1297.696)">
			<stop  offset="0" style="stop-color:#FFFFFF"/>
			<stop  offset="1" style="stop-color:#2A2D2C"/>
		</linearGradient>
		<path id="Path_6355" class="st30" d="M439.63,173.5c-1.56,0.04-3.08-0.53-4.22-1.61c-5.83-5.67-12.71-7.52-20.67-9.67
			c-1.99-0.54-4.03-1.09-6.13-1.72c-4.83-1.44-7.16-3.67-6.93-6.59c0.29-3.66,4.93-6.26,7.23-6.57c1.45-0.2,2.9-0.29,4.36-0.29
			c14.49,0,26.69,9.45,31.28,13.51c3.84,3.41,3.14,6.73,2.66,8C445.87,171.56,442.9,173.49,439.63,173.5L439.63,173.5z"/>
		
			<linearGradient id="Path_6356_1_" gradientUnits="userSpaceOnUse" x1="-1338.9944" y1="-6352.0815" x2="-1337.0315" y2="-6352.0815" gradientTransform="matrix(21.1055 0 0 11.1411 28664.0156 70929.4453)">
			<stop  offset="0" style="stop-color:#F4F6F6"/>
			<stop  offset="1" style="stop-color:#D4D2D2"/>
		</linearGradient>
		<path id="Path_6356" class="st31" d="M409.21,149.57c-2.44,0.32-10.6,5.57,0.04,8.76c10.64,3.19,19.96,4.39,27.72,11.93
			c3.34,3.23,12.66-2.18,6.08-8.02C436.48,156.42,423.49,147.65,409.21,149.57z"/>
		
			<linearGradient id="Path_6361_1_" gradientUnits="userSpaceOnUse" x1="477.3655" y1="1131.8501" x2="566.8079" y2="1169.2454" gradientTransform="matrix(1 0 0 -1 -206.423 1297.696)">
			<stop  offset="0" style="stop-color:#FFFFFF"/>
			<stop  offset="1" style="stop-color:#2A2D2C"/>
		</linearGradient>
		<path id="Path_6361" class="st32" d="M274.11,173.5c1.56,0.04,3.08-0.53,4.22-1.61c5.83-5.67,12.71-7.52,20.67-9.67
			c1.99-0.54,4.03-1.09,6.12-1.72c4.83-1.44,7.16-3.67,6.93-6.59c-0.29-3.66-4.92-6.26-7.23-6.57c-1.45-0.2-2.9-0.29-4.36-0.29
			c-14.49,0-26.69,9.45-31.28,13.51c-3.84,3.41-3.14,6.73-2.66,8C267.87,171.56,270.83,173.49,274.11,173.5L274.11,173.5z"/>
		
			<linearGradient id="Path_6362_1_" gradientUnits="userSpaceOnUse" x1="-1342.5278" y1="-6352.0815" x2="-1340.5651" y2="-6352.0815" gradientTransform="matrix(21.1067 0 0 11.1411 28596.625 70929.4453)">
			<stop  offset="0" style="stop-color:#F4F6F6"/>
			<stop  offset="1" style="stop-color:#D4D2D2"/>
		</linearGradient>
		<path id="Path_6362" class="st33" d="M304.52,149.57c2.44,0.32,10.6,5.57-0.04,8.76c-10.64,3.19-19.96,4.39-27.72,11.93
			c-3.34,3.23-12.66-2.18-6.08-8.02C277.25,156.42,290.25,147.65,304.52,149.57z"/>
		<g>
			
				<linearGradient id="SVGID_1_" gradientUnits="userSpaceOnUse" x1="484.7802" y1="1138.9655" x2="485.7407" y2="1136.4979" gradientTransform="matrix(1 0 0 -1 -206.423 1297.696)">
				<stop  offset="0" style="stop-color:#FFFFFF"/>
				<stop  offset="1" style="stop-color:#2A2D2C"/>
			</linearGradient>
			<path class="st34" d="M279.93,161.79c-1.57,0-2.84,0.44-2.84,0.98c0,0.55,1.27,0.98,2.84,0.98s2.84-0.44,2.84-0.98
				S281.5,161.79,279.93,161.79z"/>
			
				<linearGradient id="SVGID_2_" gradientUnits="userSpaceOnUse" x1="492.7196" y1="1144.7542" x2="494.2316" y2="1140.8699" gradientTransform="matrix(1 0 0 -1 -206.423 1297.696)">
				<stop  offset="0" style="stop-color:#FFFFFF"/>
				<stop  offset="1" style="stop-color:#2A2D2C"/>
			</linearGradient>
			<path class="st35" d="M294.78,156.83c-1.56,0-2.84,0.44-2.84,0.98c0,0.02,0.01,0.03,0.01,0.05c-0.25-0.03-0.51-0.04-0.79-0.04
				c-1.57,0-2.84,0.43-2.84,0.98c0,0.06,0.02,0.12,0.05,0.18c-0.46-0.11-1.01-0.17-1.6-0.17c-1.57,0-2.84,0.44-2.84,0.98
				c0,0.03,0.02,0.06,0.03,0.1c-0.36-0.06-0.76-0.09-1.19-0.09c-1.57,0-2.84,0.44-2.84,0.98c0,0.55,1.27,0.98,2.84,0.98
				s2.84-0.44,2.84-0.98c0-0.03-0.02-0.06-0.03-0.1c0.36,0.06,0.76,0.09,1.19,0.09c1.57,0,2.84-0.44,2.84-0.98
				c0-0.06-0.02-0.12-0.05-0.18c0.46,0.11,1.01,0.17,1.6,0.17c1.57,0,2.84-0.44,2.84-0.98c0-0.02-0.01-0.03-0.01-0.05
				c0.25,0.03,0.52,0.04,0.79,0.04c1.57,0,2.83-0.44,2.83-0.98S296.34,156.83,294.78,156.83z"/>
		</g>
		<g>
			
				<linearGradient id="SVGID_3_" gradientUnits="userSpaceOnUse" x1="3267.5776" y1="1140.6677" x2="3268.5381" y2="1138.2003" gradientTransform="matrix(-1 0 0 -1 3702.051 1297.696)">
				<stop  offset="0" style="stop-color:#FFFFFF"/>
				<stop  offset="1" style="stop-color:#2A2D2C"/>
			</linearGradient>
			<path class="st36" d="M432.9,160.09c1.57,0,2.84,0.44,2.84,0.98s-1.27,0.98-2.84,0.98s-2.84-0.44-2.84-0.98
				S431.34,160.09,432.9,160.09z"/>
			
				<linearGradient id="SVGID_4_" gradientUnits="userSpaceOnUse" x1="3275.5081" y1="1146.453" x2="3277.02" y2="1142.5687" gradientTransform="matrix(-1 0 0 -1 3702.051 1297.696)">
				<stop  offset="0" style="stop-color:#FFFFFF"/>
				<stop  offset="1" style="stop-color:#2A2D2C"/>
			</linearGradient>
			<path class="st37" d="M418.06,155.13c1.56,0,2.84,0.44,2.84,0.98c0,0.02-0.01,0.03-0.01,0.05c0.25-0.03,0.51-0.04,0.79-0.04
				c1.57,0,2.84,0.43,2.84,0.98c0,0.06-0.02,0.12-0.05,0.18c0.46-0.11,1.01-0.17,1.6-0.17c1.57,0,2.84,0.44,2.84,0.98
				c0,0.03-0.02,0.06-0.03,0.1c0.36-0.06,0.76-0.09,1.19-0.09c1.57,0,2.84,0.44,2.84,0.98c0,0.55-1.27,0.98-2.84,0.98
				s-2.84-0.44-2.84-0.98c0-0.03,0.02-0.06,0.03-0.1c-0.36,0.06-0.76,0.09-1.19,0.09c-1.57,0-2.84-0.44-2.84-0.98
				c0-0.06,0.02-0.12,0.05-0.18c-0.46,0.11-1.01,0.17-1.6,0.17c-1.57,0-2.84-0.44-2.84-0.98c0-0.02,0.01-0.03,0.01-0.05
				c-0.25,0.03-0.52,0.04-0.79,0.04c-1.57,0-2.83-0.44-2.83-0.98S416.49,155.13,418.06,155.13z"/>
		</g>
		
			<linearGradient id="Path_6369_1_" gradientUnits="userSpaceOnUse" x1="-1276.4486" y1="-6339.1338" x2="-1263.8" y2="-6335.5586" gradientTransform="matrix(4.776 0 0 32.725 6532.29 207769.8281)">
			<stop  offset="0" style="stop-color:#2A2D2C"/>
			<stop  offset="1" style="stop-color:#161616"/>
		</linearGradient>
		<path id="Path_6369" class="st38" d="M453.33,273.19l-5.46,8.5c2.81,18.53,2.81,126.84,0,145.38l9.32-9.04v-0.01
			c0.02-21.33,0.04-120,0.05-132.57C457.02,281.09,455.67,276.87,453.33,273.19z"/>
		
			<linearGradient id="Path_6370_1_" gradientUnits="userSpaceOnUse" x1="654.293" y1="937.226" x2="663.663" y2="937.226" gradientTransform="matrix(1 0 0 -1 -206.423 1297.696)">
			<stop  offset="0" style="stop-color:#F4F6F6"/>
			<stop  offset="1" style="stop-color:#D4D2D2"/>
		</linearGradient>
		<path id="Path_6370" class="st39" d="M457.19,418.03v-0.01c0.02-16.36,0.03-115.05,0.05-124.14c-2.5,1.74-5.05,93.06-7.55,94.99
			c0.74,12.76,0.13,25.56-1.82,38.19L457.19,418.03z"/>
		
			<linearGradient id="Path_6371_1_" gradientUnits="userSpaceOnUse" x1="-1286.4829" y1="-6336.4785" x2="-1273.9087" y2="-6332.9238" gradientTransform="matrix(4.778 0 0 32.725 6436.6016 207769.8281)">
			<stop  offset="0" style="stop-color:#2A2D2C"/>
			<stop  offset="1" style="stop-color:#161616"/>
		</linearGradient>
		<path id="Path_6371" class="st40" d="M258.66,273.19l5.46,8.5c-2.81,18.53-2.81,126.84,0,145.38l-9.32-9.04v-0.01
			c-0.03-21.33-0.04-120-0.05-132.57C254.97,281.09,256.32,276.87,258.66,273.19z"/>
		
			<linearGradient id="Path_6372_1_" gradientUnits="userSpaceOnUse" x1="-1297.9812" y1="-6339.7163" x2="-1289.6769" y2="-6338.3672" gradientTransform="matrix(4.772 0 0 22.211 6428.4741 141153.0625)">
			<stop  offset="0" style="stop-color:#F4F6F6"/>
			<stop  offset="1" style="stop-color:#D4D2D2"/>
		</linearGradient>
		<path id="Path_6372" class="st41" d="M254.8,418.03v-0.01c-0.02-16.36-0.04-115.05-0.05-124.14c2.49,1.74,5.05,93.06,7.55,94.99
			c-0.74,12.76-0.13,25.56,1.82,38.19L254.8,418.03z"/>
		
			<linearGradient id="Path_6373_1_" gradientUnits="userSpaceOnUse" x1="-1349.9601" y1="-6340.3706" x2="-1349.9601" y2="-6335.5322" gradientTransform="matrix(56.1349 0 0 36.633 76135.875 232531.0781)">
			<stop  offset="0" style="stop-color:#FFFFFF"/>
			<stop  offset="1" style="stop-color:#7E7E7D"/>
		</linearGradient>
		<path id="Path_6373" class="st42" d="M305.32,425.56c0,1.22-0.99,2.21-2.2,2.21l0,0c-1.22,0-2.2-0.99-2.2-2.21V268.42
			c0-1.22,0.99-2.21,2.2-2.21l0,0c1.22,0,2.2,0.99,2.2,2.21V425.56z M315.89,268.41c0-1.22-0.99-2.21-2.21-2.21l0,0
			c-1.22,0.01-2.2,1-2.2,2.22v157.15c0,1.22,0.99,2.21,2.21,2.21l0,0c1.22,0,2.2-0.99,2.21-2.21L315.89,268.41z M326.47,268.41
			c0-1.22-0.99-2.21-2.2-2.21l0,0c-1.22,0-2.21,0.99-2.21,2.21v157.15c0,1.22,0.99,2.21,2.21,2.21l0,0c1.22,0,2.2-0.99,2.2-2.21
			V268.41z M337.05,268.41c0-1.22-0.99-2.21-2.21-2.21l0,0c-1.22,0-2.2,0.99-2.2,2.21v157.15c0.01,1.22,0.99,2.2,2.21,2.2l0,0
			c1.22,0,2.21-0.99,2.21-2.21L337.05,268.41z M347.62,268.41c0-1.22-0.99-2.21-2.21-2.21l0,0c-1.22,0-2.2,0.99-2.21,2.21v157.15
			c0,1.22,0.99,2.21,2.21,2.21l0,0c1.22,0,2.2-0.99,2.21-2.21V268.41z M358.2,268.41c0-1.22-0.99-2.21-2.21-2.21l0,0
			c-1.22,0-2.2,0.99-2.2,2.21v157.15c0,1.22,0.99,2.21,2.2,2.21l0,0c1.22,0,2.21-0.99,2.21-2.21V268.41z M368.77,268.41
			c0-1.22-0.99-2.21-2.2-2.21l0,0c-1.22,0-2.2,0.99-2.2,2.21v157.15c0,1.22,0.99,2.21,2.2,2.21l0,0c1.22,0,2.2-0.99,2.2-2.21V268.41
			z M379.35,268.41c0-1.22-0.99-2.21-2.21-2.21l0,0c-1.22,0-2.2,0.99-2.2,2.21v157.15c0,1.22,0.99,2.21,2.2,2.21l0,0
			c1.22,0,2.21-0.99,2.21-2.21V268.41z M389.93,268.41c0-1.22-0.99-2.21-2.2-2.21l0,0c-1.22,0-2.2,0.99-2.2,2.21v157.15
			c0,1.22,0.99,2.21,2.2,2.21l0,0c1.22,0,2.2-0.99,2.2-2.21V268.41z M400.51,268.41c0-1.22-0.99-2.21-2.21-2.21l0,0
			c-1.22,0-2.2,0.99-2.2,2.21v157.15c0,1.22,0.99,2.21,2.2,2.21l0,0c1.22,0,2.21-0.99,2.21-2.21V268.41z M411.08,268.41
			c0-1.22-0.99-2.21-2.2-2.21l0,0c-1.22,0-2.2,1-2.2,2.22l0,0v157.15c0,1.22,0.99,2.21,2.2,2.21l0,0c1.22,0,2.2-0.99,2.2-2.21
			V268.41z"/>
		
			<linearGradient id="SVGID_5_" gradientUnits="userSpaceOnUse" x1="561.093" y1="1110.829" x2="561.093" y2="1109.1091" gradientTransform="matrix(1 0 0 -1 -206.423 1297.696)">
			<stop  offset="0" style="stop-color:#F4F6F6"/>
			<stop  offset="1" style="stop-color:#D4D2D2"/>
		</linearGradient>
		<path class="st43" d="M386.05,189.85H323.3c-0.95,0-1.71-0.77-1.71-1.71v-0.01c0-0.95,0.77-1.71,1.71-1.71h62.74
			c0.95,0,1.71,0.77,1.71,1.71v0.01C387.76,189.08,386.99,189.85,386.05,189.85z"/>
		
			<linearGradient id="SVGID_6_" gradientUnits="userSpaceOnUse" x1="561.093" y1="1099.4775" x2="561.093" y2="1096.8978" gradientTransform="matrix(1 0 0 -1 -206.423 1297.696)">
			<stop  offset="0" style="stop-color:#F4F6F6"/>
			<stop  offset="1" style="stop-color:#D4D2D2"/>
		</linearGradient>
		<path class="st44" d="M396.05,201.72H313.3c-0.95,0-1.71-0.77-1.71-1.71V200c0-0.95,0.77-1.71,1.71-1.71h82.74
			c0.95,0,1.71,0.77,1.71,1.71l0,0C397.76,200.95,396.99,201.72,396.05,201.72z"/>
		
			<linearGradient id="SVGID_7_" gradientUnits="userSpaceOnUse" x1="502.2849" y1="1112.0146" x2="510.2808" y2="1105.1985" gradientTransform="matrix(1 0 0 -1 -206.423 1297.696)">
			<stop  offset="0" style="stop-color:#FFFFFF"/>
			<stop  offset="1" style="stop-color:#CDCCCC"/>
		</linearGradient>
		<path class="st45" d="M285.64,228.27c0,0,7.78-24.52,13.37-33.22c14.29-22.25,30.72-31.8,30.72-31.8S285.38,173.59,285.64,228.27z
			"/>
		
			<linearGradient id="SVGID_8_" gradientUnits="userSpaceOnUse" x1="3211.0779" y1="1112.0139" x2="3219.0737" y2="1105.1978" gradientTransform="matrix(-1 0 0 -1 3628.7051 1297.696)">
			<stop  offset="0" style="stop-color:#FFFFFF"/>
			<stop  offset="1" style="stop-color:#CDCCCC"/>
		</linearGradient>
		<path class="st46" d="M427.85,228.27c0,0-7.78-24.52-13.37-33.22c-14.29-22.25-30.72-31.8-30.72-31.8S428.11,173.59,427.85,228.27
			z"/>
	</g>
	<g>
		
			<linearGradient id="Path_6378_1_" gradientUnits="userSpaceOnUse" x1="-1362.2526" y1="-6331.8179" x2="-1359.7579" y2="-6331.8179" gradientTransform="matrix(54.3264 0 0 54.3266 73683.2031 344781.0313)">
			<stop  offset="0" style="stop-color:#424342"/>
			<stop  offset="1" style="stop-color:#161616"/>
		</linearGradient>
		<path id="Path_6378" class="st47" d="M295.06,775.12c-10.9,35.9,9.27,73.87,45.06,84.8c35.79,10.94,73.64-9.3,84.55-45.2
			c10.9-35.89-9.26-73.85-45.04-84.8s-73.64,9.27-84.56,45.16C295.06,775.1,295.06,775.11,295.06,775.12z"/>
		<g id="Group_5398" transform="translate(257.127 334.942)">
			<path id="Path_6379" class="st48" d="M102.76,520.97L102.76,520.97c-6.02-0.01-12-0.91-17.75-2.67
				c-32.06-9.85-50.08-43.9-40.26-76.05s43.77-50.23,75.82-40.39c32.06,9.85,50.08,43.9,40.26,76.05
				C153.01,503.51,129.45,520.98,102.76,520.97L102.76,520.97z M102.71,401.98c-31.95-0.01-57.86,25.95-57.87,57.99
				s25.87,58.03,57.82,58.05s57.86-25.95,57.87-57.99c0.01-25.52-16.6-48.05-40.93-55.51C114.12,402.84,108.43,401.98,102.71,401.98
				L102.71,401.98z"/>
		</g>
		
			<radialGradient id="Rectangle_23821_1_" cx="-1283.3956" cy="-6295.4722" r="6.9755" gradientTransform="matrix(4.9725 0 0 -4.9974 6805.2021 -31530.0742)" gradientUnits="userSpaceOnUse">
			<stop  offset="0.245" style="stop-color:#FFFFFF"/>
			<stop  offset="1" style="stop-color:#C8CCCB"/>
		</radialGradient>
		<rect id="Rectangle_23821" x="362.57" y="788.58" class="st49" width="95.76" height="12.7"/>
		
			<radialGradient id="Path_6380_1_" cx="-1315.3837" cy="-6313.6904" r="1.271" gradientTransform="matrix(9.2894 0 0 -9.3176 12674.0928 -58907.5664)" gradientUnits="userSpaceOnUse">
			<stop  offset="0.245" style="stop-color:#FFFFFF"/>
			<stop  offset="1" style="stop-color:#838685"/>
		</radialGradient>
		<path id="Path_6380" class="st50" d="M470.14,794.93c0-6.54-5.29-11.84-11.81-11.84s-11.8,5.31-11.8,11.85s5.29,11.84,11.8,11.84
			C464.86,806.78,470.14,801.47,470.14,794.93L470.14,794.93z"/>
		
			<radialGradient id="Path_6381_1_" cx="-1333.8011" cy="-6314.3218" r="1.271" gradientTransform="matrix(-13.9255 -4.2618 -4.249 13.9675 -46248.0781 83130.5547)" gradientUnits="userSpaceOnUse">
			<stop  offset="0.245" style="stop-color:#FFFFFF"/>
			<stop  offset="1" style="stop-color:#838685"/>
		</radialGradient>
		<path id="Path_6381" class="st51" d="M342.17,789.52c-2.98,9.8,2.53,20.16,12.3,23.15c9.77,2.99,20.1-2.54,23.08-12.33
			c2.98-9.8-2.53-20.16-12.29-23.15C355.48,774.2,345.15,779.72,342.17,789.52z"/>
	</g>
</g>
</svg>
