<?xml version="1.0" encoding="utf-8"?>
<!-- Generator: Adobe Illustrator 24.2.3, SVG Export Plug-In . SVG Version: 6.00 Build 0)  -->
<svg version="1.1" id="Layer_1" xmlns="http://www.w3.org/2000/svg" xmlns:xlink="http://www.w3.org/1999/xlink" x="0px" y="0px"
	 viewBox="0 0 300 278.57" style="enable-background:new 0 0 300 278.57;" xml:space="preserve">
<style type="text/css">
	.st0{fill:url(#Rectangle_22691_1_);}
	.st1{fill:url(#Rectangle_22692_1_);}
	.st2{fill:url(#Rectangle_22693_1_);}
	.st3{fill:url(#Rectangle_22691-2_1_);}
	.st4{fill:url(#Rectangle_22692-2_1_);}
	.st5{fill:url(#Rectangle_22693-2_1_);}
	.st6{fill:#005EA4;}
	.st7{fill:#5C6875;}
	.st8{fill:#2A3440;}
	.st9{fill:#2E78BC;}
	.st10{opacity:0.08;}
	.st11{fill:none;}
	.st12{fill:#B2BFCD;}
</style>
<g>
	<g id="Group_4765" transform="translate(931.797 -71.275)">
		<g id="Group_4762" transform="translate(856.196 143.276)">
			
				<linearGradient id="Rectangle_22691_1_" gradientUnits="userSpaceOnUse" x1="-9554.5234" y1="-5451.0825" x2="-9553.5977" y2="-5451.0825" gradientTransform="matrix(7.658 0 0 184.255 71389.7891 1004457.625)">
				<stop  offset="1.000000e-03" style="stop-color:#BCBDBF"/>
				<stop  offset="0.214" style="stop-color:#929497"/>
				<stop  offset="0.544" style="stop-color:#FFFFFF"/>
				<stop  offset="0.723" style="stop-color:#929497"/>
				<stop  offset="1" style="stop-color:#424143"/>
			</linearGradient>
			<rect id="Rectangle_22691" x="-1778.75" y="-54.48" class="st0" width="7.09" height="245.76"/>
			
				<linearGradient id="Rectangle_22692_1_" gradientUnits="userSpaceOnUse" x1="-9586.0205" y1="-5441.812" x2="-9585.0938" y2="-5441.812" gradientTransform="matrix(21.519 0 0 18.266 204496.3438 99337.2969)">
				<stop  offset="1.000000e-03" style="stop-color:#BCBDBF"/>
				<stop  offset="0.214" style="stop-color:#929497"/>
				<stop  offset="0.544" style="stop-color:#FFFFFF"/>
				<stop  offset="0.723" style="stop-color:#929497"/>
				<stop  offset="1" style="stop-color:#424143"/>
			</linearGradient>
			<rect id="Rectangle_22692" x="-1785.22" y="-72" class="st1" width="19.94" height="18.3"/>
			
				<linearGradient id="Rectangle_22693_1_" gradientUnits="userSpaceOnUse" x1="-9586.0205" y1="-5438.498" x2="-9585.0938" y2="-5438.498" gradientTransform="matrix(21.519 0 0 18.266 204496.3438 99537.0313)">
				<stop  offset="1.000000e-03" style="stop-color:#BCBDBF"/>
				<stop  offset="0.214" style="stop-color:#929497"/>
				<stop  offset="0.544" style="stop-color:#FFFFFF"/>
				<stop  offset="0.723" style="stop-color:#929497"/>
				<stop  offset="1" style="stop-color:#424143"/>
			</linearGradient>
			<rect id="Rectangle_22693" x="-1785.22" y="188.27" class="st2" width="19.94" height="18.3"/>
		</g>
		<g id="Group_4766" transform="translate(1137.469 143.276)">
			
				<linearGradient id="Rectangle_22691-2_1_" gradientUnits="userSpaceOnUse" x1="-10119.7725" y1="-5451.0825" x2="-10118.8467" y2="-5451.0825" gradientTransform="matrix(7.658 0 0 184.255 75697.7656 1004457.625)">
				<stop  offset="1.000000e-03" style="stop-color:#BCBDBF"/>
				<stop  offset="0.214" style="stop-color:#929497"/>
				<stop  offset="0.544" style="stop-color:#FFFFFF"/>
				<stop  offset="0.723" style="stop-color:#929497"/>
				<stop  offset="1" style="stop-color:#424143"/>
			</linearGradient>
			<rect id="Rectangle_22691-2" x="-1799.45" y="-54.48" class="st3" width="7.09" height="245.76"/>
			
				<linearGradient id="Rectangle_22692-2_1_" gradientUnits="userSpaceOnUse" x1="-10149.5273" y1="-5441.812" x2="-10148.6016" y2="-5441.812" gradientTransform="matrix(21.519 0 0 18.266 216601.7656 99337.2969)">
				<stop  offset="1.000000e-03" style="stop-color:#BCBDBF"/>
				<stop  offset="0.214" style="stop-color:#929497"/>
				<stop  offset="0.544" style="stop-color:#FFFFFF"/>
				<stop  offset="0.723" style="stop-color:#929497"/>
				<stop  offset="1" style="stop-color:#424143"/>
			</linearGradient>
			<rect id="Rectangle_22692-2" x="-1805.92" y="-72" class="st4" width="19.94" height="18.3"/>
			
				<linearGradient id="Rectangle_22693-2_1_" gradientUnits="userSpaceOnUse" x1="-10149.5273" y1="-5438.498" x2="-10148.6016" y2="-5438.498" gradientTransform="matrix(21.519 0 0 18.266 216601.7656 99537.0313)">
				<stop  offset="1.000000e-03" style="stop-color:#BCBDBF"/>
				<stop  offset="0.214" style="stop-color:#929497"/>
				<stop  offset="0.544" style="stop-color:#FFFFFF"/>
				<stop  offset="0.723" style="stop-color:#929497"/>
				<stop  offset="1" style="stop-color:#424143"/>
			</linearGradient>
			<rect id="Rectangle_22693-2" x="-1805.92" y="188.27" class="st5" width="19.94" height="18.3"/>
		</g>
		<g id="Group_4764_1_" transform="translate(853.203 173.611)">
			<rect id="Rectangle_22697_1_" x="-1731.44" y="-37" class="st6" width="13.69" height="161.1"/>
			<rect id="Rectangle_22698_1_" x="-1550.04" y="-37" class="st6" width="13.69" height="161.1"/>
			<rect id="Rectangle_22699_1_" x="-1777.27" y="-57.46" class="st7" width="275.62" height="68.87"/>
			<rect id="Rectangle_22700_1_" x="-1785" y="-37.76" class="st8" width="7.8" height="27.44"/>
			<path id="Path_4713_1_" class="st8" d="M-1502.13-38.75l17.13-11.07V3.76l-17.13-12.11V-38.75z"/>
			<rect id="Rectangle_22701" x="-1735.22" y="-57.46" class="st9" width="84.61" height="68.87"/>
			<rect id="Rectangle_22702_1_" x="-1777.27" y="66.02" class="st7" width="275.62" height="66.67"/>
			<rect id="Rectangle_22703_1_" x="-1785" y="85.64" class="st8" width="7.8" height="27.44"/>
			<path id="Path_4714_1_" class="st8" d="M-1502.13,83.65l17.13-11.08v53.57l-17.13-12.11V83.65z"/>
			<rect id="Rectangle_22704" x="-1735.22" y="66.02" class="st9" width="84.61" height="66.67"/>
		</g>
	</g>
</g>
<g class="st10">
	<g id="Path_4797" transform="translate(1697 303.511) rotate(45)">
		<path class="st11" d="M-1230.79,1133.35l-3.88-14.23l-14.23-3.88l3.88,14.23L-1230.79,1133.35z"/>
		<path class="st12" d="M-1232.13,1132.01l-12.13-3.3l-3.3-12.13l12.13,3.3L-1232.13,1132.01 M-1230.79,1133.35l-3.88-14.23
			l-14.23-3.88l3.88,14.23L-1230.79,1133.35z"/>
	</g>
	<g id="Path_4801" transform="translate(1697 303.511) rotate(45)">
		<path class="st11" d="M-1219.74,1122.29l-3.88-14.23l-14.23-3.88l3.88,14.23L-1219.74,1122.29z"/>
		<path class="st12" d="M-1221.07,1120.95l-12.13-3.3l-3.3-12.13l12.13,3.3L-1221.07,1120.95 M-1219.74,1122.29l-3.88-14.23
			l-14.23-3.88l3.88,14.23L-1219.74,1122.29z"/>
	</g>
	<g id="Path_4805" transform="translate(1697 303.511) rotate(45)">
		<path class="st11" d="M-1208.68,1111.23l-3.88-14.23l-14.23-3.88l3.88,14.23L-1208.68,1111.23z"/>
		<path class="st12" d="M-1210.02,1109.9l-12.13-3.3l-3.3-12.13l12.13,3.3L-1210.02,1109.9 M-1208.68,1111.23l-3.88-14.23
			l-14.23-3.88l3.88,14.23L-1208.68,1111.23z"/>
	</g>
	<g id="Path_4809" transform="translate(1697 303.511) rotate(45)">
		<path class="st11" d="M-1197.62,1100.18l-3.88-14.23l-14.23-3.88l3.88,14.23L-1197.62,1100.18z"/>
		<path class="st12" d="M-1198.96,1098.85l-12.13-3.3l-3.3-12.13l12.13,3.3L-1198.96,1098.85 M-1197.62,1100.18l-3.88-14.23
			l-14.23-3.88l3.88,14.23L-1197.62,1100.18z"/>
	</g>
	<g id="Path_4813" transform="translate(1697 303.511) rotate(45)">
		<path class="st11" d="M-1186.57,1089.12l-3.88-14.23l-14.23-3.88l3.88,14.23L-1186.57,1089.12z"/>
		<path class="st12" d="M-1187.9,1087.79l-12.13-3.3l-3.3-12.13l12.13,3.3L-1187.9,1087.79 M-1186.57,1089.12l-3.88-14.23
			l-14.23-3.88l3.88,14.23L-1186.57,1089.12z"/>
	</g>
	<g id="Path_4817" transform="translate(1697 303.511) rotate(45)">
		<path class="st11" d="M-1175.52,1078.07l-3.88-14.23l-14.23-3.88l3.88,14.23L-1175.52,1078.07z"/>
		<path class="st12" d="M-1176.85,1076.73l-12.13-3.3l-3.31-12.13l12.13,3.3L-1176.85,1076.73 M-1175.52,1078.07l-3.88-14.23
			l-14.23-3.88l3.88,14.23L-1175.52,1078.07z"/>
	</g>
	<g id="Path_4821" transform="translate(1697 303.511) rotate(45)">
		<path class="st11" d="M-1164.45,1067.01l-3.88-14.23l-14.23-3.88l3.88,14.23L-1164.45,1067.01z"/>
		<path class="st12" d="M-1165.8,1065.68l-12.13-3.3l-3.3-12.13l12.13,3.3L-1165.8,1065.68 M-1164.45,1067.01l-3.88-14.23
			l-14.23-3.88l3.88,14.23L-1164.45,1067.01z"/>
	</g>
	<g id="Path_4825" transform="translate(1697 303.511) rotate(45)">
		<path class="st11" d="M-1153.4,1055.96l-3.88-14.23l-14.23-3.88l3.88,14.23L-1153.4,1055.96z"/>
		<path class="st12" d="M-1154.74,1054.62l-12.13-3.3l-3.3-12.13l12.13,3.3L-1154.74,1054.62 M-1153.4,1055.96l-3.88-14.23
			l-14.23-3.88l3.88,14.23L-1153.4,1055.96z"/>
	</g>
	<g id="Path_4829" transform="translate(1697 303.511) rotate(45)">
		<path class="st11" d="M-1142.35,1044.91l-3.88-14.23l-14.23-3.88l3.88,14.23L-1142.35,1044.91z"/>
		<path class="st12" d="M-1143.68,1043.56l-12.13-3.3l-3.3-12.13l12.13,3.3L-1143.68,1043.56 M-1142.35,1044.91l-3.88-14.23
			l-14.23-3.88l3.88,14.23L-1142.35,1044.91z"/>
	</g>
	<g id="Path_4833" transform="translate(1697 303.511) rotate(45)">
		<path class="st11" d="M-1131.29,1033.85l-3.88-14.23l-14.23-3.88l3.88,14.23L-1131.29,1033.85z"/>
		<path class="st12" d="M-1132.63,1032.51l-12.13-3.3l-3.3-12.13l12.13,3.3L-1132.63,1032.51 M-1131.29,1033.85l-3.88-14.23
			l-14.23-3.88l3.88,14.23L-1131.29,1033.85z"/>
	</g>
	<g id="Path_4837" transform="translate(1697 303.511) rotate(45)">
		<path class="st11" d="M-1120.23,1022.79l-3.88-14.23l-14.23-3.88l3.88,14.23L-1120.23,1022.79z"/>
		<path class="st12" d="M-1121.57,1021.46l-12.13-3.3l-3.3-12.13l12.13,3.3L-1121.57,1021.46 M-1120.23,1022.79l-3.88-14.23
			l-14.23-3.88l3.88,14.23L-1120.23,1022.79z"/>
	</g>
	<g id="Path_4841" transform="translate(1697 303.511) rotate(45)">
		<path class="st11" d="M-1109.18,1011.74l-3.88-14.23l-14.23-3.88l3.88,14.23L-1109.18,1011.74z"/>
		<path class="st12" d="M-1110.52,1010.4l-12.13-3.3l-3.3-12.13l12.13,3.3L-1110.52,1010.4 M-1109.18,1011.74l-3.88-14.23
			l-14.23-3.88l3.88,14.23L-1109.18,1011.74z"/>
	</g>
	<g id="Path_4845" transform="translate(1697 303.511) rotate(45)">
		<path class="st11" d="M-1098.13,1000.68l-3.88-14.23l-14.23-3.88l3.88,14.23L-1098.13,1000.68z"/>
		<path class="st12" d="M-1099.46,999.34l-12.13-3.3l-3.3-12.13l12.13,3.3L-1099.46,999.34 M-1098.13,1000.68l-3.88-14.23
			l-14.23-3.88l3.88,14.23L-1098.13,1000.68z"/>
	</g>
	<g id="Path_4849" transform="translate(1697 303.511) rotate(45)">
		<path class="st11" d="M-1087.07,989.63l-3.88-14.23l-14.23-3.88l3.88,14.23L-1087.07,989.63z"/>
		<path class="st12" d="M-1088.41,988.29l-12.13-3.3l-3.3-12.13l12.13,3.3L-1088.41,988.29 M-1087.07,989.63l-3.88-14.23
			l-14.23-3.88l3.88,14.23L-1087.07,989.63z"/>
	</g>
	<g id="Path_4853" transform="translate(1697 303.511) rotate(45)">
		<path class="st11" d="M-1076.01,978.57l-3.88-14.23l-14.23-3.88l3.88,14.23L-1076.01,978.57z"/>
		<path class="st12" d="M-1077.35,977.24l-12.13-3.3l-3.3-12.13l12.13,3.3L-1077.35,977.24 M-1076.01,978.57l-3.88-14.23
			l-14.23-3.88l3.88,14.23L-1076.01,978.57z"/>
	</g>
	<g id="Path_4857" transform="translate(1697 303.511) rotate(45)">
		<path class="st11" d="M-1064.96,967.52l-3.88-14.23l-14.23-3.88l3.88,14.23L-1064.96,967.52z"/>
		<path class="st12" d="M-1066.29,966.18l-12.13-3.3l-3.3-12.13l12.13,3.3L-1066.29,966.18 M-1064.96,967.52l-3.88-14.23
			l-14.23-3.88l3.88,14.23L-1064.96,967.52z"/>
	</g>
	<g id="Path_4861" transform="translate(1697 303.511) rotate(45)">
		<path class="st11" d="M-1053.91,956.46l-3.88-14.23l-14.23-3.88l3.88,14.23L-1053.91,956.46z"/>
		<path class="st12" d="M-1055.24,955.12l-12.13-3.3l-3.3-12.13l12.13,3.3L-1055.24,955.12 M-1053.91,956.46l-3.88-14.23
			l-14.23-3.88l3.88,14.23L-1053.91,956.46z"/>
	</g>
	<g id="Path_4871" transform="translate(1688.066 291.6) rotate(45)">
		<path class="st11" d="M-1231.14,1131.34l-3.88-14.23l-14.23-3.88l3.88,14.23L-1231.14,1131.34z"/>
		<path class="st12" d="M-1232.48,1130l-12.13-3.3l-3.3-12.13l12.13,3.3L-1232.48,1130 M-1231.14,1131.34l-3.88-14.23l-14.23-3.88
			l3.88,14.23L-1231.14,1131.34z"/>
	</g>
	<g id="Path_4872" transform="translate(1697 279.689) rotate(45)">
		<path class="st11" d="M-1214.09,1150.05l-3.88-14.23l-14.23-3.88l3.88,14.23L-1214.09,1150.05z"/>
		<path class="st12" d="M-1215.42,1148.71l-12.13-3.3l-3.3-12.13l12.13,3.3L-1215.42,1148.71 M-1214.09,1150.05l-3.88-14.23
			l-14.23-3.88l3.88,14.23L-1214.09,1150.05z"/>
	</g>
	<g id="Path_4873" transform="translate(1697 303.511) rotate(45)">
		<path class="st11" d="M-1249.85,1114.29l-3.88-14.23l-14.23-3.88l3.88,14.23L-1249.85,1114.29z"/>
		<path class="st12" d="M-1251.19,1112.95l-12.13-3.3l-3.3-12.13l12.13,3.3L-1251.19,1112.95 M-1249.85,1114.29l-3.88-14.23
			l-14.23-3.88l3.88,14.23L-1249.85,1114.29z"/>
	</g>
	<g id="Path_4874" transform="translate(1705.933 291.6) rotate(45)">
		<path class="st11" d="M-1232.8,1133l-3.88-14.23l-14.23-3.88l3.88,14.23L-1232.8,1133z"/>
		<path class="st12" d="M-1234.14,1131.66l-12.13-3.3l-3.3-12.13l12.13,3.3L-1234.14,1131.66 M-1232.8,1133l-3.88-14.23l-14.23-3.88
			l3.88,14.23L-1232.8,1133z"/>
	</g>
	<g id="Path_4875" transform="translate(1688.066 291.6) rotate(45)">
		<path class="st11" d="M-1220.09,1120.28l-3.88-14.23l-14.23-3.88l3.88,14.23L-1220.09,1120.28z"/>
		<path class="st12" d="M-1221.42,1118.95l-12.13-3.3l-3.3-12.13l12.13,3.3L-1221.42,1118.95 M-1220.09,1120.28l-3.88-14.23
			l-14.23-3.88l3.88,14.23L-1220.09,1120.28z"/>
	</g>
	<g id="Path_4876" transform="translate(1697 279.689) rotate(45)">
		<path class="st11" d="M-1203.03,1139l-3.88-14.23l-14.23-3.88l3.88,14.23L-1203.03,1139z"/>
		<path class="st12" d="M-1204.37,1137.65l-12.13-3.3l-3.3-12.13l12.13,3.3L-1204.37,1137.65 M-1203.03,1139l-3.88-14.23
			l-14.23-3.88l3.88,14.23L-1203.03,1139z"/>
	</g>
	<g id="Path_4877" transform="translate(1697 303.511) rotate(45)">
		<path class="st11" d="M-1238.79,1103.23l-3.88-14.23l-14.23-3.88l3.88,14.23L-1238.79,1103.23z"/>
		<path class="st12" d="M-1240.14,1101.89l-12.13-3.3l-3.3-12.13l12.13,3.3L-1240.14,1101.89 M-1238.79,1103.23l-3.88-14.23
			l-14.23-3.88l3.88,14.23L-1238.79,1103.23z"/>
	</g>
	<g id="Path_4878" transform="translate(1705.933 291.6) rotate(45)">
		<path class="st11" d="M-1221.74,1121.94l-3.88-14.23l-14.23-3.88l3.88,14.23L-1221.74,1121.94z"/>
		<path class="st12" d="M-1223.08,1120.6l-12.13-3.3l-3.3-12.13l12.13,3.3L-1223.08,1120.6 M-1221.74,1121.94l-3.88-14.23
			l-14.23-3.88l3.88,14.23L-1221.74,1121.94z"/>
	</g>
	<g id="Path_4879" transform="translate(1688.066 291.6) rotate(45)">
		<path class="st11" d="M-1209.03,1109.22l-3.88-14.23l-14.23-3.88l3.88,14.23L-1209.03,1109.22z"/>
		<path class="st12" d="M-1210.37,1107.89l-12.13-3.3l-3.3-12.13l12.13,3.3L-1210.37,1107.89 M-1209.03,1109.22l-3.88-14.23
			l-14.23-3.88l3.88,14.23L-1209.03,1109.22z"/>
	</g>
	<g id="Path_4880" transform="translate(1697 279.689) rotate(45)">
		<path class="st11" d="M-1191.97,1127.94l-3.88-14.23l-14.23-3.88l3.88,14.23L-1191.97,1127.94z"/>
		<path class="st12" d="M-1193.31,1126.6l-12.13-3.3l-3.3-12.13l12.13,3.3L-1193.31,1126.6 M-1191.97,1127.94l-3.88-14.23
			l-14.23-3.88l3.88,14.23L-1191.97,1127.94z"/>
	</g>
	<g id="Path_4881" transform="translate(1697 303.511) rotate(45)">
		<path class="st11" d="M-1227.74,1092.18l-3.88-14.23l-14.23-3.88l3.88,14.23L-1227.74,1092.18z"/>
		<path class="st12" d="M-1229.07,1090.83l-12.13-3.3l-3.3-12.13l12.13,3.3L-1229.07,1090.83 M-1227.74,1092.18l-3.88-14.23
			l-14.23-3.88l3.88,14.23L-1227.74,1092.18z"/>
	</g>
	<g id="Path_4882" transform="translate(1705.933 291.6) rotate(45)">
		<path class="st11" d="M-1210.69,1110.88l-3.88-14.23l-14.23-3.88l3.88,14.23L-1210.69,1110.88z"/>
		<path class="st12" d="M-1212.02,1109.55l-12.13-3.3l-3.3-12.13l12.13,3.3L-1212.02,1109.55 M-1210.69,1110.88l-3.88-14.23
			l-14.23-3.88l3.88,14.23L-1210.69,1110.88z"/>
	</g>
	<g id="Path_4883" transform="translate(1688.066 291.6) rotate(45)">
		<path class="st11" d="M-1197.97,1098.17l-3.88-14.23l-14.23-3.88l3.88,14.23L-1197.97,1098.17z"/>
		<path class="st12" d="M-1199.31,1096.83l-12.13-3.3l-3.3-12.13l12.13,3.3L-1199.31,1096.83 M-1197.97,1098.17l-3.88-14.23
			l-14.23-3.88l3.88,14.23L-1197.97,1098.17z"/>
	</g>
	<g id="Path_4884" transform="translate(1697 279.689) rotate(45)">
		<path class="st11" d="M-1180.92,1116.88l-3.88-14.23l-14.23-3.88l3.88,14.23L-1180.92,1116.88z"/>
		<path class="st12" d="M-1182.26,1115.55l-12.13-3.3l-3.31-12.13l12.13,3.3L-1182.26,1115.55 M-1180.92,1116.88l-3.88-14.23
			l-14.23-3.88l3.88,14.23L-1180.92,1116.88z"/>
	</g>
	<g id="Path_4885" transform="translate(1697 303.511) rotate(45)">
		<path class="st11" d="M-1216.69,1081.12l-3.88-14.23l-14.23-3.88l3.88,14.23L-1216.69,1081.12z"/>
		<path class="st12" d="M-1218.02,1079.78l-12.13-3.3l-3.3-12.13l12.13,3.3L-1218.02,1079.78 M-1216.69,1081.12l-3.88-14.23
			l-14.23-3.88l3.88,14.23L-1216.69,1081.12z"/>
	</g>
	<g id="Path_4886" transform="translate(1705.933 291.6) rotate(45)">
		<path class="st11" d="M-1199.63,1099.83l-3.88-14.23l-14.23-3.88l3.88,14.23L-1199.63,1099.83z"/>
		<path class="st12" d="M-1200.97,1098.5l-12.13-3.3l-3.3-12.13l12.13,3.3L-1200.97,1098.5 M-1199.63,1099.83l-3.88-14.23
			l-14.23-3.88l3.88,14.23L-1199.63,1099.83z"/>
	</g>
	<g id="Path_4887" transform="translate(1688.066 291.6) rotate(45)">
		<path class="st11" d="M-1186.92,1087.12l-3.88-14.23l-14.23-3.88l3.88,14.23L-1186.92,1087.12z"/>
		<path class="st12" d="M-1188.25,1085.77l-12.13-3.3l-3.3-12.13l12.13,3.3L-1188.25,1085.77 M-1186.92,1087.12l-3.88-14.23
			l-14.23-3.88l3.88,14.23L-1186.92,1087.12z"/>
	</g>
	<g id="Path_4888" transform="translate(1697 279.689) rotate(45)">
		<path class="st11" d="M-1169.86,1105.83l-3.88-14.23l-14.23-3.88l3.88,14.23L-1169.86,1105.83z"/>
		<path class="st12" d="M-1171.2,1104.49l-12.13-3.3l-3.3-12.13l12.13,3.3L-1171.2,1104.49 M-1169.86,1105.83l-3.88-14.23
			l-14.23-3.88l3.88,14.23L-1169.86,1105.83z"/>
	</g>
	<g id="Path_4889" transform="translate(1697 303.511) rotate(45)">
		<path class="st11" d="M-1205.63,1070.06l-3.88-14.23l-14.23-3.88l3.88,14.23L-1205.63,1070.06z"/>
		<path class="st12" d="M-1206.97,1068.73l-12.13-3.3l-3.3-12.13l12.13,3.3L-1206.97,1068.73 M-1205.63,1070.06l-3.88-14.23
			l-14.23-3.88l3.88,14.23L-1205.63,1070.06z"/>
	</g>
	<g id="Path_4890" transform="translate(1705.933 291.6) rotate(45)">
		<path class="st11" d="M-1188.58,1088.78l-3.88-14.23l-14.23-3.88l3.88,14.23L-1188.58,1088.78z"/>
		<path class="st12" d="M-1189.92,1087.44l-12.13-3.3l-3.3-12.13l12.13,3.3L-1189.92,1087.44 M-1188.58,1088.78l-3.88-14.23
			l-14.23-3.88l3.88,14.23L-1188.58,1088.78z"/>
	</g>
	<g id="Path_4891" transform="translate(1688.066 291.6) rotate(45)">
		<path class="st11" d="M-1175.87,1076.06l-3.88-14.23l-14.23-3.88l3.88,14.23L-1175.87,1076.06z"/>
		<path class="st12" d="M-1177.2,1074.72l-12.13-3.3l-3.3-12.13l12.13,3.3L-1177.2,1074.72 M-1175.87,1076.06l-3.88-14.23
			l-14.23-3.88l3.88,14.23L-1175.87,1076.06z"/>
	</g>
	<g id="Path_4892" transform="translate(1697 279.689) rotate(45)">
		<path class="st11" d="M-1158.81,1094.77l-3.88-14.22l-14.23-3.88l3.88,14.23L-1158.81,1094.77z"/>
		<path class="st12" d="M-1160.15,1093.44l-12.13-3.3l-3.3-12.13l12.13,3.3L-1160.15,1093.44 M-1158.81,1094.77l-3.88-14.22
			l-14.23-3.88l3.88,14.23L-1158.81,1094.77z"/>
	</g>
	<g id="Path_4893" transform="translate(1697 303.511) rotate(45)">
		<path class="st11" d="M-1194.57,1059.01l-3.88-14.23l-14.23-3.88l3.88,14.23L-1194.57,1059.01z"/>
		<path class="st12" d="M-1195.91,1057.68l-12.13-3.3l-3.3-12.13l12.13,3.3L-1195.91,1057.68 M-1194.57,1059.01l-3.88-14.23
			l-14.23-3.88l3.88,14.23L-1194.57,1059.01z"/>
	</g>
	<g id="Path_4894" transform="translate(1705.933 291.6) rotate(45)">
		<path class="st11" d="M-1177.52,1077.72l-3.88-14.23l-14.23-3.88l3.88,14.23L-1177.52,1077.72z"/>
		<path class="st12" d="M-1178.86,1076.38l-12.13-3.3l-3.3-12.13l12.13,3.3L-1178.86,1076.38 M-1177.52,1077.72l-3.88-14.23
			l-14.23-3.88l3.88,14.23L-1177.52,1077.72z"/>
	</g>
	<g id="Path_4895" transform="translate(1688.066 291.6) rotate(45)">
		<path class="st11" d="M-1164.8,1065l-3.88-14.23l-14.23-3.88l3.88,14.23L-1164.8,1065z"/>
		<path class="st12" d="M-1166.15,1063.67l-12.13-3.3l-3.3-12.13l12.13,3.3L-1166.15,1063.67 M-1164.8,1065l-3.88-14.23l-14.23-3.88
			l3.88,14.23L-1164.8,1065z"/>
	</g>
	<g id="Path_4896" transform="translate(1697 279.689) rotate(45)">
		<path class="st11" d="M-1147.75,1083.72l-3.88-14.23l-14.23-3.88l3.88,14.23L-1147.75,1083.72z"/>
		<path class="st12" d="M-1149.09,1082.38l-12.13-3.3l-3.3-12.13l12.13,3.3L-1149.09,1082.38 M-1147.75,1083.72l-3.88-14.23
			l-14.23-3.88l3.88,14.23L-1147.75,1083.72z"/>
	</g>
	<g id="Path_4897" transform="translate(1697 303.511) rotate(45)">
		<path class="st11" d="M-1183.53,1047.96l-3.88-14.23l-14.23-3.88l3.89,14.22L-1183.53,1047.96z"/>
		<path class="st12" d="M-1184.85,1046.62l-12.13-3.3l-3.3-12.13l12.13,3.3L-1184.85,1046.62 M-1183.53,1047.96l-3.88-14.23
			l-14.23-3.88l3.89,14.22L-1183.53,1047.96z"/>
	</g>
	<g id="Path_4898" transform="translate(1705.933 291.6) rotate(45)">
		<path class="st11" d="M-1166.47,1066.66l-3.88-14.23l-14.23-3.88l3.88,14.23L-1166.47,1066.66z"/>
		<path class="st12" d="M-1167.8,1065.33l-12.13-3.3l-3.3-12.13l12.13,3.3L-1167.8,1065.33 M-1166.47,1066.66l-3.88-14.23
			l-14.23-3.88l3.88,14.23L-1166.47,1066.66z"/>
	</g>
	<g id="Path_4899" transform="translate(1688.066 291.6) rotate(45)">
		<path class="st11" d="M-1153.75,1053.95l-3.88-14.23l-14.23-3.88l3.88,14.23L-1153.75,1053.95z"/>
		<path class="st12" d="M-1155.09,1052.61l-12.13-3.3l-3.3-12.13l12.13,3.3L-1155.09,1052.61 M-1153.75,1053.95l-3.88-14.23
			l-14.23-3.88l3.88,14.23L-1153.75,1053.95z"/>
	</g>
	<g id="Path_4900" transform="translate(1697 279.689) rotate(45)">
		<path class="st11" d="M-1136.7,1072.66l-3.88-14.23l-14.23-3.88l3.88,14.23L-1136.7,1072.66z"/>
		<path class="st12" d="M-1138.03,1071.33l-12.13-3.3l-3.31-12.13l12.13,3.3L-1138.03,1071.33 M-1136.7,1072.66l-3.88-14.23
			l-14.23-3.88l3.88,14.23L-1136.7,1072.66z"/>
	</g>
	<g id="Path_4901" transform="translate(1697 303.511) rotate(45)">
		<path class="st11" d="M-1172.46,1036.9l-3.88-14.23l-14.23-3.88l3.88,14.23L-1172.46,1036.9z"/>
		<path class="st12" d="M-1173.8,1035.56l-12.13-3.3l-3.31-12.13l12.13,3.3L-1173.8,1035.56 M-1172.46,1036.9l-3.88-14.23
			l-14.23-3.88l3.88,14.23L-1172.46,1036.9z"/>
	</g>
	<g id="Path_4902" transform="translate(1705.933 291.6) rotate(45)">
		<path class="st11" d="M-1155.41,1055.61l-3.88-14.23l-14.23-3.88l3.88,14.23L-1155.41,1055.61z"/>
		<path class="st12" d="M-1156.75,1054.27l-12.13-3.3l-3.3-12.13l12.13,3.3L-1156.75,1054.27 M-1155.41,1055.61l-3.88-14.23
			l-14.23-3.88l3.88,14.23L-1155.41,1055.61z"/>
	</g>
	<g id="Path_4903" transform="translate(1688.066 291.6) rotate(45)">
		<path class="st11" d="M-1142.7,1042.9l-3.88-14.23l-14.23-3.88l3.88,14.23L-1142.7,1042.9z"/>
		<path class="st12" d="M-1144.03,1041.55l-12.13-3.3l-3.3-12.13l12.13,3.3L-1144.03,1041.55 M-1142.7,1042.9l-3.88-14.23
			l-14.23-3.88l3.88,14.23L-1142.7,1042.9z"/>
	</g>
	<g id="Path_4904" transform="translate(1697 279.689) rotate(45)">
		<path class="st11" d="M-1125.65,1061.61l-3.88-14.23l-14.23-3.88l3.88,14.23L-1125.65,1061.61z"/>
		<path class="st12" d="M-1126.98,1060.27l-12.13-3.3l-3.3-12.13l12.13,3.3L-1126.98,1060.27 M-1125.65,1061.61l-3.88-14.23
			l-14.23-3.88l3.88,14.23L-1125.65,1061.61z"/>
	</g>
	<g id="Path_4905" transform="translate(1697 303.511) rotate(45)">
		<path class="st11" d="M-1161.41,1025.84l-3.88-14.23l-14.23-3.88l3.88,14.23L-1161.41,1025.84z"/>
		<path class="st12" d="M-1162.74,1024.51l-12.13-3.3l-3.3-12.13l12.13,3.3L-1162.74,1024.51 M-1161.41,1025.84l-3.88-14.23
			l-14.23-3.88l3.88,14.23L-1161.41,1025.84z"/>
	</g>
	<g id="Path_4906" transform="translate(1705.933 291.6) rotate(45)">
		<path class="st11" d="M-1144.35,1044.55l-3.88-14.23l-14.23-3.88l3.88,14.23L-1144.35,1044.55z"/>
		<path class="st12" d="M-1145.69,1043.21l-12.13-3.3l-3.3-12.13l12.13,3.3L-1145.69,1043.21 M-1144.35,1044.55l-3.88-14.23
			l-14.23-3.88l3.88,14.23L-1144.35,1044.55z"/>
	</g>
	<g id="Path_4907" transform="translate(1688.066 291.6) rotate(45)">
		<path class="st11" d="M-1131.64,1031.84l-3.88-14.23l-14.23-3.88l3.88,14.23L-1131.64,1031.84z"/>
		<path class="st12" d="M-1132.98,1030.51l-12.13-3.3l-3.3-12.13l12.13,3.3L-1132.98,1030.51 M-1131.64,1031.84l-3.88-14.23
			l-14.23-3.88l3.88,14.23L-1131.64,1031.84z"/>
	</g>
	<g id="Path_4908" transform="translate(1697 279.689) rotate(45)">
		<path class="st11" d="M-1114.59,1050.55l-3.88-14.23l-14.23-3.88l3.88,14.23L-1114.59,1050.55z"/>
		<path class="st12" d="M-1115.93,1049.21l-12.13-3.3l-3.3-12.13l12.13,3.3L-1115.93,1049.21 M-1114.59,1050.55l-3.88-14.23
			l-14.23-3.88l3.88,14.23L-1114.59,1050.55z"/>
	</g>
	<g id="Path_4909" transform="translate(1697 303.511) rotate(45)">
		<path class="st11" d="M-1150.35,1014.79l-3.88-14.23l-14.23-3.88l3.88,14.23L-1150.35,1014.79z"/>
		<path class="st12" d="M-1151.69,1013.45l-12.13-3.3l-3.3-12.13l12.13,3.3L-1151.69,1013.45 M-1150.35,1014.79l-3.88-14.23
			l-14.23-3.88l3.88,14.23L-1150.35,1014.79z"/>
	</g>
	<g id="Path_4910" transform="translate(1705.933 291.6) rotate(45)">
		<path class="st11" d="M-1133.3,1033.5l-3.88-14.23l-14.23-3.88l3.88,14.23L-1133.3,1033.5z"/>
		<path class="st12" d="M-1134.64,1032.16l-12.13-3.3l-3.3-12.13l12.13,3.3L-1134.64,1032.16 M-1133.3,1033.5l-3.88-14.23
			l-14.23-3.88l3.88,14.23L-1133.3,1033.5z"/>
	</g>
	<g id="Path_4911" transform="translate(1688.066 291.6) rotate(45)">
		<path class="st11" d="M-1120.58,1020.78l-3.88-14.23l-14.23-3.88l3.88,14.23L-1120.58,1020.78z"/>
		<path class="st12" d="M-1121.92,1019.45l-12.13-3.3l-3.3-12.13l12.13,3.3L-1121.92,1019.45 M-1120.58,1020.78l-3.88-14.23
			l-14.23-3.88l3.88,14.23L-1120.58,1020.78z"/>
	</g>
	<g id="Path_4912" transform="translate(1697 279.689) rotate(45)">
		<path class="st11" d="M-1103.53,1039.49l-3.88-14.23l-14.23-3.88l3.88,14.23L-1103.53,1039.49z"/>
		<path class="st12" d="M-1104.87,1038.16l-12.13-3.3l-3.3-12.13l12.13,3.3L-1104.87,1038.16 M-1103.53,1039.49l-3.88-14.23
			l-14.23-3.88l3.88,14.23L-1103.53,1039.49z"/>
	</g>
	<g id="Path_4913" transform="translate(1697 303.511) rotate(45)">
		<path class="st11" d="M-1139.3,1003.73l-3.88-14.23l-14.23-3.88l3.88,14.23L-1139.3,1003.73z"/>
		<path class="st12" d="M-1140.63,1002.39l-12.13-3.3l-3.3-12.13l12.13,3.3L-1140.63,1002.39 M-1139.3,1003.73l-3.88-14.23
			l-14.23-3.88l3.88,14.23L-1139.3,1003.73z"/>
	</g>
	<g id="Path_4914" transform="translate(1705.933 291.6) rotate(45)">
		<path class="st11" d="M-1122.25,1022.44l-3.88-14.23l-14.23-3.88l3.88,14.23L-1122.25,1022.44z"/>
		<path class="st12" d="M-1123.58,1021.11l-12.13-3.3l-3.3-12.13l12.13,3.3L-1123.58,1021.11 M-1122.25,1022.44l-3.88-14.23
			l-14.23-3.88l3.88,14.23L-1122.25,1022.44z"/>
	</g>
	<g id="Path_4915" transform="translate(1688.066 291.6) rotate(45)">
		<path class="st11" d="M-1109.53,1009.73l-3.88-14.23l-14.23-3.88l3.88,14.23L-1109.53,1009.73z"/>
		<path class="st12" d="M-1110.87,1008.39l-12.13-3.3l-3.3-12.13l12.13,3.3L-1110.87,1008.39 M-1109.53,1009.73l-3.88-14.23
			l-14.23-3.88l3.88,14.23L-1109.53,1009.73z"/>
	</g>
	<g id="Path_4916" transform="translate(1697 279.689) rotate(45)">
		<path class="st11" d="M-1092.48,1028.44l-3.88-14.23l-14.23-3.88l3.88,14.23L-1092.48,1028.44z"/>
		<path class="st12" d="M-1093.81,1027.1l-12.13-3.3l-3.3-12.13l12.13,3.3L-1093.81,1027.1 M-1092.48,1028.44l-3.88-14.23
			l-14.23-3.88l3.88,14.23L-1092.48,1028.44z"/>
	</g>
	<g id="Path_4917" transform="translate(1697 303.511) rotate(45)">
		<path class="st11" d="M-1128.24,992.67l-3.88-14.23l-14.23-3.88l3.88,14.23L-1128.24,992.67z"/>
		<path class="st12" d="M-1129.58,991.34l-12.13-3.3l-3.3-12.13l12.13,3.3L-1129.58,991.34 M-1128.24,992.67l-3.88-14.23
			l-14.23-3.88l3.88,14.23L-1128.24,992.67z"/>
	</g>
	<g id="Path_4918" transform="translate(1705.933 291.6) rotate(45)">
		<path class="st11" d="M-1111.19,1011.39l-3.88-14.23l-14.23-3.88l3.88,14.23L-1111.19,1011.39z"/>
		<path class="st12" d="M-1112.53,1010.05l-12.13-3.3l-3.3-12.13l12.13,3.3L-1112.53,1010.05 M-1111.19,1011.39l-3.88-14.23
			l-14.23-3.88l3.88,14.23L-1111.19,1011.39z"/>
	</g>
	<g id="Path_4919" transform="translate(1688.066 291.6) rotate(45)">
		<path class="st11" d="M-1098.48,998.67l-3.88-14.23l-14.23-3.88l3.88,14.23L-1098.48,998.67z"/>
		<path class="st12" d="M-1099.81,997.33l-12.13-3.3l-3.3-12.13l12.13,3.3L-1099.81,997.33 M-1098.48,998.67l-3.88-14.23
			l-14.23-3.88l3.88,14.23L-1098.48,998.67z"/>
	</g>
	<g id="Path_4920" transform="translate(1697 279.689) rotate(45)">
		<path class="st11" d="M-1081.42,1017.39l-3.88-14.23l-14.23-3.88l3.88,14.23L-1081.42,1017.39z"/>
		<path class="st12" d="M-1082.76,1016.05l-12.13-3.3l-3.3-12.13l12.13,3.3L-1082.76,1016.05 M-1081.42,1017.39l-3.88-14.23
			l-14.23-3.88l3.88,14.23L-1081.42,1017.39z"/>
	</g>
	<g id="Path_4921" transform="translate(1697 303.511) rotate(45)">
		<path class="st11" d="M-1117.18,981.61l-3.88-14.23l-14.23-3.88l3.88,14.23L-1117.18,981.61z"/>
		<path class="st12" d="M-1118.53,980.29l-12.13-3.3l-3.3-12.13l12.13,3.3L-1118.53,980.29 M-1117.18,981.61l-3.88-14.23
			l-14.23-3.88l3.88,14.23L-1117.18,981.61z"/>
	</g>
	<g id="Path_4922" transform="translate(1705.933 291.6) rotate(45)">
		<path class="st11" d="M-1100.13,1000.34l-3.88-14.23l-14.23-3.88l3.88,14.23L-1100.13,1000.34z"/>
		<path class="st12" d="M-1101.47,998.99l-12.13-3.3l-3.3-12.13l12.13,3.3L-1101.47,998.99 M-1100.13,1000.34l-3.88-14.23
			l-14.23-3.88l3.88,14.23L-1100.13,1000.34z"/>
	</g>
	<g id="Path_4923" transform="translate(1688.066 291.6) rotate(45)">
		<path class="st11" d="M-1087.42,987.61l-3.88-14.23l-14.23-3.88l3.88,14.23L-1087.42,987.61z"/>
		<path class="st12" d="M-1088.76,986.28l-12.13-3.3l-3.3-12.13l12.13,3.3L-1088.76,986.28 M-1087.42,987.61l-3.88-14.23
			l-14.23-3.88l3.88,14.23L-1087.42,987.61z"/>
	</g>
	<g id="Path_4924" transform="translate(1697 279.689) rotate(45)">
		<path class="st11" d="M-1070.36,1006.33l-3.88-14.23l-14.23-3.88l3.88,14.23L-1070.36,1006.33z"/>
		<path class="st12" d="M-1071.7,1004.99l-12.13-3.3l-3.3-12.13l12.13,3.3L-1071.7,1004.99 M-1070.36,1006.33l-3.88-14.23
			l-14.23-3.88l3.88,14.23L-1070.36,1006.33z"/>
	</g>
	<g id="Path_4925" transform="translate(1697 303.511) rotate(45)">
		<path class="st11" d="M-1106.13,970.57l-3.88-14.23l-14.23-3.88l3.88,14.23L-1106.13,970.57z"/>
		<path class="st12" d="M-1107.46,969.23l-12.13-3.3l-3.3-12.13l12.13,3.3L-1107.46,969.23 M-1106.13,970.57l-3.88-14.23
			l-14.23-3.88l3.88,14.23L-1106.13,970.57z"/>
	</g>
	<g id="Path_4926" transform="translate(1705.933 291.6) rotate(45)">
		<path class="st11" d="M-1089.08,989.28l-3.88-14.23l-14.23-3.88l3.88,14.23L-1089.08,989.28z"/>
		<path class="st12" d="M-1090.42,987.94l-12.13-3.3l-3.3-12.13l12.13,3.3L-1090.42,987.94 M-1089.08,989.28l-3.88-14.23
			l-14.23-3.88l3.88,14.23L-1089.08,989.28z"/>
	</g>
	<g id="Path_4927" transform="translate(1688.066 291.6) rotate(45)">
		<path class="st11" d="M-1076.36,976.56l-3.88-14.23l-14.23-3.88l3.88,14.23L-1076.36,976.56z"/>
		<path class="st12" d="M-1077.7,975.23l-12.13-3.3l-3.3-12.13l12.13,3.3L-1077.7,975.23 M-1076.36,976.56l-3.88-14.23l-14.23-3.88
			l3.88,14.23L-1076.36,976.56z"/>
	</g>
	<g id="Path_4928" transform="translate(1697 279.689) rotate(45)">
		<path class="st11" d="M-1059.31,995.27l-3.88-14.23l-14.23-3.88l3.88,14.23L-1059.31,995.27z"/>
		<path class="st12" d="M-1060.65,993.94l-12.13-3.3l-3.3-12.13l12.13,3.3L-1060.65,993.94 M-1059.31,995.27l-3.88-14.23
			l-14.23-3.88l3.88,14.23L-1059.31,995.27z"/>
	</g>
	<g id="Path_4929" transform="translate(1697 303.511) rotate(45)">
		<path class="st11" d="M-1095.08,959.51l-3.88-14.23l-14.23-3.88l3.88,14.23L-1095.08,959.51z"/>
		<path class="st12" d="M-1096.41,958.17l-12.13-3.3l-3.3-12.13l12.13,3.3L-1096.41,958.17 M-1095.08,959.51l-3.88-14.23
			l-14.23-3.88l3.88,14.23L-1095.08,959.51z"/>
	</g>
	<g id="Path_4930" transform="translate(1705.933 291.6) rotate(45)">
		<path class="st11" d="M-1078.02,978.22l-3.88-14.23l-14.23-3.88l3.88,14.23L-1078.02,978.22z"/>
		<path class="st12" d="M-1079.36,976.89l-12.13-3.3l-3.3-12.13l12.13,3.3L-1079.36,976.89 M-1078.02,978.22l-3.88-14.23
			l-14.23-3.88l3.88,14.23L-1078.02,978.22z"/>
	</g>
	<g id="Path_4931" transform="translate(1688.066 291.6) rotate(45)">
		<path class="st11" d="M-1065.31,965.5l-3.88-14.23l-14.23-3.88l3.88,14.23L-1065.31,965.5z"/>
		<path class="st12" d="M-1066.64,964.17l-12.13-3.3l-3.3-12.13l12.13,3.3L-1066.64,964.17 M-1065.31,965.5l-3.88-14.23l-14.23-3.88
			l3.88,14.23L-1065.31,965.5z"/>
	</g>
	<g id="Path_4932" transform="translate(1697 279.689) rotate(45)">
		<path class="st11" d="M-1048.26,984.22l-3.88-14.23l-14.23-3.88l3.88,14.23L-1048.26,984.22z"/>
		<path class="st12" d="M-1049.59,982.88l-12.13-3.3l-3.3-12.13l12.13,3.3L-1049.59,982.88 M-1048.26,984.22l-3.88-14.23
			l-14.23-3.88l3.88,14.23L-1048.26,984.22z"/>
	</g>
	<g id="Path_4933" transform="translate(1697 303.511) rotate(45)">
		<path class="st11" d="M-1084.02,948.45l-3.88-14.23l-14.23-3.88l3.88,14.23L-1084.02,948.45z"/>
		<path class="st12" d="M-1085.36,947.12l-12.13-3.3l-3.3-12.13l12.13,3.3L-1085.36,947.12 M-1084.02,948.45l-3.88-14.23
			l-14.23-3.88l3.88,14.23L-1084.02,948.45z"/>
	</g>
	<g id="Path_4934" transform="translate(1705.933 291.6) rotate(45)">
		<path class="st11" d="M-1066.97,967.17l-3.88-14.23l-14.23-3.88l3.88,14.23L-1066.97,967.17z"/>
		<path class="st12" d="M-1068.31,965.83l-12.13-3.3l-3.3-12.13l12.13,3.3L-1068.31,965.83 M-1066.97,967.17l-3.88-14.23
			l-14.23-3.88l3.88,14.23L-1066.97,967.17z"/>
	</g>
	<g id="Path_4935" transform="translate(1688.066 291.6) rotate(45)">
		<path class="st11" d="M-1054.26,954.45l-3.88-14.23l-14.23-3.88l3.88,14.23L-1054.26,954.45z"/>
		<path class="st12" d="M-1055.59,953.12l-12.13-3.3l-3.3-12.13l12.13,3.3L-1055.59,953.12 M-1054.26,954.45l-3.88-14.23
			l-14.23-3.88l3.88,14.23L-1054.26,954.45z"/>
	</g>
	<g id="Path_4936" transform="translate(1697 279.689) rotate(45)">
		<path class="st11" d="M-1037.2,973.17l-3.88-14.23l-14.23-3.88l3.88,14.23L-1037.2,973.17z"/>
		<path class="st12" d="M-1038.54,971.82l-12.13-3.3l-3.3-12.13l12.13,3.3L-1038.54,971.82 M-1037.2,973.17l-3.88-14.23l-14.23-3.88
			l3.88,14.23L-1037.2,973.17z"/>
	</g>
	<g id="Path_4937" transform="translate(1697 303.511) rotate(45)">
		<path class="st11" d="M-1072.96,937.4l-3.88-14.23l-14.23-3.88l3.88,14.23L-1072.96,937.4z"/>
		<path class="st12" d="M-1074.3,936.06l-12.13-3.3l-3.3-12.13l12.13,3.3L-1074.3,936.06 M-1072.96,937.4l-3.88-14.23l-14.23-3.88
			l3.88,14.23L-1072.96,937.4z"/>
	</g>
	<g id="Path_4947" transform="translate(1688.066 291.6) rotate(45)">
		<path class="st11" d="M-1250.2,1112.27l-3.88-14.23l-14.23-3.88l3.88,14.23L-1250.2,1112.27z"/>
		<path class="st12" d="M-1251.54,1110.94l-12.13-3.3l-3.3-12.13l12.13,3.3L-1251.54,1110.94 M-1250.2,1112.27l-3.88-14.23
			l-14.23-3.88l3.88,14.23L-1250.2,1112.27z"/>
	</g>
	<g id="Path_4948" transform="translate(1697 279.689) rotate(45)">
		<path class="st11" d="M-1233.15,1130.99l-3.88-14.23l-14.23-3.88l3.88,14.23L-1233.15,1130.99z"/>
		<path class="st12" d="M-1234.48,1129.65l-12.13-3.3l-3.3-12.13l12.13,3.3L-1234.48,1129.65 M-1233.15,1130.99l-3.88-14.23
			l-14.23-3.88l3.88,14.23L-1233.15,1130.99z"/>
	</g>
	<g id="Path_4950" transform="translate(1705.933 291.6) rotate(45)">
		<path class="st11" d="M-1251.86,1113.93l-3.88-14.23l-14.23-3.88l3.88,14.23L-1251.86,1113.93z"/>
		<path class="st12" d="M-1253.2,1112.6l-12.13-3.3l-3.3-12.13l12.13,3.3L-1253.2,1112.6 M-1251.86,1113.93l-3.88-14.23l-14.23-3.88
			l3.88,14.23L-1251.86,1113.93z"/>
	</g>
	<g id="Path_4951" transform="translate(1688.066 291.6) rotate(45)">
		<path class="st11" d="M-1239.14,1101.22l-3.88-14.23l-14.23-3.88l3.88,14.23L-1239.14,1101.22z"/>
		<path class="st12" d="M-1240.49,1099.89l-12.13-3.3l-3.3-12.13l12.13,3.3L-1240.49,1099.89 M-1239.14,1101.22l-3.88-14.23
			l-14.23-3.88l3.88,14.23L-1239.14,1101.22z"/>
	</g>
	<g id="Path_4952" transform="translate(1697 279.689) rotate(45)">
		<path class="st11" d="M-1222.09,1119.93l-3.88-14.23l-14.23-3.88l3.88,14.23L-1222.09,1119.93z"/>
		<path class="st12" d="M-1223.43,1118.6l-12.13-3.3l-3.3-12.13l12.13,3.3L-1223.43,1118.6 M-1222.09,1119.93l-3.88-14.23
			l-14.23-3.88l3.88,14.23L-1222.09,1119.93z"/>
	</g>
	<g id="Path_4954" transform="translate(1705.933 291.6) rotate(45)">
		<path class="st11" d="M-1240.81,1102.88l-3.88-14.23l-14.23-3.88l3.88,14.23L-1240.81,1102.88z"/>
		<path class="st12" d="M-1242.14,1101.54l-12.13-3.3l-3.3-12.13l12.13,3.3L-1242.14,1101.54 M-1240.81,1102.88l-3.88-14.23
			l-14.23-3.88l3.88,14.23L-1240.81,1102.88z"/>
	</g>
	<g id="Path_4955" transform="translate(1688.066 291.6) rotate(45)">
		<path class="st11" d="M-1228.09,1090.17l-3.88-14.23l-14.23-3.88l3.88,14.23L-1228.09,1090.17z"/>
		<path class="st12" d="M-1229.42,1088.83l-12.13-3.3l-3.3-12.13l12.13,3.3L-1229.42,1088.83 M-1228.09,1090.17l-3.88-14.23
			l-14.23-3.88l3.88,14.23L-1228.09,1090.17z"/>
	</g>
	<g id="Path_4956" transform="translate(1697 279.689) rotate(45)">
		<path class="st11" d="M-1211.04,1108.88l-3.88-14.23l-14.23-3.88l3.88,14.23L-1211.04,1108.88z"/>
		<path class="st12" d="M-1212.37,1107.54l-12.13-3.3l-3.31-12.13l12.13,3.3L-1212.37,1107.54 M-1211.04,1108.88l-3.88-14.23
			l-14.23-3.88l3.88,14.23L-1211.04,1108.88z"/>
	</g>
	<g id="Path_4958" transform="translate(1705.933 291.6) rotate(45)">
		<path class="st11" d="M-1229.75,1091.83l-3.88-14.23l-14.23-3.88l3.88,14.23L-1229.75,1091.83z"/>
		<path class="st12" d="M-1231.09,1090.48l-12.13-3.3l-3.3-12.13l12.13,3.3L-1231.09,1090.48 M-1229.75,1091.83l-3.88-14.23
			l-14.23-3.88l3.88,14.23L-1229.75,1091.83z"/>
	</g>
	<g id="Path_4959" transform="translate(1688.066 291.6) rotate(45)">
		<path class="st11" d="M-1217.04,1079.11l-3.88-14.23l-14.23-3.88l3.88,14.22L-1217.04,1079.11z"/>
		<path class="st12" d="M-1218.37,1077.77l-12.13-3.3l-3.3-12.13l12.13,3.3L-1218.37,1077.77 M-1217.04,1079.11l-3.88-14.23
			l-14.23-3.88l3.88,14.22L-1217.04,1079.11z"/>
	</g>
	<g id="Path_4960" transform="translate(1697 279.689) rotate(45)">
		<path class="st11" d="M-1199.98,1097.82l-3.88-14.23l-14.23-3.88l3.88,14.23L-1199.98,1097.82z"/>
		<path class="st12" d="M-1201.32,1096.48l-12.13-3.3l-3.3-12.13l12.13,3.3L-1201.32,1096.48 M-1199.98,1097.82l-3.88-14.23
			l-14.23-3.88l3.88,14.23L-1199.98,1097.82z"/>
	</g>
	<g id="Path_4962" transform="translate(1705.933 291.6) rotate(45)">
		<path class="st11" d="M-1218.69,1080.77l-3.88-14.23l-14.23-3.88l3.88,14.23L-1218.69,1080.77z"/>
		<path class="st12" d="M-1220.03,1079.43l-12.13-3.3l-3.3-12.13l12.13,3.3L-1220.03,1079.43 M-1218.69,1080.77l-3.88-14.23
			l-14.23-3.88l3.88,14.23L-1218.69,1080.77z"/>
	</g>
	<g id="Path_4963" transform="translate(1688.066 291.6) rotate(45)">
		<path class="st11" d="M-1205.97,1068.05l-3.88-14.23l-14.23-3.88l3.88,14.23L-1205.97,1068.05z"/>
		<path class="st12" d="M-1207.32,1066.72l-12.13-3.3l-3.3-12.13l12.13,3.3L-1207.32,1066.72 M-1205.97,1068.05l-3.88-14.23
			l-14.23-3.88l3.88,14.23L-1205.97,1068.05z"/>
	</g>
	<g id="Path_4964" transform="translate(1697 279.689) rotate(45)">
		<path class="st11" d="M-1188.93,1086.76l-3.88-14.23l-14.23-3.88l3.88,14.23L-1188.93,1086.76z"/>
		<path class="st12" d="M-1190.27,1085.43l-12.13-3.3l-3.3-12.13l12.13,3.3L-1190.27,1085.43 M-1188.93,1086.76l-3.88-14.23
			l-14.23-3.88l3.88,14.23L-1188.93,1086.76z"/>
	</g>
	<g id="Path_4966" transform="translate(1705.933 291.6) rotate(45)">
		<path class="st11" d="M-1207.64,1069.71l-3.88-14.23l-14.23-3.88l3.88,14.23L-1207.64,1069.71z"/>
		<path class="st12" d="M-1208.97,1068.38l-12.13-3.3l-3.31-12.13l12.13,3.3L-1208.97,1068.38 M-1207.64,1069.71l-3.88-14.23
			l-14.23-3.88l3.88,14.23L-1207.64,1069.71z"/>
	</g>
	<g id="Path_4967" transform="translate(1688.066 291.6) rotate(45)">
		<path class="st11" d="M-1194.92,1057l-3.88-14.23l-14.23-3.88l3.88,14.23L-1194.92,1057z"/>
		<path class="st12" d="M-1196.26,1055.66l-12.13-3.3l-3.3-12.13l12.13,3.3L-1196.26,1055.66 M-1194.92,1057l-3.88-14.23
			l-14.23-3.88l3.88,14.23L-1194.92,1057z"/>
	</g>
	<g id="Path_4968" transform="translate(1697 279.689) rotate(45)">
		<path class="st11" d="M-1177.87,1075.71l-3.88-14.23l-14.23-3.88l3.88,14.23L-1177.87,1075.71z"/>
		<path class="st12" d="M-1179.21,1074.38l-12.13-3.3l-3.31-12.13l12.13,3.3L-1179.21,1074.38 M-1177.87,1075.71l-3.88-14.23
			l-14.23-3.88l3.88,14.23L-1177.87,1075.71z"/>
	</g>
	<g id="Path_4970" transform="translate(1705.933 291.6) rotate(45)">
		<path class="st11" d="M-1196.59,1058.66l-3.88-14.23l-14.23-3.88l3.88,14.23L-1196.59,1058.66z"/>
		<path class="st12" d="M-1197.92,1057.32l-12.13-3.3l-3.3-12.13l12.13,3.3L-1197.92,1057.32 M-1196.59,1058.66l-3.88-14.23
			l-14.23-3.88l3.88,14.23L-1196.59,1058.66z"/>
	</g>
	<g id="Path_4971" transform="translate(1688.066 291.6) rotate(45)">
		<path class="st11" d="M-1183.87,1045.94l-3.88-14.23l-14.23-3.88l3.88,14.23L-1183.87,1045.94z"/>
		<path class="st12" d="M-1185.2,1044.6l-12.13-3.3l-3.3-12.13l12.13,3.3L-1185.2,1044.6 M-1183.87,1045.94l-3.88-14.23l-14.23-3.88
			l3.88,14.23L-1183.87,1045.94z"/>
	</g>
	<g id="Path_4972" transform="translate(1697 279.689) rotate(45)">
		<path class="st11" d="M-1166.82,1064.66l-3.88-14.23l-14.23-3.88l3.88,14.23L-1166.82,1064.66z"/>
		<path class="st12" d="M-1168.15,1063.32l-12.13-3.3l-3.3-12.13l12.13,3.3L-1168.15,1063.32 M-1166.82,1064.66l-3.88-14.23
			l-14.23-3.88l3.88,14.23L-1166.82,1064.66z"/>
	</g>
	<g id="Path_4974" transform="translate(1705.933 291.6) rotate(45)">
		<path class="st11" d="M-1185.52,1047.61l-3.88-14.23l-14.23-3.88l3.88,14.23L-1185.52,1047.61z"/>
		<path class="st12" d="M-1186.87,1046.27l-12.13-3.3l-3.31-12.13l12.13,3.3L-1186.87,1046.27 M-1185.52,1047.61l-3.88-14.23
			l-14.23-3.88l3.88,14.23L-1185.52,1047.61z"/>
	</g>
	<g id="Path_4975" transform="translate(1688.066 291.6) rotate(45)">
		<path class="st11" d="M-1172.81,1034.88l-3.88-14.23l-14.23-3.88l3.88,14.23L-1172.81,1034.88z"/>
		<path class="st12" d="M-1174.15,1033.55l-12.13-3.3l-3.3-12.13l12.13,3.3L-1174.15,1033.55 M-1172.81,1034.88l-3.88-14.23
			l-14.23-3.88l3.88,14.23L-1172.81,1034.88z"/>
	</g>
	<g id="Path_4976" transform="translate(1697 279.689) rotate(45)">
		<path class="st11" d="M-1155.76,1053.61l-3.88-14.23l-14.23-3.88l3.88,14.23L-1155.76,1053.61z"/>
		<path class="st12" d="M-1157.1,1052.26l-12.13-3.3l-3.3-12.13l12.13,3.3L-1157.1,1052.26 M-1155.76,1053.61l-3.88-14.23
			l-14.23-3.88l3.88,14.23L-1155.76,1053.61z"/>
	</g>
	<g id="Path_4978" transform="translate(1705.933 291.6) rotate(45)">
		<path class="st11" d="M-1174.47,1036.55l-3.88-14.23l-14.23-3.88l3.88,14.23L-1174.47,1036.55z"/>
		<path class="st12" d="M-1175.81,1035.21l-12.13-3.3l-3.3-12.13l12.13,3.3L-1175.81,1035.21 M-1174.47,1036.55l-3.88-14.23
			l-14.23-3.88l3.88,14.23L-1174.47,1036.55z"/>
	</g>
	<g id="Path_4979" transform="translate(1688.066 291.6) rotate(45)">
		<path class="st11" d="M-1161.76,1023.83l-3.88-14.23l-14.23-3.88l3.88,14.23L-1161.76,1023.83z"/>
		<path class="st12" d="M-1163.09,1022.5l-12.13-3.3l-3.3-12.13l12.13,3.3L-1163.09,1022.5 M-1161.76,1023.83l-3.88-14.23
			l-14.23-3.88l3.88,14.23L-1161.76,1023.83z"/>
	</g>
	<g id="Path_4980" transform="translate(1697 279.689) rotate(45)">
		<path class="st11" d="M-1144.7,1042.55l-3.88-14.23l-14.23-3.88l3.88,14.23L-1144.7,1042.55z"/>
		<path class="st12" d="M-1146.04,1041.21l-12.13-3.3l-3.3-12.13l12.13,3.3L-1146.04,1041.21 M-1144.7,1042.55l-3.88-14.23
			l-14.23-3.88l3.88,14.23L-1144.7,1042.55z"/>
	</g>
	<g id="Path_4982" transform="translate(1705.933 291.6) rotate(45)">
		<path class="st11" d="M-1163.42,1025.49l-3.88-14.23l-14.23-3.88l3.88,14.23L-1163.42,1025.49z"/>
		<path class="st12" d="M-1164.75,1024.16l-12.13-3.3l-3.3-12.13l12.13,3.3L-1164.75,1024.16 M-1163.42,1025.49l-3.88-14.23
			l-14.23-3.88l3.88,14.23L-1163.42,1025.49z"/>
	</g>
	<g id="Path_4983" transform="translate(1688.066 291.6) rotate(45)">
		<path class="st11" d="M-1150.7,1012.78l-3.88-14.23l-14.23-3.88l3.88,14.23L-1150.7,1012.78z"/>
		<path class="st12" d="M-1152.04,1011.44l-12.13-3.3l-3.3-12.13l12.13,3.3L-1152.04,1011.44 M-1150.7,1012.78l-3.88-14.23
			l-14.23-3.88l3.88,14.23L-1150.7,1012.78z"/>
	</g>
	<g id="Path_4984" transform="translate(1697 279.689) rotate(45)">
		<path class="st11" d="M-1133.65,1031.49l-3.88-14.23l-14.23-3.88l3.88,14.23L-1133.65,1031.49z"/>
		<path class="st12" d="M-1134.98,1030.15l-12.13-3.3l-3.3-12.13l12.13,3.3L-1134.98,1030.15 M-1133.65,1031.49l-3.88-14.23
			l-14.23-3.88l3.88,14.23L-1133.65,1031.49z"/>
	</g>
	<g id="Path_4986" transform="translate(1705.933 291.6) rotate(45)">
		<path class="st11" d="M-1152.36,1014.44l-3.88-14.23l-14.23-3.88l3.88,14.23L-1152.36,1014.44z"/>
		<path class="st12" d="M-1153.7,1013.1l-12.13-3.3l-3.3-12.13l12.13,3.3L-1153.7,1013.1 M-1152.36,1014.44l-3.88-14.23l-14.23-3.88
			l3.88,14.23L-1152.36,1014.44z"/>
	</g>
	<g id="Path_4987" transform="translate(1688.066 291.6) rotate(45)">
		<path class="st11" d="M-1139.65,1001.72l-3.88-14.23l-14.23-3.88l3.88,14.23L-1139.65,1001.72z"/>
		<path class="st12" d="M-1140.98,1000.38l-12.13-3.3l-3.3-12.13l12.13,3.3L-1140.98,1000.38 M-1139.65,1001.72l-3.88-14.23
			l-14.23-3.88l3.88,14.23L-1139.65,1001.72z"/>
	</g>
	<g id="Path_4988" transform="translate(1697 279.689) rotate(45)">
		<path class="st11" d="M-1122.6,1020.44l-3.88-14.23l-14.23-3.88l3.88,14.23L-1122.6,1020.44z"/>
		<path class="st12" d="M-1123.93,1019.1l-12.13-3.3l-3.3-12.13l12.13,3.3L-1123.93,1019.1 M-1122.6,1020.44l-3.88-14.23
			l-14.23-3.88l3.88,14.23L-1122.6,1020.44z"/>
	</g>
	<g id="Path_4990" transform="translate(1705.933 291.6) rotate(45)">
		<path class="st11" d="M-1141.31,1003.38l-3.88-14.23l-14.23-3.88l3.88,14.23L-1141.31,1003.38z"/>
		<path class="st12" d="M-1142.64,1002.04l-12.13-3.3l-3.3-12.13l12.13,3.3L-1142.64,1002.04 M-1141.31,1003.38l-3.88-14.23
			l-14.23-3.88l3.88,14.23L-1141.31,1003.38z"/>
	</g>
	<g id="Path_4991" transform="translate(1688.066 291.6) rotate(45)">
		<path class="st11" d="M-1128.59,990.66l-3.88-14.23l-14.23-3.88l3.88,14.23L-1128.59,990.66z"/>
		<path class="st12" d="M-1129.93,989.33l-12.13-3.3l-3.3-12.13l12.13,3.3L-1129.93,989.33 M-1128.59,990.66l-3.88-14.23
			l-14.23-3.88l3.88,14.23L-1128.59,990.66z"/>
	</g>
	<g id="Path_4992" transform="translate(1697 279.689) rotate(45)">
		<path class="st11" d="M-1111.54,1009.38l-3.88-14.23l-14.23-3.88l3.88,14.23L-1111.54,1009.38z"/>
		<path class="st12" d="M-1112.88,1008.04l-12.13-3.3l-3.3-12.13l12.13,3.3L-1112.88,1008.04 M-1111.54,1009.38l-3.88-14.23
			l-14.23-3.88l3.88,14.23L-1111.54,1009.38z"/>
	</g>
	<g id="Path_4994" transform="translate(1705.933 291.6) rotate(45)">
		<path class="st11" d="M-1130.25,992.32l-3.88-14.23l-14.23-3.88l3.88,14.23L-1130.25,992.32z"/>
		<path class="st12" d="M-1131.59,990.99l-12.13-3.3l-3.3-12.13l12.13,3.3L-1131.59,990.99 M-1130.25,992.32l-3.88-14.23
			l-14.23-3.88l3.88,14.23L-1130.25,992.32z"/>
	</g>
	<g id="Path_4995" transform="translate(1688.066 291.6) rotate(45)">
		<path class="st11" d="M-1117.53,979.61l-3.88-14.23l-14.23-3.88l3.88,14.23L-1117.53,979.61z"/>
		<path class="st12" d="M-1118.88,978.27l-12.13-3.3l-3.3-12.13l12.13,3.3L-1118.88,978.27 M-1117.53,979.61l-3.88-14.23
			l-14.23-3.88l3.88,14.23L-1117.53,979.61z"/>
	</g>
	<g id="Path_4996" transform="translate(1697 279.689) rotate(45)">
		<path class="st11" d="M-1100.48,998.32l-3.88-14.23l-14.23-3.88l3.88,14.23L-1100.48,998.32z"/>
		<path class="st12" d="M-1101.82,996.99l-12.13-3.3l-3.3-12.13l12.13,3.3L-1101.82,996.99 M-1100.48,998.32l-3.88-14.23
			l-14.23-3.88l3.88,14.23L-1100.48,998.32z"/>
	</g>
	<g id="Path_4998" transform="translate(1705.933 291.6) rotate(45)">
		<path class="st11" d="M-1119.2,981.27l-3.88-14.23l-14.23-3.88l3.88,14.23L-1119.2,981.27z"/>
		<path class="st12" d="M-1120.53,979.94l-12.13-3.3l-3.3-12.13l12.13,3.3L-1120.53,979.94 M-1119.2,981.27l-3.88-14.23l-14.23-3.88
			l3.88,14.23L-1119.2,981.27z"/>
	</g>
	<g id="Path_4999" transform="translate(1688.066 291.6) rotate(45)">
		<path class="st11" d="M-1106.48,968.56l-3.88-14.23l-14.23-3.88l3.88,14.23L-1106.48,968.56z"/>
		<path class="st12" d="M-1107.81,967.21l-12.13-3.3l-3.31-12.13l12.13,3.3L-1107.81,967.21 M-1106.48,968.56l-3.88-14.23
			l-14.23-3.88l3.88,14.23L-1106.48,968.56z"/>
	</g>
	<g id="Path_5000" transform="translate(1697 279.689) rotate(45)">
		<path class="st11" d="M-1089.43,987.27l-3.88-14.23l-14.23-3.88l3.88,14.23L-1089.43,987.27z"/>
		<path class="st12" d="M-1090.76,985.94l-12.13-3.3l-3.3-12.13l12.13,3.3L-1090.76,985.94 M-1089.43,987.27l-3.88-14.23
			l-14.23-3.88l3.88,14.23L-1089.43,987.27z"/>
	</g>
	<g id="Path_5002" transform="translate(1705.933 291.6) rotate(45)">
		<path class="st11" d="M-1108.14,970.22l-3.88-14.23l-14.23-3.88l3.88,14.23L-1108.14,970.22z"/>
		<path class="st12" d="M-1109.48,968.88l-12.13-3.3l-3.3-12.13l12.13,3.3L-1109.48,968.88 M-1108.14,970.22l-3.88-14.23
			l-14.23-3.88l3.88,14.23L-1108.14,970.22z"/>
	</g>
	<g id="Path_5003" transform="translate(1688.066 291.6) rotate(45)">
		<path class="st11" d="M-1095.43,957.5l-3.88-14.23l-14.23-3.88l3.88,14.23L-1095.43,957.5z"/>
		<path class="st12" d="M-1096.76,956.16l-12.13-3.3l-3.31-12.13l12.13,3.3L-1096.76,956.16 M-1095.43,957.5l-3.88-14.23
			l-14.23-3.88l3.88,14.23L-1095.43,957.5z"/>
	</g>
	<g id="Path_5004" transform="translate(1697 279.689) rotate(45)">
		<path class="st11" d="M-1078.37,976.21l-3.88-14.23l-14.23-3.88l3.88,14.23L-1078.37,976.21z"/>
		<path class="st12" d="M-1079.71,974.88l-12.13-3.3l-3.3-12.13l12.13,3.3L-1079.71,974.88 M-1078.37,976.21l-3.88-14.23
			l-14.23-3.88l3.88,14.23L-1078.37,976.21z"/>
	</g>
	<g id="Path_5006" transform="translate(1705.933 291.6) rotate(45)">
		<path class="st11" d="M-1097.08,959.16l-3.88-14.23l-14.23-3.88l3.88,14.23L-1097.08,959.16z"/>
		<path class="st12" d="M-1098.43,957.82l-12.13-3.3l-3.3-12.13l12.13,3.3L-1098.43,957.82 M-1097.08,959.16l-3.88-14.23
			l-14.23-3.88l3.88,14.23L-1097.08,959.16z"/>
	</g>
	<g id="Path_5007" transform="translate(1688.066 291.6) rotate(45)">
		<path class="st11" d="M-1084.37,946.44l-3.88-14.23l-14.23-3.88l3.88,14.23L-1084.37,946.44z"/>
		<path class="st12" d="M-1085.71,945.11l-12.13-3.3l-3.3-12.13l12.13,3.3L-1085.71,945.11 M-1084.37,946.44l-3.88-14.23
			l-14.23-3.88l3.88,14.23L-1084.37,946.44z"/>
	</g>
	<g id="Path_5008" transform="translate(1697 279.689) rotate(45)">
		<path class="st11" d="M-1067.32,965.16l-3.88-14.23l-14.23-3.88l3.88,14.23L-1067.32,965.16z"/>
		<path class="st12" d="M-1068.66,963.82l-12.13-3.3l-3.3-12.13l12.13,3.3L-1068.66,963.82 M-1067.32,965.16l-3.88-14.23
			l-14.23-3.88l3.88,14.23L-1067.32,965.16z"/>
	</g>
	<g id="Path_5010" transform="translate(1705.933 291.6) rotate(45)">
		<path class="st11" d="M-1086.03,948.1l-3.88-14.23l-14.23-3.88l3.88,14.23L-1086.03,948.1z"/>
		<path class="st12" d="M-1087.36,946.77l-12.13-3.3l-3.3-12.13l12.13,3.3L-1087.36,946.77 M-1086.03,948.1l-3.88-14.23l-14.23-3.88
			l3.88,14.23L-1086.03,948.1z"/>
	</g>
	<g id="Path_5011" transform="translate(1688.066 291.6) rotate(45)">
		<path class="st11" d="M-1073.31,935.39l-3.88-14.23l-14.23-3.88l3.88,14.23L-1073.31,935.39z"/>
		<path class="st12" d="M-1074.65,934.06l-12.13-3.3l-3.3-12.13l12.13,3.3L-1074.65,934.06 M-1073.31,935.39l-3.88-14.23
			l-14.23-3.88l3.88,14.23L-1073.31,935.39z"/>
	</g>
	<g id="Path_5012" transform="translate(1697 279.689) rotate(45)">
		<path class="st11" d="M-1056.26,954.1l-3.88-14.23l-14.23-3.88l3.88,14.23L-1056.26,954.1z"/>
		<path class="st12" d="M-1057.6,952.77l-12.13-3.3l-3.3-12.13l12.13,3.3L-1057.6,952.77 M-1056.26,954.1l-3.88-14.23l-14.23-3.88
			l3.88,14.23L-1056.26,954.1z"/>
	</g>
</g>
<g class="st10">
	<g id="Path_4797_1_" transform="translate(1697 303.511) rotate(45)">
		<path class="st11" d="M-1317.07,1047.06l-3.88-14.23l-14.23-3.88l3.88,14.23L-1317.07,1047.06z"/>
		<path class="st12" d="M-1318.41,1045.73l-12.13-3.3l-3.3-12.13l12.13,3.3L-1318.41,1045.73 M-1317.07,1047.06l-3.88-14.23
			l-14.23-3.88l3.88,14.23L-1317.07,1047.06z"/>
	</g>
	<g id="Path_4801_1_" transform="translate(1697 303.511) rotate(45)">
		<path class="st11" d="M-1306.02,1036.01l-3.88-14.23l-14.23-3.88l3.88,14.23L-1306.02,1036.01z"/>
		<path class="st12" d="M-1307.35,1034.67l-12.13-3.3l-3.3-12.13l12.13,3.3L-1307.35,1034.67 M-1306.02,1036.01l-3.88-14.23
			l-14.23-3.88l3.88,14.23L-1306.02,1036.01z"/>
	</g>
	<g id="Path_4805_1_" transform="translate(1697 303.511) rotate(45)">
		<path class="st11" d="M-1294.96,1024.95l-3.88-14.23l-14.23-3.88l3.88,14.23L-1294.96,1024.95z"/>
		<path class="st12" d="M-1296.3,1023.61l-12.13-3.3l-3.3-12.13l12.13,3.3L-1296.3,1023.61 M-1294.96,1024.95l-3.88-14.23
			l-14.23-3.88l3.88,14.23L-1294.96,1024.95z"/>
	</g>
	<g id="Path_4809_1_" transform="translate(1697 303.511) rotate(45)">
		<path class="st11" d="M-1283.91,1013.89l-3.88-14.23l-14.23-3.88l3.88,14.23L-1283.91,1013.89z"/>
		<path class="st12" d="M-1285.24,1012.56l-12.13-3.3l-3.3-12.13l12.13,3.3L-1285.24,1012.56 M-1283.91,1013.89l-3.88-14.23
			l-14.23-3.88l3.88,14.23L-1283.91,1013.89z"/>
	</g>
	<g id="Path_4813_1_" transform="translate(1697 303.511) rotate(45)">
		<path class="st11" d="M-1272.85,1002.84l-3.88-14.23l-14.23-3.88l3.88,14.23L-1272.85,1002.84z"/>
		<path class="st12" d="M-1274.19,1001.51l-12.13-3.3l-3.3-12.13l12.13,3.3L-1274.19,1001.51 M-1272.85,1002.84l-3.88-14.23
			l-14.23-3.88l3.88,14.23L-1272.85,1002.84z"/>
	</g>
	<g id="Path_4817_1_" transform="translate(1697 303.511) rotate(45)">
		<path class="st11" d="M-1261.8,991.79l-3.88-14.23l-14.23-3.88l3.88,14.23L-1261.8,991.79z"/>
		<path class="st12" d="M-1263.14,990.45l-12.13-3.3l-3.3-12.13l12.13,3.3L-1263.14,990.45 M-1261.8,991.79l-3.88-14.23l-14.23-3.88
			l3.88,14.23L-1261.8,991.79z"/>
	</g>
	<g id="Path_4821_1_" transform="translate(1697 303.511) rotate(45)">
		<path class="st11" d="M-1250.74,980.73l-3.88-14.23l-14.23-3.88l3.88,14.23L-1250.74,980.73z"/>
		<path class="st12" d="M-1252.08,979.39l-12.13-3.3l-3.3-12.13l12.13,3.3L-1252.08,979.39 M-1250.74,980.73l-3.88-14.23
			l-14.23-3.88l3.88,14.23L-1250.74,980.73z"/>
	</g>
	<g id="Path_4825_1_" transform="translate(1697 303.511) rotate(45)">
		<path class="st11" d="M-1239.69,969.67l-3.88-14.23l-14.23-3.88l3.88,14.23L-1239.69,969.67z"/>
		<path class="st12" d="M-1241.02,968.34l-12.13-3.3l-3.3-12.13l12.13,3.3L-1241.02,968.34 M-1239.69,969.67l-3.88-14.23
			l-14.23-3.88l3.88,14.23L-1239.69,969.67z"/>
	</g>
	<g id="Path_4829_1_" transform="translate(1697 303.511) rotate(45)">
		<path class="st11" d="M-1228.63,958.62l-3.88-14.23l-14.23-3.88l3.88,14.23L-1228.63,958.62z"/>
		<path class="st12" d="M-1229.97,957.28l-12.13-3.3l-3.3-12.13l12.13,3.3L-1229.97,957.28 M-1228.63,958.62l-3.88-14.23
			l-14.23-3.88l3.88,14.23L-1228.63,958.62z"/>
	</g>
	<g id="Path_4833_1_" transform="translate(1697 303.511) rotate(45)">
		<path class="st11" d="M-1217.57,947.57l-3.88-14.23l-14.23-3.88l3.88,14.23L-1217.57,947.57z"/>
		<path class="st12" d="M-1218.91,946.22l-12.13-3.3l-3.3-12.13l12.13,3.3L-1218.91,946.22 M-1217.57,947.57l-3.88-14.23
			l-14.23-3.88l3.88,14.23L-1217.57,947.57z"/>
	</g>
	<g id="Path_4837_1_" transform="translate(1697 303.511) rotate(45)">
		<path class="st11" d="M-1206.52,936.51l-3.88-14.23l-14.23-3.88l3.88,14.23L-1206.52,936.51z"/>
		<path class="st12" d="M-1207.85,935.17l-12.13-3.3l-3.3-12.13l12.13,3.3L-1207.85,935.17 M-1206.52,936.51l-3.88-14.23
			l-14.23-3.88l3.88,14.23L-1206.52,936.51z"/>
	</g>
	<g id="Path_4841_1_" transform="translate(1697 303.511) rotate(45)">
		<path class="st11" d="M-1195.47,925.45l-3.88-14.23l-14.23-3.88l3.88,14.23L-1195.47,925.45z"/>
		<path class="st12" d="M-1196.8,924.12l-12.13-3.3l-3.3-12.13l12.13,3.3L-1196.8,924.12 M-1195.47,925.45l-3.88-14.23l-14.23-3.88
			l3.88,14.23L-1195.47,925.45z"/>
	</g>
	<g id="Path_4845_1_" transform="translate(1697 303.511) rotate(45)">
		<path class="st11" d="M-1184.41,914.4l-3.88-14.23l-14.23-3.88l3.88,14.23L-1184.41,914.4z"/>
		<path class="st12" d="M-1185.75,913.06l-12.13-3.3l-3.3-12.13l12.13,3.3L-1185.75,913.06 M-1184.41,914.4l-3.88-14.23l-14.23-3.88
			l3.88,14.23L-1184.41,914.4z"/>
	</g>
	<g id="Path_4849_1_" transform="translate(1697 303.511) rotate(45)">
		<path class="st11" d="M-1173.35,903.35l-3.88-14.23l-14.23-3.88l3.88,14.23L-1173.35,903.35z"/>
		<path class="st12" d="M-1174.69,902.01l-12.13-3.3l-3.3-12.13l12.13,3.3L-1174.69,902.01 M-1173.35,903.35l-3.88-14.23
			l-14.23-3.88l3.88,14.23L-1173.35,903.35z"/>
	</g>
	<g id="Path_4853_1_" transform="translate(1697 303.511) rotate(45)">
		<path class="st11" d="M-1162.3,892.29l-3.88-14.23l-14.23-3.88l3.88,14.23L-1162.3,892.29z"/>
		<path class="st12" d="M-1163.63,890.95l-12.13-3.3l-3.3-12.13l12.13,3.3L-1163.63,890.95 M-1162.3,892.29l-3.88-14.23l-14.23-3.88
			l3.88,14.23L-1162.3,892.29z"/>
	</g>
	<g id="Path_4857_1_" transform="translate(1697 303.511) rotate(45)">
		<path class="st11" d="M-1151.24,881.23l-3.88-14.23l-14.23-3.88l3.88,14.23L-1151.24,881.23z"/>
		<path class="st12" d="M-1152.58,879.9l-12.13-3.3l-3.3-12.13l12.13,3.3L-1152.58,879.9 M-1151.24,881.23l-3.88-14.23l-14.23-3.88
			l3.88,14.23L-1151.24,881.23z"/>
	</g>
	<g id="Path_4861_1_" transform="translate(1697 303.511) rotate(45)">
		<path class="st11" d="M-1140.19,870.18l-3.88-14.23l-14.23-3.88l3.88,14.23L-1140.19,870.18z"/>
		<path class="st12" d="M-1141.53,868.84l-12.13-3.3l-3.3-12.13l12.13,3.3L-1141.53,868.84 M-1140.19,870.18l-3.88-14.23
			l-14.23-3.88l3.88,14.23L-1140.19,870.18z"/>
	</g>
	<g id="Path_4871_1_" transform="translate(1688.066 291.6) rotate(45)">
		<path class="st11" d="M-1317.42,1045.05l-3.88-14.23l-14.23-3.88l3.88,14.23L-1317.42,1045.05z"/>
		<path class="st12" d="M-1318.76,1043.72l-12.13-3.3l-3.3-12.13l12.13,3.3L-1318.76,1043.72 M-1317.42,1045.05l-3.88-14.23
			l-14.23-3.88l3.88,14.23L-1317.42,1045.05z"/>
	</g>
	<g id="Path_4872_1_" transform="translate(1697 279.689) rotate(45)">
		<path class="st11" d="M-1300.37,1063.77l-3.88-14.23l-14.23-3.88l3.88,14.23L-1300.37,1063.77z"/>
		<path class="st12" d="M-1301.71,1062.43l-12.13-3.3l-3.3-12.13l12.13,3.3L-1301.71,1062.43 M-1300.37,1063.77l-3.88-14.23
			l-14.23-3.88l3.88,14.23L-1300.37,1063.77z"/>
	</g>
	<g id="Path_4873_1_" transform="translate(1697 303.511) rotate(45)">
		<path class="st11" d="M-1336.13,1028.01l-3.88-14.23l-14.23-3.88l3.88,14.23L-1336.13,1028.01z"/>
		<path class="st12" d="M-1337.47,1026.66l-12.13-3.3l-3.3-12.13l12.13,3.3L-1337.47,1026.66 M-1336.13,1028.01l-3.88-14.23
			l-14.23-3.88l3.88,14.23L-1336.13,1028.01z"/>
	</g>
	<g id="Path_4874_1_" transform="translate(1705.933 291.6) rotate(45)">
		<path class="st11" d="M-1319.08,1046.71l-3.88-14.23l-14.23-3.88l3.88,14.23L-1319.08,1046.71z"/>
		<path class="st12" d="M-1320.42,1045.38l-12.13-3.3l-3.3-12.13l12.13,3.3L-1320.42,1045.38 M-1319.08,1046.71l-3.88-14.23
			l-14.23-3.88l3.88,14.23L-1319.08,1046.71z"/>
	</g>
	<g id="Path_4875_1_" transform="translate(1688.066 291.6) rotate(45)">
		<path class="st11" d="M-1306.37,1034l-3.88-14.23l-14.23-3.88l3.88,14.23L-1306.37,1034z"/>
		<path class="st12" d="M-1307.7,1032.66l-12.13-3.3l-3.3-12.13l12.13,3.3L-1307.7,1032.66 M-1306.37,1034l-3.88-14.23l-14.23-3.88
			l3.88,14.23L-1306.37,1034z"/>
	</g>
	<g id="Path_4876_1_" transform="translate(1697 279.689) rotate(45)">
		<path class="st11" d="M-1289.31,1052.71l-3.88-14.23l-14.23-3.88l3.88,14.23L-1289.31,1052.71z"/>
		<path class="st12" d="M-1290.66,1051.37l-12.13-3.3l-3.3-12.13l12.13,3.3L-1290.66,1051.37 M-1289.31,1052.71l-3.88-14.23
			l-14.23-3.88l3.88,14.23L-1289.31,1052.71z"/>
	</g>
	<g id="Path_4877_1_" transform="translate(1697 303.511) rotate(45)">
		<path class="st11" d="M-1325.08,1016.95l-3.88-14.23l-14.23-3.88l3.88,14.23L-1325.08,1016.95z"/>
		<path class="st12" d="M-1326.42,1015.61l-12.13-3.3l-3.3-12.13l12.13,3.3L-1326.42,1015.61 M-1325.08,1016.95l-3.88-14.23
			l-14.23-3.88l3.88,14.23L-1325.08,1016.95z"/>
	</g>
	<g id="Path_4878_1_" transform="translate(1705.933 291.6) rotate(45)">
		<path class="st11" d="M-1308.03,1035.66l-3.88-14.23l-14.23-3.88l3.88,14.23L-1308.03,1035.66z"/>
		<path class="st12" d="M-1309.36,1034.32l-12.13-3.3l-3.3-12.13l12.13,3.3L-1309.36,1034.32 M-1308.03,1035.66l-3.88-14.23
			l-14.23-3.88l3.88,14.23L-1308.03,1035.66z"/>
	</g>
	<g id="Path_4879_1_" transform="translate(1688.066 291.6) rotate(45)">
		<path class="st11" d="M-1295.31,1022.94l-3.88-14.23l-14.23-3.88l3.88,14.23L-1295.31,1022.94z"/>
		<path class="st12" d="M-1296.65,1021.6l-12.13-3.3l-3.3-12.13l12.13,3.3L-1296.65,1021.6 M-1295.31,1022.94l-3.88-14.23
			l-14.23-3.88l3.88,14.23L-1295.31,1022.94z"/>
	</g>
	<g id="Path_4880_1_" transform="translate(1697 279.689) rotate(45)">
		<path class="st11" d="M-1278.26,1041.66l-3.88-14.23l-14.23-3.88l3.88,14.23L-1278.26,1041.66z"/>
		<path class="st12" d="M-1279.59,1040.32l-12.13-3.3l-3.3-12.13l12.13,3.3L-1279.59,1040.32 M-1278.26,1041.66l-3.88-14.23
			l-14.23-3.88l3.88,14.23L-1278.26,1041.66z"/>
	</g>
	<g id="Path_4881_1_" transform="translate(1697 303.511) rotate(45)">
		<path class="st11" d="M-1314.02,1005.89l-3.88-14.23l-14.23-3.88l3.88,14.23L-1314.02,1005.89z"/>
		<path class="st12" d="M-1315.36,1004.55l-12.13-3.3l-3.3-12.13l12.13,3.3L-1315.36,1004.55 M-1314.02,1005.89l-3.88-14.23
			l-14.23-3.88l3.88,14.23L-1314.02,1005.89z"/>
	</g>
	<g id="Path_4882_1_" transform="translate(1705.933 291.6) rotate(45)">
		<path class="st11" d="M-1296.97,1024.6l-3.88-14.23l-14.23-3.88l3.88,14.23L-1296.97,1024.6z"/>
		<path class="st12" d="M-1298.31,1023.27l-12.13-3.3l-3.3-12.13l12.13,3.3L-1298.31,1023.27 M-1296.97,1024.6l-3.88-14.23
			l-14.23-3.88l3.88,14.23L-1296.97,1024.6z"/>
	</g>
	<g id="Path_4883_1_" transform="translate(1688.066 291.6) rotate(45)">
		<path class="st11" d="M-1284.26,1011.88l-3.88-14.23l-14.23-3.88l3.88,14.23L-1284.26,1011.88z"/>
		<path class="st12" d="M-1285.59,1010.55l-12.13-3.3l-3.3-12.13l12.13,3.3L-1285.59,1010.55 M-1284.26,1011.88l-3.88-14.23
			l-14.23-3.88l3.88,14.23L-1284.26,1011.88z"/>
	</g>
	<g id="Path_4884_1_" transform="translate(1697 279.689) rotate(45)">
		<path class="st11" d="M-1267.21,1030.6l-3.88-14.23l-14.23-3.88l3.88,14.23L-1267.21,1030.6z"/>
		<path class="st12" d="M-1268.54,1029.26l-12.13-3.3l-3.3-12.13l12.13,3.3L-1268.54,1029.26 M-1267.21,1030.6l-3.88-14.23
			l-14.23-3.88l3.88,14.23L-1267.21,1030.6z"/>
	</g>
	<g id="Path_4885_1_" transform="translate(1697 303.511) rotate(45)">
		<path class="st11" d="M-1302.97,994.84l-3.88-14.23l-14.23-3.88l3.88,14.23L-1302.97,994.84z"/>
		<path class="st12" d="M-1304.31,993.5l-12.13-3.3l-3.3-12.13l12.13,3.3L-1304.31,993.5 M-1302.97,994.84l-3.88-14.23l-14.23-3.88
			l3.88,14.23L-1302.97,994.84z"/>
	</g>
	<g id="Path_4886_1_" transform="translate(1705.933 291.6) rotate(45)">
		<path class="st11" d="M-1285.91,1013.55l-3.88-14.23l-14.23-3.88l3.88,14.23L-1285.91,1013.55z"/>
		<path class="st12" d="M-1287.25,1012.21l-12.13-3.3l-3.3-12.13l12.13,3.3L-1287.25,1012.21 M-1285.91,1013.55l-3.88-14.23
			l-14.23-3.88l3.88,14.23L-1285.91,1013.55z"/>
	</g>
	<g id="Path_4887_1_" transform="translate(1688.066 291.6) rotate(45)">
		<path class="st11" d="M-1273.2,1000.83l-3.88-14.23l-14.23-3.88l3.88,14.23L-1273.2,1000.83z"/>
		<path class="st12" d="M-1274.54,999.49l-12.13-3.3l-3.3-12.13l12.13,3.3L-1274.54,999.49 M-1273.2,1000.83l-3.88-14.23
			l-14.23-3.88l3.88,14.23L-1273.2,1000.83z"/>
	</g>
	<g id="Path_4888_1_" transform="translate(1697 279.689) rotate(45)">
		<path class="st11" d="M-1256.14,1019.54l-3.88-14.23l-14.23-3.88l3.88,14.23L-1256.14,1019.54z"/>
		<path class="st12" d="M-1257.49,1018.21l-12.13-3.3l-3.3-12.13l12.13,3.3L-1257.49,1018.21 M-1256.14,1019.54l-3.88-14.23
			l-14.23-3.88l3.88,14.23L-1256.14,1019.54z"/>
	</g>
	<g id="Path_4889_1_" transform="translate(1697 303.511) rotate(45)">
		<path class="st11" d="M-1291.92,983.78l-3.88-14.23l-14.23-3.88l3.88,14.23L-1291.92,983.78z"/>
		<path class="st12" d="M-1293.25,982.44l-12.13-3.3l-3.31-12.13l12.13,3.3L-1293.25,982.44 M-1291.92,983.78l-3.88-14.23
			l-14.23-3.88l3.88,14.23L-1291.92,983.78z"/>
	</g>
	<g id="Path_4890_1_" transform="translate(1705.933 291.6) rotate(45)">
		<path class="st11" d="M-1274.86,1002.49l-3.88-14.23l-14.23-3.88l3.88,14.23L-1274.86,1002.49z"/>
		<path class="st12" d="M-1276.2,1001.16l-12.13-3.3l-3.3-12.13l12.13,3.3L-1276.2,1001.16 M-1274.86,1002.49l-3.88-14.23
			l-14.23-3.88l3.88,14.23L-1274.86,1002.49z"/>
	</g>
	<g id="Path_4891_1_" transform="translate(1688.066 291.6) rotate(45)">
		<path class="st11" d="M-1262.15,989.78l-3.88-14.23l-14.23-3.88l3.88,14.23L-1262.15,989.78z"/>
		<path class="st12" d="M-1263.48,988.43l-12.13-3.3l-3.3-12.13l12.13,3.3L-1263.48,988.43 M-1262.15,989.78l-3.88-14.23
			l-14.23-3.88l3.88,14.23L-1262.15,989.78z"/>
	</g>
	<g id="Path_4892_1_" transform="translate(1697 279.689) rotate(45)">
		<path class="st11" d="M-1245.09,1008.49l-3.88-14.22l-14.23-3.88l3.88,14.23L-1245.09,1008.49z"/>
		<path class="st12" d="M-1246.43,1007.16l-12.13-3.3l-3.3-12.13l12.13,3.3L-1246.43,1007.16 M-1245.09,1008.49l-3.88-14.22
			l-14.23-3.88l3.88,14.23L-1245.09,1008.49z"/>
	</g>
	<g id="Path_4893_1_" transform="translate(1697 303.511) rotate(45)">
		<path class="st11" d="M-1280.86,972.72l-3.88-14.23l-14.23-3.88l3.88,14.23L-1280.86,972.72z"/>
		<path class="st12" d="M-1282.19,971.39l-12.13-3.3l-3.3-12.13l12.13,3.3L-1282.19,971.39 M-1280.86,972.72l-3.88-14.23
			l-14.23-3.88l3.88,14.23L-1280.86,972.72z"/>
	</g>
	<g id="Path_4894_1_" transform="translate(1705.933 291.6) rotate(45)">
		<path class="st11" d="M-1263.81,991.44l-3.88-14.23l-14.23-3.88l3.88,14.23L-1263.81,991.44z"/>
		<path class="st12" d="M-1265.14,990.1l-12.13-3.3l-3.3-12.13l12.13,3.3L-1265.14,990.1 M-1263.81,991.44l-3.88-14.23l-14.23-3.88
			l3.88,14.23L-1263.81,991.44z"/>
	</g>
	<g id="Path_4895_1_" transform="translate(1688.066 291.6) rotate(45)">
		<path class="st11" d="M-1251.09,978.72l-3.88-14.23l-14.23-3.88l3.88,14.23L-1251.09,978.72z"/>
		<path class="st12" d="M-1252.43,977.38l-12.13-3.3l-3.3-12.13l12.13,3.3L-1252.43,977.38 M-1251.09,978.72l-3.88-14.23
			l-14.23-3.88l3.88,14.23L-1251.09,978.72z"/>
	</g>
	<g id="Path_4896_1_" transform="translate(1697 279.689) rotate(45)">
		<path class="st11" d="M-1234.04,997.44l-3.88-14.23l-14.23-3.88l3.88,14.23L-1234.04,997.44z"/>
		<path class="st12" d="M-1235.37,996.1l-12.13-3.3l-3.3-12.13l12.13,3.3L-1235.37,996.1 M-1234.04,997.44l-3.88-14.23l-14.23-3.88
			l3.88,14.23L-1234.04,997.44z"/>
	</g>
	<g id="Path_4897_1_" transform="translate(1697 303.511) rotate(45)">
		<path class="st11" d="M-1269.81,961.67l-3.88-14.23l-14.23-3.88l3.89,14.22L-1269.81,961.67z"/>
		<path class="st12" d="M-1271.14,960.34l-12.13-3.3l-3.3-12.13l12.13,3.3L-1271.14,960.34 M-1269.81,961.67l-3.88-14.23
			l-14.23-3.88l3.89,14.22L-1269.81,961.67z"/>
	</g>
	<g id="Path_4898_1_" transform="translate(1705.933 291.6) rotate(45)">
		<path class="st11" d="M-1252.75,980.38l-3.88-14.23l-14.23-3.88l3.88,14.23L-1252.75,980.38z"/>
		<path class="st12" d="M-1254.09,979.04l-12.13-3.3l-3.3-12.13l12.13,3.3L-1254.09,979.04 M-1252.75,980.38l-3.88-14.23
			l-14.23-3.88l3.88,14.23L-1252.75,980.38z"/>
	</g>
	<g id="Path_4899_1_" transform="translate(1688.066 291.6) rotate(45)">
		<path class="st11" d="M-1240.04,967.66l-3.88-14.23l-14.23-3.88l3.88,14.23L-1240.04,967.66z"/>
		<path class="st12" d="M-1241.37,966.33l-12.13-3.3l-3.3-12.13l12.13,3.3L-1241.37,966.33 M-1240.04,967.66l-3.88-14.23
			l-14.23-3.88l3.88,14.23L-1240.04,967.66z"/>
	</g>
	<g id="Path_4900_1_" transform="translate(1697 279.689) rotate(45)">
		<path class="st11" d="M-1222.98,986.38l-3.88-14.23l-14.23-3.88l3.88,14.23L-1222.98,986.38z"/>
		<path class="st12" d="M-1224.32,985.04l-12.13-3.3l-3.31-12.13l12.13,3.3L-1224.32,985.04 M-1222.98,986.38l-3.88-14.23
			l-14.23-3.88l3.88,14.23L-1222.98,986.38z"/>
	</g>
	<g id="Path_4901_1_" transform="translate(1697 303.511) rotate(45)">
		<path class="st11" d="M-1258.74,950.62l-3.88-14.23l-14.23-3.88l3.88,14.23L-1258.74,950.62z"/>
		<path class="st12" d="M-1260.09,949.28l-12.13-3.3l-3.3-12.13l12.13,3.3L-1260.09,949.28 M-1258.74,950.62l-3.88-14.23
			l-14.23-3.88l3.88,14.23L-1258.74,950.62z"/>
	</g>
	<g id="Path_4902_1_" transform="translate(1705.933 291.6) rotate(45)">
		<path class="st11" d="M-1241.69,969.32l-3.88-14.23l-14.23-3.88l3.88,14.23L-1241.69,969.32z"/>
		<path class="st12" d="M-1243.03,967.99l-12.13-3.3l-3.3-12.13l12.13,3.3L-1243.03,967.99 M-1241.69,969.32l-3.88-14.23
			l-14.23-3.88l3.88,14.23L-1241.69,969.32z"/>
	</g>
	<g id="Path_4903_1_" transform="translate(1688.066 291.6) rotate(45)">
		<path class="st11" d="M-1228.98,956.61l-3.88-14.23l-14.23-3.88l3.88,14.23L-1228.98,956.61z"/>
		<path class="st12" d="M-1230.32,955.27l-12.13-3.3l-3.3-12.13l12.13,3.3L-1230.32,955.27 M-1228.98,956.61l-3.88-14.23
			l-14.23-3.88l3.88,14.23L-1228.98,956.61z"/>
	</g>
	<g id="Path_4904_1_" transform="translate(1697 279.689) rotate(45)">
		<path class="st11" d="M-1211.93,975.32l-3.88-14.23l-14.23-3.88l3.88,14.23L-1211.93,975.32z"/>
		<path class="st12" d="M-1213.26,973.99l-12.13-3.3l-3.3-12.13l12.13,3.3L-1213.26,973.99 M-1211.93,975.32l-3.88-14.23
			l-14.23-3.88l3.88,14.23L-1211.93,975.32z"/>
	</g>
	<g id="Path_4905_1_" transform="translate(1697 303.511) rotate(45)">
		<path class="st11" d="M-1247.7,939.56l-3.88-14.23l-14.23-3.88l3.88,14.23L-1247.7,939.56z"/>
		<path class="st12" d="M-1249.02,938.22l-12.13-3.3l-3.3-12.13l12.13,3.3L-1249.02,938.22 M-1247.7,939.56l-3.88-14.23l-14.23-3.88
			l3.88,14.23L-1247.7,939.56z"/>
	</g>
	<g id="Path_4906_1_" transform="translate(1705.933 291.6) rotate(45)">
		<path class="st11" d="M-1230.64,958.27l-3.88-14.23l-14.23-3.88l3.88,14.23L-1230.64,958.27z"/>
		<path class="st12" d="M-1231.97,956.93l-12.13-3.3l-3.3-12.13l12.13,3.3L-1231.97,956.93 M-1230.64,958.27l-3.88-14.23
			l-14.23-3.88l3.88,14.23L-1230.64,958.27z"/>
	</g>
	<g id="Path_4907_1_" transform="translate(1688.066 291.6) rotate(45)">
		<path class="st11" d="M-1217.92,945.56l-3.88-14.23l-14.23-3.88l3.88,14.23L-1217.92,945.56z"/>
		<path class="st12" d="M-1219.26,944.22l-12.13-3.3l-3.3-12.13l12.13,3.3L-1219.26,944.22 M-1217.92,945.56l-3.88-14.23
			l-14.23-3.88l3.88,14.23L-1217.92,945.56z"/>
	</g>
	<g id="Path_4908_1_" transform="translate(1697 279.689) rotate(45)">
		<path class="st11" d="M-1200.87,964.27l-3.88-14.23l-14.23-3.88l3.88,14.23L-1200.87,964.27z"/>
		<path class="st12" d="M-1202.21,962.93l-12.13-3.3l-3.3-12.13l12.13,3.3L-1202.21,962.93 M-1200.87,964.27l-3.88-14.23
			l-14.23-3.88l3.88,14.23L-1200.87,964.27z"/>
	</g>
	<g id="Path_4909_1_" transform="translate(1697 303.511) rotate(45)">
		<path class="st11" d="M-1236.64,928.5l-3.88-14.23l-14.23-3.88l3.88,14.23L-1236.64,928.5z"/>
		<path class="st12" d="M-1237.97,927.17l-12.13-3.3l-3.3-12.13l12.13,3.3L-1237.97,927.17 M-1236.64,928.5l-3.88-14.23l-14.23-3.88
			l3.88,14.23L-1236.64,928.5z"/>
	</g>
	<g id="Path_4910_1_" transform="translate(1705.933 291.6) rotate(45)">
		<path class="st11" d="M-1219.59,947.22l-3.88-14.23l-14.23-3.88l3.88,14.23L-1219.59,947.22z"/>
		<path class="st12" d="M-1220.92,945.87l-12.13-3.3l-3.3-12.13l12.13,3.3L-1220.92,945.87 M-1219.59,947.22l-3.88-14.23
			l-14.23-3.88l3.88,14.23L-1219.59,947.22z"/>
	</g>
	<g id="Path_4911_1_" transform="translate(1688.066 291.6) rotate(45)">
		<path class="st11" d="M-1206.87,934.5l-3.88-14.23l-14.23-3.88l3.88,14.23L-1206.87,934.5z"/>
		<path class="st12" d="M-1208.2,933.17l-12.13-3.3l-3.3-12.13l12.13,3.3L-1208.2,933.17 M-1206.87,934.5l-3.88-14.23l-14.23-3.88
			l3.88,14.23L-1206.87,934.5z"/>
	</g>
	<g id="Path_4912_1_" transform="translate(1697 279.689) rotate(45)">
		<path class="st11" d="M-1189.82,953.21l-3.88-14.23l-14.23-3.88l3.88,14.23L-1189.82,953.21z"/>
		<path class="st12" d="M-1191.15,951.87l-12.13-3.3l-3.3-12.13l12.13,3.3L-1191.15,951.87 M-1189.82,953.21l-3.88-14.23
			l-14.23-3.88l3.88,14.23L-1189.82,953.21z"/>
	</g>
	<g id="Path_4913_1_" transform="translate(1697 303.511) rotate(45)">
		<path class="st11" d="M-1225.58,917.44l-3.88-14.23l-14.23-3.88l3.88,14.23L-1225.58,917.44z"/>
		<path class="st12" d="M-1226.92,916.11l-12.13-3.3l-3.3-12.13l12.13,3.3L-1226.92,916.11 M-1225.58,917.44l-3.88-14.23
			l-14.23-3.88l3.88,14.23L-1225.58,917.44z"/>
	</g>
	<g id="Path_4914_1_" transform="translate(1705.933 291.6) rotate(45)">
		<path class="st11" d="M-1208.53,936.16l-3.88-14.23l-14.23-3.88l3.88,14.23L-1208.53,936.16z"/>
		<path class="st12" d="M-1209.87,934.82l-12.13-3.3l-3.3-12.13l12.13,3.3L-1209.87,934.82 M-1208.53,936.16l-3.88-14.23
			l-14.23-3.88l3.88,14.23L-1208.53,936.16z"/>
	</g>
	<g id="Path_4915_1_" transform="translate(1688.066 291.6) rotate(45)">
		<path class="st11" d="M-1195.82,923.44l-3.88-14.23l-14.23-3.88l3.88,14.23L-1195.82,923.44z"/>
		<path class="st12" d="M-1197.15,922.11l-12.13-3.3l-3.3-12.13l12.13,3.3L-1197.15,922.11 M-1195.82,923.44l-3.88-14.23
			l-14.23-3.88l3.88,14.23L-1195.82,923.44z"/>
	</g>
	<g id="Path_4916_1_" transform="translate(1697 279.689) rotate(45)">
		<path class="st11" d="M-1178.76,942.15l-3.88-14.23l-14.23-3.88l3.88,14.23L-1178.76,942.15z"/>
		<path class="st12" d="M-1180.1,940.82l-12.13-3.3l-3.3-12.13l12.13,3.3L-1180.1,940.82 M-1178.76,942.15l-3.88-14.23l-14.23-3.88
			l3.88,14.23L-1178.76,942.15z"/>
	</g>
	<g id="Path_4917_1_" transform="translate(1697 303.511) rotate(45)">
		<path class="st11" d="M-1214.52,906.39l-3.88-14.23l-14.23-3.88l3.88,14.23L-1214.52,906.39z"/>
		<path class="st12" d="M-1215.86,905.05l-12.13-3.3l-3.3-12.13l12.13,3.3L-1215.86,905.05 M-1214.52,906.39l-3.88-14.23
			l-14.23-3.88l3.88,14.23L-1214.52,906.39z"/>
	</g>
	<g id="Path_4918_1_" transform="translate(1705.933 291.6) rotate(45)">
		<path class="st11" d="M-1197.47,925.11l-3.88-14.23l-14.23-3.88l3.88,14.23L-1197.47,925.11z"/>
		<path class="st12" d="M-1198.81,923.77l-12.13-3.3l-3.3-12.13l12.13,3.3L-1198.81,923.77 M-1197.47,925.11l-3.88-14.23
			l-14.23-3.88l3.88,14.23L-1197.47,925.11z"/>
	</g>
	<g id="Path_4919_1_" transform="translate(1688.066 291.6) rotate(45)">
		<path class="st11" d="M-1184.76,912.39l-3.88-14.23l-14.23-3.88l3.88,14.23L-1184.76,912.39z"/>
		<path class="st12" d="M-1186.1,911.05l-12.13-3.3l-3.3-12.13l12.13,3.3L-1186.1,911.05 M-1184.76,912.39l-3.88-14.23l-14.23-3.88
			l3.88,14.23L-1184.76,912.39z"/>
	</g>
	<g id="Path_4920_1_" transform="translate(1697 279.689) rotate(45)">
		<path class="st11" d="M-1167.7,931.1l-3.88-14.23l-14.23-3.88l3.88,14.23L-1167.7,931.1z"/>
		<path class="st12" d="M-1169.05,929.77l-12.13-3.3l-3.3-12.13l12.13,3.3L-1169.05,929.77 M-1167.7,931.1l-3.88-14.23l-14.23-3.88
			l3.88,14.23L-1167.7,931.1z"/>
	</g>
	<g id="Path_4921_1_" transform="translate(1697 303.511) rotate(45)">
		<path class="st11" d="M-1203.47,895.33l-3.88-14.23l-14.23-3.88l3.88,14.23L-1203.47,895.33z"/>
		<path class="st12" d="M-1204.81,894l-12.13-3.3l-3.3-12.13l12.13,3.3L-1204.81,894 M-1203.47,895.33l-3.88-14.23l-14.23-3.88
			l3.88,14.23L-1203.47,895.33z"/>
	</g>
	<g id="Path_4922_1_" transform="translate(1705.933 291.6) rotate(45)">
		<path class="st11" d="M-1186.42,914.05l-3.88-14.23l-14.23-3.88l3.88,14.23L-1186.42,914.05z"/>
		<path class="st12" d="M-1187.75,912.71l-12.13-3.3l-3.3-12.13l12.13,3.3L-1187.75,912.71 M-1186.42,914.05l-3.88-14.23
			l-14.23-3.88l3.88,14.23L-1186.42,914.05z"/>
	</g>
	<g id="Path_4923_1_" transform="translate(1688.066 291.6) rotate(45)">
		<path class="st11" d="M-1173.7,901.33l-3.88-14.23l-14.23-3.88l3.88,14.23L-1173.7,901.33z"/>
		<path class="st12" d="M-1175.04,899.99l-12.13-3.3l-3.3-12.13l12.13,3.3L-1175.04,899.99 M-1173.7,901.33l-3.88-14.23l-14.23-3.88
			l3.88,14.23L-1173.7,901.33z"/>
	</g>
	<g id="Path_4924_1_" transform="translate(1697 279.689) rotate(45)">
		<path class="st11" d="M-1156.65,920.05l-3.88-14.23l-14.23-3.88l3.88,14.23L-1156.65,920.05z"/>
		<path class="st12" d="M-1157.98,918.71l-12.13-3.3l-3.3-12.13l12.13,3.3L-1157.98,918.71 M-1156.65,920.05l-3.88-14.23
			l-14.23-3.88l3.88,14.23L-1156.65,920.05z"/>
	</g>
	<g id="Path_4925_1_" transform="translate(1697 303.511) rotate(45)">
		<path class="st11" d="M-1192.41,884.28l-3.88-14.23l-14.23-3.88l3.88,14.23L-1192.41,884.28z"/>
		<path class="st12" d="M-1193.75,882.95l-12.13-3.3l-3.3-12.13l12.13,3.3L-1193.75,882.95 M-1192.41,884.28l-3.88-14.23
			l-14.23-3.88l3.88,14.23L-1192.41,884.28z"/>
	</g>
	<g id="Path_4926_1_" transform="translate(1705.933 291.6) rotate(45)">
		<path class="st11" d="M-1175.36,903l-3.88-14.23l-14.23-3.88l3.88,14.23L-1175.36,903z"/>
		<path class="st12" d="M-1176.7,901.66l-12.13-3.3l-3.3-12.13l12.13,3.3L-1176.7,901.66 M-1175.36,903l-3.88-14.23l-14.23-3.88
			l3.88,14.23L-1175.36,903z"/>
	</g>
	<g id="Path_4927_1_" transform="translate(1688.066 291.6) rotate(45)">
		<path class="st11" d="M-1162.65,890.27l-3.88-14.23l-14.23-3.88l3.88,14.23L-1162.65,890.27z"/>
		<path class="st12" d="M-1163.98,888.95l-12.13-3.3l-3.3-12.13l12.13,3.3L-1163.98,888.95 M-1162.65,890.27l-3.88-14.23
			l-14.23-3.88l3.88,14.23L-1162.65,890.27z"/>
	</g>
	<g id="Path_4928_1_" transform="translate(1697 279.689) rotate(45)">
		<path class="st11" d="M-1145.6,908.99l-3.88-14.23l-14.23-3.88l3.88,14.23L-1145.6,908.99z"/>
		<path class="st12" d="M-1146.93,907.65l-12.13-3.3l-3.3-12.13l12.13,3.3L-1146.93,907.65 M-1145.6,908.99l-3.88-14.23l-14.23-3.88
			l3.88,14.23L-1145.6,908.99z"/>
	</g>
	<g id="Path_4929_1_" transform="translate(1697 303.511) rotate(45)">
		<path class="st11" d="M-1181.36,873.22l-3.88-14.23l-14.23-3.88l3.88,14.23L-1181.36,873.22z"/>
		<path class="st12" d="M-1182.7,871.89l-12.13-3.3l-3.3-12.13l12.13,3.3L-1182.7,871.89 M-1181.36,873.22l-3.88-14.23l-14.23-3.88
			l3.88,14.23L-1181.36,873.22z"/>
	</g>
	<g id="Path_4930_1_" transform="translate(1705.933 291.6) rotate(45)">
		<path class="st11" d="M-1164.3,891.94l-3.88-14.23l-14.23-3.88l3.88,14.23L-1164.3,891.94z"/>
		<path class="st12" d="M-1165.64,890.6l-12.13-3.3l-3.3-12.13l12.13,3.3L-1165.64,890.6 M-1164.3,891.94l-3.88-14.23l-14.23-3.88
			l3.88,14.23L-1164.3,891.94z"/>
	</g>
	<g id="Path_4931_1_" transform="translate(1688.066 291.6) rotate(45)">
		<path class="st11" d="M-1151.59,879.22l-3.88-14.23l-14.23-3.88l3.88,14.23L-1151.59,879.22z"/>
		<path class="st12" d="M-1152.93,877.89l-12.13-3.3l-3.3-12.13l12.13,3.3L-1152.93,877.89 M-1151.59,879.22l-3.88-14.23
			l-14.23-3.88l3.88,14.23L-1151.59,879.22z"/>
	</g>
	<g id="Path_4932_1_" transform="translate(1697 279.689) rotate(45)">
		<path class="st11" d="M-1134.54,897.94l-3.88-14.23l-14.23-3.88l3.88,14.23L-1134.54,897.94z"/>
		<path class="st12" d="M-1135.88,896.6l-12.13-3.3l-3.3-12.13l12.13,3.3L-1135.88,896.6 M-1134.54,897.94l-3.88-14.23l-14.23-3.88
			l3.88,14.23L-1134.54,897.94z"/>
	</g>
	<g id="Path_4933_1_" transform="translate(1697 303.511) rotate(45)">
		<path class="st11" d="M-1170.3,862.17l-3.88-14.23l-14.23-3.88l3.88,14.23L-1170.3,862.17z"/>
		<path class="st12" d="M-1171.64,860.83l-12.13-3.3l-3.3-12.13l12.13,3.3L-1171.64,860.83 M-1170.3,862.17l-3.88-14.23l-14.23-3.88
			l3.88,14.23L-1170.3,862.17z"/>
	</g>
	<g id="Path_4934_1_" transform="translate(1705.933 291.6) rotate(45)">
		<path class="st11" d="M-1153.25,880.88l-3.88-14.23l-14.23-3.88l3.88,14.23L-1153.25,880.88z"/>
		<path class="st12" d="M-1154.59,879.55l-12.13-3.3l-3.3-12.13l12.13,3.3L-1154.59,879.55 M-1153.25,880.88l-3.88-14.23
			l-14.23-3.88l3.88,14.23L-1153.25,880.88z"/>
	</g>
	<g id="Path_4935_1_" transform="translate(1688.066 291.6) rotate(45)">
		<path class="st11" d="M-1140.54,868.17l-3.88-14.23l-14.23-3.88l3.88,14.23L-1140.54,868.17z"/>
		<path class="st12" d="M-1141.87,866.83l-12.13-3.3l-3.3-12.13l12.13,3.3L-1141.87,866.83 M-1140.54,868.17l-3.88-14.23
			l-14.23-3.88l3.88,14.23L-1140.54,868.17z"/>
	</g>
	<g id="Path_4936_1_" transform="translate(1697 279.689) rotate(45)">
		<path class="st11" d="M-1123.48,886.88l-3.88-14.23l-14.23-3.88l3.88,14.23L-1123.48,886.88z"/>
		<path class="st12" d="M-1124.82,885.54l-12.13-3.3l-3.3-12.13l12.13,3.3L-1124.82,885.54 M-1123.48,886.88l-3.88-14.23
			l-14.23-3.88l3.88,14.23L-1123.48,886.88z"/>
	</g>
	<g id="Path_4937_1_" transform="translate(1697 303.511) rotate(45)">
		<path class="st11" d="M-1159.25,851.12l-3.88-14.23l-14.23-3.88l3.88,14.23L-1159.25,851.12z"/>
		<path class="st12" d="M-1160.58,849.78l-12.13-3.3l-3.3-12.13l12.13,3.3L-1160.58,849.78 M-1159.25,851.12l-3.88-14.23
			l-14.23-3.88l3.88,14.23L-1159.25,851.12z"/>
	</g>
	<g id="Path_4947_1_" transform="translate(1688.066 291.6) rotate(45)">
		<path class="st11" d="M-1336.48,1025.99l-3.88-14.23l-14.23-3.88l3.88,14.23L-1336.48,1025.99z"/>
		<path class="st12" d="M-1337.82,1024.65l-12.13-3.3l-3.31-12.13l12.13,3.3L-1337.82,1024.65 M-1336.48,1025.99l-3.88-14.23
			l-14.23-3.88l3.88,14.23L-1336.48,1025.99z"/>
	</g>
	<g id="Path_4948_1_" transform="translate(1697 279.689) rotate(45)">
		<path class="st11" d="M-1319.43,1044.71l-3.88-14.23l-14.23-3.88l3.88,14.23L-1319.43,1044.71z"/>
		<path class="st12" d="M-1320.76,1043.37l-12.13-3.3l-3.3-12.13l12.13,3.3L-1320.76,1043.37 M-1319.43,1044.71l-3.88-14.23
			l-14.23-3.88l3.88,14.23L-1319.43,1044.71z"/>
	</g>
	<g id="Path_4950_1_" transform="translate(1705.933 291.6) rotate(45)">
		<path class="st11" d="M-1338.14,1027.65l-3.88-14.23l-14.23-3.88l3.88,14.23L-1338.14,1027.65z"/>
		<path class="st12" d="M-1339.48,1026.31l-12.13-3.3l-3.3-12.13l12.13,3.3L-1339.48,1026.31 M-1338.14,1027.65l-3.88-14.23
			l-14.23-3.88l3.88,14.23L-1338.14,1027.65z"/>
	</g>
	<g id="Path_4951_1_" transform="translate(1688.066 291.6) rotate(45)">
		<path class="st11" d="M-1325.43,1014.93l-3.88-14.23l-14.23-3.88l3.88,14.23L-1325.43,1014.93z"/>
		<path class="st12" d="M-1326.77,1013.6l-12.13-3.3l-3.3-12.13l12.13,3.3L-1326.77,1013.6 M-1325.43,1014.93l-3.88-14.23
			l-14.23-3.88l3.88,14.23L-1325.43,1014.93z"/>
	</g>
	<g id="Path_4952_1_" transform="translate(1697 279.689) rotate(45)">
		<path class="st11" d="M-1308.38,1033.65l-3.88-14.23l-14.23-3.88l3.88,14.23L-1308.38,1033.65z"/>
		<path class="st12" d="M-1309.71,1032.31l-12.13-3.3l-3.3-12.13l12.13,3.3L-1309.71,1032.31 M-1308.38,1033.65l-3.88-14.23
			l-14.23-3.88l3.88,14.23L-1308.38,1033.65z"/>
	</g>
	<g id="Path_4954_1_" transform="translate(1705.933 291.6) rotate(45)">
		<path class="st11" d="M-1327.09,1016.6l-3.88-14.23l-14.23-3.88l3.88,14.23L-1327.09,1016.6z"/>
		<path class="st12" d="M-1328.42,1015.26l-12.13-3.3l-3.3-12.13l12.13,3.3L-1328.42,1015.26 M-1327.09,1016.6l-3.88-14.23
			l-14.23-3.88l3.88,14.23L-1327.09,1016.6z"/>
	</g>
	<g id="Path_4955_1_" transform="translate(1688.066 291.6) rotate(45)">
		<path class="st11" d="M-1314.37,1003.88l-3.88-14.23l-14.23-3.88l3.88,14.23L-1314.37,1003.88z"/>
		<path class="st12" d="M-1315.71,1002.55l-12.13-3.3l-3.3-12.13l12.13,3.3L-1315.71,1002.55 M-1314.37,1003.88l-3.88-14.23
			l-14.23-3.88l3.88,14.23L-1314.37,1003.88z"/>
	</g>
	<g id="Path_4956_1_" transform="translate(1697 279.689) rotate(45)">
		<path class="st11" d="M-1297.32,1022.59l-3.88-14.23l-14.23-3.88l3.88,14.23L-1297.32,1022.59z"/>
		<path class="st12" d="M-1298.66,1021.26l-12.13-3.3l-3.31-12.13l12.13,3.3L-1298.66,1021.26 M-1297.32,1022.59l-3.88-14.23
			l-14.23-3.88l3.88,14.23L-1297.32,1022.59z"/>
	</g>
	<g id="Path_4958_1_" transform="translate(1705.933 291.6) rotate(45)">
		<path class="st11" d="M-1316.03,1005.54l-3.88-14.23l-14.23-3.88l3.88,14.23L-1316.03,1005.54z"/>
		<path class="st12" d="M-1317.37,1004.2l-12.13-3.3l-3.3-12.13l12.13,3.3L-1317.37,1004.2 M-1316.03,1005.54l-3.88-14.23
			l-14.23-3.88l3.88,14.23L-1316.03,1005.54z"/>
	</g>
	<g id="Path_4959_1_" transform="translate(1688.066 291.6) rotate(45)">
		<path class="st11" d="M-1303.32,992.83l-3.88-14.23l-14.23-3.88l3.88,14.22L-1303.32,992.83z"/>
		<path class="st12" d="M-1304.66,991.49l-12.13-3.3l-3.3-12.13l12.13,3.3L-1304.66,991.49 M-1303.32,992.83l-3.88-14.23
			l-14.23-3.88l3.88,14.22L-1303.32,992.83z"/>
	</g>
	<g id="Path_4960_1_" transform="translate(1697 279.689) rotate(45)">
		<path class="st11" d="M-1286.26,1011.53l-3.88-14.23l-14.23-3.88l3.88,14.23L-1286.26,1011.53z"/>
		<path class="st12" d="M-1287.6,1010.2l-12.13-3.3l-3.3-12.13l12.13,3.3L-1287.6,1010.2 M-1286.26,1011.53l-3.88-14.23l-14.23-3.88
			l3.88,14.23L-1286.26,1011.53z"/>
	</g>
	<g id="Path_4962_1_" transform="translate(1705.933 291.6) rotate(45)">
		<path class="st11" d="M-1304.98,994.49l-3.88-14.23l-14.23-3.88l3.88,14.23L-1304.98,994.49z"/>
		<path class="st12" d="M-1306.31,993.15l-12.13-3.3l-3.31-12.13l12.13,3.3L-1306.31,993.15 M-1304.98,994.49l-3.88-14.23
			l-14.23-3.88l3.88,14.23L-1304.98,994.49z"/>
	</g>
	<g id="Path_4963_1_" transform="translate(1688.066 291.6) rotate(45)">
		<path class="st11" d="M-1292.26,981.77l-3.88-14.23l-14.23-3.88l3.88,14.23L-1292.26,981.77z"/>
		<path class="st12" d="M-1293.6,980.43l-12.13-3.3l-3.3-12.13l12.13,3.3L-1293.6,980.43 M-1292.26,981.77l-3.88-14.23l-14.23-3.88
			l3.88,14.23L-1292.26,981.77z"/>
	</g>
	<g id="Path_4964_1_" transform="translate(1697 279.689) rotate(45)">
		<path class="st11" d="M-1275.21,1000.48l-3.88-14.23l-14.23-3.88l3.88,14.23L-1275.21,1000.48z"/>
		<path class="st12" d="M-1276.55,999.14l-12.13-3.3l-3.3-12.13l12.13,3.3L-1276.55,999.14 M-1275.21,1000.48l-3.88-14.23
			l-14.23-3.88l3.88,14.23L-1275.21,1000.48z"/>
	</g>
	<g id="Path_4966_1_" transform="translate(1705.933 291.6) rotate(45)">
		<path class="st11" d="M-1293.92,983.43l-3.88-14.23l-14.23-3.88l3.88,14.23L-1293.92,983.43z"/>
		<path class="st12" d="M-1295.26,982.09l-12.13-3.3l-3.31-12.13l12.13,3.3L-1295.26,982.09 M-1293.92,983.43l-3.88-14.23
			l-14.23-3.88l3.88,14.23L-1293.92,983.43z"/>
	</g>
	<g id="Path_4967_1_" transform="translate(1688.066 291.6) rotate(45)">
		<path class="st11" d="M-1281.21,970.71l-3.88-14.23l-14.23-3.88l3.88,14.23L-1281.21,970.71z"/>
		<path class="st12" d="M-1282.54,969.38l-12.13-3.3l-3.3-12.13l12.13,3.3L-1282.54,969.38 M-1281.21,970.71l-3.88-14.23
			l-14.23-3.88l3.88,14.23L-1281.21,970.71z"/>
	</g>
	<g id="Path_4968_1_" transform="translate(1697 279.689) rotate(45)">
		<path class="st11" d="M-1264.15,989.43l-3.88-14.23l-14.23-3.88l3.88,14.23L-1264.15,989.43z"/>
		<path class="st12" d="M-1265.49,988.09l-12.13-3.3l-3.3-12.13l12.13,3.3L-1265.49,988.09 M-1264.15,989.43l-3.88-14.23
			l-14.23-3.88l3.88,14.23L-1264.15,989.43z"/>
	</g>
	<g id="Path_4970_1_" transform="translate(1705.933 291.6) rotate(45)">
		<path class="st11" d="M-1282.87,972.38l-3.88-14.23l-14.23-3.88l3.88,14.23L-1282.87,972.38z"/>
		<path class="st12" d="M-1284.21,971.04l-12.13-3.3l-3.3-12.13l12.13,3.3L-1284.21,971.04 M-1282.87,972.38l-3.88-14.23
			l-14.23-3.88l3.88,14.23L-1282.87,972.38z"/>
	</g>
	<g id="Path_4971_1_" transform="translate(1688.066 291.6) rotate(45)">
		<path class="st11" d="M-1270.15,959.66l-3.88-14.23l-14.23-3.88l3.88,14.23L-1270.15,959.66z"/>
		<path class="st12" d="M-1271.49,958.32l-12.13-3.3l-3.3-12.13l12.13,3.3L-1271.49,958.32 M-1270.15,959.66l-3.88-14.23
			l-14.23-3.88l3.88,14.23L-1270.15,959.66z"/>
	</g>
	<g id="Path_4972_1_" transform="translate(1697 279.689) rotate(45)">
		<path class="st11" d="M-1253.1,978.37l-3.88-14.23l-14.23-3.88l3.88,14.23L-1253.1,978.37z"/>
		<path class="st12" d="M-1254.44,977.04l-12.13-3.3l-3.3-12.13l12.13,3.3L-1254.44,977.04 M-1253.1,978.37l-3.88-14.23l-14.23-3.88
			l3.88,14.23L-1253.1,978.37z"/>
	</g>
	<g id="Path_4974_1_" transform="translate(1705.933 291.6) rotate(45)">
		<path class="st11" d="M-1271.81,961.32l-3.88-14.23l-14.23-3.88l3.88,14.23L-1271.81,961.32z"/>
		<path class="st12" d="M-1273.15,959.99l-12.13-3.3l-3.3-12.13l12.13,3.3L-1273.15,959.99 M-1271.81,961.32l-3.88-14.23
			l-14.23-3.88l3.88,14.23L-1271.81,961.32z"/>
	</g>
	<g id="Path_4975_1_" transform="translate(1688.066 291.6) rotate(45)">
		<path class="st11" d="M-1259.09,948.6l-3.88-14.23l-14.23-3.88l3.88,14.23L-1259.09,948.6z"/>
		<path class="st12" d="M-1260.43,947.26l-12.13-3.3l-3.3-12.13l12.13,3.3L-1260.43,947.26 M-1259.09,948.6l-3.88-14.23l-14.23-3.88
			l3.88,14.23L-1259.09,948.6z"/>
	</g>
	<g id="Path_4976_1_" transform="translate(1697 279.689) rotate(45)">
		<path class="st11" d="M-1242.04,967.32l-3.88-14.23l-14.23-3.88l3.88,14.23L-1242.04,967.32z"/>
		<path class="st12" d="M-1243.38,965.98l-12.13-3.3l-3.3-12.13l12.13,3.3L-1243.38,965.98 M-1242.04,967.32l-3.88-14.23
			l-14.23-3.88l3.88,14.23L-1242.04,967.32z"/>
	</g>
	<g id="Path_4978_1_" transform="translate(1705.933 291.6) rotate(45)">
		<path class="st11" d="M-1260.76,950.27l-3.88-14.23l-14.23-3.88l3.88,14.23L-1260.76,950.27z"/>
		<path class="st12" d="M-1262.09,948.93l-12.13-3.3l-3.3-12.13l12.13,3.3L-1262.09,948.93 M-1260.76,950.27l-3.88-14.23
			l-14.23-3.88l3.88,14.23L-1260.76,950.27z"/>
	</g>
	<g id="Path_4979_1_" transform="translate(1688.066 291.6) rotate(45)">
		<path class="st11" d="M-1248.04,937.54l-3.88-14.23l-14.23-3.88l3.88,14.23L-1248.04,937.54z"/>
		<path class="st12" d="M-1249.37,936.21l-12.13-3.3l-3.3-12.13l12.13,3.3L-1249.37,936.21 M-1248.04,937.54l-3.88-14.23
			l-14.23-3.88l3.88,14.23L-1248.04,937.54z"/>
	</g>
	<g id="Path_4980_1_" transform="translate(1697 279.689) rotate(45)">
		<path class="st11" d="M-1230.99,956.27l-3.88-14.23l-14.23-3.88l3.88,14.23L-1230.99,956.27z"/>
		<path class="st12" d="M-1232.32,954.92l-12.13-3.3l-3.3-12.13l12.13,3.3L-1232.32,954.92 M-1230.99,956.27l-3.88-14.23
			l-14.23-3.88l3.88,14.23L-1230.99,956.27z"/>
	</g>
	<g id="Path_4982_1_" transform="translate(1705.933 291.6) rotate(45)">
		<path class="st11" d="M-1249.7,939.21l-3.88-14.23l-14.23-3.88l3.88,14.23L-1249.7,939.21z"/>
		<path class="st12" d="M-1251.04,937.87l-12.13-3.3l-3.3-12.13l12.13,3.3L-1251.04,937.87 M-1249.7,939.21l-3.88-14.23l-14.23-3.88
			l3.88,14.23L-1249.7,939.21z"/>
	</g>
	<g id="Path_4983_1_" transform="translate(1688.066 291.6) rotate(45)">
		<path class="st11" d="M-1236.99,926.49l-3.88-14.23l-14.23-3.88l3.88,14.23L-1236.99,926.49z"/>
		<path class="st12" d="M-1238.32,925.16l-12.13-3.3l-3.3-12.13l12.13,3.3L-1238.32,925.16 M-1236.99,926.49l-3.88-14.23
			l-14.23-3.88l3.88,14.23L-1236.99,926.49z"/>
	</g>
	<g id="Path_4984_1_" transform="translate(1697 279.689) rotate(45)">
		<path class="st11" d="M-1219.93,945.21l-3.88-14.23l-14.23-3.88l3.88,14.23L-1219.93,945.21z"/>
		<path class="st12" d="M-1221.27,943.87l-12.13-3.3l-3.3-12.13l12.13,3.3L-1221.27,943.87 M-1219.93,945.21l-3.88-14.23
			l-14.23-3.88l3.88,14.23L-1219.93,945.21z"/>
	</g>
	<g id="Path_4986_1_" transform="translate(1705.933 291.6) rotate(45)">
		<path class="st11" d="M-1238.64,928.15l-3.88-14.23l-14.23-3.88l3.88,14.23L-1238.64,928.15z"/>
		<path class="st12" d="M-1239.98,926.82l-12.13-3.3l-3.3-12.13l12.13,3.3L-1239.98,926.82 M-1238.64,928.15l-3.88-14.23
			l-14.23-3.88l3.88,14.23L-1238.64,928.15z"/>
	</g>
	<g id="Path_4987_1_" transform="translate(1688.066 291.6) rotate(45)">
		<path class="st11" d="M-1225.93,915.44l-3.88-14.23l-14.23-3.88l3.88,14.23L-1225.93,915.44z"/>
		<path class="st12" d="M-1227.27,914.1l-12.13-3.3l-3.3-12.13l12.13,3.3L-1227.27,914.1 M-1225.93,915.44l-3.88-14.23l-14.23-3.88
			l3.88,14.23L-1225.93,915.44z"/>
	</g>
	<g id="Path_4988_1_" transform="translate(1697 279.689) rotate(45)">
		<path class="st11" d="M-1208.88,934.15l-3.88-14.23l-14.23-3.88l3.88,14.23L-1208.88,934.15z"/>
		<path class="st12" d="M-1210.22,932.82l-12.13-3.3l-3.3-12.13l12.13,3.3L-1210.22,932.82 M-1208.88,934.15l-3.88-14.23
			l-14.23-3.88l3.88,14.23L-1208.88,934.15z"/>
	</g>
	<g id="Path_4990_1_" transform="translate(1705.933 291.6) rotate(45)">
		<path class="st11" d="M-1227.6,917.1l-3.88-14.23l-14.23-3.88l3.88,14.23L-1227.6,917.1z"/>
		<path class="st12" d="M-1228.92,915.76l-12.13-3.3l-3.3-12.13l12.13,3.3L-1228.92,915.76 M-1227.6,917.1l-3.88-14.23l-14.23-3.88
			l3.88,14.23L-1227.6,917.1z"/>
	</g>
	<g id="Path_4991_1_" transform="translate(1688.066 291.6) rotate(45)">
		<path class="st11" d="M-1214.87,904.38l-3.88-14.23l-14.23-3.88l3.88,14.23L-1214.87,904.38z"/>
		<path class="st12" d="M-1216.21,903.04l-12.13-3.3l-3.3-12.13l12.13,3.3L-1216.21,903.04 M-1214.87,904.38l-3.88-14.23
			l-14.23-3.88l3.88,14.23L-1214.87,904.38z"/>
	</g>
	<g id="Path_4992_1_" transform="translate(1697 279.689) rotate(45)">
		<path class="st11" d="M-1197.82,923.1l-3.88-14.23l-14.23-3.88l3.88,14.23L-1197.82,923.1z"/>
		<path class="st12" d="M-1199.16,921.76l-12.13-3.3l-3.3-12.13l12.13,3.3L-1199.16,921.76 M-1197.82,923.1l-3.88-14.23l-14.23-3.88
			l3.88,14.23L-1197.82,923.1z"/>
	</g>
	<g id="Path_4994_1_" transform="translate(1705.933 291.6) rotate(45)">
		<path class="st11" d="M-1216.54,906.04l-3.88-14.23l-14.23-3.88l3.88,14.23L-1216.54,906.04z"/>
		<path class="st12" d="M-1217.87,904.71l-12.13-3.3l-3.3-12.13l12.13,3.3L-1217.87,904.71 M-1216.54,906.04l-3.88-14.23
			l-14.23-3.88l3.88,14.23L-1216.54,906.04z"/>
	</g>
	<g id="Path_4995_1_" transform="translate(1688.066 291.6) rotate(45)">
		<path class="st11" d="M-1203.82,893.33l-3.88-14.23l-14.23-3.88l3.88,14.23L-1203.82,893.33z"/>
		<path class="st12" d="M-1205.16,891.99l-12.13-3.3l-3.3-12.13l12.13,3.3L-1205.16,891.99 M-1203.82,893.33l-3.88-14.23
			l-14.23-3.88l3.88,14.23L-1203.82,893.33z"/>
	</g>
	<g id="Path_4996_1_" transform="translate(1697 279.689) rotate(45)">
		<path class="st11" d="M-1186.77,912.04l-3.88-14.23l-14.23-3.88l3.88,14.23L-1186.77,912.04z"/>
		<path class="st12" d="M-1188.1,910.7l-12.13-3.3l-3.3-12.13l12.13,3.3L-1188.1,910.7 M-1186.77,912.04l-3.88-14.23l-14.23-3.88
			l3.88,14.23L-1186.77,912.04z"/>
	</g>
	<g id="Path_4998_1_" transform="translate(1705.933 291.6) rotate(45)">
		<path class="st11" d="M-1205.48,894.98l-3.88-14.23l-14.23-3.88l3.88,14.23L-1205.48,894.98z"/>
		<path class="st12" d="M-1206.82,893.65l-12.13-3.3l-3.3-12.13l12.13,3.3L-1206.82,893.65 M-1205.48,894.98l-3.88-14.23
			l-14.23-3.88l3.88,14.23L-1205.48,894.98z"/>
	</g>
	<g id="Path_4999_1_" transform="translate(1688.066 291.6) rotate(45)">
		<path class="st11" d="M-1192.76,882.27l-3.88-14.23l-14.23-3.88l3.88,14.23L-1192.76,882.27z"/>
		<path class="st12" d="M-1194.1,880.93l-12.13-3.3l-3.31-12.13l12.13,3.3L-1194.1,880.93 M-1192.76,882.27l-3.88-14.23l-14.23-3.88
			l3.88,14.23L-1192.76,882.27z"/>
	</g>
	<g id="Path_5000_1_" transform="translate(1697 279.689) rotate(45)">
		<path class="st11" d="M-1175.71,900.98l-3.88-14.23l-14.23-3.88l3.88,14.23L-1175.71,900.98z"/>
		<path class="st12" d="M-1177.05,899.65l-12.13-3.3l-3.3-12.13l12.13,3.3L-1177.05,899.65 M-1175.71,900.98l-3.88-14.23
			l-14.23-3.88l3.88,14.23L-1175.71,900.98z"/>
	</g>
	<g id="Path_5002_1_" transform="translate(1705.933 291.6) rotate(45)">
		<path class="st11" d="M-1194.42,883.93l-3.88-14.23l-14.23-3.88l3.88,14.23L-1194.42,883.93z"/>
		<path class="st12" d="M-1195.76,882.6l-12.13-3.3l-3.3-12.13l12.13,3.3L-1195.76,882.6 M-1194.42,883.93l-3.88-14.23l-14.23-3.88
			l3.88,14.23L-1194.42,883.93z"/>
	</g>
	<g id="Path_5003_1_" transform="translate(1688.066 291.6) rotate(45)">
		<path class="st11" d="M-1181.71,871.22l-3.88-14.23l-14.23-3.88l3.88,14.23L-1181.71,871.22z"/>
		<path class="st12" d="M-1183.05,869.88l-12.13-3.3l-3.3-12.13l12.13,3.3L-1183.05,869.88 M-1181.71,871.22l-3.88-14.23
			l-14.23-3.88l3.88,14.23L-1181.71,871.22z"/>
	</g>
	<g id="Path_5004_1_" transform="translate(1697 279.689) rotate(45)">
		<path class="st11" d="M-1164.65,889.92l-3.88-14.23l-14.23-3.88l3.88,14.23L-1164.65,889.92z"/>
		<path class="st12" d="M-1165.99,888.6l-12.13-3.3l-3.3-12.13l12.13,3.3L-1165.99,888.6 M-1164.65,889.92l-3.88-14.23l-14.23-3.88
			l3.88,14.23L-1164.65,889.92z"/>
	</g>
	<g id="Path_5006_1_" transform="translate(1705.933 291.6) rotate(45)">
		<path class="st11" d="M-1183.37,872.88l-3.88-14.23l-14.23-3.88l3.88,14.23L-1183.37,872.88z"/>
		<path class="st12" d="M-1184.71,871.54l-12.13-3.3l-3.3-12.13l12.13,3.3L-1184.71,871.54 M-1183.37,872.88l-3.88-14.23
			l-14.23-3.88l3.88,14.23L-1183.37,872.88z"/>
	</g>
	<g id="Path_5007_1_" transform="translate(1688.066 291.6) rotate(45)">
		<path class="st11" d="M-1170.65,860.16l-3.88-14.23l-14.23-3.88l3.88,14.23L-1170.65,860.16z"/>
		<path class="st12" d="M-1171.99,858.82l-12.13-3.3l-3.3-12.13l12.13,3.3L-1171.99,858.82 M-1170.65,860.16l-3.88-14.23
			l-14.23-3.88l3.88,14.23L-1170.65,860.16z"/>
	</g>
	<g id="Path_5008_1_" transform="translate(1697 279.689) rotate(45)">
		<path class="st11" d="M-1153.6,878.88l-3.88-14.23l-14.23-3.88l3.88,14.23L-1153.6,878.88z"/>
		<path class="st12" d="M-1154.94,877.54l-12.13-3.3l-3.3-12.13l12.13,3.3L-1154.94,877.54 M-1153.6,878.88l-3.88-14.23l-14.23-3.88
			l3.88,14.23L-1153.6,878.88z"/>
	</g>
	<g id="Path_5010_1_" transform="translate(1705.933 291.6) rotate(45)">
		<path class="st11" d="M-1172.31,861.82l-3.88-14.23l-14.23-3.88l3.88,14.23L-1172.31,861.82z"/>
		<path class="st12" d="M-1173.65,860.48l-12.13-3.3l-3.3-12.13l12.13,3.3L-1173.65,860.48 M-1172.31,861.82l-3.88-14.23
			l-14.23-3.88l3.88,14.23L-1172.31,861.82z"/>
	</g>
	<g id="Path_5011_1_" transform="translate(1688.066 291.6) rotate(45)">
		<path class="st11" d="M-1159.6,849.1l-3.88-14.23l-14.23-3.88l3.88,14.23L-1159.6,849.1z"/>
		<path class="st12" d="M-1160.93,847.77l-12.13-3.3l-3.3-12.13l12.13,3.3L-1160.93,847.77 M-1159.6,849.1l-3.88-14.23l-14.23-3.88
			l3.88,14.23L-1159.6,849.1z"/>
	</g>
	<g id="Path_5012_1_" transform="translate(1697 279.689) rotate(45)">
		<path class="st11" d="M-1142.55,867.82l-3.88-14.23l-14.23-3.88l3.88,14.23L-1142.55,867.82z"/>
		<path class="st12" d="M-1143.88,866.48l-12.13-3.3l-3.3-12.13l12.13,3.3L-1143.88,866.48 M-1142.55,867.82l-3.88-14.23
			l-14.23-3.88l3.88,14.23L-1142.55,867.82z"/>
	</g>
</g>
</svg>
