<?xml version="1.0" encoding="utf-8"?>
<!-- Generator: Adobe Illustrator 24.2.3, SVG Export Plug-In . SVG Version: 6.00 Build 0)  -->
<svg version="1.1" id="Layer_1" xmlns="http://www.w3.org/2000/svg" xmlns:xlink="http://www.w3.org/1999/xlink" x="0px" y="0px"
	 viewBox="0 0 300 475" style="enable-background:new 0 0 300 475;" xml:space="preserve">
<style type="text/css">
	.st0{fill:url(#Rectangle_24833_1_);}
	.st1{fill:url(#Rectangle_24834_1_);}
	.st2{fill:url(#Rectangle_24835_1_);}
	.st3{opacity:0.5;fill:url(#Path_10247_1_);}
	.st4{opacity:0.5;fill:url(#Rectangle_24836_1_);enable-background:new    ;}
	.st5{opacity:0.5;fill:url(#Rectangle_24837_1_);enable-background:new    ;}
	.st6{fill:#5D5F5E;}
	.st7{fill:#6E7770;}
	.st8{fill:#A0907C;}
	.st9{fill:#C7B499;}
	.st10{opacity:0.3;fill:#FFFFFF;enable-background:new    ;}
	.st11{fill:#169547;}
	.st12{clip-path:url(#SVGID_2_);}
	.st13{fill:none;}
	.st14{fill:none;stroke:#30B460;}
	.st15{clip-path:url(#SVGID_4_);}
	.st16{fill:url(#Path_5984_1_);}
	.st17{fill:url(#Path_5986_1_);}
	.st18{fill:url(#SVGID_5_);}
	.st19{fill:#707171;}
	.st20{fill:#171717;}
	.st21{fill:url(#Rectangle_22768_1_);}
	.st22{opacity:0.07;fill:#C8C8C8;enable-background:new    ;}
	.st23{fill:url(#Rectangle_22770_1_);stroke:#707171;stroke-width:0.5;}
	.st24{fill:#FFFFFF;}
	.st25{fill:url(#Path_5992_1_);}
	.st26{fill:none;stroke:#FFFFFF;stroke-miterlimit:10;}
	.st27{fill:#646565;}
	.st28{fill:url(#Rectangle_22771_1_);}
</style>
<g id="Group_5083" transform="translate(-440.235 -288.444)">
	
		<linearGradient id="Path_5984_1_" gradientUnits="userSpaceOnUse" x1="-58.123" y1="285.6772" x2="-58.8024" y2="286.6521" gradientTransform="matrix(88.3854 0 0 -115.2364 5649.3154 33674.0078)">
		<stop  offset="0" style="stop-color:#919090"/>
		<stop  offset="1" style="stop-color:#000000"/>
	</linearGradient>
	<path id="Path_5984" class="st16" d="M534.82,714.84c0,0-7.53,48.62-49.03,36.15c-17.17-5.16-36.77-20.83-43.45-56.69
		c6.89,5.84,7.54,6.28,10.46,8.87c4.22,13.26,10.41,32.59,36.77,41.19c10.92,3.56,31.72,2.53,37.25-29.04L534.82,714.84z"/>
	
		<linearGradient id="Path_5986_1_" gradientUnits="userSpaceOnUse" x1="-56.0486" y1="277.2833" x2="-57.0164" y2="278.0707" gradientTransform="matrix(59.7433 0 0 -65.29 4089.2124 18855.6992)">
		<stop  offset="0" style="stop-color:#919090"/>
		<stop  offset="1" style="stop-color:#000000"/>
	</linearGradient>
	<path id="Path_5986" class="st17" d="M677.22,714.74c0,0,10.84,48.16,47.14,48.71c0,0,37.88-4.13-3.37-67.7l-7.58,3.3
		c0,0,10.31,21,14.37,28.27c3.1,5.55,11.92,20.9-2.25,27.63c0,0-30.65,3.54-39.07-41.04L677.22,714.74z"/>
	<g id="Path_5987">
		
			<linearGradient id="SVGID_2_" gradientUnits="userSpaceOnUse" x1="-61.9596" y1="291.6911" x2="-60.8944" y2="291.706" gradientTransform="matrix(284.431 0 0 -207.355 18062 60987.168)">
			<stop  offset="0" style="stop-color:#EAEAE9"/>
			<stop  offset="0.079" style="stop-color:#D4D4D3"/>
			<stop  offset="0.086" style="stop-color:#EEEEEE"/>
			<stop  offset="0.117" style="stop-color:#F3F4F5"/>
			<stop  offset="0.911" style="stop-color:#AFAFB0"/>
			<stop  offset="0.911" style="stop-color:#A9A9A9"/>
			<stop  offset="1" style="stop-color:#959595"/>
		</linearGradient>
		<polygon style="fill:url(#SVGID_2_);" points="467.26,715.34 440.74,692.23 440.74,288.94 739.73,288.94 739.73,690.77 
			714.08,715.34 		"/>
		<path class="st19" d="M739.23,289.44v401.12l-25.36,24.28H467.45L441.23,692V289.44H739.23 M740.23,288.44h-300v404.01
			l26.84,23.39h247.21l25.96-24.85V288.44L740.23,288.44z"/>
	</g>
	<path id="Rectangle_22767" class="st20" d="M509.4,583.02h161.66c3.5,0,6.33,2.79,6.33,6.22v92.49c0,3.44-2.83,6.22-6.33,6.22
		H509.4c-3.5,0-6.33-2.79-6.33-6.22v-92.49C503.08,585.81,505.91,583.02,509.4,583.02z"/>
	
		<linearGradient id="Rectangle_22768_1_" gradientUnits="userSpaceOnUse" x1="-60.7125" y1="285.2001" x2="-60.0074" y2="283.9276" gradientTransform="matrix(159.037 0 0 -101.203 10198.877 29449.0313)">
		<stop  offset="0" style="stop-color:#0E0B09"/>
		<stop  offset="1" style="stop-color:#5C5856"/>
	</linearGradient>
	<path id="Rectangle_22768" class="st21" d="M512.57,587.17h155.09c3.5,0,6.33,2.79,6.33,6.22v92.49c0,3.44-2.83,6.22-6.33,6.22
		H512.57c-3.5,0-6.33-2.79-6.33-6.22v-92.49C506.24,589.96,509.07,587.17,512.57,587.17z"/>
	<rect id="Rectangle_22769" x="524.27" y="645.56" class="st22" width="42.59" height="28.13"/>
	
		<linearGradient id="Rectangle_22770_1_" gradientUnits="userSpaceOnUse" x1="-52.3575" y1="240.5486" x2="-52.9186" y2="240.5486" gradientTransform="matrix(35.051 0 0 -22.658 2381.844 6109.9766)">
		<stop  offset="0" style="stop-color:#15110F"/>
		<stop  offset="0.06" style="stop-color:#1F1B19"/>
		<stop  offset="0.141" style="stop-color:#211E1C"/>
		<stop  offset="1" style="stop-color:#302E2D"/>
	</linearGradient>
	<rect id="Rectangle_22770" x="526.99" y="647.88" class="st23" width="36.97" height="23.49"/>
	<path id="Path_5991" class="st24" d="M577.63,692.25l12.55-24.14h82.87l0.5,14.78c0,0,1.74,8.09-5.91,9.22L577.63,692.25z"/>
	<linearGradient id="Path_5992_1_" gradientUnits="userSpaceOnUse" x1="457.6368" y1="296.7075" x2="754.2455" y2="306.0988">
		<stop  offset="0" style="stop-color:#BCBDBF"/>
		<stop  offset="0.214" style="stop-color:#929497"/>
		<stop  offset="0.364" style="stop-color:#BCBDBF"/>
		<stop  offset="0.544" style="stop-color:#FFFFFF"/>
		<stop  offset="0.723" style="stop-color:#929497"/>
		<stop  offset="1" style="stop-color:#424143"/>
	</linearGradient>
	<path id="Path_5992" class="st25" d="M737.2,289.38l-16.41,0.07l-67.69,17.64H516.91l-59.86-17.66l-13.75,0.07l73.61,25.26
		l136.19,0.63L737.2,289.38z"/>
	<line id="Line_57" class="st26" x1="593.44" y1="624.06" x2="647.86" y2="624.06"/>
	<line id="Line_58" class="st26" x1="593.44" y1="633.03" x2="647.86" y2="633.03"/>
	<line id="Line_59" class="st26" x1="593.44" y1="642" x2="647.86" y2="642"/>
	<path id="Path_5995" class="st27" d="M516.8,315.05v-8.2h136.31v8.59L516.8,315.05z"/>
	
		<linearGradient id="Rectangle_22771_1_" gradientUnits="userSpaceOnUse" x1="-59.4882" y1="237.3893" x2="-59.4882" y2="238.3505" gradientTransform="matrix(113 0 0 -18 7308.1167 4593.9326)">
		<stop  offset="0" style="stop-color:#848485"/>
		<stop  offset="0.539" style="stop-color:#B4B4B5"/>
		<stop  offset="1" style="stop-color:#6D6E6E"/>
	</linearGradient>
	<rect id="Rectangle_22771" x="526.36" y="302.26" class="st28" width="119.19" height="18.66"/>
</g>
</svg>
