<?xml version="1.0" encoding="utf-8"?>
<!-- Generator: Adobe Illustrator 24.2.3, SVG Export Plug-In . SVG Version: 6.00 Build 0)  -->
<svg version="1.1" id="Layer_1" xmlns="http://www.w3.org/2000/svg" xmlns:xlink="http://www.w3.org/1999/xlink" x="0px" y="0px"
	 viewBox="0 0 300 225" style="enable-background:new 0 0 300 225;" xml:space="preserve">
<style type="text/css">
	.st0{fill:#5D5F5E;}
	.st1{fill:#6E7770;}
	.st2{fill:#A0907C;}
	.st3{fill:#C7B499;}
	.st4{opacity:0.3;fill:#FFFFFF;enable-background:new    ;}
	.st5{fill:#169547;}
	.st6{fill:none;}
	.st7{fill:none;stroke:#30B460;}
</style>
<g id="Group_5082" transform="translate(-317.914 -159.023)">
	<g id="Group_5077">
		<path id="Path_5974" class="st0" d="M571.22,165.25c0,0,31.02-1.72,34.86-6.23h11.83l-9.75,9.83L571.22,165.25z"/>
		<path id="Path_5975" class="st1" d="M611.73,206.08c0,0,1.7-31.26,6.18-35.13v-11.93l-9.75,9.83L611.73,206.08z"/>
	</g>
	<g id="Group_5078" transform="translate(0 122.791)">
		<path id="Path_5976" class="st0" d="M571.22,255c0,0,31.02,1.72,34.86,6.23h11.83l-9.75-9.83L571.22,255z"/>
		<path id="Path_5977" class="st1" d="M611.73,214.18c0,0,1.7,31.26,6.18,35.13v11.92l-9.75-9.83L611.73,214.18z"/>
	</g>
	<g id="Group_5080" transform="translate(317.914 159.023)">
		<path id="Path_5978" class="st0" d="M46.7,6.23c0,0-31.02-1.72-34.86-6.23H0l9.76,9.83L46.7,6.23z"/>
		<path id="Path_5979" class="st1" d="M6.18,47.06c0,0-1.7-31.26-6.18-35.13V0l9.76,9.83L6.18,47.06z"/>
	</g>
	<g id="Group_5081" transform="translate(317.914 281.814)">
		<path id="Path_5980" class="st0" d="M46.7,95.98c0,0-31.02,1.72-34.86,6.23H0l9.76-9.83L46.7,95.98z"/>
		<path id="Path_5981" class="st1" d="M6.18,55.15c0,0-1.7,31.26-6.18,35.13v11.92l9.76-9.83L6.18,55.15z"/>
	</g>
	<path id="Rectangle_22765" class="st2" d="M324.94,165.25H610.3c0.81,0,1.46,0.66,1.46,1.47l0,0v209.66c0,0.81-0.65,1.47-1.46,1.47
		l0,0H324.94c-0.81,0-1.46-0.66-1.46-1.47l0,0V166.72C323.48,165.91,324.13,165.25,324.94,165.25z"/>
	<path id="Rectangle_22766" class="st3" d="M327.68,169.12h279.86c0.2,0,0.36,0.16,0.36,0.37v204.13c0,0.2-0.16,0.37-0.36,0.37l0,0
		H327.68c-0.2,0-0.36-0.16-0.36-0.37l0,0V169.49C327.32,169.29,327.48,169.12,327.68,169.12z"/>
	<path id="Path_5982" class="st4" d="M332.97,180.26c0.08-2.7,2.32-4.81,4.99-4.73c0,0,269.81-3.35,267.79-3.35H334.46
		c-2.67-0.08-4.91,2.03-4.99,4.73v160.32C329.46,339.13,332.97,180.26,332.97,180.26z"/>
	<g id="Group_6115" transform="translate(-730.086 -751.977)">
		<path id="Rectangle_24583" class="st5" d="M1074,938.75h248c0.2,0,0.36,0.16,0.36,0.37v171.67c0,0.2-0.16,0.37-0.36,0.37l0,0h-248
			c-0.2,0-0.36-0.16-0.36-0.37l0,0V939.11C1073.63,938.91,1073.8,938.75,1074,938.75z"/>
		<g>
			<g>
				<g>
					<g id="Repeat_Grid_15" transform="translate(1075 940)">
						<g transform="translate(-1072 -944)">
							<g id="Rectangle_24584" transform="translate(1072 944)">
								<rect x="-1.26" y="-1.25" class="st6" width="25.63" height="25.36"/>
								<rect x="-0.83" y="-0.83" class="st7" width="24.77" height="24.51"/>
							</g>
						</g>
						<g transform="translate(-1043 -944)">
							<g id="Rectangle_24584-2" transform="translate(1072 944)">
								<rect x="-5.49" y="-1.25" class="st6" width="25.63" height="25.36"/>
								<rect x="-5.06" y="-0.83" class="st7" width="24.77" height="24.51"/>
							</g>
						</g>
						<g transform="translate(-1014 -944)">
							<g id="Rectangle_24584-3" transform="translate(1072 944)">
								<rect x="-9.71" y="-1.25" class="st6" width="25.63" height="25.36"/>
								<rect x="-9.29" y="-0.83" class="st7" width="24.77" height="24.51"/>
							</g>
						</g>
						<g transform="translate(-985 -944)">
							<g id="Rectangle_24584-4" transform="translate(1072 944)">
								<rect x="-13.94" y="-1.25" class="st6" width="25.63" height="25.36"/>
								<rect x="-13.51" y="-0.83" class="st7" width="24.77" height="24.51"/>
							</g>
						</g>
						<g transform="translate(-956 -944)">
							<g id="Rectangle_24584-5" transform="translate(1072 944)">
								<rect x="-18.16" y="-1.25" class="st6" width="25.63" height="25.36"/>
								<rect x="-17.74" y="-0.83" class="st7" width="24.77" height="24.51"/>
							</g>
						</g>
						<g transform="translate(-927 -944)">
							<g id="Rectangle_24584-6" transform="translate(1072 944)">
								<rect x="-22.39" y="-1.25" class="st6" width="25.63" height="25.36"/>
								<rect x="-21.96" y="-0.83" class="st7" width="24.77" height="24.51"/>
							</g>
						</g>
						<g transform="translate(-898 -944)">
							<g id="Rectangle_24584-7" transform="translate(1072 944)">
								<rect x="-26.62" y="-1.25" class="st6" width="25.63" height="25.36"/>
								<rect x="-26.19" y="-0.83" class="st7" width="24.77" height="24.51"/>
							</g>
						</g>
						<g transform="translate(-869 -944)">
							<g id="Rectangle_24584-8" transform="translate(1072 944)">
								<rect x="-30.85" y="-1.25" class="st6" width="25.63" height="25.36"/>
								<rect x="-30.42" y="-0.83" class="st7" width="24.77" height="24.51"/>
							</g>
						</g>
						<g transform="translate(-840 -944)">
							<g id="Rectangle_24584-9" transform="translate(1072 944)">
								<rect x="-35.07" y="-1.25" class="st6" width="25.63" height="25.36"/>
								<rect x="-34.65" y="-0.83" class="st7" width="24.77" height="24.51"/>
							</g>
						</g>
						<g transform="translate(-811 -944)">
							<g id="Rectangle_24584-10" transform="translate(1072 944)">
								<rect x="-39.3" y="-1.25" class="st6" width="25.63" height="25.36"/>
								<rect x="-38.87" y="-0.83" class="st7" width="24.77" height="24.51"/>
							</g>
						</g>
						<g transform="translate(-1072 -915)">
							<g id="Rectangle_24584-11" transform="translate(1072 944)">
								<rect x="-1.26" y="-5.75" class="st6" width="25.63" height="25.36"/>
								<rect x="-0.83" y="-5.32" class="st7" width="24.77" height="24.51"/>
							</g>
						</g>
						<g transform="translate(-1043 -915)">
							<g id="Rectangle_24584-12" transform="translate(1072 944)">
								<rect x="-5.49" y="-5.75" class="st6" width="25.63" height="25.36"/>
								<rect x="-5.06" y="-5.32" class="st7" width="24.77" height="24.51"/>
							</g>
						</g>
						<g transform="translate(-1014 -915)">
							<g id="Rectangle_24584-13" transform="translate(1072 944)">
								<rect x="-9.71" y="-5.75" class="st6" width="25.63" height="25.36"/>
								<rect x="-9.29" y="-5.32" class="st7" width="24.77" height="24.51"/>
							</g>
						</g>
						<g transform="translate(-985 -915)">
							<g id="Rectangle_24584-14" transform="translate(1072 944)">
								<rect x="-13.94" y="-5.75" class="st6" width="25.63" height="25.36"/>
								<rect x="-13.51" y="-5.32" class="st7" width="24.77" height="24.51"/>
							</g>
						</g>
						<g transform="translate(-956 -915)">
							<g id="Rectangle_24584-15" transform="translate(1072 944)">
								<rect x="-18.16" y="-5.75" class="st6" width="25.63" height="25.36"/>
								<rect x="-17.74" y="-5.32" class="st7" width="24.77" height="24.51"/>
							</g>
						</g>
						<g transform="translate(-927 -915)">
							<g id="Rectangle_24584-16" transform="translate(1072 944)">
								<rect x="-22.39" y="-5.75" class="st6" width="25.63" height="25.36"/>
								<rect x="-21.96" y="-5.32" class="st7" width="24.77" height="24.51"/>
							</g>
						</g>
						<g transform="translate(-898 -915)">
							<g id="Rectangle_24584-17" transform="translate(1072 944)">
								<rect x="-26.62" y="-5.75" class="st6" width="25.63" height="25.36"/>
								<rect x="-26.19" y="-5.32" class="st7" width="24.77" height="24.51"/>
							</g>
						</g>
						<g transform="translate(-869 -915)">
							<g id="Rectangle_24584-18" transform="translate(1072 944)">
								<rect x="-30.85" y="-5.75" class="st6" width="25.63" height="25.36"/>
								<rect x="-30.42" y="-5.32" class="st7" width="24.77" height="24.51"/>
							</g>
						</g>
						<g transform="translate(-840 -915)">
							<g id="Rectangle_24584-19" transform="translate(1072 944)">
								<rect x="-35.07" y="-5.75" class="st6" width="25.63" height="25.36"/>
								<rect x="-34.65" y="-5.32" class="st7" width="24.77" height="24.51"/>
							</g>
						</g>
						<g transform="translate(-811 -915)">
							<g id="Rectangle_24584-20" transform="translate(1072 944)">
								<rect x="-39.3" y="-5.75" class="st6" width="25.63" height="25.36"/>
								<rect x="-38.87" y="-5.32" class="st7" width="24.77" height="24.51"/>
							</g>
						</g>
						<g transform="translate(-1072 -886)">
							<g id="Rectangle_24584-21" transform="translate(1072 944)">
								<rect x="-1.26" y="-10.23" class="st6" width="25.63" height="25.36"/>
								<rect x="-0.83" y="-9.81" class="st7" width="24.77" height="24.51"/>
							</g>
						</g>
						<g transform="translate(-1043 -886)">
							<g id="Rectangle_24584-22" transform="translate(1072 944)">
								<rect x="-5.49" y="-10.23" class="st6" width="25.63" height="25.36"/>
								<rect x="-5.06" y="-9.81" class="st7" width="24.77" height="24.51"/>
							</g>
						</g>
						<g transform="translate(-1014 -886)">
							<g id="Rectangle_24584-23" transform="translate(1072 944)">
								<rect x="-9.71" y="-10.23" class="st6" width="25.63" height="25.36"/>
								<rect x="-9.29" y="-9.81" class="st7" width="24.77" height="24.51"/>
							</g>
						</g>
						<g transform="translate(-985 -886)">
							<g id="Rectangle_24584-24" transform="translate(1072 944)">
								<rect x="-13.94" y="-10.23" class="st6" width="25.63" height="25.36"/>
								<rect x="-13.51" y="-9.81" class="st7" width="24.77" height="24.51"/>
							</g>
						</g>
						<g transform="translate(-956 -886)">
							<g id="Rectangle_24584-25" transform="translate(1072 944)">
								<rect x="-18.16" y="-10.23" class="st6" width="25.63" height="25.36"/>
								<rect x="-17.74" y="-9.81" class="st7" width="24.77" height="24.51"/>
							</g>
						</g>
						<g transform="translate(-927 -886)">
							<g id="Rectangle_24584-26" transform="translate(1072 944)">
								<rect x="-22.39" y="-10.23" class="st6" width="25.63" height="25.36"/>
								<rect x="-21.96" y="-9.81" class="st7" width="24.77" height="24.51"/>
							</g>
						</g>
						<g transform="translate(-898 -886)">
							<g id="Rectangle_24584-27" transform="translate(1072 944)">
								<rect x="-26.62" y="-10.23" class="st6" width="25.63" height="25.36"/>
								<rect x="-26.19" y="-9.81" class="st7" width="24.77" height="24.51"/>
							</g>
						</g>
						<g transform="translate(-869 -886)">
							<g id="Rectangle_24584-28" transform="translate(1072 944)">
								<rect x="-30.85" y="-10.23" class="st6" width="25.63" height="25.36"/>
								<rect x="-30.42" y="-9.81" class="st7" width="24.77" height="24.51"/>
							</g>
						</g>
						<g transform="translate(-840 -886)">
							<g id="Rectangle_24584-29" transform="translate(1072 944)">
								<rect x="-35.07" y="-10.23" class="st6" width="25.63" height="25.36"/>
								<rect x="-34.65" y="-9.81" class="st7" width="24.77" height="24.51"/>
							</g>
						</g>
						<g transform="translate(-811 -886)">
							<g id="Rectangle_24584-30" transform="translate(1072 944)">
								<rect x="-39.3" y="-10.23" class="st6" width="25.63" height="25.36"/>
								<rect x="-38.87" y="-9.81" class="st7" width="24.77" height="24.51"/>
							</g>
						</g>
						<g transform="translate(-1072 -857)">
							<g id="Rectangle_24584-31" transform="translate(1072 944)">
								<rect x="-1.26" y="-14.73" class="st6" width="25.63" height="25.36"/>
								<rect x="-0.83" y="-14.31" class="st7" width="24.77" height="24.51"/>
							</g>
						</g>
						<g transform="translate(-1043 -857)">
							<g id="Rectangle_24584-32" transform="translate(1072 944)">
								<rect x="-5.49" y="-14.73" class="st6" width="25.63" height="25.36"/>
								<rect x="-5.06" y="-14.31" class="st7" width="24.77" height="24.51"/>
							</g>
						</g>
						<g transform="translate(-1014 -857)">
							<g id="Rectangle_24584-33" transform="translate(1072 944)">
								<rect x="-9.71" y="-14.73" class="st6" width="25.63" height="25.36"/>
								<rect x="-9.29" y="-14.31" class="st7" width="24.77" height="24.51"/>
							</g>
						</g>
						<g transform="translate(-985 -857)">
							<g id="Rectangle_24584-34" transform="translate(1072 944)">
								<rect x="-13.94" y="-14.73" class="st6" width="25.63" height="25.36"/>
								<rect x="-13.51" y="-14.31" class="st7" width="24.77" height="24.51"/>
							</g>
						</g>
						<g transform="translate(-956 -857)">
							<g id="Rectangle_24584-35" transform="translate(1072 944)">
								<rect x="-18.16" y="-14.73" class="st6" width="25.63" height="25.36"/>
								<rect x="-17.74" y="-14.31" class="st7" width="24.77" height="24.51"/>
							</g>
						</g>
						<g transform="translate(-927 -857)">
							<g id="Rectangle_24584-36" transform="translate(1072 944)">
								<rect x="-22.39" y="-14.73" class="st6" width="25.63" height="25.36"/>
								<rect x="-21.96" y="-14.31" class="st7" width="24.77" height="24.51"/>
							</g>
						</g>
						<g transform="translate(-898 -857)">
							<g id="Rectangle_24584-37" transform="translate(1072 944)">
								<rect x="-26.62" y="-14.73" class="st6" width="25.63" height="25.36"/>
								<rect x="-26.19" y="-14.31" class="st7" width="24.77" height="24.51"/>
							</g>
						</g>
						<g transform="translate(-869 -857)">
							<g id="Rectangle_24584-38" transform="translate(1072 944)">
								<rect x="-30.85" y="-14.73" class="st6" width="25.63" height="25.36"/>
								<rect x="-30.42" y="-14.31" class="st7" width="24.77" height="24.51"/>
							</g>
						</g>
						<g transform="translate(-840 -857)">
							<g id="Rectangle_24584-39" transform="translate(1072 944)">
								<rect x="-35.07" y="-14.73" class="st6" width="25.63" height="25.36"/>
								<rect x="-34.65" y="-14.31" class="st7" width="24.77" height="24.51"/>
							</g>
						</g>
						<g transform="translate(-811 -857)">
							<g id="Rectangle_24584-40" transform="translate(1072 944)">
								<rect x="-39.3" y="-14.73" class="st6" width="25.63" height="25.36"/>
								<rect x="-38.87" y="-14.31" class="st7" width="24.77" height="24.51"/>
							</g>
						</g>
						<g transform="translate(-1072 -828)">
							<g id="Rectangle_24584-41" transform="translate(1072 944)">
								<rect x="-1.26" y="-19.22" class="st6" width="25.63" height="25.36"/>
								<rect x="-0.83" y="-18.79" class="st7" width="24.77" height="24.51"/>
							</g>
						</g>
						<g transform="translate(-1043 -828)">
							<g id="Rectangle_24584-42" transform="translate(1072 944)">
								<rect x="-5.49" y="-19.22" class="st6" width="25.63" height="25.36"/>
								<rect x="-5.06" y="-18.79" class="st7" width="24.77" height="24.51"/>
							</g>
						</g>
						<g transform="translate(-1014 -828)">
							<g id="Rectangle_24584-43" transform="translate(1072 944)">
								<rect x="-9.71" y="-19.22" class="st6" width="25.63" height="25.36"/>
								<rect x="-9.29" y="-18.79" class="st7" width="24.77" height="24.51"/>
							</g>
						</g>
						<g transform="translate(-985 -828)">
							<g id="Rectangle_24584-44" transform="translate(1072 944)">
								<rect x="-13.94" y="-19.22" class="st6" width="25.63" height="25.36"/>
								<rect x="-13.51" y="-18.79" class="st7" width="24.77" height="24.51"/>
							</g>
						</g>
						<g transform="translate(-956 -828)">
							<g id="Rectangle_24584-45" transform="translate(1072 944)">
								<rect x="-18.16" y="-19.22" class="st6" width="25.63" height="25.36"/>
								<rect x="-17.74" y="-18.79" class="st7" width="24.77" height="24.51"/>
							</g>
						</g>
						<g transform="translate(-927 -828)">
							<g id="Rectangle_24584-46" transform="translate(1072 944)">
								<rect x="-22.39" y="-19.22" class="st6" width="25.63" height="25.36"/>
								<rect x="-21.96" y="-18.79" class="st7" width="24.77" height="24.51"/>
							</g>
						</g>
						<g transform="translate(-898 -828)">
							<g id="Rectangle_24584-47" transform="translate(1072 944)">
								<rect x="-26.62" y="-19.22" class="st6" width="25.63" height="25.36"/>
								<rect x="-26.19" y="-18.79" class="st7" width="24.77" height="24.51"/>
							</g>
						</g>
						<g transform="translate(-869 -828)">
							<g id="Rectangle_24584-48" transform="translate(1072 944)">
								<rect x="-30.85" y="-19.22" class="st6" width="25.63" height="25.36"/>
								<rect x="-30.42" y="-18.79" class="st7" width="24.77" height="24.51"/>
							</g>
						</g>
						<g transform="translate(-840 -828)">
							<g id="Rectangle_24584-49" transform="translate(1072 944)">
								<rect x="-35.07" y="-19.22" class="st6" width="25.63" height="25.36"/>
								<rect x="-34.65" y="-18.79" class="st7" width="24.77" height="24.51"/>
							</g>
						</g>
						<g transform="translate(-811 -828)">
							<g id="Rectangle_24584-50" transform="translate(1072 944)">
								<rect x="-39.3" y="-19.22" class="st6" width="25.63" height="25.36"/>
								<rect x="-38.87" y="-18.79" class="st7" width="24.77" height="24.51"/>
							</g>
						</g>
					</g>
				</g>
			</g>
			<g>
				<g>
					<g id="Repeat_Grid_15_1_" transform="translate(1075 940)">
						<g transform="translate(-1072 -944)">
							<g id="Rectangle_24584_1_" transform="translate(1072 944)">
								<rect x="-1.26" y="47.71" class="st6" width="25.63" height="25.36"/>
								<rect x="-0.83" y="48.13" class="st7" width="24.77" height="24.51"/>
							</g>
						</g>
						<g transform="translate(-1043 -944)">
							<g id="Rectangle_24584-2_1_" transform="translate(1072 944)">
								<rect x="-5.49" y="47.71" class="st6" width="25.63" height="25.36"/>
								<rect x="-5.06" y="48.13" class="st7" width="24.77" height="24.51"/>
							</g>
						</g>
						<g transform="translate(-1014 -944)">
							<g id="Rectangle_24584-3_1_" transform="translate(1072 944)">
								<rect x="-9.71" y="47.71" class="st6" width="25.63" height="25.36"/>
								<rect x="-9.29" y="48.13" class="st7" width="24.77" height="24.51"/>
							</g>
						</g>
						<g transform="translate(-985 -944)">
							<g id="Rectangle_24584-4_1_" transform="translate(1072 944)">
								<rect x="-13.94" y="47.71" class="st6" width="25.63" height="25.36"/>
								<rect x="-13.51" y="48.13" class="st7" width="24.77" height="24.51"/>
							</g>
						</g>
						<g transform="translate(-956 -944)">
							<g id="Rectangle_24584-5_1_" transform="translate(1072 944)">
								<rect x="-18.16" y="47.71" class="st6" width="25.63" height="25.36"/>
								<rect x="-17.74" y="48.13" class="st7" width="24.77" height="24.51"/>
							</g>
						</g>
						<g transform="translate(-927 -944)">
							<g id="Rectangle_24584-6_1_" transform="translate(1072 944)">
								<rect x="-22.39" y="47.71" class="st6" width="25.63" height="25.36"/>
								<rect x="-21.96" y="48.13" class="st7" width="24.77" height="24.51"/>
							</g>
						</g>
						<g transform="translate(-898 -944)">
							<g id="Rectangle_24584-7_1_" transform="translate(1072 944)">
								<rect x="-26.62" y="47.71" class="st6" width="25.63" height="25.36"/>
								<rect x="-26.19" y="48.13" class="st7" width="24.77" height="24.51"/>
							</g>
						</g>
						<g transform="translate(-869 -944)">
							<g id="Rectangle_24584-8_1_" transform="translate(1072 944)">
								<rect x="-30.85" y="47.71" class="st6" width="25.63" height="25.36"/>
								<rect x="-30.42" y="48.13" class="st7" width="24.77" height="24.51"/>
							</g>
						</g>
						<g transform="translate(-840 -944)">
							<g id="Rectangle_24584-9_1_" transform="translate(1072 944)">
								<rect x="-35.07" y="47.71" class="st6" width="25.63" height="25.36"/>
								<rect x="-34.65" y="48.13" class="st7" width="24.77" height="24.51"/>
							</g>
						</g>
						<g transform="translate(-811 -944)">
							<g id="Rectangle_24584-10_1_" transform="translate(1072 944)">
								<rect x="-39.3" y="47.71" class="st6" width="25.63" height="25.36"/>
								<rect x="-38.87" y="48.13" class="st7" width="24.77" height="24.51"/>
							</g>
						</g>
						<g transform="translate(-1072 -915)">
							<g id="Rectangle_24584-11_1_" transform="translate(1072 944)">
								<rect x="-1.26" y="43.22" class="st6" width="25.63" height="25.36"/>
								<rect x="-0.83" y="43.64" class="st7" width="24.77" height="24.51"/>
							</g>
						</g>
						<g transform="translate(-1043 -915)">
							<g id="Rectangle_24584-12_1_" transform="translate(1072 944)">
								<rect x="-5.49" y="43.22" class="st6" width="25.63" height="25.36"/>
								<rect x="-5.06" y="43.64" class="st7" width="24.77" height="24.51"/>
							</g>
						</g>
						<g transform="translate(-1014 -915)">
							<g id="Rectangle_24584-13_1_" transform="translate(1072 944)">
								<rect x="-9.71" y="43.22" class="st6" width="25.63" height="25.36"/>
								<rect x="-9.29" y="43.64" class="st7" width="24.77" height="24.51"/>
							</g>
						</g>
						<g transform="translate(-985 -915)">
							<g id="Rectangle_24584-14_1_" transform="translate(1072 944)">
								<rect x="-13.94" y="43.22" class="st6" width="25.63" height="25.36"/>
								<rect x="-13.51" y="43.64" class="st7" width="24.77" height="24.51"/>
							</g>
						</g>
						<g transform="translate(-956 -915)">
							<g id="Rectangle_24584-15_1_" transform="translate(1072 944)">
								<rect x="-18.16" y="43.22" class="st6" width="25.63" height="25.36"/>
								<rect x="-17.74" y="43.64" class="st7" width="24.77" height="24.51"/>
							</g>
						</g>
						<g transform="translate(-927 -915)">
							<g id="Rectangle_24584-16_1_" transform="translate(1072 944)">
								<rect x="-22.39" y="43.22" class="st6" width="25.63" height="25.36"/>
								<rect x="-21.96" y="43.64" class="st7" width="24.77" height="24.51"/>
							</g>
						</g>
						<g transform="translate(-898 -915)">
							<g id="Rectangle_24584-17_1_" transform="translate(1072 944)">
								<rect x="-26.62" y="43.22" class="st6" width="25.63" height="25.36"/>
								<rect x="-26.19" y="43.64" class="st7" width="24.77" height="24.51"/>
							</g>
						</g>
						<g transform="translate(-869 -915)">
							<g id="Rectangle_24584-18_1_" transform="translate(1072 944)">
								<rect x="-30.85" y="43.22" class="st6" width="25.63" height="25.36"/>
								<rect x="-30.42" y="43.64" class="st7" width="24.77" height="24.51"/>
							</g>
						</g>
						<g transform="translate(-840 -915)">
							<g id="Rectangle_24584-19_1_" transform="translate(1072 944)">
								<rect x="-35.07" y="43.22" class="st6" width="25.63" height="25.36"/>
								<rect x="-34.65" y="43.64" class="st7" width="24.77" height="24.51"/>
							</g>
						</g>
						<g transform="translate(-811 -915)">
							<g id="Rectangle_24584-20_1_" transform="translate(1072 944)">
								<rect x="-39.3" y="43.22" class="st6" width="25.63" height="25.36"/>
								<rect x="-38.87" y="43.64" class="st7" width="24.77" height="24.51"/>
							</g>
						</g>
						<g transform="translate(-1072 -886)">
							<g id="Rectangle_24584-21_1_" transform="translate(1072 944)">
								<rect x="-1.26" y="38.72" class="st6" width="25.63" height="25.36"/>
								<rect x="-0.83" y="39.14" class="st7" width="24.77" height="24.51"/>
							</g>
						</g>
						<g transform="translate(-1043 -886)">
							<g id="Rectangle_24584-22_1_" transform="translate(1072 944)">
								<rect x="-5.49" y="38.72" class="st6" width="25.63" height="25.36"/>
								<rect x="-5.06" y="39.14" class="st7" width="24.77" height="24.51"/>
							</g>
						</g>
						<g transform="translate(-1014 -886)">
							<g id="Rectangle_24584-23_1_" transform="translate(1072 944)">
								<rect x="-9.71" y="38.72" class="st6" width="25.63" height="25.36"/>
								<rect x="-9.29" y="39.14" class="st7" width="24.77" height="24.51"/>
							</g>
						</g>
						<g transform="translate(-985 -886)">
							<g id="Rectangle_24584-24_1_" transform="translate(1072 944)">
								<rect x="-13.94" y="38.72" class="st6" width="25.63" height="25.36"/>
								<rect x="-13.51" y="39.14" class="st7" width="24.77" height="24.51"/>
							</g>
						</g>
						<g transform="translate(-956 -886)">
							<g id="Rectangle_24584-25_1_" transform="translate(1072 944)">
								<rect x="-18.16" y="38.72" class="st6" width="25.63" height="25.36"/>
								<rect x="-17.74" y="39.14" class="st7" width="24.77" height="24.51"/>
							</g>
						</g>
						<g transform="translate(-927 -886)">
							<g id="Rectangle_24584-26_1_" transform="translate(1072 944)">
								<rect x="-22.39" y="38.72" class="st6" width="25.63" height="25.36"/>
								<rect x="-21.96" y="39.14" class="st7" width="24.77" height="24.51"/>
							</g>
						</g>
						<g transform="translate(-898 -886)">
							<g id="Rectangle_24584-27_1_" transform="translate(1072 944)">
								<rect x="-26.62" y="38.72" class="st6" width="25.63" height="25.36"/>
								<rect x="-26.19" y="39.14" class="st7" width="24.77" height="24.51"/>
							</g>
						</g>
						<g transform="translate(-869 -886)">
							<g id="Rectangle_24584-28_1_" transform="translate(1072 944)">
								<rect x="-30.85" y="38.72" class="st6" width="25.63" height="25.36"/>
								<rect x="-30.42" y="39.14" class="st7" width="24.77" height="24.51"/>
							</g>
						</g>
						<g transform="translate(-840 -886)">
							<g id="Rectangle_24584-29_1_" transform="translate(1072 944)">
								<rect x="-35.07" y="38.72" class="st6" width="25.63" height="25.36"/>
								<rect x="-34.65" y="39.14" class="st7" width="24.77" height="24.51"/>
							</g>
						</g>
						<g transform="translate(-811 -886)">
							<g id="Rectangle_24584-30_1_" transform="translate(1072 944)">
								<rect x="-39.3" y="38.72" class="st6" width="25.63" height="25.36"/>
								<rect x="-38.87" y="39.14" class="st7" width="24.77" height="24.51"/>
							</g>
						</g>
						<g transform="translate(-1072 -857)">
							<g id="Rectangle_24584-31_1_" transform="translate(1072 944)">
								<rect x="-1.26" y="34.24" class="st6" width="25.63" height="25.36"/>
								<rect x="-0.83" y="34.66" class="st7" width="24.77" height="24.51"/>
							</g>
						</g>
						<g transform="translate(-1043 -857)">
							<g id="Rectangle_24584-32_1_" transform="translate(1072 944)">
								<rect x="-5.49" y="34.24" class="st6" width="25.63" height="25.36"/>
								<rect x="-5.06" y="34.66" class="st7" width="24.77" height="24.51"/>
							</g>
						</g>
						<g transform="translate(-1014 -857)">
							<g id="Rectangle_24584-33_1_" transform="translate(1072 944)">
								<rect x="-9.71" y="34.24" class="st6" width="25.63" height="25.36"/>
								<rect x="-9.29" y="34.66" class="st7" width="24.77" height="24.51"/>
							</g>
						</g>
						<g transform="translate(-985 -857)">
							<g id="Rectangle_24584-34_1_" transform="translate(1072 944)">
								<rect x="-13.94" y="34.24" class="st6" width="25.63" height="25.36"/>
								<rect x="-13.51" y="34.66" class="st7" width="24.77" height="24.51"/>
							</g>
						</g>
						<g transform="translate(-956 -857)">
							<g id="Rectangle_24584-35_1_" transform="translate(1072 944)">
								<rect x="-18.16" y="34.24" class="st6" width="25.63" height="25.36"/>
								<rect x="-17.74" y="34.66" class="st7" width="24.77" height="24.51"/>
							</g>
						</g>
						<g transform="translate(-927 -857)">
							<g id="Rectangle_24584-36_1_" transform="translate(1072 944)">
								<rect x="-22.39" y="34.24" class="st6" width="25.63" height="25.36"/>
								<rect x="-21.96" y="34.66" class="st7" width="24.77" height="24.51"/>
							</g>
						</g>
						<g transform="translate(-898 -857)">
							<g id="Rectangle_24584-37_1_" transform="translate(1072 944)">
								<rect x="-26.62" y="34.24" class="st6" width="25.63" height="25.36"/>
								<rect x="-26.19" y="34.66" class="st7" width="24.77" height="24.51"/>
							</g>
						</g>
						<g transform="translate(-869 -857)">
							<g id="Rectangle_24584-38_1_" transform="translate(1072 944)">
								<rect x="-30.85" y="34.24" class="st6" width="25.63" height="25.36"/>
								<rect x="-30.42" y="34.66" class="st7" width="24.77" height="24.51"/>
							</g>
						</g>
						<g transform="translate(-840 -857)">
							<g id="Rectangle_24584-39_1_" transform="translate(1072 944)">
								<rect x="-35.07" y="34.24" class="st6" width="25.63" height="25.36"/>
								<rect x="-34.65" y="34.66" class="st7" width="24.77" height="24.51"/>
							</g>
						</g>
						<g transform="translate(-811 -857)">
							<g id="Rectangle_24584-40_1_" transform="translate(1072 944)">
								<rect x="-39.3" y="34.24" class="st6" width="25.63" height="25.36"/>
								<rect x="-38.87" y="34.66" class="st7" width="24.77" height="24.51"/>
							</g>
						</g>
						<g transform="translate(-1072 -828)">
							<g id="Rectangle_24584-41_1_" transform="translate(1072 944)">
								<rect x="-1.26" y="29.74" class="st6" width="25.63" height="25.36"/>
								<rect x="-0.83" y="30.16" class="st7" width="24.77" height="24.51"/>
							</g>
						</g>
						<g transform="translate(-1043 -828)">
							<g id="Rectangle_24584-42_1_" transform="translate(1072 944)">
								<rect x="-5.49" y="29.74" class="st6" width="25.63" height="25.36"/>
								<rect x="-5.06" y="30.16" class="st7" width="24.77" height="24.51"/>
							</g>
						</g>
						<g transform="translate(-1014 -828)">
							<g id="Rectangle_24584-43_1_" transform="translate(1072 944)">
								<rect x="-9.71" y="29.74" class="st6" width="25.63" height="25.36"/>
								<rect x="-9.29" y="30.16" class="st7" width="24.77" height="24.51"/>
							</g>
						</g>
						<g transform="translate(-985 -828)">
							<g id="Rectangle_24584-44_1_" transform="translate(1072 944)">
								<rect x="-13.94" y="29.74" class="st6" width="25.63" height="25.36"/>
								<rect x="-13.51" y="30.16" class="st7" width="24.77" height="24.51"/>
							</g>
						</g>
						<g transform="translate(-956 -828)">
							<g id="Rectangle_24584-45_1_" transform="translate(1072 944)">
								<rect x="-18.16" y="29.74" class="st6" width="25.63" height="25.36"/>
								<rect x="-17.74" y="30.16" class="st7" width="24.77" height="24.51"/>
							</g>
						</g>
						<g transform="translate(-927 -828)">
							<g id="Rectangle_24584-46_1_" transform="translate(1072 944)">
								<rect x="-22.39" y="29.74" class="st6" width="25.63" height="25.36"/>
								<rect x="-21.96" y="30.16" class="st7" width="24.77" height="24.51"/>
							</g>
						</g>
						<g transform="translate(-898 -828)">
							<g id="Rectangle_24584-47_1_" transform="translate(1072 944)">
								<rect x="-26.62" y="29.74" class="st6" width="25.63" height="25.36"/>
								<rect x="-26.19" y="30.16" class="st7" width="24.77" height="24.51"/>
							</g>
						</g>
						<g transform="translate(-869 -828)">
							<g id="Rectangle_24584-48_1_" transform="translate(1072 944)">
								<rect x="-30.85" y="29.74" class="st6" width="25.63" height="25.36"/>
								<rect x="-30.42" y="30.16" class="st7" width="24.77" height="24.51"/>
							</g>
						</g>
						<g transform="translate(-840 -828)">
							<g id="Rectangle_24584-49_1_" transform="translate(1072 944)">
								<rect x="-35.07" y="29.74" class="st6" width="25.63" height="25.36"/>
								<rect x="-34.65" y="30.16" class="st7" width="24.77" height="24.51"/>
							</g>
						</g>
						<g transform="translate(-811 -828)">
							<g id="Rectangle_24584-50_1_" transform="translate(1072 944)">
								<rect x="-39.3" y="29.74" class="st6" width="25.63" height="25.36"/>
								<rect x="-38.87" y="30.16" class="st7" width="24.77" height="24.51"/>
							</g>
						</g>
					</g>
				</g>
			</g>
		</g>
	</g>
</g>
</svg>
