<?xml version="1.0" encoding="utf-8"?>
<!-- Generator: Adobe Illustrator 24.2.3, SVG Export Plug-In . SVG Version: 6.00 Build 0)  -->
<svg version="1.1" id="Layer_1" xmlns="http://www.w3.org/2000/svg" xmlns:xlink="http://www.w3.org/1999/xlink" x="0px" y="0px"
	 viewBox="0 0 300 112.5" style="enable-background:new 0 0 300 112.5;" xml:space="preserve">
<style type="text/css">
	.st0{fill:#994322;}
	.st1{fill:#C15828;}
	.st2{fill:#8B361E;}
	.st3{fill:#DA6027;}
</style>
<path id="Path_4663" class="st0" d="M17.09,13L6.44,13.06l-6.42-1.99l12.14-0.04L17.09,13z"/>
<path id="Path_4657" class="st0" d="M12.28,11.07V0l17.18,13.51l0.38,7.9L12.28,11.07z"/>
<path id="Path_4659" class="st0" d="M287.72,11.07V0l-17.18,13.51l-0.38,7.9L287.72,11.07z"/>
<path id="Path_4658" class="st0" d="M11.95,101.48l0.07,11.01l19.01-16.82l-1.4-4.64L11.95,101.48z"/>
<path id="Path_4660" class="st0" d="M287.99,101.54l-0.07,10.91l-17.18-16.23l3.07-4.66L287.99,101.54z"/>
<path id="Path_4661" class="st1" d="M20,13.22v83.06h260.47V13.22H20z"/>
<path id="Path_4662" class="st2" d="M15.16,12.9v86.94l3.09-1.09V13.99C18.25,13.99,15.45,12.9,15.16,12.9z"/>
<rect id="Rectangle_20570" x="0.02" class="st3" width="12.26" height="11.05"/>
<rect id="Rectangle_20571" y="101.45" class="st3" width="12.03" height="11.05"/>
<path id="Path_4664" class="st0" d="M17.09,99.49L6.44,99.44l-6.18,1.99h12.03L17.09,99.49z"/>
<path id="Path_4665" class="st1" d="M5.87,12.9v86.73l9.57-0.16V12.9H5.87z"/>
<path id="Path_4666" class="st0" d="M284.84,12.9v86.94l-2.5-2.2V13.99C283.15,13.57,283.98,13.21,284.84,12.9z"/>
<rect id="Rectangle_20572" x="287.72" class="st3" width="12.28" height="11.05"/>
<rect id="Rectangle_20573" x="287.97" y="101.45" class="st3" width="12.03" height="11.05"/>
<path id="Path_4667" class="st0" d="M282.91,13l10.65,0.06l6.43-1.99h-12.28L282.91,13z"/>
<path id="Path_4668" class="st0" d="M282.91,99.49l10.65-0.06l6.18,1.99h-12.03L282.91,99.49z"/>
<path id="Path_4669" class="st1" d="M294.13,12.9v86.73h-9.57V12.9H294.13z"/>
</svg>
