<?xml version="1.0" encoding="utf-8"?>
<!-- Generator: Adobe Illustrator 24.2.3, SVG Export Plug-In . SVG Version: 6.00 Build 0)  -->
<svg version="1.1" id="Layer_1" xmlns="http://www.w3.org/2000/svg" xmlns:xlink="http://www.w3.org/1999/xlink" x="0px" y="0px"
	 viewBox="0 0 300 225" style="enable-background:new 0 0 300 225;" xml:space="preserve">
<style type="text/css">
	.st0{fill:url(#SVGID_1_);}
	.st1{fill:#C6C6C6;}
	.st2{opacity:0.24;fill:#9B9B9B;enable-background:new    ;}
	.st3{fill:url(#Ellipse_365_2_);}
	.st4{fill:url(#SVGID_2_);}
	.st5{fill:url(#SVGID_3_);}
	.st6{fill:#707171;}
	.st7{fill:url(#Path_5913_2_);}
	.st8{fill:url(#Path_5914_2_);}
	.st9{fill:url(#Path_5915_2_);}
	.st10{fill:url(#Rectangle_22731_2_);}
	.st11{fill:url(#Rectangle_22739_2_);}
	.st12{fill:url(#Rectangle_22740_2_);}
	.st13{fill:url(#Path_5890_2_);}
	.st14{fill:#831618;}
	.st15{fill:url(#SVGID_4_);stroke:#707171;stroke-width:0.5;stroke-miterlimit:10;}
	.st16{fill:#C02026;}
	.st17{fill:#9E1D20;}
	.st18{fill:#CF2A2A;}
	.st19{fill:url(#Ellipse_358_2_);}
	.st20{fill:url(#SVGID_5_);}
	.st21{fill:url(#SVGID_6_);}
	.st22{fill:url(#Ellipse_361_2_);}
	.st23{opacity:0.27;fill:#9B9B9B;enable-background:new    ;}
	.st24{fill:url(#Ellipse_363_2_);}
	.st25{fill:url(#Ellipse_367_2_);}
	.st26{fill:#BEBDBD;}
	.st27{fill:#8C8C8C;}
	.st28{fill:url(#SVGID_7_);}
	.st29{fill:url(#SVGID_8_);}
	.st30{fill:url(#SVGID_9_);}
	.st31{fill:url(#SVGID_10_);}
	.st32{fill:url(#SVGID_11_);}
	.st33{fill:url(#SVGID_12_);}
	.st34{fill:none;}
	.st35{fill:#F4F5F5;}
	.st36{fill:url(#SVGID_13_);}
	.st37{fill:#424243;}
	.st38{fill:url(#Path_5917_1_);}
	.st39{opacity:0.5;fill:url(#Path_5917_4_);enable-background:new    ;}
	.st40{fill:url(#Path_5918_2_);}
	.st41{fill:#505F60;}
	.st42{fill:url(#Path_5920_2_);}
	.st43{fill:url(#Path_5921_2_);}
	.st44{fill:url(#Path_5922_2_);}
	.st45{fill:url(#Path_5923_2_);}
	.st46{fill:url(#Path_5924_2_);}
	.st47{fill:url(#Path_5925_2_);}
	.st48{fill:url(#Path_5926_2_);}
	.st49{fill:url(#Path_5927_2_);}
	.st50{fill:url(#Path_5928_2_);}
	.st51{fill:url(#Path_5929_2_);}
	.st52{fill:url(#Path_5930_2_);}
	.st53{fill:url(#Path_5931_2_);}
	.st54{fill:#7D8B8F;}
	.st55{fill:url(#Path_5933_2_);}
	.st56{fill:#A91E23;}
	.st57{fill:url(#SVGID_14_);}
	.st58{fill:#4B4A4A;}
</style>
<linearGradient id="SVGID_1_" gradientUnits="userSpaceOnUse" x1="31674.4395" y1="-11381.791" x2="31955.3184" y2="-11354.7246" gradientTransform="matrix(1 0 0 -1 -31674.6016 -11337.6025)">
	<stop  offset="0" style="stop-color:#787878"/>
	<stop  offset="0.4586" style="stop-color:#E1E1E1"/>
	<stop  offset="1" style="stop-color:#D5D6D5"/>
</linearGradient>
<path class="st0" d="M248.16,31.24c0,1.77-0.17,3.25-0.34,4.26c-7.95-4.88-19.95-7.07-35.7-6.49c-12.3,0.45-22.45,2.52-22.55,2.54
	h-0.02h-0.02l-5.84,1.41l-35.61,4.13c-5.13-0.18-10.29,1.91-14.93,6.05c-3.46,3.08-5.4,6.2-5.51,6.37c-1.01,1.61-2.19,2.94-3.5,3.95
	c-1.04,0.8-2.18,1.4-3.37,1.79c-2.04,0.67-3.58,0.47-3.59,0.47l-0.08-0.01h-0.06H33.53c0.12-2.35,0.18-4.85,0.18-7.47
	c0-5.15-0.24-9-0.24-9.04l-0.01-0.1l-0.03-0.09L31.3,30.8l41.46-8.37c4.29-0.59,104.27-12.9,109.48-13.84
	c1.51-0.27,3.99-1.13,7.14-2.22c4.08-1.41,9.17-3.16,14.08-4.31c5.59-1.3,9.87-1.52,12.73-0.67c8.86,2.65,26.5,15.64,28.23,16.92
	c1.35,2.01,2.35,4.26,2.97,6.69C247.9,27,248.16,29.09,248.16,31.24z"/>
<path class="st1" d="M32.57,31.6l1.86,7.17l0.05,0.19l0.01,0.2c0.01,0.16,0.24,3.92,0.24,9.11c0,2.24-0.04,4.4-0.13,6.45h82.44
	l0.13-0.01l0.15,0.03c0.13,0.01,1.48,0.13,3.23-0.46c2.46-0.83,4.55-2.6,6.22-5.27c0.14-0.22,2.16-3.43,5.69-6.59
	c4.81-4.3,10.19-6.48,15.57-6.31l35.47-4.12l5.78-1.4l0.03-0.01l0.03-0.01c0.42-0.09,10.34-2.11,22.72-2.56
	c15.09-0.56,26.82,1.41,34.92,5.85c0.08-0.75,0.13-1.63,0.13-2.6c0-2.07-0.25-4.08-0.73-5.97c-0.58-2.26-1.5-4.35-2.73-6.23
	c-2.36-1.75-19.27-14.11-27.77-16.66c-2.68-0.8-6.79-0.58-12.2,0.68c-4.86,1.13-9.92,2.87-13.98,4.28c-3.19,1.1-5.7,1.97-7.29,2.26
	c-5.22,0.95-104.8,13.21-109.49,13.85L32.57,31.6 M30.05,30.02l42.55-8.59c0,0,104.21-12.89,109.47-13.84
	c5.26-0.96,24.86-10.02,34.42-7.16s28.69,17.18,28.69,17.18c3.23,4.72,4.01,9.82,4.01,13.63c0,3.52-0.66,5.94-0.66,5.94
	c-18.65-12.89-58.75-4.62-58.75-4.62l-5.9,1.43l-35.75,4.15c-11.95-0.48-19.6,11.93-19.6,11.93c-4.78,7.64-11.47,6.68-11.47,6.68
	H32.47c0.18-2.97,0.24-5.91,0.24-8.5c0-5.18-0.24-8.98-0.24-8.98L30.05,30.02z"/>
<ellipse id="Ellipse_364_1_" class="st2" cx="111.29" cy="44.77" rx="8.13" ry="8.11"/>
<radialGradient id="Ellipse_365_2_" cx="37432.3281" cy="-1560.0557" r="0.5491" gradientTransform="matrix(0 -7.6604 7.6727 0 12081.3672 286791.4375)" gradientUnits="userSpaceOnUse">
	<stop  offset="0" style="stop-color:#FFFFFF"/>
	<stop  offset="1" style="stop-color:#898989"/>
</radialGradient>
<ellipse id="Ellipse_365_1_" class="st3" cx="111.29" cy="44.77" rx="4.21" ry="4.21"/>
<linearGradient id="SVGID_2_" gradientUnits="userSpaceOnUse" x1="289.2881" y1="209.2434" x2="-54.2772" y2="126.2869" gradientTransform="matrix(1 0 0 -1 0 226)">
	<stop  offset="0" style="stop-color:#787878"/>
	<stop  offset="0.4586" style="stop-color:#E1E1E1"/>
	<stop  offset="1" style="stop-color:#D5D6D5"/>
</linearGradient>
<path class="st4" d="M124.37,96.84h-0.03L6.6,82.21V36.93c-0.02-0.15-0.36-4.25,9.6-7.41c0.15-0.04,14.64-3.98,19.61,5.96l0.03,0.11
	v27.56H248.6v16.61l-0.22,0.03L124.37,96.84z"/>
<linearGradient id="SVGID_3_" gradientUnits="userSpaceOnUse" x1="203.25" y1="167.575" x2="231.11" y2="167.575" gradientTransform="matrix(1 0 0 -1 0 226)">
	<stop  offset="0" style="stop-color:#787878"/>
	<stop  offset="0.4586" style="stop-color:#E1E1E1"/>
	<stop  offset="1" style="stop-color:#D5D6D5"/>
</linearGradient>
<path class="st5" d="M231.11,63.65h-27.86V53.2h27.86V63.65z"/>
<path class="st6" d="M231.11,63.65h-27.86V53.2h27.86V63.65z M203.75,63.15h26.86V53.7h-26.86V63.15z"/>
<path class="st6" d="M124.37,96.84h-0.03L6.6,82.21V36.93c-0.02-0.15-0.36-4.25,9.6-7.41c0.15-0.04,14.64-3.98,19.61,5.96l0.03,0.11
	v27.56H248.6v16.61l-0.22,0.03L124.37,96.84z M7.1,81.76l117.27,14.57L248.1,79.32V63.65H35.35v-28c-4.81-9.5-18.86-5.69-19-5.65
	c-9.5,3.02-9.25,6.87-9.25,6.91L7.1,81.76z"/>
<linearGradient id="Path_5913_2_" gradientUnits="userSpaceOnUse" x1="-1771.9458" y1="-1556.9836" x2="-1772.9686" y2="-1556.9836" gradientTransform="matrix(0 -7.812 8.557 1.000000e-15 13611.8242 -13653.6699)">
	<stop  offset="0" style="stop-color:#311111"/>
	<stop  offset="0.536" style="stop-color:#EE3E3F"/>
	<stop  offset="1" style="stop-color:#600A0D"/>
</linearGradient>
<path id="Path_5913_1_" class="st7" d="M284.33,196.76v-7.99h8.77v7.99H284.33z"/>
<linearGradient id="Path_5914_2_" gradientUnits="userSpaceOnUse" x1="-1771.8857" y1="-1556.9836" x2="-1772.9086" y2="-1556.9836" gradientTransform="matrix(0 -7.812 8.557 1.000000e-15 13611.8242 -13674.6309)">
	<stop  offset="0" style="stop-color:#311111"/>
	<stop  offset="0.536" style="stop-color:#EE3E3F"/>
	<stop  offset="1" style="stop-color:#600A0D"/>
</linearGradient>
<path id="Path_5914_1_" class="st8" d="M284.33,175.33v-7.99h8.77v7.99H284.33z"/>
<linearGradient id="Path_5915_2_" gradientUnits="userSpaceOnUse" x1="-1771.7106" y1="-1556.9836" x2="-1772.7333" y2="-1556.9836" gradientTransform="matrix(0 -7.812 8.557 1.000000e-15 13611.8242 -13734.832)">
	<stop  offset="0" style="stop-color:#311111"/>
	<stop  offset="0.536" style="stop-color:#EE3E3F"/>
	<stop  offset="1" style="stop-color:#600A0D"/>
</linearGradient>
<path id="Path_5915_1_" class="st9" d="M284.33,113.76v-7.99h8.77v7.99H284.33z"/>
<linearGradient id="Rectangle_22731_2_" gradientUnits="userSpaceOnUse" x1="-1397.7386" y1="-1617.8875" x2="-1398.7614" y2="-1617.8875" gradientTransform="matrix(1.000000e-15 -16.926 7.157 0 11875.5557 -23473.7266)">
	<stop  offset="0" style="stop-color:#C02026"/>
	<stop  offset="0.536" style="stop-color:#EE3E3F"/>
	<stop  offset="1" style="stop-color:#600A0D"/>
</linearGradient>
<rect id="Rectangle_22731_1_" x="292.67" y="184.4" class="st10" width="7.33" height="17.31"/>
<linearGradient id="Rectangle_22739_2_" gradientUnits="userSpaceOnUse" x1="-1397.7106" y1="-1617.8875" x2="-1398.7333" y2="-1617.8875" gradientTransform="matrix(1.000000e-15 -16.926 7.157 0 11875.5557 -23494.6914)">
	<stop  offset="0" style="stop-color:#C02026"/>
	<stop  offset="0.536" style="stop-color:#EE3E3F"/>
	<stop  offset="1" style="stop-color:#600A0D"/>
</linearGradient>
<rect id="Rectangle_22739_1_" x="292.67" y="162.96" class="st11" width="7.33" height="17.31"/>
<linearGradient id="Rectangle_22740_2_" gradientUnits="userSpaceOnUse" x1="-1397.6296" y1="-1617.8875" x2="-1398.6523" y2="-1617.8875" gradientTransform="matrix(1.000000e-15 -16.926 7.157 0 11875.5557 -23554.8906)">
	<stop  offset="0" style="stop-color:#C02026"/>
	<stop  offset="0.536" style="stop-color:#EE3E3F"/>
	<stop  offset="1" style="stop-color:#600A0D"/>
</linearGradient>
<rect id="Rectangle_22740_1_" x="292.67" y="101.39" class="st12" width="7.33" height="17.31"/>
<linearGradient id="Path_5890_2_" gradientUnits="userSpaceOnUse" x1="-1123.9939" y1="-1263.3645" x2="-1123.9766" y2="-1264.3943" gradientTransform="matrix(7.000000e-15 -116.743 146.492 9.000000e-15 185220.9531 -131078.125)">
	<stop  offset="0" style="stop-color:#831618"/>
	<stop  offset="1" style="stop-color:#3D1210"/>
</linearGradient>
<path id="Path_5890_1_" class="st13" d="M156.76,199.99L0,198.29L0.55,82.24l169.62-1.65L156.76,199.99z"/>
<path id="Path_5892_1_" class="st14" d="M266.43,201.61h18.33V80.57h-31.95L266.43,201.61z"/>
<linearGradient id="SVGID_4_" gradientUnits="userSpaceOnUse" x1="134.6471" y1="146.8771" x2="288.038" y2="146.8771">
	<stop  offset="0" style="stop-color:#C2C5C6"/>
	<stop  offset="0.928" style="stop-color:#D5D6D5"/>
</linearGradient>
<circle class="st15" cx="211.58" cy="146.88" r="76.93"/>
<path id="Path_5897_1_" class="st16" d="M0.37,125.23v-13.39h72.09l-28.31,18.2l-10.81-4.82L0.37,125.23z"/>
<path id="Path_5898_1_" class="st17" d="M73.02,169.86l-19-11.72L37,133.41l9.99-6.6l25.48-14.97
	C72.46,111.84,71.34,171.54,73.02,169.86z"/>
<path id="Path_5899_1_" class="st18" d="M54.02,158.15L0.2,158.14l0.17-32.91h32.97l20.68,8.93V158.15z"/>
<path id="Path_5900_1_" class="st16" d="M0.09,169.77l72.93,0.09l-19-11.72H0.21C0.21,158.15,0.09,170.33,0.09,169.77z"/>
<radialGradient id="Ellipse_358_2_" cx="-1617.2274" cy="-1491.3627" r="0.5491" gradientTransform="matrix(1.000000e-15 -9.8637 9.8788 1.000000e-15 14774.7578 -15812.5381)" gradientUnits="userSpaceOnUse">
	<stop  offset="0" style="stop-color:#FFFFFF"/>
	<stop  offset="1" style="stop-color:#898989"/>
</radialGradient>
<ellipse id="Ellipse_358_1_" class="st19" cx="41.9" cy="139.36" rx="5.42" ry="5.42"/>
<linearGradient id="SVGID_5_" gradientUnits="userSpaceOnUse" x1="205.37" y1="59.49" x2="223.37" y2="59.49" gradientTransform="matrix(1 0 0 1 0 126)">
	<stop  offset="0" style="stop-color:#787878"/>
	<stop  offset="0.4586" style="stop-color:#E1E1E1"/>
	<stop  offset="1" style="stop-color:#D5D6D5"/>
</linearGradient>
<path class="st20" d="M223.37,200.59h-18v-30.2h18V200.59z"/>
<linearGradient id="SVGID_6_" gradientUnits="userSpaceOnUse" x1="210.3478" y1="-38.5466" x2="225.7391" y2="-38.5466" gradientTransform="matrix(1 0 0 1 0 252)">
	<stop  offset="0" style="stop-color:#787878"/>
	<stop  offset="0.4586" style="stop-color:#E1E1E1"/>
	<stop  offset="1" style="stop-color:#D5D6D5"/>
</linearGradient>
<path class="st21" d="M210.33,223.52l0.56-10.2c-6.22-1.23-5.49-9.64-5.48-9.72l0.02-0.23h17.99l0.01,0.24
	c0.12,3.48-0.68,6.13-2.38,7.87c-1.65,1.68-3.64,1.99-4.4,2.05l2.2,9.65c0,0-3.15,0.28-4.18,0.32
	C213.58,223.55,210.33,223.52,210.33,223.52z"/>
<radialGradient id="Ellipse_361_2_" cx="-1616.3314" cy="-1491.554" r="0.5491" gradientTransform="matrix(1.000000e-15 -9.8637 9.8788 1.000000e-15 14755.5225 -15902.5049)" gradientUnits="userSpaceOnUse">
	<stop  offset="0" style="stop-color:#FFFFFF"/>
	<stop  offset="1" style="stop-color:#898989"/>
</radialGradient>
<ellipse id="Ellipse_361_1_" class="st22" cx="20.78" cy="40.56" rx="5.42" ry="5.42"/>
<ellipse id="Ellipse_362_1_" class="st23" cx="22.86" cy="71.69" rx="8.13" ry="8.11"/>
<ellipse id="Ellipse_368_1_" class="st23" cx="20.76" cy="40.45" rx="8.13" ry="8.11"/>
<radialGradient id="Ellipse_363_2_" cx="37537.25" cy="-1562.2754" r="0.5487" gradientTransform="matrix(0 -7.6604 7.6727 0 12009.9727 287622.0625)" gradientUnits="userSpaceOnUse">
	<stop  offset="0" style="stop-color:#FFFFFF"/>
	<stop  offset="1" style="stop-color:#898989"/>
</radialGradient>
<ellipse id="Ellipse_363_1_" class="st24" cx="22.86" cy="71.69" rx="4.21" ry="4.21"/>
<ellipse id="Ellipse_366_1_" class="st23" cx="55.33" cy="72.72" rx="6.81" ry="6.8"/>
<radialGradient id="Ellipse_367_2_" cx="37402.2813" cy="-1622.9542" r="0.5491" gradientTransform="matrix(0 -6.4218 6.4316 0 10493.1465 240263.0938)" gradientUnits="userSpaceOnUse">
	<stop  offset="0" style="stop-color:#FFFFFF"/>
	<stop  offset="1" style="stop-color:#898989"/>
</radialGradient>
<ellipse id="Ellipse_367_1_" class="st25" cx="55.33" cy="72.72" rx="3.53" ry="3.53"/>
<path id="Path_5910_1_" class="st26" d="M184.76,34.02l0.66-6.87l-4.24-19.43l-3.34,0.61L184.76,34.02z"/>
<path id="Path_5911_1_" class="st27" d="M185.41,27.16c0,0,35.38-11.93,63.59,4.3l-0.54,5.61c0,0-8.69-5.52-31.78-7
	c-13.09,1.08-22.14,1.21-31.99,3.91L185.41,27.16z"/>
<linearGradient id="SVGID_7_" gradientUnits="userSpaceOnUse" x1="205.37" y1="-19.43" x2="223.37" y2="-19.43" gradientTransform="matrix(1 0 0 1 0 126)">
	<stop  offset="0" style="stop-color:#787878"/>
	<stop  offset="0.4586" style="stop-color:#E1E1E1"/>
	<stop  offset="1" style="stop-color:#D5D6D5"/>
</linearGradient>
<path class="st28" d="M223.37,121.67h-18v-30.2h18V121.67z"/>
<linearGradient id="SVGID_8_" gradientUnits="userSpaceOnUse" x1="209.3044" y1="-171.9576" x2="224.1739" y2="-171.9576" gradientTransform="matrix(1 0 0 1 0 252)">
	<stop  offset="0" style="stop-color:#787878"/>
	<stop  offset="0.4586" style="stop-color:#E1E1E1"/>
	<stop  offset="1" style="stop-color:#D5D6D5"/>
</linearGradient>
<path class="st29" d="M223.43,89.83h-17.99l-0.02-0.23c-0.01-0.09-0.74-8.46,5.45-9.72l-1.79-9.63l9.5,0.19l-1.91,9.23
	c0.76,0.06,2.75,0.37,4.4,2.05c1.7,1.74,2.5,4.39,2.38,7.87L223.43,89.83z"/>
<linearGradient id="SVGID_9_" gradientUnits="userSpaceOnUse" x1="204.9947" y1="351.635" x2="223.3467" y2="351.635" gradientTransform="matrix(1 0 0 -1 0 478)">
	<stop  offset="0" style="stop-color:#775C25"/>
	<stop  offset="1" style="stop-color:#E3BD6B"/>
</linearGradient>
<path class="st30" d="M222.2,131.6h-15.29l-0.07-0.08c-1.29-1.39-1.91-2.93-1.84-4.57c0.14-3.2,2.81-5.66,2.93-5.76l0.07-0.06h12
	l0.07,0.06c5.7,4.98,2.24,10.25,2.2,10.31L222.2,131.6z"/>
<linearGradient id="SVGID_10_" gradientUnits="userSpaceOnUse" x1="204.9947" y1="-310.9174" x2="223.3467" y2="-310.9174" gradientTransform="matrix(1 0 0 1 0 476.0124)">
	<stop  offset="0" style="stop-color:#775C25"/>
	<stop  offset="1" style="stop-color:#E3BD6B"/>
</linearGradient>
<path class="st31" d="M222.2,159.86h-15.29l-0.07,0.08c-1.29,1.39-1.91,2.93-1.84,4.57c0.14,3.2,2.81,5.66,2.93,5.76l0.07,0.06h12
	l0.07-0.06c5.7-4.98,2.24-10.25,2.2-10.31L222.2,159.86z"/>
<linearGradient id="SVGID_11_" gradientUnits="userSpaceOnUse" x1="1017.7015" y1="-499.8433" x2="1036.0636" y2="-499.8433" gradientTransform="matrix(6.123234e-17 -1 1 6.123234e-17 729.7983 1174.5569)">
	<stop  offset="0" style="stop-color:#775C25"/>
	<stop  offset="1" style="stop-color:#E3BD6B"/>
</linearGradient>
<path class="st32" d="M224.72,139.65v15.29l0.08,0.07c1.39,1.29,2.93,1.91,4.57,1.84c3.2-0.14,5.66-2.81,5.76-2.93l0.06-0.07v-12.01
	l-0.06-0.07c-4.98-5.7-10.25-2.24-10.31-2.2L224.72,139.65z"/>
<linearGradient id="SVGID_12_" gradientUnits="userSpaceOnUse" x1="250.1275" y1="12.0293" x2="250.535" y2="32.6099" gradientTransform="matrix(1 0 0 1 0 126)">
	<stop  offset="0" style="stop-color:#787878"/>
	<stop  offset="0.4586" style="stop-color:#E1E1E1"/>
	<stop  offset="1" style="stop-color:#D5D6D5"/>
</linearGradient>
<path class="st33" d="M265.45,156.99H235.2v-17.97h30.25V156.99z"/>
<path class="st34" d="M268.05,139.31c0,0,8.46-0.81,9.51,5.48l10.09-1.89v9.26l-9.91-2.18c0,0,0.11,7.17-9.69,6.82V139.31z"/>
<rect x="268.05" y="146.98" class="st35" width="19.6" height="1.84"/>
<linearGradient id="SVGID_13_" gradientUnits="userSpaceOnUse" x1="277.8022" y1="-108.7745" x2="278.3239" y2="-97.5571" gradientTransform="matrix(1 0 0 1 0 252)">
	<stop  offset="0" style="stop-color:#787878"/>
	<stop  offset="0.4586" style="stop-color:#E1E1E1"/>
	<stop  offset="1" style="stop-color:#D5D6D5"/>
</linearGradient>
<path class="st36" d="M269,157.07c-0.23,0-0.46,0-0.7-0.01l-0.24-0.01v-17.97l0.23-0.02c0.08-0.01,8.48-0.74,9.73,5.44l10.14-1.9
	v9.87l-9.92-2.18c-0.06,0.76-0.37,2.74-2.05,4.38C274.57,156.26,272.15,157.07,269,157.07z"/>
<path id="Path_5916_1_" class="st37" d="M211.74,213.72c36.35-0.01,65.8-29.42,65.8-65.69c0.01-36.27-29.45-65.68-65.8-65.69
	c-36.35,0.01-65.8,29.42-65.8,65.69l0,0C145.93,184.31,175.39,213.72,211.74,213.72z M178.04,148.04
	c-0.02-18.58,15.07-33.66,33.69-33.68c0.01,0,0.01,0,0.02,0c18.63,0,33.73,15.08,33.73,33.67l0,0c0,18.59-15.1,33.66-33.73,33.66
	C193.13,181.69,178.04,166.63,178.04,148.04L178.04,148.04z"/>
<radialGradient id="Path_5917_1_" cx="-1034.8783" cy="-1265.384" r="0.5502" gradientTransform="matrix(-7.000000e-15 120.3231 120.4669 7.000000e-15 152648.6563 122474.9219)" gradientUnits="userSpaceOnUse">
	<stop  offset="0.745" style="stop-color:#333637"/>
	<stop  offset="0.897" style="stop-color:#3B3F40"/>
	<stop  offset="1" style="stop-color:#585B5A"/>
</radialGradient>
<path id="Path_5917_2_" class="st38" d="M213.49,212.16l0.22,2.08l9.88-1.04l-0.22-2.07c-0.28-2.43,0.9-5.05,2.74-4.57
	c1.08,0.28-0.05,1.43,0.71,3.83h-0.01v0.01h0.01l0.64,1.97l9.44-3.06l-0.64-1.96c0.01,0,0.01-0.01,0.02-0.01c0.01,0,0-0.01,0-0.01
	l-0.01,0.01c-0.78-2.31-0.18-5.12,1.73-5.03c1.1,0.05,0.27,1.37,1.45,3.52c0.04,0.04,0.06,0.09,0.07,0.15l1.01,1.73l8.6-4.95
	l-1.04-1.81l-0.01,0.01c-1.24-2.1-1.24-4.98,0.65-5.28c1.1-0.18,0.54,1.32,2.2,3.21l0.01,0.01l1.39,1.55l7.38-6.63l-1.4-1.55
	l0.01-0.01c-1.65-1.8-2.25-4.6-0.47-5.29c1.04-0.4,0.8,1.18,2.82,2.68l-0.01,0.01l1.69,1.23l5.84-8.02l-1.68-1.22h-0.01l0,0
	c-1.99-1.42-3.15-4.04-1.56-5.08c0.94-0.61,1.04,0.99,3.32,2.03l-0.01,0.01h0.01l0.01-0.01l1.9,0.85l4.04-9.06l-1.9-0.84l0,0
	c-0.02-0.01-0.04-0.02-0.05-0.03c-2.21-0.99-3.87-3.28-2.54-4.62c0.78-0.79,1.21,0.73,3.63,1.29h0.01c0.01,0,0.02,0.01,0.04,0.01
	l0,0c0.01,0,0.02,0.01,0.03,0.01l2.01,0.42l2.06-9.7l-2.03-0.43v0.01c-2.4-0.48-4.54-2.41-3.5-4.01c0.6-0.93,1.34,0.48,3.85,0.51
	v0.01h2.09v-9.92h-2.09c-2.43,0.02-4.93-1.42-4.25-3.19c0.4-1.04,1.41,0.19,3.88-0.3v0.02h0.01v-0.02l2.03-0.43l-2.06-9.7
	l-2.04,0.43h-0.01c-2.39,0.53-5.12-0.36-4.83-2.24c0.17-1.1,1.43-0.11,3.73-1.1v0.01l0.01-0.01v-0.01l1.9-0.84l-4.04-9.06l-1.9,0.84
	l0.01,0.01c-2.22,1.01-5.09,0.72-5.2-1.19c-0.06-1.11,1.37-0.4,3.43-1.85v0.01l1.69-1.23l-5.84-8.02l-1.68,1.22l-0.02,0.02
	l-0.01-0.01c-1.97,1.45-4.81,1.74-5.3-0.09c-0.29-1.08,1.25-0.68,2.96-2.52v-0.01l1.4-1.55l-7.38-6.63l-1.38,1.53l-0.01,0.01
	c-1.62,1.82-4.35,2.71-5.23,1.01c-0.51-0.99,1.09-0.92,2.38-3.08l1.04-1.8l-8.6-4.96l-1.04,1.79h0.01c-1.2,2.13-3.7,3.56-4.9,2.09
	c-0.7-0.87,0.88-1.13,1.68-3.51l0,0c0,0,0-0.01,0.01-0.01h-0.01l0.64-1.96l-9.44-3.07l-0.64,1.96v0.01
	c-0.74,2.33-2.87,4.25-4.36,3.05c-0.87-0.69,0.62-1.28,0.91-3.77l0,0v-0.01h-0.01l0.22-2.07l-9.88-1.03l-0.22,2.06h0.01
	c-0.23,2.43-1.93,4.75-3.63,3.89c-0.99-0.5,0.34-1.38,0.1-3.88V83.9l-0.22-2.07l-9.88,1.03l0.22,2.07h0.01
	c0.28,2.42-0.89,5.05-2.74,4.57c-1.06-0.29,0.03-1.41-0.69-3.78c-0.01-0.02-0.02-0.04-0.02-0.06L196,83.69l-9.44,3.07l0.64,1.96
	h0.01c0.78,2.32,0.18,5.12-1.73,5.03c-1.11-0.06-0.25-1.41-1.49-3.59H184l-0.01-0.01h-0.01l-1.04-1.79l-8.6,4.96l1.04,1.79v0.01
	c1.24,2.1,1.24,4.97-0.64,5.27c-1.1,0.18-0.54-1.32-2.2-3.21h0.02l-1.4-1.54l-7.37,6.63l1.39,1.54v0.01
	c1.65,1.79,2.25,4.6,0.47,5.29c-1.04,0.41-0.8-1.17-2.81-2.68l-0.01,0.01l-1.7-1.24l-5.83,8.02l1.68,1.23l0.01-0.01
	c2,1.41,3.16,4.04,1.57,5.08c-0.94,0.61-1.03-0.99-3.32-2.04l0.01-0.01l-0.01-0.01l-0.01,0.01l-1.9-0.84l-4.03,9.06l1.89,0.84v0.01
	h0.01v-0.01c2.24,0.97,3.93,3.3,2.59,4.65c-0.78,0.79-1.21-0.74-3.64-1.29c-0.04,0-0.07-0.01-0.1-0.02l-1.97-0.42l-2.06,9.7
	l2.04,0.43c2.4,0.48,4.53,2.41,3.5,4.01c-0.6,0.93-1.34-0.48-3.86-0.51h-2.09V153h2.09v-0.01c2.44-0.02,4.93,1.41,4.25,3.19
	c-0.39,1.04-1.41-0.19-3.88,0.3v-0.02h-0.01v0.02l-2.04,0.45l2.06,9.69l2.04-0.43v-0.01c2.38-0.53,5.12,0.36,4.83,2.24
	c-0.17,1.1-1.43,0.1-3.74,1.1l-0.01-0.02l-0.01,0.01l0.01,0.02l-1.89,0.84l4.03,9.06l1.9-0.85l0,0l0,0l0,0
	c2.22-1.01,5.09-0.72,5.19,1.19c0.06,1.11-1.37,0.4-3.42,1.85L157,181.6h-0.01l0.01,0.02l-1.69,1.22l5.83,8.02l1.69-1.22l-0.01-0.01
	c1.96-1.45,4.82-1.75,5.33,0.08c0.29,1.07-1.26,0.67-2.97,2.52l-0.02-0.02v0.01l0.01,0.02l-1.39,1.55l7.37,6.63l1.4-1.56l0.01,0.01
	c1.61-1.82,4.34-2.71,5.22-1.02c0.51,0.99-1.09,0.92-2.37,3.08h-0.01l-1.04,1.81l8.6,4.95l1.04-1.79l0.01,0.01l0.01-0.01H184
	c1.2-2.12,3.69-3.56,4.9-2.08c0.7,0.86-0.88,1.13-1.68,3.51l-0.02-0.01c0,0.01,0,0.01-0.01,0.02l0.02,0.01l-0.64,1.96l9.44,3.06
	l0.64-1.97v-0.01c0.01-0.03,0.01-0.05,0.03-0.08c0.76-2.29,2.86-4.15,4.33-2.98c0.87,0.7-0.63,1.29-0.92,3.78h-0.02v0.01h0.02
	l-0.22,2.07l9.88,1.04l0.22-2.07v-0.01c0.23-2.43,1.92-4.74,3.63-3.89C214.59,208.78,213.26,209.66,213.49,212.16L213.49,212.16z
	 M211.74,185.35c-20.64,0-37.38-16.71-37.37-37.31c0,0,0,0,0-0.01c0-20.6,16.73-37.31,37.37-37.31
	c20.65,0.01,37.38,16.71,37.37,37.31C249.12,168.64,232.39,185.35,211.74,185.35L211.74,185.35L211.74,185.35z"/>
<linearGradient id="Path_5917_4_" gradientUnits="userSpaceOnUse" x1="251.6937" y1="-182.1431" x2="167.5304" y2="-282.7993" gradientTransform="matrix(1 0 0 1 0 378)">
	<stop  offset="0" style="stop-color:#5D5E5E"/>
	<stop  offset="0.9615" style="stop-color:#C2C5C6"/>
</linearGradient>
<path id="Path_5917_3_" class="st39" d="M213.47,212.17l0.22,2.08l9.88-1.04l-0.22-2.07c-0.28-2.43,0.9-5.05,2.74-4.57
	c1.08,0.28-0.05,1.43,0.71,3.83h-0.01v0.01h0.01l0.64,1.97l9.44-3.06l-0.64-1.96c0.01,0,0.01-0.01,0.02-0.01c0.01,0,0-0.01,0-0.01
	l-0.01,0.01c-0.78-2.31-0.18-5.12,1.73-5.03c1.1,0.05,0.27,1.37,1.45,3.52c0.04,0.04,0.06,0.09,0.07,0.15l1.01,1.73l8.6-4.95
	l-1.04-1.81l-0.01,0.01c-1.24-2.1-1.24-4.98,0.65-5.28c1.1-0.18,0.54,1.32,2.2,3.21l0.01,0.01l1.39,1.55l7.38-6.63l-1.4-1.55
	l0.01-0.01c-1.65-1.8-2.25-4.6-0.47-5.29c1.04-0.4,0.8,1.18,2.82,2.68l-0.01,0.01l1.69,1.23l5.84-8.02l-1.68-1.22h-0.01l0,0
	c-1.99-1.42-3.15-4.04-1.56-5.08c0.94-0.61,1.04,0.99,3.32,2.03l-0.01,0.01h0.01l0.01-0.01l1.9,0.85l4.04-9.06l-1.9-0.84l0,0
	c-0.02-0.01-0.04-0.02-0.05-0.03c-2.21-0.99-3.87-3.28-2.54-4.62c0.78-0.79,1.21,0.73,3.63,1.29h0.01c0.01,0,0.02,0.01,0.04,0.01
	l0,0c0.01,0,0.02,0.01,0.03,0.01l2.01,0.42l2.06-9.7l-2.03-0.43v0.01c-2.4-0.48-4.54-2.41-3.5-4.01c0.6-0.93,1.34,0.48,3.85,0.51
	v0.01h2.09v-9.92h-2.09c-2.43,0.02-4.93-1.42-4.25-3.19c0.4-1.04,1.41,0.19,3.88-0.3v0.02h0.01v-0.02l2.03-0.43l-2.06-9.7
	l-2.04,0.43h-0.01c-2.39,0.53-5.12-0.36-4.83-2.24c0.17-1.1,1.43-0.11,3.73-1.1v0.01l0.01-0.01v-0.03l1.9-0.84l-4.04-9.06l-1.9,0.84
	l0.01,0.01c-2.22,1.01-5.09,0.72-5.2-1.19c-0.06-1.11,1.37-0.4,3.43-1.85v0.01l1.69-1.23l-5.84-8.02l-1.68,1.22l-0.02,0.02
	l-0.01-0.01c-1.97,1.45-4.81,1.74-5.3-0.09c-0.29-1.08,1.25-0.68,2.96-2.52v-0.01l1.4-1.55l-7.38-6.63l-1.38,1.53l-0.01,0.01
	c-1.62,1.82-4.35,2.71-5.23,1.01c-0.51-0.99,1.09-0.92,2.38-3.08l1.04-1.8l-8.6-4.96l-1.04,1.79h0.01c-1.2,2.13-3.7,3.56-4.9,2.09
	c-0.7-0.87,0.88-1.12,1.68-3.51l0,0c0,0,0-0.01,0.01-0.01h-0.01l0.64-1.96l-9.44-3.07l-0.64,1.96v0.01
	c-0.74,2.33-2.87,4.25-4.36,3.05c-0.87-0.69,0.62-1.28,0.91-3.77l0,0v-0.01h-0.01l0.22-2.07l-9.88-1.03l-0.22,2.06h0.01
	c-0.23,2.43-1.93,4.75-3.63,3.89c-0.99-0.5,0.34-1.38,0.1-3.88v-0.01l-0.22-2.07l-9.88,1.05l0.22,2.07h0.01
	c0.28,2.42-0.89,5.05-2.74,4.57c-1.06-0.29,0.03-1.41-0.69-3.78c-0.01-0.02-0.02-0.04-0.02-0.06l-0.64-1.98l-9.44,3.07l0.64,1.96
	h0.01c0.78,2.32,0.18,5.12-1.73,5.03c-1.11-0.06-0.25-1.41-1.49-3.59h0.01l-0.01-0.01h-0.01l-1.04-1.79l-8.6,4.96l1.04,1.79v0.01
	c1.24,2.1,1.24,4.97-0.64,5.27c-1.1,0.18-0.54-1.32-2.2-3.21h0.02l-1.4-1.54l-7.37,6.63l1.39,1.54v0.01
	c1.65,1.79,2.25,4.6,0.47,5.29c-1.04,0.41-0.8-1.17-2.81-2.68l-0.01,0.01l-1.7-1.24l-5.83,8.02l1.68,1.23l0.01-0.01
	c2,1.41,3.16,4.04,1.57,5.08c-0.94,0.61-1.03-0.99-3.32-2.04l0.01-0.01l-0.01-0.01l-0.01,0.01l-1.9-0.84l-4.03,9.06l1.89,0.84v0.01
	h0.01v0.01c2.24,0.97,3.93,3.3,2.59,4.65c-0.78,0.79-1.21-0.74-3.64-1.29c-0.04,0-0.07-0.01-0.1-0.02l-1.97-0.42l-2.06,9.7
	l2.04,0.43c2.4,0.48,4.53,2.41,3.5,4.01c-0.6,0.93-1.34-0.48-3.86-0.51h-2.09v9.92h2.09v-0.01c2.44-0.02,4.93,1.41,4.25,3.19
	c-0.39,1.04-1.41-0.19-3.88,0.3v-0.02h-0.01v0.02l-2.04,0.45l2.06,9.69l2.04-0.43v-0.01c2.38-0.53,5.12,0.36,4.83,2.24
	c-0.17,1.1-1.43,0.1-3.74,1.1l-0.01-0.02l-0.01,0.01l0.01,0.02l-1.89,0.84l4.03,9.06l1.9-0.85l0,0l0,0l0,0
	c2.22-1.01,5.09-0.72,5.19,1.19c0.06,1.11-1.37,0.4-3.42,1.85l-0.01-0.02h-0.01l0.01,0.02l-1.69,1.22l5.83,8.02l1.69-1.22
	l-0.01-0.01c1.96-1.45,4.82-1.75,5.33,0.08c0.29,1.07-1.26,0.67-2.97,2.52l-0.02-0.02v0.01l0.01,0.02l-1.39,1.55l7.37,6.63l1.4-1.56
	l0.01,0.01c1.61-1.82,4.34-2.71,5.22-1.02c0.51,0.99-1.09,0.92-2.37,3.08h-0.01l-1.04,1.81l8.6,4.95l1.04-1.79l0.01,0.01l0.01-0.01
	l-0.01-0.01c1.2-2.12,3.69-3.56,4.9-2.08c0.7,0.86-0.88,1.13-1.68,3.51l-0.02-0.01c0,0.01,0,0.01-0.01,0.02l0.02,0.01l-0.65,1.96
	l9.44,3.06l0.64-1.97v-0.01c0.01-0.03,0.01-0.05,0.03-0.08c0.76-2.29,2.86-4.15,4.33-2.98c0.87,0.7-0.63,1.29-0.92,3.78h-0.02v0.01
	h0.02l-0.22,2.07l9.88,1.04l0.22-2.07v-0.01c0.23-2.43,1.92-4.74,3.63-3.89C214.57,208.79,213.23,209.67,213.47,212.17
	L213.47,212.17z M211.71,185.36c-20.64,0-37.38-16.71-37.37-37.31c0,0,0,0,0-0.01c0-20.6,16.73-37.31,37.37-37.31
	c20.65,0.01,37.38,16.71,37.37,37.31C249.09,168.65,232.36,185.36,211.71,185.36L211.71,185.36L211.71,185.36z"/>
<linearGradient id="Path_5918_2_" gradientUnits="userSpaceOnUse" x1="-1136.9365" y1="-1274.2097" x2="-1136.9365" y2="-1275.2346" gradientTransform="matrix(6.000000e-15 -91.324 91.275 6.000000e-15 116562.0156 -103681.5547)">
	<stop  offset="0" style="stop-color:#3B3F40"/>
	<stop  offset="0.623" style="stop-color:#323435"/>
	<stop  offset="1" style="stop-color:#2B2C2D"/>
</linearGradient>
<path id="Path_5918_1_" class="st40" d="M211.75,194.74c25.84-0.01,46.78-20.91,46.77-46.7l0,0c0.01-25.78-20.93-46.69-46.77-46.7
	l0,0c-25.84,0.01-46.78,20.92-46.77,46.7C164.97,173.83,185.91,194.74,211.75,194.74z M211.75,185.68
	c-20.82,0-37.7-16.85-37.69-37.63c0,0,0,0,0-0.01c-0.01-20.78,16.87-37.63,37.69-37.64c20.82,0.01,37.7,16.86,37.69,37.64
	C249.45,168.82,232.58,185.67,211.75,185.68L211.75,185.68z"/>
<path id="Path_5919_1_" class="st41" d="M211.93,190.31c11.34-0.05,22.19-4.66,30.09-12.78l2.99-3.32c0.7-0.95,1.41-1.9,2.09-2.92
	c0.85-1.23,1.6-2.53,2.24-3.89c3.18-6.01,4.81-12.72,4.76-19.52c0-6.83-1.69-13.56-4.91-19.59l-2.36-3.89
	c-0.63-0.99-1.33-1.93-2.09-2.83l-0.07-0.14l-2.81-3.05l-0.13-0.14c-7.95-8.05-18.81-12.55-30.13-12.5
	c-2.39,0.01-4.78,0.23-7.13,0.65c-1.47,0.23-2.93,0.57-4.35,1c-1.16,0.31-2.29,0.74-3.4,1.13c-1.42,0.49-2.8,1.12-4.1,1.88
	c-12.29,6.18-20.79,17.96-22.76,31.55c-0.21,1.45-0.32,2.92-0.34,4.38c-0.09,0.62-0.12,1.25-0.11,1.88
	c-0.01,0.6,0.03,1.19,0.11,1.79c0.04,1.48,0.17,2.96,0.38,4.43c2.12,13.57,10.69,25.28,23,31.42c1.33,0.68,2.71,1.27,4.12,1.77
	c1.09,0.48,2.23,0.85,3.39,1.11c1.43,0.44,2.89,0.78,4.37,1C207.13,190.12,209.53,190.31,211.93,190.31z M211.75,181.7
	c-18.62-0.01-33.71-15.07-33.71-33.66l0,0c-0.02-18.58,15.07-33.66,33.69-33.68c0.01,0,0.01,0,0.02,0
	c18.63,0,33.73,15.08,33.73,33.67l0,0C245.47,166.63,230.38,181.7,211.75,181.7L211.75,181.7z"/>
<radialGradient id="Path_5920_2_" cx="-1010.8979" cy="-1276.5542" r="0.5491" gradientTransform="matrix(-5.000000e-15 76.9965 77.1354 5.000000e-15 98679.2734 75788.1641)" gradientUnits="userSpaceOnUse">
	<stop  offset="0.721" style="stop-color:#FFFFFF"/>
	<stop  offset="0.765" style="stop-color:#DCE0E1"/>
	<stop  offset="0.843" style="stop-color:#A6B0B2"/>
	<stop  offset="0.902" style="stop-color:#849396"/>
	<stop  offset="0.933" style="stop-color:#79878C"/>
</radialGradient>
<path id="Path_5920_1_" class="st42" d="M211.94,190.31c11.34-0.05,22.19-4.66,30.09-12.78l2.99-3.32c0.7-0.95,1.41-1.9,2.09-2.92
	c0.85-1.23,1.6-2.53,2.24-3.89c3.18-6.01,4.81-12.72,4.76-19.52c0-6.83-1.69-13.56-4.92-19.59l-2.36-3.89
	c-0.63-0.99-1.33-1.93-2.09-2.83l-0.07-0.14l-2.81-3.05l-0.13-0.14c-7.95-8.05-18.81-12.55-30.13-12.5
	c-2.39,0.01-4.78,0.23-7.14,0.65c-1.47,0.24-2.92,0.57-4.35,1c-1.16,0.31-2.29,0.74-3.4,1.13c-1.42,0.49-2.8,1.12-4.1,1.88
	c-12.29,6.18-20.79,17.96-22.76,31.55c-0.21,1.45-0.32,2.92-0.34,4.38c-0.09,0.62-0.12,1.25-0.11,1.88
	c-0.01,0.6,0.03,1.19,0.11,1.79c0.04,1.48,0.16,2.96,0.38,4.43c2.12,13.57,10.69,25.28,23,31.42c1.33,0.68,2.71,1.27,4.12,1.77
	c1.09,0.48,2.23,0.85,3.39,1.11c1.43,0.44,2.89,0.78,4.37,1C207.14,190.11,209.54,190.31,211.94,190.31z M211.75,185.03
	c-20.48-0.01-37.07-16.57-37.07-37.01c0-20.43,16.59-37,37.07-37s37.07,16.57,37.07,37l0,0
	C248.82,168.46,232.23,185.03,211.75,185.03C211.75,185.04,211.75,185.04,211.75,185.03L211.75,185.03z"/>
<linearGradient id="Path_5921_2_" gradientUnits="userSpaceOnUse" x1="-1132.1294" y1="-1269.0253" x2="-1132.8525" y2="-1269.7484" gradientTransform="matrix(5.000000e-15 -88.7153 88.6722 5.000000e-15 113320.2578 -100870.7188)">
	<stop  offset="0" style="stop-color:#9FA9AC"/>
	<stop  offset="0.246" style="stop-color:#A3ACAE"/>
	<stop  offset="0.442" style="stop-color:#ADB5B6"/>
	<stop  offset="0.621" style="stop-color:#BCC3C5"/>
	<stop  offset="0.79" style="stop-color:#D4D9D9"/>
	<stop  offset="0.95" style="stop-color:#F2F5F6"/>
	<stop  offset="1" style="stop-color:#FFFFFF"/>
</linearGradient>
<path id="Path_5921_1_" class="st43" d="M211.91,193.4c12.17-0.04,23.82-4.98,32.29-13.7l3.2-3.57c0.76-0.99,1.53-2.03,2.23-3.13
	c0.92-1.32,1.74-2.72,2.43-4.18c3.39-6.46,5.14-13.65,5.1-20.94c0-7.33-1.81-14.55-5.29-21.01l-2.53-4.19
	c-0.68-1.06-1.43-2.07-2.24-3.04l-0.06-0.14l-3-3.27l-0.15-0.16c-8.53-8.63-20.19-13.47-32.34-13.42c-2.56,0.01-5.11,0.26-7.63,0.73
	c-1.59,0.24-3.15,0.59-4.69,1.04c-1.22,0.35-2.45,0.8-3.63,1.21c-1.52,0.55-3,1.23-4.41,2.02c-13.18,6.64-22.29,19.27-24.41,33.84
	c-0.24,1.56-0.37,3.14-0.4,4.72c-0.07,0.67-0.11,1.34-0.1,2.02c0,0.63,0.03,1.27,0.1,1.9c0.06,1.59,0.2,3.18,0.43,4.76
	c2.27,14.56,11.46,27.12,24.67,33.71c1.43,0.73,2.91,1.36,4.42,1.9c1.18,0.5,2.4,0.89,3.64,1.18c1.54,0.49,3.12,0.84,4.71,1.06
	C206.8,193.17,209.35,193.39,211.91,193.4z M197.07,186.93l8.2-25.44c1.15,0.56,2.37,0.96,3.63,1.19l-8.16,25.44
	c-0.03-0.01-0.05-0.01-0.08-0.01c-1.12-0.29-2.22-0.65-3.29-1.08C197.26,186.99,197.17,186.96,197.07,186.93z M170.69,154.87
	l28.92,1.92L192.63,185C180.99,178.95,172.86,167.79,170.69,154.87L170.69,154.87z M211.68,143.96c2.26-0.02,4.12,1.79,4.14,4.05
	c0,0.01,0,0.02,0,0.02c0.02,2.25-1.8,4.1-4.06,4.12c-0.01,0-0.03,0-0.04,0c-2.26,0-4.09-1.82-4.1-4.07
	c-0.04-2.23,1.73-4.07,3.96-4.12C211.61,143.96,211.64,143.96,211.68,143.96z M196.93,146.07c-0.1,0.65-0.14,1.31-0.14,1.96
	c-0.01,0.66,0.04,1.33,0.14,1.98l-26.76,0.09v-0.07c-0.06-0.51-0.09-1.03-0.08-1.55v-0.58c0-0.44,0-0.83,0.02-1.24
	c0-0.15,0.02-0.3,0.06-0.45L196.93,146.07z M192.37,111.27l7.17,28.11v0.02h-0.02l-28.92,2.1
	C172.7,128.56,180.76,117.37,192.37,111.27L192.37,111.27z M200.41,108.02l8.4,25.36c-1.27,0.26-2.5,0.69-3.66,1.27l-8.39-25.4
	c0.04-0.04,0.14-0.06,0.16-0.08c1.09-0.42,2.2-0.79,3.33-1.1C200.31,108.06,200.37,108.04,200.41,108.02L200.41,108.02z
	 M216.12,133.76l-10.9-26.48l-0.1-0.28c2.13-0.34,4.28-0.53,6.44-0.57c10.94-0.05,21.45,4.22,29.24,11.87L216.12,133.76z
	 M224.79,140.75c-0.61-1.15-1.4-2.2-2.32-3.12l21.6-15.75l0.14,0.17c0.74,0.86,1.41,1.78,2,2.74l0.12,0.12L224.79,140.75z
	 M248.98,166.61l-22.26-18.76l22.09-18.71c3.02,5.8,4.6,12.24,4.61,18.77C253.46,154.4,251.94,160.82,248.98,166.61L248.98,166.61z
	 M244.33,173.91l-21.74-15.59c0.91-0.94,1.69-2.01,2.32-3.16l21.72,15.67c-0.04,0.02-0.08,0.04-0.08,0.06
	c-0.71,1.09-1.43,2-2.14,2.95C244.38,173.87,244.35,173.89,244.33,173.91L244.33,173.91z M211.9,189.6
	c-2.18,0.03-4.35-0.13-6.5-0.49l10.75-26.8l24.93,15.16C233.38,185.25,222.87,189.62,211.9,189.6L211.9,189.6z"/>
<radialGradient id="Path_5922_2_" cx="3.0907" cy="-1749.592" r="0.5491" gradientTransform="matrix(0 4.7456 4.7537 0 8518.5771 -2062.6543)" gradientUnits="userSpaceOnUse">
	<stop  offset="0.703" style="stop-color:#5E6567"/>
	<stop  offset="0.793" style="stop-color:#606869"/>
	<stop  offset="0.864" style="stop-color:#697072"/>
	<stop  offset="0.927" style="stop-color:#7B8081"/>
	<stop  offset="0.987" style="stop-color:#909597"/>
	<stop  offset="1" style="stop-color:#979C9E"/>
</radialGradient>
<path id="Path_5922_1_" class="st44" d="M204.18,148.04c0-1.44-1.17-2.61-2.61-2.61s-2.61,1.17-2.61,2.61s1.17,2.6,2.61,2.6
	S204.18,149.48,204.18,148.04z"/>
<radialGradient id="Path_5923_2_" cx="576.6712" cy="-2016.8544" r="0.5491" gradientTransform="matrix(0 3.1001 3.1066 0 6467.1553 -3835.7344)" gradientUnits="userSpaceOnUse">
	<stop  offset="0" style="stop-color:#E5E5E4"/>
	<stop  offset="0.33" style="stop-color:#E2E2E2"/>
	<stop  offset="0.552" style="stop-color:#D9DAD9"/>
	<stop  offset="0.742" style="stop-color:#CACBCC"/>
	<stop  offset="0.913" style="stop-color:#B4B8B9"/>
	<stop  offset="1" style="stop-color:#A6ACAE"/>
</radialGradient>
<path id="Path_5923_1_" class="st45" d="M201.58,149.74c0.94,0,1.7-0.76,1.7-1.7s-0.76-1.7-1.7-1.7s-1.71,0.76-1.71,1.7v0.01
	C199.87,148.98,200.63,149.74,201.58,149.74C201.57,149.74,201.57,149.74,201.58,149.74z"/>
<radialGradient id="Path_5924_2_" cx="2.5566" cy="-1749.05" r="0.5491" gradientTransform="matrix(0 4.7495 4.7556 0 8537.4873 -2042.2242)" gradientUnits="userSpaceOnUse">
	<stop  offset="0.703" style="stop-color:#5E6567"/>
	<stop  offset="0.793" style="stop-color:#606869"/>
	<stop  offset="0.864" style="stop-color:#697072"/>
	<stop  offset="0.927" style="stop-color:#7B8081"/>
	<stop  offset="0.987" style="stop-color:#909597"/>
	<stop  offset="1" style="stop-color:#979C9E"/>
</radialGradient>
<path id="Path_5924_1_" class="st46" d="M222.38,142.07c0-1.44-1.17-2.61-2.61-2.61s-2.61,1.17-2.61,2.61s1.17,2.6,2.61,2.6
	C221.21,144.67,222.38,143.51,222.38,142.07z"/>
<radialGradient id="Path_5925_2_" cx="489.8212" cy="-1976.1636" r="0.5491" gradientTransform="matrix(0 3.2729 3.2774 0 6696.4204 -3633.5159)" gradientUnits="userSpaceOnUse">
	<stop  offset="0" style="stop-color:#E5E5E4"/>
	<stop  offset="0.33" style="stop-color:#E2E2E2"/>
	<stop  offset="0.552" style="stop-color:#D9DAD9"/>
	<stop  offset="0.742" style="stop-color:#CACBCC"/>
	<stop  offset="0.913" style="stop-color:#B4B8B9"/>
	<stop  offset="1" style="stop-color:#A6ACAE"/>
</radialGradient>
<path id="Path_5925_1_" class="st47" d="M219.77,143.86c0.99,0,1.8-0.8,1.8-1.79l0,0c0-0.99-0.81-1.8-1.8-1.8s-1.8,0.81-1.8,1.8
	C217.97,143.06,218.77,143.86,219.77,143.86L219.77,143.86z"/>
<radialGradient id="Path_5926_2_" cx="2.5535" cy="-1749.0502" r="0.5491" gradientTransform="matrix(0 4.7465 4.7556 0 8537.4766 -2077.624)" gradientUnits="userSpaceOnUse">
	<stop  offset="0.703" style="stop-color:#5E6567"/>
	<stop  offset="0.793" style="stop-color:#606869"/>
	<stop  offset="0.864" style="stop-color:#697072"/>
	<stop  offset="0.927" style="stop-color:#7B8081"/>
	<stop  offset="0.987" style="stop-color:#909597"/>
	<stop  offset="1" style="stop-color:#979C9E"/>
</radialGradient>
<path id="Path_5926_1_" class="st48" d="M222.37,154.02c0-1.44-1.17-2.61-2.61-2.61s-2.61,1.17-2.61,2.61s1.17,2.6,2.61,2.6
	C221.2,156.63,222.37,155.46,222.37,154.02z"/>
<radialGradient id="Path_5927_2_" cx="499.4091" cy="-1980.769" r="0.5491" gradientTransform="matrix(0 3.251 3.2569 0 6670.8311 -3689.4629)" gradientUnits="userSpaceOnUse">
	<stop  offset="0" style="stop-color:#E5E5E4"/>
	<stop  offset="0.33" style="stop-color:#E2E2E2"/>
	<stop  offset="0.552" style="stop-color:#D9DAD9"/>
	<stop  offset="0.742" style="stop-color:#CACBCC"/>
	<stop  offset="0.913" style="stop-color:#B4B8B9"/>
	<stop  offset="1" style="stop-color:#A6ACAE"/>
</radialGradient>
<path id="Path_5927_1_" class="st49" d="M219.76,155.81c0.99,0,1.79-0.8,1.79-1.78c0-0.99-0.8-1.78-1.79-1.79
	c-0.99,0-1.79,0.8-1.79,1.79C217.97,155.01,218.77,155.8,219.76,155.81L219.76,155.81z"/>
<radialGradient id="Path_5928_2_" cx="2.9962" cy="-1749.8575" r="0.5491" gradientTransform="matrix(0 4.7437 4.75 0 8520.1973 -2089.8347)" gradientUnits="userSpaceOnUse">
	<stop  offset="0.703" style="stop-color:#5E6567"/>
	<stop  offset="0.793" style="stop-color:#606869"/>
	<stop  offset="0.864" style="stop-color:#697072"/>
	<stop  offset="0.927" style="stop-color:#7B8081"/>
	<stop  offset="0.987" style="stop-color:#909597"/>
	<stop  offset="1" style="stop-color:#979C9E"/>
</radialGradient>
<path id="Path_5928_1_" class="st50" d="M211.07,157.6c0-1.44-1.17-2.6-2.61-2.61c-1.44,0-2.61,1.17-2.61,2.61s1.17,2.6,2.61,2.6
	C209.9,160.2,211.07,159.03,211.07,157.6z"/>
<radialGradient id="Path_5929_2_" cx="569.59" cy="-2013.8844" r="0.5491" gradientTransform="matrix(0 3.1119 3.1178 0 6487.3818 -3847.9802)" gradientUnits="userSpaceOnUse">
	<stop  offset="0" style="stop-color:#E5E5E4"/>
	<stop  offset="0.33" style="stop-color:#E2E2E2"/>
	<stop  offset="0.552" style="stop-color:#D9DAD9"/>
	<stop  offset="0.742" style="stop-color:#CACBCC"/>
	<stop  offset="0.913" style="stop-color:#B4B8B9"/>
	<stop  offset="1" style="stop-color:#A6ACAE"/>
</radialGradient>
<path id="Path_5929_1_" class="st51" d="M208.46,159.3c0.94,0,1.71-0.76,1.71-1.7v-0.01c0-0.94-0.76-1.71-1.7-1.71c0,0,0,0-0.01,0
	c-0.95,0-1.71,0.77-1.71,1.71l0,0C206.75,158.54,207.51,159.3,208.46,159.3L208.46,159.3z"/>
<radialGradient id="Path_5930_2_" cx="4.2899" cy="-1749.8636" r="0.5491" gradientTransform="matrix(0 4.7428 4.75 0 8519.8984 -2038.5603)" gradientUnits="userSpaceOnUse">
	<stop  offset="0.703" style="stop-color:#5E6567"/>
	<stop  offset="0.793" style="stop-color:#606869"/>
	<stop  offset="0.864" style="stop-color:#697072"/>
	<stop  offset="0.927" style="stop-color:#7B8081"/>
	<stop  offset="0.987" style="stop-color:#909597"/>
	<stop  offset="1" style="stop-color:#979C9E"/>
</radialGradient>
<path id="Path_5930_1_" class="st52" d="M210.74,138.46c0-1.44-1.17-2.6-2.61-2.6s-2.61,1.17-2.61,2.6c0,1.44,1.17,2.6,2.61,2.6
	C209.57,141.06,210.74,139.89,210.74,138.46z"/>
<radialGradient id="Path_5931_2_" cx="573.2186" cy="-2014.813" r="0.5491" gradientTransform="matrix(0 3.1082 3.1141 0 6482.4326 -3799.8428)" gradientUnits="userSpaceOnUse">
	<stop  offset="0" style="stop-color:#E5E5E4"/>
	<stop  offset="0.33" style="stop-color:#E2E2E2"/>
	<stop  offset="0.552" style="stop-color:#D9DAD9"/>
	<stop  offset="0.742" style="stop-color:#CACBCC"/>
	<stop  offset="0.913" style="stop-color:#B4B8B9"/>
	<stop  offset="1" style="stop-color:#A6ACAE"/>
</radialGradient>
<path id="Path_5931_1_" class="st53" d="M208.13,140.17c0.94,0,1.71-0.76,1.71-1.7v-0.01c0-0.94-0.76-1.71-1.7-1.71c0,0,0,0-0.01,0
	c-0.95,0-1.71,0.77-1.71,1.71l0,0C206.42,139.4,207.19,140.17,208.13,140.17L208.13,140.17z"/>
<path id="Path_5932_1_" class="st54" d="M211.76,153.69c3.12-0.01,5.65-2.54,5.65-5.65c-0.01-3.11-2.53-5.63-5.65-5.64
	c-3.12,0-5.65,2.52-5.66,5.64C206.1,151.16,208.63,153.69,211.76,153.69z M211.72,151.89c-2.12,0-3.83-1.7-3.84-3.82
	c-0.04-2.09,1.62-3.82,3.72-3.86c0.03,0,0.06,0,0.09,0c2.12-0.02,3.86,1.68,3.88,3.8v0.01c0.02,2.11-1.68,3.84-3.8,3.86
	C211.75,151.89,211.74,151.89,211.72,151.89z"/>
<linearGradient id="Path_5933_2_" gradientUnits="userSpaceOnUse" x1="-1121.2294" y1="-1273.7485" x2="-1120.5052" y2="-1274.4717" gradientTransform="matrix(7.000000e-15 -112.477 112.423 7.000000e-15 142901.8281 -126473.9375)">
	<stop  offset="0" style="stop-color:#575C5D"/>
	<stop  offset="0.533" style="stop-color:#4E5454"/>
	<stop  offset="1" style="stop-color:#494C4D"/>
</linearGradient>
<path id="Path_5933_1_" class="st55" d="M211.75,205.56c-31.81-0.05-57.58-25.78-57.61-57.52c0.03-31.74,25.8-57.47,57.61-57.51
	c31.81,0.04,57.58,25.77,57.61,57.51C269.33,179.79,243.56,205.52,211.75,205.56z M211.74,199.33
	c28.36-0.04,51.34-22.98,51.37-51.29c-0.03-28.31-23.01-51.25-51.37-51.29c-28.36,0.04-51.34,22.99-51.37,51.29
	C160.4,176.35,183.37,199.29,211.74,199.33L211.74,199.33z"/>
<path id="Path_5912_1_" class="st16" d="M54.02,154.99v-18.98l107.27-0.16v18.98L54.02,154.99z"/>
<rect id="Rectangle_22721_1_" x="160.41" y="131.28" class="st18" width="63.41" height="28.65"/>
<ellipse id="Ellipse_360_1_" class="st56" cx="212.3" cy="145.63" rx="11.03" ry="11.01"/>
<radialGradient id="SVGID_14_" cx="211.8611" cy="145.3257" r="7.1692" gradientUnits="userSpaceOnUse">
	<stop  offset="0" style="stop-color:#BBBBBB"/>
	<stop  offset="0.29" style="stop-color:#F3F4F5"/>
	<stop  offset="0.647" style="stop-color:#F4F5F5"/>
	<stop  offset="1" style="stop-color:#959595"/>
</radialGradient>
<path class="st57" d="M212.31,138.46c3.97,0,7.18,3.21,7.18,7.16s-3.21,7.16-7.18,7.16s-7.18-3.21-7.18-7.16
	S208.35,138.46,212.31,138.46z"/>
<rect id="Rectangle_22737_1_" x="206.51" y="144.81" class="st58" width="11.01" height="1.65"/>
<rect id="Rectangle_22738_1_" x="211.46" y="140.14" class="st58" width="1.65" height="10.99"/>
</svg>
