<svg width="40" height="46" viewBox="0 0 40 46" fill="none" xmlns="http://www.w3.org/2000/svg">
<path d="M37.5 34.25V39.875C37.5 41.4261 36.3787 42.6875 35 42.6875H5C3.62125 42.6875 2.5 41.4261 2.5 39.875V34.25C2.5 33.4737 3.06 32.8438 3.75 32.8438C4.44 32.8438 5 33.4737 5 34.25V39.875H35V34.25C35 33.4737 35.56 32.8438 36.25 32.8438C36.94 32.8438 37.5 33.4737 37.5 34.25Z" fill="black"/>
<path d="M10.3661 23.9942C9.87732 23.4444 9.87732 22.5556 10.3661 22.0058C10.8548 21.4559 11.6448 21.4559 12.1336 22.0058L18.7498 29.4491V4.71875C18.7498 3.9425 19.3098 3.3125 19.9998 3.3125C20.6898 3.3125 21.2498 3.9425 21.2498 4.71875V29.4491L27.8661 22.0058C28.3548 21.4559 29.1448 21.4559 29.6336 22.0058C30.1223 22.5556 30.1223 23.4444 29.6336 23.9942L20.8836 33.838C20.3886 34.3963 19.5948 34.378 19.1148 33.838L10.3661 23.9942Z" fill="black"/>
</svg>
