<?xml version="1.0" encoding="utf-8"?>
<!-- Generator: Adobe Illustrator 24.2.3, SVG Export Plug-In . SVG Version: 6.00 Build 0)  -->
<svg version="1.1" id="Layer_1" xmlns="http://www.w3.org/2000/svg" xmlns:xlink="http://www.w3.org/1999/xlink" x="0px" y="0px"
	 viewBox="0 0 300 266.67" style="enable-background:new 0 0 300 266.67;" xml:space="preserve">
<style type="text/css">
	.st0{fill:#848485;}
	.st1{fill:#B2AEA8;}
	.st2{opacity:0.1;enable-background:new    ;}
	.st3{opacity:0.2;enable-background:new    ;}
	.st4{opacity:0.2;fill:#FFFFFF;enable-background:new    ;}
	.st5{fill:#841719;}
	.st6{fill:#B62026;}
	.st7{fill:#CB3131;}
	.st8{fill:#C72128;}
	.st9{opacity:0.2;fill:#E1B1A8;}
	.st10{fill:#CC3634;}
	.st11{fill:#A61E22;}
	.st12{fill:#9B1C1F;}
	.st13{fill:#D03232;}
	.st14{fill:#DA3734;}
	.st15{fill:#D63232;}
	.st16{fill:#D43733;}
	.st17{opacity:0.3;fill:#EC8281;}
	.st18{opacity:0.35;fill:#E4AB9D;}
	.st19{opacity:0.8;}
	.st20{opacity:0.2;fill:#EC8281;}
	.st21{fill:#85311B;}
	.st22{fill:#595A5A;}
	.st23{fill:#9D3E21;}
	.st24{fill:#A54724;}
	.st25{fill:#959595;}
	.st26{fill:#A34023;}
	.st27{fill:#AE4B25;}
	.st28{fill:#A84924;}
	.st29{fill:#BA5727;}
</style>
<g id="Group_5909" transform="translate(250.663 -208.093) rotate(90)">
	
		<rect id="Rectangle_24531" x="172.83" y="82.76" transform="matrix(2.535182e-06 1 -1 2.535182e-06 391.265 -189.7755)" class="st21" width="235.37" height="35.97"/>
	<g id="Group_5905" transform="translate(233.831 67.643)">
		<path id="Path_8983" class="st22" d="M31.67-96.43h159.94l7.06-2.65l-5.02-13.1l-4.63,1.73H31.68L31.67-96.43z"/>
	</g>
	<path id="Rectangle_24532" class="st23" d="M287.37-14.45v230.4c0,3.66,3.02,6.62,6.74,6.62h152.83
		c15.37,0,27.83-12.24,27.83-27.33V6.25c0-15.1-12.46-27.33-27.83-27.33H294.11C290.39-21.08,287.37-18.11,287.37-14.45z"/>
	<path id="Path_8984" class="st24" d="M291.77,168.53c0.37-16.26,0.26-32.54,0.64-48.81V0.13c1.97-5.44,6.2-9.15,9.59-13.65
		c0.39-0.6,0.9-1.12,1.49-1.53c0.79-0.41,1.67-0.62,2.56-0.6c2.05-0.1,4.1,0.01,6.12,0.32c2.43,0.53,4.89,0.88,7.37,1.06
		c3.27,0.02,4.89-1.93,7.65-2.79c2.79-0.88,6.82-0.42,9.67-0.04c4.43,0.6,8.79,2.2,13.26,1.92c6.5-0.41,12.04-1.61,18.57-0.36
		c5.4,1.03,9.99,4.47,15.56,5.53c3.78,0.71,7.79,0.88,11.09,2.82c5.11,3,7.25,9.5,12.3,12.61c2.96,1.82,6.62,2.27,9.57,4.1
		c5.39,3.34,7.83,10.39,11.64,15.2s9.42,9.05,9.96,15.59c0.23,2.8-0.47,5.72,0.48,8.36c1.13,3.16,4.18,4.37,5.98,6.95
		c1.52,2.54,2.46,5.38,2.74,8.32c0.82,6.36-1.22,13.01-2.7,18.92c-1.77,7.01,1.35,14.07,2.15,21.13c0.99,8.68-5.25,15.54-4.66,23.84
		c0.6,8.55,1.26,16.31-1.07,24.9c-0.28,1.16-0.7,2.29-1.25,3.36c-0.96,1.48-2.06,2.87-3.27,4.17c-4.29,5.32-5.33,12.55-9.5,18.06
		c-3.17,4.36-7.49,7.78-12.49,9.9c-3.76,1.43-7.95,1.94-11.25,4.23c-4.05,2.81-6.01,7.81-9.87,10.88
		c-5.82,4.63-14.14,3.72-21.57,4.58c-8.58,0.99-16.71,4.63-25.32,5.3c-9.94,0.76-19.86-2.48-29.79-1.73
		c-6.76,0.51-12.35,1.1-18.21-2.97c-4.8-3.34-4.93-11.81-5.25-16.96C293.45,183.76,291.59,176.57,291.77,168.53z M419.14,161.21
		c2.57-0.52,1.63-4.13,4.84-3.56c1.59,0.29,2.38,2.11,3.93,2.4c1.92,0.3,3.73-0.98,4.04-2.87c0.04-0.27,0.06-0.54,0.03-0.81
		c-0.32-1.5-2.17-1.92-2.62-3.38c-0.33-1.08,0.82-2.03,1.88-2.44c1.06-0.41,2.33-0.74,2.8-1.76c0.64-1.38-0.7-2.89-2.09-3.54
		c-0.48-0.22-1.05-0.47-1.17-0.98c-0.18-0.77,0.76-1.26,1.41-1.69c1.67-1.19,2.17-3.42,1.17-5.2c-1.12-1.7-3.37-2.29-5.2-1.37
		c-0.61,0.43-1.25,0.83-1.92,1.18c-0.7,0.34-1.55,0.1-1.96-0.56c-0.09-0.34-0.14-0.68-0.13-1.03c-0.29-1.21-1.47-2-2.73-1.82
		c-1.21,0.24-2.24,1.01-2.81,2.1c-0.45,0.79-1.06,1.84-1.94,1.59c-0.51-0.15-0.77-0.7-1.14-1.08c-1.2-1.21-3.48-0.29-4.17,1.26
		c-0.51,1.63-0.48,3.37,0.1,4.97c-1.77-0.19-3.45,0.82-4.1,2.45c-0.6,1.63-0.44,3.43,0.42,4.94c0.38,0.57,0.65,1.22,0.77,1.9
		c0.1,1.79-2.26,2.96-2.3,4.75c-0.04,1.94,2.53,2.79,4.48,2.59c1.95-0.2,4.14-0.79,5.71,0.38c0.77,0.57,1.35,1.55,2.31,1.6
		C418.89,161.24,419.02,161.24,419.14,161.21z M420.16,67.15c0.11,0.26,0.29,0.49,0.53,0.65c0.93,0.59,2.04-0.62,2.18-1.71
		c0.14-1.09-0.07-2.33,0.66-3.16c0.91-0.76,2.19-0.9,3.25-0.35c2.49,0.98,5.01,2.4,5.95-0.93c0.79-2.8-2.44-5.94-1.12-8.34
		c0.44-0.79,1.24-1.32,1.7-2.09c0.78-1.49,0.19-3.32-1.33-4.09c-0.17-0.09-0.35-0.16-0.54-0.21c-0.43-0.05-0.86-0.15-1.26-0.32
		c-1.12-0.63-0.68-2.26-0.49-3.51c0.23-1.34-0.17-2.7-1.1-3.71c-0.96-0.99-2.48-1.22-3.7-0.56c-0.91,0.57-1.48,1.72-2.55,1.94
		c-1.94,0.4-2.81-2.42-4.54-3.39c-1.61-0.71-3.5-0.07-4.33,1.45c-0.75,1.54-0.72,3.33,0.09,4.84l-5.38-0.95
		c-0.52,1.23-0.38,2.64,0.39,3.74c0.53,0.53,0.94,1.16,1.22,1.85c0.27,1.19-0.82,2.22-1.81,2.95c-1.35,1.01-2.84,2.79-1.81,4.12
		c0.67,0.87,2.05,0.88,2.79,1.68c0.6,0.85,0.69,1.95,0.24,2.89c-0.46,0.91-0.81,1.87-1.05,2.86c-0.16,1.39,0.55,2.75,1.79,3.44
		c1.26,0.65,2.79,0.49,3.89-0.4c0.65-0.54,1.1-1.32,1.86-1.68c1.7-0.82,3.55,0.9,4.31,2.61C420.03,66.9,420.09,67.03,420.16,67.15z
		 M368.39,87.92c-0.32-0.03-0.64-0.01-0.94,0.06c-1.43,0.34-2.35,1.76-3.73,2.27c-2.03,0.74-4.69-0.61-6.25,0.85
		c-1.65,1.55-0.16,4.41-0.99,6.52c-0.56,0.99-1.26,1.89-2.08,2.68c-0.83,0.83-1.02,2.09-0.47,3.11c0.36,0.47,0.96,0.72,1.35,1.15
		c1.06,1.15,0.37,2.97-0.25,4.41c-0.62,1.44-0.9,3.5,0.5,4.21c0.41,0.19,0.87,0.25,1.31,0.19c1.94-0.2,3.73-1.85,5.58-1.29
		c2.39,0.73,2.57,4.4,4.84,5.43c2.01,0.91,4.27-0.78,6.48-0.7c1.46,0.05,3.22,0.76,4.43-0.36c1.27-1.2,1.05-4.32,0.67-5.81
		c-0.28-0.74-0.4-1.53-0.35-2.31c0.27-1.38,1.76-2.1,2.96-2.83s2.38-2.22,1.64-3.43c-0.28-0.47-0.8-0.74-1.17-1.13
		c-1.34-1.39-0.76-3.63-0.35-5.51c0.4-1.88,0.11-4.44-1.78-4.87c-1.39-0.32-2.71,0.81-4.14,0.91
		C372.93,91.68,370.92,88.19,368.39,87.92L368.39,87.92z M359.89,202.24c0.12-0.03,0.24-0.06,0.36-0.1
		c0.79-0.38,1.44-0.99,1.88-1.74c0.32-0.46,0.68-0.99,1.23-1.07c1-0.16,1.51,1.1,2.03,1.97c1.8,2.96,6.88,1.97,6.48-1.79
		c-0.13-1.29-0.75-2.48-0.94-3.75c-0.32-1.29,0.28-2.62,1.46-3.25c0.62-0.21,1.31-0.1,1.92-0.29c1.11-0.42,1.67-1.65,1.24-2.74
		c-0.05-0.13-0.12-0.26-0.2-0.38c-0.94-1.25-3.26-1.43-3.43-2.98c-0.15-1.32,1.45-2.03,2.4-2.97c2.26-2.25,0.61-6.87-2.84-5.66
		c-1.54,0.55-3.14,0.93-4.76,1.15c-0.46,0.14-0.96,0.03-1.31-0.29c-0.26-0.32-0.18-0.78-0.24-1.18c-0.28-1.13-1.44-1.83-2.59-1.57
		c-1.11,0.31-2.02,1.11-2.45,2.16c-0.26,0.55-0.64,1.26-1.23,1.13c-0.33-0.07-0.54-0.38-0.73-0.66c-0.59-1.01-1.46-1.85-2.51-2.4
		c-1.07-0.55-2.38-0.43-3.33,0.29c-0.96,1.12-1.26,2.63-0.81,4.02c0.46,1.37,0.55,2.82,0.28,4.24c-1.31-0.51-2.8,0.12-3.32,1.41
		c-0.01,0.02-0.02,0.04-0.02,0.06c-0.42,1.32-0.18,2.76,0.66,3.87c0.42,0.48,0.7,1.06,0.82,1.68c0.05,1.24-1.4,1.9-2.26,2.81
		c-1.19,1.46-1.15,3.54,0.09,4.96c1.3,1.33,3.26,1.81,5.04,1.24c0.81-0.34,1.63-0.64,2.47-0.89c0.87-0.24,1.8,0.1,2.3,0.84
		c0.18,0.35,0.19,0.75,0.37,1.1C358.36,202.11,359.14,202.43,359.89,202.24L359.89,202.24z M360.71,26.08
		c1.15,0.48,2.63-0.87,3.13-2.17c0.57-1.45,1.17-3.32,2.73-3.5c1.31-0.16,2.38,1.08,3.66,1.42c1.59,0.34,3.15-0.65,3.5-2.21
		c0.02-0.09,0.04-0.18,0.05-0.27c-0.08-1.14-0.38-2.26-0.9-3.29c-0.51-1.06-0.31-2.32,0.51-3.17c0.65-0.47,1.59-0.45,2.17-1
		c0.94-0.89,0.24-2.5-0.75-3.32c-0.99-0.82-2.3-1.42-2.82-2.59c-0.63-1.41,0.13-3,0.56-4.47c0.47-1.58-0.23-4.19-2.07-4.75
		c-2-0.62-3.67,1.81-5.7,1.34c-0.61-0.22-1.2-0.5-1.75-0.84c-1.22-0.53-2.64-0.39-3.72,0.38c-1.63,1.18-2.72,3.78-4.67,3.31
		c-1.09-0.26-1.68-1.42-2.63-2.02c-1.77-1.13-4.34,0.23-5.03,2.2c-0.52,2.05-0.11,4.22,1.11,5.95c0.56,0.93,1.24,2.06,0.71,3.01
		c-0.25,0.44-0.73,0.72-1.04,1.11c-0.71,1.13-0.5,2.59,0.49,3.49c0.99,0.84,2.17,1.43,3.44,1.72c-1.36,1.32-2.31,2.99-2.75,4.83
		c-0.25,1.85,1.02,4.03,2.92,4.02c1.33-0.25,2.56-0.88,3.53-1.81c1.11-0.75,2.8-1.18,3.68-0.16c0.64,0.74,0.53,1.94,1.28,2.57
		C360.45,25.95,360.58,26.03,360.71,26.08L360.71,26.08z M312.93,39.98c-0.72,1.1-1.74,1.98-2.95,2.54
		c-2.17,0.66-4.66-1.16-6.46,0.81c-1.28,1.39-0.65,2.68-0.05,4.1c0.66,1.58,1.46,1.67,1.13,3.6c-0.28,1.67-2.35,3.49-0.87,5.23
		c1.66,1.94,2.02,2.28,1.99,4.81c-0.02,1.87-0.5,3.33,1.52,4.63c1.75,1.05,4.01,0.78,5.44-0.66c0.48-0.5,0.91-1.17,1.61-1.23
		c1.06-0.1,1.58,1.21,2.34,1.95c3.01,2.9,3.74-3.01,6.27-2.33c0.86,0.38,1.76,0.69,2.67,0.94c3.41,0.44,4.21-3.29,3.12-5.44
		c-1.78-3.49-1.76-3.14,1.58-5.35c1.36-1.01,1.63-2.91,0.6-4.25c-0.05-0.06-0.1-0.12-0.15-0.18c-0.48-0.48-1.12-0.79-1.6-1.27
		c-1.25-1.28-1-3.31-1.42-5.03c-0.3-1.24-1.43-4.15-2.93-4.41c-1.28-0.22-1.75,0.96-2.75,1.43
		C318.32,41.61,316.31,36.1,312.93,39.98L312.93,39.98z M316.07,160.65c0.44-0.04,0.85-0.23,1.17-0.53
		c0.35-0.34,0.59-0.78,0.97-1.08c1.1-0.87,2.72-0.16,3.88,0.63c2.7,1.84,8.46,0.2,6.06-3.76c-0.6-0.99-1.57-1.72-2.17-2.7
		c-0.72-0.95-0.6-2.29,0.29-3.1c1.31-0.83,3.53,0.48,4.43-0.78c0.65-0.91-0.22-2.14-1.18-2.73c-0.96-0.59-2.13-1.08-2.48-2.14
		c-0.68-2.16,2.77-3.45,3.3-5.66c0.18-1.84-1.15-3.48-3.01-3.74c-1.8-0.17-3.62,0.1-5.29,0.79c-0.73,0.35-1.6,0.31-2.3-0.1
		c-0.72-0.62-0.52-1.86-1.21-2.51c-0.93-0.89-2.44,0.04-3.33,0.97s-2.24,2-3.32,1.27c-0.34-0.29-0.64-0.63-0.87-1.01
		c-1.01-1.18-2.71-1.52-4.11-0.81c-1.36,0.79-1.98,2.39-1.51,3.86c0.41,1.16,1.42,2.56,0.49,3.39c-0.47,0.28-0.99,0.46-1.54,0.51
		c-1.47,0.48-2.28,2.03-1.83,3.48c0.63,1.75,3.05,2.9,2.66,4.72c-0.23,1.08-1.38,1.67-2.08,2.54c-0.85,1.11-0.95,2.61-0.25,3.82
		c0.73,1.19,2.12,1.82,3.51,1.61c1.21-0.39,2.36-0.91,3.45-1.55c1.17-0.48,2.81-0.43,3.36,0.69c0.34,0.7,0.13,1.54,0.31,2.28
		C313.85,160.12,314.93,160.8,316.07,160.65L316.07,160.65z"/>
	<g id="Group_5906" transform="translate(235.361 65.675)">
		<path id="Path_8985" class="st25" d="M10.54-78.57h14.17v-13.38c-0.01-4.08,3.35-7.4,7.51-7.42h162.41v-14.01H32.22
			c-12,0.05-21.7,9.64-21.68,21.43L10.54-78.57z"/>
	</g>
	<path id="Rectangle_24533" class="st26" d="M291.97-47.23v13.07c0,1.16,0.96,2.11,2.14,2.11h126.65c1.18,0,2.14-0.94,2.14-2.11
		v-13.07c0-1.16-0.96-2.11-2.14-2.11H294.11C292.93-49.34,291.97-48.39,291.97-47.23z"/>
	<path id="Path_8986" class="st27" d="M301.7-47.15h111.46c4.19,0,7.59,2.61,7.59,5.83v1.24c0,3.23-3.4,5.84-7.59,5.84H301.7
		c-4.2,0-7.6-2.61-7.6-5.84v-1.24C294.11-44.54,297.51-47.15,301.7-47.15z"/>
	<g id="Group_5907" transform="translate(233.831 237.92)">
		<path id="Path_8987" class="st22" d="M193.65,7.94l5.02-13.1l-7.06-2.65H31.67V6.2h157.34L193.65,7.94z"/>
	</g>
	<g id="Group_5908" transform="translate(235.361 228.072)">
		<path id="Path_8988" class="st25" d="M32.22,20.96h162.4V6.94H32.22c-4.16-0.02-7.51-3.34-7.51-7.42v-13.37H10.54v13.37
			C10.52,11.32,20.21,20.91,32.22,20.96z"/>
	</g>
	<path id="Rectangle_24534" class="st26" d="M422.9,248.56v-13.07c0-1.16-0.96-2.11-2.14-2.11H294.11c-1.18,0-2.14,0.94-2.14,2.11
		v13.07c0,1.16,0.96,2.11,2.14,2.11h126.65C421.94,250.66,422.9,249.72,422.9,248.56z"/>
	<path id="Path_8989" class="st27" d="M301.7,235.57h111.46c4.19,0,7.59,2.61,7.59,5.83v1.24c0,3.22-3.4,5.83-7.59,5.83H301.7
		c-4.2,0-7.6-2.61-7.6-5.83v-1.24C294.11,238.18,297.51,235.57,301.7,235.57z"/>
	<path id="Path_8990" class="st28" d="M250.45,248.68h-6.75c-19.71-0.1-35.63-15.83-35.61-35.2V-9.7c-0.01-7.78,2.6-15.34,7.43-21.5
		c6.7-8.64,17.12-13.71,28.18-13.71h6.75c3.3,0.01,6.58,0.45,9.75,1.32c15.33,4.39,25.87,18.2,25.86,33.88v223.18
		c0.01,7.77-2.6,15.33-7.43,21.5C271.92,243.6,261.5,248.67,250.45,248.68L250.45,248.68z"/>
	<path id="Path_8991" class="st27" d="M250.45,248.68h-6.75c-5.05-0.01-10.05-1.07-14.65-3.11c-8.37-3.94-13.64-12.3-13.51-21.41
		l-0.02-244.53c-0.14-9.11,5.13-17.46,13.49-21.4c1.6-0.72,3.25-1.31,4.94-1.77c3.17-0.89,6.45-1.34,9.75-1.35h6.75
		c3.3,0.01,6.58,0.45,9.75,1.32c1.7,0.48,3.37,1.08,4.98,1.81c8.34,3.95,13.58,12.3,13.45,21.39v244.52
		c0.14,9.11-5.14,17.47-13.51,21.41c-1.6,0.72-3.26,1.31-4.95,1.77C257.01,248.22,253.74,248.68,250.45,248.68z"/>
	<path id="Path_8992" class="st29" d="M250.45,248.68h-6.88c-5.42-0.15-9.7-4.54-9.62-9.86V-35.03c-0.08-5.32,4.21-9.72,9.62-9.87h7
		c5.42,0.15,9.71,4.54,9.63,9.87l-0.02,273.85c0.08,5.32-4.21,9.71-9.63,9.86L250.45,248.68z"/>
</g>
</svg>
