<?xml version="1.0" encoding="utf-8"?>
<!-- Generator: Adobe Illustrator 24.2.3, SVG Export Plug-In . SVG Version: 6.00 Build 0)  -->
<svg version="1.1" id="Layer_1" xmlns="http://www.w3.org/2000/svg" xmlns:xlink="http://www.w3.org/1999/xlink" x="0px" y="0px"
	 viewBox="0 0 300 450" style="enable-background:new 0 0 300 450;" xml:space="preserve">
<style type="text/css">
	.st0{fill:url(#Path_9593_1_);}
	.st1{fill:#548B8B;}
	.st2{opacity:0.2;fill:url(#Path_9595_1_);enable-background:new    ;}
	.st3{fill:#6E6F72;}
	.st4{fill:#C9B2BB;}
	.st5{fill:#FAAF41;}
	.st6{fill:#ADADAD;}
	.st7{fill:#725F51;}
	.st8{fill:#D89B62;}
	.st9{clip-path:url(#SVGID_2_);}
	.st10{opacity:0.5;}
	.st11{fill:#CD8954;}
	.st12{fill:#211E1A;}
	.st13{clip-path:url(#SVGID_4_);}
	.st14{opacity:0.5;clip-path:url(#SVGID_6_);}
	.st15{fill:#919090;}
	.st16{fill:#9D9D9D;}
	.st17{fill:#A3A3A3;}
	.st18{fill:#AE6227;}
	.st19{fill:#A95826;}
	.st20{fill:#A45B26;}
	.st21{fill:#A75A26;}
	.st22{fill:#B26828;}
	.st23{fill:url(#Path_9655_1_);}
	.st24{fill:url(#Path_9735_1_);}
	.st25{fill:url(#Rectangle_24667_1_);}
	.st26{fill:url(#Rectangle_24671_1_);}
	.st27{fill:#B96A30;}
	.st28{opacity:0.26;}
	.st29{opacity:0.32;fill:#D8AB6B;enable-background:new    ;}
	.st30{fill:url(#Path_9660_1_);}
	.st31{opacity:0.32;fill:#BC7B4B;enable-background:new    ;}
	.st32{fill:#CB773D;}
	.st33{opacity:0.1;}
	.st34{opacity:0.7;}
	.st35{fill:url(#Path_9720_1_);}
	.st36{fill:url(#Path_9721_1_);}
	.st37{fill:url(#Path_9722_1_);}
	.st38{fill:url(#Path_9723_1_);}
	.st39{fill:url(#Path_9724_1_);}
	.st40{fill:url(#Path_9725_1_);}
	.st41{fill:url(#Path_9726_1_);}
	.st42{fill:url(#Path_9727_1_);}
	.st43{fill:url(#Path_9728_1_);}
	.st44{fill:url(#Path_9729_1_);}
	.st45{fill:url(#Path_9730_1_);}
	.st46{fill:url(#Path_9731_1_);}
	.st47{fill:url(#Path_9732_1_);}
	.st48{fill:url(#Path_9733_1_);}
	.st49{fill:url(#Path_9734_1_);}
	.st50{fill:#CA753B;}
	.st51{fill:url(#Rectangle_24673_2_);}
	.st52{clip-path:url(#SVGID_8_);}
	.st53{clip-path:url(#SVGID_10_);}
	.st54{clip-path:url(#SVGID_12_);}
	.st55{clip-path:url(#SVGID_14_);}
	.st56{clip-path:url(#SVGID_16_);}
	.st57{fill:#FFFFFF;}
	.st58{fill:#F05E22;}
	.st59{fill:none;stroke:#EFEFEF;}
	.st60{fill:#9B2D35;}
	.st61{fill:#19A4AF;}
	.st62{clip-path:url(#SVGID_18_);}
	.st63{fill:#464C53;}
	.st64{clip-path:url(#SVGID_20_);}
	.st65{clip-path:url(#SVGID_22_);}
	.st66{clip-path:url(#SVGID_24_);}
	.st67{clip-path:url(#SVGID_26_);}
	.st68{clip-path:url(#SVGID_28_);}
	.st69{fill:url(#Rectangle_24689_2_);}
	.st70{fill:url(#Rectangle_24690_2_);}
	.st71{fill:url(#Rectangle_24691_2_);}
	.st72{opacity:0.2;clip-path:url(#SVGID_30_);}
	.st73{opacity:0.32;fill:#B96A30;enable-background:new    ;}
</style>
<g>
	<g>
		<path id="Path_9615" class="st15" d="M86.79,408.25l-34.62-28.34l-13.16,16.06c-7.83,9.56-6.43,23.66,3.14,31.49c0,0,0,0,0,0l0,0
			c9.56,7.82,22.38,7.51,31.49-3.14L86.79,408.25z"/>
		<path id="Path_9653" class="st16" d="M37.54,413.59c-1.1-5.22,0.98-10.35,3.96-14.56c1.8-2.73,10.53-12.64,12.84-14.95
			c0,0,17.38,20.43,26.17,26.52c-2.3,3.35-10.51,11.17-13.82,14.22c-1.59,1.48-3.88,2.48-5.86,3.38
			C50.17,431.87,39.73,423.91,37.54,413.59z"/>
		<path id="Path_9615_1_" class="st15" d="M213.21,408.25l34.62-28.34l13.16,16.06c7.83,9.56,6.43,23.66-3.14,31.49c0,0,0,0,0,0l0,0
			c-9.56,7.82-22.38,7.51-31.49-3.14L213.21,408.25z"/>
		<path id="Path_9653_1_" class="st16" d="M262.46,413.59c1.1-5.22-0.98-10.35-3.96-14.56c-1.8-2.73-10.53-12.64-12.84-14.95
			c0,0-17.38,20.43-26.17,26.52c2.3,3.35,10.51,11.17,13.82,14.22c1.59,1.48,3.88,2.48,5.86,3.38
			C249.83,431.87,260.27,423.91,262.46,413.59z"/>
	</g>
	<g>
		<path id="Path_9615_3_" class="st15" d="M86.79,37.87L52.18,66.21L39.02,50.15c-7.83-9.56-6.43-23.66,3.14-31.49c0,0,0,0,0,0l0,0
			c9.56-7.82,22.38-7.51,31.49,3.14L86.79,37.87z"/>
		<path id="Path_9653_3_" class="st16" d="M37.54,32.53c-1.1,5.22,0.98,10.35,3.96,14.56c1.8,2.73,10.53,12.64,12.84,14.95
			c0,0,17.38-20.43,26.17-26.52C78.21,32.17,70,24.35,66.69,21.31c-1.59-1.48-3.88-2.48-5.86-3.38
			C50.17,14.25,39.73,22.21,37.54,32.53z"/>
		<path id="Path_9615_2_" class="st15" d="M213.21,37.87l34.62,28.34l13.16-16.06c7.83-9.56,6.43-23.66-3.14-31.49c0,0,0,0,0,0l0,0
			c-9.56-7.82-22.38-7.51-31.49,3.14L213.21,37.87z"/>
		<path id="Path_9653_2_" class="st16" d="M262.46,32.53c1.1,5.22-0.98,10.35-3.96,14.56c-1.8,2.73-10.53,12.64-12.84,14.95
			c0,0-17.38-20.43-26.17-26.52c2.3-3.35,10.51-11.17,13.82-14.22c1.59-1.48,3.88-2.48,5.86-3.38
			C249.83,14.25,260.27,22.21,262.46,32.53z"/>
	</g>
	<ellipse id="Ellipse_522" class="st17" cx="150" cy="225" rx="149.98" ry="224.97"/>
	<ellipse id="Ellipse_523" class="st18" cx="150" cy="225" rx="139.75" ry="212.76"/>
	<g id="Group_6204" transform="translate(358.193 360.665)">
		<path id="Path_9618" class="st19" d="M-184.29-161.79c-2.06,3.52-4.27,6.88-6.61,10.07c-10.1,13.91-21.48,25.99-33.86,35.94
			c-2.84,2.3-5.78,4.39-8.8,6.24c2.06-3.52,4.27-6.88,6.61-10.07c5.04-6.95,10.42-13.44,16.08-19.44
			c5.67-5.99,11.61-11.5,17.79-16.48C-190.23-157.83-187.3-159.92-184.29-161.79z"/>
		<path id="Path_9619" class="st19" d="M-189.73-102.14c-2.59-2.81-5.05-5.81-7.39-9c-10.21-13.76-19.08-29.25-26.39-46.08
			c-1.7-3.87-3.23-7.87-4.6-11.98c2.59,2.81,5.06,5.81,7.41,9c10.22,13.75,19.08,29.25,26.37,46.1
			C-192.63-110.23-191.1-106.24-189.73-102.14z"/>
		<path id="Path_9620" class="st19" d="M-210.7-104.29c-0.39-3.29-0.65-6.61-0.76-9.94c-0.56-14.46,0.26-28.96,2.43-43.14
			c0.5-3.27,1.13-6.5,1.89-9.68c0.4,3.29,0.66,6.61,0.77,9.94c0.23,7.23,0.16,14.46-0.19,21.68c-0.46,7.21-1.22,14.38-2.27,21.48
			C-209.32-110.69-209.94-107.46-210.7-104.29z"/>
		<path id="Path_9621" class="st19" d="M-185.87-133.25c-2.42,0.54-4.86,0.89-7.3,1.05c-5.31,0.3-10.63,0.21-15.93-0.26
			c-5.29-0.63-10.55-1.66-15.76-3.07c-2.4-0.67-4.78-1.52-7.11-2.57c2.42-0.54,4.86-0.89,7.3-1.05c10.63-0.75,21.28,0.37,31.69,3.34
			C-190.58-135.13-188.21-134.28-185.87-133.25z"/>
		<path id="Path_9622" class="st20" d="M-195.92-136.62c0-10.31-6.15-18.67-13.72-18.66s-13.72,8.37-13.71,18.68
			c0,10.31,6.14,18.66,13.71,18.66c7.58,0.01,13.72-8.35,13.72-18.66C-195.92-136.61-195.92-136.62-195.92-136.62z"/>
		<path id="Path_9623" class="st21" d="M-209.65-121.41c-6.17-0.01-11.17-6.83-11.17-15.24c0.01-8.4,5.02-15.21,11.19-15.2
			c6.17,0.01,11.17,6.82,11.17,15.22C-198.46-128.22-203.46-121.4-209.65-121.41C-209.64-121.41-209.65-121.41-209.65-121.41z"/>
	</g>
	<g id="Group_6205" transform="translate(313.369 310.097)">
		<path id="Path_9624" class="st19" d="M-208.74-215.09c-2.06,3.52-4.26,6.88-6.6,10.07c-5.05,6.94-10.42,13.44-16.08,19.46
			c-5.66,6-11.61,11.51-17.79,16.48c-2.84,2.3-5.78,4.38-8.79,6.24c2.05-3.53,4.26-6.89,6.6-10.07
			c5.04-6.95,10.42-13.44,16.08-19.44c5.67-6,11.61-11.5,17.79-16.48C-214.69-211.14-211.76-213.23-208.74-215.09z"/>
		<path id="Path_9625" class="st19" d="M-214.18-155.45c-2.59-2.81-5.06-5.81-7.41-9c-5.09-6.88-9.86-14.19-14.28-21.89
			c-4.41-7.7-8.45-15.78-12.1-24.19c-1.7-3.87-3.23-7.87-4.6-11.98c2.59,2.81,5.07,5.81,7.41,8.99c5.1,6.88,9.87,14.19,14.28,21.89
			c4.4,7.72,8.45,15.8,12.1,24.21C-217.08-163.54-215.55-159.54-214.18-155.45z"/>
		<path id="Path_9626" class="st19" d="M-235.15-157.6c-0.39-3.29-0.65-6.61-0.76-9.94c-0.23-7.23-0.16-14.46,0.19-21.68
			c0.46-7.2,1.21-14.37,2.25-21.46c0.49-3.27,1.12-6.5,1.89-9.68c0.39,3.29,0.65,6.61,0.77,9.95c0.55,14.46-0.27,28.96-2.46,43.14
			C-233.76-164-234.39-160.77-235.15-157.6z"/>
		<path id="Path_9627" class="st19" d="M-210.32-186.55c-2.42,0.53-4.86,0.89-7.3,1.05c-5.31,0.3-10.63,0.21-15.93-0.26
			c-5.3-0.63-10.56-1.66-15.78-3.07c-2.4-0.67-4.78-1.52-7.11-2.57c2.42-0.54,4.86-0.89,7.3-1.05c10.63-0.75,21.29,0.37,31.7,3.34
			C-215.02-188.44-212.65-187.58-210.32-186.55z"/>
		<path id="Path_9628" class="st20" d="M-220.38-189.94c0-10.31-6.14-18.68-13.71-18.68c-7.58,0-13.72,8.35-13.72,18.66
			c0,10.31,6.14,18.68,13.71,18.68c0,0,0.01,0,0.01,0C-226.52-171.27-220.38-179.63-220.38-189.94z"/>
		<path id="Path_9629" class="st21" d="M-234.09-174.69c-6.18,0-11.19-6.81-11.19-15.22c0-8.41,5-15.23,11.18-15.24
			s11.19,6.81,11.19,15.22l0,0C-222.91-181.52-227.92-174.7-234.09-174.69z"/>
	</g>
	<g id="Group_6206" transform="translate(312.214 409.626)">
		<path id="Path_9630" class="st19" d="M-209.36-53.04c-3.01-1.85-5.95-3.94-8.79-6.26c-12.38-9.93-23.77-22-33.89-35.9
			c-2.34-3.19-4.54-6.56-6.6-10.08c3.01,1.85,5.95,3.94,8.79,6.26c6.18,4.97,12.12,10.47,17.79,16.48
			c5.66,6.01,11.03,12.51,16.08,19.44C-213.64-59.91-211.43-56.56-209.36-53.04z"/>
		<path id="Path_9631" class="st19" d="M-214.8-112.67c-1.37,4.1-2.91,8.09-4.6,11.96c-3.65,8.41-7.69,16.49-12.1,24.19
			c-4.4,7.72-9.18,15.04-14.28,21.9c-2.34,3.18-4.81,6.18-7.39,8.98c1.36-4.1,2.89-8.09,4.58-11.96c3.65-8.42,7.69-16.5,12.1-24.21
			c4.42-7.7,9.2-15.01,14.29-21.89C-219.86-106.87-217.39-109.86-214.8-112.67z"/>
		<path id="Path_9632" class="st19" d="M-235.77-110.52c0.76,3.17,1.38,6.41,1.87,9.68c2.18,14.17,3.01,28.67,2.46,43.14
			c-0.12,3.34-0.38,6.66-0.77,9.96c-0.77-3.17-1.4-6.4-1.89-9.68c-2.19-14.18-3.01-28.69-2.44-43.16
			C-236.42-103.91-236.17-107.23-235.77-110.52z"/>
		<path id="Path_9633" class="st19" d="M-210.94-81.57c-2.33,1.03-4.71,1.89-7.11,2.57c-10.41,2.98-21.07,4.1-31.69,3.33
			c-2.45-0.15-4.89-0.51-7.3-1.05c2.33-1.03,4.71-1.88,7.11-2.55c5.21-1.43,10.47-2.45,15.76-3.07c5.3-0.49,10.62-0.58,15.93-0.26
			C-215.8-82.45-213.36-82.1-210.94-81.57z"/>
		<path id="Path_9634" class="st20" d="M-221.01-78.2c0,10.31-6.14,18.66-13.71,18.66c-7.57,0-13.71-8.36-13.71-18.66
			s6.14-18.66,13.71-18.66h0C-227.15-96.86-221.01-88.51-221.01-78.2z"/>
		<path id="Path_9635" class="st21" d="M-234.72-62.98c-6.17-0.02-11.16-6.84-11.15-15.24c0.01-8.4,5.02-15.2,11.19-15.18
			c6.17,0.02,11.16,6.82,11.15,15.22C-223.54-69.78-228.55-62.97-234.72-62.98C-234.72-62.98-234.72-62.98-234.72-62.98z"/>
	</g>
	<g id="Group_6207" transform="translate(403.967 310.097)">
		<path id="Path_9636" class="st19" d="M-159.32-215.09c-2.06,3.52-4.27,6.88-6.61,10.07c-5.05,6.94-10.42,13.44-16.08,19.46
			c-5.66,6-11.61,11.51-17.79,16.48c-2.84,2.3-5.77,4.39-8.79,6.24c2.06-3.52,4.27-6.88,6.61-10.07
			c5.04-6.95,10.42-13.44,16.08-19.44c5.66-6,11.61-11.51,17.79-16.48C-165.27-211.14-162.33-213.23-159.32-215.09z"/>
		<path id="Path_9637" class="st19" d="M-164.76-155.45c-2.59-2.81-5.05-5.81-7.39-9c-10.22-13.75-19.09-29.24-26.4-46.08
			c-1.69-3.87-3.22-7.87-4.58-11.98c2.59,2.8,5.06,5.81,7.39,9c5.11,6.87,9.88,14.18,14.29,21.89c4.4,7.72,8.44,15.8,12.09,24.21
			C-167.66-163.54-166.13-159.55-164.76-155.45z"/>
		<path id="Path_9638" class="st19" d="M-185.73-157.6c-0.39-3.29-0.65-6.61-0.77-9.94c-0.22-7.23-0.16-14.46,0.19-21.68
			c0.47-7.2,1.22-14.36,2.25-21.46c0.49-3.27,1.12-6.5,1.89-9.68c0.39,3.29,0.65,6.61,0.77,9.95c0.23,7.23,0.16,14.46-0.19,21.68
			c-0.48,7.2-1.23,14.36-2.27,21.46C-184.35-164-184.98-160.77-185.73-157.6z"/>
		<path id="Path_9639" class="st19" d="M-160.91-186.55c-2.42,0.54-4.86,0.89-7.3,1.05c-5.31,0.3-10.63,0.21-15.93-0.26
			c-5.29-0.63-10.55-1.66-15.76-3.07c-2.4-0.67-4.78-1.52-7.11-2.57c2.42-0.54,4.86-0.89,7.3-1.05c10.63-0.75,21.28,0.37,31.69,3.34
			C-165.61-188.44-163.24-187.58-160.91-186.55z"/>
		<path id="Path_9640" class="st20" d="M-170.97-189.94c0-10.31-6.14-18.66-13.71-18.66c-7.57,0-13.71,8.36-13.71,18.66
			c0,10.31,6.14,18.66,13.71,18.66h0C-177.11-171.27-170.97-179.63-170.97-189.94z"/>
		<path id="Path_9641" class="st21" d="M-184.68-174.69c-6.18,0-11.19-6.81-11.19-15.22s5-15.23,11.18-15.24s11.19,6.81,11.19,15.22
			l0,0C-173.51-181.52-178.51-174.71-184.68-174.69z"/>
	</g>
	<g id="Group_6208" transform="translate(402.812 409.626)">
		<path id="Path_9642" class="st19" d="M-159.95-53.04c-3.01-1.86-5.95-3.95-8.79-6.26c-12.38-9.93-23.77-21.99-33.87-35.9
			c-2.34-3.19-4.55-6.55-6.61-10.08c3.02,1.86,5.96,3.94,8.8,6.26c12.37,9.95,23.75,22.02,33.87,35.92
			C-164.22-59.92-162.01-56.56-159.95-53.04z"/>
		<path id="Path_9643" class="st19" d="M-165.4-112.67c-1.36,4.1-2.9,8.1-4.6,11.96c-7.3,16.84-16.17,32.34-26.37,46.1
			c-2.34,3.18-4.82,6.18-7.41,8.98c1.36-4.1,2.9-8.1,4.6-11.96c3.65-8.42,7.69-16.51,12.1-24.21c4.41-7.7,9.18-15.01,14.28-21.89
			C-170.45-106.86-167.98-109.86-165.4-112.67z"/>
		<path id="Path_9644" class="st19" d="M-186.36-110.52c0.76,3.18,1.39,6.41,1.89,9.68c2.19,14.17,3.01,28.68,2.44,43.14
			c-0.11,3.34-0.37,6.66-0.77,9.96c-0.76-3.17-1.38-6.41-1.87-9.68c-2.19-14.18-3.01-28.69-2.44-43.16
			C-187.01-103.91-186.76-107.23-186.36-110.52z"/>
		<path id="Path_9645" class="st19" d="M-161.54-81.57c-2.33,1.03-4.69,1.89-7.09,2.57c-5.21,1.41-10.48,2.43-15.78,3.07
			c-5.3,0.48-10.62,0.57-15.93,0.26c-2.45-0.15-4.89-0.51-7.3-1.05c2.33-1.03,4.71-1.88,7.11-2.55c5.21-1.43,10.47-2.45,15.76-3.07
			c5.3-0.49,10.62-0.58,15.93-0.26C-166.39-82.45-163.95-82.1-161.54-81.57z"/>
		<path id="Path_9646" class="st20" d="M-171.59-78.2c0,10.31-6.14,18.68-13.71,18.68c-7.58,0-13.72-8.35-13.72-18.66
			s6.14-18.68,13.71-18.68C-177.74-96.87-171.59-88.51-171.59-78.2z"/>
		<ellipse id="Ellipse_524" class="st21" cx="-185.31" cy="-78.19" rx="11.18" ry="15.22"/>
	</g>
	<path id="Path_9647" class="st22" d="M196.23,32.3c-22.27-11.87-46.19-14.62-69.37-7.98c-9.98,2.92-19.7,7.63-28.96,14.02
		c-2.23,1.55-20.14,20.3-18.08,24.07c2.43,4.44,8.01-2.95,10.69,1.14c0.72,1.1,0.95,2.76,1.61,3.96c1.34,2.45,3.82,2.09,5.89,1.58
		c5.29-1.29,12.14-0.83,14.14,6.76c2.97,11.32-8.9,23.52-4.98,34.15c3.99,10.84,12.86,5.89,16.27,18.43
		c1.52,5.62,2.56,12.17,5.89,15.51c1.95,1.95,4.47,2.49,6.23,4.85c1.07,1.65,1.93,3.59,2.53,5.72c6.04,17.85,18.33,33.67,28.9,12.73
		c5.56-11.03,7.84-24.8,13.98-35.42c4.2-7.31,10.35-13.6,10.79-23.29c-0.08-3.94-0.46-7.86-1.13-11.67
		c-2.2-19.7,8.51-40.46,21.57-41.84C210.4,43.76,203.41,36.09,196.23,32.3z"/>
	<path id="Path_9648" class="st22" d="M50.48,130.99c-0.11-4.9-1.2-13.12-5.25-13.18c-7.76-0.08-11.93,1.88-13.76,14.76
		c-1.2,8.88-2.87,17.6-5.01,26.08c-6.1,24.99-8.62,51.63-7.39,78.17c0.7,17.39,2.75,34.6,6.12,51.28
		c2.52,12.52,6.25,37.53,14.38,44.74c1.29,1.29,3.03,0.79,3.91-1.12c0.29-1.11,0.37-2.31,0.23-3.48
		c-0.44-6.76,0.31-13.58,2.19-19.77c1.93-6.22,5.56-10.89,9.95-12.8c4.89-1.85,10.34,0.57,14.92-2.62c1.31-1.05,2.57-2.23,3.77-3.53
		c5.51-5.29,12.15-7.24,18.57-5.45c1.58,0.68,3.23,0.92,4.87,0.7c1.57-0.62,3.02-1.83,4.19-3.51c9.98-12.54,15.78-31.03,15.84-50.56
		c0-7.48-3.84-16.77-6.76-22.47c-1.04-2.35-2.51-4.21-4.24-5.33c-1.67-0.6-3.39-0.84-5.1-0.7c-5.16-0.43-9.85-4.63-12.55-11.24
		c-0.8-2.55-1.82-4.93-3.01-7.1c-1.17-1.51-2.51-2.71-3.95-3.53c-5.96-3.94-12.04-7.94-18.52-8.96c-1.37-0.06-2.72-0.44-4-1.14
		c-0.99-0.75-1.88-1.75-2.65-2.94C49.27,155.87,50.84,145.76,50.48,130.99z"/>
	<path id="Path_9649" class="st22" d="M103.22,421.91c22.28,11.85,46.2,14.6,69.39,7.96c9.98-2.91,19.7-7.62,28.96-14.02
		c2.22-1.54,20.14-20.27,18.08-24.07c-2.43-4.44-8.03,2.96-10.69-1.14c-0.72-1.1-0.95-2.76-1.61-3.96
		c-1.34-2.43-3.82-2.09-5.89-1.58c-5.29,1.31-12.15,0.83-14.14-6.74c-2.99-11.34,8.9-23.52,4.98-34.17
		c-4-10.84-12.86-5.89-16.27-18.43c-1.52-5.6-2.56-12.15-5.89-15.49c-1.95-1.97-4.47-2.51-6.23-4.87c-1.07-1.64-1.93-3.58-2.55-5.7
		c-6.03-17.85-18.32-33.68-28.88-12.75c-5.56,11.05-7.85,24.8-13.98,35.42c-4.22,7.31-10.37,13.6-10.79,23.31
		c0.08,3.93,0.46,7.84,1.13,11.65c2.2,19.72-8.51,40.48-21.57,41.85C89.05,410.44,96.05,418.13,103.22,421.91z"/>
	<path id="Path_9650" class="st22" d="M248.97,323.21c0.11,4.92,1.2,13.14,5.24,13.18c7.77,0.08,11.94-1.88,13.78-14.74
		c1.2-8.89,2.87-17.61,5.01-26.09c6.1-24.99,8.62-51.62,7.39-78.17c-0.7-17.39-2.75-34.59-6.12-51.26
		c-2.52-12.53-6.26-37.55-14.38-44.76c-1.29-1.28-3.02-0.78-3.91,1.12c-0.29,1.1-0.37,2.31-0.23,3.48
		c0.44,6.77-0.32,13.6-2.19,19.79c-1.93,6.22-5.56,10.88-9.95,12.8c-4.89,1.84-10.34-0.57-14.92,2.62
		c-1.31,1.04-2.57,2.21-3.77,3.51c-5.51,5.28-12.15,7.23-18.57,5.45c-1.58-0.68-3.23-0.92-4.87-0.7c-1.57,0.62-3.01,1.83-4.19,3.51
		c-9.98,12.54-15.78,31.03-15.84,50.56c-0.01,7.48,3.84,16.77,6.76,22.49c1.05,2.35,2.52,4.2,4.24,5.33c1.67,0.59,3.39,0.83,5.1,0.7
		c5.16,0.45,9.84,4.65,12.55,11.24c0.8,2.56,1.81,4.95,3.01,7.12c1.17,1.51,2.5,2.7,3.95,3.51c5.96,3.94,12.04,7.96,18.52,8.96
		c1.37,0.06,2.72,0.45,4,1.16c0.99,0.74,1.89,1.74,2.65,2.94C250.19,298.33,248.62,308.44,248.97,323.21z"/>
</g>
</svg>
