<?xml version="1.0" encoding="utf-8"?>
<!-- Generator: Adobe Illustrator 24.2.3, SVG Export Plug-In . SVG Version: 6.00 Build 0)  -->
<svg version="1.1" id="Layer_1" xmlns="http://www.w3.org/2000/svg" xmlns:xlink="http://www.w3.org/1999/xlink" x="0px" y="0px"
	 viewBox="0 0 300 136.36" style="enable-background:new 0 0 300 136.36;" xml:space="preserve">
<style type="text/css">
	.st0{fill:url(#Path_9655_1_);}
	.st1{fill:url(#Path_9735_1_);}
	.st2{fill:url(#Rectangle_24667_1_);}
	.st3{fill:url(#Rectangle_24671_1_);}
	.st4{fill:#B96A30;}
	.st5{opacity:0.32;fill:#BC7B4B;enable-background:new    ;}
	.st6{fill:#CB773D;}
	.st7{opacity:0.1;}
	.st8{opacity:0.32;fill:#D8AB6B;enable-background:new    ;}
	.st9{opacity:0.32;enable-background:new    ;}
	.st10{fill:#A86335;}
	.st11{clip-path:url(#SVGID_2_);}
	.st12{clip-path:url(#SVGID_4_);}
	.st13{opacity:0.5;}
	.st14{clip-path:url(#SVGID_6_);}
	.st15{clip-path:url(#SVGID_8_);}
</style>
<linearGradient id="Path_9655_1_" gradientUnits="userSpaceOnUse" x1="-1450.7822" y1="668.06" x2="-1450.7822" y2="669.0623" gradientTransform="matrix(17.11 0 0 -2.544 24901.4238 1835.9104)">
	<stop  offset="0" style="stop-color:#BCBDBF"/>
	<stop  offset="1" style="stop-color:#7E7E7E"/>
</linearGradient>
<path id="Path_9655" class="st0" d="M84.45,136.36H72.63l-2.65-2.55H87.1L84.45,136.36z"/>
<linearGradient id="Path_9735_1_" gradientUnits="userSpaceOnUse" x1="-1450.7764" y1="668.06" x2="-1450.7764" y2="669.0623" gradientTransform="matrix(17.11 0 0 -2.544 25043.3242 1835.9104)">
	<stop  offset="0" style="stop-color:#BCBDBF"/>
	<stop  offset="1" style="stop-color:#7E7E7E"/>
</linearGradient>
<path id="Path_9735" class="st1" d="M226.45,136.36h-11.82l-2.65-2.55h17.12L226.45,136.36z"/>
<linearGradient id="Rectangle_24667_1_" gradientUnits="userSpaceOnUse" x1="-1465.5098" y1="768.4822" x2="-1464.509" y2="768.4822" gradientTransform="matrix(28.048 0 0 -4.023 41169.1289 3223.9885)">
	<stop  offset="0" style="stop-color:#BCBDBF"/>
	<stop  offset="1.000000e-03" style="stop-color:#B8B8B8"/>
	<stop  offset="0.214" style="stop-color:#929497"/>
	<stop  offset="0.544" style="stop-color:#FFFFFF"/>
	<stop  offset="0.766" style="stop-color:#929497"/>
	<stop  offset="1" style="stop-color:#7E7E7E"/>
</linearGradient>
<rect id="Rectangle_24667" x="64.51" y="130.37" class="st2" width="28.07" height="4.03"/>
<linearGradient id="Rectangle_24671_1_" gradientUnits="userSpaceOnUse" x1="-1465.507" y1="768.4822" x2="-1464.5061" y2="768.4822" gradientTransform="matrix(28.048 0 0 -4.023 41311.0273 3223.9885)">
	<stop  offset="0" style="stop-color:#BCBDBF"/>
	<stop  offset="1.000000e-03" style="stop-color:#B8B8B8"/>
	<stop  offset="0.214" style="stop-color:#929497"/>
	<stop  offset="0.544" style="stop-color:#FFFFFF"/>
	<stop  offset="0.766" style="stop-color:#929497"/>
	<stop  offset="1" style="stop-color:#7E7E7E"/>
</linearGradient>
<rect id="Rectangle_24671" x="206.49" y="130.37" class="st3" width="28.07" height="4.03"/>
<rect id="Rectangle_24668" x="0.01" class="st4" width="300" height="132.29"/>
<rect id="Rectangle_24669" x="7.67" y="9.41" class="st5" width="284.67" height="113.47"/>
<rect id="Rectangle_24670" x="10.46" y="11.91" class="st6" width="278.78" height="107.94"/>
<g class="st7">
	<path id="Path_9688" class="st8" d="M212.2,98.82c-13.19,1.25-65.95-4.06-73.53-3.75s-44.62,6.23-53.04,4.37
		c-5.99-1.33-64.68-1.87-75.02-2.08v0.89c14.16,1.93,85.43,5.83,92.86,3.4c9.66-3.15,47.27-2.67,58.5-1.81s47.43,4.02,65.95,1.81
		c7.16-0.89,54.33-0.83,61.48,0.16v-1.99C278.61,99.03,221,97.98,212.2,98.82z"/>
	<path id="Path_9689" class="st8" d="M187.22,90.39c-14.87,0.32-50.8-3.44-58.94-2.49s-42.1,5.51-49.67,4.16
		c-5.36-0.96-59.9-1.39-68-1.57v0.82c11.05,1.77,75.11,5.49,81.75,5.02c8.7-0.62,45.18-5.62,53.88-4.38
		c8.7,1.25,55.29,3.72,67.35,3.11c8.37-0.42,65.82,0.36,75.79,0.89v-3.01C273.96,92.07,198.72,90.14,187.22,90.39z"/>
	<path id="Path_9690" class="st8" d="M163.08,82.27c-8.98,0.62-35.08-0.62-58.09,1.56c-17.55,1.67-83.16,1.15-94.38,0.82v0.76
		c11.02,1.81,75.03,5.47,82.31,4.04c9.54-1.88,46.87-7.81,56.13-5s50.8,2.2,60.06,3.28c6.94,0.82,68.64,2.44,80.28,2.53v-3.42
		c-11.11-0.23-71.16-0.7-74.39-1.14C210.51,85.08,172.06,81.64,163.08,82.27z"/>
	<path id="Path_9691" class="st8" d="M205.83,53.67c-5.75-2.38-29.6-5.49-35.66-6.41c-6.86-1.04-13.56-2.15-20.47-2.8
		c-15.39-1.43-30.6,1.39-45.83,2.18c-4.16,0.22-8.18,1.05-12.35,1.26c-3.17,0.15-6.29,0.78-9.26,1.88
		c6.06,2.5,13.68,3.28,20.21,3.68c7.32,0.44,14.33,1.92,21.54,2.64c13.26,1.32,27.75,1.33,40.76-1.02c4.5-0.81,9.26-0.97,13.77-1.85
		C180.53,52.84,205.18,55.51,205.83,53.67z M134.74,53.84c-6.36-0.35-12.73-0.32-19.03-1.58c-6.84-1.43-13.83-2.06-20.82-1.85
		c4.63,0.02,9.25-0.52,13.75-1.63c5.26-1.48,9.63-0.13,14.86,0.38c6.15,0.59,11.49-1.96,17.49-2.19
		c12.55-0.47,25.23,1.67,37.51,3.19c-3.49,1.48-8.88,1.66-12.82,2.49C155.91,54.76,145.02,54.4,134.74,53.84L134.74,53.84z"/>
	<path id="Path_9693" class="st8" d="M113.13,50.09c2.15,0.41,4.34,0.62,6.54,0.61C117.52,50.2,115.32,50.01,113.13,50.09z"/>
	<path id="Path_9695" class="st8" d="M17.36,72.25c4.83,0.78,49.5,2.24,54.31,2.82c3.59,0.53,7.24,0.63,10.85,0.33
		c2.84-0.31,7.09-1.14,9.81,0.07c-4.4,3.79-15.25,2.74-21.02,2.74c-4.03,0.13-47.99,0.02-52.01-0.32c-2.61-0.3-5.06,0.19-7.53,0.35
		c5.81,0.22,51.66,1.22,57.5,1.21c5.66-0.01,11.32-0.01,16.99,0c4.93,0,9.55-1,14.45-1.23c5.44-0.26,11.12-0.01,16.6-0.38
		c-2.9-3.49-13.86-3.02-18.21-3.7c-6.58-1.14-13.24-1.77-19.91-1.88c-6.64,0-53.33,0.44-59.86-0.63c-2.59-0.42-5.67-1.26-8.71-1.8
		v2.24C12.86,72.01,15.11,72.07,17.36,72.25z"/>
	<path id="Path_9696" class="st8" d="M10.61,78.21v0.07c0.39-0.01,0.78-0.02,1.17-0.04C11.39,78.22,11,78.21,10.61,78.21z"/>
	<path id="Path_9697" class="st8" d="M17.08,75.07c3.42,0.41,46.1,1.79,49.72,1.5c-3.09-1.68-47.54-1.91-51.13-2.12
		c-1.79-0.09-3.44-0.35-5.07-0.48v0.97C12.76,74.84,14.92,74.89,17.08,75.07z"/>
	<path id="Path_9698" class="st8" d="M238.38,69.77c-11-0.45-21.4-0.77-32.36,0.3c-9.01,0.88-18.49,0.53-27.43,1.96
		c-3.61,0.58-6.97,1.93-10.52,2.67c-3.34,0.7-7.16,0.22-10.56,0.43c0.02,0.29,0.02,0.56,0,0.85c6.55,1.99,13.82,2.56,20.72,2.54
		c11.73-0.03,23.23,2.36,34.86,2.81c7.45,0.3,14.94-0.32,22.45-0.32c4.77,0,49.2-0.67,53.84-1.03v-2.77
		c-0.48,0.03-0.94,0.05-1.35,0.05h-49.18c-10.22,0-20.46,0.28-30.65-0.25c-10.47-0.53-22.32,3.59-32.13-1.65
		c6,0.11,11.76-0.86,17.6-0.93c4.98-0.06,9.24-1.65,14.03-2.19c5.62-0.64,11.33-0.13,16.91,0.25c6.64,0.44,52.77,0.95,59.23,2.01
		c0.82,0.14,3.05,0.5,5.54,0.7v-5.56C284.54,69.48,239.48,69.81,238.38,69.77z"/>
	<path id="Path_9699" class="st8" d="M207.42,74.76c8.51-1.13,17.56,1.15,26.07,0.56c-2.53-2-9.88-1.76-13.16-2.12
		C217.84,72.93,208.34,71.67,207.42,74.76z"/>
	<path id="Path_9700" class="st8" d="M161.06,103.27c-4.4-1.23-8.92-1.99-13.49-2.27c-8.21-0.36-16.38,1.56-24.62,1.56
		c-11.52,0-22.29,2.82-34.02,1.63c-6.36-0.64-12.69,0.52-18.94-0.92c-3.78-1-47.6-1.44-51.51-1.34c-2.63,0-5.26,0.12-7.87,0.37v2.55
		c3.85,1.06,8.09,0.85,12.1,1.77c6.04,1.4,52.16,3.83,58.36,4.04c8.2,0.41,16.41-0.14,24.48-1.65c7.03-1.41,14.07-1.15,21.13-2.48
		c5.79-1.09,11.98-0.55,17.89-0.55c4.32,0,17.87-1.11,20.16,3.37c-2.17,2.4-5.83,3.12-8.38,5.05c-2.04,1.54-3.94,3.24-5.67,5.12
		h3.94c6.4-4.61,12.26-10.1,19.58-13.23C170.19,104.84,165.31,104.38,161.06,103.27z"/>
	<path id="Path_9701" class="st8" d="M231.5,104.43c-6.49,0.31-13.09,0.33-19.65,0.32s-12.99,0.42-19.53-0.33
		c-4.37-0.5-12.8-2.35-16.86-0.23c1.5,2.45,6.15,4.8,8.4,6.8c4.3,3.81,9.85,7.53,15.42,8.43c0.3,0.05,0.56,0.09,0.78,0.12h0.98
		c0.58-0.15,0.85-0.67,1.86-1.9c-4.26-3.43-17.48-4.61-18.74-10.34c11.79-0.67,23.99,0.43,35.8,0.89c7.52,0.3,55.01,0,62.53,0
		c1.5,0,4.19,0.21,6.89,0.08v-4.51c-2.22,0.35-4.45,0.58-6.7,0.68C278.95,104.43,235.24,104.26,231.5,104.43z"/>
	<path id="Path_9702" class="st8" d="M68.16,66.95c8.53,0.42,17.48,2.44,25.88,4.07c8.29,1.62,16.49,2.08,24.91,2.8
		c5.9,0.5,11.55,3.48,17.47,3.14c8.48-0.48,16.57-2.36,24.98-2.81c4.33-0.24,7.84-1.27,11.99-2.26c3.93-0.93,10.15-0.13,13.45-2.45
		c-6.7,0.13-13.08,0.96-19.84,0.96c-8.41,0-15.96,1.78-24.13,3.12c-6.98,1.13-12.81-0.18-19.71-1.48
		c-8.85-1.68-17.88-2.75-26.67-4.45c-6.12-1.18-12.31-2.38-18.46-3.44c-3.13-0.54-6.1-1.86-9.24-2.19s-45.96-0.23-48.99-1.24
		c-2.95-1-6.09-1.36-9.2-1.05v5.81c1.39,0.37,2.8,0.64,4.22,0.79C19.31,66.68,63.63,66.72,68.16,66.95z"/>
	<path id="Path_9703" class="st8" d="M181.39,63.83c-12.16,0-23.92,0.33-35.72,2.89c-6.48,1.26-13.16,1.24-19.63-0.07
		c-4.12-0.78-8.14-1.5-12.33-1.95c-4.07-0.44-8.42-0.44-12.29-1.88c-5.34-1.98-9.88-4.39-15.49-4.99
		c-5.87-0.62-11.56-1.18-17.14-3.37c-5.76-2.25-52.42-5.63-58.17-3.79v2.7c5.09,0.72,50.43,3.04,55.15,3.96
		c5.76,1.14,11.38,2.5,17.12,3.43c10.02,1.47,19.94,3.56,29.7,6.25c12.99,3.77,27.95,6.5,41.04,2.49c6.15-1.88,12.49-1.9,18.8-2.56
		c10.44-0.96,20.92-1.38,31.41-1.26c15.08,0,70.48,0.7,85.56-0.33v-1.16c-9.33-0.36-58.52-1.02-67.86-1.02
		C208.17,63.21,194.85,63.83,181.39,63.83z"/>
	<path id="Path_9704" class="st8" d="M72.44,50.95c6.09,1.7,12.18,2.97,18.3,4.53c15.72,4,31.92,7.87,48,8.67
		c5.16,0.29,10.33-0.11,15.37-1.18c3.61-0.78,7.72-1.2,11.13-2.9c-2.53-0.22-4.83,0.73-7.21,0.96c-2.85,0.27-5.83,0-8.69,0
		c-5.83,0-11.61,1.18-17.39,0.94c-10.55-0.46-21.19-4.9-31.45-6.58c-3.9-0.64-8.24-0.78-12.05-1.88c-4.07-1.17-8.06-2.97-12.35-4.12
		c-5.47-1.47-50.69-2.49-56.2-3.66c-1.76-0.37-3.95-0.49-6.09-0.79c2.31,1.08,4.7,2,7.14,2.74C24.83,48.78,68.55,49.88,72.44,50.95z
		"/>
	<path id="Path_9705" class="st8" d="M10.61,43.55v0.68c1.04,0.33,2.12,0.56,3.2,0.7C12.74,44.47,11.68,43.99,10.61,43.55z"/>
	<path id="Path_9706" class="st8" d="M206.3,57.89c-7.07,0.65-14.19,0.62-21.31,0.62c-4.72,0-11.38-0.37-15.42,2.12
		c3.43,0.47,6.9,0.6,10.36,0.38c12.31-0.55,24.67,0,37.05,0c7.11,0,14.06,0.71,21.12,0.62c3.8,0.12,47.53-0.07,51.3-0.57v-5.99
		c-5.49,1.65-50.19,2.82-56.43,2.82C224.07,57.89,215.12,57.09,206.3,57.89z"/>
	<path id="Path_9707" class="st8" d="M219.44,48.53c-12.7-1.27-24.08-2.91-36.21-7.73c-14.75-5.86-29.44-4.63-44.63-2.87
		c-6.83,0.79-13.8,0.55-20.62,1.24c-6.85,0.81-13.74,1.22-20.64,1.24c-9.17-0.12-18.35,4.63-27.14,1.56
		c-4.2-1.47-48.08-2.81-52.55-3.1c-2.29-0.15-4.79,0.44-7.02,0.07c0.76,0.4,1.51,0.85,2.24,1.16c2.36,0.9,4.81,1.56,7.31,1.96
		c3.36,0.73,46.48,2.4,49.81,3.28c5.53,1.49,10.55,0.99,15.93-0.48c6.49-1.66,13.17-2.42,19.87-2.27c7.74,0,15.38-0.94,23.09-0.94
		c5.38,0,10.4-1.52,15.76-1.26c9.18,0.43,18.12,2.19,27.22,3.07c7.5,0.73,14.83,1.16,22.12,3.43c8.83,2.74,17.18,5.81,26.59,6.33
		c7.89,0.56,55.73,0.59,63.63,0.07c1.32-0.11,3.2-0.14,5.22-0.24v-3.8c-2.51,0.23-4.97,0.52-6.97,0.52
		C274.72,49.75,227.1,49.33,219.44,48.53z"/>
	<path id="Path_9709" class="st8" d="M86.11,38.15c13.61-4.56,28.1-1.79,42.16-3.29c1.01-0.11,5.18-0.12,5.36-1.93
		c0.24-2.42-6.72-3.14-8.14-3.37c-8.72-1.46-17.31-3.19-26.11-4.06c-10.08-1-20.06-2.97-30.11-4.15
		c-5.88-0.69-52.46-2.75-58.66-3.31v3.31c4.04,0.82,9.22,0.65,11.25,1.02c7.51,1.36,54.47,4,62.07,4.85
		c6.93,0.77,13.94,1.39,20.76,2.8c3.73,0.77,13.18,0.06,15.69,3.13c-4.48,2.54-12.74-0.46-17.63,0.1
		c-5.94,0.68-12.41-0.12-18.19,1.56c-5.67,1.64-8.95,3.57-15.01,0.86c-6.02-2.75-52.36-4.59-58.95-5.44v1.56
		c6.42,1.91,52.77,4.55,58.96,6.86C75.58,40.88,80.18,40.14,86.11,38.15z"/>
	<path id="Path_9710" class="st8" d="M76.92,32.28c3.54,0,6.32-0.8,9.55-1.32c3.43-0.55,7.1-0.01,10.58-0.32
		c-8.48-3.93-18.03,0.12-26.24-3.76c-5.16-2.44-49.33-4.38-55.13-3.98c-1.77,0.14-3.5,0.63-5.07,1.46v1.16
		c5.13,0.36,50.07,1.62,54.76,3.71C69.35,31.04,72.58,32.28,76.92,32.28z"/>
	<path id="Path_9711" class="st8" d="M241.18,44.78c-7.15,0-14.09-0.87-21.12-1.57c-11.9-1.18-23.06-4.35-34.29-8.33
		c-12.43-4.41-26.39-1.64-38.69-6.03c-13.89-4.96-29.32-5.01-43.21-10.38c-6.27-2.45-11.23-4.3-17.97-4.3c-4.81,0-9.53,0.27-14.32,0
		c-4.5-0.26-48.99,0.53-53.39-0.64c-2.46-0.77-5.01-1.28-7.58-1.51v0.28c4.66,1.03,49.25,3.29,54.05,3.98
		c4.59,0.66,9.11,1.54,13.68,2.27c7.84,1.25,15.75,1.43,23.57,3.12c8.37,1.8,16.53,4.22,24.96,4.75c4.29,0.27,9.63,0.72,13.55,2.67
		c2.3,1.14,4.1,2.78,6.68,3.51c14.05,4,29.17,0.31,43.15,5.23c6.06,2.13,11.76,4.79,18.09,6.25c7.83,1.85,15.81,3.03,23.85,3.51
		c5.75,0.33,51.4,0,57.21,0.01v-2.8C286.63,44.84,243.93,44.78,241.18,44.78z"/>
	<path id="Path_9712" class="st8" d="M143.66,23.54c5.44,0.63,11.71,1.52,17.11-0.24c7.92-2.57,14.23-8.76,21.61-12.12h-9.84
		c-1.31,1.99-0.51,3.93-3.28,5.39c-5.48,2.88-13.35,3.54-19.29,3.83c-6.36,0.31-13.56,1.66-19.66-0.39
		c-5.79-1.94-10.77-5.87-16.63-7.64c-3.71-1.12-7.16-0.52-10.93-1.02c-0.35-0.05-0.68-0.1-1-0.16h-3.04
		c7.31,3.1,15.19,4.93,22.64,7.35C128.6,20.92,136.07,22.6,143.66,23.54z"/>
	<path id="Path_9713" class="st8" d="M162.04,12.29c0.1-0.35,0.08-0.74-0.06-1.08h-14.15c-1.32,0.77-2.8,1.24-4.32,1.42
		c-3.96,0.35-7.41-0.72-11.22-1.26c-0.44-0.06-0.87-0.1-1.31-0.16h-8.86c6.34,4.42,14.17,7.35,21.24,7.35
		C147.76,18.54,160.4,18.62,162.04,12.29z"/>
	<path id="Path_9714" class="st8" d="M217.88,19.77c-6.2,0.6-12.56,1.39-18.66,2.5c-3.6,0.66-10.39,1.83-13.1,4.31
		c6.65,2.8,12.39,6.7,19.62,8.13c7.3,1.44,14.75,2.72,22.11,3.88c6.71,1.05,53.34-0.1,60.12,0.22c0.38,0.02,0.87,0.07,1.42,0.15
		v-4.02c-2.14,0.22-4.3,0.27-6.46,0.16c-7.36-0.67-54.35-1.88-61.83-1.88c-5.51,0.13-11.03-0.19-16.49-0.94
		c-3.62-0.58-8.25-1.24-10.63-4.61c4.8-2.07,10.18-2.34,15.33-2.57c7.02-0.32,14.06-0.94,21.11-0.94c5.93-0.07,51.76-0.62,57.6-1.64
		c0.39-0.07,0.85-0.13,1.35-0.2V16.7c-3.43,0.81-46.82,1.4-50.32,1.76C231.97,18.89,224.93,19.09,217.88,19.77z"/>
	<path id="Path_9715" class="st8" d="M233.52,27.6c-8.82-0.01-17.63,0.83-26.29,2.5c4.5-0.47,9.34,0.69,13.87,0.62
		c5.13-0.09,10.41-0.56,15.53,0.3c4.24,0.89,48.45,1.51,52.76,1.86v-2.59c-2.05-0.05-4.09-0.12-6.1-0.25
		c1.06-1.51,3.57-1.92,6.1-2.1V25.3c-0.76,0.19-1.51,0.36-2.19,0.49C282.38,26.73,238.5,27.6,233.52,27.6z"/>
	<path id="Path_9716" class="st8" d="M169.47,23.77c-3.29,1-6.64,3.24-9.96,3.51c5.5,0,11.64,1.24,16.76-0.69
		c6.24-2.36,12.4-5.14,18.81-7.2c13.06-4.18,30.43,1.96,41.71-8.06c-5.51,0.1-10.77,1.28-16.24,1.26c-5.67-0.08-11.34,0.13-17,0.61
		c-4.11,0.4-8.87,1.41-12.42,4c-2.52,1.84-4.52,4.18-7.77,4.39c4.44-4.51,12.25-8.09,18.14-9.32c2.05-0.42,4.3-0.68,6.5-1.09h-14
		c-4.7,1.77-8.72,4.93-13.24,7.27C176.96,20.42,173.53,22.54,169.47,23.77z"/>
	<path id="Path_9717" class="st8" d="M152.94,108.87c-2.23-0.1-4.47-0.01-6.69,0.27c-7.45,0.84-15.2,0.62-22.72,0.62
		c-9.56,0-18.7,2.85-28.13,3.82c-7.77,0.8-15.26,1.19-22.97-0.45c-7.26-1.55-54.33-4.16-61.81-4.57v2.99
		c1.75,0.83,3.61,1.45,4.79,1.9c5.98,2.29,52.29,5.01,58.73,6.12H90.6c5-0.35,9.98-1.03,14.9-1.99c6.35-1.28,12.49-1.83,18.94-2.51
		c3.38-0.35,6.88-0.02,10.24-0.6c3.15-0.55,6.67-2.44,9.87-1.82c-2.01,2.08-6.61,3.85-7.46,6.92h4.74c1.46-0.3,2.8-1.02,3.86-2.06
		C147.38,115.87,153.24,111.43,152.94,108.87z"/>
	<path id="Path_9718" class="st8" d="M176.21,111c-3.89-0.31-7.99,4.09-9.18,8.56h4.14c0.49-1.29,0.84-2.7,2-3.32
		c2.22-1.18,4.65,1.46,6.47,2.58c0.38,0.24,0.77,0.48,1.17,0.74h10.53c-1.05-0.95-2.17-1.82-3.34-2.61
		C185.03,114.8,179.76,111.27,176.21,111z"/>
	<path id="Path_9719" class="st8" d="M224.77,111.63c-5.26-0.28-10.44,0.63-15.72,0.32c-2.4-0.15-4.63-0.71-7-0.94
		c-1.91-0.19-3.95,0.37-5.74-0.35c3.47,1.83,7.24,2.53,10.6,4.8c2.11,1.43,3.61,2.65,6.09,3.11c6.03,1.1,12.75,0.54,18.93,0.25
		c3.74-0.07,47.41,0.18,51.11,0.74h6.38v-7.87c-2.49,0.35-5.01,0.53-7.53,0.56C276.06,112.26,230.49,111.92,224.77,111.63z"/>
</g>
<g id="Group_6224" transform="translate(322.935 696.933)" class="st9">
	<g id="Group_6223">
		<g id="Group_6222">
			<path id="Path_9720" class="st10" d="M-169.82-632.09c-1.18-1.05-2.14-2.33-2.82-3.76c0.12-0.32-0.04-0.67-0.36-0.79
				c-0.01,0-0.01-0.01-0.02-0.01c-0.19-0.44-0.51,0.69-0.51,0.69l-0.55,0.77c-0.57,1.08-1.32,2.05-2.23,2.86
				c-2.62,2.43-5.48,2.27-5.4,2.98c0.01,0.26,0.6,0.42,1.7,0.43c1.6-0.09,3.12-0.69,4.34-1.73c1.07-0.95,1.9-2.15,2.41-3.5
				c0.52,1.22,1.28,2.31,2.25,3.21c0.71,0.64,1.51,1.16,2.37,1.56c0.68,0.22,1.38,0.39,2.09,0.49c1.19,0.04,1.87-0.09,1.87-0.35
				C-164.62-629.92-167.07-629.92-169.82-632.09z"/>
			<path id="Path_9721" class="st10" d="M-213.62-637.78c0.85,1.14,1.5,2.41,1.92,3.76c-0.12,0.62,0.25,0.79,0.25,0.79
				c0.14,0.44,0.35-0.7,0.35-0.7l0.37-0.77c0.36-1.03,0.87-1.99,1.52-2.86c1.78-2.43,3.72-2.27,3.66-2.98c0-0.26-0.4-0.41-1.14-0.43
				c-1.18,0.13-2.25,0.76-2.95,1.73c-0.77,1.05-1.33,2.23-1.65,3.5c-0.31-1.15-0.82-2.24-1.52-3.21c-0.45-0.6-0.99-1.13-1.61-1.56
				c-0.45-0.22-0.93-0.38-1.42-0.49c-0.81-0.03-1.27,0.09-1.27,0.36C-217.15-639.96-215.48-639.96-213.62-637.78z"/>
			<path id="Path_9722" class="st10" d="M-137.51-637.78c0.84,1.14,1.49,2.41,1.91,3.76c-0.11,0.62,0.26,0.79,0.26,0.79
				c0.14,0.43,0.36-0.7,0.36-0.7l0.37-0.77c0.35-1.03,0.86-1.99,1.51-2.86c1.78-2.43,3.72-2.27,3.66-2.98
				c-0.01-0.26-0.4-0.41-1.15-0.43c-1.18,0.13-2.25,0.76-2.94,1.73c-0.77,1.04-1.33,2.23-1.64,3.5c-0.32-1.15-0.84-2.24-1.53-3.21
				c-0.45-0.61-1-1.13-1.62-1.56c-0.45-0.22-0.93-0.38-1.42-0.49c-0.8-0.03-1.26,0.09-1.26,0.36
				C-141.04-639.96-139.38-639.96-137.51-637.78z"/>
			<path id="Path_9723" class="st10" d="M-134.57-626.97c0,0,0.58,0.44,1.62,1.09c0.63,0.32,1.3,0.56,1.99,0.72
				c0.4,0.12,0.82,0.18,1.24,0.19c0.42,0,0.88-0.03,1.36-0.02c0.44-0.1,0.93-0.22,1.45-0.36c0.48-0.2,0.93-0.42,1.45-0.64
				c0.45-0.38,0.93-0.7,1.36-1.06c0.36-0.46,0.88-0.94,1.16-1.36l0.57-0.89c0.13-0.32,0.18-0.56,0.3-0.84
				c0.11-0.3,0.18-0.61,0.2-0.93c0.11-0.31,0.15-0.64,0.14-0.97c0.1-1.32-0.21-2.64-0.88-3.78c-0.5-1.07-1.45-1.87-2.59-2.19
				c-1.83-0.36-3.6,0.83-3.97,2.66c-0.07,0.36-0.08,0.72-0.04,1.08c0.1,0.5,0.3,0.97,0.59,1.39l0.09,0.15
				c-0.07-0.04,0.1,0.07,0.11,0.1c0.09,0.07,0.23,0.23,0.3,0.25c0.14,0.11,0.3,0.19,0.47,0.24c0.78,0.2,1.59-0.17,1.93-0.9
				c0.29-0.6,0.23-1.31-0.15-1.85c-0.26-0.38-0.74-0.54-1.18-0.39l-0.38,0.26c0.13-0.12,0.26-0.24,0.37-0.37
				c0.15-0.03,0.35-0.21,0.58-0.17c0.29-0.02,0.58,0.08,0.8,0.26c0.26,0.36,0.58,0.59,0.66,1.07c0.14,0.53,0.12,1.1-0.07,1.62
				c-0.39,1.14-1.53,1.86-2.72,1.71c-0.35-0.02-0.69-0.14-0.98-0.33c-0.12-0.09-0.24-0.17-0.36-0.25c-0.05-0.07-0.06-0.02-0.21-0.2
				l-0.16-0.21c-0.52-0.57-0.89-1.28-1.05-2.04c-0.16-0.83-0.14-1.68,0.04-2.51c0.12-0.43,0.29-0.85,0.52-1.23
				c0.15-0.18,0.12-0.23,0.36-0.52l0.42-0.45c1.09-1.23,2.74-1.79,4.35-1.49c1.67,0.41,3.07,1.54,3.83,3.08
				c0.88,1.56,1.28,3.35,1.15,5.14c-0.02,0.44-0.08,0.87-0.19,1.3c-0.07,0.44-0.19,0.87-0.37,1.28c-0.2,0.43-0.37,0.85-0.54,1.21
				l-0.61,0.89c-0.47,0.59-1,1.13-1.57,1.63c-0.55,0.43-1.14,0.72-1.69,1.09c-0.59,0.21-1.18,0.44-1.77,0.63
				c-0.55,0.03-1.17,0.12-1.7,0.16c-0.54-0.04-1.06-0.12-1.53-0.16c-0.47-0.11-0.93-0.33-1.35-0.46c-0.69-0.31-1.35-0.7-1.96-1.15
				c-0.48-0.44-0.81-0.83-1.08-1.04C-134.33-626.7-134.44-626.84-134.57-626.97z"/>
			<path id="Path_9724" class="st10" d="M-211.46-626.97c0,0-0.59,0.44-1.62,1.09c-0.63,0.32-1.3,0.56-1.98,0.72
				c-0.41,0.11-0.82,0.18-1.25,0.19c-0.42,0-0.88-0.03-1.36-0.02c-0.45-0.1-0.93-0.22-1.45-0.36c-0.48-0.2-0.94-0.42-1.45-0.64
				c-0.46-0.38-0.93-0.7-1.36-1.06c-0.36-0.46-0.88-0.94-1.18-1.36l-0.56-0.89c-0.12-0.32-0.18-0.56-0.29-0.84
				c-0.11-0.3-0.18-0.61-0.21-0.93c-0.1-0.31-0.15-0.64-0.13-0.97c-0.1-1.32,0.21-2.64,0.87-3.78c0.51-1.07,1.45-1.87,2.59-2.19
				c1.83-0.36,3.6,0.83,3.97,2.66c0.07,0.36,0.08,0.72,0.04,1.08c-0.1,0.5-0.3,0.97-0.59,1.39l-0.09,0.15
				c0.07-0.04-0.09,0.07-0.11,0.1c-0.09,0.09-0.19,0.18-0.3,0.25c-0.15,0.11-0.31,0.19-0.48,0.24c-0.77,0.2-1.58-0.18-1.93-0.9
				c-0.3-0.59-0.25-1.31,0.14-1.85c0.27-0.38,0.75-0.54,1.19-0.39c0.27,0.19,0.4,0.27,0.4,0.27s-0.11-0.1-0.37-0.37
				c-0.15-0.03-0.35-0.21-0.59-0.17c-0.29-0.01-0.57,0.08-0.8,0.26c-0.26,0.36-0.58,0.59-0.65,1.07c-0.15,0.53-0.12,1.1,0.08,1.62
				c0.38,1.14,1.51,1.86,2.7,1.71c0.35-0.02,0.69-0.14,0.98-0.33c0.15-0.11,0.24-0.17,0.36-0.25c0.06-0.07,0.07-0.02,0.21-0.2
				l0.17-0.21c0.52-0.58,0.88-1.28,1.04-2.04c0.16-0.83,0.15-1.68-0.03-2.51c-0.12-0.43-0.3-0.85-0.53-1.23
				c-0.15-0.18-0.11-0.23-0.37-0.52l-0.42-0.45c-1.07-1.23-2.72-1.8-4.33-1.5c-1.67,0.41-3.08,1.53-3.84,3.08
				c-0.87,1.56-1.27,3.35-1.15,5.14c0.03,0.44,0.09,0.87,0.19,1.3c0.08,0.44,0.2,0.86,0.36,1.28c0.2,0.43,0.38,0.85,0.55,1.21
				l0.61,0.89c0.47,0.59,1,1.14,1.57,1.63c0.54,0.43,1.13,0.72,1.69,1.09c0.59,0.21,1.19,0.44,1.76,0.63
				c0.56,0.03,1.17,0.12,1.7,0.16c0.55-0.04,1.07-0.12,1.53-0.16c0.48-0.11,0.92-0.33,1.34-0.46c0.7-0.31,1.36-0.7,1.98-1.15
				c0.47-0.44,0.81-0.83,1.08-1.04C-211.59-626.83-211.46-626.97-211.46-626.97z"/>
			<g id="Group_6214" transform="translate(16.845)">
				<path id="Path_9725" class="st10" d="M-244.3-633.97c-0.17-0.03-0.2-0.6-0.14-1.58c0.09-0.57,0.22-1.14,0.39-1.7
					c0.26-0.68,0.61-1.31,1.04-1.89c0.6-0.79,1.38-1.43,2.28-1.86c1.01-0.46,2.1-0.72,3.21-0.77c1.22-0.05,2.44,0.1,3.61,0.43
					c-1.57-0.35-3.2-0.24-4.7,0.32c-1.51,0.56-2.82,1.59-3.72,2.93C-243.79-635.93-243.9-633.89-244.3-633.97z"/>
			</g>
			<g id="Group_6215" transform="translate(115.236 0.256)">
				<path id="Path_9726" class="st10" d="M-233.99-633.97c0.15-0.02,0.19-0.6,0.14-1.58c-0.06-0.48-0.25-1.05-0.4-1.7
					c-0.26-0.68-0.62-1.31-1.05-1.89c-0.6-0.8-1.37-1.44-2.26-1.87c-1.01-0.46-2.1-0.71-3.21-0.76c-1.22-0.05-2.43,0.1-3.6,0.43
					c1.56-0.36,3.19-0.24,4.69,0.33c1.52,0.55,2.83,1.57,3.73,2.91C-234.54-635.92-234.43-633.89-233.99-633.97z"/>
			</g>
			<g id="Group_6217" transform="translate(15.53 7.026)">
				<g id="Group_6216">
					<path id="Path_9727" class="st10" d="M-233.9-626.36c3.78,0.51,7.77-0.72,11.48-2.67c3.43-2.02,6.62-4.4,9.53-7.11
						c2.6-2.22,5.33-3.76,7.74-3.76c2.04-0.09,4.02,0.64,5.5,2.05c0.47,0.39,0.88,0.84,1.22,1.35c0.14,0.14,0.27,0.3,0.36,0.48
						c-0.42-0.73-0.89-1.42-1.4-2.08c-1.39-1.77-3.4-2.93-5.62-3.25c-2.79-0.35-6.08,0.93-9.02,3.11c-1.62,1.17-3.23,2.44-4.94,3.61
						c-0.14,0.07-0.23,0.19-0.34,0.19c-0.95,0.65-2,1.3-3.01,1.9c-0.23,0.19-0.47,0.27-0.7,0.45c-0.15,0.08-0.34,0.21-0.48,0.29
						c-1.35,0.72-2.75,1.35-4.19,1.87l-0.06-0.06c-0.15,0.13-0.33,0.21-0.53,0.22c-0.26,0.08-0.52,0.15-0.79,0.18
						c-0.29,0.13-0.6,0.21-0.92,0.23c-1.18,0.28-2.39,0.4-3.6,0.34c-3.13-0.16-5.56-2.22-7.12-4.47c-0.73-1.01-1.34-2.1-1.82-3.25
						c-0.43-0.88-0.79-1.8-1.09-2.73c-0.36-1.11-0.65-1.96-0.77-2.3c0.03,0.36,0.22,1.19,0.38,2.44c0.15,1.02,0.38,2.02,0.71,2.99
						c0.41,1.3,0.92,2.57,1.51,3.8C-240.49-629.93-237.68-626.99-233.9-626.36z"/>
				</g>
			</g>
			<g id="Group_6219" transform="translate(80.793 7.026)">
				<g id="Group_6218">
					<path id="Path_9728" class="st10" d="M-208.57-626.36c-3.78,0.51-7.77-0.72-11.47-2.67c-3.43-2.02-6.63-4.4-9.54-7.11
						c-2.59-2.22-5.33-3.76-7.74-3.76c-2.04-0.09-4.02,0.65-5.5,2.05c-0.47,0.39-0.88,0.84-1.21,1.35
						c-0.15,0.14-0.27,0.31-0.38,0.48c0.43-0.72,0.9-1.41,1.41-2.08c1.39-1.76,3.4-2.93,5.62-3.25c2.79-0.35,6.09,0.93,9.02,3.11
						c1.6,1.18,3.22,2.44,4.93,3.61c0.15,0.07,0.24,0.19,0.34,0.19c0.95,0.65,2,1.3,3,1.9c0.24,0.19,0.48,0.27,0.71,0.45
						c0.15,0.08,0.34,0.21,0.48,0.29c1.36,0.72,2.76,1.35,4.2,1.87l0.05-0.06c0.15,0.13,0.34,0.21,0.53,0.22
						c0.25,0.09,0.52,0.15,0.78,0.18c0.29,0.13,0.61,0.21,0.93,0.23c1.17,0.28,2.38,0.4,3.59,0.34c2.93-0.31,5.56-1.96,7.12-4.47
						c0.74-1,1.35-2.09,1.82-3.25c0.43-0.88,0.8-1.8,1.09-2.73c0.36-1.11,0.65-1.96,0.77-2.3c-0.02,0.36-0.22,1.19-0.38,2.44
						c-0.15,1.02-0.39,2.02-0.72,2.99c-0.4,1.3-0.9,2.57-1.5,3.8C-201.99-629.93-204.79-626.99-208.57-626.36z"/>
				</g>
			</g>
			<path id="Path_9729" class="st10" d="M-184.62-628.76c0.05,0.07,0.11,0.13,0.18,0.19c0.02,0.03,0.05,0.06,0.08,0.09
				c-0.06-0.1-0.23-0.32-0.35-0.5c-0.02-0.03-0.03-0.07-0.04-0.11c-0.13-0.19-0.28-0.37-0.43-0.54c-0.13-0.2-0.29-0.37-0.47-0.5
				c-0.21-0.13-0.4-0.27-0.59-0.44l-0.54-0.19c-0.03-0.01-0.08-0.01-0.11-0.02c-0.41-0.24-0.87-0.41-1.34-0.48
				c-1.89-0.07-3.74,0.57-5.17,1.8c-0.91,0.65-1.82,1.4-2.76,2.05c-0.13,0.05-0.16,0.15-0.2,0.14c-0.56,0.38-1.15,0.75-1.71,1.09
				c-0.13,0.11-0.28,0.21-0.43,0.29c-0.09,0.04-0.16,0.08-0.25,0.13l0.35,0.28c2.07-1.19,8.29-4.3,8.57-4.39
				c0.27-0.09,0.56-0.1,0.87-0.18c0.31-0.02,0.63-0.01,0.94,0.02c0.3,0.11,0.61,0.2,0.92,0.28l0.03,0.02l0.47,0.25
				c0.14,0.1,0.23,0.2,0.36,0.29c0.14,0.11,0.24,0.25,0.31,0.41c0.14,0.11,0.24,0.25,0.3,0.42c0.41,0.63,0.6,1.38,0.53,2.13
				c0.01,0.73-0.24,1.43-0.72,1.98c-0.41,0.46-1.03,0.68-1.64,0.58c-0.59-0.09-1.08-0.51-1.26-1.07c-0.08-0.29-0.1-0.59-0.04-0.88
				l0.01-0.1c0,0,0.02-0.04,0.03-0.08c0.02-0.04,0.04-0.19,0.07-0.23c0.04-0.1,0.09-0.18,0.17-0.26c0.29-0.36,0.8-0.46,1.2-0.24
				c0.28,0.24,0.41,0.61,0.35,0.97c-0.01,0.28-0.2,0.52-0.47,0.6c-0.09,0.01-0.12-0.03-0.18,0c0.06,0.04,0.13,0.06,0.2,0.06
				c0.07-0.05,0.2-0.02,0.34-0.15c0.14-0.09,0.25-0.22,0.31-0.37c0.09-0.25,0.1-0.51,0.04-0.76c-0.06-0.3-0.22-0.57-0.45-0.77
				c-0.52-0.41-1.26-0.37-1.73,0.1c-0.18,0.11-0.33,0.28-0.41,0.48l-0.13,0.23c-0.02,0.05-0.03,0.11-0.03,0.18l-0.04,0.19
				c-0.11,0.44-0.11,0.9,0,1.34c0.12,0.45,0.34,0.86,0.65,1.2c0.17,0.17,0.36,0.32,0.58,0.42c0.09,0.07,0.19,0.11,0.3,0.14l0.31,0.1
				c0.91,0.18,1.85-0.11,2.5-0.78c0.73-0.76,1.13-1.78,1.13-2.83C-183.99-627.08-184.21-627.96-184.62-628.76z"/>
			<path id="Path_9730" class="st10" d="M-162.06-628.76c-0.05,0.06-0.14,0.14-0.18,0.19c-0.04,0.04-0.08,0.09-0.08,0.09
				c0.06-0.1,0.24-0.32,0.35-0.5c0.03-0.03,0.03-0.07,0.05-0.11c0.13-0.19,0.27-0.37,0.42-0.54c0.13-0.2,0.29-0.37,0.48-0.5
				c0.21-0.13,0.41-0.27,0.59-0.44l0.54-0.19c0.03-0.01,0.07-0.01,0.12-0.02c0.41-0.24,0.86-0.41,1.33-0.48
				c1.89-0.08,3.73,0.57,5.17,1.8c0.92,0.65,1.82,1.4,2.78,2.05c0.12,0.05,0.15,0.15,0.19,0.14c0.56,0.38,1.15,0.75,1.71,1.09
				c0.14,0.11,0.29,0.21,0.44,0.29c0.08,0.04,0.15,0.08,0.23,0.13l-0.34,0.28c-2.07-1.19-8.29-4.3-8.57-4.39
				c-0.29-0.07-0.57-0.13-0.87-0.18c-0.31-0.02-0.63-0.01-0.94,0.02c-0.3,0.11-0.61,0.2-0.93,0.28l-0.03,0.02l-0.48,0.25
				c-0.14,0.1-0.22,0.2-0.36,0.29c-0.13,0.11-0.24,0.25-0.3,0.41c-0.14,0.1-0.25,0.25-0.3,0.42c-0.42,0.63-0.61,1.38-0.54,2.13
				c-0.01,0.72,0.25,1.43,0.72,1.98c0.41,0.46,1.03,0.68,1.64,0.58c0.59-0.09,1.08-0.51,1.26-1.07c0.08-0.29,0.09-0.59,0.04-0.88
				v-0.1c-0.02-0.03-0.03-0.05-0.04-0.08c-0.02-0.08-0.04-0.16-0.08-0.23c-0.03-0.1-0.08-0.19-0.16-0.26
				c-0.29-0.36-0.79-0.46-1.2-0.24c-0.28,0.23-0.42,0.6-0.35,0.97c0.01,0.28,0.19,0.52,0.46,0.6c0.09,0.01,0.12-0.03,0.18,0
				c-0.06,0.04-0.13,0.06-0.2,0.06c-0.07-0.05-0.2-0.02-0.35-0.15c-0.14-0.09-0.25-0.22-0.32-0.37c-0.08-0.25-0.1-0.51-0.04-0.76
				c0.07-0.3,0.23-0.57,0.46-0.77c0.52-0.41,1.26-0.37,1.73,0.1c0.18,0.11,0.33,0.28,0.41,0.48l0.12,0.23
				c0.05,0.09,0.03,0.05,0.05,0.19l0.03,0.19c0.23,0.9-0.02,1.86-0.65,2.54c-0.16,0.18-0.36,0.32-0.58,0.42
				c-0.09,0.07-0.19,0.11-0.3,0.14l-0.3,0.1c-0.91,0.18-1.86-0.11-2.51-0.78c-0.73-0.76-1.13-1.78-1.12-2.83
				C-162.68-627.08-162.46-627.97-162.06-628.76z"/>
			<g id="Group_6220" transform="translate(0 1.119)">
				<path id="Path_9731" class="st10" d="M-242.76-635.61c-1.4,0.67-2.08,2.29-1.55,3.76c1.65,4.51,9.57-3.93,20.65,11.46
					C-227.68-628.55-236.82-638.48-242.76-635.61z"/>
				<path id="Path_9732" class="st10" d="M-233.41-640.88c0.24-0.68,0.97-1.03,1.65-0.8c0.08,0.03,0.15,0.06,0.22,0.1
					c1.98,1.37-2.53,5.72,3.83,13.84C-231.23-630.88-235.18-637.36-233.41-640.88z"/>
			</g>
			<g id="Group_6221" transform="translate(122.171 1.119)">
				<path id="Path_9733" class="st10" d="M-225.29-635.61c1.4,0.68,2.06,2.29,1.55,3.76c-1.66,4.51-9.58-3.93-20.67,11.46
					C-240.37-628.55-231.24-638.48-225.29-635.61z"/>
				<path id="Path_9734" class="st10" d="M-234.63-640.88c-0.23-0.67-0.96-1.03-1.63-0.8c-0.08,0.03-0.15,0.06-0.23,0.1
					c-1.98,1.37,2.53,5.72-3.82,13.84C-236.82-630.88-232.85-637.36-234.63-640.88z"/>
			</g>
		</g>
	</g>
</g>
<g>
	<g>
		<g>
			<g>
				<defs>
					<rect id="SVGID_1_" x="-2008.87" y="-1619.8" width="300" height="99.08"/>
				</defs>
				<clipPath id="SVGID_2_">
					<use xlink:href="#SVGID_1_"  style="overflow:visible;"/>
				</clipPath>
				<g id="Mask_Group_20_3_" transform="translate(-1004 -892)" class="st11">
					<g>
						<g>
							<g>
								<defs>
									<rect id="SVGID_3_" x="975.13" y="929.12" width="300" height="111.09"/>
								</defs>
								<clipPath id="SVGID_4_">
									<use xlink:href="#SVGID_3_"  style="overflow:visible;"/>
								</clipPath>
								<g id="Mask_Group_11_3_" transform="translate(-14 -60.668)" class="st12">
									<g id="Group_6236_3_" transform="translate(1011.271 912.856)">
										<path id="Path_9711_4_" class="st8" d="M299.24,220.03c-11.23,0-22.11-1.41-33.14-2.57c-18.67-1.95-36.19-7.12-53.8-13.62
											c-19.5-7.2-41.41-2.68-60.72-9.87c-21.8-8.11-46.01-8.19-67.81-16.98c-9.85-3.97-17.62-7.01-28.2-7.01
											c-7.55,0-14.96,0.44-22.47,0c-7.07-0.4-14.24,0.88-21.13-1.04c-4.49-1.25-7.71-2.21-11.9-2.46v0.44
											c7.31,1.67,14.64,5.39,22.17,6.51c7.2,1.07,14.3,2.51,21.47,3.7c12.31,2.05,24.72,2.34,36.98,5.09
											c13.13,2.94,25.93,6.9,39.17,7.78c6.73,0.44,15.12,1.17,21.27,4.36c3.61,1.87,6.45,4.54,10.48,5.74
											c22.04,6.55,45.77,0.5,67.72,8.54c9.51,3.48,18.46,7.83,28.39,10.21c12.33,3.04,24.84,4.96,37.42,5.74
											c9.02,0.53,18.01,0.01,27.12,0.01v-4.57C307.91,220.13,303.56,220.03,299.24,220.03z"/>
										<path id="Path_9712_4_" class="st8" d="M146.19,185.32c8.54,1.03,18.38,2.49,26.85-0.38
											c12.43-4.21,22.33-14.32,33.92-19.81h-15.45c-2.05,3.25-0.79,6.43-5.15,8.81c-8.6,4.71-20.96,5.78-30.27,6.25
											c-9.98,0.5-21.28,2.71-30.85-0.64c-9.09-3.18-16.91-9.59-26.09-12.49c-5.83-1.84-11.25-0.86-17.16-1.67
											c-0.55-0.07-1.06-0.17-1.57-0.26h-4.77c11.47,5.06,23.84,8.06,35.52,12C122.62,181.05,134.34,183.79,146.19,185.32z"/>
										<path id="Path_9713_4_" class="st8" d="M175.04,166.91c0.16-0.59,0.12-1.22-0.1-1.78h-22.2
											c-2.12,1.26-4.41,2.05-6.78,2.32c-6.22,0.56-11.62-1.18-17.61-2.07c-0.69-0.1-1.37-0.17-2.05-0.25h-13.9
											c9.95,7.22,22.23,12.01,33.34,12.01C152.64,177.14,172.46,177.28,175.04,166.91z"/>
										<path id="Path_9714_4_" class="st8" d="M262.68,179.15c-9.73,0.99-19.72,2.28-29.29,4.1c-5.64,1.07-16.3,3-20.56,7.05
											c10.44,4.58,19.45,10.96,30.79,13.29c11.45,2.35,23.15,4.45,34.7,6.35c10.53,1.73,21.06-0.15,31.69,0.36
											c0.6,0.03,1.36,0.12,2.23,0.23v-6.58c-3.37,0.36-6.75,0.44-10.13,0.25c-11.56-1.09-22.64-3.08-34.38-3.08
											c-8.83,0-17.35-0.1-25.87-1.53c-5.68-0.95-12.96-2.03-16.68-7.54c7.52-3.38,15.98-3.82,24.06-4.2
											c11.02-0.51,22.06-1.53,33.14-1.53c9.29-0.12,18.56-1.01,27.75-2.67c0.62-0.1,1.34-0.21,2.12-0.33v-9.2
											c-5.5,1.09-11.04,2.57-16.32,2.89C284.78,177.7,273.74,178.03,262.68,179.15z"/>
										<path id="Path_9716_4_" class="st8" d="M186.7,185.69c-5.16,1.62-10.42,5.3-15.63,5.74c8.62,0,18.26,2.02,26.3-1.14
											c9.8-3.84,19.46-8.41,29.53-11.76c20.5-6.83,47.76,3.2,65.46-13.17c-8.65,0.16-16.9,2.09-25.48,2.07
											c-8.89-0.02-17.85,0.09-26.67,0.99c-6.45,0.66-13.93,2.31-19.49,6.55c-3.95,3.01-7.08,6.83-12.19,7.17
											c6.97-7.36,19.23-13.23,28.46-15.23c3.21-0.7,6.75-1.12,10.2-1.79h-21.98c-7.39,2.9-13.68,8.06-20.78,11.88
											C198.47,180.22,193.07,183.68,186.7,185.69z"/>
									</g>
								</g>
							</g>
						</g>
					</g>
				</g>
			</g>
		</g>
	</g>
	<g class="st13">
		<g>
			<g>
				<defs>
					<rect id="SVGID_5_" x="-2008.87" y="-1620.78" width="300" height="100.07"/>
				</defs>
				<clipPath id="SVGID_6_">
					<use xlink:href="#SVGID_5_"  style="overflow:visible;"/>
				</clipPath>
				<g id="Mask_Group_20_2_" transform="translate(-1004 -892)" class="st14">
					<g>
						<g>
							<g>
								<defs>
									<rect id="SVGID_7_" x="975.13" y="927.08" width="300" height="106.87"/>
								</defs>
								<clipPath id="SVGID_8_">
									<use xlink:href="#SVGID_7_"  style="overflow:visible;"/>
								</clipPath>
								<g id="Mask_Group_11_2_" transform="translate(-14 -60.668)" class="st15">
									<g id="Group_6236_2_" transform="translate(1011.271 912.856)">
										<path id="Path_9709_3_" class="st8" d="M55.88,206.72c21.35-7.18,44.1-2.82,66.16-5.17c1.58-0.17,8.13-0.18,8.42-3.03
											c0.38-3.8-10.55-4.93-12.78-5.31c-13.68-2.3-27.17-5.02-40.97-6.39c-15.82-1.57-31.48-4.66-47.25-6.52
											c-9.24-1.09-19.68-4.33-29.42-5.21v5.22c6.34,1.29,14.46,1.02,17.66,1.6c11.79,2.14,22.83,6.3,34.76,7.63
											c10.88,1.21,21.87,2.19,32.58,4.41c5.86,1.21,20.68,0.1,24.62,4.92c-7.03,4-19.99-0.73-27.67,0.15
											c-9.33,1.07-19.47-0.18-28.54,2.44c-8.9,2.57-14.05,5.61-23.55,1.35c-9.56-4.38-19.61-7.27-29.86-8.59v2.46
											c10.07,3,20.16,7.14,29.87,10.8C39.37,211.02,46.57,209.86,55.88,206.72z"/>
										<path id="Path_9711_3_" class="st8" d="M299.24,217.16c-11.23,0-22.11-1.36-33.14-2.47c-18.67-1.87-36.19-6.85-53.8-13.1
											c-19.5-6.93-41.41-2.58-60.72-9.49c-21.8-7.8-46.01-7.88-67.81-16.33c-9.85-3.82-17.62-6.74-28.2-6.74
											c-7.55,0-14.96,0.42-22.47,0c-7.07-0.39-14.24,0.85-21.13-1c-4.49-1.2-7.71-2.12-11.9-2.37v0.43
											c7.31,1.61,14.64,5.19,22.17,6.27c7.2,1.03,14.3,2.41,21.47,3.56c12.31,1.97,24.72,2.25,36.98,4.9
											c13.13,2.83,25.93,6.64,39.17,7.48c6.73,0.43,15.12,1.13,21.27,4.19c3.61,1.8,6.45,4.37,10.48,5.53
											c22.04,6.3,45.77,0.48,67.72,8.21c9.51,3.35,18.46,7.53,28.39,9.82c12.33,2.92,24.84,4.77,37.42,5.53
											c9.02,0.51,18.01,0.01,27.12,0.01v-4.4C307.91,217.26,303.56,217.16,299.24,217.16z"/>
										<path id="Path_9712_3_" class="st8" d="M146.19,183.77c8.54,0.99,18.38,2.39,26.85-0.37
											c12.43-4.05,22.33-13.78,33.92-19.05h-15.45c-2.05,3.13-0.79,6.19-5.15,8.48c-8.6,4.53-20.96,5.56-30.27,6.02
											c-9.98,0.49-21.28,2.6-30.85-0.61c-9.09-3.06-16.91-9.23-26.09-12.02c-5.83-1.77-11.25-0.83-17.16-1.61
											c-0.55-0.07-1.06-0.16-1.57-0.25h-4.77c11.47,4.87,23.84,7.75,35.52,11.55C122.62,179.66,134.34,182.29,146.19,183.77z"/>
										<path id="Path_9713_3_" class="st8" d="M175.04,166.06c0.16-0.57,0.12-1.18-0.1-1.71h-22.2
											c-2.12,1.21-4.41,1.97-6.78,2.23c-6.22,0.54-11.62-1.14-17.61-1.99c-0.69-0.1-1.37-0.16-2.05-0.24h-13.9
											c9.95,6.95,22.23,11.55,33.34,11.55C152.64,175.9,172.46,176.03,175.04,166.06z"/>
										<path id="Path_9714_3_" class="st8" d="M262.68,177.84c-9.73,0.95-19.72,2.19-29.29,3.94c-5.64,1.03-16.3,2.89-20.56,6.78
											c10.44,4.41,19.45,10.54,30.79,12.78c11.45,2.26,23.15,4.28,34.7,6.11c10.53,1.67,21.06-0.15,31.69,0.34
											c0.6,0.03,1.36,0.12,2.23,0.23v-6.33c-3.37,0.34-6.75,0.43-10.13,0.24c-11.56-1.05-22.64-2.96-34.38-2.96
											c-8.83,0-17.35-0.1-25.87-1.48c-5.68-0.92-12.96-1.95-16.68-7.26c7.52-3.25,15.98-3.68,24.06-4.04
											c11.02-0.49,22.06-1.47,33.14-1.47c9.29-0.11,18.56-0.97,27.75-2.57c0.62-0.1,1.34-0.2,2.12-0.31v-8.85
											c-5.5,1.05-11.04,2.47-16.32,2.78C284.78,176.44,273.74,176.76,262.68,177.84z"/>
										<path id="Path_9716_3_" class="st8" d="M186.7,184.13c-5.16,1.56-10.42,5.1-15.63,5.53c8.62,0,18.26,1.94,26.3-1.09
											c9.8-3.7,19.46-8.09,29.53-11.31c20.5-6.57,47.76,3.08,65.46-12.67c-8.65,0.15-16.9,2.01-25.48,1.99
											c-8.89-0.02-17.85,0.09-26.67,0.96c-6.45,0.63-13.93,2.22-19.49,6.3c-3.95,2.9-7.08,6.57-12.19,6.9
											c6.97-7.08,19.23-12.73,28.46-14.65c3.21-0.67,6.75-1.08,10.2-1.73h-21.98c-7.39,2.79-13.68,7.75-20.78,11.43
											C198.47,178.86,193.07,182.2,186.7,184.13z"/>
									</g>
								</g>
							</g>
						</g>
					</g>
				</g>
			</g>
		</g>
	</g>
</g>
</svg>
