<?xml version="1.0" encoding="utf-8"?>
<!-- Generator: Adobe Illustrator 24.2.3, SVG Export Plug-In . SVG Version: 6.00 Build 0)  -->
<svg version="1.1" id="Layer_1" xmlns="http://www.w3.org/2000/svg" xmlns:xlink="http://www.w3.org/1999/xlink" x="0px" y="0px"
	 viewBox="0 0 300 200" style="enable-background:new 0 0 300 200;" xml:space="preserve">
<style type="text/css">
	.st0{fill:url(#Rectangle_24799_2_);}
	.st1{fill:url(#Path_10136_2_);}
	.st2{opacity:0.6;}
	.st3{opacity:0.18;}
	.st4{opacity:0.32;fill:#D8AB6B;enable-background:new    ;}
	.st5{opacity:0.32;fill:#6B3F32;enable-background:new    ;}
	.st6{opacity:0.5;}
	.st7{fill:#C0A48D;}
	.st8{fill:url(#Path_10052_2_);}
	.st9{fill:#6E3515;}
	.st10{fill:#8A592F;}
	.st11{fill:#9A9682;}
	.st12{fill:#FFFFFF;}
	.st13{fill:url(#Path_10058_2_);}
	.st14{fill:url(#Path_10059_2_);}
	.st15{opacity:0.3;}
	.st16{fill:url(#Path_10085_2_);}
	.st17{fill:#3F1212;}
	.st18{fill:url(#Path_10087_2_);}
	.st19{fill:url(#Path_10088_2_);}
	.st20{fill:url(#Path_10089_2_);}
	.st21{fill:url(#Ellipse_530_2_);}
	.st22{fill:url(#Path_10090_2_);}
	.st23{opacity:0.5;fill:url(#Path_10091_2_);enable-background:new    ;}
	.st24{fill:#FAF298;}
	.st25{fill:url(#Path_10095_2_);}
	.st26{opacity:0.5;fill:#C0A48D;enable-background:new    ;}
	.st27{opacity:0.7;fill:url(#Path_10042_2_);enable-background:new    ;}
	.st28{opacity:0.7;fill:url(#Path_10043_2_);enable-background:new    ;}
	.st29{opacity:0.7;fill:url(#Path_10044_2_);enable-background:new    ;}
	.st30{fill:#945A25;}
	.st31{fill:url(#Path_10046_2_);}
	.st32{opacity:0.5;fill:url(#Path_10047_2_);enable-background:new    ;}
</style>
<g id="Group_6613_1_" transform="translate(-1077 -1335.001)">
	<g id="Group_6609_1_" transform="translate(-529 -79.975)">
		<g id="Group_6356_1_" transform="translate(1606 1414.976)">
			<g id="Group_6355_1_" transform="translate(0 0)">
				<g id="Group_6350_1_" transform="translate(0 0)">
					<g id="Group_6342_1_">
						
							<linearGradient id="Rectangle_24799_2_" gradientUnits="userSpaceOnUse" x1="-1371.7957" y1="-166.9062" x2="-1371.7957" y2="-164.5742" gradientTransform="matrix(229.092 0 0 82.464 314417.4063 13768.7656)">
							<stop  offset="0" style="stop-color:#813B25"/>
							<stop  offset="0.534" style="stop-color:#85513B"/>
							<stop  offset="0.983" style="stop-color:#9A6146"/>
							<stop  offset="0.991" style="stop-color:#AD6E51"/>
							<stop  offset="0.997" style="stop-color:#977364"/>
							<stop  offset="1" style="stop-color:#9B786A"/>
						</linearGradient>
						<rect id="Rectangle_24799_1_" y="0" class="st0" width="300" height="192.89"/>
						
							<linearGradient id="Path_10136_2_" gradientUnits="userSpaceOnUse" x1="-1372.4502" y1="119.8474" x2="-1371.1407" y2="119.8474" gradientTransform="matrix(229.091 0 0 3.061 314416 -170.4129)">
							<stop  offset="0" style="stop-color:#7A543B"/>
							<stop  offset="1" style="stop-color:#875F4E"/>
						</linearGradient>
						<path id="Path_10136_1_" class="st1" d="M11.38,200h277.23l11.38-7.12H0L11.38,200z"/>
					</g>
				</g>
			</g>
		</g>
		<g class="st2">
			<g>
				<g id="Mask_Group_16_1_" transform="translate(1606 1414.977)" class="st3">
					<g id="Group_6358_1_" transform="translate(-10.18 -27.741)">
						<path id="Path_9688_5_" class="st4" d="M253.96,189.45c-19.89,2.31-99.44-7.49-110.86-6.92c-11.42,0.57-67.27,11.5-79.97,8.06
							c-9.03-2.46-37.33-3.45-52.91-3.82v1.63c21.35,3.57,68.62,10.74,79.81,6.29c14.57-5.81,71.27-4.92,88.19-3.35
							s71.51,7.43,99.44,3.35c10.8-1.64,21.73-1.54,32.5,0.28v-3.68C293.89,189.84,267.23,187.91,253.96,189.45z"/>
						<path id="Path_9689_5_" class="st4" d="M216.3,173.89c-22.42,0.57-76.59-6.34-88.86-4.61c-12.27,1.73-63.47,10.17-74.89,7.68
							c-8.08-1.77-30.11-2.57-42.34-2.89v1.51c16.66,3.29,53.05,10.13,63.07,9.26c13.12-1.15,68.12-10.38,81.23-8.07
							s83.35,6.87,101.55,5.74c12.62-0.79,39.05,0.68,54.08,1.65v-5.54C286.89,176.98,233.64,173.45,216.3,173.89z"/>
						<path id="Path_9690_5_" class="st4" d="M179.91,158.9c-13.54,1.15-52.89-1.15-87.59,2.88c-26.46,3.08-65.19,2.14-82.11,1.5
							v1.4c16.61,3.35,52.94,10.1,63.91,7.46c14.39-3.45,70.66-14.41,84.63-9.22c13.97,5.19,76.59,4.06,90.55,6.07
							c10.47,1.5,43.29,4.49,60.85,4.68v-6.32c-16.75-0.43-47.11-1.29-51.97-2.12C251.41,164.09,193.45,157.75,179.91,158.9z"/>
						<path id="Path_9691_5_" class="st4" d="M244.36,106.13c-8.67-4.38-44.63-10.13-53.77-11.82c-10.35-1.91-20.43-3.97-30.87-5.15
							c-23.2-2.65-46.14,2.56-69.09,4.01c-6.27,0.4-12.33,1.93-18.61,2.34c-4.78,0.26-9.5,1.44-13.97,3.45
							c9.14,4.62,20.62,6.06,30.47,6.79c11.04,0.82,21.6,3.54,32.47,4.87c19.98,2.44,41.84,2.46,61.46-1.87
							c6.79-1.49,13.96-1.79,20.75-3.42C206.22,104.6,243.38,109.52,244.36,106.13z M137.18,106.44c-9.59-0.64-19.18-0.57-28.7-2.91
							c-10.31-2.64-20.85-3.79-31.4-3.43c6.99,0.04,13.96-0.96,20.74-3c7.94-2.73,14.53-0.23,22.4,0.7
							c9.27,1.11,17.32-3.63,26.37-4.05c18.92-0.88,38.04,3.07,56.55,5.89c-5.26,2.74-13.4,3.05-19.34,4.61
							C169.09,108.14,152.68,107.48,137.18,106.44L137.18,106.44z"/>
						<path id="Path_9692_3_" class="st5" d="M212.9,100.67c-18.51-2.82-47.38-7.79-66.3-6.91c-9.05,0.43-17.1,5.15-26.37,4.05
							c-7.89-0.94-14.47-3.44-22.4-0.7c-6.78,2.03-13.74,3.04-20.74,3c10.54-0.37,21.09,0.79,31.4,3.43
							c9.5,2.34,19.1,2.27,28.7,2.91c15.5,1.04,31.92,1.7,46.64-2.17C189.75,102.69,207.63,103.41,212.9,100.67z M146.06,103.56
							c-6.51,0.61-13.05,0.57-19.56-0.13c-3.8-0.49-7.95-1.81-12.05-2.79c-3.31,0.03-6.61-0.35-9.86-1.13
							c3.31-0.16,6.63,0.22,9.86,1.13c4.4,0.13,8.98,0.03,11.73,0.03c5.38,0.2,10.76-0.18,16.08-1.14
							c6.21-1.36,11.58-3.3,18.19-2.89c6.6,0.41,18.51-1,24.11,4.2C173.58,108.24,158.17,102.71,146.06,103.56L146.06,103.56z"/>
						<path id="Path_9693_5_" class="st4" d="M104.59,99.53c3.25,0.78,6.54,1.15,9.86,1.13C111.23,99.74,107.9,99.36,104.59,99.53z"
							/>
						<path id="Path_9694_5_" class="st4" d="M184.54,100.85c-5.59-5.2-17.49-3.79-24.11-4.2c-6.61-0.41-11.98,1.53-18.19,2.89
							c-5.32,0.96-10.7,1.34-16.08,1.14c-2.74,0-7.32,0.1-11.73-0.03c4.1,0.98,8.25,2.29,12.05,2.79c6.5,0.7,13.04,0.74,19.56,0.13
							C158.17,102.71,173.58,108.23,184.54,100.85z"/>
						<path id="Path_9695_5_" class="st4" d="M20.39,140.43c7.29,1.43,14.44,4.12,21.69,5.2c5.41,0.97,10.91,1.17,16.37,0.59
							c4.29-0.57,10.7-2.12,14.8,0.13c-6.64,6.98-22.98,5.06-31.69,5.06c-6.08,0.23-12.16,0.04-18.23-0.57
							c-3.94-0.53-7.62,0.34-11.35,0.64c8.76,0.4,17.7,2.25,26.5,2.23c8.54-0.01,17.07-0.01,25.61,0c7.44,0,14.39-1.84,21.78-2.27
							c8.2-0.48,16.77-0.02,25.03-0.71c-4.37-6.44-20.9-5.57-27.45-6.81c-9.92-2.11-19.96-3.26-30.02-3.45
							c-10.01,0-20.22,0.82-30.06-1.16c-3.9-0.79-8.56-2.33-13.14-3.33v4.13C13.91,140.23,17.69,139.89,20.39,140.43z"/>
						<path id="Path_9698_5_" class="st4" d="M293.43,135.84c-16.58-0.84-32.27-1.43-48.79,0.55c-13.57,1.62-27.87,0.97-41.36,3.62
							c-5.44,1.07-10.5,3.55-15.86,4.93c-5.03,1.29-10.8,0.41-15.91,0.8c0.03,0.52,0.03,1.05,0,1.56c9.87,3.67,20.84,4.74,31.25,4.7
							c17.67-0.06,35.03,4.35,52.56,5.19c11.24,0.54,22.52-0.57,33.85-0.57c7.19,0,13.98-1.23,20.98-1.89v-5.12
							c-0.73,0.06-1.42,0.1-2.03,0.1h-13.96c-15.4,0-30.84,0.51-46.21-0.45c-15.79-1-33.65,6.63-48.43-3.04
							c9.05,0.19,17.73-1.58,26.53-1.71c7.51-0.11,13.92-3.03,21.16-4.04c8.47-1.17,17.08-0.24,25.5,0.45
							c9.75,0.65,19.46,1.89,29.11,3.72c1.22,0.25,4.6,0.93,8.35,1.29v-10.27C302.84,135.3,295.09,135.92,293.43,135.84z"/>
						<path id="Path_9699_5_" class="st4" d="M246.76,145.06c12.83-2.1,26.47,2.14,39.31,1.04c-3.81-3.69-14.89-3.25-19.85-3.92
							C262.47,141.68,248.14,139.35,246.76,145.06z"/>
						<path id="Path_9700_5_" class="st4" d="M176.86,197.67c-6.63-2.27-13.45-3.67-20.34-4.18c-12.38-0.68-24.7,2.88-37.12,2.88
							c-17.37,0-33.6,5.2-51.3,3.01c-9.58-1.18-19.13,0.96-28.55-1.7c-5.69-1.82-11.57-2.67-17.46-2.47
							c-2.84,0.2-7.83-0.06-11.86,0.7v4.72c5.8,1.96,12.2,1.56,18.24,3.28c9.1,2.58,18.45,7.06,27.8,7.46
							c12.36,0.77,24.75-0.26,36.91-3.04c10.59-2.59,21.22-2.14,31.86-4.59c8.73-2.02,18.06-1.01,26.98-1.01
							c6.52,0,26.93-2.07,30.4,6.23c-3.27,4.42-8.78,5.75-12.64,9.33c-3.09,2.84-5.95,6.01-8.55,9.45h5.96
							c9.65-8.51,18.48-18.63,29.53-24.43C190.63,200.58,183.26,199.71,176.86,197.67z"/>
						<path id="Path_9701_5_" class="st4" d="M283.06,199.82c-9.79,0.55-19.74,0.6-29.62,0.59c-9.88-0.01-19.58,0.79-29.44-0.61
							c-6.58-0.93-19.29-4.34-25.42-0.42c2.26,4.52,9.27,8.86,12.66,12.55c6.48,7.03,14.86,13.91,23.24,15.57
							c0.45,0.09,0.84,0.16,1.17,0.21h1.49c0.87-0.26,1.28-1.23,2.8-3.51c-6.43-6.34-26.36-8.52-28.25-19.09
							c17.77-1.23,36.17,0.8,53.98,1.64c11.33,0.54,22.75,0,34.08,0c2.26,0,6.32,0.39,10.39,0.15v-8.32
							c-3.34,0.65-6.71,1.08-10.1,1.26C294.42,199.81,288.7,199.5,283.06,199.82z"/>
						<path id="Path_9702_5_" class="st4" d="M36.8,130.62c12.85,0.79,26.35,4.49,39.02,7.52c12.5,2.99,24.85,3.84,37.55,5.15
							c8.89,0.92,17.41,6.42,26.34,5.79c12.79-0.9,24.99-4.36,37.66-5.19c6.53-0.43,11.82-2.36,18.08-4.16
							c5.93-1.71,15.3-0.22,20.28-4.51c-10.12,0.24-19.72,1.76-29.91,1.76c-12.67,0-24.07,3.3-36.38,5.75
							c-10.54,2.1-19.31-0.32-29.71-2.74c-13.34-3.1-26.96-5.08-40.21-8.2c-9.24-2.17-18.56-4.39-27.83-6.34
							c-4.72-1-9.2-3.44-13.93-4.04c-4.73-0.59-9.11-0.42-13.67-2.29c-4.45-1.84-9.19-2.5-13.87-1.95v10.72
							c2.09,0.69,4.22,1.17,6.37,1.47C23.33,130.14,29.97,130.2,36.8,130.62z"/>
						<path id="Path_9703_5_" class="st4" d="M207.51,124.89c-18.34,0-36.07,0.6-53.85,5.33c-9.77,2.34-19.85,2.29-29.6-0.13
							c-6.21-1.44-12.27-2.77-18.6-3.6c-6.14-0.82-12.69-0.82-18.54-3.47c-8.04-3.66-14.89-8.1-23.35-9.2
							c-8.84-1.15-17.42-2.19-25.84-6.21c-8.68-4.15-18.84-10.38-27.51-6.98v5.01c7.68,1.33,15.84,5.59,22.97,7.32
							c8.69,2.11,17.16,4.63,25.81,6.33c15.21,2.99,29.85,6.25,44.78,11.54c19.59,6.95,42.14,12,61.87,4.6
							c9.28-3.47,18.83-3.52,28.34-4.73c15.74-1.78,31.55-2.55,47.35-2.34c22.73,0,46.07,1.29,68.81-0.6v-2.14
							c-14.07-0.67-28.04-1.86-42.13-1.86C247.89,123.73,227.8,124.89,207.51,124.89z"/>
						<path id="Path_9704_5_" class="st4" d="M43.24,101.13c9.19,3.13,18.37,5.47,27.6,8.35c23.71,7.39,48.12,14.52,72.37,15.99
							c7.78,0.52,15.58-0.21,23.18-2.18c5.44-1.45,11.64-2.22,16.78-5.35c-3.82-0.41-7.28,1.34-10.87,1.76
							c-4.29,0.49-8.79,0-13.11,0c-8.79,0-17.51,2.19-26.22,1.73c-15.9-0.85-31.94-9.04-47.41-12.13
							c-5.88-1.17-12.42-1.43-18.17-3.46c-6.13-2.16-12.15-5.48-18.62-7.61c-8.24-2.71-16.23-4.6-24.54-6.75
							c-2.65-0.69-5.96-0.9-9.19-1.46c3.48,1.99,7.07,3.68,10.76,5.07C31.66,97.11,37.37,99.13,43.24,101.13z"/>
						<path id="Path_9706_5_" class="st4" d="M245.06,113.94c-10.65,1.2-21.4,1.15-32.14,1.15c-7.12,0-17.15-0.68-23.24,3.9
							c5.17,0.88,10.4,1.13,15.62,0.71c18.56-1.02,37.19,0,55.86,0c10.73,0,21.19,1.31,31.84,1.15c3.15-0.05,10.74,0.31,17.15-1.05
							v-11.07c-8.28,3.04-15.48,5.2-24.9,5.2C271.86,113.94,258.37,112.44,245.06,113.94z"/>
						<path id="Path_9707_5_" class="st4" d="M264.87,96.65c-19.14-2.36-36.3-5.38-54.59-14.27c-22.24-10.81-44.38-8.55-67.28-5.3
							c-10.29,1.46-20.81,1.03-31.1,2.29c-10.33,1.49-20.71,2.26-31.11,2.29c-13.82-0.21-27.67,8.55-40.92,2.86
							c-6.33-2.72-12.3-5.18-19.04-5.72c-3.46-0.27-7.22,0.82-10.59,0.12c1.15,0.75,2.28,1.56,3.39,2.14
							c3.56,1.65,7.25,2.86,11.01,3.62c5.07,1.35,9.89,4.42,14.91,6.07c8.34,2.75,15.9,1.81,24.02-0.88
							c10.02-3.34,19.54-4.17,29.95-4.17c11.67,0,23.19-1.73,34.81-1.73c8.12,0,15.68-2.8,23.76-2.34
							c13.83,0.8,27.32,4.04,41.04,5.67c11.3,1.34,22.35,2.14,33.35,6.33c13.32,5.07,25.91,10.71,40.08,11.68
							c11.89,1.04,23.84,1.09,35.74,0.13c2-0.2,4.82-0.25,7.87-0.44v-7.01c-3.79,0.42-7.49,0.97-10.51,0.97
							C288.04,98.9,276.43,98.13,264.87,96.65z"/>
						<path id="Path_9709_5_" class="st4" d="M63.86,77.48c20.52-8.43,42.37-3.31,63.56-6.08c1.52-0.2,7.82-0.21,8.09-3.55
							c0.36-4.46-10.13-5.78-12.28-6.23c-13.14-2.7-26.1-5.89-39.36-7.49c-15.2-1.84-30.24-5.46-45.39-7.65
							c-8.87-1.28-18.91-5.09-28.27-6.12v6.11c6.09,1.51,13.89,1.19,16.97,1.87c11.33,2.5,21.94,7.4,33.39,8.95
							c10.45,1.43,21.01,2.57,31.3,5.17c5.63,1.43,19.86,0.11,23.65,5.77c-6.75,4.7-19.21-0.85-26.58,0.17
							c-8.96,1.25-18.71-0.21-27.42,2.87c-8.55,3.02-13.5,6.58-22.63,1.58c-9.06-5.1-18.74-8.49-28.7-10.07v2.88
							c9.67,3.52,19.37,8.39,28.7,12.66C47.99,82.52,54.91,81.16,63.86,77.48z"/>
						<path id="Path_9710_5_" class="st4" d="M50,66.67c5.33,0,9.53-1.48,14.4-2.44c5.17-1.02,10.7-0.02,15.95-0.58
							c-12.79-7.25-27.19,0.21-39.56-6.93c-7.78-4.49-14.18-8.08-22.93-7.35c-2.68,0.26-5.28,1.17-7.64,2.69v2.15
							c7.74,0.68,15.33,3,22.36,6.85C38.59,64.38,43.46,66.67,50,66.67z"/>
						<path id="Path_9711_5_" class="st4" d="M297.66,89.73c-10.79,0-21.24-1.6-31.84-2.9c-17.94-2.19-34.77-8.04-51.7-15.37
							c-18.73-8.13-39.79-3.03-58.34-11.14c-20.95-9.16-44.21-9.24-65.15-19.17c-9.45-4.48-16.93-7.92-27.09-7.91
							c-7.26,0-14.37,0.49-21.59,0c-6.79-0.46-13.68,1-20.3-1.17c-3.71-1.43-7.55-2.36-11.43-2.78v0.5
							c7.02,1.89,14.07,6.09,21.3,7.36c6.91,1.21,13.74,2.83,20.63,4.18c11.83,2.32,23.75,2.64,35.53,5.75
							c12.62,3.32,24.91,7.79,37.64,8.77c6.47,0.49,14.53,1.32,20.43,4.92c3.46,2.11,6.19,5.13,10.07,6.48
							c21.18,7.4,43.97,0.57,65.05,9.64c9.13,3.93,17.73,8.84,27.28,11.53c11.79,3.43,23.83,5.59,35.96,6.48
							c8.67,0.59,17.31,0.01,26.06,0.02v-5.16C305.99,89.84,301.81,89.73,297.66,89.73z"/>
						<path id="Path_9712_5_" class="st4" d="M150.62,50.54c8.21,1.16,17.66,2.81,25.8-0.43c11.94-4.76,21.46-16.17,32.58-22.36
							h-14.84c-1.97,3.67-0.76,7.26-4.95,9.96c-8.26,5.32-20.13,6.53-29.08,7.07c-9.59,0.57-20.44,3.06-29.64-0.72
							c-8.74-3.59-16.24-10.83-25.07-14.11c-5.6-2.08-10.8-0.98-16.49-1.89c-0.53-0.09-1.02-0.18-1.51-0.29h-4.58
							c11.01,5.72,22.9,9.1,34.13,13.56C127.9,45.7,139.17,48.79,150.62,50.54z"/>
						<path id="Path_9713_5_" class="st4" d="M178.33,29.76c0.15-0.67,0.12-1.37-0.09-2.01h-21.33c-1.99,1.41-4.21,2.3-6.51,2.61
							c-5.98,0.64-11.16-1.33-16.91-2.33c-0.67-0.12-1.32-0.19-1.97-0.28h-13.35c9.56,8.15,21.36,13.56,32.03,13.56
							C156.81,41.3,175.86,41.46,178.33,29.76z"/>
						<path id="Path_9714_5_" class="st4" d="M262.53,43.58c-9.34,1.12-18.94,2.57-28.13,4.63c-5.42,1.21-15.66,3.39-19.75,7.96
							c10.03,5.17,18.69,12.37,29.59,15c11.01,2.66,22.24,5.03,33.34,7.17c10.12,1.95,20.24-0.17,30.44,0.41
							c0.58,0.03,1.31,0.14,2.14,0.26v-7.42c-3.23,0.41-6.49,0.49-9.74,0.28c-11.11-1.23-21.75-3.47-33.02-3.47
							c-8.31,0.24-16.63-0.34-24.85-1.73c-5.44-1.08-12.45-2.29-16.03-8.51c7.23-3.81,15.36-4.32,23.11-4.75
							c10.59-0.58,21.2-1.73,31.84-1.73c8.94-0.14,17.86-1.15,26.66-3.02c0.6-0.12,1.28-0.24,2.04-0.37V37.9
							c-5.28,1.23-10.6,2.9-15.68,3.27C283.77,41.94,273.16,42.31,262.53,43.58z"/>
						<path id="Path_9715_5_" class="st4" d="M286.11,58.02c-13.31-0.02-26.59,1.53-39.63,4.63c6.79-0.86,14.08,1.28,20.91,1.14
							c7.73-0.16,15.69-1.03,23.41,0.54c4.23,0.86,12.06,3.01,19.36,3.44v-4.78c-3.09-0.1-6.17-0.21-9.19-0.46
							c1.6-2.78,5.38-3.54,9.19-3.87v-4.88c-1.15,0.35-2.27,0.67-3.31,0.92C299.59,56.42,293.61,58.02,286.11,58.02z"/>
						<path id="Path_9716_5_" class="st4" d="M189.54,50.95c-4.96,1.83-10.02,5.98-15.02,6.48c8.29,0,17.54,2.28,25.27-1.28
							c9.41-4.34,18.7-9.49,28.37-13.28c19.7-7.71,45.88,3.62,62.89-14.87c-8.31,0.17-16.23,2.36-24.49,2.33
							c-8.56-0.15-17.1,0.22-25.63,1.13c-6.19,0.74-13.38,2.61-18.72,7.4c-3.8,3.41-6.8,7.72-11.71,8.09
							c6.69-8.31,18.47-14.94,27.35-17.19c3.09-0.79,6.49-1.26,9.81-2.03h-21.12c-7.1,3.27-13.14,9.1-19.97,13.41
							C200.84,44.78,195.66,48.69,189.54,50.95z"/>
						<path id="Path_9717_5_" class="st4" d="M164.61,207.99c-3.37-0.18-6.74-0.02-10.09,0.49c-11.23,1.54-22.92,1.15-34.27,1.15
							c-14.41,0-28.18,5.26-42.42,7.05c-11.71,1.48-23.01,2.21-34.64-0.83c-10.96-2.86-21.72-7.68-33-8.44v5.51
							c2.63,1.53,5.44,2.67,7.23,3.5c9.02,4.23,18.65,9.24,28.34,11.3h24.82c7.55-0.66,15.05-1.88,22.46-3.67
							c9.56-2.37,18.83-3.38,28.56-4.64c5.09-0.66,10.37-0.03,15.44-1.11c4.75-1.01,10.07-4.48,14.88-3.36
							c-3.03,3.82-9.97,7.08-11.25,12.78h7.15c2.21-0.56,4.24-1.88,5.82-3.8C156.24,220.91,165.07,212.73,164.61,207.99z"/>
						<path id="Path_9718_5_" class="st4" d="M199.71,211.92c-5.87-0.56-12.04,7.54-13.83,15.78h6.24c0.75-2.39,1.28-4.99,3.01-6.13
							c3.35-2.19,7.02,2.7,9.76,4.77c0.57,0.44,1.16,0.89,1.76,1.37h15.88c-1.59-1.75-3.26-3.36-5.04-4.82
							C212.99,218.95,205.05,212.44,199.71,211.92z"/>
						<path id="Path_9719_5_" class="st4" d="M272.9,213.09c-7.94-0.5-15.74,1.16-23.71,0.57c-3.62-0.26-6.98-1.3-10.57-1.73
							c-2.88-0.34-5.95,0.69-8.67-0.64c5.23,3.39,10.92,4.67,15.98,8.86c3.18,2.63,5.44,4.9,9.19,5.74c9.08,2.04,19.22,1,28.54,0.45
							c5.65-0.13,11.29,0.33,16.87,1.37h9.61v-14.51c-3.76,0.63-7.55,0.98-11.35,1.04C290.05,214.24,281.54,213.64,272.9,213.09z"/>
					</g>
				</g>
			</g>
		</g>
	</g>
	<g id="Group_6610_1_" transform="translate(1104.534 1349.877)">
		<g id="Group_6310_1_" transform="translate(4.146)" class="st6">
			<path id="Path_10051_1_" class="st7" d="M59.32,100.14l1.71-28.5c-0.58-0.61-0.56-1.58,0.04-2.17c0.02-0.02,0.04-0.04,0.07-0.06
				c1.19-0.96,11.16-1.79,12.78-3.28c0.67-0.6-0.75-4.36,0-4.89c1.06-0.76,8.12-0.29,8.12-0.29c1.39,0.79,0.4,3.88,2.17,4.94
				c1.92,1.14,11.97,3.17,13.16,3.49c1.19,0.32,1.78,2.79,1.78,2.79l1.51,26.34L59.32,100.14z"/>
		</g>
		<g id="Group_6312_1_" transform="translate(0 8.197)">
			
				<linearGradient id="Path_10052_2_" gradientUnits="userSpaceOnUse" x1="-1412.5713" y1="-120.8662" x2="-1411.1158" y2="-121.7292" gradientTransform="matrix(31.292 0 0 15.7956 44260.2344 1998.9747)">
				<stop  offset="0" style="stop-color:#5F5752"/>
				<stop  offset="0.032" style="stop-color:#635C56"/>
				<stop  offset="0.067" style="stop-color:#6E6863"/>
				<stop  offset="0.103" style="stop-color:#817E79"/>
				<stop  offset="0.14" style="stop-color:#9E9A96"/>
				<stop  offset="0.165" style="stop-color:#B6B5B0"/>
				<stop  offset="0.262" style="stop-color:#B4AFA9"/>
				<stop  offset="0.393" style="stop-color:#ABA298"/>
				<stop  offset="0.544" style="stop-color:#9E8D7C"/>
				<stop  offset="0.711" style="stop-color:#8F7156"/>
				<stop  offset="0.887" style="stop-color:#7A4D21"/>
				<stop  offset="0.995" style="stop-color:#693614"/>
			</linearGradient>
			<path id="Path_10052_1_" class="st8" d="M105.49,88.85h0.01l-3.77-14.07h-0.01c-0.68-2.52-3.52-4.42-6.89-4.42H64.09
				c-3.88,0-7.07,2.52-7.07,5.59c0.01,0.49,0.1,0.98,0.27,1.45h-0.02l6.2,14.54l0.01-0.01c1.32,2.17,3.7,3.45,6.21,3.33h29.24
				c3.69,0,6.71-2.39,6.71-5.32C105.64,89.58,105.59,89.2,105.49,88.85z"/>
			<g id="Group_6311_1_" transform="translate(0.789 7.608)">
				<path id="Path_10053_1_" class="st9" d="M57.48,69.93h-0.02l0.03,0.06L57.48,69.93z"/>
				<path id="Path_10054_1_" class="st9" d="M103.53,80.86L103.53,80.86l-2.92-10.9h-0.08c-0.36,1.78-1.98,3-3.76,2.83H61.25
					c-1.18,0.03-2.32-0.45-3.13-1.32l5.28,12.35l0,0c1.27,2.07,3.54,3.29,5.94,3.18h27.92c3.52,0,6.41-2.29,6.41-5.08
					C103.68,81.55,103.63,81.2,103.53,80.86z"/>
			</g>
			<path id="Path_10055_1_" class="st10" d="M97.56,80.39H62.04c-1.85,0.2-3.52-1.13-3.79-3l0,0c0.27-1.87,1.94-3.19,3.79-3h35.52
				c1.85-0.19,3.52,1.13,3.79,3l0,0C101.08,79.26,99.41,80.59,97.56,80.39z"/>
			<path id="Path_10056_1_" class="st11" d="M98.52,93.83H69.63c-1.51,0.16-2.87-0.92-3.08-2.44l0,0c0.21-1.52,1.57-2.6,3.08-2.44
				h28.89c1.51-0.16,2.87,0.92,3.08,2.44l0,0C101.39,92.9,100.03,93.98,98.52,93.83z"/>
			<path id="Path_10057_1_" class="st12" d="M96.49,77.44H62.57c-1.77,0.19-3.36-1.08-3.61-2.86l0,0c0.25-1.79,1.84-3.06,3.61-2.87
				H96.5c1.77-0.18,3.36,1.09,3.61,2.87l0,0C99.86,76.36,98.26,77.63,96.49,77.44z"/>
			
				<linearGradient id="Path_10058_2_" gradientUnits="userSpaceOnUse" x1="-1353.9742" y1="-34.2308" x2="-1352.7117" y2="-34.813" gradientTransform="matrix(7.12 0 0 6.0881 9713.2842 283.0385)">
				<stop  offset="5.000000e-03" style="stop-color:#693614"/>
				<stop  offset="0.113" style="stop-color:#7A4D21"/>
				<stop  offset="0.289" style="stop-color:#8F7156"/>
				<stop  offset="0.456" style="stop-color:#9E8D7C"/>
				<stop  offset="0.607" style="stop-color:#ABA298"/>
				<stop  offset="0.738" style="stop-color:#B4AFA9"/>
				<stop  offset="0.835" style="stop-color:#B6B5B0"/>
				<stop  offset="0.86" style="stop-color:#9E9A96"/>
				<stop  offset="0.897" style="stop-color:#817E79"/>
				<stop  offset="0.933" style="stop-color:#6E6863"/>
				<stop  offset="0.968" style="stop-color:#635C56"/>
				<stop  offset="1" style="stop-color:#5F5752"/>
			</linearGradient>
			<path id="Path_10058_1_" class="st13" d="M81.98,72.73L82,72.72c0,0-1.96-4.84-2.12-5.02c-0.21-0.22-8.74,2.73-8.74,2.73
				s2.31,4.18,2.38,4.38l0.01-0.01c0.79,1.61,2.46,2.58,4.23,2.48c2.46,0,4.44-1.58,4.44-3.52C82.2,73.4,82.13,73.05,81.98,72.73z"
				/>
			
				<linearGradient id="Path_10059_2_" gradientUnits="userSpaceOnUse" x1="-1340.8771" y1="5.9906" x2="-1339.4028" y2="5.5894" gradientTransform="matrix(6.052 0 0 4.73 8186.3013 41.8498)">
				<stop  offset="0" style="stop-color:#491911"/>
				<stop  offset="1" style="stop-color:#592917"/>
			</linearGradient>
			<path id="Path_10059_1_" class="st14" d="M80.32,69.27c0,2.06-2.11,3.73-4.71,3.73s-4.69-1.67-4.69-3.73
				c0-2.06,2.1-3.73,4.7-3.73C78.22,65.54,80.32,67.21,80.32,69.27z"/>
		</g>
	</g>
	<g id="Group_6611_1_" transform="translate(1139.614 1337.756) rotate(7)">
		<g id="Group_6324_1_" transform="translate(5.261)" class="st15">
			
				<linearGradient id="Path_10085_2_" gradientUnits="userSpaceOnUse" x1="-1449.1683" y1="-158.7178" x2="-1447.1373" y2="-158.7132" gradientTransform="matrix(14.932 4.470986e-05 -5.919074e-05 35.2209 21719.3027 5666.5)">
				<stop  offset="0" style="stop-color:#4A3416"/>
				<stop  offset="0.079" style="stop-color:#5F4B27"/>
				<stop  offset="0.214" style="stop-color:#7F7046"/>
				<stop  offset="0.34" style="stop-color:#958A5B"/>
				<stop  offset="0.453" style="stop-color:#A39A68"/>
				<stop  offset="0.54" style="stop-color:#A8A06C"/>
				<stop  offset="0.665" style="stop-color:#A49C6A"/>
				<stop  offset="0.755" style="stop-color:#9E9365"/>
				<stop  offset="0.833" style="stop-color:#92845B"/>
				<stop  offset="0.905" style="stop-color:#806E4E"/>
				<stop  offset="0.973" style="stop-color:#6B533C"/>
				<stop  offset="0.99" style="stop-color:#654A37"/>
			</linearGradient>
			<path id="Path_10085_1_" class="st16" d="M107.98,96.64l0.6-22.15c0,0,0.32-15.16-1.43-16.65c-1.75-1.49-5.06-3.39-6.5-4.87
				c-1.64-1.7-0.12-6.94-2.29-8.22c-1.7-1-6.1-0.79-7.18,0.65c-1.46,1.97,1.3,6.56,0.78,8.81c-0.31,1.32-3.92,3.38-4.69,4.87
				c-0.77,1.49,2.06,14.79,2.06,14.79l-3.88,25.78L107.98,96.64z"/>
		</g>
		<g id="Group_6325_1_" transform="translate(0 11.123)">
			<path id="Path_10086_1_" class="st17" d="M100.19,67.76c0,2.43-2.48,4.39-5.53,4.38c-3.06-0.01-5.55-1.98-5.55-4.4
				c0-2.43,2.48-4.39,5.53-4.38S100.19,65.33,100.19,67.76z"/>
			
				<linearGradient id="Path_10087_2_" gradientUnits="userSpaceOnUse" x1="-1446.0334" y1="-142.0119" x2="-1444.6903" y2="-142.4907" gradientTransform="matrix(18.918 5.079546e-05 -2.585978e-05 20.0374 27445.5508 2931.9282)">
				<stop  offset="0" style="stop-color:#18100C"/>
				<stop  offset="0.11" style="stop-color:#19130C"/>
				<stop  offset="0.17" style="stop-color:#1C170D"/>
				<stop  offset="0.636" style="stop-color:#21150B"/>
				<stop  offset="0.995" style="stop-color:#29140B"/>
			</linearGradient>
			<path id="Path_10087_1_" class="st18" d="M112.08,81.44L107,63.57l-23.18,8.76L90.6,90.4l0.01-0.01
				c2.59,3.12,6.45,4.87,10.47,4.75c6.72,0.01,12.17-4.3,12.16-9.63C113.23,84.07,112.83,82.66,112.08,81.44z"/>
			
				<radialGradient id="Path_10088_2_" cx="-1441.5551" cy="-130.1103" r="0.7769" gradientTransform="matrix(16.5597 0.0306 0.0239 13.1243 23970.2988 1819.537)" gradientUnits="userSpaceOnUse">
				<stop  offset="0" style="stop-color:#0A0F0D"/>
				<stop  offset="1" style="stop-color:#2B2010"/>
			</radialGradient>
			<path id="Path_10088_1_" class="st19" d="M108.22,67.88c0.01,5.63-5.74,10.18-12.84,10.17c-7.1-0.01-12.87-4.6-12.88-10.22
				c-0.01-5.62,5.74-10.18,12.84-10.17C102.44,57.68,108.21,62.25,108.22,67.88z"/>
			
				<linearGradient id="Path_10089_2_" gradientUnits="userSpaceOnUse" x1="-1412.8571" y1="-111.0787" x2="-1411.5747" y2="-111.4881" gradientTransform="matrix(9.631 -1.860693e-05 -2.253585e-05 11.1331 13695.0713 1301.9417)">
				<stop  offset="0" style="stop-color:#18100C"/>
				<stop  offset="0.11" style="stop-color:#19130C"/>
				<stop  offset="0.17" style="stop-color:#1C170D"/>
				<stop  offset="0.356" style="stop-color:#16150E"/>
				<stop  offset="0.5" style="stop-color:#10120E"/>
				<stop  offset="0.843" style="stop-color:#20120A"/>
				<stop  offset="0.995" style="stop-color:#29140B"/>
			</linearGradient>
			<path id="Path_10089_1_" class="st20" d="M100.03,64.99l0.03-0.01l-0.08-0.13c-0.17-0.41-0.4-0.79-0.7-1.13l-3.25-10.41
				l-10.72,3.35l3.71,10.92c0.2,0.52,0.5,1,0.88,1.41l0.05,0.06l0.02-0.01c1.22,1.2,2.87,1.86,4.56,1.82
				c3.17,0.01,5.76-2.04,5.75-4.56C100.29,65.85,100.2,65.41,100.03,64.99z"/>
			
				<radialGradient id="Ellipse_530_2_" cx="-1394.1353" cy="-67.1896" r="0.7767" gradientTransform="matrix(7.4197 0.0137 0.0106 5.8811 10435.4844 469.3355)" gradientUnits="userSpaceOnUse">
				<stop  offset="0" style="stop-color:#0A0F0D"/>
				<stop  offset="1" style="stop-color:#2B2010"/>
			</radialGradient>
			<path id="Ellipse_530_1_" class="st21" d="M90.71,50.52c3.18,0.01,5.77,2.06,5.77,4.58c0,2.52-2.57,4.56-5.75,4.56
				c-3.18,0-5.77-2.06-5.77-4.58C84.95,52.56,87.53,50.52,90.71,50.52z"/>
			
				<linearGradient id="Path_10090_2_" gradientUnits="userSpaceOnUse" x1="-1420.1312" y1="-146.8794" x2="-1418.5717" y2="-146.8794" gradientTransform="matrix(10.768 -4.874522e-05 1.147206e-05 22.6509 15380.9082 3405.8281)">
				<stop  offset="0" style="stop-color:#FCF8CA"/>
				<stop  offset="1" style="stop-color:#787877"/>
			</linearGradient>
			<path id="Path_10090_1_" class="st22" d="M100.33,77.28c0,0-1.79-2.43-2.44-3.45c-0.97-1.54-1.83-3.22-1.83-3.22l-3.56-11.2
				l-3.65-0.01l3.66,11.15c-0.78,1.07-1.34,2.29-1.66,3.58c-0.39,1.05-0.38,2.2,0.01,3.25l5.6,17.02c1.5,0.48,3.06,0.73,4.63,0.73
				c1.55-0.16,3.08-0.48,4.56-0.96L100.33,77.28z"/>
			
				<linearGradient id="Path_10091_2_" gradientUnits="userSpaceOnUse" x1="-1421.2682" y1="-145.6489" x2="-1419.7097" y2="-145.6489" gradientTransform="matrix(11.0156 3.709563e-05 3.122033e-05 21.85 15751.9434 3257.5632)">
				<stop  offset="0" style="stop-color:#FCF8CA"/>
				<stop  offset="1" style="stop-color:#787877"/>
			</linearGradient>
			<path id="Path_10091_1_" class="st23" d="M112.82,85.36l-4.6-16.66c-1.12-0.61-2.31-1.05-3.55-1.32
				c-1.37-0.3-2.78-0.45-4.18-0.46l-4.25-11l-0.53,1.46l3.98,10.85c1.26,0.53,2.48,1.14,3.66,1.82c1.22,0.78,2.31,1.75,3.23,2.89
				l4.6,17.46c0,0,0.66-1.17,1.29-2.46C112.85,87.13,112.97,86.23,112.82,85.36z"/>
			<path id="Path_10092_1_" class="st24" d="M102.68,76.62c0.06,0.16-0.93,0.56-2.24,0.89c-0.79,0.29-1.63,0.4-2.47,0.31
				c-0.07-0.16,0.93-0.56,2.24-0.89C101,76.63,101.84,76.53,102.68,76.62z"/>
			<path id="Path_10093_1_" class="st24" d="M92.44,77.76c-0.06,0.16-0.66,0.16-1.33-0.01s-1.16-0.42-1.1-0.58
				c0.06-0.16,0.66-0.16,1.33,0S92.49,77.6,92.44,77.76z"/>
			<path id="Path_10094_1_" class="st24" d="M95.19,70.48c-0.06,0.16-0.33,0.23-0.62,0.16s-0.47-0.26-0.42-0.42
				c0.05-0.17,0.35-0.23,0.64-0.16C95.07,70.13,95.26,70.33,95.19,70.48z"/>
			
				<linearGradient id="Path_10095_2_" gradientUnits="userSpaceOnUse" x1="-1365.0658" y1="-42.8588" x2="-1363.5116" y2="-42.8588" gradientTransform="matrix(5.6333 5.127298e-05 -2.510619e-05 5.6327 7776.2114 297.9054)">
				<stop  offset="0" style="stop-color:#491911"/>
				<stop  offset="1" style="stop-color:#592917"/>
			</linearGradient>
			<path id="Path_10095_1_" class="st25" d="M94.89,54.83c0.59,2.38-0.83,4.79-3.17,5.38c-2.34,0.59-4.72-0.86-5.32-3.23
				c-0.59-2.38,0.83-4.79,3.17-5.38c0.35-0.09,0.7-0.13,1.06-0.13C92.99,51.47,94.89,52.98,94.89,54.83z"/>
		</g>
	</g>
	<g id="Group_6612_1_" transform="translate(1156.512 1344.514) rotate(-14)">
		<g id="Group_6307_1_" transform="translate(0.044)" class="st6">
			<path id="Path_10040_1_" class="st26" d="M69.15,121.88v-0.02l2.45-28.12c0.21-1.61,0.95-3.11,2.08-4.26
				c1.91-1.4,4.73-2.63,4.93-3.89c0.2-1.25-0.6-6.65,1.47-8.14c1.33-0.96,5.94-1.04,7.18-0.01c1.96,1.61-0.68,7.12-0.09,8.35
				c0.6,1.23,3.46,2.35,4.35,3.88c0.64,1.19,0.95,2.53,0.89,3.89l-3.22,28.55L69.15,121.88z"/>
		</g>
		<g id="Group_6308_1_" transform="translate(0 8.623)">
			<path id="Path_10041_1_" class="st17" d="M78.1,96.42c-0.01,2.08,2.12,3.76,4.75,3.75c2.62-0.01,4.75-1.71,4.76-3.78
				c0.01-2.08-2.11-3.75-4.74-3.74C80.26,92.66,78.11,94.35,78.1,96.42z"/>
			
				<linearGradient id="Path_10042_2_" gradientUnits="userSpaceOnUse" x1="-1811.3931" y1="-146.6266" x2="-1809.6821" y2="-146.8511" gradientTransform="matrix(14.779 0 -3.539688e-05 16.4908 22937.9316 2027.0215)">
				<stop  offset="0" style="stop-color:#5F5752"/>
				<stop  offset="0.032" style="stop-color:#635C56"/>
				<stop  offset="0.067" style="stop-color:#6E6863"/>
				<stop  offset="0.103" style="stop-color:#817E79"/>
				<stop  offset="0.14" style="stop-color:#9E9A96"/>
				<stop  offset="0.165" style="stop-color:#B6B5B0"/>
				<stop  offset="0.262" style="stop-color:#B2AFA9"/>
				<stop  offset="0.393" style="stop-color:#A49D98"/>
				<stop  offset="0.544" style="stop-color:#8E827C"/>
				<stop  offset="0.711" style="stop-color:#715E55"/>
				<stop  offset="0.887" style="stop-color:#4C2E22"/>
				<stop  offset="0.995" style="stop-color:#2F140B"/>
			</linearGradient>
			<path id="Path_10042_1_" class="st27" d="M71.47,94.74l20.68,5.58l-3.6,16.29h-0.01c-2.23,2.68-5.54,4.18-8.98,4.08
				c-5.78,0.02-10.44-3.67-10.43-8.24C69.13,111.21,71.47,94.74,71.47,94.74z"/>
			
				<radialGradient id="Path_10043_2_" cx="-1391.5691" cy="-97.9547" r="1.1309" gradientTransform="matrix(-14.1931 0.0508 -0.0397 11.2429 -27815.5547 1301.3053)" gradientUnits="userSpaceOnUse">
				<stop  offset="0" style="stop-color:#ECECEC"/>
				<stop  offset="0.227" style="stop-color:#C6C4C3"/>
				<stop  offset="0.736" style="stop-color:#696460"/>
				<stop  offset="0.799" style="stop-color:#5F5752"/>
				<stop  offset="0.975" style="stop-color:#615B57"/>
				<stop  offset="1" style="stop-color:#615B58"/>
			</radialGradient>
			<path id="Path_10043_1_" class="st28" d="M71.36,95.17c-1.16,5.9,5.15,10.89,12.6,9.96c4.66-0.57,8.46-3.6,9.19-7.28
				c1.17-5.9-5.15-10.89-12.62-9.96C75.89,88.47,72.09,91.49,71.36,95.17z"/>
			
				<linearGradient id="Path_10044_2_" gradientUnits="userSpaceOnUse" x1="-2063.53" y1="-168.4951" x2="-2061.7129" y2="-168.6245" gradientTransform="matrix(7.212 4.135451e-05 4.607312e-05 9.536 11061.6719 795.7797)">
				<stop  offset="0" style="stop-color:#938E8B"/>
				<stop  offset="0.052" style="stop-color:#96928F"/>
				<stop  offset="0.109" style="stop-color:#A29F9C"/>
				<stop  offset="0.165" style="stop-color:#B6B5B0"/>
				<stop  offset="0.368" style="stop-color:#B2AFA9"/>
				<stop  offset="0.643" style="stop-color:#A69D98"/>
				<stop  offset="0.959" style="stop-color:#95827D"/>
				<stop  offset="0.99" style="stop-color:#93817B"/>
			</linearGradient>
			<path id="Path_10044_1_" class="st29" d="M78.23,94.05l1.86-9.99l9.17,2.85l-1.59,9.35c-0.17,0.45-0.43,0.86-0.76,1.21
				l-0.03,0.06l-0.02-0.01c-1.05,1.03-2.46,1.59-3.91,1.56c-2.74,0.01-4.94-1.73-4.93-3.89C78.05,94.81,78.12,94.43,78.23,94.05z"/>
			<path id="Path_10045_1_" class="st30" d="M79.84,84.61c-0.9,2.92,2.33,5.47,6,4.75c1.61-0.23,2.98-1.31,3.59-2.84
				c0.9-2.91-2.33-5.46-6.01-4.74C81.82,82.01,80.45,83.09,79.84,84.61z"/>
			
				<linearGradient id="Path_10046_2_" gradientUnits="userSpaceOnUse" x1="-2050.1621" y1="-258.0352" x2="-2048.593" y2="-258.0352" gradientTransform="matrix(7.356 -5.267309e-06 -2.114206e-05 19.93 11286.2832 2629.0833)">
				<stop  offset="0" style="stop-color:#FCF8CA"/>
				<stop  offset="1" style="stop-color:#787877"/>
			</linearGradient>
			<path id="Path_10046_1_" class="st31" d="M78.6,105.38c0.22-1.11,0.57-2.18,1.05-3.2c0.6-1.03,1.09-2.13,1.47-3.26l2-9.65
				l4.05,0.52l-2.47,9.03c0.9,1.16,1.59,2.47,2.04,3.87c0.32,0.9,0.32,1.89-0.01,2.79l-3.21,14.58c-1.29,0.41-2.63,0.63-3.98,0.64
				c-1.33-0.14-2.65-0.41-3.92-0.82L78.6,105.38z"/>
			
				<linearGradient id="Path_10047_2_" gradientUnits="userSpaceOnUse" x1="-2047.819" y1="-254.3081" x2="-2046.2509" y2="-254.3081" gradientTransform="matrix(7.3598 1.321407e-05 0 18.732 11288.3164 2416.7625)">
				<stop  offset="0" style="stop-color:#FCF8CA"/>
				<stop  offset="1" style="stop-color:#787877"/>
			</linearGradient>
			<path id="Path_10047_1_" class="st32" d="M69.49,112.32l1.74-15.08c1.3-0.18,2.59-0.43,3.86-0.74c1.02-0.26,1.98-0.68,2.87-1.25
				l2.56-8.16l0.45,1.26l-2.43,8.5c-0.7,0.93-1.56,1.72-2.53,2.36c-1.09,0.63-2.22,1.2-3.38,1.69l-1.74,15.75c0,0-0.56-1-1.1-2.1
				C69.46,113.85,69.36,113.07,69.49,112.32z"/>
			<path id="Path_10048_1_" class="st24" d="M75.96,104.02c-0.06,0.14,0.81,0.48,1.92,0.76c0.68,0.25,1.4,0.34,2.12,0.27
				c0.05-0.14-0.81-0.47-1.92-0.76C77.41,104.04,76.68,103.94,75.96,104.02z"/>
			<path id="Path_10049_1_" class="st24" d="M84.75,104.99c0.06,0.14,0.57,0.14,1.13-0.01s1.01-0.36,0.95-0.5
				c-0.06-0.14-0.57-0.14-1.13,0S84.71,104.85,84.75,104.99z"/>
			<path id="Path_10050_1_" class="st24" d="M82.39,98.76c0.05,0.14,0.3,0.19,0.54,0.14c0.24-0.06,0.41-0.22,0.35-0.36
				c-0.06-0.14-0.29-0.2-0.54-0.14S82.34,98.62,82.39,98.76z"/>
		</g>
	</g>
</g>
</svg>
