<?xml version="1.0" encoding="utf-8"?>
<!-- Generator: Adobe Illustrator 24.2.3, SVG Export Plug-In . SVG Version: 6.00 Build 0)  -->
<svg version="1.1" id="Layer_1" xmlns="http://www.w3.org/2000/svg" xmlns:xlink="http://www.w3.org/1999/xlink" x="0px" y="0px"
	 viewBox="0 0 300 150" style="enable-background:new 0 0 300 150;" xml:space="preserve">
<style type="text/css">
	.st0{fill:#725F51;}
	.st1{fill:#D89B62;}
	.st2{fill:none;}
	.st3{opacity:0.5;}
	.st4{fill:#CD8954;}
	.st5{fill:#211E1A;}
</style>
<path id="Path_10459" class="st0" d="M263.36,145.23c0.72-5.11,1.59-10.12,2.59-15.02c0,0,2.12-15.02,1.65-24.53V0.57h10.82
	l-0.47,104.61c0,0-1.41,14.02,1.41,25.53l1.17,18.48L263.36,145.23z"/>
<path id="Path_9596" class="st0" d="M16.14,145.23c0.72-5.11,1.59-10.12,2.59-15.02c0,0,2.12-15.02,1.65-24.53V0.57H31.2
	l-0.47,104.61c0,0-1.41,14.02,1.41,25.53l1.17,18.48L16.14,145.23z"/>
<rect id="Rectangle_24661" class="st1" width="300" height="46.22"/>
<rect class="st2" width="300" height="46.22"/>
<g id="Group_6189">
	<g class="st3">
		<path class="st4" d="M17.07,25.52c-9.35,0.28-8.63-5.37-8.63-5.37l20.39-4.52L8.31,15.92c1.44-7.63,7.44-8.19,7.44-8.19
			l14.39-2.54L15.03,5.75c-9.12,0.56-9.6,10.74-9.6,10.74L2.08,16.2l0.36-8.48l2.52-2.26l-3.6-0.28l0.12-5.37l-2.16-1.7l0.36,42.67
			l2.76-5.65H1.12l0.12-13.84l4.2,0.57c0.84,13,13.79,10.17,13.79,10.17c8.51-1.98,30.46,4.24,30.46,4.24
			C44.29,27.5,17.07,25.52,17.07,25.52z"/>
		<path class="st4" d="M70.79,6.32l-0.56-0.01C70.62,6.33,70.79,6.32,70.79,6.32z"/>
		<path class="st4" d="M68.27,27.51c-1.08-3.67-4.41-6.93-6.12-7.63c-5.67-2.31-5.64-6.5-5.64-6.5c-0.12-7.63,4.8-7.35,4.8-7.35
			L77.66,6.3c-1.3-0.07-5.17-0.56-14.31-3.38C51.48-0.75,49.57,11.4,49.57,11.4C48.13,21,57.6,24.11,57.6,24.11
			c4.92,0.57,9.59,5.93,9.59,5.93c9.95,14.97,19.31,9.61,19.31,9.61C76.67,41.07,68.27,27.51,68.27,27.51z"/>
		<path class="st4" d="M129.07,34.86c-19.55,0.85-23.03-3.39-23.03-3.39c-2.16-4.8,2.76-6.5,2.76-6.5l4.44-0.28
			c6.12,0.28,5.04-3.67,5.04-3.67c-0.12-4.24-3.96-4.24-3.96-4.24c-6.48,0.28-9.83-4.24-9.83-4.24c-2.76-5.09,0.84-7.07,0.84-7.07
			c6.6-4.8,27.7,5.09,27.7,5.09c21.46,9.61,34.06,2.54,34.06,2.54c-9.83,3.67-44.85-8.76-44.85-8.75
			c-28.06-7.06-26.02,6.78-26.02,6.78c-0.12,6.5,6.72,6.5,6.72,6.5c13.43,1.13,7.68,4.8,7.68,4.8c-10.79,0-11.75,8.19-11.75,8.19
			c-1.08,13.56,23.86,10.17,23.86,10.17c12.95-2.26,60.2-8.48,60.2-8.48C175.84,28.08,129.07,34.86,129.07,34.86z"/>
		<path class="st4" d="M203.59,7.45l38.37,0.56l-40.53-3.68c-22.67-0.85-18.71,11.02-18.71,11.02
			c0.24,11.59,19.43,14.13,19.43,14.13c7.8-0.56,9.59,9.32,9.59,9.32c1.44,5.37,8.03,2.26,8.03,2.26l18.83-2.54l-11.15-0.85
			c-13.91,0.85-14.39-7.91-14.39-7.91c-1.92-5.93-10.19-7.35-10.19-7.35c-19.07-3.39-11.99-10.74-11.99-10.74
			C193.64,6.03,203.59,7.45,203.59,7.45z"/>
		<path class="st4" d="M258.95,20.16c0,0-0.36-9.32,18.47-3.67c0,0-16.55-11.02-22.79,4.52c0,0-6.6,10.17,30.58,13.56
			C285.21,34.57,258.11,27.5,258.95,20.16z"/>
	</g>
	<g>
		<g id="Group_6187" transform="translate(5.423 7.255)">
			<ellipse id="Ellipse_510" class="st5" cx="-1.25" cy="2.97" rx="1.5" ry="1.5"/>
		</g>
		<g id="Group_6187_1_" transform="translate(5.423 7.255)">
			<ellipse id="Ellipse_510_1_" class="st5" cx="-1.25" cy="30.65" rx="1.5" ry="1.5"/>
		</g>
	</g>
	<g>
		<g id="Group_6187_3_" transform="translate(5.423 7.255)">
			<ellipse id="Ellipse_510_3_" class="st5" cx="290.09" cy="2.97" rx="1.5" ry="1.5"/>
		</g>
		<g id="Group_6187_2_" transform="translate(5.423 7.255)">
			<ellipse id="Ellipse_510_2_" class="st5" cx="290.09" cy="30.65" rx="1.5" ry="1.5"/>
		</g>
	</g>
</g>
<rect id="Rectangle_24663" y="103.78" class="st1" width="300" height="46.22"/>
<rect y="103.78" class="st2" width="300" height="46.22"/>
<g id="Group_6194">
	<g class="st3">
		<path class="st4" d="M17.07,129.31c-9.35,0.28-8.63-5.37-8.63-5.37l20.39-4.52L8.31,119.7c1.44-7.63,7.44-8.19,7.44-8.19
			l14.39-2.54l-15.11,0.56c-9.12,0.57-9.6,10.74-9.6,10.74l-3.36-0.28l0.36-8.48l2.52-2.26l-3.6-0.28l0.13-5.37l-2.16-1.7
			l0.36,42.67l2.76-5.65H1.12l0.12-13.84l4.2,0.57c0.84,13,13.79,10.17,13.79,10.17c8.51-1.98,30.46,4.24,30.46,4.24
			C44.29,131.29,17.07,129.31,17.07,129.31z"/>
		<path class="st4" d="M70.79,110.1l-0.56-0.01C70.62,110.11,70.79,110.1,70.79,110.1z"/>
		<path class="st4" d="M69.06,131.29c-1.08-3.67-4.41-6.93-6.12-7.63c-5.67-2.31-5.64-6.5-5.64-6.5c-0.12-7.63,4.8-7.35,4.8-7.35
			l16.34,0.27c-1.31-0.08-5.18-0.56-14.31-3.38c-11.87-3.67-13.79,8.48-13.79,8.48c-1.44,9.61,8.03,12.71,8.03,12.71
			c4.92,0.57,9.59,5.93,9.59,5.93c9.95,14.97,19.31,9.61,19.31,9.61C77.45,144.85,69.06,131.29,69.06,131.29z"/>
		<path class="st4" d="M129.47,138.64c-19.55,0.85-23.03-3.39-23.03-3.39c-2.16-4.8,2.76-6.5,2.76-6.5l4.44-0.28
			c6.12,0.28,5.04-3.67,5.04-3.67c-0.12-4.24-3.96-4.24-3.96-4.24c-6.48,0.28-9.83-4.24-9.83-4.24c-2.76-5.09,0.84-7.07,0.84-7.07
			c6.6-4.8,27.7,5.09,27.7,5.09c21.46,9.61,34.06,2.54,34.06,2.54c-9.83,3.68-44.85-8.76-44.85-8.75
			c-28.06-7.06-26.02,6.78-26.02,6.78c-0.12,6.5,6.72,6.5,6.72,6.5c13.43,1.13,7.68,4.8,7.68,4.8c-10.79,0-11.75,8.19-11.75,8.19
			c-1.08,13.56,23.86,10.17,23.86,10.17c12.95-2.26,60.2-8.48,60.2-8.48C176.24,131.86,129.47,138.64,129.47,138.64z"/>
		<path class="st4" d="M202.02,111.23l38.37,0.56l-40.53-3.68c-22.67-0.85-18.71,11.02-18.71,11.02
			c0.24,11.59,19.43,14.13,19.43,14.13c7.8-0.56,9.59,9.32,9.59,9.32c1.44,5.37,8.03,2.26,8.03,2.26l18.83-2.54l-11.15-0.85
			c-13.91,0.85-14.39-7.91-14.39-7.91c-1.92-5.93-10.19-7.35-10.19-7.35c-19.07-3.39-11.99-10.74-11.99-10.74
			C192.07,109.81,202.02,111.23,202.02,111.23z"/>
		<path class="st4" d="M258.95,123.94c0,0-0.36-9.32,18.47-3.67c0,0-16.55-11.02-22.79,4.52c0,0-6.6,10.17,30.58,13.56
			C285.21,138.35,258.11,131.29,258.95,123.94z"/>
	</g>
	<g>
		<g id="Group_6187_9_" transform="translate(5.423 7.255)">
			<ellipse id="Ellipse_510_9_" class="st5" cx="-1.25" cy="106.26" rx="1.5" ry="1.5"/>
		</g>
		<g id="Group_6187_8_" transform="translate(5.423 7.255)">
			<ellipse id="Ellipse_510_8_" class="st5" cx="-1.25" cy="133.95" rx="1.5" ry="1.5"/>
		</g>
	</g>
	<g>
		<g id="Group_6187_11_" transform="translate(5.423 7.255)">
			<ellipse id="Ellipse_510_11_" class="st5" cx="290.09" cy="106.26" rx="1.5" ry="1.5"/>
		</g>
		<g id="Group_6187_10_" transform="translate(5.423 7.255)">
			<ellipse id="Ellipse_510_10_" class="st5" cx="290.09" cy="133.95" rx="1.5" ry="1.5"/>
		</g>
	</g>
</g>
<rect id="Rectangle_24665" y="51.89" class="st1" width="300" height="46.22"/>
<rect y="51.89" class="st2" width="300" height="46.22"/>
<g id="Group_6199" class="st3">
	<path id="Path_9609" class="st4" d="M298.52,51.71l0.12,5.37l-3.6,0.28l2.52,2.26l0.36,8.48l-3.36,0.28c0,0-0.48-10.17-9.59-10.74
		l-15.11-0.57l14.39,2.54c0,0,6,0.57,7.44,8.19l-20.51-0.28l20.39,4.53c0,0,0.72,5.65-8.63,5.37c0,0-27.22,1.98-32.62,10.74
		c0,0,21.95-6.22,30.46-4.24c0,0,12.95,2.82,13.79-10.17l4.2-0.57l0.12,13.84h-1.32l2.76,5.65L300.69,50L298.52,51.71z"/>
	<path id="Path_9610" class="st4" d="M208.27,64.13l22.98-3.08c0,0,4.92-0.28,4.8,7.35c0,0,0.04,4.19-5.64,6.5
		c-1.7,0.7-8.15,4.35-9.23,8.02c0,0-13.3,10.57-50.09,5.48c0,0,44.32,11.65,54.28-3.32c0,0,4.68-5.37,9.59-5.93
		c0,0,9.47-3.11,8.03-12.71c0,0-1.92-12.15-13.79-8.48S208.27,64.13,208.27,64.13z"/>
	<path id="Path_9612" class="st4" d="M58.82,61.08l60.11,1.02c0,0,9.95-1.41,12.71,4.24c0,0,7.08,7.35-11.99,10.74
		c0,0-23.94,0.54-29.55,5.84c-3.36,3.18-3.91,5.87-16.77,7.83L62.18,91.6L81,94.13c0,0,9.61,0.81,11.05-4.56c0,0,20.52-6,28.31-5.43
		c0,0,19.19-2.54,19.43-14.13c0,0,3.96-11.87-18.71-11.02L58.82,61.08z"/>
	<path id="Path_9613" class="st4" d="M14.79,86.46c0,0,27.1-7.07,26.26-14.41c0,0,0.36-9.32-18.47-3.67c0,0,16.55-11.02,22.79,4.52
		C45.37,72.9,51.96,83.07,14.79,86.46z"/>
	<g>
		<g id="Group_6187_5_" transform="translate(5.423 7.255)">
			<ellipse id="Ellipse_510_5_" class="st5" cx="-1.25" cy="56.26" rx="1.5" ry="1.5"/>
		</g>
		<g id="Group_6187_4_" transform="translate(5.423 7.255)">
			<ellipse id="Ellipse_510_4_" class="st5" cx="-1.25" cy="83.95" rx="1.5" ry="1.5"/>
		</g>
	</g>
	<g>
		<g id="Group_6187_7_" transform="translate(5.423 7.255)">
			<ellipse id="Ellipse_510_7_" class="st5" cx="290.27" cy="56.26" rx="1.5" ry="1.5"/>
		</g>
		<g id="Group_6187_6_" transform="translate(5.423 7.255)">
			<ellipse id="Ellipse_510_6_" class="st5" cx="290.27" cy="83.95" rx="1.5" ry="1.5"/>
		</g>
	</g>
</g>
</svg>
