<?xml version="1.0" encoding="utf-8"?>
<!-- Generator: Adobe Illustrator 24.2.3, SVG Export Plug-In . SVG Version: 6.00 Build 0)  -->
<svg version="1.1" id="Layer_1" xmlns="http://www.w3.org/2000/svg" xmlns:xlink="http://www.w3.org/1999/xlink" x="0px" y="0px"
	 viewBox="0 0 300 625" style="enable-background:new 0 0 300 625;" xml:space="preserve">
<style type="text/css">
	.st0{fill:url(#Path_9127_1_);}
	.st1{fill:#0D151E;}
	.st2{fill:url(#Path_9129_1_);}
	.st3{fill:#3976BB;}
	.st4{fill:#00293F;}
	.st5{fill:url(#Path_9133_1_);}
	.st6{fill:url(#Path_9135_1_);}
	.st7{fill:url(#Path_9137_1_);}
	.st8{fill:url(#Path_9139_1_);}
	.st9{fill:url(#Path_9141_1_);}
	.st10{fill:url(#Path_9143_1_);}
	.st11{fill:url(#Path_9145_1_);}
	.st12{fill:url(#Path_9159_1_);}
	.st13{fill:url(#Path_9161_1_);}
	.st14{fill:url(#Path_9163_1_);}
	.st15{fill:url(#Path_9165_1_);}
	.st16{fill:url(#Path_9167_1_);}
	.st17{fill:url(#Path_9169_1_);}
	.st18{fill:url(#Path_9181_1_);}
	.st19{fill:url(#Path_9183_1_);}
	.st20{fill:url(#Path_9185_1_);}
	.st21{fill:url(#Path_9186_1_);}
	.st22{fill:url(#Path_9187_1_);}
	.st23{fill:url(#Path_9188_1_);}
	.st24{fill:url(#Path_9189_1_);}
	.st25{fill:url(#Path_9190_1_);}
	.st26{fill:url(#Path_9191_1_);}
	.st27{fill:url(#Path_9192_1_);}
	.st28{fill:url(#Path_9193_1_);}
	.st29{fill:url(#Path_9194_1_);}
	.st30{fill:url(#Path_9195_1_);}
	.st31{fill:url(#Path_9196_1_);}
	.st32{fill:url(#Path_9197_1_);}
	.st33{fill:url(#Path_9199_1_);}
	.st34{opacity:0.43;fill:url(#Path_9198_1_);enable-background:new    ;}
</style>
<linearGradient id="Path_9127_1_" gradientUnits="userSpaceOnUse" x1="-678.9542" y1="2092.4106" x2="-678.9542" y2="2090.3274" gradientTransform="matrix(-170.0002 0 0 -299.9987 -115272.3281 627720.5)">
	<stop  offset="0" style="stop-color:#2465A6"/>
	<stop  offset="9.000000e-03" style="stop-color:#5590CC"/>
	<stop  offset="0.017" style="stop-color:#094E79"/>
	<stop  offset="1" style="stop-color:#093855"/>
</linearGradient>
<path id="Path_9127" class="st0" d="M268.19,599.42c0,0,5.59-22.22,7.04-82.65l0.97-53.52l-3.4-59.85l-2.92-50.07
	c0,0-2.43-70.78-0.49-93.23l4.37-74.24l9.72-85.17l12.63-63.3c0,0,13.61-31.65-10.2-37.41l-52,0.57L19.15,2.3
	c0,0-21.38-1.15-18.95,23.6c0,0,19.44,80,23.81,149.62c0,0,11.66,127.76,7.29,220.98l-3.88,82.29c0,0,0.49,61.58,3.88,96.1
	l2.16,20.17c0,0,2.89,27.42,11.32,29.92c0,0,11.05,0.62,9.21-22.13l-6.05-1.25l-3.68,0.62L268.19,599.42z"/>
<path id="Path_9128" class="st1" d="M294.05,18.6c0,0-30.77,185.36-29.47,256.72l5.18,201.02c0,0,5.83,87.77-8.53,125.21
	l-221.69,2.92c0,0-10.37-89-6.48-141.18l3.88-116.62l-1.94-62.92l-6.48-100.51L16.87,98.07L9.74,56.64l-4.54-39.9L294.05,18.6z"/>
<g id="Group_5945" transform="translate(263.233 908.909)">
	<g id="Group_5942" transform="translate(0.515 12.318)">
		
			<linearGradient id="Path_9129_1_" gradientUnits="userSpaceOnUse" x1="364.8431" y1="403.6568" x2="363.9089" y2="403.6077" gradientTransform="matrix(-4.3375 0 0 -8.2145 1588.9656 2958.2717)">
			<stop  offset="0" style="stop-color:#00293F"/>
			<stop  offset="0.065" style="stop-color:#00273C"/>
			<stop  offset="1" style="stop-color:#197BB8"/>
		</linearGradient>
		<path id="Path_9129" class="st2" d="M3.75-348.9c0,0,9.25,0.8,7.41-17.11c-0.5,2.86-2.73,4.84-5.2,4.62
			C5.96-361.39,9.06-356.16,3.75-348.9z"/>
		<path id="Path_9130" class="st3" d="M10.35-371.26c1.39,2.51,1.31,5.77-0.2,8.18c-1.05,1.06-2.3,1.78-3.65,2.1
			c0,0-1.58,0.23,0.1-1.75c0,0,3.06-2.69,3.26-4.79C9.85-367.52,9.16-371.26,10.35-371.26z"/>
	</g>
	<g id="Group_5943">
		<path id="Path_9131" class="st4" d="M5.17-362.25c0,0,9.25,0.8,7.41-17.11c-0.5,2.86-2.73,4.84-5.2,4.62
			C7.38-374.74,10.48-369.5,5.17-362.25z"/>
		<path id="Path_9132" class="st3" d="M11.77-384.6c1.39,2.51,1.31,5.77-0.2,8.18c-1.05,1.06-2.3,1.78-3.65,2.1
			c0,0-1.58,0.23,0.1-1.75c0,0,3.06-2.69,3.26-4.79C11.28-380.86,10.59-384.6,11.77-384.6z"/>
	</g>
	<g id="Group_5944" transform="translate(2.203 23.341)">
		
			<linearGradient id="Path_9133_1_" gradientUnits="userSpaceOnUse" x1="363.4527" y1="391.0981" x2="362.5185" y2="391.049" gradientTransform="matrix(-4.3375 0 0 -8.2136 1578.2678 2866.7146)">
			<stop  offset="0" style="stop-color:#00293F"/>
			<stop  offset="0.065" style="stop-color:#00273C"/>
			<stop  offset="1" style="stop-color:#197BB8"/>
		</linearGradient>
		<path id="Path_9133" class="st5" d="M-0.92-336.96c0,0,9.25,0.8,7.41-17.11c-0.5,2.86-2.73,4.84-5.2,4.62
			C1.29-349.45,4.39-344.22-0.92-336.96z"/>
		<path id="Path_9134" class="st3" d="M5.68-359.31c1.39,2.51,1.31,5.77-0.2,8.18c-1.05,1.06-2.3,1.78-3.65,2.1
			c0,0-1.58,0.23,0.1-1.75c0,0,3.06-2.69,3.26-4.79C5.19-355.58,4.5-359.31,5.68-359.31z"/>
	</g>
</g>
<g id="Group_5959" transform="translate(252.893 678.751)">
	<g id="Group_5946" transform="translate(10.109 205.363)">
		
			<linearGradient id="Path_9135_1_" gradientUnits="userSpaceOnUse" x1="455.5739" y1="462.9543" x2="454.6392" y2="462.9052" gradientTransform="matrix(-4.0645 0 0 -8.4001 1860.4855 3491.2778)">
			<stop  offset="0" style="stop-color:#00293F"/>
			<stop  offset="0.065" style="stop-color:#00273C"/>
			<stop  offset="1" style="stop-color:#197BB8"/>
		</linearGradient>
		<path id="Path_9135" class="st6" d="M6.29-388.77c0,0,9.28,0.28,6.73-17.5c-0.39,2.89-2.53,4.99-5.01,4.9
			C8.01-401.36,11.31-396.31,6.29-388.77z"/>
		<path id="Path_9136" class="st3" d="M12-411.46c1.49,2.43,1.54,5.69,0.13,8.18c-1,1.11-2.23,1.91-3.56,2.3
			c0,0-1.57,0.32,0.03-1.76c0,0,2.95-2.85,3.06-4.97C11.66-407.7,10.82-411.39,12-411.46z"/>
	</g>
	<g id="Group_5947" transform="translate(10.414 192.638)">
		
			<linearGradient id="Path_9137_1_" gradientUnits="userSpaceOnUse" x1="455.3269" y1="477.3204" x2="454.3922" y2="477.2713" gradientTransform="matrix(-4.0645 0 0 -8.4001 1858.6328 3598.1697)">
			<stop  offset="0" style="stop-color:#00293F"/>
			<stop  offset="0.065" style="stop-color:#00273C"/>
			<stop  offset="1" style="stop-color:#197BB8"/>
		</linearGradient>
		<path id="Path_9137" class="st7" d="M5.45-402.55c0,0,9.28,0.28,6.73-17.5c-0.39,2.89-2.54,4.99-5.01,4.9
			C7.16-415.15,10.47-410.09,5.45-402.55z"/>
		<path id="Path_9138" class="st3" d="M11.16-425.24c1.49,2.43,1.54,5.69,0.13,8.18c-1,1.11-2.23,1.91-3.56,2.3
			c0,0-1.57,0.32,0.03-1.76c0,0,2.95-2.85,3.06-4.97C10.81-421.48,9.98-425.18,11.16-425.24z"/>
	</g>
	<g id="Group_5948" transform="translate(10.781 176.825)">
		
			<linearGradient id="Path_9139_1_" gradientUnits="userSpaceOnUse" x1="778.228" y1="545.9209" x2="777.2856" y2="545.8713" gradientTransform="matrix(-3.3159 0 0 -9 2588.2937 4485.1074)">
			<stop  offset="0" style="stop-color:#00293F"/>
			<stop  offset="0.065" style="stop-color:#00273C"/>
			<stop  offset="1" style="stop-color:#197BB8"/>
		</linearGradient>
		<path id="Path_9139" class="st8" d="M6.23-418.77c0,0,9.13-1.95,3.59-18.75c0.11,2.92-1.63,5.49-4.07,6.01
			C5.76-431.52,9.86-427.38,6.23-418.77z"/>
		<path id="Path_9140" class="st3" d="M7.93-442.37c1.87,2.02,2.48,5.21,1.53,7.98c-0.79,1.33-1.86,2.4-3.1,3.11
			c0,0-1.48,0.69-0.27-1.73c0,0,2.4-3.5,2.15-5.6C8.24-438.61,6.79-442.03,7.93-442.37z"/>
	</g>
	<g id="Group_5949" transform="translate(12.41 161.071)">
		
			<linearGradient id="Path_9141_1_" gradientUnits="userSpaceOnUse" x1="560.3021" y1="529.4783" x2="559.3669" y2="529.4291" gradientTransform="matrix(-3.7828 0 0 -8.587 2122.3191 4101.1689)">
			<stop  offset="0" style="stop-color:#00293F"/>
			<stop  offset="0.065" style="stop-color:#00273C"/>
			<stop  offset="1" style="stop-color:#197BB8"/>
		</linearGradient>
		<path id="Path_9141" class="st9" d="M0.43-436.43c0,0,9.28-0.28,5.96-17.89c-0.26,2.91-2.31,5.14-4.79,5.21
			C1.6-449.11,5.11-444.27,0.43-436.43z"/>
		<path id="Path_9142" class="st3" d="M5.14-459.44c1.59,2.33,1.78,5.59,0.48,8.16c-0.95,1.17-2.14,2.04-3.46,2.52
			c0,0-1.55,0.42-0.05-1.76c0,0,2.82-3.03,2.84-5.15C4.96-455.66,3.96-459.3,5.14-459.44z"/>
	</g>
	<g id="Group_5950" transform="translate(12.786 146.167)">
		
			<linearGradient id="Path_9143_1_" gradientUnits="userSpaceOnUse" x1="560.0021" y1="546.2625" x2="559.0668" y2="546.2133" gradientTransform="matrix(-3.7828 0 0 -8.587 2120.1448 4229.1494)">
			<stop  offset="0" style="stop-color:#00293F"/>
			<stop  offset="0.065" style="stop-color:#00273C"/>
			<stop  offset="1" style="stop-color:#197BB8"/>
		</linearGradient>
		<path id="Path_9143" class="st10" d="M-0.61-452.57c0,0,9.28-0.29,5.96-17.89c-0.26,2.91-2.31,5.14-4.79,5.21
			C0.56-465.26,4.07-460.42-0.61-452.57z"/>
		<path id="Path_9144" class="st3" d="M4.1-475.59c1.59,2.33,1.78,5.59,0.48,8.16c-0.95,1.17-2.14,2.04-3.46,2.52
			c0,0-1.55,0.42-0.05-1.76c0,0,2.82-3.03,2.84-5.15C3.92-471.81,2.92-475.45,4.1-475.59z"/>
	</g>
	<g id="Group_5951" transform="translate(13.162 132.205)">
		
			<linearGradient id="Path_9145_1_" gradientUnits="userSpaceOnUse" x1="559.7021" y1="561.986" x2="558.7669" y2="561.9368" gradientTransform="matrix(-3.7828 0 0 -8.587 2117.9705 4349.0396)">
			<stop  offset="0" style="stop-color:#00293F"/>
			<stop  offset="0.065" style="stop-color:#00273C"/>
			<stop  offset="1" style="stop-color:#197BB8"/>
		</linearGradient>
		<path id="Path_9145" class="st11" d="M-1.65-467.7c0,0,9.28-0.28,5.96-17.89c-0.26,2.91-2.31,5.14-4.79,5.21
			C-0.48-480.38,3.03-475.54-1.65-467.7z"/>
		<path id="Path_9146" class="st3" d="M3.06-490.71c1.59,2.33,1.78,5.59,0.48,8.16c-0.95,1.17-2.14,2.04-3.46,2.52
			c0,0-1.55,0.42-0.05-1.76c0,0,2.82-3.03,2.84-5.15C2.88-486.93,1.89-490.57,3.06-490.71z"/>
	</g>
	<g id="Group_5952" transform="translate(13.915 112.206)">
		<path id="Path_9147" class="st4" d="M-3.73-489.36c0,0,9.28-0.28,5.96-17.89c-0.26,2.91-2.31,5.14-4.79,5.21
			C-2.56-502.04,0.95-497.21-3.73-489.36z"/>
		<path id="Path_9148" class="st3" d="M0.99-512.38c1.59,2.33,1.78,5.59,0.48,8.16c-0.95,1.17-2.14,2.04-3.46,2.52
			c0,0-1.55,0.42-0.05-1.76c0,0,2.82-3.03,2.84-5.15C0.8-508.6-0.2-512.24,0.99-512.38z"/>
	</g>
	<g id="Group_5953" transform="translate(12.598 88.434)">
		<path id="Path_9149" class="st4" d="M-0.09-515.12c0,0,9.28-0.29,5.96-17.89c-0.26,2.91-2.31,5.14-4.79,5.21
			C1.08-527.79,4.59-522.96-0.09-515.12z"/>
		<path id="Path_9150" class="st3" d="M4.62-538.13c1.59,2.33,1.78,5.59,0.48,8.16c-0.95,1.17-2.14,2.04-3.46,2.52
			c0,0-1.55,0.42-0.05-1.75c0,0,2.82-3.03,2.84-5.15C4.45-534.35,3.44-537.99,4.62-538.13z"/>
	</g>
	<g id="Group_5954" transform="translate(10.341 63.908)">
		<path id="Path_9151" class="st4" d="M6.15-541.69c0,0,9.28-0.29,5.96-17.89c-0.26,2.91-2.31,5.14-4.79,5.21
			C7.32-554.37,10.84-549.53,6.15-541.69z"/>
		<path id="Path_9152" class="st3" d="M10.86-564.7c1.59,2.33,1.79,5.59,0.48,8.16c-0.95,1.17-2.14,2.04-3.46,2.52
			c0,0-1.55,0.42-0.05-1.75c0,0,2.82-3.03,2.84-5.15C10.68-560.92,9.68-564.56,10.86-564.7z"/>
	</g>
	<g id="Group_5955" transform="translate(7.896 40.324)">
		<path id="Path_9153" class="st4" d="M12.91-567.23c0,0,9.28-0.28,5.96-17.89c-0.26,2.91-2.31,5.14-4.79,5.21
			C14.08-579.91,17.59-575.07,12.91-567.23z"/>
		<path id="Path_9154" class="st3" d="M17.62-590.24c1.59,2.33,1.78,5.59,0.48,8.16c-0.95,1.17-2.14,2.04-3.46,2.52
			c0,0-1.55,0.42-0.05-1.76c0,0,2.82-3.03,2.84-5.15C17.44-586.46,16.44-590.11,17.62-590.24z"/>
	</g>
	<g id="Group_5956" transform="translate(4.702 20.565)">
		<path id="Path_9155" class="st4" d="M21.32-588.91c0,0,9.28,0.21,6.62-17.56c-0.38,2.89-2.51,5.01-4.98,4.95
			C22.96-601.52,26.29-596.5,21.32-588.91z"/>
		<path id="Path_9156" class="st3" d="M26.88-611.65c1.5,2.41,1.57,5.68,0.18,8.18c-1,1.12-2.22,1.93-3.55,2.34
			c0,0-1.57,0.34,0.02-1.76c0,0,2.93-2.88,3.03-5C26.56-607.88,25.7-611.57,26.88-611.65z"/>
	</g>
	<g id="Group_5957">
		<path id="Path_9157" class="st4" d="M34.32-611.18c0,0,9.28,0.21,6.62-17.56c-0.38,2.89-2.51,5.01-4.98,4.95
			C35.96-623.8,39.29-618.77,34.32-611.18z"/>
		<path id="Path_9158" class="st3" d="M39.88-633.93c1.5,2.41,1.57,5.68,0.18,8.18c-1,1.12-2.22,1.93-3.55,2.34
			c0,0-1.57,0.34,0.02-1.76c0,0,2.93-2.88,3.03-5C39.56-630.16,38.7-633.84,39.88-633.93z"/>
	</g>
	<g id="Group_5958" transform="translate(10.212 216.386)">
		
			<linearGradient id="Path_9159_1_" gradientUnits="userSpaceOnUse" x1="455.4903" y1="450.5098" x2="454.5556" y2="450.4607" gradientTransform="matrix(-4.0645 0 0 -8.4001 1859.8608 3398.6829)">
			<stop  offset="0" style="stop-color:#00293F"/>
			<stop  offset="0.065" style="stop-color:#00273C"/>
			<stop  offset="1" style="stop-color:#197BB8"/>
		</linearGradient>
		<path id="Path_9159" class="st12" d="M6.01-376.83c0,0,9.28,0.28,6.73-17.5c-0.39,2.89-2.54,4.99-5.01,4.9
			C7.73-389.42,11.02-384.37,6.01-376.83z"/>
		<path id="Path_9160" class="st3" d="M11.72-399.52c1.49,2.43,1.54,5.69,0.13,8.18c-1,1.11-2.23,1.91-3.56,2.3
			c0,0-1.57,0.32,0.03-1.76c0,0,2.95-2.85,3.06-4.96C11.37-395.76,10.53-399.45,11.72-399.52z"/>
	</g>
</g>
<g id="Group_5972" transform="translate(398.973 678.751)">
	<g id="Group_5960" transform="translate(2.168 202.82)">
		
			<linearGradient id="Path_9161_1_" gradientUnits="userSpaceOnUse" x1="261.0762" y1="473.805" x2="260.1295" y2="473.7552" gradientTransform="matrix(-4.0602 -0.1839 0.3801 -8.3915 506.4679 3623.4189)">
			<stop  offset="0" style="stop-color:#00293F"/>
			<stop  offset="0.065" style="stop-color:#00273C"/>
			<stop  offset="1" style="stop-color:#197BB8"/>
		</linearGradient>
		<path id="Path_9161" class="st13" d="M-369.24-391.46c0,0-9.28-0.14-5.93-17.79c0.26,2.9,2.31,5.1,4.78,5.12
			C-370.39-404.13-373.92-399.23-369.24-391.46z"/>
		<path id="Path_9162" class="st3" d="M-373.92-414.39c-1.6,2.36-1.8,5.62-0.5,8.17c0.95,1.16,2.14,2.01,3.46,2.46
			c0,0,1.55,0.39,0.05-1.76c0,0-2.82-2.98-2.84-5.1C-373.74-410.62-372.74-414.27-373.92-414.39z"/>
	</g>
	<g id="Group_5961" transform="matrix(0.995, 0.105, -0.105, 0.995, 2.916, 179.372)">
		
			<linearGradient id="Path_9163_1_" gradientUnits="userSpaceOnUse" x1="985.9454" y1="514.2507" x2="984.9963" y2="514.2009" gradientTransform="matrix(-3.4291 -0.1395 -1.7756 -8.7841 3878.7378 4270.498)">
			<stop  offset="0" style="stop-color:#00293F"/>
			<stop  offset="0.065" style="stop-color:#00273C"/>
			<stop  offset="1" style="stop-color:#197BB8"/>
		</linearGradient>
		<path id="Path_9163" class="st14" d="M-409.93-375.73c0,0-9.28,0.42-7.61-17.34c0.54,2.87,2.79,4.93,5.26,4.81
			C-412.28-388.27-415.33-383.18-409.93-375.73z"/>
		<path id="Path_9164" class="st3" d="M-415.81-397.98c0,0-3.4,4.03-0.69,7.87c1.06,1.09,2.33,1.87,3.69,2.24
			c0,0,1.59,0.3-0.12-1.75c0,0-3.23-1.87-2.99-4.43C-415.92-394.06-414.62-397.94-415.81-397.98z"/>
	</g>
	<g id="Group_5962" transform="translate(0.071 154.094)">
		
			<linearGradient id="Path_9165_1_" gradientUnits="userSpaceOnUse" x1="453.6494" y1="537.3562" x2="452.7032" y2="537.3065" gradientTransform="matrix(-3.7828 0 0 -8.587 1348.9879 4161.0796)">
			<stop  offset="0" style="stop-color:#00293F"/>
			<stop  offset="0.065" style="stop-color:#00273C"/>
			<stop  offset="1" style="stop-color:#197BB8"/>
		</linearGradient>
		<path id="Path_9165" class="st15" d="M-362.74-444.08c0,0-9.28-0.28-5.96-17.89c0.26,2.91,2.31,5.14,4.79,5.21
			C-363.9-456.76-367.42-451.92-362.74-444.08z"/>
		<path id="Path_9166" class="st3" d="M-367.45-467.09c-1.59,2.33-1.78,5.59-0.48,8.16c0.95,1.17,2.14,2.04,3.46,2.52
			c0,0,1.55,0.42,0.05-1.76c0,0-2.82-3.03-2.84-5.15C-367.27-463.31-366.27-466.95-367.45-467.09z"/>
	</g>
	<g id="Group_5963" transform="matrix(0.999, -0.035, 0.035, 0.999, 0.398, 133.172)">
		
			<linearGradient id="Path_9167_1_" gradientUnits="userSpaceOnUse" x1="417.4402" y1="548.2451" x2="416.4851" y2="548.1949" gradientTransform="matrix(-3.7891 0.1169 0.2838 -8.5737 1075.306 4163.1284)">
			<stop  offset="0" style="stop-color:#00293F"/>
			<stop  offset="0.065" style="stop-color:#00273C"/>
			<stop  offset="1" style="stop-color:#197BB8"/>
		</linearGradient>
		<path id="Path_9167" class="st16" d="M-346.92-479.27c0,0-9.25-0.79-5.18-18.19c0.14,2.92,2.09,5.26,4.56,5.47
			C-347.53-492-351.25-487.37-346.92-479.27z"/>
		<path id="Path_9168" class="st3" d="M-349.84-501.82c0,0-3.79,3.27-1.63,7.42c0.9,1.22,2.05,2.16,3.35,2.71
			c0,0,1.53,0.5,0.12-1.75c0,0-2.69-3.18-2.62-5.3C-350.51-499.81-350.24-500.85-349.84-501.82z"/>
	</g>
	<g id="Group_5964" transform="translate(0.583 112.206)">
		
			<linearGradient id="Path_9169_1_" gradientUnits="userSpaceOnUse" x1="453.23" y1="584.4337" x2="452.2838" y2="584.384" gradientTransform="matrix(-3.7827 0 0 -8.586 1346.0562 4519.4814)">
			<stop  offset="0" style="stop-color:#00293F"/>
			<stop  offset="0.065" style="stop-color:#00273C"/>
			<stop  offset="1" style="stop-color:#197BB8"/>
		</linearGradient>
		<path id="Path_9169" class="st17" d="M-364.07-489.36c0,0-9.28-0.28-5.96-17.89c0.26,2.91,2.31,5.14,4.79,5.21
			C-365.23-502.04-368.75-497.21-364.07-489.36z"/>
		<path id="Path_9170" class="st3" d="M-368.78-512.38c-1.59,2.33-1.78,5.59-0.48,8.16c0.95,1.17,2.14,2.04,3.46,2.52
			c0,0,1.55,0.42,0.05-1.76c0,0-2.82-3.03-2.84-5.15C-368.59-508.6-367.6-512.24-368.78-512.38z"/>
	</g>
	<g id="Group_5965" transform="translate(1.899 88.434)">
		<path id="Path_9171" class="st4" d="M-367.7-515.12c0,0-9.28-0.29-5.96-17.89c0.26,2.91,2.31,5.14,4.79,5.21
			C-368.87-527.79-372.39-522.96-367.7-515.12z"/>
		<path id="Path_9172" class="st3" d="M-372.41-538.13c-1.59,2.33-1.79,5.59-0.48,8.16c0.95,1.17,2.14,2.04,3.46,2.52
			c0,0,1.55,0.42,0.05-1.75c0,0-2.82-3.03-2.84-5.15C-372.23-534.35-371.24-537.99-372.41-538.13z"/>
	</g>
	<g id="Group_5966" transform="translate(4.157 63.908)">
		<path id="Path_9173" class="st4" d="M-373.95-541.69c0,0-9.28-0.29-5.96-17.89c0.26,2.91,2.31,5.14,4.79,5.21
			C-375.11-554.37-378.62-549.53-373.95-541.69z"/>
		<path id="Path_9174" class="st3" d="M-378.66-564.7c-1.59,2.33-1.78,5.59-0.48,8.16c0.95,1.17,2.14,2.04,3.46,2.52
			c0,0,1.55,0.42,0.05-1.75c0,0-2.82-3.03-2.84-5.15C-378.48-560.92-377.48-564.56-378.66-564.7z"/>
	</g>
	<g id="Group_5967" transform="translate(6.601 40.324)">
		<path id="Path_9175" class="st4" d="M-380.7-567.23c0,0-9.28-0.28-5.96-17.89c0.26,2.91,2.31,5.14,4.79,5.21
			C-381.87-579.91-385.39-575.07-380.7-567.23z"/>
		<path id="Path_9176" class="st3" d="M-385.41-590.24c-1.59,2.33-1.78,5.59-0.48,8.16c0.95,1.17,2.14,2.04,3.46,2.52
			c0,0,1.55,0.42,0.05-1.76c0,0-2.82-3.03-2.84-5.15C-385.23-586.46-384.24-590.11-385.41-590.24z"/>
	</g>
	<g id="Group_5968" transform="translate(9.556 20.565)">
		<path id="Path_9177" class="st4" d="M-388.88-588.91c0,0-9.28,0.21-6.62-17.56c0.38,2.89,2.5,5,4.98,4.95
			C-390.52-601.52-393.84-596.5-388.88-588.91z"/>
		<path id="Path_9178" class="st3" d="M-394.44-611.65c-1.5,2.41-1.57,5.68-0.18,8.18c1,1.12,2.22,1.93,3.55,2.34
			c0,0,1.57,0.34-0.02-1.76c0,0-2.93-2.88-3.03-5C-394.11-607.88-393.25-611.57-394.44-611.65z"/>
	</g>
	<g id="Group_5969" transform="translate(14.258)">
		<path id="Path_9179" class="st4" d="M-401.87-611.18c0,0-9.28,0.21-6.62-17.56c0.38,2.89,2.51,5.01,4.98,4.95
			C-403.51-623.8-406.84-618.77-401.87-611.18z"/>
		<path id="Path_9180" class="st3" d="M-407.44-633.93c-1.5,2.41-1.57,5.68-0.18,8.18c1,1.12,2.22,1.93,3.55,2.34
			c0,0,1.57,0.34-0.02-1.76c0,0-2.93-2.88-3.03-5C-407.11-630.16-406.25-633.84-407.44-633.93z"/>
	</g>
	<g id="Group_5970" transform="translate(1.674 221.818)">
		
			<linearGradient id="Path_9181_1_" gradientUnits="userSpaceOnUse" x1="343.8519" y1="444.3819" x2="342.9051" y2="444.3322" gradientTransform="matrix(-4.0644 0 0 -8.4001 1025.8125 3353.0544)">
			<stop  offset="0" style="stop-color:#00293F"/>
			<stop  offset="0.065" style="stop-color:#00273C"/>
			<stop  offset="1" style="stop-color:#197BB8"/>
		</linearGradient>
		<path id="Path_9181" class="st18" d="M-367.08-370.94c0,0-9.28,0.28-6.73-17.5c0.39,2.89,2.54,4.98,5.01,4.9
			C-368.8-383.54-372.1-378.48-367.08-370.94z"/>
		<path id="Path_9182" class="st3" d="M-372.79-393.63c-1.49,2.43-1.54,5.69-0.13,8.18c1,1.11,2.23,1.91,3.56,2.3
			c0,0,1.57,0.32-0.03-1.76c0,0-2.95-2.85-3.06-4.97C-372.44-389.87-371.61-393.57-372.79-393.63z"/>
	</g>
	<g id="Group_5971" transform="translate(-0.222 248.684) rotate(8)">
		
			<linearGradient id="Path_9183_1_" gradientUnits="userSpaceOnUse" x1="619.7626" y1="437.6582" x2="618.8462" y2="437.6101" gradientTransform="matrix(-4.1912 -0.0144 -1.7491 -8.1521 2953.0247 3280.8108)">
			<stop  offset="0" style="stop-color:#00293F"/>
			<stop  offset="0.065" style="stop-color:#00273C"/>
			<stop  offset="1" style="stop-color:#197BB8"/>
		</linearGradient>
		<path id="Path_9183" class="st19" d="M-403.27-288.74c0,0-8.81,3.06-10.9-14.85c1.11,2.67,3.7,4.05,6.05,3.22
			C-408.12-300.37-410-294.51-403.27-288.74z"/>
		<path id="Path_9184" class="st3" d="M-414.52-308.91c-0.81,2.79-0.02,5.95,1.96,7.93c1.24,0.77,2.62,1.17,4,1.15
			c0,0,1.58-0.16-0.48-1.69c0,0-3.55-1.87-4.2-3.87C-413.23-305.39-413.37-309.2-414.52-308.91z"/>
	</g>
</g>
<linearGradient id="Path_9185_1_" gradientUnits="userSpaceOnUse" x1="-122.4107" y1="1668.3824" x2="-120.7614" y2="1668.3065" gradientTransform="matrix(-9.8421 0 0 -14.6208 -937.3527 25001.8203)">
	<stop  offset="0" style="stop-color:#00528D"/>
	<stop  offset="0.468" style="stop-color:#1B71AC"/>
	<stop  offset="1" style="stop-color:#072947"/>
</linearGradient>
<path id="Path_9185" class="st20" d="M251.11,601.51c0,0,0.42,23.4,8.11,23.4c0,0,11.27,2.15,8.97-25.49l-6.39-6.16L251.11,601.51z"
	/>
<linearGradient id="Path_9186_1_" gradientUnits="userSpaceOnUse" x1="-677.5495" y1="1836.4762" x2="-677.5495" y2="1834.3928" gradientTransform="matrix(-163.358 0 0 -22.3624 -110533.1094 41081.4141)">
	<stop  offset="0" style="stop-color:#5E87C5"/>
	<stop  offset="0.167" style="stop-color:#5D86BA"/>
	<stop  offset="0.362" style="stop-color:#5B7182"/>
	<stop  offset="0.5" style="stop-color:#2D4A5D"/>
	<stop  offset="1" style="stop-color:#103247"/>
</linearGradient>
<path id="Path_9186" class="st21" d="M286.21,56.28c0,0,5.6-1.33,6.16-11.61l1.68-26.07c0,0,1.32-6.67-5.88-4.97L11.75,16.28
	c0,0-5.88-0.66-5.88,7.63l5.04,30.38c0,0-0.28,5.97,7.84,5.64L286.21,56.28z"/>
<linearGradient id="Path_9187_1_" gradientUnits="userSpaceOnUse" x1="-675.5948" y1="1820.3772" x2="-675.5948" y2="1818.2939" gradientTransform="matrix(-154.9342 0 0 -21.2089 -104522.7344 38664.8008)">
	<stop  offset="0" style="stop-color:#5E87C5"/>
	<stop  offset="0.128" style="stop-color:#5D86BA"/>
	<stop  offset="0.251" style="stop-color:#5B7182"/>
	<stop  offset="0.361" style="stop-color:#2D4A5D"/>
	<stop  offset="1" style="stop-color:#103247"/>
</linearGradient>
<path id="Path_9187" class="st22" d="M279.19,97.27c0,0,5.31-1.25,5.84-11.01l1.59-24.72c0,0,1.25-6.31-5.58-4.72L18.87,59.34
	c0,0-5.58-0.62-5.58,7.24l4.78,28.81c0,0-0.26,5.66,7.44,5.35L279.19,97.27z"/>
<linearGradient id="Path_9188_1_" gradientUnits="userSpaceOnUse" x1="-673.9919" y1="1785.4789" x2="-673.9919" y2="1783.3956" gradientTransform="matrix(-148.6509 0 0 -19.0139 -100039.7578 34046.3633)">
	<stop  offset="0" style="stop-color:#5E87C5"/>
	<stop  offset="0.103" style="stop-color:#5D86BA"/>
	<stop  offset="0.18" style="stop-color:#5B7182"/>
	<stop  offset="0.256" style="stop-color:#2D4A5D"/>
	<stop  offset="1" style="stop-color:#103247"/>
</linearGradient>
<path id="Path_9188" class="st23" d="M274.17,133.92c0,0,4.76-1.13,5.24-9.87l1.43-22.17c0,0,1.12-5.66-5-4.23L23.6,99.91
	c0,0-5-0.56-5,6.49l4.29,25.83c0,0-0.24,5.08,6.67,4.79L274.17,133.92z"/>
<linearGradient id="Path_9189_1_" gradientUnits="userSpaceOnUse" x1="-672.3606" y1="1823.7751" x2="-672.3606" y2="1821.6919" gradientTransform="matrix(-142.7561 0 0 -21.5963 -95833.8359 39520.1133)">
	<stop  offset="0" style="stop-color:#5E87C5"/>
	<stop  offset="0.103" style="stop-color:#5D86BA"/>
	<stop  offset="0.18" style="stop-color:#5B7182"/>
	<stop  offset="0.256" style="stop-color:#416A87"/>
	<stop  offset="1" style="stop-color:#103247"/>
</linearGradient>
<path id="Path_9189" class="st24" d="M269.23,174.86c0,0,4.57-1.28,5.03-11.21l1.37-25.18c0,0,1.08-6.43-4.8-4.8L28.6,136.23
	c0,0-4.81-0.64-4.81,7.37l4.12,29.34c0,0-0.23,5.77,6.41,5.45L269.23,174.86z"/>
<linearGradient id="Path_9190_1_" gradientUnits="userSpaceOnUse" x1="-671.0793" y1="1884.6782" x2="-671.0793" y2="1882.595" gradientTransform="matrix(-138.4388 0 0 -27.4522 -92753.0781 51913.8438)">
	<stop  offset="0" style="stop-color:#5E87C5"/>
	<stop  offset="0.103" style="stop-color:#5D86BA"/>
	<stop  offset="0.18" style="stop-color:#5B7182"/>
	<stop  offset="0.256" style="stop-color:#3B617D"/>
	<stop  offset="1" style="stop-color:#103247"/>
</linearGradient>
<path id="Path_9190" class="st25" d="M266.17,228.6c0,0,4.44-1.39,4.88-12.2l1.33-35.62c0,0,1.05-7-4.66-5.23l-234.91,2.79
	c0,0-4.66-0.7-4.66,8.02l3.99,40.16c0,0-0.22,6.27,6.21,5.92L266.17,228.6z"/>
<linearGradient id="Path_9191_1_" gradientUnits="userSpaceOnUse" x1="-669.8929" y1="1887.0277" x2="-669.8929" y2="1884.9445" gradientTransform="matrix(-134.675 0 0 -27.8617 -90067.7813 52804.9609)">
	<stop  offset="0" style="stop-color:#5E87C5"/>
	<stop  offset="0.103" style="stop-color:#5D86BA"/>
	<stop  offset="0.18" style="stop-color:#5B7182"/>
	<stop  offset="0.256" style="stop-color:#3F6C8C"/>
	<stop  offset="1" style="stop-color:#103247"/>
</linearGradient>
<path id="Path_9191" class="st26" d="M262.57,283.73c0,0,4.45-1.26,4.89-11.06l1.33-38.51c0,0,1.05-6.34-4.67-4.74l-228.25,2.53
	c0,0-4.67-0.62-4.67,7.26l3.99,42.61c0,0-0.22,5.68,6.22,5.37L262.57,283.73z"/>
<linearGradient id="Path_9192_1_" gradientUnits="userSpaceOnUse" x1="-668.705" y1="1889.1306" x2="-668.705" y2="1887.0474" gradientTransform="matrix(-131.0865 0 0 -28.391 -87506.4063 53978.6641)">
	<stop  offset="0" style="stop-color:#5E87C5"/>
	<stop  offset="0.103" style="stop-color:#5D86BA"/>
	<stop  offset="0.18" style="stop-color:#7D95AB"/>
	<stop  offset="0.256" style="stop-color:#4F7D9D"/>
	<stop  offset="1" style="stop-color:#103247"/>
</linearGradient>
<path id="Path_9192" class="st27" d="M262.62,399.97c0,0,4.41-1.29,4.85-11.26l-1.7-39.24c0,0,1.04-6.46-4.63-4.83l-220.3,2.57
	c0,0-4.63-0.64-4.63,7.4l-0.07,43.42c0,0-0.22,5.79,6.18,5.47L262.62,399.97z"/>
<linearGradient id="Path_9193_1_" gradientUnits="userSpaceOnUse" x1="-668.7595" y1="1903.655" x2="-668.772" y2="1901.4803" gradientTransform="matrix(-131.2686 0 0 -30.1993 -87637.3438 57770.8945)">
	<stop  offset="0" style="stop-color:#5E87C5"/>
	<stop  offset="0.065" style="stop-color:#5D86BA"/>
	<stop  offset="0.18" style="stop-color:#6E90AE"/>
	<stop  offset="0.317" style="stop-color:#406C8C"/>
	<stop  offset="0.845" style="stop-color:#1E4159"/>
	<stop  offset="1" style="stop-color:#103247"/>
</linearGradient>
<path id="Path_9193" class="st28" d="M259.6,344.19c0,0,4.41-1.21,4.85-10.62l1.32-44.15c0,0,1.04-6.09-4.63-4.55l-222.32,2.43
	c0,0-4.63-0.61-4.63,6.98l3.97,48.09c0,0-0.22,5.46,6.18,5.16L259.6,344.19z"/>
<linearGradient id="Path_9194_1_" gradientUnits="userSpaceOnUse" x1="-670.2133" y1="1903.4116" x2="-670.2133" y2="1901.3282" gradientTransform="matrix(-135.637 0 0 -30.4619 -90752.2188 58380.918)">
	<stop  offset="0" style="stop-color:#5E87C5"/>
	<stop  offset="0.103" style="stop-color:#5D86BA"/>
	<stop  offset="0.18" style="stop-color:#7D95AB"/>
	<stop  offset="0.256" style="stop-color:#4F7D9D"/>
	<stop  offset="1" style="stop-color:#103247"/>
</linearGradient>
<path id="Path_9194" class="st29" d="M268.25,459.44c0,0,4.51-1.23,4.96-10.71l-2.68-44.53c0,0,1.06-6.14-4.73-4.58l-227.21,2.44
	c0,0-4.73-0.61-4.73,7.04l0.02,48.51c0,0-0.23,5.51,6.31,5.21L268.25,459.44z"/>
<linearGradient id="Path_9195_1_" gradientUnits="userSpaceOnUse" x1="-670.1546" y1="1829.26" x2="-670.1546" y2="1827.1768" gradientTransform="matrix(-135.481 0 0 -22.7103 -90642.4375 42056.6133)">
	<stop  offset="0" style="stop-color:#5E87C5"/>
	<stop  offset="0.103" style="stop-color:#5D86BA"/>
	<stop  offset="0.18" style="stop-color:#7D95AB"/>
	<stop  offset="0.256" style="stop-color:#4F7D9D"/>
	<stop  offset="1" style="stop-color:#103247"/>
</linearGradient>
<path id="Path_9195" class="st30" d="M264.14,557.65c0,0,4.34-1.15,4.78-10.09l1.3-29.48c0,0,1.03-5.79-4.56-4.33l-229.89,2.31
	c0,0-4.56-0.58-4.56,6.63l3.91,33.22c0,0-0.22,5.19,6.08,4.9L264.14,557.65z"/>
<linearGradient id="Path_9196_1_" gradientUnits="userSpaceOnUse" x1="-670.5001" y1="1902.2321" x2="-670.5001" y2="1900.1488" gradientTransform="matrix(-136.56 0 0 -30.427 -91411.7969 58333.5234)">
	<stop  offset="0" style="stop-color:#5E87C5"/>
	<stop  offset="0.103" style="stop-color:#5D86BA"/>
	<stop  offset="0.18" style="stop-color:#7D95AB"/>
	<stop  offset="0.256" style="stop-color:#4F7D9D"/>
	<stop  offset="1" style="stop-color:#103247"/>
</linearGradient>
<path id="Path_9196" class="st31" d="M267.19,514.24c0,0,4.55-1.25,5.01-10.91l-1.69-44.1c0,0,1.07-6.25-4.78-4.67l-229.73,2.5
	c0,0-4.78-0.63-4.78,7.17l1.04,48.16c0,0-0.23,5.61,6.38,5.3L267.19,514.24z"/>
<linearGradient id="Path_9197_1_" gradientUnits="userSpaceOnUse" x1="-669.1683" y1="1823.4702" x2="-669.1683" y2="1821.3868" gradientTransform="matrix(-132.4668 0 0 -22.3359 -88491.8594 41286.8438)">
	<stop  offset="0" style="stop-color:#5E87C5"/>
	<stop  offset="0.103" style="stop-color:#5D86BA"/>
	<stop  offset="0.18" style="stop-color:#7D95AB"/>
	<stop  offset="0.256" style="stop-color:#4F7D9D"/>
	<stop  offset="1" style="stop-color:#103247"/>
</linearGradient>
<path id="Path_9197" class="st32" d="M261.18,600.81c0,0,4.54-1.32,5-11.6l1.36-26.04c0,0,1.07-6.65-4.76-4.97l-224.16,2.65
	c0,0-4.76-0.66-4.76,7.62l4.09,30.35c0,0-0.23,5.96,6.35,5.62L261.18,600.81z"/>
<linearGradient id="Path_9199_1_" gradientUnits="userSpaceOnUse" x1="-148.5051" y1="1468.0386" x2="-146.8561" y2="1467.9628" gradientTransform="matrix(-10.4608 0 0 -10.0793 -1500.6038 15410.6201)">
	<stop  offset="0" style="stop-color:#00528D"/>
	<stop  offset="0.468" style="stop-color:#1B71AC"/>
	<stop  offset="1" style="stop-color:#072947"/>
</linearGradient>
<path id="Path_9199" class="st33" d="M35.53,603.67c0,0,1.47,21.22,9.17,21.22c0,0,10.3,2.11,9.17-21.22H35.53z"/>
<linearGradient id="Path_9198_1_" gradientUnits="userSpaceOnUse" x1="-678.9542" y1="2092.4109" x2="-678.9542" y2="2090.3276" gradientTransform="matrix(-170.0002 0 0 -300.0027 -115272.3281 627728.875)">
	<stop  offset="0" style="stop-color:#0A1420"/>
	<stop  offset="0.505" style="stop-color:#177BBE"/>
	<stop  offset="0.728" style="stop-color:#0C3D5D"/>
	<stop  offset="1" style="stop-color:#093855"/>
</linearGradient>
<path id="Path_9198" class="st34" d="M268.19,599.42c0,0,5.59-22.22,7.04-82.65l0.97-53.52l-3.4-59.85l-2.92-50.07
	c0,0-2.43-70.78-0.49-93.23l4.37-74.24l9.72-85.17l12.63-63.3c0,0,13.61-31.65-10.2-37.41l-52,0.57L19.15,2.3
	c0,0-21.38-1.15-18.95,23.6c0,0,19.44,80,23.81,149.62c0,0,11.66,127.76,7.29,220.98l-3.88,82.29c0,0,0.49,61.58,3.88,96.1
	l2.16,20.17c0,0,2.82,27.43,11.24,29.92c0,0,9.92,1.18,9.38-21.12L268.19,599.42z"/>
</svg>
