<?xml version="1.0" encoding="utf-8"?>
<!-- Generator: Adobe Illustrator 24.2.3, SVG Export Plug-In . SVG Version: 6.00 Build 0)  -->
<svg version="1.1" id="Layer_1" xmlns="http://www.w3.org/2000/svg" xmlns:xlink="http://www.w3.org/1999/xlink" x="0px" y="0px"
	 viewBox="0 0 300 225" style="enable-background:new 0 0 300 225;" xml:space="preserve">
<style type="text/css">
	.st0{fill:#A38D82;}
	.st1{fill:#7C6C62;}
	.st2{fill:none;}
	.st3{opacity:0.1;}
	.st4{opacity:0.32;fill:#D8AB6B;enable-background:new    ;}
	.st5{fill:#B96A30;fill-opacity:0;}
</style>
<g id="Group_6125_1_">
	<rect id="Rectangle_24589_1_" class="st0" width="300" height="221.02"/>
	<path id="Path_9572_1_" class="st1" d="M0,221.02h300l-2.57,3.98H2.57L0,221.02z"/>
</g>
<rect class="st2" width="300" height="221.02"/>
<g id="Mask_Group_17" transform="translate(-76.701 -13.287)" class="st3">
	<g id="Group_6360" transform="translate(-35.891 -34.292)">
		<path id="Path_10138" class="st4" d="M357.31,226.3c-19.89,2.55-99.45-8.29-110.87-7.64c-11.43,0.64-67.29,12.72-79.98,8.91
			c-9.04-2.71-37.34-3.82-52.92-4.22v1.8c21.34,3.95,68.63,11.88,79.82,6.94c14.57-6.43,71.28-5.44,88.21-3.7
			c16.93,1.74,71.51,8.22,99.45,3.7c10.81-1.81,21.71-1.7,32.5,0.32v-4.06C397.25,226.73,370.59,224.6,357.31,226.3z"/>
		<path id="Path_10139" class="st4" d="M319.64,209.1c-22.43,0.63-76.6-7.01-88.87-5.09c-12.27,1.91-63.48,11.24-74.91,8.49
			c-8.08-1.95-30.12-2.84-42.34-3.19v1.67c16.66,3.64,53.06,11.2,63.08,10.22c13.12-1.28,68.14-11.47,81.25-8.92
			c13.12,2.55,83.37,7.59,101.57,6.35c12.62-0.86,39.05,0.75,54.09,1.82v-6.13C390.25,212.52,336.99,208.61,319.64,209.1z"/>
		<path id="Path_10140" class="st4" d="M283.25,192.54c-13.54,1.28-52.9-1.28-87.6,3.18c-26.46,3.4-65.2,2.35-82.12,1.67v1.55
			c16.61,3.71,52.95,11.16,63.92,8.25c14.39-3.83,70.67-15.93,84.64-10.19c13.97,5.74,76.6,4.48,90.57,6.7
			c10.47,1.66,43.3,4.97,60.86,5.17v-6.99c-16.75-0.46-47.11-1.42-51.98-2.34C354.77,198.26,296.79,191.26,283.25,192.54z"/>
		<path id="Path_10141" class="st4" d="M347.71,134.21c-8.67-4.84-44.64-11.19-53.77-13.06c-10.35-2.12-20.44-4.39-30.87-5.71
			c-23.2-2.93-46.14,2.84-69.11,4.43c-6.27,0.44-12.33,2.13-18.62,2.58c-4.37,0.32-10,1.59-13.96,3.83
			c9.14,5.11,20.62,6.69,30.47,7.51c11.04,0.91,21.6,3.92,32.48,5.38c19.99,2.69,41.84,2.72,61.46-2.07
			c6.79-1.65,13.96-1.98,20.76-3.77C309.57,132.53,346.73,137.97,347.71,134.21z M240.51,134.57c-9.59-0.71-19.19-0.63-28.69-3.22
			c-9.85-2.67-21.39-4.45-31.39-3.79c6.35,0,14.81-1.06,20.73-3.31c7.93-3.02,14.52-0.26,22.41,0.78c9.27,1.22,17.32-4,26.38-4.47
			c18.92-0.97,38.05,3.39,56.56,6.51c-5.27,3.03-13.39,3.37-19.34,5.09C272.43,136.43,256.01,135.71,240.51,134.57z"/>
		<path id="Path_10142" class="st5" d="M316.24,128.19c-18.51-3.12-47.39-8.61-66.31-7.63c-9.05,0.46-17.11,5.7-26.38,4.47
			c-7.88-1.04-14.47-3.8-22.41-0.78c-5.94,2.25-14.38,3.31-20.73,3.31c10.01-0.66,21.55,1.12,31.39,3.79
			c9.51,2.58,19.1,2.51,28.69,3.22c15.5,1.15,31.92,1.88,46.64-2.4C293.1,130.42,310.98,131.2,316.24,128.19z M249.39,131.37
			c-6.5,0.5-13.06,0.8-19.56-0.14c-3.8-0.55-7.95-1.99-12.06-3.08c-3.9-0.13-7.67-0.45-9.86-1.24c3.1-0.32,6.46,0.34,9.86,1.24
			c4.4,0.14,8.98,0.03,11.72,0.03c5.51,0,10.88,0,16.08-1.26c6.2-1.5,11.58-3.65,18.18-3.19c6.61,0.45,18.52-1.11,24.11,4.65
			C276.93,136.54,261.51,130.43,249.39,131.37L249.39,131.37z"/>
		<path id="Path_10143" class="st4" d="M207.92,126.91c2.19,0.79,5.95,1.12,9.86,1.24C214.39,127.26,211.03,126.6,207.92,126.91z"/>
		<path id="Path_10144" class="st4" d="M287.88,128.38c-5.59-5.75-17.49-4.19-24.11-4.65c-6.6-0.45-11.98,1.7-18.18,3.19
			c-5.21,1.26-10.58,1.26-16.08,1.26c-2.74,0-7.32,0.11-11.72-0.03c4.1,1.09,8.25,2.53,12.06,3.08c6.5,0.94,13.06,0.64,19.56,0.14
			C261.51,130.44,276.93,136.54,287.88,128.38z"/>
		<path id="Path_10145" class="st4" d="M123.71,172.11c7.29,1.58,14.44,4.57,21.69,5.75c5.55,0.91,10.79,1.46,16.37,0.65
			c4.29-0.62,10.69-2.34,14.8,0.14c-6.65,7.71-22.99,5.6-31.69,5.6c-6.3,0-12.08,0.3-18.23-0.63c-3.95-0.59-7.62,0.38-11.35,0.71
			c8.76,0.44,17.71,2.48,26.5,2.47c8.54-0.01,17.08-0.01,25.62,0c7.44,0,14.4-2.04,21.79-2.51c8.21-0.53,16.77-0.02,25.04-0.78
			c-4.37-7.13-20.9-6.16-27.46-7.53c-10.1-2.12-19.8-3.83-30.04-3.83c-10.01,0-20.22,0.91-30.07-1.29
			c-3.9-0.87-8.55-2.57-13.14-3.68v4.57C117.22,171.89,121,171.53,123.71,172.11z"/>
		<path id="Path_10147" class="st4" d="M123.28,177.87c5.15,0.84,9.3,3.66,14.78,3.06c-4.66-3.42-11.48-3.91-16.9-4.32
			c-2.7-0.21-5.18-0.74-7.64-0.99v1.96C116.77,177.57,120.04,177.34,123.28,177.87z"/>
		<path id="Path_10148" class="st4" d="M396.79,167.05c-16.59-0.93-32.28-1.57-48.79,0.6c-13.58,1.79-27.88,1.08-41.37,3.99
			c-5.45,1.19-10.5,3.94-15.86,5.45c-5.04,1.42-10.79,0.45-15.92,0.88c0.03,0.57,0.03,1.15,0,1.73c9.87,4.05,20.84,5.23,31.25,5.19
			c17.68-0.07,35.03,4.8,52.57,5.74c11.24,0.6,22.53-0.63,33.86-0.63c7.19,0,13.99-1.36,20.98-2.1v-5.66
			c-0.72,0.06-1.41,0.11-2.03,0.11h-13.97c-15.41,0-30.85,0.57-46.22-0.49c-15.79-1.1-33.65,7.33-48.45-3.36
			c9.05,0.21,17.73-1.75,26.54-1.88c7.5-0.11,13.93-3.35,21.16-4.46c8.48-1.31,17.08-0.27,25.51,0.49
			c10.02,0.9,19.37,1.93,29.11,4.1c1.23,0.28,4.6,1.03,8.36,1.42v-11.35C406.2,166.45,398.45,167.15,396.79,167.05z"/>
		<path id="Path_10149" class="st4" d="M350.12,177.24c12.82-2.31,26.48,2.35,39.31,1.15c-3.81-4.07-14.9-3.6-19.85-4.33
			C365.82,173.5,351.49,170.92,350.12,177.24z"/>
		<path id="Path_10150" class="st4" d="M280.2,235.37c-6.78-2.38-13.41-4.2-20.34-4.62c-12.39-0.75-24.7,3.18-37.12,3.18
			c-17.38,0-33.61,5.75-51.31,3.33c-9.58-1.31-19.14,1.07-28.56-1.88c-5.64-1.76-11.62-3.2-17.46-2.74
			c-2.83,0.23-7.83-0.06-11.87,0.77v5.21c5.8,2.17,12.2,1.73,18.24,3.62c9.1,2.86,18.45,7.8,27.81,8.25
			c12.53,0.6,24.67-0.05,36.91-3.36c10.6-2.87,21.22-2.35,31.86-5.07c8.73-2.23,18.06-1.12,26.98-1.12c6.52,0,26.94-2.28,30.41,6.88
			c-3.27,4.88-8.79,6.35-12.64,10.3c-3.05,3.09-5.91,6.59-8.55,10.44h5.96c9.65-9.4,18.48-20.6,29.53-26.99
			C293.98,238.59,286.6,237.63,280.2,235.37z"/>
		<path id="Path_10151" class="st4" d="M386.42,237.76c-9.79,0.61-19.74,0.66-29.62,0.65c-9.9-0.01-19.59,0.87-29.44-0.67
			c-6.59-1.03-19.3-4.8-25.42-0.45c2.27,5,9.26,9.8,12.67,13.87c6.48,7.77,14.86,15.37,23.25,17.21c0.46,0.1,0.84,0.18,1.17,0.24
			h1.48c0.87-0.29,1.29-1.36,2.81-3.89c-6.43-7-26.37-9.41-28.26-21.1c17.77-1.36,36.17,0.88,53.98,1.82c11.33,0.59,22.75,0,34.08,0
			c2.26,0,6.32,0.43,10.39,0.16v-9.2c-3.51,0.57-7.06,1.4-10.1,1.39C397.77,237.75,392.06,237.4,386.42,237.76z"/>
		<path id="Path_10152" class="st4" d="M140.11,161.28c12.86,0.87,26.35,4.96,39.03,8.32c12.51,3.3,24.86,4.24,37.55,5.71
			c8.89,1.02,17.41,7.1,26.34,6.41c12.79-1,25-4.82,37.66-5.74c6.52-0.47,11.82-2.6,18.08-4.6c5.93-1.89,15.3-0.26,20.29-4.98
			c-10.12,0.27-19.72,1.95-29.91,1.95c-12.67,0-24.07,3.65-36.38,6.35c-10.53,2.31-19.31-0.36-29.71-3.03
			c-13.34-3.42-26.97-5.61-40.21-9.06c-9.23-2.41-18.57-4.85-27.83-7.01c-4.72-1.1-9.2-3.81-13.94-4.46
			c-4.74-0.65-9.1-0.46-13.68-2.53c-4.5-2.05-9.2-2.78-13.87-2.16v11.85c2.1,0.76,4.22,1.31,6.37,1.62
			C126.65,160.75,133.29,160.83,140.11,161.28z"/>
		<path id="Path_10153" class="st4" d="M310.86,154.94c-18.33,0-36.07,0.66-53.87,5.89c-9.54,2.8-20.01,2.31-29.6-0.14
			c-6.2-1.59-12.27-3.06-18.59-3.98c-6.14-0.9-12.69-0.9-18.53-3.84c-8.05-4.04-14.89-8.95-23.36-10.17
			c-8.85-1.28-17.43-2.42-25.85-6.87c-8.69-4.59-18.84-11.48-27.52-7.71v5.54c7.68,1.46,15.84,6.18,22.97,8.09
			c8.69,2.32,17.16,5.11,25.82,6.99c15.21,3.3,29.85,6.9,44.79,12.76c19.59,7.67,42.14,13.26,61.88,5.08
			c9.28-3.85,18.84-3.89,28.35-5.22c15.66-2.2,31.52-2.58,47.36-2.58c22.73,0,46.07,1.42,68.81-0.66v-2.36
			c-14.07-0.74-28.05-2.07-42.14-2.07C351.24,153.67,331.15,154.94,310.86,154.94z"/>
		<path id="Path_10154" class="st4" d="M146.56,128.68c9.19,3.45,18.38,6.04,27.61,9.22c23.71,8.16,48.13,16.05,72.38,17.68
			c7.77,0.58,15.54-0.23,23.18-2.41c5.44-1.59,11.65-2.45,16.78-5.9c-3.82-0.44-7.28,1.48-10.88,1.95c-4.3,0.55-8.79,0-13.11,0
			c-8.79,0-17.51,2.42-26.23,1.91c-15.91-0.94-31.94-9.99-47.42-13.41c-5.88-1.31-12.42-1.58-18.18-3.83
			c-6.13-2.39-12.16-6.06-18.63-8.4c-8.24-3-16.24-5.08-24.55-7.47c-2.65-0.76-5.96-1-9.19-1.61c3.5,2.21,7.1,4.08,10.76,5.6
			C134.98,124.24,140.7,126.49,146.56,128.68z"/>
		<path id="Path_10156" class="st4" d="M348.41,142.84c-10.66,1.33-21.4,1.28-32.15,1.28c-7.12,0-17.16-0.75-23.25,4.31
			c5.01,1.11,10.45,1.1,15.63,0.78c18.57-1.13,37.19,0,55.86,0c10.73,0,21.19,1.45,31.84,1.28c3.14-0.05,10.74,0.34,17.16-1.16
			v-12.24c-8.28,3.35-15.49,5.75-24.9,5.75C375.21,142.84,361.72,141.18,348.41,142.84z"/>
		<path id="Path_10157" class="st4" d="M368.23,123.73c-19.15-2.6-36.31-5.93-54.6-15.77c-22.25-11.95-44.38-9.45-67.29-5.86
			c-10.29,1.61-20.82,1.14-31.1,2.53c-10.58,1.43-20.55,2.71-31.13,2.53c-13.83-0.24-27.68,9.44-40.93,3.16
			c-6.34-3-12.3-5.73-19.04-6.32c-3.46-0.31-7.22,0.9-10.59,0.13c1.15,0.83,2.28,1.72,3.39,2.36c3.7,2.15,7.18,2.88,11.01,3.99
			c5.07,1.49,9.89,4.87,14.91,6.7c8.34,3.05,15.91,2.01,24.02-0.98c10.02-3.69,19.54-4.62,29.96-4.62c11.67,0,23.19-1.91,34.82-1.91
			c8.12,0,15.68-3.09,23.76-2.58c13.84,0.88,27.32,4.46,41.05,6.26c11.3,1.48,22.36,2.37,33.36,6.99
			c13.32,5.6,25.91,11.84,40.09,12.9c11.79,0.89,23.95,1.46,35.75,0.14c2-0.23,4.82-0.28,7.87-0.48v-7.74
			c-3.8,0.46-7.49,1.08-10.51,1.08C391.26,126.28,379.79,125.3,368.23,123.73z"/>
		<path id="Path_10159" class="st4" d="M167.18,102.55c20.52-9.31,42.37-3.66,63.57-6.71c1.52-0.22,7.82-0.24,8.09-3.94
			c0.37-4.93-10.13-6.4-12.28-6.88c-13.14-2.98-26.1-6.51-39.37-8.29c-15.2-2.04-30.25-6.04-45.4-8.45
			c-8.88-1.41-18.91-5.61-28.27-6.76v6.76c6.09,1.67,13.89,1.33,16.97,2.08c11.33,2.77,21.94,8.17,33.4,9.89
			c10.45,1.57,21.02,2.85,31.31,5.72c5.63,1.57,19.87,0.12,23.65,6.39c-6.76,5.19-19.21-0.95-26.59,0.2
			c-8.96,1.38-18.7-0.23-27.42,3.17c-8.54,3.33-13.5,7.28-22.63,1.75c-9.19-5.68-18.84-9.42-28.69-11.13v3.18
			c9.67,3.9,19.37,9.27,28.71,14C151.31,108.12,158.23,106.61,167.18,102.55z"/>
		<path id="Path_10160" class="st4" d="M153.31,90.6c5.33,0,9.53-1.63,14.4-2.69c5.17-1.13,10.71-0.02,15.95-0.64
			c-12.79-8.02-27.19,0.24-39.57-7.66c-7.78-4.96-14.19-8.94-22.94-8.12c-3.51,0.33-5.36,1.63-7.64,2.97v2.37
			c7.67,0.72,15.22,3.27,22.37,7.56C141.91,88.06,146.79,90.6,153.31,90.6z"/>
		<path id="Path_10161" class="st4" d="M401.01,116.08c-10.78,0-21.24-1.77-31.84-3.2c-17.94-2.43-34.77-8.88-51.7-17
			c-18.74-8.98-39.79-3.34-58.35-12.31c-20.95-10.13-44.22-10.22-65.16-21.18c-9.46-4.95-16.93-8.75-27.1-8.74
			c-7.26,0-14.38,0.54-21.59,0c-6.8-0.5-13.68,1.1-20.31-1.3c-4.32-1.56-7.41-2.75-11.44-3.08v0.55c7.02,2.09,14.06,6.72,21.3,8.13
			c6.91,1.34,13.74,3.12,20.63,4.62c11.83,2.56,23.75,2.92,35.54,6.35c12.62,3.67,24.92,8.61,37.64,9.7
			c6.46,0.55,14.53,1.46,20.44,5.44c3.46,2.32,6.19,5.68,10.07,7.17c21.18,8.17,43.98,0.62,65.07,10.65
			c9.14,4.34,17.74,9.77,27.29,12.75c11.85,3.8,23.87,6.19,35.96,7.17c8.67,0.66,17.31,0.01,26.06,0.02v-5.71
			C409.35,116.21,405.17,116.08,401.01,116.08z"/>
		<path id="Path_10162" class="st4" d="M253.96,72.77c8.21,1.3,17.66,3.1,25.81-0.47c11.95-5.25,21.46-17.87,32.59-24.71h-14.84
			c-1.97,4.05-0.76,8.03-4.95,11c-8.26,5.87-20.14,7.22-29.09,7.8c-9.59,0.63-20.45,3.38-29.65-0.79
			c-8.74-3.97-16.24-11.96-25.07-15.59c-5.6-2.3-10.81-1.08-16.49-2.09c-0.53-0.09-1.02-0.21-1.51-0.33h-4.58
			c11.02,6.32,22.91,10.06,34.13,14.98C231.31,67.45,242.57,70.87,253.96,72.77z"/>
		<path id="Path_10163" class="st4" d="M281.67,49.81c0.15-0.73,0.12-1.52-0.09-2.22h-21.34c-2.03,1.57-4.24,2.55-6.51,2.89
			c-5.98,0.7-11.16-1.47-16.92-2.58c-0.67-0.13-1.31-0.21-1.97-0.32h-13.35c9.56,9.01,21.36,14.98,32.03,14.98
			C260.15,62.57,279.2,62.75,281.67,49.81z"/>
		<path id="Path_10164" class="st4" d="M365.89,65.08c-9.35,1.24-18.94,2.84-28.14,5.11c-5.43,1.33-15.67,3.75-19.75,8.79
			c10.03,5.72,18.69,13.68,29.59,16.58c11.01,2.94,22.25,5.56,33.34,7.93c10.12,2.17,20.24-0.19,30.45,0.44
			c0.58,0.04,1.31,0.15,2.14,0.29v-8.21c-3.24,0.44-6.49,0.55-9.74,0.32c-11.1-1.36-21.75-3.84-33.03-3.84
			c-8.49,0-16.67-0.13-24.86-1.92c-5.45-1.19-12.45-2.53-16.03-9.41c7.23-4.22,15.36-4.77,23.12-5.24
			c10.59-0.64,21.19-1.91,31.84-1.91c8.93-0.15,17.84-1.27,26.66-3.33c0.59-0.13,1.29-0.27,2.04-0.41V58.82
			c-5.28,1.36-10.61,3.2-15.68,3.61C387.13,63.28,376.52,63.69,365.89,65.08z"/>
		<path id="Path_10165" class="st4" d="M389.46,81.05c-13.28-0.02-26.55,1.69-39.64,5.11c6.8-0.96,14.08,1.41,20.92,1.26
			c7.73-0.18,15.69-1.14,23.42,0.6c4.23,0.96,12.06,3.32,19.36,3.8v-5.28c-3.08-0.1-6.17-0.24-9.2-0.5c1.61-3.07,5.38-3.92,9.2-4.28
			v-5.4c-1.15,0.39-2.27,0.74-3.3,1.02C402.94,79.27,396.98,81.04,389.46,81.05z"/>
		<path id="Path_10166" class="st4" d="M292.88,73.24c-4.96,2.03-10.02,6.62-15.02,7.17c8.29,0,17.55,2.52,25.27-1.41
			c9.41-4.8,18.7-10.49,28.37-14.67c19.7-8.52,45.89,3.99,62.89-16.43c-8.31,0.2-16.24,2.61-24.49,2.58
			c-8.54-0.03-17.16,0.12-25.62,1.25c-6.19,0.82-13.38,2.89-18.73,8.17c-3.8,3.76-6.81,8.52-11.71,8.95
			c6.7-9.19,18.48-16.5,27.35-19c3.08-0.87,6.49-1.39,9.81-2.23h-21.13c-7.1,3.62-13.15,10.06-19.97,14.82
			C304.18,66.42,299,70.74,292.88,73.24z"/>
		<path id="Path_10167" class="st4" d="M267.95,246.79c-3.37-0.21-6.75-0.02-10.09,0.54c-11.23,1.71-22.92,1.28-34.27,1.28
			c-14.41,0-28.19,5.8-42.42,7.79c-11.71,1.63-23.02,2.44-34.64-0.92c-10.95-3.16-21.72-8.49-33-9.33v6.08
			c2.64,1.69,5.44,2.95,7.23,3.88c9.02,4.68,18.64,10.22,28.35,12.48h24.82c7.53-0.72,15.03-2.08,22.46-4.05
			c9.57-2.62,18.83-3.74,28.56-5.13c5.09-0.73,10.38-0.03,15.44-1.23c4.75-1.12,10.07-4.96,14.89-3.72
			c-3.03,4.22-9.97,7.83-11.24,14.12h7.15c2.16-0.57,4.16-2.03,5.82-4.2C259.57,261.06,268.41,252.03,267.95,246.79z"/>
		<path id="Path_10168" class="st4" d="M303.05,251.14c-5.87-0.61-12.04,8.34-13.84,17.45h6.24c0.74-2.64,1.27-5.52,3.02-6.78
			c3.34-2.43,7.01,2.99,9.76,5.27c0.58,0.48,1.16,0.99,1.76,1.5h15.88c-1.6-1.95-3.29-3.73-5.04-5.33
			C316.34,258.89,308.4,251.7,303.05,251.14z"/>
		<path id="Path_10169" class="st4" d="M376.26,252.42c-7.93-0.56-15.75,1.29-23.71,0.63c-3.62-0.3-6.98-1.43-10.57-1.91
			c-2.88-0.38-5.95,0.76-8.66-0.7c5.23,3.74,10.92,5.16,15.98,9.79c3.18,2.91,5.44,5.41,9.19,6.34c9.09,2.25,19.22,1.11,28.54,0.49
			c5.71-0.38,11.29,0.61,16.87,1.5h9.61v-16.04c-3.76,0.69-7.56,1.08-11.34,1.15C393.41,253.7,384.89,253.04,376.26,252.42z"/>
	</g>
</g>
</svg>
