<?xml version="1.0" encoding="utf-8"?>
<!-- Generator: Adobe Illustrator 24.2.3, SVG Export Plug-In . SVG Version: 6.00 Build 0)  -->
<svg version="1.1" id="Layer_1" xmlns="http://www.w3.org/2000/svg" xmlns:xlink="http://www.w3.org/1999/xlink" x="0px" y="0px"
	 viewBox="0 0 300 300" style="enable-background:new 0 0 300 300;" xml:space="preserve">
<style type="text/css">
	.st0{fill:#6E6F72;}
	.st1{fill:#C9B2BB;}
	.st2{fill:#FAAF41;}
	.st3{fill:#ADADAD;}
</style>
<g id="Group_6446" transform="translate(-157.675 -18.494)">
	<g id="Group_6445" transform="translate(150.6 18.494)">
		<g id="Group_6438" transform="translate(7.075)">
			<rect id="Rectangle_24845" x="0" class="st0" width="300" height="300"/>
		</g>
		<g id="Group_6444" transform="translate(48.13 45.696)">
			<path id="Rectangle_24846" class="st1" d="M51.02,145.56l81.51-91.04c0.34-0.37,0.9-0.39,1.27-0.06l52.2,46.73
				c0.37,0.33,0.41,0.91,0.07,1.28l-81.5,91.03c-0.33,0.37-0.91,0.4-1.28,0.07l0,0l-52.2-46.73
				C50.72,146.5,50.69,145.93,51.02,145.56L51.02,145.56z"/>
			<path id="Rectangle_24847" class="st2" d="M49.02,145.55l81.51-91.03c0.33-0.37,0.91-0.4,1.28-0.07L184,101.17
				c0.37,0.33,0.4,0.91,0.07,1.28l0,0l-81.5,91.03c-0.33,0.37-0.9,0.4-1.28,0.07l0,0L49.1,146.83
				C48.72,146.5,48.69,145.93,49.02,145.55z"/>
			<path id="Path_10392" class="st3" d="M165.48,115.56c2.08-2.38,1.84-6-0.54-8.08l0,0l-37.18-33.33
				c-2.33-2.13-5.94-1.98-8.09,0.34l-59.56,66.44c-2.07,2.39-1.82,6,0.56,8.09l37.18,33.32c2.32,2.14,5.94,1.99,8.09-0.33
				L165.48,115.56z"/>
		</g>
	</g>
</g>
</svg>
