<?xml version="1.0" encoding="utf-8"?>
<!-- Generator: Adobe Illustrator 24.2.3, SVG Export Plug-In . SVG Version: 6.00 Build 0)  -->
<svg version="1.1" id="Layer_1" xmlns="http://www.w3.org/2000/svg" xmlns:xlink="http://www.w3.org/1999/xlink" x="0px" y="0px"
	 viewBox="0 0 300 187.5" style="enable-background:new 0 0 300 187.5;" xml:space="preserve">
<style type="text/css">
	.st0{fill:#841719;}
	.st1{fill:#B62026;}
	.st2{fill:#CB3131;}
	.st3{fill:#C72128;}
	.st4{opacity:0.5;fill:#B77C6B;}
	.st5{fill:#CC3634;}
	.st6{fill:#A61E22;}
	.st7{fill:#9B1C1F;}
	.st8{fill:#D03232;}
	.st9{fill:#DA3734;}
	.st10{fill:#D63232;}
	.st11{fill:#D43733;}
	.st12{opacity:0.3;fill:#EC8281;}
	.st13{fill:url(#Path_9127_1_);}
	.st14{fill:#0D151E;}
	.st15{fill:url(#Path_9129_1_);}
	.st16{fill:#3976BB;}
	.st17{fill:#00293F;}
	.st18{fill:url(#Path_9133_1_);}
	.st19{fill:url(#Path_9135_1_);}
	.st20{fill:url(#Path_9137_1_);}
	.st21{fill:url(#Path_9139_1_);}
	.st22{fill:url(#Path_9141_1_);}
	.st23{fill:url(#Path_9143_1_);}
	.st24{fill:url(#Path_9145_1_);}
	.st25{fill:url(#Path_9159_1_);}
	.st26{fill:url(#Path_9161_1_);}
	.st27{fill:url(#Path_9163_1_);}
	.st28{fill:url(#Path_9165_1_);}
	.st29{fill:url(#Path_9167_1_);}
	.st30{fill:url(#Path_9169_1_);}
	.st31{fill:url(#Path_9181_1_);}
	.st32{fill:url(#Path_9183_1_);}
	.st33{fill:url(#Path_9185_1_);}
	.st34{fill:url(#Path_9186_1_);}
	.st35{fill:url(#Path_9187_1_);}
	.st36{fill:url(#Path_9188_1_);}
	.st37{fill:url(#Path_9189_1_);}
	.st38{fill:url(#Path_9190_1_);}
	.st39{fill:url(#Path_9191_1_);}
	.st40{fill:url(#Path_9192_1_);}
	.st41{fill:url(#Path_9193_1_);}
	.st42{fill:url(#Path_9194_1_);}
	.st43{fill:url(#Path_9195_1_);}
	.st44{fill:url(#Path_9196_1_);}
	.st45{fill:url(#Path_9197_1_);}
	.st46{fill:url(#Path_9199_1_);}
	.st47{opacity:0.43;fill:url(#Path_9198_1_);enable-background:new    ;}
	.st48{fill:url(#Path_10375_1_);}
	.st49{fill:#424143;}
	.st50{fill:#6E6F72;}
	.st51{fill:#59595C;}
	.st52{fill:url(#Path_9590_1_);}
	.st53{fill:url(#Path_9587_1_);}
	.st54{fill:url(#Path_9588_1_);}
	.st55{fill:url(#Path_9589_1_);}
	.st56{fill:url(#Path_9591_1_);}
	.st57{fill:url(#Path_9592_1_);}
	.st58{fill:url(#Rectangle_24657_1_);}
	.st59{fill:url(#Rectangle_24658_1_);}
</style>
<g>
	<rect id="Rectangle_24535" x="27.49" y="35.62" class="st0" width="240.56" height="145.53"/>
	<g id="Group_5910" transform="translate(35.806 42.021)">
		<path id="Path_8993" class="st1" d="M117.35,141.19c36.1,2,72.27,2,108.37,0c2.89-33.95,2.89-104.18,0-138.14
			c-36.1-2-72.27-2-108.37,0C114.47,37.01,114.47,107.23,117.35,141.19z"/>
		<path id="Path_9126" class="st1" d="M3.4,141.19c36.1,2,72.27,2,108.37,0c2.89-33.95,2.89-104.18,0-138.14
			c-36.1-2-72.27-2-108.37,0C0.51,37.01,0.51,107.23,3.4,141.19z"/>
	</g>
	<path id="Path_8994" class="st2" d="M207.35,181.15c16.73,0,33.65-0.6,50.39-1.78c1.24-15.67,1.86-67.62,1.86-83.27
		s-0.63-31.51-1.86-47.18c-16.75-1.18-33.68-1.78-50.39-1.78s-33.65,0.6-50.4,1.78c-1.24,15.67-1.86,31.53-1.86,47.18
		s0.63,67.6,1.86,83.27c16.74,1.18,33.66,1.78,50.35,1.78H207.35z"/>
	<path id="Path_8995" class="st2" d="M94.64,181.15c16.73,0,33.66-0.6,50.39-1.78c1.24-15.69,1.86-67.63,1.86-83.27
		c0-15.66-0.63-31.51-1.86-47.18c-16.75-1.18-33.69-1.78-50.4-1.78s-33.64,0.6-50.39,1.78C43,64.59,42.38,80.45,42.38,96.1
		c0,15.63,0.63,67.58,1.86,83.27c16.74,1.18,33.66,1.78,50.35,1.78H94.64z"/>
	<path id="Path_8996" class="st3" d="M289.75,14.91c-0.44-0.75-0.92-1.48-1.43-2.18C282.76,4.86,275.05,0,266.56,0H33.86
		c-9.21,0.58-15.58,5.67-23.19,14.91l5.15,7.48l12.4,18.07l2.06,2.99h239.87l1.05-1.53l11.79-17.17L289.75,14.91z"/>
	<path id="Path_8997" class="st4" d="M282.98,24.75c-1.18-0.44-2.29-1.05-3.29-1.82c-1.42-1.22-2.32-3.38-3.73-4.57
		c-1.33-1.12-3.02-0.57-4.49-1.45c-1.01-0.6-1.91-1.45-2.87-2.16c-2.46-1.86-5.65-2.48-8.62-1.66c-4.52,1.3-9.41,3.61-14.09,1.87
		c-1.42-0.55-2.74-1.53-4.18-2.03c-2.92-1.01-5.41,0.81-8.26,0.7c-2.46-0.3-4.82-1.14-6.92-2.47c-1.42-0.8-2.48-1.61-4.01-1.3
		c-1.55,0.34-3.17,0.13-4.71,0.55c-2.04,0.6-3.9,1.9-6.01,2.21c-4.29,0.62-8.5-1.97-12.82-2.1c-1.56-0.01-3.12,0.2-4.62,0.62
		c-2.81,0.73-5.24,2.1-8.13,1.79c-3.86-0.44-7.69-3.07-11.46-1.76c-2.26,0.78-4.19,2.55-6.6,2.23c-2.12-0.29-4.08-1.74-6.24-1.9
		c-6.03-0.39-12.19,3.92-17.93,1.33c-0.68-0.37-1.39-0.69-2.11-0.96c-1.56-0.44-3.18,0.16-4.77,0.47
		c-3.92,0.75-7.91-0.26-11.86-0.29c-3.01,0.07-6,0.43-8.94,1.07c-2.15,0.39-4.45,1.27-6.58,0.62c-2.13-0.62-4.21-1.64-6.38-2.05
		c-3.16-0.62-6.14,0.68-9.25,0.55c-3.26-0.18-6.9-1.92-10.1-0.8c-3.05,1.07-5.53-0.68-8.59-1.38c-6.64-1.51-13.41,3.71-20.01,1.92
		c-4.14-1.14-8-4.96-12.15-4.08c-1.71,0.36-3.29,1.51-5,1.87c-3.16,0.7-6.64-1.22-9.47,0.91c-0.99,0.91-1.91,1.9-2.74,2.96
		c-0.89,0.97-1.98,1.73-3.2,2.23c-0.85,0.34-1.87,0.03-2.65,0.39c-1.29,0.57-2.79,2.57-3.57,4.16c-0.32,0.64-0.59,1.3-0.83,1.97
		l12.4,18.08c0.42-0.47,0.92-0.87,1.47-1.17c3.22-1.79,6.84-0.86,10.19-1.4c2.37-0.39,4.69-1.53,7.06-1.51
		c2.17,0.03,4.27,1.04,6.41,1.24c3.35,0.34,6.62-1.17,9.95-1.53c4.87-0.55,9.71,1.35,14.59,1.27c2.17-0.03,4.36-0.47,6.53-0.05
		c1.42,0.26,2.79,0.88,4.19,1.27c2.37,0.65,4.87,0.64,7.23-0.03c2.08-0.57,4.1-1.64,6.22-1.61c3.24,0.05,6.86,2.42,10.02,1.45
		c6.95,0.87,13.97,1.02,20.95,0.44c1.83-0.23,3.68-0.23,5.52,0c2.5,0.44,4.95,1.9,7.43,1.35c2.28-0.47,4.27-2.54,6.53-3.01
		c2.89-0.6,5.72,1.43,8.62,1.64c3.18,0.23,6.29-1.74,9.47-1.56c2.81,0.18,5.55,2.03,8.35,1.56c1.47-0.23,2.89-1.12,4.38-1.17
		c1.91-0.08,3.71,1.19,5.59,1.58c3.88,0.8,7.69-2.16,11.59-1.9c3.2,0.23,6.25,2.65,9.45,2.28c1.86-0.18,3.58-1.3,5.37-2.1
		c3.86-1.78,8.26-2.01,12.28-0.62c1.66,0.71,3.39,1.27,5.15,1.66c2.11,0.37,4.28,0.35,6.38-0.05c2.94-0.62,5.92-2.07,8.83-1.17
		c1.43,0.44,2.76,1.45,4.21,1.71c2.02,0.36,4.03-0.78,6.05-1.14c3.22-0.6,6.44,0.75,9.55,2.07c1.23,0.46,2.38,1.11,3.41,1.92
		L282.98,24.75z"/>
	<path id="Path_8998" class="st5" d="M300,180.23V43.45c0.02-10.5-3.49-20.74-10.39-28.64l-9.81,9.94l-16.6,17.17l-1.48,1.53v136.77
		c0,3.35,2.29,6.26,5.54,7.04v0.03c0.56,0.14,1.13,0.21,1.71,0.21h23.8C296.77,187.49,300,184.23,300,180.23z"/>
	<path id="Path_8999" class="st5" d="M38.28,180.23V43.45l-2.9-2.99L17.92,22.39l-7.25-7.48C3.77,22.81-0.02,32.95,0,43.45v136.77
		c0,3.93,3.12,7.15,7.04,7.27h24.32C35.23,187.3,38.27,184.11,38.28,180.23z"/>
	<g id="Group_5938" transform="translate(5.503 12.759)">
		<g id="Group_5912" transform="translate(31.513 16.443)">
			<path id="Path_9000" class="st6" d="M11.35,2.2c-0.62,0.28-1.22,0.6-1.8,0.95c-2.53,1.5-4.86,3.33-6.93,5.43
				c-0.48,0.48-0.93,0.99-1.34,1.52c0.62-0.28,1.22-0.59,1.8-0.94C5.61,7.64,7.93,5.82,10,3.72C10.48,3.24,10.93,2.73,11.35,2.2z"/>
			<path id="Path_9001" class="st6" d="M10.23,11.21C9.96,10.59,9.64,9.99,9.3,9.4C8.55,8.13,7.72,6.91,6.82,5.75
				C5.92,4.58,4.94,3.48,3.9,2.44C3.42,1.96,2.91,1.5,2.38,1.08C2.66,1.7,2.98,2.3,3.32,2.89c1.49,2.55,3.31,4.89,5.4,6.96
				C9.2,10.33,9.71,10.78,10.23,11.21z"/>
			<path id="Path_9002" class="st6" d="M5.94,10.88c0.16-0.48,0.28-0.97,0.39-1.46c0.45-2.14,0.62-4.33,0.5-6.52
				c-0.02-0.5-0.08-1-0.16-1.5C6.52,1.88,6.39,2.37,6.29,2.86C6.07,3.93,5.92,5.02,5.82,6.11C5.75,7.2,5.74,8.29,5.79,9.38
				C5.81,9.89,5.86,10.39,5.94,10.88z"/>
			<path id="Path_9003" class="st6" d="M11.03,6.51c-0.48-0.16-0.96-0.28-1.45-0.39C8.51,5.91,7.43,5.76,6.35,5.66
				C5.27,5.59,4.18,5.57,3.09,5.62c-0.5,0.02-1,0.08-1.49,0.16c0.47,0.16,0.96,0.29,1.45,0.39c1.07,0.22,2.14,0.37,3.22,0.46
				C7.35,6.7,8.44,6.71,9.53,6.67C10.03,6.64,10.53,6.59,11.03,6.51z"/>
			<ellipse id="Ellipse_471" class="st7" cx="6.16" cy="6" rx="2.81" ry="2.81"/>
		</g>
		<g id="Group_5913" transform="translate(71.077 16.443)">
			<path id="Path_9004" class="st6" d="M12.71,2.2c-0.62,0.28-1.22,0.6-1.8,0.95C9.65,3.89,8.44,4.73,7.28,5.63
				C6.12,6.54,5.02,7.52,3.99,8.57c-0.48,0.48-0.93,0.99-1.34,1.52c0.62-0.28,1.22-0.59,1.8-0.94C5.71,8.4,6.92,7.56,8.08,6.66
				c1.16-0.91,2.26-1.89,3.29-2.94C11.85,3.24,12.29,2.73,12.71,2.2z"/>
			<path id="Path_9005" class="st6" d="M11.6,11.21c-0.28-0.62-0.59-1.22-0.94-1.81C9.17,6.86,7.36,4.52,5.27,2.44
				C4.79,1.96,4.28,1.5,3.75,1.08C4.03,1.7,4.34,2.3,4.69,2.89C6.18,5.43,8,7.77,10.09,9.85C10.57,10.33,11.07,10.78,11.6,11.21z"/>
			<path id="Path_9006" class="st6" d="M7.31,10.88C7.47,10.41,7.6,9.92,7.7,9.42C8.15,7.28,8.31,5.09,8.2,2.9
				c-0.02-0.5-0.08-1-0.16-1.5C7.88,1.88,7.75,2.37,7.65,2.86C7.44,3.93,7.29,5.02,7.19,6.11C7.12,7.2,7.11,8.29,7.15,9.38
				C7.18,9.89,7.23,10.39,7.31,10.88z"/>
			<path id="Path_9007" class="st6" d="M12.39,6.51c-0.48-0.16-0.96-0.28-1.45-0.39c-2.13-0.45-4.31-0.62-6.48-0.5
				c-0.5,0.02-1,0.08-1.49,0.16c0.47,0.16,0.96,0.29,1.45,0.39c1.07,0.22,2.14,0.37,3.22,0.46C8.72,6.7,9.81,6.71,10.9,6.67
				C11.4,6.64,11.9,6.59,12.39,6.51z"/>
			<path id="Path_9008" class="st7" d="M10.33,6c-0.01-1.55-1.26-2.81-2.81-2.8c-1.55,0.01-2.8,1.27-2.8,2.82
				c0.01,1.55,1.26,2.8,2.8,2.8C9.08,8.82,10.34,7.55,10.33,6z"/>
		</g>
		<g id="Group_5914" transform="translate(110.643 16.443)">
			<path id="Path_9009" class="st6" d="M14.08,2.2c-0.62,0.28-1.22,0.6-1.8,0.95C11.02,3.89,9.8,4.73,8.64,5.63
				C7.48,6.54,6.38,7.52,5.35,8.57c-0.48,0.48-0.93,0.99-1.34,1.52C4.62,9.81,5.22,9.5,5.8,9.15c2.53-1.5,4.86-3.33,6.93-5.43
				C13.21,3.24,13.66,2.73,14.08,2.2z"/>
			<path id="Path_9010" class="st6" d="M12.97,11.21c-0.28-0.62-0.59-1.22-0.94-1.81c-0.75-1.27-1.57-2.49-2.47-3.66
				c-0.9-1.17-1.88-2.27-2.92-3.31C6.15,1.96,5.64,1.5,5.11,1.08C5.39,1.7,5.71,2.3,6.05,2.89c1.49,2.55,3.31,4.89,5.4,6.96
				C11.93,10.33,12.44,10.78,12.97,11.21z"/>
			<path id="Path_9011" class="st6" d="M8.67,10.88c0.16-0.48,0.28-0.97,0.39-1.46c0.45-2.14,0.62-4.33,0.5-6.52
				c-0.02-0.5-0.08-1-0.16-1.5C9.25,1.88,9.12,2.37,9.02,2.86C8.8,3.93,8.65,5.02,8.56,6.11C8.48,7.2,8.47,8.29,8.52,9.38
				C8.54,9.89,8.59,10.39,8.67,10.88z"/>
			<path id="Path_9012" class="st6" d="M13.76,6.51c-0.48-0.16-0.96-0.28-1.45-0.39C10.18,5.68,8,5.51,5.82,5.62
				c-0.5,0.03-1,0.08-1.49,0.16C4.8,5.94,5.29,6.06,5.78,6.17C6.84,6.38,7.92,6.54,9,6.63c1.08,0.07,2.17,0.09,3.26,0.04
				C12.76,6.64,13.26,6.59,13.76,6.51z"/>
			<path id="Path_9013" class="st7" d="M11.7,6c0-1.55-1.26-2.81-2.81-2.81c-1.55,0-2.8,1.27-2.8,2.82c0,1.55,1.26,2.81,2.81,2.81
				C10.44,8.82,11.7,7.55,11.7,6z"/>
		</g>
		<g id="Group_5915" transform="translate(150.207 16.443)">
			<path id="Path_9014" class="st6" d="M15.45,2.2c-0.62,0.28-1.22,0.6-1.8,0.95c-2.53,1.5-4.86,3.33-6.93,5.43
				c-0.48,0.48-0.93,0.99-1.34,1.52c0.62-0.28,1.22-0.59,1.8-0.94c1.26-0.75,2.48-1.58,3.64-2.49c1.16-0.91,2.26-1.89,3.29-2.94
				C14.58,3.24,15.03,2.73,15.45,2.2z"/>
			<path id="Path_9015" class="st6" d="M14.33,11.21c-0.28-0.62-0.59-1.22-0.94-1.81C11.9,6.86,10.08,4.52,8,2.44
				C7.52,1.96,7.01,1.5,6.48,1.08C6.76,1.7,7.07,2.3,7.42,2.89c1.49,2.54,3.31,4.89,5.4,6.96C13.3,10.33,13.8,10.78,14.33,11.21z"/>
			<path id="Path_9016" class="st6" d="M10.04,10.88c0.16-0.48,0.28-0.97,0.38-1.46c0.21-1.07,0.37-2.15,0.46-3.24
				C10.96,5.09,10.97,4,10.93,2.9c-0.02-0.5-0.08-1-0.16-1.5c-0.16,0.48-0.28,0.97-0.39,1.46c-0.21,1.07-0.37,2.16-0.46,3.24
				C9.85,7.2,9.84,8.29,9.88,9.38C9.91,9.89,9.96,10.39,10.04,10.88z"/>
			<path id="Path_9017" class="st6" d="M15.12,6.51c-0.48-0.16-0.96-0.28-1.45-0.39c-2.13-0.45-4.31-0.62-6.48-0.5
				c-0.5,0.02-1,0.08-1.49,0.16c0.47,0.16,0.96,0.29,1.45,0.39c1.07,0.22,2.14,0.37,3.22,0.46c1.08,0.07,2.17,0.09,3.26,0.04
				C14.13,6.64,14.63,6.59,15.12,6.51z"/>
			<ellipse id="Ellipse_472" class="st7" cx="10.26" cy="6" rx="2.81" ry="2.81"/>
		</g>
		<g id="Group_5916" transform="translate(189.774 16.443)">
			<path id="Path_9018" class="st6" d="M16.81,2.2c-0.62,0.28-1.22,0.6-1.8,0.95c-1.26,0.75-2.48,1.58-3.64,2.49
				c-1.16,0.91-2.26,1.89-3.29,2.94c-0.48,0.48-0.93,0.99-1.34,1.52c0.62-0.28,1.22-0.59,1.8-0.94c2.53-1.5,4.86-3.33,6.93-5.43
				C15.94,3.24,16.39,2.73,16.81,2.2z"/>
			<path id="Path_9019" class="st6" d="M15.7,11.21c-0.28-0.62-0.59-1.22-0.94-1.81c-0.75-1.27-1.57-2.49-2.47-3.66
				c-0.9-1.17-1.88-2.27-2.92-3.31C8.88,1.96,8.37,1.5,7.84,1.08C8.12,1.7,8.44,2.3,8.78,2.89c1.49,2.54,3.31,4.88,5.4,6.96
				C14.66,10.33,15.17,10.78,15.7,11.21z"/>
			<path id="Path_9020" class="st6" d="M11.41,10.88c0.16-0.48,0.29-0.97,0.39-1.46c0.45-2.14,0.62-4.33,0.5-6.52
				c-0.03-0.5-0.08-1-0.16-1.5c-0.16,0.48-0.29,0.97-0.39,1.46c-0.21,1.07-0.37,2.15-0.46,3.24c-0.07,1.09-0.08,2.18-0.04,3.28
				C11.27,9.88,11.33,10.39,11.41,10.88z"/>
			<path id="Path_9021" class="st6" d="M16.49,6.51c-0.48-0.16-0.96-0.28-1.45-0.39c-1.07-0.21-2.14-0.37-3.22-0.46
				c-1.08-0.07-2.17-0.09-3.26-0.04c-0.5,0.03-1,0.08-1.5,0.16c0.47,0.16,0.96,0.29,1.45,0.39c1.07,0.22,2.14,0.37,3.23,0.46
				c1.08,0.07,2.17,0.09,3.26,0.04C15.49,6.64,15.99,6.59,16.49,6.51z"/>
			<ellipse id="Ellipse_473" class="st7" cx="11.62" cy="6" rx="2.81" ry="2.81"/>
		</g>
		<g id="Group_5917" transform="translate(229.338 16.443)">
			<path id="Path_9022" class="st6" d="M18.17,2.2c-0.62,0.28-1.22,0.6-1.8,0.95c-1.26,0.75-2.48,1.58-3.64,2.49
				c-1.16,0.91-2.26,1.89-3.29,2.94C8.97,9.05,8.52,9.56,8.1,10.09C8.71,9.81,9.32,9.5,9.9,9.15c2.53-1.5,4.86-3.33,6.93-5.43
				C17.3,3.24,17.75,2.73,18.17,2.2z"/>
			<path id="Path_9023" class="st6" d="M17.06,11.21c-0.28-0.62-0.59-1.22-0.94-1.81c-1.49-2.54-3.31-4.89-5.39-6.97
				C10.25,1.96,9.74,1.5,9.21,1.08C9.49,1.7,9.8,2.3,10.15,2.89c1.49,2.54,3.31,4.89,5.4,6.96C16.03,10.33,16.53,10.78,17.06,11.21z
				"/>
			<path id="Path_9024" class="st6" d="M12.77,10.88c0.16-0.48,0.28-0.97,0.39-1.46c0.21-1.07,0.37-2.16,0.46-3.24
				C13.69,5.09,13.71,4,13.66,2.9c-0.02-0.5-0.08-1-0.16-1.5c-0.16,0.48-0.28,0.97-0.39,1.46c-0.21,1.07-0.37,2.16-0.46,3.24
				c-0.07,1.09-0.08,2.18-0.04,3.28C12.64,9.89,12.69,10.39,12.77,10.88z"/>
			<path id="Path_9025" class="st6" d="M17.85,6.51c-0.48-0.16-0.96-0.28-1.45-0.39c-1.07-0.21-2.14-0.37-3.23-0.46
				C12.09,5.59,11,5.57,9.92,5.62c-0.5,0.02-1,0.08-1.49,0.16C8.9,5.94,9.38,6.07,9.87,6.17c1.07,0.22,2.14,0.37,3.22,0.46
				c1.08,0.07,2.17,0.09,3.26,0.04C16.86,6.64,17.36,6.59,17.85,6.51z"/>
			<path id="Path_9026" class="st7" d="M15.79,6c0-1.55-1.26-2.81-2.81-2.81c-1.55,0-2.8,1.27-2.8,2.82c0,1.55,1.26,2.81,2.81,2.81
				C14.54,8.82,15.8,7.55,15.79,6z"/>
		</g>
		<g id="Group_5918" transform="translate(268.905 16.443)">
			<path id="Path_9027" class="st6" d="M19.54,2.2c-0.62,0.28-1.22,0.6-1.8,0.95c-1.26,0.75-2.48,1.58-3.64,2.49
				c-1.16,0.91-2.26,1.89-3.29,2.94c-0.48,0.48-0.93,0.99-1.34,1.52c0.62-0.28,1.22-0.59,1.8-0.94c2.53-1.5,4.86-3.33,6.93-5.43
				C18.67,3.24,19.12,2.73,19.54,2.2z"/>
			<path id="Path_9028" class="st6" d="M18.42,11.21c-0.28-0.62-0.59-1.22-0.94-1.81c-1.49-2.54-3.31-4.89-5.39-6.97
				c-0.48-0.48-0.98-0.93-1.51-1.36c0.28,0.62,0.59,1.22,0.94,1.81c1.49,2.54,3.31,4.88,5.4,6.96
				C17.39,10.33,17.9,10.78,18.42,11.21z"/>
			<path id="Path_9029" class="st6" d="M14.14,10.88c0.16-0.48,0.28-0.97,0.38-1.46c0.21-1.07,0.37-2.16,0.46-3.24
				C15.06,5.09,15.07,4,15.02,2.9c-0.02-0.5-0.08-1-0.16-1.5c-0.16,0.48-0.29,0.97-0.39,1.46c-0.21,1.07-0.37,2.16-0.46,3.24
				c-0.07,1.09-0.08,2.18-0.04,3.28C14,9.89,14.06,10.39,14.14,10.88z"/>
			<path id="Path_9030" class="st6" d="M19.22,6.51c-0.48-0.16-0.96-0.28-1.45-0.39c-2.13-0.45-4.31-0.62-6.48-0.5
				c-0.5,0.02-1,0.08-1.49,0.16c0.47,0.16,0.96,0.29,1.45,0.39c1.07,0.22,2.14,0.37,3.23,0.46c1.08,0.07,2.17,0.09,3.26,0.04
				C18.22,6.64,18.72,6.59,19.22,6.51z"/>
			<path id="Path_9031" class="st7" d="M17.16,6c0-1.55-1.26-2.81-2.81-2.8c-1.55,0-2.8,1.27-2.8,2.82c0,1.55,1.26,2.8,2.81,2.8
				C15.9,8.82,17.16,7.55,17.16,6z"/>
		</g>
		<g id="Group_5919" transform="translate(10.297)">
			<path id="Path_9032" class="st6" d="M10.62,1.59C10,1.87,9.4,2.19,8.82,2.53C7.56,3.29,6.34,4.12,5.18,5.02
				C4.02,5.93,2.92,6.91,1.89,7.96C1.41,8.44,0.97,8.95,0.55,9.48c0.62-0.28,1.22-0.59,1.8-0.94c2.53-1.5,4.86-3.33,6.93-5.43
				C9.75,2.63,10.2,2.12,10.62,1.59z"/>
			<path id="Path_9033" class="st6" d="M9.5,10.6C9.22,9.98,8.91,9.38,8.56,8.79C7.82,7.52,6.99,6.3,6.09,5.14
				c-0.9-1.17-1.88-2.27-2.92-3.31C2.69,1.35,2.18,0.89,1.65,0.47c0.28,0.62,0.59,1.22,0.94,1.81c0.75,1.27,1.57,2.49,2.48,3.66
				C5.97,7.1,6.95,8.2,7.99,9.24C8.47,9.72,8.97,10.18,9.5,10.6z"/>
			<path id="Path_9034" class="st6" d="M5.22,10.27C5.37,9.8,5.5,9.31,5.6,8.82C6.05,6.67,6.22,4.48,6.1,2.3
				c-0.02-0.5-0.08-1-0.16-1.5C5.79,1.27,5.66,1.76,5.56,2.25C5.34,3.33,5.19,4.41,5.1,5.5C5.02,6.59,5.01,7.68,5.06,8.77
				C5.08,9.28,5.14,9.78,5.22,10.27z"/>
			<path id="Path_9035" class="st6" d="M10.29,5.9C9.82,5.75,9.34,5.62,8.85,5.51C7.78,5.3,6.7,5.15,5.62,5.05
				C4.54,4.98,3.45,4.96,2.36,5.01c-0.5,0.02-1,0.08-1.5,0.16c0.47,0.16,0.96,0.29,1.45,0.39c1.07,0.21,2.14,0.37,3.23,0.46
				C6.63,6.09,7.71,6.1,8.8,6.06C9.3,6.03,9.8,5.98,10.29,5.9z"/>
			<ellipse id="Ellipse_474" class="st7" cx="5.43" cy="5.39" rx="2.81" ry="2.81"/>
		</g>
		<g id="Group_5920" transform="translate(49.861)">
			<path id="Path_9036" class="st6" d="M11.98,1.59c-0.62,0.28-1.22,0.6-1.8,0.95C8.92,3.28,7.71,4.12,6.55,5.02
				C5.39,5.93,4.29,6.91,3.26,7.96C2.78,8.44,2.33,8.95,1.91,9.48c0.62-0.28,1.22-0.59,1.8-0.94c1.26-0.75,2.48-1.58,3.64-2.49
				C8.5,5.14,9.6,4.16,10.63,3.11C11.11,2.63,11.56,2.12,11.98,1.59z"/>
			<path id="Path_9037" class="st6" d="M10.87,10.6c-0.28-0.62-0.59-1.22-0.94-1.81C9.18,7.52,8.36,6.3,7.46,5.14
				c-0.9-1.17-1.88-2.27-2.92-3.31C4.06,1.35,3.55,0.89,3.02,0.47C3.3,1.09,3.61,1.69,3.96,2.28c1.49,2.54,3.31,4.89,5.4,6.96
				C9.84,9.72,10.34,10.17,10.87,10.6z"/>
			<path id="Path_9038" class="st6" d="M6.58,10.27C6.74,9.8,6.86,9.31,6.97,8.82c0.21-1.07,0.37-2.16,0.46-3.25
				C7.5,4.48,7.51,3.39,7.47,2.3c-0.02-0.5-0.08-1-0.16-1.5C7.15,1.27,7.02,1.76,6.92,2.25C6.71,3.33,6.55,4.41,6.46,5.5
				C6.39,6.59,6.38,7.68,6.42,8.77C6.45,9.28,6.5,9.78,6.58,10.27z"/>
			<path id="Path_9039" class="st6" d="M11.66,5.9c-0.48-0.16-0.96-0.28-1.45-0.39C9.14,5.3,8.07,5.15,6.98,5.05
				C5.9,4.98,4.81,4.96,3.72,5.01c-0.5,0.02-1,0.08-1.49,0.16c0.47,0.16,0.96,0.29,1.45,0.39C4.74,5.77,5.82,5.92,6.9,6.02
				c1.08,0.07,2.17,0.09,3.26,0.04C10.66,6.03,11.16,5.98,11.66,5.9z"/>
			<path id="Path_9040" class="st7" d="M9.6,5.38c0-1.55-1.26-2.81-2.81-2.81c-1.55,0-2.8,1.27-2.8,2.82c0,1.55,1.26,2.81,2.81,2.81
				C8.35,8.2,9.6,6.94,9.6,5.38z"/>
		</g>
		<g id="Group_5921" transform="translate(89.428)">
			<path id="Path_9041" class="st6" d="M13.35,1.59c-0.62,0.28-1.22,0.6-1.8,0.95c-1.26,0.75-2.48,1.58-3.64,2.49
				C6.75,5.93,5.65,6.91,4.62,7.96C4.14,8.44,3.69,8.95,3.27,9.48c0.62-0.28,1.22-0.59,1.8-0.94C7.61,7.03,9.93,5.21,12,3.11
				C12.48,2.63,12.93,2.12,13.35,1.59z"/>
			<path id="Path_9042" class="st6" d="M12.23,10.6c-0.28-0.62-0.59-1.22-0.94-1.81C9.8,6.25,7.99,3.91,5.9,1.83
				C5.42,1.34,4.91,0.89,4.38,0.47c0.28,0.62,0.59,1.22,0.94,1.81c1.49,2.54,3.31,4.88,5.4,6.96C11.2,9.72,11.7,10.17,12.23,10.6z"
				/>
			<path id="Path_9043" class="st6" d="M7.94,10.27C8.1,9.8,8.23,9.31,8.33,8.82c0.21-1.07,0.37-2.16,0.46-3.25
				C8.86,4.48,8.88,3.39,8.83,2.3c-0.02-0.5-0.08-1-0.16-1.5C8.51,1.27,8.39,1.76,8.29,2.25C8.07,3.33,7.92,4.41,7.82,5.5
				C7.75,6.59,7.74,7.68,7.79,8.77C7.81,9.28,7.86,9.78,7.94,10.27z"/>
			<path id="Path_9044" class="st6" d="M13.02,5.9c-0.48-0.16-0.96-0.28-1.45-0.39C10.51,5.3,9.43,5.15,8.35,5.05
				C7.27,4.98,6.18,4.96,5.09,5.01c-0.5,0.02-1,0.08-1.49,0.16c0.47,0.16,0.96,0.29,1.45,0.39c1.07,0.21,2.14,0.37,3.23,0.46
				c1.08,0.07,2.17,0.09,3.26,0.04C12.03,6.03,12.53,5.98,13.02,5.9z"/>
			<path id="Path_9045" class="st7" d="M10.97,5.38c-0.01-1.55-1.26-2.81-2.81-2.8C6.6,2.59,5.35,3.85,5.36,5.4
				c0.01,1.55,1.26,2.8,2.8,2.8C9.71,8.2,10.97,6.94,10.97,5.38z"/>
		</g>
		<g id="Group_5922" transform="translate(128.995)">
			<path id="Path_9046" class="st6" d="M14.71,1.59c-0.62,0.28-1.22,0.6-1.8,0.95c-1.26,0.75-2.48,1.58-3.64,2.49
				C8.12,5.93,7.02,6.91,5.99,7.96C5.51,8.44,5.06,8.95,4.64,9.48c0.62-0.28,1.22-0.59,1.8-0.94c2.53-1.5,4.86-3.33,6.93-5.43
				C13.84,2.63,14.29,2.12,14.71,1.59z"/>
			<path id="Path_9047" class="st6" d="M13.6,10.6c-0.28-0.62-0.59-1.22-0.94-1.81c-0.75-1.27-1.57-2.49-2.48-3.66
				c-0.9-1.17-1.88-2.27-2.92-3.31C6.78,1.35,6.28,0.89,5.75,0.47c0.28,0.62,0.59,1.22,0.94,1.81c0.75,1.27,1.57,2.49,2.47,3.66
				c0.9,1.16,1.88,2.27,2.92,3.31C12.56,9.72,13.07,10.17,13.6,10.6z"/>
			<path id="Path_9048" class="st6" d="M9.31,10.27C9.46,9.8,9.59,9.31,9.69,8.82c0.45-2.14,0.61-4.33,0.5-6.52
				c-0.02-0.5-0.08-1-0.16-1.5C9.88,1.27,9.75,1.76,9.65,2.25C9.44,3.33,9.28,4.41,9.19,5.5C9.12,6.59,9.1,7.68,9.15,8.77
				C9.17,9.28,9.23,9.78,9.31,10.27z"/>
			<path id="Path_9049" class="st6" d="M14.39,5.9c-0.48-0.16-0.96-0.28-1.45-0.39C11.87,5.3,10.8,5.15,9.71,5.05
				C8.63,4.98,7.54,4.96,6.46,5.01c-0.5,0.02-1,0.08-1.49,0.16c0.47,0.16,0.96,0.29,1.45,0.39c1.07,0.21,2.14,0.37,3.22,0.46
				c1.08,0.07,2.17,0.09,3.26,0.04C13.39,6.03,13.89,5.98,14.39,5.9z"/>
			<path id="Path_9050" class="st7" d="M12.33,5.38c0-1.55-1.26-2.81-2.81-2.81c-1.55,0-2.8,1.27-2.8,2.82
				c0,1.55,1.26,2.81,2.81,2.81C11.08,8.2,12.33,6.94,12.33,5.38z"/>
		</g>
		<g id="Group_5923" transform="translate(168.559)">
			<path id="Path_9051" class="st6" d="M16.08,1.59c-0.62,0.28-1.22,0.6-1.8,0.95c-1.26,0.75-2.48,1.58-3.64,2.49
				C9.48,5.93,8.38,6.91,7.35,7.96C6.87,8.44,6.43,8.95,6.01,9.48c0.62-0.28,1.22-0.59,1.8-0.94c2.53-1.5,4.86-3.33,6.93-5.43
				C15.21,2.63,15.66,2.12,16.08,1.59z"/>
			<path id="Path_9052" class="st6" d="M14.96,10.6c-0.28-0.62-0.59-1.22-0.94-1.81c-1.49-2.54-3.31-4.89-5.39-6.97
				C8.15,1.34,7.64,0.89,7.11,0.47c0.28,0.62,0.59,1.22,0.94,1.81c0.75,1.27,1.57,2.49,2.48,3.66c0.9,1.16,1.88,2.27,2.92,3.31
				C13.93,9.72,14.43,10.17,14.96,10.6z"/>
			<path id="Path_9053" class="st6" d="M10.67,10.27c0.16-0.48,0.28-0.97,0.38-1.46c0.45-2.14,0.62-4.33,0.5-6.52
				c-0.02-0.5-0.08-1-0.16-1.5c-0.16,0.48-0.29,0.97-0.39,1.46c-0.21,1.07-0.37,2.16-0.46,3.24c-0.07,1.09-0.08,2.18-0.04,3.28
				C10.54,9.28,10.59,9.78,10.67,10.27z"/>
			<path id="Path_9054" class="st6" d="M15.75,5.9c-0.48-0.16-0.96-0.28-1.45-0.39c-1.07-0.21-2.14-0.37-3.22-0.46
				C10,4.98,8.91,4.96,7.82,5.01c-0.5,0.02-1,0.08-1.49,0.16c0.47,0.16,0.96,0.29,1.45,0.39C8.84,5.77,9.92,5.92,11,6.02
				c1.08,0.07,2.17,0.09,3.26,0.04C14.76,6.03,15.26,5.98,15.75,5.9z"/>
			<ellipse id="Ellipse_475" class="st7" cx="10.89" cy="5.39" rx="2.81" ry="2.81"/>
		</g>
		<g id="Group_5924" transform="translate(208.125)">
			<path id="Path_9055" class="st6" d="M17.44,1.59c-0.62,0.28-1.22,0.6-1.8,0.95C14.38,3.29,13.16,4.12,12,5.02
				c-1.16,0.91-2.26,1.89-3.29,2.94C8.24,8.44,7.79,8.95,7.37,9.48c0.62-0.28,1.22-0.59,1.8-0.94c2.53-1.5,4.86-3.33,6.93-5.43
				C16.57,2.63,17.02,2.12,17.44,1.59z"/>
			<path id="Path_9056" class="st6" d="M16.33,10.6c-0.28-0.62-0.59-1.22-0.94-1.81c-0.75-1.27-1.57-2.49-2.47-3.66
				c-0.9-1.17-1.88-2.27-2.92-3.31C9.51,1.35,9.01,0.89,8.48,0.47c0.28,0.62,0.59,1.22,0.94,1.81c0.75,1.27,1.57,2.49,2.47,3.66
				c0.9,1.16,1.88,2.27,2.92,3.31C15.29,9.72,15.8,10.17,16.33,10.6z"/>
			<path id="Path_9057" class="st6" d="M12.04,10.27c0.16-0.48,0.29-0.97,0.39-1.46c0.21-1.07,0.37-2.16,0.46-3.25
				c0.07-1.09,0.09-2.18,0.04-3.28c-0.02-0.5-0.08-1-0.16-1.5c-0.16,0.48-0.29,0.97-0.39,1.46c-0.21,1.07-0.37,2.15-0.46,3.24
				c-0.07,1.09-0.09,2.18-0.04,3.28C11.91,9.28,11.96,9.78,12.04,10.27z"/>
			<path id="Path_9058" class="st6" d="M17.12,5.9c-0.48-0.16-0.96-0.28-1.45-0.39c-1.07-0.21-2.14-0.37-3.23-0.46
				c-1.08-0.07-2.17-0.09-3.26-0.04c-0.5,0.02-1,0.08-1.49,0.16c0.47,0.16,0.96,0.29,1.45,0.39c1.07,0.21,2.14,0.37,3.23,0.46
				c1.08,0.07,2.17,0.09,3.26,0.04C16.13,6.03,16.62,5.98,17.12,5.9z"/>
			<path id="Path_9059" class="st7" d="M15.06,5.38c0-1.55-1.26-2.81-2.81-2.81c-1.55,0-2.8,1.27-2.8,2.82
				c0,1.55,1.26,2.81,2.81,2.81C13.81,8.2,15.06,6.94,15.06,5.38z"/>
		</g>
		<g id="Group_5925" transform="translate(247.69)">
			<path id="Path_9060" class="st6" d="M18.81,1.59c-0.62,0.28-1.22,0.6-1.8,0.95c-1.27,0.75-2.48,1.58-3.64,2.49
				c-1.16,0.91-2.26,1.89-3.29,2.94C9.6,8.44,9.15,8.95,8.73,9.48c0.62-0.28,1.22-0.59,1.8-0.94c1.26-0.75,2.48-1.58,3.64-2.49
				c1.16-0.91,2.26-1.89,3.29-2.94C17.94,2.63,18.39,2.12,18.81,1.59z"/>
			<path id="Path_9061" class="st6" d="M17.69,10.6c-0.28-0.62-0.59-1.22-0.94-1.81c-1.49-2.55-3.31-4.89-5.39-6.97
				c-0.48-0.48-0.98-0.94-1.52-1.36c0.28,0.62,0.59,1.22,0.94,1.81c0.75,1.27,1.57,2.49,2.48,3.66c0.9,1.16,1.88,2.27,2.92,3.31
				C16.66,9.72,17.17,10.17,17.69,10.6z"/>
			<path id="Path_9062" class="st6" d="M13.41,10.27c0.16-0.48,0.28-0.97,0.39-1.46c0.45-2.14,0.62-4.33,0.5-6.52
				c-0.02-0.5-0.08-1-0.16-1.5c-0.16,0.48-0.28,0.97-0.39,1.46c-0.21,1.07-0.37,2.16-0.46,3.24c-0.07,1.09-0.08,2.18-0.04,3.28
				C13.27,9.28,13.32,9.78,13.41,10.27z"/>
			<path id="Path_9063" class="st6" d="M18.48,5.9c-0.48-0.16-0.96-0.28-1.45-0.39c-1.07-0.21-2.14-0.37-3.22-0.46
				c-1.08-0.07-2.17-0.09-3.26-0.04c-0.5,0.02-1,0.08-1.49,0.16c0.47,0.16,0.96,0.29,1.45,0.39c1.07,0.21,2.14,0.37,3.22,0.46
				c1.08,0.07,2.17,0.09,3.26,0.04C17.49,6.03,17.99,5.98,18.48,5.9z"/>
			<path id="Path_9064" class="st7" d="M16.43,5.38c0-1.55-1.26-2.81-2.81-2.81c-1.55,0-2.8,1.27-2.8,2.82
				c0,1.55,1.26,2.81,2.81,2.81C15.17,8.2,16.43,6.94,16.43,5.38z"/>
		</g>
		<g id="Group_5926" transform="translate(258.598 37.683)">
			<path id="Path_9065" class="st6" d="M16.18,12c-0.2-0.6-0.43-1.18-0.69-1.75c-0.25-0.5-0.5-1.11-0.84-1.71l-1.07-1.9
				c-0.41-0.62-0.82-1.24-1.2-1.82s-0.81-1.08-1.14-1.53c-0.39-0.49-0.8-0.97-1.24-1.41c0.2,0.6,0.43,1.18,0.69,1.75
				c0.25,0.5,0.5,1.11,0.84,1.71c0.35,0.6,0.71,1.25,1.07,1.9c0.41,0.62,0.82,1.24,1.2,1.82c0.38,0.58,0.81,1.08,1.14,1.53
				C15.32,11.08,15.74,11.55,16.18,12z"/>
			<path id="Path_9066" class="st6" d="M9.11,10.88c0.51-0.31,1-0.64,1.47-1c0.41-0.34,0.92-0.69,1.4-1.14l1.51-1.39l1.41-1.5
				c0.45-0.48,0.81-0.99,1.15-1.39c0.37-0.47,0.71-0.96,1.01-1.46c-0.51,0.31-1,0.64-1.47,1c-0.4,0.34-0.92,0.69-1.4,1.14
				l-1.51,1.39l-1.41,1.5c-0.45,0.48-0.81,0.98-1.15,1.39C9.76,9.88,9.42,10.37,9.11,10.88z"/>
			<path id="Path_9067" class="st6" d="M9.36,6.57c0.37,0.14,0.75,0.26,1.14,0.35c0.84,0.2,1.69,0.35,2.54,0.44
				c0.86,0.07,1.72,0.1,2.58,0.07c0.4-0.02,0.79-0.06,1.19-0.13c-0.37-0.14-0.75-0.26-1.14-0.36c-0.84-0.2-1.69-0.34-2.54-0.44
				c-0.86-0.07-1.72-0.09-2.57-0.06C10.15,6.46,9.75,6.5,9.36,6.57z"/>
			<path id="Path_9068" class="st6" d="M12.8,11.68c0.14-0.48,0.25-0.97,0.33-1.47c0.17-0.88,0.28-2.06,0.39-3.25
				c0.04-1.19,0.07-2.38,0.01-3.27c-0.02-0.5-0.08-1-0.15-1.5c-0.13,0.48-0.25,0.97-0.33,1.47c-0.17,0.88-0.28,2.06-0.39,3.25
				c-0.04,1.19-0.07,2.38-0.01,3.27C12.67,10.68,12.72,11.18,12.8,11.68z"/>
			<path id="Path_9069" class="st7" d="M13.2,9.61c1.55,0.38,3.12-0.58,3.5-2.14c0.38-1.56-0.58-3.13-2.13-3.51
				C13,3.58,11.44,4.54,11.06,6.1c-0.05,0.22-0.08,0.45-0.08,0.68C10.84,8.17,11.82,9.42,13.2,9.61z"/>
		</g>
		<g id="Group_5927" transform="translate(254.745 84.481)">
			<path id="Path_9070" class="st6" d="M16.05,13.73c-0.2-0.6-0.43-1.18-0.69-1.75c-0.25-0.5-0.5-1.11-0.84-1.72
				c-0.34-0.61-0.71-1.25-1.07-1.9c-0.41-0.62-0.82-1.24-1.2-1.82s-0.81-1.08-1.14-1.53c-0.39-0.49-0.8-0.97-1.24-1.41
				c0.2,0.6,0.43,1.18,0.69,1.75c0.25,0.5,0.5,1.11,0.84,1.71l1.07,1.9c0.41,0.62,0.82,1.24,1.2,1.82c0.38,0.58,0.81,1.08,1.14,1.53
				C15.2,12.81,15.61,13.28,16.05,13.73z"/>
			<path id="Path_9071" class="st6" d="M8.97,12.61c0.51-0.31,1-0.64,1.47-1c0.41-0.33,0.91-0.69,1.4-1.14s1-0.92,1.51-1.39
				c0.48-0.51,0.96-1.02,1.41-1.5s0.81-0.98,1.15-1.39c0.37-0.47,0.7-0.96,1.01-1.46c-0.51,0.3-1,0.64-1.47,1
				c-0.41,0.34-0.92,0.69-1.4,1.14l-1.51,1.39c-0.48,0.51-0.96,1.02-1.41,1.5c-0.45,0.48-0.81,0.99-1.15,1.39
				C9.62,11.62,9.28,12.1,8.97,12.61z"/>
			<path id="Path_9072" class="st6" d="M9.23,8.3c0.37,0.14,0.75,0.26,1.14,0.36C11.2,8.85,12.05,9,12.91,9.1
				c0.86,0.08,1.72,0.1,2.58,0.07c0.4-0.02,0.79-0.06,1.19-0.13c-0.37-0.14-0.75-0.26-1.14-0.36c-0.84-0.2-1.68-0.35-2.54-0.44
				c-0.86-0.07-1.72-0.1-2.58-0.07C10.02,8.19,9.62,8.23,9.23,8.3z"/>
			<path id="Path_9073" class="st6" d="M12.66,13.41c0.13-0.48,0.25-0.97,0.33-1.47c0.17-0.88,0.29-2.06,0.39-3.25
				c0.04-1.19,0.08-2.37,0.01-3.27c-0.02-0.5-0.08-1-0.15-1.5c-0.14,0.48-0.25,0.97-0.33,1.47c-0.17,0.88-0.28,2.06-0.38,3.25
				c-0.04,1.19-0.07,2.37-0.01,3.27C12.54,12.41,12.59,12.91,12.66,13.41z"/>
			<ellipse id="Ellipse_476" class="st7" cx="13.06" cy="8.52" rx="2.21" ry="2.82"/>
		</g>
		<g id="Group_5928" transform="translate(252.967 116.75)">
			<path id="Path_9074" class="st6" d="M18.07,48.67c-0.2-0.6-0.43-1.18-0.69-1.75c-0.25-0.5-0.5-1.11-0.84-1.72
				s-0.71-1.25-1.07-1.9l-1.2-1.82c-0.38-0.58-0.81-1.08-1.14-1.53c-0.39-0.49-0.8-0.96-1.24-1.41c0.2,0.6,0.43,1.18,0.69,1.75
				c0.25,0.5,0.5,1.11,0.84,1.71l1.07,1.9l1.2,1.82c0.38,0.58,0.81,1.08,1.14,1.53C17.22,47.75,17.63,48.22,18.07,48.67z"/>
			<path id="Path_9075" class="st6" d="M11,47.55c0.51-0.31,1-0.64,1.47-1c0.41-0.34,0.92-0.69,1.4-1.14l1.51-1.39l1.41-1.5
				c0.45-0.48,0.81-0.99,1.15-1.39c0.37-0.47,0.71-0.96,1.02-1.47c-0.51,0.31-1,0.64-1.47,1c-0.4,0.33-0.92,0.69-1.4,1.14l-1.51,1.4
				c-0.48,0.51-0.96,1.02-1.41,1.5s-0.81,0.98-1.15,1.39C11.65,46.55,11.31,47.04,11,47.55z"/>
			<path id="Path_9076" class="st6" d="M11.25,43.23c0.37,0.14,0.75,0.26,1.14,0.36c1.67,0.42,3.4,0.59,5.12,0.5
				c0.4-0.02,0.79-0.06,1.19-0.13c-0.37-0.14-0.75-0.26-1.14-0.36c-0.84-0.2-1.69-0.34-2.54-0.44c-0.86-0.07-1.72-0.09-2.57-0.06
				C12.04,43.13,11.65,43.17,11.25,43.23z"/>
			<path id="Path_9077" class="st6" d="M14.69,48.34c0.14-0.48,0.25-0.97,0.33-1.47c0.17-0.88,0.29-2.06,0.39-3.25
				c0.04-1.19,0.07-2.38,0.01-3.27c-0.03-0.5-0.08-1-0.15-1.5c-0.14,0.48-0.25,0.97-0.33,1.47c-0.17,0.88-0.29,2.06-0.39,3.25
				c-0.04,1.19-0.07,2.38-0.01,3.27S14.69,48.34,14.69,48.34z"/>
			<ellipse id="Ellipse_477" class="st7" cx="15.09" cy="43.45" rx="2.21" ry="2.82"/>
		</g>
		<g id="Group_5929" transform="translate(258.943 60.083)">
			<path id="Path_9078" class="st6" d="M15.45,12.83c-0.17-0.59-0.37-1.16-0.6-1.73c-0.22-0.5-0.43-1.1-0.74-1.7
				c-0.31-0.6-0.63-1.24-0.96-1.89c-0.37-0.62-0.74-1.24-1.08-1.83c-0.34-0.58-0.74-1.09-1.03-1.54c-0.35-0.5-0.73-0.98-1.14-1.43
				c0.17,0.59,0.37,1.16,0.6,1.73c0.22,0.5,0.43,1.1,0.74,1.7s0.63,1.24,0.96,1.89l1.08,1.82c0.34,0.58,0.74,1.09,1.03,1.54
				C14.67,11.89,15.05,12.37,15.45,12.83z"/>
			<path id="Path_9079" class="st6" d="M9.12,11.71c0.47-0.32,0.91-0.66,1.34-1.03c0.37-0.34,0.83-0.7,1.26-1.15s0.9-0.92,1.36-1.4
				c0.42-0.51,0.85-1.02,1.25-1.5s0.71-0.97,1.02-1.37c0.32-0.46,0.62-0.94,0.88-1.44c-0.47,0.32-0.91,0.66-1.34,1.03
				c-0.37,0.34-0.83,0.7-1.26,1.15c-0.43,0.45-0.9,0.93-1.36,1.4c-0.43,0.51-0.85,1.02-1.25,1.5c-0.4,0.48-0.72,0.98-1.02,1.38
				C9.68,10.73,9.39,11.21,9.12,11.71z"/>
			<path id="Path_9080" class="st6" d="M9.35,7.4c0.33,0.13,0.67,0.25,1.02,0.34c1.49,0.4,3.04,0.58,4.58,0.51
				c0.36-0.02,0.71-0.05,1.06-0.11C15.68,7.99,15.34,7.88,15,7.79c-0.75-0.19-1.51-0.34-2.28-0.43c-0.77-0.07-1.54-0.1-2.31-0.07
				C10.05,7.3,9.7,7.33,9.35,7.4z"/>
			<path id="Path_9081" class="st6" d="M12.42,12.5c0,0,0.16-0.59,0.31-1.47c0.15-0.88,0.26-2.07,0.35-3.25
				c0.04-1.19,0.06-2.37,0-3.27c-0.06-0.89-0.15-1.49-0.15-1.49s-0.16,0.58-0.31,1.47c-0.16,0.88-0.26,2.06-0.35,3.25
				c-0.04,1.19-0.06,2.37,0,3.27S12.42,12.5,12.42,12.5z"/>
			<path id="Path_9082" class="st7" d="M12.78,10.43c1.1,0,1.98-1.26,1.98-2.82s-0.89-2.82-1.98-2.82S10.8,6.06,10.8,7.61
				S11.69,10.43,12.78,10.43z"/>
		</g>
		<g id="Group_5930" transform="translate(274.946 63.297)">
			<path id="Path_9083" class="st6" d="M16,12.95c-0.17-0.59-0.37-1.16-0.6-1.73c-0.22-0.5-0.44-1.1-0.74-1.7
				c-0.31-0.6-0.63-1.24-0.96-1.89l-1.08-1.83c-0.34-0.58-0.74-1.09-1.03-1.54c-0.35-0.5-0.73-0.98-1.14-1.43
				c0.17,0.59,0.37,1.16,0.6,1.73c0.22,0.5,0.43,1.1,0.74,1.7c0.31,0.6,0.63,1.24,0.95,1.89l1.08,1.83
				c0.34,0.58,0.74,1.09,1.03,1.54C15.22,12.01,15.6,12.49,16,12.95z"/>
			<path id="Path_9084" class="st6" d="M9.67,11.83c0.47-0.32,0.91-0.66,1.34-1.03c0.37-0.34,0.83-0.7,1.26-1.15l1.36-1.4l1.25-1.5
				c0.4-0.47,0.71-0.98,1.01-1.38c0.32-0.46,0.62-0.94,0.89-1.44c-0.47,0.32-0.91,0.66-1.34,1.03c-0.37,0.34-0.83,0.7-1.26,1.15
				c-0.43,0.45-0.9,0.92-1.36,1.4c-0.43,0.51-0.85,1.02-1.25,1.5c-0.4,0.48-0.72,0.97-1.02,1.37C10.23,10.85,9.94,11.33,9.67,11.83z
				"/>
			<path id="Path_9085" class="st6" d="M9.9,7.52c0.33,0.14,0.67,0.25,1.02,0.34c1.49,0.4,3.04,0.57,4.58,0.5
				c0.36-0.01,0.71-0.05,1.07-0.11C16.23,8.11,15.89,8,15.55,7.91c-1.49-0.4-3.04-0.57-4.58-0.5C10.61,7.42,10.25,7.46,9.9,7.52z"/>
			<path id="Path_9086" class="st6" d="M12.97,12.62c0,0,0.16-0.58,0.31-1.47c0.16-0.88,0.26-2.07,0.36-3.25
				c0.04-1.19,0.06-2.37,0-3.27s-0.15-1.49-0.15-1.49s-0.16,0.58-0.31,1.47c-0.16,0.88-0.26,2.07-0.35,3.25
				c-0.04,1.19-0.06,2.37,0,3.27C12.89,12.02,12.97,12.62,12.97,12.62z"/>
			<ellipse id="Ellipse_478" class="st7" cx="13.33" cy="7.73" rx="1.98" ry="2.82"/>
		</g>
		<g id="Group_5931" transform="translate(271.984 99.124)">
			<path id="Path_9087" class="st6" d="M15.9,14.27c-0.17-0.59-0.37-1.16-0.6-1.73c-0.22-0.5-0.44-1.1-0.74-1.7
				c-0.31-0.6-0.63-1.24-0.95-1.89c-0.37-0.62-0.74-1.24-1.08-1.83c-0.34-0.58-0.74-1.09-1.03-1.54c-0.35-0.5-0.73-0.98-1.14-1.43
				c0.17,0.59,0.37,1.16,0.6,1.73c0.22,0.5,0.43,1.1,0.74,1.7c0.31,0.6,0.63,1.24,0.96,1.89c0.37,0.62,0.74,1.24,1.08,1.83
				c0.34,0.58,0.74,1.09,1.03,1.54C15.12,13.34,15.5,13.82,15.9,14.27z"/>
			<path id="Path_9088" class="st6" d="M9.57,13.16c0.46-0.32,0.91-0.66,1.34-1.03c0.37-0.34,0.83-0.7,1.26-1.15l1.36-1.4
				c0.43-0.51,0.85-1.02,1.25-1.5C15.18,7.6,15.5,7.1,15.8,6.7c0.32-0.46,0.62-0.94,0.88-1.44c-0.47,0.32-0.91,0.66-1.34,1.03
				c-0.37,0.34-0.83,0.7-1.26,1.15l-1.36,1.4c-0.43,0.51-0.85,1.02-1.25,1.5c-0.4,0.48-0.71,0.97-1.01,1.37
				C10.13,12.18,9.84,12.66,9.57,13.16z"/>
			<path id="Path_9089" class="st6" d="M9.8,8.84c0.33,0.14,0.67,0.25,1.01,0.34c0.75,0.19,1.51,0.33,2.28,0.43
				c0.77,0.08,1.54,0.1,2.31,0.08c0.36-0.01,0.71-0.05,1.06-0.11c-0.33-0.14-0.67-0.25-1.02-0.34c-1.49-0.4-3.04-0.57-4.58-0.5
				C10.51,8.75,10.15,8.78,9.8,8.84z"/>
			<path id="Path_9090" class="st6" d="M12.87,13.95c0,0,0.16-0.58,0.31-1.47c0.15-0.89,0.26-2.06,0.35-3.25
				c0.04-1.18,0.06-2.37,0-3.27c-0.02-0.5-0.07-1-0.15-1.49c-0.13,0.48-0.23,0.97-0.31,1.47C12.91,6.82,12.81,8,12.72,9.19
				c-0.04,1.19-0.06,2.37,0,3.27S12.87,13.95,12.87,13.95z"/>
			<ellipse id="Ellipse_479" class="st7" cx="13.23" cy="9.06" rx="1.98" ry="2.82"/>
		</g>
		<g id="Group_5929_1_" transform="translate(258.943 60.083)">
			<path id="Path_9078_1_" class="st6" d="M12.58,72.73c-0.17-0.59-0.37-1.16-0.6-1.73c-0.22-0.5-0.43-1.1-0.74-1.7
				c-0.31-0.6-0.63-1.24-0.96-1.89c-0.37-0.62-0.74-1.24-1.08-1.83c-0.34-0.58-0.74-1.09-1.03-1.54c-0.35-0.5-0.73-0.98-1.14-1.43
				c0.17,0.59,0.37,1.16,0.6,1.73c0.22,0.5,0.43,1.1,0.74,1.7c0.31,0.6,0.63,1.24,0.96,1.89l1.08,1.82
				c0.34,0.58,0.74,1.09,1.03,1.54C11.8,71.79,12.18,72.27,12.58,72.73z"/>
			<path id="Path_9079_1_" class="st6" d="M6.25,71.61c0.47-0.32,0.91-0.66,1.34-1.03c0.37-0.34,0.83-0.7,1.26-1.15
				s0.9-0.92,1.36-1.4c0.42-0.51,0.85-1.02,1.25-1.5s0.71-0.97,1.02-1.37c0.32-0.46,0.62-0.94,0.88-1.44
				c-0.47,0.32-0.91,0.66-1.34,1.03c-0.37,0.34-0.83,0.7-1.26,1.15c-0.43,0.45-0.9,0.93-1.36,1.4c-0.43,0.51-0.85,1.02-1.25,1.5
				c-0.4,0.48-0.72,0.98-1.02,1.38C6.81,70.63,6.52,71.11,6.25,71.61z"/>
			<path id="Path_9080_1_" class="st6" d="M6.48,67.3c0.33,0.13,0.67,0.25,1.02,0.34c1.49,0.4,3.04,0.58,4.58,0.51
				c0.36-0.02,0.71-0.05,1.06-0.11c-0.33-0.14-0.67-0.25-1.01-0.34c-0.75-0.19-1.51-0.34-2.28-0.43c-0.77-0.07-1.54-0.1-2.31-0.07
				C7.18,67.19,6.83,67.23,6.48,67.3z"/>
			<path id="Path_9081_1_" class="st6" d="M9.55,72.4c0,0,0.16-0.59,0.31-1.47c0.15-0.88,0.26-2.07,0.35-3.25
				c0.04-1.19,0.06-2.37,0-3.27c-0.06-0.89-0.15-1.49-0.15-1.49S9.9,63.5,9.76,64.39c-0.16,0.88-0.26,2.06-0.35,3.25
				c-0.04,1.19-0.06,2.37,0,3.27C9.46,71.8,9.55,72.4,9.55,72.4z"/>
			<path id="Path_9082_1_" class="st7" d="M9.91,70.33c1.1,0,1.98-1.26,1.98-2.82c0-1.56-0.89-2.82-1.98-2.82s-1.98,1.27-1.98,2.82
				C7.93,69.07,8.82,70.33,9.91,70.33z"/>
		</g>
		<g id="Group_5931_1_" transform="translate(271.984 99.124)">
			<path id="Path_9087_1_" class="st6" d="M15.9,52.47c-0.17-0.59-0.37-1.16-0.6-1.73c-0.22-0.5-0.44-1.1-0.74-1.7
				c-0.31-0.6-0.63-1.24-0.95-1.89c-0.37-0.62-0.74-1.24-1.08-1.83c-0.34-0.58-0.74-1.09-1.03-1.54c-0.35-0.5-0.73-0.98-1.14-1.43
				c0.17,0.59,0.37,1.16,0.6,1.73c0.22,0.5,0.43,1.1,0.74,1.7c0.31,0.6,0.63,1.24,0.96,1.89c0.37,0.62,0.74,1.24,1.08,1.83
				c0.34,0.58,0.74,1.09,1.03,1.54C15.12,51.53,15.5,52.01,15.9,52.47z"/>
			<path id="Path_9088_1_" class="st6" d="M9.57,51.35c0.46-0.32,0.91-0.66,1.34-1.03c0.37-0.34,0.83-0.7,1.26-1.15l1.36-1.4
				c0.43-0.51,0.85-1.02,1.25-1.5c0.4-0.48,0.72-0.97,1.02-1.37c0.32-0.46,0.62-0.94,0.88-1.44c-0.47,0.32-0.91,0.66-1.34,1.03
				c-0.37,0.34-0.83,0.7-1.26,1.15l-1.36,1.4c-0.43,0.51-0.85,1.02-1.25,1.5s-0.71,0.97-1.01,1.37
				C10.13,50.37,9.84,50.85,9.57,51.35z"/>
			<path id="Path_9089_1_" class="st6" d="M9.8,47.04c0.33,0.14,0.67,0.25,1.01,0.34c0.75,0.19,1.51,0.33,2.28,0.43
				c0.77,0.08,1.54,0.1,2.31,0.08c0.36-0.01,0.71-0.05,1.06-0.11c-0.33-0.14-0.67-0.25-1.02-0.34c-1.49-0.4-3.04-0.57-4.58-0.5
				C10.51,46.94,10.15,46.98,9.8,47.04z"/>
			<path id="Path_9090_1_" class="st6" d="M12.87,52.14c0,0,0.16-0.58,0.31-1.47c0.15-0.89,0.26-2.06,0.35-3.25
				c0.04-1.18,0.06-2.37,0-3.27c-0.02-0.5-0.07-1-0.15-1.49c-0.13,0.48-0.23,0.97-0.31,1.47c-0.16,0.88-0.26,2.07-0.35,3.25
				c-0.04,1.19-0.06,2.37,0,3.27S12.87,52.14,12.87,52.14z"/>
			<ellipse id="Ellipse_479_1_" class="st7" cx="13.23" cy="47.25" rx="1.98" ry="2.82"/>
		</g>
		<g id="Group_5932" transform="translate(0 98.53)">
			<path id="Path_9091" class="st6" d="M8-2.63C7.57-2.18,7.15-1.71,6.76-1.22C6.43-0.76,6-0.27,5.63,0.31s-0.79,1.2-1.2,1.82
				l-1.07,1.9C3,4.64,2.76,5.25,2.51,5.75C2.25,6.32,2.02,6.9,1.82,7.5c0.44-0.45,0.85-0.92,1.24-1.41C3.39,5.64,3.82,5.14,4.2,4.56
				s0.79-1.2,1.2-1.82l1.07-1.9c0.34-0.6,0.59-1.22,0.84-1.71C7.57-1.45,7.81-2.03,8-2.63z"/>
			<path id="Path_9092" class="st6" d="M0.93-1.51C1.24-1,1.58-0.52,1.95-0.05c0.34,0.41,0.7,0.91,1.15,1.39s0.93,0.99,1.41,1.5
				l1.51,1.39c0.48,0.45,0.99,0.8,1.4,1.14c0.47,0.36,0.96,0.7,1.47,1c-0.31-0.51-0.65-1-1.02-1.47C7.53,4.51,7.17,4,6.72,3.53
				s-0.93-0.99-1.41-1.5C4.79,1.55,4.28,1.08,3.8,0.63s-0.99-0.8-1.4-1.14C1.93-0.87,1.44-1.2,0.93-1.51z"/>
			<path id="Path_9093" class="st6" d="M1.19,2.8c0.39,0.07,0.79,0.11,1.19,0.13C3.24,2.96,4.1,2.94,4.95,2.87
				c0.86-0.09,1.7-0.24,2.54-0.44c0.39-0.09,0.77-0.21,1.14-0.36C8.24,2,7.84,1.96,7.44,1.94C6.59,1.91,5.72,1.93,4.87,2.01
				c-0.85,0.1-1.7,0.24-2.54,0.44C1.94,2.54,1.56,2.66,1.19,2.8z"/>
			<path id="Path_9094" class="st6" d="M4.62-2.31c-0.08,0.5-0.13,1-0.15,1.5c-0.07,0.9-0.03,2.08,0.01,3.27
				c0.1,1.18,0.22,2.37,0.39,3.25C4.95,6.2,5.06,6.69,5.2,7.18c0.08-0.5,0.13-1,0.15-1.5c0.06-0.9,0.03-2.08-0.01-3.27
				c-0.1-1.18-0.22-2.37-0.39-3.25C4.87-1.33,4.76-1.82,4.62-2.31z"/>
			<ellipse id="Ellipse_480" class="st7" cx="5.02" cy="2.58" rx="2.21" ry="2.82"/>
		</g>
		<g id="Group_5933" transform="translate(0 58.849)">
			<path id="Path_9095" class="st6" d="M7.26,2.65C6.82,3.1,6.4,3.57,6.02,4.07C5.69,4.52,5.25,5.01,4.88,5.6s-0.79,1.2-1.2,1.82
				L2.6,9.32c-0.35,0.6-0.59,1.21-0.84,1.71c-0.26,0.57-0.49,1.16-0.69,1.75c0.44-0.45,0.85-0.92,1.24-1.41
				c0.33-0.45,0.76-0.95,1.14-1.53l1.2-1.82l1.07-1.9c0.34-0.61,0.59-1.22,0.84-1.71C6.82,3.84,7.06,3.25,7.26,2.65z"/>
			<path id="Path_9096" class="st6" d="M0.19,3.77c0.31,0.51,0.65,1,1.01,1.47c0.34,0.4,0.7,0.91,1.15,1.39l1.41,1.5l1.51,1.39
				c0.48,0.45,0.99,0.8,1.4,1.14c0.47,0.36,0.96,0.7,1.47,1c-0.31-0.51-0.65-1-1.02-1.47c-0.34-0.4-0.7-0.91-1.15-1.39l-1.41-1.5
				L3.05,5.91c-0.48-0.45-0.99-0.8-1.4-1.14C1.18,4.41,0.69,4.08,0.19,3.77z"/>
			<path id="Path_9097" class="st6" d="M0.44,8.08c0.39,0.07,0.79,0.11,1.19,0.13C2.49,8.24,3.35,8.22,4.2,8.15
				c0.85-0.1,1.7-0.24,2.54-0.44c0.39-0.1,0.77-0.21,1.14-0.36C7.49,7.29,7.1,7.24,6.7,7.22C5.84,7.19,4.98,7.22,4.12,7.29
				c-0.86,0.1-1.7,0.24-2.54,0.44C1.19,7.82,0.81,7.94,0.44,8.08z"/>
			<path id="Path_9098" class="st6" d="M3.87,2.98c-0.08,0.5-0.13,1-0.15,1.5c-0.07,0.9-0.03,2.09,0.01,3.27
				c0.1,1.18,0.22,2.37,0.39,3.25c0.09,0.49,0.2,0.98,0.33,1.47c0.08-0.5,0.13-1,0.15-1.5c0.06-0.9,0.03-2.09-0.01-3.27
				c-0.1-1.18-0.22-2.37-0.39-3.25C4.12,3.95,4.01,3.46,3.87,2.98z"/>
			<ellipse id="Ellipse_481" class="st7" cx="4.28" cy="7.87" rx="2.21" ry="2.82"/>
		</g>
		<g id="Group_5934" transform="translate(0 19.169)">
			<path id="Path_9099" class="st6" d="M7.26,1.18C6.82,1.63,6.4,2.1,6.02,2.59C5.69,3.04,5.25,3.54,4.88,4.12s-0.79,1.2-1.2,1.82
				L2.6,7.84c-0.35,0.6-0.59,1.22-0.84,1.71c-0.26,0.57-0.49,1.16-0.69,1.75c0.44-0.45,0.85-0.92,1.24-1.41
				c0.33-0.45,0.76-0.95,1.14-1.53s0.79-1.2,1.2-1.82c0.37-0.65,0.73-1.29,1.07-1.9c0.34-0.61,0.59-1.21,0.84-1.71
				C6.83,2.36,7.06,1.78,7.26,1.18z"/>
			<path id="Path_9100" class="st6" d="M0.19,2.3c0.31,0.51,0.65,1,1.01,1.47c0.34,0.4,0.7,0.91,1.15,1.39l1.41,1.5l1.51,1.39
				c0.48,0.45,0.99,0.8,1.4,1.14c0.47,0.36,0.96,0.7,1.47,1c-0.31-0.51-0.65-1-1.02-1.47c-0.34-0.4-0.7-0.91-1.15-1.39
				c-0.45-0.47-0.93-0.99-1.41-1.5L3.05,4.44C2.57,4,2.06,3.64,1.66,3.3C1.18,2.94,0.69,2.6,0.19,2.3z"/>
			<path id="Path_9101" class="st6" d="M0.44,6.61c0.39,0.07,0.79,0.11,1.19,0.12C2.49,6.77,3.35,6.75,4.2,6.67
				c0.86-0.09,1.7-0.24,2.54-0.44c0.39-0.09,0.77-0.21,1.14-0.36C7.49,5.81,7.1,5.77,6.7,5.75C5.84,5.72,4.98,5.74,4.12,5.82
				c-0.86,0.09-1.7,0.24-2.54,0.44C1.19,6.35,0.81,6.47,0.44,6.61z"/>
			<path id="Path_9102" class="st6" d="M3.87,1.5C3.8,2,3.75,2.5,3.72,3C3.66,3.9,3.69,5.08,3.73,6.27c0.1,1.18,0.22,2.37,0.39,3.25
				c0.09,0.49,0.2,0.98,0.33,1.47c0.08-0.5,0.13-1,0.15-1.5c0.06-0.9,0.03-2.08-0.01-3.27c-0.1-1.18-0.22-2.37-0.39-3.25
				C4.12,2.48,4.01,1.99,3.87,1.5z"/>
			<ellipse id="Ellipse_482" class="st7" cx="4.28" cy="6.39" rx="2.21" ry="2.82"/>
		</g>
		<g id="Group_5935" transform="translate(23.166 116.75)">
			<path id="Path_9103" class="st6" d="M2.36,40.1c-0.4,0.46-0.78,0.94-1.14,1.44c-0.3,0.45-0.69,0.96-1.03,1.54
				c-0.34,0.58-0.71,1.2-1.08,1.82c-0.33,0.65-0.65,1.29-0.96,1.9s-0.52,1.21-0.74,1.7c-0.23,0.57-0.43,1.15-0.6,1.73
				c0.4-0.46,0.78-0.94,1.14-1.44c0.3-0.45,0.69-0.96,1.03-1.54l1.08-1.82c0.33-0.65,0.65-1.29,0.96-1.9
				c0.31-0.6,0.52-1.21,0.74-1.7C1.99,41.27,2.19,40.69,2.36,40.1z"/>
			<path id="Path_9104" class="st6" d="M-3.97,41.22c0.27,0.5,0.56,0.98,0.89,1.44c0.3,0.4,0.61,0.9,1.02,1.38s0.83,0.99,1.25,1.5
				l1.36,1.4c0.43,0.45,0.9,0.81,1.26,1.15c0.43,0.37,0.88,0.71,1.34,1.03c-0.27-0.5-0.56-0.98-0.89-1.44
				c-0.3-0.4-0.61-0.9-1.02-1.38c-0.4-0.48-0.83-0.99-1.25-1.5l-1.36-1.4c-0.43-0.45-0.9-0.81-1.26-1.15
				C-3.06,41.88-3.51,41.54-3.97,41.22z"/>
			<path id="Path_9105" class="st6" d="M-3.74,45.53c0.35,0.06,0.71,0.1,1.06,0.11c0.77,0.02,1.54,0,2.31-0.07
				c0.77-0.09,1.53-0.24,2.28-0.43c0.35-0.09,0.69-0.21,1.02-0.35c-0.35-0.06-0.71-0.1-1.07-0.11c-0.77-0.03-1.54,0-2.31,0.07
				c-0.77,0.09-1.53,0.24-2.28,0.43C-3.07,45.29-3.41,45.4-3.74,45.53z"/>
			<path id="Path_9106" class="st6" d="M-0.67,40.43c0,0-0.1,0.6-0.15,1.49s-0.04,2.08,0,3.27c0.09,1.18,0.2,2.37,0.35,3.25
				c0.16,0.88,0.31,1.47,0.31,1.47s0.1-0.6,0.15-1.5s0.04-2.08,0-3.27c-0.09-1.18-0.2-2.37-0.35-3.25S-0.67,40.43-0.67,40.43z"/>
			<path id="Path_9107" class="st7" d="M-0.31,42.5c1.1,0,1.98,1.26,1.98,2.82c0,1.56-0.89,2.82-1.98,2.82s-1.98-1.26-1.98-2.82
				C-2.29,43.76-1.4,42.5-0.31,42.5z"/>
		</g>
		<g id="Group_5936" transform="translate(23.166 77.07)">
			<path id="Path_9108" class="st6" d="M4.19,1.76C3.78,2.21,3.4,2.69,3.05,3.19c-0.3,0.46-0.69,0.96-1.03,1.54S1.3,5.94,0.93,6.56
				C0.61,7.2,0.28,7.85-0.02,8.45s-0.52,1.21-0.74,1.7C-1,10.72-1.2,11.3-1.37,11.89c0.41-0.46,0.78-0.94,1.14-1.43
				C0.07,10,0.46,9.5,0.81,8.91s0.71-1.21,1.08-1.83c0.33-0.64,0.65-1.29,0.96-1.9s0.52-1.21,0.74-1.7
				C3.82,2.92,4.02,2.34,4.19,1.76z"/>
			<path id="Path_9109" class="st6" d="M-2.15,2.87c0.27,0.5,0.56,0.98,0.89,1.44c0.3,0.4,0.61,0.9,1.02,1.38
				c0.4,0.47,0.83,0.99,1.25,1.5c0.46,0.47,0.93,0.95,1.36,1.4s0.9,0.81,1.26,1.15c0.43,0.37,0.88,0.71,1.34,1.03
				c-0.27-0.5-0.56-0.98-0.89-1.44c-0.3-0.4-0.61-0.9-1.02-1.38l-1.25-1.5C1.36,5.98,0.89,5.5,0.46,5.05
				C0.03,4.61-0.44,4.24-0.8,3.9C-1.23,3.53-1.68,3.19-2.15,2.87z"/>
			<path id="Path_9110" class="st6" d="M-1.92,7.19c0.35,0.06,0.71,0.1,1.06,0.11c0.77,0.02,1.54,0,2.31-0.07
				C2.22,7.13,2.98,6.99,3.73,6.8c0.35-0.09,0.69-0.21,1.02-0.34C4.4,6.39,4.04,6.36,3.68,6.34c-1.54-0.07-3.09,0.1-4.58,0.5
				C-1.25,6.94-1.59,7.05-1.92,7.19z"/>
			<path id="Path_9111" class="st6" d="M1.16,2.08c0,0-0.1,0.6-0.15,1.49s-0.04,2.08,0,3.27c0.09,1.18,0.2,2.37,0.35,3.25
				s0.31,1.47,0.31,1.47s0.1-0.6,0.15-1.49c0.05-0.89,0.04-2.08,0-3.27c-0.09-1.18-0.2-2.37-0.35-3.25S1.16,2.08,1.16,2.08z"/>
			<ellipse id="Ellipse_483" class="st7" cx="1.51" cy="6.97" rx="1.98" ry="2.82"/>
		</g>
		<g id="Group_5933_1_" transform="translate(0 58.849)">
			<path id="Path_9095_1_" class="st6" d="M25.95,60.73c-0.44,0.45-0.85,0.92-1.24,1.42c-0.33,0.45-0.76,0.95-1.14,1.53
				c-0.38,0.58-0.79,1.2-1.2,1.82l-1.08,1.91c-0.35,0.6-0.59,1.21-0.84,1.71c-0.26,0.57-0.49,1.16-0.69,1.75
				c0.44-0.45,0.85-0.92,1.24-1.41c0.33-0.45,0.76-0.95,1.14-1.53l1.2-1.82l1.07-1.9c0.34-0.61,0.59-1.22,0.84-1.71
				C25.52,61.92,25.75,61.33,25.95,60.73z"/>
			<path id="Path_9096_1_" class="st6" d="M18.88,61.85c0.31,0.51,0.65,1,1.01,1.47c0.34,0.4,0.7,0.91,1.15,1.39l1.41,1.5l1.51,1.39
				c0.48,0.45,0.99,0.8,1.4,1.14c0.47,0.36,0.96,0.7,1.47,1c-0.31-0.51-0.65-1-1.02-1.47c-0.34-0.4-0.7-0.91-1.15-1.39l-1.41-1.5
				l-1.51-1.39c-0.48-0.45-0.99-0.8-1.4-1.14C19.88,62.49,19.39,62.16,18.88,61.85z"/>
			<path id="Path_9097_1_" class="st6" d="M19.14,66.16c0.39,0.07,0.79,0.11,1.19,0.13c0.86,0.03,1.72,0.01,2.57-0.06
				c0.85-0.1,1.7-0.24,2.54-0.44c0.39-0.1,0.77-0.21,1.14-0.36c-0.39-0.07-0.79-0.11-1.19-0.13c-0.86-0.03-1.72-0.01-2.58,0.07
				c-0.86,0.1-1.7,0.24-2.54,0.44C19.89,65.9,19.51,66.02,19.14,66.16z"/>
			<path id="Path_9098_1_" class="st6" d="M22.57,61.06c-0.08,0.5-0.13,1-0.15,1.5c-0.07,0.9-0.03,2.09,0.01,3.27
				c0.1,1.18,0.22,2.37,0.39,3.25c0.09,0.49,0.2,0.98,0.33,1.47c0.08-0.5,0.13-1,0.15-1.5c0.06-0.9,0.03-2.09-0.01-3.27
				c-0.1-1.18-0.22-2.37-0.39-3.25C22.81,62.03,22.7,61.54,22.57,61.06z"/>
			<ellipse id="Ellipse_481_1_" class="st7" cx="22.97" cy="65.95" rx="2.21" ry="2.82"/>
		</g>
		<g id="Group_5936_1_" transform="translate(23.166 77.07)">
			<path id="Path_9108_1_" class="st6" d="M-16.42,60.73c-0.4,0.46-0.78,0.94-1.14,1.43c-0.3,0.46-0.69,0.96-1.03,1.54
				c-0.34,0.58-0.71,1.2-1.08,1.83c-0.33,0.64-0.65,1.29-0.96,1.89c-0.31,0.61-0.52,1.21-0.74,1.7c-0.23,0.57-0.43,1.14-0.6,1.73
				c0.41-0.46,0.78-0.94,1.14-1.43c0.3-0.45,0.69-0.96,1.03-1.54c0.34-0.58,0.71-1.21,1.08-1.83c0.33-0.64,0.65-1.29,0.96-1.9
				c0.31-0.6,0.52-1.21,0.74-1.7C-16.79,61.89-16.59,61.31-16.42,60.73z"/>
			<path id="Path_9109_1_" class="st6" d="M-22.75,61.85c0.27,0.5,0.56,0.98,0.89,1.44c0.3,0.4,0.61,0.9,1.02,1.38
				c0.4,0.47,0.83,0.99,1.25,1.5c0.46,0.47,0.93,0.95,1.36,1.4s0.9,0.81,1.26,1.15c0.43,0.37,0.88,0.71,1.34,1.03
				c-0.27-0.5-0.56-0.98-0.89-1.44c-0.3-0.4-0.61-0.9-1.02-1.38l-1.25-1.5c-0.46-0.48-0.93-0.95-1.36-1.4
				c-0.43-0.45-0.9-0.81-1.26-1.15C-21.84,62.5-22.29,62.16-22.75,61.85z"/>
			<path id="Path_9110_1_" class="st6" d="M-22.53,66.16c0.35,0.06,0.71,0.1,1.06,0.11c0.77,0.02,1.54,0,2.31-0.07
				c0.77-0.09,1.53-0.24,2.28-0.43c0.35-0.09,0.69-0.21,1.02-0.34c-0.35-0.06-0.71-0.1-1.07-0.11c-1.54-0.07-3.09,0.1-4.58,0.5
				C-21.85,65.91-22.2,66.02-22.53,66.16z"/>
			<path id="Path_9111_1_" class="st6" d="M-19.45,61.05c0,0-0.1,0.6-0.15,1.49c-0.05,0.89-0.04,2.08,0,3.27
				c0.09,1.18,0.2,2.37,0.35,3.25c0.16,0.88,0.31,1.47,0.31,1.47s0.1-0.6,0.15-1.49c0.05-0.89,0.04-2.08,0-3.27
				c-0.09-1.18-0.2-2.37-0.35-3.25C-19.3,61.64-19.45,61.05-19.45,61.05z"/>
			<ellipse id="Ellipse_483_1_" class="st7" cx="-19.09" cy="65.94" rx="1.98" ry="2.82"/>
		</g>
		<g id="Group_5937" transform="translate(23.166 37.388)">
			<path id="Path_9112" class="st6" d="M5.23,1.33c-0.4,0.46-0.78,0.94-1.14,1.44C3.79,3.22,3.4,3.73,3.06,4.31S2.34,5.51,1.98,6.14
				C1.65,6.78,1.33,7.43,1.02,8.03S0.5,9.24,0.28,9.73c-0.23,0.57-0.43,1.14-0.6,1.73c0.41-0.46,0.79-0.94,1.14-1.43
				c0.3-0.45,0.69-0.96,1.03-1.54l1.08-1.83c0.33-0.64,0.65-1.29,0.96-1.89s0.52-1.21,0.74-1.7C4.86,2.5,5.06,1.92,5.23,1.33z"/>
			<path id="Path_9113" class="st6" d="M-1.1,2.45c0.27,0.5,0.56,0.98,0.89,1.44c0.3,0.4,0.61,0.9,1.02,1.37
				c0.4,0.47,0.83,0.99,1.25,1.5l1.36,1.4c0.43,0.45,0.9,0.81,1.26,1.15c0.43,0.37,0.88,0.71,1.34,1.03
				C5.75,9.85,5.46,9.37,5.14,8.9C4.83,8.5,4.52,8,4.12,7.53s-0.83-0.99-1.25-1.5C2.4,5.56,1.93,5.08,1.5,4.63
				c-0.43-0.45-0.9-0.81-1.26-1.15C-0.19,3.11-0.64,2.77-1.1,2.45z"/>
			<path id="Path_9114" class="st6" d="M-0.87,6.76c0.35,0.06,0.71,0.1,1.06,0.11c1.54,0.07,3.09-0.1,4.58-0.5
				c0.35-0.09,0.69-0.21,1.02-0.34c-0.35-0.06-0.71-0.1-1.07-0.11c-1.54-0.07-3.09,0.1-4.58,0.5C-0.2,6.51-0.54,6.63-0.87,6.76z"/>
			<path id="Path_9115" class="st6" d="M2.2,1.66c0,0-0.1,0.6-0.15,1.49s-0.04,2.08,0,3.27c0.09,1.18,0.2,2.37,0.35,3.25
				s0.31,1.47,0.31,1.47s0.1-0.6,0.15-1.49s0.04-2.08,0-3.27c-0.09-1.18-0.2-2.37-0.35-3.25C2.35,2.25,2.2,1.66,2.2,1.66z"/>
			<ellipse id="Ellipse_484" class="st7" cx="2.56" cy="6.55" rx="1.98" ry="2.82"/>
		</g>
	</g>
	<g id="Group_5939" transform="translate(40.532 46.432)">
		<path id="Path_9116" class="st8" d="M1.4,46.03c0.02,4.37,0.46,86.65,1.86,87.27h0.02l49.01-65.5L4.11,3.12L4.07,3.09
			C0.5,5.64,1.81,15.8,1.69,20.11C1.46,28.75,1.37,37.39,1.4,46.03z"/>
		<path id="Path_9117" class="st9" d="M3.29,133.3c16.7,1.02,33.52,1.56,50.01,1.56c5.46,0,10.97-0.06,16.47-0.17
			c11.15-0.23,22.37-0.7,33.56-1.38c1.15-16.85,1.77-69.82,1.86-86.74c0.05-8.47-0.05-16.9-0.28-25.37
			c-0.09-4.22-0.25-8.44-0.44-12.65c-0.11-2.93-0.04-5.21-1.43-5.97L52.29,67.8L3.29,133.3z"/>
		<path id="Path_9118" class="st10" d="M3.29,133.3c16.7,1.02,33.52,1.56,50.01,1.56c5.46,0,10.97-0.06,16.47-0.17l33.56-1.38
			L52.3,67.8L3.29,133.3z"/>
		<path id="Path_9119" class="st11" d="M4.07,3.09l0.05,0.03L52.29,67.8l50.76-65.23c-0.81-0.38-1.73-0.43-2.58-0.15
			c-1.38,0.29-2.99,4.51-4.42,4.46C94.6,6.82,93.45,2.45,92,2.22c-2.67-0.38-5.25,1.23-7.93,1.56c-3.85,0.44-7.65-1.82-11.47-1.29
			c-1.15,0.15-2.26,2.31-3.41,2.2c-1.31-0.12-2.58-2.64-3.89-2.75c-1.96-0.18-3.83,1.17-5.78,1.29c-2.6,0.21-5.07-1.73-7.67-1.47
			c-2.03,0.21-4.81,4.19-6.84,4.4c-2.69,0.29-4.31-4.22-7.02-4.22c-2.28,0-4.42,1.43-6.7,1.43c-2.4,0-4.68-1.61-7.07-1.47
			c-1.96,0.15-2.74,3.52-4.7,3.63c-1.24,0.09-3.5-2.34-4.75-2.64c-3.08-0.76-6.29-0.87-9.42-0.32C4.88,2.64,4.45,2.82,4.07,3.09z"/>
	</g>
	<g id="Group_5940" transform="translate(150.324 46.432)">
		<path id="Path_9120" class="st8" d="M5.18,46.03c0.02,4.37,0.46,86.65,1.86,87.27h0.02l51.01-68.51L7.9,3.12L7.85,3.09
			C4.28,5.64,5.6,15.8,5.48,20.11C5.25,28.75,5.15,37.39,5.18,46.03z"/>
		<path id="Path_9121" class="st9" d="M7.07,133.3c16.7,1.02,33.52,1.56,50.01,1.56c5.46,0,10.97-0.06,16.47-0.17
			c11.15-0.23,22.37-0.7,33.56-1.38c1.15-16.85,1.77-69.82,1.87-86.74c0.05-8.47-0.05-16.9-0.28-25.37
			c-0.09-4.22-0.25-8.44-0.44-12.65c-0.11-2.93-0.05-5.21-1.43-5.97L58.08,64.8L7.07,133.3z"/>
		<path id="Path_9122" class="st10" d="M7.07,133.3c16.7,1.02,33.52,1.56,50.01,1.56c5.46,0,10.97-0.06,16.47-0.17l33.56-1.38
			L58.08,64.8L7.07,133.3z"/>
		<path id="Path_9123" class="st11" d="M7.86,3.09L7.9,3.12l50.18,61.67l48.76-62.22c-0.81-0.38-1.73-0.43-2.58-0.15
			c-1.38,0.29-3,4.51-4.42,4.46c-1.45-0.06-2.6-4.42-4.06-4.66c-2.67-0.38-5.25,1.23-7.92,1.56c-3.85,0.44-7.65-1.82-11.47-1.29
			c-1.15,0.15-2.26,2.31-3.41,2.2c-1.31-0.12-2.58-2.64-3.89-2.75c-1.96-0.18-3.83,1.17-5.78,1.29c-2.6,0.21-5.07-1.73-7.67-1.47
			c-2.03,0.21-4.81,4.19-6.84,4.4c-2.69,0.29-4.31-4.22-7.02-4.22c-2.28,0-4.42,1.43-6.71,1.43c-2.4,0-4.67-1.61-7.07-1.47
			c-1.96,0.15-2.74,3.52-4.7,3.63c-1.24,0.09-3.5-2.34-4.75-2.64c-3.08-0.76-6.29-0.87-9.42-0.32C8.66,2.64,8.23,2.82,7.86,3.09z"/>
	</g>
	<path id="Path_9124" class="st12" d="M35.37,40.47L17.92,22.39c-1.89,3.58-2.72,7.77-5.49,10.86c-0.76,0.7-1.41,1.5-1.94,2.39
		c-0.41,1.05-0.56,2.18-0.44,3.3c0.14,4.31,0.54,8.62,1.19,12.88c0.41,1.53,0.37,3.14-0.1,4.65c-0.47,1.12-1.37,1.97-1.94,3.04
		c-1.68,3.27,0.49,7.22,0,10.86c-0.31,2.31-1.71,4.47-1.53,6.78c0.26,2.78,2.74,5.27,2.1,8c-0.28,1.22-1.19,2.23-1.58,3.43
		c-0.29,1.38-0.28,2.81,0.05,4.18c0.62,4.46,0.86,8.96,0.7,13.46c-0.15,5.55-0.68,11.07-1.58,16.55c-0.59,2.65-0.8,41.46-0.62,44.17
		c0.28,2.1,1.06,4.13,1.06,6.26c-0.18,1.92-0.51,3.82-0.98,5.69c-0.39,2.87-0.31,5.78,0.23,8.62h24.32v-0.03
		c0.28-0.68,0.42-1.42,0.41-2.16c0.13-3.09,0.28-6.18,0.44-9.27c0.21-4.62,0.44-45.31,0.65-49.91c0.34-3.98,0.23-7.99-0.31-11.95
		c-0.54-3.07-1.63-6.1-1.45-9.2c0.08-1.45,0.44-2.86,0.65-4.29c1.4-9.72-3.86-19.61-1.76-29.17c0.96-4.36,3.39-8.42,3.31-12.88
		c-0.05-3.04-1.32-5.92-1.73-8.94C31.05,46.16,32.51,42.61,35.37,40.47z"/>
	<path id="Path_9125" class="st12" d="M292.1,82.29c0.52-3.12,0.08-6.33-1.27-9.2c-0.8-1.71-1.97-3.38-1.97-5.27
		c0-1.84,0.67-3.64,0.8-5.48c0.31-3.47,0.26-6.96-0.13-10.42c-0.41-3.33,0.41-6.31-0.85-9.58c-0.59-1.27-1.11-2.57-1.55-3.9
		c-0.88-3.43,0.39-7.46-1.61-10.39c-1.3-1.87-3.47-2.62-5.72-3.3l-16.6,17.17c0.84,0.48,1.59,1.12,2.2,1.87
		c2.28,2.88,1.81,6.96,1.55,10.65c-0.26,3.57-0.21,7.15,0.16,10.7c0.34,2.2,0.41,4.43,0.18,6.65c-0.23,1.3-0.67,2.57-0.78,3.87
		c0.01,1.79,0.17,3.59,0.49,5.35c0.11,2.07-0.01,4.14-0.34,6.18l-1.55,11.85c-0.25,1.57-0.37,3.16-0.34,4.75
		c0.17,2.01,0.53,4,1.06,5.95c1.43,6.32,1.86,12.82,1.3,19.27c-0.44,5.38-1.61,46.79-1.55,52.2c-0.1,1.87,0.32,3.73,1.22,5.38
		c0.14,0.24,0.29,0.46,0.47,0.68v0.03c0.56,0.14,1.13,0.21,1.71,0.21h20.33c0.1-0.21,0.18-0.41,0.29-0.62
		c1.11-2.44,2.23-4.96,2.25-7.66c0-2.57-1.03-5.12-0.75-7.66c0.26-2.36,1.61-40.61,1.66-42.97c0.03-2.28-1.14-4.36-1.73-6.55
		c-1.34-4.86,0.13-10.08-0.44-15.09c-0.47-4.1-2.28-8.08-2.02-12.21C288.81,90.42,291.35,86.55,292.1,82.29z"/>
</g>
</svg>
