<?xml version="1.0" encoding="utf-8"?>
<!-- Generator: Adobe Illustrator 24.2.3, SVG Export Plug-In . SVG Version: 6.00 Build 0)  -->
<svg version="1.1" id="Layer_1" xmlns="http://www.w3.org/2000/svg" xmlns:xlink="http://www.w3.org/1999/xlink" x="0px" y="0px"
	 viewBox="0 0 300 200" style="enable-background:new 0 0 300 200;" xml:space="preserve">
<style type="text/css">
	.st0{clip-path:url(#SVGID_2_);}
	.st1{clip-path:url(#SVGID_4_);}
	.st2{opacity:0.32;fill:#D8AB6B;enable-background:new    ;}
	.st3{opacity:0.5;}
	.st4{clip-path:url(#SVGID_6_);}
	.st5{clip-path:url(#SVGID_8_);}
	.st6{fill:url(#Rectangle_24689_2_);}
	.st7{fill:url(#Rectangle_24690_2_);}
	.st8{fill:url(#Rectangle_24691_2_);}
	.st9{fill:none;}
	.st10{opacity:0.1;}
	.st11{opacity:0.32;fill:#B96A30;enable-background:new    ;}
</style>
<g>
	<g>
		<g>
			<g>
				<defs>
					<rect id="SVGID_1_" x="-2008" y="-1903.47" width="300" height="99.08"/>
				</defs>
				<clipPath id="SVGID_2_">
					<use xlink:href="#SVGID_1_"  style="overflow:visible;"/>
				</clipPath>
				<g id="Mask_Group_20_3_" transform="translate(-1004 -892)" class="st0">
					<g>
						<g>
							<g>
								<defs>
									<rect id="SVGID_3_" x="976" y="645.45" width="300" height="111.09"/>
								</defs>
								<clipPath id="SVGID_4_">
									<use xlink:href="#SVGID_3_"  style="overflow:visible;"/>
								</clipPath>
								<g id="Mask_Group_11_3_" transform="translate(-14 -60.668)" class="st1">
									<g id="Group_6236_3_" transform="translate(1011.271 912.856)">
										<path id="Path_9700_4_" class="st2" d="M174.37,31.97c-6.94-2.01-14.02-3.25-21.16-3.7c-12.89-0.61-25.71,2.55-38.64,2.55
											c-18.08,0-34.98,4.6-53.4,2.67c-9.97-1.05-19.92,0.85-29.72-1.5c-5.87-1.41-12.09-2.57-18.18-2.2
											c-2.95,0.18-8.15-0.05-12.35,0.62v4.17c6.04,1.74,12.7,1.38,18.98,2.9c9.47,2.29,19.2,6.25,28.93,6.61
											c13.04,0.48,25.68-0.04,38.41-2.69c11.03-2.3,22.09-1.89,33.16-4.07c9.09-1.79,18.79-0.9,28.08-0.9
											c6.78,0,28.04-1.83,31.64,5.52c-3.4,3.91-9.15,5.09-13.15,8.26c-3.17,2.48-6.15,5.28-8.9,8.37h6.2
											c10.04-7.54,19.23-16.51,30.73-21.63C188.71,34.54,181.04,33.77,174.37,31.97z"/>
										<path id="Path_9701_4_" class="st2" d="M284.91,33.87c-10.19,0.49-20.54,0.53-30.83,0.52c-10.3-0.01-20.38,0.7-30.64-0.54
											c-6.85-0.83-20.08-3.84-26.46-0.37c2.36,4.01,9.64,7.85,13.18,11.12c6.74,6.23,15.46,12.32,24.2,13.79
											c0.48,0.08,0.87,0.14,1.22,0.19h1.54c0.91-0.23,1.34-1.09,2.92-3.11c-6.69-5.61-27.44-7.55-29.41-16.91
											c18.5-1.09,37.65,0.71,56.18,1.45c11.79,0.48,23.67,0,35.48,0c2.35,0,6.58,0.34,10.82,0.13v-7.37
											c-3.48,0.58-6.99,0.95-10.51,1.11C296.73,33.86,290.78,33.58,284.91,33.87z"/>
										<path id="Path_9717_4_" class="st2" d="M161.63,41.1c-3.51-0.16-7.02-0.02-10.51,0.43c-11.69,1.37-23.85,1.02-35.66,1.02
											c-15,0-29.34,4.65-44.15,6.24c-12.19,1.3-23.95,1.96-36.05-0.74c-11.4-2.54-22.6-6.81-34.34-7.47v4.88
											c2.75,1.36,5.66,2.37,7.52,3.11c9.39,3.75,19.41,8.19,29.51,10h25.83c7.84-0.58,15.64-1.67,23.38-3.25
											c9.96-2.1,19.6-2.99,29.73-4.11c5.3-0.59,10.8-0.02,16.07-0.98c4.94-0.9,10.48-3.97,15.49-2.98
											c-3.16,3.39-10.37,6.28-11.71,11.32h7.44c2.24-0.46,4.34-1.62,6.06-3.37C152.91,52.55,162.11,45.3,161.63,41.1z"/>
										<path id="Path_9718_4_" class="st2" d="M198.15,44.59c-6.11-0.49-12.53,6.68-14.4,13.99h6.49
											c0.78-2.11,1.32-4.42,3.14-5.43c3.48-1.95,7.3,2.39,10.15,4.22c0.6,0.38,1.21,0.79,1.83,1.21h16.53
											c-1.67-1.56-3.42-2.99-5.25-4.27C211.99,50.81,203.72,45.04,198.15,44.59z"/>
										<path id="Path_9719_4_" class="st2" d="M274.34,45.62c-8.26-0.45-16.39,1.03-24.68,0.51c-3.77-0.24-7.26-1.15-11-1.53
											c-3-0.3-6.19,0.61-9.02-0.56c5.45,3,11.37,4.14,16.63,7.85c3.31,2.33,5.67,4.34,9.56,5.08c9.46,1.8,20,0.88,29.7,0.4
											c5.94-0.3,11.76,0.49,17.56,1.21h10.01V45.72c-3.92,0.56-7.86,0.86-11.81,0.92C292.19,46.64,283.33,46.11,274.34,45.62z"
											/>
									</g>
								</g>
							</g>
						</g>
					</g>
				</g>
			</g>
		</g>
	</g>
	<g class="st3">
		<g>
			<g>
				<defs>
					<rect id="SVGID_5_" x="-2008" y="-1904.45" width="300" height="100.07"/>
				</defs>
				<clipPath id="SVGID_6_">
					<use xlink:href="#SVGID_5_"  style="overflow:visible;"/>
				</clipPath>
				<g id="Mask_Group_20_2_" transform="translate(-1004 -892)" class="st4">
					<g>
						<g>
							<g>
								<defs>
									<rect id="SVGID_7_" x="976" y="643.41" width="300" height="106.87"/>
								</defs>
								<clipPath id="SVGID_8_">
									<use xlink:href="#SVGID_7_"  style="overflow:visible;"/>
								</clipPath>
								<g id="Mask_Group_11_2_" transform="translate(-14 -60.668)" class="st5">
									<g id="Group_6236_2_" transform="translate(1011.271 912.856)">
										<path id="Path_9700_3_" class="st2" d="M174.37,25.47c-6.94-1.94-14.02-3.13-21.16-3.56
											c-12.89-0.58-25.71,2.45-38.64,2.46c-18.08,0-34.98,4.43-53.4,2.57c-9.97-1.01-19.92,0.82-29.72-1.45
											c-5.87-1.36-12.09-2.47-18.18-2.11c-2.95,0.17-8.15-0.05-12.35,0.6V28c6.04,1.67,12.7,1.33,18.98,2.79
											c9.47,2.2,19.2,6.01,28.93,6.36c13.04,0.46,25.68-0.04,38.41-2.59c11.03-2.21,22.09-1.81,33.16-3.91
											c9.09-1.72,18.79-0.86,28.08-0.86c6.78,0,28.04-1.76,31.64,5.31c-3.4,3.77-9.15,4.89-13.15,7.94
											c-3.17,2.38-6.15,5.08-8.9,8.05h6.2c10.04-7.25,19.23-15.88,30.73-20.81C188.71,27.95,181.04,27.21,174.37,25.47z"/>
										<path id="Path_9701_3_" class="st2" d="M284.91,27.3c-10.19,0.48-20.54,0.51-30.83,0.5c-10.3-0.01-20.38,0.67-30.64-0.52
											c-6.85-0.8-20.08-3.69-26.46-0.35c2.36,3.86,9.64,7.55,13.18,10.7c6.74,5.99,15.46,11.85,24.2,13.26
											c0.48,0.08,0.87,0.14,1.22,0.18h1.54c0.91-0.23,1.34-1.05,2.92-2.99c-6.69-5.4-27.44-7.26-29.41-16.27
											c18.5-1.05,37.65,0.68,56.18,1.4c11.79,0.46,23.67,0,35.48,0c2.35,0,6.58,0.33,10.82,0.12v-7.09
											c-3.48,0.55-6.99,0.91-10.51,1.07C296.73,27.29,290.78,27.02,284.91,27.3z"/>
										<path id="Path_9717_3_" class="st2" d="M161.63,34.26c-3.51-0.16-7.02-0.02-10.51,0.42c-11.69,1.32-23.85,0.98-35.66,0.98
											c-15,0-29.34,4.48-44.15,6c-12.19,1.26-23.95,1.88-36.05-0.71c-11.4-2.44-22.6-6.55-34.34-7.19v4.69
											c2.75,1.31,5.66,2.28,7.52,2.99c9.39,3.6,19.41,7.88,29.51,9.62h25.83c7.84-0.56,15.64-1.6,23.38-3.13
											c9.96-2.02,19.6-2.88,29.73-3.95c5.3-0.56,10.8-0.02,16.07-0.94c4.94-0.86,10.48-3.82,15.49-2.86
											c-3.16,3.26-10.37,6.04-11.71,10.89h7.44c2.24-0.44,4.34-1.56,6.06-3.24C152.91,45.27,162.11,38.3,161.63,34.26z"/>
										<path id="Path_9718_3_" class="st2" d="M198.15,37.61c-6.11-0.48-12.53,6.43-14.4,13.46h6.49
											c0.78-2.03,1.32-4.25,3.14-5.23c3.48-1.87,7.3,2.3,10.15,4.06c0.6,0.37,1.21,0.76,1.83,1.17h16.53
											c-1.67-1.5-3.42-2.87-5.25-4.11C211.99,43.6,203.72,38.05,198.15,37.61z"/>
										<path id="Path_9719_3_" class="st2" d="M274.34,38.61c-8.26-0.43-16.39,0.99-24.68,0.49c-3.77-0.23-7.26-1.11-11-1.47
											c-3-0.29-6.19,0.58-9.02-0.54c5.45,2.88,11.37,3.98,16.63,7.55c3.31,2.24,5.67,4.18,9.56,4.89
											c9.46,1.74,20,0.85,29.7,0.38c5.94-0.29,11.76,0.47,17.56,1.17h10.01V38.7c-3.92,0.54-7.86,0.83-11.81,0.89
											C292.19,39.59,283.33,39.08,274.34,38.61z"/>
									</g>
								</g>
							</g>
						</g>
					</g>
				</g>
			</g>
		</g>
	</g>
</g>
<linearGradient id="Rectangle_24689_2_" gradientUnits="userSpaceOnUse" x1="61.5443" y1="1097.4755" x2="60.63" y2="1097.4791" gradientTransform="matrix(297 0 0 -130 -17992.9141 142772.0469)">
	<stop  offset="0" style="stop-color:#7E3619"/>
	<stop  offset="0.033" style="stop-color:#9E4F24"/>
	<stop  offset="0.965" style="stop-color:#AC5A26"/>
	<stop  offset="1" style="stop-color:#7D3519"/>
</linearGradient>
<rect id="Rectangle_24689_1_" x="14.59" class="st6" width="270.82" height="200"/>
<linearGradient id="Rectangle_24690_2_" gradientUnits="userSpaceOnUse" x1="96.0419" y1="1097.4773" x2="95.0388" y2="1097.4773" gradientTransform="matrix(16 0 0 -130 -1522.0801 142772.0469)">
	<stop  offset="0" style="stop-color:#DB6A27"/>
	<stop  offset="0.144" style="stop-color:#C05527"/>
	<stop  offset="0.856" style="stop-color:#AF4925"/>
	<stop  offset="0.858" style="stop-color:#F27121"/>
	<stop  offset="1" style="stop-color:#EDAD82"/>
</linearGradient>
<rect id="Rectangle_24690_1_" class="st7" width="14.59" height="200"/>
<linearGradient id="Rectangle_24691_2_" gradientUnits="userSpaceOnUse" x1="93.4056" y1="1097.4773" x2="94.3175" y2="1097.4773" gradientTransform="matrix(16 0 0 -130 -1209.0801 142772.0469)">
	<stop  offset="0" style="stop-color:#DB6A27"/>
	<stop  offset="0.144" style="stop-color:#C05527"/>
	<stop  offset="0.858" style="stop-color:#F27121"/>
	<stop  offset="0.858" style="stop-color:#AF4925"/>
	<stop  offset="1" style="stop-color:#EDAD82"/>
</linearGradient>
<rect id="Rectangle_24691_1_" x="285.41" class="st8" width="14.59" height="200"/>
<path class="st9" d="M285.41,200V0H300v200H285.41z M14.59,200H0V0h285.41v200H14.59z"/>
<g id="Mask_Group_12_1_" class="st10">
	<g id="Group_6238_1_" transform="translate(1518.271 922.856)">
		<path id="Path_9688_2_" class="st2" d="M-1274.49-761.13c-19.89,2.31-99.45-7.49-110.87-6.92s-67.29,11.5-79.98,8.06
			c-9.04-2.45-37.33-3.45-52.92-3.82v1.63c21.34,3.57,68.62,10.75,79.82,6.29c14.57-5.82,71.28-4.92,88.21-3.35
			s71.52,7.43,99.45,3.35c10.8-1.64,21.72-1.53,32.5,0.29v-3.68C-1234.55-760.74-1261.21-762.68-1274.49-761.13z"/>
		<path id="Path_9689_2_" class="st2" d="M-1312.16-776.7c-22.43,0.58-76.6-6.35-88.87-4.61c-12.27,1.73-63.47,10.18-74.9,7.68
			c-8.08-1.76-30.13-2.56-42.34-2.89v1.51c16.66,3.29,53.06,10.14,63.07,9.26c13.12-1.16,68.13-10.38,81.25-8.07
			c13.11,2.31,83.37,6.87,101.56,5.74c12.61-0.79,39.05,0.67,54.09,1.65v-5.55C-1241.55-773.6-1294.81-777.15-1312.16-776.7z"/>
		<path id="Path_9690_2_" class="st2" d="M-1348.55-791.69c-13.54,1.16-52.9-1.16-87.6,2.88c-26.47,3.08-65.2,2.13-82.12,1.51v1.4
			c16.62,3.35,52.95,10.1,63.92,7.46c14.39-3.46,70.67-14.41,84.63-9.22s76.6,4.05,90.56,6.06c10.47,1.5,43.3,4.5,60.86,4.68v-6.32
			c-16.76-0.42-47.11-1.29-51.97-2.12C-1277.03-786.5-1335.01-792.85-1348.55-791.69z"/>
		<path id="Path_9691_2_" class="st2" d="M-1284.09-844.47c-8.66-4.38-44.63-10.13-53.77-11.82c-10.35-1.91-20.44-3.97-30.87-5.16
			c-23.2-2.65-46.14,2.56-69.11,4.01c-6.27,0.39-12.33,1.93-18.62,2.33c-4.75,0.26-9.45,1.42-13.96,3.46
			c9.14,4.63,20.62,6.06,30.47,6.79c11.04,0.82,21.61,3.54,32.48,4.87c19.99,2.44,41.84,2.46,61.47-1.88
			c6.79-1.5,13.96-1.79,20.76-3.42C-1322.24-846-1285.08-841.07-1284.09-844.47z M-1391.29-844.16c-9.59-0.64-19.19-0.58-28.7-2.91
			c-9.85-2.42-21.39-4.03-31.4-3.43c6.35,0,14.81-0.96,20.73-2.99c7.94-2.73,14.53-0.24,22.41,0.7c9.27,1.1,17.32-3.62,26.38-4.05
			c18.92-0.88,38.04,3.07,56.56,5.89c-5.26,2.74-13.4,3.05-19.34,4.61C-1359.37-842.46-1375.79-843.12-1391.29-844.16
			L-1391.29-844.16z"/>
		<path id="Path_9692_2_" class="st11" d="M-1315.56-849.92c-18.51-2.82-47.39-7.79-66.31-6.91c-9.06,0.42-17.11,5.15-26.38,4.05
			c-7.88-0.94-14.47-3.43-22.41-0.7c-5.93,2.05-14.38,2.99-20.73,2.99c10-0.6,21.55,1.01,31.4,3.43c9.5,2.33,19.1,2.27,28.7,2.91
			c15.51,1.04,31.92,1.7,46.64-2.18C-1338.71-847.9-1320.83-847.19-1315.56-849.92z M-1382.41-847.03
			c-6.52,0.61-13.05,0.57-19.56-0.13c-3.8-0.5-7.95-1.8-12.06-2.79c-3.3,0.02-6.6-0.36-9.86-1.13c3.3-0.16,6.62,0.21,9.86,1.12
			c4.4,0.13,8.98,0.03,11.72,0.03c5.51,0,10.88,0,16.08-1.14c6.21-1.36,11.58-3.31,18.18-2.89c6.61,0.42,18.52-1,24.11,4.21
			C-1354.87-842.36-1370.29-847.88-1382.41-847.03L-1382.41-847.03z"/>
		<path id="Path_9692_1_" class="st11" d="M-1377.95-732.75c-18.51-2.82-47.39-7.79-66.31-6.91c-9.06,0.42-17.11,5.15-26.38,4.05
			c-7.88-0.94-14.47-3.43-22.41-0.7c-5.93,2.05-14.38,2.99-20.73,2.99c10-0.6,21.55,1.01,31.4,3.43c9.5,2.33,19.1,2.27,28.7,2.91
			c15.51,1.04,31.92,1.7,46.64-2.18C-1401.11-730.73-1383.22-730.01-1377.95-732.75z M-1444.8-729.86
			c-6.52,0.61-13.05,0.57-19.56-0.13c-3.8-0.5-7.95-1.8-12.06-2.79c-3.3,0.02-6.6-0.36-9.86-1.13c3.3-0.16,6.62,0.21,9.86,1.12
			c4.4,0.13,8.98,0.03,11.72,0.03c5.51,0,10.88,0,16.08-1.14c6.21-1.36,11.58-3.31,18.18-2.89c6.61,0.42,18.52-1,24.11,4.21
			C-1417.27-725.19-1432.69-730.71-1444.8-729.86L-1444.8-729.86z"/>
		<path id="Path_9693_2_" class="st2" d="M-1423.88-851.07c3.26,0.77,6.55,1.15,9.86,1.12
			C-1417.26-850.86-1420.57-851.24-1423.88-851.07z"/>
		<path id="Path_9694_2_" class="st2" d="M-1343.92-849.75c-5.59-5.2-17.49-3.8-24.11-4.21c-6.62-0.41-11.98,1.53-18.18,2.89
			c-5.21,1.14-10.58,1.14-16.08,1.14c-2.74,0-7.33,0.1-11.72-0.03c4.1,0.99,8.25,2.29,12.06,2.79c6.51,0.7,13.05,0.74,19.56,0.13
			C-1370.29-847.88-1354.87-842.36-1343.92-849.75z"/>
		<path id="Path_9695_2_" class="st2" d="M-1508.09-810.17c7.29,1.43,14.44,4.13,21.7,5.2c5.42,0.97,10.91,1.17,16.36,0.59
			c4.29-0.56,10.69-2.12,14.8,0.13c-6.64,6.98-22.99,5.06-31.69,5.06c-6.3,0-12.08,0.27-18.23-0.57c-3.94-0.54-7.63,0.34-11.35,0.64
			c8.76,0.4,17.7,2.25,26.5,2.24c8.54-0.01,17.07-0.01,25.61,0c7.44,0,14.4-1.85,21.79-2.28c8.21-0.48,16.77-0.02,25.04-0.7
			c-4.37-6.45-20.9-5.57-27.46-6.82c-10.1-1.91-19.8-3.46-30.03-3.46c-10.01,0-20.22,0.82-30.07-1.17
			c-3.9-0.79-8.56-2.33-13.14-3.33v4.14C-1514.57-810.36-1510.8-810.7-1508.09-810.17z"/>
		<path id="Path_9695_3_" class="st2" d="M-1475.22-738.25c7.29,1.43,14.44,4.13,21.7,5.2c5.42,0.97,10.91,1.17,16.36,0.59
			c4.29-0.56,10.69-2.12,14.8,0.13c-6.64,6.98-22.99,5.06-31.69,5.06c-6.3,0-12.08,0.27-18.23-0.57c-3.94-0.54-7.63,0.34-11.35,0.64
			c8.76,0.4,17.7,2.25,26.5,2.24c8.54-0.01,17.07-0.01,25.61,0c7.44,0,14.4-1.85,21.79-2.28c8.21-0.48,16.77-0.02,25.04-0.7
			c-4.37-6.45-20.9-5.57-27.46-6.82c-10.1-1.91-19.8-3.46-30.03-3.46c-10.01,0-20.22,0.82-30.07-1.17
			c-3.9-0.79-8.56-2.33-13.14-3.33v4.14C-1481.7-738.44-1477.93-738.78-1475.22-738.25z"/>
		<path id="Path_9695_1_" class="st2" d="M-1421.4-917.34c7.29,1.43,14.44,4.13,21.7,5.2c5.42,0.97,10.91,1.17,16.36,0.59
			c4.29-0.56,10.69-2.12,14.8,0.13c-6.64,6.98-22.99,5.06-31.69,5.06c-6.3,0-12.08,0.27-18.23-0.57c-3.94-0.54-7.63,0.34-11.35,0.64
			c8.76,0.4,17.7,2.25,26.5,2.24c8.54-0.01,17.07-0.01,25.61,0c7.44,0,14.4-1.85,21.79-2.28c8.21-0.48,16.77-0.02,25.04-0.7
			c-4.37-6.45-20.9-5.57-27.46-6.82c-10.1-1.91-19.8-3.46-30.03-3.46c-10.01,0-20.22,0.82-30.07-1.17
			c-3.9-0.79-8.56-2.33-13.14-3.33v4.14C-1427.88-917.53-1424.11-917.87-1421.4-917.34z"/>
		<path id="Path_9697_2_" class="st2" d="M-1508.51-804.96c5.15,0.76,9.31,3.31,14.78,2.76c-4.65-3.1-11.48-3.54-16.89-3.91
			c-2.7-0.19-5.18-0.67-7.64-0.9v1.77C-1515.01-805.38-1511.76-805.29-1508.51-804.96z"/>
		<path id="Path_9698_2_" class="st2" d="M-1235.01-814.76c-16.58-0.85-32.27-1.42-48.79,0.55c-13.58,1.62-27.88,0.98-41.37,3.62
			c-5.45,1.07-10.5,3.56-15.86,4.93c-5.03,1.29-10.79,0.41-15.92,0.79c0.03,0.52,0.03,1.04,0,1.56c9.88,3.67,20.84,4.73,31.25,4.69
			c17.68-0.06,35.03,4.34,52.57,5.19c11.24,0.54,22.53-0.58,33.86-0.58c7.19,0,13.99-1.24,20.98-1.9v-5.11
			c-0.72,0.05-1.42,0.1-2.03,0.1h-13.97c-15.41,0-30.84,0.52-46.22-0.44c-15.79-0.99-33.65,6.63-48.45-3.04
			c9.05,0.19,17.74-1.58,26.53-1.7c7.5-0.1,13.93-3.03,21.16-4.03c8.47-1.18,17.08-0.24,25.51,0.44
			c10.02,0.82,19.37,1.75,29.11,3.71c1.23,0.25,4.6,0.93,8.35,1.29v-10.27C-1225.61-815.29-1233.35-814.67-1235.01-814.76z"/>
		<path id="Path_9699_2_" class="st2" d="M-1281.69-805.53c12.83-2.09,26.48,2.13,39.31,1.04c-3.81-3.68-14.9-3.25-19.85-3.92
			C-1265.98-808.92-1280.32-811.24-1281.69-805.53z"/>
		<path id="Path_9699_1_" class="st2" d="M-1286.93-732.18c12.83-2.09,26.48,2.13,39.31,1.04c-3.81-3.68-14.9-3.25-19.85-3.92
			C-1271.22-735.56-1285.55-737.89-1286.93-732.18z"/>
		<path id="Path_9700_2_" class="st2" d="M-1351.61-752.91c-6.66-2.28-13.47-3.68-20.33-4.18c-12.39-0.68-24.7,2.88-37.12,2.88
			c-17.37,0-33.61,5.2-51.31,3.01c-9.58-1.19-19.14,0.96-28.56-1.7c-5.64-1.59-11.62-2.9-17.47-2.48c-2.83,0.21-7.84-0.06-11.87,0.7
			v4.71c5.8,1.96,12.2,1.56,18.24,3.28c9.1,2.59,18.45,7.06,27.8,7.46c12.53,0.54,24.67-0.04,36.92-3.04
			c10.59-2.59,21.22-2.13,31.86-4.6c8.73-2.02,18.06-1.01,26.99-1.01c6.52,0,26.94-2.07,30.4,6.23c-3.27,4.42-8.78,5.74-12.64,9.33
			c-3.05,2.79-5.91,5.96-8.55,9.45h5.96c9.65-8.52,18.48-18.64,29.53-24.42C-1337.83-750.01-1345.2-750.88-1351.61-752.91z"/>
		<path id="Path_9701_2_" class="st2" d="M-1245.38-750.76c-9.79,0.56-19.73,0.6-29.63,0.59c-9.9-0.01-19.59,0.79-29.44-0.61
			c-6.59-0.93-19.29-4.34-25.42-0.42c2.27,4.53,9.27,8.87,12.66,12.56c6.47,7.03,14.85,13.91,23.25,15.57
			c0.46,0.09,0.84,0.16,1.17,0.21h1.48c0.87-0.27,1.28-1.23,2.8-3.51c-6.43-6.34-26.37-8.52-28.25-19.09
			c17.77-1.23,36.17,0.8,53.98,1.65c11.33,0.54,22.74,0,34.08,0c2.26,0,6.33,0.39,10.39,0.15V-752c-3.35,0.65-6.72,1.07-10.09,1.25
			C-1234.03-750.77-1239.75-751.09-1245.38-750.76z"/>
		<path id="Path_9702_2_" class="st2" d="M-1491.68-819.97c12.86,0.79,26.36,4.49,39.03,7.52c12.51,2.99,24.86,3.84,37.55,5.16
			c8.89,0.93,17.42,6.42,26.35,5.8c12.8-0.9,24.99-4.36,37.66-5.19c6.53-0.43,11.82-2.36,18.08-4.17c5.93-1.71,15.3-0.23,20.29-4.51
			c-10.11,0.24-19.72,1.76-29.92,1.76c-12.68,0-24.06,3.3-36.39,5.75c-10.53,2.09-19.31-0.32-29.72-2.74
			c-13.34-3.1-26.97-5.07-40.21-8.2c-9.24-2.18-18.57-4.39-27.83-6.35c-4.72-0.99-9.2-3.44-13.93-4.03
			c-4.74-0.59-9.11-0.42-13.68-2.29c-4.5-1.85-9.2-2.51-13.87-1.96v10.72c2.09,0.69,4.22,1.18,6.37,1.47
			C-1505.15-820.45-1498.51-820.39-1491.68-819.97z"/>
		<path id="Path_9703_2_" class="st2" d="M-1320.95-825.71c-18.34,0-36.08,0.6-53.86,5.33c-9.55,2.54-20.01,2.09-29.6-0.13
			c-6.21-1.44-12.27-2.76-18.59-3.6c-6.14-0.82-12.7-0.82-18.54-3.48c-8.05-3.66-14.89-8.09-23.35-9.21
			c-8.85-1.16-17.43-2.19-25.85-6.22c-8.68-4.15-18.84-10.39-27.52-6.98v5c7.68,1.33,15.85,5.6,22.97,7.32
			c8.69,2.11,17.17,4.63,25.81,6.33c15.21,2.99,29.84,6.25,44.79,11.55c19.59,6.95,42.15,12,61.88,4.6
			c9.28-3.48,18.84-3.52,28.35-4.73c15.66-1.99,31.52-2.33,47.36-2.33c22.74,0,46.07,1.29,68.82-0.6V-825
			c-14.07-0.67-28.05-1.87-42.13-1.87C-1280.56-826.86-1300.66-825.71-1320.95-825.71z"/>
		<path id="Path_9704_2_" class="st2" d="M-1485.23-849.47c9.19,3.12,18.38,5.47,27.6,8.35c23.71,7.38,48.14,14.52,72.38,16
			c7.76,0.53,15.55-0.21,23.18-2.18c5.44-1.45,11.65-2.22,16.77-5.34c-3.81-0.41-7.28,1.34-10.88,1.76c-4.3,0.5-8.8,0-13.12,0
			c-8.79,0-17.51,2.19-26.22,1.73c-15.91-0.85-31.95-9.04-47.42-12.13c-5.88-1.18-12.42-1.43-18.18-3.46
			c-6.13-2.16-12.16-5.49-18.62-7.61c-8.25-2.71-16.24-4.6-24.55-6.76c-2.65-0.68-5.96-0.9-9.19-1.46c3.5,2,7.1,3.69,10.77,5.06
			C-1496.81-853.5-1491.1-851.47-1485.23-849.47z"/>
		<path id="Path_9706_2_" class="st2" d="M-1283.39-836.66c-10.66,1.2-21.4,1.16-32.15,1.16c-7.13,0-17.16-0.68-23.25,3.91
			c5.18,0.88,10.41,1.12,15.63,0.7c18.57-1.02,37.2,0,55.86,0c10.73,0,21.2,1.31,31.85,1.16c3.15-0.04,10.74,0.3,17.16-1.05v-11.08
			c-8.27,3.04-15.49,5.2-24.9,5.2C-1256.59-836.66-1270.09-838.17-1283.39-836.66z"/>
		<path id="Path_9707_2_" class="st2" d="M-1263.58-853.96c-19.15-2.36-36.31-5.37-54.6-14.27c-22.24-10.82-44.39-8.55-67.3-5.31
			c-10.29,1.46-20.81,1.02-31.1,2.29c-10.58,1.3-20.55,2.45-31.12,2.29c-13.83-0.21-27.68,8.55-40.93,2.87
			c-6.33-2.71-12.3-5.18-19.04-5.72c-3.46-0.27-7.23,0.82-10.58,0.12c1.15,0.75,2.28,1.56,3.39,2.14c3.7,1.94,7.18,2.6,11.01,3.62
			c5.07,1.35,9.89,4.42,14.91,6.07c8.35,2.75,15.91,1.82,24.02-0.88c10.02-3.34,19.54-4.18,29.96-4.18
			c11.68,0,23.19-1.73,34.82-1.73c8.12,0,15.68-2.8,23.75-2.33c13.83,0.8,27.32,4.03,41.05,5.66c11.3,1.34,22.36,2.15,33.36,6.32
			c13.32,5.06,25.9,10.71,40.09,11.67c11.8,0.8,23.95,1.33,35.75,0.13c1.99-0.2,4.82-0.25,7.86-0.44v-7
			c-3.8,0.42-7.49,0.97-10.51,0.97C-1240.54-851.65-1252.02-852.54-1263.58-853.96z"/>
		<path id="Path_9709_2_" class="st2" d="M-1464.62-873.13c20.51-8.44,42.38-3.31,63.57-6.07c1.52-0.2,7.82-0.21,8.09-3.56
			c0.36-4.46-10.13-5.79-12.29-6.23c-13.14-2.7-26.1-5.89-39.36-7.49c-15.2-1.84-30.24-5.46-45.4-7.65
			c-8.88-1.28-18.91-5.08-28.27-6.12v6.12c6.09,1.51,13.9,1.19,16.97,1.88c11.33,2.51,21.93,7.4,33.4,8.95
			c10.45,1.42,21.02,2.57,31.31,5.17c5.62,1.42,19.87,0.11,23.65,5.77c-6.75,4.7-19.21-0.85-26.59,0.18
			c-8.96,1.25-18.7-0.21-27.42,2.87c-8.55,3.02-13.5,6.58-22.64,1.59c-9.18-5.14-18.84-8.53-28.69-10.08v2.88
			c9.67,3.52,19.37,8.38,28.71,12.67C-1480.49-868.08-1473.56-869.45-1464.62-873.13z"/>
		<path id="Path_9710_2_" class="st2" d="M-1478.48-883.94c5.33,0,9.53-1.48,14.4-2.43c5.17-1.02,10.7-0.02,15.95-0.58
			c-12.79-7.26-27.19,0.21-39.56-6.93c-7.78-4.49-14.19-8.09-22.94-7.35c-2.65,0.24-5.23,1.16-7.64,2.68v2.16
			c7.67,0.65,15.22,2.97,22.37,6.85C-1489.88-886.24-1485.01-883.94-1478.48-883.94z"/>
		<path id="Path_9711_2_" class="st2" d="M-1230.79-860.88c-10.79,0-21.24-1.59-31.85-2.9c-17.95-2.19-34.78-8.04-51.7-15.38
			c-18.74-8.13-39.79-3.02-58.34-11.14c-20.96-9.15-44.22-9.24-65.18-19.17c-9.46-4.48-16.93-7.92-27.09-7.91
			c-7.25,0-14.37,0.49-21.59,0c-6.79-0.46-13.68,0.99-20.31-1.17c-4.31-1.42-7.41-2.49-11.43-2.78v0.5
			c7.03,1.88,14.06,6.08,21.3,7.35c6.92,1.22,13.74,2.83,20.63,4.18c11.82,2.32,23.75,2.65,35.53,5.75
			c12.61,3.32,24.92,7.8,37.64,8.78c6.46,0.5,14.53,1.33,20.44,4.92c3.47,2.11,6.2,5.13,10.07,6.49
			c21.18,7.39,43.98,0.56,65.07,9.64c9.14,3.93,17.74,8.84,27.29,11.53c11.85,3.43,23.87,5.6,35.96,6.49
			c8.66,0.59,17.3,0.01,26.06,0.01v-5.16C-1222.46-860.76-1226.64-860.88-1230.79-860.88z"/>
		<path id="Path_9714_2_" class="st2" d="M-1265.92-907.03c-9.35,1.11-18.95,2.57-28.14,4.63c-5.42,1.22-15.66,3.39-19.75,7.96
			c10.03,5.17,18.69,12.37,29.59,15c11,2.66,22.24,5.03,33.34,7.18c10.12,1.96,20.24-0.17,30.45,0.41c0.58,0.03,1.31,0.13,2.14,0.27
			v-7.43c-3.24,0.4-6.49,0.5-9.74,0.29c-11.1-1.23-21.75-3.47-33.03-3.47c-8.48,0-16.66-0.11-24.86-1.73
			c-5.45-1.07-12.45-2.29-16.03-8.52c7.23-3.82,15.35-4.31,23.12-4.74c10.59-0.58,21.2-1.73,31.85-1.73
			c8.93-0.13,17.84-1.14,26.66-3.01c0.59-0.11,1.28-0.24,2.04-0.37v-10.39c-5.28,1.23-10.61,2.9-15.68,3.27
			C-1244.67-908.67-1255.29-908.3-1265.92-907.03z"/>
		<path id="Path_9715_2_" class="st2" d="M-1242.34-892.59c-13.29-0.02-26.55,1.53-39.65,4.63c6.8-0.87,14.08,1.28,20.91,1.14
			c7.73-0.16,15.69-1.02,23.41,0.55c4.22,0.87,12.07,3.01,19.36,3.44v-4.78c-3.09-0.09-6.17-0.21-9.19-0.46
			c1.6-2.78,5.38-3.54,9.19-3.88v-4.88c-1.16,0.34-2.28,0.67-3.3,0.92C-1228.86-894.19-1234.83-892.59-1242.34-892.59z"/>
		<path id="Path_9716_2_" class="st2" d="M-1338.92-899.65c-4.96,1.84-10.01,5.98-15.02,6.49c8.28,0,17.55,2.28,25.27-1.28
			c9.41-4.34,18.69-9.49,28.37-13.28c19.7-7.71,45.9,3.62,62.89-14.87c-8.31,0.18-16.24,2.36-24.49,2.33
			c-8.54-0.03-17.16,0.1-25.63,1.13c-6.2,0.74-13.38,2.61-18.72,7.4c-3.8,3.4-6.81,7.71-11.71,8.09
			c6.69-8.31,18.48-14.94,27.35-17.2c3.09-0.79,6.49-1.26,9.8-2.02h-21.12c-7.1,3.27-13.15,9.1-19.97,13.41
			C-1327.62-905.83-1332.79-901.92-1338.92-899.65z"/>
	</g>
</g>
</svg>
