<?xml version="1.0" encoding="utf-8"?>
<!-- Generator: Adobe Illustrator 24.2.3, SVG Export Plug-In . SVG Version: 6.00 Build 0)  -->
<svg version="1.1" id="Layer_1" xmlns="http://www.w3.org/2000/svg" xmlns:xlink="http://www.w3.org/1999/xlink" x="0px" y="0px"
	 viewBox="0 0 300 385.71" style="enable-background:new 0 0 300 385.71;" xml:space="preserve">
<style type="text/css">
	.st0{fill:#841719;}
	.st1{fill:#B62026;}
	.st2{fill:#CB3131;}
	.st3{fill:#C72128;}
	.st4{opacity:0.5;fill:#B77C6B;}
	.st5{fill:#CC3634;}
	.st6{fill:#A61E22;}
	.st7{fill:#9B1C1F;}
	.st8{fill:#D03232;}
	.st9{fill:#DA3734;}
	.st10{fill:#D63232;}
	.st11{fill:#D43733;}
	.st12{opacity:0.3;fill:#EC8281;}
	.st13{fill:url(#Path_9127_1_);}
	.st14{fill:#0D151E;}
	.st15{fill:url(#Path_9129_1_);}
	.st16{fill:#3976BB;}
	.st17{fill:#00293F;}
	.st18{fill:url(#Path_9133_1_);}
	.st19{fill:url(#Path_9135_1_);}
	.st20{fill:url(#Path_9137_1_);}
	.st21{fill:url(#Path_9139_1_);}
	.st22{fill:url(#Path_9141_1_);}
	.st23{fill:url(#Path_9143_1_);}
	.st24{fill:url(#Path_9145_1_);}
	.st25{fill:url(#Path_9159_1_);}
	.st26{fill:url(#Path_9161_1_);}
	.st27{fill:url(#Path_9163_1_);}
	.st28{fill:url(#Path_9165_1_);}
	.st29{fill:url(#Path_9167_1_);}
	.st30{fill:url(#Path_9169_1_);}
	.st31{fill:url(#Path_9181_1_);}
	.st32{fill:url(#Path_9183_1_);}
	.st33{fill:url(#Path_9185_1_);}
	.st34{fill:url(#Path_9186_1_);}
	.st35{fill:url(#Path_9187_1_);}
	.st36{fill:url(#Path_9188_1_);}
	.st37{fill:url(#Path_9189_1_);}
	.st38{fill:url(#Path_9190_1_);}
	.st39{fill:url(#Path_9191_1_);}
	.st40{fill:url(#Path_9192_1_);}
	.st41{fill:url(#Path_9193_1_);}
	.st42{fill:url(#Path_9194_1_);}
	.st43{fill:url(#Path_9195_1_);}
	.st44{fill:url(#Path_9196_1_);}
	.st45{fill:url(#Path_9197_1_);}
	.st46{fill:url(#Path_9199_1_);}
	.st47{opacity:0.43;fill:url(#Path_9198_1_);enable-background:new    ;}
	.st48{fill:url(#Path_10375_1_);}
	.st49{fill:#424143;}
	.st50{fill:#6E6F72;}
	.st51{fill:#59595C;}
	.st52{fill:url(#Path_9590_1_);}
	.st53{fill:url(#Path_9587_1_);}
	.st54{fill:url(#Path_9588_1_);}
	.st55{fill:url(#Path_9589_1_);}
	.st56{fill:url(#Path_9591_1_);}
	.st57{fill:url(#Path_9592_1_);}
	.st58{fill:url(#Rectangle_24657_1_);}
	.st59{fill:url(#Rectangle_24658_1_);}
</style>
<g id="Group_6436" transform="translate(-1086.965 -307.776)">
	
		<linearGradient id="Path_10375_1_" gradientUnits="userSpaceOnUse" x1="-300.9214" y1="1650.1456" x2="-300.9214" y2="1647.4906" gradientTransform="matrix(171.9167 0 0 -81.7847 52969.2969 135482.2969)">
		<stop  offset="0" style="stop-color:#30302F"/>
		<stop  offset="1" style="stop-color:#757575"/>
	</linearGradient>
	<path id="Path_10375" class="st48" d="M1113.25,574.9c0,0-3.29,87.08,18.24,113.66c30.55,3.75,156.51,8.92,203.71,0
		c15.74-29.06,23.47-109.77,23.47-109.77L1113.25,574.9z"/>
	<g id="Group_6435" transform="translate(1086.965 307.776)">
		<path id="Path_10376" class="st49" d="M271.28,73.57c2.5-3.99,4.34-21.69,4.7-26.06l0.52-1.49l0,0l-0.43-0.01
			c0.78-30.34-53.34-44.06-120.49-45.83C88.43-1.56,33.7,9.35,32.93,39.66l-0.43-0.01l0,0l0.43,1.52c0.15,4.37,1.1,22.13,3.37,26.27
			l22.78,44.51c1.23,22.68,42.29,29.61,92.87,30.94c50.58,1.33,91.94-3.46,94.32-26.07L271.28,73.57z"/>
		<path id="Path_10377" class="st49" d="M46.29,133.75c0.33-12.54,14.18-22.36,30.98-21.93l151.9,3.98
			c16.8,0.43,30.14,10.96,29.83,23.49l11.55,137.08c-0.32,12.54-14.25,24.56-31.06,24.12l-183-4.77
			c-16.79-0.45-30.08-13.18-29.77-25.71L46.29,133.75z"/>
		<path id="Path_10378" class="st50" d="M55.59,137.9c0.29-11.44,12.93-20.38,28.23-19.98l138.43,3.63
			c15.29,0.4,27.46,9.99,27.16,21.4l10.52,124.91c-0.29,11.43-12.99,22.39-28.28,21.99L64.88,285.5c-15.31-0.4-27.4-12-27.12-23.43
			L55.59,137.9z"/>
		<path id="Path_10379" class="st51" d="M261.37,79.9c2.29-3.63,3.98-19.73,4.32-23.66l0.47-1.36l0,0l-0.39-0.02
			c0.7-27.57-48.93-40.06-110.52-41.65C93.66,11.57,43.46,21.48,42.77,49.04l-0.42-0.02l0,0l0.42,1.39c0.14,3.97,1,20.13,3.1,23.85
			l20.9,40.46c1.12,20.64,38.76,26.94,85.17,28.15c46.41,1.21,84.32-3.13,86.5-23.65L261.37,79.9z"/>
		<path id="Path_10380" class="st50" d="M45.3,68.75c11.9-20.56,56.38-28.11,109.23-26.72c52.85,1.39,96.86,11.21,107.72,32.38
			c1.79-6.06,3.09-18.89,3.36-22.46l0.49-1.41l0,0l-0.41-0.01c0.74-28.97-48.79-42.05-110.27-43.65S43.79,15.75,43.06,44.72
			l-0.39-0.02l0,0l0.39,1.45C43.17,49.72,43.81,62.58,45.3,68.75z"/>
		<path id="Path_10381" class="st49" d="M299.02,194.1c3.81,46.27-3.86,84.71-17.12,85.87c-13.27,1.16-27.09-35.42-30.88-81.67
			c-3.79-46.28,3.87-84.71,17.12-85.87C281.39,111.28,295.22,147.83,299.02,194.1z"/>
		<path id="Path_10382" class="st51" d="M291.54,194.74c3.16,38.55-1.66,70.47-10.78,71.28c-9.13,0.8-19.09-29.83-22.25-68.4
			s1.67-70.46,10.78-71.26S288.36,156.17,291.54,194.74z"/>
		<path id="Path_10383" class="st49" d="M2.47,186.34c-6.14,46.02-0.46,84.8,12.73,86.66c13.18,1.85,28.84-33.95,34.99-79.95
			s0.46-84.8-12.71-86.66C24.29,104.55,8.62,140.35,2.47,186.34z"/>
		<path id="Path_10384" class="st51" d="M9.92,187.41c-5.12,38.33-1.93,70.45,7.13,71.72c9.06,1.27,20.57-28.77,25.71-67.14
			c5.12-38.34,1.93-70.45-7.14-71.72C26.55,119.01,15.05,149.06,9.92,187.41z"/>
	</g>
	<path id="Rectangle_24842" class="st50" d="M1150.17,608.76h161.43c8.68,0,15.71,7.14,15.71,15.95v38.3
		c0,8.81-7.04,15.95-15.71,15.95h-161.43c-8.68,0-15.71-7.14-15.71-15.95v-38.3C1134.46,615.9,1141.49,608.76,1150.17,608.76z"/>
</g>
</svg>
