<?xml version="1.0" encoding="utf-8"?>
<!-- Generator: Adobe Illustrator 24.2.3, SVG Export Plug-In . SVG Version: 6.00 Build 0)  -->
<svg version="1.1" id="Layer_1" xmlns="http://www.w3.org/2000/svg" xmlns:xlink="http://www.w3.org/1999/xlink" x="0px" y="0px"
	 viewBox="0 0 300 122.73" style="enable-background:new 0 0 300 122.73;" xml:space="preserve">
<style type="text/css">
	.st0{fill:#848485;}
	.st1{fill:#B2AEA8;}
	.st2{opacity:0.1;enable-background:new    ;}
	.st3{opacity:0.2;enable-background:new    ;}
	.st4{opacity:0.2;fill:#FFFFFF;enable-background:new    ;}
	.st5{fill:#841719;}
	.st6{fill:#B62026;}
	.st7{fill:#CB3131;}
	.st8{fill:#C72128;}
	.st9{opacity:0.2;fill:#E1B1A8;}
	.st10{fill:#CC3634;}
	.st11{fill:#A61E22;}
	.st12{fill:#9B1C1F;}
	.st13{fill:#D03232;}
	.st14{fill:#DA3734;}
	.st15{fill:#D63232;}
	.st16{fill:#D43733;}
	.st17{opacity:0.3;fill:#EC8281;}
	.st18{opacity:0.35;fill:#E4AB9D;}
	.st19{opacity:0.8;}
	.st20{opacity:0.2;fill:#EC8281;}
	.st21{fill:#85311B;}
	.st22{fill:#595A5A;}
	.st23{fill:#9D3E21;}
	.st24{fill:#A54724;}
	.st25{fill:#959595;}
	.st26{fill:#A34023;}
	.st27{fill:#AE4B25;}
	.st28{fill:#A84924;}
	.st29{fill:#BA5727;}
</style>
<g id="Group_6434" transform="translate(-744.959 -304.052)">
	<path id="Rectangle_24838" class="st5" d="M759.52,410.75v-89.53c0-1.59,1.29-2.88,2.88-2.88h195.84c1.59,0,2.88,1.29,2.88,2.88
		v89.53c0,1.59-1.29,2.88-2.88,2.88H762.39C760.8,413.63,759.52,412.34,759.52,410.75z"/>
	<g id="Group_6404">
		<rect id="Rectangle_24839" x="764.11" y="366.82" class="st6" width="194.9" height="44.42"/>
	</g>
	<path id="Path_10248" class="st7" d="M957.17,389.03c0,6.91-0.53,13.82-1.58,20.65c-13.96,0.51-112.09,0.76-126.03,0.76
		c-13.95,0-48.07-0.26-62.03-0.76c-2.11-13.69-2.11-27.62,0-41.31c13.96-0.51,48.08-0.76,62.03-0.76
		c13.95,0,112.07,0.26,126.03,0.76c1.05,6.83,1.58,13.73,1.58,20.64V389.03z"/>
	<g id="Group_6405">
		<rect id="Rectangle_24840" x="764.11" y="320.63" class="st6" width="194.9" height="44.42"/>
	</g>
	<path id="Path_10249" class="st7" d="M957.17,342.84c0,6.91-0.53,13.82-1.58,20.65c-13.98,0.51-112.1,0.77-126.03,0.77
		c-13.95,0-48.07-0.26-62.03-0.76c-2.11-13.69-2.11-27.62,0-41.31c13.96-0.51,48.08-0.76,62.03-0.76
		c13.93,0,112.05,0.26,126.03,0.76c1.05,6.83,1.58,13.73,1.58,20.64V342.84z"/>
	<path id="Path_10250" class="st8" d="M751.05,422.41c-0.31-0.26-0.61-0.54-0.89-0.83c-3.34-3.33-5.21-7.85-5.2-12.56v-87.21
		c0-5.13,2.22-10.02,6.1-13.39l3.06,2.97l7.39,7.15l1.22,1.19v91.35l-0.63,0.61l-7.02,6.8L751.05,422.41z"/>
	<path id="Path_10251" class="st18" d="M762.09,411.74c-0.16-1.08-1.77-2.56-1.74-3.66c0.02-0.86,0.38-1.68,0.48-2.53
		c0.19-1.61-0.57-3.2-0.64-4.82c-0.07-1.84,0.73-3.63,0.64-5.47c-0.08-1.68-0.91-3.31-0.67-4.98c0.19-1.31,1.04-2.45,1.23-3.77
		c0.22-1.43-0.37-2.84-0.55-4.29c-0.1-1.06-0.1-2.13,0-3.18c0.24-4.03,0.18-8.07-0.18-12.09c0.39-1.83-0.57-3.92-0.59-5.79
		c-0.01-1.22,0.42-2.39,0.66-3.59c0.27-1.38,0.28-2.79,0.01-4.17c-0.16-0.81-0.41-1.6-0.52-2.42c-0.17-1.25,0.01-2.52,0.02-3.77
		c0.03-2.81-0.74-5.6-0.52-8.42c0.15-1.92,0.76-3.81,0.63-5.74c-0.08-1.24-0.5-2.45-0.51-3.7c-0.01-1.37,0.46-2.71,0.62-4.08
		c0.22-1.93-0.16-4.02,0.57-5.88c0.11-0.31,0.28-0.59,0.48-0.85l-7.39-7.15c-0.28,0.14-0.55,0.3-0.81,0.48
		c-0.75,0.51-1.34,1.22-1.7,2.06c-0.15,0.45-0.02,1.04-0.16,1.53c-0.19,0.67-0.5,1.29-0.91,1.85c-0.45,0.49-0.85,1.02-1.21,1.58
		c-0.87,1.63-0.09,3.64-0.37,5.47c-0.15,0.99-0.62,1.9-0.76,2.89c-0.36,2.4,1.2,4.63,1.67,7.02c0.73,3.81-1.4,7.72-0.79,11.55
		c0.29,1.76,1,3.19,0.56,4.96c-0.46,1.85,0.25,3.95,0.33,5.83c0.05,1.79-0.48,3.51-0.22,5.34c0.17,1.25,0.58,2.45,0.84,3.68
		c0.27,1.23-0.09,2.56-0.25,3.8c-0.26,1.71-0.41,3.43-0.44,5.16c0.01,2.28,0.42,4.59,0.12,6.85c-0.13,0.91-0.37,1.85-0.19,2.75
		c0.11,0.41,0.24,0.82,0.39,1.22c1.06,3.31-0.7,6.87-0.54,10.35c0.06,1.24,0.66,2.38,0.77,3.6c0.13,1.39-0.59,2.5-0.91,3.81
		c-0.53,2.18,0.54,4.38,0.72,6.61c0,0,1.25,6.63,4.78,8.98C759.11,414.63,762.09,411.74,762.09,411.74z"/>
	<path id="Path_10252" class="st10" d="M823.86,426.78h-61.14c-4.29,0.01-8.44-1.55-11.67-4.37l4.02-3.91l7.02-6.8l0.63-0.61h61.14
		c1.37,0,2.56,0.94,2.88,2.27h0.01c0.06,0.23,0.08,0.46,0.08,0.7v9.75C826.83,425.46,825.5,426.78,823.86,426.78z"/>
	<path id="Path_10253" class="st10" d="M823.86,319.74h-61.14l-1.22-1.19l-7.39-7.15l-3.06-2.97c3.23-2.83,7.37-4.38,11.67-4.37
		h61.14c1.61,0,2.92,1.28,2.97,2.89v9.97C826.75,318.49,825.45,319.74,823.86,319.74z"/>
	<g id="Group_6431">
		<g id="Group_6406">
			<path id="Path_10254" class="st11" d="M757.79,323.87c0.11-0.25,0.24-0.5,0.39-0.74c0.61-1.04,1.36-1.99,2.22-2.84
				c0.2-0.2,0.4-0.38,0.62-0.55c-0.11,0.25-0.24,0.5-0.39,0.74c-0.31,0.52-0.65,1.02-1.02,1.49c-0.37,0.47-0.77,0.92-1.2,1.35
				C758.22,323.52,758.01,323.7,757.79,323.87z"/>
			<path id="Path_10255" class="st11" d="M761.48,323.42c-0.25-0.11-0.5-0.24-0.74-0.39c-1.04-0.61-2-1.36-2.85-2.21
				c-0.2-0.2-0.38-0.4-0.56-0.62c0.25,0.11,0.5,0.24,0.74,0.38c1.04,0.61,2,1.36,2.85,2.21C761.12,322.99,761.3,323.2,761.48,323.42
				z"/>
			<path id="Path_10256" class="st11" d="M761.34,321.66c-0.2,0.06-0.4,0.12-0.6,0.16c-0.44,0.09-0.88,0.15-1.33,0.19
				c-0.45,0.03-0.89,0.04-1.34,0.02c-0.21-0.01-0.41-0.03-0.61-0.06c0.2-0.06,0.39-0.12,0.6-0.16c0.88-0.18,1.77-0.25,2.66-0.2
				C760.94,321.6,761.14,321.63,761.34,321.66z"/>
			<path id="Path_10257" class="st11" d="M759.56,323.74c-0.06-0.2-0.12-0.39-0.16-0.6c-0.09-0.44-0.15-0.88-0.19-1.32
				c-0.03-0.44-0.04-0.89-0.02-1.34c0.01-0.21,0.03-0.41,0.06-0.61c0.06,0.2,0.12,0.39,0.16,0.6c0.09,0.44,0.15,0.88,0.19,1.32
				c0.03,0.44,0.03,0.89,0.02,1.34C759.61,323.33,759.59,323.54,759.56,323.74z"/>
			<ellipse id="Ellipse_539" class="st12" cx="759.35" cy="321.75" rx="1.15" ry="1.15"/>
		</g>
		<g id="Group_6407">
			<path id="Path_10258" class="st11" d="M757.79,340.65c0.11-0.25,0.24-0.5,0.39-0.74c0.61-1.04,1.36-1.99,2.22-2.84
				c0.2-0.2,0.4-0.38,0.62-0.55c-0.11,0.25-0.24,0.5-0.39,0.74c-0.31,0.52-0.65,1.02-1.02,1.49c-0.37,0.47-0.77,0.92-1.2,1.35
				C758.22,340.29,758.01,340.48,757.79,340.65z"/>
			<path id="Path_10259" class="st11" d="M761.48,340.19c-0.25-0.11-0.5-0.24-0.74-0.39c-1.04-0.61-2-1.36-2.85-2.21
				c-0.2-0.2-0.38-0.4-0.56-0.62c0.25,0.11,0.5,0.24,0.74,0.38c1.04,0.61,2,1.36,2.85,2.21
				C761.12,339.77,761.3,339.98,761.48,340.19z"/>
			<path id="Path_10260" class="st11" d="M761.34,338.43c-0.2,0.06-0.4,0.12-0.6,0.16c-0.88,0.18-1.77,0.25-2.66,0.21
				c-0.21-0.01-0.41-0.03-0.61-0.06c0.2-0.06,0.39-0.12,0.6-0.16c0.88-0.18,1.77-0.25,2.66-0.2
				C760.94,338.38,761.14,338.4,761.34,338.43z"/>
			<path id="Path_10261" class="st11" d="M759.56,340.52c-0.06-0.2-0.12-0.39-0.16-0.6c-0.09-0.44-0.15-0.88-0.19-1.32
				c-0.03-0.44-0.04-0.89-0.02-1.34c0.01-0.21,0.03-0.41,0.06-0.61c0.06,0.2,0.12,0.39,0.16,0.6c0.09,0.44,0.15,0.88,0.19,1.32
				c0.03,0.44,0.03,0.89,0.02,1.34C759.61,340.11,759.59,340.31,759.56,340.52z"/>
			<path id="Path_10262" class="st12" d="M759.35,339.67c-0.64,0-1.15-0.52-1.15-1.15c0-0.64,0.52-1.15,1.15-1.15
				c0.63,0,1.15,0.52,1.15,1.15C760.5,339.16,759.98,339.67,759.35,339.67z"/>
		</g>
		<g id="Group_6408">
			<path id="Path_10263" class="st11" d="M757.79,357.42c0.12-0.25,0.24-0.5,0.39-0.74c0.61-1.04,1.36-1.99,2.22-2.84
				c0.2-0.2,0.4-0.38,0.62-0.55c-0.11,0.25-0.24,0.5-0.39,0.74c-0.31,0.52-0.65,1.02-1.02,1.49c-0.37,0.47-0.77,0.92-1.2,1.35
				C758.22,357.07,758.01,357.25,757.79,357.42z"/>
			<path id="Path_10264" class="st11" d="M761.48,356.97c-0.25-0.11-0.5-0.24-0.74-0.39c-1.04-0.61-2-1.36-2.85-2.21
				c-0.2-0.2-0.38-0.4-0.56-0.62c0.25,0.11,0.5,0.24,0.74,0.38c1.04,0.61,2,1.36,2.85,2.21
				C761.12,356.54,761.3,356.75,761.48,356.97z"/>
			<path id="Path_10265" class="st11" d="M761.34,355.21c-0.2,0.06-0.4,0.12-0.6,0.16c-0.88,0.18-1.77,0.25-2.66,0.21
				c-0.21-0.01-0.41-0.03-0.61-0.07c0.2-0.06,0.39-0.12,0.6-0.16c0.88-0.18,1.77-0.25,2.66-0.2
				C760.94,355.16,761.14,355.18,761.34,355.21z"/>
			<path id="Path_10266" class="st11" d="M759.56,357.29c-0.06-0.2-0.12-0.39-0.16-0.6c-0.09-0.44-0.15-0.88-0.19-1.32
				c-0.03-0.44-0.04-0.89-0.02-1.34c0.01-0.21,0.03-0.41,0.06-0.61c0.06,0.2,0.12,0.39,0.16,0.6c0.09,0.44,0.15,0.88,0.19,1.32
				c0.03,0.44,0.03,0.89,0.02,1.34C759.61,356.88,759.59,357.09,759.56,357.29z"/>
			<path id="Path_10267" class="st12" d="M759.35,356.45c-0.64,0-1.15-0.52-1.15-1.15c0-0.64,0.52-1.15,1.15-1.15
				c0.63,0,1.15,0.52,1.15,1.15C760.5,355.93,759.98,356.45,759.35,356.45z"/>
		</g>
		<g id="Group_6409">
			<path id="Path_10268" class="st11" d="M757.79,374.2c0.12-0.25,0.24-0.5,0.39-0.74c0.61-1.04,1.36-1.99,2.22-2.84
				c0.2-0.2,0.4-0.38,0.62-0.55c-0.11,0.25-0.24,0.5-0.39,0.74c-0.31,0.52-0.65,1.02-1.02,1.49c-0.37,0.47-0.77,0.92-1.2,1.35
				C758.22,373.84,758.01,374.03,757.79,374.2z"/>
			<path id="Path_10269" class="st11" d="M761.48,373.74c-0.25-0.11-0.5-0.24-0.74-0.38c-0.52-0.31-1.02-0.64-1.49-1.01
				c-0.48-0.37-0.93-0.77-1.35-1.2c-0.2-0.2-0.38-0.4-0.56-0.62c0.25,0.11,0.5,0.24,0.74,0.38c1.04,0.61,2,1.36,2.85,2.21
				C761.12,373.32,761.3,373.53,761.48,373.74z"/>
			<path id="Path_10270" class="st11" d="M761.34,371.98c-0.2,0.06-0.4,0.12-0.6,0.16c-0.88,0.18-1.77,0.25-2.66,0.21
				c-0.21-0.01-0.41-0.03-0.61-0.07c0.2-0.06,0.39-0.12,0.6-0.16c0.88-0.18,1.77-0.25,2.66-0.2
				C760.94,371.93,761.14,371.95,761.34,371.98z"/>
			<path id="Path_10271" class="st11" d="M759.56,374.07c-0.06-0.2-0.12-0.39-0.16-0.6c-0.09-0.44-0.15-0.88-0.19-1.32
				c-0.03-0.44-0.04-0.89-0.02-1.34c0.01-0.21,0.03-0.41,0.06-0.61c0.06,0.2,0.12,0.39,0.16,0.6c0.09,0.44,0.15,0.88,0.19,1.32
				c0.03,0.44,0.03,0.89,0.02,1.34C759.61,373.66,759.59,373.86,759.56,374.07z"/>
			<ellipse id="Ellipse_540" class="st12" cx="759.35" cy="372.07" rx="1.15" ry="1.15"/>
		</g>
		<g id="Group_6410">
			<path id="Path_10272" class="st11" d="M757.79,390.97c0.12-0.25,0.24-0.5,0.39-0.74c0.31-0.52,0.65-1.02,1.02-1.49
				c0.37-0.47,0.77-0.92,1.2-1.35c0.2-0.2,0.4-0.38,0.62-0.55c-0.11,0.25-0.24,0.5-0.39,0.74c-0.31,0.52-0.65,1.02-1.02,1.49
				c-0.37,0.47-0.77,0.92-1.2,1.35C758.22,390.62,758.01,390.8,757.79,390.97z"/>
			<path id="Path_10273" class="st11" d="M761.48,390.52c-0.25-0.11-0.5-0.24-0.74-0.38c-0.52-0.31-1.02-0.64-1.49-1.01
				c-0.48-0.37-0.93-0.77-1.35-1.2c-0.2-0.2-0.38-0.4-0.56-0.62c0.25,0.11,0.5,0.24,0.74,0.38c1.04,0.61,2,1.36,2.85,2.21
				C761.12,390.09,761.3,390.3,761.48,390.52z"/>
			<path id="Path_10274" class="st11" d="M761.34,388.76c-0.2,0.06-0.4,0.12-0.6,0.16c-0.88,0.18-1.77,0.25-2.66,0.21
				c-0.21-0.01-0.41-0.03-0.61-0.06c0.2-0.06,0.39-0.12,0.6-0.16c0.44-0.09,0.88-0.15,1.33-0.19c0.45-0.03,0.89-0.03,1.34-0.02
				C760.94,388.71,761.14,388.73,761.34,388.76z"/>
			<path id="Path_10275" class="st11" d="M759.56,390.84c-0.06-0.2-0.12-0.39-0.16-0.6c-0.09-0.44-0.15-0.88-0.19-1.32
				c-0.03-0.44-0.04-0.89-0.02-1.34c0.01-0.21,0.03-0.41,0.06-0.61c0.06,0.2,0.12,0.39,0.16,0.6c0.09,0.44,0.15,0.88,0.19,1.32
				c0.03,0.44,0.03,0.89,0.02,1.34C759.61,390.43,759.59,390.64,759.56,390.84z"/>
			<ellipse id="Ellipse_541" class="st12" cx="759.35" cy="388.85" rx="1.15" ry="1.15"/>
		</g>
		<g id="Group_6411">
			<path id="Path_10276" class="st11" d="M757.79,407.75c0.12-0.25,0.24-0.5,0.39-0.74c0.61-1.04,1.36-1.99,2.22-2.84
				c0.2-0.2,0.4-0.38,0.62-0.55c-0.11,0.25-0.24,0.5-0.39,0.74c-0.61,1.04-1.36,1.99-2.22,2.84
				C758.22,407.39,758.01,407.58,757.79,407.75z"/>
			<path id="Path_10277" class="st11" d="M761.48,407.29c-0.25-0.11-0.5-0.24-0.74-0.39c-0.52-0.31-1.02-0.64-1.49-1.01
				c-0.48-0.37-0.93-0.77-1.35-1.2c-0.2-0.2-0.38-0.4-0.56-0.62c0.25,0.11,0.5,0.24,0.74,0.38c0.52,0.31,1.02,0.64,1.49,1.01
				c0.48,0.37,0.93,0.77,1.35,1.2C761.12,406.87,761.3,407.08,761.48,407.29z"/>
			<path id="Path_10278" class="st11" d="M761.34,405.53c-0.2,0.06-0.4,0.12-0.6,0.16c-0.44,0.09-0.88,0.15-1.33,0.19
				c-0.45,0.03-0.89,0.04-1.34,0.02c-0.21-0.01-0.41-0.03-0.61-0.07c0.2-0.06,0.39-0.12,0.6-0.16c0.44-0.09,0.88-0.15,1.33-0.19
				c0.45-0.03,0.89-0.03,1.34-0.02C760.94,405.48,761.14,405.5,761.34,405.53z"/>
			<path id="Path_10279" class="st11" d="M759.56,407.62c-0.06-0.2-0.12-0.39-0.16-0.6c-0.09-0.44-0.15-0.88-0.19-1.32
				c-0.03-0.44-0.04-0.89-0.02-1.34c0.01-0.21,0.03-0.41,0.06-0.61c0.06,0.2,0.12,0.39,0.16,0.6c0.09,0.44,0.15,0.88,0.19,1.32
				c0.03,0.44,0.03,0.89,0.02,1.34C759.61,407.21,759.59,407.41,759.56,407.62z"/>
			<path id="Path_10280" class="st12" d="M759.35,406.77c-0.64,0-1.15-0.52-1.15-1.15s0.52-1.15,1.15-1.15
				c0.63,0,1.15,0.52,1.15,1.15C760.5,406.26,759.98,406.77,759.35,406.77L759.35,406.77z"/>
		</g>
		<g id="Group_6412">
			<path id="Path_10281" class="st11" d="M750.82,314.88c0.12-0.25,0.24-0.5,0.39-0.74c0.31-0.52,0.65-1.02,1.02-1.49
				c0.37-0.47,0.77-0.93,1.2-1.35c0.2-0.2,0.4-0.38,0.62-0.55c-0.11,0.25-0.24,0.5-0.39,0.74c-0.31,0.52-0.65,1.02-1.02,1.49
				c-0.37,0.47-0.77,0.92-1.2,1.35C751.25,314.52,751.04,314.71,750.82,314.88z"/>
			<path id="Path_10282" class="st11" d="M754.51,314.42c-0.25-0.11-0.5-0.24-0.74-0.39c-1.04-0.61-2-1.36-2.85-2.21
				c-0.2-0.2-0.38-0.4-0.56-0.62c0.25,0.11,0.5,0.24,0.74,0.38c0.52,0.31,1.02,0.64,1.49,1.01c0.48,0.37,0.93,0.77,1.35,1.2
				C754.15,314,754.33,314.21,754.51,314.42z"/>
			<path id="Path_10283" class="st11" d="M754.37,312.67c-0.2,0.06-0.39,0.12-0.6,0.16c-0.44,0.09-0.88,0.15-1.33,0.19
				c-0.45,0.03-0.89,0.04-1.34,0.02c-0.21-0.01-0.41-0.03-0.61-0.07c0.2-0.06,0.39-0.12,0.6-0.16c0.88-0.18,1.77-0.25,2.66-0.2
				C753.97,312.61,754.17,312.63,754.37,312.67z"/>
			<path id="Path_10284" class="st11" d="M752.59,314.75c-0.06-0.2-0.12-0.39-0.16-0.6c-0.18-0.87-0.25-1.77-0.21-2.66
				c0.01-0.21,0.03-0.41,0.07-0.61c0.06,0.2,0.12,0.39,0.16,0.6c0.18,0.87,0.25,1.77,0.21,2.66
				C752.64,314.34,752.62,314.54,752.59,314.75z"/>
			<ellipse id="Ellipse_542" class="st12" cx="752.38" cy="312.75" rx="1.15" ry="1.15"/>
		</g>
		<g id="Group_6413">
			<path id="Path_10285" class="st11" d="M750.82,331.65c0.12-0.25,0.24-0.5,0.39-0.74c0.31-0.52,0.65-1.02,1.02-1.49
				c0.37-0.47,0.77-0.93,1.2-1.35c0.2-0.2,0.4-0.38,0.62-0.55c-0.11,0.25-0.24,0.5-0.39,0.74c-0.31,0.52-0.65,1.02-1.02,1.49
				c-0.37,0.47-0.77,0.92-1.2,1.35C751.25,331.3,751.04,331.48,750.82,331.65z"/>
			<path id="Path_10286" class="st11" d="M754.51,331.2c-0.25-0.11-0.5-0.24-0.74-0.39c-1.04-0.61-2-1.36-2.85-2.21
				c-0.2-0.2-0.38-0.4-0.56-0.62c0.25,0.11,0.5,0.24,0.74,0.38c0.52,0.31,1.02,0.64,1.49,1.01c0.48,0.37,0.93,0.77,1.35,1.2
				C754.15,330.77,754.33,330.98,754.51,331.2z"/>
			<path id="Path_10287" class="st11" d="M754.37,329.44c-0.2,0.06-0.39,0.12-0.6,0.16c-0.88,0.18-1.77,0.25-2.66,0.21
				c-0.21-0.01-0.41-0.03-0.61-0.07c0.2-0.06,0.39-0.12,0.6-0.16c0.88-0.18,1.77-0.25,2.66-0.2
				C753.97,329.39,754.17,329.41,754.37,329.44z"/>
			<path id="Path_10288" class="st11" d="M752.59,331.52c-0.06-0.2-0.12-0.39-0.16-0.6c-0.18-0.87-0.25-1.77-0.21-2.66
				c0.01-0.21,0.03-0.41,0.07-0.61c0.06,0.2,0.12,0.39,0.16,0.6c0.18,0.87,0.25,1.77,0.21,2.66
				C752.64,331.11,752.62,331.32,752.59,331.52z"/>
			<path id="Path_10289" class="st12" d="M752.38,330.68c-0.64,0-1.15-0.52-1.15-1.15c0-0.64,0.52-1.15,1.15-1.15
				c0.63,0,1.15,0.52,1.15,1.15C753.53,330.16,753.01,330.68,752.38,330.68z"/>
		</g>
		<g id="Group_6414">
			<path id="Path_10290" class="st11" d="M750.82,348.43c0.12-0.25,0.24-0.5,0.39-0.74c0.31-0.52,0.65-1.02,1.02-1.49
				c0.37-0.47,0.77-0.93,1.2-1.35c0.2-0.2,0.4-0.38,0.62-0.55c-0.11,0.25-0.24,0.5-0.39,0.74c-0.31,0.52-0.65,1.02-1.02,1.49
				c-0.37,0.47-0.77,0.92-1.2,1.35C751.25,348.07,751.04,348.26,750.82,348.43z"/>
			<path id="Path_10291" class="st11" d="M754.51,347.97c-0.25-0.11-0.5-0.24-0.74-0.39c-0.52-0.31-1.02-0.64-1.49-1.01
				c-0.48-0.37-0.93-0.77-1.35-1.2c-0.2-0.2-0.38-0.4-0.56-0.62c0.25,0.11,0.5,0.24,0.74,0.38c0.52,0.31,1.02,0.64,1.49,1.01
				c0.48,0.37,0.93,0.77,1.35,1.2C754.15,347.55,754.33,347.76,754.51,347.97z"/>
			<path id="Path_10292" class="st11" d="M754.37,346.21c-0.2,0.06-0.39,0.12-0.6,0.16c-0.44,0.09-0.88,0.15-1.33,0.19
				c-0.45,0.03-0.89,0.04-1.34,0.02c-0.21-0.01-0.41-0.03-0.61-0.07c0.2-0.06,0.39-0.12,0.6-0.16c0.88-0.18,1.77-0.25,2.66-0.2
				C753.97,346.16,754.17,346.18,754.37,346.21z"/>
			<path id="Path_10293" class="st11" d="M752.59,348.3c-0.06-0.2-0.12-0.39-0.16-0.6c-0.18-0.87-0.25-1.77-0.21-2.66
				c0.01-0.21,0.03-0.41,0.07-0.61c0.06,0.2,0.12,0.39,0.16,0.6c0.18,0.87,0.25,1.77,0.21,2.66
				C752.64,347.89,752.62,348.09,752.59,348.3z"/>
			<path id="Path_10294" class="st12" d="M752.38,347.45c-0.64,0-1.15-0.52-1.15-1.15c0-0.64,0.52-1.15,1.15-1.15
				c0.63,0,1.15,0.52,1.15,1.15C753.53,346.94,753.01,347.45,752.38,347.45z"/>
		</g>
		<g id="Group_6415">
			<path id="Path_10295" class="st11" d="M750.82,365.2c0.12-0.25,0.24-0.5,0.39-0.74c0.31-0.52,0.65-1.02,1.02-1.49
				c0.37-0.47,0.77-0.93,1.2-1.35c0.2-0.2,0.4-0.38,0.62-0.55c-0.11,0.25-0.24,0.5-0.39,0.74c-0.31,0.52-0.65,1.02-1.02,1.49
				c-0.37,0.47-0.77,0.92-1.2,1.35C751.25,364.85,751.04,365.03,750.82,365.2z"/>
			<path id="Path_10296" class="st11" d="M754.51,364.75c-0.25-0.11-0.5-0.24-0.74-0.39c-1.04-0.61-2-1.36-2.85-2.21
				c-0.2-0.2-0.38-0.4-0.56-0.62c0.25,0.11,0.5,0.24,0.74,0.38c0.52,0.31,1.02,0.64,1.49,1.01c0.48,0.37,0.93,0.77,1.35,1.2
				C754.15,364.32,754.33,364.53,754.51,364.75z"/>
			<path id="Path_10297" class="st11" d="M754.37,362.99c-0.2,0.06-0.39,0.12-0.6,0.16c-0.88,0.18-1.77,0.25-2.66,0.21
				c-0.21-0.01-0.41-0.03-0.61-0.06c0.2-0.06,0.39-0.12,0.6-0.16c0.88-0.18,1.77-0.25,2.66-0.2
				C753.97,362.93,754.17,362.96,754.37,362.99z"/>
			<path id="Path_10298" class="st11" d="M752.59,365.07c-0.06-0.2-0.12-0.39-0.16-0.6c-0.18-0.87-0.25-1.77-0.21-2.66
				c0.01-0.21,0.03-0.41,0.07-0.61c0.06,0.2,0.12,0.39,0.16,0.6c0.18,0.87,0.25,1.77,0.21,2.66
				C752.64,364.66,752.62,364.87,752.59,365.07z"/>
			<path id="Path_10299" class="st12" d="M752.38,364.23c-0.64,0-1.15-0.52-1.15-1.15c0-0.64,0.52-1.15,1.15-1.15
				c0.63,0,1.15,0.52,1.15,1.15C753.53,363.71,753.01,364.23,752.38,364.23z"/>
		</g>
		<g id="Group_6416">
			<path id="Path_10300" class="st11" d="M750.82,381.98c0.12-0.25,0.24-0.5,0.39-0.74c0.61-1.04,1.36-1.99,2.22-2.84
				c0.2-0.2,0.4-0.38,0.62-0.55c-0.11,0.25-0.24,0.5-0.39,0.74c-0.31,0.52-0.65,1.02-1.02,1.49c-0.37,0.47-0.77,0.92-1.2,1.35
				C751.25,381.62,751.04,381.81,750.82,381.98z"/>
			<path id="Path_10301" class="st11" d="M754.51,381.52c-0.25-0.11-0.5-0.24-0.74-0.38c-0.52-0.31-1.02-0.64-1.49-1.01
				c-0.48-0.37-0.93-0.77-1.35-1.2c-0.2-0.2-0.38-0.4-0.56-0.62c0.25,0.11,0.5,0.24,0.74,0.38c0.52,0.31,1.02,0.64,1.49,1.01
				c0.48,0.37,0.93,0.77,1.35,1.2C754.15,381.1,754.33,381.31,754.51,381.52z"/>
			<path id="Path_10302" class="st11" d="M754.37,379.76c-0.2,0.06-0.39,0.12-0.6,0.16c-0.88,0.18-1.77,0.25-2.66,0.21
				c-0.21-0.01-0.41-0.03-0.61-0.07c0.2-0.06,0.39-0.12,0.6-0.16c0.44-0.09,0.88-0.15,1.33-0.19c0.45-0.03,0.89-0.03,1.34-0.02
				C753.97,379.71,754.17,379.73,754.37,379.76z"/>
			<path id="Path_10303" class="st11" d="M752.59,381.85c-0.06-0.2-0.12-0.39-0.16-0.6c-0.18-0.87-0.25-1.77-0.21-2.66
				c0.01-0.21,0.03-0.41,0.07-0.61c0.06,0.2,0.12,0.39,0.16,0.6c0.18,0.87,0.25,1.77,0.21,2.66
				C752.64,381.44,752.62,381.64,752.59,381.85z"/>
			<ellipse id="Ellipse_543" class="st12" cx="752.38" cy="379.85" rx="1.15" ry="1.15"/>
		</g>
		<g id="Group_6417">
			<path id="Path_10304" class="st11" d="M750.82,398.75c0.12-0.25,0.24-0.5,0.39-0.74c0.31-0.52,0.65-1.02,1.02-1.49
				c0.37-0.47,0.77-0.93,1.2-1.35c0.2-0.2,0.4-0.38,0.62-0.55c-0.11,0.25-0.24,0.5-0.39,0.74c-0.31,0.52-0.65,1.02-1.02,1.49
				c-0.37,0.47-0.77,0.92-1.2,1.35C751.25,398.4,751.04,398.58,750.82,398.75z"/>
			<path id="Path_10305" class="st11" d="M754.51,398.3c-0.25-0.11-0.5-0.24-0.74-0.38c-0.52-0.31-1.02-0.64-1.49-1.01
				c-0.48-0.37-0.93-0.77-1.35-1.2c-0.2-0.2-0.38-0.4-0.56-0.62c0.25,0.11,0.5,0.24,0.74,0.38c0.52,0.31,1.02,0.64,1.49,1.01
				c0.48,0.37,0.93,0.77,1.35,1.2C754.15,397.87,754.33,398.08,754.51,398.3z"/>
			<path id="Path_10306" class="st11" d="M754.37,396.54c-0.2,0.06-0.39,0.12-0.6,0.16c-0.88,0.18-1.77,0.25-2.66,0.21
				c-0.21-0.01-0.41-0.03-0.61-0.07c0.2-0.06,0.39-0.12,0.6-0.16c0.88-0.18,1.77-0.25,2.66-0.2
				C753.97,396.49,754.17,396.51,754.37,396.54z"/>
			<path id="Path_10307" class="st11" d="M752.59,398.62c-0.06-0.2-0.12-0.39-0.16-0.6c-0.18-0.87-0.25-1.77-0.21-2.66
				c0.01-0.21,0.03-0.41,0.07-0.61c0.06,0.2,0.12,0.39,0.16,0.6c0.18,0.87,0.25,1.77,0.21,2.66
				C752.64,398.21,752.62,398.42,752.59,398.62z"/>
			<path id="Path_10308" class="st12" d="M752.38,397.78c-0.64,0-1.15-0.52-1.15-1.15c0-0.64,0.52-1.15,1.15-1.15
				c0.63,0,1.15,0.52,1.15,1.15C753.53,397.26,753.01,397.78,752.38,397.78z"/>
		</g>
		<g id="Group_6418">
			<path id="Path_10309" class="st11" d="M750.28,413.62c0.12-0.25,0.24-0.5,0.39-0.74c0.31-0.52,0.65-1.02,1.02-1.49
				c0.37-0.47,0.77-0.92,1.2-1.35c0.2-0.2,0.4-0.38,0.62-0.55c-0.11,0.25-0.24,0.5-0.39,0.74c-0.61,1.04-1.36,1.99-2.22,2.84
				C750.7,413.26,750.5,413.45,750.28,413.62z"/>
			<path id="Path_10310" class="st11" d="M753.96,413.16c-0.25-0.11-0.5-0.24-0.74-0.38c-0.52-0.31-1.02-0.64-1.49-1.01
				c-0.48-0.37-0.93-0.77-1.35-1.2c-0.2-0.2-0.38-0.4-0.56-0.62c0.25,0.11,0.5,0.24,0.74,0.38c0.52,0.31,1.02,0.64,1.49,1.01
				c0.48,0.37,0.93,0.77,1.35,1.2C753.6,412.74,753.79,412.95,753.96,413.16z"/>
			<path id="Path_10311" class="st11" d="M753.83,411.4c-0.2,0.06-0.39,0.12-0.6,0.16c-0.88,0.18-1.77,0.25-2.66,0.21
				c-0.21-0.01-0.41-0.03-0.61-0.07c0.2-0.06,0.39-0.12,0.6-0.16c0.44-0.09,0.88-0.15,1.33-0.19c0.45-0.03,0.89-0.03,1.34-0.02
				C753.42,411.35,753.63,411.37,753.83,411.4z"/>
			<path id="Path_10312" class="st11" d="M752.04,413.49c-0.06-0.2-0.12-0.39-0.16-0.6c-0.18-0.87-0.25-1.77-0.21-2.66
				c0.01-0.21,0.03-0.41,0.07-0.61c0.06,0.2,0.12,0.39,0.16,0.6c0.18,0.87,0.25,1.77,0.21,2.66
				C752.1,413.08,752.07,413.28,752.04,413.49z"/>
			<path id="Path_10313" class="st12" d="M751.83,412.64c-0.64,0-1.15-0.52-1.15-1.15c0-0.64,0.52-1.15,1.15-1.15
				c0.63,0,1.15,0.52,1.15,1.15C752.98,412.13,752.47,412.64,751.83,412.64L751.83,412.64z"/>
		</g>
		<g id="Group_6419">
			<path id="Path_10314" class="st11" d="M770.35,416.06c-0.24-0.08-0.48-0.18-0.72-0.28c-0.2-0.1-0.45-0.2-0.7-0.35l-0.78-0.44
				l-0.74-0.49c-0.24-0.16-0.44-0.33-0.63-0.47c-0.2-0.16-0.39-0.33-0.58-0.51c0.24,0.08,0.48,0.18,0.72,0.28
				c0.2,0.1,0.45,0.2,0.7,0.35l0.78,0.44l0.74,0.49c0.24,0.16,0.44,0.33,0.63,0.47C769.98,415.71,770.17,415.88,770.35,416.06z"/>
			<path id="Path_10315" class="st11" d="M769.89,413.16c-0.13,0.21-0.26,0.41-0.41,0.6c-0.14,0.17-0.28,0.38-0.47,0.57l-0.57,0.62
				l-0.61,0.58c-0.19,0.19-0.4,0.33-0.57,0.47c-0.19,0.15-0.39,0.29-0.6,0.42c0.12-0.21,0.26-0.41,0.41-0.6
				c0.14-0.17,0.28-0.38,0.47-0.57l0.57-0.62l0.61-0.58c0.2-0.18,0.4-0.33,0.57-0.47C769.49,413.42,769.69,413.28,769.89,413.16z"/>
			<path id="Path_10316" class="st11" d="M768.13,413.26c0.06,0.15,0.11,0.31,0.15,0.47c0.08,0.34,0.14,0.69,0.18,1.04
				c0.03,0.35,0.04,0.7,0.03,1.06c-0.01,0.16-0.02,0.33-0.05,0.49c-0.06-0.15-0.11-0.31-0.15-0.47c-0.17-0.69-0.24-1.39-0.21-2.1
				C768.09,413.58,768.11,413.42,768.13,413.26z"/>
			<path id="Path_10317" class="st11" d="M770.22,414.67c-0.2,0.06-0.4,0.1-0.6,0.14c-0.36,0.07-0.84,0.12-1.33,0.16
				c-0.49,0.02-0.97,0.03-1.34,0c-0.21-0.01-0.41-0.03-0.61-0.06c0.2-0.06,0.4-0.1,0.6-0.14c0.36-0.07,0.84-0.12,1.33-0.16
				c0.49-0.02,0.97-0.03,1.34,0C769.81,414.62,770.02,414.64,770.22,414.67z"/>
			<path id="Path_10318" class="st12" d="M769.37,414.83c0.15,0.64-0.24,1.28-0.87,1.43c-0.64,0.15-1.28-0.24-1.43-0.87
				c-0.15-0.64,0.24-1.28,0.87-1.43c0.09-0.02,0.19-0.03,0.28-0.03C768.79,413.87,769.3,414.27,769.37,414.83z"/>
		</g>
		<g id="Group_6420">
			<path id="Path_10319" class="st11" d="M787.17,416.06c-0.24-0.08-0.48-0.18-0.72-0.28c-0.2-0.1-0.45-0.2-0.7-0.35l-0.78-0.44
				l-0.74-0.49c-0.24-0.16-0.44-0.33-0.63-0.47c-0.2-0.16-0.39-0.33-0.58-0.51c0.24,0.08,0.48,0.18,0.72,0.28
				c0.2,0.1,0.45,0.2,0.7,0.35l0.78,0.44l0.74,0.49c0.24,0.16,0.44,0.33,0.63,0.47C786.79,415.71,786.99,415.88,787.17,416.06z"/>
			<path id="Path_10320" class="st11" d="M786.71,413.16c-0.13,0.21-0.26,0.41-0.41,0.6c-0.14,0.17-0.28,0.38-0.47,0.57l-0.57,0.62
				l-0.61,0.58c-0.19,0.19-0.4,0.33-0.57,0.47c-0.19,0.15-0.39,0.29-0.6,0.42c0.12-0.21,0.26-0.41,0.41-0.6
				c0.14-0.17,0.28-0.38,0.47-0.57l0.57-0.62l0.61-0.58c0.19-0.18,0.4-0.33,0.57-0.47C786.3,413.42,786.5,413.28,786.71,413.16z"/>
			<path id="Path_10321" class="st11" d="M784.95,413.26c0.06,0.15,0.11,0.31,0.15,0.47c0.08,0.34,0.14,0.69,0.18,1.04
				c0.03,0.35,0.04,0.7,0.03,1.06c-0.01,0.16-0.02,0.33-0.05,0.49c-0.06-0.15-0.11-0.31-0.15-0.47c-0.17-0.69-0.24-1.39-0.21-2.1
				C784.9,413.58,784.92,413.42,784.95,413.26z"/>
			<path id="Path_10322" class="st11" d="M787.03,414.67c-0.2,0.06-0.4,0.1-0.6,0.14c-0.36,0.07-0.84,0.12-1.33,0.16
				c-0.49,0.02-0.97,0.03-1.34,0c-0.21-0.01-0.41-0.03-0.61-0.06c0.2-0.06,0.4-0.1,0.6-0.14c0.36-0.07,0.84-0.12,1.33-0.16
				c0.49-0.02,0.97-0.03,1.34,0C786.63,414.62,786.83,414.64,787.03,414.67z"/>
			<ellipse id="Ellipse_544" class="st12" cx="785.04" cy="414.83" rx="1.15" ry="0.91"/>
		</g>
		<g id="Group_6421">
			<path id="Path_10323" class="st11" d="M803.98,416.06c-0.24-0.08-0.48-0.18-0.72-0.28c-0.2-0.1-0.45-0.2-0.7-0.35l-0.78-0.44
				l-0.74-0.49c-0.24-0.16-0.44-0.33-0.63-0.47c-0.2-0.16-0.39-0.33-0.58-0.51c0.24,0.08,0.48,0.18,0.72,0.28
				c0.2,0.1,0.45,0.2,0.7,0.35l0.78,0.44l0.74,0.49c0.24,0.16,0.44,0.33,0.63,0.47C803.61,415.71,803.8,415.88,803.98,416.06z"/>
			<path id="Path_10324" class="st11" d="M803.53,413.16c-0.13,0.21-0.26,0.41-0.41,0.6c-0.14,0.17-0.28,0.38-0.47,0.57
				s-0.38,0.41-0.57,0.62l-0.61,0.58c-0.19,0.19-0.4,0.33-0.57,0.47c-0.19,0.15-0.39,0.29-0.6,0.42c0.12-0.21,0.26-0.41,0.41-0.6
				c0.14-0.17,0.28-0.38,0.47-0.57l0.57-0.62l0.61-0.58c0.2-0.18,0.4-0.33,0.57-0.47C803.12,413.42,803.32,413.28,803.53,413.16z"/>
			<path id="Path_10325" class="st11" d="M801.77,413.26c0.06,0.15,0.11,0.31,0.15,0.47c0.17,0.69,0.24,1.39,0.21,2.1
				c-0.01,0.16-0.02,0.33-0.05,0.49c-0.06-0.15-0.11-0.31-0.15-0.47c-0.17-0.69-0.24-1.39-0.21-2.1
				C801.72,413.58,801.74,413.42,801.77,413.26z"/>
			<path id="Path_10326" class="st11" d="M803.85,414.67c-0.2,0.06-0.4,0.1-0.6,0.14c-0.36,0.07-0.84,0.12-1.33,0.16
				c-0.49,0.02-0.97,0.03-1.34,0c-0.21-0.01-0.41-0.03-0.61-0.06c0.2-0.06,0.4-0.1,0.6-0.14c0.36-0.07,0.84-0.12,1.33-0.16
				c0.49-0.02,0.97-0.03,1.34,0C803.44,414.62,803.65,414.64,803.85,414.67z"/>
			<ellipse id="Ellipse_545" class="st12" cx="801.85" cy="414.83" rx="1.15" ry="0.91"/>
		</g>
		<g id="Group_6422">
			<path id="Path_10327" class="st11" d="M762.63,425.57c-0.24-0.07-0.48-0.15-0.71-0.25c-0.2-0.09-0.45-0.18-0.7-0.3l-0.77-0.39
				l-0.75-0.44c-0.24-0.14-0.45-0.3-0.63-0.42c-0.2-0.14-0.4-0.3-0.59-0.47c0.24,0.07,0.48,0.15,0.71,0.24
				c0.2,0.09,0.45,0.18,0.7,0.3l0.77,0.39l0.75,0.44c0.24,0.14,0.45,0.3,0.63,0.42C762.25,425.25,762.44,425.41,762.63,425.57z"/>
			<path id="Path_10328" class="st11" d="M762.17,422.98c-0.13,0.19-0.27,0.37-0.42,0.55c-0.14,0.15-0.29,0.34-0.47,0.52l-0.57,0.56
				l-0.61,0.51c-0.19,0.17-0.4,0.29-0.56,0.42c-0.19,0.13-0.39,0.25-0.59,0.36c0.13-0.19,0.27-0.37,0.42-0.55
				c0.14-0.15,0.29-0.34,0.47-0.52l0.57-0.56l0.61-0.51c0.19-0.16,0.4-0.29,0.57-0.42C761.78,423.21,761.97,423.09,762.17,422.98z"
				/>
			<path id="Path_10329" class="st11" d="M760.41,423.07c0.06,0.14,0.1,0.27,0.14,0.42c0.08,0.31,0.14,0.62,0.18,0.93
				c0.03,0.31,0.04,0.63,0.03,0.95c-0.01,0.15-0.02,0.29-0.05,0.44c-0.06-0.14-0.1-0.27-0.14-0.42c-0.16-0.61-0.23-1.24-0.21-1.88
				C760.37,423.36,760.39,423.22,760.41,423.07z"/>
			<path id="Path_10330" class="st11" d="M762.5,424.33c0,0-0.24,0.07-0.6,0.13c-0.36,0.06-0.84,0.11-1.33,0.15
				c-0.49,0.02-0.97,0.03-1.34,0s-0.61-0.06-0.61-0.06s0.24-0.07,0.6-0.13s0.84-0.11,1.33-0.15c0.49-0.02,0.97-0.02,1.34,0
				C762.25,424.3,762.5,424.33,762.5,424.33z"/>
			<path id="Path_10331" class="st12" d="M761.65,424.48c0,0.45-0.52,0.81-1.15,0.81s-1.15-0.36-1.15-0.81
				c0-0.45,0.52-0.81,1.15-0.81S761.65,424.03,761.65,424.48z"/>
		</g>
		<g id="Group_6423">
			<path id="Path_10332" class="st11" d="M779.45,425.57c-0.24-0.07-0.48-0.15-0.71-0.25c-0.2-0.09-0.45-0.18-0.7-0.3l-0.77-0.39
				l-0.75-0.44c-0.24-0.14-0.45-0.3-0.63-0.42c-0.2-0.14-0.4-0.3-0.59-0.47c0.24,0.07,0.48,0.15,0.71,0.24
				c0.2,0.09,0.45,0.18,0.7,0.3l0.77,0.39l0.75,0.44c0.24,0.14,0.45,0.3,0.63,0.42C779.06,425.25,779.26,425.41,779.45,425.57z"/>
			<path id="Path_10333" class="st11" d="M778.99,422.98c-0.13,0.19-0.27,0.37-0.42,0.55c-0.14,0.15-0.29,0.34-0.47,0.52l-0.57,0.56
				l-0.61,0.51c-0.19,0.17-0.4,0.29-0.56,0.42c-0.19,0.13-0.39,0.25-0.59,0.36c0.13-0.19,0.27-0.37,0.42-0.55
				c0.14-0.15,0.29-0.34,0.47-0.52l0.57-0.56l0.61-0.51c0.19-0.16,0.4-0.29,0.56-0.42C778.59,423.21,778.79,423.09,778.99,422.98z"
				/>
			<path id="Path_10334" class="st11" d="M777.23,423.07c0.06,0.14,0.1,0.27,0.14,0.42c0.17,0.61,0.23,1.24,0.21,1.88
				c-0.01,0.15-0.02,0.29-0.05,0.44c-0.06-0.14-0.1-0.27-0.14-0.42c-0.08-0.31-0.14-0.62-0.18-0.93c-0.03-0.31-0.04-0.63-0.03-0.95
				C777.19,423.36,777.2,423.22,777.23,423.07z"/>
			<path id="Path_10335" class="st11" d="M779.31,424.33c0,0-0.24,0.07-0.6,0.13c-0.36,0.06-0.84,0.11-1.33,0.15
				c-0.49,0.02-0.97,0.03-1.34,0s-0.61-0.06-0.61-0.06s0.24-0.07,0.6-0.13s0.84-0.11,1.33-0.15c0.49-0.02,0.97-0.02,1.34,0
				C779.07,424.3,779.31,424.33,779.31,424.33z"/>
			<ellipse id="Ellipse_546" class="st12" cx="777.32" cy="424.48" rx="1.15" ry="0.81"/>
		</g>
		<g id="Group_6424">
			<path id="Path_10336" class="st11" d="M796.27,425.57c-0.24-0.07-0.48-0.15-0.71-0.25c-0.2-0.09-0.45-0.18-0.7-0.3
				c-0.25-0.13-0.51-0.26-0.77-0.39l-0.75-0.44c-0.24-0.14-0.45-0.3-0.63-0.42c-0.2-0.14-0.4-0.3-0.59-0.47
				c0.24,0.07,0.48,0.15,0.71,0.24c0.2,0.09,0.45,0.18,0.7,0.3l0.77,0.39l0.75,0.44c0.24,0.14,0.44,0.3,0.63,0.42
				C795.88,425.25,796.08,425.41,796.27,425.57z"/>
			<path id="Path_10337" class="st11" d="M795.81,422.98c-0.13,0.19-0.27,0.37-0.42,0.55c-0.14,0.15-0.29,0.34-0.47,0.52
				c-0.18,0.18-0.38,0.37-0.57,0.56l-0.61,0.51c-0.19,0.17-0.4,0.29-0.56,0.42c-0.19,0.13-0.39,0.25-0.59,0.36
				c0.13-0.19,0.27-0.37,0.42-0.55c0.14-0.15,0.29-0.34,0.47-0.52l0.57-0.56l0.61-0.51c0.19-0.16,0.4-0.29,0.56-0.42
				C795.41,423.21,795.6,423.09,795.81,422.98z"/>
			<path id="Path_10338" class="st11" d="M794.04,423.07c0.06,0.14,0.1,0.27,0.14,0.42c0.17,0.61,0.23,1.24,0.21,1.88
				c-0.01,0.15-0.02,0.29-0.05,0.44c-0.06-0.14-0.1-0.27-0.14-0.42c-0.08-0.31-0.14-0.62-0.18-0.93c-0.03-0.31-0.04-0.63-0.03-0.95
				C794,423.36,794.02,423.22,794.04,423.07z"/>
			<path id="Path_10339" class="st11" d="M796.13,424.33c0,0-0.24,0.07-0.6,0.13c-0.36,0.06-0.84,0.11-1.33,0.15
				c-0.49,0.02-0.97,0.03-1.34,0c-0.37-0.03-0.61-0.06-0.61-0.06s0.24-0.07,0.6-0.13c0.36-0.06,0.84-0.11,1.33-0.15
				c0.48-0.02,0.97-0.02,1.34,0C795.88,424.3,796.13,424.33,796.13,424.33z"/>
			<ellipse id="Ellipse_547" class="st12" cx="794.13" cy="424.48" rx="1.15" ry="0.81"/>
		</g>
		<g id="Group_6420_1_">
			<path id="Path_10319_1_" class="st11" d="M820.08,416.06c-0.24-0.08-0.48-0.18-0.72-0.28c-0.2-0.1-0.45-0.2-0.7-0.35l-0.78-0.44
				l-0.74-0.49c-0.24-0.16-0.44-0.33-0.63-0.47c-0.2-0.16-0.39-0.33-0.58-0.51c0.24,0.08,0.48,0.18,0.72,0.28
				c0.2,0.1,0.45,0.2,0.7,0.35l0.78,0.44l0.74,0.49c0.24,0.16,0.44,0.33,0.63,0.47C819.7,415.71,819.9,415.88,820.08,416.06z"/>
			<path id="Path_10320_1_" class="st11" d="M819.62,413.16c-0.13,0.21-0.26,0.41-0.41,0.6c-0.14,0.17-0.28,0.38-0.47,0.57
				l-0.57,0.62l-0.61,0.58c-0.19,0.19-0.4,0.33-0.57,0.47c-0.19,0.15-0.39,0.29-0.6,0.42c0.12-0.21,0.26-0.41,0.41-0.6
				c0.14-0.17,0.28-0.38,0.47-0.57l0.57-0.62l0.61-0.58c0.19-0.18,0.4-0.33,0.57-0.47C819.22,413.42,819.42,413.28,819.62,413.16z"
				/>
			<path id="Path_10321_1_" class="st11" d="M817.86,413.26c0.06,0.15,0.11,0.31,0.15,0.47c0.08,0.34,0.14,0.69,0.18,1.04
				c0.03,0.35,0.04,0.7,0.03,1.06c-0.01,0.16-0.02,0.33-0.05,0.49c-0.06-0.15-0.11-0.31-0.15-0.47c-0.17-0.69-0.24-1.39-0.21-2.1
				C817.82,413.58,817.83,413.42,817.86,413.26z"/>
			<path id="Path_10322_1_" class="st11" d="M819.95,414.67c-0.2,0.06-0.4,0.1-0.6,0.14c-0.36,0.07-0.84,0.12-1.33,0.16
				c-0.49,0.02-0.97,0.03-1.34,0c-0.21-0.01-0.41-0.03-0.61-0.06c0.2-0.06,0.4-0.1,0.6-0.14c0.36-0.07,0.84-0.12,1.33-0.16
				c0.49-0.02,0.97-0.03,1.34,0C819.54,414.62,819.74,414.64,819.95,414.67z"/>
			<ellipse id="Ellipse_544_1_" class="st12" cx="817.95" cy="414.83" rx="1.15" ry="0.91"/>
		</g>
		<g id="Group_6423_1_">
			<path id="Path_10332_1_" class="st11" d="M812.36,425.57c-0.24-0.07-0.48-0.15-0.71-0.25c-0.2-0.09-0.45-0.18-0.7-0.3l-0.77-0.39
				l-0.75-0.44c-0.24-0.14-0.45-0.3-0.63-0.42c-0.2-0.14-0.4-0.3-0.59-0.47c0.24,0.07,0.48,0.15,0.71,0.24
				c0.2,0.09,0.45,0.18,0.7,0.3l0.77,0.39l0.75,0.44c0.24,0.14,0.45,0.3,0.63,0.42C811.98,425.25,812.17,425.41,812.36,425.57z"/>
			<path id="Path_10333_1_" class="st11" d="M811.9,422.98c-0.13,0.19-0.27,0.37-0.42,0.55c-0.14,0.15-0.29,0.34-0.47,0.52
				l-0.57,0.56l-0.61,0.51c-0.19,0.17-0.4,0.29-0.56,0.42c-0.19,0.13-0.39,0.25-0.59,0.36c0.13-0.19,0.27-0.37,0.42-0.55
				c0.14-0.15,0.29-0.34,0.47-0.52l0.57-0.56l0.61-0.51c0.19-0.16,0.4-0.29,0.56-0.42C811.5,423.21,811.7,423.09,811.9,422.98z"/>
			<path id="Path_10334_1_" class="st11" d="M810.14,423.07c0.06,0.14,0.1,0.27,0.14,0.42c0.17,0.61,0.23,1.24,0.21,1.88
				c-0.01,0.15-0.02,0.29-0.05,0.44c-0.06-0.14-0.1-0.27-0.14-0.42c-0.08-0.31-0.14-0.62-0.18-0.93c-0.03-0.31-0.04-0.63-0.03-0.95
				C810.1,423.36,810.11,423.22,810.14,423.07z"/>
			<path id="Path_10335_1_" class="st11" d="M812.23,424.33c0,0-0.24,0.07-0.6,0.13c-0.36,0.06-0.84,0.11-1.33,0.15
				c-0.49,0.02-0.97,0.03-1.34,0s-0.61-0.06-0.61-0.06s0.24-0.07,0.6-0.13c0.36-0.06,0.84-0.11,1.33-0.15
				c0.49-0.02,0.97-0.02,1.34,0C811.98,424.3,812.23,424.33,812.23,424.33z"/>
			<ellipse id="Ellipse_546_1_" class="st12" cx="810.23" cy="424.48" rx="1.15" ry="0.81"/>
		</g>
		<g id="Group_6424_1_">
			<path id="Path_10336_1_" class="st11" d="M824.01,424.95c-0.24-0.07-0.48-0.15-0.71-0.25c-0.2-0.09-0.45-0.18-0.7-0.3
				c-0.25-0.13-0.51-0.26-0.77-0.39l-0.75-0.44c-0.24-0.14-0.45-0.3-0.63-0.42c-0.2-0.14-0.4-0.3-0.59-0.47
				c0.24,0.07,0.48,0.15,0.71,0.24c0.2,0.09,0.45,0.18,0.7,0.3l0.77,0.39l0.75,0.44c0.24,0.14,0.44,0.3,0.63,0.42
				C823.62,424.63,823.82,424.78,824.01,424.95z"/>
			<path id="Path_10337_1_" class="st11" d="M823.55,422.35c-0.13,0.19-0.27,0.37-0.42,0.55c-0.14,0.15-0.29,0.34-0.47,0.52
				s-0.38,0.37-0.57,0.56l-0.61,0.51c-0.19,0.17-0.4,0.29-0.56,0.42c-0.19,0.13-0.39,0.25-0.59,0.36c0.13-0.19,0.27-0.37,0.42-0.55
				c0.14-0.15,0.29-0.34,0.47-0.52l0.57-0.56l0.61-0.51c0.19-0.16,0.4-0.29,0.56-0.42C823.15,422.58,823.34,422.46,823.55,422.35z"
				/>
			<path id="Path_10338_1_" class="st11" d="M821.78,422.44c0.06,0.14,0.1,0.27,0.14,0.42c0.17,0.61,0.23,1.24,0.21,1.88
				c-0.01,0.15-0.02,0.29-0.05,0.44c-0.06-0.14-0.1-0.27-0.14-0.42c-0.08-0.31-0.14-0.62-0.18-0.93c-0.03-0.31-0.04-0.63-0.03-0.95
				C821.74,422.74,821.76,422.59,821.78,422.44z"/>
			<path id="Path_10339_1_" class="st11" d="M823.87,423.7c0,0-0.24,0.07-0.6,0.13c-0.36,0.06-0.84,0.11-1.33,0.15
				c-0.49,0.02-0.97,0.03-1.34,0c-0.37-0.03-0.61-0.06-0.61-0.06s0.24-0.07,0.6-0.13c0.36-0.06,0.84-0.11,1.33-0.15
				c0.48-0.02,0.97-0.02,1.34,0C823.62,423.67,823.87,423.7,823.87,423.7z"/>
			<ellipse id="Ellipse_547_1_" class="st12" cx="821.87" cy="423.85" rx="1.15" ry="0.81"/>
		</g>
		<g id="Group_6425">
			<path id="Path_10340" class="st11" d="M792.12,309.28c0.18-0.18,0.38-0.35,0.58-0.51c0.18-0.14,0.39-0.31,0.63-0.47l0.74-0.49
				l0.78-0.44c0.25-0.14,0.5-0.24,0.7-0.35c0.23-0.11,0.47-0.2,0.72-0.28c-0.18,0.18-0.38,0.35-0.58,0.51
				c-0.18,0.14-0.39,0.31-0.63,0.47l-0.74,0.49l-0.78,0.44c-0.25,0.14-0.5,0.24-0.7,0.35C792.61,309.11,792.37,309.2,792.12,309.28z
				"/>
			<path id="Path_10341" class="st11" d="M792.58,306.38c0.21,0.13,0.41,0.27,0.6,0.42c0.17,0.14,0.37,0.29,0.57,0.47l0.61,0.58
				l0.57,0.62c0.18,0.2,0.33,0.41,0.47,0.57c0.15,0.19,0.28,0.39,0.41,0.6c-0.21-0.13-0.41-0.27-0.6-0.42
				c-0.16-0.14-0.37-0.29-0.57-0.47l-0.61-0.58l-0.57-0.62c-0.18-0.2-0.33-0.41-0.47-0.57
				C792.84,306.79,792.71,306.59,792.58,306.38z"/>
			<path id="Path_10342" class="st11" d="M794.34,306.49c0.03,0.16,0.04,0.32,0.05,0.49c0.01,0.35,0,0.7-0.03,1.06
				c-0.04,0.35-0.1,0.7-0.18,1.04c-0.04,0.16-0.09,0.31-0.15,0.47c-0.03-0.16-0.04-0.32-0.05-0.49c-0.01-0.35,0-0.7,0.03-1.06
				c0.04-0.35,0.1-0.7,0.18-1.04C794.24,306.8,794.29,306.64,794.34,306.49z"/>
			<path id="Path_10343" class="st11" d="M792.26,307.9c0.2-0.03,0.41-0.05,0.61-0.06c0.37-0.03,0.85-0.01,1.34,0
				c0.48,0.04,0.97,0.09,1.33,0.16c0.2,0.04,0.4,0.08,0.6,0.14c-0.2,0.03-0.41,0.05-0.61,0.06c-0.37,0.03-0.85,0.01-1.34,0
				c-0.48-0.04-0.97-0.09-1.33-0.16C792.65,308,792.45,307.95,792.26,307.9z"/>
			<ellipse id="Ellipse_548" class="st12" cx="794.25" cy="308.06" rx="1.15" ry="0.91"/>
		</g>
		<g id="Group_6426">
			<path id="Path_10344" class="st11" d="M775.31,309.28c0.18-0.18,0.38-0.35,0.58-0.51c0.18-0.14,0.39-0.31,0.63-0.47l0.74-0.49
				l0.78-0.44c0.25-0.14,0.5-0.24,0.7-0.35c0.23-0.11,0.47-0.2,0.72-0.28c-0.18,0.18-0.38,0.35-0.58,0.51
				c-0.18,0.14-0.39,0.31-0.63,0.47l-0.74,0.49l-0.78,0.44c-0.25,0.14-0.5,0.24-0.7,0.35C775.79,309.11,775.55,309.2,775.31,309.28z
				"/>
			<path id="Path_10345" class="st11" d="M775.76,306.38c0.21,0.13,0.41,0.27,0.6,0.42c0.16,0.14,0.37,0.29,0.57,0.47
				c0.2,0.18,0.4,0.38,0.61,0.58l0.57,0.62c0.18,0.2,0.33,0.41,0.47,0.57c0.15,0.19,0.28,0.39,0.41,0.6
				c-0.21-0.13-0.41-0.27-0.6-0.42c-0.17-0.14-0.37-0.29-0.57-0.47l-0.61-0.58l-0.57-0.62c-0.18-0.2-0.33-0.41-0.47-0.57
				C776.03,306.79,775.89,306.59,775.76,306.38z"/>
			<path id="Path_10346" class="st11" d="M777.53,306.49c0.03,0.16,0.04,0.32,0.05,0.49c0.03,0.71-0.03,1.41-0.21,2.1
				c-0.04,0.16-0.09,0.31-0.15,0.47c-0.03-0.16-0.05-0.32-0.05-0.49c-0.01-0.35,0-0.7,0.03-1.06c0.04-0.35,0.1-0.7,0.18-1.04
				C777.42,306.8,777.47,306.64,777.53,306.49z"/>
			<path id="Path_10347" class="st11" d="M775.44,307.9c0.2-0.03,0.41-0.05,0.61-0.06c0.37-0.03,0.85-0.01,1.34,0
				c0.48,0.04,0.97,0.09,1.33,0.16c0.2,0.04,0.4,0.08,0.6,0.14c-0.2,0.03-0.41,0.05-0.61,0.06c-0.37,0.03-0.85,0.01-1.34,0
				c-0.48-0.04-0.97-0.09-1.33-0.16C775.84,308,775.64,307.95,775.44,307.9z"/>
			<ellipse id="Ellipse_549" class="st12" cx="777.44" cy="308.06" rx="1.15" ry="0.91"/>
		</g>
		<g id="Group_6427">
			<path id="Path_10348" class="st11" d="M758.49,309.28c0.18-0.18,0.38-0.35,0.58-0.51c0.18-0.14,0.39-0.31,0.63-0.47l0.74-0.49
				l0.78-0.44c0.25-0.14,0.5-0.24,0.7-0.35c0.23-0.11,0.47-0.2,0.72-0.28c-0.18,0.18-0.38,0.35-0.58,0.51
				c-0.18,0.14-0.39,0.31-0.63,0.47l-0.74,0.49l-0.78,0.44c-0.25,0.14-0.5,0.24-0.7,0.35C758.97,309.11,758.73,309.2,758.49,309.28z
				"/>
			<path id="Path_10349" class="st11" d="M758.95,306.38c0.21,0.13,0.41,0.27,0.6,0.42c0.16,0.14,0.37,0.29,0.57,0.47l0.61,0.58
				l0.57,0.62c0.18,0.2,0.33,0.41,0.47,0.57c0.15,0.19,0.28,0.39,0.41,0.6c-0.21-0.13-0.41-0.27-0.6-0.42
				c-0.16-0.14-0.37-0.29-0.57-0.47l-0.61-0.58l-0.57-0.62c-0.18-0.2-0.33-0.41-0.47-0.57
				C759.21,306.79,759.07,306.59,758.95,306.38z"/>
			<path id="Path_10350" class="st11" d="M760.71,306.49c0.03,0.16,0.04,0.32,0.05,0.49c0.03,0.71-0.03,1.41-0.21,2.1
				c-0.04,0.16-0.09,0.31-0.15,0.47c-0.03-0.16-0.05-0.32-0.05-0.49c-0.01-0.35,0-0.7,0.03-1.06c0.04-0.35,0.1-0.7,0.18-1.04
				C760.6,306.8,760.65,306.64,760.71,306.49z"/>
			<path id="Path_10351" class="st11" d="M758.62,307.9c0.2-0.03,0.41-0.05,0.61-0.06c0.37-0.03,0.85-0.01,1.34,0
				c0.48,0.04,0.97,0.09,1.33,0.16c0.2,0.03,0.4,0.08,0.6,0.14c-0.2,0.03-0.41,0.05-0.61,0.06c-0.37,0.03-0.85,0.01-1.34,0
				c-0.48-0.04-0.97-0.09-1.33-0.16C759.02,308,758.82,307.95,758.62,307.9z"/>
			<ellipse id="Ellipse_550" class="st12" cx="760.62" cy="308.06" rx="1.15" ry="0.91"/>
		</g>
		<g id="Group_6428">
			<path id="Path_10352" class="st11" d="M799.84,318.8c0.19-0.17,0.38-0.32,0.59-0.46c0.19-0.12,0.39-0.28,0.63-0.42l0.75-0.44
				l0.77-0.39c0.25-0.13,0.49-0.21,0.7-0.3c0.23-0.09,0.47-0.18,0.71-0.24c-0.19,0.17-0.38,0.32-0.59,0.47
				c-0.19,0.12-0.39,0.28-0.63,0.42l-0.75,0.44l-0.77,0.39c-0.25,0.13-0.49,0.21-0.7,0.3C800.32,318.65,800.08,318.73,799.84,318.8z
				"/>
			<path id="Path_10353" class="st11" d="M800.3,316.21c0.2,0.11,0.4,0.23,0.59,0.36c0.16,0.12,0.37,0.25,0.56,0.42l0.61,0.51
				l0.57,0.56c0.18,0.18,0.33,0.37,0.47,0.52c0.15,0.17,0.29,0.36,0.42,0.55c-0.2-0.11-0.4-0.23-0.59-0.36
				c-0.16-0.12-0.37-0.25-0.56-0.42l-0.61-0.51l-0.57-0.56c-0.18-0.18-0.33-0.37-0.47-0.52C800.57,316.58,800.43,316.4,800.3,316.21
				z"/>
			<path id="Path_10354" class="st11" d="M802.06,316.3c0.03,0.14,0.04,0.29,0.05,0.44c0.01,0.32,0,0.63-0.03,0.95
				c-0.04,0.31-0.1,0.62-0.18,0.93c-0.04,0.14-0.09,0.28-0.14,0.42c-0.03-0.14-0.04-0.29-0.05-0.44c-0.01-0.32,0-0.63,0.03-0.95
				c0.04-0.31,0.1-0.62,0.18-0.93C801.96,316.57,802.01,316.43,802.06,316.3z"/>
			<path id="Path_10355" class="st11" d="M799.98,317.56c0,0,0.24-0.04,0.61-0.06c0.37-0.02,0.85-0.02,1.34,0
				c0.48,0.04,0.97,0.08,1.33,0.15s0.6,0.13,0.6,0.13s-0.25,0.04-0.61,0.06c-0.37,0.02-0.85,0.02-1.34,0
				c-0.48-0.04-0.97-0.08-1.33-0.15C800.22,317.62,799.98,317.56,799.98,317.56z"/>
			<path id="Path_10356" class="st12" d="M800.82,317.71c0,0.45,0.52,0.81,1.15,0.81s1.15-0.36,1.15-0.81s-0.52-0.81-1.15-0.81
				S800.82,317.26,800.82,317.71z"/>
		</g>
		<g id="Group_6429">
			<path id="Path_10357" class="st11" d="M783.03,318.8c0.19-0.17,0.38-0.32,0.59-0.46c0.19-0.12,0.39-0.28,0.63-0.42l0.75-0.44
				l0.77-0.39c0.25-0.13,0.49-0.21,0.7-0.3c0.23-0.09,0.47-0.18,0.71-0.24c-0.19,0.17-0.38,0.32-0.59,0.47
				c-0.19,0.12-0.39,0.28-0.63,0.42l-0.75,0.44l-0.77,0.39c-0.25,0.13-0.49,0.21-0.7,0.3C783.5,318.65,783.27,318.73,783.03,318.8z"
				/>
			<path id="Path_10358" class="st11" d="M783.49,316.21c0.2,0.11,0.4,0.23,0.59,0.36c0.16,0.12,0.37,0.25,0.56,0.42l0.61,0.51
				l0.57,0.56c0.18,0.18,0.33,0.37,0.47,0.52c0.15,0.17,0.29,0.36,0.42,0.55c-0.2-0.11-0.4-0.23-0.59-0.36
				c-0.16-0.12-0.37-0.25-0.56-0.42l-0.61-0.51l-0.57-0.56c-0.18-0.18-0.33-0.37-0.47-0.52
				C783.76,316.58,783.62,316.4,783.49,316.21z"/>
			<path id="Path_10359" class="st11" d="M785.25,316.3c0.03,0.14,0.04,0.29,0.05,0.44c0.03,0.63-0.04,1.27-0.21,1.88
				c-0.04,0.14-0.08,0.28-0.14,0.42c-0.03-0.14-0.04-0.29-0.05-0.44c-0.01-0.32,0-0.63,0.03-0.95c0.04-0.31,0.1-0.62,0.18-0.93
				C785.14,316.57,785.19,316.43,785.25,316.3z"/>
			<path id="Path_10360" class="st11" d="M783.16,317.56c0,0,0.24-0.04,0.61-0.06c0.37-0.02,0.85-0.02,1.34,0
				c0.48,0.04,0.97,0.08,1.33,0.15s0.6,0.13,0.6,0.13s-0.24,0.04-0.61,0.06c-0.37,0.02-0.85,0.02-1.34,0
				c-0.48-0.04-0.97-0.08-1.33-0.15C783.4,317.62,783.16,317.56,783.16,317.56z"/>
			<ellipse id="Ellipse_551" class="st12" cx="785.16" cy="317.71" rx="1.15" ry="0.81"/>
		</g>
		<g id="Group_6426_1_">
			<path id="Path_10344_1_" class="st11" d="M809.95,309.28c0.18-0.18,0.38-0.35,0.58-0.51c0.18-0.14,0.39-0.31,0.63-0.47l0.74-0.49
				l0.78-0.44c0.25-0.14,0.5-0.24,0.7-0.35c0.23-0.11,0.47-0.2,0.72-0.28c-0.18,0.18-0.38,0.35-0.58,0.51
				c-0.18,0.14-0.39,0.31-0.63,0.47l-0.74,0.49l-0.78,0.44c-0.25,0.14-0.5,0.24-0.7,0.35C810.43,309.11,810.19,309.2,809.95,309.28z
				"/>
			<path id="Path_10345_1_" class="st11" d="M810.4,306.38c0.21,0.13,0.41,0.27,0.6,0.42c0.16,0.14,0.37,0.29,0.57,0.47
				c0.2,0.18,0.4,0.38,0.61,0.58l0.57,0.62c0.18,0.2,0.33,0.41,0.47,0.57c0.15,0.19,0.28,0.39,0.41,0.6
				c-0.21-0.13-0.41-0.27-0.6-0.42c-0.17-0.14-0.37-0.29-0.57-0.47l-0.61-0.58l-0.57-0.62c-0.18-0.2-0.33-0.41-0.47-0.57
				C810.66,306.79,810.53,306.59,810.4,306.38z"/>
			<path id="Path_10346_1_" class="st11" d="M812.16,306.49c0.03,0.16,0.04,0.32,0.05,0.49c0.03,0.71-0.03,1.41-0.21,2.1
				c-0.04,0.16-0.09,0.31-0.15,0.47c-0.03-0.16-0.05-0.32-0.05-0.49c-0.01-0.35,0-0.7,0.03-1.06c0.04-0.35,0.1-0.7,0.18-1.04
				C812.06,306.8,812.11,306.64,812.16,306.49z"/>
			<path id="Path_10347_1_" class="st11" d="M810.08,307.9c0.2-0.03,0.41-0.05,0.61-0.06c0.37-0.03,0.85-0.01,1.34,0
				c0.48,0.04,0.97,0.09,1.33,0.16c0.2,0.04,0.4,0.08,0.6,0.14c-0.2,0.03-0.41,0.05-0.61,0.06c-0.37,0.03-0.85,0.01-1.34,0
				c-0.48-0.04-0.97-0.09-1.33-0.16C810.47,308,810.27,307.95,810.08,307.9z"/>
			<ellipse id="Ellipse_549_1_" class="st12" cx="812.07" cy="308.06" rx="1.15" ry="0.91"/>
		</g>
		<g id="Group_6429_1_">
			<path id="Path_10357_1_" class="st11" d="M817.67,318.8c0.19-0.17,0.38-0.32,0.59-0.46c0.19-0.12,0.39-0.28,0.63-0.42l0.75-0.44
				l0.77-0.39c0.25-0.13,0.49-0.21,0.7-0.3c0.23-0.09,0.47-0.18,0.71-0.24c-0.19,0.17-0.38,0.32-0.59,0.47
				c-0.19,0.12-0.39,0.28-0.63,0.42l-0.75,0.44l-0.77,0.39c-0.25,0.13-0.49,0.21-0.7,0.3C818.14,318.65,817.9,318.73,817.67,318.8z"
				/>
			<path id="Path_10358_1_" class="st11" d="M818.12,316.21c0.2,0.11,0.4,0.23,0.59,0.36c0.16,0.12,0.37,0.25,0.56,0.42l0.61,0.51
				l0.57,0.56c0.18,0.18,0.33,0.37,0.47,0.52c0.15,0.17,0.29,0.36,0.42,0.55c-0.2-0.11-0.4-0.23-0.59-0.36
				c-0.16-0.12-0.37-0.25-0.56-0.42l-0.61-0.51l-0.57-0.56c-0.18-0.18-0.33-0.37-0.47-0.52
				C818.39,316.58,818.25,316.4,818.12,316.21z"/>
			<path id="Path_10359_1_" class="st11" d="M819.88,316.3c0.03,0.14,0.04,0.29,0.05,0.44c0.03,0.63-0.04,1.27-0.21,1.88
				c-0.04,0.14-0.08,0.28-0.14,0.42c-0.03-0.14-0.04-0.29-0.05-0.44c-0.01-0.32,0-0.63,0.03-0.95c0.04-0.31,0.1-0.62,0.18-0.93
				C819.78,316.57,819.83,316.43,819.88,316.3z"/>
			<path id="Path_10360_1_" class="st11" d="M817.8,317.56c0,0,0.24-0.04,0.61-0.06c0.37-0.02,0.85-0.02,1.34,0
				c0.48,0.04,0.97,0.08,1.33,0.15c0.36,0.07,0.6,0.13,0.6,0.13s-0.24,0.04-0.61,0.06c-0.37,0.02-0.85,0.02-1.34,0
				c-0.48-0.04-0.97-0.08-1.33-0.15C818.04,317.62,817.8,317.56,817.8,317.56z"/>
			<ellipse id="Ellipse_551_1_" class="st12" cx="819.8" cy="317.71" rx="1.15" ry="0.81"/>
		</g>
		<g id="Group_6430">
			<path id="Path_10361" class="st11" d="M766.21,318.8c0.19-0.17,0.38-0.32,0.59-0.46c0.19-0.12,0.39-0.28,0.63-0.42l0.75-0.44
				l0.77-0.39c0.25-0.13,0.49-0.21,0.7-0.3c0.23-0.09,0.47-0.18,0.71-0.24c-0.19,0.17-0.38,0.32-0.59,0.47
				c-0.19,0.12-0.39,0.28-0.63,0.42l-0.75,0.44l-0.77,0.39c-0.25,0.13-0.49,0.21-0.7,0.3C766.69,318.65,766.45,318.73,766.21,318.8z
				"/>
			<path id="Path_10362" class="st11" d="M766.67,316.21c0.2,0.11,0.4,0.23,0.59,0.36c0.16,0.12,0.37,0.25,0.56,0.42l0.61,0.51
				l0.57,0.56c0.18,0.18,0.33,0.37,0.47,0.52c0.15,0.17,0.29,0.36,0.42,0.55c-0.2-0.11-0.4-0.23-0.59-0.36
				c-0.16-0.12-0.37-0.25-0.56-0.42l-0.61-0.51l-0.57-0.56c-0.18-0.18-0.33-0.37-0.47-0.52C766.94,316.58,766.8,316.4,766.67,316.21
				z"/>
			<path id="Path_10363" class="st11" d="M768.43,316.3c0.03,0.14,0.04,0.29,0.05,0.44c0.03,0.63-0.04,1.27-0.21,1.88
				c-0.04,0.14-0.08,0.28-0.14,0.42c-0.03-0.14-0.04-0.29-0.05-0.44c-0.01-0.32,0-0.63,0.03-0.95c0.04-0.31,0.1-0.62,0.18-0.93
				C768.33,316.57,768.38,316.43,768.43,316.3z"/>
			<path id="Path_10364" class="st11" d="M766.34,317.56c0,0,0.25-0.04,0.61-0.06c0.37-0.02,0.85-0.02,1.34,0
				c0.48,0.04,0.97,0.08,1.33,0.15s0.6,0.13,0.6,0.13s-0.24,0.04-0.61,0.06c-0.37,0.02-0.85,0.02-1.34,0
				c-0.48-0.04-0.97-0.08-1.33-0.15C766.58,317.62,766.34,317.56,766.34,317.56z"/>
			<ellipse id="Ellipse_552" class="st12" cx="768.34" cy="317.71" rx="1.15" ry="0.81"/>
		</g>
	</g>
	<g id="Group_6432" class="st19">
		<path id="Path_10365" class="st13" d="M806.32,321.24c3.89,0.01,149.04,0.19,149.59,0.76v0.01l-106.28,20.5l-81.55-20.16
			l-0.03-0.02c2.27-1.46,11.33-0.92,15.16-0.97C790.93,321.27,798.62,321.22,806.32,321.24z"/>
		<path id="Path_10366" class="st14" d="M955.91,322.01c0.91,6.79,1.37,13.64,1.38,20.5c0,2.24-0.05,4.49-0.16,6.75
			c-0.21,4.57-0.63,9.17-1.22,13.76c-15.01,0.47-134.05,0.73-149.12,0.76c-7.54,0.02-15.06-0.02-22.6-0.11
			c-3.76-0.04-7.52-0.1-11.27-0.18c-2.61-0.05-4.65-0.02-5.32-0.59l82.04-20.39L955.91,322.01z"/>
		<path id="Path_10367" class="st15" d="M955.91,322.01c0.91,6.79,1.37,13.64,1.38,20.5c0,2.24-0.05,4.49-0.16,6.75l-1.22,13.76
			l-106.28-20.51L955.91,322.01z"/>
		<path id="Path_10368" class="st16" d="M768.07,322.33l0.03,0.02l81.55,20.16L767.6,362.9c-0.31-0.24-0.37-0.58-0.13-1.06
			c0.26-0.57,4.02-1.23,3.97-1.81c-0.05-0.59-3.94-1.07-4.15-1.66c-0.34-1.09,1.1-2.15,1.38-3.25c0.39-1.58-1.62-3.13-1.15-4.7
			c0.13-0.47,2.06-0.93,1.96-1.4c-0.1-0.54-2.35-1.06-2.45-1.6c-0.16-0.8,1.04-1.57,1.15-2.37c0.18-1.07-1.54-2.08-1.3-3.14
			c0.18-0.83,3.73-1.97,3.91-2.8c0.26-1.1-3.76-1.77-3.76-2.88c0-0.93,1.28-1.81,1.28-2.75c0-0.98-1.44-1.92-1.3-2.9
			c0.13-0.8,3.13-1.12,3.24-1.93c0.08-0.51-2.09-1.43-2.35-1.94c-0.68-1.18-0.78-2.6-0.29-3.86
			C767.69,322.63,767.86,322.45,768.07,322.33z"/>
	</g>
	<g id="Group_6433" class="st19">
		<path id="Path_10369" class="st13" d="M806.32,367.79c3.89,0.01,149.04,0.19,149.59,0.76v0.01l-106.28,20.5l-81.55-20.16
			l-0.03-0.02c2.27-1.46,11.33-0.92,15.16-0.97C790.93,367.81,798.62,367.77,806.32,367.79z"/>
		<path id="Path_10370" class="st14" d="M955.91,368.56c0.91,6.79,1.37,13.64,1.38,20.5c0,2.24-0.05,4.49-0.16,6.75
			c-0.21,4.57-0.63,9.17-1.22,13.76c-15.01,0.47-134.05,0.73-149.12,0.76c-7.54,0.02-15.06-0.02-22.6-0.11
			c-3.76-0.04-7.52-0.1-11.27-0.18c-2.61-0.05-4.65-0.02-5.32-0.59l82.04-20.39L955.91,368.56z"/>
		<path id="Path_10371" class="st15" d="M955.91,368.56c0.91,6.79,1.37,13.64,1.38,20.5c0,2.24-0.05,4.49-0.16,6.75l-1.22,13.76
			l-106.28-20.51L955.91,368.56z"/>
		<path id="Path_10372" class="st16" d="M768.07,368.88l0.03,0.02l81.55,20.16l-82.04,20.39c-0.31-0.24-0.37-0.58-0.13-1.06
			c0.26-0.57,4.02-1.23,3.97-1.81c-0.05-0.59-3.94-1.07-4.15-1.66c-0.34-1.09,1.1-2.15,1.38-3.25c0.39-1.58-1.62-3.13-1.15-4.7
			c0.13-0.47,2.06-0.92,1.96-1.4c-0.1-0.54-2.35-1.06-2.45-1.6c-0.16-0.8,1.04-1.57,1.15-2.37c0.18-1.07-1.54-2.08-1.3-3.14
			c0.18-0.83,3.73-1.97,3.91-2.8c0.26-1.1-3.76-1.77-3.76-2.88c0-0.93,1.28-1.81,1.28-2.75c0-0.98-1.44-1.92-1.3-2.9
			c0.13-0.8,3.13-1.12,3.24-1.93c0.08-0.51-2.09-1.43-2.35-1.95c-0.68-1.18-0.78-2.6-0.29-3.86
			C767.69,369.18,767.86,369,768.07,368.88z"/>
	</g>
	<path id="Path_10373" class="st20" d="M761.5,318.55l-7.39-7.15c1.46-0.77,3.17-1.11,4.44-2.25c0.29-0.31,0.61-0.58,0.98-0.8
		c0.43-0.17,0.89-0.23,1.35-0.18c1.76,0.06,3.52,0.22,5.27,0.49c0.62,0.17,1.28,0.15,1.9-0.04c0.46-0.19,0.81-0.56,1.24-0.8
		c1.34-0.69,2.95,0.2,4.44,0c0.94-0.13,1.83-0.7,2.77-0.63c1.14,0.11,2.16,1.13,3.27,0.86c0.5-0.12,0.91-0.49,1.4-0.65
		c0.56-0.12,1.15-0.11,1.71,0.02c1.82,0.25,23.66,0.35,25.5,0.29c2.27-0.06,4.53-0.28,6.76-0.65c1.08-0.24,2.19-0.33,3.3-0.25
		c0.86,0.12,1.69,0.44,2.56,0.44c0.78-0.07,1.56-0.21,2.32-0.4c1.17-0.16,2.36-0.13,3.52,0.09v9.97h-0.01
		c-0.28,0.11-0.58,0.17-0.88,0.17c-1.26,0.05-2.53,0.12-3.79,0.18c-1.89,0.08-3.77,0.18-5.65,0.27c-1.63,0.14-3.27,0.1-4.88-0.13
		c-1.25-0.22-2.5-0.67-3.76-0.59c-0.59,0.03-21.17,0.18-21.75,0.27c-3.97,0.57-8.01-1.58-11.92-0.72c-1.78,0.39-3.44,1.39-5.26,1.36
		c-1.24-0.02-2.42-0.54-3.65-0.71C763.83,316.78,762.38,317.38,761.5,318.55z"/>
	<path id="Path_10374" class="st20" d="M778.59,423.54c-1.28,0.21-2.59,0.03-3.76-0.52c-0.7-0.33-1.38-0.81-2.15-0.81
		c-0.75,0-1.49,0.28-2.24,0.33c-1.42,0.13-2.84,0.11-4.26-0.05c-1.36-0.17-2.58,0.17-3.92-0.35c-0.52-0.24-1.05-0.46-1.59-0.64
		c-1.4-0.36-3.05,0.16-4.25-0.66c-0.76-0.53-1.07-1.42-1.35-2.35l7.02-6.8c0.2,0.34,0.46,0.65,0.76,0.9
		c1.18,0.93,2.84,0.74,4.35,0.64c1.46-0.11,2.92-0.08,4.37,0.06c0.9,0.14,1.81,0.17,2.72,0.07c0.53-0.09,1.05-0.28,1.58-0.32
		c0.73,0,1.46,0.07,2.19,0.2c0.84,0.04,1.69,0,2.53-0.14l24.84-0.64c0.64-0.1,1.29-0.15,1.94-0.14c0.82,0.07,1.64,0.22,2.43,0.44
		c2.58,0.58,5.24,0.76,7.88,0.53c2.2-0.18,4.37-0.66,6.58-0.64c0.76-0.04,1.53,0.13,2.2,0.5c0.1,0.06,0.19,0.12,0.28,0.19h0.01
		c0.06,0.23,0.08,0.46,0.08,0.7v8.33c-0.08,0.04-0.17,0.07-0.25,0.12c-0.97,0.52-2.03,0.84-3.13,0.92c-1.05,0-2.09-0.42-3.13-0.31
		c-0.97,0.11-1.85,0.66-2.81,0.68c-0.93,0.01-1.78-0.47-2.67-0.71c-1.99-0.55-4.12,0.05-6.17-0.18c-1.68-0.19-3.3-0.93-4.99-0.83
		C801.91,422.2,780.33,423.24,778.59,423.54z"/>
</g>
<path id="Rectangle_24838_1_" class="st5" d="M215.64,106.7V17.17c0-1.59,1.29-2.88,2.88-2.88h78.84c1.59,0,2.88,1.29,2.88,2.88
	v89.53c0,1.59-1.29,2.88-2.88,2.88h-78.84C216.93,109.58,215.64,108.29,215.64,106.7z"/>
<g>
	<g id="Group_6404_1_">
		<rect id="Rectangle_24839_1_" x="215.83" y="62.77" class="st6" width="82.31" height="44.42"/>
	</g>
	<path id="Path_10248_1_" class="st7" d="M296.19,84.98c0,6.91-0.56,13.82-1.67,20.65c-14.75,0.51-21.22,0.76-35.96,0.76
		s-24.38-0.26-39.13-0.76c-2.23-13.69-2.23-27.62,0-41.31c14.75-0.51,24.39-0.76,39.13-0.76s21.21,0.26,35.96,0.76
		c1.11,6.83,1.66,13.73,1.67,20.64V84.98z"/>
	<g id="Group_6405_1_">
		<rect id="Rectangle_24840_1_" x="215.83" y="16.58" class="st6" width="82.31" height="44.42"/>
	</g>
	<path id="Path_10249_1_" class="st7" d="M296.19,38.79c0,6.91-0.56,13.82-1.67,20.65c-14.77,0.51-21.24,0.77-35.96,0.77
		c-14.74,0-24.38-0.26-39.13-0.76c-2.23-13.69-2.23-27.62,0-41.31c14.75-0.51,24.39-0.76,39.13-0.76c14.72,0,21.19,0.26,35.96,0.76
		c1.11,6.83,1.66,13.73,1.67,20.64V38.79z"/>
	<g id="Group_6432_1_" class="st19">
		<path id="Path_10365_1_" class="st13" d="M234.02,17.18c4.11,0.01,60.27,0.19,60.85,0.76v0.01l-36.22,20.5L220.04,18.3l-0.03-0.02
			c2.4-1.46,11.97-0.92,16.02-0.97C244.16,17.21,225.88,17.17,234.02,17.18z"/>
		<path id="Path_10366_1_" class="st14" d="M294.86,17.96c0.96,6.79,1.45,13.64,1.46,20.5c0,2.24-0.06,4.49-0.17,6.75
			c-0.22,4.57-0.66,9.17-1.29,13.76c-15.85,0.47-44.42,0.73-60.35,0.76c-7.97,0.02-5.34-0.02-13.31-0.11
			c-3.97-0.04,7.91-0.1,3.94-0.18c-2.76-0.05-4.91-0.02-5.62-0.59l39.14-20.39L294.86,17.96z"/>
		<path id="Path_10367_1_" class="st15" d="M294.86,17.96c0.96,6.79,1.45,13.64,1.46,20.5c0,2.24-0.06,4.49-0.17,6.75l-1.29,13.76
			l-36.22-20.51L294.86,17.96z"/>
		<path id="Path_10368_1_" class="st16" d="M220.01,18.28l0.03,0.02l38.61,20.16l-39.14,20.39c-0.33-0.24-0.39-0.58-0.14-1.06
			c0.28-0.57,4.25-1.23,4.19-1.81c-0.05-0.59-4.16-1.07-4.38-1.66c-0.36-1.09,1.16-2.15,1.46-3.25c0.41-1.58-1.71-3.13-1.21-4.7
			c0.14-0.47,2.18-0.93,2.07-1.4c-0.11-0.54-2.48-1.06-2.59-1.6c-0.17-0.8,1.1-1.57,1.21-2.37c0.19-1.07-1.63-2.08-1.38-3.14
			c0.19-0.83,3.94-1.97,4.14-2.8c0.28-1.1-3.97-1.77-3.97-2.88c0-0.93,1.35-1.81,1.35-2.75c0-0.98-1.52-1.92-1.38-2.9
			c0.14-0.8,3.31-1.12,3.42-1.93c0.08-0.51-2.21-1.43-2.48-1.94c-0.71-1.18-0.83-2.6-0.3-3.86
			C219.62,18.58,219.79,18.4,220.01,18.28z"/>
	</g>
	<g id="Group_6433_1_" class="st19">
		<path id="Path_10369_1_" class="st13" d="M234.02,63.73c4.11,0.01,60.27,0.19,60.85,0.76v0.01L258.65,85l-38.61-20.16l-0.03-0.02
			c2.4-1.46,11.97-0.92,16.02-0.97C244.16,63.76,225.88,63.72,234.02,63.73z"/>
		<path id="Path_10370_1_" class="st14" d="M294.86,64.51c0.96,6.79,1.45,13.64,1.46,20.5c0,2.24-0.06,4.49-0.17,6.75
			c-0.22,4.57-0.66,9.17-1.29,13.76c-15.85,0.47-44.42,0.73-60.35,0.76c-7.97,0.02-5.34-0.02-13.31-0.11
			c-3.97-0.04,7.91-0.1,3.94-0.18c-2.76-0.05-4.91-0.02-5.62-0.59L258.65,85L294.86,64.51z"/>
		<path id="Path_10371_1_" class="st15" d="M294.86,64.51c0.96,6.79,1.45,13.64,1.46,20.5c0,2.24-0.06,4.49-0.17,6.75l-1.29,13.76
			L258.65,85L294.86,64.51z"/>
		<path id="Path_10372_1_" class="st16" d="M220.01,64.83l0.03,0.02L258.65,85l-39.14,20.39c-0.33-0.24-0.39-0.58-0.14-1.06
			c0.28-0.57,4.25-1.23,4.19-1.81c-0.05-0.59-4.16-1.07-4.38-1.66c-0.36-1.09,1.16-2.15,1.46-3.25c0.41-1.58-1.71-3.13-1.21-4.7
			c0.14-0.47,2.18-0.92,2.07-1.4c-0.11-0.54-2.48-1.06-2.59-1.6c-0.17-0.8,1.1-1.57,1.21-2.37c0.19-1.07-1.63-2.08-1.38-3.14
			c0.19-0.83,3.94-1.97,4.14-2.8c0.28-1.1-3.97-1.77-3.97-2.88c0-0.93,1.35-1.81,1.35-2.75c0-0.98-1.52-1.92-1.38-2.9
			c0.14-0.8,3.31-1.12,3.42-1.93c0.08-0.51-2.21-1.43-2.48-1.94c-0.71-1.18-0.83-2.6-0.3-3.86
			C219.62,65.13,219.79,64.95,220.01,64.83z"/>
	</g>
</g>
</svg>
