<?xml version="1.0" encoding="utf-8"?>
<!-- Generator: Adobe Illustrator 24.2.3, SVG Export Plug-In . SVG Version: 6.00 Build 0)  -->
<svg version="1.1" id="Layer_1" xmlns="http://www.w3.org/2000/svg" xmlns:xlink="http://www.w3.org/1999/xlink" x="0px" y="0px"
	 viewBox="0 0 300 125" style="enable-background:new 0 0 300 125;" xml:space="preserve">
<style type="text/css">
	.st0{fill:#848485;}
	.st1{fill:#B2AEA8;}
	.st2{opacity:0.1;enable-background:new    ;}
	.st3{opacity:0.2;enable-background:new    ;}
	.st4{opacity:0.2;fill:#FFFFFF;enable-background:new    ;}
	.st5{fill:#841719;}
	.st6{fill:#B62026;}
	.st7{fill:#CB3131;}
	.st8{fill:#C72128;}
	.st9{opacity:0.2;fill:#E1B1A8;}
	.st10{fill:#CC3634;}
	.st11{fill:#A61E22;}
	.st12{fill:#9B1C1F;}
	.st13{fill:#D03232;}
	.st14{fill:#DA3734;}
	.st15{fill:#D63232;}
	.st16{fill:#D43733;}
	.st17{opacity:0.3;fill:#EC8281;}
	.st18{opacity:0.35;fill:#E4AB9D;}
	.st19{opacity:0.8;}
	.st20{opacity:0.2;fill:#EC8281;}
	.st21{fill:#85311B;}
	.st22{fill:#595A5A;}
	.st23{fill:#9D3E21;}
	.st24{fill:#A54724;}
	.st25{fill:#959595;}
	.st26{fill:#A34023;}
	.st27{fill:#AE4B25;}
	.st28{fill:#A84924;}
	.st29{fill:#BA5727;}
</style>
<g id="Group_5771" transform="translate(-131.594 -28.682)">
	<path id="Path_7041" class="st0" d="M409.72,30.68v30.46H280.9V30.68c0.06-1.16,1.05-2.05,2.2-1.99h124.42
		c1.15-0.06,2.14,0.83,2.2,1.98C409.72,30.67,409.72,30.67,409.72,30.68z"/>
	<path id="Path_7042" class="st0" d="M429.37,153.68h-21.53V35.43h21.53c1.22-0.01,2.22,0.98,2.23,2.2c0,0,0,0,0,0v113.84
		C431.59,152.7,430.59,153.69,429.37,153.68C429.37,153.68,429.37,153.68,429.37,153.68z"/>
	<rect id="Rectangle_24503" x="280.9" y="47.54" class="st0" width="126.93" height="106.13"/>
	<path id="Path_7043" class="st1" d="M412.67,47.54v99.52c-0.07,3.72-3.14,6.68-6.86,6.61H289.25c-3.72,0.07-6.79-2.89-6.86-6.61
		V47.54H412.67z"/>
	<path id="Path_7044" class="st0" d="M282.28,61.13V30.68c-0.06-1.16-1.05-2.04-2.2-1.99H155.66c-1.16-0.06-2.14,0.83-2.2,1.99
		v30.45H282.28z"/>
	<path id="Path_7045" class="st0" d="M155.34,35.43v118.25h-21.51c-1.22,0.01-2.21-0.97-2.23-2.19c0-0.01,0-0.01,0-0.02V37.63
		c0-1.22,0.99-2.21,2.21-2.2c0.01,0,0.01,0,0.02,0H155.34z"/>
	<rect id="Rectangle_24504" x="155.34" y="47.54" class="st0" width="126.93" height="106.13"/>
	<path id="Path_7046" class="st2" d="M405.81,149.27H289.25c-3.72,0.07-6.78-2.89-6.86-6.61v4.41c0.07,3.72,3.14,6.68,6.86,6.61
		h116.56c3.72,0.07,6.78-2.89,6.86-6.61v-4.41C412.59,146.38,409.52,149.34,405.81,149.27z"/>
	<path id="Path_7047" class="st1" d="M157.38,153.68h116.56c3.72,0.07,6.78-2.89,6.86-6.61V47.54H150.52v99.52
		C150.59,150.79,153.66,153.75,157.38,153.68z"/>
	<path id="Path_7048" class="st2" d="M411.17,47.54v13.59h-3.34v15.53H194.39c-12.22-0.07-22.19,9.79-22.27,22.03v43.97
		c-0.04,6.12-5.02,11.05-11.13,11.02h-21.71V57.45c0.02-7.99,4.37-15.33,11.36-19.19c1.06-0.61,2.18-1.12,3.34-1.52
		c2.43-0.88,4.99-1.33,7.57-1.32H407.9v10.42c0,0.57-0.04,1.14-0.13,1.7L411.17,47.54z"/>
	<path id="Path_7049" class="st2" d="M273.94,149.27H157.38c-3.72,0.07-6.78-2.89-6.86-6.61v4.41c0.07,3.72,3.14,6.68,6.86,6.61
		h116.56c3.72,0.07,6.78-2.89,6.86-6.61v-4.41C280.72,146.38,277.65,149.34,273.94,149.27z"/>
	<path id="Path_7050" class="st3" d="M158.87,131.65V57.46c0-12.17-6.11-22.03-13.64-22.03h-6.82c-3.76,0-6.82,3.94-6.82,8.81
		v100.63c0,4.87,3.05,8.81,6.82,8.81h6.82C152.77,153.68,158.87,143.81,158.87,131.65z"/>
	<path id="Path_7051" class="st3" d="M280.79,58.93V37.17c0-2.43-1.97-4.41-4.4-4.41l0,0H159.7c-2.43,0-4.4,1.97-4.41,4.4
		c0,0,0,0,0,0v10.88c0,8.44,9.86,15.28,22.02,15.28h99.03C278.79,63.35,280.78,61.37,280.79,58.93z"/>
	<path id="Path_7052" class="st1" d="M155.29,34.96v10.88c0,8.44,9.86,15.29,22.03,15.29h99.03c2.44,0.01,4.43-1.96,4.45-4.41V34.96
		c-0.01-2.43-1.98-4.4-4.41-4.41H159.7C157.27,30.56,155.29,32.53,155.29,34.96z"/>
	<path id="Path_7053" class="st4" d="M276.39,30.55H159.7c-2.43,0-4.4,1.97-4.41,4.41v4.41c0.01-2.43,1.98-4.4,4.41-4.41h116.69
		c2.43,0,4.4,1.97,4.41,4.41v-4.41C280.79,32.53,278.82,30.56,276.39,30.55z"/>
	<path id="Path_7054" class="st2" d="M276.34,56.72h-99.03c-12.16,0-22.03-6.85-22.03-15.29v4.41c0,8.44,9.86,15.29,22.03,15.29
		h99.03c2.44,0.01,4.43-1.96,4.45-4.41v-4.41C280.77,54.76,278.78,56.73,276.34,56.72z"/>
	<path id="Path_7055" class="st1" d="M156.92,131.65V57.46c0-12.17-5.67-22.03-12.67-22.03h-6.33c-3.49,0-6.33,3.94-6.33,8.81
		v100.63c0,4.87,2.83,8.81,6.33,8.81h6.34C151.26,153.68,156.92,143.81,156.92,131.65z"/>
	<path id="Path_7056" class="st3" d="M404.31,131.65V57.46c0-12.17,6.11-22.03,13.64-22.03h6.82c3.77,0,6.82,3.94,6.82,8.81v100.63
		c0,4.87-3.05,8.81-6.82,8.81h-6.82C410.42,153.68,404.31,143.81,404.31,131.65z"/>
	<path id="Path_7057" class="st3" d="M282.39,58.93V37.17c0-2.43,1.97-4.4,4.4-4.41c0,0,0,0,0,0h116.7c2.43,0,4.4,1.97,4.4,4.4
		c0,0,0,0,0,0v10.88c0,8.44-9.86,15.28-22.02,15.28h-99.03C284.4,63.35,282.41,61.37,282.39,58.93
		C282.39,58.93,282.39,58.93,282.39,58.93z"/>
	<path id="Path_7058" class="st1" d="M407.9,34.96v10.88c0,0.57-0.05,1.14-0.14,1.7c-1.22,7.64-10.56,13.59-21.89,13.59h-99.03
		c-2.44,0.01-4.43-1.96-4.45-4.41V34.96c0.01-2.43,1.98-4.4,4.41-4.41h116.69C405.92,30.56,407.89,32.53,407.9,34.96z"/>
	<path id="Path_7059" class="st4" d="M403.49,30.55H286.8c-2.43,0-4.4,1.97-4.41,4.41v4.41c0.01-2.43,1.98-4.4,4.41-4.41h116.69
		c2.43,0,4.4,1.97,4.41,4.41v-4.41C407.89,32.53,405.92,30.56,403.49,30.55z"/>
	<path id="Path_7060" class="st2" d="M385.88,56.72h-99.03c-2.44,0.01-4.43-1.96-4.45-4.41v4.41c0.02,2.44,2.01,4.41,4.45,4.41
		h99.03c12.16,0,22.02-6.85,22.02-15.29v-4.4C407.9,49.87,398.03,56.72,385.88,56.72z"/>
	<path id="Path_7061" class="st1" d="M406.26,131.65V57.46c0-12.17,5.67-22.03,12.66-22.03h6.33c3.49,0,6.33,3.94,6.33,8.81v100.63
		c0,4.87-2.84,8.81-6.33,8.81h-6.33C411.94,153.68,406.26,143.81,406.26,131.65z"/>
	<path id="Path_7062" class="st2" d="M144.26,35.43h-4.45c7,0,10.44,9.86,10.44,22.03v74.19c0,12.16-3.44,22.03-10.44,22.03h4.45
		c7,0,12.67-9.86,12.67-22.03V57.46C156.92,45.29,151.26,35.43,144.26,35.43z"/>
	<path id="Path_7063" class="st2" d="M425.26,35.43h-4.45c3.49,0,6.33,3.94,6.33,8.81v100.63c0,4.87-2.84,8.81-6.33,8.81h4.45
		c3.49,0,6.33-3.94,6.33-8.81V44.24C431.59,39.37,428.76,35.43,425.26,35.43z"/>
	<path id="Path_7064" class="st4" d="M136.05,144.87V44.24c0-4.87,2.83-8.81,6.33-8.81h-4.45c-3.49,0-6.33,3.94-6.33,8.81v100.63
		c0,4.87,2.83,8.81,6.33,8.81h4.45C138.88,153.68,136.05,149.73,136.05,144.87z"/>
	<path id="Path_7065" class="st4" d="M410.72,131.65V57.46c0-12.17,5.67-22.03,12.66-22.03h-4.45c-6.99,0-12.66,9.86-12.66,22.03
		v74.19c0,12.16,5.67,22.03,12.66,22.03h4.45C416.39,153.68,410.72,143.81,410.72,131.65z"/>
</g>
</svg>
