<!-- Generated by IcoMoon.io -->
<svg version="1.1" xmlns="http://www.w3.org/2000/svg" width="1479" height="1024" viewBox="0 0 1479 1024">
<title></title>
<g id="icomoon-ignore">
</g>
<path fill="#fff" d="M896 1009.778h-824.889v-369.778l412.444-241.778 412.444 241.778v369.778z"></path>
<path fill="#48566c" d="M910.222 1024h-853.333v-392.533l426.667-250.311 426.667 250.311v392.533zM85.333 995.556h796.444v-347.022l-398.222-233.244-398.222 233.244v347.022z"></path>
<path fill="#fff" d="M483.556 327.111l-455.111 270.222v71.111l42.667-28.444 412.444-241.778 412.444 241.778 56.889 28.444v-71.111l-469.333-270.222z"></path>
<path fill="#48566c" d="M14.222 695.467v-105.244l469.333-278.756 483.556 278.756v102.4l-76.8-38.4-406.756-237.511-405.333 237.511-64 41.244zM483.556 381.156l419.556 246.044 35.556 17.067v-39.822l-455.111-261.689-440.889 261.689v36.978l19.911-14.222 420.978-246.044z"></path>
<path fill="#000" d="M0 1009.778h967.111z"></path>
<path fill="#48566c" d="M0 995.556h967.111v28.444h-967.111v-28.444z"></path>
<path fill="#48566c" d="M298.667 654.222h398.222v369.778h-398.222v-369.778z"></path>
<path fill="#fff" d="M270.222 625.778h455.111v71.111h-455.111v-71.111z"></path>
<path fill="#48566c" d="M739.556 711.111h-483.556v-99.556h483.556v99.556zM284.444 682.667h426.667v-42.667h-426.667v42.667z"></path>
<path fill="#fff" d="M1095.111 312.889h341.333v341.333h-341.333v-341.333z"></path>
<path fill="#48566c" d="M1436.444 654.222h-341.333v-341.333h341.333v341.333zM1123.556 625.778h284.444v-284.444h-284.444v284.444z"></path>
<path fill="#fff" d="M1052.444 967.111h426.667v56.889h-426.667v-56.889z"></path>
<path fill="#48566c" d="M1052.444 967.111h426.667v56.889h-426.667v-56.889z"></path>
<path fill="#fff" d="M1223.111 625.778h85.333v369.778h-85.333v-369.778z"></path>
<path fill="#48566c" d="M1308.444 995.556h-85.333v-369.778h85.333v369.778zM1251.556 967.111h28.444v-312.889h-28.444v312.889z"></path>
<path fill="#fff" d="M1109.077 472.334l-611.556-393.956v-55.467l611.556 298.667v150.756z"></path>
<path fill="#48566c" d="M511.744 45.668v24.178l583.111 375.467v-115.2l-583.111-284.444zM483.3 0.156l640 312.889v184.889l-640-412.444v-85.333z"></path>
<path fill="#48566c" d="M483.556 14.222h28.444v184.889h-28.444v-184.889z"></path>
<path fill="#48566c" d="M455.111 156.444h85.333v28.444h-85.333v-28.444z"></path>
<path fill="#fff" d="M494.933 214.756c12.8-2.844 24.178-1.422 35.556 4.267 28.444 12.8 41.244 46.933 27.022 75.378-12.8 28.444-46.933 41.244-75.378 27.022-12.8-5.689-22.756-15.644-27.022-28.444z"></path>
<path fill="#48566c" d="M506.311 341.333c-9.956 0-19.911-2.844-29.867-7.111-15.644-7.111-27.022-19.911-34.133-34.133l25.6-11.378c4.267 8.533 11.378 17.067 21.333 21.333 21.333 9.956 46.933 0 56.889-21.333s0-46.933-21.333-56.889c-8.533-4.267-18.489-5.689-27.022-2.844l-5.689-28.444c15.644-2.844 31.289-1.422 45.511 5.689 35.556 17.067 51.2 58.311 34.133 93.867-12.8 25.6-38.4 41.244-65.422 41.244z"></path>
</svg>
