<svg xmlns="http://www.w3.org/2000/svg" width="245" height="78" viewBox="0 0 245 78">
  <g id="Group_6648" data-name="Group 6648" transform="translate(-670 -1156)">
    <g id="timely-delivery" transform="translate(605 500)">
      <path id="Path" d="M730,332v38h38V350l-16-18Z" transform="translate(-574 356)" fill="#fff" stroke="#101010" stroke-miterlimit="10" stroke-width="2"/>
      <path id="Path-2" data-name="Path" d="M746,338h-7v9h14Z" transform="translate(-574 356)" fill="#101010" stroke="#101010" stroke-miterlimit="10" stroke-width="2"/>
      <circle id="Ellipse" cx="7" cy="7" r="7" transform="translate(109 718)" fill="#fff" stroke="#101010" stroke-miterlimit="10" stroke-width="2"/>
      <circle id="Ellipse-2" data-name="Ellipse" cx="7" cy="7" r="7" transform="translate(84 718)" fill="#fff" stroke="#101010" stroke-miterlimit="10" stroke-width="2"/>
      <rect id="Rectangle" width="90" height="50" stroke-width="2" fill="#fff" stroke="#101010" stroke-miterlimit="10" transform="translate(66 676)"/>
      <circle id="Ellipse-3" data-name="Ellipse" cx="7" cy="7" r="7" transform="translate(102 719)" fill="#fff" stroke="#101010" stroke-miterlimit="10" stroke-width="2"/>
      <circle id="Ellipse-4" data-name="Ellipse" cx="3" cy="3" r="3" transform="translate(106 723)" fill="#101010"/>
      <circle id="Ellipse-5" data-name="Ellipse" cx="7" cy="7" r="7" transform="translate(77 719)" fill="#fff" stroke="#101010" stroke-miterlimit="10" stroke-width="2"/>
      <circle id="Ellipse-6" data-name="Ellipse" cx="3" cy="3" r="3" transform="translate(81 723)" fill="#101010"/>
      <circle id="Ellipse-7" data-name="Ellipse" cx="7" cy="7" r="7" transform="translate(169 719)" fill="#fff" stroke="#101010" stroke-miterlimit="10" stroke-width="2"/>
      <circle id="Ellipse-8" data-name="Ellipse" cx="3" cy="3" r="3" transform="translate(173 723)" fill="#101010"/>
      <circle id="Ellipse-9" data-name="Ellipse" cx="13" cy="13" r="13" transform="translate(140 665)" fill="#fff" stroke="#101010" stroke-miterlimit="10" stroke-width="2"/>
      <path id="Path-3" data-name="Path" d="M727.1,314.276v8l5,6" transform="translate(-574.1 355.724)" fill="none" stroke="#101010" stroke-miterlimit="10" stroke-width="2"/>
    </g>
    <g id="building-installation" transform="translate(491 495)">
      <g id="Content" transform="translate(-658 333)">
        <g id="Building">
          <path id="Path-4" data-name="Path" d="M-346.477,1087.594h-58v-26l29-17,29,17Z" transform="translate(1387.477 -688.595)" fill="#fff" stroke="#101010" stroke-miterlimit="10" stroke-width="2"/>
          <path id="Path-5" data-name="Path" d="M-375.972,1039.365l-32,19v5l3-2,29-17,29,17,4,2v-5Z" transform="translate(1387.972 -688.365)" fill="#fff" stroke="#101010" stroke-miterlimit="10" stroke-width="2"/>
          <path id="Line" d="M0,0H68" transform="translate(978 399)" fill="rgba(60,59,110,0)" stroke="#101010" stroke-width="2"/>
          <rect id="Rectangle-2" data-name="Rectangle" width="28" height="26" transform="translate(999 374)" fill="#101010"/>
          <rect id="Rectangle-3" data-name="Rectangle" width="32" height="5" transform="translate(997 372)" fill="#fff" stroke="#101010" stroke-miterlimit="10" stroke-width="2"/>
        </g>
        <g id="C1" transform="translate(-60 14)">
          <g id="Rectangle-4" data-name="Rectangle" transform="translate(1115 336)" fill="#fff" stroke="#101010" stroke-miterlimit="10" stroke-width="2">
            <rect width="24" height="24" stroke="none"/>
            <rect x="1" y="1" width="22" height="22" fill="none"/>
          </g>
          <g id="Rectangle-5" data-name="Rectangle" transform="translate(1112 382)" fill="#fff" stroke="#101010" stroke-miterlimit="10" stroke-width="2">
            <rect width="30" height="4" stroke="none"/>
            <rect x="1" y="1" width="28" height="2" fill="none"/>
          </g>
          <g id="Rectangle-6" data-name="Rectangle" transform="translate(1124 358)" fill="#fff" stroke="#101010" stroke-miterlimit="10" stroke-width="2">
            <rect width="6" height="26" stroke="none"/>
            <rect x="1" y="1" width="4" height="24" fill="none"/>
          </g>
          <g id="Path-6" data-name="Path" transform="translate(1312.682 -718.289)" fill="#fff" stroke-miterlimit="10">
            <path d="M -196.68212890625 1065.45458984375 L -239.6819763183594 1037.743408203125 L -239.6820831298828 1033.890747070312 L -196.68212890625 1054.912963867188 L -196.68212890625 1065.45458984375 Z" stroke="none"/>
            <path d="M -238.6820373535156 1035.49267578125 L -238.6819915771484 1037.1982421875 L -197.68212890625 1063.620483398438 L -197.68212890625 1055.537109375 L -238.6820373535156 1035.49267578125 M -240.68212890625 1032.288696289062 L -195.68212890625 1054.288696289062 L -195.68212890625 1067.288696289062 L -240.6819610595703 1038.288696289062 L -240.68212890625 1032.288696289062 Z" stroke="none" fill="#101010"/>
          </g>
          <line id="Line-2" data-name="Line" y2="13" transform="translate(1073 315)" fill="none" stroke="#101010" stroke-miterlimit="10" stroke-width="2"/>
          <line id="Line-3" data-name="Line" x2="6" transform="translate(1070 326)" fill="none" stroke="#101010" stroke-miterlimit="10" stroke-width="2"/>
          <path id="Path-7" data-name="Path" d="M-62.682,1072.712a3.982,3.982,0,0,1,2.528.286,4,4,0,0,1,1.934,5.314,4,4,0,0,1-5.314,1.935,3.983,3.983,0,0,1-1.945-1.957" transform="translate(1135.479 -743.622)" fill="#fff" stroke="#101010" stroke-miterlimit="10" stroke-width="2"/>
        </g>
      </g>
    </g>
  </g>
</svg>
