<svg xmlns="http://www.w3.org/2000/svg" width="18" height="18" viewBox="0 0 18 18">
  <path id="Path_20109" data-name="Path 20109" d="M23.3,12.9l-7.59-6.925a.253.253,0,0,0-.245-.042.191.191,0,0,0-.139.175L15.34,9.4c-3.836.061-9.977,3.48-9.977,14.3a.213.213,0,0,0,.181.214l.029,0a.212.212,0,0,0,.2-.155,10.229,10.229,0,0,1,8.95-7.089c.26,0,.47.007.615.012l-.011,3.332a.192.192,0,0,0,.139.176.254.254,0,0,0,.245-.042L23.3,13.2A.221.221,0,0,0,23.3,12.9Z" transform="translate(-5.363 -5.915)" fill="#48566c"/>
</svg>
