<?xml version="1.0" encoding="utf-8"?>
<!-- Generator: Adobe Illustrator 25.0.1, SVG Export Plug-In . SVG Version: 6.00 Build 0)  -->
<svg version="1.1" id="Layer_1" xmlns="http://www.w3.org/2000/svg" xmlns:xlink="http://www.w3.org/1999/xlink" x="0px" y="0px"
	 viewBox="0 0 42 30" style="enable-background:new 0 0 42 30;" xml:space="preserve">
<style type="text/css">
	.st0{fill:none;}
	.st1{fill:#FFFFFF;}
</style>
<path d="M37,18h-9v-6h4.5L37,18z M30,16h3l-1.5-2H30V16z"/>
<path d="M16.8,26H24h2h16v-9.3L34.7,9h-4.5C30.7,8.1,31,7.1,31,6c0-3.3-2.7-6-6-6c-2.6,0-4.8,1.7-5.6,4H0v22h3.1 M25,2
	c2.2,0,4,1.8,4,4c0,1.2-0.5,2.3-1.4,3c-0.7,0.6-1.6,1-2.6,1c-0.3,0-0.7-0.1-1-0.1c-1.7-0.4-3-2-3-3.9C21,3.8,22.8,2,25,2z M24,24H2
	V6h17c0,3,2.2,5.4,5,5.9V24z M40,24H26V11.9c0.8-0.1,1.6-0.5,2.3-0.9h5.5l6.2,6.5V24z"/>
<path d="M25,12c-3.3,0-6-2.7-6-6s2.7-6,6-6s6,2.7,6,6S28.3,12,25,12z M25,2c-2.2,0-4,1.8-4,4s1.8,4,4,4s4-1.8,4-4S27.2,2,25,2z"/>
<polygon points="26,8.6 24,6.2 24,3 26,3 26,5.5 27.6,7.4 "/>
<path class="st0" d="M26,24h14v-6.5L33.8,11h-5.5c-0.7,0.5-1.5,0.8-2.3,0.9V24z"/>
<path d="M10.4,24H5.5c-0.7,0.6-1.1,1.5-1.1,2.5C4.4,28.4,6,30,7.9,30s3.5-1.6,3.5-3.5C11.4,25.5,11,24.6,10.4,24z"/>
<path d="M8.9,24c-0.5,0.5-0.8,1.2-0.8,2c0,1.6,1.4,3,3,3s3-1.4,3-3c0-0.8-0.3-1.5-0.8-2H8.9z M11.1,27c-0.5,0-1-0.5-1-1s0.5-1,1-1
	s1,0.5,1,1S11.6,27,11.1,27z"/>
<circle class="st1" cx="7.9" cy="26.5" r="1.5"/>
<path d="M35.4,24h-4.8c-0.7,0.6-1.1,1.5-1.1,2.5c0,1.9,1.6,3.5,3.5,3.5c1.9,0,3.5-1.6,3.5-3.5C36.5,25.5,36.1,24.6,35.4,24z"/>
<path d="M33.9,24c-0.5,0.5-0.8,1.2-0.8,2c0,1.6,1.4,3,3,3s3-1.4,3-3c0-0.8-0.3-1.5-0.8-2H33.9z M36.1,27c-0.5,0-1-0.5-1-1s0.5-1,1-1
	s1,0.5,1,1S36.7,27,36.1,27z"/>
<circle class="st1" cx="33" cy="26.5" r="1.5"/>
<path d="M16.9,26"/>
</svg>
