{
    "asset" : {
        "generator" : "Khronos glTF Blender I/O v1.7.33",
        "version" : "2.0"
    },
    "scene" : 0,
    "scenes" : [
        {
            "name" : "Scene",
            "nodes" : [
                0,
                1,
                2
            ]
        }
    ],
    "nodes" : [
        {
            "mesh" : 0,
            "name" : "door",
            "rotation" : [
                0,
                0,
                -0.7071068286895752,
                0.7071067094802856
            ],
            "scale" : [
                3.000000476837158,
                1.534477710723877,
                1.5
            ]
        },
        {
            "mesh" : 1,
            "name" : "Plane",
            "rotation" : [
                0,
                0,
                -0.7071068286895752,
                0.7071067094802856
            ],
            "scale" : [
                1.5699999332427979,
                1.6000001430511475,
                1.1699999570846558
            ]
        },
        {
            "mesh" : 2,
            "name" : "trims",
            "rotation" : [
                0.7071068286895752,
                0,
                0,
                0.7071067094802856
            ],
            "scale" : [
                0.14574360847473145,
                1.5700000524520874,
                0.050000015646219254
            ]
        }
    ],
    "materials" : [
        {
            "doubleSided" : true,
            "emissiveFactor" : [
                0.18000000715255737,
                0.18000000715255737,
                0.18000000715255737
            ],
            "name" : "Material.004",
            "pbrMetallicRoughness" : {
                "baseColorTexture" : {
                    "index" : 0
                },
                "metallicFactor" : 0,
                "roughnessFactor" : 0.5
            }
        },
        {
            "doubleSided" : true,
            "name" : "Material.005",
            "pbrMetallicRoughness" : {
                "baseColorTexture" : {
                    "index" : 1
                },
                "metallicFactor" : 0,
                "roughnessFactor" : 0.5
            }
        },
        {
            "doubleSided" : true,
            "emissiveFactor" : [
                1,
                1,
                1
            ],
            "name" : "trims.004",
            "pbrMetallicRoughness" : {}
        }
    ],
    "meshes" : [
        {
            "name" : "Plane.004",
            "primitives" : [
                {
                    "attributes" : {
                        "POSITION" : 0,
                        "NORMAL" : 1,
                        "TEXCOORD_0" : 2
                    },
                    "indices" : 3,
                    "material" : 0
                }
            ]
        },
        {
            "name" : "Plane.005",
            "primitives" : [
                {
                    "attributes" : {
                        "POSITION" : 4,
                        "NORMAL" : 5,
                        "TEXCOORD_0" : 6
                    },
                    "indices" : 7,
                    "material" : 1
                }
            ]
        },
        {
            "name" : "trims.004",
            "primitives" : [
                {
                    "attributes" : {
                        "POSITION" : 8,
                        "NORMAL" : 9,
                        "TEXCOORD_0" : 10
                    },
                    "indices" : 11,
                    "material" : 2
                }
            ]
        }
    ],
    "textures" : [
        {
            "sampler" : 0,
            "source" : 0
        },
        {
            "sampler" : 0,
            "source" : 1
        }
    ],
    "images" : [
        {
            "bufferView" : 4,
            "mimeType" : "image/jpeg",
            "name" : "Image_0"
        },
        {
            "bufferView" : 9,
            "mimeType" : "image/jpeg",
            "name" : "ImagesDoorsGlass"
        }
    ],
    "accessors" : [
        {
            "bufferView" : 0,
            "componentType" : 5126,
            "count" : 1211,
            "max" : [
                0.9999999403953552,
                0.03876493498682976,
                0.9999999403953552
            ],
            "min" : [
                -1,
                -0.12352096289396286,
                -1
            ],
            "type" : "VEC3"
        },
        {
            "bufferView" : 1,
            "componentType" : 5126,
            "count" : 1211,
            "type" : "VEC3"
        },
        {
            "bufferView" : 2,
            "componentType" : 5126,
            "count" : 1211,
            "type" : "VEC2"
        },
        {
            "bufferView" : 3,
            "componentType" : 5123,
            "count" : 1236,
            "type" : "SCALAR"
        },
        {
            "bufferView" : 5,
            "componentType" : 5126,
            "count" : 378,
            "max" : [
                0.22707802057266235,
                0.0014835973270237446,
                0.9640545845031738
            ],
            "min" : [
                -1.7729220390319824,
                -0.09851638972759247,
                -1.0359454154968262
            ],
            "type" : "VEC3"
        },
        {
            "bufferView" : 6,
            "componentType" : 5126,
            "count" : 378,
            "type" : "VEC3"
        },
        {
            "bufferView" : 7,
            "componentType" : 5126,
            "count" : 378,
            "type" : "VEC2"
        },
        {
            "bufferView" : 8,
            "componentType" : 5123,
            "count" : 396,
            "type" : "SCALAR"
        },
        {
            "bufferView" : 10,
            "componentType" : 5126,
            "count" : 88,
            "max" : [
                0.5868840217590332,
                1.011192798614502,
                60
            ],
            "min" : [
                -1.485196590423584,
                -0.991571307182312,
                -60.1415901184082
            ],
            "type" : "VEC3"
        },
        {
            "bufferView" : 11,
            "componentType" : 5126,
            "count" : 88,
            "type" : "VEC3"
        },
        {
            "bufferView" : 12,
            "componentType" : 5126,
            "count" : 88,
            "type" : "VEC2"
        },
        {
            "bufferView" : 13,
            "componentType" : 5123,
            "count" : 108,
            "type" : "SCALAR"
        }
    ],
    "bufferViews" : [
        {
            "buffer" : 0,
            "byteLength" : 14532,
            "byteOffset" : 0
        },
        {
            "buffer" : 0,
            "byteLength" : 14532,
            "byteOffset" : 14532
        },
        {
            "buffer" : 0,
            "byteLength" : 9688,
            "byteOffset" : 29064
        },
        {
            "buffer" : 0,
            "byteLength" : 2472,
            "byteOffset" : 38752
        },
        {
            "buffer" : 0,
            "byteLength" : 81703,
            "byteOffset" : 41224
        },
        {
            "buffer" : 0,
            "byteLength" : 4536,
            "byteOffset" : 122928
        },
        {
            "buffer" : 0,
            "byteLength" : 4536,
            "byteOffset" : 127464
        },
        {
            "buffer" : 0,
            "byteLength" : 3024,
            "byteOffset" : 132000
        },
        {
            "buffer" : 0,
            "byteLength" : 792,
            "byteOffset" : 135024
        },
        {
            "buffer" : 0,
            "byteLength" : 18795,
            "byteOffset" : 135816
        },
        {
            "buffer" : 0,
            "byteLength" : 1056,
            "byteOffset" : 154612
        },
        {
            "buffer" : 0,
            "byteLength" : 1056,
            "byteOffset" : 155668
        },
        {
            "buffer" : 0,
            "byteLength" : 704,
            "byteOffset" : 156724
        },
        {
            "buffer" : 0,
            "byteLength" : 216,
            "byteOffset" : 157428
        }
    ],
    "samplers" : [
        {
            "magFilter" : 9729,
            "minFilter" : 9987
        }
    ],
    "buffers" : [
        {
            "byteLength" : 157644,
            "uri" : "data:application/octet-stream;base64,"
        }
    ]
}
