{
    "asset" : {
        "generator" : "Khronos glTF Blender I/O v3.2.43",
        "version" : "2.0"
    },
    "scene" : 0,
    "scenes" : [
        {
            "name" : "Scene",
            "nodes" : [
                0,
                1,
                2
            ]
        }
    ],
    "nodes" : [
        {
            "mesh" : 0,
            "name" : "door",
            "rotation" : [
                0,
                0,
                -0.7071068286895752,
                0.7071067094802856
            ],
            "scale" : [
                3.000000476837158,
                1.534477710723877,
                1.5
            ],
            "translation" : [
                0.04992055892944336,
                0,
                0
            ]
        },
        {
            "mesh" : 1,
            "name" : "Plane",
            "rotation" : [
                0,
                0,
                -0.7071068286895752,
                0.7071067094802856
            ],
            "scale" : [
                1.5699999332427979,
                1.6000001430511475,
                1.1699999570846558
            ],
            "translation" : [
                0.010467409156262875,
                1.2134873867034912,
                -0.04205610603094101
            ]
        },
        {
            "mesh" : 2,
            "name" : "trims",
            "rotation" : [
                0.7071068286895752,
                0,
                0,
                0.7071067094802856
            ],
            "scale" : [
                0.14574360847473145,
                1.5700000524520874,
                0.050000015646219254
            ],
            "translation" : [
                -0.047570765018463135,
                2.957080364227295,
                0.014678332954645157
            ]
        }
    ],
    "materials" : [
        {
            "doubleSided" : true,
            "name" : "Material.004",
            "pbrMetallicRoughness" : {
                "baseColorTexture" : {
                    "index" : 0
                },
                "metallicFactor" : 0,
                "roughnessFactor" : 0.5
            }
        },
        {
            "doubleSided" : true,
            "name" : "Material.005",
            "pbrMetallicRoughness" : {
                "baseColorTexture" : {
                    "index" : 1
                },
                "metallicFactor" : 0,
                "roughnessFactor" : 0.5
            }
        },
        {
            "doubleSided" : true,
            "emissiveFactor" : [
                1,
                1,
                1
            ],
            "name" : "trims.004",
            "pbrMetallicRoughness" : {}
        }
    ],
    "meshes" : [
        {
            "name" : "Plane.004",
            "primitives" : [
                {
                    "attributes" : {
                        "POSITION" : 0,
                        "NORMAL" : 1,
                        "TEXCOORD_0" : 2
                    },
                    "indices" : 3,
                    "material" : 0
                }
            ]
        },
        {
            "name" : "Plane.005",
            "primitives" : [
                {
                    "attributes" : {
                        "POSITION" : 4,
                        "NORMAL" : 5,
                        "TEXCOORD_0" : 6
                    },
                    "indices" : 7,
                    "material" : 1
                }
            ]
        },
        {
            "name" : "trims.004",
            "primitives" : [
                {
                    "attributes" : {
                        "POSITION" : 8,
                        "NORMAL" : 9,
                        "TEXCOORD_0" : 10
                    },
                    "indices" : 11,
                    "material" : 2
                }
            ]
        }
    ],
    "textures" : [
        {
            "sampler" : 0,
            "source" : 0
        },
        {
            "sampler" : 0,
            "source" : 1
        }
    ],
    "images" : [
        {
            "bufferView" : 4,
            "mimeType" : "image/jpeg",
            "name" : "Image_0"
        },
        {
            "bufferView" : 9,
            "mimeType" : "image/png",
            "name" : "Image_1"
        }
    ],
    "accessors" : [
        {
            "bufferView" : 0,
            "componentType" : 5126,
            "count" : 1185,
            "max" : [
                0.9999999403953552,
                0.006232328712940216,
                0.9999999403953552
            ],
            "min" : [
                -1,
                -0.1560535728931427,
                -1
            ],
            "type" : "VEC3"
        },
        {
            "bufferView" : 1,
            "componentType" : 5126,
            "count" : 1185,
            "type" : "VEC3"
        },
        {
            "bufferView" : 2,
            "componentType" : 5126,
            "count" : 1185,
            "type" : "VEC2"
        },
        {
            "bufferView" : 3,
            "componentType" : 5123,
            "count" : 1236,
            "type" : "SCALAR"
        },
        {
            "bufferView" : 5,
            "componentType" : 5126,
            "count" : 348,
            "max" : [
                1,
                -0.005058431066572666,
                1
            ],
            "min" : [
                -1,
                -0.10505841672420502,
                -1
            ],
            "type" : "VEC3"
        },
        {
            "bufferView" : 6,
            "componentType" : 5126,
            "count" : 348,
            "type" : "VEC3"
        },
        {
            "bufferView" : 7,
            "componentType" : 5126,
            "count" : 348,
            "type" : "VEC2"
        },
        {
            "bufferView" : 8,
            "componentType" : 5123,
            "count" : 396,
            "type" : "SCALAR"
        },
        {
            "bufferView" : 10,
            "componentType" : 5126,
            "count" : 88,
            "max" : [
                0.9132843613624573,
                1.001843810081482,
                119.14158630371094
            ],
            "min" : [
                -1.1587963104248047,
                -1.000920295715332,
                -1.0000038146972656
            ],
            "type" : "VEC3"
        },
        {
            "bufferView" : 11,
            "componentType" : 5126,
            "count" : 88,
            "type" : "VEC3"
        },
        {
            "bufferView" : 12,
            "componentType" : 5126,
            "count" : 88,
            "type" : "VEC2"
        },
        {
            "bufferView" : 13,
            "componentType" : 5123,
            "count" : 108,
            "type" : "SCALAR"
        }
    ],
    "bufferViews" : [
        {
            "buffer" : 0,
            "byteLength" : 14220,
            "byteOffset" : 0
        },
        {
            "buffer" : 0,
            "byteLength" : 14220,
            "byteOffset" : 14220
        },
        {
            "buffer" : 0,
            "byteLength" : 9480,
            "byteOffset" : 28440
        },
        {
            "buffer" : 0,
            "byteLength" : 2472,
            "byteOffset" : 37920
        },
        {
            "buffer" : 0,
            "byteLength" : 81703,
            "byteOffset" : 40392
        },
        {
            "buffer" : 0,
            "byteLength" : 4176,
            "byteOffset" : 122096
        },
        {
            "buffer" : 0,
            "byteLength" : 4176,
            "byteOffset" : 126272
        },
        {
            "buffer" : 0,
            "byteLength" : 2784,
            "byteOffset" : 130448
        },
        {
            "buffer" : 0,
            "byteLength" : 792,
            "byteOffset" : 133232
        },
        {
            "buffer" : 0,
            "byteLength" : 1778,
            "byteOffset" : 134024
        },
        {
            "buffer" : 0,
            "byteLength" : 1056,
            "byteOffset" : 135804
        },
        {
            "buffer" : 0,
            "byteLength" : 1056,
            "byteOffset" : 136860
        },
        {
            "buffer" : 0,
            "byteLength" : 704,
            "byteOffset" : 137916
        },
        {
            "buffer" : 0,
            "byteLength" : 216,
            "byteOffset" : 138620
        }
    ],
    "samplers" : [
        {
            "magFilter" : 9729,
            "minFilter" : 9987
        }
    ],
    "buffers" : [
        {
            "byteLength" : 138836,
            "uri" : "data:application/octet-stream;base64,"
        }
    ]
}
