{
    "asset" : {
        "generator" : "Khronos glTF Blender I/O v1.7.33",
        "version" : "2.0"
    },
    "scene" : 0,
    "scenes" : [
        {
            "name" : "Scene",
            "nodes" : [
                0,
                1,
                2
            ]
        }
    ],
    "nodes" : [
        {
            "mesh" : 0,
            "name" : "door",
            "rotation" : [
                0,
                0,
                -0.7071068286895752,
                0.7071067094802856
            ],
            "scale" : [
                3.000000476837158,
                0.7672899961471558,
                1.5
            ],
            "translation" : [
                0.015599526464939117,
                1.7848501205444336,
                -0.00042800145456567407
            ]
        },
        {
            "mesh" : 1,
            "name" : "Glass",
            "rotation" : [
                0,
                0,
                -0.7071068286895752,
                0.7071067094802856
            ],
            "scale" : [
                0.2900000512599945,
                3.333333969116211,
                1.0400002002716064
            ],
            "translation" : [
                0.14659591019153595,
                2.362913131713867,
                0.014351744204759598
            ]
        },
        {
            "mesh" : 2,
            "name" : "trims",
            "rotation" : [
                0.7071068286895752,
                0,
                0,
                0.7071067094802856
            ],
            "scale" : [
                0.14574360847473145,
                1.5700000524520874,
                0.050000015646219254
            ],
            "translation" : [
                0.02626950293779373,
                2.957080364227295,
                0.014678332954645157
            ]
        }
    ],
    "materials" : [
        {
            "doubleSided" : true,
            "name" : "Material.005",
            "pbrMetallicRoughness" : {
                "baseColorTexture" : {
                    "index" : 0
                },
                "metallicFactor" : 0,
                "roughnessFactor" : 0.5
            }
        },
        {
            "doubleSided" : true,
            "name" : "Material.009",
            "pbrMetallicRoughness" : {
                "baseColorTexture" : {
                    "index" : 1
                },
                "metallicFactor" : 0,
                "roughnessFactor" : 0.5
            }
        },
        {
            "doubleSided" : true,
            "emissiveFactor" : [
                1,
                1,
                1
            ],
            "name" : "trims.001",
            "pbrMetallicRoughness" : {}
        }
    ],
    "meshes" : [
        {
            "name" : "doors",
            "primitives" : [
                {
                    "attributes" : {
                        "POSITION" : 0,
                        "NORMAL" : 1,
                        "TEXCOORD_0" : 2
                    },
                    "indices" : 3,
                    "material" : 0
                }
            ]
        },
        {
            "name" : "glass.001",
            "primitives" : [
                {
                    "attributes" : {
                        "POSITION" : 4,
                        "NORMAL" : 5,
                        "TEXCOORD_0" : 6
                    },
                    "indices" : 7,
                    "material" : 1
                }
            ]
        },
        {
            "name" : "trims.001",
            "primitives" : [
                {
                    "attributes" : {
                        "POSITION" : 8,
                        "NORMAL" : 9,
                        "TEXCOORD_0" : 10
                    },
                    "indices" : 11,
                    "material" : 2
                }
            ]
        }
    ],
    "textures" : [
        {
            "sampler" : 0,
            "source" : 0
        },
        {
            "sampler" : 0,
            "source" : 1
        }
    ],
    "images" : [
        {
            "bufferView" : 4,
            "mimeType" : "image/png",
            "name" : "Image_0"
        },
        {
            "bufferView" : 9,
            "mimeType" : "image/png",
            "name" : "Image_1"
        }
    ],
    "accessors" : [
        {
            "bufferView" : 0,
            "componentType" : 5126,
            "count" : 941,
            "max" : [
                1.5949492454528809,
                0.0573870912194252,
                0.9986275434494019
            ],
            "min" : [
                -0.4050499498844147,
                -0.27073168754577637,
                -1.00137197971344
            ],
            "type" : "VEC3"
        },
        {
            "bufferView" : 1,
            "componentType" : 5126,
            "count" : 941,
            "type" : "VEC3"
        },
        {
            "bufferView" : 2,
            "componentType" : 5126,
            "count" : 941,
            "type" : "VEC2"
        },
        {
            "bufferView" : 3,
            "componentType" : 5123,
            "count" : 2052,
            "type" : "SCALAR"
        },
        {
            "bufferView" : 5,
            "componentType" : 5126,
            "count" : 24,
            "max" : [
                1,
                -0.03368619829416275,
                1
            ],
            "min" : [
                -0.9999999403953552,
                -0.09368619322776794,
                -1
            ],
            "type" : "VEC3"
        },
        {
            "bufferView" : 6,
            "componentType" : 5126,
            "count" : 24,
            "type" : "VEC3"
        },
        {
            "bufferView" : 7,
            "componentType" : 5126,
            "count" : 24,
            "type" : "VEC2"
        },
        {
            "bufferView" : 8,
            "componentType" : 5123,
            "count" : 36,
            "type" : "SCALAR"
        },
        {
            "bufferView" : 10,
            "componentType" : 5126,
            "count" : 88,
            "max" : [
                0.4088117480278015,
                1.001843810081482,
                119.14158630371094
            ],
            "min" : [
                -1.663268804550171,
                -1.000920295715332,
                -1.0000038146972656
            ],
            "type" : "VEC3"
        },
        {
            "bufferView" : 11,
            "componentType" : 5126,
            "count" : 88,
            "type" : "VEC3"
        },
        {
            "bufferView" : 12,
            "componentType" : 5126,
            "count" : 88,
            "type" : "VEC2"
        },
        {
            "bufferView" : 13,
            "componentType" : 5123,
            "count" : 108,
            "type" : "SCALAR"
        }
    ],
    "bufferViews" : [
        {
            "buffer" : 0,
            "byteLength" : 11292,
            "byteOffset" : 0
        },
        {
            "buffer" : 0,
            "byteLength" : 11292,
            "byteOffset" : 11292
        },
        {
            "buffer" : 0,
            "byteLength" : 7528,
            "byteOffset" : 22584
        },
        {
            "buffer" : 0,
            "byteLength" : 4104,
            "byteOffset" : 30112
        },
        {
            "buffer" : 0,
            "byteLength" : 19049,
            "byteOffset" : 34216
        },
        {
            "buffer" : 0,
            "byteLength" : 288,
            "byteOffset" : 53268
        },
        {
            "buffer" : 0,
            "byteLength" : 288,
            "byteOffset" : 53556
        },
        {
            "buffer" : 0,
            "byteLength" : 192,
            "byteOffset" : 53844
        },
        {
            "buffer" : 0,
            "byteLength" : 72,
            "byteOffset" : 54036
        },
        {
            "buffer" : 0,
            "byteLength" : 6012,
            "byteOffset" : 54108
        },
        {
            "buffer" : 0,
            "byteLength" : 1056,
            "byteOffset" : 60120
        },
        {
            "buffer" : 0,
            "byteLength" : 1056,
            "byteOffset" : 61176
        },
        {
            "buffer" : 0,
            "byteLength" : 704,
            "byteOffset" : 62232
        },
        {
            "buffer" : 0,
            "byteLength" : 216,
            "byteOffset" : 62936
        }
    ],
    "samplers" : [
        {
            "magFilter" : 9729,
            "minFilter" : 9987
        }
    ],
    "buffers" : [
        {
            "byteLength" : 63152,
            "uri" : "data:application/octet-stream;base64,"
        }
    ]
}
