{
    "asset" : {
        "generator" : "Khronos glTF Blender I/O v3.2.43",
        "version" : "2.0"
    },
    "scene" : 0,
    "scenes" : [
        {
            "name" : "Scene",
            "nodes" : [
                0,
                1,
                2
            ]
        }
    ],
    "nodes" : [
        {
            "mesh" : 0,
            "name" : "door",
            "rotation" : [
                0,
                0,
                -0.7071068286895752,
                0.7071067094802856
            ],
            "scale" : [
                3.000000476837158,
                3.288386106491089,
                1.5
            ],
            "translation" : [
                -0.08179368078708649,
                0.8899593353271484,
                -0.09902232140302658
            ]
        },
        {
            "mesh" : 1,
            "name" : "Glass",
            "rotation" : [
                0,
                0,
                -0.7071068286895752,
                0.7071067094802856
            ],
            "scale" : [
                1.4900001287460327,
                1.7999999523162842,
                1.100000023841858
            ],
            "translation" : [
                0.041749391704797745,
                1.1546630859375,
                -0.07364029437303543
            ]
        },
        {
            "mesh" : 2,
            "name" : "trims",
            "rotation" : [
                0.7071068286895752,
                0,
                0,
                0.7071067094802856
            ],
            "scale" : [
                0.14574360847473145,
                1.5700000524520874,
                0.050000015646219254
            ],
            "translation" : [
                -0.04779438674449921,
                2.957080364227295,
                -0.03055543079972267
            ]
        }
    ],
    "materials" : [
        {
            "doubleSided" : true,
            "name" : "Material.008",
            "pbrMetallicRoughness" : {
                "baseColorTexture" : {
                    "index" : 0
                },
                "metallicFactor" : 0,
                "roughnessFactor" : 0.5
            }
        },
        {
            "doubleSided" : true,
            "name" : "Material.001",
            "pbrMetallicRoughness" : {
                "baseColorTexture" : {
                    "index" : 1
                },
                "metallicFactor" : 0,
                "roughnessFactor" : 0.5
            }
        },
        {
            "doubleSided" : true,
            "emissiveFactor" : [
                1,
                1,
                1
            ],
            "name" : "trims.001",
            "pbrMetallicRoughness" : {}
        }
    ],
    "meshes" : [
        {
            "name" : "Plane.004",
            "primitives" : [
                {
                    "attributes" : {
                        "POSITION" : 0,
                        "NORMAL" : 1,
                        "TEXCOORD_0" : 2
                    },
                    "indices" : 3,
                    "material" : 0
                }
            ]
        },
        {
            "name" : "Plane.001",
            "primitives" : [
                {
                    "attributes" : {
                        "POSITION" : 4,
                        "NORMAL" : 5,
                        "TEXCOORD_0" : 6
                    },
                    "indices" : 7,
                    "material" : 1
                }
            ]
        },
        {
            "name" : "trims.001",
            "primitives" : [
                {
                    "attributes" : {
                        "POSITION" : 8,
                        "NORMAL" : 9,
                        "TEXCOORD_0" : 10
                    },
                    "indices" : 11,
                    "material" : 2
                }
            ]
        }
    ],
    "textures" : [
        {
            "sampler" : 0,
            "source" : 0
        },
        {
            "sampler" : 0,
            "source" : 1
        }
    ],
    "images" : [
        {
            "bufferView" : 4,
            "mimeType" : "image/png",
            "name" : "Image_0"
        },
        {
            "bufferView" : 9,
            "mimeType" : "image/jpeg",
            "name" : "Image_1"
        }
    ],
    "accessors" : [
        {
            "bufferView" : 0,
            "componentType" : 5126,
            "count" : 1620,
            "max" : [
                1.2966527938842773,
                0.042939651757478714,
                1.0660146474838257
            ],
            "min" : [
                -0.7033470869064331,
                -0.03296691179275513,
                -0.9339849948883057
            ],
            "type" : "VEC3"
        },
        {
            "bufferView" : 1,
            "componentType" : 5126,
            "count" : 1620,
            "type" : "VEC3"
        },
        {
            "bufferView" : 2,
            "componentType" : 5126,
            "count" : 1620,
            "type" : "VEC2"
        },
        {
            "bufferView" : 3,
            "componentType" : 5123,
            "count" : 3528,
            "type" : "SCALAR"
        },
        {
            "bufferView" : 5,
            "componentType" : 5126,
            "count" : 24,
            "max" : [
                1,
                -0.00928887352347374,
                1
            ],
            "min" : [
                -1,
                -0.10928886383771896,
                -1
            ],
            "type" : "VEC3"
        },
        {
            "bufferView" : 6,
            "componentType" : 5126,
            "count" : 24,
            "type" : "VEC3"
        },
        {
            "bufferView" : 7,
            "componentType" : 5126,
            "count" : 24,
            "type" : "VEC2"
        },
        {
            "bufferView" : 8,
            "componentType" : 5123,
            "count" : 36,
            "type" : "SCALAR"
        },
        {
            "bufferView" : 10,
            "componentType" : 5126,
            "count" : 88,
            "max" : [
                0.9141817092895508,
                1.001843810081482,
                119.14158630371094
            ],
            "min" : [
                -1.1578989028930664,
                -1.000920295715332,
                -1.0000038146972656
            ],
            "type" : "VEC3"
        },
        {
            "bufferView" : 11,
            "componentType" : 5126,
            "count" : 88,
            "type" : "VEC3"
        },
        {
            "bufferView" : 12,
            "componentType" : 5126,
            "count" : 88,
            "type" : "VEC2"
        },
        {
            "bufferView" : 13,
            "componentType" : 5123,
            "count" : 108,
            "type" : "SCALAR"
        }
    ],
    "bufferViews" : [
        {
            "buffer" : 0,
            "byteLength" : 19440,
            "byteOffset" : 0
        },
        {
            "buffer" : 0,
            "byteLength" : 19440,
            "byteOffset" : 19440
        },
        {
            "buffer" : 0,
            "byteLength" : 12960,
            "byteOffset" : 38880
        },
        {
            "buffer" : 0,
            "byteLength" : 7056,
            "byteOffset" : 51840
        },
        {
            "buffer" : 0,
            "byteLength" : 27279,
            "byteOffset" : 58896
        },
        {
            "buffer" : 0,
            "byteLength" : 288,
            "byteOffset" : 86176
        },
        {
            "buffer" : 0,
            "byteLength" : 288,
            "byteOffset" : 86464
        },
        {
            "buffer" : 0,
            "byteLength" : 192,
            "byteOffset" : 86752
        },
        {
            "buffer" : 0,
            "byteLength" : 72,
            "byteOffset" : 86944
        },
        {
            "buffer" : 0,
            "byteLength" : 18795,
            "byteOffset" : 87016
        },
        {
            "buffer" : 0,
            "byteLength" : 1056,
            "byteOffset" : 105812
        },
        {
            "buffer" : 0,
            "byteLength" : 1056,
            "byteOffset" : 106868
        },
        {
            "buffer" : 0,
            "byteLength" : 704,
            "byteOffset" : 107924
        },
        {
            "buffer" : 0,
            "byteLength" : 216,
            "byteOffset" : 108628
        }
    ],
    "samplers" : [
        {
            "magFilter" : 9729,
            "minFilter" : 9987
        }
    ],
    "buffers" : [
        {
            "byteLength" : 108844,
            "uri" : "data:application/octet-stream;base64,"
        }
    ]
}
