{
    "asset" : {
        "generator" : "Khronos glTF Blender I/O v3.2.43",
        "version" : "2.0"
    },
    "scene" : 0,
    "scenes" : [
        {
            "name" : "Scene",
            "nodes" : [
                0,
                1,
                2
            ]
        }
    ],
    "nodes" : [
        {
            "mesh" : 0,
            "name" : "door",
            "rotation" : [
                0,
                0,
                -0.7071068286895752,
                0.7071067094802856
            ],
            "scale" : [
                3.000000476837158,
                1,
                0.7400000095367432
            ]
        },
        {
            "mesh" : 1,
            "name" : "glass",
            "rotation" : [
                0,
                0,
                -0.7071068286895752,
                0.7071067094802856
            ],
            "scale" : [
                3.000000238418579,
                1.4285715818405151,
                1.5
            ]
        },
        {
            "mesh" : 2,
            "name" : "trim",
            "rotation" : [
                0,
                0,
                -0.7071068286895752,
                0.7071067094802856
            ],
            "scale" : [
                3.000000238418579,
                1.7282203435897827,
                1.5
            ]
        }
    ],
    "materials" : [
        {
            "doubleSided" : true,
            "emissiveFactor" : [
                0.1599999964237213,
                0.1599999964237213,
                0.1599999964237213
            ],
            "name" : "doors.001",
            "pbrMetallicRoughness" : {
                "baseColorTexture" : {
                    "index" : 0
                },
                "metallicFactor" : 0,
                "roughnessFactor" : 0.5
            }
        },
        {
            "doubleSided" : true,
            "name" : "Glass.001",
            "pbrMetallicRoughness" : {
                "baseColorTexture" : {
                    "index" : 1
                },
                "metallicFactor" : 0,
                "roughnessFactor" : 0.5
            }
        },
        {
            "doubleSided" : true,
            "emissiveFactor" : [
                1,
                1,
                1
            ],
            "name" : "Material.005",
            "pbrMetallicRoughness" : {}
        }
    ],
    "meshes" : [
        {
            "name" : "doors.001",
            "primitives" : [
                {
                    "attributes" : {
                        "POSITION" : 0,
                        "NORMAL" : 1,
                        "TEXCOORD_0" : 2
                    },
                    "indices" : 3,
                    "material" : 0
                }
            ]
        },
        {
            "name" : "glass",
            "primitives" : [
                {
                    "attributes" : {
                        "POSITION" : 4,
                        "NORMAL" : 5,
                        "TEXCOORD_0" : 6
                    },
                    "indices" : 7,
                    "material" : 1
                }
            ]
        },
        {
            "name" : "Plane.005",
            "primitives" : [
                {
                    "attributes" : {
                        "POSITION" : 8,
                        "NORMAL" : 9,
                        "TEXCOORD_0" : 10
                    },
                    "indices" : 11,
                    "material" : 2
                }
            ]
        }
    ],
    "textures" : [
        {
            "sampler" : 0,
            "source" : 0
        },
        {
            "sampler" : 0,
            "source" : 1
        }
    ],
    "images" : [
        {
            "bufferView" : 4,
            "mimeType" : "image/png",
            "name" : "Image_0"
        },
        {
            "bufferView" : 9,
            "mimeType" : "image/jpeg",
            "name" : "Image_1"
        }
    ],
    "accessors" : [
        {
            "bufferView" : 0,
            "componentType" : 5126,
            "count" : 1682,
            "max" : [
                0.9936563372612,
                0.03117281384766102,
                1.9470256567001343
            ],
            "min" : [
                -1.0063436031341553,
                -0.19883741438388824,
                -2.011087656021118
            ],
            "type" : "VEC3"
        },
        {
            "bufferView" : 1,
            "componentType" : 5126,
            "count" : 1682,
            "type" : "VEC3"
        },
        {
            "bufferView" : 2,
            "componentType" : 5126,
            "count" : 1682,
            "type" : "VEC2"
        },
        {
            "bufferView" : 3,
            "componentType" : 5123,
            "count" : 3360,
            "type" : "SCALAR"
        },
        {
            "bufferView" : 5,
            "componentType" : 5126,
            "count" : 24,
            "max" : [
                0.0698644369840622,
                0.01663871854543686,
                0.872795045375824
            ],
            "min" : [
                -0.9234686493873596,
                -0.12938930094242096,
                -0.8886768221855164
            ],
            "type" : "VEC3"
        },
        {
            "bufferView" : 6,
            "componentType" : 5126,
            "count" : 24,
            "type" : "VEC3"
        },
        {
            "bufferView" : 7,
            "componentType" : 5126,
            "count" : 24,
            "type" : "VEC2"
        },
        {
            "bufferView" : 8,
            "componentType" : 5123,
            "count" : 24,
            "type" : "SCALAR"
        },
        {
            "bufferView" : 10,
            "componentType" : 5126,
            "count" : 88,
            "max" : [
                0.9919349551200867,
                0.042829278856515884,
                0.9930599927902222
            ],
            "min" : [
                -1.0080649852752686,
                -0.12479851394891739,
                -1.0069400072097778
            ],
            "type" : "VEC3"
        },
        {
            "bufferView" : 11,
            "componentType" : 5126,
            "count" : 88,
            "type" : "VEC3"
        },
        {
            "bufferView" : 12,
            "componentType" : 5126,
            "count" : 88,
            "type" : "VEC2"
        },
        {
            "bufferView" : 13,
            "componentType" : 5123,
            "count" : 132,
            "type" : "SCALAR"
        }
    ],
    "bufferViews" : [
        {
            "buffer" : 0,
            "byteLength" : 20184,
            "byteOffset" : 0
        },
        {
            "buffer" : 0,
            "byteLength" : 20184,
            "byteOffset" : 20184
        },
        {
            "buffer" : 0,
            "byteLength" : 13456,
            "byteOffset" : 40368
        },
        {
            "buffer" : 0,
            "byteLength" : 6720,
            "byteOffset" : 53824
        },
        {
            "buffer" : 0,
            "byteLength" : 27432,
            "byteOffset" : 60544
        },
        {
            "buffer" : 0,
            "byteLength" : 288,
            "byteOffset" : 87976
        },
        {
            "buffer" : 0,
            "byteLength" : 288,
            "byteOffset" : 88264
        },
        {
            "buffer" : 0,
            "byteLength" : 192,
            "byteOffset" : 88552
        },
        {
            "buffer" : 0,
            "byteLength" : 48,
            "byteOffset" : 88744
        },
        {
            "buffer" : 0,
            "byteLength" : 18795,
            "byteOffset" : 88792
        },
        {
            "buffer" : 0,
            "byteLength" : 1056,
            "byteOffset" : 107588
        },
        {
            "buffer" : 0,
            "byteLength" : 1056,
            "byteOffset" : 108644
        },
        {
            "buffer" : 0,
            "byteLength" : 704,
            "byteOffset" : 109700
        },
        {
            "buffer" : 0,
            "byteLength" : 264,
            "byteOffset" : 110404
        }
    ],
    "samplers" : [
        {
            "magFilter" : 9729,
            "minFilter" : 9987
        }
    ],
    "buffers" : [
        {
            "byteLength" : 110668,
            "uri" : "data:application/octet-stream;base64,"
        }
    ]
}
