{
    "asset" : {
        "generator" : "Khronos glTF Blender I/O v1.7.33",
        "version" : "2.0"
    },
    "scene" : 0,
    "scenes" : [
        {
            "name" : "Scene",
            "nodes" : [
                0,
                1,
                2
            ]
        }
    ],
    "nodes" : [
        {
            "mesh" : 0,
            "name" : "knob",
            "rotation" : [
                0.7071068286895752,
                0,
                0,
                0.7071067094802856
            ],
            "scale" : [
                0.030000001192092896,
                0.02361731231212616,
                0.029999999329447746
            ],
            "translation" : [
                -0.20864237844944,
                0.09554087370634079,
                0.04639327526092529
            ]
        },
        {
            "mesh" : 1,
            "name" : "door",
            "rotation" : [
                0,
                0,
                -0.7071068286895752,
                0.7071067094802856
            ],
            "scale" : [
                3.000000476837158,
                5.959695339202881,
                1.5
            ],
            "translation" : [
                0,
                0,
                1.5273321866989136
            ]
        },
        {
            "mesh" : 2,
            "name" : "trim",
            "rotation" : [
                0,
                0,
                -0.7071068286895752,
                0.7071067094802856
            ],
            "scale" : [
                3,
                1.666667103767395,
                3.049999952316284
            ],
            "translation" : [
                0.03972863778471947,
                0.010929937474429607,
                0.00047409534454345703
            ]
        }
    ],
    "materials" : [
        {
            "doubleSided" : true,
            "name" : "knob.003",
            "pbrMetallicRoughness" : {
                "baseColorFactor" : [
                    0.6266611814498901,
                    0.6266623139381409,
                    0.6266623139381409,
                    1
                ],
                "metallicFactor" : 0,
                "roughnessFactor" : 0.5
            }
        },
        {
            "doubleSided" : true,
            "emissiveFactor" : [
                0.12999999523162842,
                0.12999999523162842,
                0.12999999523162842
            ],
            "name" : "doors.003",
            "pbrMetallicRoughness" : {
                "baseColorTexture" : {
                    "index" : 0
                },
                "metallicFactor" : 0,
                "roughnessFactor" : 0.5
            }
        },
        {
            "doubleSided" : true,
            "emissiveFactor" : [
                1,
                1,
                1
            ],
            "name" : "Material.003",
            "pbrMetallicRoughness" : {}
        }
    ],
    "meshes" : [
        {
            "name" : "knob",
            "primitives" : [
                {
                    "attributes" : {
                        "POSITION" : 0,
                        "NORMAL" : 1,
                        "TEXCOORD_0" : 2
                    },
                    "indices" : 3,
                    "material" : 0
                }
            ]
        },
        {
            "name" : "doors",
            "primitives" : [
                {
                    "attributes" : {
                        "POSITION" : 4,
                        "NORMAL" : 5,
                        "TEXCOORD_0" : 6
                    },
                    "indices" : 7,
                    "material" : 1
                }
            ]
        },
        {
            "name" : "Plane.005",
            "primitives" : [
                {
                    "attributes" : {
                        "POSITION" : 8,
                        "NORMAL" : 9,
                        "TEXCOORD_0" : 10
                    },
                    "indices" : 11,
                    "material" : 2
                }
            ]
        }
    ],
    "textures" : [
        {
            "sampler" : 0,
            "source" : 0
        }
    ],
    "images" : [
        {
            "bufferView" : 8,
            "mimeType" : "image/png",
            "name" : "Image_0"
        }
    ],
    "accessors" : [
        {
            "bufferView" : 0,
            "componentType" : 5126,
            "count" : 59544,
            "max" : [
                14.857176780700684,
                8.349699974060059,
                4.454586029052734
            ],
            "min" : [
                -5.354100227355957,
                -0.11866426467895508,
                -3.985599994659424
            ],
            "type" : "VEC3"
        },
        {
            "bufferView" : 1,
            "componentType" : 5126,
            "count" : 59544,
            "type" : "VEC3"
        },
        {
            "bufferView" : 2,
            "componentType" : 5126,
            "count" : 59544,
            "type" : "VEC2"
        },
        {
            "bufferView" : 3,
            "componentType" : 5123,
            "count" : 271968,
            "type" : "SCALAR"
        },
        {
            "bufferView" : 4,
            "componentType" : 5126,
            "count" : 2282,
            "max" : [
                1.0000005960464478,
                0.009907814674079418,
                1.0000005960464478
            ],
            "min" : [
                -1.0000007152557373,
                -0.029888935387134552,
                -3.014040946960449
            ],
            "type" : "VEC3"
        },
        {
            "bufferView" : 5,
            "componentType" : 5126,
            "count" : 2282,
            "type" : "VEC3"
        },
        {
            "bufferView" : 6,
            "componentType" : 5126,
            "count" : 2282,
            "type" : "VEC2"
        },
        {
            "bufferView" : 7,
            "componentType" : 5123,
            "count" : 2736,
            "type" : "SCALAR"
        },
        {
            "bufferView" : 9,
            "componentType" : 5126,
            "count" : 90,
            "max" : [
                0.9999998807907104,
                0.03346094489097595,
                1
            ],
            "min" : [
                -1,
                -0.144259974360466,
                -1
            ],
            "type" : "VEC3"
        },
        {
            "bufferView" : 10,
            "componentType" : 5126,
            "count" : 90,
            "type" : "VEC3"
        },
        {
            "bufferView" : 11,
            "componentType" : 5126,
            "count" : 90,
            "type" : "VEC2"
        },
        {
            "bufferView" : 12,
            "componentType" : 5123,
            "count" : 132,
            "type" : "SCALAR"
        }
    ],
    "bufferViews" : [
        {
            "buffer" : 0,
            "byteLength" : 714528,
            "byteOffset" : 0
        },
        {
            "buffer" : 0,
            "byteLength" : 714528,
            "byteOffset" : 714528
        },
        {
            "buffer" : 0,
            "byteLength" : 476352,
            "byteOffset" : 1429056
        },
        {
            "buffer" : 0,
            "byteLength" : 543936,
            "byteOffset" : 1905408
        },
        {
            "buffer" : 0,
            "byteLength" : 27384,
            "byteOffset" : 2449344
        },
        {
            "buffer" : 0,
            "byteLength" : 27384,
            "byteOffset" : 2476728
        },
        {
            "buffer" : 0,
            "byteLength" : 18256,
            "byteOffset" : 2504112
        },
        {
            "buffer" : 0,
            "byteLength" : 5472,
            "byteOffset" : 2522368
        },
        {
            "buffer" : 0,
            "byteLength" : 581,
            "byteOffset" : 2527840
        },
        {
            "buffer" : 0,
            "byteLength" : 1080,
            "byteOffset" : 2528424
        },
        {
            "buffer" : 0,
            "byteLength" : 1080,
            "byteOffset" : 2529504
        },
        {
            "buffer" : 0,
            "byteLength" : 720,
            "byteOffset" : 2530584
        },
        {
            "buffer" : 0,
            "byteLength" : 264,
            "byteOffset" : 2531304
        }
    ],
    "samplers" : [
        {
            "magFilter" : 9729,
            "minFilter" : 9987
        }
    ],
    "buffers" : [
        {
            "byteLength" : 2531568,
            "uri" : "data:application/octet-stream;base64,"
        }
    ]
}
