{
    "asset" : {
        "generator" : "Khronos glTF Blender I/O v1.7.33",
        "version" : "2.0"
    },
    "scene" : 0,
    "scenes" : [
        {
            "name" : "Scene",
            "nodes" : [
                0,
                1,
                2,
                3
            ]
        }
    ],
    "nodes" : [
        {
            "mesh" : 0,
            "name" : "trims_outside",
            "rotation" : [
                0,
                0,
                -0.7071068286895752,
                0.7071068286895752
            ],
            "scale" : [
                1.0199995040893555,
                0.9333327412605286,
                3.043999433517456
            ],
            "translation" : [
                0.008558303117752075,
                -1.043428659439087,
                0
            ]
        },
        {
            "mesh" : 1,
            "name" : "inSide_trims",
            "rotation" : [
                0.3583700656890869,
                0,
                0,
                0.9335796236991882
            ],
            "scale" : [
                0.1249999850988388,
                1.8340816497802734,
                0.06354352086782455
            ],
            "translation" : [
                -0.10668807476758957,
                1.4715732336044312,
                1.5441999435424805
            ]
        },
        {
            "mesh" : 2,
            "name" : "Sliding Door",
            "rotation" : [
                0,
                0,
                -0.7071068286895752,
                0.7071068286895752
            ],
            "scale" : [
                3,
                0.6153846979141235,
                3
            ]
        },
        {
            "mesh" : 3,
            "name" : "top_trims",
            "scale" : [
                0.14000065624713898,
                0.10000000149011612,
                4.200004577636719
            ],
            "translation" : [
                -0.11964434385299683,
                3.136256456375122,
                0
            ]
        }
    ],
    "materials" : [
        {
            "doubleSided" : true,
            "emissiveFactor" : [
                1,
                1,
                1
            ],
            "name" : "trims_outside",
            "pbrMetallicRoughness" : {}
        },
        {
            "doubleSided" : true,
            "emissiveFactor" : [
                1,
                0.9576399922370911,
                0.9893096089363098
            ],
            "name" : "inSide_trims",
            "pbrMetallicRoughness" : {}
        },
        {
            "doubleSided" : true,
            "name" : "Sliding Door",
            "pbrMetallicRoughness" : {
                "baseColorTexture" : {
                    "index" : 0
                },
                "metallicFactor" : 0,
                "roughnessFactor" : 0.5
            }
        },
        {
            "doubleSided" : true,
            "emissiveFactor" : [
                1,
                1,
                1
            ],
            "name" : "top_trims.001",
            "pbrMetallicRoughness" : {}
        }
    ],
    "meshes" : [
        {
            "name" : "trims.015",
            "primitives" : [
                {
                    "attributes" : {
                        "POSITION" : 0,
                        "NORMAL" : 1,
                        "TEXCOORD_0" : 2
                    },
                    "indices" : 3,
                    "material" : 0
                }
            ]
        },
        {
            "name" : "inSide_trims.008",
            "primitives" : [
                {
                    "attributes" : {
                        "POSITION" : 4,
                        "NORMAL" : 5,
                        "TEXCOORD_0" : 6
                    },
                    "indices" : 7,
                    "material" : 1
                }
            ]
        },
        {
            "name" : "Plane.001",
            "primitives" : [
                {
                    "attributes" : {
                        "POSITION" : 8,
                        "NORMAL" : 9,
                        "TEXCOORD_0" : 10
                    },
                    "indices" : 11,
                    "material" : 2
                }
            ]
        },
        {
            "name" : "top_trims.001",
            "primitives" : [
                {
                    "attributes" : {
                        "POSITION" : 12,
                        "NORMAL" : 13,
                        "TEXCOORD_0" : 14
                    },
                    "indices" : 15,
                    "material" : 3
                }
            ]
        }
    ],
    "textures" : [
        {
            "sampler" : 0,
            "source" : 0
        }
    ],
    "images" : [
        {
            "bufferView" : 12,
            "mimeType" : "image/png",
            "name" : "wakingDoorImages (1)"
        }
    ],
    "accessors" : [
        {
            "bufferView" : 0,
            "componentType" : 5126,
            "count" : 168,
            "max" : [
                1.9388900995254517,
                1.341104507446289e-07,
                1.0065704584121704
            ],
            "min" : [
                -4.005403518676758,
                -0.3000001311302185,
                -1.0065703392028809
            ],
            "type" : "VEC3"
        },
        {
            "bufferView" : 1,
            "componentType" : 5126,
            "count" : 168,
            "type" : "VEC3"
        },
        {
            "bufferView" : 2,
            "componentType" : 5126,
            "count" : 168,
            "type" : "VEC2"
        },
        {
            "bufferView" : 3,
            "componentType" : 5123,
            "count" : 252,
            "type" : "SCALAR"
        },
        {
            "bufferView" : 4,
            "componentType" : 5126,
            "count" : 192,
            "max" : [
                1.0000001192092896,
                1.1109962463378906,
                62.896888732910156
            ],
            "min" : [
                -1.0000001192092896,
                -3.4347286224365234,
                -68.15995788574219
            ],
            "type" : "VEC3"
        },
        {
            "bufferView" : 5,
            "componentType" : 5126,
            "count" : 192,
            "type" : "VEC3"
        },
        {
            "bufferView" : 6,
            "componentType" : 5126,
            "count" : 192,
            "type" : "VEC2"
        },
        {
            "bufferView" : 7,
            "componentType" : 5123,
            "count" : 288,
            "type" : "SCALAR"
        },
        {
            "bufferView" : 8,
            "componentType" : 5126,
            "count" : 24,
            "max" : [
                1,
                0,
                1
            ],
            "min" : [
                -1,
                -0.2600000202655792,
                -1
            ],
            "type" : "VEC3"
        },
        {
            "bufferView" : 9,
            "componentType" : 5126,
            "count" : 24,
            "type" : "VEC3"
        },
        {
            "bufferView" : 10,
            "componentType" : 5126,
            "count" : 24,
            "type" : "VEC2"
        },
        {
            "bufferView" : 11,
            "componentType" : 5123,
            "count" : 36,
            "type" : "SCALAR"
        },
        {
            "bufferView" : 13,
            "componentType" : 5126,
            "count" : 24,
            "max" : [
                1,
                1,
                1
            ],
            "min" : [
                -1,
                -1,
                -1
            ],
            "type" : "VEC3"
        },
        {
            "bufferView" : 14,
            "componentType" : 5126,
            "count" : 24,
            "type" : "VEC3"
        },
        {
            "bufferView" : 15,
            "componentType" : 5126,
            "count" : 24,
            "type" : "VEC2"
        },
        {
            "bufferView" : 16,
            "componentType" : 5123,
            "count" : 36,
            "type" : "SCALAR"
        }
    ],
    "bufferViews" : [
        {
            "buffer" : 0,
            "byteLength" : 2016,
            "byteOffset" : 0
        },
        {
            "buffer" : 0,
            "byteLength" : 2016,
            "byteOffset" : 2016
        },
        {
            "buffer" : 0,
            "byteLength" : 1344,
            "byteOffset" : 4032
        },
        {
            "buffer" : 0,
            "byteLength" : 504,
            "byteOffset" : 5376
        },
        {
            "buffer" : 0,
            "byteLength" : 2304,
            "byteOffset" : 5880
        },
        {
            "buffer" : 0,
            "byteLength" : 2304,
            "byteOffset" : 8184
        },
        {
            "buffer" : 0,
            "byteLength" : 1536,
            "byteOffset" : 10488
        },
        {
            "buffer" : 0,
            "byteLength" : 576,
            "byteOffset" : 12024
        },
        {
            "buffer" : 0,
            "byteLength" : 288,
            "byteOffset" : 12600
        },
        {
            "buffer" : 0,
            "byteLength" : 288,
            "byteOffset" : 12888
        },
        {
            "buffer" : 0,
            "byteLength" : 192,
            "byteOffset" : 13176
        },
        {
            "buffer" : 0,
            "byteLength" : 72,
            "byteOffset" : 13368
        },
        {
            "buffer" : 0,
            "byteLength" : 581,
            "byteOffset" : 13440
        },
        {
            "buffer" : 0,
            "byteLength" : 288,
            "byteOffset" : 14024
        },
        {
            "buffer" : 0,
            "byteLength" : 288,
            "byteOffset" : 14312
        },
        {
            "buffer" : 0,
            "byteLength" : 192,
            "byteOffset" : 14600
        },
        {
            "buffer" : 0,
            "byteLength" : 72,
            "byteOffset" : 14792
        }
    ],
    "samplers" : [
        {
            "magFilter" : 9729,
            "minFilter" : 9987
        }
    ],
    "buffers" : [
        {
            "byteLength" : 14864,
            "uri" : "data:application/octet-stream;base64,"
        }
    ]
}
