{
    "asset" : {
        "generator" : "Khronos glTF Blender I/O v1.7.33",
        "version" : "2.0"
    },
    "scene" : 0,
    "scenes" : [
        {
            "name" : "Scene",
            "nodes" : [
                0,
                1
            ]
        }
    ],
    "nodes" : [
        {
            "mesh" : 0,
            "name" : "doors",
            "rotation" : [
                0,
                0,
                -0.7071068286895752,
                0.7071068286895752
            ],
            "scale" : [
                3,
                1.4285715818405151,
                1.5
            ]
        },
        {
            "mesh" : 1,
            "name" : "trim",
            "rotation" : [
                0,
                0,
                -0.7071068286895752,
                0.7071068286895752
            ],
            "scale" : [
                3,
                1.6666667461395264,
                3.049999952316284
            ],
            "translation" : [
                0.03972863778471947,
                0.010929937474429607,
                -1.5268580913543701
            ]
        }
    ],
    "materials" : [
        {
            "doubleSided" : true,
            "name" : "doors",
            "pbrMetallicRoughness" : {
                "baseColorTexture" : {
                    "index" : 0
                },
                "metallicFactor" : 0,
                "roughnessFactor" : 0.5
            }
        },
        {
            "doubleSided" : true,
            "name" : "Glass",
            "pbrMetallicRoughness" : {
                "baseColorTexture" : {
                    "index" : 1
                },
                "metallicFactor" : 0,
                "roughnessFactor" : 0.5
            }
        },
        {
            "doubleSided" : true,
            "emissiveFactor" : [
                1,
                1,
                1
            ],
            "name" : "Material.013",
            "pbrMetallicRoughness" : {}
        }
    ],
    "meshes" : [
        {
            "name" : "doors",
            "primitives" : [
                {
                    "attributes" : {
                        "POSITION" : 0,
                        "NORMAL" : 1,
                        "TEXCOORD_0" : 2
                    },
                    "indices" : 3,
                    "material" : 0
                },
                {
                    "attributes" : {
                        "POSITION" : 4,
                        "NORMAL" : 5,
                        "TEXCOORD_0" : 6
                    },
                    "indices" : 7,
                    "material" : 1
                }
            ]
        },
        {
            "name" : "Plane.005",
            "primitives" : [
                {
                    "attributes" : {
                        "POSITION" : 8,
                        "NORMAL" : 9,
                        "TEXCOORD_0" : 10
                    },
                    "indices" : 11,
                    "material" : 2
                }
            ]
        }
    ],
    "textures" : [
        {
            "sampler" : 0,
            "source" : 0
        },
        {
            "sampler" : 0,
            "source" : 1
        }
    ],
    "images" : [
        {
            "bufferView" : 4,
            "mimeType" : "image/png",
            "name" : "3"
        },
        {
            "bufferView" : 9,
            "mimeType" : "image/jpeg",
            "name" : "ImagesDoorsGlass.jpg"
        }
    ],
    "accessors" : [
        {
            "bufferView" : 0,
            "componentType" : 5126,
            "count" : 3222,
            "max" : [
                1,
                2.842170943040401e-14,
                1
            ],
            "min" : [
                -1,
                -0.06999999284744263,
                -3.011580467224121
            ],
            "type" : "VEC3"
        },
        {
            "bufferView" : 1,
            "componentType" : 5126,
            "count" : 3222,
            "type" : "VEC3"
        },
        {
            "bufferView" : 2,
            "componentType" : 5126,
            "count" : 3222,
            "type" : "VEC2"
        },
        {
            "bufferView" : 3,
            "componentType" : 5123,
            "count" : 7056,
            "type" : "SCALAR"
        },
        {
            "bufferView" : 5,
            "componentType" : 5126,
            "count" : 8,
            "max" : [
                0.10136672854423523,
                -0.009025107137858868,
                0.7092976570129395
            ],
            "min" : [
                -0.8919663429260254,
                -0.009025298058986664,
                -2.792064666748047
            ],
            "type" : "VEC3"
        },
        {
            "bufferView" : 6,
            "componentType" : 5126,
            "count" : 8,
            "type" : "VEC3"
        },
        {
            "bufferView" : 7,
            "componentType" : 5126,
            "count" : 8,
            "type" : "VEC2"
        },
        {
            "bufferView" : 8,
            "componentType" : 5123,
            "count" : 12,
            "type" : "SCALAR"
        },
        {
            "bufferView" : 10,
            "componentType" : 5126,
            "count" : 74,
            "max" : [
                1,
                0,
                1
            ],
            "min" : [
                -1,
                -0.11999998241662979,
                -1
            ],
            "type" : "VEC3"
        },
        {
            "bufferView" : 11,
            "componentType" : 5126,
            "count" : 74,
            "type" : "VEC3"
        },
        {
            "bufferView" : 12,
            "componentType" : 5126,
            "count" : 74,
            "type" : "VEC2"
        },
        {
            "bufferView" : 13,
            "componentType" : 5123,
            "count" : 132,
            "type" : "SCALAR"
        }
    ],
    "bufferViews" : [
        {
            "buffer" : 0,
            "byteLength" : 38664,
            "byteOffset" : 0
        },
        {
            "buffer" : 0,
            "byteLength" : 38664,
            "byteOffset" : 38664
        },
        {
            "buffer" : 0,
            "byteLength" : 25776,
            "byteOffset" : 77328
        },
        {
            "buffer" : 0,
            "byteLength" : 14112,
            "byteOffset" : 103104
        },
        {
            "buffer" : 0,
            "byteLength" : 42996,
            "byteOffset" : 117216
        },
        {
            "buffer" : 0,
            "byteLength" : 96,
            "byteOffset" : 160212
        },
        {
            "buffer" : 0,
            "byteLength" : 96,
            "byteOffset" : 160308
        },
        {
            "buffer" : 0,
            "byteLength" : 64,
            "byteOffset" : 160404
        },
        {
            "buffer" : 0,
            "byteLength" : 24,
            "byteOffset" : 160468
        },
        {
            "buffer" : 0,
            "byteLength" : 18795,
            "byteOffset" : 160492
        },
        {
            "buffer" : 0,
            "byteLength" : 888,
            "byteOffset" : 179288
        },
        {
            "buffer" : 0,
            "byteLength" : 888,
            "byteOffset" : 180176
        },
        {
            "buffer" : 0,
            "byteLength" : 592,
            "byteOffset" : 181064
        },
        {
            "buffer" : 0,
            "byteLength" : 264,
            "byteOffset" : 181656
        }
    ],
    "samplers" : [
        {
            "magFilter" : 9729,
            "minFilter" : 9987
        }
    ],
    "buffers" : [
        {
            "byteLength" : 181920,
            "uri" : "data:application/octet-stream;base64,"
        }
    ]
}
