{
    "asset" : {
        "generator" : "Khronos glTF Blender I/O v1.7.33",
        "version" : "2.0"
    },
    "scene" : 0,
    "scenes" : [
        {
            "name" : "Scene",
            "nodes" : [
                0,
                1,
                2
            ]
        }
    ],
    "nodes" : [
        {
            "mesh" : 0,
            "name" : "knob",
            "rotation" : [
                0.7071068286895752,
                0,
                0,
                0.7071067094802856
            ],
            "scale" : [
                0.030000001192092896,
                0.02361731231212616,
                0.029999999329447746
            ]
        },
        {
            "mesh" : 1,
            "name" : "door",
            "rotation" : [
                0,
                0,
                -0.7071068286895752,
                0.7071067094802856
            ],
            "scale" : [
                3.000000476837158,
                5.959695339202881,
                0.75
            ]
        },
        {
            "mesh" : 2,
            "name" : "trims",
            "rotation" : [
                0,
                0,
                -0.7071068286895752,
                0.7071067094802856
            ],
            "scale" : [
                3.000000476837158,
                1.7282204627990723,
                1.5099999904632568
            ]
        }
    ],
    "materials" : [
        {
            "doubleSided" : true,
            "name" : "knob.003",
            "pbrMetallicRoughness" : {
                "baseColorFactor" : [
                    0.6266610026359558,
                    0.6266623139381409,
                    0.6266623139381409,
                    1
                ],
                "metallicFactor" : 0,
                "roughnessFactor" : 0.5
            }
        },
        {
            "doubleSided" : true,
            "emissiveFactor" : [
                0.25,
                0.25,
                0.25
            ],
            "name" : "doors.003",
            "pbrMetallicRoughness" : {
                "baseColorTexture" : {
                    "index" : 0
                },
                "metallicFactor" : 0,
                "roughnessFactor" : 0.5
            }
        },
        {
            "doubleSided" : true,
            "emissiveFactor" : [
                1,
                1,
                1
            ],
            "name" : "trims",
            "pbrMetallicRoughness" : {}
        }
    ],
    "meshes" : [
        {
            "name" : "knob",
            "primitives" : [
                {
                    "attributes" : {
                        "POSITION" : 0,
                        "NORMAL" : 1,
                        "TEXCOORD_0" : 2
                    },
                    "indices" : 3,
                    "material" : 0
                }
            ]
        },
        {
            "name" : "doors",
            "primitives" : [
                {
                    "attributes" : {
                        "POSITION" : 4,
                        "NORMAL" : 5,
                        "TEXCOORD_0" : 6
                    },
                    "indices" : 7,
                    "material" : 1
                }
            ]
        },
        {
            "name" : "Plane.003",
            "primitives" : [
                {
                    "attributes" : {
                        "POSITION" : 8,
                        "NORMAL" : 9,
                        "TEXCOORD_0" : 10
                    },
                    "indices" : 11,
                    "material" : 2
                }
            ]
        }
    ],
    "textures" : [
        {
            "sampler" : 0,
            "source" : 0
        }
    ],
    "images" : [
        {
            "bufferView" : 8,
            "mimeType" : "image/png",
            "name" : "Image_0"
        }
    ],
    "accessors" : [
        {
            "bufferView" : 0,
            "componentType" : 5126,
            "count" : 60958,
            "max" : [
                9.968284606933594,
                -0.8795738220214844,
                1.2698912620544434
            ],
            "min" : [
                -10.242992401123047,
                -9.347938537597656,
                -7.170294761657715
            ],
            "type" : "VEC3"
        },
        {
            "bufferView" : 1,
            "componentType" : 5126,
            "count" : 60958,
            "type" : "VEC3"
        },
        {
            "bufferView" : 2,
            "componentType" : 5126,
            "count" : 60958,
            "type" : "VEC2"
        },
        {
            "bufferView" : 3,
            "componentType" : 5123,
            "count" : 271968,
            "type" : "SCALAR"
        },
        {
            "bufferView" : 4,
            "componentType" : 5126,
            "count" : 2308,
            "max" : [
                1.0078269243240356,
                0.019375236704945564,
                2.015012502670288
            ],
            "min" : [
                -0.9921742677688599,
                -0.02042151242494583,
                -1.9990291595458984
            ],
            "type" : "VEC3"
        },
        {
            "bufferView" : 5,
            "componentType" : 5126,
            "count" : 2308,
            "type" : "VEC3"
        },
        {
            "bufferView" : 6,
            "componentType" : 5126,
            "count" : 2308,
            "type" : "VEC2"
        },
        {
            "bufferView" : 7,
            "componentType" : 5123,
            "count" : 2736,
            "type" : "SCALAR"
        },
        {
            "bufferView" : 9,
            "componentType" : 5126,
            "count" : 89,
            "max" : [
                1.0017001628875732,
                0.07857053726911545,
                1.0044198036193848
            ],
            "min" : [
                -0.9982998371124268,
                -0.08905725181102753,
                -0.9955800771713257
            ],
            "type" : "VEC3"
        },
        {
            "bufferView" : 10,
            "componentType" : 5126,
            "count" : 89,
            "type" : "VEC3"
        },
        {
            "bufferView" : 11,
            "componentType" : 5126,
            "count" : 89,
            "type" : "VEC2"
        },
        {
            "bufferView" : 12,
            "componentType" : 5123,
            "count" : 132,
            "type" : "SCALAR"
        }
    ],
    "bufferViews" : [
        {
            "buffer" : 0,
            "byteLength" : 731496,
            "byteOffset" : 0
        },
        {
            "buffer" : 0,
            "byteLength" : 731496,
            "byteOffset" : 731496
        },
        {
            "buffer" : 0,
            "byteLength" : 487664,
            "byteOffset" : 1462992
        },
        {
            "buffer" : 0,
            "byteLength" : 543936,
            "byteOffset" : 1950656
        },
        {
            "buffer" : 0,
            "byteLength" : 27696,
            "byteOffset" : 2494592
        },
        {
            "buffer" : 0,
            "byteLength" : 27696,
            "byteOffset" : 2522288
        },
        {
            "buffer" : 0,
            "byteLength" : 18464,
            "byteOffset" : 2549984
        },
        {
            "buffer" : 0,
            "byteLength" : 5472,
            "byteOffset" : 2568448
        },
        {
            "buffer" : 0,
            "byteLength" : 581,
            "byteOffset" : 2573920
        },
        {
            "buffer" : 0,
            "byteLength" : 1068,
            "byteOffset" : 2574504
        },
        {
            "buffer" : 0,
            "byteLength" : 1068,
            "byteOffset" : 2575572
        },
        {
            "buffer" : 0,
            "byteLength" : 712,
            "byteOffset" : 2576640
        },
        {
            "buffer" : 0,
            "byteLength" : 264,
            "byteOffset" : 2577352
        }
    ],
    "samplers" : [
        {
            "magFilter" : 9729,
            "minFilter" : 9987
        }
    ],
    "buffers" : [
        {
            "byteLength" : 2577616,
            "uri" : "data:application/octet-stream;base64,"
        }
    ]
}
