{
    "asset" : {
        "generator" : "Khronos glTF Blender I/O v3.4.50",
        "version" : "2.0"
    },
    "scene" : 0,
    "scenes" : [
        {
            "name" : "Scene",
            "nodes" : [
                0,
                1,
                2,
                3
            ]
        }
    ],
    "nodes" : [
        {
            "mesh" : 0,
            "name" : "door",
            "rotation" : [
                0,
                0,
                -0.7071068286895752,
                0.7071067094802856
            ],
            "scale" : [
                3.000000476837158,
                0.9522064924240112,
                1.5
            ]
        },
        {
            "mesh" : 1,
            "name" : "dymond_window",
            "rotation" : [
                0,
                0,
                -0.7071068286895752,
                0.7071067094802856
            ]
        },
        {
            "mesh" : 2,
            "name" : "Glass",
            "rotation" : [
                0,
                0,
                -0.7071069478988647,
                0.7071066498756409
            ],
            "scale" : [
                1.4899998903274536,
                0.910492479801178,
                1.100000023841858
            ]
        },
        {
            "mesh" : 3,
            "name" : "trim",
            "rotation" : [
                0,
                0,
                -0.7071068286895752,
                0.7071067094802856
            ],
            "scale" : [
                2.9999992847442627,
                2.757859945297241,
                1.5099999904632568
            ]
        }
    ],
    "materials" : [
        {
            "doubleSided" : true,
            "name" : "door",
            "pbrMetallicRoughness" : {
                "baseColorTexture" : {
                    "index" : 0
                },
                "metallicFactor" : 0,
                "roughnessFactor" : 0.5
            }
        },
        {
            "doubleSided" : true,
            "name" : "dymond_window",
            "pbrMetallicRoughness" : {
                "baseColorTexture" : {
                    "index" : 1
                },
                "metallicFactor" : 0,
                "roughnessFactor" : 0.5
            }
        },
        {
            "doubleSided" : true,
            "name" : "Glass",
            "pbrMetallicRoughness" : {
                "baseColorTexture" : {
                    "index" : 2
                },
                "metallicFactor" : 0,
                "roughnessFactor" : 0.5
            }
        },
        {
            "doubleSided" : true,
            "emissiveFactor" : [
                1,
                1,
                1
            ],
            "name" : "Material.005",
            "pbrMetallicRoughness" : {}
        }
    ],
    "meshes" : [
        {
            "name" : "door",
            "primitives" : [
                {
                    "attributes" : {
                        "POSITION" : 0,
                        "TEXCOORD_0" : 1,
                        "NORMAL" : 2
                    },
                    "indices" : 3,
                    "material" : 0
                }
            ]
        },
        {
            "name" : "dymond_window",
            "primitives" : [
                {
                    "attributes" : {
                        "POSITION" : 4,
                        "TEXCOORD_0" : 5,
                        "NORMAL" : 6
                    },
                    "indices" : 7,
                    "material" : 1
                }
            ]
        },
        {
            "name" : "Glass",
            "primitives" : [
                {
                    "attributes" : {
                        "POSITION" : 8,
                        "TEXCOORD_0" : 9,
                        "NORMAL" : 10
                    },
                    "indices" : 11,
                    "material" : 2
                }
            ]
        },
        {
            "name" : "Plane.003",
            "primitives" : [
                {
                    "attributes" : {
                        "POSITION" : 12,
                        "TEXCOORD_0" : 13,
                        "NORMAL" : 14
                    },
                    "indices" : 15,
                    "material" : 3
                }
            ]
        }
    ],
    "textures" : [
        {
            "sampler" : 0,
            "source" : 0
        },
        {
            "sampler" : 0,
            "source" : 1
        },
        {
            "sampler" : 0,
            "source" : 2
        }
    ],
    "images" : [
        {
            "bufferView" : 4,
            "mimeType" : "image/jpeg",
            "name" : "SectionalDoorDesign"
        },
        {
            "bufferView" : 9,
            "mimeType" : "image/jpeg",
            "name" : "8"
        },
        {
            "bufferView" : 14,
            "mimeType" : "image/jpeg",
            "name" : "ImagesDoorsGlass"
        }
    ],
    "accessors" : [
        {
            "bufferView" : 0,
            "componentType" : 5126,
            "count" : 408,
            "max" : [
                1,
                0.09223898500204086,
                1
            ],
            "min" : [
                -1,
                -0.22064127027988434,
                -1
            ],
            "type" : "VEC3"
        },
        {
            "bufferView" : 1,
            "componentType" : 5126,
            "count" : 408,
            "type" : "VEC2"
        },
        {
            "bufferView" : 2,
            "componentType" : 5126,
            "count" : 408,
            "type" : "VEC3"
        },
        {
            "bufferView" : 3,
            "componentType" : 5123,
            "count" : 516,
            "type" : "SCALAR"
        },
        {
            "bufferView" : 5,
            "componentType" : 5126,
            "count" : 1595,
            "max" : [
                -1.9360694885253906,
                0.09409801661968231,
                1.3663957118988037
            ],
            "min" : [
                -2.5436244010925293,
                -0.2113369256258011,
                -1.3779771327972412
            ],
            "type" : "VEC3"
        },
        {
            "bufferView" : 6,
            "componentType" : 5126,
            "count" : 1595,
            "type" : "VEC2"
        },
        {
            "bufferView" : 7,
            "componentType" : 5126,
            "count" : 1595,
            "type" : "VEC3"
        },
        {
            "bufferView" : 8,
            "componentType" : 5123,
            "count" : 1728,
            "type" : "SCALAR"
        },
        {
            "bufferView" : 10,
            "componentType" : 5126,
            "count" : 36,
            "max" : [
                -1.216962456703186,
                0.03330913558602333,
                1.3081761598587036
            ],
            "min" : [
                -1.82853364944458,
                -0.16814367473125458,
                -1.306951642036438
            ],
            "type" : "VEC3"
        },
        {
            "bufferView" : 11,
            "componentType" : 5126,
            "count" : 36,
            "type" : "VEC2"
        },
        {
            "bufferView" : 12,
            "componentType" : 5126,
            "count" : 36,
            "type" : "VEC3"
        },
        {
            "bufferView" : 13,
            "componentType" : 5123,
            "count" : 36,
            "type" : "SCALAR"
        },
        {
            "bufferView" : 15,
            "componentType" : 5126,
            "count" : 120,
            "max" : [
                0.9957709312438965,
                0.03262465447187424,
                1.0019252300262451
            ],
            "min" : [
                -1.0042282342910767,
                -0.07948958873748779,
                -1.0211045742034912
            ],
            "type" : "VEC3"
        },
        {
            "bufferView" : 16,
            "componentType" : 5126,
            "count" : 120,
            "type" : "VEC2"
        },
        {
            "bufferView" : 17,
            "componentType" : 5126,
            "count" : 120,
            "type" : "VEC3"
        },
        {
            "bufferView" : 18,
            "componentType" : 5123,
            "count" : 132,
            "type" : "SCALAR"
        }
    ],
    "bufferViews" : [
        {
            "buffer" : 0,
            "byteLength" : 4896,
            "byteOffset" : 0,
            "target" : 34962
        },
        {
            "buffer" : 0,
            "byteLength" : 3264,
            "byteOffset" : 4896,
            "target" : 34962
        },
        {
            "buffer" : 0,
            "byteLength" : 4896,
            "byteOffset" : 8160,
            "target" : 34962
        },
        {
            "buffer" : 0,
            "byteLength" : 1032,
            "byteOffset" : 13056,
            "target" : 34963
        },
        {
            "buffer" : 0,
            "byteLength" : 45313,
            "byteOffset" : 14088
        },
        {
            "buffer" : 0,
            "byteLength" : 19140,
            "byteOffset" : 59404,
            "target" : 34962
        },
        {
            "buffer" : 0,
            "byteLength" : 12760,
            "byteOffset" : 78544,
            "target" : 34962
        },
        {
            "buffer" : 0,
            "byteLength" : 19140,
            "byteOffset" : 91304,
            "target" : 34962
        },
        {
            "buffer" : 0,
            "byteLength" : 3456,
            "byteOffset" : 110444,
            "target" : 34963
        },
        {
            "buffer" : 0,
            "byteLength" : 18758,
            "byteOffset" : 113900
        },
        {
            "buffer" : 0,
            "byteLength" : 432,
            "byteOffset" : 132660,
            "target" : 34962
        },
        {
            "buffer" : 0,
            "byteLength" : 288,
            "byteOffset" : 133092,
            "target" : 34962
        },
        {
            "buffer" : 0,
            "byteLength" : 432,
            "byteOffset" : 133380,
            "target" : 34962
        },
        {
            "buffer" : 0,
            "byteLength" : 72,
            "byteOffset" : 133812,
            "target" : 34963
        },
        {
            "buffer" : 0,
            "byteLength" : 18795,
            "byteOffset" : 133884
        },
        {
            "buffer" : 0,
            "byteLength" : 1440,
            "byteOffset" : 152680,
            "target" : 34962
        },
        {
            "buffer" : 0,
            "byteLength" : 960,
            "byteOffset" : 154120,
            "target" : 34962
        },
        {
            "buffer" : 0,
            "byteLength" : 1440,
            "byteOffset" : 155080,
            "target" : 34962
        },
        {
            "buffer" : 0,
            "byteLength" : 264,
            "byteOffset" : 156520,
            "target" : 34963
        }
    ],
    "samplers" : [
        {
            "magFilter" : 9729,
            "minFilter" : 9987
        }
    ],
    "buffers" : [
        {
            "byteLength" : 156784,
            "uri" : "data:application/octet-stream;base64,"
        }
    ]
}
