{
    "asset" : {
        "generator" : "Khronos glTF Blender I/O v3.4.50",
        "version" : "2.0"
    },
    "scene" : 0,
    "scenes" : [
        {
            "name" : "Scene",
            "nodes" : [
                0,
                1,
                2,
                3,
                4,
                5
            ]
        }
    ],
    "nodes" : [
        {
            "mesh" : 0,
            "name" : "trims",
            "rotation" : [
                0,
                0,
                -0.7071068286895752,
                0.7071067094802856
            ],
            "scale" : [
                1.0199995040893555,
                0.9333328008651733,
                2.5139999389648438
            ]
        },
        {
            "mesh" : 1,
            "name" : "window",
            "rotation" : [
                0,
                0,
                -0.7071068286895752,
                0.7071067094802856
            ],
            "scale" : [
                2.490000009536743,
                1.6666669845581055,
                2.490000009536743
            ]
        },
        {
            "mesh" : 2,
            "name" : "shutters_inside_trims1",
            "scale" : [
                1,
                1,
                0.9019281268119812
            ]
        },
        {
            "mesh" : 3,
            "name" : "shutters_inside_trims2",
            "scale" : [
                1,
                1,
                0.9019281268119812
            ]
        },
        {
            "mesh" : 4,
            "name" : "inside_trims",
            "rotation" : [
                0.70710688829422,
                0,
                0,
                0.7071066498756409
            ],
            "scale" : [
                0.14193950593471527,
                2.440000534057617,
                0.03000001609325409
            ]
        },
        {
            "mesh" : 5,
            "name" : "Shutters",
            "rotation" : [
                0.5000000596046448,
                0.5,
                -0.5,
                0.5
            ]
        }
    ],
    "materials" : [
        {
            "doubleSided" : true,
            "emissiveFactor" : [
                1,
                1,
                1
            ],
            "name" : "trims",
            "pbrMetallicRoughness" : {}
        },
        {
            "doubleSided" : true,
            "emissiveFactor" : [
                0.12999999523162842,
                0.12999999523162842,
                0.12999999523162842
            ],
            "name" : "window",
            "pbrMetallicRoughness" : {
                "baseColorTexture" : {
                    "index" : 0
                },
                "metallicFactor" : 0,
                "roughnessFactor" : 0.5
            }
        },
        {
            "doubleSided" : true,
            "name" : "shutters_inside_trims1",
            "pbrMetallicRoughness" : {
                "baseColorFactor" : [
                    0.800000011920929,
                    0.800000011920929,
                    0.800000011920929,
                    1
                ],
                "metallicFactor" : 0,
                "roughnessFactor" : 0.5
            }
        },
        {
            "doubleSided" : true,
            "name" : "shutters_inside_trims2",
            "pbrMetallicRoughness" : {
                "baseColorFactor" : [
                    0.800000011920929,
                    0.800000011920929,
                    0.800000011920929,
                    1
                ],
                "metallicFactor" : 0,
                "roughnessFactor" : 0.5
            }
        },
        {
            "doubleSided" : true,
            "emissiveFactor" : [
                1,
                1,
                1
            ],
            "name" : "inside_trims.002",
            "pbrMetallicRoughness" : {}
        },
        {
            "doubleSided" : true,
            "name" : "Shutters",
            "pbrMetallicRoughness" : {
                "baseColorFactor" : [
                    0.800000011920929,
                    0.800000011920929,
                    0.800000011920929,
                    1
                ],
                "metallicFactor" : 0,
                "roughnessFactor" : 0.5
            }
        }
    ],
    "meshes" : [
        {
            "name" : "Plane.008",
            "primitives" : [
                {
                    "attributes" : {
                        "POSITION" : 0,
                        "TEXCOORD_0" : 1,
                        "NORMAL" : 2,
                        "TANGENT" : 3
                    },
                    "indices" : 4,
                    "material" : 0
                }
            ]
        },
        {
            "name" : "Materail.001",
            "primitives" : [
                {
                    "attributes" : {
                        "POSITION" : 5,
                        "TEXCOORD_0" : 6,
                        "NORMAL" : 7,
                        "TANGENT" : 8
                    },
                    "indices" : 9,
                    "material" : 1
                }
            ]
        },
        {
            "name" : "shutters_inside_trims1",
            "primitives" : [
                {
                    "attributes" : {
                        "POSITION" : 10,
                        "TEXCOORD_0" : 11,
                        "NORMAL" : 12,
                        "TANGENT" : 13
                    },
                    "indices" : 14,
                    "material" : 2
                }
            ]
        },
        {
            "name" : "shutters_inside_trims2",
            "primitives" : [
                {
                    "attributes" : {
                        "POSITION" : 15,
                        "TEXCOORD_0" : 16,
                        "NORMAL" : 17,
                        "TANGENT" : 18
                    },
                    "indices" : 19,
                    "material" : 3
                }
            ]
        },
        {
            "name" : "Cube.150",
            "primitives" : [
                {
                    "attributes" : {
                        "POSITION" : 20,
                        "TEXCOORD_0" : 21,
                        "NORMAL" : 22,
                        "TANGENT" : 23
                    },
                    "indices" : 24,
                    "material" : 4
                }
            ]
        },
        {
            "name" : "Shutters",
            "primitives" : [
                {
                    "attributes" : {
                        "POSITION" : 25,
                        "TEXCOORD_0" : 26,
                        "NORMAL" : 27,
                        "TANGENT" : 28
                    },
                    "indices" : 29,
                    "material" : 5
                }
            ]
        }
    ],
    "textures" : [
        {
            "sampler" : 0,
            "source" : 0
        }
    ],
    "images" : [
        {
            "bufferView" : 10,
            "mimeType" : "image/jpeg",
            "name" : "ImagesDoorsGlass"
        }
    ],
    "accessors" : [
        {
            "bufferView" : 0,
            "componentType" : 5126,
            "count" : 104,
            "max" : [
                2.4660251140594482,
                0.04465428739786148,
                1.0044572353363037
            ],
            "min" : [
                -2.4637374877929688,
                -0.2553459107875824,
                -1.011453628540039
            ],
            "type" : "VEC3"
        },
        {
            "bufferView" : 1,
            "componentType" : 5126,
            "count" : 104,
            "type" : "VEC2"
        },
        {
            "bufferView" : 2,
            "componentType" : 5126,
            "count" : 104,
            "type" : "VEC3"
        },
        {
            "bufferView" : 3,
            "componentType" : 5126,
            "count" : 104,
            "type" : "VEC4"
        },
        {
            "bufferView" : 4,
            "componentType" : 5123,
            "count" : 144,
            "type" : "SCALAR"
        },
        {
            "bufferView" : 5,
            "componentType" : 5126,
            "count" : 57,
            "max" : [
                0.04470273107290268,
                -9.62849799890364e-09,
                0.9999998211860657
            ],
            "min" : [
                -0.9790883660316467,
                -0.12000015377998352,
                -0.9999998807907104
            ],
            "type" : "VEC3"
        },
        {
            "bufferView" : 6,
            "componentType" : 5126,
            "count" : 57,
            "type" : "VEC2"
        },
        {
            "bufferView" : 7,
            "componentType" : 5126,
            "count" : 57,
            "type" : "VEC3"
        },
        {
            "bufferView" : 8,
            "componentType" : 5126,
            "count" : 57,
            "type" : "VEC4"
        },
        {
            "bufferView" : 9,
            "componentType" : 5123,
            "count" : 63,
            "type" : "SCALAR"
        },
        {
            "bufferView" : 11,
            "componentType" : 5126,
            "count" : 4328,
            "max" : [
                0.03765280544757843,
                -0.10050925612449646,
                2.708341121673584
            ],
            "min" : [
                -0.23040522634983063,
                -1.2991999387741089,
                -2.723308563232422
            ],
            "type" : "VEC3"
        },
        {
            "bufferView" : 12,
            "componentType" : 5126,
            "count" : 4328,
            "type" : "VEC2"
        },
        {
            "bufferView" : 13,
            "componentType" : 5126,
            "count" : 4328,
            "type" : "VEC3"
        },
        {
            "bufferView" : 14,
            "componentType" : 5126,
            "count" : 4328,
            "type" : "VEC4"
        },
        {
            "bufferView" : 15,
            "componentType" : 5123,
            "count" : 5292,
            "type" : "SCALAR"
        },
        {
            "bufferView" : 16,
            "componentType" : 5126,
            "count" : 4292,
            "max" : [
                0.03765280544757843,
                -1.25530207157135,
                2.708341121673584
            ],
            "min" : [
                -0.23040522634983063,
                -2.4596052169799805,
                -2.723308563232422
            ],
            "type" : "VEC3"
        },
        {
            "bufferView" : 17,
            "componentType" : 5126,
            "count" : 4292,
            "type" : "VEC2"
        },
        {
            "bufferView" : 18,
            "componentType" : 5126,
            "count" : 4292,
            "type" : "VEC3"
        },
        {
            "bufferView" : 19,
            "componentType" : 5126,
            "count" : 4292,
            "type" : "VEC4"
        },
        {
            "bufferView" : 20,
            "componentType" : 5123,
            "count" : 5292,
            "type" : "SCALAR"
        },
        {
            "bufferView" : 21,
            "componentType" : 5126,
            "count" : 128,
            "max" : [
                0.28216782212257385,
                1.001636028289795,
                80.66665649414062
            ],
            "min" : [
                -1.632788896560669,
                -1.0236015319824219,
                -80.6666259765625
            ],
            "type" : "VEC3"
        },
        {
            "bufferView" : 22,
            "componentType" : 5126,
            "count" : 128,
            "type" : "VEC2"
        },
        {
            "bufferView" : 23,
            "componentType" : 5126,
            "count" : 128,
            "type" : "VEC3"
        },
        {
            "bufferView" : 24,
            "componentType" : 5126,
            "count" : 128,
            "type" : "VEC4"
        },
        {
            "bufferView" : 25,
            "componentType" : 5123,
            "count" : 180,
            "type" : "SCALAR"
        },
        {
            "bufferView" : 26,
            "componentType" : 5126,
            "count" : 5503,
            "max" : [
                4.253181457519531,
                0.045702867209911346,
                2.512913942337036
            ],
            "min" : [
                -4.241666793823242,
                -0.24262911081314087,
                -2.5136585235595703
            ],
            "type" : "VEC3"
        },
        {
            "bufferView" : 27,
            "componentType" : 5126,
            "count" : 5503,
            "type" : "VEC2"
        },
        {
            "bufferView" : 28,
            "componentType" : 5126,
            "count" : 5503,
            "type" : "VEC3"
        },
        {
            "bufferView" : 29,
            "componentType" : 5126,
            "count" : 5503,
            "type" : "VEC4"
        },
        {
            "bufferView" : 30,
            "componentType" : 5123,
            "count" : 10008,
            "type" : "SCALAR"
        }
    ],
    "bufferViews" : [
        {
            "buffer" : 0,
            "byteLength" : 1248,
            "byteOffset" : 0,
            "target" : 34962
        },
        {
            "buffer" : 0,
            "byteLength" : 832,
            "byteOffset" : 1248,
            "target" : 34962
        },
        {
            "buffer" : 0,
            "byteLength" : 1248,
            "byteOffset" : 2080,
            "target" : 34962
        },
        {
            "buffer" : 0,
            "byteLength" : 1664,
            "byteOffset" : 3328,
            "target" : 34962
        },
        {
            "buffer" : 0,
            "byteLength" : 288,
            "byteOffset" : 4992,
            "target" : 34963
        },
        {
            "buffer" : 0,
            "byteLength" : 684,
            "byteOffset" : 5280,
            "target" : 34962
        },
        {
            "buffer" : 0,
            "byteLength" : 456,
            "byteOffset" : 5964,
            "target" : 34962
        },
        {
            "buffer" : 0,
            "byteLength" : 684,
            "byteOffset" : 6420,
            "target" : 34962
        },
        {
            "buffer" : 0,
            "byteLength" : 912,
            "byteOffset" : 7104,
            "target" : 34962
        },
        {
            "buffer" : 0,
            "byteLength" : 126,
            "byteOffset" : 8016,
            "target" : 34963
        },
        {
            "buffer" : 0,
            "byteLength" : 18795,
            "byteOffset" : 8144
        },
        {
            "buffer" : 0,
            "byteLength" : 51936,
            "byteOffset" : 26940,
            "target" : 34962
        },
        {
            "buffer" : 0,
            "byteLength" : 34624,
            "byteOffset" : 78876,
            "target" : 34962
        },
        {
            "buffer" : 0,
            "byteLength" : 51936,
            "byteOffset" : 113500,
            "target" : 34962
        },
        {
            "buffer" : 0,
            "byteLength" : 69248,
            "byteOffset" : 165436,
            "target" : 34962
        },
        {
            "buffer" : 0,
            "byteLength" : 10584,
            "byteOffset" : 234684,
            "target" : 34963
        },
        {
            "buffer" : 0,
            "byteLength" : 51504,
            "byteOffset" : 245268,
            "target" : 34962
        },
        {
            "buffer" : 0,
            "byteLength" : 34336,
            "byteOffset" : 296772,
            "target" : 34962
        },
        {
            "buffer" : 0,
            "byteLength" : 51504,
            "byteOffset" : 331108,
            "target" : 34962
        },
        {
            "buffer" : 0,
            "byteLength" : 68672,
            "byteOffset" : 382612,
            "target" : 34962
        },
        {
            "buffer" : 0,
            "byteLength" : 10584,
            "byteOffset" : 451284,
            "target" : 34963
        },
        {
            "buffer" : 0,
            "byteLength" : 1536,
            "byteOffset" : 461868,
            "target" : 34962
        },
        {
            "buffer" : 0,
            "byteLength" : 1024,
            "byteOffset" : 463404,
            "target" : 34962
        },
        {
            "buffer" : 0,
            "byteLength" : 1536,
            "byteOffset" : 464428,
            "target" : 34962
        },
        {
            "buffer" : 0,
            "byteLength" : 2048,
            "byteOffset" : 465964,
            "target" : 34962
        },
        {
            "buffer" : 0,
            "byteLength" : 360,
            "byteOffset" : 468012,
            "target" : 34963
        },
        {
            "buffer" : 0,
            "byteLength" : 66036,
            "byteOffset" : 468372,
            "target" : 34962
        },
        {
            "buffer" : 0,
            "byteLength" : 44024,
            "byteOffset" : 534408,
            "target" : 34962
        },
        {
            "buffer" : 0,
            "byteLength" : 66036,
            "byteOffset" : 578432,
            "target" : 34962
        },
        {
            "buffer" : 0,
            "byteLength" : 88048,
            "byteOffset" : 644468,
            "target" : 34962
        },
        {
            "buffer" : 0,
            "byteLength" : 20016,
            "byteOffset" : 732516,
            "target" : 34963
        }
    ],
    "samplers" : [
        {
            "magFilter" : 9729,
            "minFilter" : 9987
        }
    ],
    "buffers" : [
        {
            "byteLength" : 752532,
            "uri" : "data:application/octet-stream;base64,"
        }
    ]
}
