<svg id="happy" xmlns="http://www.w3.org/2000/svg" width="60" height="60" viewBox="0 0 60 60">
  <circle id="Ellipse_798" data-name="Ellipse 798" cx="30" cy="30" r="30" fill="#ffd93b"/>
  <path id="Path_37763" data-name="Path 37763" d="M110.073,80.073A30,30,0,0,1,56.72,98.907,30,30,0,0,0,98.907,56.72,29.968,29.968,0,0,1,110.073,80.073Z" transform="translate(-50.073 -50.073)" fill="#f4c534"/>
  <circle id="Ellipse_799" data-name="Ellipse 799" cx="4.708" cy="4.708" r="4.708" transform="translate(36.328 21.729)" fill="#3e4347"/>
  <ellipse id="Ellipse_800" data-name="Ellipse 800" cx="1.425" cy="0.922" rx="1.425" ry="0.922" transform="matrix(-0.914, -0.405, 0.405, -0.914, 43.3, 25.772)" fill="#5a5f63"/>
  <circle id="Ellipse_801" data-name="Ellipse 801" cx="4.708" cy="4.708" r="4.708" transform="translate(14.256 21.729)" fill="#3e4347"/>
  <ellipse id="Ellipse_802" data-name="Ellipse 802" cx="1.425" cy="0.922" rx="1.425" ry="0.922" transform="matrix(-0.914, -0.405, 0.405, -0.914, 21.226, 25.772)" fill="#5a5f63"/>
  <path id="Path_37764" data-name="Path 37764" d="M147.8,338.754a1.406,1.406,0,1,1,1.927-2.047,15.137,15.137,0,0,0,20.722,0,1.406,1.406,0,0,1,1.928,2.047A17.951,17.951,0,0,1,147.8,338.754Z" transform="translate(-130.09 -296.911)" fill="#3e4347"/>
</svg>
