<?xml version="1.0" encoding="utf-8"?>
<!-- Generator: Adobe Illustrator 25.2.0, SVG Export Plug-In . SVG Version: 6.00 Build 0)  -->
<svg version="1.1" id="Layer_1" xmlns="http://www.w3.org/2000/svg" xmlns:xlink="http://www.w3.org/1999/xlink" x="0px" y="0px"
	 viewBox="0 0 20 20" style="enable-background:new 0 0 20 20;" xml:space="preserve">
<style type="text/css">
	.st0{fill:#222222;}
</style>
<g id="Line_1890">
	<path class="st0" d="M10,18c-0.6,0-1-0.4-1-1V2c0-0.6,0.4-1,1-1s1,0.4,1,1v15C11,17.6,10.6,18,10,18z"/>
</g>
<g id="Path_24507">
	<path class="st0" d="M14,6c-0.3,0-0.5-0.1-0.7-0.3L10,2.4L6.7,5.7c-0.4,0.4-1,0.4-1.4,0s-0.4-1,0-1.4l4-4c0.4-0.4,1-0.4,1.4,0l4,4
		c0.4,0.4,0.4,1,0,1.4C14.5,5.9,14.3,6,14,6z"/>
</g>
<g id="Path_24508">
	<path class="st0" d="M10,20c-0.3,0-0.5-0.1-0.7-0.3l-4-4c-0.4-0.4-0.4-1,0-1.4s1-0.4,1.4,0l3.3,3.3l3.3-3.3c0.4-0.4,1-0.4,1.4,0
		s0.4,1,0,1.4l-4,4C10.5,19.9,10.3,20,10,20z"/>
</g>
</svg>
