<?xml version="1.0" encoding="utf-8"?>
<!-- Generator: Adobe Illustrator 25.2.0, SVG Export Plug-In . SVG Version: 6.00 Build 0)  -->
<svg version="1.1" id="C1" xmlns="http://www.w3.org/2000/svg" xmlns:xlink="http://www.w3.org/1999/xlink" x="0px" y="0px"
	 viewBox="0 0 20 20" style="enable-background:new 0 0 20 20;" xml:space="preserve">
<style type="text/css">
	.st0{fill:#69CBF0;}
	.st1{enable-background:new    ;}
	.st2{fill:#FFFFFF;}
</style>
<path id="Rectangle_4099" class="st0" d="M2,0h16c1.1,0,2,0.9,2,2v16c0,1.1-0.9,2-2,2H2c-1.1,0-2-0.9-2-2V2C0,0.9,0.9,0,2,0z"/>
<g class="st1">
	<path class="st2" d="M10.9,11.4c-0.1,0.9-0.4,1.6-1,2.2s-1.4,0.8-2.4,0.8c-1.1,0-2-0.4-2.6-1.1S4,11.5,4,10.2V9.7
		c0-0.8,0.1-1.5,0.4-2.2s0.7-1.1,1.2-1.4s1.2-0.5,1.9-0.5c1,0,1.8,0.3,2.4,0.8s0.9,1.3,1,2.2H9.2c0-0.6-0.2-1-0.5-1.2
		S8.1,7.1,7.5,7.1c-0.6,0-1,0.2-1.3,0.6s-0.4,1.1-0.4,2v0.6c0,0.9,0.1,1.6,0.4,2s0.7,0.6,1.3,0.6c0.5,0,0.9-0.1,1.2-0.4
		s0.4-0.6,0.5-1.2H10.9z"/>
	<path class="st2" d="M16,14.3h-1.7V7.7l-2,0.6V7l3.5-1.3H16V14.3z"/>
</g>
</svg>
