<?xml version="1.0" encoding="utf-8"?>
<!-- Generator: Adobe Illustrator 25.2.0, SVG Export Plug-In . SVG Version: 6.00 Build 0)  -->
<svg version="1.1" id="C1" xmlns="http://www.w3.org/2000/svg" xmlns:xlink="http://www.w3.org/1999/xlink" x="0px" y="0px"
	 viewBox="0 0 20 20" style="background: white;" xml:space="preserve">
<style type="text/css">
	.st0{fill:#69CBF0;}
	.st1{enable-background:new    ;}
</style>
<g id="Rectangle_4099">
	<path class="st0" d="M18,1.5c0.3,0,0.5,0.2,0.5,0.5v16c0,0.3-0.2,0.5-0.5,0.5H2c-0.3,0-0.5-0.2-0.5-0.5V2c0-0.3,0.2-0.5,0.5-0.5H18
		 M18,0H2C0.9,0,0,0.9,0,2v16c0,1.1,0.9,2,2,2h16c1.1,0,2-0.9,2-2V2C20,0.9,19.1,0,18,0L18,0z"/>
</g>
<g class="st1">
	<path d="M10,11.4c-0.1,0.9-0.4,1.6-1,2.2s-1.4,0.8-2.4,0.8c-1.1,0-2-0.4-2.6-1.1S3,11.5,3,10.2V9.7c0-0.8,0.1-1.5,0.4-2.2
		s0.7-1.1,1.2-1.4s1.2-0.5,1.9-0.5c1,0,1.8,0.3,2.4,0.8s0.9,1.3,1,2.2H8.3c0-0.6-0.2-1-0.5-1.2S7.1,7.1,6.6,7.1
		c-0.6,0-1,0.2-1.3,0.6s-0.4,1.1-0.4,2v0.6c0,0.9,0.1,1.6,0.4,2s0.7,0.6,1.3,0.6c0.5,0,0.9-0.1,1.2-0.4s0.4-0.6,0.5-1.2H10z"/>
	<path d="M16,11.1h1v1.4h-1v1.8h-1.7v-1.8h-3.5l-0.1-1.1l3.6-5.6H16V11.1z M12.4,11.1h1.9V8l-0.1,0.2L12.4,11.1z"/>
</g>
</svg>
