<?xml version="1.0" encoding="utf-8"?>
<!-- Generator: Adobe Illustrator 25.2.0, SVG Export Plug-In . SVG Version: 6.00 Build 0)  -->
<svg version="1.1" id="C2" xmlns="http://www.w3.org/2000/svg" xmlns:xlink="http://www.w3.org/1999/xlink" x="0px" y="0px"
	 viewBox="0 0 20 20" style="background: white;" xml:space="preserve">
<style type="text/css">
	.st0{fill:#73DDA2;}
	.st1{enable-background:new    ;}
</style>
<g id="Rectangle_4099">
	<path class="st0" d="M18,1.5c0.3,0,0.5,0.2,0.5,0.5v16c0,0.3-0.2,0.5-0.5,0.5H2c-0.3,0-0.5-0.2-0.5-0.5V2c0-0.3,0.2-0.5,0.5-0.5H18
		 M18,0H2C0.9,0,0,0.9,0,2v16c0,1.1,0.9,2,2,2h16c1.1,0,2-0.9,2-2V2C20,0.9,19.1,0,18,0L18,0z"/>
</g>
<g class="st1">
	<path d="M10.1,11.4c-0.1,0.9-0.4,1.6-1,2.2s-1.4,0.8-2.4,0.8c-1.1,0-2-0.4-2.6-1.1s-0.9-1.7-0.9-3V9.7c0-0.8,0.1-1.5,0.4-2.2
		s0.7-1.1,1.2-1.4S6,5.6,6.7,5.6c1,0,1.8,0.3,2.4,0.8s0.9,1.3,1,2.2H8.3c0-0.6-0.2-1-0.5-1.2S7.2,7.1,6.7,7.1c-0.6,0-1,0.2-1.3,0.6
		s-0.4,1.1-0.4,2v0.6c0,0.9,0.1,1.6,0.4,2s0.7,0.6,1.3,0.6c0.5,0,0.9-0.1,1.2-0.4s0.4-0.6,0.5-1.2H10.1z"/>
	<path d="M11.3,10.1l0.5-4.3h4.8v1.4h-3.4L13,9c0.4-0.2,0.8-0.3,1.3-0.3c0.8,0,1.4,0.3,1.9,0.8s0.7,1.2,0.7,2.1c0,0.6-0.1,1-0.3,1.5
		s-0.6,0.8-1,1s-0.9,0.4-1.5,0.4c-0.5,0-1-0.1-1.4-0.3s-0.8-0.5-1-0.9s-0.4-0.8-0.4-1.3h1.7c0,0.4,0.2,0.6,0.4,0.8
		c0.2,0.2,0.5,0.3,0.8,0.3c0.4,0,0.7-0.1,0.9-0.4s0.3-0.7,0.3-1.2c0-0.5-0.1-0.9-0.4-1.1s-0.6-0.4-1-0.4c-0.4,0-0.7,0.1-1,0.3
		l-0.2,0.2L11.3,10.1z"/>
</g>
</svg>
