<?xml version="1.0" encoding="utf-8"?>
<!-- Generator: Adobe Illustrator 25.2.0, SVG Export Plug-In . SVG Version: 6.00 Build 0)  -->
<svg version="1.1" id="Layer_1" xmlns="http://www.w3.org/2000/svg" xmlns:xlink="http://www.w3.org/1999/xlink" x="0px" y="0px"
	 viewBox="0 0 1 336" style="enable-background:new 0 0 1 336;" xml:space="preserve">
<style type="text/css">
	.st0{fill:#222222;}
</style>
<path class="st0" d="M1,1v2H0V1H1z M1,5v2H0V5H1z M1,9v2H0V9H1z M1,13v2H0v-2H1z M1,17v2H0v-2H1z M1,21v2H0v-2H1z M1,25v2H0v-2H1z
	 M1,29v2H0v-2H1z M1,33v2H0v-2H1z M1,37v2H0v-2H1z M1,41v2H0v-2H1z M1,45v2H0v-2H1z M1,49v2H0v-2H1z M1,53v2H0v-2H1z M1,57v2H0v-2H1
	z M1,61v2H0v-2H1z M1,65v2H0v-2H1z M1,69v2H0v-2H1z M1,73v2H0v-2H1z M1,77v2H0v-2H1z M1,81v2H0v-2H1z M1,85v2H0v-2H1z M1,89v2H0v-2
	H1z M1,93v2H0v-2H1z M1,97v2H0v-2H1z M1,101v2H0v-2H1z M1,105v2H0v-2H1z M1,109v2H0v-2H1z M1,113v2H0v-2H1z M1,117v2H0v-2H1z M1,121
	v2H0v-2H1z M1,125v2H0v-2H1z M1,129v2H0v-2H1z M1,133v2H0v-2H1z M1,137v2H0v-2H1z M1,141v2H0v-2H1z M1,145v2H0v-2H1z M1,149v2H0v-2
	H1z M1,153v2H0v-2H1z M1,157v2H0v-2H1z M1,161v2H0v-2H1z M1,165v2H0v-2H1z M1,169v2H0v-2H1z M1,173v2H0v-2H1z M1,177v2H0v-2H1z
	 M1,181v2H0v-2H1z M1,185v2H0v-2H1z M1,189v2H0v-2H1z M1,193v2H0v-2H1z M1,197v2H0v-2H1z M1,201v2H0v-2H1z M1,205v2H0v-2H1z M1,209
	v2H0v-2H1z M1,213v2H0v-2H1z M1,217v2H0v-2H1z M1,221v2H0v-2H1z M1,225v2H0v-2H1z M1,229v2H0v-2H1z M1,233v2H0v-2H1z M1,237v2H0v-2
	H1z M1,241v2H0v-2H1z M1,245v2H0v-2H1z M1,249v2H0v-2H1z M1,253v2H0v-2H1z M1,257v2H0v-2H1z M1,261v2H0v-2H1z M1,265v2H0v-2H1z
	 M1,269v2H0v-2H1z M1,273v2H0v-2H1z M1,277v2H0v-2H1z M1,281v2H0v-2H1z M1,285v2H0v-2H1z M1,289v2H0v-2H1z M1,293v2H0v-2H1z M1,297
	v2H0v-2H1z M1,301v2H0v-2H1z M1,305v2H0v-2H1z M1,309v2H0v-2H1z M1,313v2H0v-2H1z M1,317v2H0v-2H1z M1,321v2H0v-2H1z M1,325v2H0v-2
	H1z M1,329v2H0v-2H1z M1,333v2H0v-2H1z"/>
</svg>
