<?xml version="1.0" encoding="utf-8"?>
<!-- Generator: Adobe Illustrator 25.2.0, SVG Export Plug-In . SVG Version: 6.00 Build 0)  -->
<svg version="1.1" id="Layer_1" xmlns="http://www.w3.org/2000/svg" xmlns:xlink="http://www.w3.org/1999/xlink" x="0px" y="0px"
	 viewBox="0 0 596 1" style="enable-background:new 0 0 596 1;" xml:space="preserve">
<style type="text/css">
	.st0{fill:#222222;}
</style>
<g id="Line_1881">
	<path class="st0" d="M596,1h-2V0h2V1z M592,1h-2V0h2V1z M588,1h-2V0h2V1z M584,1h-2V0h2V1z M580,1h-2V0h2V1z M576,1h-2V0h2V1z
		 M572,1h-2V0h2V1z M568,1h-2V0h2V1z M564,1h-2V0h2V1z M560,1h-2V0h2V1z M556,1h-2V0h2V1z M552,1h-2V0h2V1z M548,1h-2V0h2V1z M544,1
		h-2V0h2V1z M540,1h-2V0h2V1z M536,1h-2V0h2V1z M532,1h-2V0h2V1z M528,1h-2V0h2V1z M524,1h-2V0h2V1z M520,1h-2V0h2V1z M516,1h-2V0h2
		V1z M512,1h-2V0h2V1z M508,1h-2V0h2V1z M504,1h-2V0h2V1z M500,1h-2V0h2V1z M496,1h-2V0h2V1z M492,1h-2V0h2V1z M488,1h-2V0h2V1z
		 M484,1h-2V0h2V1z M480,1h-2V0h2V1z M476,1h-2V0h2V1z M472,1h-2V0h2V1z M468,1h-2V0h2V1z M464,1h-2V0h2V1z M460,1h-2V0h2V1z M456,1
		h-2V0h2V1z M452,1h-2V0h2V1z M448,1h-2V0h2V1z M444,1h-2V0h2V1z M440,1h-2V0h2V1z M436,1h-2V0h2V1z M432,1h-2V0h2V1z M428,1h-2V0h2
		V1z M424,1h-2V0h2V1z M420,1h-2V0h2V1z M416,1h-2V0h2V1z M412,1h-2V0h2V1z M408,1h-2V0h2V1z M404,1h-2V0h2V1z M400,1h-2V0h2V1z
		 M396,1h-2V0h2V1z M392,1h-2V0h2V1z M388,1h-2V0h2V1z M384,1h-2V0h2V1z M380,1h-2V0h2V1z M376,1h-2V0h2V1z M372,1h-2V0h2V1z M368,1
		h-2V0h2V1z M364,1h-2V0h2V1z M360,1h-2V0h2V1z M356,1h-2V0h2V1z M352,1h-2V0h2V1z M348,1h-2V0h2V1z M344,1h-2V0h2V1z M340,1h-2V0h2
		V1z M336,1h-2V0h2V1z M332,1h-2V0h2V1z M328,1h-2V0h2V1z M324,1h-2V0h2V1z M320,1h-2V0h2V1z M316,1h-2V0h2V1z M312,1h-2V0h2V1z
		 M308,1h-2V0h2V1z M304,1h-2V0h2V1z M300,1h-2V0h2V1z M296,1h-2V0h2V1z M292,1h-2V0h2V1z M288,1h-2V0h2V1z M284,1h-2V0h2V1z M280,1
		h-2V0h2V1z M276,1h-2V0h2V1z M272,1h-2V0h2V1z M268,1h-2V0h2V1z M264,1h-2V0h2V1z M260,1h-2V0h2V1z M256,1h-2V0h2V1z M252,1h-2V0h2
		V1z M248,1h-2V0h2V1z M244,1h-2V0h2V1z M240,1h-2V0h2V1z M236,1h-2V0h2V1z M232,1h-2V0h2V1z M228,1h-2V0h2V1z M224,1h-2V0h2V1z
		 M220,1h-2V0h2V1z M216,1h-2V0h2V1z M212,1h-2V0h2V1z M208,1h-2V0h2V1z M204,1h-2V0h2V1z M200,1h-2V0h2V1z M196,1h-2V0h2V1z M192,1
		h-2V0h2V1z M188,1h-2V0h2V1z M184,1h-2V0h2V1z M180,1h-2V0h2V1z M176,1h-2V0h2V1z M172,1h-2V0h2V1z M168,1h-2V0h2V1z M164,1h-2V0h2
		V1z M160,1h-2V0h2V1z M156,1h-2V0h2V1z M152,1h-2V0h2V1z M148,1h-2V0h2V1z M144,1h-2V0h2V1z M140,1h-2V0h2V1z M136,1h-2V0h2V1z
		 M132,1h-2V0h2V1z M128,1h-2V0h2V1z M124,1h-2V0h2V1z M120,1h-2V0h2V1z M116,1h-2V0h2V1z M112,1h-2V0h2V1z M108,1h-2V0h2V1z M104,1
		h-2V0h2V1z M100,1h-2V0h2V1z M96,1h-2V0h2V1z M92,1h-2V0h2V1z M88,1h-2V0h2V1z M84,1h-2V0h2V1z M80,1h-2V0h2V1z M76,1h-2V0h2V1z
		 M72,1h-2V0h2V1z M68,1h-2V0h2V1z M64,1h-2V0h2V1z M60,1h-2V0h2V1z M56,1h-2V0h2V1z M52,1h-2V0h2V1z M48,1h-2V0h2V1z M44,1h-2V0h2
		V1z M40,1h-2V0h2V1z M36,1h-2V0h2V1z M32,1h-2V0h2V1z M28,1h-2V0h2V1z M24,1h-2V0h2V1z M20,1h-2V0h2V1z M16,1h-2V0h2V1z M12,1h-2V0
		h2V1z M8,1H6V0h2V1z M4,1H2V0h2V1z"/>
</g>
</svg>
