<?xml version="1.0" encoding="utf-8"?>
<!-- Generator: Adobe Illustrator 25.2.0, SVG Export Plug-In . SVG Version: 6.00 Build 0)  -->
<svg version="1.1" id="Layer_1" xmlns="http://www.w3.org/2000/svg" xmlns:xlink="http://www.w3.org/1999/xlink" x="0px" y="0px"
	 viewBox="0 0 770 10" style="enable-background:new 0 0 770 10;" xml:space="preserve">
<style type="text/css">
	.st0{fill:#222222;}
</style>
<g id="Line_1882">
	<path class="st0" d="M770,10h-10V0h10V10z M750,10h-10V0h10V10z M730,10h-10V0h10V10z M710,10h-10V0h10V10z M690,10h-10V0h10V10z
		 M670,10h-10V0h10V10z M650,10h-10V0h10V10z M630,10h-10V0h10V10z M610,10h-10V0h10V10z M590,10h-10V0h10V10z M570,10h-10V0h10V10z
		 M550,10h-10V0h10V10z M530,10h-10V0h10V10z M510,10h-10V0h10V10z M490,10h-10V0h10V10z M470,10h-10V0h10V10z M450,10h-10V0h10V10z
		 M430,10h-10V0h10V10z M410,10h-10V0h10V10z M390,10h-10V0h10V10z M370,10h-10V0h10V10z M350,10h-10V0h10V10z M330,10h-10V0h10V10z
		 M310,10h-10V0h10V10z M290,10h-10V0h10V10z M270,10h-10V0h10V10z M250,10h-10V0h10V10z M230,10h-10V0h10V10z M210,10h-10V0h10V10z
		 M190,10h-10V0h10V10z M170,10h-10V0h10V10z M150,10h-10V0h10V10z M130,10h-10V0h10V10z M110,10h-10V0h10V10z M90,10H80V0h10V10z
		 M70,10H60V0h10V10z M50,10H40V0h10V10z M30,10H20V0h10V10z M10,10H0V0h10V10z"/>
</g>
</svg>
