<?xml version="1.0" encoding="utf-8"?>
<!-- Generator: Adobe Illustrator 25.2.0, SVG Export Plug-In . SVG Version: 6.00 Build 0)  -->
<svg version="1.1" id="Layer_1" xmlns="http://www.w3.org/2000/svg" xmlns:xlink="http://www.w3.org/1999/xlink" x="0px" y="0px"
	 viewBox="0 0 10 550" style="enable-background:new 0 0 10 550;" xml:space="preserve">
<style type="text/css">
	.st0{fill:#222222;}
</style>
<g id="Line_1891">
	<path class="st0" d="M10,550H0v-10h10V550z M10,530H0v-10h10V530z M10,510H0v-10h10V510z M10,490H0v-10h10V490z M10,470H0v-10h10
		V470z M10,450H0v-10h10V450z M10,430H0v-10h10V430z M10,410H0v-10h10V410z M10,390H0v-10h10V390z M10,370H0v-10h10V370z M10,350H0
		v-10h10V350z M10,330H0v-10h10V330z M10,310H0v-10h10V310z M10,290H0v-10h10V290z M10,270H0v-10h10V270z M10,250H0v-10h10V250z
		 M10,230H0v-10h10V230z M10,210H0v-10h10V210z M10,190H0v-10h10V190z M10,170H0v-10h10V170z M10,150H0v-10h10V150z M10,130H0v-10
		h10V130z M10,110H0v-10h10V110z M10,90H0V80h10V90z M10,70H0V60h10V70z M10,50H0V40h10V50z M10,30H0V20h10V30z M10,10H0V0h10V10z"
		/>
</g>
</svg>
