<?xml version="1.0" encoding="utf-8"?>
<!-- Generator: Adobe Illustrator 24.2.3, SVG Export Plug-In . SVG Version: 6.00 Build 0)  -->
<svg version="1.1" id="Layer_1" xmlns="http://www.w3.org/2000/svg" xmlns:xlink="http://www.w3.org/1999/xlink" x="0px" y="0px"
	 viewBox="0 0 300 341.67" style="enable-background:new 0 0 300 341.67;" xml:space="preserve">
<style type="text/css">
	.st0{fill:url(#Rectangle_24538-4_9_);}
	.st1{opacity:0.64;fill:url(#Path_9201-4_9_);enable-background:new    ;}
	.st2{fill:none;}
	.st3{fill:url(#Rectangle_24538-4_10_);}
	.st4{opacity:0.64;fill:url(#Path_9201-4_10_);enable-background:new    ;}
	.st5{fill:url(#Path_9202-4_5_);}
	.st6{fill:url(#Path_9204-4_5_);}
	.st7{opacity:0.46;fill:url(#Path_9226-4_5_);enable-background:new    ;}
	.st8{opacity:0.5;fill:url(#SVGID_1_);enable-background:new    ;}
	.st9{fill:url(#Rectangle_24538-4_11_);}
	.st10{opacity:0.64;fill:url(#Path_9201-4_11_);enable-background:new    ;}
	.st11{fill:url(#Rectangle_24538-4_12_);}
	.st12{opacity:0.64;fill:url(#Path_9201-4_12_);enable-background:new    ;}
	.st13{fill:url(#Path_9202-4_6_);}
	.st14{fill:url(#Path_9204-4_6_);}
	.st15{opacity:0.46;fill:url(#Path_9226-4_6_);enable-background:new    ;}
	.st16{opacity:0.5;fill:url(#SVGID_2_);enable-background:new    ;}
	.st17{fill:url(#Rectangle_24538-4_13_);}
	.st18{opacity:0.64;fill:url(#Path_9201-4_13_);enable-background:new    ;}
	.st19{fill:url(#Rectangle_24538-4_14_);}
	.st20{opacity:0.64;fill:url(#Path_9201-4_14_);enable-background:new    ;}
	.st21{fill:url(#Path_9202-4_7_);}
	.st22{fill:url(#Path_9204-4_7_);}
	.st23{opacity:0.46;fill:url(#Path_9226-4_7_);enable-background:new    ;}
	.st24{opacity:0.5;fill:url(#SVGID_3_);enable-background:new    ;}
	.st25{fill:url(#Rectangle_24538-4_15_);}
	.st26{opacity:0.64;fill:url(#Path_9201-4_15_);enable-background:new    ;}
	.st27{fill:url(#Rectangle_24538-4_16_);}
	.st28{opacity:0.64;fill:url(#Path_9201-4_16_);enable-background:new    ;}
	.st29{fill:url(#Path_9202-4_8_);}
	.st30{fill:url(#Path_9204-4_8_);}
	.st31{opacity:0.46;fill:url(#Path_9226-4_8_);enable-background:new    ;}
	.st32{opacity:0.5;fill:url(#SVGID_4_);enable-background:new    ;}
	.st33{fill:url(#Rectangle_24568_2_);}
	.st34{fill:#861719;}
	.st35{fill:#37190E;}
	.st36{fill:#4A200E;}
</style>
<g>
	
		<linearGradient id="Rectangle_24538-4_9_" gradientUnits="userSpaceOnUse" x1="-2449.5334" y1="1526.6364" x2="-2448.821" y2="1526.6364" gradientTransform="matrix(2.0127 6.7185 67.1395 -20.1138 -97201.9844 47641.4961)">
		<stop  offset="0" style="stop-color:#6F3215"/>
		<stop  offset="1" style="stop-color:#3D1D0D"/>
	</linearGradient>
	<polygon id="Rectangle_24538-4_8_" class="st0" points="289.74,139.23 291.16,143.95 243.76,158.08 242.33,153.36 	"/>
	
		<radialGradient id="Path_9201-4_9_" cx="-2200.8823" cy="1517.0764" r="0.0266" gradientTransform="matrix(25.2788 83.7149 1135.2653 -339.6965 -1666384.625 699741.75)" gradientUnits="userSpaceOnUse">
		<stop  offset="0" style="stop-color:#92712B"/>
		<stop  offset="0.044" style="stop-color:#836728"/>
		<stop  offset="0.188" style="stop-color:#5D481C"/>
		<stop  offset="0.335" style="stop-color:#392F14"/>
		<stop  offset="0.485" style="stop-color:#231D0E"/>
		<stop  offset="0.639" style="stop-color:#13120B"/>
		<stop  offset="0.798" style="stop-color:#050403"/>
		<stop  offset="0.972" style="stop-color:#000000"/>
	</radialGradient>
	<path id="Path_9201-4_8_" class="st1" d="M270.52,150.12c-18.78,5.61-34.31,9.32-34.72,7.93c-0.41-1.39,14.46-7.06,33.24-12.67
		c18.77-5.61,22.22-5.87,22.63-4.49C292.08,142.28,289.3,144.51,270.52,150.12z"/>
	<polygon class="st2" points="289.74,139.23 291.16,143.95 243.76,158.08 242.33,153.36 	"/>
	
		<linearGradient id="Rectangle_24538-4_10_" gradientUnits="userSpaceOnUse" x1="-2445.1628" y1="1526.5054" x2="-2444.4504" y2="1526.5054" gradientTransform="matrix(2.0127 -6.7185 67.1395 20.1138 -97201.9844 -47268.0938)">
		<stop  offset="0" style="stop-color:#6F3215"/>
		<stop  offset="1" style="stop-color:#3D1D0D"/>
	</linearGradient>
	<polygon id="Rectangle_24538-4_7_" class="st3" points="289.74,202.17 291.16,197.45 243.76,183.32 242.33,188.04 	"/>
	
		<radialGradient id="Path_9201-4_10_" cx="-2200.5317" cy="1517.0687" r="0.0266" gradientTransform="matrix(25.2788 -83.7149 1135.2653 339.6965 -1666384.625 -699368.375)" gradientUnits="userSpaceOnUse">
		<stop  offset="0" style="stop-color:#92712B"/>
		<stop  offset="0.044" style="stop-color:#836728"/>
		<stop  offset="0.188" style="stop-color:#5D481C"/>
		<stop  offset="0.335" style="stop-color:#392F14"/>
		<stop  offset="0.485" style="stop-color:#231D0E"/>
		<stop  offset="0.639" style="stop-color:#13120B"/>
		<stop  offset="0.798" style="stop-color:#050403"/>
		<stop  offset="0.972" style="stop-color:#000000"/>
	</radialGradient>
	<path id="Path_9201-4_7_" class="st4" d="M270.54,191.28c-18.78-5.61-34.33-9.13-34.74-7.75s14.5,6.87,33.27,12.49
		s22.19,6.06,22.6,4.67C292.08,199.31,289.32,196.89,270.54,191.28z"/>
	<polygon class="st2" points="289.74,202.17 291.16,197.45 243.76,183.32 242.33,188.04 	"/>
	
		<radialGradient id="Path_9202-4_5_" cx="-2320.8982" cy="1521.0046" r="0.5612" gradientTransform="matrix(5.427328e-15 -88.632 89.0041 5.449740e-15 -135160.1875 -205534.9219)" gradientUnits="userSpaceOnUse">
		<stop  offset="0" style="stop-color:#30302F"/>
		<stop  offset="1" style="stop-color:#000000"/>
	</radialGradient>
	<path id="Path_9202-4_4_" class="st5" d="M198.32,137.47v66.74l52.85-4.18c5.47-0.43,9.68-4.98,9.68-10.44v-37.51
		c0-5.46-4.21-10-9.68-10.44L198.32,137.47z"/>
	
		<radialGradient id="Path_9204-4_5_" cx="-2303.2031" cy="1523.3464" r="1.7417" gradientTransform="matrix(2.428695e-15 -39.6622 39.7969 2.436776e-15 -60332.1641 -91172.7656)" gradientUnits="userSpaceOnUse">
		<stop  offset="0" style="stop-color:#AD6728"/>
		<stop  offset="0.992" style="stop-color:#4F280F"/>
	</radialGradient>
	<path id="Path_9204-4_4_" class="st6" d="M293.1,138.21c9.23,13.88,9.13,51.53,0,65.26l-21.07-6.3c4.63-10.15,4.66-42.44,0-52.66
		L293.1,138.21z"/>
	
		<radialGradient id="Path_9226-4_5_" cx="-2372.8958" cy="1522.5203" r="0.4076" gradientTransform="matrix(-8.1353 0.1942 2.7253 102.3443 -22830.625 -157571.9375)" gradientUnits="userSpaceOnUse">
		<stop  offset="0.028" style="stop-color:#000000"/>
		<stop  offset="0.202" style="stop-color:#353535"/>
		<stop  offset="0.495" style="stop-color:#898989"/>
		<stop  offset="0.735" style="stop-color:#C8C8C8"/>
		<stop  offset="0.909" style="stop-color:#F1F0EF"/>
		<stop  offset="1" style="stop-color:#FFFFFF"/>
	</radialGradient>
	<path id="Path_9226-4_4_" class="st7" d="M275.49,170.34c-0.02-18.46-3.24-24.74-3.47-26.01c4.1-1.39,4.5-1.31,4.5-1.31
		s2.95,15.88,3.25,26.85c0.32,12.2-2.06,29.01-2.06,29.01l-5.68-1.71C272.03,197.18,275.69,188.27,275.49,170.34z"/>
	<path class="st2" d="M293.1,138.21c9.23,13.88,9.13,51.53,0,65.26l-21.07-6.3c4.63-10.15,4.66-42.44,0-52.66L293.1,138.21z"/>
	
		<radialGradient id="SVGID_1_" cx="-1630.4722" cy="150.4722" r="18.5703" gradientTransform="matrix(6.123234e-17 -1 1 6.123024e-17 -20.8406 320.8359)" gradientUnits="userSpaceOnUse">
		<stop  offset="0" style="stop-color:#F37630"/>
		<stop  offset="0.028" style="stop-color:#EE6F26"/>
		<stop  offset="0.137" style="stop-color:#B65627"/>
		<stop  offset="0.249" style="stop-color:#863F1D"/>
		<stop  offset="0.362" style="stop-color:#5D2C12"/>
		<stop  offset="0.477" style="stop-color:#391C0F"/>
		<stop  offset="0.594" style="stop-color:#22120A"/>
		<stop  offset="0.713" style="stop-color:#120D0A"/>
		<stop  offset="0.837" style="stop-color:#040303"/>
		<stop  offset="0.972" style="stop-color:#000000"/>
	</radialGradient>
	<path class="st8" d="M296.69,195.47c0,0-4.17-24.02-1.1-52.39c0,0,4.7,12.98,4.39,28.31C299.98,171.38,299.71,186.24,296.69,195.47
		z"/>
	
		<linearGradient id="Rectangle_24538-4_11_" gradientUnits="userSpaceOnUse" x1="-2454.5149" y1="1524.9725" x2="-2453.8025" y2="1524.9725" gradientTransform="matrix(-2.0127 6.7185 -67.1395 -20.1138 97380.2422 47641.4961)">
		<stop  offset="0" style="stop-color:#6F3215"/>
		<stop  offset="1" style="stop-color:#3D1D0D"/>
	</linearGradient>
	<polygon id="Rectangle_24538-4_6_" class="st9" points="10.26,139.23 8.84,143.95 56.24,158.08 57.67,153.36 	"/>
	
		<radialGradient id="Path_9201-4_11_" cx="-2201.2813" cy="1516.9781" r="0.0266" gradientTransform="matrix(-25.2788 83.7149 -1135.2653 -339.6965 1666562.875 699741.75)" gradientUnits="userSpaceOnUse">
		<stop  offset="0" style="stop-color:#92712B"/>
		<stop  offset="0.044" style="stop-color:#836728"/>
		<stop  offset="0.188" style="stop-color:#5D481C"/>
		<stop  offset="0.335" style="stop-color:#392F14"/>
		<stop  offset="0.485" style="stop-color:#231D0E"/>
		<stop  offset="0.639" style="stop-color:#13120B"/>
		<stop  offset="0.798" style="stop-color:#050403"/>
		<stop  offset="0.972" style="stop-color:#000000"/>
	</radialGradient>
	<path id="Path_9201-4_6_" class="st10" d="M29.48,150.12c18.78,5.61,34.31,9.32,34.72,7.93c0.41-1.39-14.46-7.06-33.24-12.67
		c-18.77-5.61-22.22-5.87-22.63-4.49C7.92,142.28,10.7,144.51,29.48,150.12z"/>
	<polygon class="st2" points="10.26,139.23 8.84,143.95 56.24,158.08 57.67,153.36 	"/>
	
		<linearGradient id="Rectangle_24538-4_12_" gradientUnits="userSpaceOnUse" x1="-2450.1443" y1="1524.8414" x2="-2449.4319" y2="1524.8414" gradientTransform="matrix(-2.0127 -6.7185 -67.1395 20.1138 97380.2422 -47268.0938)">
		<stop  offset="0" style="stop-color:#6F3215"/>
		<stop  offset="1" style="stop-color:#3D1D0D"/>
	</linearGradient>
	<polygon id="Rectangle_24538-4_5_" class="st11" points="10.26,202.17 8.84,197.45 56.24,183.32 57.67,188.04 	"/>
	
		<radialGradient id="Path_9201-4_12_" cx="-2200.9307" cy="1516.9703" r="0.0266" gradientTransform="matrix(-25.2788 -83.7149 -1135.2653 339.6965 1666562.875 -699368.375)" gradientUnits="userSpaceOnUse">
		<stop  offset="0" style="stop-color:#92712B"/>
		<stop  offset="0.044" style="stop-color:#836728"/>
		<stop  offset="0.188" style="stop-color:#5D481C"/>
		<stop  offset="0.335" style="stop-color:#392F14"/>
		<stop  offset="0.485" style="stop-color:#231D0E"/>
		<stop  offset="0.639" style="stop-color:#13120B"/>
		<stop  offset="0.798" style="stop-color:#050403"/>
		<stop  offset="0.972" style="stop-color:#000000"/>
	</radialGradient>
	<path id="Path_9201-4_5_" class="st12" d="M29.46,191.28c18.78-5.61,34.33-9.13,34.74-7.75c0.41,1.39-14.5,6.87-33.27,12.49
		s-22.19,6.06-22.6,4.67C7.92,199.31,10.68,196.89,29.46,191.28z"/>
	<polygon class="st2" points="10.26,202.17 8.84,197.45 56.24,183.32 57.67,188.04 	"/>
	
		<radialGradient id="Path_9202-4_6_" cx="-2320.8982" cy="1519.6368" r="0.5612" gradientTransform="matrix(5.427328e-15 -88.632 -89.0041 -5.449740e-15 135338.4531 -205534.9219)" gradientUnits="userSpaceOnUse">
		<stop  offset="0" style="stop-color:#30302F"/>
		<stop  offset="1" style="stop-color:#000000"/>
	</radialGradient>
	<path id="Path_9202-4_3_" class="st13" d="M101.68,137.47v66.74l-52.85-4.18c-5.47-0.43-9.68-4.98-9.68-10.44v-37.51
		c0-5.46,4.21-10,9.68-10.44L101.68,137.47z"/>
	
		<radialGradient id="Path_9204-4_6_" cx="-2303.2031" cy="1520.2875" r="1.7417" gradientTransform="matrix(2.428695e-15 -39.6622 -39.7969 -2.436776e-15 60510.4258 -91172.7656)" gradientUnits="userSpaceOnUse">
		<stop  offset="0" style="stop-color:#AD6728"/>
		<stop  offset="0.992" style="stop-color:#4F280F"/>
	</radialGradient>
	<path id="Path_9204-4_3_" class="st14" d="M6.9,138.21c-9.23,13.88-9.13,51.53,0,65.26l21.07-6.3c-4.63-10.15-4.66-42.44,0-52.66
		L6.9,138.21z"/>
	
		<radialGradient id="Path_9226-4_6_" cx="-2357.9412" cy="1522.4918" r="0.4076" gradientTransform="matrix(8.1353 0.1942 -2.7253 102.3443 23008.8867 -157571.9375)" gradientUnits="userSpaceOnUse">
		<stop  offset="0.028" style="stop-color:#000000"/>
		<stop  offset="0.202" style="stop-color:#353535"/>
		<stop  offset="0.495" style="stop-color:#898989"/>
		<stop  offset="0.735" style="stop-color:#C8C8C8"/>
		<stop  offset="0.909" style="stop-color:#F1F0EF"/>
		<stop  offset="1" style="stop-color:#FFFFFF"/>
	</radialGradient>
	<path id="Path_9226-4_3_" class="st15" d="M24.51,170.34c0.02-18.46,3.24-24.74,3.47-26.01c-4.1-1.39-4.5-1.31-4.5-1.31
		s-2.95,15.88-3.25,26.85c-0.32,12.2,2.06,29.01,2.06,29.01l5.68-1.71C27.97,197.18,24.31,188.27,24.51,170.34z"/>
	<path class="st2" d="M6.9,138.21c-9.23,13.88-9.13,51.53,0,65.26l21.07-6.3c-4.63-10.15-4.66-42.44,0-52.66L6.9,138.21z"/>
	
		<radialGradient id="SVGID_2_" cx="-1630.4722" cy="28.7335" r="18.5703" gradientTransform="matrix(6.123234e-17 -1 -1 -6.123024e-17 199.102 320.8359)" gradientUnits="userSpaceOnUse">
		<stop  offset="0" style="stop-color:#F37630"/>
		<stop  offset="0.028" style="stop-color:#EE6F26"/>
		<stop  offset="0.137" style="stop-color:#B65627"/>
		<stop  offset="0.249" style="stop-color:#863F1D"/>
		<stop  offset="0.362" style="stop-color:#5D2C12"/>
		<stop  offset="0.477" style="stop-color:#391C0F"/>
		<stop  offset="0.594" style="stop-color:#22120A"/>
		<stop  offset="0.713" style="stop-color:#120D0A"/>
		<stop  offset="0.837" style="stop-color:#040303"/>
		<stop  offset="0.972" style="stop-color:#000000"/>
	</radialGradient>
	<path class="st16" d="M3.31,195.47c0,0,4.17-24.02,1.1-52.39c0,0-4.7,12.98-4.39,28.31C0.02,171.38,0.29,186.24,3.31,195.47z"/>
	
		<linearGradient id="Rectangle_24538-4_13_" gradientUnits="userSpaceOnUse" x1="-2448.6887" y1="1526.9211" x2="-2447.9766" y2="1526.9211" gradientTransform="matrix(-6.7185 2.0127 20.1138 67.1395 -47320.6563 -97181.1406)">
		<stop  offset="0" style="stop-color:#6F3215"/>
		<stop  offset="1" style="stop-color:#3D1D0D"/>
	</linearGradient>
	<polygon id="Rectangle_24538-4_1_" class="st17" points="181.61,331.41 176.89,332.83 162.76,285.43 167.48,284.01 	"/>
	
		<radialGradient id="Path_9201-4_13_" cx="-2200.814" cy="1517.0933" r="0.0266" gradientTransform="matrix(-83.7178 25.278 339.7082 1135.2263 -699444.9375 -1666306.625)" gradientUnits="userSpaceOnUse">
		<stop  offset="0" style="stop-color:#92712B"/>
		<stop  offset="0.044" style="stop-color:#836728"/>
		<stop  offset="0.188" style="stop-color:#5D481C"/>
		<stop  offset="0.335" style="stop-color:#392F14"/>
		<stop  offset="0.485" style="stop-color:#231D0E"/>
		<stop  offset="0.639" style="stop-color:#13120B"/>
		<stop  offset="0.798" style="stop-color:#050403"/>
		<stop  offset="0.972" style="stop-color:#000000"/>
	</radialGradient>
	<path id="Path_9201-4_1_" class="st18" d="M170.72,312.2c-5.61-18.77-9.32-34.31-7.93-34.72c1.39-0.41,7.06,14.46,12.67,33.24
		c5.61,18.77,5.87,22.22,4.49,22.63C178.56,333.76,176.33,330.97,170.72,312.2z"/>
	<polygon class="st2" points="181.61,331.41 176.89,332.83 162.76,285.43 167.48,284.01 	"/>
	
		<linearGradient id="Rectangle_24538-4_14_" gradientUnits="userSpaceOnUse" x1="-2444.3181" y1="1526.7902" x2="-2443.6057" y2="1526.7902" gradientTransform="matrix(6.7185 2.0127 -20.1138 67.1395 47588.9336 -97181.1406)">
		<stop  offset="0" style="stop-color:#6F3215"/>
		<stop  offset="1" style="stop-color:#3D1D0D"/>
	</linearGradient>
	<polygon id="Rectangle_24538-4_2_" class="st19" points="118.67,331.41 123.39,332.83 137.52,285.43 132.8,284.01 	"/>
	
		<radialGradient id="Path_9201-4_14_" cx="-2200.4634" cy="1517.0856" r="0.0266" gradientTransform="matrix(83.7178 25.278 -339.7082 1135.2263 699713.1875 -1666306.625)" gradientUnits="userSpaceOnUse">
		<stop  offset="0" style="stop-color:#92712B"/>
		<stop  offset="0.044" style="stop-color:#836728"/>
		<stop  offset="0.188" style="stop-color:#5D481C"/>
		<stop  offset="0.335" style="stop-color:#392F14"/>
		<stop  offset="0.485" style="stop-color:#231D0E"/>
		<stop  offset="0.639" style="stop-color:#13120B"/>
		<stop  offset="0.798" style="stop-color:#050403"/>
		<stop  offset="0.972" style="stop-color:#000000"/>
	</radialGradient>
	<path id="Path_9201-4_2_" class="st20" d="M129.56,312.22c5.61-18.77,9.13-34.32,7.75-34.74c-1.39-0.41-6.87,14.49-12.49,33.27
		c-5.61,18.77-6.06,22.19-4.67,22.6C121.53,333.76,123.95,330.99,129.56,312.22z"/>
	<polygon class="st2" points="118.67,331.41 123.39,332.83 137.52,285.43 132.8,284.01 	"/>
	
		<radialGradient id="Path_9202-4_7_" cx="-2320.8982" cy="1521.2388" r="0.5612" gradientTransform="matrix(88.635 0 0 89.001 205862.8125 -135134.7188)" gradientUnits="userSpaceOnUse">
		<stop  offset="0" style="stop-color:#30302F"/>
		<stop  offset="1" style="stop-color:#000000"/>
	</radialGradient>
	<path id="Path_9202-4_1_" class="st21" d="M183.37,240h-66.74l4.18,52.85c0.43,5.47,4.98,9.68,10.44,9.68h37.51
		c5.46,0,10-4.21,10.44-9.68L183.37,240z"/>
	
		<radialGradient id="Path_9204-4_7_" cx="-2303.2031" cy="1523.8701" r="1.7417" gradientTransform="matrix(39.6636 0 0 39.7956 91496.7422 -60309.25)" gradientUnits="userSpaceOnUse">
		<stop  offset="0" style="stop-color:#AD6728"/>
		<stop  offset="0.992" style="stop-color:#4F280F"/>
	</radialGradient>
	<path id="Path_9204-4_1_" class="st22" d="M182.63,334.78c-13.88,9.23-51.53,9.13-65.26,0l6.3-21.07c10.15,4.63,42.44,4.66,52.66,0
		L182.63,334.78z"/>
	
		<radialGradient id="Path_9226-4_7_" cx="-2375.4558" cy="1522.5251" r="0.4076" gradientTransform="matrix(-0.1942 -8.1351 -102.3478 2.7252 157898.1875 -22808.9961)" gradientUnits="userSpaceOnUse">
		<stop  offset="0.028" style="stop-color:#000000"/>
		<stop  offset="0.202" style="stop-color:#353535"/>
		<stop  offset="0.495" style="stop-color:#898989"/>
		<stop  offset="0.735" style="stop-color:#C8C8C8"/>
		<stop  offset="0.909" style="stop-color:#F1F0EF"/>
		<stop  offset="1" style="stop-color:#FFFFFF"/>
	</radialGradient>
	<path id="Path_9226-4_1_" class="st23" d="M150.5,317.17c18.46-0.02,24.74-3.24,26.01-3.47c1.39,4.1,1.31,4.5,1.31,4.5
		s-15.88,2.95-26.85,3.25c-12.21,0.32-29.01-2.06-29.01-2.06l1.71-5.68C123.66,313.7,132.57,317.36,150.5,317.17z"/>
	<path class="st2" d="M182.63,334.78c-13.88,9.23-51.53,9.13-65.26,0l6.3-21.07c10.15,4.63,42.44,4.66,52.66,0L182.63,334.78z"/>
	
		<radialGradient id="SVGID_3_" cx="-1630.4722" cy="171.3133" r="18.5703" gradientTransform="matrix(1 0 0 1 0 5.861132e-03)" gradientUnits="userSpaceOnUse">
		<stop  offset="0" style="stop-color:#F37630"/>
		<stop  offset="0.028" style="stop-color:#EE6F26"/>
		<stop  offset="0.137" style="stop-color:#B65627"/>
		<stop  offset="0.249" style="stop-color:#863F1D"/>
		<stop  offset="0.362" style="stop-color:#5D2C12"/>
		<stop  offset="0.477" style="stop-color:#391C0F"/>
		<stop  offset="0.594" style="stop-color:#22120A"/>
		<stop  offset="0.713" style="stop-color:#120D0A"/>
		<stop  offset="0.837" style="stop-color:#040303"/>
		<stop  offset="0.972" style="stop-color:#000000"/>
	</radialGradient>
	<path class="st24" d="M125.37,338.37c0,0,24.02-4.17,52.4-1.1c0,0-12.98,4.7-28.31,4.39C149.46,341.66,134.6,341.39,125.37,338.37z
		"/>
	
		<linearGradient id="Rectangle_24538-4_15_" gradientUnits="userSpaceOnUse" x1="-2453.6702" y1="1525.2573" x2="-2452.958" y2="1525.2573" gradientTransform="matrix(-6.7185 -2.0127 20.1138 -67.1395 -47320.6563 97401.0859)">
		<stop  offset="0" style="stop-color:#6F3215"/>
		<stop  offset="1" style="stop-color:#3D1D0D"/>
	</linearGradient>
	<polygon id="Rectangle_24538-4_4_" class="st25" points="181.61,10.27 176.89,8.85 162.76,56.25 167.48,57.67 	"/>
	
		<radialGradient id="Path_9201-4_15_" cx="-2201.2129" cy="1516.995" r="0.0266" gradientTransform="matrix(-83.7178 -25.278 339.7082 -1135.2263 -699444.9375 1666526.625)" gradientUnits="userSpaceOnUse">
		<stop  offset="0" style="stop-color:#92712B"/>
		<stop  offset="0.044" style="stop-color:#836728"/>
		<stop  offset="0.188" style="stop-color:#5D481C"/>
		<stop  offset="0.335" style="stop-color:#392F14"/>
		<stop  offset="0.485" style="stop-color:#231D0E"/>
		<stop  offset="0.639" style="stop-color:#13120B"/>
		<stop  offset="0.798" style="stop-color:#050403"/>
		<stop  offset="0.972" style="stop-color:#000000"/>
	</radialGradient>
	<path id="Path_9201-4_4_" class="st26" d="M170.72,29.48c-5.61,18.77-9.32,34.31-7.93,34.72c1.39,0.41,7.06-14.46,12.67-33.24
		c5.61-18.77,5.87-22.22,4.49-22.63C178.56,7.92,176.33,10.71,170.72,29.48z"/>
	<polygon class="st2" points="181.61,10.27 176.89,8.85 162.76,56.25 167.48,57.67 	"/>
	
		<linearGradient id="Rectangle_24538-4_16_" gradientUnits="userSpaceOnUse" x1="-2449.2996" y1="1525.1262" x2="-2448.5872" y2="1525.1262" gradientTransform="matrix(6.7185 -2.0127 -20.1138 -67.1395 47588.9336 97401.0859)">
		<stop  offset="0" style="stop-color:#6F3215"/>
		<stop  offset="1" style="stop-color:#3D1D0D"/>
	</linearGradient>
	<polygon id="Rectangle_24538-4_3_" class="st27" points="118.67,10.27 123.39,8.85 137.52,56.25 132.8,57.67 	"/>
	
		<radialGradient id="Path_9201-4_16_" cx="-2200.8623" cy="1516.9872" r="0.0266" gradientTransform="matrix(83.7178 -25.278 -339.7082 -1135.2263 699713.1875 1666526.625)" gradientUnits="userSpaceOnUse">
		<stop  offset="0" style="stop-color:#92712B"/>
		<stop  offset="0.044" style="stop-color:#836728"/>
		<stop  offset="0.188" style="stop-color:#5D481C"/>
		<stop  offset="0.335" style="stop-color:#392F14"/>
		<stop  offset="0.485" style="stop-color:#231D0E"/>
		<stop  offset="0.639" style="stop-color:#13120B"/>
		<stop  offset="0.798" style="stop-color:#050403"/>
		<stop  offset="0.972" style="stop-color:#000000"/>
	</radialGradient>
	<path id="Path_9201-4_3_" class="st28" d="M129.56,29.47c5.61,18.77,9.13,34.32,7.75,34.74s-6.87-14.49-12.49-33.27
		s-6.06-22.19-4.67-22.6C121.53,7.92,123.95,10.69,129.56,29.47z"/>
	<polygon class="st2" points="118.67,10.27 123.39,8.85 137.52,56.25 132.8,57.67 	"/>
	
		<radialGradient id="Path_9202-4_8_" cx="-2320.8982" cy="1519.871" r="0.5612" gradientTransform="matrix(88.635 0 0 -89.001 205862.8125 135354.6563)" gradientUnits="userSpaceOnUse">
		<stop  offset="0" style="stop-color:#30302F"/>
		<stop  offset="1" style="stop-color:#000000"/>
	</radialGradient>
	<path id="Path_9202-4_2_" class="st29" d="M183.37,101.68h-66.74l4.18-52.85c0.43-5.47,4.98-9.68,10.44-9.68h37.51
		c5.46,0,10,4.21,10.44,9.68L183.37,101.68z"/>
	
		<radialGradient id="Path_9204-4_8_" cx="-2303.2031" cy="1520.8112" r="1.7417" gradientTransform="matrix(39.6636 0 0 -39.7956 91496.7422 60529.1953)" gradientUnits="userSpaceOnUse">
		<stop  offset="0" style="stop-color:#AD6728"/>
		<stop  offset="0.992" style="stop-color:#4F280F"/>
	</radialGradient>
	<path id="Path_9204-4_2_" class="st30" d="M182.63,6.9c-13.88-9.23-51.53-9.13-65.26,0l6.3,21.07c10.15-4.63,42.44-4.66,52.66,0
		L182.63,6.9z"/>
	
		<radialGradient id="Path_9226-4_8_" cx="-2360.5012" cy="1522.4967" r="0.4076" gradientTransform="matrix(-0.1942 8.1351 -102.3478 -2.7252 157898.1875 23028.9414)" gradientUnits="userSpaceOnUse">
		<stop  offset="0.028" style="stop-color:#000000"/>
		<stop  offset="0.202" style="stop-color:#353535"/>
		<stop  offset="0.495" style="stop-color:#898989"/>
		<stop  offset="0.735" style="stop-color:#C8C8C8"/>
		<stop  offset="0.909" style="stop-color:#F1F0EF"/>
		<stop  offset="1" style="stop-color:#FFFFFF"/>
	</radialGradient>
	<path id="Path_9226-4_2_" class="st31" d="M150.5,24.51c18.46,0.02,24.74,3.24,26.01,3.47c1.39-4.1,1.31-4.5,1.31-4.5
		s-15.88-2.95-26.85-3.25c-12.21-0.32-29.01,2.06-29.01,2.06l1.71,5.68C123.66,27.98,132.57,24.32,150.5,24.51z"/>
	<path class="st2" d="M182.63,6.9c-13.88-9.23-51.53-9.13-65.26,0l6.3,21.07c10.15-4.63,42.44-4.66,52.66,0L182.63,6.9z"/>
	
		<radialGradient id="SVGID_4_" cx="-1630.4722" cy="49.5742" r="18.5703" gradientTransform="matrix(1 0 0 -1 0 219.9409)" gradientUnits="userSpaceOnUse">
		<stop  offset="0" style="stop-color:#F37630"/>
		<stop  offset="0.028" style="stop-color:#EE6F26"/>
		<stop  offset="0.137" style="stop-color:#B65627"/>
		<stop  offset="0.249" style="stop-color:#863F1D"/>
		<stop  offset="0.362" style="stop-color:#5D2C12"/>
		<stop  offset="0.477" style="stop-color:#391C0F"/>
		<stop  offset="0.594" style="stop-color:#22120A"/>
		<stop  offset="0.713" style="stop-color:#120D0A"/>
		<stop  offset="0.837" style="stop-color:#040303"/>
		<stop  offset="0.972" style="stop-color:#000000"/>
	</radialGradient>
	<path class="st32" d="M125.37,3.31c0,0,24.02,4.17,52.4,1.1c0,0-12.98-4.7-28.31-4.39C149.46,0.02,134.6,0.29,125.37,3.31z"/>
	
		<radialGradient id="Rectangle_24568_2_" cx="-2326.3455" cy="1516.8002" r="0.7822" gradientTransform="matrix(142.1579 0 0 -275.3364 330858.0625 417799.3438)" gradientUnits="userSpaceOnUse">
		<stop  offset="0" style="stop-color:#AD6728"/>
		<stop  offset="0.992" style="stop-color:#4F280F"/>
	</radialGradient>
	<path id="Rectangle_24568_1_" class="st33" d="M59.03,52.25h181.54c3.11,0,5.63,2.53,5.63,5.66v222.32c0,3.13-2.52,5.66-5.63,5.66
		H59.03c-3.11,0-5.63-2.53-5.63-5.66V57.91C53.4,54.78,55.92,52.25,59.03,52.25z"/>
	<path class="st2" d="M60.89,52.17h177.81c4.14,0,7.5,4.08,7.5,9.1v215.52c0,5.03-3.36,9.1-7.5,9.1H60.89c-4.14,0-7.5-4.08-7.5-9.1
		V61.27C53.4,56.25,56.75,52.17,60.89,52.17z"/>
	<rect id="Rectangle_24580_1_" x="75.91" y="75.72" class="st34" width="142.85" height="183.51"/>
	<path id="Path_9421_1_" class="st35" d="M213.08,84.38H82.25l-6.31-8.66H219.4L213.08,84.38z"/>
	<path id="Path_9422_1_" class="st35" d="M213.08,251.15H82.25l-6.31,8.66H219.4L213.08,251.15z"/>
	<path id="Path_9423_1_" class="st36" d="M212.43,251.15V84.38l7.02-8.69l-0.08,184.11L212.43,251.15z"/>
	<path id="Path_9424_1_" class="st36" d="M82.25,251.15V84.38l-6.31-8.66v184.08L82.25,251.15z"/>
</g>
</svg>
