<?xml version="1.0" encoding="utf-8"?>
<!-- Generator: Adobe Illustrator 24.2.3, SVG Export Plug-In . SVG Version: 6.00 Build 0)  -->
<svg version="1.1" id="Layer_1" xmlns="http://www.w3.org/2000/svg" xmlns:xlink="http://www.w3.org/1999/xlink" x="0px" y="0px"
	 viewBox="0 0 300 300" style="enable-background:new 0 0 300 300;" xml:space="preserve">
<style type="text/css">
	.st0{fill:#00A64E;}
	.st1{fill:#FFFFFF;}
	.st2{opacity:0.09;enable-background:new    ;}
	.st3{fill:none;}
	.st4{opacity:0.3;fill:#221F1F;enable-background:new    ;}
	.st5{fill:#E2882B;}
	.st6{fill:#F8A247;}
	.st7{fill:#FFE8C3;}
	.st8{fill:#8F8F8F;}
	.st9{fill:#CECECD;}
	.st10{fill:#D1D1D1;}
	.st11{opacity:0.2;}
	.st12{fill:#BEBDBD;}
	.st13{opacity:0.4;fill:#A8A8A8;enable-background:new    ;}
	.st14{opacity:0.6;fill:#8F8F8F;enable-background:new    ;}
	.st15{fill:#AD2425;}
	.st16{fill:#C46161;}
	.st17{fill:#A31E22;}
	.st18{fill:#4560AB;}
	.st19{fill:#7C8EC7;}
	.st20{fill:#233E98;}
	.st21{fill:#E1E1E1;}
	.st22{fill:#F3F4F5;stroke:#E1E1E1;}
	.st23{fill:#DBDBDA;}
	.st24{fill:#F4F5F5;stroke:#E1E1E1;}
	.st25{opacity:0.53;}
	.st26{fill:#BDBCBC;}
	.st27{fill:#ADADAD;}
	.st28{fill:#D02026;}
	.st29{fill:#A11D21;}
	.st30{fill:#C32026;}
	.st31{fill:#8E191B;}
	.st32{fill:#A31D21;}
	.st33{fill:#2A0F0F;}
	.st34{fill:#9B1C1F;}
	.st35{opacity:0.47;}
	.st36{fill:#4255A4;}
	.st37{fill:#3A4DA0;}
	.st38{fill:#DEDEDD;}
	.st39{fill:#070404;}
	.st40{opacity:0.6;fill:#0E7D40;enable-background:new    ;}
	.st41{fill:#AEACAD;}
	.st42{opacity:0.2;fill:#E08635;enable-background:new    ;}
	.st43{fill:#FBE0CE;}
	.st44{fill:#F89C40;}
	.st45{fill:#F4B578;}
	.st46{fill:#D1AA7B;}
	.st47{fill:#D5D3D2;}
</style>
<g id="Group_3080_1_" transform="translate(-146.144 -289.242)">
	<g id="Group_2930_1_" transform="translate(155.498 298.66)">
		<rect id="Rectangle_20085_1_" x="-3" y="-3.07" class="st8" width="287.3" height="287.3"/>
	</g>
	<g id="Group_2931_1_" transform="translate(179.75 322.911)">
		<rect id="Rectangle_20086_1_" x="-9.87" y="-9.93" class="st9" width="252.52" height="252.52"/>
	</g>
	<g id="Group_2933_1_" transform="translate(205.455 348.616)">
		<g id="Group_2932_1_" transform="translate(0 0)">
			<rect id="Rectangle_20087_1_" x="-17.14" y="-17.2" class="st10" width="215.66" height="215.66"/>
		</g>
	</g>
	<g id="Group_2938_1_" transform="translate(195.103 338.264)" class="st11">
		<g id="Group_2934_1_" transform="translate(24.276 24.276)">
			<rect id="Rectangle_20088_1_" x="-21.08" y="-21.14" class="st3" width="195.69" height="195.69"/>
		</g>
		<g id="Group_2935_1_" transform="translate(16.184 16.184)">
			<path id="Path_1086_1_" class="st3" d="M-18.79,188.44H188.5V-18.85H-18.79V188.44z M-14.57-14.63h198.85v198.85H-14.57V-14.63z"
				/>
		</g>
		<g id="Group_2936_1_" transform="translate(8.092 8.092)">
			<path id="Path_1087_1_" class="st3" d="M-16.5,202.34h218.9v-218.9H-16.5V202.34z M-12.28-12.34h210.46v210.45H-12.28
				L-12.28-12.34z"/>
		</g>
		<g id="Group_2937_1_" transform="translate(0 0)">
			<path id="Path_1088_1_" class="st3" d="M-14.21,216.23h230.5v-230.5h-230.5V216.23z M-9.99-10.05h222.06v222.07H-9.99
				L-9.99-10.05z"/>
		</g>
	</g>
	<g id="Group_2973_1_" transform="translate(146.642 289.742)">
		<g id="Group_2943_1_" transform="translate(32.237 32.297)">
			<g id="Group_2939_1_">
				<path id="Path_1089_1_" class="st12" d="M244.15,244.09H-9.62V-9.68h253.77V244.09z M-7.84,242.31h250.22V-7.9H-7.84V242.31z"/>
			</g>
			<g id="Group_2940_1_" transform="translate(8.786 8.786)">
				<path id="Path_1090_1_" class="st13" d="M229.06,229H-12.11V-12.17h241.17V229z M-10.33,227.23h237.62V-10.39H-10.33V227.23z"/>
			</g>
			<g id="Group_2941_1_" transform="translate(17.573 17.573)">
				<path id="Path_1091_1_" class="st14" d="M213.98,213.92H-14.59V-14.65h228.57V213.92z M-12.82,212.14H212.2V-12.88H-12.82
					L-12.82,212.14z"/>
			</g>
			<g id="Group_2942_1_" transform="translate(26.358 26.359)">
				<path id="Path_1092_1_" class="st8" d="M198.89,198.83H-17.08V-17.14h215.97V198.83z M-15.3,197.05h212.42V-15.36H-15.3
					L-15.3,197.05z"/>
			</g>
		</g>
		<g id="Group_2972_1_">
			<g id="Group_2950_1_" transform="translate(0 0.001)">
				<g id="Group_2946_1_">
					<g id="Group_2944_1_" transform="translate(2.34 2.34)">
						
							<rect id="Rectangle_20089_1_" x="11.46" y="-3.07" transform="matrix(0.7071 -0.7071 0.7071 0.7071 -7.0863 17.1712)" class="st15" width="11.46" height="40.43"/>
					</g>
					<g id="Group_2945_1_">
						<path id="Path_1093_1_" class="st16" d="M9.28,1.14c2.24,2.24,1.73,5.36-0.51,7.59s-5.36,2.74-7.59,0.51
							c-2.24-2.24-2.24-5.86,0-8.1C3.42-1.1,7.04-1.1,9.28,1.14L9.28,1.14z"/>
					</g>
				</g>
				<g id="Group_2949_1_" transform="translate(33.412 33.439)">
					<g id="Group_2947_1_">
						<path id="Path_1094_1_" class="st17" d="M23.77,14.04l-9.57,9.68c0,0-0.01,0.01-0.01,0.01c-1.15,1.16-3.02,1.2-4.22,0.09
							l-0.2-0.2L-9.2,4.65c-0.44-0.54-0.68-1.21-0.68-1.91L-9.95-9.94l12.68-0.07c0.74-0.01,1.46,0.25,2.02,0.74L23.74,9.72
							c1.2,1.18,1.22,3.1,0.04,4.3C23.78,14.03,23.77,14.03,23.77,14.04z"/>
					</g>
					<g id="Group_2948_1_">
						<path id="Path_1095_1_" class="st16" d="M4.91-4.82l-9.58,9.69C-5.78,6-7.57,6.09-8.78,5.07c-0.16-0.12-0.3-0.27-0.42-0.42
							c-0.44-0.54-0.68-1.21-0.68-1.91L-9.95-9.94l12.68-0.07c0.74-0.01,1.46,0.25,2.02,0.74L5-9.02C6.1-7.83,6.06-5.97,4.91-4.82z"
							/>
					</g>
				</g>
			</g>
			<g id="Group_2957_1_" transform="translate(336.666 336.822)">
				<g id="Group_2953_1_" transform="translate(28.225 28.17)">
					<g id="Group_2951_1_">
						
							<rect id="Rectangle_20090_1_" x="-91.14" y="-105.7" transform="matrix(0.7071 -0.7071 0.7071 0.7071 35.4304 -85.4332)" class="st18" width="11.46" height="40.43"/>
					</g>
					<g id="Group_2952_1_" transform="translate(37.852 37.851)">
						<path id="Path_1096_1_" class="st19" d="M-104.92-113.09c-2.24-2.24-5.36-1.73-7.59,0.51c-2.24,2.24-2.74,5.36-0.51,7.59
							c2.24,2.24,5.86,2.24,8.1,0C-102.68-107.23-102.68-110.86-104.92-113.09L-104.92-113.09z"/>
					</g>
				</g>
				<g id="Group_2956_1_" transform="translate(0)">
					<g id="Group_2954_1_">
						<path id="Path_1097_1_" class="st20" d="M-85.18-94.97l-9.68,9.57c0,0-0.01,0.01-0.01,0.01c-1.16,1.15-1.2,3.02-0.09,4.22
							l0.2,0.2L-75.79-62c0.54,0.44,1.21,0.68,1.91,0.68l12.68,0.07l0.07-12.68c0.01-0.74-0.25-1.46-0.74-2.02l-18.99-18.99
							c-1.18-1.2-3.1-1.22-4.3-0.04C-85.17-94.98-85.18-94.98-85.18-94.97z"/>
					</g>
					<g id="Group_2955_1_" transform="translate(26.282 26.294)">
						<path id="Path_1098_1_" class="st19" d="M-92.61-102.41l-9.69,9.58c-1.13,1.1-1.22,2.89-0.21,4.11
							c0.12,0.16,0.27,0.3,0.42,0.42c0.54,0.44,1.21,0.68,1.91,0.68l12.68,0.07l0.07-12.68c0.01-0.74-0.25-1.46-0.74-2.02
							l-0.25-0.25C-89.6-103.6-91.46-103.56-92.61-102.41z"/>
					</g>
				</g>
			</g>
			<g id="Group_2964_1_" transform="translate(0.002 336.786)">
				<g id="Group_2960_1_" transform="translate(0 28.225)">
					<g id="Group_2958_1_" transform="translate(2.34)">
						
							<rect id="Rectangle_20091_1_" x="-3.03" y="-91.22" transform="matrix(0.7071 -0.7071 0.7071 0.7071 65.4836 -12.8888)" class="st21" width="40.43" height="11.46"/>
					</g>
					<g id="Group_2959_1_" transform="translate(0 37.852)">
						<path id="Path_1099_1_" class="st22" d="M9.28-105c2.24-2.24,1.73-5.36-0.51-7.59c-2.24-2.24-5.36-2.74-7.59-0.51
							c-2.24,2.24-2.24,5.86,0,8.1C3.42-102.76,7.04-102.76,9.28-105L9.28-105z"/>
					</g>
				</g>
				<g id="Group_2963_1_" transform="translate(33.412)">
					<g id="Group_2961_1_">
						<path id="Path_1100_1_" class="st23" d="M23.77-85.26l-9.57-9.68c0,0-0.01-0.01-0.01-0.01c-1.15-1.16-3.02-1.2-4.22-0.09
							l-0.2,0.2L-9.2-75.87c-0.44,0.54-0.68,1.21-0.68,1.91l-0.07,12.68l12.68,0.07c0.74,0.01,1.46-0.25,2.02-0.74l18.99-18.99
							c1.2-1.18,1.22-3.1,0.04-4.3C23.78-85.25,23.77-85.26,23.77-85.26z"/>
					</g>
					<g id="Group_2962_1_" transform="translate(0 26.282)">
						<path id="Path_1101_1_" class="st1" d="M4.91-92.69l-9.58-9.69c-1.1-1.13-2.89-1.22-4.11-0.21c-0.16,0.12-0.3,0.27-0.42,0.42
							c-0.44,0.54-0.68,1.21-0.68,1.91l-0.07,12.68L2.73-87.5c0.74,0.01,1.46-0.25,2.02-0.74L5-88.49
							C6.1-89.68,6.06-91.54,4.91-92.69z"/>
					</g>
				</g>
			</g>
			<g id="Group_2971_1_" transform="translate(336.611)">
				<g id="Group_2967_1_" transform="translate(28.17)">
					<g id="Group_2965_1_" transform="translate(0 2.34)">
						
							<rect id="Rectangle_20092_1_" x="-105.59" y="11.41" transform="matrix(0.7071 -0.7071 0.7071 0.7071 -37.1271 -55.3532)" class="st21" width="40.43" height="11.46"/>
					</g>
					<g id="Group_2966_1_" transform="translate(37.851)">
						<path id="Path_1102_1_" class="st24" d="M-112.99,1.14c-2.24,2.24-1.73,5.36,0.51,7.59c2.24,2.24,5.36,2.74,7.59,0.51
							c2.24-2.24,2.24-5.86,0-8.1S-110.75-1.1-112.99,1.14L-112.99,1.14z"/>
					</g>
				</g>
				<g id="Group_2970_1_" transform="translate(0 33.439)">
					<g id="Group_2968_1_">
						<path id="Path_1103_1_" class="st23" d="M-94.87,14.04l9.57,9.68c0,0,0.01,0.01,0.01,0.01c1.15,1.16,3.02,1.2,4.22,0.09
							l0.2-0.2L-61.9,4.65c0.44-0.54,0.68-1.21,0.68-1.91l0.07-12.68l-12.68-0.07c-0.74-0.01-1.46,0.25-2.02,0.74L-94.84,9.72
							c-1.2,1.18-1.22,3.1-0.04,4.3C-94.88,14.03-94.87,14.03-94.87,14.04z"/>
					</g>
					<g id="Group_2969_1_" transform="translate(26.294)">
						<path id="Path_1104_1_" class="st1" d="M-102.31-4.82l9.58,9.69c1.1,1.13,2.89,1.22,4.11,0.21c0.16-0.12,0.3-0.27,0.42-0.42
							c0.44-0.54,0.68-1.21,0.68-1.91l0.07-12.68l-12.68-0.07c-0.74-0.01-1.46,0.25-2.02,0.74l-0.25,0.25
							C-103.5-7.83-103.46-5.97-102.31-4.82z"/>
					</g>
				</g>
			</g>
		</g>
	</g>
	<g id="Group_6107_1_" transform="translate(10 -3)">
		<g id="Group_3478_1_" transform="matrix(0.996, -0.087, 0.087, 0.996, 219.307, 383.608)" class="st25">
			<g id="Group_3025_1_">
				<g id="Group_2998_1_" transform="translate(43.782 10.311)">
					<g id="Group_2985_1_" transform="translate(0.009 29.468)">
						<g id="Group_2984_1_">
							<g id="Group_2977_1_" transform="translate(0 10.243)">
								<g id="Group_2974_1_" transform="translate(0 1.013)">
									<path id="Path_1105_1_" class="st26" d="M-20.36-39.37c-0.14,0.69-3.3,0.61-7.04-0.17s-6.66-1.98-6.51-2.67
										c0.14-0.69,3.3-0.61,7.04,0.17S-20.21-40.06-20.36-39.37z"/>
								</g>
								<g id="Group_2975_1_" transform="translate(0.042 0.648)">
									
										<rect id="Rectangle_20093_1_" x="-27.46" y="-47.7" transform="matrix(-0.2064 0.9785 -0.9785 -0.2064 -72.5882 -22.7079)" class="st26" width="0.74" height="13.82"/>
								</g>
								<g id="Group_2976_1_" transform="translate(0.245)">
									<path id="Path_1106_1_" class="st26" d="M-20.43-39.08c-0.14,0.69-3.3,0.61-7.04-0.17c-3.74-0.79-6.66-1.98-6.51-2.67
										c0.14-0.69,3.3-0.61,7.04,0.17S-20.28-39.77-20.43-39.08z"/>
								</g>
							</g>
							<g id="Group_2978_1_" transform="translate(0.689 1.759)">
								
									<rect id="Rectangle_20094_1_" x="-30.33" y="-41.92" transform="matrix(-0.2061 0.9785 -0.9785 -0.2061 -67.0924 -16.236)" class="st26" width="6.75" height="13.18"/>
							</g>
							<g id="Group_2982_1_" transform="translate(2.161)">
								<g id="Group_2979_1_" transform="translate(0 1.013)">
									<path id="Path_1107_1_" class="st26" d="M-20.97-36.47c-0.14,0.69-3.3,0.61-7.04-0.17s-6.66-1.98-6.51-2.67
										c0.14-0.69,3.3-0.61,7.04,0.17S-20.83-37.16-20.97-36.47z"/>
								</g>
								<g id="Group_2980_1_" transform="translate(0.042 0.648)">
									
										<rect id="Rectangle_20095_1_" x="-28.07" y="-44.8" transform="matrix(-0.2064 0.9785 -0.9785 -0.2064 -70.4895 -18.6121)" class="st26" width="0.74" height="13.82"/>
								</g>
								<g id="Group_2981_1_" transform="translate(0.245)">
									<path id="Path_1108_1_" class="st26" d="M-21.04-36.18c-0.14,0.69-3.3,0.61-7.04-0.17s-6.66-1.98-6.51-2.67
										c0.14-0.69,3.3-0.61,7.04,0.17S-20.89-36.87-21.04-36.18z"/>
								</g>
							</g>
							<g id="Group_2983_1_" transform="translate(0.67 10.548)">
								<path id="Path_1109_1_" class="st26" d="M-21.2-39.46c-0.11,0.53-3.09,0.35-6.65-0.4s-6.36-1.79-6.25-2.32
									c0.11-0.53,3.09-0.35,6.65,0.4C-23.88-41.02-21.08-39.99-21.2-39.46z"/>
							</g>
						</g>
					</g>
					<g id="Group_2990_1_" transform="translate(2.433)">
						<g id="Group_2986_1_" transform="translate(0 0.002)">
							<path id="Path_1110_1_" class="st26" d="M-16.78-16.94l-0.01,0.02c-1.45,5.08-3.59,10.04-5.28,10.24
								c-1.13,0.12-2.27,0.1-3.39-0.06c-0.72-0.09-1.46-0.22-2.2-0.38c-0.23-0.05-0.47-0.1-0.7-0.16c-0.72-0.18-1.44-0.38-2.15-0.6
								c-1-0.32-1.98-0.67-2.87-1.03c-1.77-0.72-1.32-6.41-0.48-11.72v0c0.52-3.33,1.21-6.51,1.59-8.23
								c0.18-0.79,0.79-1.4,1.58-1.58c0.52-0.12,1.14-0.27,1.85-0.4c0.18-0.03,0.38-0.07,0.57-0.1c0.08-0.01,0.17-0.03,0.26-0.04
								l0.29-0.04c0.11-0.01,0.22-0.03,0.33-0.04c0.22-0.02,0.44-0.05,0.66-0.06c0.11-0.01,0.23-0.02,0.35-0.02
								c0.68-0.04,1.36-0.03,2.04,0.03c0.13,0.01,0.27,0.02,0.41,0.04c0.86,0.09,1.71,0.26,2.54,0.49c0.09,0.02,0.17,0.05,0.26,0.07
								c0.11,0.03,0.22,0.06,0.32,0.1c0.08,0.02,0.15,0.05,0.23,0.08c0.05,0.01,0.1,0.03,0.15,0.05c0.1,0.03,0.21,0.07,0.31,0.11
								c0.09,0.03,0.18,0.07,0.27,0.1c0.09,0.04,0.17,0.07,0.26,0.1c0.02,0.01,0.04,0.01,0.06,0.02c0.09,0.03,0.17,0.07,0.26,0.11
								c0.07,0.03,0.13,0.06,0.2,0.09c0.1,0.04,0.2,0.09,0.31,0.14c0.01,0,0.01,0,0.02,0.01c0,0,0,0,0.01,0
								c0.1,0.05,0.21,0.1,0.31,0.15c0.09,0.04,0.18,0.09,0.27,0.13l0.2,0.1c0.09,0.05,0.18,0.1,0.27,0.14
								c0.1,0.06,0.21,0.11,0.32,0.17c0.17,0.1,0.34,0.2,0.52,0.31c0.08,0.05,0.17,0.1,0.25,0.15c0.25,0.15,0.49,0.31,0.74,0.48
								c0.07,0.05,0.14,0.09,0.21,0.14C-14.6-27.08-15.35-21.96-16.78-16.94z"/>
						</g>
						<g id="Group_2987_1_" transform="translate(1.025 0.45)">
							<path id="Path_1111_1_" class="st26" d="M-28.61-27.64l-3.32,2.21v0c-1.46-2.12-2.91,4.17-2.95,4.35
								c0.52-3.33,1.21-6.51,1.59-8.23c0.18-0.79,0.79-1.4,1.58-1.58c0.52-0.12,1.14-0.27,1.85-0.4L-28.61-27.64z"/>
						</g>
						<g id="Group_2988_1_" transform="translate(22.119 2.189)">
							<path id="Path_1112_1_" class="st26" d="M-38.9-19.11l0.01-0.02c1.35-6.74-1.6-5.6-1.6-5.6l-0.36-7.04
								c1,0.47,1.97,1.02,2.89,1.65c0.07,0.05,0.14,0.09,0.21,0.14C-36.72-29.27-37.47-24.14-38.9-19.11z"/>
						</g>
						<g id="Group_2989_1_" transform="translate(4.124)">
							<path id="Path_1113_1_" class="st26" d="M-29.03-20.5c-2.63-0.38-4.88-2.07-6-4.48v0c-0.65-1.39-0.87-2.94-0.65-4.46
								l0.1-0.65c0.23-0.17,0.49-0.29,0.77-0.35c0.52-0.12,1.14-0.27,1.85-0.4c2.98-0.56,7.51-0.81,12.99,2.9l-0.12,0.79
								C-20.72-22.84-24.72-19.87-29.03-20.5C-29.03-20.5-29.03-20.5-29.03-20.5z"/>
						</g>
					</g>
					<g id="Group_2991_1_" transform="translate(8.135 20.42)">
						<path id="Path_1114_1_" class="st26" d="M-29.55-33.73l-1.62,6.57c-0.72-0.09-1.46-0.22-2.2-0.38
							c-0.23-0.05-0.47-0.1-0.7-0.16c-0.72-0.18-1.44-0.38-2.15-0.6c0.01-0.04,0.02-0.08,0.03-0.12l1.61-6.54
							c0.34-1.39,1.75-2.24,3.14-1.89C-30.05-36.51-29.21-35.11-29.55-33.73L-29.55-33.73z"/>
					</g>
					<g id="Group_2992_1_" transform="translate(11.126 24.008)">
						<path id="Path_1115_1_" class="st26" d="M-34.79-37.51l-1.57,6.38c-0.23-0.05-0.47-0.1-0.7-0.16l1.57-6.39
							c0.05-0.19,0.24-0.31,0.44-0.26C-34.86-37.9-34.74-37.7-34.79-37.51L-34.79-37.51L-34.79-37.51z"/>
					</g>
					<g id="Group_2993_1_" transform="translate(20.866 13.405)">
						<path id="Path_1116_1_" class="st26" d="M-30.93-25.69l-4.55,4.26c-1.11,1.04-2.66,1.44-4.13,1.08l-0.2-0.05
							c0.04-0.14,0.08-0.27,0.12-0.41c3.02-9.93,5.02-11.58,5.02-11.58l1.74-1.91c0.24-0.26,0.55-0.46,0.89-0.57
							c0.35-0.11,0.73-0.12,1.09-0.03c0.54,0.13,1,0.48,1.27,0.96C-28.15-31.23-28.66-27.82-30.93-25.69z"/>
					</g>
					<g id="Group_2994_1_" transform="translate(21.037 13.53)">
						<path id="Path_1117_1_" class="st26" d="M-33.14-26.31l-4.55,4.26c-0.61,0.57-1.36,0.96-2.18,1.12
							c3.02-9.93,5.02-11.58,5.02-11.58l1.74-1.91c0.24-0.26,0.55-0.46,0.89-0.57c0.13,0.13,0.24,0.27,0.32,0.43
							C-30.35-31.85-30.87-28.44-33.14-26.31z"/>
					</g>
					<g id="Group_2997_1_" transform="translate(0 30.185)">
						<g id="Group_2995_1_" transform="translate(0.722 0.153)">
							<path id="Path_1118_1_" class="st26" d="M-34.11-31.54L-34.11-31.54l1.73-8.2l0,0c0.87,0.18,1.43,1.04,1.24,1.91c0,0,0,0,0,0
								l-1.07,5.05C-32.39-31.92-33.24-31.36-34.11-31.54z"/>
						</g>
						<g id="Group_2996_1_">
							<path id="Path_1119_1_" class="st26" d="M-33.91-31.5L-33.91-31.5l1.73-8.2l0,0c0.87,0.18,1.43,1.04,1.24,1.91L-32-32.74
								C-32.19-31.87-33.04-31.32-33.91-31.5C-33.91-31.5-33.91-31.5-33.91-31.5z"/>
						</g>
					</g>
				</g>
				<g id="Group_3024_1_">
					<g id="Group_3020_1_">
						<g id="Group_3010_1_" transform="translate(19.716 25.056)">
							<g id="Group_3009_1_">
								<g id="Group_3002_1_" transform="translate(5.686 8.789)">
									<g id="Group_2999_1_" transform="translate(0.592 0.858)">
										<path id="Path_1120_1_" class="st27" d="M-28.83-30.4c0.38,0.59,3.3-0.61,6.51-2.68s5.51-4.23,5.12-4.83
											c-0.38-0.6-3.3,0.61-6.51,2.68S-29.22-31-28.83-30.4z"/>
									</g>
									<g id="Group_3000_1_" transform="translate(0.09 0.203)">
										
											<rect id="Rectangle_20096_1_" x="-29.64" y="-34.18" transform="matrix(-0.8396 0.5432 -0.5432 -0.8396 -60.1803 -49.8544)" class="st27" width="13.82" height="0.74"/>
									</g>
									<g id="Group_3001_1_">
										<path id="Path_1121_1_" class="st27" d="M-28.67-30.16c0.38,0.59,3.3-0.61,6.51-2.68c3.21-2.07,5.51-4.23,5.12-4.83
											s-3.3,0.61-6.51,2.68S-29.05-30.75-28.67-30.16z"/>
									</g>
								</g>
								<g id="Group_3003_1_" transform="translate(1.027 1.318)">
									
										<rect id="Rectangle_20097_1_" x="-26.61" y="-32.66" transform="matrix(-0.8396 0.5432 -0.5432 -0.8396 -52.7365 -43.0038)" class="st27" width="13.19" height="6.75"/>
								</g>
								<g id="Group_3007_1_">
									<g id="Group_3004_1_" transform="translate(0.592 0.858)">
										<path id="Path_1122_1_" class="st27" d="M-27.22-27.92c0.38,0.59,3.3-0.61,6.51-2.68s5.51-4.23,5.12-4.83
											c-0.38-0.59-3.3,0.61-6.51,2.68S-27.61-28.51-27.22-27.92z"/>
									</g>
									<g id="Group_3005_1_" transform="translate(0.09 0.203)">
										
											<rect id="Rectangle_20098_1_" x="-28.03" y="-31.69" transform="matrix(-0.8396 0.5432 -0.5432 -0.8396 -55.8693 -46.153)" class="st27" width="13.82" height="0.74"/>
									</g>
									<g id="Group_3006_1_">
										<path id="Path_1123_1_" class="st27" d="M-27.06-27.67c0.38,0.59,3.3-0.61,6.51-2.68s5.51-4.23,5.12-4.83
											c-0.38-0.59-3.3,0.61-6.51,2.68S-27.44-28.27-27.06-27.67z"/>
									</g>
								</g>
								<g id="Group_3008_1_" transform="translate(6.12 9.086)">
									<path id="Path_1124_1_" class="st27" d="M-28.8-30.65c0.29,0.45,3.01-0.78,6.07-2.76s5.3-3.95,5-4.4
										c-0.29-0.45-3.01,0.78-6.07,2.76S-29.1-31.1-28.8-30.65z"/>
								</g>
							</g>
						</g>
						<g id="Group_3015_1_" transform="translate(2.023)">
							<g id="Group_3011_1_" transform="translate(0 0.001)">
								<path id="Path_1125_1_" class="st27" d="M-17.02-10.63l0.01,0.02c3.17,4.22,6.95,8.09,8.6,7.67c1.1-0.3,2.15-0.72,3.15-1.27
									c0.65-0.34,1.29-0.73,1.92-1.15c0.2-0.13,0.4-0.27,0.6-0.4c0.61-0.42,1.21-0.87,1.79-1.33c0.83-0.66,1.61-1.33,2.31-1.99
									c1.39-1.3-1.06-6.45-3.74-11.11l0,0c-1.68-2.92-3.46-5.64-4.43-7.11c-0.45-0.67-1.24-1.03-2.04-0.91
									c-0.53,0.08-1.16,0.16-1.87,0.29c-0.18,0.03-0.38,0.07-0.57,0.11c-0.08,0.02-0.17,0.03-0.25,0.05s-0.19,0.04-0.29,0.07
									c-0.1,0.02-0.22,0.05-0.32,0.08c-0.21,0.05-0.42,0.11-0.64,0.18c-0.11,0.03-0.22,0.07-0.33,0.1
									c-0.65,0.21-1.28,0.46-1.9,0.76c-0.12,0.06-0.24,0.12-0.36,0.18c-0.77,0.39-1.5,0.85-2.2,1.37
									c-0.07,0.05-0.14,0.11-0.22,0.16c-0.09,0.07-0.18,0.14-0.26,0.21c-0.06,0.05-0.13,0.1-0.19,0.16
									c-0.04,0.03-0.08,0.07-0.12,0.1c-0.09,0.07-0.17,0.14-0.25,0.22c-0.07,0.06-0.14,0.13-0.22,0.2
									c-0.07,0.07-0.14,0.12-0.2,0.19c-0.02,0.01-0.03,0.03-0.05,0.04c-0.07,0.06-0.14,0.13-0.21,0.2
									c-0.05,0.05-0.1,0.1-0.15,0.15c-0.08,0.08-0.16,0.16-0.24,0.24c-0.01,0-0.01,0.01-0.02,0.02c0,0,0,0,0,0.01
									c-0.08,0.08-0.16,0.17-0.24,0.25c-0.07,0.07-0.13,0.14-0.2,0.22l-0.15,0.17c-0.07,0.08-0.13,0.15-0.2,0.23
									c-0.08,0.09-0.15,0.18-0.23,0.28c-0.12,0.15-0.25,0.31-0.37,0.47c-0.06,0.08-0.12,0.15-0.18,0.24
									c-0.17,0.23-0.35,0.47-0.52,0.72c-0.05,0.07-0.09,0.14-0.14,0.21C-22.68-19.32-20.15-14.81-17.02-10.63z"/>
							</g>
							<g id="Group_3012_1_" transform="translate(15.836)">
								<path id="Path_1126_1_" class="st27" d="M-26.44-24.07l3.89,0.87v-0.01c0.61-2.5,4.21,2.85,4.32,3.01
									c-1.68-2.92-3.46-5.64-4.43-7.11c-0.45-0.67-1.24-1.03-2.04-0.91c-0.53,0.08-1.16,0.16-1.86,0.29L-26.44-24.07z"/>
							</g>
							<g id="Group_3013_1_" transform="translate(0 7.108)">
								<path id="Path_1127_1_" class="st27" d="M-17.01-17.72l-0.01-0.02c-3.68-5.8-0.51-5.81-0.51-5.81l-2.19-6.7
									c-0.77,0.8-1.47,1.66-2.11,2.57c-0.05,0.07-0.09,0.14-0.14,0.21C-22.68-26.43-20.15-21.9-17.01-17.72z"/>
							</g>
							<g id="Group_3014_1_" transform="translate(0.369)">
								<path id="Path_1128_1_" class="st27" d="M-11.08-16.87c2.32-1.3,3.82-3.68,4-6.33v-0.01c0.1-1.53-0.24-3.06-0.99-4.39
									l-0.32-0.57c-0.28-0.07-0.56-0.09-0.85-0.05c-0.53,0.08-1.16,0.16-1.86,0.29c-2.98,0.55-7.3,1.93-11.09,7.36l0.39,0.69
									C-19.67-16.09-14.87-14.74-11.08-16.87z"/>
							</g>
						</g>
						<g id="Group_3016_1_" transform="translate(19.461 20.084)">
							<path id="Path_1129_1_" class="st27" d="M-26.56-29.86l3.86,5.56c0.65-0.34,1.29-0.73,1.92-1.15c0.2-0.13,0.4-0.27,0.6-0.4
								c0.61-0.42,1.21-0.87,1.79-1.33c-0.02-0.04-0.05-0.07-0.07-0.11l-3.85-5.53c-0.83-1.16-2.45-1.43-3.61-0.6
								C-27.07-32.6-27.35-31.02-26.56-29.86L-26.56-29.86z"/>
						</g>
						<g id="Group_3017_1_" transform="translate(22.853 23.598)">
							<path id="Path_1130_1_" class="st27" d="M-27.92-34.35l3.75,5.4c0.2-0.13,0.4-0.27,0.6-0.4l-3.76-5.41
								c-0.11-0.16-0.34-0.2-0.5-0.09C-28-34.74-28.04-34.52-27.92-34.35L-27.92-34.35L-27.92-34.35z"/>
						</g>
						<g id="Group_3018_1_" transform="translate(0 20.253)">
							<path id="Path_1131_1_" class="st27" d="M-17.32-25.01l5.77,2.35c1.4,0.57,3,0.4,4.25-0.47l0.17-0.12
								c-0.09-0.11-0.17-0.23-0.26-0.34c-6.37-8.19-8.84-9.02-8.84-9.02l-2.31-1.16c-0.32-0.16-0.68-0.23-1.03-0.21
								c-0.37,0.02-0.72,0.15-1.03,0.36c-0.45,0.31-0.76,0.8-0.84,1.35C-21.91-29.18-20.21-26.18-17.32-25.01z"/>
						</g>
						<g id="Group_3019_1_" transform="translate(2.395 20.253)">
							<path id="Path_1132_1_" class="st27" d="M-18-26.2l5.77,2.35c0.77,0.31,1.62,0.41,2.44,0.27c-6.37-8.19-8.84-9.02-8.84-9.02
								l-2.31-1.16c-0.11-0.32-0.46-0.49-0.78-0.37c-0.28,0.1-0.45,0.39-0.4,0.68C-22.59-30.37-20.89-27.37-18-26.2z"/>
						</g>
					</g>
					<g id="Group_3023_1_" transform="translate(34.38 25.317)">
						<g id="Group_3021_1_" transform="translate(0 0.401)">
							<path id="Path_1133_1_" class="st27" d="M-25.96-28.48L-25.96-28.48l-4.55-7.03l0,0c-0.74,0.48-0.96,1.48-0.48,2.22l2.8,4.33
								C-27.71-28.22-26.71-28-25.96-28.48C-25.96-28.48-25.96-28.48-25.96-28.48z"/>
						</g>
						<g id="Group_3022_1_" transform="translate(0.62)">
							<path id="Path_1134_1_" class="st27" d="M-26.14-28.37L-26.14-28.37l-4.55-7.03l0,0c-0.75,0.48-0.96,1.48-0.48,2.22l2.8,4.33
								C-27.88-28.1-26.88-27.89-26.14-28.37C-26.14-28.37-26.14-28.37-26.14-28.37z"/>
						</g>
					</g>
				</g>
			</g>
		</g>
		<g id="Group_3026_1_" transform="translate(225.566 377.52)">
			<g id="Group_3025-2_1_">
				<g id="Group_2998-2_1_" transform="translate(43.782 10.311)">
					<g id="Group_2985-2_1_" transform="translate(0.009 29.468)">
						<g id="Group_2984-2_1_">
							<g id="Group_2977-2_1_" transform="translate(0 10.243)">
								<g id="Group_2974-2_1_" transform="translate(0 1.013)">
									<path id="Path_1105-2_1_" class="st28" d="M-24.5-35.66c-0.14,0.69-3.3,0.61-7.04-0.17s-6.66-1.98-6.51-2.67
										c0.14-0.69,3.3-0.61,7.04,0.17S-24.36-36.35-24.5-35.66z"/>
								</g>
								<g id="Group_2975-2_1_" transform="translate(0.042 0.648)">
									
										<rect id="Rectangle_20093-2_1_" x="-31.6" y="-43.99" transform="matrix(0.2064 -0.9785 0.9785 0.2064 11.5023 -59.9833)" class="st28" width="0.74" height="13.82"/>
								</g>
								<g id="Group_2976-2_1_" transform="translate(0.245)">
									<path id="Path_1106-2_1_" class="st29" d="M-24.57-35.37c-0.14,0.69-3.3,0.61-7.04-0.17s-6.66-1.98-6.51-2.67
										c0.14-0.69,3.3-0.61,7.04,0.17S-24.43-36.06-24.57-35.37z"/>
								</g>
							</g>
							<g id="Group_2978-2_1_" transform="translate(0.689 1.759)">
								
									<rect id="Rectangle_20094-2_1_" x="-34.48" y="-38.22" transform="matrix(0.2061 -0.9785 0.9785 0.2061 6.2559 -55.5421)" class="st30" width="6.75" height="13.18"/>
							</g>
							<g id="Group_2982-2_1_" transform="translate(2.161)">
								<g id="Group_2979-2_1_" transform="translate(0 1.013)">
									<path id="Path_1107-2_1_" class="st28" d="M-25.11-32.76c-0.14,0.69-3.3,0.61-7.04-0.17s-6.66-1.98-6.51-2.67
										c0.14-0.69,3.3-0.61,7.04,0.17S-24.97-33.45-25.11-32.76z"/>
								</g>
								<g id="Group_2980-2_1_" transform="translate(0.042 0.648)">
									
										<rect id="Rectangle_20095-2_1_" x="-32.21" y="-41.09" transform="matrix(0.2064 -0.9785 0.9785 0.2064 8.1806 -58.2822)" class="st28" width="0.74" height="13.82"/>
								</g>
								<g id="Group_2981-2_1_" transform="translate(0.245)">
									<path id="Path_1108-2_1_" class="st29" d="M-25.18-32.47c-0.14,0.69-3.3,0.61-7.04-0.17s-6.66-1.98-6.51-2.67
										c0.14-0.69,3.3-0.61,7.04,0.17C-27.96-34.36-25.04-33.17-25.18-32.47z"/>
								</g>
							</g>
							<g id="Group_2983-2_1_" transform="translate(0.67 10.548)">
								<path id="Path_1109-2_1_" class="st30" d="M-25.34-35.75c-0.11,0.53-3.09,0.35-6.65-0.4c-3.56-0.75-6.36-1.79-6.25-2.32
									c0.11-0.53,3.09-0.35,6.65,0.4C-28.02-37.32-25.23-36.28-25.34-35.75z"/>
							</g>
						</g>
					</g>
					<g id="Group_2990-2_1_" transform="translate(2.433)">
						<g id="Group_2986-2_1_" transform="translate(0 0.002)">
							<path id="Path_1110-2_1_" class="st31" d="M-20.92-13.23l-0.01,0.02c-1.45,5.08-3.59,10.04-5.28,10.24
								c-1.13,0.12-2.27,0.1-3.39-0.06c-0.72-0.09-1.46-0.22-2.2-0.38c-0.23-0.05-0.47-0.1-0.7-0.16c-0.72-0.18-1.44-0.38-2.15-0.6
								c-1-0.32-1.98-0.67-2.87-1.03c-1.77-0.72-1.32-6.41-0.48-11.72v0c0.52-3.33,1.21-6.51,1.59-8.23
								c0.18-0.79,0.79-1.4,1.58-1.58c0.52-0.12,1.14-0.27,1.85-0.4c0.18-0.03,0.38-0.07,0.57-0.1c0.08-0.01,0.17-0.03,0.26-0.04
								l0.29-0.04c0.11-0.01,0.22-0.03,0.33-0.04c0.22-0.02,0.44-0.05,0.66-0.06c0.11-0.01,0.23-0.02,0.35-0.02
								c0.68-0.04,1.36-0.03,2.04,0.03c0.13,0.01,0.27,0.02,0.41,0.04c0.86,0.09,1.71,0.26,2.54,0.49c0.09,0.02,0.17,0.05,0.26,0.07
								c0.11,0.03,0.22,0.06,0.32,0.1c0.08,0.02,0.15,0.05,0.23,0.08c0.05,0.01,0.1,0.03,0.15,0.05c0.1,0.03,0.21,0.07,0.31,0.11
								c0.09,0.03,0.18,0.07,0.27,0.1c0.09,0.04,0.17,0.07,0.26,0.1c0.02,0.01,0.04,0.01,0.06,0.02c0.09,0.03,0.17,0.07,0.26,0.11
								c0.07,0.03,0.13,0.06,0.2,0.09c0.1,0.04,0.2,0.09,0.31,0.14c0.01,0,0.01,0,0.02,0.01c0,0,0,0,0.01,0
								c0.1,0.05,0.21,0.1,0.31,0.15c0.09,0.04,0.18,0.09,0.27,0.13l0.2,0.1c0.09,0.05,0.18,0.1,0.27,0.14
								c0.1,0.06,0.21,0.11,0.32,0.17c0.17,0.1,0.34,0.2,0.52,0.31c0.08,0.05,0.17,0.1,0.25,0.15c0.25,0.15,0.49,0.31,0.74,0.48
								c0.07,0.05,0.14,0.09,0.21,0.14C-18.75-23.37-19.49-18.25-20.92-13.23z"/>
						</g>
						<g id="Group_2987-2_1_" transform="translate(1.025 0.45)">
							<path id="Path_1111-2_1_" class="st32" d="M-32.75-23.93l-3.32,2.21v0c-1.46-2.12-2.91,4.17-2.95,4.35
								c0.52-3.33,1.21-6.51,1.59-8.23c0.18-0.79,0.79-1.4,1.58-1.58c0.52-0.12,1.14-0.27,1.85-0.4L-32.75-23.93z"/>
						</g>
						<g id="Group_2988-2_1_" transform="translate(22.119 2.189)">
							<path id="Path_1112-2_1_" class="st32" d="M-43.04-15.4l0.01-0.02c1.35-6.74-1.6-5.6-1.6-5.6L-45-28.07
								c1,0.47,1.97,1.02,2.89,1.65c0.07,0.05,0.14,0.09,0.21,0.14C-40.86-25.56-41.61-20.43-43.04-15.4z"/>
						</g>
						<g id="Group_2989-2_1_" transform="translate(4.124)">
							<path id="Path_1113-2_1_" class="st30" d="M-33.17-16.79c-2.63-0.38-4.88-2.07-6-4.48v0c-0.65-1.39-0.87-2.94-0.65-4.46
								l0.1-0.65c0.23-0.17,0.49-0.29,0.77-0.35c0.52-0.12,1.14-0.27,1.85-0.4c2.98-0.56,7.51-0.81,12.99,2.9l-0.12,0.79
								C-24.86-19.14-28.87-16.16-33.17-16.79C-33.17-16.79-33.17-16.79-33.17-16.79z"/>
						</g>
					</g>
					<g id="Group_2991-2_1_" transform="translate(8.135 20.42)">
						<path id="Path_1114-2_1_" class="st32" d="M-33.69-30.02l-1.62,6.57c-0.72-0.09-1.46-0.22-2.2-0.38
							c-0.23-0.05-0.47-0.1-0.7-0.16c-0.72-0.18-1.44-0.38-2.15-0.6c0.01-0.04,0.02-0.08,0.03-0.12l1.61-6.54
							c0.34-1.39,1.75-2.24,3.14-1.89C-34.2-32.8-33.35-31.41-33.69-30.02L-33.69-30.02z"/>
					</g>
					<g id="Group_2992-2_1_" transform="translate(11.126 24.008)">
						<path id="Path_1115-2_1_" class="st33" d="M-38.93-33.8l-1.57,6.38c-0.23-0.05-0.47-0.1-0.7-0.16l1.57-6.39
							c0.05-0.19,0.24-0.31,0.44-0.26C-39-34.19-38.88-33.99-38.93-33.8L-38.93-33.8L-38.93-33.8z"/>
					</g>
					<g id="Group_2993-2_1_" transform="translate(20.866 13.405)">
						<path id="Path_1116-2_1_" class="st30" d="M-35.08-21.98l-4.55,4.26c-1.11,1.04-2.66,1.44-4.13,1.08l-0.2-0.05
							c0.04-0.14,0.08-0.27,0.12-0.41c3.02-9.93,5.02-11.58,5.02-11.58l1.74-1.91c0.24-0.26,0.55-0.46,0.89-0.57
							c0.35-0.11,0.73-0.12,1.09-0.03c0.54,0.13,1,0.48,1.27,0.96C-32.29-27.52-32.81-24.11-35.08-21.98z"/>
					</g>
					<g id="Group_2994-2_1_" transform="translate(21.037 13.53)">
						<path id="Path_1117-2_1_" class="st34" d="M-37.28-22.6l-4.55,4.26c-0.61,0.57-1.36,0.96-2.18,1.12
							c3.02-9.93,5.02-11.58,5.02-11.58l1.74-1.91c0.24-0.26,0.55-0.46,0.89-0.57c0.13,0.13,0.24,0.27,0.32,0.43
							C-34.49-28.14-35.01-24.74-37.28-22.6z"/>
					</g>
					<g id="Group_2997-2_1_" transform="translate(0 30.185)">
						<g id="Group_2995-2_1_" transform="translate(0.722 0.153)">
							<path id="Path_1118-2_1_" class="st33" d="M-38.26-27.84L-38.26-27.84l1.73-8.2l0,0c0.87,0.18,1.43,1.04,1.24,1.91
								c0,0,0,0,0,0l-1.07,5.05C-36.53-28.21-37.39-27.65-38.26-27.84z"/>
						</g>
						<g id="Group_2996-2_1_">
							<path id="Path_1119-2_1_" class="st29" d="M-38.05-27.79L-38.05-27.79l1.73-8.2l0,0c0.87,0.18,1.43,1.04,1.24,1.91
								l-1.07,5.05C-36.33-28.17-37.18-27.61-38.05-27.79C-38.05-27.79-38.05-27.79-38.05-27.79z"/>
						</g>
					</g>
				</g>
				<g id="Group_3024-2_1_">
					<g id="Group_3020-2_1_">
						<g id="Group_3010-2_1_" transform="translate(19.716 25.056)">
							<g id="Group_3009-2_1_">
								<g id="Group_3002-2_1_" transform="translate(5.686 8.789)">
									<g id="Group_2999-2_1_" transform="translate(0.592 0.858)">
										<path id="Path_1120-2_1_" class="st28" d="M-32.98-26.69c0.38,0.59,3.3-0.61,6.51-2.68s5.51-4.23,5.12-4.83
											s-3.3,0.61-6.51,2.68S-33.36-27.29-32.98-26.69z"/>
									</g>
									<g id="Group_3000-2_1_" transform="translate(0.09 0.203)">
										
											<rect id="Rectangle_20096-2_1_" x="-33.78" y="-30.47" transform="matrix(0.8396 -0.5432 0.5432 0.8396 12.0415 -19.4236)" class="st28" width="13.82" height="0.74"/>
									</g>
									<g id="Group_3001-2_1_">
										<path id="Path_1121-2_1_" class="st29" d="M-32.81-26.45c0.38,0.59,3.3-0.61,6.51-2.68s5.51-4.23,5.12-4.83
											c-0.38-0.6-3.3,0.61-6.51,2.68S-33.19-27.05-32.81-26.45z"/>
									</g>
								</g>
								<g id="Group_3003-2_1_" transform="translate(1.027 1.318)">
									
										<rect id="Rectangle_20097-2_1_" x="-30.75" y="-28.96" transform="matrix(0.8396 -0.5432 0.5432 0.8396 10.0189 -17.2258)" class="st30" width="13.19" height="6.75"/>
								</g>
								<g id="Group_3007-2_1_">
									<g id="Group_3004-2_1_" transform="translate(0.592 0.858)">
										<path id="Path_1122-2_1_" class="st28" d="M-31.37-24.21c0.38,0.59,3.3-0.61,6.51-2.68s5.51-4.23,5.12-4.83
											c-0.38-0.59-3.3,0.61-6.51,2.68S-31.75-24.8-31.37-24.21z"/>
									</g>
									<g id="Group_3005-2_1_" transform="translate(0.09 0.203)">
										
											<rect id="Rectangle_20098-2_1_" x="-32.17" y="-27.99" transform="matrix(0.8396 -0.5432 0.5432 0.8396 10.9487 -18.1508)" class="st28" width="13.82" height="0.74"/>
									</g>
									<g id="Group_3006-2_1_">
										<path id="Path_1123-2_1_" class="st29" d="M-31.2-23.97c0.38,0.59,3.3-0.61,6.51-2.68s5.51-4.23,5.12-4.83
											c-0.38-0.59-3.3,0.61-6.51,2.68S-31.58-24.56-31.2-23.97z"/>
									</g>
								</g>
								<g id="Group_3008-2_1_" transform="translate(6.12 9.086)">
									<path id="Path_1124-2_1_" class="st30" d="M-32.95-26.94c0.29,0.45,3.01-0.78,6.07-2.76s5.3-3.95,5-4.4
										c-0.29-0.45-3.01,0.78-6.07,2.76S-33.24-27.39-32.95-26.94z"/>
								</g>
							</g>
						</g>
						<g id="Group_3015-2_1_" transform="translate(2.023)">
							<g id="Group_3011-2_1_" transform="translate(0 0.001)">
								<path id="Path_1125-2_1_" class="st31" d="M-21.17-6.92l0.01,0.02c3.17,4.22,6.95,8.09,8.6,7.67
									c1.1-0.3,2.15-0.72,3.15-1.27c0.65-0.34,1.29-0.73,1.92-1.15c0.2-0.13,0.4-0.27,0.6-0.4c0.61-0.42,1.21-0.87,1.79-1.33
									c0.83-0.66,1.61-1.33,2.31-1.99c1.39-1.3-1.06-6.45-3.74-11.11l0,0c-1.68-2.92-3.46-5.64-4.43-7.11
									c-0.45-0.67-1.24-1.03-2.04-0.91c-0.53,0.08-1.16,0.16-1.87,0.29c-0.18,0.03-0.38,0.07-0.57,0.11
									c-0.08,0.02-0.17,0.03-0.25,0.05s-0.19,0.04-0.29,0.07c-0.1,0.02-0.22,0.05-0.32,0.08c-0.21,0.05-0.42,0.11-0.64,0.18
									c-0.11,0.03-0.22,0.07-0.33,0.1c-0.65,0.21-1.28,0.46-1.9,0.76c-0.12,0.06-0.24,0.12-0.36,0.18
									c-0.77,0.39-1.5,0.85-2.2,1.37c-0.07,0.05-0.14,0.11-0.22,0.16c-0.09,0.07-0.18,0.14-0.26,0.21
									c-0.06,0.05-0.13,0.1-0.19,0.16c-0.04,0.03-0.08,0.07-0.12,0.1c-0.09,0.07-0.17,0.14-0.25,0.22
									c-0.07,0.06-0.14,0.13-0.22,0.2c-0.07,0.07-0.14,0.12-0.2,0.19c-0.02,0.01-0.03,0.03-0.05,0.04
									c-0.07,0.06-0.14,0.13-0.21,0.2c-0.05,0.05-0.1,0.1-0.15,0.15c-0.08,0.08-0.16,0.16-0.24,0.24c-0.01,0-0.01,0.01-0.02,0.02
									c0,0,0,0,0,0.01c-0.08,0.08-0.16,0.17-0.24,0.25c-0.07,0.07-0.13,0.14-0.2,0.22l-0.15,0.17c-0.07,0.08-0.13,0.15-0.2,0.23
									c-0.08,0.09-0.15,0.18-0.23,0.28c-0.12,0.15-0.25,0.31-0.37,0.47c-0.06,0.08-0.12,0.15-0.18,0.24
									c-0.17,0.23-0.35,0.47-0.52,0.72c-0.05,0.07-0.09,0.14-0.14,0.21C-26.83-15.61-24.29-11.1-21.17-6.92z"/>
							</g>
							<g id="Group_3012-2_1_" transform="translate(15.836)">
								<path id="Path_1126-2_1_" class="st32" d="M-30.58-20.37l3.89,0.87v-0.01c0.61-2.5,4.21,2.85,4.32,3.01
									c-1.68-2.92-3.46-5.64-4.43-7.11c-0.45-0.67-1.24-1.03-2.04-0.91c-0.53,0.08-1.16,0.16-1.86,0.29L-30.58-20.37z"/>
							</g>
							<g id="Group_3013-2_1_" transform="translate(0 7.108)">
								<path id="Path_1127-2_1_" class="st32" d="M-21.15-14.02l-0.01-0.02c-3.68-5.8-0.51-5.81-0.51-5.81l-2.19-6.7
									c-0.77,0.8-1.47,1.66-2.11,2.57c-0.05,0.07-0.09,0.14-0.14,0.21C-26.83-22.72-24.29-18.2-21.15-14.02z"/>
							</g>
							<g id="Group_3014-2_1_" transform="translate(0.369)">
								<path id="Path_1128-2_1_" class="st30" d="M-15.22-13.16c2.32-1.3,3.82-3.68,4-6.33v-0.01c0.1-1.53-0.24-3.06-0.99-4.39
									l-0.32-0.57c-0.28-0.07-0.56-0.09-0.85-0.05c-0.53,0.08-1.16,0.16-1.86,0.29c-2.98,0.55-7.3,1.93-11.09,7.36l0.39,0.69
									C-23.81-12.38-19.01-11.03-15.22-13.16z"/>
							</g>
						</g>
						<g id="Group_3016-2_1_" transform="translate(19.461 20.084)">
							<path id="Path_1129-2_1_" class="st32" d="M-30.7-26.15l3.86,5.56c0.65-0.34,1.29-0.73,1.92-1.15c0.2-0.13,0.4-0.27,0.6-0.4
								c0.61-0.42,1.21-0.87,1.79-1.33c-0.02-0.04-0.05-0.07-0.07-0.11l-3.85-5.53c-0.83-1.16-2.45-1.43-3.61-0.6
								C-31.21-28.89-31.49-27.31-30.7-26.15L-30.7-26.15z"/>
						</g>
						<g id="Group_3017-2_1_" transform="translate(22.853 23.598)">
							<path id="Path_1130-2_1_" class="st33" d="M-32.06-30.65l3.75,5.4c0.2-0.13,0.4-0.27,0.6-0.4l-3.76-5.41
								c-0.11-0.16-0.34-0.2-0.5-0.09C-32.14-31.03-32.18-30.81-32.06-30.65L-32.06-30.65L-32.06-30.65z"/>
						</g>
						<g id="Group_3018-2_1_" transform="translate(0 20.253)">
							<path id="Path_1131-2_1_" class="st30" d="M-21.47-21.3l5.77,2.35c1.4,0.57,3,0.4,4.25-0.47l0.17-0.12
								c-0.09-0.11-0.17-0.23-0.26-0.34c-6.37-8.19-8.84-9.02-8.84-9.02l-2.31-1.16c-0.32-0.16-0.68-0.23-1.03-0.21
								c-0.37,0.02-0.72,0.15-1.03,0.36c-0.45,0.31-0.76,0.8-0.84,1.35C-26.05-25.47-24.35-22.47-21.47-21.3z"/>
						</g>
						<g id="Group_3019-2_1_" transform="translate(2.395 20.253)">
							<path id="Path_1132-2_1_" class="st34" d="M-22.14-22.49l5.77,2.35c0.77,0.31,1.62,0.41,2.44,0.27
								c-6.37-8.19-8.84-9.02-8.84-9.02l-2.31-1.16c-0.11-0.32-0.46-0.49-0.78-0.37c-0.28,0.1-0.45,0.39-0.4,0.68
								C-26.73-26.66-25.03-23.67-22.14-22.49z"/>
						</g>
					</g>
					<g id="Group_3023-2_1_" transform="translate(34.38 25.317)">
						<g id="Group_3021-2_1_" transform="translate(0 0.401)">
							<path id="Path_1133-2_1_" class="st33" d="M-30.1-24.78L-30.1-24.78l-4.55-7.03l0,0c-0.74,0.48-0.96,1.48-0.48,2.22l2.8,4.33
								C-31.85-24.51-30.85-24.29-30.1-24.78C-30.11-24.78-30.11-24.78-30.1-24.78z"/>
						</g>
						<g id="Group_3022-2_1_" transform="translate(0.62)">
							<path id="Path_1134-2_1_" class="st29" d="M-30.28-24.66L-30.28-24.66l-4.55-7.03l0,0c-0.75,0.48-0.96,1.48-0.48,2.22
								l2.8,4.33C-32.02-24.39-31.03-24.18-30.28-24.66C-30.28-24.66-30.28-24.66-30.28-24.66z"/>
						</g>
					</g>
				</g>
			</g>
		</g>
	</g>
	<g id="Group_6106_1_" transform="translate(33 20)">
		<g id="Group_3479_1_" transform="matrix(0.996, -0.087, 0.087, 0.996, 361.825, 547.9)" class="st35">
			<g id="Group_3078_1_" transform="translate(0)">
				<g id="Group_3051_1_" transform="translate(0 18.324)">
					<g id="Group_3038_1_" transform="translate(17.025 24.237)">
						<g id="Group_3037_1_">
							<g id="Group_3030_1_" transform="translate(4.151 8.192)">
								<g id="Group_3027_1_" transform="translate(0 0)">
									
										<ellipse id="Ellipse_15_1_" transform="matrix(-0.8898 0.4564 -0.4564 -0.8898 -163.366 -151.6337)" class="st26" cx="-63.37" cy="-95.54" rx="6.36" ry="1.17"/>
								</g>
								<g id="Group_3028_1_" transform="translate(0.314 0.61)">
									
										<rect id="Rectangle_20099_1_" x="-70.21" y="-96.8" transform="matrix(-0.8893 0.4573 -0.4573 -0.8893 -164.7534 -153.0344)" class="st26" width="12.7" height="0.68"/>
								</g>
								<g id="Group_3029_1_" transform="translate(0.248 0.363)">
									<path id="Path_1135_1_" class="st26" d="M-69.61-93.6c0.3,0.58,3.07-0.25,6.2-1.86c3.13-1.6,5.42-3.37,5.12-3.95
										s-3.07,0.25-6.2,1.86C-67.62-95.95-69.91-94.18-69.61-93.6z"/>
								</g>
							</g>
							<g id="Group_3031_1_" transform="translate(0.865 1.285)">
								
									<rect id="Rectangle_20100_1_" x="-67.89" y="-95.11" transform="matrix(-0.8893 0.4573 -0.4573 -0.8893 -158.8961 -145.5507)" class="st26" width="12.12" height="6.21"/>
							</g>
							<g id="Group_3035_1_">
								<g id="Group_3032_1_" transform="translate(0.463 0.839)">
									<path id="Path_1136_1_" class="st26" d="M-68.5-91.42c0.3,0.58,3.07-0.25,6.2-1.86s5.42-3.37,5.12-3.95
										c-0.3-0.58-3.07,0.25-6.2,1.86C-66.5-93.76-68.8-92-68.5-91.42z"/>
								</g>
								<g id="Group_3033_1_" transform="translate(0.065 0.247)">
									
										<rect id="Rectangle_20101_1_" x="-68.96" y="-94.38" transform="matrix(-0.8894 0.4572 -0.4572 -0.8894 -161.284 -149.0465)" class="st26" width="12.69" height="0.68"/>
								</g>
								<g id="Group_3034_1_">
									<path id="Path_1137_1_" class="st26" d="M-68.37-91.18c0.3,0.57,3.07-0.25,6.2-1.86c3.13-1.6,5.42-3.37,5.12-3.95
										c-0.3-0.58-3.07,0.25-6.2,1.86C-66.37-93.53-68.67-91.76-68.37-91.18z"/>
								</g>
							</g>
							<g id="Group_3036_1_" transform="translate(4.813 8.816)">
								<path id="Path_1138_1_" class="st26" d="M-69.74-94.01c0.23,0.44,2.82-0.44,5.8-1.97c2.98-1.53,5.2-3.13,4.98-3.57
									c-0.23-0.44-2.82,0.44-5.8,1.97C-67.74-96.05-69.97-94.45-69.74-94.01z"/>
							</g>
						</g>
					</g>
					<g id="Group_3043_1_" transform="translate(3.008)">
						<g id="Group_3039_1_" transform="translate(0 0.001)">
							<path id="Path_1139_1_" class="st26" d="M-60.63-74.98l0.01,0.02c2.51,4.15,5.62,8.03,7.17,7.8
								c1.03-0.17,2.04-0.47,2.99-0.88c0.62-0.25,1.24-0.55,1.86-0.87c0.19-0.1,0.39-0.21,0.58-0.31c0.6-0.33,1.19-0.69,1.76-1.05
								c0.82-0.52,1.59-1.08,2.29-1.61c1.39-1.06-0.38-6-2.41-10.5l0,0c-1.27-2.82-2.65-5.48-3.41-6.9
								c-0.35-0.66-1.04-1.05-1.79-1.02c-0.49,0.02-1.08,0.04-1.73,0.1c-0.17,0.01-0.35,0.03-0.53,0.05l-0.24,0.03l-0.27,0.04
								c-0.1,0.02-0.2,0.03-0.3,0.05c-0.2,0.03-0.4,0.07-0.6,0.11c-0.1,0.02-0.21,0.04-0.31,0.07c-0.61,0.13-1.21,0.31-1.8,0.52
								c-0.12,0.04-0.23,0.09-0.35,0.13c-0.74,0.29-1.45,0.64-2.13,1.05c-0.07,0.04-0.14,0.08-0.21,0.13
								c-0.09,0.05-0.17,0.11-0.26,0.17c-0.06,0.04-0.12,0.08-0.19,0.13c-0.04,0.03-0.08,0.05-0.12,0.08
								c-0.08,0.06-0.17,0.11-0.25,0.18c-0.08,0.06-0.14,0.1-0.22,0.16c-0.07,0.05-0.14,0.1-0.2,0.15
								c-0.02,0.01-0.03,0.02-0.05,0.04c-0.07,0.05-0.14,0.11-0.21,0.16c-0.05,0.04-0.1,0.08-0.15,0.12
								c-0.08,0.06-0.16,0.13-0.24,0.2c-0.01,0-0.01,0.01-0.02,0.01c0,0,0,0,0,0c-0.08,0.07-0.16,0.14-0.24,0.21
								c-0.07,0.06-0.14,0.12-0.21,0.18l-0.15,0.14c-0.07,0.06-0.14,0.13-0.2,0.19c-0.07,0.07-0.16,0.15-0.24,0.23
								c-0.13,0.13-0.26,0.26-0.39,0.4c-0.06,0.06-0.13,0.13-0.19,0.2c-0.18,0.19-0.36,0.4-0.54,0.61c-0.05,0.06-0.1,0.12-0.15,0.17
								C-65.01-83.43-63.11-79.08-60.63-74.98z"/>
						</g>
						<g id="Group_3040_1_" transform="translate(15.201)">
							<path id="Path_1140_1_" class="st26" d="M-68.73-86.68l3.48,1.15v-0.01c0.78-2.23,3.59,2.99,3.67,3.14
								c-1.27-2.82-2.65-5.48-3.41-6.9c-0.35-0.66-1.04-1.05-1.79-1.02c-0.49,0.02-1.08,0.04-1.73,0.1L-68.73-86.68z"/>
						</g>
						<g id="Group_3041_1_" transform="translate(0 5.096)">
							<path id="Path_1141_1_" class="st26" d="M-60.62-80.05l-0.01-0.02c-2.83-5.64,0.06-5.36,0.06-5.36l-1.39-6.33
								c-0.78,0.66-1.5,1.38-2.16,2.16c-0.05,0.06-0.1,0.12-0.15,0.17C-65.01-88.53-63.1-84.16-60.62-80.05z"/>
						</g>
						<g id="Group_3042_1_" transform="translate(0.437)">
							<path id="Path_1142_1_" class="st26" d="M-54.72-80.1c2.24-0.98,3.83-3.02,4.23-5.43v-0.01c0.24-1.39,0.06-2.82-0.51-4.11
								l-0.24-0.55c-0.25-0.09-0.51-0.13-0.77-0.12c-0.49,0.02-1.08,0.04-1.73,0.1c-2.78,0.23-6.85,1.1-10.81,5.72l0.29,0.67
								C-62.66-80.16-58.38-78.5-54.72-80.1C-54.72-80.1-54.72-80.1-54.72-80.1z"/>
						</g>
					</g>
					<g id="Group_3044_1_" transform="translate(17.854 18.561)">
						<path id="Path_1143_1_" class="st26" d="M-68.33-92.03l3.03,5.43c0.62-0.25,1.24-0.55,1.86-0.87c0.19-0.1,0.39-0.21,0.58-0.31
							c0.6-0.33,1.19-0.69,1.76-1.05c-0.02-0.03-0.04-0.07-0.05-0.1l-3.01-5.41c-0.64-1.15-2.09-1.56-3.24-0.92
							C-68.55-94.62-68.96-93.18-68.33-92.03L-68.33-92.03L-68.33-92.03z"/>
					</g>
					<g id="Group_3045_1_" transform="translate(20.933 21.814)">
						<path id="Path_1144_1_" class="st26" d="M-69.46-96l2.94,5.28c0.19-0.1,0.39-0.21,0.58-0.31l-2.94-5.29
							c-0.11-0.15-0.31-0.18-0.46-0.08C-69.47-96.31-69.52-96.14-69.46-96L-69.46-96z"/>
					</g>
					<g id="Group_3046_1_" transform="translate(0 16.882)">
						<path id="Path_1145_1_" class="st26" d="M-60.28-86.69l5.06,2.67c1.23,0.65,2.71,0.64,3.92-0.04l0.17-0.09
							c-0.07-0.11-0.14-0.22-0.21-0.33c-5.08-8.07-7.26-9.05-7.26-9.05l-2-1.27c-0.28-0.18-0.6-0.28-0.92-0.29
							c-0.34-0.01-0.68,0.07-0.97,0.24c-0.44,0.25-0.77,0.66-0.89,1.16C-64.09-90.93-62.81-88.03-60.28-86.69z"/>
					</g>
					<g id="Group_3047_1_" transform="translate(2.341 16.884)">
						<path id="Path_1146_1_" class="st26" d="M-60.94-87.63l5.06,2.68c0.68,0.36,1.44,0.52,2.21,0.47
							c-5.08-8.07-7.26-9.05-7.26-9.05l-2-1.27c-0.07-0.3-0.38-0.49-0.68-0.41c-0.27,0.06-0.45,0.31-0.43,0.58
							C-64.75-91.86-63.47-88.96-60.94-87.63z"/>
					</g>
					<g id="Group_3050_1_" transform="translate(31.147 24.542)">
						<g id="Group_3048_1_" transform="translate(0 0.31)">
							<path id="Path_1147_1_" class="st26" d="M-68.07-90.5L-68.07-90.5l-3.52-6.85l0,0c-0.73,0.37-1.01,1.26-0.64,1.99l2.17,4.22
								C-69.68-90.41-68.79-90.13-68.07-90.5z"/>
						</g>
						<g id="Group_3049_1_" transform="translate(0.603)">
							<path id="Path_1148_1_" class="st26" d="M-68.24-90.41L-68.24-90.41l-3.52-6.85l0,0c-0.73,0.37-1.01,1.26-0.64,1.99
								c0,0,0,0,0,0l2.17,4.22C-69.86-90.32-68.96-90.04-68.24-90.41z"/>
						</g>
					</g>
				</g>
				<g id="Group_3077_1_" transform="translate(43.026)">
					<g id="Group_3073_1_" transform="translate(0.032)">
						<g id="Group_3063_1_" transform="translate(0 24.85)">
							<g id="Group_3062_1_">
								<g id="Group_3055_1_" transform="translate(0 8.794)">
									<g id="Group_3052_1_" transform="translate(0 0.864)">
										<path id="Path_1149_1_" class="st26" d="M-64.11-89.53c-0.26,0.59-3.08-0.08-6.29-1.5c-3.21-1.42-5.6-3.05-5.34-3.65
											c0.26-0.59,3.08,0.08,6.29,1.5C-66.24-91.76-63.84-90.13-64.11-89.53z"/>
									</g>
									<g id="Group_3053_1_" transform="translate(0.061 0.293)">
										
											<rect id="Rectangle_20102_1_" x="-70.18" y="-98.2" transform="matrix(-0.4052 0.9142 -0.9142 -0.4052 -182.1032 -65.2179)" class="st26" width="0.68" height="12.7"/>
									</g>
									<g id="Group_3054_1_" transform="translate(0.414)">
										<path id="Path_1150_1_" class="st26" d="M-64.22-89.29c-0.26,0.59-3.08-0.08-6.29-1.5c-3.21-1.42-5.6-3.05-5.34-3.65
											c0.26-0.59,3.08,0.08,6.29,1.5C-66.35-91.51-63.96-89.88-64.22-89.29z"/>
									</g>
								</g>
								<g id="Group_3056_1_" transform="translate(0.82 1.333)">
									
										<rect id="Rectangle_20103_1_" x="-72.3" y="-93.3" transform="matrix(-0.4052 0.9142 -0.9142 -0.4052 -176.9994 -59.3368)" class="st26" width="6.21" height="12.12"/>
								</g>
								<g id="Group_3060_1_" transform="translate(3.898)">
									<g id="Group_3057_1_" transform="translate(0 0.864)">
										<path id="Path_1151_1_" class="st26" d="M-65.21-87.05c-0.26,0.59-3.08-0.08-6.29-1.5c-3.21-1.42-5.6-3.05-5.34-3.65
											s3.08,0.08,6.29,1.5C-67.34-89.27-64.95-87.64-65.21-87.05z"/>
									</g>
									<g id="Group_3058_1_" transform="translate(0.061 0.293)">
										
											<rect id="Rectangle_20104_1_" x="-71.28" y="-95.71" transform="matrix(-0.4052 0.9142 -0.9142 -0.4052 -181.3786 -60.7142)" class="st26" width="0.68" height="12.7"/>
									</g>
									<g id="Group_3059_1_" transform="translate(0.414)">
										<path id="Path_1152_1_" class="st26" d="M-65.33-86.8c-0.26,0.59-3.08-0.08-6.29-1.5c-3.21-1.42-5.6-3.05-5.34-3.65
											c0.26-0.59,3.08,0.08,6.29,1.5C-67.46-89.03-65.07-87.39-65.33-86.8z"/>
									</g>
								</g>
								<g id="Group_3061_1_" transform="translate(0.79 9.051)">
									<path id="Path_1153_1_" class="st26" d="M-64.9-89.68c-0.2,0.45-2.84-0.28-5.9-1.63c-3.06-1.36-5.38-2.82-5.17-3.28
										c0.2-0.45,2.84,0.28,5.9,1.63S-64.69-90.13-64.9-89.68z"/>
								</g>
							</g>
						</g>
						<g id="Group_3068_1_" transform="translate(4.887)">
							<g id="Group_3064_1_" transform="translate(0 0.001)">
								<path id="Path_1154_1_" class="st26" d="M-60.1-70.33l-0.01,0.02c-2.27,4.29-5.14,8.34-6.7,8.2
									c-1.04-0.11-2.06-0.35-3.04-0.7c-0.63-0.22-1.27-0.48-1.91-0.76c-0.2-0.09-0.4-0.18-0.6-0.28c-0.62-0.3-1.22-0.62-1.81-0.95
									c-0.84-0.48-1.65-0.98-2.38-1.48c-1.45-0.98,0.03-6.01,1.8-10.63l0,0c1.11-2.89,2.33-5.62,3-7.09
									c0.31-0.68,0.98-1.11,1.73-1.12c0.49-0.01,1.08-0.02,1.74,0c0.17,0,0.35,0.01,0.53,0.02l0.24,0.01l0.27,0.02
									c0.1,0.01,0.2,0.02,0.3,0.03c0.2,0.02,0.4,0.04,0.61,0.07c0.1,0.01,0.21,0.03,0.32,0.05c0.62,0.1,1.23,0.24,1.83,0.41
									c0.12,0.04,0.24,0.07,0.36,0.11c0.76,0.25,1.49,0.56,2.19,0.93c0.07,0.04,0.14,0.07,0.22,0.12c0.09,0.05,0.18,0.1,0.27,0.15
									c0.07,0.04,0.13,0.07,0.2,0.12c0.04,0.02,0.09,0.05,0.13,0.07c0.09,0.05,0.17,0.1,0.26,0.16c0.09,0.06,0.15,0.1,0.23,0.14
									c0.08,0.05,0.14,0.09,0.22,0.14c0.02,0.01,0.03,0.02,0.05,0.03c0.07,0.05,0.14,0.1,0.22,0.15c0.05,0.04,0.11,0.08,0.16,0.12
									c0.08,0.06,0.17,0.12,0.25,0.18c0.01,0,0.01,0.01,0.02,0.01c0,0,0,0,0,0c0.08,0.06,0.17,0.13,0.25,0.19
									c0.07,0.05,0.14,0.11,0.22,0.17l0.16,0.13c0.07,0.06,0.14,0.12,0.22,0.18c0.08,0.07,0.17,0.14,0.25,0.22
									c0.13,0.12,0.27,0.24,0.41,0.37c0.07,0.06,0.13,0.12,0.2,0.19c0.19,0.18,0.38,0.37,0.57,0.57c0.05,0.05,0.1,0.11,0.16,0.17
									C-56.21-79.03-57.86-74.57-60.1-70.33z"/>
							</g>
							<g id="Group_3065_1_" transform="translate(3.333)">
								<path id="Path_1155_1_" class="st26" d="M-71.2-81.6l-3.4,1.35v-0.01c-0.91-2.18-3.41,3.19-3.49,3.35
									c1.11-2.89,2.33-5.62,3-7.09c0.31-0.68,0.98-1.11,1.72-1.12c0.49-0.01,1.08-0.02,1.74,0L-71.2-81.6z"/>
							</g>
							<g id="Group_3066_1_" transform="translate(23.249 4.264)">
								<path id="Path_1156_1_" class="st26" d="M-83.36-74.57l0.01-0.02c2.5-5.8-0.37-5.34-0.37-5.34l1.02-6.4
									c0.81,0.62,1.58,1.3,2.28,2.03c0.05,0.05,0.1,0.11,0.16,0.17C-79.46-83.29-81.11-78.82-83.36-74.57z"/>
							</g>
							<g id="Group_3067_1_" transform="translate(7.939)">
								<path id="Path_1157_1_" class="st26" d="M-74.67-75.08c-2.29-0.85-4-2.79-4.54-5.17v-0.01c-0.32-1.37-0.22-2.81,0.27-4.13
									l0.21-0.56c0.24-0.11,0.5-0.16,0.76-0.16c0.49-0.01,1.08-0.02,1.74,0c2.79,0.07,6.91,0.7,11.12,5.08l-0.25,0.69
									C-66.75-75.6-70.92-73.69-74.67-75.08z"/>
							</g>
						</g>
						<g id="Group_3069_1_" transform="translate(9.027 18.55)">
							<path id="Path_1158_1_" class="st26" d="M-71.29-86.96l-2.71,5.6c-0.63-0.22-1.27-0.48-1.91-0.76
								c-0.2-0.09-0.4-0.18-0.6-0.28c-0.62-0.3-1.22-0.62-1.81-0.95c0.02-0.04,0.03-0.07,0.05-0.11l2.7-5.57
								c0.57-1.18,2-1.68,3.18-1.11C-71.21-89.57-70.72-88.14-71.29-86.96L-71.29-86.96z"/>
						</g>
						<g id="Group_3070_1_" transform="translate(11.556 21.815)">
							<path id="Path_1159_1_" class="st26" d="M-75.8-90.83l-2.63,5.44c-0.2-0.09-0.4-0.18-0.6-0.28l2.63-5.45
								c0.09-0.16,0.29-0.22,0.45-0.13C-75.8-91.16-75.74-90.98-75.8-90.83L-75.8-90.83z"/>
						</g>
						<g id="Group_3071_1_" transform="translate(20.234 15.814)">
							<path id="Path_1160_1_" class="st26" d="M-72.5-81.14l-4.9,2.96c-1.19,0.72-2.67,0.79-3.92,0.18l-0.17-0.08
								c0.06-0.12,0.13-0.23,0.19-0.34c4.61-8.35,6.73-9.45,6.73-9.45l1.93-1.38c0.27-0.19,0.58-0.31,0.91-0.34
								c0.34-0.03,0.68,0.03,0.98,0.18c0.46,0.22,0.8,0.62,0.96,1.1C-68.93-85.58-70.05-82.62-72.5-81.14z"/>
						</g>
						<g id="Group_3072_1_" transform="translate(20.497 15.824)">
							<path id="Path_1161_1_" class="st26" d="M-74.49-81.98l-4.9,2.96c-0.66,0.4-1.41,0.6-2.17,0.59
								c4.61-8.35,6.73-9.45,6.73-9.45l1.93-1.38c0.27-0.19,0.58-0.31,0.91-0.34c0.09,0.14,0.16,0.29,0.21,0.45
								C-70.93-86.43-72.04-83.47-74.49-81.98z"/>
						</g>
					</g>
					<g id="Group_3076_1_" transform="translate(0 25.201)">
						<g id="Group_3074_1_" transform="translate(0.62 0.275)">
							<path id="Path_1162_1_" class="st26" d="M-75.93-85.3L-75.93-85.3l3.12-7.04l0,0c0.75,0.33,1.08,1.2,0.75,1.95l-1.92,4.34
								C-74.31-85.3-75.18-84.97-75.93-85.3C-75.93-85.3-75.93-85.3-75.93-85.3z"/>
						</g>
						<g id="Group_3075_1_">
							<path id="Path_1163_1_" class="st26" d="M-75.75-85.22L-75.75-85.22l3.12-7.04l0,0c0.75,0.33,1.08,1.2,0.75,1.95c0,0,0,0,0,0
								l-1.92,4.34C-74.13-85.23-75.01-84.89-75.75-85.22C-75.75-85.22-75.75-85.22-75.75-85.22z"/>
						</g>
					</g>
				</g>
			</g>
		</g>
		<g id="Group_3079_1_" transform="translate(369.647 540.476)">
			<g id="Group_3078-2_1_" transform="translate(0)">
				<g id="Group_3051-2_1_" transform="translate(0 18.324)">
					<g id="Group_3038-2_1_" transform="translate(17.025 24.237)">
						<g id="Group_3037-2_1_">
							<g id="Group_3030-2_1_" transform="translate(4.151 8.192)">
								<g id="Group_3027-2_1_" transform="translate(0 0)">
									
										<ellipse id="Ellipse_15-2_1_" transform="matrix(0.8898 -0.4564 0.4564 0.8898 31.9465 -42.8452)" class="st36" cx="-72.74" cy="-87.57" rx="6.36" ry="1.17"/>
								</g>
								<g id="Group_3028-2_1_" transform="translate(0.314 0.61)">
									
										<rect id="Rectangle_20099-2_1_" x="-79.57" y="-88.82" transform="matrix(0.8893 -0.4573 0.4573 0.8893 32.3589 -43.2781)" class="st36" width="12.7" height="0.68"/>
								</g>
								<g id="Group_3029-2_1_" transform="translate(0.248 0.363)">
									<path id="Path_1135-2_1_" class="st37" d="M-78.98-85.63c0.3,0.58,3.07-0.25,6.2-1.86s5.42-3.37,5.12-3.95
										c-0.3-0.58-3.07,0.25-6.2,1.86S-79.28-86.21-78.98-85.63z"/>
								</g>
							</g>
							<g id="Group_3031-2_1_" transform="translate(0.865 1.285)">
								
									<rect id="Rectangle_20100-2_1_" x="-77.26" y="-87.14" transform="matrix(0.8893 -0.4573 0.4573 0.8893 30.5475 -41.8603)" class="st1" width="12.12" height="6.21"/>
							</g>
							<g id="Group_3035-2_1_">
								<g id="Group_3032-2_1_" transform="translate(0.463 0.839)">
									<path id="Path_1136-2_1_" class="st36" d="M-77.87-83.45c0.3,0.58,3.07-0.25,6.2-1.86c3.13-1.6,5.42-3.37,5.12-3.95
										c-0.3-0.58-3.07,0.25-6.2,1.86C-75.87-85.79-78.16-84.02-77.87-83.45z"/>
								</g>
								<g id="Group_3033-2_1_" transform="translate(0.065 0.247)">
									
										<rect id="Rectangle_20101-2_1_" x="-78.32" y="-86.4" transform="matrix(0.8894 -0.4572 0.4572 0.8894 31.3853 -42.4272)" class="st36" width="12.69" height="0.68"/>
								</g>
								<g id="Group_3034-2_1_">
									<path id="Path_1137-2_1_" class="st37" d="M-77.73-83.21c0.3,0.57,3.07-0.25,6.2-1.86s5.42-3.37,5.12-3.95
										c-0.3-0.58-3.07,0.25-6.2,1.86C-75.73-85.55-78.03-83.79-77.73-83.21z"/>
								</g>
							</g>
							<g id="Group_3036-2_1_" transform="translate(4.813 8.816)">
								<path id="Path_1138-2_1_" class="st38" d="M-79.11-86.04c0.23,0.44,2.82-0.44,5.8-1.97c2.98-1.53,5.2-3.13,4.98-3.57
									c-0.23-0.44-2.82,0.44-5.8,1.97C-77.11-88.08-79.33-86.48-79.11-86.04z"/>
							</g>
						</g>
					</g>
					<g id="Group_3043-2_1_" transform="translate(3.008)">
						<g id="Group_3039-2_1_" transform="translate(0 0.001)">
							<path id="Path_1139-2_1_" class="st38" d="M-69.99-67l0.01,0.02c2.51,4.15,5.62,8.03,7.17,7.8c1.03-0.17,2.04-0.47,2.99-0.88
								c0.62-0.25,1.24-0.55,1.86-0.87c0.19-0.1,0.39-0.21,0.58-0.31c0.6-0.33,1.19-0.69,1.76-1.05c0.82-0.52,1.59-1.08,2.29-1.61
								c1.39-1.06-0.38-6-2.41-10.5l0,0c-1.27-2.82-2.65-5.48-3.41-6.9c-0.35-0.66-1.04-1.05-1.79-1.02
								c-0.49,0.02-1.08,0.04-1.73,0.1c-0.17,0.01-0.35,0.03-0.53,0.05l-0.24,0.03l-0.27,0.04c-0.1,0.02-0.2,0.03-0.3,0.05
								c-0.2,0.03-0.4,0.07-0.6,0.11c-0.1,0.02-0.21,0.04-0.31,0.07c-0.61,0.13-1.21,0.31-1.8,0.52c-0.12,0.04-0.23,0.09-0.35,0.13
								c-0.74,0.29-1.45,0.64-2.13,1.05c-0.07,0.04-0.14,0.08-0.21,0.13c-0.09,0.05-0.17,0.11-0.26,0.17
								c-0.06,0.04-0.12,0.08-0.19,0.13c-0.04,0.03-0.08,0.05-0.12,0.08c-0.08,0.06-0.17,0.11-0.25,0.18
								c-0.08,0.06-0.14,0.1-0.22,0.16c-0.07,0.05-0.14,0.1-0.2,0.15c-0.02,0.01-0.03,0.02-0.05,0.04
								c-0.07,0.05-0.14,0.11-0.21,0.16c-0.05,0.04-0.1,0.08-0.15,0.12c-0.08,0.06-0.16,0.13-0.24,0.2c-0.01,0-0.01,0.01-0.02,0.01
								c0,0,0,0,0,0c-0.08,0.07-0.16,0.14-0.24,0.21c-0.07,0.06-0.14,0.12-0.21,0.18l-0.15,0.14c-0.07,0.06-0.14,0.13-0.2,0.19
								c-0.07,0.07-0.16,0.15-0.24,0.23c-0.13,0.13-0.26,0.26-0.39,0.4c-0.06,0.06-0.13,0.13-0.19,0.2
								c-0.18,0.19-0.36,0.4-0.54,0.61c-0.05,0.06-0.1,0.12-0.15,0.17C-74.38-75.46-72.47-71.1-69.99-67z"/>
						</g>
						<g id="Group_3040-2_1_" transform="translate(15.201)">
							<path id="Path_1140-2_1_" class="st12" d="M-78.1-78.71l3.48,1.15v-0.01c0.78-2.23,3.59,2.99,3.67,3.14
								c-1.27-2.82-2.65-5.48-3.41-6.9c-0.35-0.66-1.04-1.05-1.79-1.02c-0.49,0.02-1.08,0.04-1.73,0.1L-78.1-78.71z"/>
						</g>
						<g id="Group_3041-2_1_" transform="translate(0 5.096)">
							<path id="Path_1141-2_1_" class="st12" d="M-69.98-72.08l-0.01-0.02c-2.83-5.64,0.06-5.36,0.06-5.36l-1.39-6.33
								c-0.78,0.66-1.5,1.38-2.16,2.16c-0.05,0.06-0.1,0.12-0.15,0.17C-74.38-80.55-72.47-76.19-69.98-72.08z"/>
						</g>
						<g id="Group_3042-2_1_" transform="translate(0.437)">
							<path id="Path_1142-2_1_" class="st1" d="M-64.09-72.13c2.24-0.98,3.83-3.02,4.23-5.43v-0.01c0.24-1.39,0.06-2.82-0.51-4.11
								l-0.24-0.55c-0.25-0.09-0.51-0.13-0.77-0.12c-0.49,0.02-1.08,0.04-1.73,0.1c-2.78,0.23-6.85,1.1-10.81,5.72l0.29,0.67
								C-72.02-72.19-67.75-70.52-64.09-72.13C-64.09-72.13-64.09-72.13-64.09-72.13z"/>
						</g>
					</g>
					<g id="Group_3044-2_1_" transform="translate(17.854 18.561)">
						<path id="Path_1143-2_1_" class="st12" d="M-77.69-84.05l3.03,5.43c0.62-0.25,1.24-0.55,1.86-0.87
							c0.19-0.1,0.39-0.21,0.58-0.31c0.6-0.33,1.19-0.69,1.76-1.05c-0.02-0.03-0.04-0.07-0.05-0.1l-3.01-5.41
							c-0.64-1.15-2.09-1.56-3.24-0.92C-77.92-86.65-78.33-85.2-77.69-84.05L-77.69-84.05L-77.69-84.05z"/>
					</g>
					<g id="Group_3045-2_1_" transform="translate(20.933 21.814)">
						<path id="Path_1144-2_1_" class="st39" d="M-78.82-88.02l2.94,5.28c0.19-0.1,0.39-0.21,0.58-0.31l-2.94-5.29
							c-0.11-0.15-0.31-0.18-0.46-0.08C-78.83-88.33-78.88-88.17-78.82-88.02L-78.82-88.02z"/>
					</g>
					<g id="Group_3046-2_1_" transform="translate(0 16.882)">
						<path id="Path_1145-2_1_" class="st1" d="M-69.64-78.72l5.06,2.67c1.23,0.65,2.71,0.64,3.92-0.04l0.17-0.09
							c-0.07-0.11-0.14-0.22-0.21-0.33c-5.08-8.07-7.26-9.05-7.26-9.05l-2-1.27c-0.28-0.18-0.6-0.28-0.92-0.29
							c-0.34-0.01-0.68,0.07-0.97,0.24c-0.44,0.25-0.77,0.66-0.89,1.16C-73.46-82.95-72.17-80.06-69.64-78.72z"/>
					</g>
					<g id="Group_3047-2_1_" transform="translate(2.341 16.884)">
						<path id="Path_1146-2_1_" class="st12" d="M-70.31-79.65l5.06,2.68c0.68,0.36,1.44,0.52,2.21,0.47
							c-5.08-8.07-7.26-9.05-7.26-9.05l-2-1.27c-0.07-0.3-0.38-0.49-0.68-0.41c-0.27,0.06-0.45,0.31-0.43,0.58
							C-74.12-83.89-72.84-80.99-70.31-79.65z"/>
					</g>
					<g id="Group_3050-2_1_" transform="translate(31.147 24.542)">
						<g id="Group_3048-2_1_" transform="translate(0 0.31)">
							<path id="Path_1147-2_1_" class="st39" d="M-77.43-82.53L-77.43-82.53l-3.52-6.85l0,0c-0.73,0.37-1.01,1.26-0.64,1.99
								l2.17,4.22C-79.05-82.44-78.16-82.15-77.43-82.53z"/>
						</g>
						<g id="Group_3049-2_1_" transform="translate(0.603)">
							<path id="Path_1148-2_1_" class="st1" d="M-77.6-82.44L-77.6-82.44l-3.52-6.85l0,0c-0.73,0.37-1.01,1.26-0.64,1.99
								c0,0,0,0,0,0l2.17,4.22C-79.22-82.35-78.33-82.06-77.6-82.44z"/>
						</g>
					</g>
				</g>
				<g id="Group_3077-2_1_" transform="translate(43.026)">
					<g id="Group_3073-2_1_" transform="translate(0.032)">
						<g id="Group_3063-2_1_" transform="translate(0 24.85)">
							<g id="Group_3062-2_1_">
								<g id="Group_3055-2_1_" transform="translate(0 8.794)">
									<g id="Group_3052-2_1_" transform="translate(0 0.864)">
										<path id="Path_1149-2_1_" class="st36" d="M-73.47-81.56c-0.26,0.59-3.08-0.08-6.29-1.5c-3.21-1.42-5.6-3.05-5.34-3.65
											c0.26-0.59,3.08,0.08,6.29,1.5C-75.6-83.79-73.21-82.16-73.47-81.56z"/>
									</g>
									<g id="Group_3053-2_1_" transform="translate(0.061 0.293)">
										
											<rect id="Rectangle_20102-2_1_" x="-79.54" y="-90.22" transform="matrix(0.4052 -0.9142 0.9142 0.4052 29.5717 -122.2962)" class="st36" width="0.68" height="12.7"/>
									</g>
									<g id="Group_3054-2_1_" transform="translate(0.414)">
										<path id="Path_1150-2_1_" class="st37" d="M-73.59-81.32c-0.26,0.59-3.08-0.08-6.29-1.5c-3.21-1.42-5.6-3.05-5.34-3.65
											c0.26-0.59,3.08,0.08,6.29,1.5C-75.72-83.54-73.33-81.91-73.59-81.32z"/>
									</g>
								</g>
								<g id="Group_3056-2_1_" transform="translate(0.82 1.333)">
									
										<rect id="Rectangle_20103-2_1_" x="-81.67" y="-85.33" transform="matrix(0.4052 -0.9142 0.9142 0.4052 25.745 -118.9735)" class="st1" width="6.21" height="12.12"/>
								</g>
								<g id="Group_3060-2_1_" transform="translate(3.898)">
									<g id="Group_3057-2_1_" transform="translate(0 0.864)">
										<path id="Path_1151-2_1_" class="st36" d="M-74.58-79.07c-0.26,0.59-3.08-0.08-6.29-1.5c-3.21-1.42-5.6-3.05-5.34-3.65
											s3.08,0.08,6.29,1.5C-76.71-81.3-74.31-79.67-74.58-79.07z"/>
									</g>
									<g id="Group_3058-2_1_" transform="translate(0.061 0.293)">
										
											<rect id="Rectangle_20104-2_1_" x="-80.64" y="-87.74" transform="matrix(0.4052 -0.9142 0.9142 0.4052 26.6411 -121.8226)" class="st36" width="0.68" height="12.7"/>
									</g>
									<g id="Group_3059-2_1_" transform="translate(0.414)">
										<path id="Path_1152-2_1_" class="st37" d="M-74.69-78.83c-0.26,0.59-3.08-0.08-6.29-1.5c-3.21-1.42-5.6-3.05-5.34-3.65
											s3.08,0.08,6.29,1.5C-76.82-81.05-74.43-79.42-74.69-78.83z"/>
									</g>
								</g>
								<g id="Group_3061-2_1_" transform="translate(0.79 9.051)">
									<path id="Path_1153-2_1_" class="st38" d="M-74.26-81.7c-0.2,0.45-2.84-0.28-5.9-1.63c-3.06-1.36-5.38-2.82-5.17-3.28
										c0.2-0.45,2.84,0.28,5.9,1.63S-74.06-82.16-74.26-81.7z"/>
								</g>
							</g>
						</g>
						<g id="Group_3068-2_1_" transform="translate(4.887)">
							<g id="Group_3064-2_1_" transform="translate(0 0.001)">
								<path id="Path_1154-2_1_" class="st38" d="M-69.47-62.36l-0.01,0.02c-2.27,4.29-5.14,8.34-6.7,8.2
									c-1.04-0.11-2.06-0.35-3.04-0.7c-0.63-0.22-1.27-0.48-1.91-0.76c-0.2-0.09-0.4-0.18-0.6-0.28c-0.62-0.3-1.22-0.62-1.81-0.95
									c-0.84-0.48-1.65-0.98-2.38-1.48c-1.45-0.98,0.03-6.01,1.8-10.63l0,0c1.11-2.89,2.33-5.62,3-7.09
									c0.31-0.68,0.98-1.11,1.73-1.12c0.49-0.01,1.08-0.02,1.74,0c0.17,0,0.35,0.01,0.53,0.02l0.24,0.01l0.27,0.02
									c0.1,0.01,0.2,0.02,0.3,0.03c0.2,0.02,0.4,0.04,0.61,0.07c0.1,0.01,0.21,0.03,0.32,0.05c0.62,0.1,1.23,0.24,1.83,0.41
									c0.12,0.04,0.24,0.07,0.36,0.11c0.76,0.25,1.49,0.56,2.19,0.93c0.07,0.04,0.14,0.07,0.22,0.12c0.09,0.05,0.18,0.1,0.27,0.15
									c0.07,0.04,0.13,0.07,0.2,0.12c0.04,0.02,0.09,0.05,0.13,0.07c0.09,0.05,0.17,0.1,0.26,0.16c0.09,0.06,0.15,0.1,0.23,0.14
									c0.08,0.05,0.14,0.09,0.22,0.14c0.02,0.01,0.03,0.02,0.05,0.03c0.07,0.05,0.14,0.1,0.22,0.15c0.05,0.04,0.11,0.08,0.16,0.12
									c0.08,0.06,0.17,0.12,0.25,0.18c0.01,0,0.01,0.01,0.02,0.01c0,0,0,0,0,0c0.08,0.06,0.17,0.13,0.25,0.19
									c0.07,0.05,0.14,0.11,0.22,0.17l0.16,0.13c0.07,0.06,0.14,0.12,0.22,0.18c0.08,0.07,0.17,0.14,0.25,0.22
									c0.13,0.12,0.27,0.24,0.41,0.37c0.07,0.06,0.13,0.12,0.2,0.19c0.19,0.18,0.38,0.37,0.57,0.57c0.05,0.05,0.1,0.11,0.16,0.17
									C-65.58-71.05-67.23-66.59-69.47-62.36z"/>
							</g>
							<g id="Group_3065-2_1_" transform="translate(3.333)">
								<path id="Path_1155-2_1_" class="st12" d="M-80.56-73.63l-3.4,1.35v-0.01c-0.91-2.18-3.41,3.19-3.49,3.35
									c1.11-2.89,2.33-5.62,3-7.09c0.31-0.68,0.98-1.11,1.72-1.12c0.49-0.01,1.08-0.02,1.74,0L-80.56-73.63z"/>
							</g>
							<g id="Group_3066-2_1_" transform="translate(23.249 4.264)">
								<path id="Path_1156-2_1_" class="st12" d="M-92.73-66.6l0.01-0.02c2.5-5.8-0.37-5.34-0.37-5.34l1.02-6.4
									c0.81,0.62,1.58,1.3,2.28,2.03c0.05,0.05,0.1,0.11,0.16,0.17C-88.83-75.32-90.48-70.85-92.73-66.6z"/>
							</g>
							<g id="Group_3067-2_1_" transform="translate(7.939)">
								<path id="Path_1157-2_1_" class="st1" d="M-84.04-67.11c-2.29-0.85-4-2.79-4.54-5.17v-0.01c-0.32-1.37-0.22-2.81,0.27-4.13
									l0.21-0.56c0.24-0.11,0.5-0.16,0.76-0.16c0.49-0.01,1.08-0.02,1.74,0c2.79,0.07,6.91,0.7,11.12,5.08l-0.25,0.69
									C-76.12-67.63-80.29-65.72-84.04-67.11z"/>
							</g>
						</g>
						<g id="Group_3069-2_1_" transform="translate(9.027 18.55)">
							<path id="Path_1158-2_1_" class="st12" d="M-80.65-78.99l-2.71,5.6c-0.63-0.22-1.27-0.48-1.91-0.76
								c-0.2-0.09-0.4-0.18-0.6-0.28c-0.62-0.3-1.22-0.62-1.81-0.95c0.02-0.04,0.03-0.07,0.05-0.11l2.7-5.57
								c0.57-1.18,2-1.68,3.18-1.11C-80.58-81.59-80.08-80.17-80.65-78.99L-80.65-78.99z"/>
						</g>
						<g id="Group_3070-2_1_" transform="translate(11.556 21.815)">
							<path id="Path_1159-2_1_" class="st39" d="M-85.17-82.85l-2.63,5.44c-0.2-0.09-0.4-0.18-0.6-0.28l2.63-5.45
								c0.09-0.16,0.29-0.22,0.45-0.13C-85.17-83.19-85.1-83.01-85.17-82.85L-85.17-82.85z"/>
						</g>
						<g id="Group_3071-2_1_" transform="translate(20.234 15.814)">
							<path id="Path_1160-2_1_" class="st1" d="M-81.86-73.16l-4.9,2.96c-1.19,0.72-2.67,0.79-3.92,0.18l-0.17-0.08
								c0.06-0.12,0.13-0.23,0.19-0.34c4.61-8.35,6.73-9.45,6.73-9.45l1.93-1.38c0.27-0.19,0.58-0.31,0.91-0.34
								c0.34-0.03,0.68,0.03,0.98,0.18c0.46,0.22,0.8,0.62,0.96,1.1C-78.3-77.61-79.41-74.65-81.86-73.16z"/>
						</g>
						<g id="Group_3072-2_1_" transform="translate(20.497 15.824)">
							<path id="Path_1161-2_1_" class="st12" d="M-83.85-74.01l-4.9,2.96c-0.66,0.4-1.41,0.6-2.17,0.59
								c4.61-8.35,6.73-9.45,6.73-9.45l1.93-1.38c0.27-0.19,0.58-0.31,0.91-0.34c0.09,0.14,0.16,0.29,0.21,0.45
								C-80.29-78.46-81.41-75.49-83.85-74.01z"/>
						</g>
					</g>
					<g id="Group_3076-2_1_" transform="translate(0 25.201)">
						<g id="Group_3074-2_1_" transform="translate(0.62 0.275)">
							<path id="Path_1162-2_1_" class="st39" d="M-85.29-77.33L-85.29-77.33l3.12-7.04l0,0c0.75,0.33,1.08,1.2,0.75,1.95
								l-1.92,4.34C-83.67-77.33-84.55-76.99-85.29-77.33C-85.29-77.33-85.29-77.33-85.29-77.33z"/>
						</g>
						<g id="Group_3075-2_1_">
							<path id="Path_1163-2_1_" class="st1" d="M-85.12-77.25L-85.12-77.25l3.12-7.04l0,0c0.75,0.33,1.08,1.2,0.75,1.95
								c0,0,0,0,0,0L-83.17-78C-83.5-77.25-84.37-76.92-85.12-77.25C-85.12-77.25-85.12-77.25-85.12-77.25z"/>
						</g>
					</g>
				</g>
			</g>
		</g>
	</g>
</g>
</svg>
