<?xml version="1.0" encoding="utf-8"?>
<!-- Generator: Adobe Illustrator 24.2.3, SVG Export Plug-In . SVG Version: 6.00 Build 0)  -->
<svg version="1.1" id="Layer_1" xmlns="http://www.w3.org/2000/svg" xmlns:xlink="http://www.w3.org/1999/xlink" x="0px" y="0px"
	 viewBox="0 0 300 1162.5" style="enable-background:new 0 0 300 1162.5;" xml:space="preserve">
<style type="text/css">
	.st0{fill:none;}
	.st1{fill:#B9B8B9;}
	.st2{fill:#951A1D;}
	.st3{fill:#4A1111;}
	.st4{fill:#DD1F26;}
	.st5{fill:url(#Path_2425_2_);}
	.st6{fill:url(#Path_2424_2_);}
	.st7{fill:url(#Path_2423_2_);}
	.st8{fill:#2A2B2A;}
	.st9{fill:#334EA1;}
	.st10{fill:#142B51;}
	.st11{fill:#4481C2;}
	.st12{fill:url(#Path_2425-2_2_);}
	.st13{fill:url(#Path_2424-2_2_);}
	.st14{fill:url(#Path_2423-2_2_);}
	.st15{fill:#0A783D;}
	.st16{fill:#163B1C;}
	.st17{fill:#70BE4A;}
	.st18{fill:url(#Path_2425-3_2_);}
	.st19{fill:url(#Path_2424-3_2_);}
	.st20{fill:url(#Path_2423-3_2_);}
	.st21{fill:url(#Rectangle_20147_2_);}
</style>
<rect x="5089.35" y="524.35" class="st0" width="277.87" height="1166.69"/>
<rect x="5089.35" y="524.35" class="st0" width="277.87" height="1166.69"/>
<polygon class="st1" points="300,15.41 292,15.41 292,17.41 300,17.41 "/>
<polygon class="st1" points="284,15.41 276,15.41 276,17.41 284,17.41 "/>
<polygon class="st1" points="268,15.41 260,15.41 260,17.41 268,17.41 "/>
<polygon class="st1" points="252,15.41 244,15.41 244,17.41 252,17.41 "/>
<polygon class="st1" points="236,15.41 228,15.41 228,17.41 236,17.41 "/>
<polygon class="st1" points="220,15.41 212,15.41 212,17.41 220,17.41 "/>
<polygon class="st1" points="204,15.41 196,15.41 196,17.41 204,17.41 "/>
<polygon class="st1" points="188,15.41 180,15.41 180,17.41 188,17.41 "/>
<polygon class="st1" points="172,15.41 164,15.41 164,17.41 172,17.41 "/>
<polygon class="st1" points="156,15.41 148,15.41 148,17.41 156,17.41 "/>
<polygon class="st1" points="140,15.41 132,15.41 132,17.41 140,17.41 "/>
<polygon class="st1" points="124,15.41 116,15.41 116,17.41 124,17.41 "/>
<polygon class="st1" points="108,15.41 100,15.41 100,17.41 108,17.41 "/>
<polygon class="st1" points="92,15.41 84,15.41 84,17.41 92,17.41 "/>
<polygon class="st1" points="76,15.41 68,15.41 68,17.41 76,17.41 "/>
<polygon class="st1" points="60,15.41 52,15.41 52,17.41 60,17.41 "/>
<polygon class="st1" points="44,15.41 36,15.41 36,17.41 44,17.41 "/>
<polygon class="st1" points="28,15.41 20,15.41 20,17.41 28,17.41 "/>
<polygon class="st1" points="12,15.41 4,15.41 4,17.41 12,17.41 "/>
<polygon class="st1" points="2,19.41 0,19.41 0,27.41 2,27.41 "/>
<polygon class="st1" points="2,35.41 0,35.41 0,43.41 2,43.41 "/>
<polygon class="st1" points="2,51.41 0,51.41 0,59.41 2,59.41 "/>
<polygon class="st1" points="2,67.41 0,67.41 0,75.41 2,75.41 "/>
<polygon class="st1" points="2,83.41 0,83.41 0,91.41 2,91.41 "/>
<polygon class="st1" points="2,99.41 0,99.41 0,107.41 2,107.41 "/>
<polygon class="st1" points="2,115.41 0,115.41 0,123.41 2,123.41 "/>
<polygon class="st1" points="2,131.41 0,131.41 0,139.41 2,139.41 "/>
<polygon class="st1" points="2,147.41 0,147.41 0,155.41 2,155.41 "/>
<polygon class="st1" points="2,163.41 0,163.41 0,171.41 2,171.41 "/>
<polygon class="st1" points="2,179.41 0,179.41 0,187.41 2,187.41 "/>
<polygon class="st1" points="2,195.41 0,195.41 0,203.41 2,203.41 "/>
<polygon class="st1" points="2,211.41 0,211.41 0,219.41 2,219.41 "/>
<polygon class="st1" points="2,227.41 0,227.41 0,235.41 2,235.41 "/>
<polygon class="st1" points="2,243.41 0,243.41 0,251.41 2,251.41 "/>
<polygon class="st1" points="2,259.41 0,259.41 0,267.41 2,267.41 "/>
<polygon class="st1" points="2,275.41 0,275.41 0,283.41 2,283.41 "/>
<polygon class="st1" points="2,291.41 0,291.41 0,299.41 2,299.41 "/>
<polygon class="st1" points="2,307.41 0,307.41 0,315.41 2,315.41 "/>
<polygon class="st1" points="2,323.41 0,323.41 0,331.41 2,331.41 "/>
<polygon class="st1" points="2,339.41 0,339.41 0,347.41 2,347.41 "/>
<polygon class="st1" points="2,355.41 0,355.41 0,363.41 2,363.41 "/>
<polygon class="st1" points="2,371.41 0,371.41 0,379.41 2,379.41 "/>
<polygon class="st1" points="2,387.41 0,387.41 0,395.41 2,395.41 "/>
<polygon class="st1" points="2,403.41 0,403.41 0,411.41 2,411.41 "/>
<polygon class="st1" points="2,419.41 0,419.41 0,427.41 2,427.41 "/>
<polygon class="st1" points="2,435.41 0,435.41 0,443.41 2,443.41 "/>
<polygon class="st1" points="2,451.41 0,451.41 0,459.41 2,459.41 "/>
<polygon class="st1" points="2,467.41 0,467.41 0,475.41 2,475.41 "/>
<polygon class="st1" points="2,483.41 0,483.41 0,491.41 2,491.41 "/>
<polygon class="st1" points="2,499.41 0,499.41 0,507.41 2,507.41 "/>
<polygon class="st1" points="2,515.41 0,515.41 0,523.41 2,523.41 "/>
<polygon class="st1" points="2,531.41 0,531.41 0,539.41 2,539.41 "/>
<polygon class="st1" points="2,547.41 0,547.41 0,555.41 2,555.41 "/>
<polygon class="st1" points="2,563.41 0,563.41 0,571.41 2,571.41 "/>
<polygon class="st1" points="2,579.41 0,579.41 0,587.41 2,587.41 "/>
<polygon class="st1" points="2,595.41 0,595.41 0,603.41 2,603.41 "/>
<polygon class="st1" points="2,611.41 0,611.41 0,619.41 2,619.41 "/>
<polygon class="st1" points="2,627.41 0,627.41 0,635.41 2,635.41 "/>
<polygon class="st1" points="2,643.41 0,643.41 0,651.41 2,651.41 "/>
<polygon class="st1" points="2,659.41 0,659.41 0,667.41 2,667.41 "/>
<polygon class="st1" points="2,675.41 0,675.41 0,683.41 2,683.41 "/>
<polygon class="st1" points="2,691.41 0,691.41 0,699.41 2,699.41 "/>
<polygon class="st1" points="2,707.41 0,707.41 0,715.41 2,715.41 "/>
<polygon class="st1" points="2,723.41 0,723.41 0,731.41 2,731.41 "/>
<polygon class="st1" points="2,739.41 0,739.41 0,747.41 2,747.41 "/>
<polygon class="st1" points="2,755.41 0,755.41 0,763.41 2,763.41 "/>
<polygon class="st1" points="2,771.41 0,771.41 0,779.41 2,779.41 "/>
<polygon class="st1" points="2,787.41 0,787.41 0,795.41 2,795.41 "/>
<polygon class="st1" points="2,803.41 0,803.41 0,811.41 2,811.41 "/>
<polygon class="st1" points="2,819.41 0,819.41 0,827.41 2,827.41 "/>
<polygon class="st1" points="2,835.41 0,835.41 0,843.41 2,843.41 "/>
<polygon class="st1" points="2,851.41 0,851.41 0,859.41 2,859.41 "/>
<polygon class="st1" points="2,867.41 0,867.41 0,875.41 2,875.41 "/>
<polygon class="st1" points="2,883.41 0,883.41 0,891.41 2,891.41 "/>
<polygon class="st1" points="2,899.41 0,899.41 0,907.41 2,907.41 "/>
<polygon class="st1" points="2,915.41 0,915.41 0,923.41 2,923.41 "/>
<polygon class="st1" points="2,931.41 0,931.41 0,939.41 2,939.41 "/>
<polygon class="st1" points="2,947.41 0,947.41 0,955.41 2,955.41 "/>
<polygon class="st1" points="2,963.41 0,963.41 0,971.41 2,971.41 "/>
<polygon class="st1" points="2,979.41 0,979.41 0,987.41 2,987.41 "/>
<polygon class="st1" points="2,995.41 0,995.41 0,1003.41 2,1003.41 "/>
<polygon class="st1" points="2,1011.41 0,1011.41 0,1019.41 2,1019.41 "/>
<polygon class="st1" points="2,1027.41 0,1027.41 0,1035.41 2,1035.41 "/>
<polygon class="st1" points="2,1043.41 0,1043.41 0,1051.41 2,1051.41 "/>
<polygon class="st1" points="2,1059.41 0,1059.41 0,1067.41 2,1067.41 "/>
<polygon class="st1" points="2,1075.41 0,1075.41 0,1083.41 2,1083.41 "/>
<polygon class="st1" points="2,1091.41 0,1091.41 0,1099.41 2,1099.41 "/>
<polygon class="st1" points="2,1107.41 0,1107.41 0,1115.41 2,1115.41 "/>
<polygon class="st1" points="2,1123.41 0,1123.41 0,1131.41 2,1131.41 "/>
<polygon class="st1" points="2,1139.41 0,1139.41 0,1147.41 2,1147.41 "/>
<polygon class="st1" points="2,1155.41 0,1155.41 0,1162.5 2,1162.5 2,1162.5 2,1162.5 2,1162.5 "/>
<polygon class="st1" points="16.91,1160.5 8.91,1160.5 8.91,1162.5 16.91,1162.5 "/>
<polygon class="st1" points="32.91,1160.5 24.91,1160.5 24.91,1162.5 32.91,1162.5 "/>
<polygon class="st1" points="48.91,1160.5 40.91,1160.5 40.91,1162.5 48.91,1162.5 "/>
<polygon class="st1" points="64.91,1160.5 56.91,1160.5 56.91,1162.5 64.91,1162.5 "/>
<polygon class="st1" points="80.91,1160.5 72.91,1160.5 72.91,1162.5 80.91,1162.5 "/>
<polygon class="st1" points="96.91,1160.5 88.91,1160.5 88.91,1162.5 96.91,1162.5 "/>
<polygon class="st1" points="112.91,1160.5 104.91,1160.5 104.91,1162.5 112.91,1162.5 "/>
<polygon class="st1" points="128.91,1160.5 120.91,1160.5 120.91,1162.5 128.91,1162.5 "/>
<polygon class="st1" points="144.91,1160.5 136.91,1160.5 136.91,1162.5 144.91,1162.5 "/>
<polygon class="st1" points="160.91,1160.5 152.91,1160.5 152.91,1162.5 160.91,1162.5 "/>
<polygon class="st1" points="176.91,1160.5 168.91,1160.5 168.91,1162.5 176.91,1162.5 "/>
<polygon class="st1" points="192.91,1160.5 184.91,1160.5 184.91,1162.5 192.91,1162.5 "/>
<polygon class="st1" points="208.91,1160.5 200.91,1160.5 200.91,1162.5 208.91,1162.5 "/>
<polygon class="st1" points="224.91,1160.5 216.91,1160.5 216.91,1162.5 224.91,1162.5 "/>
<polygon class="st1" points="240.91,1160.5 232.91,1160.5 232.91,1162.5 240.91,1162.5 "/>
<polygon class="st1" points="256.91,1160.5 248.91,1160.5 248.91,1162.5 256.91,1162.5 "/>
<polygon class="st1" points="272.91,1160.5 264.91,1160.5 264.91,1162.5 272.91,1162.5 "/>
<polygon class="st1" points="288.91,1160.5 280.91,1160.5 280.91,1162.5 288.91,1162.5 "/>
<polygon class="st1" points="300,1157.59 298,1157.59 298,1160.5 296.91,1160.5 296.91,1162.5 300,1162.5 "/>
<polygon class="st1" points="300,1141.59 298,1141.59 298,1149.59 300,1149.59 "/>
<polygon class="st1" points="300,1125.59 298,1125.59 298,1133.59 300,1133.59 "/>
<polygon class="st1" points="300,1109.59 298,1109.59 298,1117.59 300,1117.59 "/>
<polygon class="st1" points="300,1093.59 298,1093.59 298,1101.59 300,1101.59 "/>
<polygon class="st1" points="300,1077.59 298,1077.59 298,1085.59 300,1085.59 "/>
<polygon class="st1" points="300,1061.59 298,1061.59 298,1069.59 300,1069.59 "/>
<polygon class="st1" points="300,1045.59 298,1045.59 298,1053.59 300,1053.59 "/>
<polygon class="st1" points="300,1029.59 298,1029.59 298,1037.59 300,1037.59 "/>
<polygon class="st1" points="300,1013.59 298,1013.59 298,1021.59 300,1021.59 "/>
<polygon class="st1" points="300,997.59 298,997.59 298,1005.59 300,1005.59 "/>
<polygon class="st1" points="300,981.59 298,981.59 298,989.59 300,989.59 "/>
<polygon class="st1" points="300,965.59 298,965.59 298,973.59 300,973.59 "/>
<polygon class="st1" points="300,949.59 298,949.59 298,957.59 300,957.59 "/>
<polygon class="st1" points="300,933.59 298,933.59 298,941.59 300,941.59 "/>
<polygon class="st1" points="300,917.59 298,917.59 298,925.59 300,925.59 "/>
<polygon class="st1" points="300,901.59 298,901.59 298,909.59 300,909.59 "/>
<polygon class="st1" points="300,885.59 298,885.59 298,893.59 300,893.59 "/>
<polygon class="st1" points="300,869.59 298,869.59 298,877.59 300,877.59 "/>
<polygon class="st1" points="300,853.59 298,853.59 298,861.59 300,861.59 "/>
<polygon class="st1" points="300,837.59 298,837.59 298,845.59 300,845.59 "/>
<polygon class="st1" points="300,821.59 298,821.59 298,829.59 300,829.59 "/>
<polygon class="st1" points="300,805.59 298,805.59 298,813.59 300,813.59 "/>
<polygon class="st1" points="300,789.59 298,789.59 298,797.59 300,797.59 "/>
<polygon class="st1" points="300,773.59 298,773.59 298,781.59 300,781.59 "/>
<polygon class="st1" points="300,757.59 298,757.59 298,765.59 300,765.59 "/>
<polygon class="st1" points="300,741.59 298,741.59 298,749.59 300,749.59 "/>
<polygon class="st1" points="300,725.59 298,725.59 298,733.59 300,733.59 "/>
<polygon class="st1" points="300,709.59 298,709.59 298,717.59 300,717.59 "/>
<polygon class="st1" points="300,693.59 298,693.59 298,701.59 300,701.59 "/>
<polygon class="st1" points="300,677.59 298,677.59 298,685.59 300,685.59 "/>
<polygon class="st1" points="300,661.59 298,661.59 298,669.59 300,669.59 "/>
<polygon class="st1" points="300,645.59 298,645.59 298,653.59 300,653.59 "/>
<polygon class="st1" points="300,629.59 298,629.59 298,637.59 300,637.59 "/>
<polygon class="st1" points="300,613.59 298,613.59 298,621.59 300,621.59 "/>
<polygon class="st1" points="300,597.59 298,597.59 298,605.59 300,605.59 "/>
<polygon class="st1" points="300,581.59 298,581.59 298,589.59 300,589.59 "/>
<polygon class="st1" points="300,565.59 298,565.59 298,573.59 300,573.59 "/>
<polygon class="st1" points="300,549.59 298,549.59 298,557.59 300,557.59 "/>
<polygon class="st1" points="300,533.59 298,533.59 298,541.59 300,541.59 "/>
<polygon class="st1" points="300,517.59 298,517.59 298,525.59 300,525.59 "/>
<polygon class="st1" points="300,501.59 298,501.59 298,509.59 300,509.59 "/>
<polygon class="st1" points="300,485.59 298,485.59 298,493.59 300,493.59 "/>
<polygon class="st1" points="300,469.59 298,469.59 298,477.59 300,477.59 "/>
<polygon class="st1" points="300,453.59 298,453.59 298,461.59 300,461.59 "/>
<polygon class="st1" points="300,437.59 298,437.59 298,445.59 300,445.59 "/>
<polygon class="st1" points="300,421.59 298,421.59 298,429.59 300,429.59 "/>
<polygon class="st1" points="300,405.59 298,405.59 298,413.59 300,413.59 "/>
<polygon class="st1" points="300,389.59 298,389.59 298,397.59 300,397.59 "/>
<polygon class="st1" points="300,373.59 298,373.59 298,381.59 300,381.59 "/>
<polygon class="st1" points="300,357.59 298,357.59 298,365.59 300,365.59 "/>
<polygon class="st1" points="300,341.59 298,341.59 298,349.59 300,349.59 "/>
<polygon class="st1" points="300,325.59 298,325.59 298,333.59 300,333.59 "/>
<polygon class="st1" points="300,309.59 298,309.59 298,317.59 300,317.59 "/>
<polygon class="st1" points="300,293.59 298,293.59 298,301.59 300,301.59 "/>
<polygon class="st1" points="300,277.59 298,277.59 298,285.59 300,285.59 "/>
<polygon class="st1" points="300,261.59 298,261.59 298,269.59 300,269.59 "/>
<polygon class="st1" points="300,245.59 298,245.59 298,253.59 300,253.59 "/>
<polygon class="st1" points="300,229.59 298,229.59 298,237.59 300,237.59 "/>
<polygon class="st1" points="300,213.59 298,213.59 298,221.59 300,221.59 "/>
<polygon class="st1" points="300,197.59 298,197.59 298,205.59 300,205.59 "/>
<polygon class="st1" points="300,181.59 298,181.59 298,189.59 300,189.59 "/>
<polygon class="st1" points="300,165.59 298,165.59 298,173.59 300,173.59 "/>
<polygon class="st1" points="300,149.59 298,149.59 298,157.59 300,157.59 "/>
<polygon class="st1" points="300,133.59 298,133.59 298,141.59 300,141.59 "/>
<polygon class="st1" points="300,117.59 298,117.59 298,125.59 300,125.59 "/>
<polygon class="st1" points="300,101.59 298,101.59 298,109.59 300,109.59 "/>
<polygon class="st1" points="300,85.59 298,85.59 298,93.59 300,93.59 "/>
<polygon class="st1" points="300,69.59 298,69.59 298,77.59 300,77.59 "/>
<polygon class="st1" points="300,53.59 298,53.59 298,61.59 300,61.59 "/>
<polygon class="st1" points="300,37.59 298,37.59 298,45.59 300,45.59 "/>
<polygon class="st1" points="300,21.59 298,21.59 298,29.59 300,29.59 "/>
<path id="Path_2420_1_" class="st2" d="M123.27,87.98c0,0-6.83,3.78-8.17-1.29V76.27l7.89-5.74L123.27,87.98z"/>
<path id="Path_2421_1_" class="st3" d="M123.04,70.66l8.29,5.59l0.15,10.2c0,0,0.09,3.98-4.74,2.52L123.04,70.66z"/>
<path id="Path_2422_1_" class="st4" d="M126.74,88.96V74.88l-3.75-4.35l0.15,17.29C123.14,87.82,123.6,90.49,126.74,88.96z"/>
<linearGradient id="Path_2425_2_" gradientUnits="userSpaceOnUse" x1="-1683.0294" y1="3143.7104" x2="-1681.5443" y2="3143.7104" gradientTransform="matrix(3.019 0 0 -15.721 5202.0762 49482.9531)">
	<stop  offset="0" style="stop-color:#951A1D"/>
	<stop  offset="0.536" style="stop-color:#EE3F40"/>
	<stop  offset="1" style="stop-color:#941A1D"/>
</linearGradient>
<path id="Path_2425_1_" class="st5" d="M121.01,49.05h4.38l0.11,23.27l-2.41-1.57l-2.07,1.23L121.01,49.05L121.01,49.05z"/>
<linearGradient id="Path_2424_2_" gradientUnits="userSpaceOnUse" x1="-922.1433" y1="3264.1875" x2="-920.7814" y2="3264.1875" gradientTransform="matrix(1.25 0 0 -6.807 1274.926 22251.8945)">
	<stop  offset="0" style="stop-color:#373737"/>
	<stop  offset="0.536" style="stop-color:#F8FBFC"/>
	<stop  offset="1" style="stop-color:#393939"/>
</linearGradient>
<path id="Path_2424_1_" class="st6" d="M122.25,37.61l0.95-10.08l0.91,10.08H122.25z"/>
<linearGradient id="Path_2423_2_" gradientUnits="userSpaceOnUse" x1="-1665.1843" y1="3218.1077" x2="-1663.699" y2="3218.1077" gradientTransform="matrix(2.922 0 0 -8.6841 4986.7031 27988.9941)">
	<stop  offset="0" style="stop-color:#373737"/>
	<stop  offset="0.536" style="stop-color:#FFFFFF"/>
	<stop  offset="1" style="stop-color:#393939"/>
</linearGradient>
<path id="Path_2423_1_" class="st7" d="M121.04,49.05V38.58c0,0,0.3-2.27,2-2.38c0,0,2.28-0.07,2.34,2.8v10.05H121.04z"/>
<path id="Path_2426_1_" class="st8" d="M121.02,41.44h4.36v0.19h-4.36V41.44z"/>
<path id="Path_2427_1_" class="st8" d="M121.02,42.92h4.36v0.19h-4.36V42.92z"/>
<path id="Path_2428_1_" class="st8" d="M121.02,44.41h4.36v0.19h-4.36V44.41z"/>
<path id="Path_2420-2_1_" class="st9" d="M178.23,72.75c0,0-5.36,2.96-6.41-1.01v-8.18l6.19-4.51L178.23,72.75z"/>
<path id="Path_2421-2_1_" class="st10" d="M178.05,59.16l6.5,4.39l0.12,8.01c0,0,0.07,3.13-3.72,1.97L178.05,59.16z"/>
<path id="Path_2422-2_1_" class="st11" d="M180.95,73.53V62.47l-2.94-3.4l0.12,13.57C178.13,72.64,178.49,74.72,180.95,73.53z"/>
<linearGradient id="Path_2425-2_2_" gradientUnits="userSpaceOnUse" x1="-1566.1139" y1="3170.3938" x2="-1564.6281" y2="3170.3938" gradientTransform="matrix(2.369 0 0 -12.339 3886.5771 39170.8164)">
	<stop  offset="0" style="stop-color:#334EA1"/>
	<stop  offset="0.536" style="stop-color:#4481C2"/>
	<stop  offset="1" style="stop-color:#334EA1"/>
</linearGradient>
<path id="Path_2425-2_1_" class="st12" d="M176.46,42.2h3.44l0.08,18.26l-1.89-1.23l-1.62,0.97v-18H176.46z"/>
<linearGradient id="Path_2424-2_2_" gradientUnits="userSpaceOnUse" x1="-582.5386" y1="3323.8813" x2="-581.1766" y2="3323.8813" gradientTransform="matrix(0.979 0 0 -5.342 747.7308 17785.4395)">
	<stop  offset="0" style="stop-color:#373737"/>
	<stop  offset="0.536" style="stop-color:#F8FBFC"/>
	<stop  offset="1" style="stop-color:#393939"/>
</linearGradient>
<path id="Path_2424-2_1_" class="st13" d="M177.43,33.22l0.74-7.91l0.71,7.91H177.43z"/>
<linearGradient id="Path_2423-2_2_" gradientUnits="userSpaceOnUse" x1="-1543.4719" y1="3265.186" x2="-1541.9854" y2="3265.186" gradientTransform="matrix(2.294 0 0 -6.8161 3717.2114 22292.9902)">
	<stop  offset="0" style="stop-color:#373737"/>
	<stop  offset="0.536" style="stop-color:#FFFFFF"/>
	<stop  offset="1" style="stop-color:#393939"/>
</linearGradient>
<path id="Path_2423-2_1_" class="st14" d="M176.48,42.2v-8.22c0,0,0.23-1.78,1.57-1.87c0,0,1.78-0.05,1.84,2.2v7.89H176.48z"/>
<path id="Path_2426-2_1_" class="st8" d="M176.46,36.23h3.42v0.15h-3.42V36.23z"/>
<path id="Path_2427-2_1_" class="st8" d="M176.46,37.39h3.42v0.15h-3.42V37.39z"/>
<path id="Path_2428-2_1_" class="st8" d="M176.46,38.55h3.42v0.15h-3.42V38.55z"/>
<path id="Path_2420-3_1_" class="st15" d="M152.98,61.44c0,0-4.11,2.28-4.92-0.78v-6.27l4.75-3.46L152.98,61.44z"/>
<path id="Path_2421-3_1_" class="st16" d="M152.84,51.01l4.99,3.37l0.09,6.14c0,0,0.06,2.4-2.85,1.51L152.84,51.01z"/>
<path id="Path_2422-3_1_" class="st17" d="M155.06,62.03v-8.48l-2.26-2.62l0.09,10.41C152.9,61.34,153.17,62.95,155.06,62.03z"/>
<linearGradient id="Path_2425-3_2_" gradientUnits="userSpaceOnUse" x1="-1344.198" y1="3206.0574" x2="-1342.712" y2="3206.0574" gradientTransform="matrix(1.817 0 0 -9.465 2594.0278 30390.3398)">
	<stop  offset="0" style="stop-color:#0B783D"/>
	<stop  offset="0.536" style="stop-color:#5AB947"/>
	<stop  offset="1" style="stop-color:#0A783D"/>
</linearGradient>
<path id="Path_2425-3_1_" class="st18" d="M151.62,38h2.64l0.06,14.01l-1.45-0.94l-1.25,0.74V38z"/>
<linearGradient id="Path_2424-3_2_" gradientUnits="userSpaceOnUse" x1="-71.5199" y1="3405.8318" x2="-70.1581" y2="3405.8318" gradientTransform="matrix(0.752 0 0 -4.1 206.147 13991.9844)">
	<stop  offset="0" style="stop-color:#373737"/>
	<stop  offset="0.536" style="stop-color:#F8FBFC"/>
	<stop  offset="1" style="stop-color:#393939"/>
</linearGradient>
<path id="Path_2424-3_1_" class="st19" d="M152.36,31.11l0.57-6.07l0.55,6.07H152.36z"/>
<linearGradient id="Path_2423-3_2_" gradientUnits="userSpaceOnUse" x1="-1314.5713" y1="3329.5994" x2="-1313.0875" y2="3329.5994" gradientTransform="matrix(1.759 0 0 -5.2281 2463.9734 17441.6133)">
	<stop  offset="0" style="stop-color:#373737"/>
	<stop  offset="0.536" style="stop-color:#FFFFFF"/>
	<stop  offset="1" style="stop-color:#393939"/>
</linearGradient>
<path id="Path_2423-3_1_" class="st20" d="M151.63,38v-6.3c0,0,0.18-1.37,1.2-1.43c0,0,1.37-0.04,1.41,1.68V38H151.63z"/>
<path id="Path_2426-3_1_" class="st8" d="M151.62,33.42h2.63v0.11h-2.63V33.42z"/>
<path id="Path_2427-3_1_" class="st8" d="M151.62,34.31h2.63v0.11h-2.63V34.31z"/>
<path id="Path_2428-3_1_" class="st8" d="M151.62,35.2h2.63v0.11h-2.63V35.2z"/>
<linearGradient id="Rectangle_20147_2_" gradientUnits="userSpaceOnUse" x1="38.9275" y1="3577.9988" x2="40.4127" y2="3577.9988" gradientTransform="matrix(146.688 0 0 -18.626 -5670.1011 66657.5859)">
	<stop  offset="0" style="stop-color:#282929"/>
	<stop  offset="0.159" style="stop-color:#545554"/>
	<stop  offset="0.409" style="stop-color:#D9D9D8"/>
	<stop  offset="0.633" style="stop-color:#CECECD"/>
	<stop  offset="0.857" style="stop-color:#464646"/>
	<stop  offset="1" style="stop-color:#3E3E3E"/>
</linearGradient>
<rect id="Rectangle_20147_1_" x="40.1" class="st21" width="217.85" height="27.57"/>
</svg>
