<?xml version="1.0" encoding="utf-8"?>
<!-- Generator: Adobe Illustrator 24.2.3, SVG Export Plug-In . SVG Version: 6.00 Build 0)  -->
<svg version="1.1" id="Layer_1" xmlns="http://www.w3.org/2000/svg" xmlns:xlink="http://www.w3.org/1999/xlink" x="0px" y="0px"
	 viewBox="0 0 300 85.7" style="enable-background:new 0 0 300 85.7;" xml:space="preserve">
<style type="text/css">
	.st0{fill:url(#Rectangle_24848_1_);}
	.st1{fill:url(#Rectangle_24849_1_);}
	.st2{fill:url(#Rectangle_24858_1_);}
	.st3{fill:url(#Rectangle_24857_1_);}
	.st4{fill:#202020;}
	.st5{fill:url(#Path_10393_1_);}
	.st6{fill:url(#Path_10423_1_);}
	.st7{fill:#383838;}
	.st8{fill:url(#Rectangle_24858-2_1_);}
	.st9{fill:url(#Rectangle_24857-2_1_);}
	.st10{fill:url(#Rectangle_24850_1_);}
	.st11{fill:url(#Rectangle_24851_1_);}
	.st12{fill:url(#Rectangle_24852_1_);}
	.st13{fill:url(#Path_10397_1_);}
	.st14{fill:url(#Path_10398_1_);}
	.st15{fill:#010101;}
	.st16{fill:#DCDCDC;}
	.st17{fill:#C4C4C4;}
	.st18{fill:#E0DFDF;}
	.st19{fill:#3E3E3E;}
	.st20{fill:#40403F;}
	.st21{fill:url(#Path_10405_1_);}
	.st22{fill:url(#Path_10425_1_);}
	.st23{fill:#6D6D6D;}
	.st24{fill:url(#Rectangle_24856_1_);}
	.st25{fill:#F2F2F3;}
	.st26{fill:#F0EFEF;}
	.st27{fill:url(#Rectangle_24858-3_1_);}
	.st28{fill:url(#Rectangle_24857-3_1_);}
	.st29{fill:url(#Rectangle_24858-4_1_);}
	.st30{fill:url(#Rectangle_24857-4_1_);}
	.st31{fill:url(#Rectangle_24858-5_1_);}
	.st32{fill:url(#Rectangle_24857-5_1_);}
	.st33{fill:url(#Rectangle_24858-6_1_);}
	.st34{fill:url(#Rectangle_24857-6_1_);}
	.st35{fill:url(#Rectangle_24858-7_1_);}
	.st36{fill:url(#Rectangle_24857-7_1_);}
	.st37{fill:url(#Rectangle_24858-8_1_);}
	.st38{fill:url(#Rectangle_24857-8_1_);}
	.st39{fill:url(#Path_10410_1_);}
	.st40{fill:url(#Path_10411_1_);}
	.st41{fill:#2F302A;}
	.st42{fill:url(#Path_10413_1_);}
	.st43{fill:#E7E7E7;}
	.st44{fill:url(#Path_10415_1_);}
	.st45{fill:url(#Path_10416_1_);}
	.st46{fill:#171717;}
	.st47{fill:#2E2F29;}
	.st48{fill:#595549;}
	.st49{fill:#7A7A7A;}
	.st50{fill:#ACACAC;}
	.st51{fill:#C3C3C3;}
	.st52{fill:url(#Rectangle_24877_1_);}
	.st53{fill:url(#Rectangle_24848-2_1_);}
	.st54{fill:url(#Rectangle_24849-2_1_);}
	.st55{fill:url(#Rectangle_24858-9_1_);}
	.st56{fill:url(#Rectangle_24857-9_1_);}
	.st57{fill:url(#Path_10393-2_1_);}
	.st58{fill:url(#Path_10423-2_1_);}
	.st59{fill:url(#Rectangle_24858-10_1_);}
	.st60{fill:url(#Rectangle_24857-10_1_);}
	.st61{fill:url(#Rectangle_24850-2_1_);}
	.st62{fill:url(#Rectangle_24851-2_1_);}
	.st63{fill:url(#Path_10405-2_1_);}
	.st64{fill:url(#Path_10425-2_1_);}
	.st65{fill:url(#Rectangle_24856-2_1_);}
	.st66{fill:url(#Rectangle_24858-13_1_);}
	.st67{fill:url(#Rectangle_24857-13_1_);}
	.st68{fill:url(#Rectangle_24858-14_1_);}
	.st69{fill:url(#Rectangle_24857-14_1_);}
	.st70{fill:url(#Rectangle_24858-15_1_);}
	.st71{fill:url(#Rectangle_24857-15_1_);}
	.st72{fill:url(#Rectangle_24858-16_1_);}
	.st73{fill:url(#Rectangle_24857-16_1_);}
	.st74{fill:url(#Path_10416-2_1_);}
	.st75{fill:url(#SVGID_1_);}
</style>
<g id="Group_6617" transform="translate(-2533 -1385)">
	<g id="Group_6615" transform="translate(3801.405 1301.226) rotate(90)">
		
			<radialGradient id="Rectangle_24848_1_" cx="1468.2944" cy="5623.1865" r="0.274" gradientTransform="matrix(99.0018 -77.2208 -96.0777 -82.5817 395025.875 578840.1875)" gradientUnits="userSpaceOnUse">
			<stop  offset="0" style="stop-color:#B9BABC"/>
			<stop  offset="1" style="stop-color:#111111"/>
		</radialGradient>
		<path id="Rectangle_24848" class="st0" d="M117.2,1060.1h19.2c3.2,0,5.8,2.6,5.8,5.8v37.8c0,3.2-2.6,5.8-5.8,5.8h-19.2
			c-3.2,0-5.8-2.6-5.8-5.8v-37.8C111.4,1062.7,114,1060.1,117.2,1060.1z"/>
		
			<radialGradient id="Rectangle_24849_1_" cx="1469.8817" cy="5588.2158" r="0.3705" gradientTransform="matrix(-90.7349 -67.1346 -86.6512 74.8887 617721.75 -318729.6563)" gradientUnits="userSpaceOnUse">
			<stop  offset="0" style="stop-color:#0990CE"/>
			<stop  offset="1" style="stop-color:#004868"/>
		</radialGradient>
		<path id="Rectangle_24849" class="st1" d="M117.6,1061.4h18.5c2.7,0,4.9,2.2,4.9,4.9v36.9c0,2.7-2.2,4.9-4.9,4.9h-18.5
			c-2.7,0-4.9-2.2-4.9-4.9v-36.9C112.7,1063.6,114.9,1061.4,117.6,1061.4z"/>
		<g id="Group_6462" transform="translate(257.174 625.817)">
			
				<linearGradient id="Rectangle_24858_1_" gradientUnits="userSpaceOnUse" x1="1895.5912" y1="4932.6719" x2="1895.5912" y2="4932.4502" gradientTransform="matrix(0 -3.632 -1.961 0 9536.8936 7351.0884)">
				<stop  offset="0" style="stop-color:#BCBEC0"/>
				<stop  offset="0.134" style="stop-color:#939598"/>
				<stop  offset="0.514" style="stop-color:#FFFFFF"/>
				<stop  offset="1" style="stop-color:#939598"/>
			</linearGradient>
			
				<rect id="Rectangle_24858" x="-136.5" y="465.7" transform="matrix(2.535182e-06 1 -1 2.535182e-06 329.8235 601.9723)" class="st2" width="0.8" height="0.4"/>
			
				<linearGradient id="Rectangle_24857_1_" gradientUnits="userSpaceOnUse" x1="1560.0662" y1="4958.981" x2="1560.0662" y2="4958.7593" gradientTransform="matrix(0 -6.97 -4.215 0 20766.543 11340.332)">
				<stop  offset="0" style="stop-color:#BCBEC0"/>
				<stop  offset="0.134" style="stop-color:#939598"/>
				<stop  offset="0.514" style="stop-color:#FFFFFF"/>
				<stop  offset="1" style="stop-color:#939598"/>
			</linearGradient>
			
				<rect id="Rectangle_24857" x="-136.3" y="465.4" transform="matrix(2.535182e-06 1 -1 2.535182e-06 330.3348 601.461)" class="st3" width="1.5" height="0.9"/>
		</g>
		<path id="Path_10407" class="st4" d="M117.9,1005.6h17.7l-1.1,3.3h-15.2L117.9,1005.6z"/>
		
			<linearGradient id="Path_10393_1_" gradientUnits="userSpaceOnUse" x1="1515.8297" y1="5605.8467" x2="1516.024" y2="5605.6499" gradientTransform="matrix(0 -41.1504 -111.8877 0 627323.5625 63493.4258)">
			<stop  offset="0" style="stop-color:#BCBEC0"/>
			<stop  offset="0.132" style="stop-color:#939598"/>
			<stop  offset="0.558" style="stop-color:#E2E2E2"/>
			<stop  offset="0.724" style="stop-color:#CBCBCA"/>
			<stop  offset="1" style="stop-color:#575757"/>
		</linearGradient>
		<path id="Path_10393" class="st5" d="M100.4,1115.8l7.8-5.8c0,0,2.6-1.6,5.8-1.3l9.1-0.4l0.1,1.7l-9.5,0.4c0,0-2.9,0.1-5.2,1.5
			l-6.8,5.3c0,0-0.6,0.5-1-0.1l-0.4-0.7C100.2,1116.2,100.2,1115.9,100.4,1115.8z"/>
		
			<linearGradient id="Path_10423_1_" gradientUnits="userSpaceOnUse" x1="1515.8297" y1="5606.6167" x2="1515.6355" y2="5606.4194" gradientTransform="matrix(0 -41.1504 -111.8894 0 627476.125 63493.4258)">
			<stop  offset="0" style="stop-color:#BCBEC0"/>
			<stop  offset="0.132" style="stop-color:#939598"/>
			<stop  offset="0.558" style="stop-color:#E2E2E2"/>
			<stop  offset="0.724" style="stop-color:#CBCBCA"/>
			<stop  offset="1" style="stop-color:#575757"/>
		</linearGradient>
		<path id="Path_10423" class="st6" d="M153.1,1115.8l-7.8-5.8c0,0-2.6-1.6-5.8-1.3l-9.1-0.4l-0.1,1.7l9.5,0.4c0,0,2.9,0.1,5.2,1.5
			l6.8,5.3c0,0,0.6,0.5,1-0.1l0.4-0.7C153.4,1116.2,153.3,1115.9,153.1,1115.8z"/>
		<path id="Path_10395" class="st7" d="M108.4,1099.7l-0.2,2.5h2.7l0.2-2.8L108.4,1099.7z"/>
		<path id="Path_10396" class="st7" d="M145.3,1099.7l0.2,2.5h-2.7l-0.2-2.8L145.3,1099.7z"/>
		<g id="Group_6461" transform="translate(304.175 625.817)">
			
				<linearGradient id="Rectangle_24858-2_1_" gradientUnits="userSpaceOnUse" x1="1848.5902" y1="4952.2026" x2="1848.5902" y2="4951.981" gradientTransform="matrix(0 -3.632 -1.961 0 9539.2969 7180.3809)">
				<stop  offset="0" style="stop-color:#BCBEC0"/>
				<stop  offset="0.134" style="stop-color:#939598"/>
				<stop  offset="0.514" style="stop-color:#FFFFFF"/>
				<stop  offset="1" style="stop-color:#939598"/>
			</linearGradient>
			
				<rect id="Rectangle_24858-2" x="-172.4" y="465.7" transform="matrix(2.535182e-06 1 -1 2.535182e-06 293.9263 637.8696)" class="st8" width="0.8" height="0.4"/>
			
				<linearGradient id="Rectangle_24857-2_1_" gradientUnits="userSpaceOnUse" x1="1513.0652" y1="4967.231" x2="1513.0652" y2="4967.0088" gradientTransform="matrix(0 -6.97 -4.215 0 20764.3945 11012.7354)">
				<stop  offset="0" style="stop-color:#BCBEC0"/>
				<stop  offset="0.134" style="stop-color:#939598"/>
				<stop  offset="0.514" style="stop-color:#FFFFFF"/>
				<stop  offset="1" style="stop-color:#939598"/>
			</linearGradient>
			
				<rect id="Rectangle_24857-2" x="-173.3" y="465.4" transform="matrix(2.535182e-06 1 -1 2.535182e-06 293.4147 638.3812)" class="st9" width="1.5" height="0.9"/>
		</g>
		
			<linearGradient id="Rectangle_24850_1_" gradientUnits="userSpaceOnUse" x1="1614.6881" y1="5605.9121" x2="1614.6881" y2="5605.6899" gradientTransform="matrix(0 -15.795 -136.257 0 763954.1875 26603.875)">
			<stop  offset="0" style="stop-color:#BCBEC0"/>
			<stop  offset="0.134" style="stop-color:#939598"/>
			<stop  offset="0.514" style="stop-color:#FFFFFF"/>
			<stop  offset="1" style="stop-color:#939598"/>
		</linearGradient>
		<path id="Rectangle_24850" class="st10" d="M95.4,1096.4h27.9c0.7,0,1.3,0.6,1.3,1.3v0.8c0,0.7-0.6,1.3-1.3,1.3H95.4
			c-0.7,0-1.3-0.6-1.3-1.3v-0.8C94.1,1097,94.7,1096.4,95.4,1096.4z"/>
		
			<linearGradient id="Rectangle_24851_1_" gradientUnits="userSpaceOnUse" x1="1614.6881" y1="5606.792" x2="1614.6881" y2="5606.5703" gradientTransform="matrix(0 -15.795 -136.257 0 764108.8125 26603.875)">
			<stop  offset="0" style="stop-color:#BCBEC0"/>
			<stop  offset="0.134" style="stop-color:#939598"/>
			<stop  offset="0.514" style="stop-color:#FFFFFF"/>
			<stop  offset="1" style="stop-color:#939598"/>
		</linearGradient>
		<path id="Rectangle_24851" class="st11" d="M130.2,1096.4h27.9c0.7,0,1.3,0.6,1.3,1.3v0.8c0,0.7-0.6,1.3-1.3,1.3h-27.9
			c-0.7,0-1.3-0.6-1.3-1.3v-0.8C128.8,1097,129.4,1096.4,130.2,1096.4z"/>
		
			<linearGradient id="Rectangle_24852_1_" gradientUnits="userSpaceOnUse" x1="1738.7511" y1="5606.3091" x2="1738.7511" y2="5606.0874" gradientTransform="matrix(0 -8.735 -125.859 0 705731.3125 16236.8359)">
			<stop  offset="0" style="stop-color:#292929"/>
			<stop  offset="0.514" style="stop-color:#9C9C9E"/>
			<stop  offset="1" style="stop-color:#151515"/>
		</linearGradient>
		
			<rect id="Rectangle_24852" x="125.9" y="1033.7" transform="matrix(2.535182e-06 1 -1 2.535182e-06 1174.7542 920.9965)" class="st12" width="1.9" height="28.3"/>
		
			<linearGradient id="Path_10397_1_" gradientUnits="userSpaceOnUse" x1="1562.4615" y1="5606.0269" x2="1562.4615" y2="5606.4102" gradientTransform="matrix(0 -22.937 -47.309 0 265352.0313 36889.6523)">
			<stop  offset="0" style="stop-color:#006D9C"/>
			<stop  offset="1" style="stop-color:#00364E"/>
		</linearGradient>
		<path id="Path_10397" class="st13" d="M131.4,1056.5c0,0,10.4-0.2,10.5-2.1l-4.6-2.9l-4.8,0.2l-1.2,0.9L131.4,1056.5z"/>
		
			<linearGradient id="Path_10398_1_" gradientUnits="userSpaceOnUse" x1="1571.2094" y1="5604.5742" x2="1571.2094" y2="5604.9575" gradientTransform="matrix(0 -21.2468 -46.565 0 261094.1719 34434.8008)">
			<stop  offset="0" style="stop-color:#006D9C"/>
			<stop  offset="1" style="stop-color:#00364E"/>
		</linearGradient>
		<path id="Path_10398" class="st14" d="M111.9,1054.1c0,0,0,1.1,2.2,1.6c2.1,0.5,3,0.6,8.2,0.5v-3.5l-5.7-1.2L111.9,1054.1z"/>
		<path id="Path_10399" class="st15" d="M113.9,1005.6h25.7l-1.6-7.4h-22.1L113.9,1005.6z"/>
		<path id="Path_10401" class="st16" d="M104.9,991.9v0.4h-4.7l0-3.1h4.4v-0.6h-5.3l-0.1,4.5h6.6l-0.1-1.3L104.9,991.9z"/>
		
			<rect id="Rectangle_24853" x="120.7" y="972.4" transform="matrix(2.535182e-06 1 -1 2.535182e-06 1100.9681 847.6592)" class="st17" width="11.8" height="3.9"/>
		
			<rect id="Rectangle_24854" x="123.2" y="969.9" transform="matrix(2.535182e-06 1 -1 2.535182e-06 1098.472 845.1631)" class="st18" width="6.8" height="3.9"/>
		
			<rect id="Rectangle_24855" x="126.3" y="973.5" transform="matrix(2.535182e-06 1 -1 2.535182e-06 1102.1306 848.8217)" class="st19" width="0.8" height="3.9"/>
		<path id="Path_10404" class="st20" d="M100.1,992l4.7,0c0.4-0.2,0.8-0.3,1.3-0.2v-0.4l-4.7-0.4l-1.3,0.6V992z"/>
		
			<linearGradient id="Path_10405_1_" gradientUnits="userSpaceOnUse" x1="1612.3104" y1="5601.3564" x2="1612.5231" y2="5601.3438" gradientTransform="matrix(0 -14.692 -27.7011 0 155263.9688 24678.5449)">
			<stop  offset="0" style="stop-color:#686868"/>
			<stop  offset="0.197" style="stop-color:#939598"/>
			<stop  offset="0.265" style="stop-color:#B9BABC"/>
			<stop  offset="0.532" style="stop-color:#FFFFFF"/>
			<stop  offset="1" style="stop-color:#939598"/>
		</linearGradient>
		<path id="Path_10405" class="st21" d="M106.3,988.8c0,0-3,0.1-3.9,0.1c-0.6,0-1.6-0.1-2.3,0.4l0,2.8c0,0,0-0.5,2.3-0.7l4,0.1
			C106.3,991.4,106.1,989.5,106.3,988.8z"/>
		<g id="Group_6463" transform="translate(371.53 326.327)">
			<path id="Path_10424" class="st16" d="M-223.7,665.6v0.4h4.7l0-3.1h-4.4v-0.6h5.3l0.1,4.5h-6.6l0.1-1.3L-223.7,665.6z"/>
			<path id="Path_10426" class="st20" d="M-219,665.7l-4.7,0c-0.4-0.2-0.8-0.3-1.3-0.2v-0.4l4.7-0.4l1.3,0.6V665.7z"/>
			
				<linearGradient id="Path_10425_1_" gradientUnits="userSpaceOnUse" x1="1240.7804" y1="5280.5767" x2="1240.5676" y2="5280.564" gradientTransform="matrix(0 -14.692 -27.7011 0 146058.5625 18893.7031)">
				<stop  offset="0" style="stop-color:#686868"/>
				<stop  offset="0.197" style="stop-color:#939598"/>
				<stop  offset="0.265" style="stop-color:#B9BABC"/>
				<stop  offset="0.532" style="stop-color:#FFFFFF"/>
				<stop  offset="1" style="stop-color:#939598"/>
			</linearGradient>
			<path id="Path_10425" class="st22" d="M-225.2,662.5c0,0,3,0.1,3.9,0.1c0.6,0,1.6-0.1,2.3,0.4l0,2.8c0,0,0-0.5-2.3-0.7l-4,0.1
				C-225.2,665.1-225,663.1-225.2,662.5z"/>
		</g>
		<path id="Path_10406" class="st23" d="M109.1,998.1c0,0,4.2,6.8,5.8,9c0.8,1.2,1.9,2.8,5.2,3l-3.4-8.8l19.9,0l-3.1,8.8
			c2.4,0,4.5-1.2,5.8-3.2l5.3-9.4L109.1,998.1z"/>
		
			<linearGradient id="Rectangle_24856_1_" gradientUnits="userSpaceOnUse" x1="1459.2771" y1="5604.77" x2="1459.2771" y2="5605.1235" gradientTransform="matrix(0 -369.303 -35.368 0 198356.25 539903.8125)">
			<stop  offset="0" style="stop-color:#BCBEC0"/>
			<stop  offset="4.800000e-02" style="stop-color:#B8B9B9"/>
			<stop  offset="0.11" style="stop-color:#939598"/>
			<stop  offset="0.533" style="stop-color:#CBCBCA"/>
			<stop  offset="0.969" style="stop-color:#939598"/>
			<stop  offset="1" style="stop-color:#7E7E7E"/>
		</linearGradient>
		
			<rect id="Rectangle_24856" x="67.8" y="1056.1" transform="matrix(2.535182e-06 1 -1 2.535182e-06 1186.8007 933.3295)" class="st24" width="117.9" height="7.9"/>
		<path id="Path_10408" class="st25" d="M122.1,1001.1l-0.2,111.1h0.9l0.1-111.1L122.1,1001.1z"/>
		<path id="Path_10409" class="st26" d="M130.6,1000.9l0,111.3h0.7l0.1-111.1L130.6,1000.9z"/>
		<g>
			<g id="Group_6447" transform="translate(257.174 468.817)">
				
					<linearGradient id="Rectangle_24858-3_1_" gradientUnits="userSpaceOnUse" x1="1872.9509" y1="5089.6719" x2="1872.9509" y2="5089.4502" gradientTransform="matrix(0 -3.632 -1.961 0 9844.7705 7351.0884)">
					<stop  offset="0" style="stop-color:#BCBEC0"/>
					<stop  offset="0.134" style="stop-color:#939598"/>
					<stop  offset="0.514" style="stop-color:#FFFFFF"/>
					<stop  offset="1" style="stop-color:#939598"/>
				</linearGradient>
				
					<rect id="Rectangle_24858-3" x="-136.5" y="547.9" transform="matrix(2.535182e-06 1 -1 2.535182e-06 412.053 684.2016)" class="st27" width="0.8" height="0.4"/>
				
					<linearGradient id="Rectangle_24857-3_1_" gradientUnits="userSpaceOnUse" x1="1548.2686" y1="5115.981" x2="1548.2686" y2="5115.7593" gradientTransform="matrix(0 -6.97 -4.215 0 21428.2969 11340.332)">
					<stop  offset="0" style="stop-color:#BCBEC0"/>
					<stop  offset="0.134" style="stop-color:#939598"/>
					<stop  offset="0.514" style="stop-color:#FFFFFF"/>
					<stop  offset="1" style="stop-color:#939598"/>
				</linearGradient>
				
					<rect id="Rectangle_24857-3" x="-136.3" y="547.7" transform="matrix(2.535182e-06 1 -1 2.535182e-06 412.5643 683.6903)" class="st28" width="1.5" height="0.9"/>
			</g>
			<g id="Group_6458" transform="translate(305.175 468.816)">
				
					<linearGradient id="Rectangle_24858-4_1_" gradientUnits="userSpaceOnUse" x1="1824.9497" y1="5109.5991" x2="1824.9497" y2="5109.3774" gradientTransform="matrix(0 -3.632 -1.961 0 9847.1758 7176.7485)">
					<stop  offset="0" style="stop-color:#BCBEC0"/>
					<stop  offset="0.134" style="stop-color:#939598"/>
					<stop  offset="0.514" style="stop-color:#FFFFFF"/>
					<stop  offset="1" style="stop-color:#939598"/>
				</linearGradient>
				
					<rect id="Rectangle_24858-4" x="-173.2" y="547.9" transform="matrix(2.535182e-06 1 -1 2.535182e-06 375.3813 720.8749)" class="st29" width="0.8" height="0.4"/>
				
					<linearGradient id="Rectangle_24857-4_1_" gradientUnits="userSpaceOnUse" x1="1500.2675" y1="5124.4155" x2="1500.2675" y2="5124.1938" gradientTransform="matrix(0 -6.97 -4.215 0 21426.1543 11005.7656)">
					<stop  offset="0" style="stop-color:#BCBEC0"/>
					<stop  offset="0.134" style="stop-color:#939598"/>
					<stop  offset="0.514" style="stop-color:#FFFFFF"/>
					<stop  offset="1" style="stop-color:#939598"/>
				</linearGradient>
				
					<rect id="Rectangle_24857-4" x="-174" y="547.7" transform="matrix(2.535182e-06 1 -1 2.535182e-06 374.8698 721.3865)" class="st30" width="1.5" height="0.9"/>
			</g>
			<g id="Group_6456" transform="translate(257.174 487.817)">
				
					<linearGradient id="Rectangle_24858-5_1_" gradientUnits="userSpaceOnUse" x1="1876.197" y1="5070.6719" x2="1876.197" y2="5070.4502" gradientTransform="matrix(0 -3.632 -1.961 0 9807.5117 7351.0884)">
					<stop  offset="0" style="stop-color:#BCBEC0"/>
					<stop  offset="0.134" style="stop-color:#939598"/>
					<stop  offset="0.514" style="stop-color:#FFFFFF"/>
					<stop  offset="1" style="stop-color:#939598"/>
				</linearGradient>
				
					<rect id="Rectangle_24858-5" x="-136.5" y="536.1" transform="matrix(2.535182e-06 1 -1 2.535182e-06 400.2631 672.4117)" class="st31" width="0.8" height="0.4"/>
				
					<linearGradient id="Rectangle_24857-5_1_" gradientUnits="userSpaceOnUse" x1="1549.9601" y1="5096.981" x2="1549.9601" y2="5096.7593" gradientTransform="matrix(0 -6.97 -4.215 0 21348.2129 11340.332)">
					<stop  offset="0" style="stop-color:#BCBEC0"/>
					<stop  offset="0.134" style="stop-color:#939598"/>
					<stop  offset="0.514" style="stop-color:#FFFFFF"/>
					<stop  offset="1" style="stop-color:#939598"/>
				</linearGradient>
				
					<rect id="Rectangle_24857-5" x="-136.3" y="535.9" transform="matrix(2.535182e-06 1 -1 2.535182e-06 400.7744 671.9003)" class="st32" width="1.5" height="0.9"/>
			</g>
			<g id="Group_6459" transform="translate(305.175 487.817)">
				
					<linearGradient id="Rectangle_24858-6_1_" gradientUnits="userSpaceOnUse" x1="1828.196" y1="5090.5981" x2="1828.196" y2="5090.3765" gradientTransform="matrix(0 -3.632 -1.961 0 9809.915 7176.7485)">
					<stop  offset="0" style="stop-color:#BCBEC0"/>
					<stop  offset="0.134" style="stop-color:#939598"/>
					<stop  offset="0.514" style="stop-color:#FFFFFF"/>
					<stop  offset="1" style="stop-color:#939598"/>
				</linearGradient>
				
					<rect id="Rectangle_24858-6" x="-173.2" y="536.1" transform="matrix(2.535182e-06 1 -1 2.535182e-06 363.5906 709.0842)" class="st33" width="0.8" height="0.4"/>
				
					<linearGradient id="Rectangle_24857-6_1_" gradientUnits="userSpaceOnUse" x1="1501.9591" y1="5105.4146" x2="1501.9591" y2="5105.1929" gradientTransform="matrix(0 -6.97 -4.215 0 21346.0645 11005.7656)">
					<stop  offset="0" style="stop-color:#BCBEC0"/>
					<stop  offset="0.134" style="stop-color:#939598"/>
					<stop  offset="0.514" style="stop-color:#FFFFFF"/>
					<stop  offset="1" style="stop-color:#939598"/>
				</linearGradient>
				
					<rect id="Rectangle_24857-6" x="-174" y="535.9" transform="matrix(2.535182e-06 1 -1 2.535182e-06 363.079 709.5958)" class="st34" width="1.5" height="0.9"/>
			</g>
			<g id="Group_6457" transform="translate(257.174 505.817)">
				
					<linearGradient id="Rectangle_24858-7_1_" gradientUnits="userSpaceOnUse" x1="1879.2289" y1="5052.6719" x2="1879.2289" y2="5052.4502" gradientTransform="matrix(0 -3.632 -1.961 0 9772.2139 7351.0884)">
					<stop  offset="0" style="stop-color:#BCBEC0"/>
					<stop  offset="0.134" style="stop-color:#939598"/>
					<stop  offset="0.514" style="stop-color:#FFFFFF"/>
					<stop  offset="1" style="stop-color:#939598"/>
				</linearGradient>
				
					<rect id="Rectangle_24858-7" x="-136.5" y="525.1" transform="matrix(2.535182e-06 1 -1 2.535182e-06 389.2513 661.4)" class="st35" width="0.8" height="0.4"/>
				
					<linearGradient id="Rectangle_24857-7_1_" gradientUnits="userSpaceOnUse" x1="1551.5399" y1="5078.981" x2="1551.5399" y2="5078.7593" gradientTransform="matrix(0 -6.97 -4.215 0 21272.3418 11340.332)">
					<stop  offset="0" style="stop-color:#BCBEC0"/>
					<stop  offset="0.134" style="stop-color:#939598"/>
					<stop  offset="0.514" style="stop-color:#FFFFFF"/>
					<stop  offset="1" style="stop-color:#939598"/>
				</linearGradient>
				
					<rect id="Rectangle_24857-7" x="-136.3" y="524.9" transform="matrix(2.535182e-06 1 -1 2.535182e-06 389.7626 660.8887)" class="st36" width="1.5" height="0.9"/>
			</g>
			<g id="Group_6460" transform="translate(305.175 505.817)">
				
					<linearGradient id="Rectangle_24858-8_1_" gradientUnits="userSpaceOnUse" x1="1831.2279" y1="5072.5981" x2="1831.2279" y2="5072.3765" gradientTransform="matrix(0 -3.632 -1.961 0 9774.6172 7176.7485)">
					<stop  offset="0" style="stop-color:#BCBEC0"/>
					<stop  offset="0.134" style="stop-color:#939598"/>
					<stop  offset="0.514" style="stop-color:#FFFFFF"/>
					<stop  offset="1" style="stop-color:#939598"/>
				</linearGradient>
				
					<rect id="Rectangle_24858-8" x="-173.2" y="525.1" transform="matrix(2.535182e-06 1 -1 2.535182e-06 352.5789 698.0725)" class="st37" width="0.8" height="0.4"/>
				
					<linearGradient id="Rectangle_24857-8_1_" gradientUnits="userSpaceOnUse" x1="1503.5389" y1="5087.4146" x2="1503.5389" y2="5087.1929" gradientTransform="matrix(0 -6.97 -4.215 0 21270.1953 11005.7656)">
					<stop  offset="0" style="stop-color:#BCBEC0"/>
					<stop  offset="0.134" style="stop-color:#939598"/>
					<stop  offset="0.514" style="stop-color:#FFFFFF"/>
					<stop  offset="1" style="stop-color:#939598"/>
				</linearGradient>
				
					<rect id="Rectangle_24857-8" x="-174" y="524.9" transform="matrix(2.535182e-06 1 -1 2.535182e-06 352.0673 698.584)" class="st38" width="1.5" height="0.9"/>
			</g>
		</g>
		
			<linearGradient id="Path_10410_1_" gradientUnits="userSpaceOnUse" x1="1526.6898" y1="5604.8086" x2="1526.6898" y2="5605.0303" gradientTransform="matrix(0 -33.6949 -69.8482 0 391591.9063 52485.8789)">
			<stop  offset="0" style="stop-color:#1B1A1C"/>
			<stop  offset="0.263" style="stop-color:#6A6A6A"/>
			<stop  offset="0.5" style="stop-color:#606161"/>
			<stop  offset="1" style="stop-color:#0F0F10"/>
		</linearGradient>
		<path id="Path_10410" class="st39" d="M98.3,1046.9v-1.7c0,0,0-1.2,1.6-0.9c0,0,8.3,0.8,13.1,0c0,0,0.9-0.3,0.9,0.9v5.9
			c0,0,0.1,0.9-1.6,0.4c0,0-7.8-0.1-12.2,0.2c0,0-1.8,0.4-1.8-0.4L98.3,1046.9z"/>
		
			<linearGradient id="Path_10411_1_" gradientUnits="userSpaceOnUse" x1="1534.7628" y1="5604.9097" x2="1535.0065" y2="5604.8662" gradientTransform="matrix(0 -30.5093 -53.0773 0 297603.0625 47876.9492)">
			<stop  offset="0" style="stop-color:#2B2B2B"/>
			<stop  offset="0.201" style="stop-color:#3A3A3A"/>
			<stop  offset="0.462" style="stop-color:#565656"/>
			<stop  offset="0.685" style="stop-color:#7C7C7C"/>
			<stop  offset="0.918" style="stop-color:#111111"/>
			<stop  offset="1" style="stop-color:#7D7D7D"/>
		</linearGradient>
		<path id="Path_10411" class="st40" d="M112.7,1055.2c0,0-2.4,0.3-2.5-1.3c0,0-0.4-2.3,0.6-3.2c0,0,0.2-0.4,1.6-0.5
			c0,0,3.8-0.7,4.3-1.2c0,0,1.8-1,3.7-0.3c0.4,0.5,1,0.8,1.7,0.9l-0.1,3.2c-1.3-0.3-2.6-0.4-3.9-0.5c0,0-1.3-0.4-2,0.7
			c0,0,0.2,0.5-1.7,0.7l-2.5,0.4C112.1,1054.6,112.4,1054.9,112.7,1055.2z"/>
		<path id="Path_10412" class="st41" d="M115.8,1053.5c0,0,1.3,0.2,2.1-1.2C117.9,1052.3,116.7,1051.8,115.8,1053.5z"/>
		
			<linearGradient id="Path_10413_1_" gradientUnits="userSpaceOnUse" x1="1537.2546" y1="5606.3218" x2="1537.4987" y2="5606.2783" gradientTransform="matrix(0 -29.6155 -54.6516 0 306525.1875 46579.1445)">
			<stop  offset="0" style="stop-color:#2B2B2B"/>
			<stop  offset="0.201" style="stop-color:#3A3A3A"/>
			<stop  offset="0.462" style="stop-color:#565656"/>
			<stop  offset="0.685" style="stop-color:#7C7C7C"/>
			<stop  offset="0.918" style="stop-color:#111111"/>
			<stop  offset="1" style="stop-color:#7D7D7D"/>
		</linearGradient>
		<path id="Path_10413" class="st42" d="M131.5,1049.4c0,0,0.7,0.1,1.6-0.6c0,0,2.8-0.6,3.9,0.1c0,0,0.2,0.5,4.2,1.1
			c0,0,2,0.2,2.3,1.2c0,0,0.3,2.2,0,3c0,0,0.2,1-2.1,0.9c0,0,0.5-0.3,0.5-0.8c0,0-2.7-0.7-3.5-0.8c0,0-2.3-0.4-2.4-1.1
			c-1.5,0-3.1,0-4.6,0.2L131.5,1049.4z"/>
		<path id="Path_10414" class="st41" d="M136,1052.5c0,0,1.4-0.4,1.9,1.1C137.9,1053.6,135.6,1053.3,136,1052.5z"/>
		
			<ellipse id="Ellipse_553" transform="matrix(2.535182e-06 1 -1 2.535182e-06 1211.9552 992.7564)" class="st43" cx="109.6" cy="1102.4" rx="1" ry="1.3"/>
		
			<ellipse id="Ellipse_554" transform="matrix(2.535182e-06 1 -1 2.535182e-06 1246.4644 958.2473)" class="st43" cx="144.1" cy="1102.4" rx="1" ry="1.3"/>
		
			<linearGradient id="Path_10415_1_" gradientUnits="userSpaceOnUse" x1="1526.6898" y1="5606.8667" x2="1526.6898" y2="5607.0884" gradientTransform="matrix(0 -33.6949 -69.8493 0 391783.4063 52485.8789)">
			<stop  offset="0" style="stop-color:#1B1A1C"/>
			<stop  offset="0.263" style="stop-color:#6A6A6A"/>
			<stop  offset="0.5" style="stop-color:#606161"/>
			<stop  offset="1" style="stop-color:#0F0F10"/>
		</linearGradient>
		<path id="Path_10415" class="st44" d="M155.7,1046.9v-1.7c0,0,0-1.2-1.6-0.9c0,0-8.3,0.8-13.1,0c0,0-0.9-0.3-0.9,0.9v5.9
			c0,0-0.1,0.9,1.6,0.4c0,0,7.8-0.1,12.2,0.2c0,0,1.8,0.4,1.8-0.4L155.7,1046.9z"/>
		
			<linearGradient id="Path_10416_1_" gradientUnits="userSpaceOnUse" x1="1644.7693" y1="5606.6343" x2="1644.7693" y2="5606.4126" gradientTransform="matrix(0 -13.708 -279.48 0 1567068.75 23667.0059)">
			<stop  offset="0" style="stop-color:#BCBEC0"/>
			<stop  offset="0.134" style="stop-color:#939598"/>
			<stop  offset="0.514" style="stop-color:#FFFFFF"/>
			<stop  offset="1" style="stop-color:#939598"/>
		</linearGradient>
		<path id="Path_10416" class="st45" d="M99.3,1117.5l40.8,0.3c0,0,12.8,0.1,14.1-0.1h1.6l0.2,2.5l-8.7,0.3l-17.6-0.1l-32.2-0.2
			l-0.2-2.6L99.3,1117.5z"/>
		
			<rect id="Rectangle_24873" x="120.5" y="1121.1" transform="matrix(2.535182e-06 1 -1 2.535182e-06 1243.2798 999.9506)" class="st46" width="2.3" height="1.1"/>
		
			<rect id="Rectangle_24874" x="130.6" y="1121.1" transform="matrix(2.535182e-06 1 -1 2.535182e-06 1253.3756 989.8547)" class="st46" width="2.3" height="1.1"/>
		<path id="Path_10417" class="st47" d="M121,1117.7c0,0-0.3-1,0.3-1.2c0,0,0.9-0.2,0.9,0.6c0.1,0.2,0,0.4-0.1,0.5L121,1117.7z"/>
		<path id="Path_10418" class="st48" d="M121.1,1118.7h0.9v-1.1c0,0-0.1-0.7-0.5-0.5c0,0-0.3-0.1-0.3,0.6L121.1,1118.7z"/>
		<path id="Path_10419" class="st47" d="M131.1,1117.7c0,0-0.3-1,0.3-1.2c0,0,0.9-0.2,0.9,0.6c0.1,0.2,0,0.4-0.1,0.5L131.1,1117.7z"
			/>
		<path id="Path_10420" class="st48" d="M131.2,1118.7h0.9v-1.1c0,0-0.1-0.7-0.5-0.5c0,0-0.3-0.1-0.3,0.6L131.2,1118.7z"/>
		<path id="Path_10421" class="st49" d="M99.1,1120.5l-14.5-1c0,0-0.9-0.2-0.8-1.3c0,0-0.2-2.2,1.5-2l12.9,0.9c0,0,0.9-0.1,1.1,0.4
			c0,0-1,0-1.2,1.2C98.1,1119.1,98.1,1119.7,99.1,1120.5z"/>
		<path id="Path_10422" class="st49" d="M154.2,1120.5l14.5-1c0,0,0.9-0.2,0.8-1.3c0,0,0.2-2.2-1.5-2l-12.9,0.9c0,0-0.9-0.1-1.1,0.4
			c0,0,1,0,1.2,1.2C155.2,1119.1,155.2,1119.7,154.2,1120.5z"/>
		<path id="Rectangle_24875" class="st50" d="M116.5,980.2h20.4c5.8,0,10.5,4.6,10.5,10.4l0,0c0,5.7-4.7,10.4-10.5,10.4h-20.4
			c-5.8,0-10.5-4.6-10.5-10.4l0,0C106,984.8,110.7,980.2,116.5,980.2z"/>
		<path id="Rectangle_24876" class="st51" d="M116.5,981.1h20.3c5.3,0,9.6,4.2,9.6,9.5l0,0c0,5.2-4.3,9.5-9.6,9.5h-20.3
			c-5.3,0-9.6-4.2-9.6-9.5l0,0C106.9,985.3,111.2,981.1,116.5,981.1z"/>
		
			<linearGradient id="Rectangle_24877_1_" gradientUnits="userSpaceOnUse" x1="1481.946" y1="5606.5796" x2="1482.2776" y2="5606.5762" gradientTransform="matrix(0 -79.252 -165.495 0 927965.6875 118437.8281)">
			<stop  offset="0" style="stop-color:#B3B4B4"/>
			<stop  offset="1" style="stop-color:#848585"/>
		</linearGradient>
		<path id="Rectangle_24877" class="st52" d="M117,981.7h19.4c4.9,0,8.9,3.9,8.9,8.8l0,0c0,4.9-4,8.8-8.9,8.8H117
			c-4.9,0-8.9-3.9-8.9-8.8l0,0C108.1,985.7,112.1,981.7,117,981.7z"/>
	</g>
	<g id="Group_6616" transform="translate(3067 1385) rotate(90)">
		<g>
			<path id="Path_10407-2" class="st4" d="M34,438.4h18.1l-1.2-2.4H35.4L34,438.4z"/>
			<path id="Path_10399-2" class="st15" d="M29.9,438.4h26.3l-1.7,5.4H31.9L29.9,438.4z"/>
			<path id="Path_10406-2" class="st23" d="M26.4,441.9c0,0,2.9-3,4.5-4.6c0.9-0.9,1.9-2,5.4-2.2l-3.5,6.5l20.3,0l-3.1-6.4
				c2.4,0,4.6,0.9,5.9,2.3l3.3,4.4L26.4,441.9z"/>
		</g>
		
			<radialGradient id="Rectangle_24848-2_1_" cx="1351.8257" cy="4855.0918" r="0.1782" gradientTransform="matrix(99.0018 77.2208 -96.0777 82.5817 332675.9375 -504924.3438)" gradientUnits="userSpaceOnUse">
			<stop  offset="0" style="stop-color:#B9BABC"/>
			<stop  offset="1" style="stop-color:#111111"/>
		</radialGradient>
		<path id="Rectangle_24848-2" class="st53" d="M33.4,394h19.2c3.2,0,5.8,2.6,5.8,5.8v13.8c0,3.2-2.6,5.8-5.8,5.8H33.4
			c-3.2,0-5.8-2.6-5.8-5.8v-13.8C27.6,396.6,30.2,394,33.4,394z"/>
		
			<radialGradient id="Rectangle_24849-2_1_" cx="1349.6477" cy="4891.9888" r="0.2322" gradientTransform="matrix(-90.7349 67.1346 -86.6512 -74.8887 546399.6875 276153.4063)" gradientUnits="userSpaceOnUse">
			<stop  offset="0" style="stop-color:#0990CE"/>
			<stop  offset="1" style="stop-color:#004868"/>
		</radialGradient>
		<path id="Rectangle_24849-2" class="st54" d="M33.8,395.4h18.5c2.7,0,4.9,2.2,4.9,4.9v12.9c0,2.7-2.2,4.9-4.9,4.9H33.8
			c-2.7,0-4.9-2.2-4.9-4.9v-12.9C28.9,397.5,31.1,395.4,33.8,395.4z"/>
		<g id="Group_6462-2" transform="translate(174.4 136.619)">
			
				<linearGradient id="Rectangle_24858-9_1_" gradientUnits="userSpaceOnUse" x1="1947.3539" y1="4687.4648" x2="1947.3539" y2="4687.6865" gradientTransform="matrix(0 -3.632 -1.961 0 9055.043 7347.4561)">
				<stop  offset="0" style="stop-color:#BCBEC0"/>
				<stop  offset="0.134" style="stop-color:#939598"/>
				<stop  offset="0.514" style="stop-color:#FFFFFF"/>
				<stop  offset="1" style="stop-color:#939598"/>
			</linearGradient>
			
				<rect id="Rectangle_24858-9" x="-137.5" y="274.8" transform="matrix(2.535182e-06 1 -1 2.535182e-06 137.9947 412.144)" class="st55" width="0.8" height="0.4"/>
			
				<linearGradient id="Rectangle_24857-9_1_" gradientUnits="userSpaceOnUse" x1="1586.6665" y1="4713.7739" x2="1586.6665" y2="4713.9961" gradientTransform="matrix(0 -6.97 -4.215 0 19731.9941 11333.3613)">
				<stop  offset="0" style="stop-color:#BCBEC0"/>
				<stop  offset="0.134" style="stop-color:#939598"/>
				<stop  offset="0.514" style="stop-color:#FFFFFF"/>
				<stop  offset="1" style="stop-color:#939598"/>
			</linearGradient>
			
				<rect id="Rectangle_24857-9" x="-137.3" y="274.6" transform="matrix(2.535182e-06 1 -1 2.535182e-06 138.506 411.6327)" class="st56" width="1.5" height="0.9"/>
		</g>
		
			<linearGradient id="Path_10393-2_1_" gradientUnits="userSpaceOnUse" x1="1433.255" y1="4871.4419" x2="1433.4492" y2="4871.6387" gradientTransform="matrix(0 -41.1499 -111.889 0 545075.1875 59365.2695)">
			<stop  offset="0" style="stop-color:#BCBEC0"/>
			<stop  offset="0.132" style="stop-color:#939598"/>
			<stop  offset="0.558" style="stop-color:#E2E2E2"/>
			<stop  offset="0.724" style="stop-color:#CBCBCA"/>
			<stop  offset="1" style="stop-color:#575757"/>
		</linearGradient>
		<path id="Path_10393-2" class="st57" d="M16.7,387.6l7.8,5.8c0,0,2.6,1.6,5.8,1.3l9.1,0.4l0.1-1.7L30,393c0,0-2.9-0.1-5.2-1.5
			l-6.8-5.3c0,0-0.6-0.5-1,0.1l-0.4,0.7C16.4,387.2,16.5,387.5,16.7,387.6z"/>
		
			<linearGradient id="Path_10423-2_1_" gradientUnits="userSpaceOnUse" x1="1433.2572" y1="4872.2114" x2="1433.063" y2="4872.4087" gradientTransform="matrix(0 -41.1485 -111.888 0 545213.3125 59363.3047)">
			<stop  offset="0" style="stop-color:#BCBEC0"/>
			<stop  offset="0.132" style="stop-color:#939598"/>
			<stop  offset="0.558" style="stop-color:#E2E2E2"/>
			<stop  offset="0.724" style="stop-color:#CBCBCA"/>
			<stop  offset="1" style="stop-color:#575757"/>
		</linearGradient>
		<path id="Path_10423-2" class="st58" d="M69.3,387.6l-7.8,5.8c0,0-2.6,1.6-5.8,1.3l-9.1,0.4l-0.1-1.7L56,393c0,0,2.9-0.1,5.2-1.5
			l6.8-5.3c0,0,0.6-0.5,1,0.1l0.4,0.7C69.6,387.2,69.6,387.5,69.3,387.6z"/>
		<path id="Path_10395-2" class="st7" d="M24.6,403.7l-0.2-2.5h2.7l0.2,2.8L24.6,403.7z"/>
		<path id="Path_10396-2" class="st7" d="M61.5,403.7l0.2-2.5H59l-0.2,2.8L61.5,403.7z"/>
		<g id="Group_6461-2" transform="translate(220.401 136.618)">
			
				<linearGradient id="Rectangle_24858-10_1_" gradientUnits="userSpaceOnUse" x1="1901.3527" y1="4706.9966" x2="1901.3527" y2="4707.2188" gradientTransform="matrix(0 -3.632 -1.961 0 9058.4482 7180.3804)">
				<stop  offset="0" style="stop-color:#BCBEC0"/>
				<stop  offset="0.134" style="stop-color:#939598"/>
				<stop  offset="0.514" style="stop-color:#FFFFFF"/>
				<stop  offset="1" style="stop-color:#939598"/>
			</linearGradient>
			
				<rect id="Rectangle_24858-10" x="-172.4" y="274.8" transform="matrix(2.535182e-06 1 -1 2.535182e-06 103.0982 447.0421)" class="st59" width="0.8" height="0.4"/>
			
				<linearGradient id="Rectangle_24857-10_1_" gradientUnits="userSpaceOnUse" x1="1540.6654" y1="4722.0249" x2="1540.6654" y2="4722.2466" gradientTransform="matrix(0 -6.97 -4.215 0 19730.8516 11012.7344)">
				<stop  offset="0" style="stop-color:#BCBEC0"/>
				<stop  offset="0.134" style="stop-color:#939598"/>
				<stop  offset="0.514" style="stop-color:#FFFFFF"/>
				<stop  offset="1" style="stop-color:#939598"/>
			</linearGradient>
			
				<rect id="Rectangle_24857-10" x="-173.3" y="274.6" transform="matrix(2.535182e-06 1 -1 2.535182e-06 102.5867 447.5537)" class="st60" width="1.5" height="0.9"/>
		</g>
		
			<linearGradient id="Rectangle_24850-2_1_" gradientUnits="userSpaceOnUse" x1="1540.369" y1="4871.5068" x2="1540.369" y2="4871.7285" gradientTransform="matrix(0 -15.795 -136.257 0 663802.5625 24733.6563)">
			<stop  offset="0" style="stop-color:#BCBEC0"/>
			<stop  offset="0.134" style="stop-color:#939598"/>
			<stop  offset="0.514" style="stop-color:#FFFFFF"/>
			<stop  offset="1" style="stop-color:#939598"/>
		</linearGradient>
		<path id="Rectangle_24850-2" class="st61" d="M11.7,403.5h27.9c0.7,0,1.3,0.6,1.3,1.3v0.8c0,0.7-0.6,1.3-1.3,1.3H11.7
			c-0.7,0-1.3-0.6-1.3-1.3v-0.8C10.3,404.1,10.9,403.5,11.7,403.5z"/>
		
			<linearGradient id="Rectangle_24851-2_1_" gradientUnits="userSpaceOnUse" x1="1540.369" y1="4872.3867" x2="1540.369" y2="4872.6084" gradientTransform="matrix(0 -15.795 -136.257 0 663957.1875 24733.6563)">
			<stop  offset="0" style="stop-color:#BCBEC0"/>
			<stop  offset="0.134" style="stop-color:#939598"/>
			<stop  offset="0.514" style="stop-color:#FFFFFF"/>
			<stop  offset="1" style="stop-color:#939598"/>
		</linearGradient>
		<path id="Rectangle_24851-2" class="st62" d="M46.4,403.5h27.9c0.7,0,1.3,0.6,1.3,1.3v0.8c0,0.7-0.6,1.3-1.3,1.3H46.4
			c-0.7,0-1.3-0.6-1.3-1.3v-0.8C45.1,404.1,45.7,403.5,46.4,403.5z"/>
		
			<rect id="Rectangle_24853-2" x="37" y="526.1" transform="matrix(2.535182e-06 1 -1 2.535182e-06 570.9692 485.2093)" class="st17" width="11.8" height="3.9"/>
		
			<rect id="Rectangle_24854-2" x="39.5" y="528.6" transform="matrix(2.535182e-06 1 -1 2.535182e-06 573.4653 487.7054)" class="st18" width="6.8" height="3.9"/>
		
			<rect id="Rectangle_24855-2" x="42.5" y="525" transform="matrix(2.535182e-06 1 -1 2.535182e-06 569.8065 484.0466)" class="st19" width="0.8" height="3.9"/>
		<g>
			<path id="Path_10401-2" class="st16" d="M22.9,510.5v-0.4h-4.7l0,3.1h4.4v0.6h-5.3l-0.1-4.5h7.6l-0.1,1.3L22.9,510.5z"/>
			<path id="Path_10404-2" class="st20" d="M18.1,510.4l4.7,0c0.4,0.2,1.8,0.3,2.3,0.2v0.4l-5.7,0.4l-1.3-0.6V510.4z"/>
			
				<linearGradient id="Path_10405-2_1_" gradientUnits="userSpaceOnUse" x1="1567.911" y1="4866.8838" x2="1568.156" y2="4866.8989" gradientTransform="matrix(0 -14.692 -27.7001 0 134831.4688 23547.6543)">
				<stop  offset="0" style="stop-color:#686868"/>
				<stop  offset="0.197" style="stop-color:#939598"/>
				<stop  offset="0.265" style="stop-color:#B9BABC"/>
				<stop  offset="0.532" style="stop-color:#FFFFFF"/>
				<stop  offset="1" style="stop-color:#939598"/>
			</linearGradient>
			<path id="Path_10405-2" class="st63" d="M25.4,513.6c0,0-4-0.1-4.9-0.1c-0.6,0-1.6,0.1-2.3-0.4l0-2.8c0,0,0,0.5,2.3,0.7l5-0.1
				C25.4,511,25.2,512.9,25.4,513.6z"/>
		</g>
		<g id="Group_6463-2" transform="translate(287.755 422.821)">
			<path id="Path_10424-2" class="st16" d="M-225,87.7v-0.4h4.7l0,3.1h-4.4V91h5.3l0.1-4.5h-7.6l0.1,1.3L-225,87.7z"/>
			<path id="Path_10426-2" class="st20" d="M-220.3,87.5l-4.7,0c-0.4,0.2-1.8,0.3-2.3,0.2v0.4l5.7,0.4l1.3-0.6V87.5z"/>
			
				<linearGradient id="Path_10425-2_1_" gradientUnits="userSpaceOnUse" x1="1280.156" y1="4449.7275" x2="1279.9111" y2="4449.7422" gradientTransform="matrix(0 -14.692 -27.7001 0 123037.3516 18897.1367)">
				<stop  offset="0" style="stop-color:#686868"/>
				<stop  offset="0.197" style="stop-color:#939598"/>
				<stop  offset="0.265" style="stop-color:#B9BABC"/>
				<stop  offset="0.532" style="stop-color:#FFFFFF"/>
				<stop  offset="1" style="stop-color:#939598"/>
			</linearGradient>
			<path id="Path_10425-2" class="st64" d="M-227.5,90.8c0,0,4-0.1,4.9-0.1c0.6,0,1.6,0.1,2.3-0.4l0-2.8c0,0,0,0.5-2.3,0.7l-5-0.1
				C-227.5,88.1-227.3,90.1-227.5,90.8z"/>
		</g>
		
			<linearGradient id="Rectangle_24856-2_1_" gradientUnits="userSpaceOnUse" x1="1375.7971" y1="4870.3652" x2="1375.7971" y2="4870.0146" gradientTransform="matrix(0 -369.303 -35.368 0 172298.0313 508599.9063)">
			<stop  offset="0" style="stop-color:#BCBEC0"/>
			<stop  offset="4.800000e-02" style="stop-color:#B8B9B9"/>
			<stop  offset="0.11" style="stop-color:#939598"/>
			<stop  offset="0.533" style="stop-color:#CBCBCA"/>
			<stop  offset="0.969" style="stop-color:#939598"/>
			<stop  offset="1" style="stop-color:#7E7E7E"/>
		</linearGradient>
		
			<rect id="Rectangle_24856-2" x="-15.5" y="438.9" transform="matrix(2.535182e-06 1 -1 2.535182e-06 485.7979 399.8762)" class="st65" width="116.9" height="7.9"/>
		<path id="Path_10408-2" class="st25" d="M38.3,501.3l-0.2-110.1H39l0.1,110.1L38.3,501.3z"/>
		<path id="Path_10409-2" class="st26" d="M46.8,501.5l0-110.3h0.7l0.1,110.1L46.8,501.5z"/>
		<g>
			<g id="Group_6456-2" transform="translate(174.4 274.619)">
				
					<linearGradient id="Rectangle_24858-13_1_" gradientUnits="userSpaceOnUse" x1="1980.5488" y1="4549.4648" x2="1980.5488" y2="4549.6865" gradientTransform="matrix(0 -3.632 -1.961 0 8784.4248 7347.4561)">
					<stop  offset="0" style="stop-color:#BCBEC0"/>
					<stop  offset="0.134" style="stop-color:#939598"/>
					<stop  offset="0.514" style="stop-color:#FFFFFF"/>
					<stop  offset="1" style="stop-color:#939598"/>
				</linearGradient>
				
					<rect id="Rectangle_24858-13" x="-137.5" y="154.3" transform="matrix(2.535182e-06 1 -1 2.535182e-06 17.4307 291.5803)" class="st66" width="0.8" height="0.4"/>
				
					<linearGradient id="Rectangle_24857-13_1_" gradientUnits="userSpaceOnUse" x1="1603.9641" y1="4575.7739" x2="1603.9641" y2="4575.9961" gradientTransform="matrix(0 -6.97 -4.215 0 19150.3242 11333.3613)">
					<stop  offset="0" style="stop-color:#BCBEC0"/>
					<stop  offset="0.134" style="stop-color:#939598"/>
					<stop  offset="0.514" style="stop-color:#FFFFFF"/>
					<stop  offset="1" style="stop-color:#939598"/>
				</linearGradient>
				
					<rect id="Rectangle_24857-13" x="-137.3" y="154" transform="matrix(2.535182e-06 1 -1 2.535182e-06 17.942 291.069)" class="st67" width="1.5" height="0.9"/>
			</g>
			<g id="Group_6459-2" transform="translate(221.401 274.618)">
				
					<linearGradient id="Rectangle_24858-14_1_" gradientUnits="userSpaceOnUse" x1="1933.5476" y1="4569.3921" x2="1933.5476" y2="4569.6138" gradientTransform="matrix(0 -3.632 -1.961 0 8787.8301 7176.7485)">
					<stop  offset="0" style="stop-color:#BCBEC0"/>
					<stop  offset="0.134" style="stop-color:#939598"/>
					<stop  offset="0.514" style="stop-color:#FFFFFF"/>
					<stop  offset="1" style="stop-color:#939598"/>
				</linearGradient>
				
					<rect id="Rectangle_24858-14" x="-173.2" y="154.3" transform="matrix(2.535182e-06 1 -1 2.535182e-06 -18.241 327.2537)" class="st68" width="0.8" height="0.4"/>
				
					<linearGradient id="Rectangle_24857-14_1_" gradientUnits="userSpaceOnUse" x1="1556.9629" y1="4584.2085" x2="1556.9629" y2="4584.4302" gradientTransform="matrix(0 -6.97 -4.215 0 19149.1816 11005.7646)">
					<stop  offset="0" style="stop-color:#BCBEC0"/>
					<stop  offset="0.134" style="stop-color:#939598"/>
					<stop  offset="0.514" style="stop-color:#FFFFFF"/>
					<stop  offset="1" style="stop-color:#939598"/>
				</linearGradient>
				
					<rect id="Rectangle_24857-14" x="-174" y="154" transform="matrix(2.535182e-06 1 -1 2.535182e-06 -18.7526 327.7652)" class="st69" width="1.5" height="0.9"/>
			</g>
			<g id="Group_6457-2" transform="translate(174.4 256.619)">
				
					<linearGradient id="Rectangle_24858-15_1_" gradientUnits="userSpaceOnUse" x1="1977.2419" y1="4567.4648" x2="1977.2419" y2="4567.6865" gradientTransform="matrix(0 -3.632 -1.961 0 8819.7227 7347.4561)">
					<stop  offset="0" style="stop-color:#BCBEC0"/>
					<stop  offset="0.134" style="stop-color:#939598"/>
					<stop  offset="0.514" style="stop-color:#FFFFFF"/>
					<stop  offset="1" style="stop-color:#939598"/>
				</linearGradient>
				
					<rect id="Rectangle_24858-15" x="-137.5" y="166.3" transform="matrix(2.535182e-06 1 -1 2.535182e-06 29.4413 303.5909)" class="st70" width="0.8" height="0.4"/>
				
					<linearGradient id="Rectangle_24857-15_1_" gradientUnits="userSpaceOnUse" x1="1602.2408" y1="4593.7739" x2="1602.2408" y2="4593.9961" gradientTransform="matrix(0 -6.97 -4.215 0 19226.1953 11333.3613)">
					<stop  offset="0" style="stop-color:#BCBEC0"/>
					<stop  offset="0.134" style="stop-color:#939598"/>
					<stop  offset="0.514" style="stop-color:#FFFFFF"/>
					<stop  offset="1" style="stop-color:#939598"/>
				</linearGradient>
				
					<rect id="Rectangle_24857-15" x="-137.3" y="166" transform="matrix(2.535182e-06 1 -1 2.535182e-06 29.9526 303.0796)" class="st71" width="1.5" height="0.9"/>
			</g>
			<g id="Group_6460-2" transform="translate(221.401 256.618)">
				
					<linearGradient id="Rectangle_24858-16_1_" gradientUnits="userSpaceOnUse" x1="1930.2407" y1="4587.3921" x2="1930.2407" y2="4587.6138" gradientTransform="matrix(0 -3.632 -1.961 0 8823.1279 7176.7485)">
					<stop  offset="0" style="stop-color:#BCBEC0"/>
					<stop  offset="0.134" style="stop-color:#939598"/>
					<stop  offset="0.514" style="stop-color:#FFFFFF"/>
					<stop  offset="1" style="stop-color:#939598"/>
				</linearGradient>
				
					<rect id="Rectangle_24858-16" x="-173.2" y="166.3" transform="matrix(2.535182e-06 1 -1 2.535182e-06 -6.2305 339.2642)" class="st72" width="0.8" height="0.4"/>
				
					<linearGradient id="Rectangle_24857-16_1_" gradientUnits="userSpaceOnUse" x1="1555.2397" y1="4602.2085" x2="1555.2397" y2="4602.4302" gradientTransform="matrix(0 -6.97 -4.215 0 19225.0508 11005.7646)">
					<stop  offset="0" style="stop-color:#BCBEC0"/>
					<stop  offset="0.134" style="stop-color:#939598"/>
					<stop  offset="0.514" style="stop-color:#FFFFFF"/>
					<stop  offset="1" style="stop-color:#939598"/>
				</linearGradient>
				
					<rect id="Rectangle_24857-16" x="-174" y="166" transform="matrix(2.535182e-06 1 -1 2.535182e-06 -6.742 339.7758)" class="st73" width="1.5" height="0.9"/>
			</g>
		</g>
		
			<ellipse id="Ellipse_553-2" transform="matrix(2.535182e-06 1 -1 2.535182e-06 426.8705 375.2213)" class="st43" cx="25.8" cy="401" rx="1" ry="1.3"/>
		
			<ellipse id="Ellipse_554-2" transform="matrix(2.535182e-06 1 -1 2.535182e-06 461.3796 340.7122)" class="st43" cx="60.3" cy="401" rx="1" ry="1.3"/>
		
			<linearGradient id="Path_10416-2_1_" gradientUnits="userSpaceOnUse" x1="1561.1813" y1="4872.2295" x2="1561.1813" y2="4872.4512" gradientTransform="matrix(0 -13.708 -279.48 0 1361733.625 21783.582)">
			<stop  offset="0" style="stop-color:#BCBEC0"/>
			<stop  offset="0.134" style="stop-color:#939598"/>
			<stop  offset="0.514" style="stop-color:#FFFFFF"/>
			<stop  offset="1" style="stop-color:#939598"/>
		</linearGradient>
		<path id="Path_10416-2" class="st74" d="M15.6,385.9l40.8-0.3c0,0,12.8-0.1,14.1,0.1H72l0.2-2.5l-8.7-0.3L46,383l-32.2,0.2
			l-0.2,2.6L15.6,385.9z"/>
		
			<rect id="Rectangle_24873-2" x="36.7" y="381.3" transform="matrix(2.535182e-06 1 -1 2.535182e-06 419.6761 343.8967)" class="st46" width="2.3" height="1.1"/>
		
			<rect id="Rectangle_24874-2" x="46.8" y="381.3" transform="matrix(2.535182e-06 1 -1 2.535182e-06 429.7719 333.8008)" class="st46" width="2.3" height="1.1"/>
		<path id="Path_10417-2" class="st47" d="M37.3,385.7c0,0-0.3,1,0.3,1.2c0,0,0.9,0.2,0.9-0.6c0.1-0.2,0-0.4-0.1-0.5L37.3,385.7z"/>
		<path id="Path_10418-2" class="st48" d="M37.3,384.7h0.9v1.1c0,0-0.1,0.7-0.5,0.5c0,0-0.3,0.1-0.3-0.6L37.3,384.7z"/>
		<path id="Path_10419-2" class="st47" d="M47.4,385.7c0,0-0.3,1,0.3,1.2c0,0,0.9,0.2,0.9-0.6c0.1-0.2,0-0.4-0.1-0.5L47.4,385.7z"/>
		<path id="Path_10420-2" class="st48" d="M47.4,384.7h0.9v1.1c0,0-0.1,0.7-0.5,0.5c0,0-0.3,0.1-0.3-0.6L47.4,384.7z"/>
		<path id="Path_10421-2" class="st49" d="M15.3,382.9l-14.5,1c0,0-0.9,0.2-0.8,1.3c0,0-0.2,2.2,1.5,2l12.9-0.9c0,0,0.9,0.1,1.1-0.4
			c0,0-1,0-1.2-1.2C14.3,384.3,14.3,383.7,15.3,382.9z"/>
		<path id="Path_10422-2" class="st49" d="M70.4,382.9l14.5,1c0,0,0.9,0.2,0.8,1.3c0,0,0.2,2.2-1.5,2l-12.9-0.9c0,0-0.9,0.1-1.1-0.4
			c0,0,1,0,1.2-1.2C71.4,384.3,71.4,383.7,70.4,382.9z"/>
		<g>
			<path class="st50" d="M60.1,444.9v71.5c0,3.2-2.6,5.8-5.8,5.8H31.5c-3.2,0-5.8-2.6-5.8-5.8v-71.5c0-3.2,2.6-5.8,5.8-5.8h22.8
				C57.5,439.1,60.1,441.7,60.1,444.9z"/>
			<path class="st51" d="M59.2,445.8v69.6c0,3.2-2.6,5.8-5.8,5.8h-21c-3.2,0-5.8-2.6-5.8-5.8v-69.6c0-3.2,2.6-5.8,5.8-5.8h21
				C56.6,440,59.2,442.6,59.2,445.8z"/>
			<linearGradient id="SVGID_1_" gradientUnits="userSpaceOnUse" x1="24.7831" y1="480.5814" x2="24.5761" y2="435.0422">
				<stop  offset="0" style="stop-color:#B3B4B4"/>
				<stop  offset="1" style="stop-color:#848585"/>
			</linearGradient>
			<path class="st75" d="M58.2,447v67.3c0,3.2-2.6,5.8-5.8,5.8H33.5c-3.2,0-5.8-2.6-5.8-5.8V447c0-3.2,2.6-5.8,5.8-5.8h18.9
				C55.6,441.2,58.2,443.8,58.2,447z"/>
		</g>
		<path class="st49" d="M85.7,385.6c0,0,0-1.5,0-2.1s-1.1,0.8-1.1,0.8L85.7,385.6z"/>
	</g>
	<path class="st49" d="M2681.6,1385c0,0,1.5,0,2.1,0c0.6,0-0.8,1.1-0.8,1.1L2681.6,1385z"/>
</g>
</svg>
