<?xml version="1.0" encoding="utf-8"?>
<!-- Generator: Adobe Illustrator 24.2.3, SVG Export Plug-In . SVG Version: 6.00 Build 0)  -->
<svg version="1.1" id="Layer_1" xmlns="http://www.w3.org/2000/svg" xmlns:xlink="http://www.w3.org/1999/xlink" x="0px" y="0px"
	 viewBox="0 0 300 1607.14" style="enable-background:new 0 0 300 1607.14;" xml:space="preserve">
<style type="text/css">
	.st0{fill:#757D91;}
	.st1{fill:#F5DBB6;}
	.st2{fill:#FFF2DD;}
	.st3{fill:#372412;}
	.st4{enable-background:new    ;}
	.st5{fill:#4164AD;}
	.st6{clip-path:url(#SVGID_2_);}
	.st7{fill:#557CBD;}
	.st8{clip-path:url(#SVGID_4_);}
	.st9{clip-path:url(#SVGID_6_);}
	.st10{fill:#D32027;}
	.st11{clip-path:url(#SVGID_8_);}
	.st12{fill:#EE4E72;}
	.st13{clip-path:url(#SVGID_10_);}
	.st14{clip-path:url(#SVGID_12_);}
	.st15{fill:#C2DDEE;}
	.st16{fill:#C2E2F2;}
	.st17{fill:#CBEBFB;}
	.st18{fill:#8396CC;}
	.st19{fill:#DEF2FC;}
	.st20{fill:url(#Rectangle_24436_2_);}
	.st21{fill:url(#Rectangle_24437_2_);}
	.st22{fill:url(#Rectangle_24438_2_);}
	.st23{fill:url(#Rectangle_24439_2_);}
	.st24{fill:#979797;}
	.st25{fill:#787878;}
	.st26{fill:url(#Rectangle_24441_2_);}
	.st27{fill:url(#Rectangle_24442_2_);}
	.st28{fill:url(#Rectangle_24443_2_);}
	.st29{fill:url(#Rectangle_24444_2_);}
	.st30{fill:url(#Rectangle_24445_2_);}
	.st31{fill:url(#Rectangle_24446_2_);}
	.st32{fill:url(#SVGID_13_);}
	.st33{fill:none;stroke:#686969;}
	.st34{fill:url(#SVGID_14_);}
	.st35{fill:url(#SVGID_15_);}
	.st36{fill:#C4C3C3;}
	.st37{fill:url(#SVGID_16_);}
	.st38{fill:url(#Rectangle_24457_1_);}
	.st39{clip-path:url(#SVGID_18_);}
	.st40{fill:#7E7E7E;}
	.st41{clip-path:url(#SVGID_20_);}
	.st42{fill:url(#Rectangle_24458_2_);}
	.st43{fill:url(#SVGID_21_);}
	.st44{fill:none;stroke:#686969;stroke-width:0.5;}
	.st45{fill:url(#SVGID_22_);}
	.st46{fill:url(#SVGID_23_);}
	.st47{fill:url(#SVGID_24_);}
	.st48{fill:url(#Rectangle_24458_3_);}
	.st49{fill:url(#SVGID_25_);}
	.st50{fill:url(#SVGID_26_);}
	.st51{fill:url(#SVGID_27_);}
	.st52{fill:url(#SVGID_28_);}
	.st53{fill:url(#Rectangle_24458-2_1_);}
	.st54{fill:url(#SVGID_29_);}
	.st55{fill:url(#SVGID_30_);}
	.st56{fill:url(#SVGID_31_);}
	.st57{fill:url(#SVGID_32_);}
	.st58{fill:url(#Rectangle_24458-3_1_);}
	.st59{fill:url(#SVGID_33_);}
	.st60{fill:url(#SVGID_34_);}
	.st61{fill:url(#SVGID_35_);}
	.st62{fill:url(#SVGID_36_);}
	.st63{fill:url(#Rectangle_24458-4_1_);}
	.st64{fill:url(#SVGID_37_);}
	.st65{fill:url(#SVGID_38_);}
	.st66{fill:url(#SVGID_39_);}
	.st67{fill:url(#SVGID_40_);}
	.st68{fill:url(#Rectangle_24458-5_2_);}
	.st69{fill:url(#SVGID_41_);}
	.st70{fill:url(#SVGID_42_);}
	.st71{fill:url(#SVGID_43_);}
	.st72{fill:url(#SVGID_44_);}
	.st73{fill:url(#Rectangle_24458-5_3_);}
	.st74{fill:url(#SVGID_45_);}
	.st75{fill:url(#SVGID_46_);}
	.st76{fill:url(#SVGID_47_);}
	.st77{fill:url(#SVGID_48_);}
	.st78{fill:url(#Rectangle_24454_1_);}
	.st79{fill:url(#Rectangle_24455_1_);}
	.st80{fill:url(#Rectangle_24848_1_);}
	.st81{fill:url(#Rectangle_24849_1_);}
	.st82{fill:url(#Rectangle_24858_1_);}
	.st83{fill:url(#Rectangle_24857_1_);}
	.st84{fill:#1F1F1F;}
	.st85{fill:url(#Path_10393_1_);}
	.st86{fill:url(#Path_10423_1_);}
	.st87{fill:#383838;}
	.st88{fill:url(#Rectangle_24858-2_1_);}
	.st89{fill:url(#Rectangle_24857-2_1_);}
	.st90{fill:url(#Rectangle_24850_1_);}
	.st91{fill:url(#Rectangle_24851_1_);}
	.st92{fill:url(#Rectangle_24852_1_);}
	.st93{fill:url(#Path_10397_1_);}
	.st94{fill:url(#Path_10398_1_);}
	.st95{fill:#010101;}
	.st96{fill:#DCDCDB;}
	.st97{fill:#DFDFDE;}
	.st98{fill:#3E3E3E;}
	.st99{fill:#3F4040;}
	.st100{fill:url(#Path_10405_1_);}
	.st101{fill:url(#Path_10425_1_);}
	.st102{fill:#6D6E6E;}
	.st103{fill:url(#Rectangle_24856_1_);}
	.st104{fill:#F2F2F2;}
	.st105{fill:#EFEFEF;}
	.st106{fill:url(#Rectangle_24858-3_1_);}
	.st107{fill:url(#Rectangle_24857-3_1_);}
	.st108{fill:url(#Rectangle_24858-4_1_);}
	.st109{fill:url(#Rectangle_24857-4_1_);}
	.st110{fill:url(#Rectangle_24858-5_1_);}
	.st111{fill:url(#Rectangle_24857-5_1_);}
	.st112{fill:url(#Rectangle_24858-6_1_);}
	.st113{fill:url(#Rectangle_24857-6_1_);}
	.st114{fill:url(#Rectangle_24858-7_1_);}
	.st115{fill:url(#Rectangle_24857-7_1_);}
	.st116{fill:url(#Rectangle_24858-8_1_);}
	.st117{fill:url(#Rectangle_24857-8_1_);}
	.st118{fill:url(#Path_10410_1_);}
	.st119{fill:url(#Path_10411_1_);}
	.st120{fill:#2F302A;}
	.st121{fill:url(#Path_10413_1_);}
	.st122{fill:#E7E7E7;}
	.st123{fill:url(#Path_10415_1_);}
	.st124{fill:url(#Path_10416_1_);}
	.st125{fill:#161616;}
	.st126{fill:#2E2F29;}
	.st127{fill:#595549;}
	.st128{fill:#79797A;}
	.st129{fill:#ABABAB;}
	.st130{fill:#C2C2C2;}
	.st131{fill:url(#Rectangle_24877_1_);}
	.st132{fill:url(#Rectangle_24848-2_1_);}
	.st133{fill:url(#Rectangle_24849-2_1_);}
	.st134{fill:url(#Rectangle_24858-9_1_);}
	.st135{fill:url(#Rectangle_24857-9_1_);}
	.st136{fill:url(#Path_10393-2_1_);}
	.st137{fill:url(#Path_10423-2_1_);}
	.st138{fill:url(#Rectangle_24858-10_1_);}
	.st139{fill:url(#Rectangle_24857-10_1_);}
	.st140{fill:url(#Rectangle_24850-2_1_);}
	.st141{fill:url(#Rectangle_24851-2_1_);}
	.st142{fill:url(#Path_10405-2_1_);}
	.st143{fill:url(#Path_10425-2_1_);}
	.st144{fill:url(#Rectangle_24856-2_1_);}
	.st145{fill:url(#Rectangle_24858-13_1_);}
	.st146{fill:url(#Rectangle_24857-13_1_);}
	.st147{fill:url(#Rectangle_24858-14_1_);}
	.st148{fill:url(#Rectangle_24857-14_1_);}
	.st149{fill:url(#Rectangle_24858-15_1_);}
	.st150{fill:url(#Rectangle_24857-15_1_);}
	.st151{fill:url(#Rectangle_24858-16_1_);}
	.st152{fill:url(#Rectangle_24857-16_1_);}
	.st153{fill:url(#Path_10416-2_1_);}
	.st154{fill:url(#SVGID_49_);}
</style>
<g id="Group_5770" transform="translate(720.533 -430.592) rotate(90)">
	
		<rect id="Rectangle_24495" x="1096.61" y="-223.06" transform="matrix(2.535182e-06 1 -1 2.535182e-06 1804.6906 -663.6304)" class="st0" width="275.1" height="1587.19"/>
	<path id="Path_7040" class="st1" d="M430.59,720.53h1607.14v-300H430.59V720.53z M2021.46,436.77v267.52H446.86V436.77H2021.46z"/>
	
		<rect id="Rectangle_24496" x="1119.02" y="-193.9" transform="matrix(2.535182e-06 1 -1 2.535182e-06 1804.6913 -663.6297)" class="st2" width="230.29" height="1528.87"/>
	<g id="Line_68">
		<path class="st3" d="M1927.59,469.5v7h-2v-7H1927.59z M1927.59,483.5v7h-2v-7H1927.59z M1927.59,497.5v7h-2v-7H1927.59z
			 M1927.59,511.5v7h-2v-7H1927.59z M1927.59,525.5v7h-2v-7H1927.59z M1927.59,539.5v7h-2v-7H1927.59z M1927.59,553.5v7h-2v-7
			H1927.59z M1927.59,567.5v7h-2v-7H1927.59z M1927.59,581.5v7h-2v-7H1927.59z M1927.59,595.5v7h-2v-7H1927.59z M1927.59,609.5v7h-2
			v-7H1927.59z M1927.59,623.5v7h-2v-7H1927.59z M1927.59,637.5v7h-2v-7H1927.59z M1927.59,651.5v7h-2v-7H1927.59z M1927.59,665.5v7
			h-2v-7H1927.59z"/>
	</g>
	<g id="Line_69">
		<path class="st3" d="M1780.65,469.5v7h-2v-7H1780.65z M1780.65,483.5v7h-2v-7H1780.65z M1780.65,497.5v7h-2v-7H1780.65z
			 M1780.65,511.5v7h-2v-7H1780.65z M1780.65,525.5v7h-2v-7H1780.65z M1780.65,539.5v7h-2v-7H1780.65z M1780.65,553.5v7h-2v-7
			H1780.65z M1780.65,567.5v7h-2v-7H1780.65z M1780.65,581.5v7h-2v-7H1780.65z M1780.65,595.5v7h-2v-7H1780.65z M1780.65,609.5v7h-2
			v-7H1780.65z M1780.65,623.5v7h-2v-7H1780.65z M1780.65,637.5v7h-2v-7H1780.65z M1780.65,651.5v7h-2v-7H1780.65z M1780.65,665.5v7
			h-2v-7H1780.65z"/>
	</g>
	<g class="st4">
		<path d="M1942.54,663.65c0.5,0,0.94,0.08,1.34,0.24c0.4,0.16,0.74,0.38,1.04,0.66c0.3,0.28,0.55,0.6,0.75,0.98
			c0.2,0.38,0.35,0.78,0.46,1.22h0.06c0.14-1.16,0.5-2.03,1.05-2.63c0.56-0.59,1.31-0.89,2.26-0.89c0.63,0,1.21,0.11,1.74,0.34
			c0.53,0.23,1,0.57,1.39,1.04s0.7,1.06,0.92,1.77c0.22,0.71,0.33,1.54,0.33,2.51c0,0.77-0.06,1.5-0.19,2.18
			c-0.13,0.68-0.32,1.31-0.58,1.9h-2.58c0.16-0.29,0.29-0.6,0.41-0.93c0.12-0.33,0.22-0.65,0.3-0.98c0.08-0.33,0.14-0.65,0.18-0.97
			c0.04-0.32,0.06-0.62,0.06-0.9c0-0.56-0.05-1.03-0.16-1.4c-0.1-0.37-0.25-0.67-0.44-0.89c-0.19-0.22-0.42-0.38-0.68-0.48
			c-0.26-0.09-0.55-0.14-0.87-0.14c-0.29,0-0.56,0.06-0.8,0.18c-0.24,0.12-0.44,0.32-0.61,0.59c-0.17,0.27-0.3,0.63-0.39,1.06
			c-0.09,0.44-0.14,0.98-0.14,1.62v1.02h-2.13v-1c0-0.6-0.05-1.1-0.16-1.5c-0.11-0.4-0.26-0.72-0.44-0.96
			c-0.19-0.24-0.4-0.41-0.65-0.51c-0.25-0.1-0.51-0.15-0.79-0.15c-0.51,0-0.91,0.16-1.2,0.48c-0.29,0.32-0.43,0.82-0.43,1.51
			c0,0.31,0.03,0.61,0.09,0.88c0.06,0.27,0.14,0.52,0.24,0.76c0.09,0.23,0.2,0.44,0.31,0.64c0.11,0.19,0.23,0.37,0.34,0.52
			l-2.02,1.53c-0.2-0.27-0.39-0.57-0.56-0.9c-0.17-0.32-0.32-0.68-0.45-1.05c-0.13-0.38-0.23-0.79-0.3-1.23
			c-0.07-0.44-0.11-0.91-0.11-1.4c0-0.71,0.08-1.35,0.23-1.93c0.15-0.58,0.38-1.07,0.67-1.49s0.65-0.73,1.07-0.96
			S1941.99,663.65,1942.54,663.65z"/>
	</g>
	<g class="st4">
		<path d="M1942.54,477.77c0.5,0,0.94,0.08,1.34,0.24c0.4,0.16,0.74,0.38,1.04,0.66c0.3,0.28,0.55,0.6,0.75,0.98
			c0.2,0.38,0.35,0.78,0.46,1.22h0.06c0.14-1.16,0.5-2.03,1.05-2.63c0.56-0.59,1.31-0.89,2.26-0.89c0.63,0,1.21,0.11,1.74,0.34
			c0.53,0.23,1,0.57,1.39,1.04s0.7,1.06,0.92,1.77c0.22,0.71,0.33,1.54,0.33,2.51c0,0.77-0.06,1.5-0.19,2.18
			c-0.13,0.68-0.32,1.31-0.58,1.9h-2.58c0.16-0.29,0.29-0.6,0.41-0.93c0.12-0.33,0.22-0.65,0.3-0.98c0.08-0.33,0.14-0.65,0.18-0.97
			c0.04-0.32,0.06-0.62,0.06-0.9c0-0.56-0.05-1.03-0.16-1.4c-0.1-0.37-0.25-0.67-0.44-0.89c-0.19-0.22-0.42-0.38-0.68-0.48
			c-0.26-0.09-0.55-0.14-0.87-0.14c-0.29,0-0.56,0.06-0.8,0.18c-0.24,0.12-0.44,0.32-0.61,0.59c-0.17,0.27-0.3,0.63-0.39,1.06
			c-0.09,0.44-0.14,0.98-0.14,1.62v1.02h-2.13v-1c0-0.6-0.05-1.1-0.16-1.5c-0.11-0.4-0.26-0.72-0.44-0.96
			c-0.19-0.24-0.4-0.41-0.65-0.51c-0.25-0.1-0.51-0.15-0.79-0.15c-0.51,0-0.91,0.16-1.2,0.48c-0.29,0.32-0.43,0.82-0.43,1.51
			c0,0.31,0.03,0.61,0.09,0.88c0.06,0.27,0.14,0.52,0.24,0.76c0.09,0.23,0.2,0.44,0.31,0.64c0.11,0.19,0.23,0.37,0.34,0.52
			l-2.02,1.53c-0.2-0.27-0.39-0.57-0.56-0.9c-0.17-0.32-0.32-0.68-0.45-1.05c-0.13-0.38-0.23-0.79-0.3-1.23
			c-0.07-0.44-0.11-0.91-0.11-1.4c0-0.71,0.08-1.35,0.23-1.93c0.15-0.58,0.38-1.07,0.67-1.49s0.65-0.73,1.07-0.96
			S1941.99,477.77,1942.54,477.77z"/>
	</g>
	<g class="st4">
		<path d="M1856.34,663.09v9.62h-2.11l-3.64-3.37c-0.46-0.43-0.88-0.81-1.27-1.16c-0.39-0.35-0.76-0.64-1.13-0.89
			c-0.37-0.25-0.74-0.44-1.12-0.58s-0.79-0.21-1.23-0.21c-0.48,0-0.86,0.15-1.13,0.44c-0.27,0.29-0.4,0.68-0.4,1.17
			c0,0.52,0.13,1.01,0.38,1.49c0.26,0.48,0.62,0.98,1.09,1.5l-1.95,1.65c-0.27-0.29-0.52-0.6-0.77-0.92
			c-0.25-0.32-0.46-0.67-0.65-1.06c-0.19-0.39-0.34-0.81-0.46-1.28s-0.17-0.98-0.17-1.56c0-0.69,0.1-1.3,0.28-1.85
			c0.19-0.55,0.46-1.01,0.81-1.4c0.35-0.39,0.77-0.68,1.27-0.89c0.5-0.21,1.06-0.31,1.68-0.31c0.56,0,1.1,0.1,1.61,0.29
			c0.51,0.2,1.02,0.46,1.51,0.8c0.49,0.34,0.98,0.73,1.47,1.18c0.49,0.45,0.98,0.93,1.49,1.44l1.74,1.73h0.14v-5.85H1856.34z"/>
	</g>
	<g class="st4">
		<path d="M1856.34,475.3v9.62h-2.11l-3.64-3.37c-0.46-0.43-0.88-0.81-1.27-1.16c-0.39-0.35-0.76-0.64-1.13-0.89
			c-0.37-0.25-0.74-0.44-1.12-0.58s-0.79-0.21-1.23-0.21c-0.48,0-0.86,0.15-1.13,0.44c-0.27,0.29-0.4,0.68-0.4,1.17
			c0,0.52,0.13,1.01,0.38,1.49c0.26,0.48,0.62,0.98,1.09,1.5l-1.95,1.65c-0.27-0.29-0.52-0.6-0.77-0.92
			c-0.25-0.32-0.46-0.67-0.65-1.06c-0.19-0.39-0.34-0.81-0.46-1.28s-0.17-0.98-0.17-1.56c0-0.69,0.1-1.3,0.28-1.85
			c0.19-0.55,0.46-1.01,0.81-1.4c0.35-0.39,0.77-0.68,1.27-0.89c0.5-0.21,1.06-0.31,1.68-0.31c0.56,0,1.1,0.1,1.61,0.29
			c0.51,0.2,1.02,0.46,1.51,0.8c0.49,0.34,0.98,0.73,1.47,1.18c0.49,0.45,0.98,0.93,1.49,1.44l1.74,1.73h0.14v-5.85H1856.34z"/>
	</g>
	<g class="st4">
		<path d="M1702.4,665.5v3.03h-8.3c-0.17,0-0.37,0-0.61-0.01c-0.24,0-0.49-0.01-0.75-0.02c-0.26-0.01-0.52-0.02-0.78-0.03
			c-0.26-0.01-0.5-0.02-0.72-0.02c0.04,0.03,0.1,0.09,0.18,0.17c0.08,0.08,0.17,0.17,0.26,0.26c0.09,0.1,0.19,0.2,0.29,0.3
			s0.19,0.21,0.26,0.3l1.32,1.65l-1.83,1.47l-3.68-4.62v-2.49H1702.4z"/>
	</g>
	<g class="st4">
		<path d="M1702.4,477.71v3.03h-8.3c-0.17,0-0.37,0-0.61-0.01c-0.24,0-0.49-0.01-0.75-0.02c-0.26-0.01-0.52-0.02-0.78-0.03
			c-0.26-0.01-0.5-0.02-0.72-0.02c0.04,0.03,0.1,0.09,0.18,0.17c0.08,0.08,0.17,0.17,0.26,0.26c0.09,0.1,0.19,0.2,0.29,0.3
			s0.19,0.21,0.26,0.3l1.32,1.65l-1.83,1.47l-3.68-4.62v-2.49H1702.4z"/>
	</g>
	<g id="Line_70">
		<path class="st3" d="M532.35,469.57v7h-2v-7H532.35z M532.35,483.57v7h-2v-7H532.35z M532.35,497.57v7h-2v-7H532.35z
			 M532.35,511.57v7h-2v-7H532.35z M532.35,525.57v7h-2v-7H532.35z M532.35,539.57v7h-2v-7H532.35z M532.35,553.57v7h-2v-7H532.35z
			 M532.35,567.57v7h-2v-7H532.35z M532.35,581.57v7h-2v-7H532.35z M532.35,595.57v7h-2v-7H532.35z M532.35,609.57v7h-2v-7H532.35z
			 M532.35,623.57v7h-2v-7H532.35z M532.35,637.57v7h-2v-7H532.35z M532.35,651.57v7h-2v-7H532.35z M532.35,665.57v7h-2v-7H532.35z"
			/>
	</g>
	<g id="Line_71">
		<path class="st3" d="M681.29,469.57v7h-2v-7H681.29z M681.29,483.57v7h-2v-7H681.29z M681.29,497.57v7h-2v-7H681.29z
			 M681.29,511.57v7h-2v-7H681.29z M681.29,525.57v7h-2v-7H681.29z M681.29,539.57v7h-2v-7H681.29z M681.29,553.57v7h-2v-7H681.29z
			 M681.29,567.57v7h-2v-7H681.29z M681.29,581.57v7h-2v-7H681.29z M681.29,595.57v7h-2v-7H681.29z M681.29,609.57v7h-2v-7H681.29z
			 M681.29,623.57v7h-2v-7H681.29z M681.29,637.57v7h-2v-7H681.29z M681.29,651.57v7h-2v-7H681.29z M681.29,665.57v7h-2v-7H681.29z"
			/>
	</g>
	<g class="st4">
		<path d="M513.18,478.43c-0.5,0-0.94-0.08-1.34-0.24c-0.4-0.16-0.74-0.38-1.04-0.66c-0.3-0.28-0.55-0.6-0.75-0.98
			c-0.2-0.38-0.35-0.78-0.46-1.22h-0.06c-0.14,1.16-0.5,2.03-1.05,2.63c-0.56,0.59-1.31,0.89-2.26,0.89c-0.63,0-1.21-0.11-1.74-0.34
			c-0.53-0.23-1-0.57-1.39-1.04c-0.39-0.47-0.7-1.06-0.92-1.77c-0.22-0.71-0.33-1.54-0.33-2.51c0-0.77,0.06-1.5,0.19-2.18
			c0.13-0.68,0.32-1.31,0.58-1.9h2.58c-0.16,0.29-0.29,0.6-0.41,0.93c-0.12,0.33-0.22,0.65-0.3,0.98c-0.08,0.33-0.14,0.65-0.18,0.97
			c-0.04,0.32-0.06,0.62-0.06,0.9c0,0.56,0.05,1.03,0.16,1.4c0.1,0.37,0.25,0.67,0.44,0.89s0.42,0.38,0.68,0.48
			c0.26,0.09,0.55,0.14,0.87,0.14c0.29,0,0.56-0.06,0.8-0.18c0.24-0.12,0.44-0.32,0.61-0.59c0.17-0.27,0.3-0.63,0.39-1.06
			c0.09-0.44,0.14-0.98,0.14-1.62v-1.02h2.13v1c0,0.6,0.05,1.1,0.16,1.5c0.11,0.4,0.26,0.72,0.44,0.96c0.19,0.24,0.4,0.41,0.65,0.51
			c0.25,0.1,0.51,0.15,0.79,0.15c0.51,0,0.91-0.16,1.2-0.48c0.29-0.32,0.43-0.82,0.43-1.51c0-0.31-0.03-0.61-0.09-0.88
			c-0.06-0.27-0.14-0.52-0.24-0.76c-0.09-0.23-0.2-0.44-0.31-0.64c-0.11-0.19-0.23-0.37-0.34-0.52l2.02-1.53
			c0.2,0.27,0.39,0.57,0.56,0.9s0.32,0.68,0.45,1.05c0.13,0.38,0.23,0.79,0.3,1.23c0.07,0.44,0.11,0.91,0.11,1.4
			c0,0.71-0.08,1.35-0.23,1.93c-0.15,0.58-0.38,1.07-0.67,1.49s-0.65,0.73-1.07,0.96S513.72,478.43,513.18,478.43z"/>
	</g>
	<g class="st4">
		<path d="M513.18,664.31c-0.5,0-0.94-0.08-1.34-0.24c-0.4-0.16-0.74-0.38-1.04-0.66c-0.3-0.28-0.55-0.6-0.75-0.98
			c-0.2-0.38-0.35-0.78-0.46-1.22h-0.06c-0.14,1.16-0.5,2.03-1.05,2.63c-0.56,0.59-1.31,0.89-2.26,0.89c-0.63,0-1.21-0.11-1.74-0.34
			c-0.53-0.23-1-0.57-1.39-1.04c-0.39-0.47-0.7-1.06-0.92-1.77c-0.22-0.71-0.33-1.54-0.33-2.51c0-0.77,0.06-1.5,0.19-2.18
			c0.13-0.68,0.32-1.31,0.58-1.9h2.58c-0.16,0.29-0.29,0.6-0.41,0.93c-0.12,0.33-0.22,0.65-0.3,0.98c-0.08,0.33-0.14,0.65-0.18,0.97
			c-0.04,0.32-0.06,0.62-0.06,0.9c0,0.56,0.05,1.03,0.16,1.4c0.1,0.37,0.25,0.67,0.44,0.89s0.42,0.38,0.68,0.48
			c0.26,0.09,0.55,0.14,0.87,0.14c0.29,0,0.56-0.06,0.8-0.18c0.24-0.12,0.44-0.32,0.61-0.59c0.17-0.27,0.3-0.63,0.39-1.06
			c0.09-0.44,0.14-0.98,0.14-1.62v-1.02h2.13v1c0,0.6,0.05,1.1,0.16,1.5c0.11,0.4,0.26,0.72,0.44,0.96c0.19,0.24,0.4,0.41,0.65,0.51
			c0.25,0.1,0.51,0.15,0.79,0.15c0.51,0,0.91-0.16,1.2-0.48c0.29-0.32,0.43-0.82,0.43-1.51c0-0.31-0.03-0.61-0.09-0.88
			c-0.06-0.27-0.14-0.52-0.24-0.76c-0.09-0.23-0.2-0.44-0.31-0.64c-0.11-0.19-0.23-0.37-0.34-0.52l2.02-1.53
			c0.2,0.27,0.39,0.57,0.56,0.9s0.32,0.68,0.45,1.05c0.13,0.38,0.23,0.79,0.3,1.23c0.07,0.44,0.11,0.91,0.11,1.4
			c0,0.71-0.08,1.35-0.23,1.93c-0.15,0.58-0.38,1.07-0.67,1.49s-0.65,0.73-1.07,0.96S513.72,664.31,513.18,664.31z"/>
	</g>
	<g class="st4">
		<path d="M599.37,478.99v-9.62h2.11l3.64,3.37c0.46,0.43,0.88,0.81,1.27,1.16c0.39,0.35,0.76,0.64,1.13,0.89
			c0.37,0.25,0.74,0.44,1.12,0.58s0.79,0.21,1.23,0.21c0.48,0,0.86-0.15,1.13-0.44s0.4-0.68,0.4-1.17c0-0.52-0.13-1.01-0.38-1.49
			c-0.26-0.48-0.62-0.98-1.09-1.5l1.95-1.65c0.27,0.29,0.52,0.6,0.77,0.92s0.46,0.67,0.65,1.06c0.19,0.39,0.34,0.81,0.46,1.28
			s0.17,0.98,0.17,1.56c0,0.69-0.09,1.3-0.28,1.85c-0.19,0.55-0.46,1.01-0.81,1.4c-0.35,0.39-0.77,0.68-1.27,0.89
			c-0.5,0.21-1.06,0.31-1.68,0.31c-0.56,0-1.1-0.1-1.61-0.29c-0.51-0.2-1.02-0.46-1.51-0.8c-0.49-0.34-0.98-0.73-1.47-1.18
			c-0.49-0.45-0.98-0.93-1.49-1.44l-1.74-1.73h-0.14v5.85H599.37z"/>
	</g>
	<g class="st4">
		<path d="M599.37,666.77v-9.62h2.11l3.64,3.37c0.46,0.43,0.88,0.81,1.27,1.16c0.39,0.35,0.76,0.64,1.13,0.89
			c0.37,0.25,0.74,0.44,1.12,0.58s0.79,0.21,1.23,0.21c0.48,0,0.86-0.15,1.13-0.44s0.4-0.68,0.4-1.17c0-0.52-0.13-1.01-0.38-1.49
			c-0.26-0.48-0.62-0.98-1.09-1.5l1.95-1.65c0.27,0.29,0.52,0.6,0.77,0.92s0.46,0.67,0.65,1.06c0.19,0.39,0.34,0.81,0.46,1.28
			s0.17,0.98,0.17,1.56c0,0.69-0.09,1.3-0.28,1.85c-0.19,0.55-0.46,1.01-0.81,1.4c-0.35,0.39-0.77,0.68-1.27,0.89
			c-0.5,0.21-1.06,0.31-1.68,0.31c-0.56,0-1.1-0.1-1.61-0.29c-0.51-0.2-1.02-0.46-1.51-0.8c-0.49-0.34-0.98-0.73-1.47-1.18
			c-0.49-0.45-0.98-0.93-1.49-1.44l-1.74-1.73h-0.14v5.85H599.37z"/>
	</g>
	<g class="st4">
		<path d="M755.31,476.58v-3.03h8.3c0.17,0,0.37,0,0.61,0.01c0.24,0,0.49,0.01,0.75,0.02c0.26,0.01,0.52,0.02,0.78,0.03
			c0.26,0.01,0.5,0.02,0.72,0.02c-0.04-0.03-0.1-0.09-0.18-0.17c-0.08-0.08-0.17-0.17-0.26-0.26c-0.09-0.1-0.19-0.2-0.29-0.3
			c-0.1-0.1-0.19-0.21-0.26-0.3l-1.32-1.65l1.82-1.47l3.68,4.62v2.49H755.31z"/>
	</g>
	<g class="st4">
		<path d="M755.31,664.36v-3.03h8.3c0.17,0,0.37,0,0.61,0.01c0.24,0,0.49,0.01,0.75,0.02c0.26,0.01,0.52,0.02,0.78,0.03
			c0.26,0.01,0.5,0.02,0.72,0.02c-0.04-0.03-0.1-0.09-0.18-0.17c-0.08-0.08-0.17-0.17-0.26-0.26c-0.09-0.1-0.19-0.2-0.29-0.3
			c-0.1-0.1-0.19-0.21-0.26-0.3l-1.32-1.65l1.82-1.47l3.68,4.62v2.49H755.31z"/>
	</g>
	<g id="Group_5754" transform="translate(491.704 581.905)">
		
			<ellipse id="Ellipse_421" transform="matrix(2.535182e-06 1 -1 2.535182e-06 1327.1211 -1242.056)" class="st5" cx="1284.59" cy="42.53" rx="14.25" ry="14.27"/>
		<g id="Group_5753" transform="translate(0)">
			<g>
				<defs>
					<ellipse id="SVGID_1_" cx="1284.59" cy="42.53" rx="14.25" ry="14.27"/>
				</defs>
				<clipPath id="SVGID_2_">
					<use xlink:href="#SVGID_1_"  style="overflow:visible;"/>
				</clipPath>
				<g id="Group_5752" class="st6">
					
						<rect id="Rectangle_24497" x="1282.72" y="26.17" transform="matrix(2.535182e-06 1 -1 2.535182e-06 1326.6624 -1241.8678)" class="st7" width="3.1" height="32.47"/>
				</g>
			</g>
		</g>
	</g>
	<g id="Group_5757" transform="translate(560.744 288.236)">
		
			<ellipse id="Ellipse_423" transform="matrix(2.535182e-06 1 -1 2.535182e-06 427.669 59.8079)" class="st5" cx="183.93" cy="243.74" rx="14.25" ry="14.27"/>
		<g id="Group_5756" transform="translate(0)">
			<g>
				<defs>
					<ellipse id="SVGID_3_" cx="183.93" cy="243.74" rx="14.25" ry="14.27"/>
				</defs>
				<clipPath id="SVGID_4_">
					<use xlink:href="#SVGID_3_"  style="overflow:visible;"/>
				</clipPath>
				<g id="Group_5755" class="st8">
					
						<rect id="Rectangle_24498" x="182.06" y="227.37" transform="matrix(2.535182e-06 1 -1 2.535182e-06 427.2102 59.9962)" class="st7" width="3.1" height="32.47"/>
				</g>
			</g>
		</g>
	</g>
	<g id="Group_5760" transform="translate(504.003 251.517)">
		
			<ellipse id="Ellipse_425" transform="matrix(2.535182e-06 1 -1 2.535182e-06 455.9322 256.9675)" class="st5" cx="99.48" cy="356.45" rx="14.25" ry="14.27"/>
		<g id="Group_5759" transform="translate(0)">
			<g>
				<defs>
					<ellipse id="SVGID_5_" cx="99.48" cy="356.45" rx="14.25" ry="14.27"/>
				</defs>
				<clipPath id="SVGID_6_">
					<use xlink:href="#SVGID_5_"  style="overflow:visible;"/>
				</clipPath>
				<g id="Group_5758" class="st9">
					
						<rect id="Rectangle_24499" x="97.61" y="340.08" transform="matrix(2.535182e-06 1 -1 2.535182e-06 455.4734 257.1558)" class="st7" width="3.1" height="32.47"/>
				</g>
			</g>
		</g>
	</g>
	<g id="Group_5763" transform="translate(560.504 518.807)">
		
			<ellipse id="Ellipse_427" transform="matrix(2.535182e-06 1 -1 2.535182e-06 1114.7494 -1087.7734)" class="st10" cx="1101.26" cy="13.49" rx="14.25" ry="14.27"/>
		<g id="Group_5762">
			<g>
				<defs>
					<ellipse id="SVGID_7_" cx="1101.26" cy="13.49" rx="14.25" ry="14.27"/>
				</defs>
				<clipPath id="SVGID_8_">
					<use xlink:href="#SVGID_7_"  style="overflow:visible;"/>
				</clipPath>
				<g id="Group_5761" class="st11">
					
						<rect id="Rectangle_24500" x="1099.39" y="-2.88" transform="matrix(2.535182e-06 1 -1 2.535182e-06 1114.2905 -1087.5851)" class="st12" width="3.1" height="32.47"/>
				</g>
			</g>
		</g>
	</g>
	<g id="Group_5766" transform="translate(559.792 219.435)">
		
			<ellipse id="Ellipse_429" transform="matrix(2.535182e-06 1 -1 2.535182e-06 274.5304 353.0989)" class="st10" cx="-39.28" cy="313.82" rx="14.25" ry="14.27"/>
		<g id="Group_5765">
			<g>
				<defs>
					<ellipse id="SVGID_9_" cx="-39.28" cy="313.82" rx="14.25" ry="14.27"/>
				</defs>
				<clipPath id="SVGID_10_">
					<use xlink:href="#SVGID_9_"  style="overflow:visible;"/>
				</clipPath>
				<g id="Group_5764" class="st13">
					
						<rect id="Rectangle_24501" x="-41.16" y="297.45" transform="matrix(2.535182e-06 1 -1 2.535182e-06 274.0717 353.2872)" class="st12" width="3.1" height="32.47"/>
				</g>
			</g>
		</g>
	</g>
	<g id="Group_5769" transform="translate(569.045 618.597)">
		
			<ellipse id="Ellipse_431" transform="matrix(2.535182e-06 1 -1 2.535182e-06 1248.6597 -1444.1416)" class="st10" cx="1346.4" cy="-97.74" rx="14.25" ry="14.27"/>
		<g id="Group_5768">
			<g>
				<defs>
					<ellipse id="SVGID_11_" cx="1346.4" cy="-97.74" rx="14.25" ry="14.27"/>
				</defs>
				<clipPath id="SVGID_12_">
					<use xlink:href="#SVGID_11_"  style="overflow:visible;"/>
				</clipPath>
				<g id="Group_5767" class="st14">
					
						<rect id="Rectangle_24502" x="1344.53" y="-114.11" transform="matrix(2.535182e-06 1 -1 2.535182e-06 1248.2009 -1443.9532)" class="st12" width="3.1" height="32.47"/>
				</g>
			</g>
		</g>
	</g>
</g>
</svg>
