<?xml version="1.0" encoding="utf-8"?>
<!-- Generator: Adobe Illustrator 24.2.3, SVG Export Plug-In . SVG Version: 6.00 Build 0)  -->
<svg version="1.1" id="Layer_1" xmlns="http://www.w3.org/2000/svg" xmlns:xlink="http://www.w3.org/1999/xlink" x="0px" y="0px"
	 viewBox="0 0 300 540" style="enable-background:new 0 0 300 540;" xml:space="preserve">
<style type="text/css">
	.st0{fill:#00A64F;}
	.st1{fill:#FFFFFF;}
	.st2{opacity:0.3;fill:#221F1F;enable-background:new    ;}
	.st3{fill:#3A3A3A;}
	.st4{fill:#E2882E;}
	.st5{fill:#F8A247;}
	.st6{fill:#FFE8C3;}
	.st7{fill:#C52127;}
	.st8{fill:#BE7944;}
	.st9{fill:#D72027;}
	.st10{fill:#D1884E;}
	.st11{fill:#283982;}
	.st12{fill:#223F98;}
</style>
<g id="Group_6097_1_" transform="translate(-111 -635)">
	<g transform="matrix(1, 0, 0, 1, 111, 635)">
		<path id="Rectangle_20150-2_1_" class="st0" d="M0.02,532.87V7.13C0.02,3.19,3.14,0,6.99,0h286.03c3.85,0,6.98,3.19,6.98,7.13
			v525.74c0,3.94-3.12,7.13-6.98,7.13H6.99C3.14,540,0.02,536.81,0.02,532.87z"/>
	</g>
	<g id="Group_3374_2_" transform="translate(-906 581)">
		<path id="Rectangle_20133_2_" class="st0" d="M1017.02,586.87V61.13c0-3.94,3.12-7.13,6.98-7.13h286.03
			c3.85,0,6.98,3.19,6.98,7.13v525.74c0,3.94-3.12,7.13-6.98,7.13H1024C1020.14,594,1017.02,590.81,1017.02,586.87z"/>
		<g id="Group_3118_2_" transform="translate(-442.61 -437.436)">
			<g id="Group_3113_2_" transform="translate(1469.019 497.436)">
				<g id="Group_3109_2_">
					<g id="Group_3106_2_" transform="translate(6.591 8.087)">
						<path id="Path_1300_2_" class="st1" d="M270.83,518.78H-2.93c-2.76,0-4.99-2.28-4.99-5.1l0,0V-2.68c0-2.82,2.23-5.1,4.99-5.1
							l0,0h273.76c2.76,0,4.99,2.28,4.99,5.1l0,0v516.36C275.82,516.5,273.58,518.78,270.83,518.78L270.83,518.78z M2.06,508.57
							h263.77V2.41H2.06V508.57z"/>
					</g>
					<g id="Group_3107_2_" transform="translate(6.591 145.432)">
						<path id="Path_1301_2_" class="st1" d="M133.95,381.44c-2.76,0-4.99-2.28-4.99-5.1v-516.36c0-2.82,2.24-5.1,4.99-5.1
							c2.76,0,4.99,2.29,4.99,5.1v516.36C138.94,379.15,136.71,381.44,133.95,381.44z"/>
					</g>
					<path id="Path_1302_1_" class="st2" d="M286.74,287.47v-24.45H-5.31l21.85,24.45H286.74z"/>
					<g id="Group_3108_1_" transform="translate(260.902)">
						<path id="Path_1303_1_" class="st3" d="M25.48,267.76h-291.69c-2.26,0.01-4.09-1.86-4.1-4.16c-0.01-2.31,1.82-4.18,4.07-4.19
							c0.01,0,0.02,0,0.03,0H25.48c2.26-0.01,4.09,1.86,4.1,4.16c0.01,2.31-1.82,4.18-4.07,4.19
							C25.5,267.76,25.49,267.76,25.48,267.76z"/>
					</g>
				</g>
				<g id="Group_3112_2_" transform="translate(373.893 100.101)">
					<path id="Path_1304_2_" class="st2" d="M-266.17,32.59c5.73,3.38,8.17,10.17,5.46,15.16c-2.71,4.99-9.55,6.29-15.28,2.9
						s-8.17-10.17-5.47-15.16C-278.75,30.51-271.9,29.21-266.17,32.59z"/>
					<g id="Group_3111_2_" transform="translate(5.586)">
						<path id="Path_1305_2_" class="st4" d="M-281.09,30.12c4.52-0.09,8.25,3.58,8.34,8.2s-3.5,8.43-8.02,8.52s-8.25-3.58-8.34-8.2
							c0-0.05,0-0.11,0-0.16C-289.15,33.91-285.56,30.17-281.09,30.12z"/>
						<path id="Path_1306_2_" class="st5" d="M-282.11,30.71c3.78-0.07,6.9,3,6.97,6.86s-2.93,7.05-6.71,7.13
							c-3.78,0.07-6.9-3-6.97-6.86c0-0.05,0-0.09,0-0.14C-288.86,33.88-285.85,30.75-282.11,30.71z"/>
						<g id="Group_3110_2_" transform="translate(5.108 2.325)">
							<path id="Path_1307_2_" class="st4" d="M-283.57,34.97c-0.04,2.35-1.95,4.22-4.25,4.18c-2.3-0.05-4.13-1.99-4.09-4.34
								c0.04-2.32,1.9-4.18,4.17-4.18C-285.41,30.65-283.55,32.6-283.57,34.97z M-290.54,34.97c0.03,1.58,1.31,2.84,2.86,2.81
								s2.78-1.34,2.75-2.92c-0.03-1.56-1.28-2.81-2.81-2.81C-289.3,32.07-290.55,33.37-290.54,34.97L-290.54,34.97z"/>
						</g>
						<path id="Path_1308_2_" class="st6" d="M-284.74,33.02c1.16-0.02,2.11,0.91,2.14,2.09c0.02,1.18-0.89,2.16-2.05,2.18
							c-1.16,0.02-2.11-0.91-2.14-2.09c0-0.01,0-0.03,0-0.04C-286.8,33.99-285.89,33.04-284.74,33.02L-284.74,33.02z"/>
					</g>
				</g>
			</g>
			<g id="Group_3115_1_" transform="translate(1514.621 687.018)">
				<path id="Path_1309_1_" class="st2" d="M141.92,247.17c-0.25,0.18-0.49,0.37-0.73,0.56c-0.26,0.16-0.51,0.33-0.76,0.51
					c-7.56,5.44-8.67,16.83-2.5,25.43c3.43,4.9,8.79,8.02,14.67,8.53l0,0c0,0,7.74,0.39,9.82,1.77c3.17,2.11,6.71,9.86,8.3,12.78
					c1.11,2.04,4.18-0.53,4.18-0.53c0.49-0.36,0.99-0.72,1.48-1.07c0,0,3.4-2.1,1.83-3.8c-2.26-2.44-8.47-8.26-9.46-11.94
					c-0.65-2.41,1.45-9.89,1.45-9.89l0,0c1.38-5.79,0.12-11.9-3.41-16.64C160.61,244.28,149.48,241.73,141.92,247.17z"/>
				<g id="Group_3114_1_" transform="translate(3.756 2.208)">
					<path id="Path_1310_1_" class="st7" d="M165.23,246.85c6.18,8.6,5.06,19.98-2.5,25.43c-7.56,5.44-18.69,2.89-24.86-5.71
						c-6.18-8.59-5.06-19.98,2.5-25.43S159.05,238.25,165.23,246.85z"/>
					<path id="Path_1311_1_" class="st8" d="M168.64,263.49l-8.05,5.81l-8.05,5.81c0,0,7.74,0.39,9.82,1.77
						c3.17,2.11,6.71,9.86,8.3,12.78c1.11,2.04,4.18-0.53,4.18-0.53s3.4-2.1,1.83-3.8c-2.26-2.44-8.47-8.26-9.46-11.94
						C166.55,270.97,168.64,263.49,168.64,263.49z"/>
					<path id="Path_1312_1_" class="st9" d="M163.74,247.92c6.18,8.6,5.06,19.98-2.5,25.43s-18.69,2.89-24.86-5.71
						c-6.18-8.6-5.06-19.98,2.5-25.43C146.44,236.77,157.57,239.32,163.74,247.92z"/>
					<path id="Path_1313_1_" class="st10" d="M167.15,264.56l-8.05,5.81l-8.05,5.81c0,0,7.74,0.39,9.82,1.77
						c3.17,2.11,6.71,9.86,8.3,12.78c1.11,2.04,4.18-0.53,4.18-0.53s3.4-2.1,1.83-3.8c-2.26-2.44-8.47-8.26-9.46-11.94
						C165.06,272.04,167.15,264.56,167.15,264.56z"/>
				</g>
			</g>
			<g id="Group_3117_1_" transform="translate(1874.045 606.361)">
				<path id="Path_1314_1_" class="st2" d="M-294.84,2.35c0.23,0.27,0.47,0.54,0.71,0.8c0.21,0.28,0.43,0.56,0.66,0.84
					c6.96,8.31,20.09,8.5,29.34,0.43c5.25-4.44,8.31-11.04,8.35-18.01l0,0c0,0-0.3-9.1,1.08-11.67c2.11-3.92,10.64-8.82,13.83-10.97
					c2.22-1.5-1.01-4.84-1.01-4.84c-0.46-0.54-0.92-1.08-1.37-1.63c0,0-2.73-3.78-4.52-1.77c-2.57,2.88-8.64,10.73-12.76,12.25
					c-2.7,1-11.46-0.72-11.46-0.72l0,0c-6.75-1.05-13.6,1.01-18.72,5.62C-299.94-19.25-301.8-5.97-294.84,2.35z"/>
				<g id="Group_3116_1_" transform="translate(0 0)">
					<path id="Path_1315_1_" class="st11" d="M-270.68,5.76c9.09-8.25,10.7-21.57,3.58-29.75c-7.11-8.18-20.25-8.11-29.34,0.15
						s-10.7,21.57-3.58,29.75C-292.91,14.08-279.77,14.01-270.68,5.76z"/>
					<path id="Path_1316_1_" class="st8" d="M-262.67-12.41l-7.58-8.71l-7.58-8.71c0,0,8.79,1.54,11.47,0.5
						c4.09-1.6,10.01-9.57,12.52-12.5c1.75-2.04,4.55,1.68,4.55,1.68s3.29,3.28,1.1,4.82c-3.15,2.21-11.59,7.28-13.62,11.24
						C-263.14-21.51-262.67-12.41-262.67-12.41z"/>
					<path id="Path_1317_1_" class="st12" d="M-272.08,4.15c9.09-8.25,10.7-21.57,3.58-29.75c-7.11-8.18-20.25-8.11-29.34,0.15
						s-10.7,21.57-3.58,29.74C-294.31,12.47-281.17,12.4-272.08,4.15z"/>
					<path id="Path_1318_1_" class="st10" d="M-264.07-14.02l-7.58-8.71l-7.58-8.71c0,0,8.79,1.54,11.47,0.49
						c4.09-1.6,10.01-9.57,12.52-12.5c1.75-2.04,4.55,1.68,4.55,1.68s3.29,3.28,1.1,4.82c-3.15,2.21-11.59,7.28-13.62,11.24
						C-264.54-23.11-264.07-14.02-264.07-14.02z"/>
				</g>
			</g>
		</g>
	</g>
</g>
</svg>
