<?xml version="1.0" encoding="utf-8"?>
<!-- Generator: Adobe Illustrator 24.2.3, SVG Export Plug-In . SVG Version: 6.00 Build 0)  -->
<svg version="1.1" id="Layer_1" xmlns="http://www.w3.org/2000/svg" xmlns:xlink="http://www.w3.org/1999/xlink" x="0px" y="0px"
	 viewBox="0 0 300 8.3" style="enable-background:new 0 0 300 8.3;" xml:space="preserve">
<style type="text/css">
	.st0{fill:#FFFFFF;}
	.st1{fill:#999999;}
</style>
<g id="Group_2392" transform="translate(-454.522 -375.955)">
	<g id="Path_224">
		<path id="Path_231" class="st0" d="M753.8,383.3H455.2v-6.1h298.7V383.3L753.8,383.3z"/>
		<path id="Path_232" class="st1" d="M455.8,377.7v5.1h297.4v-5.1H455.8 M454.5,376.6h300v7.2h-300V376.6z"/>
	</g>
	<rect id="Rectangle_20102" x="454.8" y="376.3" class="st1" width="299.3" height="1.1"/>
	<path id="Path_233" class="st1" d="M752.9,376.7h-1.3V376h1.3V376.7z M750.2,376.7h-1.3V376h1.3V376.7z M747.6,376.7h-1.3V376h1.3
		V376.7z M745,376.7h-1.3V376h1.3V376.7z M742.4,376.7H741V376h1.3V376.7z M739.7,376.7h-1.3V376h1.3V376.7z M737.1,376.7h-1.3V376
		h1.3V376.7z M734.5,376.7h-1.3V376h1.3V376.7z M731.9,376.7h-1.3V376h1.3V376.7z M729.2,376.7h-1.3V376h1.3V376.7z M726.6,376.7
		h-1.3V376h1.3V376.7z M724,376.7h-1.3V376h1.3V376.7z M721.4,376.7H720V376h1.3V376.7z M718.7,376.7h-1.3V376h1.3V376.7z
		 M716.1,376.7h-1.3V376h1.3V376.7z M713.5,376.7h-1.3V376h1.3V376.7z M710.8,376.7h-1.3V376h1.3V376.7z M708.2,376.7h-1.3V376h1.3
		V376.7z M705.6,376.7h-1.3V376h1.3V376.7z M703,376.7h-1.3V376h1.3V376.7z M700.3,376.7H699V376h1.3V376.7z M697.7,376.7h-1.3V376
		h1.3V376.7z M695.1,376.7h-1.3V376h1.3V376.7z M692.5,376.7h-1.3V376h1.3V376.7z M689.8,376.7h-1.3V376h1.3V376.7z M687.2,376.7
		h-1.3V376h1.3V376.7z M684.6,376.7h-1.3V376h1.3V376.7z M682,376.7h-1.3V376h1.3V376.7z M679.3,376.7H678V376h1.3V376.7z
		 M676.7,376.7h-1.3V376h1.3V376.7z M674.1,376.7h-1.3V376h1.3V376.7z M671.5,376.7h-1.3V376h1.3V376.7z M668.8,376.7h-1.3V376h1.3
		V376.7z M666.2,376.7h-1.3V376h1.3V376.7z M663.6,376.7h-1.3V376h1.3V376.7z M661,376.7h-1.3V376h1.3V376.7z M658.3,376.7H657V376
		h1.3V376.7z M655.7,376.7h-1.3V376h1.3V376.7z M653.1,376.7h-1.3V376h1.3V376.7z M650.5,376.7h-1.3V376h1.3V376.7z M647.8,376.7
		h-1.3V376h1.3V376.7z M645.2,376.7h-1.3V376h1.3V376.7z M642.6,376.7h-1.3V376h1.3V376.7z M640,376.7h-1.3V376h1.3V376.7z
		 M637.3,376.7H636V376h1.3V376.7z M634.7,376.7h-1.3V376h1.3V376.7z M632.1,376.7h-1.3V376h1.3V376.7z M629.4,376.7h-1.3V376h1.3
		V376.7z M626.8,376.7h-1.3V376h1.3V376.7z M624.2,376.7h-1.3V376h1.3V376.7z M621.6,376.7h-1.3V376h1.3V376.7z M618.9,376.7h-1.3
		V376h1.3V376.7z M616.3,376.7H615V376h1.3V376.7z M613.7,376.7h-1.3V376h1.3V376.7z M611.1,376.7h-1.3V376h1.3V376.7z M608.4,376.7
		h-1.3V376h1.3V376.7z M605.8,376.7h-1.3V376h1.3V376.7z M603.2,376.7h-1.3V376h1.3V376.7z M600.6,376.7h-1.3V376h1.3V376.7z
		 M597.9,376.7h-1.3V376h1.3V376.7z M595.3,376.7H594V376h1.3V376.7z M592.7,376.7h-1.3V376h1.3V376.7z M590.1,376.7h-1.3V376h1.3
		V376.7z M587.4,376.7h-1.3V376h1.3V376.7z M584.8,376.7h-1.3V376h1.3V376.7z M582.2,376.7h-1.3V376h1.3V376.7z M579.6,376.7h-1.3
		V376h1.3V376.7z M576.9,376.7h-1.3V376h1.3V376.7z M574.3,376.7H573V376h1.3V376.7z M571.7,376.7h-1.3V376h1.3V376.7z M569.1,376.7
		h-1.3V376h1.3V376.7z M566.4,376.7h-1.3V376h1.3V376.7z M563.8,376.7h-1.3V376h1.3V376.7z M561.2,376.7h-1.3V376h1.3V376.7z
		 M558.6,376.7h-1.3V376h1.3V376.7z M555.9,376.7h-1.3V376h1.3V376.7z M553.3,376.7H552V376h1.3V376.7z M550.7,376.7h-1.3V376h1.3
		V376.7z M548,376.7h-1.3V376h1.3V376.7z M545.4,376.7h-1.3V376h1.3V376.7z M542.8,376.7h-1.3V376h1.3V376.7z M540.2,376.7h-1.3V376
		h1.3V376.7z M537.5,376.7h-1.3V376h1.3V376.7z M534.9,376.7h-1.3V376h1.3V376.7z M532.3,376.7H531V376h1.3V376.7z M529.7,376.7
		h-1.3V376h1.3V376.7z M527,376.7h-1.3V376h1.3V376.7z M524.4,376.7h-1.3V376h1.3V376.7z M521.8,376.7h-1.3V376h1.3V376.7z
		 M519.2,376.7h-1.3V376h1.3V376.7z M516.5,376.7h-1.3V376h1.3V376.7z M513.9,376.7h-1.3V376h1.3V376.7z M511.3,376.7H510V376h1.3
		V376.7z M508.7,376.7h-1.3V376h1.3V376.7z M506,376.7h-1.3V376h1.3V376.7z M503.4,376.7h-1.3V376h1.3V376.7z M500.8,376.7h-1.3V376
		h1.3V376.7z M498.2,376.7h-1.3V376h1.3V376.7z M495.5,376.7h-1.3V376h1.3V376.7z M492.9,376.7h-1.3V376h1.3V376.7z M490.3,376.7
		H489V376h1.3V376.7z M487.7,376.7h-1.3V376h1.3V376.7z M485,376.7h-1.3V376h1.3V376.7z M482.4,376.7h-1.3V376h1.3V376.7z
		 M479.8,376.7h-1.3V376h1.3V376.7z M477.2,376.7h-1.3V376h1.3V376.7z M474.5,376.7h-1.3V376h1.3V376.7z M471.9,376.7h-1.3V376h1.3
		V376.7z M469.3,376.7H468V376h1.3V376.7z M466.6,376.7h-1.3V376h1.3V376.7z M464,376.7h-1.3V376h1.3V376.7z M461.4,376.7h-1.3V376
		h1.3V376.7z M458.8,376.7h-1.3V376h1.3V376.7z M456.1,376.7h-1.3V376h1.3V376.7z"/>
	<rect id="Rectangle_20103" x="454.8" y="382.8" class="st1" width="299.3" height="1.1"/>
	<path id="Path_234" class="st1" d="M752.9,384.3h-1.3v-0.8h1.3V384.3z M750.2,384.3h-1.3v-0.8h1.3V384.3z M747.6,384.3h-1.3v-0.8
		h1.3V384.3z M745,384.3h-1.3v-0.8h1.3V384.3z M742.4,384.3H741v-0.8h1.3V384.3z M739.7,384.3h-1.3v-0.8h1.3V384.3z M737.1,384.3
		h-1.3v-0.8h1.3V384.3z M734.5,384.3h-1.3v-0.8h1.3V384.3z M731.9,384.3h-1.3v-0.8h1.3V384.3z M729.2,384.3h-1.3v-0.8h1.3V384.3z
		 M726.6,384.3h-1.3v-0.8h1.3V384.3z M724,384.3h-1.3v-0.8h1.3V384.3z M721.4,384.3H720v-0.8h1.3V384.3z M718.7,384.3h-1.3v-0.8h1.3
		V384.3z M716.1,384.3h-1.3v-0.8h1.3V384.3z M713.5,384.3h-1.3v-0.8h1.3V384.3z M710.8,384.3h-1.3v-0.8h1.3V384.3z M708.2,384.3
		h-1.3v-0.8h1.3V384.3z M705.6,384.3h-1.3v-0.8h1.3V384.3z M703,384.3h-1.3v-0.8h1.3V384.3z M700.3,384.3H699v-0.8h1.3V384.3z
		 M697.7,384.3h-1.3v-0.8h1.3V384.3z M695.1,384.3h-1.3v-0.8h1.3V384.3z M692.5,384.3h-1.3v-0.8h1.3V384.3z M689.8,384.3h-1.3v-0.8
		h1.3V384.3z M687.2,384.3h-1.3v-0.8h1.3V384.3z M684.6,384.3h-1.3v-0.8h1.3V384.3z M682,384.3h-1.3v-0.8h1.3V384.3z M679.3,384.3
		H678v-0.8h1.3V384.3z M676.7,384.3h-1.3v-0.8h1.3V384.3z M674.1,384.3h-1.3v-0.8h1.3V384.3z M671.5,384.3h-1.3v-0.8h1.3V384.3z
		 M668.8,384.3h-1.3v-0.8h1.3V384.3z M666.2,384.3h-1.3v-0.8h1.3V384.3z M663.6,384.3h-1.3v-0.8h1.3V384.3z M661,384.3h-1.3v-0.8
		h1.3V384.3z M658.3,384.3H657v-0.8h1.3V384.3z M655.7,384.3h-1.3v-0.8h1.3V384.3z M653.1,384.3h-1.3v-0.8h1.3V384.3z M650.5,384.3
		h-1.3v-0.8h1.3V384.3z M647.8,384.3h-1.3v-0.8h1.3V384.3z M645.2,384.3h-1.3v-0.8h1.3V384.3z M642.6,384.3h-1.3v-0.8h1.3V384.3z
		 M640,384.3h-1.3v-0.8h1.3V384.3z M637.3,384.3H636v-0.8h1.3V384.3z M634.7,384.3h-1.3v-0.8h1.3V384.3z M632.1,384.3h-1.3v-0.8h1.3
		V384.3z M629.4,384.3h-1.3v-0.8h1.3V384.3z M626.8,384.3h-1.3v-0.8h1.3V384.3z M624.2,384.3h-1.3v-0.8h1.3V384.3z M621.6,384.3
		h-1.3v-0.8h1.3V384.3z M618.9,384.3h-1.3v-0.8h1.3V384.3z M616.3,384.3H615v-0.8h1.3V384.3z M613.7,384.3h-1.3v-0.8h1.3V384.3z
		 M611.1,384.3h-1.3v-0.8h1.3V384.3z M608.4,384.3h-1.3v-0.8h1.3V384.3z M605.8,384.3h-1.3v-0.8h1.3V384.3z M603.2,384.3h-1.3v-0.8
		h1.3V384.3z M600.6,384.3h-1.3v-0.8h1.3V384.3z M597.9,384.3h-1.3v-0.8h1.3V384.3z M595.3,384.3H594v-0.8h1.3V384.3z M592.7,384.3
		h-1.3v-0.8h1.3V384.3z M590.1,384.3h-1.3v-0.8h1.3V384.3z M587.4,384.3h-1.3v-0.8h1.3V384.3z M584.8,384.3h-1.3v-0.8h1.3V384.3z
		 M582.2,384.3h-1.3v-0.8h1.3V384.3z M579.6,384.3h-1.3v-0.8h1.3V384.3z M576.9,384.3h-1.3v-0.8h1.3V384.3z M574.3,384.3H573v-0.8
		h1.3V384.3z M571.7,384.3h-1.3v-0.8h1.3V384.3z M569.1,384.3h-1.3v-0.8h1.3V384.3z M566.4,384.3h-1.3v-0.8h1.3V384.3z M563.8,384.3
		h-1.3v-0.8h1.3V384.3z M561.2,384.3h-1.3v-0.8h1.3V384.3z M558.6,384.3h-1.3v-0.8h1.3V384.3z M555.9,384.3h-1.3v-0.8h1.3V384.3z
		 M553.3,384.3H552v-0.8h1.3V384.3z M550.7,384.3h-1.3v-0.8h1.3V384.3z M548,384.3h-1.3v-0.8h1.3V384.3z M545.4,384.3h-1.3v-0.8h1.3
		V384.3z M542.8,384.3h-1.3v-0.8h1.3V384.3z M540.2,384.3h-1.3v-0.8h1.3V384.3z M537.5,384.3h-1.3v-0.8h1.3V384.3z M534.9,384.3
		h-1.3v-0.8h1.3V384.3z M532.3,384.3H531v-0.8h1.3V384.3z M529.7,384.3h-1.3v-0.8h1.3V384.3z M527,384.3h-1.3v-0.8h1.3V384.3z
		 M524.4,384.3h-1.3v-0.8h1.3V384.3z M521.8,384.3h-1.3v-0.8h1.3V384.3z M519.2,384.3h-1.3v-0.8h1.3V384.3z M516.5,384.3h-1.3v-0.8
		h1.3V384.3z M513.9,384.3h-1.3v-0.8h1.3V384.3z M511.3,384.3H510v-0.8h1.3V384.3z M508.7,384.3h-1.3v-0.8h1.3V384.3z M506,384.3
		h-1.3v-0.8h1.3V384.3z M503.4,384.3h-1.3v-0.8h1.3V384.3z M500.8,384.3h-1.3v-0.8h1.3V384.3z M498.2,384.3h-1.3v-0.8h1.3V384.3z
		 M495.5,384.3h-1.3v-0.8h1.3V384.3z M492.9,384.3h-1.3v-0.8h1.3V384.3z M490.3,384.3H489v-0.8h1.3V384.3z M487.7,384.3h-1.3v-0.8
		h1.3V384.3z M485,384.3h-1.3v-0.8h1.3V384.3z M482.4,384.3h-1.3v-0.8h1.3V384.3z M479.8,384.3h-1.3v-0.8h1.3V384.3z M477.2,384.3
		h-1.3v-0.8h1.3V384.3z M474.5,384.3h-1.3v-0.8h1.3V384.3z M471.9,384.3h-1.3v-0.8h1.3V384.3z M469.3,384.3H468v-0.8h1.3V384.3z
		 M466.6,384.3h-1.3v-0.8h1.3V384.3z M464,384.3h-1.3v-0.8h1.3V384.3z M461.4,384.3h-1.3v-0.8h1.3V384.3z M458.8,384.3h-1.3v-0.8
		h1.3V384.3z M456.1,384.3h-1.3v-0.8h1.3V384.3z"/>
	<rect id="Rectangle_20104" x="454.8" y="378.5" class="st1" width="299.3" height="1.1"/>
	<rect id="Rectangle_20105" x="454.8" y="380.7" class="st1" width="299.3" height="1.1"/>
</g>
</svg>
