<?xml version="1.0" encoding="utf-8"?>
<!-- Generator: Adobe Illustrator 24.2.3, SVG Export Plug-In . SVG Version: 6.00 Build 0)  -->
<svg version="1.1" id="Layer_1" xmlns="http://www.w3.org/2000/svg" xmlns:xlink="http://www.w3.org/1999/xlink" x="0px" y="0px"
	 viewBox="0 0 300 2.3" style="enable-background:new 0 0 300 2.3;" xml:space="preserve">
<style type="text/css">
	.st0{fill:#999999;}
</style>
<g id="Path_239">
	<path class="st0" d="M300,2.3h-2.3V0h2.3V2.3z M295.5,2.3h-2.3V0h2.3V2.3z M291,2.3h-2.3V0h2.3V2.3z M286.5,2.3h-2.3V0h2.3V2.3z
		 M282,2.3h-2.3V0h2.3V2.3z M277.4,2.3h-2.3V0h2.3V2.3z M272.9,2.3h-2.3V0h2.3V2.3z M268.4,2.3h-2.3V0h2.3V2.3z M263.9,2.3h-2.3V0
		h2.3V2.3z M259.4,2.3h-2.3V0h2.3V2.3z M254.9,2.3h-2.3V0h2.3V2.3z M250.4,2.3h-2.3V0h2.3V2.3z M245.9,2.3h-2.3V0h2.3V2.3z
		 M241.4,2.3h-2.3V0h2.3V2.3z M236.8,2.3h-2.3V0h2.3V2.3z M232.3,2.3h-2.3V0h2.3V2.3z M227.8,2.3h-2.3V0h2.3V2.3z M223.3,2.3h-2.3V0
		h2.3V2.3z M218.8,2.3h-2.3V0h2.3V2.3z M214.3,2.3H212V0h2.3V2.3z M209.8,2.3h-2.3V0h2.3V2.3z M205.3,2.3H203V0h2.3V2.3z M200.8,2.3
		h-2.3V0h2.3V2.3z M196.2,2.3H194V0h2.3V2.3z M191.7,2.3h-2.3V0h2.3V2.3z M187.2,2.3H185V0h2.3V2.3z M182.7,2.3h-2.3V0h2.3V2.3z
		 M178.2,2.3h-2.3V0h2.3V2.3z M173.7,2.3h-2.3V0h2.3V2.3z M169.2,2.3h-2.3V0h2.3V2.3z M164.7,2.3h-2.3V0h2.3V2.3z M160.2,2.3h-2.3V0
		h2.3V2.3z M155.6,2.3h-2.3V0h2.3V2.3z M151.1,2.3h-2.3V0h2.3V2.3z M146.6,2.3h-2.3V0h2.3V2.3z M142.1,2.3h-2.3V0h2.3V2.3z
		 M137.6,2.3h-2.3V0h2.3V2.3z M133.1,2.3h-2.3V0h2.3V2.3z M128.6,2.3h-2.3V0h2.3V2.3z M124.1,2.3h-2.3V0h2.3V2.3z M119.5,2.3h-2.3V0
		h2.3V2.3z M115,2.3h-2.3V0h2.3V2.3z M110.5,2.3h-2.3V0h2.3V2.3z M106,2.3h-2.3V0h2.3V2.3z M101.5,2.3h-2.3V0h2.3V2.3z M97,2.3h-2.3
		V0H97V2.3z M92.5,2.3h-2.3V0h2.3V2.3z M88,2.3h-2.3V0H88V2.3z M83.5,2.3h-2.3V0h2.3V2.3z M78.9,2.3h-2.3V0h2.3V2.3z M74.4,2.3h-2.3
		V0h2.3V2.3z M69.9,2.3h-2.3V0h2.3V2.3z M65.4,2.3h-2.3V0h2.3V2.3z M60.9,2.3h-2.3V0h2.3V2.3z M56.4,2.3h-2.3V0h2.3V2.3z M51.9,2.3
		h-2.3V0h2.3V2.3z M47.4,2.3h-2.3V0h2.3V2.3z M42.9,2.3h-2.3V0h2.3V2.3z M38.3,2.3h-2.3V0h2.3V2.3z M33.8,2.3h-2.3V0h2.3V2.3z
		 M29.3,2.3h-2.3V0h2.3V2.3z M24.8,2.3h-2.3V0h2.3V2.3z M20.3,2.3H18V0h2.3V2.3z M15.8,2.3h-2.3V0h2.3V2.3z M11.3,2.3H9V0h2.3V2.3z
		 M6.8,2.3H4.5V0h2.3V2.3z M2.3,2.3H0V0h2.3V2.3z"/>
</g>
</svg>
