<?xml version="1.0" encoding="utf-8"?>
<!-- Generator: Adobe Illustrator 24.2.3, SVG Export Plug-In . SVG Version: 6.00 Build 0)  -->
<svg version="1.1" id="Layer_1" xmlns="http://www.w3.org/2000/svg" xmlns:xlink="http://www.w3.org/1999/xlink" x="0px" y="0px"
	 viewBox="0 0 300 620" style="enable-background:new 0 0 300 620;" xml:space="preserve">
<style type="text/css">
	.st0{fill:#00A64F;}
	.st1{opacity:0.09;clip-path:url(#SVGID_2_);}
	.st2{fill:none;stroke:#FFFFFF;}
	.st3{fill:#FFFFFF;}
	.st4{opacity:0.3;fill:#221F1F;enable-background:new    ;}
	.st5{fill:#3A3A3A;}
	.st6{fill:#E2882E;}
	.st7{fill:#F8A247;}
	.st8{fill:#FFE8C3;}
	.st9{fill:#C52127;}
	.st10{fill:#BE7944;}
	.st11{fill:#D72027;}
	.st12{fill:#D1884E;}
	.st13{fill:#283982;}
	.st14{fill:#223F98;}
	.st15{fill:#359E47;}
	.st16{fill:#2C8942;}
	.st17{fill:#855323;}
	.st18{clip-path:url(#SVGID_4_);}
	.st19{fill:none;stroke:#5D3513;}
	.st20{fill:url(#Path_1346_1_);}
	.st21{fill:url(#Path_1347_1_);}
	.st22{fill:url(#Path_1348_1_);}
	.st23{fill:url(#Path_1349_1_);}
	.st24{fill:url(#Path_1350_1_);}
	.st25{fill:url(#Rectangle_20107_1_);}
	.st26{fill:#424143;}
	.st27{fill:url(#Rectangle_20108_1_);}
	.st28{fill:#D12027;}
	.st29{fill:url(#Rectangle_20109_1_);}
	.st30{fill:url(#Rectangle_20110_1_);}
	.st31{fill:url(#Rectangle_20111_1_);}
	.st32{fill:#237339;}
	.st33{fill:#27572A;}
	.st34{fill:#FCED1E;}
	.st35{fill:url(#Path_1417_1_);}
	.st36{fill:url(#Path_1425_1_);}
	.st37{opacity:0.2;fill:#FFFFFF;enable-background:new    ;}
	.st38{fill:#C32026;}
	.st39{fill:#9A857A;}
	.st40{fill:#00A79C;}
	.st41{fill:url(#Path_1402_1_);}
	.st42{fill:url(#Path_1408_1_);}
	.st43{opacity:0.1;fill:#FFFFFF;enable-background:new    ;}
	.st44{fill:#7DC142;}
	.st45{fill:#00A1D8;}
	.st46{fill:url(#Path_1387_1_);}
	.st47{fill:url(#Path_1398_1_);}
	.st48{fill:url(#Rectangle_20132_1_);}
	.st49{fill:url(#Path_1461_1_);}
	.st50{fill:#A3CF65;}
	.st51{fill:url(#Path_1470_1_);}
	.st52{fill:url(#Path_1471_1_);}
	.st53{fill:url(#Path_1472_1_);}
	.st54{fill:url(#Path_1474_1_);}
	.st55{fill:url(#Path_1475_1_);}
	.st56{fill:url(#Path_1476_1_);}
	.st57{fill:url(#Path_1478_1_);}
	.st58{fill:url(#Path_1479_1_);}
	.st59{fill:url(#Path_1480_1_);}
	.st60{fill:url(#Path_1482_1_);}
	.st61{fill:url(#Path_1483_1_);}
	.st62{fill:url(#Path_1484_1_);}
	.st63{fill:url(#Path_1486_1_);}
	.st64{fill:url(#Path_1487_1_);}
	.st65{fill:url(#Path_1488_1_);}
	.st66{fill:url(#Path_1490_1_);}
	.st67{fill:url(#Path_1491_1_);}
	.st68{fill:url(#Path_1492_1_);}
	.st69{fill:url(#Path_1494_1_);}
	.st70{fill:url(#Path_1495_1_);}
	.st71{fill:url(#Path_1496_1_);}
	.st72{fill:url(#Path_1498_1_);}
	.st73{fill:url(#Path_1499_1_);}
	.st74{fill:url(#Path_1500_1_);}
	.st75{fill:url(#Path_1502_1_);}
	.st76{fill:url(#Path_1503_1_);}
	.st77{fill:url(#Path_1504_1_);}
	.st78{fill:url(#Path_1506_1_);}
	.st79{fill:url(#Path_1507_1_);}
	.st80{fill:url(#Path_1508_1_);}
	.st81{fill:url(#Path_1510_1_);}
	.st82{fill:url(#Path_1511_1_);}
	.st83{fill:url(#Path_1512_1_);}
	.st84{fill:url(#Path_1514_1_);}
	.st85{fill:url(#Path_1515_1_);}
	.st86{fill:url(#Path_1516_1_);}
	.st87{fill:url(#Path_1518_1_);}
	.st88{fill:url(#Path_1519_1_);}
	.st89{fill:url(#Path_1520_1_);}
	.st90{fill:#CDC4AF;}
	.st91{fill:url(#Path_1522_1_);}
	.st92{fill:url(#Path_1523_1_);}
	.st93{fill:url(#Path_1524_1_);}
	.st94{fill:url(#Path_1526_1_);}
	.st95{fill:url(#Path_1527_1_);}
	.st96{fill:url(#Path_1528_1_);}
	.st97{fill:url(#Path_1530_1_);}
	.st98{fill:url(#Path_1531_1_);}
	.st99{fill:url(#Path_1532_1_);}
	.st100{fill:url(#Path_1534_1_);}
	.st101{fill:url(#Path_1535_1_);}
	.st102{fill:url(#Path_1536_1_);}
	.st103{fill:url(#Path_1538_1_);}
	.st104{fill:url(#Path_1539_1_);}
	.st105{fill:url(#Path_1540_1_);}
	.st106{fill:url(#Path_1542_1_);}
	.st107{fill:url(#Path_1543_1_);}
	.st108{fill:url(#Path_1544_1_);}
	.st109{fill:url(#Path_1546_1_);}
	.st110{fill:url(#Path_1547_1_);}
	.st111{fill:url(#Path_1548_1_);}
	.st112{fill:url(#Path_1554_1_);}
	.st113{fill:url(#Path_1555_1_);}
	.st114{fill:url(#Path_1556_1_);}
	.st115{fill:url(#Path_1558_1_);}
	.st116{fill:url(#Path_1559_1_);}
	.st117{fill:url(#Path_1560_1_);}
	.st118{fill:url(#Path_1562_1_);}
	.st119{fill:url(#Path_1563_1_);}
	.st120{fill:url(#Path_1564_1_);}
	.st121{fill:url(#Path_1566_1_);}
	.st122{fill:url(#Path_1567_1_);}
	.st123{fill:url(#Path_1568_1_);}
	.st124{fill:url(#Path_1570_1_);}
	.st125{fill:url(#Path_1571_1_);}
	.st126{fill:url(#Path_1572_1_);}
	.st127{fill:url(#Path_1574_1_);}
	.st128{fill:url(#Path_1575_1_);}
	.st129{fill:url(#Path_1576_1_);}
	.st130{fill:url(#Path_1578_1_);}
	.st131{fill:url(#Path_1579_1_);}
	.st132{fill:url(#Path_1580_1_);}
	.st133{fill:url(#Path_1582_1_);}
	.st134{fill:url(#Path_1583_1_);}
	.st135{fill:url(#Path_1584_1_);}
	.st136{fill:url(#Path_1586_1_);}
	.st137{fill:url(#Path_1587_1_);}
	.st138{fill:url(#Path_1588_1_);}
	.st139{fill:url(#Path_1590_1_);}
	.st140{fill:url(#Path_1591_1_);}
	.st141{fill:url(#Path_1592_1_);}
	.st142{fill:url(#Path_1594_1_);}
	.st143{fill:url(#Path_1595_1_);}
	.st144{fill:url(#Path_1596_1_);}
	.st145{fill:url(#Path_1598_1_);}
	.st146{fill:url(#Path_1599_1_);}
	.st147{fill:url(#Path_1600_1_);}
	.st148{fill:url(#Path_1602_1_);}
	.st149{fill:url(#Path_1603_1_);}
	.st150{fill:url(#Path_1604_1_);}
	.st151{fill:url(#Path_1606_1_);}
	.st152{fill:url(#Path_1607_1_);}
	.st153{fill:url(#Path_1608_1_);}
	.st154{fill:url(#Path_1610_1_);}
	.st155{fill:url(#Path_1611_1_);}
	.st156{fill:url(#Path_1612_1_);}
	.st157{fill:url(#Path_1614_1_);}
	.st158{fill:url(#Path_1615_1_);}
	.st159{fill:url(#Path_1616_1_);}
	.st160{fill:url(#Path_1618_1_);}
	.st161{fill:url(#Path_1619_1_);}
	.st162{fill:url(#Path_1620_1_);}
	.st163{fill:url(#Path_1622_1_);}
	.st164{fill:url(#Path_1623_1_);}
	.st165{fill:url(#Path_1624_1_);}
	.st166{fill:url(#Path_1626_1_);}
	.st167{fill:url(#Path_1627_1_);}
	.st168{fill:url(#Path_1628_1_);}
	.st169{fill:url(#Path_1630_1_);}
	.st170{fill:url(#Path_1631_1_);}
	.st171{fill:url(#Path_1632_1_);}
	.st172{fill:url(#Path_1634_1_);}
	.st173{fill:url(#Path_1635_1_);}
	.st174{fill:url(#Path_1636_1_);}
	.st175{fill:url(#Path_1638_1_);}
	.st176{fill:url(#Path_1639_1_);}
	.st177{fill:url(#Path_1640_1_);}
	.st178{fill:#30B8B0;}
	.st179{fill:url(#Path_1650_1_);}
	.st180{fill:url(#Path_1651_1_);}
	.st181{fill:url(#Path_1652_1_);}
	.st182{fill:url(#Path_1654_1_);}
	.st183{fill:url(#Path_1655_1_);}
	.st184{fill:url(#Path_1656_1_);}
	.st185{fill:url(#Path_1658_1_);}
	.st186{fill:url(#Path_1659_1_);}
	.st187{fill:url(#Path_1660_1_);}
	.st188{fill:url(#Path_1661_1_);}
	.st189{fill:url(#Path_1662_1_);}
	.st190{fill:url(#Path_1663_1_);}
	.st191{fill:url(#Path_1665_1_);}
	.st192{fill:url(#Ellipse_19_1_);}
	.st193{fill:url(#Path_1666_1_);}
	.st194{fill:url(#Path_1668_1_);}
	.st195{fill:url(#Path_1669_1_);}
	.st196{fill:url(#Path_1670_1_);}
	.st197{fill:url(#Path_1672_1_);}
	.st198{fill:url(#Path_1673_1_);}
	.st199{fill:url(#Path_1674_1_);}
	.st200{fill:url(#Path_1676_1_);}
	.st201{fill:url(#Path_1677_1_);}
	.st202{fill:url(#Path_1678_1_);}
	.st203{fill:url(#Path_1679_1_);}
	.st204{fill:url(#Path_1680_1_);}
	.st205{fill:url(#Path_1681_1_);}
	.st206{fill:url(#Path_1683_1_);}
	.st207{fill:url(#Path_1684_1_);}
	.st208{fill:url(#Path_1685_1_);}
	.st209{fill:url(#Path_1687_1_);}
	.st210{fill:url(#Path_1688_1_);}
	.st211{fill:url(#Path_1689_1_);}
	.st212{fill:url(#Path_1691_1_);}
	.st213{fill:url(#Path_1692_1_);}
	.st214{fill:url(#Path_1693_1_);}
	.st215{fill:url(#Path_1695_1_);}
	.st216{fill:url(#Path_1696_1_);}
	.st217{fill:url(#Path_1697_1_);}
	.st218{fill:url(#Path_1699_1_);}
	.st219{fill:url(#Path_1700_1_);}
	.st220{fill:url(#Path_1701_1_);}
	.st221{fill:url(#Path_1703_1_);}
	.st222{fill:url(#Path_1704_1_);}
	.st223{fill:url(#Path_1705_1_);}
	.st224{fill:url(#Path_1707_1_);}
	.st225{fill:url(#Path_1708_1_);}
	.st226{fill:url(#Path_1709_1_);}
	.st227{fill:url(#Path_1711_1_);}
	.st228{fill:url(#Path_1712_1_);}
	.st229{fill:url(#Path_1713_1_);}
	.st230{fill:url(#Path_1715_1_);}
	.st231{fill:url(#Path_1716_1_);}
	.st232{fill:url(#Path_1717_1_);}
	.st233{fill:url(#Path_1719_1_);}
	.st234{fill:url(#Path_1720_1_);}
	.st235{fill:url(#Path_1721_1_);}
	.st236{fill:url(#Path_1723_1_);}
	.st237{fill:url(#Path_1724_1_);}
	.st238{fill:url(#Path_1725_1_);}
	.st239{fill:url(#Path_1727_1_);}
	.st240{fill:url(#Path_1728_1_);}
	.st241{fill:url(#Path_1729_1_);}
	.st242{fill:url(#Path_1731_1_);}
	.st243{fill:url(#Path_1732_1_);}
	.st244{fill:url(#Path_1733_1_);}
	.st245{fill:url(#Path_1735_1_);}
	.st246{fill:url(#Path_1736_1_);}
	.st247{fill:url(#Path_1737_1_);}
	.st248{fill:url(#Path_1739_1_);}
	.st249{fill:url(#Path_1740_1_);}
	.st250{fill:url(#Path_1741_1_);}
	.st251{fill:url(#Path_1743_1_);}
	.st252{fill:url(#Path_1744_1_);}
	.st253{fill:url(#Path_1745_1_);}
	.st254{fill:url(#Path_1747_1_);}
	.st255{fill:url(#Path_1748_1_);}
	.st256{fill:url(#Path_1749_1_);}
	.st257{fill:url(#Path_1751_1_);}
	.st258{fill:url(#Path_1752_1_);}
	.st259{fill:url(#Path_1753_1_);}
	.st260{fill:url(#Path_1755_1_);}
	.st261{fill:url(#Path_1756_1_);}
	.st262{fill:url(#Path_1757_1_);}
	.st263{fill:url(#Path_1759_1_);}
	.st264{fill:url(#Path_1760_1_);}
	.st265{fill:url(#Path_1761_1_);}
	.st266{fill:#D03333;}
	.st267{fill:url(#Path_1799_1_);}
	.st268{fill:url(#Path_1800_1_);}
	.st269{fill:url(#Path_1801_1_);}
	.st270{fill:url(#Path_1803_1_);}
	.st271{fill:url(#Path_1804_1_);}
	.st272{fill:url(#Path_1805_1_);}
	.st273{fill:url(#Path_1807_1_);}
	.st274{fill:url(#Path_1808_1_);}
	.st275{fill:url(#Path_1809_1_);}
	.st276{fill:url(#Path_1810_1_);}
	.st277{fill:url(#Path_1811_1_);}
	.st278{fill:url(#Path_1812_1_);}
	.st279{fill:url(#Path_1814_1_);}
	.st280{fill:url(#Ellipse_22_1_);}
	.st281{fill:url(#Path_1815_1_);}
	.st282{fill:url(#Path_1817_1_);}
	.st283{fill:url(#Path_1818_1_);}
	.st284{fill:url(#Path_1819_1_);}
	.st285{fill:url(#Path_1821_1_);}
	.st286{fill:url(#Path_1822_1_);}
	.st287{fill:url(#Path_1823_1_);}
	.st288{fill:url(#Path_1825_1_);}
	.st289{fill:url(#Path_1826_1_);}
	.st290{fill:url(#Path_1827_1_);}
	.st291{fill:url(#Path_1828_1_);}
	.st292{fill:url(#Path_1829_1_);}
	.st293{fill:url(#Path_1830_1_);}
	.st294{fill:url(#Path_1832_1_);}
	.st295{fill:url(#Path_1833_1_);}
	.st296{fill:url(#Path_1834_1_);}
	.st297{fill:url(#Path_1836_1_);}
	.st298{fill:url(#Path_1837_1_);}
	.st299{fill:url(#Path_1838_1_);}
	.st300{fill:url(#Path_1840_1_);}
	.st301{fill:url(#Path_1841_1_);}
	.st302{fill:url(#Path_1842_1_);}
	.st303{fill:url(#Path_1844_1_);}
	.st304{fill:url(#Path_1845_1_);}
	.st305{fill:url(#Path_1846_1_);}
	.st306{fill:url(#Path_1870_1_);}
	.st307{fill:url(#Path_1871_1_);}
	.st308{fill:url(#Path_1872_1_);}
	.st309{fill:url(#Path_1874_1_);}
	.st310{fill:url(#Path_1875_1_);}
	.st311{fill:url(#Path_1876_1_);}
	.st312{fill:url(#Path_1878_1_);}
	.st313{fill:url(#Path_1879_1_);}
	.st314{fill:url(#Path_1880_1_);}
	.st315{fill:url(#Path_1882_1_);}
	.st316{fill:url(#Path_1883_1_);}
	.st317{fill:url(#Path_1884_1_);}
	.st318{fill:url(#Path_1886_1_);}
	.st319{fill:url(#Path_1887_1_);}
	.st320{fill:url(#Path_1888_1_);}
	.st321{fill:url(#Path_1890_1_);}
	.st322{fill:url(#Path_1891_1_);}
	.st323{fill:url(#Path_1892_1_);}
	.st324{fill:url(#Path_1894_1_);}
	.st325{fill:url(#Path_1895_1_);}
	.st326{fill:url(#Path_1896_1_);}
	.st327{fill:url(#Path_1898_1_);}
	.st328{fill:url(#Path_1899_1_);}
	.st329{fill:url(#Path_1900_1_);}
	.st330{fill:url(#Path_1902_1_);}
	.st331{fill:url(#Path_1903_1_);}
	.st332{fill:url(#Path_1904_1_);}
	.st333{fill:url(#Path_1906_1_);}
	.st334{fill:url(#Path_1907_1_);}
	.st335{fill:url(#Path_1908_1_);}
	.st336{fill:#33B4DF;}
	.st337{fill:url(#Path_1950_1_);}
	.st338{fill:url(#Path_1951_1_);}
	.st339{fill:url(#Path_1952_1_);}
	.st340{fill:url(#Path_1954_1_);}
	.st341{fill:url(#Path_1955_1_);}
	.st342{fill:url(#Path_1956_1_);}
	.st343{fill:url(#Path_1958_1_);}
	.st344{fill:url(#Path_1959_1_);}
	.st345{fill:url(#Path_1960_1_);}
	.st346{fill:url(#Path_1961_1_);}
	.st347{fill:url(#Path_1962_1_);}
	.st348{fill:url(#Path_1963_1_);}
	.st349{fill:url(#Path_1965_1_);}
	.st350{fill:url(#Ellipse_27_1_);}
	.st351{fill:url(#Path_1966_1_);}
	.st352{fill:url(#Path_1968_1_);}
	.st353{fill:url(#Path_1969_1_);}
	.st354{fill:url(#Path_1970_1_);}
	.st355{fill:url(#Path_1972_1_);}
	.st356{fill:url(#Path_1973_1_);}
	.st357{fill:url(#Path_1974_1_);}
	.st358{fill:url(#Path_1976_1_);}
	.st359{fill:url(#Path_1977_1_);}
	.st360{fill:url(#Path_1978_1_);}
	.st361{fill:url(#Path_1979_1_);}
	.st362{fill:url(#Path_1980_1_);}
	.st363{fill:url(#Path_1981_1_);}
	.st364{fill:url(#Path_1983_1_);}
	.st365{fill:url(#Path_1984_1_);}
	.st366{fill:url(#Path_1985_1_);}
	.st367{fill:url(#Path_1987_1_);}
	.st368{fill:url(#Path_1988_1_);}
	.st369{fill:url(#Path_1989_1_);}
	.st370{fill:url(#Path_1991_1_);}
	.st371{fill:url(#Path_1992_1_);}
	.st372{fill:url(#Path_1993_1_);}
	.st373{fill:url(#Path_1995_1_);}
	.st374{fill:url(#Path_1996_1_);}
	.st375{fill:url(#Path_1997_1_);}
	.st376{fill:url(#Path_1998_1_);}
	.st377{fill:url(#Path_1999_1_);}
	.st378{fill:url(#Path_2000_1_);}
	.st379{fill:url(#Path_2033_1_);}
	.st380{fill:url(#Path_2034_1_);}
	.st381{fill:url(#Path_2035_1_);}
	.st382{fill:url(#Path_2037_1_);}
	.st383{fill:url(#Path_2038_1_);}
	.st384{fill:url(#Path_2039_1_);}
	.st385{fill:url(#Path_2041_1_);}
	.st386{fill:url(#Path_2042_1_);}
	.st387{fill:url(#Path_2043_1_);}
	.st388{fill:url(#Path_2044_1_);}
	.st389{fill:url(#Path_2045_1_);}
	.st390{fill:url(#Path_2046_1_);}
	.st391{fill:url(#Path_2048_1_);}
	.st392{fill:url(#Ellipse_32_1_);}
	.st393{fill:url(#Path_2049_1_);}
	.st394{fill:url(#Path_2051_1_);}
	.st395{fill:url(#Path_2052_1_);}
	.st396{fill:url(#Path_2053_1_);}
	.st397{fill:url(#Path_2055_1_);}
	.st398{fill:url(#Path_2056_1_);}
	.st399{fill:url(#Path_2057_1_);}
	.st400{fill:url(#Path_2059_1_);}
	.st401{fill:url(#Path_2060_1_);}
	.st402{fill:url(#Path_2061_1_);}
	.st403{fill:url(#Path_2062_1_);}
	.st404{fill:url(#Path_2063_1_);}
	.st405{fill:url(#Path_2064_1_);}
	.st406{fill:url(#Path_2066_1_);}
	.st407{fill:url(#Path_2067_1_);}
	.st408{fill:url(#Path_2068_1_);}
	.st409{fill:url(#Path_2070_1_);}
	.st410{fill:url(#Path_2071_1_);}
	.st411{fill:url(#Path_2072_1_);}
	.st412{fill:url(#Path_2074_1_);}
	.st413{fill:url(#Path_2075_1_);}
	.st414{fill:url(#Path_2076_1_);}
	.st415{fill:url(#Path_2078_1_);}
	.st416{fill:url(#Path_2079_1_);}
	.st417{fill:url(#Path_2080_1_);}
	.st418{fill:url(#Path_2081_1_);}
	.st419{fill:url(#Path_2082_1_);}
	.st420{fill:url(#Path_2083_1_);}
	.st421{fill:url(#Path_2085_1_);}
	.st422{fill:url(#Path_2086_1_);}
	.st423{fill:url(#Path_2087_1_);}
	.st424{opacity:0.53;fill:url(#Path_2123_1_);enable-background:new    ;}
	.st425{fill:url(#Path_2122_1_);}
	.st426{opacity:0.53;fill:url(#Path_2123-2_1_);enable-background:new    ;}
	.st427{fill:url(#Path_2122-2_1_);}
	.st428{opacity:0.53;fill:url(#Path_2123-3_1_);enable-background:new    ;}
	.st429{fill:url(#Path_2122-3_1_);}
	.st430{opacity:0.53;fill:url(#Path_2123-4_1_);enable-background:new    ;}
	.st431{fill:url(#Path_2122-4_1_);}
	.st432{opacity:0.53;fill:url(#Path_2123-5_2_);enable-background:new    ;}
	.st433{fill:url(#Path_2122-5_2_);}
	.st434{opacity:0.53;fill:url(#Path_2123-6_3_);enable-background:new    ;}
	.st435{fill:url(#Path_2122-6_3_);}
	.st436{opacity:0.53;fill:url(#Path_2123-7_1_);enable-background:new    ;}
	.st437{fill:url(#Path_2122-7_1_);}
	.st438{opacity:0.53;fill:url(#Path_2123-8_1_);enable-background:new    ;}
	.st439{fill:url(#Path_2122-8_1_);}
	.st440{opacity:0.53;fill:url(#Path_2123-9_1_);enable-background:new    ;}
	.st441{fill:url(#Path_2122-9_1_);}
	.st442{opacity:0.53;fill:url(#Path_2123-10_1_);enable-background:new    ;}
	.st443{fill:url(#Path_2122-10_1_);}
	.st444{opacity:0.53;fill:url(#Path_2123-11_1_);enable-background:new    ;}
	.st445{fill:url(#Path_2122-11_1_);}
	.st446{opacity:0.53;fill:url(#Path_2123-5_3_);enable-background:new    ;}
	.st447{fill:url(#Path_2122-5_3_);}
	.st448{opacity:0.53;fill:url(#Path_2123-6_4_);enable-background:new    ;}
	.st449{fill:url(#Path_2122-6_4_);}
	.st450{opacity:0.53;fill:url(#Path_2123-6_5_);enable-background:new    ;}
	.st451{fill:url(#Path_2122-6_5_);}
	.st452{opacity:0.53;fill:url(#Path_2123-12_4_);enable-background:new    ;}
	.st453{fill:url(#Path_2122-12_4_);}
	.st454{opacity:0.53;fill:url(#Path_2123-12_5_);enable-background:new    ;}
	.st455{fill:url(#Path_2122-12_5_);}
	.st456{opacity:0.53;fill:url(#Path_2123-13_1_);enable-background:new    ;}
	.st457{fill:url(#Path_2122-13_1_);}
	.st458{opacity:0.53;fill:url(#Path_2123-14_1_);enable-background:new    ;}
	.st459{fill:url(#Path_2122-14_1_);}
	.st460{opacity:0.53;fill:url(#Path_2123-15_1_);enable-background:new    ;}
	.st461{fill:url(#Path_2122-15_1_);}
	.st462{opacity:0.53;fill:url(#Path_2123-16_1_);enable-background:new    ;}
	.st463{fill:url(#Path_2122-16_1_);}
	.st464{opacity:0.53;fill:url(#Path_2123-17_1_);enable-background:new    ;}
	.st465{fill:url(#Path_2122-17_1_);}
	.st466{opacity:0.53;fill:url(#Path_2123-18_1_);enable-background:new    ;}
	.st467{fill:url(#Path_2122-18_1_);}
	.st468{opacity:0.53;fill:url(#Path_2123-19_1_);enable-background:new    ;}
	.st469{fill:url(#Path_2122-19_1_);}
	.st470{opacity:0.53;fill:url(#Path_2123-20_1_);enable-background:new    ;}
	.st471{fill:url(#Path_2122-20_1_);}
	.st472{opacity:0.53;fill:url(#Path_2123-21_1_);enable-background:new    ;}
	.st473{fill:url(#Path_2122-21_1_);}
	.st474{opacity:0.53;fill:url(#Path_2123-22_2_);enable-background:new    ;}
	.st475{fill:url(#Path_2122-22_2_);}
	.st476{opacity:0.53;fill:url(#Path_2123-22_3_);enable-background:new    ;}
	.st477{fill:url(#Path_2122-22_3_);}
	.st478{opacity:0.53;fill:url(#Path_2123-23_1_);enable-background:new    ;}
	.st479{fill:url(#Path_2122-23_1_);}
	.st480{opacity:0.53;fill:url(#Path_2123-24_1_);enable-background:new    ;}
	.st481{fill:url(#Path_2122-24_1_);}
	.st482{opacity:0.53;fill:url(#Path_2123-25_1_);enable-background:new    ;}
	.st483{fill:url(#Path_2122-25_1_);}
	.st484{opacity:0.53;fill:url(#Path_2123-26_1_);enable-background:new    ;}
	.st485{fill:url(#Path_2122-26_1_);}
	.st486{opacity:0.53;fill:url(#Path_2123-27_2_);enable-background:new    ;}
	.st487{fill:url(#Path_2122-27_2_);}
	.st488{opacity:0.53;fill:url(#Path_2123-27_3_);enable-background:new    ;}
	.st489{fill:url(#Path_2122-27_3_);}
	.st490{opacity:0.53;fill:url(#Path_2123-28_1_);enable-background:new    ;}
	.st491{fill:url(#Path_2122-28_1_);}
	.st492{opacity:0.53;fill:url(#Path_2123-29_1_);enable-background:new    ;}
	.st493{fill:url(#Path_2122-29_1_);}
	.st494{opacity:0.53;fill:url(#Path_2123-30_1_);enable-background:new    ;}
	.st495{fill:url(#Path_2122-30_1_);}
	.st496{opacity:0.53;fill:url(#Path_2123-31_1_);enable-background:new    ;}
	.st497{fill:url(#Path_2122-31_1_);}
	.st498{opacity:0.53;fill:url(#Path_2123-12_6_);enable-background:new    ;}
	.st499{fill:url(#Path_2122-12_6_);}
	.st500{opacity:0.53;fill:url(#Path_2123-12_7_);enable-background:new    ;}
	.st501{fill:url(#Path_2122-12_7_);}
	.st502{fill:#E4ECF0;}
	.st503{fill:#C3C5CB;}
	.st504{fill-rule:evenodd;clip-rule:evenodd;fill:#F08621;}
	.st505{fill-rule:evenodd;clip-rule:evenodd;fill:#D32027;}
	.st506{fill-rule:evenodd;clip-rule:evenodd;fill:#855323;}
	.st507{fill-rule:evenodd;clip-rule:evenodd;fill:#37B563;}
	.st508{fill-rule:evenodd;clip-rule:evenodd;fill:#0F934B;}
	.st509{opacity:0.24;fill:#FFFFFF;enable-background:new    ;}
	.st510{fill-rule:evenodd;clip-rule:evenodd;fill:#BF8D2C;}
	.st511{fill-rule:evenodd;clip-rule:evenodd;fill:#FDBC11;}
	.st512{fill-rule:evenodd;clip-rule:evenodd;fill:#FBBB82;}
	.st513{fill-rule:evenodd;clip-rule:evenodd;fill:#864E20;}
	.st514{opacity:0.04;fill-rule:evenodd;clip-rule:evenodd;fill:#FFFFFF;enable-background:new    ;}
	.st515{opacity:0.03;fill-rule:evenodd;clip-rule:evenodd;fill:#FFFFFF;enable-background:new    ;}
	.st516{fill-rule:evenodd;clip-rule:evenodd;fill:#CD3A27;}
	.st517{fill-rule:evenodd;clip-rule:evenodd;fill:#E34925;}
	.st518{fill:none;}
	.st519{opacity:0.53;fill:url(#Path_2123_8_);enable-background:new    ;}
	.st520{fill:url(#Path_2122_8_);}
	.st521{opacity:0.53;fill:url(#Path_2123-3_4_);enable-background:new    ;}
	.st522{fill:url(#Path_2122-3_4_);}
	.st523{opacity:0.53;fill:url(#Path_2123-4_4_);enable-background:new    ;}
	.st524{fill:url(#Path_2122-4_4_);}
	.st525{opacity:0.53;fill:url(#Path_2123-7_4_);enable-background:new    ;}
	.st526{fill:url(#Path_2122-7_4_);}
	.st527{opacity:0.53;fill:url(#Path_2123-8_4_);enable-background:new    ;}
	.st528{fill:url(#Path_2122-8_4_);}
	.st529{opacity:0.53;fill:url(#Path_2123-19_8_);enable-background:new    ;}
	.st530{fill:url(#Path_2122-19_8_);}
	.st531{opacity:0.53;fill:url(#Path_2123_9_);enable-background:new    ;}
	.st532{fill:url(#Path_2122_9_);}
	.st533{opacity:0.53;fill:url(#Path_2123-19_9_);enable-background:new    ;}
	.st534{fill:url(#Path_2122-19_9_);}
	.st535{opacity:0.53;fill:url(#Path_2123-19_10_);enable-background:new    ;}
	.st536{fill:url(#Path_2122-19_10_);}
	.st537{opacity:0.53;fill:url(#Path_2123_10_);enable-background:new    ;}
	.st538{fill:url(#Path_2122_10_);}
	.st539{opacity:0.53;fill:url(#Path_2123_11_);enable-background:new    ;}
	.st540{fill:url(#Path_2122_11_);}
	.st541{opacity:0.53;fill:url(#Path_2123-3_5_);enable-background:new    ;}
	.st542{fill:url(#Path_2122-3_5_);}
	.st543{opacity:0.53;fill:url(#Path_2123-4_5_);enable-background:new    ;}
	.st544{fill:url(#Path_2122-4_5_);}
	.st545{opacity:0.53;fill:url(#Path_2123-7_5_);enable-background:new    ;}
	.st546{fill:url(#Path_2122-7_5_);}
	.st547{opacity:0.53;fill:url(#Path_2123-8_5_);enable-background:new    ;}
	.st548{fill:url(#Path_2122-8_5_);}
	.st549{opacity:0.53;fill:url(#Path_2123-19_11_);enable-background:new    ;}
	.st550{fill:url(#Path_2122-19_11_);}
	.st551{opacity:0.53;fill:url(#Path_2123_12_);enable-background:new    ;}
	.st552{fill:url(#Path_2122_12_);}
	.st553{opacity:0.53;fill:url(#Path_2123-19_12_);enable-background:new    ;}
	.st554{fill:url(#Path_2122-19_12_);}
	.st555{opacity:0.53;fill:url(#Path_2123-19_13_);enable-background:new    ;}
	.st556{fill:url(#Path_2122-19_13_);}
	.st557{opacity:0.53;fill:url(#Path_2123_13_);enable-background:new    ;}
	.st558{fill:url(#Path_2122_13_);}
	.st559{fill:url(#Path_2320_2_);}
	.st560{fill:url(#Path_2323_2_);}
	.st561{fill:url(#Path_2327_2_);}
	.st562{fill:url(#Path_2326_2_);}
	.st563{fill:url(#Path_2328_2_);}
	.st564{fill:url(#Rectangle_20143_2_);}
	.st565{fill:url(#Path_2324_2_);}
	.st566{fill:url(#Path_2325_2_);}
	.st567{fill:#32BA9F;}
	.st568{fill:#F4F5F5;}
	.st569{fill:#E5E5E4;}
	.st570{fill:#E2E2E2;}
	.st571{fill:#F8B098;}
	.st572{fill:#EF4A23;}
	.st573{fill:#B53825;}
	.st574{fill:url(#Path_2315_2_);}
	.st575{fill:url(#Path_2316_2_);stroke:#D74326;}
	.st576{fill:url(#Path_2318_2_);}
	.st577{fill:url(#Path_2319_2_);stroke:#D74326;}
</style>
<g id="Group_6100_1_" transform="translate(-1726 -675)">
	
		<linearGradient id="Path_2320_2_" gradientUnits="userSpaceOnUse" x1="-827.4852" y1="1062.418" x2="-826.8354" y2="1062.4199" gradientTransform="matrix(19.509 0 0 -258.5 18156.752 275620.25)">
		<stop  offset="0" style="stop-color:#F19C34"/>
		<stop  offset="1" style="stop-color:#BC6A28"/>
	</linearGradient>
	<path id="Path_2320_1_" class="st559" d="M2006.49,927.76v301.29H2026V741.11h-19.51V927.76z"/>
	
		<linearGradient id="Path_2323_2_" gradientUnits="userSpaceOnUse" x1="-1044.996" y1="931.0092" x2="-1045.9417" y2="930.1725" gradientTransform="matrix(63.517 0 0 -64.6711 68406.3047 61450.5391)">
		<stop  offset="0" style="stop-color:#2D3036"/>
		<stop  offset="0.487" style="stop-color:#767576"/>
		<stop  offset="1" style="stop-color:#141517"/>
	</linearGradient>
	<path id="Path_2323_1_" class="st560" d="M2006.48,1256.53v2.97c-0.02,0.57-0.08,1.13-0.16,1.69c-0.82,7.84-7.29,13.8-15.02,13.84
		h-28.82v19.92h28.82c30.9,1.08,34.7-15.89,34.7-35.44v-30.46h-19.52V1256.53z"/>
	
		<linearGradient id="Path_2327_2_" gradientUnits="userSpaceOnUse" x1="-1044.6959" y1="934.908" x2="-1045.5347" y2="934.2866" gradientTransform="matrix(63.517 0 0 -64.6711 68406.3047 61127.2109)">
		<stop  offset="0" style="stop-color:#2D3036"/>
		<stop  offset="0.464" style="stop-color:#767576"/>
		<stop  offset="1" style="stop-color:#141517"/>
	</linearGradient>
	<path id="Path_2327_1_" class="st561" d="M2006.48,713.47v-2.97c-0.02-0.57-0.08-1.13-0.16-1.69c-0.82-7.84-7.29-13.8-15.02-13.84
		h-28.82v-19.92h28.82c30.9-1.08,34.7,15.89,34.7,35.44v30.46h-19.52V713.47z"/>
	
		<linearGradient id="Path_2326_2_" gradientUnits="userSpaceOnUse" x1="-1046.0807" y1="930.9515" x2="-1045.2297" y2="930.1631" gradientTransform="matrix(63.513 0 0 -64.6711 68165.25 61450.5391)">
		<stop  offset="0" style="stop-color:#2D3036"/>
		<stop  offset="0.476" style="stop-color:#767576"/>
		<stop  offset="1" style="stop-color:#141517"/>
	</linearGradient>
	<path id="Path_2326_1_" class="st562" d="M1745.51,1256.53v2.97c0.02,0.57,0.08,1.13,0.16,1.69c0.82,7.84,7.29,13.81,15.03,13.84
		h28.81v19.92h-28.81c-30.91,1.08-34.7-15.89-34.7-35.44v-30.46h19.51V1256.53z"/>
	
		<linearGradient id="Path_2328_2_" gradientUnits="userSpaceOnUse" x1="-1046.6321" y1="937.4567" x2="-1047.7272" y2="936.4899" gradientTransform="matrix(64.513 0 0 -65.6731 69308.0781 62235.6992)">
		<stop  offset="0" style="stop-color:#2D3036"/>
		<stop  offset="0.557" style="stop-color:#767576"/>
		<stop  offset="1" style="stop-color:#141517"/>
	</linearGradient>
	<path id="Path_2328_1_" class="st563" d="M1745.51,713.47v-2.97c0.02-0.57,0.08-1.13,0.16-1.69c0.82-7.85,7.29-13.81,15.03-13.84
		h29.81v-19.92h-29.81c-30.91-1.08-34.7,15.89-34.7,35.44v31.48h19.51V713.47z"/>
	
		<linearGradient id="Rectangle_20143_2_" gradientUnits="userSpaceOnUse" x1="-1106.9004" y1="526.075" x2="-1106.8972" y2="525.457" gradientTransform="matrix(173.456 0 0 -19.53 193874.1563 11557.1221)">
		<stop  offset="0" style="stop-color:#F19C34"/>
		<stop  offset="1" style="stop-color:#BC6A28"/>
	</linearGradient>
	<rect id="Rectangle_20143_1_" x="1789.03" y="1275.03" class="st564" width="173.45" height="19.92"/>
	
		<linearGradient id="Path_2324_2_" gradientUnits="userSpaceOnUse" x1="-1106.8998" y1="537.9424" x2="-1106.8998" y2="538.4523" gradientTransform="matrix(173.456 0 0 -19.534 193875.2656 11193.127)">
		<stop  offset="0" style="stop-color:#F19C34"/>
		<stop  offset="1" style="stop-color:#BC6A28"/>
	</linearGradient>
	<path id="Path_2324_1_" class="st565" d="M1876.88,694.92h86.72V675h-173.45v19.91L1876.88,694.92z"/>
	
		<linearGradient id="Path_2325_2_" gradientUnits="userSpaceOnUse" x1="-827.2004" y1="1062.4185" x2="-827.8364" y2="1062.4185" gradientTransform="matrix(19.509 0 0 -258.5 17876.2617 275620.25)">
		<stop  offset="0" style="stop-color:#F19C34"/>
		<stop  offset="1" style="stop-color:#BC6A28"/>
	</linearGradient>
	<path id="Path_2325_1_" class="st566" d="M1745.5,986.23v-4.66V741.11H1726v487.94h19.51L1745.5,986.23z"/>
	<path id="Path_2272_1_" class="st567" d="M1754.3,1284.13h242.92l-121.45-0.01L1754.3,1284.13z"/>
	<path id="Path_2273_1_" class="st567" d="M1738.32,846.52l0.01,134.86l-0.01-274.67V846.52z"/>
	<path id="Path_2274_1_" class="st568" d="M1842.7,701.82h0.18c0.08,0,0.15,0.04,0.22,0.05c0.21,0.01,0.42,0.06,0.63,0.13
		c0.11,0.05,0.2,0.11,0.31,0.17c0.16,0.09,0.31,0.19,0.45,0.31c0.11,0.11,0.18,0.24,0.29,0.36c0.08,0.09,0.16,0.19,0.22,0.29
		c5.99,11.74,17.79,19.21,30.76,19.46v-36.2l-91.18-0.01h-30.3c-8.47,0.04-15.45,6.81-15.89,15.44H1842.7z"/>
	<path id="Path_2275_1_" class="st568" d="M1875.77,1036.87v-11.92c-21.02-0.44-38.19-17.27-39.45-38.67h-98l0.01,137.34v141.06
		h103.23c6.99-12.62,20-20.52,34.21-20.77v-202.15 M1801.85,1197.77c-22.29,0.04-40.38-18.36-40.42-41.09
		c-0.03-22.73,18.01-41.18,40.29-41.22c22.29-0.04,40.38,18.36,40.42,41.09c0,0.02,0,0.04,0,0.06
		C1842.14,1179.32,1824.11,1197.73,1801.85,1197.77z"/>
	<path id="Path_2276_1_" class="st569" d="M1801.85,1120.35c-19.64-0.03-35.58,16.18-35.61,36.2c-0.03,20.02,15.86,36.28,35.5,36.31
		c19.64,0.03,35.58-16.18,35.61-36.2c0-0.02,0-0.04,0-0.06C1837.34,1136.61,1821.46,1120.4,1801.85,1120.35z"/>
	<path id="Path_2277_1_" class="st568" d="M1875.77,1248.81c-12.98,0.25-24.78,7.72-30.76,19.46c-0.03,0.06-0.1,0.08-0.13,0.14
		c-0.17,0.26-0.38,0.49-0.62,0.67c-0.09,0.07-0.19,0.13-0.29,0.19c-0.31,0.17-0.65,0.27-1,0.28c-0.02,0-0.05,0.03-0.08,0.03
		l-0.03-0.01h-104.35c0.85,8.25,7.65,14.52,15.78,14.55l121.47-0.01L1875.77,1248.81z"/>
	<path id="Path_2278_1_" class="st568" d="M1872.82,1009.93c-14.17-1.64-24.35-14.69-22.74-29.14
		c1.48-13.32,12.54-23.38,25.69-23.36v-9.82c-19.62,0.42-35.18,16.99-34.77,36.99c0.4,19.41,15.74,35.04,34.77,35.45v-0.47
		C1874.16,1016.6,1873.15,1013.32,1872.82,1009.93z"/>
	<path id="Path_2279_1_" class="st569" d="M1801.85,836.36c-19.64,0.11-35.47,16.43-35.37,36.45c0.1,19.88,15.88,35.96,35.37,36.07
		c0.43,0,0.88-0.05,1.31-0.07c-4.41-20.59,8.38-40.93,28.57-45.43c1.39-0.31,2.81-0.54,4.23-0.69
		C1831.62,847.14,1817.71,836.4,1801.85,836.36z"/>
	<path id="Path_2281_1_" class="st569" d="M1852.55,983.7c0,10.82,10.24,23.39,20.44,24.88c0.33-3.56,23.72-22.75,25.34-25.73
		l-7.24-18.56l-15.16-4.01C1864.31,960.28,1852.55,971.85,1852.55,983.7z"/>
	<path id="Path_2337_1_" class="st568" d="M1874.7,1015.72c0-5.45,15.69-9.94,35.93-10.69c0.65,1.79,2.66,3.47,5.88,4.96v16.55
		C1893.46,1026.55,1874.7,1021.69,1874.7,1015.72z"/>
	<path id="Path_2282_1_" class="st568" d="M1875.77,942.71v-13l0-39.25V727.48c-14.21-0.25-27.22-8.15-34.21-20.77h-103.24
		l0.01,274.67h98C1837.58,959.98,1854.75,943.15,1875.77,942.71z"/>
	<path id="Path_2283_1_" class="st568" d="M1901.48,982.4c3.75,0.62,7.3,2.12,10.39,4.37c0.08-0.97,0.14-1.95,0.14-2.94
		c-0.01-20-15.89-36.22-35.5-36.26c-0.26,0-0.49,0.03-0.74,0.04v9.82C1889.48,957.48,1900.76,968.44,1901.48,982.4z"/>
	<path id="Path_2284_1_" class="st568" d="M1916.15,990.83c8.96,10.56,7.82,26.54-2.54,35.67c-10,8.82-25.02,8.09-34.15-1.66
		c-0.98,0.07-1.96,0.15-2.95,0.15c-0.26,0-0.49-0.03-0.74-0.04v22.11h137.41v-60.79h-96.49
		C1916.59,987.8,1916.41,989.32,1916.15,990.83z"/>
	<path id="Path_2285_1_" class="st569" d="M1949.68,849.29c20.51,0.03,37.15-16.9,37.18-37.81s-16.57-37.88-37.08-37.91
		s-37.15,16.9-37.18,37.81c0,0.02,0,0.03,0,0.05C1912.6,832.32,1929.19,849.26,1949.68,849.29z"/>
	<path id="Path_2286_1_" class="st568" d="M1875.77,942.71c0.25-0.01,0.49-0.04,0.74-0.04c21.31,0.06,38.91,17.01,40.18,38.71h96.49
		v-61.87h-137.41V942.71z"/>
	<path id="Path_2287_1_" class="st568" d="M1746.51,727.53c-0.26,0-0.49-0.05-0.74-0.05v162.98c0.93,3.34,1.4,6.79,1.41,10.27
		c-0.01,3.47-0.49,6.93-1.41,10.27v13.82h267.41V706.71h-101.73C1904.27,719.56,1761.06,727.53,1746.51,727.53z M1949.68,770.28
		c22.29-0.03,40.38,18.37,40.41,41.1s-18.02,41.18-40.31,41.21c-22.29,0.03-40.38-18.37-40.41-41.1c0-0.02,0-0.04,0-0.06
		C1909.37,788.72,1927.41,770.31,1949.68,770.28z"/>
	<path id="Path_2288_1_" class="st568" d="M1875.77,722.58c0.25,0.01,0.49,0.05,0.74,0.05c13.24,0.01,25.39-7.51,31.49-19.5
		c0.06-0.09,0.13-0.18,0.2-0.25c0.1-0.15,0.2-0.28,0.33-0.41c0.11-0.09,0.24-0.18,0.36-0.25c0.13-0.09,0.27-0.17,0.42-0.23
		c0.15-0.05,0.31-0.08,0.47-0.1c0.11-0.03,0.23-0.06,0.35-0.07h102.98c-0.44-8.63-7.41-15.4-15.88-15.44h-122.45L1875.77,722.58z"/>
	<path id="Path_2290_1_" class="st570" d="M1875.77,1020.05c0.08,0,0.17,0.01,0.25,0.01c-0.08-0.16-0.17-0.32-0.25-0.48V1020.05z"/>
	<path id="Path_2292_1_" class="st568" d="M1909.79,1269.51c-0.17-0.02-0.34-0.05-0.5-0.11c-0.14-0.05-0.27-0.12-0.38-0.2
		c-0.14-0.07-0.27-0.16-0.39-0.27c-0.12-0.12-0.23-0.26-0.33-0.4c-0.06-0.1-0.15-0.16-0.2-0.26c-6.09-12-18.24-19.53-31.48-19.52
		c-0.26,0-0.49,0.05-0.74,0.05l-1,35.31l122.45,0.01c8.13-0.04,14.93-6.3,15.79-14.55h-102.89
		C1910.01,1269.56,1909.9,1269.54,1909.79,1269.51z"/>
	<path id="Path_2293_1_" class="st568" d="M1875.77,1243.91c0.25-0.01,0.49-0.05,0.74-0.05c14.48,0.01,27.83,7.96,34.94,20.82
		h101.73v-222.91h-137.41V1243.91z"/>
	<path id="Union_11_1_" class="st571" d="M1842.85,1269.57h-104.35c-0.1-0.59-0.16-1.18-0.18-1.77v-3.12h103.23
		c6.99-12.62,20-20.52,34.21-20.77c0.25-0.01,0.49-0.05,0.74-0.05c14.48,0.01,27.83,7.96,34.95,20.82h101.73v3.12
		c-0.03,0.59-0.08,1.19-0.17,1.77h-102.89c-0.11-0.02-0.22-0.04-0.33-0.07c-0.17-0.02-0.34-0.05-0.5-0.11
		c-0.14-0.05-0.27-0.12-0.38-0.21c-0.14-0.07-0.27-0.16-0.39-0.27c-0.12-0.12-0.23-0.26-0.33-0.4c-0.05-0.1-0.15-0.16-0.2-0.26
		c-6.09-12-18.24-19.52-31.49-19.51c-0.25,0-0.49,0.04-0.74,0.05c-12.98,0.25-24.78,7.72-30.76,19.47c-0.02,0.06-0.1,0.08-0.13,0.14
		c-0.17,0.26-0.38,0.49-0.62,0.67c-0.09,0.07-0.19,0.13-0.29,0.19c-0.31,0.17-0.65,0.27-1,0.28c-0.02,0-0.04,0.03-0.08,0.03
		L1842.85,1269.57z M1949.76,1197.77h-0.09c-11.2-0.01-21.89-4.79-29.49-13.19l0.1-0.02c-15.14-16.68-14.16-42.72,2.2-58.16
		c4.45-4.2,9.78-7.33,15.58-9.14l-0.03-0.03c3.77-1.17,7.7-1.76,11.64-1.77h0.18c22.29,0,40.36,18.43,40.36,41.15
		c0,22.73-18.07,41.15-40.36,41.15L1949.76,1197.77z M1914.34,1156.62c0.08,19.94,16,36.05,35.56,35.97s35.35-16.31,35.27-36.26
		c-0.08-19.88-15.9-35.96-35.4-35.97C1930.18,1120.44,1914.35,1136.65,1914.34,1156.62z M1761.54,1156.62
		c0.03-22.7,18.1-41.07,40.36-41.04s40.27,18.46,40.24,41.15c-0.03,22.67-18.06,41.03-40.29,41.04
		C1779.58,1197.73,1761.55,1179.32,1761.54,1156.62L1761.54,1156.62z M1766.33,1156.62c0.03,20,15.95,36.18,35.56,36.15
		c19.61-0.03,35.48-16.26,35.45-36.26c-0.03-19.97-15.91-36.15-35.5-36.15C1782.23,1120.39,1766.35,1136.61,1766.33,1156.62
		L1766.33,1156.62z M1875.76,1072.36h-137.43v-4.89h274.85v4.89H1875.76z M1875.76,1024.95c-21.02-0.44-38.19-17.27-39.44-38.68h-98
		v-4.89h98c1.26-21.4,18.42-38.23,39.44-38.67c0.25-0.01,0.49-0.04,0.74-0.04c21.31,0.06,38.91,17.01,40.18,38.71h96.49v4.89h-96.49
		c-0.1,1.53-0.28,3.05-0.54,4.55c-1.27-1.52-2.71-2.88-4.29-4.06c0.07-0.97,0.14-1.95,0.14-2.94c-0.01-20-15.88-36.22-35.5-36.26
		c-0.25,0-0.49,0.03-0.74,0.04c-19.62,0.44-35.17,17.01-34.74,37.01c0.42,19.39,15.73,35,34.74,35.43c0.09,0,0.17,0.02,0.25,0.02
		c0.97,1.72,2.12,3.32,3.44,4.77c-0.98,0.07-1.96,0.15-2.95,0.15C1876.25,1024.99,1876.01,1024.96,1875.76,1024.95L1875.76,1024.95z
		 M1849.9,983.83c-0.14-14.53,11.3-26.42,25.55-26.56c13.89-0.14,25.4,10.98,26.02,25.13c-1.33-0.25-2.68-0.38-4.04-0.41
		c-0.27,0-0.52,0.06-0.79,0.08c-0.95-11.79-11.09-20.57-22.66-19.61s-20.18,11.31-19.23,23.1c0.8,10,8.29,18.09,18.03,19.48
		c-0.07,0.78,0,1.57,0,2.37c-0.04,0.84-0.03,1.68,0.02,2.53C1859.79,1008.43,1849.94,997.2,1849.9,983.83z M1875.76,899.12h-137.44
		v-4.89h274.85v4.89H1875.76z M1909.37,811.43c0.04-22.69,18.11-41.06,40.37-41.02s40.26,18.47,40.22,41.16
		c-0.04,22.66-18.06,41.01-40.28,41.02C1927.41,852.55,1909.38,834.14,1909.37,811.43L1909.37,811.43z M1914.16,811.43
		c0.03,19.99,15.95,36.18,35.55,36.14c19.61-0.03,35.47-16.26,35.44-36.26c-0.03-19.97-15.91-36.14-35.49-36.14
		C1930.06,775.21,1914.18,791.43,1914.16,811.43L1914.16,811.43z M1801.76,852.59h-0.09c-22.29,0-40.36-18.43-40.36-41.16
		s18.07-41.16,40.36-41.16h0.18c18.45,0.04,34.52,12.84,39.02,31.08h-0.12c5.44,22.06-7.69,44.44-29.32,49.99
		c-3.03,0.78-6.14,1.19-9.27,1.24h-0.3L1801.76,852.59z M1766.34,811.43c0.01,19.97,15.84,36.18,35.42,36.27h0.2
		c0.4-0.01,0.8-0.06,1.2-0.07l0.01,0.04c19.62-0.72,34.96-17.53,34.25-37.54c-0.71-20.01-17.19-35.65-36.81-34.93
		C1781.49,775.9,1766.34,791.91,1766.34,811.43z M1875.76,727.48c-14.21-0.25-27.22-8.15-34.21-20.77h-103.24v-4.01
		c0-0.3,0.08-0.58,0.09-0.88h104.48c0.08,0.01,0.15,0.03,0.22,0.05c0.21,0.01,0.42,0.06,0.63,0.13c0.11,0.05,0.2,0.11,0.3,0.17
		c0.16,0.08,0.31,0.19,0.46,0.31c0.11,0.11,0.19,0.24,0.29,0.36c0.08,0.09,0.16,0.19,0.23,0.29c5.98,11.75,17.79,19.21,30.77,19.46
		c0.25,0.01,0.49,0.05,0.74,0.05c13.25,0.01,25.39-7.51,31.49-19.5c0.06-0.09,0.13-0.18,0.2-0.26c0.1-0.15,0.21-0.28,0.33-0.41
		c0.11-0.1,0.24-0.18,0.36-0.26c0.13-0.09,0.27-0.17,0.42-0.23c0.15-0.05,0.31-0.08,0.47-0.1c0.11-0.04,0.22-0.06,0.34-0.08h102.98
		c0.01,0.3,0.09,0.58,0.09,0.88v4.01h-101.73c-7.12,12.86-20.47,20.81-34.95,20.82C1876.25,727.53,1876.01,727.49,1875.76,727.48z"
		/>
	<path id="Path_2312_1_" class="st572" d="M1917.63,1007.39c-0.02-11.37-9.07-20.57-20.22-20.55c-11.15,0.02-20.17,9.25-20.15,20.62
		c0.02,11.35,9.05,20.55,20.18,20.55C1908.59,1027.99,1917.63,1018.76,1917.63,1007.39z"/>
	<path id="Path_2313_1_" class="st573" d="M1922.31,1007.39c-0.03-6.1-2.22-11.98-6.16-16.56c-1.27-1.51-2.71-2.87-4.29-4.05
		c-3.09-2.25-6.64-3.75-10.38-4.38c-1.33-0.25-2.68-0.39-4.04-0.41c-0.27,0-0.52,0.07-0.79,0.08c-8.75,0.3-16.69,5.29-20.89,13.12
		c-1.65,3.04-2.66,6.39-2.96,9.85c-0.16,1.63-0.15,3.27,0.02,4.89c0.33,3.39,1.33,6.67,2.95,9.65c0.08,0.16,0.17,0.33,0.25,0.48
		c0.97,1.72,2.12,3.32,3.44,4.77c9.39,10.17,25.09,10.64,35.06,1.06C1919.52,1021.1,1922.34,1014.39,1922.31,1007.39
		L1922.31,1007.39z M1878.96,1007.39c0.02-10.41,8.31-18.83,18.51-18.81c10.21,0.02,18.46,8.47,18.45,18.88
		c-0.02,10.4-8.29,18.81-18.48,18.81C1887.23,1026.24,1878.96,1017.8,1878.96,1007.39z"/>
	<g id="Group_6098_1_" transform="translate(1787.794 829.97)">
		<path id="Path_2314_1_" class="st573" d="M124.17,347.36c15.16,0.03,27.47-12.49,27.5-27.95s-12.24-28.02-27.41-28.04
			c-15.16-0.03-27.47,12.49-27.5,27.95c0,0.02,0,0.04,0,0.06C96.77,334.81,109.03,347.33,124.17,347.36z M124.17,306.85
			c6.78-0.01,12.28,5.59,12.28,12.5c0.01,6.91-5.48,12.52-12.26,12.53c-6.78,0.01-12.28-5.59-12.28-12.5c0,0,0,0,0-0.01
			C111.91,312.47,117.39,306.86,124.17,306.85C124.17,306.86,124.17,306.86,124.17,306.85L124.17,306.85z"/>
		
			<radialGradient id="Path_2315_2_" cx="-2835.7261" cy="93.0534" r="0.4619" gradientTransform="matrix(61.9894 -1.6395 -1.607 -63.244 176058.7188 1555.197)" gradientUnits="userSpaceOnUse">
			<stop  offset="0" style="stop-color:#F26D3D"/>
			<stop  offset="1" style="stop-color:#EE4323"/>
		</radialGradient>
		<path id="Path_2315_1_" class="st574" d="M124.17,351.03c1.61-0.01,3.21-0.15,4.79-0.42c1.55-0.24,3.08-0.6,4.57-1.07
			c16.32-5.28,25.36-23.04,20.18-39.69c-1.35-4.35-3.61-8.34-6.62-11.72c-1.04-1.18-2.16-2.28-3.36-3.3
			c-13.3-11.01-32.83-8.95-43.63,4.61c-10.8,13.56-8.77,33.48,4.53,44.5C110.16,348.53,117.06,351.03,124.17,351.03z M124.17,293.11
			c14.22-0.02,25.77,11.71,25.79,26.22s-11.49,26.28-25.71,26.3s-25.77-11.71-25.79-26.22c0-0.01,0-0.03,0-0.04
			C98.47,304.89,109.97,293.14,124.17,293.11z"/>
		
			<radialGradient id="Path_2316_2_" cx="-2706.5601" cy="-131.0102" r="0.5" gradientTransform="matrix(27.4877 0 0 -28.0304 74521.3672 -3352.9021)" gradientUnits="userSpaceOnUse">
			<stop  offset="0" style="stop-color:#EF4A23"/>
			<stop  offset="1" style="stop-color:#B93425"/>
		</radialGradient>
		<path id="Path_2316_1_" class="st575" d="M124.17,333.38c7.59,0.01,13.75-6.26,13.76-14s-6.14-14.02-13.73-14.03
			s-13.75,6.26-13.76,14c0,0.01,0,0.01,0,0.02C110.44,327.11,116.58,333.38,124.17,333.38
			C124.17,333.38,124.17,333.38,124.17,333.38z"/>
	</g>
	<g id="Group_3420_1_" transform="translate(2034.129 756.301) rotate(90)">
		<g id="Group_6099_1_" transform="translate(0 0)">
			<path id="Path_2317_1_" class="st573" d="M54.95,195.82c-0.03,15.08,12.41,27.33,27.79,27.36s27.87-12.17,27.9-27.25
				c0.03-15.08-12.41-27.33-27.79-27.36c-0.02,0-0.04,0-0.06,0C67.44,168.58,54.99,180.77,54.95,195.82z M95.24,195.82
				c0.01,6.74-5.55,12.21-12.42,12.22c-6.87,0.01-12.45-5.44-12.46-12.18c-0.01-6.74,5.55-12.21,12.42-12.22c0,0,0.01,0,0.01,0
				c6.86-0.01,12.44,5.43,12.45,12.16C95.24,195.81,95.24,195.81,95.24,195.82z"/>
			
				<radialGradient id="Path_2318_2_" cx="168.8179" cy="3081.9644" r="0.462" gradientTransform="matrix(-63.3019 1.6063 1.641 61.9629 5711.6831 -191042.8594)" gradientUnits="userSpaceOnUse">
				<stop  offset="0" style="stop-color:#F26D3D"/>
				<stop  offset="1" style="stop-color:#EE4323"/>
			</radialGradient>
			<path id="Path_2318_1_" class="st576" d="M51.18,194.9c-0.01,0.31-0.05,0.62-0.05,0.93c0,1.06,0.06,2.11,0.16,3.13
				c1.75,17.03,17.25,29.44,34.62,27.72c1.2-0.12,2.39-0.31,3.57-0.56c1.36-0.29,2.69-0.68,3.99-1.15c3.36-1.17,6.49-2.9,9.26-5.1
				c1.47-1.17,2.82-2.47,4.05-3.88c10.22-11.57,10.22-28.75,0-40.33c-1.23-1.41-2.59-2.71-4.05-3.88
				c-13.57-10.79-33.5-8.76-44.51,4.55C53.88,181.6,51.4,188.12,51.18,194.9z M109.05,195.82c0.03,14.22-11.71,25.77-26.21,25.8
				c-14.5,0.03-26.28-11.48-26.31-25.7c-0.03-14.22,11.71-25.77,26.21-25.8c0.02,0,0.03,0,0.05,0
				C97.27,170.13,109.02,181.62,109.05,195.82z"/>
			
				<radialGradient id="Path_2319_2_" cx="-53.4447" cy="2952.6348" r="0.5" gradientTransform="matrix(-27.9978 0 0 27.4557 -1413.5392 -80870.9453)" gradientUnits="userSpaceOnUse">
				<stop  offset="0" style="stop-color:#EF4A23"/>
				<stop  offset="1" style="stop-color:#B93425"/>
			</radialGradient>
			<path id="Path_2319_1_" class="st577" d="M68.79,195.82c-0.02,7.58,6.24,13.74,13.97,13.76s14.01-6.12,14.03-13.7
				c0.02-7.58-6.24-13.74-13.97-13.76c-0.01,0-0.02,0-0.03,0c-7.72-0.01-13.98,6.11-14,13.67C68.79,195.8,68.79,195.81,68.79,195.82
				z"/>
		</g>
	</g>
</g>
</svg>
