<?xml version="1.0" encoding="utf-8"?>
<!-- Generator: Adobe Illustrator 24.2.3, SVG Export Plug-In . SVG Version: 6.00 Build 0)  -->
<svg version="1.1" id="Layer_1" xmlns="http://www.w3.org/2000/svg" xmlns:xlink="http://www.w3.org/1999/xlink" x="0px" y="0px"
	 viewBox="0 0 300 1200" style="enable-background:new 0 0 300 1200;" xml:space="preserve">
<style type="text/css">
	.st0{fill:#00A64E;}
	.st1{fill:#FFFFFF;}
	.st2{opacity:0.09;enable-background:new    ;}
	.st3{fill:none;}
	.st4{opacity:0.3;fill:#221F1F;enable-background:new    ;}
	.st5{fill:#E2882B;}
	.st6{fill:#F8A247;}
	.st7{fill:#FFE8C3;}
	.st8{fill:#8F8F8F;}
	.st9{fill:#CECECD;}
	.st10{fill:#D1D1D1;}
	.st11{opacity:0.2;}
	.st12{fill:#BEBDBD;}
	.st13{opacity:0.4;fill:#A8A8A8;enable-background:new    ;}
	.st14{opacity:0.6;fill:#8F8F8F;enable-background:new    ;}
	.st15{fill:#AD2425;}
	.st16{fill:#C46161;}
	.st17{fill:#A31E22;}
	.st18{fill:#4560AB;}
	.st19{fill:#7C8EC7;}
	.st20{fill:#233E98;}
	.st21{fill:#E1E1E1;}
	.st22{fill:#F3F4F5;stroke:#E1E1E1;}
	.st23{fill:#DBDBDA;}
	.st24{fill:#F4F5F5;stroke:#E1E1E1;}
	.st25{opacity:0.53;}
	.st26{fill:#BDBCBC;}
	.st27{fill:#ADADAD;}
	.st28{fill:#D02026;}
	.st29{fill:#A11D21;}
	.st30{fill:#C32026;}
	.st31{fill:#8E191B;}
	.st32{fill:#A31D21;}
	.st33{fill:#2A0F0F;}
	.st34{fill:#9B1C1F;}
	.st35{opacity:0.47;}
	.st36{fill:#4255A4;}
	.st37{fill:#3A4DA0;}
	.st38{fill:#DEDEDD;}
	.st39{fill:#070404;}
	.st40{opacity:0.6;fill:#0E7D40;enable-background:new    ;}
	.st41{fill:#AEACAD;}
	.st42{opacity:0.2;fill:#E08635;enable-background:new    ;}
	.st43{fill:#FBE0CE;}
	.st44{fill:#F89C40;}
	.st45{fill:#F4B578;}
	.st46{fill:#D1AA7B;}
	.st47{fill:#D5D3D2;}
</style>
<path id="Rectangle_20133_1_" class="st0" d="M0,1191.62V8.38C0,3.7,3.16,0,6.96,0h286.08c3.89,0,6.96,3.8,6.96,8.38v1183.23
	c0,4.68-3.16,8.38-6.96,8.38H6.96C3.16,1200,0,1196.2,0,1191.62z"/>
<path id="Path_1300_1_" class="st1" d="M286.88,1191.62H13.1c-2.75,0-5.02-2.73-5.02-6.04V13.45c0-3.31,2.27-6.04,5.02-6.04l0,0
	h273.85c2.76,0,5.02,2.73,5.02,6.04v1172.12C291.89,1188.89,289.62,1191.62,286.88,1191.62L286.88,1191.62z M18.04,1179.53h263.82
	V19.4H18.04V1179.53z"/>
<path id="Path_1301_1_" class="st1" d="M150.03,1191.62c-2.76,0-5.02-2.73-5.02-6.04V13.45c0-3.31,2.27-6.04,5.02-6.04
	c2.75,0,5.02,2.73,5.02,6.04v1172.12C154.96,1188.89,152.78,1191.62,150.03,1191.62z"/>
<g id="Path_2524" class="st2">
	<rect x="7.52" y="1149.37" class="st1" width="280.09" height="1"/>
</g>
<g id="Path_2524-2" class="st2">
	<rect x="7.52" y="1113.55" class="st1" width="280.09" height="1"/>
</g>
<g id="Path_2524-3" class="st2">
	<rect x="7.52" y="1077.73" class="st1" width="280.09" height="1"/>
</g>
<g id="Path_2524-4" class="st2">
	<rect x="7.52" y="1041.91" class="st1" width="280.09" height="1"/>
</g>
<g id="Path_2524-5" class="st2">
	<rect x="7.52" y="1006.09" class="st1" width="280.09" height="1"/>
</g>
<g id="Path_2524-6" class="st2">
	<rect x="7.52" y="970.27" class="st1" width="280.09" height="1"/>
</g>
<g id="Path_2524-7" class="st2">
	<rect x="7.52" y="934.45" class="st1" width="280.09" height="1"/>
</g>
<g id="Path_2524-8" class="st2">
	<rect x="7.52" y="898.64" class="st1" width="280.09" height="1"/>
</g>
<g id="Path_2524-9" class="st2">
	<rect x="7.52" y="862.82" class="st1" width="280.09" height="1"/>
</g>
<g id="Path_2524-10" class="st2">
	<rect x="7.52" y="827" class="st1" width="280.09" height="1"/>
</g>
<g id="Path_2524-11" class="st2">
	<rect x="7.52" y="791.18" class="st1" width="280.09" height="1"/>
</g>
<g id="Path_2524-12" class="st2">
	<rect x="7.52" y="755.36" class="st1" width="280.09" height="1"/>
</g>
<g id="Path_2524-13" class="st2">
	<rect x="7.52" y="719.54" class="st1" width="280.09" height="1"/>
</g>
<g id="Path_2524-14" class="st2">
	<rect x="7.52" y="683.72" class="st1" width="280.09" height="1"/>
</g>
<g id="Path_2524-15" class="st2">
	<rect x="7.52" y="647.9" class="st1" width="280.09" height="1"/>
</g>
<g id="Path_2524-16" class="st2">
	<rect x="7.52" y="612.09" class="st1" width="280.09" height="1"/>
</g>
<g id="Path_2524-17" class="st2">
	<rect x="7.52" y="576.27" class="st1" width="280.09" height="1"/>
</g>
<g id="Path_2524-18" class="st2">
	<rect x="7.52" y="540.45" class="st1" width="280.09" height="1"/>
</g>
<g id="Path_2524-19" class="st2">
	<rect x="7.52" y="504.63" class="st1" width="280.09" height="1"/>
</g>
<g id="Path_2524-20" class="st2">
	<rect x="7.52" y="468.81" class="st1" width="280.09" height="1"/>
</g>
<g id="Path_2524-21" class="st2">
	<rect x="7.52" y="432.99" class="st1" width="280.09" height="1"/>
</g>
<g id="Path_2524-22" class="st2">
	<rect x="7.52" y="397.17" class="st1" width="280.09" height="1"/>
</g>
<g id="Path_2524_1_" class="st2">
	<rect x="7.52" y="357.59" class="st1" width="280.09" height="1"/>
</g>
<g id="Path_2524-2_1_" class="st2">
	<rect x="7.52" y="321.77" class="st1" width="280.09" height="1"/>
</g>
<g id="Path_2524-3_1_" class="st2">
	<rect x="7.52" y="285.95" class="st1" width="280.09" height="1"/>
</g>
<g id="Path_2524-4_1_" class="st2">
	<rect x="7.52" y="250.13" class="st1" width="280.09" height="1"/>
</g>
<g id="Path_2524-5_1_" class="st2">
	<rect x="7.52" y="214.31" class="st1" width="280.09" height="1"/>
</g>
<g id="Path_2524-6_1_" class="st2">
	<rect x="7.52" y="178.49" class="st1" width="280.09" height="1"/>
</g>
<g id="Path_2524-7_1_" class="st2">
	<rect x="7.52" y="142.67" class="st1" width="280.09" height="1"/>
</g>
<g id="Path_2524-8_1_" class="st2">
	<rect x="7.52" y="106.86" class="st1" width="280.09" height="1"/>
</g>
<g id="Path_2524-9_1_" class="st2">
	<rect x="7.52" y="71.04" class="st1" width="280.09" height="1"/>
</g>
<g id="Path_2524-10_1_" class="st2">
	<rect x="7.52" y="35.22" class="st1" width="280.09" height="1"/>
</g>
<g id="Path_2524-11_1_" class="st2">
	<rect x="7.52" y="-0.6" class="st1" width="280.09" height="1"/>
</g>
<rect x="7.52" y="15.98" class="st3" width="277.87" height="1166.69"/>
<ellipse class="st3" cx="207.02" cy="1102.72" rx="20.28" ry="20.37"/>
<g id="Group_3112_1_" transform="translate(1754.286 300.815)">
	<path id="Path_1304_1_" class="st4" d="M-1606.92-224.01c9.81,5.76,14.01,17.4,9.38,25.93c-4.63,8.53-16.44,10.75-26.26,4.99
		s-14.12-17.4-9.38-25.93S-1616.85-229.77-1606.92-224.01z"/>
	<g id="Group_3111_1_" transform="translate(7.162)">
		<path id="Path_1305_1_" class="st5" d="M-1630.19-228.26c7.88-0.27,14.49,5.91,14.76,13.81c0.27,7.9-5.91,14.51-13.79,14.78
			c-7.88,0.27-14.49-5.91-14.76-13.81c0-0.01,0-0.03,0-0.04v-0.44C-1644.11-221.72-1637.94-228.11-1630.19-228.26z"/>
		<path id="Path_1306_1_" class="st6" d="M-1631.96-227.26c6.6-0.2,12.12,4.99,12.32,11.6c0.2,6.61-4.98,12.13-11.59,12.34
			c-6.6,0.2-12.12-4.99-12.32-11.6c0-0.01,0-0.02,0-0.03v-0.33C-1643.62-221.79-1638.45-227.13-1631.96-227.26z"/>
		<g id="Group_3110_1_" transform="translate(6.841 2.941)">
			<path id="Path_1307_1_" class="st5" d="M-1632.47-218.92c-0.13,3.97-3.45,7.07-7.41,6.94c-3.96-0.13-7.06-3.46-6.93-7.42
				c0.13-3.87,3.3-6.94,7.17-6.94C-1635.65-226.2-1632.48-222.92-1632.47-218.92z M-1644.5-218.92c0.1,2.65,2.33,4.72,4.98,4.63
				c2.65-0.1,4.72-2.33,4.62-4.98c-0.1-2.61-2.25-4.66-4.85-4.63C-1642.43-223.82-1644.54-221.6-1644.5-218.92L-1644.5-218.92z"/>
		</g>
		<path id="Path_1308_1_" class="st7" d="M-1636.48-223.27c2.02-0.07,3.71,1.51,3.77,3.53s-1.51,3.71-3.53,3.78
			c-2.02,0.07-3.71-1.51-3.77-3.53c0-0.01,0-0.01,0-0.02v-0.11c-0.04-1.98,1.54-3.62,3.52-3.66
			C-1636.49-223.27-1636.49-223.27-1636.48-223.27L-1636.48-223.27z"/>
	</g>
</g>
<g>
	<path id="Path_2374_5_" class="st40" d="M137.4,1013.66c-4.46-11.86,2.56-25.52,15.6-30.44s27.19,0.67,31.64,12.53
		c4.46,11.86-2.56,25.52-15.6,30.44C156.01,1031.23,141.86,1025.52,137.4,1013.66z"/>
	<g id="Path_2375_5_">
		<path class="st1" d="M123.03,996.03c0.04,13.99,11.4,25.29,25.37,25.25s25.26-11.42,25.21-25.4
			c-0.04-13.96-11.35-25.25-25.29-25.25c-13.98,0.01-25.3,11.37-25.29,25.37C123.03,996,123.03,996.01,123.03,996.03z
			 M170.83,996.03c-0.04,12.51-10.2,22.62-22.69,22.58s-22.59-10.21-22.55-22.72c0.04-12.48,10.15-22.58,22.62-22.58
			C160.72,973.34,170.84,983.5,170.83,996.03L170.83,996.03z"/>
		<path class="st41" d="M148.32,1021.77c-6.86,0-13.31-2.66-18.18-7.51c-4.89-4.86-7.59-11.34-7.61-18.24v-0.04
			c-0.01-14.25,11.56-25.86,25.79-25.87c14.18,0,25.75,11.55,25.79,25.75c0.04,14.24-11.49,25.86-25.71,25.91
			C148.37,1021.77,148.35,1021.77,148.32,1021.77z M123.53,996.02c0.02,6.63,2.62,12.86,7.32,17.53c4.68,4.66,10.88,7.22,17.47,7.22
			c0.03,0,0.05,0,0.08,0c13.67-0.04,24.76-11.21,24.72-24.9c-0.04-13.65-11.16-24.75-24.79-24.75
			c-13.68,0.01-24.8,11.17-24.79,24.87l-0.5,0.04L123.53,996.02z M148.21,1019.1c-0.02,0-0.05,0-0.07,0
			c-12.75-0.04-23.08-10.46-23.05-23.22c0.04-12.72,10.41-23.08,23.12-23.08c12.76,0.03,23.13,10.44,23.12,23.22v0
			c-0.02,6.18-2.44,11.99-6.82,16.35C160.14,1016.71,154.36,1019.1,148.21,1019.1z M148.21,973.81c-12.16,0-22.08,9.9-22.12,22.08
			c-0.04,12.21,9.85,22.18,22.05,22.22c0.02,0,0.05,0,0.07,0c5.88,0,11.42-2.28,15.59-6.44c4.19-4.17,6.51-9.73,6.53-15.64
			C170.34,983.8,160.41,973.84,148.21,973.81z"/>
	</g>
	<path class="st6" d="M148.32,1017c11.53,0,20.88-9.39,20.88-20.97c0-11.58-9.35-20.97-20.88-20.97c-11.53,0-20.88,9.39-20.88,20.97
		C127.44,1007.61,136.79,1017,148.32,1017z"/>
	<g id="Group_3449_5_">
		<path id="Path_2376_5_" class="st42" d="M136.18,1013.82c0,0-6.24-9.85-3.68-16.34c0.43-1.45,1.1-2.81,2.01-4.03
			c0,0,3.01-2.8,2.89-4.59c0,0-0.55-3.13,0.78-3.02c1.57-0.12,3.13,0.27,4.46,1.12c0,0,3.01,1.34,7.57-1.57c0,0,4.01-2.46,6.47,2.8
			c0.89,1.88,3.05,2.79,5.01,2.13c0,0,1.89-1.79,4.01,3.92c0,0,2.34,4.36,0.11,13.77l4.71-9.49l-2.65-12.6
			c0,0-10.64-10.92-11.31-11.15s-16.04,0.56-16.04,0.56l-14.59,13.43l1.76,12.53l5.8,11.09L136.18,1013.82z"/>
		<path id="Path_2377_5_" class="st43" d="M136.18,1012.92c0,0-5.68-9.85-3.68-16.34c0.28-1.5,0.97-2.9,2.01-4.03
			c0,0,3.01-2.8,2.89-4.59c0,0-0.55-3.13,0.78-3.02c1.57-0.12,3.13,0.27,4.46,1.12c0,0,3.01,1.34,7.57-1.57c0,0,4.01-2.46,6.47,2.8
			c0.89,1.88,3.05,2.79,5.01,2.13c0,0,2.67-0.9,4.01,3.92c0,0,1.89,4.25,0.11,13.77l4.34-9.48L167,984.4c0,0-9.91-8.85-10.58-9.07
			c-0.67-0.22-15.24-0.13-15.24-0.13l-13.73,10.83l-0.38,14.49l6.17,11.59L136.18,1012.92z"/>
		<ellipse id="Ellipse_118_5_" class="st44" cx="142.97" cy="983.49" rx="1.11" ry="0.9"/>
		<path id="Path_2404_5_" class="st45" d="M156.19,983.45c-0.24,0.5-0.03,1.11,0.47,1.35c0.44,0.34,1.07,0.26,1.42-0.17
			c0.23-0.5,0.02-1.1-0.47-1.35C157.17,982.94,156.54,983.02,156.19,983.45z"/>
		<ellipse id="Ellipse_120_5_" class="st44" cx="145.76" cy="984.5" rx="0.89" ry="0.67"/>
		<ellipse id="Ellipse_121_5_" class="st44" cx="147.65" cy="982.6" rx="0.89" ry="0.67"/>
		<ellipse id="Ellipse_122_5_" class="st46" cx="151.44" cy="981.81" rx="0.89" ry="0.67"/>
		<path id="Path_2405_5_" class="st44" d="M159.63,985.64c-0.31,0.13-0.46,0.49-0.33,0.81c0.19,0.28,0.57,0.36,0.85,0.18
			c0.31-0.13,0.46-0.49,0.33-0.81C160.3,985.53,159.92,985.45,159.63,985.64z"/>
	</g>
	<path class="st47" d="M148.32,973.31c-12.49,0-22.62,10.17-22.62,22.72c0,12.55,10.13,22.72,22.62,22.72s22.62-10.17,22.62-22.72
		C170.94,983.48,160.81,973.31,148.32,973.31z M148.32,1016.68c-11.36,0-20.57-9.25-20.57-20.66c0-11.41,9.21-20.66,20.57-20.66
		s20.57,9.25,20.57,20.66C168.89,1007.44,159.68,1016.68,148.32,1016.68z"/>
</g>
<g>
	<path id="Path_2374_2_" class="st40" d="M77.66,1120.36c-4.46-11.86,2.56-25.52,15.6-30.44s27.19,0.67,31.64,12.53
		c4.46,11.86-2.56,25.52-15.6,30.44C96.27,1137.93,82.12,1132.22,77.66,1120.36z"/>
	<g id="Path_2375_2_">
		<path class="st1" d="M63.29,1102.72c0.04,13.99,11.4,25.29,25.37,25.25c13.97-0.04,25.26-11.42,25.21-25.4
			c-0.04-13.96-11.35-25.25-25.29-25.25c-13.98,0.01-25.3,11.37-25.29,25.37C63.29,1102.7,63.29,1102.71,63.29,1102.72z
			 M111.09,1102.72c-0.04,12.51-10.2,22.62-22.69,22.58s-22.59-10.21-22.55-22.72c0.04-12.48,10.15-22.58,22.62-22.58
			C100.98,1080.03,111.1,1090.2,111.09,1102.72L111.09,1102.72z"/>
		<path class="st41" d="M88.58,1128.47c-6.86,0-13.31-2.66-18.18-7.51c-4.89-4.86-7.59-11.34-7.61-18.24v-0.04
			c-0.01-14.25,11.56-25.86,25.79-25.87c14.18,0,25.75,11.55,25.79,25.75c0.04,14.24-11.49,25.86-25.71,25.91
			C88.64,1128.47,88.61,1128.47,88.58,1128.47z M63.79,1102.72c0.02,6.63,2.62,12.86,7.32,17.53c4.68,4.66,10.88,7.22,17.47,7.22
			c0.03,0,0.05,0,0.08,0c13.67-0.04,24.76-11.21,24.72-24.9c-0.04-13.65-11.16-24.75-24.79-24.75
			c-13.68,0.01-24.8,11.17-24.79,24.87l-0.5,0.04L63.79,1102.72z M88.47,1125.8c-0.02,0-0.05,0-0.07,0
			c-12.75-0.04-23.08-10.46-23.05-23.22c0.04-12.72,10.41-23.08,23.12-23.08c12.76,0.03,23.13,10.44,23.12,23.22v0
			c-0.02,6.18-2.44,11.99-6.82,16.35C100.4,1123.41,94.62,1125.8,88.47,1125.8z M88.47,1080.5c-12.16,0-22.08,9.9-22.12,22.08
			c-0.04,12.21,9.85,22.18,22.05,22.22c0.02,0,0.05,0,0.07,0c5.88,0,11.42-2.28,15.59-6.44c4.19-4.17,6.51-9.73,6.53-15.64
			C110.6,1090.5,100.68,1080.53,88.47,1080.5z"/>
	</g>
	<path class="st6" d="M88.58,1123.69c11.53,0,20.88-9.39,20.88-20.97s-9.35-20.97-20.88-20.97s-20.88,9.39-20.88,20.97
		S77.05,1123.69,88.58,1123.69z"/>
	<g id="Group_3449_2_">
		<path id="Path_2376_2_" class="st42" d="M76.44,1120.52c0,0-6.24-9.85-3.68-16.34c0.43-1.45,1.1-2.81,2.01-4.03
			c0,0,3.01-2.8,2.89-4.59c0,0-0.55-3.13,0.78-3.02c1.57-0.12,3.13,0.27,4.46,1.12c0,0,3.01,1.34,7.57-1.57c0,0,4.01-2.46,6.47,2.8
			c0.89,1.88,3.05,2.79,5.01,2.13c0,0,1.89-1.79,4.01,3.92c0,0,2.34,4.36,0.11,13.77l4.71-9.49l-2.65-12.6
			c0,0-10.64-10.92-11.31-11.15c-0.67-0.22-16.04,0.56-16.04,0.56l-14.59,13.43l1.76,12.53l5.8,11.09L76.44,1120.52z"/>
		<path id="Path_2377_2_" class="st43" d="M76.44,1119.62c0,0-5.68-9.85-3.68-16.34c0.28-1.5,0.97-2.9,2.01-4.03
			c0,0,3.01-2.8,2.89-4.59c0,0-0.55-3.13,0.78-3.02c1.57-0.12,3.13,0.27,4.46,1.12c0,0,3.01,1.34,7.57-1.57c0,0,4.01-2.46,6.47,2.8
			c0.89,1.88,3.05,2.79,5.01,2.13c0,0,2.67-0.9,4.01,3.92c0,0,1.89,4.25,0.11,13.77l4.34-9.48l-3.15-13.23c0,0-9.91-8.85-10.58-9.07
			c-0.67-0.22-15.24-0.13-15.24-0.13l-13.73,10.83l-0.38,14.49l6.17,11.59L76.44,1119.62z"/>
		<ellipse id="Ellipse_118_2_" class="st44" cx="83.23" cy="1090.19" rx="1.11" ry="0.9"/>
		<path id="Path_2404_2_" class="st45" d="M96.45,1090.14c-0.24,0.5-0.03,1.11,0.47,1.35c0.44,0.34,1.07,0.27,1.42-0.17
			c0.23-0.5,0.02-1.1-0.47-1.35C97.43,1089.64,96.8,1089.71,96.45,1090.14z"/>
		<ellipse id="Ellipse_120_2_" class="st44" cx="86.02" cy="1091.2" rx="0.89" ry="0.67"/>
		<ellipse id="Ellipse_121_2_" class="st44" cx="87.91" cy="1089.29" rx="0.89" ry="0.67"/>
		<ellipse id="Ellipse_122_2_" class="st46" cx="91.7" cy="1088.51" rx="0.89" ry="0.67"/>
		<path id="Path_2405_2_" class="st44" d="M99.89,1092.33c-0.31,0.13-0.46,0.49-0.33,0.81c0.19,0.28,0.57,0.36,0.85,0.18
			c0.31-0.13,0.46-0.49,0.33-0.81C100.56,1092.23,100.18,1092.15,99.89,1092.33z"/>
	</g>
	<path class="st47" d="M88.58,1080c-12.49,0-22.62,10.17-22.62,22.72c0,12.55,10.13,22.72,22.62,22.72s22.62-10.17,22.62-22.72
		C111.2,1090.18,101.07,1080,88.58,1080z M88.58,1123.38c-11.36,0-20.57-9.25-20.57-20.66c0-11.41,9.21-20.66,20.57-20.66
		s20.57,9.25,20.57,20.66C109.15,1114.13,99.94,1123.38,88.58,1123.38z"/>
</g>
<g>
	<path id="Path_2374_1_" class="st40" d="M137.4,1120.36c-4.46-11.86,2.56-25.52,15.6-30.44s27.19,0.67,31.64,12.53
		c4.46,11.86-2.56,25.52-15.6,30.44C156.01,1137.93,141.86,1132.22,137.4,1120.36z"/>
	<g id="Path_2375_1_">
		<path class="st1" d="M123.03,1102.72c0.04,13.99,11.4,25.29,25.37,25.25c13.97-0.04,25.26-11.42,25.21-25.4
			c-0.04-13.96-11.35-25.25-25.29-25.25c-13.98,0.01-25.3,11.37-25.29,25.37C123.03,1102.7,123.03,1102.71,123.03,1102.72z
			 M170.83,1102.72c-0.04,12.51-10.2,22.62-22.69,22.58s-22.59-10.21-22.55-22.72c0.04-12.48,10.15-22.58,22.62-22.58
			C160.72,1080.03,170.84,1090.2,170.83,1102.72L170.83,1102.72z"/>
		<path class="st41" d="M148.32,1128.47c-6.86,0-13.31-2.66-18.18-7.51c-4.89-4.86-7.59-11.34-7.61-18.24v-0.04
			c-0.01-14.25,11.56-25.86,25.79-25.87c14.18,0,25.75,11.55,25.79,25.75c0.04,14.24-11.49,25.86-25.71,25.91
			C148.37,1128.47,148.35,1128.47,148.32,1128.47z M123.53,1102.72c0.02,6.63,2.62,12.86,7.32,17.53
			c4.68,4.66,10.88,7.22,17.47,7.22c0.03,0,0.05,0,0.08,0c13.67-0.04,24.76-11.21,24.72-24.9c-0.04-13.65-11.16-24.75-24.79-24.75
			c-13.68,0.01-24.8,11.17-24.79,24.87l-0.5,0.04L123.53,1102.72z M148.21,1125.8c-0.02,0-0.05,0-0.07,0
			c-12.75-0.04-23.08-10.46-23.05-23.22c0.04-12.72,10.41-23.08,23.12-23.08c12.76,0.03,23.13,10.44,23.12,23.22v0
			c-0.02,6.18-2.44,11.99-6.82,16.35C160.14,1123.41,154.36,1125.8,148.21,1125.8z M148.21,1080.5c-12.16,0-22.08,9.9-22.12,22.08
			c-0.04,12.21,9.85,22.18,22.05,22.22c0.02,0,0.05,0,0.07,0c5.88,0,11.42-2.28,15.59-6.44c4.19-4.17,6.51-9.73,6.53-15.64
			C170.34,1090.5,160.41,1080.53,148.21,1080.5z"/>
	</g>
	<path class="st6" d="M148.32,1123.69c11.53,0,20.88-9.39,20.88-20.97s-9.35-20.97-20.88-20.97c-11.53,0-20.88,9.39-20.88,20.97
		S136.79,1123.69,148.32,1123.69z"/>
	<g id="Group_3449_1_">
		<path id="Path_2376_1_" class="st42" d="M136.18,1120.52c0,0-6.24-9.85-3.68-16.34c0.43-1.45,1.1-2.81,2.01-4.03
			c0,0,3.01-2.8,2.89-4.59c0,0-0.55-3.13,0.78-3.02c1.57-0.12,3.13,0.27,4.46,1.12c0,0,3.01,1.34,7.57-1.57c0,0,4.01-2.46,6.47,2.8
			c0.89,1.88,3.05,2.79,5.01,2.13c0,0,1.89-1.79,4.01,3.92c0,0,2.34,4.36,0.11,13.77l4.71-9.49l-2.65-12.6
			c0,0-10.64-10.92-11.31-11.15s-16.04,0.56-16.04,0.56l-14.59,13.43l1.76,12.53l5.8,11.09L136.18,1120.52z"/>
		<path id="Path_2377_1_" class="st43" d="M136.18,1119.62c0,0-5.68-9.85-3.68-16.34c0.28-1.5,0.97-2.9,2.01-4.03
			c0,0,3.01-2.8,2.89-4.59c0,0-0.55-3.13,0.78-3.02c1.57-0.12,3.13,0.27,4.46,1.12c0,0,3.01,1.34,7.57-1.57c0,0,4.01-2.46,6.47,2.8
			c0.89,1.88,3.05,2.79,5.01,2.13c0,0,2.67-0.9,4.01,3.92c0,0,1.89,4.25,0.11,13.77l4.34-9.48l-3.15-13.23c0,0-9.91-8.85-10.58-9.07
			c-0.67-0.22-15.24-0.13-15.24-0.13l-13.73,10.83l-0.38,14.49l6.17,11.59L136.18,1119.62z"/>
		<ellipse id="Ellipse_118_1_" class="st44" cx="142.97" cy="1090.19" rx="1.11" ry="0.9"/>
		<path id="Path_2404_1_" class="st45" d="M156.19,1090.14c-0.24,0.5-0.03,1.11,0.47,1.35c0.44,0.34,1.07,0.27,1.42-0.17
			c0.23-0.5,0.02-1.1-0.47-1.35C157.17,1089.64,156.54,1089.71,156.19,1090.14z"/>
		<ellipse id="Ellipse_120_1_" class="st44" cx="145.76" cy="1091.2" rx="0.89" ry="0.67"/>
		<ellipse id="Ellipse_121_1_" class="st44" cx="147.65" cy="1089.29" rx="0.89" ry="0.67"/>
		<ellipse id="Ellipse_122_1_" class="st46" cx="151.44" cy="1088.51" rx="0.89" ry="0.67"/>
		<path id="Path_2405_1_" class="st44" d="M159.63,1092.33c-0.31,0.13-0.46,0.49-0.33,0.81c0.19,0.28,0.57,0.36,0.85,0.18
			c0.31-0.13,0.46-0.49,0.33-0.81C160.3,1092.23,159.92,1092.15,159.63,1092.33z"/>
	</g>
	<path class="st47" d="M148.32,1080c-12.49,0-22.62,10.17-22.62,22.72c0,12.55,10.13,22.72,22.62,22.72s22.62-10.17,22.62-22.72
		C170.94,1090.18,160.81,1080,148.32,1080z M148.32,1123.38c-11.36,0-20.57-9.25-20.57-20.66c0-11.41,9.21-20.66,20.57-20.66
		s20.57,9.25,20.57,20.66C168.89,1114.13,159.68,1123.38,148.32,1123.38z"/>
</g>
<g>
	<path id="Path_2374_4_" class="st40" d="M104.53,1065.58c-4.46-11.86,2.56-25.52,15.6-30.44s27.19,0.67,31.64,12.53
		c4.46,11.86-2.56,25.52-15.6,30.44C123.14,1083.14,108.99,1077.44,104.53,1065.58z"/>
	<g id="Path_2375_4_">
		<path class="st1" d="M90.16,1047.94c0.04,13.99,11.4,25.29,25.37,25.25c13.97-0.04,25.26-11.42,25.21-25.4
			c-0.04-13.96-11.35-25.25-25.29-25.25c-13.98,0.01-25.3,11.37-25.29,25.37C90.16,1047.91,90.16,1047.93,90.16,1047.94z
			 M137.96,1047.94c-0.04,12.51-10.2,22.62-22.69,22.58s-22.59-10.21-22.55-22.72c0.04-12.48,10.15-22.58,22.62-22.58
			C127.85,1025.25,137.97,1035.42,137.96,1047.94L137.96,1047.94z"/>
		<path class="st41" d="M115.45,1073.69c-6.86,0-13.31-2.66-18.18-7.51c-4.89-4.86-7.59-11.34-7.61-18.24v-0.04
			c-0.01-14.25,11.56-25.86,25.79-25.87c14.18,0,25.75,11.55,25.79,25.75c0.04,14.24-11.49,25.86-25.71,25.91
			C115.5,1073.69,115.48,1073.69,115.45,1073.69z M90.66,1047.94c0.02,6.63,2.62,12.86,7.32,17.53c4.68,4.66,10.88,7.22,17.47,7.22
			c0.03,0,0.05,0,0.08,0c13.67-0.04,24.76-11.21,24.72-24.9c-0.04-13.65-11.16-24.75-24.79-24.75
			c-13.68,0.01-24.8,11.17-24.79,24.87l-0.5,0.04L90.66,1047.94z M115.34,1071.02c-0.02,0-0.05,0-0.07,0
			c-12.75-0.04-23.08-10.46-23.05-23.22c0.04-12.72,10.41-23.08,23.12-23.08c12.76,0.03,23.13,10.44,23.12,23.22v0
			c-0.02,6.18-2.44,11.99-6.82,16.35C127.27,1068.63,121.49,1071.02,115.34,1071.02z M115.34,1025.72
			c-12.16,0-22.08,9.9-22.12,22.08c-0.04,12.21,9.85,22.18,22.05,22.22c0.02,0,0.05,0,0.07,0c5.88,0,11.42-2.28,15.59-6.44
			c4.19-4.17,6.51-9.73,6.53-15.64C137.47,1035.71,127.54,1025.75,115.34,1025.72z"/>
	</g>
	<path class="st6" d="M115.45,1068.91c11.53,0,20.88-9.39,20.88-20.97s-9.35-20.97-20.88-20.97s-20.88,9.39-20.88,20.97
		S103.92,1068.91,115.45,1068.91z"/>
	<g id="Group_3449_4_">
		<path id="Path_2376_4_" class="st42" d="M103.31,1065.73c0,0-6.24-9.85-3.68-16.34c0.43-1.45,1.1-2.81,2.01-4.03
			c0,0,3.01-2.8,2.89-4.59c0,0-0.55-3.13,0.78-3.02c1.57-0.12,3.13,0.27,4.46,1.12c0,0,3.01,1.34,7.57-1.57c0,0,4.01-2.46,6.47,2.8
			c0.89,1.88,3.05,2.79,5.01,2.13c0,0,1.89-1.79,4.01,3.92c0,0,2.34,4.36,0.11,13.77l4.71-9.49l-2.65-12.6
			c0,0-10.64-10.92-11.31-11.15c-0.67-0.22-16.04,0.56-16.04,0.56l-14.59,13.43l1.76,12.53l5.8,11.09L103.31,1065.73z"/>
		<path id="Path_2377_4_" class="st43" d="M103.31,1064.84c0,0-5.68-9.85-3.68-16.34c0.28-1.5,0.97-2.9,2.01-4.03
			c0,0,3.01-2.8,2.89-4.59c0,0-0.55-3.13,0.78-3.02c1.57-0.12,3.13,0.27,4.46,1.12c0,0,3.01,1.34,7.57-1.57c0,0,4.01-2.46,6.47,2.8
			c0.89,1.88,3.05,2.79,5.01,2.13c0,0,2.67-0.9,4.01,3.92c0,0,1.89,4.25,0.11,13.77l4.34-9.48l-3.15-13.23c0,0-9.91-8.85-10.58-9.07
			c-0.67-0.22-15.24-0.13-15.24-0.13l-13.73,10.83l-0.38,14.49l6.17,11.59L103.31,1064.84z"/>
		<ellipse id="Ellipse_118_4_" class="st44" cx="110.1" cy="1035.4" rx="1.11" ry="0.9"/>
		<path id="Path_2404_4_" class="st45" d="M123.32,1035.36c-0.24,0.5-0.03,1.11,0.47,1.35c0.44,0.34,1.07,0.27,1.42-0.17
			c0.23-0.5,0.02-1.1-0.47-1.35C124.3,1034.86,123.67,1034.93,123.32,1035.36z"/>
		<ellipse id="Ellipse_120_4_" class="st44" cx="112.89" cy="1036.41" rx="0.89" ry="0.67"/>
		<ellipse id="Ellipse_121_4_" class="st44" cx="114.78" cy="1034.51" rx="0.89" ry="0.67"/>
		<ellipse id="Ellipse_122_4_" class="st46" cx="118.57" cy="1033.73" rx="0.89" ry="0.67"/>
		<path id="Path_2405_4_" class="st44" d="M126.76,1037.55c-0.31,0.13-0.46,0.49-0.33,0.81c0.19,0.28,0.57,0.36,0.85,0.18
			c0.31-0.13,0.46-0.49,0.33-0.81C127.43,1037.45,127.05,1037.37,126.76,1037.55z"/>
	</g>
	<path class="st47" d="M115.45,1025.22c-12.49,0-22.62,10.17-22.62,22.72c0,12.55,10.13,22.72,22.62,22.72s22.62-10.17,22.62-22.72
		C138.07,1035.39,127.94,1025.22,115.45,1025.22z M115.45,1068.6c-11.36,0-20.57-9.25-20.57-20.66c0-11.41,9.21-20.66,20.57-20.66
		s20.57,9.25,20.57,20.66C136.02,1059.35,126.81,1068.6,115.45,1068.6z"/>
</g>
<g>
	<path id="Path_2374_3_" class="st40" d="M164.27,1065.58c-4.46-11.86,2.56-25.52,15.6-30.44c13.04-4.92,27.19,0.67,31.64,12.53
		c4.46,11.86-2.56,25.52-15.6,30.44C182.88,1083.14,168.73,1077.44,164.27,1065.58z"/>
	<g id="Path_2375_3_">
		<path class="st1" d="M149.9,1047.94c0.04,13.99,11.4,25.29,25.37,25.25c13.97-0.04,25.26-11.42,25.21-25.4
			c-0.04-13.96-11.35-25.25-25.29-25.25c-13.98,0.01-25.3,11.37-25.29,25.37C149.9,1047.91,149.9,1047.93,149.9,1047.94z
			 M197.7,1047.94c-0.04,12.51-10.2,22.62-22.69,22.58c-12.49-0.04-22.59-10.21-22.55-22.72c0.04-12.48,10.15-22.58,22.62-22.58
			C187.59,1025.25,197.71,1035.42,197.7,1047.94L197.7,1047.94z"/>
		<path class="st41" d="M175.19,1073.69c-6.86,0-13.31-2.66-18.18-7.51c-4.89-4.86-7.59-11.34-7.61-18.24v-0.04
			c-0.01-14.25,11.56-25.86,25.79-25.87c14.18,0,25.75,11.55,25.79,25.75c0.04,14.24-11.49,25.86-25.71,25.91
			C175.24,1073.69,175.22,1073.69,175.19,1073.69z M150.4,1047.94c0.02,6.63,2.62,12.86,7.32,17.53c4.68,4.66,10.88,7.22,17.47,7.22
			c0.03,0,0.05,0,0.08,0c13.67-0.04,24.76-11.21,24.72-24.9c-0.04-13.65-11.16-24.75-24.79-24.75
			c-13.68,0.01-24.8,11.17-24.79,24.87l-0.5,0.04L150.4,1047.94z M175.08,1071.02c-0.02,0-0.05,0-0.07,0
			c-12.75-0.04-23.08-10.46-23.05-23.22c0.04-12.72,10.41-23.08,23.12-23.08c12.76,0.03,23.13,10.44,23.12,23.22v0
			c-0.02,6.18-2.44,11.99-6.82,16.35C187.01,1068.63,181.23,1071.02,175.08,1071.02z M175.08,1025.72
			c-12.16,0-22.08,9.9-22.12,22.08c-0.04,12.21,9.85,22.18,22.05,22.22c0.02,0,0.05,0,0.07,0c5.88,0,11.42-2.28,15.59-6.44
			c4.19-4.17,6.51-9.73,6.53-15.64C197.21,1035.71,187.28,1025.75,175.08,1025.72z"/>
	</g>
	<path class="st6" d="M175.19,1068.91c11.53,0,20.88-9.39,20.88-20.97s-9.35-20.97-20.88-20.97c-11.53,0-20.88,9.39-20.88,20.97
		S163.66,1068.91,175.19,1068.91z"/>
	<g id="Group_3449_3_">
		<path id="Path_2376_3_" class="st42" d="M163.05,1065.73c0,0-6.24-9.85-3.68-16.34c0.43-1.45,1.1-2.81,2.01-4.03
			c0,0,3.01-2.8,2.89-4.59c0,0-0.55-3.13,0.78-3.02c1.57-0.12,3.13,0.27,4.46,1.12c0,0,3.01,1.34,7.57-1.57c0,0,4.01-2.46,6.47,2.8
			c0.89,1.88,3.05,2.79,5.01,2.13c0,0,1.89-1.79,4.01,3.92c0,0,2.34,4.36,0.11,13.77l4.71-9.49l-2.65-12.6
			c0,0-10.64-10.92-11.31-11.15c-0.67-0.22-16.04,0.56-16.04,0.56l-14.59,13.43l1.76,12.53l5.8,11.09L163.05,1065.73z"/>
		<path id="Path_2377_3_" class="st43" d="M163.04,1064.84c0,0-5.68-9.85-3.68-16.34c0.28-1.5,0.97-2.9,2.01-4.03
			c0,0,3.01-2.8,2.89-4.59c0,0-0.55-3.13,0.78-3.02c1.57-0.12,3.13,0.27,4.46,1.12c0,0,3.01,1.34,7.57-1.57c0,0,4.01-2.46,6.47,2.8
			c0.89,1.88,3.05,2.79,5.01,2.13c0,0,2.67-0.9,4.01,3.92c0,0,1.89,4.25,0.11,13.77l4.34-9.48l-3.15-13.23c0,0-9.91-8.85-10.58-9.07
			c-0.67-0.22-15.24-0.13-15.24-0.13l-13.73,10.83l-0.38,14.49l6.17,11.59L163.04,1064.84z"/>
		<ellipse id="Ellipse_118_3_" class="st44" cx="169.84" cy="1035.4" rx="1.11" ry="0.9"/>
		<path id="Path_2404_3_" class="st45" d="M183.06,1035.36c-0.24,0.5-0.03,1.11,0.47,1.35c0.44,0.34,1.07,0.27,1.42-0.17
			c0.23-0.5,0.02-1.1-0.47-1.35C184.04,1034.86,183.41,1034.93,183.06,1035.36z"/>
		<ellipse id="Ellipse_120_3_" class="st44" cx="172.63" cy="1036.41" rx="0.89" ry="0.67"/>
		<ellipse id="Ellipse_121_3_" class="st44" cx="174.52" cy="1034.51" rx="0.89" ry="0.67"/>
		<ellipse id="Ellipse_122_3_" class="st46" cx="178.31" cy="1033.73" rx="0.89" ry="0.67"/>
		<path id="Path_2405_3_" class="st44" d="M186.5,1037.55c-0.31,0.13-0.46,0.49-0.33,0.81c0.19,0.28,0.57,0.36,0.85,0.18
			c0.31-0.13,0.46-0.49,0.33-0.81C187.17,1037.45,186.79,1037.37,186.5,1037.55z"/>
	</g>
	<path class="st47" d="M175.19,1025.22c-12.49,0-22.62,10.17-22.62,22.72c0,12.55,10.13,22.72,22.62,22.72s22.62-10.17,22.62-22.72
		C197.81,1035.39,187.68,1025.22,175.19,1025.22z M175.19,1068.6c-11.36,0-20.57-9.25-20.57-20.66c0-11.41,9.21-20.66,20.57-20.66
		s20.57,9.25,20.57,20.66C195.76,1059.35,186.55,1068.6,175.19,1068.6z"/>
</g>
<g>
	<path id="Path_2374" class="st40" d="M196.1,1120.36c-4.46-11.86,2.56-25.52,15.6-30.44s27.19,0.67,31.64,12.53
		c4.46,11.86-2.56,25.52-15.6,30.44C214.7,1137.93,200.55,1132.22,196.1,1120.36z"/>
	<g id="Path_2375">
		<path class="st1" d="M181.73,1102.72c0.04,13.99,11.4,25.29,25.37,25.25c13.97-0.04,25.26-11.42,25.21-25.4
			c-0.04-13.96-11.35-25.25-25.29-25.25c-13.98,0.01-25.3,11.37-25.29,25.37C181.73,1102.7,181.73,1102.71,181.73,1102.72z
			 M229.52,1102.72c-0.04,12.51-10.2,22.62-22.69,22.58c-12.49-0.04-22.59-10.21-22.55-22.72c0.04-12.48,10.15-22.58,22.62-22.58
			C219.41,1080.03,229.53,1090.2,229.52,1102.72L229.52,1102.72z"/>
		<path class="st41" d="M207.02,1128.47c-6.86,0-13.31-2.66-18.18-7.51c-4.89-4.86-7.59-11.34-7.61-18.24v-0.04
			c-0.01-14.25,11.56-25.86,25.79-25.87c14.18,0,25.75,11.55,25.79,25.75c0.04,14.24-11.49,25.86-25.71,25.91
			C207.07,1128.47,207.04,1128.47,207.02,1128.47z M182.23,1102.72c0.02,6.63,2.62,12.86,7.32,17.53
			c4.68,4.66,10.88,7.22,17.47,7.22c0.03,0,0.05,0,0.08,0c13.67-0.04,24.76-11.21,24.72-24.9c-0.04-13.65-11.16-24.75-24.79-24.75
			c-13.68,0.01-24.8,11.17-24.79,24.87l-0.5,0.04L182.23,1102.72z M206.91,1125.8c-0.02,0-0.05,0-0.07,0
			c-12.75-0.04-23.08-10.46-23.05-23.22c0.04-12.72,10.41-23.08,23.12-23.08c12.76,0.03,23.13,10.44,23.12,23.22v0
			c-0.02,6.18-2.44,11.99-6.82,16.35C218.84,1123.41,213.06,1125.8,206.91,1125.8z M206.91,1080.5c-12.16,0-22.08,9.9-22.12,22.08
			c-0.04,12.21,9.85,22.18,22.05,22.22c0.02,0,0.05,0,0.07,0c5.88,0,11.42-2.28,15.59-6.44c4.19-4.17,6.51-9.73,6.53-15.64
			C229.03,1090.5,219.11,1080.53,206.91,1080.5z"/>
	</g>
	<path class="st6" d="M207.02,1123.69c11.53,0,20.88-9.39,20.88-20.97s-9.35-20.97-20.88-20.97c-11.53,0-20.88,9.39-20.88,20.97
		S195.49,1123.69,207.02,1123.69z"/>
	<g id="Group_3449">
		<path id="Path_2376" class="st42" d="M194.88,1120.52c0,0-6.24-9.85-3.68-16.34c0.43-1.45,1.1-2.81,2.01-4.03
			c0,0,3.01-2.8,2.89-4.59c0,0-0.55-3.13,0.78-3.02c1.57-0.12,3.13,0.27,4.46,1.12c0,0,3.01,1.34,7.57-1.57c0,0,4.01-2.46,6.47,2.8
			c0.89,1.88,3.05,2.79,5.01,2.13c0,0,1.89-1.79,4.01,3.92c0,0,2.34,4.36,0.11,13.77l4.71-9.49l-2.65-12.6
			c0,0-10.64-10.92-11.31-11.15s-16.04,0.56-16.04,0.56l-14.59,13.43l1.76,12.53l5.8,11.09L194.88,1120.52z"/>
		<path id="Path_2377" class="st43" d="M194.87,1119.62c0,0-5.68-9.85-3.68-16.34c0.28-1.5,0.97-2.9,2.01-4.03
			c0,0,3.01-2.8,2.89-4.59c0,0-0.55-3.13,0.78-3.02c1.57-0.12,3.13,0.27,4.46,1.12c0,0,3.01,1.34,7.57-1.57c0,0,4.01-2.46,6.47,2.8
			c0.89,1.88,3.05,2.79,5.01,2.13c0,0,2.67-0.9,4.01,3.92c0,0,1.89,4.25,0.11,13.77l4.34-9.48l-3.15-13.23c0,0-9.91-8.85-10.58-9.07
			s-15.24-0.13-15.24-0.13l-13.73,10.83l-0.38,14.49l6.17,11.59L194.87,1119.62z"/>
		<ellipse id="Ellipse_118" class="st44" cx="201.67" cy="1090.19" rx="1.11" ry="0.9"/>
		<path id="Path_2404" class="st45" d="M214.89,1090.14c-0.24,0.5-0.03,1.11,0.47,1.35c0.44,0.34,1.07,0.27,1.42-0.17
			c0.23-0.5,0.02-1.1-0.47-1.35C215.86,1089.64,215.23,1089.71,214.89,1090.14z"/>
		<ellipse id="Ellipse_120" class="st44" cx="204.45" cy="1091.2" rx="0.89" ry="0.67"/>
		<ellipse id="Ellipse_121" class="st44" cx="206.35" cy="1089.29" rx="0.89" ry="0.67"/>
		<ellipse id="Ellipse_122" class="st46" cx="210.14" cy="1088.51" rx="0.89" ry="0.67"/>
		<path id="Path_2405" class="st44" d="M218.33,1092.33c-0.31,0.13-0.46,0.49-0.33,0.81c0.19,0.28,0.57,0.36,0.85,0.18
			c0.31-0.13,0.46-0.49,0.33-0.81C218.99,1092.23,218.61,1092.15,218.33,1092.33z"/>
	</g>
	<path class="st47" d="M207.02,1080c-12.49,0-22.62,10.17-22.62,22.72c0,12.55,10.13,22.72,22.62,22.72s22.62-10.17,22.62-22.72
		C229.63,1090.18,219.51,1080,207.02,1080z M207.02,1123.38c-11.36,0-20.57-9.25-20.57-20.66c0-11.41,9.21-20.66,20.57-20.66
		s20.57,9.25,20.57,20.66C227.58,1114.13,218.37,1123.38,207.02,1123.38z"/>
</g>
</svg>
