<?xml version="1.0" encoding="utf-8"?>
<!-- Generator: Adobe Illustrator 24.2.3, SVG Export Plug-In . SVG Version: 6.00 Build 0)  -->
<svg version="1.1" id="Layer_1" xmlns="http://www.w3.org/2000/svg" xmlns:xlink="http://www.w3.org/1999/xlink" x="0px" y="0px"
	 viewBox="0 0 300 300" style="enable-background:new 0 0 300 300;" xml:space="preserve">
<style type="text/css">
	.st0{fill:#757D91;}
	.st1{fill:#F5DBB6;}
	.st2{fill:#FFF2DD;}
	.st3{fill:#372412;}
	.st4{enable-background:new    ;}
	.st5{fill:#4164AD;}
	.st6{clip-path:url(#SVGID_2_);}
	.st7{fill:#557CBD;}
	.st8{clip-path:url(#SVGID_4_);}
	.st9{clip-path:url(#SVGID_6_);}
	.st10{fill:#D32027;}
	.st11{clip-path:url(#SVGID_8_);}
	.st12{fill:#EE4E72;}
	.st13{clip-path:url(#SVGID_10_);}
	.st14{clip-path:url(#SVGID_12_);}
	.st15{fill:#C2DDEE;}
	.st16{fill:#C2E2F2;}
	.st17{fill:#CBEBFB;}
	.st18{fill:#8396CC;}
	.st19{fill:#DEF2FC;}
	.st20{fill:url(#Rectangle_24436_2_);}
	.st21{fill:url(#Rectangle_24437_2_);}
	.st22{fill:url(#Rectangle_24438_2_);}
	.st23{fill:url(#Rectangle_24439_2_);}
	.st24{fill:#979797;}
	.st25{fill:#787878;}
	.st26{fill:url(#Rectangle_24441_2_);}
	.st27{fill:url(#Rectangle_24442_2_);}
	.st28{fill:url(#Rectangle_24443_2_);}
	.st29{fill:url(#Rectangle_24444_2_);}
	.st30{fill:url(#Rectangle_24445_2_);}
	.st31{fill:url(#Rectangle_24446_2_);}
	.st32{fill:url(#SVGID_13_);}
	.st33{fill:none;stroke:#686969;}
	.st34{fill:url(#SVGID_14_);}
	.st35{fill:url(#SVGID_15_);}
	.st36{fill:#C4C3C3;}
	.st37{fill:url(#SVGID_16_);}
	.st38{fill:url(#Rectangle_24457_1_);}
	.st39{clip-path:url(#SVGID_18_);}
	.st40{fill:#7E7E7E;}
	.st41{clip-path:url(#SVGID_20_);}
	.st42{fill:url(#Rectangle_24458_2_);}
	.st43{fill:url(#SVGID_21_);}
	.st44{fill:none;stroke:#686969;stroke-width:0.5;}
	.st45{fill:url(#SVGID_22_);}
	.st46{fill:url(#SVGID_23_);}
	.st47{fill:url(#SVGID_24_);}
	.st48{fill:url(#Rectangle_24458_3_);}
	.st49{fill:url(#SVGID_25_);}
	.st50{fill:url(#SVGID_26_);}
	.st51{fill:url(#SVGID_27_);}
	.st52{fill:url(#SVGID_28_);}
	.st53{fill:url(#Rectangle_24458-2_1_);}
	.st54{fill:url(#SVGID_29_);}
	.st55{fill:url(#SVGID_30_);}
	.st56{fill:url(#SVGID_31_);}
	.st57{fill:url(#SVGID_32_);}
	.st58{fill:url(#Rectangle_24458-3_1_);}
	.st59{fill:url(#SVGID_33_);}
	.st60{fill:url(#SVGID_34_);}
	.st61{fill:url(#SVGID_35_);}
	.st62{fill:url(#SVGID_36_);}
	.st63{fill:url(#Rectangle_24458-4_1_);}
	.st64{fill:url(#SVGID_37_);}
	.st65{fill:url(#SVGID_38_);}
	.st66{fill:url(#SVGID_39_);}
	.st67{fill:url(#SVGID_40_);}
	.st68{fill:url(#Rectangle_24458-5_2_);}
	.st69{fill:url(#SVGID_41_);}
	.st70{fill:url(#SVGID_42_);}
	.st71{fill:url(#SVGID_43_);}
	.st72{fill:url(#SVGID_44_);}
	.st73{fill:url(#Rectangle_24458-5_3_);}
	.st74{fill:url(#SVGID_45_);}
	.st75{fill:url(#SVGID_46_);}
	.st76{fill:url(#SVGID_47_);}
	.st77{fill:url(#SVGID_48_);}
	.st78{fill:url(#Rectangle_24454_1_);}
	.st79{fill:url(#Rectangle_24455_1_);}
	.st80{fill:url(#Rectangle_24848_1_);}
	.st81{fill:url(#Rectangle_24849_1_);}
	.st82{fill:url(#Rectangle_24858_1_);}
	.st83{fill:url(#Rectangle_24857_1_);}
	.st84{fill:#1F1F1F;}
	.st85{fill:url(#Path_10393_1_);}
	.st86{fill:url(#Path_10423_1_);}
	.st87{fill:#383838;}
	.st88{fill:url(#Rectangle_24858-2_1_);}
	.st89{fill:url(#Rectangle_24857-2_1_);}
	.st90{fill:url(#Rectangle_24850_1_);}
	.st91{fill:url(#Rectangle_24851_1_);}
	.st92{fill:url(#Rectangle_24852_1_);}
	.st93{fill:url(#Path_10397_1_);}
	.st94{fill:url(#Path_10398_1_);}
	.st95{fill:#010101;}
	.st96{fill:#DCDCDB;}
	.st97{fill:#DFDFDE;}
	.st98{fill:#3E3E3E;}
	.st99{fill:#3F4040;}
	.st100{fill:url(#Path_10405_1_);}
	.st101{fill:url(#Path_10425_1_);}
	.st102{fill:#6D6E6E;}
	.st103{fill:url(#Rectangle_24856_1_);}
	.st104{fill:#F2F2F2;}
	.st105{fill:#EFEFEF;}
	.st106{fill:url(#Rectangle_24858-3_1_);}
	.st107{fill:url(#Rectangle_24857-3_1_);}
	.st108{fill:url(#Rectangle_24858-4_1_);}
	.st109{fill:url(#Rectangle_24857-4_1_);}
	.st110{fill:url(#Rectangle_24858-5_1_);}
	.st111{fill:url(#Rectangle_24857-5_1_);}
	.st112{fill:url(#Rectangle_24858-6_1_);}
	.st113{fill:url(#Rectangle_24857-6_1_);}
	.st114{fill:url(#Rectangle_24858-7_1_);}
	.st115{fill:url(#Rectangle_24857-7_1_);}
	.st116{fill:url(#Rectangle_24858-8_1_);}
	.st117{fill:url(#Rectangle_24857-8_1_);}
	.st118{fill:url(#Path_10410_1_);}
	.st119{fill:url(#Path_10411_1_);}
	.st120{fill:#2F302A;}
	.st121{fill:url(#Path_10413_1_);}
	.st122{fill:#E7E7E7;}
	.st123{fill:url(#Path_10415_1_);}
	.st124{fill:url(#Path_10416_1_);}
	.st125{fill:#161616;}
	.st126{fill:#2E2F29;}
	.st127{fill:#595549;}
	.st128{fill:#79797A;}
	.st129{fill:#ABABAB;}
	.st130{fill:#C2C2C2;}
	.st131{fill:url(#Rectangle_24877_1_);}
	.st132{fill:url(#Rectangle_24848-2_1_);}
	.st133{fill:url(#Rectangle_24849-2_1_);}
	.st134{fill:url(#Rectangle_24858-9_1_);}
	.st135{fill:url(#Rectangle_24857-9_1_);}
	.st136{fill:url(#Path_10393-2_1_);}
	.st137{fill:url(#Path_10423-2_1_);}
	.st138{fill:url(#Rectangle_24858-10_1_);}
	.st139{fill:url(#Rectangle_24857-10_1_);}
	.st140{fill:url(#Rectangle_24850-2_1_);}
	.st141{fill:url(#Rectangle_24851-2_1_);}
	.st142{fill:url(#Path_10405-2_1_);}
	.st143{fill:url(#Path_10425-2_1_);}
	.st144{fill:url(#Rectangle_24856-2_1_);}
	.st145{fill:url(#Rectangle_24858-13_1_);}
	.st146{fill:url(#Rectangle_24857-13_1_);}
	.st147{fill:url(#Rectangle_24858-14_1_);}
	.st148{fill:url(#Rectangle_24857-14_1_);}
	.st149{fill:url(#Rectangle_24858-15_1_);}
	.st150{fill:url(#Rectangle_24857-15_1_);}
	.st151{fill:url(#Rectangle_24858-16_1_);}
	.st152{fill:url(#Rectangle_24857-16_1_);}
	.st153{fill:url(#Path_10416-2_1_);}
	.st154{fill:url(#SVGID_49_);}
</style>
<g id="Group_6607_1_" transform="translate(-269.22 -338.248)">
	<path id="Path_10512_1_" class="st15" d="M544.98,338.25H293.45c-13.37,0.04-24.19,11.54-24.23,25.73v248.55
		c0.04,14.19,10.86,25.68,24.23,25.73h251.53c13.37-0.04,24.2-11.54,24.24-25.73V363.97C569.18,349.78,558.35,338.29,544.98,338.25z
		"/>
	<path id="Path_10513_1_" class="st16" d="M534.17,351.14H304.26c-12.22,0.04-22.11,10.54-22.15,23.51v227.18
		c0.04,12.97,9.93,23.47,22.15,23.51h229.91c12.22-0.04,22.11-10.54,22.15-23.51V374.66C556.29,361.69,546.39,351.18,534.17,351.14z
		"/>
	<path id="Path_10514_1_" class="st17" d="M524,363.27H314.43c-11.14,0.03-20.16,9.61-20.19,21.43v207.08
		c0.03,11.82,9.05,21.4,20.19,21.43H524c11.14-0.03,20.16-9.61,20.19-21.43V384.71C544.17,372.88,535.14,363.3,524,363.27z"/>
	<path id="Path_10515_1_" class="st18" d="M542.42,360.19c0-4.27,3.25-7.74,7.28-7.74c4.02,0,7.29,3.45,7.29,7.73
		c0,4.27-3.25,7.74-7.28,7.74c0,0-0.01,0-0.01,0C545.68,367.92,542.42,364.46,542.42,360.19z"/>
	<path id="Path_10516_1_" class="st18" d="M538.7,621.51c0-4.27,3.25-7.74,7.28-7.74c4.02,0,7.29,3.45,7.29,7.73
		c0,4.27-3.25,7.74-7.28,7.74c0,0-0.01,0-0.01,0C541.96,629.23,538.7,625.78,538.7,621.51z"/>
	<path id="Path_10517_1_" class="st18" d="M284.79,360.19c0-4.27,3.25-7.74,7.28-7.74s7.29,3.45,7.29,7.73
		c0,4.27-3.25,7.74-7.28,7.74c0,0-0.01,0-0.01,0C288.06,367.92,284.8,364.46,284.79,360.19z"/>
	<path id="Path_10518_1_" class="st18" d="M281.07,621.51c0-4.27,3.25-7.74,7.28-7.74s7.29,3.45,7.29,7.73
		c0,4.27-3.25,7.74-7.28,7.74c0,0-0.01,0-0.01,0C284.33,629.23,281.07,625.78,281.07,621.51z"/>
	<g id="Group_6594_1_" transform="translate(279.382 458.068)">
		<g id="Group_6587_1_" transform="translate(123.55)">
			<g id="Group_6581_1_" transform="translate(130.781)">
				<path id="Path_10519_1_" class="st18" d="M18.89,23.2c0-3.73,1.48-6.75,3.31-6.75c1.83,0,3.3,3.02,3.3,6.75s-1.47,6.75-3.3,6.75
					C20.38,29.95,18.89,26.94,18.89,23.2z"/>
				<path id="Path_10520_1_" class="st19" d="M20.02,23.2c0-2.46,0.97-4.45,2.18-4.45c1.21,0,2.18,1.99,2.18,4.45
					s-0.98,4.45-2.18,4.45C21,27.65,20.02,25.66,20.02,23.2z"/>
			</g>
			<g id="Group_6582_1_" transform="translate(130.781 44.115)">
				<path id="Path_10521_1_" class="st18" d="M18.89,29.26c0-3.73,1.48-6.75,3.31-6.75c1.83,0,3.3,3.01,3.3,6.75
					s-1.47,6.75-3.3,6.75C20.38,36.01,18.89,33,18.89,29.26z"/>
				<path id="Path_10522_1_" class="st19" d="M20.02,29.26c0-2.46,0.97-4.45,2.18-4.45c1.21,0,2.18,1.99,2.18,4.45
					s-0.98,4.46-2.18,4.46C21,33.72,20.02,31.72,20.02,29.26z"/>
			</g>
			<g id="Group_6583_1_" transform="translate(130.781 88.229)">
				<path id="Path_10523_1_" class="st18" d="M18.89,35.32c0-3.73,1.48-6.75,3.31-6.75c1.83,0,3.3,3.01,3.3,6.75
					s-1.47,6.75-3.3,6.75C20.38,42.07,18.89,39.05,18.89,35.32z"/>
				<path id="Path_10524_1_" class="st19" d="M20.02,35.32c0-2.46,0.97-4.45,2.18-4.45c1.21,0,2.18,1.99,2.18,4.45
					c0,2.46-0.98,4.45-2.18,4.45C21,39.77,20.02,37.78,20.02,35.32z"/>
			</g>
			<g id="Group_6584_1_" transform="translate(88.229 132.729)">
				<path id="Path_10525_1_" class="st18" d="M22.22,34.69c3.51,0,6.35,1.58,6.35,3.51c0,1.94-2.84,3.5-6.35,3.5
					s-6.36-1.57-6.36-3.5S18.7,34.69,22.22,34.69z"/>
				<path id="Path_10526_1_" class="st19" d="M22.22,35.89c2.32,0,4.19,1.03,4.19,2.31s-1.88,2.31-4.19,2.31s-4.2-1.03-4.2-2.31
					S19.9,35.89,22.22,35.89z"/>
			</g>
			<g id="Group_6585_1_" transform="translate(44.111 132.729)">
				<path id="Path_10527_1_" class="st18" d="M19.07,34.69c3.51,0,6.36,1.58,6.36,3.51c0,1.94-2.84,3.5-6.36,3.5
					s-6.37-1.57-6.37-3.5S15.55,34.69,19.07,34.69z"/>
				<path id="Path_10528_1_" class="st19" d="M19.07,35.89c2.32,0,4.19,1.03,4.19,2.31s-1.87,2.31-4.19,2.31s-4.2-1.04-4.2-2.31
					S16.75,35.89,19.07,35.89z"/>
			</g>
			<g id="Group_6586_1_" transform="translate(0 132.729)">
				<path id="Path_10529_1_" class="st18" d="M15.91,34.69c3.51,0,6.36,1.58,6.36,3.51c0,1.94-2.84,3.5-6.36,3.5
					s-6.36-1.57-6.36-3.5S12.39,34.69,15.91,34.69z"/>
				<path id="Path_10530_1_" class="st19" d="M15.91,35.89c2.32,0,4.2,1.03,4.2,2.31s-1.88,2.31-4.2,2.31s-4.2-1.03-4.2-2.31
					S13.6,35.89,15.91,35.89z"/>
			</g>
		</g>
		<g id="Group_6593_1_">
			<g id="Group_6588_1_">
				<path id="Path_10531_1_" class="st18" d="M7.33,23.2c0-3.73-1.48-6.75-3.3-6.75s-3.3,3.02-3.3,6.75s1.48,6.75,3.3,6.75
					S7.33,26.94,7.33,23.2z"/>
				<path id="Path_10532_1_" class="st19" d="M6.2,23.2c0-2.46-0.98-4.45-2.18-4.45s-2.18,1.99-2.18,4.45s0.98,4.45,2.18,4.45
					S6.2,25.66,6.2,23.2z"/>
			</g>
			<g id="Group_6589_1_" transform="translate(0 44.115)">
				<path id="Path_10533_1_" class="st18" d="M7.33,29.26c0-3.73-1.48-6.75-3.3-6.75s-3.3,3.01-3.3,6.75s1.48,6.75,3.3,6.75
					S7.33,33,7.33,29.26z"/>
				<path id="Path_10534_1_" class="st19" d="M6.2,29.26c0-2.46-0.98-4.45-2.18-4.45s-2.18,1.99-2.18,4.45s0.98,4.46,2.18,4.46
					S6.2,31.72,6.2,29.26z"/>
			</g>
			<g id="Group_6590_1_" transform="translate(0 88.229)">
				<path id="Path_10535_1_" class="st18" d="M7.33,35.32c0-3.73-1.48-6.75-3.3-6.75s-3.3,3.01-3.3,6.75s1.48,6.75,3.3,6.75
					S7.33,39.05,7.33,35.32z"/>
				<path id="Path_10536_1_" class="st19" d="M6.2,35.32c0-2.46-0.98-4.45-2.18-4.45s-2.18,1.99-2.18,4.45
					c0,2.46,0.98,4.45,2.18,4.45S6.2,37.78,6.2,35.32z"/>
			</g>
			<g id="Group_6591_1_" transform="translate(36.849 132.729)">
				<path id="Path_10537_1_" class="st18" d="M9.71,34.69c-3.51,0-6.35,1.58-6.35,3.51c0,1.94,2.84,3.5,6.35,3.5s6.36-1.57,6.36-3.5
					S13.23,34.69,9.71,34.69z"/>
				<path id="Path_10538_1_" class="st19" d="M9.71,35.89c-2.32,0-4.19,1.03-4.19,2.31s1.87,2.31,4.19,2.31s4.2-1.03,4.2-2.31
					S12.03,35.89,9.71,35.89z"/>
			</g>
			<g id="Group_6592_1_" transform="translate(80.964 132.729)">
				<path id="Path_10539_1_" class="st18" d="M12.86,34.69c-3.52,0-6.36,1.58-6.36,3.51c0,1.94,2.84,3.5,6.36,3.5
					s6.37-1.57,6.37-3.5S16.38,34.69,12.86,34.69z"/>
				<path id="Path_10540_1_" class="st19" d="M12.86,35.89c-2.32,0-4.19,1.03-4.19,2.31s1.87,2.31,4.19,2.31s4.2-1.03,4.2-2.31
					S15.18,35.89,12.86,35.89z"/>
			</g>
		</g>
	</g>
	<g id="Group_6606_1_" transform="translate(279.382 346.892)">
		<g id="Group_6601_1_" transform="translate(0.799)">
			<g id="Group_6595_1_" transform="translate(253.532 38.801)">
				<path id="Path_10541_1_" class="st18" d="M18.89,13.27c0,3.73,1.48,6.75,3.31,6.75s3.3-3.02,3.3-6.75s-1.47-6.75-3.3-6.75
					C20.38,6.52,18.89,9.53,18.89,13.27z"/>
				<path id="Path_10542_1_" class="st19" d="M20.02,13.27c0,2.46,0.97,4.45,2.18,4.45s2.18-1.99,2.18-4.45S23.4,8.81,22.2,8.81
					S20.02,10.81,20.02,13.27z"/>
			</g>
			<g id="Group_6596_1_" transform="translate(210.98)">
				<path id="Path_10543_1_" class="st18" d="M22.22,8.2c3.51,0,6.35-1.58,6.35-3.51s-2.84-3.5-6.35-3.5s-6.36,1.57-6.36,3.5
					S18.7,8.2,22.22,8.2z"/>
				<path id="Path_10544_1_" class="st19" d="M22.22,7c2.32,0,4.19-1.03,4.19-2.31s-1.88-2.31-4.19-2.31s-4.2,1.03-4.2,2.31
					S19.9,7,22.22,7z"/>
			</g>
			<g id="Group_6597_1_" transform="translate(166.862)">
				<path id="Path_10545_1_" class="st18" d="M19.07,8.2c3.51,0,6.36-1.58,6.36-3.51s-2.84-3.5-6.36-3.5s-6.37,1.57-6.37,3.5
					S15.55,8.2,19.07,8.2z"/>
				<path id="Path_10546_1_" class="st19" d="M19.07,7c2.32,0,4.19-1.03,4.19-2.31s-1.87-2.31-4.19-2.31s-4.2,1.03-4.2,2.31
					S16.75,7,19.07,7z"/>
			</g>
			<g id="Group_6598_1_" transform="translate(122.751)">
				<path id="Path_10547_1_" class="st18" d="M15.91,8.2c3.51,0,6.36-1.58,6.36-3.51s-2.84-3.5-6.36-3.5s-6.36,1.57-6.36,3.5
					S12.39,8.2,15.91,8.2z"/>
				<path id="Path_10548_1_" class="st19" d="M15.91,7c2.32,0,4.2-1.03,4.2-2.31s-1.88-2.31-4.2-2.31s-4.2,1.03-4.2,2.31
					S13.6,7,15.91,7z"/>
			</g>
			<g id="Group_6599_1_" transform="translate(253.532 73.531)">
				<path id="Path_10549_1_" class="st18" d="M18.89,18.04c0,3.73,1.48,6.75,3.31,6.75s3.3-3.02,3.3-6.75s-1.47-6.75-3.3-6.75
					C20.38,11.29,18.89,14.3,18.89,18.04z"/>
				<path id="Path_10550_1_" class="st19" d="M20.02,18.04c0,2.46,0.97,4.45,2.18,4.45s2.18-1.99,2.18-4.45s-0.98-4.45-2.18-4.45
					S20.02,15.58,20.02,18.04z"/>
			</g>
			<g id="Group_6600_1_" transform="translate(0 73.531)">
				<path id="Path_10551_1_" class="st18" d="M0.78,18.04c0,3.73,1.48,6.75,3.31,6.75s3.3-3.02,3.3-6.75s-1.47-6.75-3.3-6.75
					S0.78,14.3,0.78,18.04z"/>
				<path id="Path_10552_1_" class="st19" d="M1.91,18.04c0,2.46,0.97,4.45,2.18,4.45s2.18-1.99,2.18-4.45s-0.98-4.45-2.18-4.45
					S1.91,15.58,1.91,18.04z"/>
			</g>
		</g>
		<g id="Group_6605_1_">
			<g id="Group_6602_1_" transform="translate(0 38.801)">
				<path id="Path_10553_1_" class="st18" d="M7.33,13.27c0,3.73-1.48,6.75-3.3,6.75s-3.3-3.02-3.3-6.75s1.48-6.75,3.3-6.75
					S7.33,9.53,7.33,13.27z"/>
				<path id="Path_10554_1_" class="st19" d="M6.2,13.27c0,2.46-0.98,4.45-2.18,4.45s-2.18-1.99-2.18-4.45s0.98-4.45,2.18-4.45
					S6.2,10.81,6.2,13.27z"/>
			</g>
			<g id="Group_6603_1_" transform="translate(36.849)">
				<path id="Path_10555_1_" class="st18" d="M9.71,8.2c-3.51,0-6.35-1.58-6.35-3.51s2.84-3.5,6.35-3.5s6.36,1.57,6.36,3.5
					S13.23,8.2,9.71,8.2z"/>
				<path id="Path_10556_1_" class="st19" d="M9.71,7C7.39,7,5.52,5.96,5.52,4.69s1.87-2.31,4.19-2.31s4.2,1.03,4.2,2.31
					S12.03,7,9.71,7z"/>
			</g>
			<g id="Group_6604_1_" transform="translate(80.964)">
				<path id="Path_10557_1_" class="st18" d="M12.86,8.2c-3.52,0-6.36-1.58-6.36-3.51s2.84-3.5,6.36-3.5s6.37,1.57,6.37,3.5
					S16.38,8.2,12.86,8.2z"/>
				<path id="Path_10558_1_" class="st19" d="M12.86,7c-2.32,0-4.19-1.03-4.19-2.31s1.87-2.31,4.19-2.31s4.2,1.03,4.2,2.31
					S15.18,7,12.86,7z"/>
			</g>
		</g>
	</g>
	<path id="Path_10559_1_" class="st19" d="M515.19,373.78H323.24c-10.2,0.03-18.46,8.8-18.49,19.63v189.68
		c0.03,10.83,8.29,19.6,18.49,19.63h191.95c10.2-0.03,18.46-8.8,18.49-19.63V393.41C533.65,382.58,525.39,373.81,515.19,373.78z"/>
</g>
</svg>
