<?xml version="1.0" encoding="utf-8"?>
<!-- Generator: Adobe Illustrator 24.2.3, SVG Export Plug-In . SVG Version: 6.00 Build 0)  -->
<svg version="1.1" id="Layer_1" xmlns="http://www.w3.org/2000/svg" xmlns:xlink="http://www.w3.org/1999/xlink" x="0px" y="0px"
	 viewBox="0 0 299.97 522.21" style="enable-background:new 0 0 299.97 522.21;" xml:space="preserve">
<style type="text/css">
	.st0{fill:#5A3112;}
	.st1{fill:#2C8942;}
	.st2{fill:#359E47;}
	.st3{fill:#664228;}
	.st4{opacity:0.5;fill:#664228;enable-background:new    ;}
	.st5{fill:url(#Path_786_2_);}
	.st6{fill:url(#Path_787_2_);}
	.st7{fill:url(#Path_788_2_);}
	.st8{fill:url(#Path_789_2_);}
	.st9{fill:url(#Path_790_2_);}
	.st10{fill:url(#Path_791_2_);}
	.st11{fill:url(#Path_792_2_);}
	.st12{fill:url(#Path_793_2_);}
	.st13{fill:url(#Path_794_2_);}
	.st14{fill:url(#Path_795_2_);}
	.st15{fill:url(#Path_796_2_);}
	.st16{fill:url(#Path_797_2_);}
	.st17{fill:url(#Path_798_2_);}
	.st18{fill:url(#Path_799_2_);}
	.st19{fill:url(#Path_800_2_);}
	.st20{fill:url(#Path_801_2_);}
	.st21{fill:url(#Path_802_2_);}
	.st22{fill:url(#Path_803_2_);}
	.st23{fill:url(#Path_804_2_);}
	.st24{fill:url(#Path_805_2_);}
	.st25{fill:url(#Path_806_2_);}
	.st26{fill:url(#Path_807_2_);}
	.st27{fill:url(#Path_808_2_);}
	.st28{fill:url(#Path_809_2_);}
	.st29{fill:url(#Path_810_2_);}
	.st30{fill:url(#Path_811_2_);}
	.st31{fill:url(#Path_812_2_);}
	.st32{fill:url(#Path_813_2_);}
	.st33{fill:url(#Path_814_2_);}
	.st34{fill:url(#Path_815_2_);}
	.st35{fill:url(#Path_816_2_);}
	.st36{fill:url(#Path_817_2_);}
	.st37{fill:url(#Path_818_2_);}
	.st38{fill:url(#Path_819_2_);}
	.st39{fill:url(#Path_820_2_);}
	.st40{fill:url(#Path_821_2_);}
</style>
<path id="Rectangle_19991_1_" class="st0" d="M282.43,522.19H17.54c-9.67,0-17.51-7.81-17.51-17.45l0,0V17.47
	c0-9.63,7.84-17.44,17.51-17.44h264.89c9.67,0,17.51,7.81,17.51,17.44v487.27C299.94,514.38,292.1,522.19,282.43,522.19z"/>
<rect id="Rectangle_19992_1_" x="19.84" y="19.77" class="st1" width="260.29" height="482.69"/>
<path id="Path_660_1_" class="st2" d="M261.51,502.45L261.51,502.45H38.46l0,0c0-8.56,6.97-15.51,15.57-15.51h191.91
	C254.54,486.95,261.51,493.89,261.51,502.45z"/>
<path id="Path_683_1_" class="st2" d="M261.51,19.77L261.51,19.77H38.46l0,0c0,8.57,6.97,15.51,15.57,15.51h191.91
	C254.54,35.27,261.51,28.33,261.51,19.77z"/>
<path id="Path_706_1_" class="st2" d="M19.9,275.14v208.63c8.6,0,15.57-6.94,15.57-15.51c0,0,0,0,0,0V290.65
	C35.47,282.08,28.5,275.14,19.9,275.14C19.9,275.14,19.9,275.14,19.9,275.14z"/>
<path id="Path_729_1_" class="st2" d="M19.9,247.08V37.6c8.6,0,15.57,6.94,15.57,15.51c0,0,0,0,0,0v178.46
	C35.47,240.14,28.5,247.08,19.9,247.08C19.9,247.08,19.9,247.08,19.9,247.08z"/>
<path id="Path_752_1_" class="st2" d="M280.13,246.1V38.45c-8.6,0-15.56,6.94-15.57,15.5v176.63
	C264.56,239.15,271.53,246.1,280.13,246.1z"/>
<path id="Path_775_1_" class="st2" d="M280.13,275.14v208.63c-8.6,0-15.57-6.94-15.57-15.51l0,0V290.65
	C264.56,282.08,271.53,275.14,280.13,275.14C280.13,275.14,280.13,275.14,280.13,275.14z"/>
<path id="Path_776_1_" class="st3" d="M19.84,19.77L5.72,4.74c-6.05,4.52-5.69,11.3-5.69,17.41v477.94c0,6.11-0.48,11.17,4.99,16.83
	l14.82-14.46L19.84,19.77z"/>
<path id="Path_777_1_" class="st4" d="M19.84,19.77L5.72,4.65c-6.05,5.14-5.69,11.39-5.69,17.5v477.94c0,6.11-0.69,10.17,4.94,16.72
	l14.87-14.35L19.84,19.77z"/>
<path id="Path_778_1_" class="st3" d="M22.22,0.03c-6.13,0-11.61-0.52-16.51,4.71l14.12,15.03h260.29l14.62-14.75
	c-5.14-5.66-10.88-4.98-17.01-4.98H22.22z"/>
<path id="Path_779_1_" class="st3" d="M19.84,502.45L5.02,516.91c4.58,5.51,11.07,5.28,17.2,5.28h255.52
	c6.13,0,10.88,0.53,16.78-4.87l-14.39-14.87L19.84,502.45z"/>
<path id="Path_780_1_" class="st4" d="M19.84,502.45L5.08,516.8c4.37,5.4,11.02,5.39,17.15,5.39h255.52
	c6.13,0,11.41,0.48,16.78-4.97l-14.39-14.77L19.84,502.45z"/>
<path id="Path_781_1_" class="st3" d="M280.13,19.77v482.69l14.34,14.87c6.05-5.19,5.47-11.14,5.47-17.25V22.14
	c0-6.11,0.63-11.06-5.25-17.13L280.13,19.77L280.13,19.77z"/>
<path id="Path_782_1_" class="st4" d="M280.13,19.77v482.69l14.42,14.85c5.96-6.12,5.4-11.12,5.4-17.23V22.14
	c0-6.11,0.77-10.72-5.19-17.13L280.13,19.77L280.13,19.77z"/>
<path id="Path_784_1_" d="M275.88,9.44c8.07,0,14.62,6.52,14.62,14.56c0,8.04-6.54,14.56-14.61,14.56
	c-8.07,0-14.62-6.52-14.62-14.56c0,0,0,0,0,0C261.27,15.96,267.81,9.44,275.88,9.44z"/>
<path id="Path_785_1_" d="M24.09,9.44c8.07,0,14.61,6.52,14.61,14.56c0,8.04-6.54,14.56-14.61,14.56c-8.07,0-14.61-6.52-14.61-14.56
	l0,0C9.47,15.96,16.01,9.44,24.09,9.44z"/>
<linearGradient id="Path_786_2_" gradientUnits="userSpaceOnUse" x1="-5563.5771" y1="2354.9724" x2="-5562.4648" y2="2354.9724" gradientTransform="matrix(0 -3.536 -3.536 0 8337.1436 -19216.6641)">
	<stop  offset="0" style="stop-color:#77441C"/>
	<stop  offset="1" style="stop-color:#4B1A0D"/>
</linearGradient>
<path id="Path_786_1_" class="st5" d="M9.93,452.27c1.09,0,1.97,0.88,1.97,1.97c0,1.09-0.88,1.97-1.97,1.97
	c-1.09,0-1.97-0.88-1.97-1.96C7.96,453.16,8.84,452.27,9.93,452.27C9.93,452.27,9.93,452.27,9.93,452.27z"/>
<linearGradient id="Path_787_2_" gradientUnits="userSpaceOnUse" x1="-5563.5688" y1="2354.3572" x2="-5562.4565" y2="2354.3572" gradientTransform="matrix(0 -3.534 -3.534 0 8330.2256 -19276.627)">
	<stop  offset="0" style="stop-color:#77441C"/>
	<stop  offset="1" style="stop-color:#4B1A0D"/>
</linearGradient>
<path id="Path_787_1_" class="st6" d="M9.93,381.07c1.09,0,1.97,0.88,1.97,1.97c0,1.09-0.88,1.97-1.97,1.97s-1.97-0.88-1.97-1.97
	l0,0C7.96,381.95,8.85,381.07,9.93,381.07z"/>
<linearGradient id="Path_788_2_" gradientUnits="userSpaceOnUse" x1="-5561.5366" y1="2354.3572" x2="-5560.4243" y2="2354.3572" gradientTransform="matrix(0 -3.534 -3.534 0 8330.2256 -19340.6445)">
	<stop  offset="0" style="stop-color:#77441C"/>
	<stop  offset="1" style="stop-color:#4B1A0D"/>
</linearGradient>
<path id="Path_788_1_" class="st7" d="M9.93,309.88c1.09,0,1.97,0.88,1.97,1.97c0,1.09-0.88,1.97-1.97,1.97s-1.97-0.88-1.97-1.97
	l0,0C7.96,310.76,8.85,309.88,9.93,309.88z"/>
<linearGradient id="Path_789_2_" gradientUnits="userSpaceOnUse" x1="-5565.6216" y1="2354.3755" x2="-5564.5093" y2="2354.3755" gradientTransform="matrix(0 -3.534 -3.534 0 8329.8633 -19211.957)">
	<stop  offset="0" style="stop-color:#E4E1DE"/>
	<stop  offset="0.196" style="stop-color:#D6D4D3"/>
	<stop  offset="0.569" style="stop-color:#AFB1B4"/>
	<stop  offset="0.876" style="stop-color:#8A9197"/>
	<stop  offset="1" style="stop-color:#D1D3D4"/>
	<stop  offset="1" style="stop-color:#A7A8AB"/>
</linearGradient>
<path id="Path_789_1_" class="st8" d="M9.47,453c1.09,0,1.97,0.88,1.97,1.97s-0.88,1.97-1.97,1.97s-1.97-0.88-1.97-1.97l0,0
	C7.5,453.88,8.38,453,9.47,453z"/>
<linearGradient id="Path_790_2_" gradientUnits="userSpaceOnUse" x1="-5563.5894" y1="2354.3708" x2="-5562.4771" y2="2354.3708" gradientTransform="matrix(0 -3.534 -3.534 0 8329.8115 -19275.9746)">
	<stop  offset="0" style="stop-color:#E4E1DE"/>
	<stop  offset="0.196" style="stop-color:#D6D4D3"/>
	<stop  offset="0.569" style="stop-color:#AFB1B4"/>
	<stop  offset="0.876" style="stop-color:#8A9197"/>
	<stop  offset="1" style="stop-color:#D1D3D4"/>
	<stop  offset="1" style="stop-color:#A7A8AB"/>
</linearGradient>
<path id="Path_790_1_" class="st9" d="M9.47,381.8c1.09,0,1.97,0.88,1.97,1.97s-0.88,1.97-1.97,1.97s-1.97-0.88-1.97-1.97l0,0
	C7.5,382.68,8.38,381.8,9.47,381.8z"/>
<linearGradient id="Path_791_2_" gradientUnits="userSpaceOnUse" x1="-5561.5571" y1="2354.3708" x2="-5560.4453" y2="2354.3708" gradientTransform="matrix(0 -3.534 -3.534 0 8329.8115 -19339.9902)">
	<stop  offset="0" style="stop-color:#E4E1DE"/>
	<stop  offset="0.196" style="stop-color:#D6D4D3"/>
	<stop  offset="0.569" style="stop-color:#AFB1B4"/>
	<stop  offset="0.876" style="stop-color:#8A9197"/>
	<stop  offset="1" style="stop-color:#D1D3D4"/>
	<stop  offset="1" style="stop-color:#A7A8AB"/>
</linearGradient>
<path id="Path_791_1_" class="st10" d="M9.47,310.6c1.09,0,1.97,0.88,1.97,1.97c0,1.09-0.88,1.97-1.97,1.97s-1.97-0.88-1.97-1.97
	l0,0C7.5,311.48,8.38,310.6,9.47,310.6z"/>
<linearGradient id="Path_792_2_" gradientUnits="userSpaceOnUse" x1="-5563.5771" y1="2340.6001" x2="-5562.4648" y2="2340.6001" gradientTransform="matrix(0 -3.536 -3.536 0 8566.7666 -19216.6641)">
	<stop  offset="0" style="stop-color:#77441C"/>
	<stop  offset="1" style="stop-color:#4B1A0D"/>
</linearGradient>
<path id="Path_792_1_" class="st11" d="M290.38,452.27c1.09,0,1.97,0.88,1.97,1.97c0,1.09-0.88,1.97-1.97,1.97
	c-1.09,0-1.97-0.88-1.97-1.96C288.4,453.16,289.29,452.27,290.38,452.27C290.38,452.27,290.38,452.27,290.38,452.27z"/>
<linearGradient id="Path_793_2_" gradientUnits="userSpaceOnUse" x1="-5563.5532" y1="2339.9861" x2="-5562.4409" y2="2339.9861" gradientTransform="matrix(0 -3.534 -3.534 0 8559.9521 -19276.6582)">
	<stop  offset="0" style="stop-color:#77441C"/>
	<stop  offset="1" style="stop-color:#4B1A0D"/>
</linearGradient>
<path id="Path_793_1_" class="st12" d="M290.38,381.07c1.09,0,1.97,0.88,1.97,1.97c0,1.09-0.88,1.96-1.97,1.96
	c-1.09,0-1.97-0.88-1.97-1.97C288.4,381.95,289.29,381.07,290.38,381.07C290.38,381.07,290.38,381.07,290.38,381.07z"/>
<linearGradient id="Path_794_2_" gradientUnits="userSpaceOnUse" x1="-5561.521" y1="2339.9861" x2="-5560.4092" y2="2339.9861" gradientTransform="matrix(0 -3.534 -3.534 0 8559.9521 -19340.6738)">
	<stop  offset="0" style="stop-color:#77441C"/>
	<stop  offset="1" style="stop-color:#4B1A0D"/>
</linearGradient>
<path id="Path_794_1_" class="st13" d="M290.38,309.88c1.09,0,1.97,0.88,1.97,1.97s-0.88,1.96-1.97,1.96
	c-1.09,0-1.97-0.88-1.97-1.97C288.4,310.76,289.29,309.88,290.38,309.88C290.38,309.88,290.38,309.88,290.38,309.88z"/>
<linearGradient id="Path_795_2_" gradientUnits="userSpaceOnUse" x1="-5565.6216" y1="2339.9998" x2="-5564.5093" y2="2339.9998" gradientTransform="matrix(0 -3.534 -3.534 0 8559.5391 -19211.957)">
	<stop  offset="0" style="stop-color:#E4E1DE"/>
	<stop  offset="0.196" style="stop-color:#D6D4D3"/>
	<stop  offset="0.569" style="stop-color:#AFB1B4"/>
	<stop  offset="0.876" style="stop-color:#8A9197"/>
	<stop  offset="1" style="stop-color:#D1D3D4"/>
	<stop  offset="1" style="stop-color:#A7A8AB"/>
</linearGradient>
<path id="Path_795_1_" class="st14" d="M289.92,453c1.09,0,1.97,0.88,1.97,1.97s-0.88,1.97-1.97,1.97c-1.09,0-1.97-0.88-1.97-1.97
	l0,0C287.94,453.88,288.83,453,289.92,453z"/>
<linearGradient id="Path_796_2_" gradientUnits="userSpaceOnUse" x1="-5563.5894" y1="2339.9902" x2="-5562.4771" y2="2339.9902" gradientTransform="matrix(0 -3.534 -3.534 0 8559.4346 -19275.9746)">
	<stop  offset="0" style="stop-color:#E4E1DE"/>
	<stop  offset="0.196" style="stop-color:#D6D4D3"/>
	<stop  offset="0.569" style="stop-color:#AFB1B4"/>
	<stop  offset="0.876" style="stop-color:#8A9197"/>
	<stop  offset="1" style="stop-color:#D1D3D4"/>
	<stop  offset="1" style="stop-color:#A7A8AB"/>
</linearGradient>
<path id="Path_796_1_" class="st15" d="M289.92,381.8c1.09,0,1.97,0.88,1.97,1.97s-0.88,1.97-1.97,1.97c-1.09,0-1.97-0.88-1.97-1.97
	l0,0C287.94,382.68,288.83,381.8,289.92,381.8z"/>
<linearGradient id="Path_797_2_" gradientUnits="userSpaceOnUse" x1="-5561.5571" y1="2339.9902" x2="-5560.4453" y2="2339.9902" gradientTransform="matrix(0 -3.534 -3.534 0 8559.4346 -19339.9902)">
	<stop  offset="0" style="stop-color:#E4E1DE"/>
	<stop  offset="0.196" style="stop-color:#D6D4D3"/>
	<stop  offset="0.569" style="stop-color:#AFB1B4"/>
	<stop  offset="0.876" style="stop-color:#8A9197"/>
	<stop  offset="1" style="stop-color:#D1D3D4"/>
	<stop  offset="1" style="stop-color:#A7A8AB"/>
</linearGradient>
<path id="Path_797_1_" class="st16" d="M289.92,310.6c1.09,0,1.97,0.88,1.97,1.97c0,1.09-0.88,1.97-1.97,1.97
	c-1.09,0-1.97-0.88-1.97-1.97l0,0C287.94,311.48,288.83,310.6,289.92,310.6z"/>
<linearGradient id="Path_798_2_" gradientUnits="userSpaceOnUse" x1="-5631.293" y1="2354.3572" x2="-5630.1807" y2="2354.3572" gradientTransform="matrix(0 -3.534 -3.534 0 8330.2256 -19432.5293)">
	<stop  offset="0" style="stop-color:#77441C"/>
	<stop  offset="1" style="stop-color:#4B1A0D"/>
</linearGradient>
<path id="Path_798_1_" class="st17" d="M9.93,207.68c1.09,0,1.97,0.88,1.97,1.97s-0.88,1.97-1.97,1.97c-1.09,0-1.97-0.88-1.97-1.96
	C7.96,208.56,8.85,207.68,9.93,207.68z"/>
<linearGradient id="Path_799_2_" gradientUnits="userSpaceOnUse" x1="-5629.2607" y1="2354.3572" x2="-5628.1489" y2="2354.3572" gradientTransform="matrix(0 -3.534 -3.534 0 8330.2256 -19496.5469)">
	<stop  offset="0" style="stop-color:#77441C"/>
	<stop  offset="1" style="stop-color:#4B1A0D"/>
</linearGradient>
<path id="Path_799_1_" class="st18" d="M9.93,136.48c1.09,0,1.97,0.88,1.97,1.97s-0.88,1.97-1.97,1.97c-1.09,0-1.97-0.88-1.97-1.96
	C7.96,137.37,8.85,136.49,9.93,136.48z"/>
<linearGradient id="Path_800_2_" gradientUnits="userSpaceOnUse" x1="-5627.229" y1="2354.3572" x2="-5626.1167" y2="2354.3572" gradientTransform="matrix(0 -3.534 -3.534 0 8330.2256 -19560.5625)">
	<stop  offset="0" style="stop-color:#77441C"/>
	<stop  offset="1" style="stop-color:#4B1A0D"/>
</linearGradient>
<path id="Path_800_1_" class="st19" d="M9.93,65.29c1.09,0,1.97,0.88,1.97,1.97c0,1.09-0.88,1.97-1.97,1.97s-1.97-0.88-1.97-1.97
	l0,0C7.96,66.17,8.85,65.29,9.93,65.29z"/>
<linearGradient id="Path_801_2_" gradientUnits="userSpaceOnUse" x1="-5629.2349" y1="2354.9814" x2="-5628.1226" y2="2354.9814" gradientTransform="matrix(0 -3.536 -3.536 0 8336.6777 -19435.9902)">
	<stop  offset="0" style="stop-color:#E4E1DE"/>
	<stop  offset="0.196" style="stop-color:#D6D4D3"/>
	<stop  offset="0.569" style="stop-color:#AFB1B4"/>
	<stop  offset="0.876" style="stop-color:#8A9197"/>
	<stop  offset="1" style="stop-color:#D1D3D4"/>
	<stop  offset="1" style="stop-color:#A7A8AB"/>
</linearGradient>
<path id="Path_801_1_" class="st20" d="M9.47,208.41c1.09,0,1.97,0.88,1.97,1.97c0,1.09-0.88,1.97-1.97,1.97s-1.97-0.88-1.97-1.97
	c0,0,0,0,0,0C7.5,209.29,8.38,208.41,9.47,208.41z"/>
<linearGradient id="Path_802_2_" gradientUnits="userSpaceOnUse" x1="-5627.2036" y1="2354.9814" x2="-5626.0918" y2="2354.9814" gradientTransform="matrix(0 -3.536 -3.536 0 8336.6777 -19500.0059)">
	<stop  offset="0" style="stop-color:#E4E1DE"/>
	<stop  offset="0.196" style="stop-color:#D6D4D3"/>
	<stop  offset="0.569" style="stop-color:#AFB1B4"/>
	<stop  offset="0.876" style="stop-color:#8A9197"/>
	<stop  offset="1" style="stop-color:#D1D3D4"/>
	<stop  offset="1" style="stop-color:#A7A8AB"/>
</linearGradient>
<path id="Path_802_1_" class="st21" d="M9.47,137.21c1.09,0,1.97,0.88,1.97,1.97c0,1.09-0.88,1.97-1.97,1.97s-1.97-0.88-1.97-1.97
	c0,0,0,0,0,0C7.5,138.09,8.38,137.21,9.47,137.21z"/>
<linearGradient id="Path_803_2_" gradientUnits="userSpaceOnUse" x1="-5625.1729" y1="2354.9814" x2="-5624.0605" y2="2354.9814" gradientTransform="matrix(0 -3.536 -3.536 0 8336.6777 -19564.0234)">
	<stop  offset="0" style="stop-color:#E4E1DE"/>
	<stop  offset="0.196" style="stop-color:#D6D4D3"/>
	<stop  offset="0.569" style="stop-color:#AFB1B4"/>
	<stop  offset="0.876" style="stop-color:#8A9197"/>
	<stop  offset="1" style="stop-color:#D1D3D4"/>
	<stop  offset="1" style="stop-color:#A7A8AB"/>
</linearGradient>
<path id="Path_803_1_" class="st22" d="M9.47,66.01c1.09,0,1.97,0.88,1.97,1.97c0,1.09-0.88,1.97-1.97,1.97
	c-1.09,0-1.97-0.88-1.97-1.97C7.5,66.9,8.38,66.02,9.47,66.01z"/>
<linearGradient id="Path_804_2_" gradientUnits="userSpaceOnUse" x1="-5631.2622" y1="2339.9766" x2="-5630.1489" y2="2339.9766" gradientTransform="matrix(0 -3.534 -3.534 0 8559.8477 -19432.5918)">
	<stop  offset="0" style="stop-color:#77441C"/>
	<stop  offset="1" style="stop-color:#4B1A0D"/>
</linearGradient>
<path id="Path_804_1_" class="st23" d="M290.38,207.68c1.09,0,1.97,0.88,1.97,1.97c0,1.09-0.88,1.96-1.97,1.96
	c-1.09,0-1.97-0.88-1.97-1.96C288.41,208.56,289.29,207.68,290.38,207.68L290.38,207.68z"/>
<linearGradient id="Path_805_2_" gradientUnits="userSpaceOnUse" x1="-5629.2305" y1="2339.9766" x2="-5628.1172" y2="2339.9766" gradientTransform="matrix(0 -3.534 -3.534 0 8559.8477 -19496.6074)">
	<stop  offset="0" style="stop-color:#77441C"/>
	<stop  offset="1" style="stop-color:#4B1A0D"/>
</linearGradient>
<path id="Path_805_1_" class="st24" d="M290.38,136.48c1.09,0,1.97,0.88,1.97,1.97c0,1.09-0.88,1.96-1.97,1.96
	c-1.09,0-1.97-0.88-1.97-1.96C288.41,137.36,289.29,136.48,290.38,136.48L290.38,136.48z"/>
<linearGradient id="Path_806_2_" gradientUnits="userSpaceOnUse" x1="-5627.1982" y1="2339.9766" x2="-5626.085" y2="2339.9766" gradientTransform="matrix(0 -3.534 -3.534 0 8559.8477 -19560.625)">
	<stop  offset="0" style="stop-color:#77441C"/>
	<stop  offset="1" style="stop-color:#4B1A0D"/>
</linearGradient>
<path id="Path_806_1_" class="st25" d="M290.38,65.29c1.09,0,1.97,0.88,1.97,1.97c0,1.09-0.88,1.96-1.97,1.96
	c-1.09,0-1.97-0.88-1.97-1.97C288.41,66.17,289.29,65.29,290.38,65.29C290.38,65.29,290.38,65.29,290.38,65.29z"/>
<linearGradient id="Path_807_2_" gradientUnits="userSpaceOnUse" x1="-5629.2349" y1="2340.6138" x2="-5628.1226" y2="2340.6138" gradientTransform="matrix(0 -3.536 -3.536 0 8566.3525 -19435.9902)">
	<stop  offset="0" style="stop-color:#E4E1DE"/>
	<stop  offset="0.196" style="stop-color:#D6D4D3"/>
	<stop  offset="0.569" style="stop-color:#AFB1B4"/>
	<stop  offset="0.876" style="stop-color:#8A9197"/>
	<stop  offset="1" style="stop-color:#D1D3D4"/>
	<stop  offset="1" style="stop-color:#A7A8AB"/>
</linearGradient>
<path id="Path_807_1_" class="st26" d="M289.92,208.41c1.09,0,1.97,0.88,1.97,1.97c0,1.09-0.88,1.97-1.97,1.97
	c-1.09,0-1.97-0.88-1.97-1.97c0,0,0,0,0,0C287.94,209.29,288.83,208.41,289.92,208.41z"/>
<linearGradient id="Path_808_2_" gradientUnits="userSpaceOnUse" x1="-5627.2036" y1="2340.6138" x2="-5626.0918" y2="2340.6138" gradientTransform="matrix(0 -3.536 -3.536 0 8566.3525 -19500.0059)">
	<stop  offset="0" style="stop-color:#E4E1DE"/>
	<stop  offset="0.196" style="stop-color:#D6D4D3"/>
	<stop  offset="0.569" style="stop-color:#AFB1B4"/>
	<stop  offset="0.876" style="stop-color:#8A9197"/>
	<stop  offset="1" style="stop-color:#D1D3D4"/>
	<stop  offset="1" style="stop-color:#A7A8AB"/>
</linearGradient>
<path id="Path_808_1_" class="st27" d="M289.92,137.21c1.09,0,1.97,0.88,1.97,1.97c0,1.09-0.88,1.97-1.97,1.97
	c-1.09,0-1.97-0.88-1.97-1.97c0,0,0,0,0,0C287.94,138.09,288.83,137.21,289.92,137.21z"/>
<linearGradient id="Path_809_2_" gradientUnits="userSpaceOnUse" x1="-5625.1729" y1="2340.6138" x2="-5624.0605" y2="2340.6138" gradientTransform="matrix(0 -3.536 -3.536 0 8566.3525 -19564.0234)">
	<stop  offset="0" style="stop-color:#E4E1DE"/>
	<stop  offset="0.196" style="stop-color:#D6D4D3"/>
	<stop  offset="0.569" style="stop-color:#AFB1B4"/>
	<stop  offset="0.876" style="stop-color:#8A9197"/>
	<stop  offset="1" style="stop-color:#D1D3D4"/>
	<stop  offset="1" style="stop-color:#A7A8AB"/>
</linearGradient>
<path id="Path_809_1_" class="st28" d="M289.92,66.01c1.09,0,1.97,0.88,1.97,1.97s-0.88,1.97-1.97,1.97c-1.09,0-1.97-0.88-1.97-1.97
	C287.94,66.9,288.83,66.02,289.92,66.01z"/>
<linearGradient id="Path_810_2_" gradientUnits="userSpaceOnUse" x1="-5673.7236" y1="2349.3005" x2="-5672.6113" y2="2349.3005" gradientTransform="matrix(0 -3.534 -3.534 0 8380.2578 -19612.2461)">
	<stop  offset="0" style="stop-color:#77441C"/>
	<stop  offset="1" style="stop-color:#4B1A0D"/>
</linearGradient>
<path id="Path_810_1_" class="st29" d="M79.81,9.77c0-1.09-0.88-1.97-1.97-1.97s-1.97,0.88-1.97,1.97c0,1.08,0.88,1.96,1.97,1.97
	C78.93,11.74,79.81,10.86,79.81,9.77z"/>
<linearGradient id="Path_811_2_" gradientUnits="userSpaceOnUse" x1="-5653.5796" y1="2347.1919" x2="-5652.4673" y2="2347.1919" gradientTransform="matrix(0 -3.534 -3.534 0 8444.2754 -19612.2461)">
	<stop  offset="0" style="stop-color:#77441C"/>
	<stop  offset="1" style="stop-color:#4B1A0D"/>
</linearGradient>
<path id="Path_811_1_" class="st30" d="M151.28,9.77c0-1.09-0.88-1.97-1.97-1.97s-1.97,0.88-1.97,1.97c0,1.08,0.88,1.96,1.97,1.97
	C150.4,11.74,151.28,10.86,151.28,9.77z"/>
<linearGradient id="Path_812_2_" gradientUnits="userSpaceOnUse" x1="-5633.437" y1="2345.0833" x2="-5632.3247" y2="2345.0833" gradientTransform="matrix(0 -3.534 -3.534 0 8508.291 -19612.2461)">
	<stop  offset="0" style="stop-color:#77441C"/>
	<stop  offset="1" style="stop-color:#4B1A0D"/>
</linearGradient>
<path id="Path_812_1_" class="st31" d="M222.75,9.77c0-1.09-0.88-1.97-1.97-1.97s-1.97,0.88-1.97,1.97c0,1.08,0.88,1.96,1.97,1.97
	C221.86,11.74,222.75,10.86,222.75,9.77z"/>
<linearGradient id="Path_813_2_" gradientUnits="userSpaceOnUse" x1="-5673.7656" y1="2349.3223" x2="-5672.6533" y2="2349.3223" gradientTransform="matrix(0 -3.534 -3.534 0 8379.6025 -19611.832)">
	<stop  offset="0" style="stop-color:#E4E1DE"/>
	<stop  offset="0.196" style="stop-color:#D6D4D3"/>
	<stop  offset="0.569" style="stop-color:#AFB1B4"/>
	<stop  offset="0.876" style="stop-color:#8A9197"/>
	<stop  offset="1" style="stop-color:#D1D3D4"/>
	<stop  offset="1" style="stop-color:#A7A8AB"/>
</linearGradient>
<path id="Path_813_1_" class="st32" d="M79.08,10.23c0-1.09-0.88-1.97-1.97-1.97c-1.09,0-1.97,0.88-1.97,1.97s0.88,1.97,1.97,1.97
	l0,0C78.19,12.2,79.08,11.32,79.08,10.23z"/>
<linearGradient id="Path_814_2_" gradientUnits="userSpaceOnUse" x1="-5653.6304" y1="2347.2136" x2="-5652.5186" y2="2347.2136" gradientTransform="matrix(0 -3.534 -3.534 0 8443.6211 -19611.832)">
	<stop  offset="0" style="stop-color:#E4E1DE"/>
	<stop  offset="0.196" style="stop-color:#D6D4D3"/>
	<stop  offset="0.569" style="stop-color:#AFB1B4"/>
	<stop  offset="0.876" style="stop-color:#8A9197"/>
	<stop  offset="1" style="stop-color:#D1D3D4"/>
	<stop  offset="1" style="stop-color:#A7A8AB"/>
</linearGradient>
<path id="Path_814_1_" class="st33" d="M150.55,10.23c0-1.09-0.88-1.97-1.97-1.97s-1.97,0.88-1.97,1.97c0,1.08,0.88,1.96,1.97,1.97
	C149.66,12.2,150.55,11.32,150.55,10.23z"/>
<linearGradient id="Path_815_2_" gradientUnits="userSpaceOnUse" x1="-5631.478" y1="2345.7349" x2="-5630.3657" y2="2345.7349" gradientTransform="matrix(0 -3.536 -3.536 0 8514.6582 -19615.8867)">
	<stop  offset="0" style="stop-color:#E4E1DE"/>
	<stop  offset="0.196" style="stop-color:#D6D4D3"/>
	<stop  offset="0.569" style="stop-color:#AFB1B4"/>
	<stop  offset="0.876" style="stop-color:#8A9197"/>
	<stop  offset="1" style="stop-color:#D1D3D4"/>
	<stop  offset="1" style="stop-color:#A7A8AB"/>
</linearGradient>
<path id="Path_815_1_" class="st34" d="M222.02,10.23c0-1.09-0.88-1.97-1.97-1.97c-1.09,0-1.97,0.88-1.97,1.97s0.88,1.97,1.97,1.97
	c0,0,0,0,0,0C221.13,12.2,222.02,11.32,222.02,10.23z"/>
<linearGradient id="Path_816_2_" gradientUnits="userSpaceOnUse" x1="-5545.9736" y1="2349.3101" x2="-5544.8613" y2="2349.3101" gradientTransform="matrix(0 -3.534 -3.534 0 8380.3633 -19160.6914)">
	<stop  offset="0" style="stop-color:#77441C"/>
	<stop  offset="1" style="stop-color:#4B1A0D"/>
</linearGradient>
<path id="Path_816_1_" class="st35" d="M79.81,511.99c0-1.09-0.88-1.96-1.97-1.96s-1.97,0.88-1.97,1.97c0,1.08,0.88,1.96,1.97,1.96
	C78.93,513.95,79.81,513.07,79.81,511.99z"/>
<linearGradient id="Path_817_2_" gradientUnits="userSpaceOnUse" x1="-5525.8389" y1="2347.2014" x2="-5524.7266" y2="2347.2014" gradientTransform="matrix(0 -3.534 -3.534 0 8444.3799 -19160.6914)">
	<stop  offset="0" style="stop-color:#77441C"/>
	<stop  offset="1" style="stop-color:#4B1A0D"/>
</linearGradient>
<path id="Path_817_1_" class="st36" d="M151.28,511.99c0-1.09-0.88-1.96-1.97-1.96s-1.97,0.88-1.97,1.97c0,1.08,0.88,1.96,1.97,1.96
	C150.4,513.95,151.28,513.07,151.28,511.99z"/>
<linearGradient id="Path_818_2_" gradientUnits="userSpaceOnUse" x1="-5505.7026" y1="2345.0928" x2="-5504.5903" y2="2345.0928" gradientTransform="matrix(0 -3.534 -3.534 0 8508.3955 -19160.6914)">
	<stop  offset="0" style="stop-color:#77441C"/>
	<stop  offset="1" style="stop-color:#4B1A0D"/>
</linearGradient>
<path id="Path_818_1_" class="st37" d="M222.75,511.99c0-1.09-0.88-1.96-1.97-1.96s-1.97,0.88-1.97,1.97c0,1.08,0.88,1.96,1.97,1.96
	C221.86,513.95,222.75,513.07,222.75,511.99z"/>
<linearGradient id="Path_819_2_" gradientUnits="userSpaceOnUse" x1="-5546.0547" y1="2349.3223" x2="-5544.9434" y2="2349.3223" gradientTransform="matrix(0 -3.534 -3.534 0 8379.6025 -19160.2793)">
	<stop  offset="0" style="stop-color:#E4E1DE"/>
	<stop  offset="0.196" style="stop-color:#D6D4D3"/>
	<stop  offset="0.569" style="stop-color:#AFB1B4"/>
	<stop  offset="0.876" style="stop-color:#8A9197"/>
	<stop  offset="1" style="stop-color:#D1D3D4"/>
	<stop  offset="1" style="stop-color:#A7A8AB"/>
</linearGradient>
<path id="Path_819_1_" class="st38" d="M79.08,512.45c0-1.09-0.88-1.97-1.97-1.97c-1.09,0-1.97,0.88-1.97,1.97
	c0,1.09,0.88,1.97,1.97,1.97l0,0C78.19,514.41,79.08,513.53,79.08,512.45z"/>
<linearGradient id="Path_820_2_" gradientUnits="userSpaceOnUse" x1="-5525.9121" y1="2347.2136" x2="-5524.7998" y2="2347.2136" gradientTransform="matrix(0 -3.534 -3.534 0 8443.6211 -19160.2793)">
	<stop  offset="0" style="stop-color:#E4E1DE"/>
	<stop  offset="0.196" style="stop-color:#D6D4D3"/>
	<stop  offset="0.569" style="stop-color:#AFB1B4"/>
	<stop  offset="0.876" style="stop-color:#8A9197"/>
	<stop  offset="1" style="stop-color:#D1D3D4"/>
	<stop  offset="1" style="stop-color:#A7A8AB"/>
</linearGradient>
<path id="Path_820_1_" class="st39" d="M150.55,512.45c0-1.09-0.88-1.97-1.97-1.97s-1.97,0.88-1.97,1.97c0,1.08,0.88,1.96,1.97,1.97
	C149.67,514.41,150.55,513.54,150.55,512.45z"/>
<linearGradient id="Path_821_2_" gradientUnits="userSpaceOnUse" x1="-5503.7588" y1="2345.7349" x2="-5502.6465" y2="2345.7349" gradientTransform="matrix(0 -3.536 -3.536 0 8514.6582 -19164.3027)">
	<stop  offset="0" style="stop-color:#E4E1DE"/>
	<stop  offset="0.196" style="stop-color:#D6D4D3"/>
	<stop  offset="0.569" style="stop-color:#AFB1B4"/>
	<stop  offset="0.876" style="stop-color:#8A9197"/>
	<stop  offset="1" style="stop-color:#D1D3D4"/>
	<stop  offset="1" style="stop-color:#A7A8AB"/>
</linearGradient>
<path id="Path_821_1_" class="st40" d="M222.02,512.45c0-1.09-0.88-1.97-1.97-1.97c-1.09,0-1.97,0.88-1.97,1.97
	c0,1.09,0.88,1.97,1.97,1.97c0,0,0,0,0,0C221.13,514.41,222.02,513.54,222.02,512.45z"/>
<path id="Path_822_1_" d="M24.09,483.67c8.07,0,14.61,6.52,14.61,14.56s-6.54,14.56-14.61,14.56c-8.07,0-14.61-6.52-14.61-14.56
	C9.47,490.18,16.01,483.67,24.09,483.67C24.09,483.67,24.09,483.67,24.09,483.67z"/>
<path id="Path_823_1_" d="M275.88,246.55c8.07,0,14.62,6.52,14.62,14.56c0,8.04-6.54,14.56-14.61,14.56
	c-8.07,0-14.62-6.52-14.62-14.56c0,0,0,0,0,0C261.27,253.07,267.81,246.55,275.88,246.55z"/>
<path id="Path_823_2_" d="M24.08,246.55c8.07,0,14.62,6.52,14.62,14.56c0,8.04-6.54,14.56-14.61,14.56
	c-8.07,0-14.62-6.52-14.62-14.56c0,0,0,0,0,0C9.47,253.07,16.01,246.55,24.08,246.55z"/>
<path id="Path_824_1_" d="M275.88,483.67c8.07,0,14.62,6.52,14.62,14.56c0,8.04-6.54,14.56-14.61,14.56
	c-8.07,0-14.62-6.52-14.62-14.56c0,0,0,0,0,0C261.27,490.18,267.81,483.67,275.88,483.67z"/>
<path id="Path_825_1_" d="M24.09,483.67c8.07,0,14.61,6.52,14.61,14.56s-6.54,14.56-14.61,14.56c-8.07,0-14.61-6.52-14.61-14.56
	C9.47,490.18,16.01,483.67,24.09,483.67C24.09,483.67,24.09,483.67,24.09,483.67z"/>
</svg>
