<?xml version="1.0" encoding="utf-8"?>
<!-- Generator: Adobe Illustrator 24.2.3, SVG Export Plug-In . SVG Version: 6.00 Build 0)  -->
<svg version="1.1" id="Layer_1" xmlns="http://www.w3.org/2000/svg" xmlns:xlink="http://www.w3.org/1999/xlink" x="0px" y="0px"
	 viewBox="0 0 300 56.3" style="enable-background:new 0 0 300 56.3;" xml:space="preserve">
<style type="text/css">
	.st0{fill:url(#Rectangle_24457_1_);}
	.st1{clip-path:url(#SVGID_2_);}
	.st2{fill:#7E7E7E;}
	.st3{fill:url(#Rectangle_24458_2_);}
	.st4{fill:url(#SVGID_3_);}
	.st5{fill:#686868;}
	.st6{fill:url(#SVGID_4_);}
	.st7{fill:url(#SVGID_5_);}
	.st8{fill:url(#SVGID_6_);}
	.st9{fill:url(#Rectangle_24458_3_);}
	.st10{fill:url(#SVGID_7_);}
	.st11{fill:url(#SVGID_8_);}
	.st12{fill:url(#SVGID_9_);}
	.st13{fill:url(#SVGID_10_);}
	.st14{fill:url(#Rectangle_24458-2_1_);}
	.st15{fill:url(#SVGID_11_);}
	.st16{fill:url(#SVGID_12_);}
	.st17{fill:url(#SVGID_13_);}
	.st18{fill:url(#SVGID_14_);}
	.st19{fill:url(#Rectangle_24458-3_1_);}
	.st20{fill:url(#SVGID_15_);}
	.st21{fill:url(#SVGID_16_);}
	.st22{fill:url(#SVGID_17_);}
	.st23{fill:url(#SVGID_18_);}
	.st24{fill:url(#Rectangle_24458-4_1_);}
	.st25{fill:url(#SVGID_19_);}
	.st26{fill:url(#SVGID_20_);}
	.st27{fill:url(#SVGID_21_);}
	.st28{fill:url(#SVGID_22_);}
	.st29{fill:url(#Rectangle_24458-5_2_);}
	.st30{fill:url(#SVGID_23_);}
	.st31{fill:url(#SVGID_24_);}
	.st32{fill:url(#SVGID_25_);}
	.st33{fill:url(#SVGID_26_);}
	.st34{fill:url(#Rectangle_24458-5_3_);}
	.st35{fill:url(#SVGID_27_);}
	.st36{fill:url(#SVGID_28_);}
	.st37{fill:url(#SVGID_29_);}
	.st38{fill:url(#SVGID_30_);}
	.st39{fill:none;}
	.st40{fill:url(#Rectangle_24454_1_);}
	.st41{fill:url(#Rectangle_24455_1_);}
</style>
<g>
	
		<linearGradient id="Rectangle_24457_1_" gradientUnits="userSpaceOnUse" x1="-3529.1436" y1="697.9692" x2="-3529.4387" y2="697.9692" gradientTransform="matrix(2.000000e-15 -38.358 -572.734 -3.500000e-14 399900.6875 -135348.9219)">
		<stop  offset="0" style="stop-color:#9C9C9C"/>
		<stop  offset="0.155" style="stop-color:#C6CACA"/>
		<stop  offset="0.796" style="stop-color:#D6D6D6"/>
		<stop  offset="1" style="stop-color:#848484"/>
	</linearGradient>
	<rect id="Rectangle_24457" x="5.1" y="22" class="st0" width="289.9" height="10.6"/>
	<g>
		<defs>
			<rect id="SVGID_1_" x="14.4" y="21.9" width="267.4" height="10.7"/>
		</defs>
		<clipPath id="SVGID_2_">
			<use xlink:href="#SVGID_1_"  style="overflow:visible;"/>
		</clipPath>
		<g id="Repeat_Grid_14" transform="translate(1874.917 1353.667)" class="st1">
			<g transform="translate(-1875 -1354)">
				<rect id="Rectangle_24494" x="64.4" y="22.3" class="st2" width="9.1" height="10.8"/>
			</g>
			<g transform="translate(-1875 -1354)">
				<rect id="Rectangle_24494_1_" x="24.7" y="22.3" class="st2" width="9.1" height="10.8"/>
			</g>
			<g transform="translate(-1764 -1354)">
				<rect id="Rectangle_24494-2" x="-6" y="22.3" class="st2" width="9.1" height="10.8"/>
			</g>
			<g transform="translate(-1653 -1354)">
				<rect id="Rectangle_24494-3" x="-76.4" y="22.3" class="st2" width="9.1" height="10.8"/>
			</g>
			<g transform="translate(-1542 -1354)">
				<rect id="Rectangle_24494-4" x="-146.7" y="22.3" class="st2" width="9.1" height="10.8"/>
			</g>
			<g transform="translate(-1431 -1354)">
				<rect id="Rectangle_24494-5" x="-217.1" y="22.3" class="st2" width="9.1" height="10.8"/>
			</g>
			<g transform="translate(-1431 -1354)">
				<rect id="Rectangle_24494-5_1_" x="-176.6" y="22.3" class="st2" width="9.1" height="10.8"/>
			</g>
		</g>
	</g>
	<g id="Repeat_Grid_12" transform="translate(1848.554 1288.071)">
		<g id="Group_5731">
			
				<linearGradient id="Rectangle_24458_2_" gradientUnits="userSpaceOnUse" x1="-5350.9497" y1="-590.6443" x2="-5350.6738" y2="-590.6443" gradientTransform="matrix(19.983 0 0 -170.627 105145.625 -102040.5703)">
				<stop  offset="0" style="stop-color:#3D3D3D"/>
				<stop  offset="0.249" style="stop-color:#8E8E8E"/>
				<stop  offset="0.514" style="stop-color:#FFFFFF"/>
				<stop  offset="1" style="stop-color:#535453"/>
			</linearGradient>
			<path id="Rectangle_24458" class="st3" d="M-1779.6-1284.2L-1779.6-1284.2c1.5,0,2.8,1.2,2.8,2.8v41.5c0,1.5-1.2,2.8-2.8,2.8l0,0
				c-1.5,0-2.8-1.2-2.8-2.8v-41.5C-1782.4-1283-1781.2-1284.2-1779.6-1284.2z"/>
			<g id="Group_5729" transform="translate(0 17.831)">
				<g id="Rectangle_24459" transform="translate(0 13.527)">
					
						<linearGradient id="SVGID_3_" gradientUnits="userSpaceOnUse" x1="-5367.6943" y1="-629.381" x2="-5367.9702" y2="-629.381" gradientTransform="matrix(85.16 0 0 -25.21 455344.875 -17170.1602)">
						<stop  offset="0" style="stop-color:#BCBEC0"/>
						<stop  offset="8.400000e-02" style="stop-color:#B8B9B9"/>
						<stop  offset="0.214" style="stop-color:#939598"/>
						<stop  offset="0.544" style="stop-color:#FFFFFF"/>
						<stop  offset="0.766" style="stop-color:#939598"/>
						<stop  offset="1" style="stop-color:#7E7E7E"/>
					</linearGradient>
					<rect x="-1791.5" y="-1306.9" class="st4" width="23.5" height="7"/>
					<g>
						<path class="st5" d="M-1767.9-1299.9h-23.7v-7.2h23.7V-1299.9z M-1791.1-1300.4h22.7v-6.2h-22.7V-1300.4z"/>
					</g>
				</g>
				<g id="Rectangle_24460" transform="translate(11.99 1)">
					
						<linearGradient id="SVGID_4_" gradientUnits="userSpaceOnUse" x1="-5377.6377" y1="-625.1372" x2="-5377.9131" y2="-625.1372" gradientTransform="matrix(61.18 0 0 -13.527 327220.5938 -9752.2363)">
						<stop  offset="0" style="stop-color:#BCBEC0"/>
						<stop  offset="8.400000e-02" style="stop-color:#B8B9B9"/>
						<stop  offset="0.214" style="stop-color:#939598"/>
						<stop  offset="0.544" style="stop-color:#FFFFFF"/>
						<stop  offset="0.766" style="stop-color:#939598"/>
						<stop  offset="1" style="stop-color:#7E7E7E"/>
					</linearGradient>
					<rect x="-1800.2" y="-1297.9" class="st6" width="16.9" height="3.7"/>
					<g>
						<path class="st5" d="M-1783.2-1294h-17.1v-4h17.1V-1294z M-1799.8-1294.5h16.1v-3h-16.1V-1294.5z"/>
					</g>
				</g>
			</g>
			<g id="Group_5730" transform="translate(0 115.935)">
				<g id="Rectangle_24461">
					
						<linearGradient id="SVGID_5_" gradientUnits="userSpaceOnUse" x1="-5367.6943" y1="-711.5281" x2="-5367.9702" y2="-711.5281" gradientTransform="matrix(85.16 0 0 -25.21 455344.875 -19302.3477)">
						<stop  offset="0" style="stop-color:#BCBEC0"/>
						<stop  offset="8.400000e-02" style="stop-color:#B8B9B9"/>
						<stop  offset="0.214" style="stop-color:#939598"/>
						<stop  offset="0.544" style="stop-color:#FFFFFF"/>
						<stop  offset="0.766" style="stop-color:#939598"/>
						<stop  offset="1" style="stop-color:#7E7E7E"/>
					</linearGradient>
					<rect x="-1791.5" y="-1368.2" class="st7" width="23.5" height="7"/>
					<g>
						<path class="st5" d="M-1767.9-1361.1h-23.7v-7.2h23.7V-1361.1z M-1791.1-1361.6h22.7v-6.2h-22.7V-1361.6z"/>
					</g>
				</g>
				<g id="Rectangle_24462" transform="translate(11.99 24.21)">
					
						<linearGradient id="SVGID_6_" gradientUnits="userSpaceOnUse" x1="-5377.6377" y1="-739.9558" x2="-5377.9131" y2="-739.9558" gradientTransform="matrix(61.18 0 0 -13.527 327220.5938 -11393.251)">
						<stop  offset="0" style="stop-color:#BCBEC0"/>
						<stop  offset="8.400000e-02" style="stop-color:#B8B9B9"/>
						<stop  offset="0.214" style="stop-color:#939598"/>
						<stop  offset="0.544" style="stop-color:#FFFFFF"/>
						<stop  offset="0.766" style="stop-color:#939598"/>
						<stop  offset="1" style="stop-color:#7E7E7E"/>
					</linearGradient>
					<rect x="-1800.2" y="-1385.7" class="st8" width="16.9" height="3.7"/>
					<g>
						<path class="st5" d="M-1783.2-1381.9h-17.1v-4h17.1V-1381.9z M-1799.8-1382.4h16.1v-3h-16.1V-1382.4z"/>
					</g>
				</g>
			</g>
		</g>
		<g id="Group_5731_1_">
			
				<linearGradient id="Rectangle_24458_3_" gradientUnits="userSpaceOnUse" x1="-5352.9502" y1="-590.6443" x2="-5352.6748" y2="-590.6443" gradientTransform="matrix(19.983 0 0 -170.627 105145.625 -102040.5703)">
				<stop  offset="0" style="stop-color:#3D3D3D"/>
				<stop  offset="0.249" style="stop-color:#8E8E8E"/>
				<stop  offset="0.514" style="stop-color:#FFFFFF"/>
				<stop  offset="1" style="stop-color:#535453"/>
			</linearGradient>
			<path id="Rectangle_24458_1_" class="st9" d="M-1819.6-1284.2L-1819.6-1284.2c1.5,0,2.8,1.2,2.8,2.8v41.5c0,1.5-1.2,2.8-2.8,2.8
				l0,0c-1.5,0-2.8-1.2-2.8-2.8v-41.5C-1822.4-1283-1821.1-1284.2-1819.6-1284.2z"/>
			<g id="Group_5729_1_" transform="translate(0 17.831)">
				<g id="Rectangle_24459_1_" transform="translate(0 13.527)">
					
						<linearGradient id="SVGID_7_" gradientUnits="userSpaceOnUse" x1="-5368.1636" y1="-629.381" x2="-5368.4395" y2="-629.381" gradientTransform="matrix(85.16 0 0 -25.21 455344.875 -17170.1602)">
						<stop  offset="0" style="stop-color:#BCBEC0"/>
						<stop  offset="8.400000e-02" style="stop-color:#B8B9B9"/>
						<stop  offset="0.214" style="stop-color:#939598"/>
						<stop  offset="0.544" style="stop-color:#FFFFFF"/>
						<stop  offset="0.766" style="stop-color:#939598"/>
						<stop  offset="1" style="stop-color:#7E7E7E"/>
					</linearGradient>
					<rect x="-1831.5" y="-1306.9" class="st10" width="23.5" height="7"/>
					<g>
						<path class="st5" d="M-1807.9-1299.9h-23.7v-7.2h23.7V-1299.9z M-1831.1-1300.4h22.7v-6.2h-22.7V-1300.4z"/>
					</g>
				</g>
				<g id="Rectangle_24460_1_" transform="translate(11.99 1)">
					
						<linearGradient id="SVGID_8_" gradientUnits="userSpaceOnUse" x1="-5378.291" y1="-625.1372" x2="-5378.5669" y2="-625.1372" gradientTransform="matrix(61.18 0 0 -13.527 327220.5938 -9752.2363)">
						<stop  offset="0" style="stop-color:#BCBEC0"/>
						<stop  offset="8.400000e-02" style="stop-color:#B8B9B9"/>
						<stop  offset="0.214" style="stop-color:#939598"/>
						<stop  offset="0.544" style="stop-color:#FFFFFF"/>
						<stop  offset="0.766" style="stop-color:#939598"/>
						<stop  offset="1" style="stop-color:#7E7E7E"/>
					</linearGradient>
					<rect x="-1840.1" y="-1297.9" class="st11" width="16.9" height="3.7"/>
					<g>
						<path class="st5" d="M-1823.2-1294h-17.1v-4h17.1V-1294z M-1839.7-1294.5h16.1v-3h-16.1V-1294.5z"/>
					</g>
				</g>
			</g>
			<g id="Group_5730_1_" transform="translate(0 115.935)">
				<g id="Rectangle_24461_1_">
					
						<linearGradient id="SVGID_9_" gradientUnits="userSpaceOnUse" x1="-5368.1636" y1="-711.5281" x2="-5368.4395" y2="-711.5281" gradientTransform="matrix(85.16 0 0 -25.21 455344.875 -19302.3477)">
						<stop  offset="0" style="stop-color:#BCBEC0"/>
						<stop  offset="8.400000e-02" style="stop-color:#B8B9B9"/>
						<stop  offset="0.214" style="stop-color:#939598"/>
						<stop  offset="0.544" style="stop-color:#FFFFFF"/>
						<stop  offset="0.766" style="stop-color:#939598"/>
						<stop  offset="1" style="stop-color:#7E7E7E"/>
					</linearGradient>
					<rect x="-1831.5" y="-1368.2" class="st12" width="23.5" height="7"/>
					<g>
						<path class="st5" d="M-1807.9-1361.1h-23.7v-7.2h23.7V-1361.1z M-1831.1-1361.6h22.7v-6.2h-22.7V-1361.6z"/>
					</g>
				</g>
				<g id="Rectangle_24462_1_" transform="translate(11.99 24.21)">
					
						<linearGradient id="SVGID_10_" gradientUnits="userSpaceOnUse" x1="-5378.291" y1="-739.9558" x2="-5378.5669" y2="-739.9558" gradientTransform="matrix(61.18 0 0 -13.527 327220.5938 -11393.251)">
						<stop  offset="0" style="stop-color:#BCBEC0"/>
						<stop  offset="8.400000e-02" style="stop-color:#B8B9B9"/>
						<stop  offset="0.214" style="stop-color:#939598"/>
						<stop  offset="0.544" style="stop-color:#FFFFFF"/>
						<stop  offset="0.766" style="stop-color:#939598"/>
						<stop  offset="1" style="stop-color:#7E7E7E"/>
					</linearGradient>
					<rect x="-1840.1" y="-1385.7" class="st13" width="16.9" height="3.7"/>
					<g>
						<path class="st5" d="M-1823.2-1381.9h-17.1v-4h17.1V-1381.9z M-1839.7-1382.4h16.1v-3h-16.1V-1382.4z"/>
					</g>
				</g>
			</g>
		</g>
		<g id="Group_5731-2" transform="translate(111)">
			
				<linearGradient id="Rectangle_24458-2_1_" gradientUnits="userSpaceOnUse" x1="-5465.4722" y1="-590.6443" x2="-5465.1963" y2="-590.6443" gradientTransform="matrix(19.983 0 0 -170.627 107363.7344 -102040.5703)">
				<stop  offset="0" style="stop-color:#3D3D3D"/>
				<stop  offset="0.249" style="stop-color:#8E8E8E"/>
				<stop  offset="0.514" style="stop-color:#FFFFFF"/>
				<stop  offset="1" style="stop-color:#535453"/>
			</linearGradient>
			<path id="Rectangle_24458-2" class="st14" d="M-1850-1284.2L-1850-1284.2c1.5,0,2.8,1.2,2.8,2.8v41.5c0,1.5-1.2,2.8-2.8,2.8l0,0
				c-1.5,0-2.8-1.2-2.8-2.8v-41.5C-1852.8-1283-1851.6-1284.2-1850-1284.2z"/>
			<g id="Group_5729-2" transform="translate(0 17.831)">
				<g id="Rectangle_24459-2" transform="translate(0 13.527)">
					
						<linearGradient id="SVGID_11_" gradientUnits="userSpaceOnUse" x1="-5479.521" y1="-629.381" x2="-5479.7964" y2="-629.381" gradientTransform="matrix(85.16 0 0 -25.21 464797.625 -17170.1602)">
						<stop  offset="0" style="stop-color:#BCBEC0"/>
						<stop  offset="8.400000e-02" style="stop-color:#B8B9B9"/>
						<stop  offset="0.214" style="stop-color:#939598"/>
						<stop  offset="0.544" style="stop-color:#FFFFFF"/>
						<stop  offset="0.766" style="stop-color:#939598"/>
						<stop  offset="1" style="stop-color:#7E7E7E"/>
					</linearGradient>
					<rect x="-1861.9" y="-1306.9" class="st15" width="23.5" height="7"/>
					<g>
						<path class="st5" d="M-1838.3-1299.9h-23.7v-7.2h23.7V-1299.9z M-1861.5-1300.4h22.7v-6.2h-22.7V-1300.4z"/>
					</g>
				</g>
				<g id="Rectangle_24460-2" transform="translate(11.99 1)">
					
						<linearGradient id="SVGID_12_" gradientUnits="userSpaceOnUse" x1="-5489.7881" y1="-625.1372" x2="-5490.064" y2="-625.1372" gradientTransform="matrix(61.18 0 0 -13.527 334011.5625 -9752.2363)">
						<stop  offset="0" style="stop-color:#BCBEC0"/>
						<stop  offset="8.400000e-02" style="stop-color:#B8B9B9"/>
						<stop  offset="0.214" style="stop-color:#939598"/>
						<stop  offset="0.544" style="stop-color:#FFFFFF"/>
						<stop  offset="0.766" style="stop-color:#939598"/>
						<stop  offset="1" style="stop-color:#7E7E7E"/>
					</linearGradient>
					<rect x="-1870.5" y="-1297.9" class="st16" width="16.9" height="3.7"/>
					<g>
						<path class="st5" d="M-1853.6-1294h-17.1v-4h17.1V-1294z M-1870.2-1294.5h16.1v-3h-16.1V-1294.5z"/>
					</g>
				</g>
			</g>
			<g id="Group_5730-2" transform="translate(0 115.935)">
				<g id="Rectangle_24461-2">
					
						<linearGradient id="SVGID_13_" gradientUnits="userSpaceOnUse" x1="-5479.521" y1="-711.5281" x2="-5479.7964" y2="-711.5281" gradientTransform="matrix(85.16 0 0 -25.21 464797.625 -19302.3477)">
						<stop  offset="0" style="stop-color:#BCBEC0"/>
						<stop  offset="8.400000e-02" style="stop-color:#B8B9B9"/>
						<stop  offset="0.214" style="stop-color:#939598"/>
						<stop  offset="0.544" style="stop-color:#FFFFFF"/>
						<stop  offset="0.766" style="stop-color:#939598"/>
						<stop  offset="1" style="stop-color:#7E7E7E"/>
					</linearGradient>
					<rect x="-1861.9" y="-1368.2" class="st17" width="23.5" height="7"/>
					<g>
						<path class="st5" d="M-1838.3-1361.1h-23.7v-7.2h23.7V-1361.1z M-1861.5-1361.6h22.7v-6.2h-22.7V-1361.6z"/>
					</g>
				</g>
				<g id="Rectangle_24462-2" transform="translate(11.99 24.21)">
					
						<linearGradient id="SVGID_14_" gradientUnits="userSpaceOnUse" x1="-5489.7881" y1="-739.9558" x2="-5490.064" y2="-739.9558" gradientTransform="matrix(61.18 0 0 -13.527 334011.5625 -11393.251)">
						<stop  offset="0" style="stop-color:#BCBEC0"/>
						<stop  offset="8.400000e-02" style="stop-color:#B8B9B9"/>
						<stop  offset="0.214" style="stop-color:#939598"/>
						<stop  offset="0.544" style="stop-color:#FFFFFF"/>
						<stop  offset="0.766" style="stop-color:#939598"/>
						<stop  offset="1" style="stop-color:#7E7E7E"/>
					</linearGradient>
					<rect x="-1870.5" y="-1385.7" class="st18" width="16.9" height="3.7"/>
					<g>
						<path class="st5" d="M-1853.6-1381.9h-17.1v-4h17.1V-1381.9z M-1870.2-1382.4h16.1v-3h-16.1V-1382.4z"/>
					</g>
				</g>
			</g>
		</g>
		<g id="Group_5731-3" transform="translate(222)">
			
				<linearGradient id="Rectangle_24458-3_1_" gradientUnits="userSpaceOnUse" x1="-5579.9951" y1="-590.6443" x2="-5579.7192" y2="-590.6443" gradientTransform="matrix(19.983 0 0 -170.627 109581.8516 -102040.5703)">
				<stop  offset="0" style="stop-color:#3D3D3D"/>
				<stop  offset="0.249" style="stop-color:#8E8E8E"/>
				<stop  offset="0.514" style="stop-color:#FFFFFF"/>
				<stop  offset="1" style="stop-color:#535453"/>
			</linearGradient>
			<path id="Rectangle_24458-3" class="st19" d="M-1920.4-1284.2L-1920.4-1284.2c1.5,0,2.8,1.2,2.8,2.8v41.5c0,1.5-1.2,2.8-2.8,2.8
				l0,0c-1.5,0-2.8-1.2-2.8-2.8v-41.5C-1923.2-1283-1922-1284.2-1920.4-1284.2z"/>
			<g id="Group_5729-3" transform="translate(0 17.831)">
				<g id="Rectangle_24459-3" transform="translate(0 13.527)">
					
						<linearGradient id="SVGID_15_" gradientUnits="userSpaceOnUse" x1="-5591.3477" y1="-629.381" x2="-5591.623" y2="-629.381" gradientTransform="matrix(85.16 0 0 -25.21 474250.4063 -17170.1602)">
						<stop  offset="0" style="stop-color:#BCBEC0"/>
						<stop  offset="8.400000e-02" style="stop-color:#B8B9B9"/>
						<stop  offset="0.214" style="stop-color:#939598"/>
						<stop  offset="0.544" style="stop-color:#FFFFFF"/>
						<stop  offset="0.766" style="stop-color:#939598"/>
						<stop  offset="1" style="stop-color:#7E7E7E"/>
					</linearGradient>
					<rect x="-1932.3" y="-1306.9" class="st20" width="23.5" height="7"/>
					<g>
						<path class="st5" d="M-1908.7-1299.9h-23.7v-7.2h23.7V-1299.9z M-1931.9-1300.4h22.7v-6.2h-22.7V-1300.4z"/>
					</g>
				</g>
				<g id="Rectangle_24460-3" transform="translate(11.99 1)">
					
						<linearGradient id="SVGID_16_" gradientUnits="userSpaceOnUse" x1="-5601.939" y1="-625.1372" x2="-5602.2144" y2="-625.1372" gradientTransform="matrix(61.18 0 0 -13.527 340802.5313 -9752.2363)">
						<stop  offset="0" style="stop-color:#BCBEC0"/>
						<stop  offset="8.400000e-02" style="stop-color:#B8B9B9"/>
						<stop  offset="0.214" style="stop-color:#939598"/>
						<stop  offset="0.544" style="stop-color:#FFFFFF"/>
						<stop  offset="0.766" style="stop-color:#939598"/>
						<stop  offset="1" style="stop-color:#7E7E7E"/>
					</linearGradient>
					<rect x="-1940.9" y="-1297.9" class="st21" width="16.9" height="3.7"/>
					<g>
						<path class="st5" d="M-1924-1294h-17.1v-4h17.1V-1294z M-1940.6-1294.5h16.1v-3h-16.1V-1294.5z"/>
					</g>
				</g>
			</g>
			<g id="Group_5730-3" transform="translate(0 115.935)">
				<g id="Rectangle_24461-3">
					
						<linearGradient id="SVGID_17_" gradientUnits="userSpaceOnUse" x1="-5591.3477" y1="-711.5281" x2="-5591.623" y2="-711.5281" gradientTransform="matrix(85.16 0 0 -25.21 474250.4063 -19302.3477)">
						<stop  offset="0" style="stop-color:#BCBEC0"/>
						<stop  offset="8.400000e-02" style="stop-color:#B8B9B9"/>
						<stop  offset="0.214" style="stop-color:#939598"/>
						<stop  offset="0.544" style="stop-color:#FFFFFF"/>
						<stop  offset="0.766" style="stop-color:#939598"/>
						<stop  offset="1" style="stop-color:#7E7E7E"/>
					</linearGradient>
					<rect x="-1932.3" y="-1368.2" class="st22" width="23.5" height="7"/>
					<g>
						<path class="st5" d="M-1908.7-1361.1h-23.7v-7.2h23.7V-1361.1z M-1931.9-1361.6h22.7v-6.2h-22.7V-1361.6z"/>
					</g>
				</g>
				<g id="Rectangle_24462-3" transform="translate(11.99 24.21)">
					
						<linearGradient id="SVGID_18_" gradientUnits="userSpaceOnUse" x1="-5601.939" y1="-739.9558" x2="-5602.2144" y2="-739.9558" gradientTransform="matrix(61.18 0 0 -13.527 340802.5313 -11393.251)">
						<stop  offset="0" style="stop-color:#BCBEC0"/>
						<stop  offset="8.400000e-02" style="stop-color:#B8B9B9"/>
						<stop  offset="0.214" style="stop-color:#939598"/>
						<stop  offset="0.544" style="stop-color:#FFFFFF"/>
						<stop  offset="0.766" style="stop-color:#939598"/>
						<stop  offset="1" style="stop-color:#7E7E7E"/>
					</linearGradient>
					<rect x="-1940.9" y="-1385.7" class="st23" width="16.9" height="3.7"/>
					<g>
						<path class="st5" d="M-1924-1381.9h-17.1v-4h17.1V-1381.9z M-1940.6-1382.4h16.1v-3h-16.1V-1382.4z"/>
					</g>
				</g>
			</g>
		</g>
		<g id="Group_5731-4" transform="translate(333)">
			
				<linearGradient id="Rectangle_24458-4_1_" gradientUnits="userSpaceOnUse" x1="-5694.5176" y1="-590.6443" x2="-5694.2417" y2="-590.6443" gradientTransform="matrix(19.983 0 0 -170.627 111799.9609 -102040.5703)">
				<stop  offset="0" style="stop-color:#3D3D3D"/>
				<stop  offset="0.249" style="stop-color:#8E8E8E"/>
				<stop  offset="0.514" style="stop-color:#FFFFFF"/>
				<stop  offset="1" style="stop-color:#535453"/>
			</linearGradient>
			<path id="Rectangle_24458-4" class="st24" d="M-1990.8-1284.2L-1990.8-1284.2c1.5,0,2.8,1.2,2.8,2.8v41.5c0,1.5-1.2,2.8-2.8,2.8
				l0,0c-1.5,0-2.8-1.2-2.8-2.8v-41.5C-1993.6-1283-1992.3-1284.2-1990.8-1284.2z"/>
			<g id="Group_5729-4" transform="translate(0 17.831)">
				<g id="Rectangle_24459-4" transform="translate(0 13.527)">
					
						<linearGradient id="SVGID_19_" gradientUnits="userSpaceOnUse" x1="-5703.1743" y1="-629.381" x2="-5703.4497" y2="-629.381" gradientTransform="matrix(85.16 0 0 -25.21 483703.1563 -17170.1602)">
						<stop  offset="0" style="stop-color:#BCBEC0"/>
						<stop  offset="8.400000e-02" style="stop-color:#B8B9B9"/>
						<stop  offset="0.214" style="stop-color:#939598"/>
						<stop  offset="0.544" style="stop-color:#FFFFFF"/>
						<stop  offset="0.766" style="stop-color:#939598"/>
						<stop  offset="1" style="stop-color:#7E7E7E"/>
					</linearGradient>
					<rect x="-2002.7" y="-1306.9" class="st25" width="23.5" height="7"/>
					<g>
						<path class="st5" d="M-1979.1-1299.9h-23.7v-7.2h23.7V-1299.9z M-2002.3-1300.4h22.7v-6.2h-22.7V-1300.4z"/>
					</g>
				</g>
				<g id="Rectangle_24460-4" transform="translate(11.99 1)">
					
						<linearGradient id="SVGID_20_" gradientUnits="userSpaceOnUse" x1="-5714.0894" y1="-625.1372" x2="-5714.3652" y2="-625.1372" gradientTransform="matrix(61.18 0 0 -13.527 347593.5313 -9752.2363)">
						<stop  offset="0" style="stop-color:#BCBEC0"/>
						<stop  offset="8.400000e-02" style="stop-color:#B8B9B9"/>
						<stop  offset="0.214" style="stop-color:#939598"/>
						<stop  offset="0.544" style="stop-color:#FFFFFF"/>
						<stop  offset="0.766" style="stop-color:#939598"/>
						<stop  offset="1" style="stop-color:#7E7E7E"/>
					</linearGradient>
					<rect x="-2011.3" y="-1297.9" class="st26" width="16.9" height="3.7"/>
					<g>
						<path class="st5" d="M-1994.4-1294h-17.1v-4h17.1V-1294z M-2010.9-1294.5h16.1v-3h-16.1V-1294.5z"/>
					</g>
				</g>
			</g>
			<g id="Group_5730-4" transform="translate(0 115.935)">
				<g id="Rectangle_24461-4">
					
						<linearGradient id="SVGID_21_" gradientUnits="userSpaceOnUse" x1="-5703.1743" y1="-711.5281" x2="-5703.4497" y2="-711.5281" gradientTransform="matrix(85.16 0 0 -25.21 483703.1563 -19302.3477)">
						<stop  offset="0" style="stop-color:#BCBEC0"/>
						<stop  offset="8.400000e-02" style="stop-color:#B8B9B9"/>
						<stop  offset="0.214" style="stop-color:#939598"/>
						<stop  offset="0.544" style="stop-color:#FFFFFF"/>
						<stop  offset="0.766" style="stop-color:#939598"/>
						<stop  offset="1" style="stop-color:#7E7E7E"/>
					</linearGradient>
					<rect x="-2002.7" y="-1368.2" class="st27" width="23.5" height="7"/>
					<g>
						<path class="st5" d="M-1979.1-1361.1h-23.7v-7.2h23.7V-1361.1z M-2002.3-1361.6h22.7v-6.2h-22.7V-1361.6z"/>
					</g>
				</g>
				<g id="Rectangle_24462-4" transform="translate(11.99 24.21)">
					
						<linearGradient id="SVGID_22_" gradientUnits="userSpaceOnUse" x1="-5714.0894" y1="-739.9558" x2="-5714.3652" y2="-739.9558" gradientTransform="matrix(61.18 0 0 -13.527 347593.5313 -11393.251)">
						<stop  offset="0" style="stop-color:#BCBEC0"/>
						<stop  offset="8.400000e-02" style="stop-color:#B8B9B9"/>
						<stop  offset="0.214" style="stop-color:#939598"/>
						<stop  offset="0.544" style="stop-color:#FFFFFF"/>
						<stop  offset="0.766" style="stop-color:#939598"/>
						<stop  offset="1" style="stop-color:#7E7E7E"/>
					</linearGradient>
					<rect x="-2011.3" y="-1385.7" class="st28" width="16.9" height="3.7"/>
					<g>
						<path class="st5" d="M-1994.4-1381.9h-17.1v-4h17.1V-1381.9z M-2010.9-1382.4h16.1v-3h-16.1V-1382.4z"/>
					</g>
				</g>
			</g>
		</g>
		<g id="Group_5731-5" transform="translate(444)">
			
				<linearGradient id="Rectangle_24458-5_2_" gradientUnits="userSpaceOnUse" x1="-5809.04" y1="-590.6443" x2="-5808.7646" y2="-590.6443" gradientTransform="matrix(19.983 0 0 -170.627 114018.0781 -102040.5703)">
				<stop  offset="0" style="stop-color:#3D3D3D"/>
				<stop  offset="0.249" style="stop-color:#8E8E8E"/>
				<stop  offset="0.514" style="stop-color:#FFFFFF"/>
				<stop  offset="1" style="stop-color:#535453"/>
			</linearGradient>
			<path id="Rectangle_24458-5" class="st29" d="M-2061.2-1284.2L-2061.2-1284.2c1.5,0,2.8,1.2,2.8,2.8v41.5c0,1.5-1.2,2.8-2.8,2.8
				l0,0c-1.5,0-2.8-1.2-2.8-2.8v-41.5C-2064-1283-2062.7-1284.2-2061.2-1284.2z"/>
			<g id="Group_5729-5" transform="translate(0 17.831)">
				<g id="Rectangle_24459-5" transform="translate(0 13.527)">
					
						<linearGradient id="SVGID_23_" gradientUnits="userSpaceOnUse" x1="-5815.0005" y1="-629.381" x2="-5815.2764" y2="-629.381" gradientTransform="matrix(85.16 0 0 -25.21 493155.9063 -17170.1602)">
						<stop  offset="0" style="stop-color:#BCBEC0"/>
						<stop  offset="8.400000e-02" style="stop-color:#B8B9B9"/>
						<stop  offset="0.214" style="stop-color:#939598"/>
						<stop  offset="0.544" style="stop-color:#FFFFFF"/>
						<stop  offset="0.766" style="stop-color:#939598"/>
						<stop  offset="1" style="stop-color:#7E7E7E"/>
					</linearGradient>
					<rect x="-2073" y="-1306.9" class="st30" width="23.5" height="7"/>
					<g>
						<path class="st5" d="M-2049.5-1299.9h-23.7v-7.2h23.7V-1299.9z M-2072.7-1300.4h22.7v-6.2h-22.7V-1300.4z"/>
					</g>
				</g>
				<g id="Rectangle_24460-5" transform="translate(11.99 1)">
					
						<linearGradient id="SVGID_24_" gradientUnits="userSpaceOnUse" x1="-5826.2397" y1="-625.1372" x2="-5826.5156" y2="-625.1372" gradientTransform="matrix(61.18 0 0 -13.527 354384.5 -9752.2363)">
						<stop  offset="0" style="stop-color:#BCBEC0"/>
						<stop  offset="8.400000e-02" style="stop-color:#B8B9B9"/>
						<stop  offset="0.214" style="stop-color:#939598"/>
						<stop  offset="0.544" style="stop-color:#FFFFFF"/>
						<stop  offset="0.766" style="stop-color:#939598"/>
						<stop  offset="1" style="stop-color:#7E7E7E"/>
					</linearGradient>
					<rect x="-2081.7" y="-1297.9" class="st31" width="16.9" height="3.7"/>
					<g>
						<path class="st5" d="M-2064.7-1294h-17.1v-4h17.1V-1294z M-2081.3-1294.5h16.1v-3h-16.1V-1294.5z"/>
					</g>
				</g>
			</g>
			<g id="Group_5730-5" transform="translate(0 115.935)">
				<g id="Rectangle_24461-5">
					
						<linearGradient id="SVGID_25_" gradientUnits="userSpaceOnUse" x1="-5815.0005" y1="-711.5281" x2="-5815.2764" y2="-711.5281" gradientTransform="matrix(85.16 0 0 -25.21 493155.9063 -19302.3477)">
						<stop  offset="0" style="stop-color:#BCBEC0"/>
						<stop  offset="8.400000e-02" style="stop-color:#B8B9B9"/>
						<stop  offset="0.214" style="stop-color:#939598"/>
						<stop  offset="0.544" style="stop-color:#FFFFFF"/>
						<stop  offset="0.766" style="stop-color:#939598"/>
						<stop  offset="1" style="stop-color:#7E7E7E"/>
					</linearGradient>
					<rect x="-2073" y="-1368.2" class="st32" width="23.5" height="7"/>
					<g>
						<path class="st5" d="M-2049.5-1361.1h-23.7v-7.2h23.7V-1361.1z M-2072.7-1361.6h22.7v-6.2h-22.7V-1361.6z"/>
					</g>
				</g>
				<g id="Rectangle_24462-5" transform="translate(11.99 24.21)">
					
						<linearGradient id="SVGID_26_" gradientUnits="userSpaceOnUse" x1="-5826.2397" y1="-739.9558" x2="-5826.5156" y2="-739.9558" gradientTransform="matrix(61.18 0 0 -13.527 354384.5 -11393.251)">
						<stop  offset="0" style="stop-color:#BCBEC0"/>
						<stop  offset="8.400000e-02" style="stop-color:#B8B9B9"/>
						<stop  offset="0.214" style="stop-color:#939598"/>
						<stop  offset="0.544" style="stop-color:#FFFFFF"/>
						<stop  offset="0.766" style="stop-color:#939598"/>
						<stop  offset="1" style="stop-color:#7E7E7E"/>
					</linearGradient>
					<rect x="-2081.7" y="-1385.7" class="st33" width="16.9" height="3.7"/>
					<g>
						<path class="st5" d="M-2064.7-1381.9h-17.1v-4h17.1V-1381.9z M-2081.3-1382.4h16.1v-3h-16.1V-1382.4z"/>
					</g>
				</g>
			</g>
		</g>
		<g id="Group_5731-5_1_" transform="translate(444)">
			
				<linearGradient id="Rectangle_24458-5_3_" gradientUnits="userSpaceOnUse" x1="-5807.0117" y1="-590.6443" x2="-5806.7358" y2="-590.6443" gradientTransform="matrix(19.983 0 0 -170.627 114018.0781 -102040.5703)">
				<stop  offset="0" style="stop-color:#3D3D3D"/>
				<stop  offset="0.249" style="stop-color:#8E8E8E"/>
				<stop  offset="0.514" style="stop-color:#FFFFFF"/>
				<stop  offset="1" style="stop-color:#535453"/>
			</linearGradient>
			<path id="Rectangle_24458-5_1_" class="st34" d="M-2020.7-1284.2L-2020.7-1284.2c1.5,0,2.8,1.2,2.8,2.8v41.5
				c0,1.5-1.2,2.8-2.8,2.8l0,0c-1.5,0-2.8-1.2-2.8-2.8v-41.5C-2023.4-1283-2022.2-1284.2-2020.7-1284.2z"/>
			<g id="Group_5729-5_1_" transform="translate(0 17.831)">
				<g id="Rectangle_24459-5_1_" transform="translate(0 13.527)">
					
						<linearGradient id="SVGID_27_" gradientUnits="userSpaceOnUse" x1="-5814.5249" y1="-629.381" x2="-5814.8003" y2="-629.381" gradientTransform="matrix(85.16 0 0 -25.21 493155.9063 -17170.1602)">
						<stop  offset="0" style="stop-color:#BCBEC0"/>
						<stop  offset="8.400000e-02" style="stop-color:#B8B9B9"/>
						<stop  offset="0.214" style="stop-color:#939598"/>
						<stop  offset="0.544" style="stop-color:#FFFFFF"/>
						<stop  offset="0.766" style="stop-color:#939598"/>
						<stop  offset="1" style="stop-color:#7E7E7E"/>
					</linearGradient>
					<rect x="-2032.5" y="-1306.9" class="st35" width="23.5" height="7"/>
					<g>
						<path class="st5" d="M-2008.9-1299.9h-23.7v-7.2h23.7V-1299.9z M-2032.1-1300.4h22.7v-6.2h-22.7V-1300.4z"/>
					</g>
				</g>
				<g id="Rectangle_24460-5_1_" transform="translate(11.99 1)">
					
						<linearGradient id="SVGID_28_" gradientUnits="userSpaceOnUse" x1="-5825.5771" y1="-625.1372" x2="-5825.853" y2="-625.1372" gradientTransform="matrix(61.18 0 0 -13.527 354384.5 -9752.2363)">
						<stop  offset="0" style="stop-color:#BCBEC0"/>
						<stop  offset="8.400000e-02" style="stop-color:#B8B9B9"/>
						<stop  offset="0.214" style="stop-color:#939598"/>
						<stop  offset="0.544" style="stop-color:#FFFFFF"/>
						<stop  offset="0.766" style="stop-color:#939598"/>
						<stop  offset="1" style="stop-color:#7E7E7E"/>
					</linearGradient>
					<rect x="-2041.2" y="-1297.9" class="st36" width="16.9" height="3.7"/>
					<g>
						<path class="st5" d="M-2024.2-1294h-17.1v-4h17.1V-1294z M-2040.8-1294.5h16.1v-3h-16.1V-1294.5z"/>
					</g>
				</g>
			</g>
			<g id="Group_5730-5_1_" transform="translate(0 115.935)">
				<g id="Rectangle_24461-5_1_">
					
						<linearGradient id="SVGID_29_" gradientUnits="userSpaceOnUse" x1="-5814.5249" y1="-711.5281" x2="-5814.8003" y2="-711.5281" gradientTransform="matrix(85.16 0 0 -25.21 493155.9063 -19302.3477)">
						<stop  offset="0" style="stop-color:#BCBEC0"/>
						<stop  offset="8.400000e-02" style="stop-color:#B8B9B9"/>
						<stop  offset="0.214" style="stop-color:#939598"/>
						<stop  offset="0.544" style="stop-color:#FFFFFF"/>
						<stop  offset="0.766" style="stop-color:#939598"/>
						<stop  offset="1" style="stop-color:#7E7E7E"/>
					</linearGradient>
					<rect x="-2032.5" y="-1368.2" class="st37" width="23.5" height="7"/>
					<g>
						<path class="st5" d="M-2008.9-1361.1h-23.7v-7.2h23.7V-1361.1z M-2032.1-1361.6h22.7v-6.2h-22.7V-1361.6z"/>
					</g>
				</g>
				<g id="Rectangle_24462-5_1_" transform="translate(11.99 24.21)">
					
						<linearGradient id="SVGID_30_" gradientUnits="userSpaceOnUse" x1="-5825.5771" y1="-739.9558" x2="-5825.853" y2="-739.9558" gradientTransform="matrix(61.18 0 0 -13.527 354384.5 -11393.251)">
						<stop  offset="0" style="stop-color:#BCBEC0"/>
						<stop  offset="8.400000e-02" style="stop-color:#B8B9B9"/>
						<stop  offset="0.214" style="stop-color:#939598"/>
						<stop  offset="0.544" style="stop-color:#FFFFFF"/>
						<stop  offset="0.766" style="stop-color:#939598"/>
						<stop  offset="1" style="stop-color:#7E7E7E"/>
					</linearGradient>
					<rect x="-2041.2" y="-1385.7" class="st38" width="16.9" height="3.7"/>
					<g>
						<path class="st5" d="M-2024.2-1381.9h-17.1v-4h17.1V-1381.9z M-2040.8-1382.4h16.1v-3h-16.1V-1382.4z"/>
					</g>
				</g>
			</g>
		</g>
	</g>
	<rect x="11.1" y="3.8" class="st39" width="275.6" height="46.9"/>
	
		<linearGradient id="Rectangle_24454_1_" gradientUnits="userSpaceOnUse" x1="-3506.4468" y1="697.6121" x2="-3506.7419" y2="697.6121" gradientTransform="matrix(25.441 0 0 -204 89214.5234 142341)">
		<stop  offset="0" style="stop-color:#9C9C9C"/>
		<stop  offset="0.155" style="stop-color:#C6CACA"/>
		<stop  offset="0.796" style="stop-color:#D6D6D6"/>
		<stop  offset="1" style="stop-color:#848484"/>
	</linearGradient>
	<rect id="Rectangle_24454" x="0" class="st40" width="7" height="56.3"/>
	
		<linearGradient id="Rectangle_24455_1_" gradientUnits="userSpaceOnUse" x1="-3518.3792" y1="697.6121" x2="-3518.6746" y2="697.6121" gradientTransform="matrix(25.441 0 0 -204 89811.0859 142341)">
		<stop  offset="0" style="stop-color:#9C9C9C"/>
		<stop  offset="0.155" style="stop-color:#C6CACA"/>
		<stop  offset="0.796" style="stop-color:#D6D6D6"/>
		<stop  offset="1" style="stop-color:#848484"/>
	</linearGradient>
	<rect id="Rectangle_24455" x="293" class="st41" width="7" height="56.3"/>
</g>
</svg>
