<svg xmlns="http://www.w3.org/2000/svg" width="18" height="13.997" viewBox="0 0 18 13.997"><path id="Icon_awesome-home" data-name="Icon awesome-home" d="M8.76,5.885,3,10.63v5.121a.5.5,0,0,0,.5.5L7,16.242a.5.5,0,0,0,.5-.5V12.751a.5.5,0,0,1,.5-.5h2a.5.5,0,0,1,.5.5V15.74a.5.5,0,0,0,.5.5l3.5.01a.5.5,0,0,0,.5-.5V10.626L9.238,5.885A.381.381,0,0,0,8.76,5.885Zm9.1,3.225L15.248,6.957V2.628a.375.375,0,0,0-.375-.375h-1.75a.375.375,0,0,0-.375.375V4.9l-2.8-2.3a1.5,1.5,0,0,0-1.906,0L.135,9.11a.375.375,0,0,0-.05.528l.8.969a.375.375,0,0,0,.528.051L8.76,4.6a.381.381,0,0,1,.478,0l7.35,6.054a.375.375,0,0,0,.528-.05l.8-.969a.375.375,0,0,0-.053-.529Z" transform="translate(0.001 -2.254)" fill="#051726"/></svg>