<svg xmlns="http://www.w3.org/2000/svg" xmlns:xlink="http://www.w3.org/1999/xlink" width="374" height="374" viewBox="0 0 374 374">
<defs>
<clipPath id="clip-path">
<rect id="Rectangle_2803" data-name="Rectangle 2803" width="374" height="374" transform="translate(-1020 3326)" fill="#fff"/>
</clipPath>
</defs>
<g id="pattern" transform="translate(1020 -3326)">
<rect id="Rectangle_2804" data-name="Rectangle 2804" width="374" height="374" transform="translate(-1020 3326)" fill="rgba(255,255,255,0)"/>
<g id="Mask_Group_11" data-name="Mask Group 11" opacity="0.08" clip-path="url(#clip-path)">
<g id="Group_4358" data-name="Group 4358" transform="translate(-2060.077 2417.53)">
<g id="Group_4345" data-name="Group 4345">
<path id="Path_11672" data-name="Path 11672" d="M1301.877,995.265l-25.4,25.4,25.4,25.4,25.405-25.4Zm-24.462,25.4,24.462-24.462,24.462,24.462-24.462,24.462Z" fill="#81a2be"/>
<path id="Path_11673" data-name="Path 11673" d="M1201.673,1020.67l25.4,25.4,25.405-25.4-25.405-25.4Zm25.4,24.462-24.462-24.462,24.462-24.462,24.462,24.462Z" fill="#81a2be"/>
<path id="Path_11674" data-name="Path 11674" d="M1126.873,1020.67l25.4,25.4,25.405-25.4-25.405-25.4Zm25.4,24.462-24.462-24.462,24.462-24.462,24.462,24.462Z" fill="#81a2be"/>
<path id="Path_11675" data-name="Path 11675" d="M1102.882,1020.67l-25.4-25.4-25.4,25.4,25.4,25.4Zm-25.4-24.462,24.462,24.462-24.462,24.462-24.462-24.462Z" fill="#81a2be"/>
<path id="Path_11676" data-name="Path 11676" d="M1351.272,1020.67l25.405,25.4,25.405-25.4-25.405-25.4Zm25.405,24.462-24.462-24.462,24.462-24.462,24.462,24.462Z" fill="#81a2be"/>
<path id="Path_11677" data-name="Path 11677" d="M1301.877,1120.874l25.405-25.4-25.405-25.405-25.4,25.405Zm24.462-25.4-24.462,24.461-24.462-24.461,24.462-24.462Z" fill="#81a2be"/>
<path id="Path_11678" data-name="Path 11678" d="M1201.673,1095.47l25.4,25.4,25.405-25.4-25.405-25.405Zm25.4,24.461-24.462-24.461,24.462-24.462,24.462,24.462Z" fill="#81a2be"/>
<path id="Path_11679" data-name="Path 11679" d="M1126.873,1095.47l25.4,25.4,25.405-25.4-25.405-25.405Zm25.4,24.461-24.462-24.461,24.462-24.462,24.462,24.462Z" fill="#81a2be"/>
<path id="Path_11680" data-name="Path 11680" d="M1102.882,1095.47l-25.4-25.405-25.4,25.405,25.4,25.4Zm-25.4-24.462,24.462,24.462-24.462,24.461-24.462-24.461Z" fill="#81a2be"/>
<path id="Path_11681" data-name="Path 11681" d="M1351.272,1095.47l25.405,25.4,25.405-25.4-25.405-25.405Zm25.405,24.461-24.462-24.461,24.462-24.462,24.462,24.462Z" fill="#81a2be"/>
<path id="Path_11682" data-name="Path 11682" d="M1327.282,1170.27l-25.405-25.405-25.4,25.405,25.4,25.4Zm-25.405-24.463,24.462,24.463-24.462,24.461-24.462-24.461Z" fill="#81a2be"/>
<path id="Path_11683" data-name="Path 11683" d="M1252.482,1170.27l-25.405-25.405-25.4,25.405,25.4,25.4Zm-25.405-24.463,24.462,24.463-24.462,24.461-24.462-24.461Z" fill="#81a2be"/>
<path id="Path_11684" data-name="Path 11684" d="M1177.682,1170.27l-25.405-25.405-25.4,25.405,25.4,25.4Zm-25.405-24.463,24.462,24.463-24.462,24.461-24.462-24.461Z" fill="#81a2be"/>
<path id="Path_11685" data-name="Path 11685" d="M1102.882,1170.27l-25.4-25.405-25.4,25.405,25.4,25.4Zm-25.4-24.463,24.462,24.463-24.462,24.461-24.462-24.461Z" fill="#81a2be"/>
<path id="Path_11686" data-name="Path 11686" d="M1351.272,1170.27l25.405,25.4,25.405-25.4-25.405-25.405Zm25.405,24.461-24.462-24.461,24.462-24.463,24.462,24.463Z" fill="#81a2be"/>
<path id="Path_11687" data-name="Path 11687" d="M1327.282,945.87l-25.405-25.4-25.4,25.4,25.4,25.4Zm-25.405-24.462,24.462,24.462-24.462,24.462-24.462-24.462Z" fill="#81a2be"/>
<path id="Path_11688" data-name="Path 11688" d="M1252.482,945.87l-25.405-25.4-25.4,25.4,25.4,25.4Zm-25.405-24.462,24.462,24.462-24.462,24.462-24.462-24.462Z" fill="#81a2be"/>
<path id="Path_11689" data-name="Path 11689" d="M1177.682,945.87l-25.405-25.4-25.4,25.4,25.4,25.4Zm-25.405-24.462,24.462,24.462-24.462,24.462-24.462-24.462Z" fill="#81a2be"/>
<path id="Path_11690" data-name="Path 11690" d="M1102.882,945.87l-25.4-25.4-25.4,25.4,25.4,25.4Zm-25.4-24.462,24.462,24.462-24.462,24.462-24.462-24.462Z" fill="#81a2be"/>
<path id="Path_11691" data-name="Path 11691" d="M1351.272,945.87l25.405,25.4,25.405-25.4-25.405-25.4Zm25.405,24.462-24.462-24.462,24.462-24.462,24.462,24.462Z" fill="#81a2be"/>
<path id="Path_11692" data-name="Path 11692" d="M1276.472,1245.069l25.4,25.405,25.405-25.405-25.405-25.4Zm25.4,24.462-24.462-24.462,24.462-24.462,24.462,24.462Z" fill="#81a2be"/>
<path id="Path_11693" data-name="Path 11693" d="M1201.673,1245.069l25.4,25.405,25.405-25.405-25.405-25.4Zm25.4,24.462-24.462-24.462,24.462-24.462,24.462,24.462Z" fill="#81a2be"/>
<path id="Path_11694" data-name="Path 11694" d="M1126.873,1245.069l25.4,25.405,25.405-25.405-25.405-25.4Zm25.4,24.462-24.462-24.462,24.462-24.462,24.462,24.462Z" fill="#81a2be"/>
<path id="Path_11695" data-name="Path 11695" d="M1052.073,1245.069l25.4,25.405,25.4-25.405-25.4-25.4Zm25.4,24.462-24.462-24.462,24.462-24.462,24.462,24.462Z" fill="#81a2be"/>
<path id="Path_11696" data-name="Path 11696" d="M1351.272,1245.069l25.405,25.405,25.405-25.405-25.405-25.4Zm25.405,24.462-24.462-24.462,24.462-24.462,24.462,24.462Z" fill="#81a2be"/>
<path id="Path_11697" data-name="Path 11697" d="M1339.277,1032.665l-25.405,25.4,25.405,25.4,25.405-25.4Zm-24.462,25.4,24.462-24.462,24.462,24.462-24.462,24.462Z" fill="#81a2be"/>
<path id="Path_11698" data-name="Path 11698" d="M1239.073,1058.07l25.4,25.4,25.4-25.4-25.4-25.4Zm25.4,24.462-24.462-24.462,24.462-24.462,24.462,24.462Z" fill="#81a2be"/>
<path id="Path_11699" data-name="Path 11699" d="M1164.273,1058.07l25.4,25.4,25.405-25.4-25.405-25.4Zm25.4,24.462-24.462-24.462,24.462-24.462,24.462,24.462Z" fill="#81a2be"/>
<path id="Path_11700" data-name="Path 11700" d="M1089.473,1058.07l25.4,25.4,25.405-25.4-25.405-25.4Zm25.4,24.462-24.462-24.462,24.462-24.462,24.462,24.462Z" fill="#81a2be"/>
<path id="Path_11701" data-name="Path 11701" d="M1364.682,1132.87l-25.405-25.405-25.405,25.405,25.405,25.4Zm-25.405-24.462,24.462,24.462-24.462,24.461-24.462-24.461Z" fill="#81a2be"/>
<path id="Path_11702" data-name="Path 11702" d="M1289.882,1132.87l-25.4-25.405-25.4,25.405,25.4,25.4Zm-25.4-24.462,24.462,24.462-24.462,24.461-24.462-24.461Z" fill="#81a2be"/>
<path id="Path_11703" data-name="Path 11703" d="M1215.082,1132.87l-25.405-25.405-25.4,25.405,25.4,25.4Zm-25.405-24.462,24.462,24.462-24.462,24.461-24.462-24.461Z" fill="#81a2be"/>
<path id="Path_11704" data-name="Path 11704" d="M1114.877,1158.274l25.405-25.4-25.405-25.405-25.4,25.405Zm24.462-25.4-24.462,24.461-24.462-24.461,24.462-24.462Z" fill="#81a2be"/>
<path id="Path_11705" data-name="Path 11705" d="M1339.277,1182.265l-25.405,25.4,25.405,25.405,25.405-25.405Zm-24.462,25.4,24.462-24.462,24.462,24.462-24.462,24.462Z" fill="#81a2be"/>
<path id="Path_11706" data-name="Path 11706" d="M1264.477,1182.265l-25.4,25.4,25.4,25.405,25.4-25.405Zm-24.462,25.4,24.462-24.462,24.462,24.462-24.462,24.462Z" fill="#81a2be"/>
<path id="Path_11707" data-name="Path 11707" d="M1189.677,1182.265l-25.4,25.4,25.4,25.405,25.405-25.405Zm-24.462,25.4,24.462-24.462,24.462,24.462-24.462,24.462Z" fill="#81a2be"/>
<path id="Path_11708" data-name="Path 11708" d="M1114.877,1182.265l-25.4,25.4,25.4,25.405,25.405-25.405Zm-24.462,25.4,24.462-24.462,24.462,24.462-24.462,24.462Z" fill="#81a2be"/>
<path id="Path_11709" data-name="Path 11709" d="M1339.277,1008.674l25.405-25.4-25.405-25.405-25.405,25.405Zm24.462-25.4-24.462,24.462-24.462-24.462,24.462-24.462Z" fill="#81a2be"/>
<path id="Path_11710" data-name="Path 11710" d="M1264.477,1008.674l25.4-25.4-25.4-25.405-25.4,25.405Zm24.462-25.4-24.462,24.462-24.462-24.462,24.462-24.462Z" fill="#81a2be"/>
<path id="Path_11711" data-name="Path 11711" d="M1189.677,1008.674l25.405-25.4-25.405-25.405-25.4,25.405Zm24.462-25.4-24.462,24.462-24.462-24.462,24.462-24.462Z" fill="#81a2be"/>
<path id="Path_11712" data-name="Path 11712" d="M1114.877,1008.674l25.405-25.4-25.405-25.405-25.4,25.405Zm24.462-25.4-24.462,24.462-24.462-24.462,24.462-24.462Z" fill="#81a2be"/>
<path id="Path_11713" data-name="Path 11713" d="M1313.872,1282.469h.943l24.462-24.462,24.462,24.462h.943l-25.4-25.4Z" fill="#81a2be"/>
<path id="Path_11714" data-name="Path 11714" d="M1239.073,1282.469h.943l24.462-24.462,24.462,24.462h.943l-25.4-25.4Z" fill="#81a2be"/>
<path id="Path_11715" data-name="Path 11715" d="M1164.273,1282.469h.943l24.462-24.462,24.462,24.462h.943l-25.4-25.4Z" fill="#81a2be"/>
<path id="Path_11716" data-name="Path 11716" d="M1089.473,1282.469h.943l24.462-24.462,24.462,24.462h.943l-25.4-25.4Z" fill="#81a2be"/>
<path id="Path_11717" data-name="Path 11717" d="M1389.615,1282.469l24.462-24.462v-.943l-25.4,25.4Z" fill="#81a2be"/>
<path id="Path_11718" data-name="Path 11718" d="M1364.682,908.47h-.943l-24.462,24.462-24.462-24.462h-.943l25.4,25.4Z" fill="#81a2be"/>
<path id="Path_11719" data-name="Path 11719" d="M1289.882,908.47h-.943l-24.462,24.462-24.462-24.462h-.943l25.4,25.4Z" fill="#81a2be"/>
<path id="Path_11720" data-name="Path 11720" d="M1215.082,908.47h-.943l-24.462,24.462-24.462-24.462h-.943l25.4,25.4Z" fill="#81a2be"/>
<path id="Path_11721" data-name="Path 11721" d="M1140.282,908.47h-.943l-24.462,24.462-24.462-24.462h-.943l25.4,25.4Z" fill="#81a2be"/>
<path id="Path_11722" data-name="Path 11722" d="M1376.206,908.47,1339.277,945.4l-18.464-18.464-18.464-18.464h-.943L1264.477,945.4l-36.928-36.928h-.943L1189.677,945.4l-18.464-18.464-18.464-18.464h-.943L1114.877,945.4l-18.464-18.464-18.464-18.464h-.943L1040.077,945.4v.943l18.465,18.464,18.464,18.465-36.929,36.928v.943l18.465,18.464,18.464,18.465L1040.077,1095v.943l36.929,36.929-36.929,36.928v.943l18.465,18.464,18.464,18.464-36.929,36.929v.943l36.929,36.928h.943l18.464-18.464,18.464-18.464,36.929,36.928h.943l18.464-18.464,18.464-18.464,36.929,36.928h.943l36.928-36.928,36.929,36.928h.943l18.464-18.464,18.464-18.464,36.929,36.928h.942l36.929-36.928v-.943l-36.929-36.929,18.465-18.464,18.464-18.464v-.943l-36.929-36.928,36.929-36.929V1095l-36.929-36.928,18.465-18.465,18.464-18.464v-.943l-36.929-36.928,18.465-18.465,18.464-18.464V945.4l-36.929-36.928ZM1357.741,964.8l18.465,18.465-36.929,36.928-18.464-18.464-18.464-18.464,18.464-18.465,18.464-18.464Zm-74.328,74.329-18.464-18.464,36.928-36.929,18.464,18.464,18.465,18.465-18.465,18.464-18.464,18.464Zm36.928,37.871,18.465,18.465-18.465,18.464-18.464,18.464-36.928-36.928,36.928-36.929Zm-37.4-37.4,18.464,18.465L1264.477,1095l-36.928-36.928,18.464-18.465,18.464-18.464Zm-18.936,55.865-36.929,36.928-36.928-36.928,36.928-36.929Zm-18.464-56.336-18.465,18.464-18.464-18.464-18.464-18.464,36.928-36.929,36.929,36.929Zm-37.4.471,18.465,18.465L1189.677,1095l-18.464-18.464-18.464-18.464,36.928-36.929Zm-18.935,55.865-18.464,18.464-18.465,18.464-36.928-36.928,36.928-36.929,18.465,18.464Zm-36.929-37.872-18.464-18.464-18.464-18.464,36.928-36.929,18.465,18.464,18.464,18.465Zm-18.935-17.993,18.464,18.465L1114.877,1095l-18.464-18.464-18.464-18.464,36.928-36.929Zm18.464,93.265-36.929,36.928-18.464-18.464-18.464-18.464,18.464-18.465,18.464-18.464Zm.471.471,18.465,18.464,18.464,18.465-18.464,18.464-18.465,18.464-18.464-18.464-18.464-18.464Zm18.936,17.993-18.464-18.464,18.464-18.465,18.464-18.464,36.929,36.929-36.929,36.928Zm55.864-17.993,36.929,36.929-18.464,18.464-18.465,18.464-18.464-18.464-18.464-18.464Zm.472-.471,36.928-36.929,36.929,36.929-36.929,36.928Zm74.328.471,18.464,18.464,18.465,18.465-36.929,36.928-18.464-18.464-18.464-18.464Zm18.936,17.993-18.464-18.464,18.464-18.465,18.464-18.464,36.929,36.929-36.929,36.928Zm0-74.8-18.464-18.464,18.464-18.465,18.464-18.464,18.464,18.464,18.465,18.465L1339.277,1095Zm-18.936-167.593,36.929,36.929-18.465,18.464L1301.877,982.8l-18.464-18.464-18.464-18.464ZM1282.942,964.8l18.464,18.465-36.929,36.928-36.928-36.928,18.464-18.465,18.464-18.464Zm-55.865-55.864,36.929,36.929-18.464,18.464L1227.077,982.8l-18.464-18.464-18.464-18.464ZM1208.141,964.8l18.465,18.465-36.929,36.928-18.464-18.464-18.464-18.464,36.928-36.929Zm-55.864-55.864,36.929,36.929L1152.277,982.8l-18.464-18.464-18.464-18.464ZM1133.342,964.8l18.464,18.465-36.929,36.928-18.464-18.464-18.464-18.464,36.928-36.929Zm-74.329-.471-18.464-18.464,36.928-36.929,18.465,18.464,18.464,18.465L1077.477,982.8Zm-18.464,56.336,36.928-36.929,18.465,18.464,18.464,18.465-36.929,36.928Zm0,74.8,36.928-36.929,18.465,18.464,18.464,18.465-18.464,18.464-18.465,18.464Zm0,74.8,36.928-36.929,18.465,18.464,18.464,18.465-18.464,18.464-18.465,18.464Zm55.393,93.264L1077.477,1282l-36.928-36.929,36.928-36.928,18.465,18.464,18.464,18.464Zm.471-37.4-18.464-18.465,18.464-18.464,18.464-18.464,18.465,18.464,18.464,18.464-36.929,36.929ZM1152.277,1282l-36.928-36.929,36.928-36.928,18.465,18.464,18.464,18.464Zm18.936-55.864-18.464-18.465,18.464-18.464,18.464-18.464,18.464,18.464,18.465,18.464-36.929,36.929ZM1227.077,1282l-36.928-36.929,36.928-36.928,36.929,36.928Zm.472-74.329,18.464-18.464,18.464-18.464,18.465,18.464,18.464,18.464-36.929,36.929ZM1301.877,1282l-36.928-36.929,36.928-36.928,18.464,18.464,18.465,18.464Zm18.936-55.864-18.464-18.465,36.928-36.928,18.464,18.464,18.465,18.464-36.929,36.929Zm92.793,18.935L1376.677,1282l-36.929-36.929,36.929-36.928Zm0-74.8-36.929,36.928-18.464-18.464-18.465-18.464,36.929-36.929Zm0-74.8-36.929,36.928-36.929-36.928,36.929-36.929Zm0-74.8-36.929,36.928-18.464-18.464-18.465-18.464,36.929-36.929Zm-18.465-56.336L1376.677,982.8l-18.464-18.464-18.465-18.464,36.929-36.929,36.929,36.929Z" fill="#81a2be"/>
<path id="Path_11723" data-name="Path 11723" d="M1389.615,908.47h-.943l25.4,25.4v-.943Z" fill="#81a2be"/>
<path id="Path_11724" data-name="Path 11724" d="M1064.539,908.47l-24.462,24.462v.943l25.4-25.4Z" fill="#81a2be"/>
<path id="Path_11725" data-name="Path 11725" d="M1040.077,1258.007l24.462,24.462h.943l-25.4-25.4Z" fill="#81a2be"/>
<path id="Path_11726" data-name="Path 11726" d="M1414.077,1083.474v-.943l-24.462-24.462,24.462-24.462v-.943l-25.4,25.4Z" fill="#81a2be"/>
<path id="Path_11727" data-name="Path 11727" d="M1414.077,1158.274v-.943l-24.462-24.462,24.462-24.462v-.943l-25.4,25.4Z" fill="#81a2be"/>
<path id="Path_11728" data-name="Path 11728" d="M1414.077,1233.074v-.943l-24.462-24.462,24.462-24.462v-.943l-25.4,25.4Z" fill="#81a2be"/>
<path id="Path_11729" data-name="Path 11729" d="M1414.077,1008.674v-.943l-24.462-24.462,24.462-24.462v-.943l-25.4,25.4Z" fill="#81a2be"/>
<path id="Path_11730" data-name="Path 11730" d="M1040.077,1032.665v.943l24.462,24.462-24.462,24.462v.943l25.4-25.4Z" fill="#81a2be"/>
<path id="Path_11731" data-name="Path 11731" d="M1040.077,1107.465v.943l24.462,24.462-24.462,24.462v.943l25.4-25.4Z" fill="#81a2be"/>
<path id="Path_11732" data-name="Path 11732" d="M1040.077,1182.265v.943l24.462,24.462-24.462,24.462v.943l25.4-25.4Z" fill="#81a2be"/>
<path id="Path_11733" data-name="Path 11733" d="M1040.077,957.865v.943l24.462,24.462-24.462,24.462v.943l25.4-25.4Z" fill="#81a2be"/>
</g>
</g>
</g>
</g>
</svg>
