<svg xmlns="http://www.w3.org/2000/svg" width="10" height="16" viewBox="0 0 10 16"><g transform="translate(-97 -5)"><path fill="#ffffff" d="M18.232,14.193l-6.618-6.05a1.072,1.072,0,0,1,0-1.615,1.345,1.345,0,0,1,1.77,0l7.5,6.855a1.072,1.072,0,0,1,.036,1.577l-7.53,6.9a1.342,1.342,0,0,1-1.77,0,1.072,1.072,0,0,1,0-1.615Z" transform="translate(85.753 -1.196)"/><path  fill="#ffffff" d="M18.232,14.193l-6.618-6.05a1.072,1.072,0,0,1,0-1.615,1.345,1.345,0,0,1,1.77,0l7.5,6.855a1.072,1.072,0,0,1,.036,1.577l-7.53,6.9a1.342,1.342,0,0,1-1.77,0,1.072,1.072,0,0,1,0-1.615Z" transform="translate(85.753 -1.196)"/></g></svg>