{
    "asset" : {
        "generator" : "Khronos glTF Blender I/O v1.7.33",
        "version" : "2.0"
    },
    "scene" : 0,
    "scenes" : [
        {
            "name" : "Scene",
            "nodes" : [
                0,
                1,
                2
            ]
        }
    ],
    "nodes" : [
        {
            "mesh" : 0,
            "name" : "door",
            "rotation" : [
                0,
                0,
                -0.7071068286895752,
                0.7071067094802856
            ],
            "scale" : [
                3.000000476837158,
                0.7672899961471558,
                1.5
            ]
        },
        {
            "mesh" : 1,
            "name" : "Glass",
            "rotation" : [
                0,
                0,
                -0.7071068286895752,
                0.7071067094802856
            ],
            "scale" : [
                0.2900000512599945,
                3.333333969116211,
                1.0400002002716064
            ]
        },
        {
            "mesh" : 2,
            "name" : "trims",
            "rotation" : [
                0.7071068286895752,
                0,
                0,
                0.7071067094802856
            ],
            "scale" : [
                0.14574360847473145,
                1.5700000524520874,
                0.050000015646219254
            ]
        }
    ],
    "materials" : [
        {
            "doubleSided" : true,
            "emissiveFactor" : [
                0.18000000715255737,
                0.18000000715255737,
                0.18000000715255737
            ],
            "name" : "Material.005",
            "pbrMetallicRoughness" : {
                "baseColorTexture" : {
                    "index" : 0
                },
                "metallicFactor" : 0,
                "roughnessFactor" : 0.5
            }
        },
        {
            "doubleSided" : true,
            "name" : "Material.009",
            "pbrMetallicRoughness" : {
                "baseColorTexture" : {
                    "index" : 1
                },
                "metallicFactor" : 0,
                "roughnessFactor" : 0.5
            }
        },
        {
            "doubleSided" : true,
            "emissiveFactor" : [
                1,
                1,
                1
            ],
            "name" : "trims.001",
            "pbrMetallicRoughness" : {}
        }
    ],
    "meshes" : [
        {
            "name" : "doors",
            "primitives" : [
                {
                    "attributes" : {
                        "POSITION" : 0,
                        "NORMAL" : 1,
                        "TEXCOORD_0" : 2
                    },
                    "indices" : 3,
                    "material" : 0
                }
            ]
        },
        {
            "name" : "glass.001",
            "primitives" : [
                {
                    "attributes" : {
                        "POSITION" : 4,
                        "NORMAL" : 5,
                        "TEXCOORD_0" : 6
                    },
                    "indices" : 7,
                    "material" : 1
                }
            ]
        },
        {
            "name" : "trims.001",
            "primitives" : [
                {
                    "attributes" : {
                        "POSITION" : 8,
                        "NORMAL" : 9,
                        "TEXCOORD_0" : 10
                    },
                    "indices" : 11,
                    "material" : 2
                }
            ]
        }
    ],
    "textures" : [
        {
            "sampler" : 0,
            "source" : 0
        },
        {
            "sampler" : 0,
            "source" : 1
        }
    ],
    "images" : [
        {
            "bufferView" : 4,
            "mimeType" : "image/png",
            "name" : "Image_0"
        },
        {
            "bufferView" : 9,
            "mimeType" : "image/jpeg",
            "name" : "ImagesDoorsGlass"
        }
    ],
    "accessors" : [
        {
            "bufferView" : 0,
            "componentType" : 5126,
            "count" : 947,
            "max" : [
                0.9999992251396179,
                0.07771745324134827,
                0.9983422160148621
            ],
            "min" : [
                -1,
                -0.2504013180732727,
                -1.0016573667526245
            ],
            "type" : "VEC3"
        },
        {
            "bufferView" : 1,
            "componentType" : 5126,
            "count" : 947,
            "type" : "VEC3"
        },
        {
            "bufferView" : 2,
            "componentType" : 5126,
            "count" : 947,
            "type" : "VEC2"
        },
        {
            "bufferView" : 3,
            "componentType" : 5123,
            "count" : 2052,
            "type" : "SCALAR"
        },
        {
            "bufferView" : 5,
            "componentType" : 5126,
            "count" : 28,
            "max" : [
                -7.147976875305176,
                0.010292474180459976,
                1.013799786567688
            ],
            "min" : [
                -9.147976875305176,
                -0.04970752075314522,
                -0.9862002730369568
            ],
            "type" : "VEC3"
        },
        {
            "bufferView" : 6,
            "componentType" : 5126,
            "count" : 28,
            "type" : "VEC3"
        },
        {
            "bufferView" : 7,
            "componentType" : 5126,
            "count" : 28,
            "type" : "VEC2"
        },
        {
            "bufferView" : 8,
            "componentType" : 5123,
            "count" : 36,
            "type" : "SCALAR"
        },
        {
            "bufferView" : 10,
            "componentType" : 5126,
            "count" : 88,
            "max" : [
                0.5890563726425171,
                1.011192798614502,
                60
            ],
            "min" : [
                -1.4830242395401,
                -0.991571307182312,
                -60.1415901184082
            ],
            "type" : "VEC3"
        },
        {
            "bufferView" : 11,
            "componentType" : 5126,
            "count" : 88,
            "type" : "VEC3"
        },
        {
            "bufferView" : 12,
            "componentType" : 5126,
            "count" : 88,
            "type" : "VEC2"
        },
        {
            "bufferView" : 13,
            "componentType" : 5123,
            "count" : 108,
            "type" : "SCALAR"
        }
    ],
    "bufferViews" : [
        {
            "buffer" : 0,
            "byteLength" : 11364,
            "byteOffset" : 0
        },
        {
            "buffer" : 0,
            "byteLength" : 11364,
            "byteOffset" : 11364
        },
        {
            "buffer" : 0,
            "byteLength" : 7576,
            "byteOffset" : 22728
        },
        {
            "buffer" : 0,
            "byteLength" : 4104,
            "byteOffset" : 30304
        },
        {
            "buffer" : 0,
            "byteLength" : 19049,
            "byteOffset" : 34408
        },
        {
            "buffer" : 0,
            "byteLength" : 336,
            "byteOffset" : 53460
        },
        {
            "buffer" : 0,
            "byteLength" : 336,
            "byteOffset" : 53796
        },
        {
            "buffer" : 0,
            "byteLength" : 224,
            "byteOffset" : 54132
        },
        {
            "buffer" : 0,
            "byteLength" : 72,
            "byteOffset" : 54356
        },
        {
            "buffer" : 0,
            "byteLength" : 18795,
            "byteOffset" : 54428
        },
        {
            "buffer" : 0,
            "byteLength" : 1056,
            "byteOffset" : 73224
        },
        {
            "buffer" : 0,
            "byteLength" : 1056,
            "byteOffset" : 74280
        },
        {
            "buffer" : 0,
            "byteLength" : 704,
            "byteOffset" : 75336
        },
        {
            "buffer" : 0,
            "byteLength" : 216,
            "byteOffset" : 76040
        }
    ],
    "samplers" : [
        {
            "magFilter" : 9729,
            "minFilter" : 9987
        }
    ],
    "buffers" : [
        {
            "byteLength" : 76256,
            "uri" : "data:application/octet-stream;base64,"
        }
    ]
}
