{
    "asset" : {
        "generator" : "Khronos glTF Blender I/O v3.2.43",
        "version" : "2.0"
    },
    "scene" : 0,
    "scenes" : [
        {
            "name" : "Scene",
            "nodes" : [
                0,
                1,
                2
            ]
        }
    ],
    "nodes" : [
        {
            "mesh" : 0,
            "name" : "door",
            "rotation" : [
                0,
                0,
                -0.7071068286895752,
                0.7071067094802856
            ],
            "scale" : [
                3.000000238418579,
                3.2883858680725098,
                1.5
            ]
        },
        {
            "mesh" : 1,
            "name" : "Glass",
            "rotation" : [
                0,
                0,
                -0.7071068286895752,
                0.7071067094802856
            ],
            "scale" : [
                1.4900000095367432,
                1.7999998331069946,
                1.100000023841858
            ]
        },
        {
            "mesh" : 2,
            "name" : "trims",
            "rotation" : [
                0.7071068286895752,
                0,
                0,
                0.7071067094802856
            ],
            "scale" : [
                0.14574360847473145,
                1.5699999332427979,
                0.050000011920928955
            ]
        }
    ],
    "materials" : [
        {
            "doubleSided" : true,
            "emissiveFactor" : [
                0.1599999964237213,
                0.1599999964237213,
                0.1599999964237213
            ],
            "name" : "Material.008",
            "pbrMetallicRoughness" : {
                "baseColorTexture" : {
                    "index" : 0
                },
                "metallicFactor" : 0,
                "roughnessFactor" : 0.5
            }
        },
        {
            "doubleSided" : true,
            "name" : "Material.001",
            "pbrMetallicRoughness" : {
                "baseColorTexture" : {
                    "index" : 1
                },
                "metallicFactor" : 0,
                "roughnessFactor" : 0.5
            }
        },
        {
            "doubleSided" : true,
            "emissiveFactor" : [
                1,
                1,
                1
            ],
            "name" : "trims.001",
            "pbrMetallicRoughness" : {}
        }
    ],
    "meshes" : [
        {
            "name" : "Plane.004",
            "primitives" : [
                {
                    "attributes" : {
                        "POSITION" : 0,
                        "NORMAL" : 1,
                        "TEXCOORD_0" : 2
                    },
                    "indices" : 3,
                    "material" : 0
                }
            ]
        },
        {
            "name" : "Plane.001",
            "primitives" : [
                {
                    "attributes" : {
                        "POSITION" : 4,
                        "NORMAL" : 5,
                        "TEXCOORD_0" : 6
                    },
                    "indices" : 7,
                    "material" : 1
                }
            ]
        },
        {
            "name" : "trims.001",
            "primitives" : [
                {
                    "attributes" : {
                        "POSITION" : 8,
                        "NORMAL" : 9,
                        "TEXCOORD_0" : 10
                    },
                    "indices" : 11,
                    "material" : 2
                }
            ]
        }
    ],
    "textures" : [
        {
            "sampler" : 0,
            "source" : 0
        },
        {
            "sampler" : 0,
            "source" : 1
        }
    ],
    "images" : [
        {
            "bufferView" : 4,
            "mimeType" : "image/png",
            "name" : "Image"
        },
        {
            "bufferView" : 9,
            "mimeType" : "image/jpeg",
            "name" : "Image_1"
        }
    ],
    "accessors" : [
        {
            "bufferView" : 0,
            "componentType" : 5126,
            "count" : 1679,
            "max" : [
                0.9999997019767761,
                0.018066110089421272,
                0.9999997615814209
            ],
            "min" : [
                -1.000000238418579,
                -0.05784045159816742,
                -0.9999998807907104
            ],
            "type" : "VEC3"
        },
        {
            "bufferView" : 1,
            "componentType" : 5126,
            "count" : 1679,
            "type" : "VEC3"
        },
        {
            "bufferView" : 2,
            "componentType" : 5126,
            "count" : 1679,
            "type" : "VEC2"
        },
        {
            "bufferView" : 3,
            "componentType" : 5123,
            "count" : 3528,
            "type" : "SCALAR"
        },
        {
            "bufferView" : 5,
            "componentType" : 5126,
            "count" : 32,
            "max" : [
                0.22505831718444824,
                0.013905148953199387,
                0.9330542683601379
            ],
            "min" : [
                -1.7749416828155518,
                -0.08609484136104584,
                -1.0669456720352173
            ],
            "type" : "VEC3"
        },
        {
            "bufferView" : 6,
            "componentType" : 5126,
            "count" : 32,
            "type" : "VEC3"
        },
        {
            "bufferView" : 7,
            "componentType" : 5126,
            "count" : 32,
            "type" : "VEC2"
        },
        {
            "bufferView" : 8,
            "componentType" : 5123,
            "count" : 36,
            "type" : "SCALAR"
        },
        {
            "bufferView" : 10,
            "componentType" : 5126,
            "count" : 88,
            "max" : [
                0.5862470269203186,
                0.9823815226554871,
                60
            ],
            "min" : [
                -1.4858336448669434,
                -1.0203826427459717,
                -60.1415901184082
            ],
            "type" : "VEC3"
        },
        {
            "bufferView" : 11,
            "componentType" : 5126,
            "count" : 88,
            "type" : "VEC3"
        },
        {
            "bufferView" : 12,
            "componentType" : 5126,
            "count" : 88,
            "type" : "VEC2"
        },
        {
            "bufferView" : 13,
            "componentType" : 5123,
            "count" : 108,
            "type" : "SCALAR"
        }
    ],
    "bufferViews" : [
        {
            "buffer" : 0,
            "byteLength" : 20148,
            "byteOffset" : 0
        },
        {
            "buffer" : 0,
            "byteLength" : 20148,
            "byteOffset" : 20148
        },
        {
            "buffer" : 0,
            "byteLength" : 13432,
            "byteOffset" : 40296
        },
        {
            "buffer" : 0,
            "byteLength" : 7056,
            "byteOffset" : 53728
        },
        {
            "buffer" : 0,
            "byteLength" : 22764,
            "byteOffset" : 60784
        },
        {
            "buffer" : 0,
            "byteLength" : 384,
            "byteOffset" : 83548
        },
        {
            "buffer" : 0,
            "byteLength" : 384,
            "byteOffset" : 83932
        },
        {
            "buffer" : 0,
            "byteLength" : 256,
            "byteOffset" : 84316
        },
        {
            "buffer" : 0,
            "byteLength" : 72,
            "byteOffset" : 84572
        },
        {
            "buffer" : 0,
            "byteLength" : 18795,
            "byteOffset" : 84644
        },
        {
            "buffer" : 0,
            "byteLength" : 1056,
            "byteOffset" : 103440
        },
        {
            "buffer" : 0,
            "byteLength" : 1056,
            "byteOffset" : 104496
        },
        {
            "buffer" : 0,
            "byteLength" : 704,
            "byteOffset" : 105552
        },
        {
            "buffer" : 0,
            "byteLength" : 216,
            "byteOffset" : 106256
        }
    ],
    "samplers" : [
        {
            "magFilter" : 9729,
            "minFilter" : 9987
        }
    ],
    "buffers" : [
        {
            "byteLength" : 106472,
            "uri" : "data:application/octet-stream;base64,"
        }
    ]
}
