{
    "asset" : {
        "generator" : "Khronos glTF Blender I/O v3.2.43",
        "version" : "2.0"
    },
    "scene" : 0,
    "scenes" : [
        {
            "name" : "Scene",
            "nodes" : [
                0,
                1,
                2
            ]
        }
    ],
    "nodes" : [
        {
            "mesh" : 0,
            "name" : "door",
            "rotation" : [
                0,
                0,
                -0.7071068286895752,
                0.7071067094802856
            ],
            "scale" : [
                3.000000476837158,
                1.4285717010498047,
                1.5
            ],
            "translation" : [
                -0.09428416192531586,
                0.8843083381652832,
                -0.1961209774017334
            ]
        },
        {
            "mesh" : 1,
            "name" : "trim",
            "rotation" : [
                0,
                0,
                -0.7071068286895752,
                0.7071067094802856
            ],
            "scale" : [
                3.000000476837158,
                1.7282204627990723,
                3.049999952316284
            ],
            "translation" : [
                0.011867684312164783,
                0.010929937474429607,
                -0.004132270812988281
            ]
        },
        {
            "mesh" : 2,
            "name" : "glass",
            "rotation" : [
                0,
                0,
                -0.7071068286895752,
                0.7071067094802856
            ],
            "scale" : [
                3.000000476837158,
                1.4285717010498047,
                1.5
            ],
            "translation" : [
                -0.030393769964575768,
                0,
                1.5227258205413818
            ]
        }
    ],
    "materials" : [
        {
            "doubleSided" : true,
            "name" : "doors",
            "pbrMetallicRoughness" : {
                "baseColorTexture" : {
                    "index" : 0
                },
                "metallicFactor" : 0,
                "roughnessFactor" : 0.5
            }
        },
        {
            "doubleSided" : true,
            "emissiveFactor" : [
                1,
                1,
                1
            ],
            "name" : "Material.013",
            "pbrMetallicRoughness" : {}
        },
        {
            "doubleSided" : true,
            "name" : "Glass",
            "pbrMetallicRoughness" : {
                "baseColorTexture" : {
                    "index" : 1
                },
                "metallicFactor" : 0,
                "roughnessFactor" : 0.5
            }
        }
    ],
    "meshes" : [
        {
            "name" : "doors",
            "primitives" : [
                {
                    "attributes" : {
                        "POSITION" : 0,
                        "NORMAL" : 1,
                        "TEXCOORD_0" : 2
                    },
                    "indices" : 3,
                    "material" : 0
                }
            ]
        },
        {
            "name" : "Plane.005",
            "primitives" : [
                {
                    "attributes" : {
                        "POSITION" : 4,
                        "NORMAL" : 5,
                        "TEXCOORD_0" : 6
                    },
                    "indices" : 7,
                    "material" : 1
                }
            ]
        },
        {
            "name" : "glass",
            "primitives" : [
                {
                    "attributes" : {
                        "POSITION" : 8,
                        "NORMAL" : 9,
                        "TEXCOORD_0" : 10
                    },
                    "indices" : 11,
                    "material" : 2
                }
            ]
        }
    ],
    "textures" : [
        {
            "sampler" : 0,
            "source" : 0
        },
        {
            "sampler" : 0,
            "source" : 1
        }
    ],
    "images" : [
        {
            "bufferView" : 4,
            "mimeType" : "image/png",
            "name" : "Image_0"
        },
        {
            "bufferView" : 13,
            "mimeType" : "image/jpeg",
            "name" : "Image_1"
        }
    ],
    "accessors" : [
        {
            "bufferView" : 0,
            "componentType" : 5126,
            "count" : 3530,
            "max" : [
                1.2947691679000854,
                0.08379165828227997,
                2.145897150039673
            ],
            "min" : [
                -0.7052304744720459,
                -0.07330591976642609,
                -1.8656821250915527
            ],
            "type" : "VEC3"
        },
        {
            "bufferView" : 1,
            "componentType" : 5126,
            "count" : 3530,
            "type" : "VEC3"
        },
        {
            "bufferView" : 2,
            "componentType" : 5126,
            "count" : 3530,
            "type" : "VEC2"
        },
        {
            "bufferView" : 3,
            "componentType" : 5123,
            "count" : 7053,
            "type" : "SCALAR"
        },
        {
            "bufferView" : 5,
            "componentType" : 5126,
            "count" : 88,
            "max" : [
                1,
                0.03596228361129761,
                1
            ],
            "min" : [
                -1,
                -0.13166551291942596,
                -1
            ],
            "type" : "VEC3"
        },
        {
            "bufferView" : 6,
            "componentType" : 5126,
            "count" : 88,
            "type" : "VEC3"
        },
        {
            "bufferView" : 7,
            "componentType" : 5126,
            "count" : 88,
            "type" : "VEC2"
        },
        {
            "bufferView" : 8,
            "componentType" : 5123,
            "count" : 132,
            "type" : "SCALAR"
        },
        {
            "bufferView" : 9,
            "componentType" : 5126,
            "count" : 13,
            "max" : [
                0.10136673599481583,
                -0.09908832609653473,
                0.7092976570129395
            ],
            "min" : [
                -0.8919663429260254,
                -0.16908831894397736,
                -2.792064666748047
            ],
            "type" : "VEC3"
        },
        {
            "bufferView" : 10,
            "componentType" : 5126,
            "count" : 13,
            "type" : "VEC3"
        },
        {
            "bufferView" : 11,
            "componentType" : 5126,
            "count" : 13,
            "type" : "VEC2"
        },
        {
            "bufferView" : 12,
            "componentType" : 5123,
            "count" : 15,
            "type" : "SCALAR"
        }
    ],
    "bufferViews" : [
        {
            "buffer" : 0,
            "byteLength" : 42360,
            "byteOffset" : 0
        },
        {
            "buffer" : 0,
            "byteLength" : 42360,
            "byteOffset" : 42360
        },
        {
            "buffer" : 0,
            "byteLength" : 28240,
            "byteOffset" : 84720
        },
        {
            "buffer" : 0,
            "byteLength" : 14106,
            "byteOffset" : 112960
        },
        {
            "buffer" : 0,
            "byteLength" : 42996,
            "byteOffset" : 127068
        },
        {
            "buffer" : 0,
            "byteLength" : 1056,
            "byteOffset" : 170064
        },
        {
            "buffer" : 0,
            "byteLength" : 1056,
            "byteOffset" : 171120
        },
        {
            "buffer" : 0,
            "byteLength" : 704,
            "byteOffset" : 172176
        },
        {
            "buffer" : 0,
            "byteLength" : 264,
            "byteOffset" : 172880
        },
        {
            "buffer" : 0,
            "byteLength" : 156,
            "byteOffset" : 173144
        },
        {
            "buffer" : 0,
            "byteLength" : 156,
            "byteOffset" : 173300
        },
        {
            "buffer" : 0,
            "byteLength" : 104,
            "byteOffset" : 173456
        },
        {
            "buffer" : 0,
            "byteLength" : 30,
            "byteOffset" : 173560
        },
        {
            "buffer" : 0,
            "byteLength" : 18795,
            "byteOffset" : 173592
        }
    ],
    "samplers" : [
        {
            "magFilter" : 9729,
            "minFilter" : 9987
        }
    ],
    "buffers" : [
        {
            "byteLength" : 192388,
            "uri" : "data:application/octet-stream;base64,"
        }
    ]
}
