<svg width="20" height="20" viewBox="0 0 20 20" fill="none" xmlns="http://www.w3.org/2000/svg">
<path d="M18.2015 0.661108C18.0296 0.414194 17.7981 0.233626 17.5075 0.119082C17.3224 0.0398637 17.1285 0.000185197 16.9258 0.000185197V0H3.07236C2.8697 0 2.67594 0.0396785 2.49084 0.118897C2.20008 0.233348 1.96867 0.414147 1.79686 0.660922C1.62509 0.907698 1.53906 1.18077 1.53906 1.48047V18.5195C1.53906 18.8193 1.62509 19.0923 1.79686 19.3393C1.96867 19.586 2.20008 19.7667 2.49084 19.8811C2.67576 19.9604 2.8697 20 3.07236 20C3.48669 20 3.85222 19.8545 4.16956 19.5639L9.9991 13.9588L15.8286 19.564C16.1371 19.8456 16.5029 19.9866 16.9257 19.9866C17.1461 19.9866 17.34 19.9516 17.5075 19.8811C17.798 19.7667 18.0295 19.5859 18.2014 19.3389C18.3732 19.0922 18.459 18.8192 18.459 18.5194V1.48065C18.4591 1.18096 18.3731 0.907883 18.2015 0.661108ZM16.7671 18.1095L11.1756 12.7427L9.9991 11.6193L8.82268 12.7427L3.23121 18.1095V1.69219H16.7671V18.1095Z" fill="black"/>
</svg>
