<svg xmlns="http://www.w3.org/2000/svg" width="12" height="12" viewBox="0 0 12 12"><defs><style>.a{fill:#fcfcfc;opacity:0;}.b{fill:#fff;stroke:#fff;stroke-linecap:round;stroke-linejoin:round;}</style></defs><rect class="a" width="12" height="12"/><g transform="translate(1.29 2.499)"><path class="b" d="M11,8.46v1.5a1,1,0,0,1-1.09,1A9.894,9.894,0,0,1,5.595,9.425a9.759,9.759,0,0,1-3-3A9.894,9.894,0,0,1,1.06,2.09a1,1,0,0,1,1-1.09h1.5a1,1,0,0,1,1,.86,6.424,6.424,0,0,0,.35,1.405A1,1,0,0,1,4.68,4.32l-.635.635a8,8,0,0,0,3,3L7.68,7.32a1,1,0,0,1,1.055-.225,6.424,6.424,0,0,0,1.405.35A1,1,0,0,1,11,8.46Z" transform="translate(-1.29 -2.499)"/></g></svg>