<svg width="30" height="30" viewBox="0 0 30 30" fill="none" xmlns="http://www.w3.org/2000/svg">
<path d="M29.5 15C29.5 23.0081 23.0081 29.5 15 29.5C6.99187 29.5 0.5 23.0081 0.5 15C0.5 6.99187 6.99187 0.5 15 0.5C23.0081 0.5 29.5 6.99187 29.5 15Z" stroke="#DE3539"/>
<path d="M13.543 13.3848V18.3078" stroke="#DE3539" stroke-width="1.1" stroke-linecap="round" stroke-linejoin="round"/>
<path d="M17.2344 13.3848V18.3078" stroke="#DE3539" stroke-width="1.1" stroke-linecap="round" stroke-linejoin="round"/>
<path d="M9 10H22" stroke="#DE3539" stroke-width="1.1" stroke-linecap="round" stroke-linejoin="round"/>
<path d="M10 10H15.5H21V19.4286C21 20.8488 19.7688 22 18.25 22H12.75C11.2312 22 10 20.8488 10 19.4286V10Z" stroke="#DE3539" stroke-width="1.1" stroke-linecap="round" stroke-linejoin="round"/>
<path d="M13 8.5C13 7.67157 13.7462 7 14.6667 7H16.3333C17.2538 7 18 7.67157 18 8.5V10H13V8.5Z" stroke="#DE3539" stroke-width="1.1" stroke-linecap="round" stroke-linejoin="round"/>
</svg>
