{
    "asset" : {
        "generator" : "Khronos glTF Blender I/O v1.7.33",
        "version" : "2.0"
    },
    "scene" : 0,
    "scenes" : [
        {
            "name" : "Scene",
            "nodes" : [
                0,
                1,
                2,
                3
            ]
        }
    ],
    "nodes" : [
        {
            "mesh" : 0,
            "name" : "Plane.001",
            "rotation" : [
                0,
                0,
                -0.7071068286895752,
                0.7071067094802856
            ],
            "scale" : [
                3.000000476837158,
                11.508648872375488,
                1.5
            ]
        },
        {
            "mesh" : 1,
            "name" : "trims",
            "rotation" : [
                0.7071068286895752,
                0,
                0,
                0.7071067094802856
            ],
            "scale" : [
                0.14574360847473145,
                1.5700000524520874,
                0.050000015646219254
            ]
        },
        {
            "mesh" : 2,
            "name" : "knob",
            "rotation" : [
                0.7071068286895752,
                0,
                0,
                0.7071067094802856
            ],
            "scale" : [
                0.030000001192092896,
                0.02361731231212616,
                0.029999999329447746
            ]
        },
        {
            "mesh" : 3,
            "name" : "glass",
            "rotation" : [
                0,
                0,
                -0.7071068286895752,
                0.7071068286895752
            ]
        }
    ],
    "materials" : [
        {
            "doubleSided" : true,
            "emissiveFactor" : [
                0.25,
                0.25,
                0.25
            ],
            "name" : "Material.006",
            "pbrMetallicRoughness" : {
                "baseColorTexture" : {
                    "index" : 0
                },
                "metallicFactor" : 0,
                "roughnessFactor" : 0.5
            }
        },
        {
            "doubleSided" : true,
            "emissiveFactor" : [
                1,
                1,
                1
            ],
            "name" : "trims.001",
            "pbrMetallicRoughness" : {}
        },
        {
            "doubleSided" : true,
            "name" : "knob.003",
            "pbrMetallicRoughness" : {
                "baseColorFactor" : [
                    0.6266611814498901,
                    0.6266623139381409,
                    0.6266623139381409,
                    1
                ],
                "metallicFactor" : 0,
                "roughnessFactor" : 0.5
            }
        },
        {
            "doubleSided" : true,
            "name" : "Material.004",
            "pbrMetallicRoughness" : {
                "baseColorTexture" : {
                    "index" : 1
                },
                "metallicFactor" : 0,
                "roughnessFactor" : 0.5
            }
        }
    ],
    "meshes" : [
        {
            "name" : "Plane.002",
            "primitives" : [
                {
                    "attributes" : {
                        "POSITION" : 0,
                        "NORMAL" : 1,
                        "TEXCOORD_0" : 2
                    },
                    "indices" : 3,
                    "material" : 0
                }
            ]
        },
        {
            "name" : "trims.001",
            "primitives" : [
                {
                    "attributes" : {
                        "POSITION" : 4,
                        "NORMAL" : 5,
                        "TEXCOORD_0" : 6
                    },
                    "indices" : 7,
                    "material" : 1
                }
            ]
        },
        {
            "name" : "knob",
            "primitives" : [
                {
                    "attributes" : {
                        "POSITION" : 8,
                        "NORMAL" : 9,
                        "TEXCOORD_0" : 10
                    },
                    "indices" : 11,
                    "material" : 2
                }
            ]
        },
        {
            "name" : "Plane.009",
            "primitives" : [
                {
                    "attributes" : {
                        "POSITION" : 12,
                        "NORMAL" : 13,
                        "TEXCOORD_0" : 14
                    },
                    "indices" : 15,
                    "material" : 3
                }
            ]
        }
    ],
    "textures" : [
        {
            "sampler" : 0,
            "source" : 0
        },
        {
            "sampler" : 0,
            "source" : 1
        }
    ],
    "images" : [
        {
            "bufferView" : 4,
            "mimeType" : "image/png",
            "name" : "Image_0"
        },
        {
            "bufferView" : 17,
            "mimeType" : "image/jpeg",
            "name" : "ImagesDoorsGlass"
        }
    ],
    "accessors" : [
        {
            "bufferView" : 0,
            "componentType" : 5126,
            "count" : 1158,
            "max" : [
                1.0000005960464478,
                0.005176130216568708,
                1.0000004768371582
            ],
            "min" : [
                -1.0000005960464478,
                -0.016516126692295074,
                -1.0000004768371582
            ],
            "type" : "VEC3"
        },
        {
            "bufferView" : 1,
            "componentType" : 5126,
            "count" : 1158,
            "type" : "VEC3"
        },
        {
            "bufferView" : 2,
            "componentType" : 5126,
            "count" : 1158,
            "type" : "VEC2"
        },
        {
            "bufferView" : 3,
            "componentType" : 5123,
            "count" : 1386,
            "type" : "SCALAR"
        },
        {
            "bufferView" : 5,
            "componentType" : 5126,
            "count" : 88,
            "max" : [
                0.591253399848938,
                1.011192798614502,
                60
            ],
            "min" : [
                -1.4808272123336792,
                -0.991571307182312,
                -60.1415901184082
            ],
            "type" : "VEC3"
        },
        {
            "bufferView" : 6,
            "componentType" : 5126,
            "count" : 88,
            "type" : "VEC3"
        },
        {
            "bufferView" : 7,
            "componentType" : 5126,
            "count" : 88,
            "type" : "VEC2"
        },
        {
            "bufferView" : 8,
            "componentType" : 5123,
            "count" : 108,
            "type" : "SCALAR"
        },
        {
            "bufferView" : 9,
            "componentType" : 5126,
            "count" : 60934,
            "max" : [
                7.902431011199951,
                60.86419677734375,
                1.2698848247528076
            ],
            "min" : [
                -12.308845520019531,
                52.39583206176758,
                -7.17030143737793
            ],
            "type" : "VEC3"
        },
        {
            "bufferView" : 10,
            "componentType" : 5126,
            "count" : 60934,
            "type" : "VEC3"
        },
        {
            "bufferView" : 11,
            "componentType" : 5126,
            "count" : 60934,
            "type" : "VEC2"
        },
        {
            "bufferView" : 12,
            "componentType" : 5123,
            "count" : 271968,
            "type" : "SCALAR"
        },
        {
            "bufferView" : 13,
            "componentType" : 5126,
            "count" : 24,
            "max" : [
                -1.311593770980835,
                0.06676685065031052,
                0.8034859299659729
            ],
            "min" : [
                -2.51578426361084,
                -0.19323313236236572,
                -0.6839088201522827
            ],
            "type" : "VEC3"
        },
        {
            "bufferView" : 14,
            "componentType" : 5126,
            "count" : 24,
            "type" : "VEC3"
        },
        {
            "bufferView" : 15,
            "componentType" : 5126,
            "count" : 24,
            "type" : "VEC2"
        },
        {
            "bufferView" : 16,
            "componentType" : 5123,
            "count" : 36,
            "type" : "SCALAR"
        }
    ],
    "bufferViews" : [
        {
            "buffer" : 0,
            "byteLength" : 13896,
            "byteOffset" : 0
        },
        {
            "buffer" : 0,
            "byteLength" : 13896,
            "byteOffset" : 13896
        },
        {
            "buffer" : 0,
            "byteLength" : 9264,
            "byteOffset" : 27792
        },
        {
            "buffer" : 0,
            "byteLength" : 2772,
            "byteOffset" : 37056
        },
        {
            "buffer" : 0,
            "byteLength" : 581,
            "byteOffset" : 39828
        },
        {
            "buffer" : 0,
            "byteLength" : 1056,
            "byteOffset" : 40412
        },
        {
            "buffer" : 0,
            "byteLength" : 1056,
            "byteOffset" : 41468
        },
        {
            "buffer" : 0,
            "byteLength" : 704,
            "byteOffset" : 42524
        },
        {
            "buffer" : 0,
            "byteLength" : 216,
            "byteOffset" : 43228
        },
        {
            "buffer" : 0,
            "byteLength" : 731208,
            "byteOffset" : 43444
        },
        {
            "buffer" : 0,
            "byteLength" : 731208,
            "byteOffset" : 774652
        },
        {
            "buffer" : 0,
            "byteLength" : 487472,
            "byteOffset" : 1505860
        },
        {
            "buffer" : 0,
            "byteLength" : 543936,
            "byteOffset" : 1993332
        },
        {
            "buffer" : 0,
            "byteLength" : 288,
            "byteOffset" : 2537268
        },
        {
            "buffer" : 0,
            "byteLength" : 288,
            "byteOffset" : 2537556
        },
        {
            "buffer" : 0,
            "byteLength" : 192,
            "byteOffset" : 2537844
        },
        {
            "buffer" : 0,
            "byteLength" : 72,
            "byteOffset" : 2538036
        },
        {
            "buffer" : 0,
            "byteLength" : 18795,
            "byteOffset" : 2538108
        }
    ],
    "samplers" : [
        {
            "magFilter" : 9729,
            "minFilter" : 9987
        }
    ],
    "buffers" : [
        {
            "byteLength" : 2556904,
            "uri" : "data:application/octet-stream;base64,"
        }
    ]
}
