{
    "asset" : {
        "generator" : "Khronos glTF Blender I/O v1.7.33",
        "version" : "2.0"
    },
    "scene" : 0,
    "scenes" : [
        {
            "name" : "Scene",
            "nodes" : [
                0,
                1,
                2,
                3
            ]
        }
    ],
    "nodes" : [
        {
            "mesh" : 0,
            "name" : "Plane.001",
            "rotation" : [
                0,
                0,
                -0.7071068286895752,
                0.7071067094802856
            ],
            "scale" : [
                3.000000476837158,
                11.508648872375488,
                1.5
            ],
            "translation" : [
                0.04012642428278923,
                0,
                0
            ]
        },
        {
            "mesh" : 1,
            "name" : "glass",
            "rotation" : [
                0,
                0,
                -0.7071068286895752,
                0.7071067094802856
            ],
            "scale" : [
                0.49000048637390137,
                3.125000476837158,
                0.6701358556747437
            ],
            "translation" : [
                0.05974376201629639,
                1.8855094909667969,
                0.009919065982103348
            ]
        },
        {
            "mesh" : 2,
            "name" : "trims",
            "rotation" : [
                0.7071068286895752,
                0,
                0,
                0.7071067094802856
            ],
            "scale" : [
                0.14574360847473145,
                1.5700000524520874,
                0.050000015646219254
            ],
            "translation" : [
                -0.055027443915605545,
                2.957080364227295,
                0.014678332954645157
            ]
        },
        {
            "mesh" : 3,
            "name" : "knob",
            "rotation" : [
                0.7071068286895752,
                0,
                0,
                0.7071067094802856
            ],
            "scale" : [
                0.030000001192092896,
                0.02361731231212616,
                0.029999999329447746
            ],
            "translation" : [
                -0.20864237844944,
                0.09554087370634079,
                1.2402511835098267
            ]
        }
    ],
    "materials" : [
        {
            "doubleSided" : true,
            "emissiveFactor" : [
                0.12999999523162842,
                0.1262819916009903,
                0.11309999972581863
            ],
            "name" : "Material.006",
            "pbrMetallicRoughness" : {
                "baseColorTexture" : {
                    "index" : 0
                },
                "metallicFactor" : 0,
                "roughnessFactor" : 0.5
            }
        },
        {
            "doubleSided" : true,
            "name" : "Material.017",
            "pbrMetallicRoughness" : {
                "baseColorTexture" : {
                    "index" : 1
                },
                "metallicFactor" : 0,
                "roughnessFactor" : 0.5
            }
        },
        {
            "doubleSided" : true,
            "emissiveFactor" : [
                1,
                1,
                1
            ],
            "name" : "trims.001",
            "pbrMetallicRoughness" : {}
        },
        {
            "doubleSided" : true,
            "name" : "knob.003",
            "pbrMetallicRoughness" : {
                "baseColorFactor" : [
                    0.6266611814498901,
                    0.6266623139381409,
                    0.6266623139381409,
                    1
                ],
                "metallicFactor" : 0,
                "roughnessFactor" : 0.5
            }
        }
    ],
    "meshes" : [
        {
            "name" : "Plane.002",
            "primitives" : [
                {
                    "attributes" : {
                        "POSITION" : 0,
                        "NORMAL" : 1,
                        "TEXCOORD_0" : 2
                    },
                    "indices" : 3,
                    "material" : 0
                }
            ]
        },
        {
            "name" : "Plane.009",
            "primitives" : [
                {
                    "attributes" : {
                        "POSITION" : 4,
                        "NORMAL" : 5,
                        "TEXCOORD_0" : 6
                    },
                    "indices" : 7,
                    "material" : 1
                }
            ]
        },
        {
            "name" : "trims.001",
            "primitives" : [
                {
                    "attributes" : {
                        "POSITION" : 8,
                        "NORMAL" : 9,
                        "TEXCOORD_0" : 10
                    },
                    "indices" : 11,
                    "material" : 2
                }
            ]
        },
        {
            "name" : "knob",
            "primitives" : [
                {
                    "attributes" : {
                        "POSITION" : 12,
                        "NORMAL" : 13,
                        "TEXCOORD_0" : 14
                    },
                    "indices" : 15,
                    "material" : 3
                }
            ]
        }
    ],
    "textures" : [
        {
            "sampler" : 0,
            "source" : 0
        },
        {
            "sampler" : 0,
            "source" : 1
        }
    ],
    "images" : [
        {
            "bufferView" : 4,
            "mimeType" : "image/png",
            "name" : "Image_0"
        },
        {
            "bufferView" : 9,
            "mimeType" : "image/png",
            "name" : "Image_1"
        }
    ],
    "accessors" : [
        {
            "bufferView" : 0,
            "componentType" : 5126,
            "count" : 1142,
            "max" : [
                1.0000005960464478,
                0.001689497847110033,
                1.0000004768371582
            ],
            "min" : [
                -1.0000005960464478,
                -0.020002759993076324,
                -1.0000004768371582
            ],
            "type" : "VEC3"
        },
        {
            "bufferView" : 1,
            "componentType" : 5126,
            "count" : 1142,
            "type" : "VEC3"
        },
        {
            "bufferView" : 2,
            "componentType" : 5126,
            "count" : 1142,
            "type" : "VEC2"
        },
        {
            "bufferView" : 3,
            "componentType" : 5123,
            "count" : 1368,
            "type" : "SCALAR"
        },
        {
            "bufferView" : 5,
            "componentType" : 5126,
            "count" : 54,
            "max" : [
                0.9619300365447998,
                -0.003116619074717164,
                0.9685845375061035
            ],
            "min" : [
                -1.0380699634552002,
                -0.08311660587787628,
                -0.9918690323829651
            ],
            "type" : "VEC3"
        },
        {
            "bufferView" : 6,
            "componentType" : 5126,
            "count" : 54,
            "type" : "VEC3"
        },
        {
            "bufferView" : 7,
            "componentType" : 5126,
            "count" : 54,
            "type" : "VEC2"
        },
        {
            "bufferView" : 8,
            "componentType" : 5123,
            "count" : 54,
            "type" : "SCALAR"
        },
        {
            "bufferView" : 10,
            "componentType" : 5126,
            "count" : 88,
            "max" : [
                0.9688167572021484,
                1.001843810081482,
                119.14158630371094
            ],
            "min" : [
                -1.1032638549804688,
                -1.000920295715332,
                -1.0000038146972656
            ],
            "type" : "VEC3"
        },
        {
            "bufferView" : 11,
            "componentType" : 5126,
            "count" : 88,
            "type" : "VEC3"
        },
        {
            "bufferView" : 12,
            "componentType" : 5126,
            "count" : 88,
            "type" : "VEC2"
        },
        {
            "bufferView" : 13,
            "componentType" : 5123,
            "count" : 108,
            "type" : "SCALAR"
        },
        {
            "bufferView" : 14,
            "componentType" : 5126,
            "count" : 59544,
            "max" : [
                14.857176780700684,
                8.349699974060059,
                4.454586029052734
            ],
            "min" : [
                -5.354100227355957,
                -0.11866426467895508,
                -3.985599994659424
            ],
            "type" : "VEC3"
        },
        {
            "bufferView" : 15,
            "componentType" : 5126,
            "count" : 59544,
            "type" : "VEC3"
        },
        {
            "bufferView" : 16,
            "componentType" : 5126,
            "count" : 59544,
            "type" : "VEC2"
        },
        {
            "bufferView" : 17,
            "componentType" : 5123,
            "count" : 271968,
            "type" : "SCALAR"
        }
    ],
    "bufferViews" : [
        {
            "buffer" : 0,
            "byteLength" : 13704,
            "byteOffset" : 0
        },
        {
            "buffer" : 0,
            "byteLength" : 13704,
            "byteOffset" : 13704
        },
        {
            "buffer" : 0,
            "byteLength" : 9136,
            "byteOffset" : 27408
        },
        {
            "buffer" : 0,
            "byteLength" : 2736,
            "byteOffset" : 36544
        },
        {
            "buffer" : 0,
            "byteLength" : 581,
            "byteOffset" : 39280
        },
        {
            "buffer" : 0,
            "byteLength" : 648,
            "byteOffset" : 39864
        },
        {
            "buffer" : 0,
            "byteLength" : 648,
            "byteOffset" : 40512
        },
        {
            "buffer" : 0,
            "byteLength" : 432,
            "byteOffset" : 41160
        },
        {
            "buffer" : 0,
            "byteLength" : 108,
            "byteOffset" : 41592
        },
        {
            "buffer" : 0,
            "byteLength" : 6012,
            "byteOffset" : 41700
        },
        {
            "buffer" : 0,
            "byteLength" : 1056,
            "byteOffset" : 47712
        },
        {
            "buffer" : 0,
            "byteLength" : 1056,
            "byteOffset" : 48768
        },
        {
            "buffer" : 0,
            "byteLength" : 704,
            "byteOffset" : 49824
        },
        {
            "buffer" : 0,
            "byteLength" : 216,
            "byteOffset" : 50528
        },
        {
            "buffer" : 0,
            "byteLength" : 714528,
            "byteOffset" : 50744
        },
        {
            "buffer" : 0,
            "byteLength" : 714528,
            "byteOffset" : 765272
        },
        {
            "buffer" : 0,
            "byteLength" : 476352,
            "byteOffset" : 1479800
        },
        {
            "buffer" : 0,
            "byteLength" : 543936,
            "byteOffset" : 1956152
        }
    ],
    "samplers" : [
        {
            "magFilter" : 9729,
            "minFilter" : 9987
        }
    ],
    "buffers" : [
        {
            "byteLength" : 2500088,
            "uri" : "data:application/octet-stream;base64,"
        }
    ]
}
