{
    "asset" : {
        "generator" : "Khronos glTF Blender I/O v3.2.43",
        "version" : "2.0"
    },
    "scene" : 0,
    "scenes" : [
        {
            "name" : "Scene",
            "nodes" : [
                0
            ]
        }
    ],
    "nodes" : [
        {
            "mesh" : 0,
            "name" : "trims",
            "scale" : [
                0.14000065624713898,
                0.10000000149011612,
                2.0999999046325684
            ],
            "translation" : [
                0,
                -0.00018793389608617872,
                0
            ]
        }
    ],
    "materials" : [
        {
            "doubleSided" : true,
            "emissiveFactor" : [
                1,
                1,
                1
            ],
            "name" : "trims",
            "pbrMetallicRoughness" : {}
        }
    ],
    "meshes" : [
        {
            "name" : "top_trims",
            "primitives" : [
                {
                    "attributes" : {
                        "POSITION" : 0,
                        "NORMAL" : 1,
                        "TEXCOORD_0" : 2
                    },
                    "indices" : 3,
                    "material" : 0
                }
            ]
        }
    ],
    "accessors" : [
        {
            "bufferView" : 0,
            "componentType" : 5126,
            "count" : 532,
            "max" : [
                0.6850380301475525,
                32.36256408691406,
                1
            ],
            "min" : [
                -1.8545985221862793,
                -30.209075927734375,
                -1
            ],
            "type" : "VEC3"
        },
        {
            "bufferView" : 1,
            "componentType" : 5126,
            "count" : 532,
            "type" : "VEC3"
        },
        {
            "bufferView" : 2,
            "componentType" : 5126,
            "count" : 532,
            "type" : "VEC2"
        },
        {
            "bufferView" : 3,
            "componentType" : 5123,
            "count" : 576,
            "type" : "SCALAR"
        }
    ],
    "bufferViews" : [
        {
            "buffer" : 0,
            "byteLength" : 6384,
            "byteOffset" : 0
        },
        {
            "buffer" : 0,
            "byteLength" : 6384,
            "byteOffset" : 6384
        },
        {
            "buffer" : 0,
            "byteLength" : 4256,
            "byteOffset" : 12768
        },
        {
            "buffer" : 0,
            "byteLength" : 1152,
            "byteOffset" : 17024
        }
    ],
    "buffers" : [
        {
            "byteLength" : 18176,
            "uri" : "data:application/octet-stream;base64,"
        }
    ]
}
