{
    "asset" : {
        "generator" : "Khronos glTF Blender I/O v1.7.33",
        "version" : "2.0"
    },
    "scene" : 0,
    "scenes" : [
        {
            "name" : "Scene",
            "nodes" : [
                0,
                1,
                2
            ]
        }
    ],
    "nodes" : [
        {
            "mesh" : 0,
            "name" : "knob",
            "rotation" : [
                0.7071068286895752,
                0,
                0,
                0.7071067094802856
            ],
            "scale" : [
                0.029999999329447746,
                0.029999984428286552,
                0.029999999329447746
            ],
            "translation" : [
                -0.21831630170345306,
                0.09554087370634079,
                -1.4809389114379883
            ]
        },
        {
            "mesh" : 1,
            "name" : "doors",
            "rotation" : [
                0,
                0,
                -0.7071068286895752,
                0.7071068286895752
            ],
            "scale" : [
                3,
                5.959694862365723,
                1.5
            ]
        },
        {
            "mesh" : 2,
            "name" : "trim",
            "rotation" : [
                0,
                0,
                -0.7071068286895752,
                0.7071068286895752
            ],
            "scale" : [
                2.999999761581421,
                1.666666865348816,
                3.049999952316284
            ],
            "translation" : [
                0.03972863778471947,
                0.010929937474429607,
                -1.5268580913543701
            ]
        }
    ],
    "materials" : [
        {
            "doubleSided" : true,
            "name" : "knob",
            "pbrMetallicRoughness" : {
                "baseColorFactor" : [
                    0.14239616692066193,
                    0.14239616692066193,
                    0.14239616692066193,
                    1
                ],
                "metallicFactor" : 0,
                "roughnessFactor" : 0.5
            }
        },
        {
            "doubleSided" : true,
            "emissiveFactor" : [
                0.12999999523162842,
                0.12999999523162842,
                0.12999999523162842
            ],
            "name" : "doors",
            "pbrMetallicRoughness" : {
                "baseColorTexture" : {
                    "index" : 0
                },
                "metallicFactor" : 0,
                "roughnessFactor" : 0.5
            }
        },
        {
            "doubleSided" : true,
            "emissiveFactor" : [
                1,
                1,
                1
            ],
            "name" : "Material.013",
            "pbrMetallicRoughness" : {}
        }
    ],
    "meshes" : [
        {
            "name" : "knob",
            "primitives" : [
                {
                    "attributes" : {
                        "POSITION" : 0,
                        "NORMAL" : 1,
                        "TEXCOORD_0" : 2
                    },
                    "indices" : 3,
                    "material" : 0
                }
            ]
        },
        {
            "name" : "doors",
            "primitives" : [
                {
                    "attributes" : {
                        "POSITION" : 4,
                        "NORMAL" : 5,
                        "TEXCOORD_0" : 6
                    },
                    "indices" : 7,
                    "material" : 1
                }
            ]
        },
        {
            "name" : "Plane.005",
            "primitives" : [
                {
                    "attributes" : {
                        "POSITION" : 8,
                        "NORMAL" : 9,
                        "TEXCOORD_0" : 10
                    },
                    "indices" : 11,
                    "material" : 2
                }
            ]
        }
    ],
    "textures" : [
        {
            "sampler" : 0,
            "source" : 0
        }
    ],
    "images" : [
        {
            "bufferView" : 8,
            "mimeType" : "image/png",
            "name" : "wakingDoorImages_1"
        }
    ],
    "accessors" : [
        {
            "bufferView" : 0,
            "componentType" : 5126,
            "count" : 59518,
            "max" : [
                14.857176780700684,
                8.349699974060059,
                4.454586029052734
            ],
            "min" : [
                -5.354100227355957,
                -0.11866426467895508,
                -3.985599994659424
            ],
            "type" : "VEC3"
        },
        {
            "bufferView" : 1,
            "componentType" : 5126,
            "count" : 59518,
            "type" : "VEC3"
        },
        {
            "bufferView" : 2,
            "componentType" : 5126,
            "count" : 59518,
            "type" : "VEC2"
        },
        {
            "bufferView" : 3,
            "componentType" : 5123,
            "count" : 271968,
            "type" : "SCALAR"
        },
        {
            "bufferView" : 4,
            "componentType" : 5126,
            "count" : 2100,
            "max" : [
                1.0000007152557373,
                6.090850206419418e-07,
                1.0000005960464478
            ],
            "min" : [
                -1.0000007152557373,
                -0.020000610500574112,
                -3.014040946960449
            ],
            "type" : "VEC3"
        },
        {
            "bufferView" : 5,
            "componentType" : 5126,
            "count" : 2100,
            "type" : "VEC3"
        },
        {
            "bufferView" : 6,
            "componentType" : 5126,
            "count" : 2100,
            "type" : "VEC2"
        },
        {
            "bufferView" : 7,
            "componentType" : 5123,
            "count" : 2736,
            "type" : "SCALAR"
        },
        {
            "bufferView" : 9,
            "componentType" : 5126,
            "count" : 74,
            "max" : [
                1,
                0,
                1
            ],
            "min" : [
                -1,
                -0.11999998241662979,
                -1
            ],
            "type" : "VEC3"
        },
        {
            "bufferView" : 10,
            "componentType" : 5126,
            "count" : 74,
            "type" : "VEC3"
        },
        {
            "bufferView" : 11,
            "componentType" : 5126,
            "count" : 74,
            "type" : "VEC2"
        },
        {
            "bufferView" : 12,
            "componentType" : 5123,
            "count" : 132,
            "type" : "SCALAR"
        }
    ],
    "bufferViews" : [
        {
            "buffer" : 0,
            "byteLength" : 714216,
            "byteOffset" : 0
        },
        {
            "buffer" : 0,
            "byteLength" : 714216,
            "byteOffset" : 714216
        },
        {
            "buffer" : 0,
            "byteLength" : 476144,
            "byteOffset" : 1428432
        },
        {
            "buffer" : 0,
            "byteLength" : 543936,
            "byteOffset" : 1904576
        },
        {
            "buffer" : 0,
            "byteLength" : 25200,
            "byteOffset" : 2448512
        },
        {
            "buffer" : 0,
            "byteLength" : 25200,
            "byteOffset" : 2473712
        },
        {
            "buffer" : 0,
            "byteLength" : 16800,
            "byteOffset" : 2498912
        },
        {
            "buffer" : 0,
            "byteLength" : 5472,
            "byteOffset" : 2515712
        },
        {
            "buffer" : 0,
            "byteLength" : 581,
            "byteOffset" : 2521184
        },
        {
            "buffer" : 0,
            "byteLength" : 888,
            "byteOffset" : 2521768
        },
        {
            "buffer" : 0,
            "byteLength" : 888,
            "byteOffset" : 2522656
        },
        {
            "buffer" : 0,
            "byteLength" : 592,
            "byteOffset" : 2523544
        },
        {
            "buffer" : 0,
            "byteLength" : 264,
            "byteOffset" : 2524136
        }
    ],
    "samplers" : [
        {
            "magFilter" : 9729,
            "minFilter" : 9987
        }
    ],
    "buffers" : [
        {
            "byteLength" : 2524400,
            "uri" : "data:application/octet-stream;base64,"
        }
    ]
}
