<svg width="24" height="24" viewBox="0 0 24 24" fill="none" xmlns="http://www.w3.org/2000/svg">
<path d="M24 12.0054C24.005 14.8571 22.9938 17.6173 21.1477 19.7908C19.3016 21.9643 16.7415 23.4089 13.9266 23.8654V15.4984H16.6993L17.2265 12.0368H13.9266V9.7913C13.9029 9.53391 13.9373 9.27448 14.0273 9.03217C14.1173 8.78986 14.2606 8.57086 14.4466 8.39134C14.6325 8.21182 14.8565 8.07636 15.1018 7.99498C15.3471 7.91359 15.6076 7.88835 15.864 7.92112H17.3643V4.97482C16.4832 4.83147 15.5927 4.75315 14.7 4.7405C11.9815 4.7405 10.2047 6.39807 10.2047 9.39861V12.0368H7.18567V15.4984H10.2079V23.8654C7.93661 23.5224 5.8115 22.5346 4.08496 21.0195C2.35843 19.5044 1.10303 17.5256 0.46787 15.3181C-0.167291 13.1106 -0.155522 10.7672 0.501778 8.56621C1.15908 6.36521 2.43429 4.3991 4.17595 2.90141C5.91762 1.40373 8.05255 0.437389 10.3272 0.117176C12.6018 -0.203037 14.9205 0.13633 17.008 1.09497C19.0955 2.05361 20.8639 3.59124 22.1033 5.52523C23.3427 7.45922 24.001 9.70831 24 12.0054Z" fill="#3B5998"/>
</svg>
