{
    "asset" : {
        "generator" : "Khronos glTF Blender I/O v1.7.33",
        "version" : "2.0"
    },
    "scene" : 0,
    "scenes" : [
        {
            "name" : "Scene",
            "nodes" : [
                0,
                1
            ]
        }
    ],
    "nodes" : [
        {
            "mesh" : 0,
            "name" : "trims",
            "rotation" : [
                0,
                0,
                -0.7071068286895752,
                0.7071068286895752
            ],
            "scale" : [
                1.0199999809265137,
                0.9333327412605286,
                2.5139999389648438
            ],
            "translation" : [
                0.060062773525714874,
                -3.4332005977630615,
                0
            ]
        },
        {
            "mesh" : 1,
            "name" : "trims",
            "rotation" : [
                -0.3834895193576813,
                0,
                0,
                0.923545241355896
            ],
            "scale" : [
                0.03000001423060894,
                3.399998664855957,
                0.10999999940395355
            ],
            "translation" : [
                -0.0567479208111763,
                0.005798362195491791,
                -0.006286799907684326
            ]
        }
    ],
    "materials" : [
        {
            "doubleSided" : true,
            "emissiveFactor" : [
                1,
                1,
                1
            ],
            "name" : "trims",
            "pbrMetallicRoughness" : {}
        },
        {
            "doubleSided" : true,
            "emissiveFactor" : [
                1,
                1,
                1
            ],
            "name" : "trims",
            "pbrMetallicRoughness" : {}
        }
    ],
    "meshes" : [
        {
            "name" : "trims",
            "primitives" : [
                {
                    "attributes" : {
                        "POSITION" : 0,
                        "NORMAL" : 1,
                        "TEXCOORD_0" : 2
                    },
                    "indices" : 3,
                    "material" : 0
                }
            ]
        },
        {
            "name" : "trims",
            "primitives" : [
                {
                    "attributes" : {
                        "POSITION" : 4,
                        "NORMAL" : 5,
                        "TEXCOORD_0" : 6
                    },
                    "indices" : 7,
                    "material" : 1
                }
            ]
        }
    ],
    "accessors" : [
        {
            "bufferView" : 0,
            "componentType" : 5126,
            "count" : 96,
            "max" : [
                -0.8998587727546692,
                0,
                1.0044572353363037
            ],
            "min" : [
                -5.829621315002441,
                -0.3000001907348633,
                -1.011453628540039
            ],
            "type" : "VEC3"
        },
        {
            "bufferView" : 1,
            "componentType" : 5126,
            "count" : 96,
            "type" : "VEC3"
        },
        {
            "bufferView" : 2,
            "componentType" : 5126,
            "count" : 96,
            "type" : "VEC2"
        },
        {
            "bufferView" : 3,
            "componentType" : 5123,
            "count" : 144,
            "type" : "SCALAR"
        },
        {
            "bufferView" : 4,
            "componentType" : 5126,
            "count" : 48,
            "max" : [
                1,
                1,
                30.64108657836914
            ],
            "min" : [
                -1.2710012197494507,
                -1,
                -31.183673858642578
            ],
            "type" : "VEC3"
        },
        {
            "bufferView" : 5,
            "componentType" : 5126,
            "count" : 48,
            "type" : "VEC3"
        },
        {
            "bufferView" : 6,
            "componentType" : 5126,
            "count" : 48,
            "type" : "VEC2"
        },
        {
            "bufferView" : 7,
            "componentType" : 5123,
            "count" : 72,
            "type" : "SCALAR"
        }
    ],
    "bufferViews" : [
        {
            "buffer" : 0,
            "byteLength" : 1152,
            "byteOffset" : 0
        },
        {
            "buffer" : 0,
            "byteLength" : 1152,
            "byteOffset" : 1152
        },
        {
            "buffer" : 0,
            "byteLength" : 768,
            "byteOffset" : 2304
        },
        {
            "buffer" : 0,
            "byteLength" : 288,
            "byteOffset" : 3072
        },
        {
            "buffer" : 0,
            "byteLength" : 576,
            "byteOffset" : 3360
        },
        {
            "buffer" : 0,
            "byteLength" : 576,
            "byteOffset" : 3936
        },
        {
            "buffer" : 0,
            "byteLength" : 384,
            "byteOffset" : 4512
        },
        {
            "buffer" : 0,
            "byteLength" : 144,
            "byteOffset" : 4896
        }
    ],
    "buffers" : [
        {
            "byteLength" : 5040,
            "uri" : "data:application/octet-stream;base64,"
        }
    ]
}
