<svg width="18" height="22" viewBox="0 0 18 22" fill="none" xmlns="http://www.w3.org/2000/svg">
<path d="M15.432 6.61073H13.0962C12.6238 6.61073 12.2404 6.97158 12.2404 7.41741C12.2404 7.86323 12.6238 8.22409 13.0962 8.22409H15.4326C15.9044 8.22409 16.2884 8.58602 16.2884 9.03076V19.58C16.2884 20.0247 15.9044 20.3866 15.4326 20.3866H2.56743C2.0956 20.3866 1.71162 20.0247 1.71162 19.58V9.03076C1.71162 8.58602 2.0956 8.22409 2.56743 8.22409H4.9038C5.37678 8.22409 5.75961 7.86323 5.75961 7.41741C5.75961 6.97158 5.37678 6.61073 4.9038 6.61073H2.56743C1.15192 6.61073 0 7.69652 0 9.03076V19.58C0 20.9142 1.15192 22 2.56743 22H15.4326C16.8481 22 18 20.9142 18 19.58V9.03076C17.9994 7.69598 16.8481 6.61073 15.432 6.61073ZM5.80868 4.98232L8.17243 2.75427V13.3745C8.17243 13.8197 8.55526 14.1811 9.02824 14.1811C9.50122 14.1811 9.88405 13.8197 9.88405 13.3745V2.75427L12.2478 4.98232C12.415 5.13989 12.6341 5.2184 12.8531 5.2184C13.0722 5.2184 13.2913 5.13989 13.4585 4.98232C13.7928 4.66771 13.7928 4.15628 13.4585 3.84167L9.63416 0.236357C9.29925 -0.0787856 8.7578 -0.0787856 8.42347 0.236357L4.59856 3.84167C4.26422 4.15628 4.26422 4.66771 4.59856 4.98232C4.9329 5.29746 5.47434 5.29746 5.80868 4.98232Z" fill="black"/>
</svg>
