<svg width="12" height="14" viewBox="0 0 12 14" fill="none" xmlns="http://www.w3.org/2000/svg">
<path d="M7.62484 5.24999C7.78584 5.24999 7.9165 5.38066 7.9165 5.54166L7.9165 12.25C7.9165 12.8934 7.39325 13.4167 6.74984 13.4167C6.10642 13.4167 5.58317 12.8934 5.58317 12.25L5.58317 6.125C5.58317 5.96399 5.71384 5.83333 5.87484 5.83333C6.03584 5.83333 6.1665 5.96399 6.1665 6.125L6.1665 12.25C6.1665 12.572 6.42842 12.8333 6.74984 12.8333C7.07125 12.8333 7.33317 12.572 7.33317 12.25L7.33317 5.54166C7.33317 5.38066 7.46384 5.24999 7.62484 5.24999Z" fill="black"/>
<path d="M4.12484 5.83333C4.28584 5.83333 4.4165 5.964 4.4165 6.125V8.75C4.4165 9.072 4.67842 9.33333 4.99984 9.33333C5.32125 9.33333 5.58317 9.072 5.58317 8.75C5.58317 8.589 5.71384 8.45833 5.87484 8.45833C6.03584 8.45833 6.1665 8.589 6.1665 8.75C6.1665 9.39341 5.64325 9.91666 4.99984 9.91666C4.35642 9.91666 3.83317 9.39341 3.83317 8.75L3.83317 6.125C3.83317 5.964 3.96384 5.83333 4.12484 5.83333Z" fill="black"/>
<path d="M2.37484 5.83333C2.53584 5.83333 2.6665 5.96399 2.6665 6.12499L2.6665 8.16666C2.6665 8.48866 2.92842 8.74999 3.24984 8.74999C3.57125 8.74999 3.83317 8.48866 3.83317 8.16666C3.83317 8.00566 3.96384 7.87499 4.12484 7.87499C4.28584 7.87499 4.4165 8.00566 4.4165 8.16666C4.4165 8.81008 3.89325 9.33333 3.24984 9.33333C2.60642 9.33333 2.08317 8.81008 2.08317 8.16666L2.08317 6.12499C2.08317 5.96399 2.21384 5.83333 2.37484 5.83333Z" fill="black"/>
<path d="M2.95817 5.21541e-07L6.33392 5.21541e-07C7.24334 5.21541e-07 8.07459 0.46025 8.55759 1.23025L11.231 5.49325C11.2322 5.49558 11.2333 5.49733 11.2345 5.49908C11.3535 5.6805 11.4165 5.89692 11.4165 6.125C11.4165 6.76842 10.8933 7.29167 10.2498 7.29167C10.0352 7.29167 9.82925 7.23508 9.65425 7.12775C9.64959 7.12542 9.64492 7.1225 9.64084 7.11958L7.47259 5.79017C7.3355 5.70617 7.29175 5.5265 7.37634 5.38883C7.46034 5.25233 7.64117 5.20858 7.77767 5.29317L9.93309 6.615C9.9395 6.6185 9.94534 6.622 9.95175 6.62608C10.0363 6.67975 10.1396 6.70833 10.2498 6.70833C10.5713 6.70833 10.8332 6.447 10.8332 6.125C10.8332 6.0165 10.8046 5.91208 10.7527 5.8275C10.7498 5.82342 10.7474 5.81933 10.7445 5.81525L8.0635 1.54C7.68784 0.940917 7.0415 0.583334 6.33392 0.583334L2.95817 0.583334C1.83234 0.583334 0.916504 1.49917 0.916504 2.625V7.58333C0.916504 7.90533 1.17842 8.16667 1.49984 8.16667C1.82125 8.16667 2.08317 7.90533 2.08317 7.58333C2.08317 7.42233 2.21384 7.29167 2.37484 7.29167C2.53584 7.29167 2.6665 7.42233 2.6665 7.58333C2.6665 8.22675 2.14325 8.75 1.49984 8.75C0.85642 8.75 0.333171 8.22675 0.333171 7.58333V2.625C0.333171 1.17775 1.51092 5.21541e-07 2.95817 5.21541e-07Z" fill="black"/>
</svg>
