<svg xmlns="http://www.w3.org/2000/svg" width="118.859" height="11.375" viewBox="0 0 118.859 11.375">
  <path id="Left-Lean-Left" d="M3.359-1.883H8.336V0H1.016V-11.375H3.359ZM16.523-4.93h-4.5v3.047H17.3V0H9.68V-11.375h7.609v1.9H12.023v2.711h4.5Zm9,.281h-4.5V0H18.68V-11.375h7.406v1.9H21.023v2.938h4.5ZM36.164-9.477H32.68V0H30.336V-9.477H26.9v-1.9h9.266Zm7.2,7.594h4.977V0h-7.32V-11.375h2.344ZM56.523-4.93h-4.5v3.047H57.3V0H49.68V-11.375h7.609v1.9H52.023v2.711h4.5ZM65.1-2.344H60.992L60.211,0H57.719l4.234-11.375h2.172L68.383,0H65.891Zm-3.477-1.9h2.844L63.039-8.5ZM78.7,0H76.352L71.789-7.484V0H69.445V-11.375h2.344l4.57,7.5v-7.5H78.7ZM87.07-1.883h4.977V0h-7.32V-11.375H87.07ZM100.234-4.93h-4.5v3.047h5.281V0H93.391V-11.375H101v1.9H95.734v2.711h4.5Zm9,.281h-4.5V0h-2.344V-11.375H109.8v1.9h-5.062v2.938h4.5Zm10.641-4.828h-3.484V0h-2.344V-9.477h-3.437v-1.9h9.266Z" transform="translate(-1.016 11.375)" fill="#161615"/>
</svg>
