<svg xmlns="http://www.w3.org/2000/svg" width="133.367" height="11.688" viewBox="0 0 133.367 11.688">
  <path id="left-lean-front" d="M3.359-1.883H8.336V0H1.016V-11.375H3.359ZM16.523-4.93h-4.5v3.047H17.3V0H9.68V-11.375h7.609v1.9H12.023v2.711h4.5Zm9,.281h-4.5V0H18.68V-11.375h7.406v1.9H21.023v2.938h4.5ZM36.164-9.477H32.68V0H30.336V-9.477H26.9v-1.9h9.266Zm7.2,7.594h4.977V0h-7.32V-11.375h2.344ZM56.523-4.93h-4.5v3.047H57.3V0H49.68V-11.375h7.609v1.9H52.023v2.711h4.5ZM65.1-2.344H60.992L60.211,0H57.719l4.234-11.375h2.172L68.383,0H65.891Zm-3.477-1.9h2.844L63.039-8.5ZM78.7,0H76.352L71.789-7.484V0H69.445V-11.375h2.344l4.57,7.5v-7.5H78.7ZM91.57-4.648h-4.5V0H84.727V-11.375h7.406v1.9H87.07v2.938h4.5Zm6.133.484H95.836V0H93.492V-11.375h4.227a4.778,4.778,0,0,1,3.109.9,3.1,3.1,0,0,1,1.094,2.539,3.5,3.5,0,0,1-.5,1.941,3.437,3.437,0,0,1-1.527,1.238l2.461,4.648V0H99.836Zm-1.867-1.9h1.891a1.936,1.936,0,0,0,1.367-.449,1.606,1.606,0,0,0,.484-1.238,1.719,1.719,0,0,0-.457-1.266,1.9,1.9,0,0,0-1.4-.461H95.836Zm17.211.633a6.867,6.867,0,0,1-.594,2.945,4.472,4.472,0,0,1-1.7,1.953,4.7,4.7,0,0,1-2.535.688,4.732,4.732,0,0,1-2.523-.68,4.515,4.515,0,0,1-1.719-1.941,6.67,6.67,0,0,1-.617-2.9V-5.93a6.831,6.831,0,0,1,.605-2.957,4.508,4.508,0,0,1,1.711-1.961,4.706,4.706,0,0,1,2.527-.684,4.706,4.706,0,0,1,2.527.684,4.508,4.508,0,0,1,1.711,1.961,6.811,6.811,0,0,1,.605,2.949Zm-2.375-.516a4.787,4.787,0,0,0-.641-2.719,2.088,2.088,0,0,0-1.828-.93,2.088,2.088,0,0,0-1.82.918,4.732,4.732,0,0,0-.648,2.691v.555a4.847,4.847,0,0,0,.641,2.7,2.082,2.082,0,0,0,1.844.961,2.064,2.064,0,0,0,1.813-.926,4.819,4.819,0,0,0,.641-2.7ZM124,0h-2.344l-4.562-7.484V0H114.75V-11.375h2.344l4.57,7.5v-7.5H124Zm10.383-9.477H130.9V0h-2.344V-9.477h-3.437v-1.9h9.266Z" transform="translate(-1.016 11.531)" fill="#161615"/>
</svg>
