<svg xmlns="http://www.w3.org/2000/svg" width="124.266" height="11.688" viewBox="0 0 124.266 11.688">
  <path id="left-lean-back" d="M3.359-1.883H8.336V0H1.016V-11.375H3.359ZM16.523-4.93h-4.5v3.047H17.3V0H9.68V-11.375h7.609v1.9H12.023v2.711h4.5Zm9,.281h-4.5V0H18.68V-11.375h7.406v1.9H21.023v2.938h4.5ZM36.164-9.477H32.68V0H30.336V-9.477H26.9v-1.9h9.266Zm7.2,7.594h4.977V0h-7.32V-11.375h2.344ZM56.523-4.93h-4.5v3.047H57.3V0H49.68V-11.375h7.609v1.9H52.023v2.711h4.5ZM65.1-2.344H60.992L60.211,0H57.719l4.234-11.375h2.172L68.383,0H65.891Zm-3.477-1.9h2.844L63.039-8.5ZM78.7,0H76.352L71.789-7.484V0H69.445V-11.375h2.344l4.57,7.5v-7.5H78.7Zm6.031,0V-11.375h3.984a5.232,5.232,0,0,1,3.141.793,2.712,2.712,0,0,1,1.07,2.324,2.57,2.57,0,0,1-.43,1.473,2.482,2.482,0,0,1-1.2.934,2.4,2.4,0,0,1,1.379.883,2.61,2.61,0,0,1,.5,1.625A3,3,0,0,1,92.133-.859,4.713,4.713,0,0,1,89.148,0ZM87.07-4.953v3.07h2.008a1.938,1.938,0,0,0,1.293-.395,1.353,1.353,0,0,0,.465-1.09,1.428,1.428,0,0,0-1.617-1.586Zm0-1.656H88.8q1.773-.031,1.773-1.414a1.307,1.307,0,0,0-.449-1.113,2.363,2.363,0,0,0-1.418-.34H87.07Zm14.289,4.266H97.25L96.469,0H93.977l4.234-11.375h2.172L104.641,0h-2.492Zm-3.477-1.9h2.844L99.3-8.5Zm16.586.453A4.025,4.025,0,0,1,113.113-.9,4.76,4.76,0,0,1,109.891.156a4.28,4.28,0,0,1-3.441-1.473A6.038,6.038,0,0,1,105.2-5.359v-.7a6.819,6.819,0,0,1,.578-2.891,4.332,4.332,0,0,1,1.652-1.918,4.629,4.629,0,0,1,2.5-.668,4.637,4.637,0,0,1,3.172,1.055,4.326,4.326,0,0,1,1.391,2.961h-2.344a2.376,2.376,0,0,0-.613-1.6,2.271,2.271,0,0,0-1.605-.5,1.991,1.991,0,0,0-1.754.84,4.707,4.707,0,0,0-.6,2.605V-5.3a5.038,5.038,0,0,0,.559,2.7,1.954,1.954,0,0,0,1.762.852,2.314,2.314,0,0,0,1.621-.5,2.241,2.241,0,0,0,.613-1.535Zm5.1-.773L118.352-3.25V0h-2.344V-11.375h2.344v5.156l1.031-1.414,2.9-3.742h2.883L121.125-6.32,125.281,0h-2.789Z" transform="translate(-1.016 11.531)" fill="#161615"/>
</svg>
