<svg width="3804" height="2742" viewBox="0 0 3804 2742" fill="none" xmlns="http://www.w3.org/2000/svg">
<g opacity="0.7" filter="url(#filter0_dii_0_4)">
<path d="M2 2733.97H58.4369V2422.38H59.6136L106.656 2733.97H160.727L207.769 2422.38H208.946V2733.97H270.083V2322.46H177.787L136.638 2616.98H135.461L94.3083 2322.46H2V2733.97ZM340.619 2733.97H516.983V2675.18H405.298V2548.79H494.067V2490H405.298V2381.24H516.995V2322.46H340.631L340.619 2733.97ZM626.917 2733.97H691.584V2381.24H759.192V2322.46H559.312V2381.24H626.92L626.917 2733.97ZM768.596 2733.97H828.56L840.317 2653.44H913.802V2652.26L925.56 2733.98H990.227L923.222 2322.46H835.626L768.596 2733.97ZM847.961 2597.59L876.18 2394.18H877.356L906.159 2597.59H847.961ZM1043.72 2733.97H1214.8V2675.18H1108.4V2322.46H1043.74L1043.72 2733.97ZM1468.76 2739.85C1532.25 2739.85 1566.35 2702.23 1566.35 2635.21C1566.35 2584.06 1549.3 2551.15 1495.22 2503.53C1452.9 2466.49 1439.38 2444.74 1439.38 2414.75C1439.38 2386.53 1451.14 2375.36 1471.71 2375.36C1492.29 2375.36 1504.05 2386.53 1504.05 2415.93V2437.09H1565.18V2420.04C1565.18 2354.2 1534.02 2316.58 1471.12 2316.58C1408.22 2316.58 1374.71 2354.2 1374.71 2418.88C1374.71 2465.91 1392.35 2499.42 1446.43 2547.04C1488.76 2584.06 1501.7 2605.82 1501.7 2639.9C1501.7 2670.47 1488.76 2681.05 1468.19 2681.05C1447.61 2681.05 1434.68 2670.47 1434.68 2641.08V2612.86H1373.54V2636.38C1373.54 2702.23 1405.28 2739.85 1468.77 2739.85L1468.76 2739.85ZM1676.28 2733.97H1740.95V2381.24H1808.56V2322.46H1608.68V2381.24H1676.29L1676.28 2733.97ZM1862.06 2733.97H1926.72V2557.61H1949.06C1978.46 2557.61 1989.62 2569.95 1989.62 2608.17V2683.41C1989.62 2716.92 1991.97 2723.39 1995.49 2733.97H2061.34C2054.89 2718.69 2054.27 2703.99 2054.27 2684V2611.69C2054.27 2565.25 2043.69 2534.68 2011.35 2524.69V2523.51C2040.16 2511.75 2053.68 2484.71 2053.68 2442.38V2417.1C2053.68 2353.61 2024.88 2322.45 1957.86 2322.45H1862.07L1862.06 2733.97ZM1926.72 2498.82V2381.24H1956.12C1979.05 2381.24 1989.04 2394.18 1989.04 2423.57V2455.32C1989.04 2488.24 1974.34 2498.82 1950.24 2498.82L1926.72 2498.82ZM2215.37 2739.85C2278.86 2739.85 2311.79 2702.23 2311.79 2636.39V2322.46H2249.48V2641.09C2249.48 2670.48 2237.14 2681.06 2216.56 2681.06C2195.98 2681.06 2183.64 2670.48 2183.64 2641.09V2322.46H2118.97V2636.38C2118.97 2702.23 2151.89 2739.85 2215.38 2739.85L2215.37 2739.85ZM2471.1 2739.85C2533.42 2739.85 2566.34 2702.23 2566.34 2638.74V2580.53H2505.2V2643.44C2505.2 2670.47 2492.27 2681.06 2472.87 2681.06C2453.47 2681.06 2440.54 2670.48 2440.54 2643.44V2413.58C2440.54 2386.54 2453.47 2375.36 2472.87 2375.36C2492.27 2375.36 2505.21 2386.53 2505.21 2413.58V2461.2H2566.34V2417.69C2566.34 2354.2 2533.42 2316.58 2471.11 2316.58C2408.79 2316.58 2375.87 2354.2 2375.87 2417.69V2638.73C2375.88 2702.23 2408.79 2739.85 2471.11 2739.85L2471.1 2739.85ZM2678.04 2733.97H2742.7V2381.24H2810.33V2322.46H2610.45V2381.24H2678.06L2678.04 2733.97ZM2957.87 2739.85C3021.36 2739.85 3054.28 2702.23 3054.28 2636.39V2322.46H2991.97V2641.09C2991.97 2670.48 2979.63 2681.06 2959.05 2681.06C2938.47 2681.06 2926.13 2670.48 2926.13 2641.09V2322.46H2861.46V2636.38C2861.46 2702.23 2894.39 2739.85 2957.88 2739.85L2957.87 2739.85ZM3122.47 2733.97H3187.14V2557.61H3209.48C3238.87 2557.61 3250.03 2569.95 3250.03 2608.17V2683.41C3250.03 2716.92 3252.39 2723.39 3255.91 2733.97H3321.76C3315.31 2718.69 3314.69 2703.99 3314.69 2684V2611.69C3314.69 2565.25 3304.11 2534.68 3271.78 2524.69V2523.51C3300.58 2511.75 3314.1 2484.71 3314.1 2442.38V2417.1C3314.1 2353.61 3285.3 2322.45 3218.28 2322.45H3122.47L3122.47 2733.97ZM3187.14 2498.82V2381.24H3216.54C3239.46 2381.24 3249.46 2394.18 3249.46 2423.57V2455.32C3249.46 2488.24 3234.76 2498.82 3210.66 2498.82L3187.14 2498.82ZM3381.73 2733.97H3558.11V2675.18H3446.4V2548.79H3535.17V2490H3446.4V2381.24H3558.11V2322.46H3381.75L3381.73 2733.97ZM3702.71 2739.85C3766.21 2739.85 3800.3 2702.23 3800.3 2635.21C3800.3 2584.06 3783.25 2551.15 3729.17 2503.53C3686.84 2466.49 3673.32 2444.74 3673.32 2414.75C3673.32 2386.53 3685.08 2375.36 3705.65 2375.36C3726.23 2375.36 3737.99 2386.53 3737.99 2415.92V2437.09H3799.12V2420.04C3799.12 2354.2 3767.97 2316.58 3705.06 2316.58C3642.16 2316.58 3608.65 2354.2 3608.65 2418.88C3608.65 2465.91 3626.29 2499.42 3680.37 2547.04C3722.7 2584.08 3735.63 2605.83 3735.63 2639.93C3735.63 2670.5 3722.7 2681.08 3702.12 2681.08C3681.55 2681.08 3668.62 2670.5 3668.62 2641.1V2612.86H3607.48V2636.38C3607.48 2702.23 3639.22 2739.85 3702.72 2739.85L3702.71 2739.85Z" fill="#EAEAEA"/>
<path d="M2073.65 1449.81V1378.23L2193.27 1200.74L2313.88 1023.26L2316.83 1189.95C2317.81 1294.87 2315.85 1360.57 2308.98 1367.44C2290.35 1386.07 2299.16 1414.5 2333.49 1452.75C2390.37 1516.48 2387.43 1518.45 2220.74 1519.42L2073.66 1521.38L2073.65 1449.81ZM1838.32 1305.66V1090.92L1689.27 982.078C1606.91 921.282 1535.32 872.249 1530.41 871.281C1526.49 870.298 1456.89 918.348 1376.47 977.169L1230.37 1084.06V1520.41H1044.05V1468.44C1044.05 1354.7 1006.79 1295.86 919.52 1270.36C786.157 1231.14 677.317 1143.87 626.327 1032.09C605.743 986.002 590.044 966.392 563.561 952.653C526.314 934.026 481.204 857.545 470.411 794.792L464.528 760.466L478.264 789.889C496.891 828.12 541.994 870.295 574.36 878.129C597.894 884.022 602.794 879.113 630.253 831.066C683.197 736.93 766.55 677.126 926.38 618.289C1094.07 556.51 1224.47 476.109 1372.54 343.73C1597.09 142.707 1797.12 33.8643 1990.29 7.38779C2112.88 -9.27908 2211.9 12.3034 2312.91 77.9877C2423.69 150.56 2558.05 306.473 2635.52 451.593L2668.85 515.32L2716.9 518.263C2752.2 520.227 2776.71 515.32 2813 496.699L2860.06 472.186L2855.16 516.291C2850.26 565.324 2823.78 599.65 2779.66 618.289C2754.16 629.067 2753.18 632.999 2757.1 670.259C2765.92 734.966 2798.29 811.459 2829.67 843.819C2861.04 875.186 2954.2 908.526 2986.56 899.706C3015.98 891.869 3009.11 918.348 2969.89 956.582C2950.27 976.189 2937.53 994.825 2940.47 997.765C2951.25 1008.55 3089.52 980.112 3137.57 956.582C3203.26 925.202 3264.05 871.278 3295.43 818.332C3309.16 794.798 3321.91 775.188 3323.87 775.188C3332.7 775.188 3294.45 893.841 3269.94 940.901C3208.16 1063.48 3100.3 1142.9 2979.69 1154.67C2913.01 1161.52 2887.53 1171.33 2887.53 1192.91C2887.53 1200.75 2878.71 1224.29 2868.9 1244.88C2843.4 1292.93 2804.18 1310.59 2756.15 1294.88C2718.88 1283.13 2620.82 1214.48 2589.45 1179.18C2578.66 1167.41 2559.04 1157.61 2545.32 1157.61C2530.61 1157.61 2499.23 1147.8 2475.7 1135.05C2412.95 1103.68 2385.49 1045.82 2383.54 941.888C2383.54 898.744 2379.62 863.438 2376.67 863.438C2371.77 863.438 1988.36 1396.87 1962.87 1439.03C1957.98 1446.88 1964.83 1464.53 1980.53 1485.12L2005.04 1517.48L1921.69 1519.44L1838.34 1521.4L1838.32 1305.66ZM543.961 1520.41V1492.95C543.961 1458.63 584.176 1374.3 611.62 1349.79C630.257 1333.11 632.204 1320.37 632.204 1235.06V1138.97L677.308 1187.02C724.384 1237.04 814.6 1289.97 873.442 1300.76C905.796 1306.65 905.796 1306.65 892.072 1334.1C884.22 1348.81 859.706 1377.25 837.156 1395.88L795.973 1430.19L816.557 1456.67C828.323 1471.38 838.124 1491.97 838.124 1501.78C838.124 1519.42 828.323 1520.41 691.035 1520.41L543.961 1520.41Z" fill="#EAEAEA"/>
<path d="M3160.18 2205.41C3106.22 2186.51 3063.71 2158.68 3033.81 2122.72C3002.78 2085.38 2984.31 2038.06 2978.89 1982.08L2978.57 1978.65L2978.55 1978.46C2976.98 1962.25 2975.36 1945.5 2975.17 1928.99C2972.86 1756.64 3039.49 1669.11 3205.13 1626.87C3266.38 1611.1 3329.36 1603.03 3392.61 1602.86C3462.66 1602.92 3532.32 1613.14 3599.44 1633.2C3670.1 1654.22 3720.17 1685.56 3752.63 1728.98C3784.58 1771.83 3800.71 1828.29 3801.9 1901.61C3802.74 1953.21 3798.21 1996.56 3788 2034.14C3777.62 2072.39 3761.63 2103.8 3739.11 2130.16C3716.59 2156.52 3688.03 2177.22 3651.86 2193.38C3616.27 2209.28 3574.08 2220.46 3522.87 2227.52C3491.39 2231.84 3459 2233.44 3427.69 2234.96C3413.25 2235.69 3398.36 2236.41 3383.58 2237.42C3310.79 2235.33 3233.6 2231.14 3160.18 2205.41ZM3365.78 1800.54C3347.5 1801.08 3329.27 1802.74 3311.2 1805.5C3245.52 1816.96 3213.35 1854.14 3212.86 1919.18C3212.36 1984.9 3244.6 2026.01 3306.14 2038.09C3333.37 2043.44 3361.05 2046.15 3388.8 2046.18C3416.63 2046.17 3444.38 2043.4 3471.67 2037.93C3538.12 2024.57 3570.44 1983.13 3567.75 1914.73C3566.52 1884.22 3557.02 1859.27 3539.45 1840.59C3521.76 1821.77 3496.31 1809.74 3463.82 1804.8C3447.23 1802.55 3430.55 1801.14 3413.82 1800.57L3413.67 1800.53V1800.57C3405.88 1800.17 3397.84 1799.77 3389.81 1799.19C3381.67 1799.78 3373.23 1800.17 3365.78 1800.54ZM2342.54 1846.7V2214.14H2103.26V1624.84H2426.51C2511.5 1712.59 2690.81 1936.55 2690.81 1936.55C2690.81 1936.55 2685.55 1725.85 2690.81 1376.01H2931.08C2930.58 1585.07 2931.08 2214.11 2931.08 2214.11L2661.94 2219.84L2342.54 1846.7ZM567.906 2219.43L446.38 2073.65H231.376V2217.53H5.89563V1625.32C6.15063 1625.29 7.78505 1625.27 10.7067 1625.21C104.238 1623.64 420.404 1618.52 562.234 1618.45C606.905 1617.92 651.038 1628.24 690.841 1648.53C724.195 1665.56 752.883 1690.48 774.406 1721.13C794.529 1749.93 807.546 1783.09 812.393 1817.89C817.24 1852.69 813.779 1888.14 802.292 1921.35C789.933 1956.81 769.104 1988.73 741.613 2014.32C731.886 2023.5 721.471 2032.09 710.445 2041.2C705.013 2045.69 699.409 2050.33 693.548 2055.28C717.44 2112.52 802.074 2216.5 802.919 2217.53L567.893 2219.43L567.906 2219.43ZM248.931 1802.1L247.73 1898.14L521.435 1897.71C552.667 1897.33 571.795 1880.37 576.775 1848.7C572.314 1819.86 555.285 1803.09 530.059 1802.69C494.089 1802.11 440.884 1801.82 371.931 1801.82C306.053 1801.83 249.496 1802.1 248.931 1802.1ZM1435.35 2217.67V2025.96L1082.34 2020.38V2210.39H854.886V1623.79L1088.93 1622.05V1823.32H1435.35V1623.79L1671.65 1622.05V2217.67H1435.35ZM1783.89 2216.86V1619.92H2006.93V2216.86L1783.89 2216.86ZM1436.51 1518.67L1431.27 1152.33L1670.12 1152.77V1518.67H1436.51Z" fill="#EAEAEA"/>
</g>
<defs>
<filter id="filter0_dii_0_4" x="-10" y="-6" width="3814" height="2757.85" filterUnits="userSpaceOnUse" color-interpolation-filters="sRGB">
<feFlood flood-opacity="0" result="BackgroundImageFix"/>
<feColorMatrix in="SourceAlpha" type="matrix" values="0 0 0 0 0 0 0 0 0 0 0 0 0 0 0 0 0 0 127 0" result="hardAlpha"/>
<feOffset/>
<feGaussianBlur stdDeviation="1"/>
<feComposite in2="hardAlpha" operator="out"/>
<feColorMatrix type="matrix" values="0 0 0 0 0 0 0 0 0 0 0 0 0 0 0 0 0 0 0.25 0"/>
<feBlend mode="normal" in2="BackgroundImageFix" result="effect1_dropShadow_0_4"/>
<feBlend mode="normal" in="SourceGraphic" in2="effect1_dropShadow_0_4" result="shape"/>
<feColorMatrix in="SourceAlpha" type="matrix" values="0 0 0 0 0 0 0 0 0 0 0 0 0 0 0 0 0 0 127 0" result="hardAlpha"/>
<feOffset dx="2" dy="-8"/>
<feGaussianBlur stdDeviation="20"/>
<feComposite in2="hardAlpha" operator="arithmetic" k2="-1" k3="1"/>
<feColorMatrix type="matrix" values="0 0 0 0 0 0 0 0 0 0 0 0 0 0 0 0 0 0 0.45 0"/>
<feBlend mode="normal" in2="shape" result="effect2_innerShadow_0_4"/>
<feColorMatrix in="SourceAlpha" type="matrix" values="0 0 0 0 0 0 0 0 0 0 0 0 0 0 0 0 0 0 127 0" result="hardAlpha"/>
<feOffset dx="-12" dy="12"/>
<feGaussianBlur stdDeviation="10"/>
<feComposite in2="hardAlpha" operator="arithmetic" k2="-1" k3="1"/>
<feColorMatrix type="matrix" values="0 0 0 0 1 0 0 0 0 1 0 0 0 0 1 0 0 0 1 0"/>
<feBlend mode="normal" in2="effect2_innerShadow_0_4" result="effect3_innerShadow_0_4"/>
</filter>
</defs>
</svg>
