<svg width="62" height="58" viewBox="0 0 62 58" fill="none" xmlns="http://www.w3.org/2000/svg">
<path fill-rule="evenodd" clip-rule="evenodd" d="M11.6176 17.2609H9.2796C8.6514 17.2609 8.14075 16.7599 8.14075 16.1434V12.0919C8.14075 11.4746 8.6514 10.9734 9.2796 10.9734H11.6197C11.8223 10.3261 12.0877 9.70665 12.4057 9.11802L10.7488 7.49248C10.5359 7.28275 10.4164 6.99836 10.4164 6.70104C10.4164 6.40487 10.5359 6.12048 10.7488 5.91061L13.6683 3.04623C13.8911 2.82856 14.183 2.71997 14.4747 2.71997C14.7664 2.71997 15.058 2.82856 15.2811 3.04726L16.9364 4.67279C17.5361 4.36062 18.1682 4.09928 18.8287 3.90132V1.6047C18.8287 0.987389 19.3392 0.487244 19.9673 0.487244H24.0945C24.7225 0.487244 25.2312 0.987261 25.2312 1.6047V3.90132C25.8936 4.09915 26.5238 4.36062 27.1235 4.67279L28.7828 3.04521C29.0057 2.82651 29.2953 2.71818 29.5872 2.71818C29.8788 2.71818 30.1705 2.82651 30.3933 3.04521L33.311 5.90869C33.5257 6.11945 33.6452 6.40371 33.6452 6.70001C33.6452 6.99631 33.5257 7.2807 33.311 7.49044L31.6537 9.117C31.9717 9.70562 32.2392 10.3261 32.4417 10.9734H34.782C35.4099 10.9734 35.9206 11.4744 35.9206 12.0919V12.8018L29.2234 15.5418C29.3187 15.0806 29.3703 14.6053 29.3703 14.1181C29.3703 10.1461 26.0769 6.91487 22.0298 6.91487C17.9836 6.91487 14.6913 10.1461 14.6913 14.1181C14.6913 16.6306 16.0133 18.8406 18.0048 20.1302L13.8037 21.8493C12.9852 22.1833 12.2943 22.6853 11.7281 23.2859L10.7484 22.3246C10.3046 21.888 10.3046 21.1793 10.7484 20.7437L12.4057 19.1171C12.0877 18.5285 11.8223 17.9081 11.6176 17.2609ZM27.2952 14.1186C27.2952 11.2692 24.9327 8.95159 22.0294 8.95159C19.1272 8.95159 16.7657 11.2692 16.7657 14.1186C16.7657 16.479 18.3957 18.4535 20.6011 19.0689L26.6145 16.6091C27.0348 15.8676 27.2952 15.0265 27.2952 14.1186ZM10.6014 51.76C10.6014 48.5267 13.2809 45.8969 16.5754 45.8969C19.8698 45.8969 22.5494 48.5266 22.5494 51.76C22.5494 54.9933 19.8698 57.6231 16.5754 57.6231C13.2809 57.6231 10.6014 54.9933 10.6014 51.76ZM13.7136 51.76C13.7136 53.3091 14.997 54.5687 16.5754 54.5687C18.1536 54.5687 19.4373 53.3091 19.4372 51.76C19.4372 50.2111 18.1536 48.9513 16.5754 48.9513C14.997 48.9513 13.7136 50.211 13.7136 51.76ZM38.7704 51.76C38.7704 48.5267 41.45 45.8969 44.7444 45.8969C48.0388 45.8969 50.7184 48.5266 50.7184 51.76C50.7184 54.9933 48.0388 57.6231 44.7444 57.6231C41.45 57.6231 38.7704 54.9933 38.7704 51.76ZM41.8826 51.76C41.8826 53.3091 43.1661 54.5687 44.7444 54.5687C46.3229 54.5687 47.6063 53.3091 47.6062 51.76C47.6062 50.2111 46.3228 48.9513 44.7444 48.9513C43.1663 48.9513 41.8826 50.211 41.8826 51.76ZM12.4914 28.7581C13.1195 30.2356 14.5763 31.1264 16.11 31.1264C16.6124 31.1264 17.123 31.0309 17.6175 30.8291L42.1859 20.7815L45.9281 22.068C46.6616 22.3205 47.4234 22.4448 48.1813 22.4448C49.4576 22.4448 50.7238 22.0928 51.8282 21.4057L53.68 20.2535C55.2766 19.2592 55.9107 17.2827 55.1835 15.5696C55.0517 15.2564 54.7437 15.0674 54.4196 15.0674C54.3121 15.0674 54.2028 15.0884 54.0973 15.1311L49.794 16.8898C49.6077 16.9664 49.4151 17.0023 49.2246 17.0023C48.6452 17.0023 48.0941 16.6652 47.8569 16.1056L46.544 13.0165C46.394 12.6595 46.3901 12.2598 46.542 11.9028C46.6899 11.5448 46.9776 11.2616 47.3403 11.1134L51.6436 9.35371C52.0692 9.17957 52.2677 8.70337 52.0914 8.28876C51.4795 6.84607 50.0491 5.94322 48.5094 5.94322C48.2237 5.94322 47.9318 5.97421 47.6422 6.03977L45.5067 6.51802C43.4745 6.97335 41.7684 8.31654 40.873 10.1618L39.167 13.6796L14.6007 23.7282C12.6029 24.5457 11.6587 26.7957 12.4914 28.7581ZM58.7409 47.0279H59.8785C60.6403 47.0279 61.2574 47.6334 61.2574 48.3811V52.0297C61.2574 52.7775 60.6403 53.383 59.8785 53.383H56.3492C55.5873 53.383 54.9703 52.7774 54.9703 52.0297V51.9852H52.2513C52.2523 51.9488 52.2576 51.9135 52.2629 51.8783C52.2687 51.8394 52.2745 51.8005 52.2745 51.7603C52.2745 47.6852 48.8971 44.3702 44.7446 44.3702C42.743 44.3702 40.9336 45.1527 39.5832 46.4074C38.1325 47.7546 37.2147 49.6496 37.2147 51.7603C37.2147 51.8005 37.2205 51.8394 37.2264 51.8783C37.2318 51.9135 37.2371 51.9488 37.2381 51.9852H24.0826C24.0835 51.9488 24.0889 51.9135 24.0942 51.8783C24.1001 51.8393 24.106 51.8005 24.106 51.7603C24.106 47.6852 20.7285 44.3702 16.5761 44.3702C12.4236 44.3702 9.04614 47.685 9.04614 51.7603C9.04614 51.8005 9.05197 51.8394 9.05781 51.8783C9.06309 51.9135 9.06837 51.9488 9.06937 51.9852H6.59961V52.0297C6.59961 52.7775 5.9825 53.383 5.2207 53.383H1.69037C0.929482 53.383 0.3125 52.7774 0.3125 52.0297V48.3811C0.3125 47.6334 0.929482 47.0279 1.69024 47.0279H2.16332V24.6863C2.16332 23.1046 3.47021 21.822 5.08188 21.822H8.39889C8.46569 22.529 8.73002 23.2228 9.27916 23.7627L10.5738 25.0343C9.98734 26.4283 9.94167 28.042 10.578 29.5412C11.5138 31.7426 13.6858 33.1633 16.111 33.1633C16.9054 33.1633 17.6793 33.0101 18.4169 32.71L41.665 23.2009C41.9356 23.6355 42.0998 24.1407 42.0998 24.6864V25.8945H44.2079C48.1193 25.8945 51.5645 28.4188 52.676 32.0996L54.5156 38.1922C56.9103 38.5838 58.7409 40.6131 58.7409 43.0749V47.0279ZM49.6925 32.9674C49.0744 30.9213 47.3046 29.4091 45.2117 29.0373V38.1095H51.2454L49.6925 32.9674Z" fill="#062C44"/>
</svg>
