{
    "asset" : {
        "generator" : "Khronos glTF Blender I/O v3.4.50",
        "version" : "2.0"
    },
    "scene" : 0,
    "scenes" : [
        {
            "name" : "Scene",
            "nodes" : [
                0,
                1,
                2,
                3
            ]
        }
    ],
    "nodes" : [
        {
            "mesh" : 0,
            "name" : "door_window",
            "rotation" : [
                -0.5534204244613647,
                -0.5534204840660095,
                -0.440142959356308,
                0.4401429295539856
            ]
        },
        {
            "mesh" : 1,
            "name" : "door",
            "rotation" : [
                -0.5060710906982422,
                -0.506071150302887,
                -0.49385425448417664,
                0.49385425448417664
            ]
        },
        {
            "mesh" : 2,
            "name" : "Glass",
            "rotation" : [
                0,
                0,
                -0.7071069478988647,
                0.7071066498756409
            ],
            "scale" : [
                1.4900000095367432,
                1.7999998331069946,
                1.100000023841858
            ]
        },
        {
            "mesh" : 3,
            "name" : "trim",
            "rotation" : [
                0,
                0,
                -0.7071068286895752,
                0.7071067094802856
            ],
            "scale" : [
                2.9999992847442627,
                2.757859945297241,
                1.5099999904632568
            ]
        }
    ],
    "materials" : [
        {
            "doubleSided" : true,
            "name" : "door_window",
            "pbrMetallicRoughness" : {
                "baseColorTexture" : {
                    "index" : 0
                },
                "metallicFactor" : 0,
                "roughnessFactor" : 0.5
            }
        },
        {
            "doubleSided" : true,
            "name" : "door",
            "pbrMetallicRoughness" : {
                "baseColorTexture" : {
                    "index" : 1
                },
                "metallicFactor" : 0,
                "roughnessFactor" : 0.5
            }
        },
        {
            "doubleSided" : true,
            "name" : "Glass",
            "pbrMetallicRoughness" : {
                "baseColorTexture" : {
                    "index" : 2
                },
                "metallicFactor" : 0,
                "roughnessFactor" : 0.5
            }
        },
        {
            "doubleSided" : true,
            "emissiveFactor" : [
                1,
                1,
                1
            ],
            "name" : "Material.004",
            "pbrMetallicRoughness" : {}
        }
    ],
    "meshes" : [
        {
            "name" : "door_window",
            "primitives" : [
                {
                    "attributes" : {
                        "POSITION" : 0,
                        "TEXCOORD_0" : 1,
                        "NORMAL" : 2
                    },
                    "indices" : 3,
                    "material" : 0
                }
            ]
        },
        {
            "name" : "door",
            "primitives" : [
                {
                    "attributes" : {
                        "POSITION" : 4,
                        "TEXCOORD_0" : 5,
                        "NORMAL" : 6
                    },
                    "indices" : 7,
                    "material" : 1
                }
            ]
        },
        {
            "name" : "Glass",
            "primitives" : [
                {
                    "attributes" : {
                        "POSITION" : 8,
                        "TEXCOORD_0" : 9,
                        "NORMAL" : 10
                    },
                    "indices" : 11,
                    "material" : 2
                }
            ]
        },
        {
            "name" : "Plane.004",
            "primitives" : [
                {
                    "attributes" : {
                        "POSITION" : 12,
                        "TEXCOORD_0" : 13,
                        "NORMAL" : 14
                    },
                    "indices" : 15,
                    "material" : 3
                }
            ]
        }
    ],
    "textures" : [
        {
            "sampler" : 0,
            "source" : 0
        },
        {
            "sampler" : 0,
            "source" : 1
        },
        {
            "sampler" : 0,
            "source" : 2
        }
    ],
    "images" : [
        {
            "bufferView" : 4,
            "mimeType" : "image/jpeg",
            "name" : "8"
        },
        {
            "bufferView" : 9,
            "mimeType" : "image/jpeg",
            "name" : "SectionalDoorDesign"
        },
        {
            "bufferView" : 14,
            "mimeType" : "image/jpeg",
            "name" : "ImagesDoorsGlass"
        }
    ],
    "accessors" : [
        {
            "bufferView" : 0,
            "componentType" : 5126,
            "count" : 6783,
            "max" : [
                2.1160199642181396,
                0.15945790708065033,
                3.2066030502319336
            ],
            "min" : [
                -1.064121127128601,
                -0.2785794138908386,
                1.4488306045532227
            ],
            "type" : "VEC3"
        },
        {
            "bufferView" : 1,
            "componentType" : 5126,
            "count" : 6783,
            "type" : "VEC2"
        },
        {
            "bufferView" : 2,
            "componentType" : 5126,
            "count" : 6783,
            "type" : "VEC3"
        },
        {
            "bufferView" : 3,
            "componentType" : 5123,
            "count" : 6984,
            "type" : "SCALAR"
        },
        {
            "bufferView" : 5,
            "componentType" : 5126,
            "count" : 72,
            "max" : [
                1.5293567180633545,
                0.08682945370674133,
                2.049987554550171
            ],
            "min" : [
                -1.5665181875228882,
                -0.21619363129138947,
                -3.022935152053833
            ],
            "type" : "VEC3"
        },
        {
            "bufferView" : 6,
            "componentType" : 5126,
            "count" : 72,
            "type" : "VEC2"
        },
        {
            "bufferView" : 7,
            "componentType" : 5126,
            "count" : 72,
            "type" : "VEC3"
        },
        {
            "bufferView" : 8,
            "componentType" : 5123,
            "count" : 72,
            "type" : "SCALAR"
        },
        {
            "bufferView" : 10,
            "componentType" : 5126,
            "count" : 32,
            "max" : [
                -1.332825779914856,
                0.02710413932800293,
                1.3059864044189453
            ],
            "min" : [
                -1.94439697265625,
                -0.1091528832912445,
                -1.3091413974761963
            ],
            "type" : "VEC3"
        },
        {
            "bufferView" : 11,
            "componentType" : 5126,
            "count" : 32,
            "type" : "VEC2"
        },
        {
            "bufferView" : 12,
            "componentType" : 5126,
            "count" : 32,
            "type" : "VEC3"
        },
        {
            "bufferView" : 13,
            "componentType" : 5123,
            "count" : 36,
            "type" : "SCALAR"
        },
        {
            "bufferView" : 15,
            "componentType" : 5126,
            "count" : 120,
            "max" : [
                0.9957709312438965,
                0.03262465447187424,
                1.0019252300262451
            ],
            "min" : [
                -1.0042282342910767,
                -0.07948958873748779,
                -1.0211045742034912
            ],
            "type" : "VEC3"
        },
        {
            "bufferView" : 16,
            "componentType" : 5126,
            "count" : 120,
            "type" : "VEC2"
        },
        {
            "bufferView" : 17,
            "componentType" : 5126,
            "count" : 120,
            "type" : "VEC3"
        },
        {
            "bufferView" : 18,
            "componentType" : 5123,
            "count" : 132,
            "type" : "SCALAR"
        }
    ],
    "bufferViews" : [
        {
            "buffer" : 0,
            "byteLength" : 81396,
            "byteOffset" : 0,
            "target" : 34962
        },
        {
            "buffer" : 0,
            "byteLength" : 54264,
            "byteOffset" : 81396,
            "target" : 34962
        },
        {
            "buffer" : 0,
            "byteLength" : 81396,
            "byteOffset" : 135660,
            "target" : 34962
        },
        {
            "buffer" : 0,
            "byteLength" : 13968,
            "byteOffset" : 217056,
            "target" : 34963
        },
        {
            "buffer" : 0,
            "byteLength" : 18758,
            "byteOffset" : 231024
        },
        {
            "buffer" : 0,
            "byteLength" : 864,
            "byteOffset" : 249784,
            "target" : 34962
        },
        {
            "buffer" : 0,
            "byteLength" : 576,
            "byteOffset" : 250648,
            "target" : 34962
        },
        {
            "buffer" : 0,
            "byteLength" : 864,
            "byteOffset" : 251224,
            "target" : 34962
        },
        {
            "buffer" : 0,
            "byteLength" : 144,
            "byteOffset" : 252088,
            "target" : 34963
        },
        {
            "buffer" : 0,
            "byteLength" : 45313,
            "byteOffset" : 252232
        },
        {
            "buffer" : 0,
            "byteLength" : 384,
            "byteOffset" : 297548,
            "target" : 34962
        },
        {
            "buffer" : 0,
            "byteLength" : 256,
            "byteOffset" : 297932,
            "target" : 34962
        },
        {
            "buffer" : 0,
            "byteLength" : 384,
            "byteOffset" : 298188,
            "target" : 34962
        },
        {
            "buffer" : 0,
            "byteLength" : 72,
            "byteOffset" : 298572,
            "target" : 34963
        },
        {
            "buffer" : 0,
            "byteLength" : 18795,
            "byteOffset" : 298644
        },
        {
            "buffer" : 0,
            "byteLength" : 1440,
            "byteOffset" : 317440,
            "target" : 34962
        },
        {
            "buffer" : 0,
            "byteLength" : 960,
            "byteOffset" : 318880,
            "target" : 34962
        },
        {
            "buffer" : 0,
            "byteLength" : 1440,
            "byteOffset" : 319840,
            "target" : 34962
        },
        {
            "buffer" : 0,
            "byteLength" : 264,
            "byteOffset" : 321280,
            "target" : 34963
        }
    ],
    "samplers" : [
        {
            "magFilter" : 9729,
            "minFilter" : 9987
        }
    ],
    "buffers" : [
        {
            "byteLength" : 321544,
            "uri" : "data:application/octet-stream;base64,"
        }
    ]
}
