{
    "asset" : {
        "generator" : "Khronos glTF Blender I/O v1.7.33",
        "version" : "2.0"
    },
    "scene" : 0,
    "scenes" : [
        {
            "name" : "Scene",
            "nodes" : [
                0,
                1,
                2,
                3,
                4,
                5,
                6,
                7
            ]
        }
    ],
    "nodes" : [
        {
            "mesh" : 0,
            "name" : "left_Side_Shutters",
            "scale" : [
                2.5,
                2.5,
                0.10000000149011612
            ]
        },
        {
            "mesh" : 1,
            "name" : "Middle_trims",
            "scale" : [
                2.5,
                2.5,
                0.10000000149011612
            ]
        },
        {
            "mesh" : 2,
            "name" : "Right_Side_Shutters ",
            "rotation" : [
                0,
                0.9999715685844421,
                0,
                -0.007552835159003735
            ],
            "scale" : [
                2.5,
                2.5,
                0.10000000149011612
            ],
            "translation" : [
                0.1820724606513977,
                0.007249393500387669,
                0.0230763778090477
            ]
        },
        {
            "mesh" : 3,
            "name" : "Right_Side_Shutters_box",
            "scale" : [
                0.5100000500679016,
                0.20000000298023224,
                0.10804249346256256
            ],
            "translation" : [
                2.173506259918213,
                -1.1611734628677368,
                0.06782929599285126
            ]
        },
        {
            "mesh" : 4,
            "name" : "trims_inside",
            "scale" : [
                2.5,
                2.5,
                0.10000000149011612
            ]
        },
        {
            "mesh" : 5,
            "name" : "trims_outSide",
            "scale" : [
                2.5,
                2.5,
                0.10000000149011612
            ]
        },
        {
            "mesh" : 6,
            "name" : "Window_box",
            "scale" : [
                2.5,
                2.5,
                0.10000000149011612
            ]
        },
        {
            "mesh" : 7,
            "name" : "window_glass",
            "rotation" : [
                0.7071068286895752,
                0,
                0,
                0.7071068286895752
            ],
            "scale" : [
                1.320000171661377,
                1,
                2.3799996376037598
            ],
            "translation" : [
                0.13890787959098816,
                -0.027707628905773163,
                0.17289850115776062
            ]
        }
    ],
    "materials" : [
        {
            "doubleSided" : true,
            "name" : "left_Side_Shutters",
            "pbrMetallicRoughness" : {
                "baseColorFactor" : [
                    0.800000011920929,
                    0.800000011920929,
                    0.800000011920929,
                    1
                ],
                "metallicFactor" : 0,
                "roughnessFactor" : 0.5
            }
        },
        {
            "doubleSided" : true,
            "name" : "Middle_trims",
            "pbrMetallicRoughness" : {
                "baseColorFactor" : [
                    0.800000011920929,
                    0.800000011920929,
                    0.800000011920929,
                    1
                ],
                "metallicFactor" : 0,
                "roughnessFactor" : 0.5
            }
        },
        {
            "doubleSided" : true,
            "name" : "Right_Side_Shutters",
            "pbrMetallicRoughness" : {
                "baseColorFactor" : [
                    0.800000011920929,
                    0.800000011920929,
                    0.800000011920929,
                    1
                ],
                "metallicFactor" : 0,
                "roughnessFactor" : 0.5
            }
        },
        {
            "doubleSided" : true,
            "name" : "Right_Side_Shutters_box",
            "pbrMetallicRoughness" : {
                "baseColorFactor" : [
                    0.800000011920929,
                    0.800000011920929,
                    0.800000011920929,
                    1
                ],
                "metallicFactor" : 0,
                "roughnessFactor" : 0.5
            }
        },
        {
            "doubleSided" : true,
            "name" : "Window_box",
            "pbrMetallicRoughness" : {
                "baseColorFactor" : [
                    0.8000000715255737,
                    0.8000000715255737,
                    0.8000000715255737,
                    1
                ],
                "metallicFactor" : 0,
                "roughnessFactor" : 0.5
            }
        },
        {
            "doubleSided" : true,
            "name" : "window_glass",
            "pbrMetallicRoughness" : {
                "baseColorTexture" : {
                    "index" : 0
                },
                "metallicFactor" : 0,
                "roughnessFactor" : 0.5
            }
        }
    ],
    "meshes" : [
        {
            "name" : "left_Side_Shutters",
            "primitives" : [
                {
                    "attributes" : {
                        "POSITION" : 0,
                        "NORMAL" : 1,
                        "TEXCOORD_0" : 2
                    },
                    "indices" : 3,
                    "material" : 0
                }
            ]
        },
        {
            "name" : "Middle_trims",
            "primitives" : [
                {
                    "attributes" : {
                        "POSITION" : 4,
                        "NORMAL" : 5,
                        "TEXCOORD_0" : 6
                    },
                    "indices" : 7,
                    "material" : 1
                }
            ]
        },
        {
            "name" : "Right_Side_Shutters",
            "primitives" : [
                {
                    "attributes" : {
                        "POSITION" : 8,
                        "NORMAL" : 9,
                        "TEXCOORD_0" : 10
                    },
                    "indices" : 3,
                    "material" : 2
                }
            ]
        },
        {
            "name" : "Right_Side_Shutters_box",
            "primitives" : [
                {
                    "attributes" : {
                        "POSITION" : 11,
                        "NORMAL" : 12,
                        "TEXCOORD_0" : 13
                    },
                    "indices" : 14,
                    "material" : 3
                }
            ]
        },
        {
            "name" : "trims_inside",
            "primitives" : [
                {
                    "attributes" : {
                        "POSITION" : 15,
                        "NORMAL" : 16,
                        "TEXCOORD_0" : 17
                    },
                    "indices" : 18,
                    "material" : 4
                }
            ]
        },
        {
            "name" : "trims_outSide",
            "primitives" : [
                {
                    "attributes" : {
                        "POSITION" : 19,
                        "NORMAL" : 20,
                        "TEXCOORD_0" : 21
                    },
                    "indices" : 22,
                    "material" : 4
                }
            ]
        },
        {
            "name" : "Window_box",
            "primitives" : [
                {
                    "attributes" : {
                        "POSITION" : 23,
                        "NORMAL" : 24,
                        "TEXCOORD_0" : 25
                    },
                    "indices" : 26,
                    "material" : 4
                }
            ]
        },
        {
            "name" : "window_glass",
            "primitives" : [
                {
                    "attributes" : {
                        "POSITION" : 27,
                        "NORMAL" : 28,
                        "TEXCOORD_0" : 29
                    },
                    "indices" : 30,
                    "material" : 5
                }
            ]
        }
    ],
    "textures" : [
        {
            "sampler" : 0,
            "source" : 0
        }
    ],
    "images" : [
        {
            "bufferView" : 31,
            "mimeType" : "image/png",
            "name" : "22"
        }
    ],
    "accessors" : [
        {
            "bufferView" : 0,
            "componentType" : 5126,
            "count" : 20,
            "max" : [
                0.06570598483085632,
                0.9999999403953552,
                -14.622649192810059
            ],
            "min" : [
                -0.014294054359197617,
                -0.9999999403953552,
                -25
            ],
            "type" : "VEC3"
        },
        {
            "bufferView" : 1,
            "componentType" : 5126,
            "count" : 20,
            "type" : "VEC3"
        },
        {
            "bufferView" : 2,
            "componentType" : 5126,
            "count" : 20,
            "type" : "VEC2"
        },
        {
            "bufferView" : 3,
            "componentType" : 5123,
            "count" : 30,
            "type" : "SCALAR"
        },
        {
            "bufferView" : 4,
            "componentType" : 5126,
            "count" : 140,
            "max" : [
                -0.014294084161520004,
                0.9366053342819214,
                14.423426628112793
            ],
            "min" : [
                -0.09831652045249939,
                -0.9376602172851562,
                -12.168754577636719
            ],
            "type" : "VEC3"
        },
        {
            "bufferView" : 5,
            "componentType" : 5126,
            "count" : 140,
            "type" : "VEC3"
        },
        {
            "bufferView" : 6,
            "componentType" : 5126,
            "count" : 140,
            "type" : "VEC2"
        },
        {
            "bufferView" : 7,
            "componentType" : 5123,
            "count" : 210,
            "type" : "SCALAR"
        },
        {
            "bufferView" : 8,
            "componentType" : 5126,
            "count" : 20,
            "max" : [
                0.09730789810419083,
                1,
                -16.19114875793457
            ],
            "min" : [
                0.017307855188846588,
                -1,
                -26.568498611450195
            ],
            "type" : "VEC3"
        },
        {
            "bufferView" : 9,
            "componentType" : 5126,
            "count" : 20,
            "type" : "VEC3"
        },
        {
            "bufferView" : 10,
            "componentType" : 5126,
            "count" : 20,
            "type" : "VEC2"
        },
        {
            "bufferView" : 11,
            "componentType" : 5126,
            "count" : 96,
            "max" : [
                -4.056918144226074,
                14.002799987792969,
                24.233375549316406
            ],
            "min" : [
                -4.517670154571533,
                -0.9999985694885254,
                -23.738983154296875
            ],
            "type" : "VEC3"
        },
        {
            "bufferView" : 12,
            "componentType" : 5126,
            "count" : 96,
            "type" : "VEC3"
        },
        {
            "bufferView" : 13,
            "componentType" : 5126,
            "count" : 96,
            "type" : "VEC2"
        },
        {
            "bufferView" : 14,
            "componentType" : 5123,
            "count" : 144,
            "type" : "SCALAR"
        },
        {
            "bufferView" : 15,
            "componentType" : 5126,
            "count" : 272,
            "max" : [
                -0.014294054359197617,
                0.9999999403953552,
                15.454133033752441
            ],
            "min" : [
                -0.09831652045249939,
                -0.9628989696502686,
                -14.622649192810059
            ],
            "type" : "VEC3"
        },
        {
            "bufferView" : 16,
            "componentType" : 5126,
            "count" : 272,
            "type" : "VEC3"
        },
        {
            "bufferView" : 17,
            "componentType" : 5126,
            "count" : 272,
            "type" : "VEC2"
        },
        {
            "bufferView" : 18,
            "componentType" : 5123,
            "count" : 408,
            "type" : "SCALAR"
        },
        {
            "bufferView" : 19,
            "componentType" : 5126,
            "count" : 188,
            "max" : [
                -0.014294054359197617,
                0.9999999403953552,
                16.77643585205078
            ],
            "min" : [
                -0.05561503395438194,
                -0.9999999403953552,
                -14.622649192810059
            ],
            "type" : "VEC3"
        },
        {
            "bufferView" : 20,
            "componentType" : 5126,
            "count" : 188,
            "type" : "VEC3"
        },
        {
            "bufferView" : 21,
            "componentType" : 5126,
            "count" : 188,
            "type" : "VEC2"
        },
        {
            "bufferView" : 22,
            "componentType" : 5123,
            "count" : 282,
            "type" : "SCALAR"
        },
        {
            "bufferView" : 23,
            "componentType" : 5126,
            "count" : 946,
            "max" : [
                0.06570592522621155,
                0.9999999403953552,
                16.77643585205078
            ],
            "min" : [
                -0.09831652045249939,
                -0.9999999403953552,
                -14.622649192810059
            ],
            "type" : "VEC3"
        },
        {
            "bufferView" : 24,
            "componentType" : 5126,
            "count" : 946,
            "type" : "VEC3"
        },
        {
            "bufferView" : 25,
            "componentType" : 5126,
            "count" : 946,
            "type" : "VEC2"
        },
        {
            "bufferView" : 26,
            "componentType" : 5123,
            "count" : 2076,
            "type" : "SCALAR"
        },
        {
            "bufferView" : 27,
            "componentType" : 5126,
            "count" : 24,
            "max" : [
                -0.007531464099884033,
                1.2860095500946045,
                0.9999998807907104
            ],
            "min" : [
                -0.18753159046173096,
                -1.353990912437439,
                -0.9999998807907104
            ],
            "type" : "VEC3"
        },
        {
            "bufferView" : 28,
            "componentType" : 5126,
            "count" : 24,
            "type" : "VEC3"
        },
        {
            "bufferView" : 29,
            "componentType" : 5126,
            "count" : 24,
            "type" : "VEC2"
        },
        {
            "bufferView" : 30,
            "componentType" : 5123,
            "count" : 36,
            "type" : "SCALAR"
        }
    ],
    "bufferViews" : [
        {
            "buffer" : 0,
            "byteLength" : 240,
            "byteOffset" : 0
        },
        {
            "buffer" : 0,
            "byteLength" : 240,
            "byteOffset" : 240
        },
        {
            "buffer" : 0,
            "byteLength" : 160,
            "byteOffset" : 480
        },
        {
            "buffer" : 0,
            "byteLength" : 60,
            "byteOffset" : 640
        },
        {
            "buffer" : 0,
            "byteLength" : 1680,
            "byteOffset" : 700
        },
        {
            "buffer" : 0,
            "byteLength" : 1680,
            "byteOffset" : 2380
        },
        {
            "buffer" : 0,
            "byteLength" : 1120,
            "byteOffset" : 4060
        },
        {
            "buffer" : 0,
            "byteLength" : 420,
            "byteOffset" : 5180
        },
        {
            "buffer" : 0,
            "byteLength" : 240,
            "byteOffset" : 5600
        },
        {
            "buffer" : 0,
            "byteLength" : 240,
            "byteOffset" : 5840
        },
        {
            "buffer" : 0,
            "byteLength" : 160,
            "byteOffset" : 6080
        },
        {
            "buffer" : 0,
            "byteLength" : 1152,
            "byteOffset" : 6240
        },
        {
            "buffer" : 0,
            "byteLength" : 1152,
            "byteOffset" : 7392
        },
        {
            "buffer" : 0,
            "byteLength" : 768,
            "byteOffset" : 8544
        },
        {
            "buffer" : 0,
            "byteLength" : 288,
            "byteOffset" : 9312
        },
        {
            "buffer" : 0,
            "byteLength" : 3264,
            "byteOffset" : 9600
        },
        {
            "buffer" : 0,
            "byteLength" : 3264,
            "byteOffset" : 12864
        },
        {
            "buffer" : 0,
            "byteLength" : 2176,
            "byteOffset" : 16128
        },
        {
            "buffer" : 0,
            "byteLength" : 816,
            "byteOffset" : 18304
        },
        {
            "buffer" : 0,
            "byteLength" : 2256,
            "byteOffset" : 19120
        },
        {
            "buffer" : 0,
            "byteLength" : 2256,
            "byteOffset" : 21376
        },
        {
            "buffer" : 0,
            "byteLength" : 1504,
            "byteOffset" : 23632
        },
        {
            "buffer" : 0,
            "byteLength" : 564,
            "byteOffset" : 25136
        },
        {
            "buffer" : 0,
            "byteLength" : 11352,
            "byteOffset" : 25700
        },
        {
            "buffer" : 0,
            "byteLength" : 11352,
            "byteOffset" : 37052
        },
        {
            "buffer" : 0,
            "byteLength" : 7568,
            "byteOffset" : 48404
        },
        {
            "buffer" : 0,
            "byteLength" : 4152,
            "byteOffset" : 55972
        },
        {
            "buffer" : 0,
            "byteLength" : 288,
            "byteOffset" : 60124
        },
        {
            "buffer" : 0,
            "byteLength" : 288,
            "byteOffset" : 60412
        },
        {
            "buffer" : 0,
            "byteLength" : 192,
            "byteOffset" : 60700
        },
        {
            "buffer" : 0,
            "byteLength" : 72,
            "byteOffset" : 60892
        },
        {
            "buffer" : 0,
            "byteLength" : 1778,
            "byteOffset" : 60964
        }
    ],
    "samplers" : [
        {
            "magFilter" : 9729,
            "minFilter" : 9987
        }
    ],
    "buffers" : [
        {
            "byteLength" : 62744,
            "uri" : "data:application/octet-stream;base64,"
        }
    ]
}
