{
    "asset" : {
        "generator" : "Khronos glTF Blender I/O v3.2.43",
        "version" : "2.0"
    },
    "scene" : 0,
    "scenes" : [
        {
            "name" : "Scene",
            "nodes" : [
                0,
                1
            ]
        }
    ],
    "nodes" : [
        {
            "mesh" : 0,
            "name" : "doors",
            "rotation" : [
                0,
                0,
                -0.7071068286895752,
                0.7071067094802856
            ],
            "scale" : [
                3.000000476837158,
                0.6923078894615173,
                3
            ],
            "translation" : [
                -0.06532751768827438,
                0.002791754901409149,
                0.0005108565092086792
            ]
        },
        {
            "mesh" : 1,
            "name" : "trims",
            "scale" : [
                0.10999999940395355,
                2.6700000762939453,
                0.050000011920928955
            ],
            "translation" : [
                -0.0006532054394483566,
                -0.30369696021080017,
                2.9779226779937744
            ]
        }
    ],
    "materials" : [
        {
            "emissiveFactor" : [
                0.12999999523162842,
                0.12999999523162842,
                0.12999999523162842
            ],
            "name" : "Material.004",
            "pbrMetallicRoughness" : {
                "baseColorTexture" : {
                    "index" : 0
                },
                "metallicFactor" : 0,
                "roughnessFactor" : 0.5
            }
        },
        {
            "doubleSided" : true,
            "emissiveFactor" : [
                1,
                1,
                1
            ],
            "name" : "Material.003",
            "pbrMetallicRoughness" : {}
        }
    ],
    "meshes" : [
        {
            "name" : "Plane.001",
            "primitives" : [
                {
                    "attributes" : {
                        "POSITION" : 0,
                        "NORMAL" : 1,
                        "TEXCOORD_0" : 2
                    },
                    "indices" : 3,
                    "material" : 0
                }
            ]
        },
        {
            "name" : "Cube.004",
            "primitives" : [
                {
                    "attributes" : {
                        "POSITION" : 4,
                        "NORMAL" : 5,
                        "TEXCOORD_0" : 6
                    },
                    "indices" : 7,
                    "material" : 1
                }
            ]
        }
    ],
    "textures" : [
        {
            "sampler" : 0,
            "source" : 0
        }
    ],
    "images" : [
        {
            "bufferView" : 4,
            "mimeType" : "image/png",
            "name" : "Image_0"
        }
    ],
    "accessors" : [
        {
            "bufferView" : 0,
            "componentType" : 5126,
            "count" : 54,
            "max" : [
                1.0009301900863647,
                0.15065161883831024,
                0.9998296499252319
            ],
            "min" : [
                -0.999069333076477,
                -0.16573834419250488,
                -1.0001699924468994
            ],
            "type" : "VEC3"
        },
        {
            "bufferView" : 1,
            "componentType" : 5126,
            "count" : 54,
            "type" : "VEC3"
        },
        {
            "bufferView" : 2,
            "componentType" : 5126,
            "count" : 54,
            "type" : "VEC2"
        },
        {
            "bufferView" : 3,
            "componentType" : 5123,
            "count" : 60,
            "type" : "SCALAR"
        },
        {
            "bufferView" : 5,
            "componentType" : 5126,
            "count" : 132,
            "max" : [
                0.6924710273742676,
                1.2671078443527222,
                1
            ],
            "min" : [
                -1.9314689636230469,
                -1,
                -121.04814147949219
            ],
            "type" : "VEC3"
        },
        {
            "bufferView" : 6,
            "componentType" : 5126,
            "count" : 132,
            "type" : "VEC3"
        },
        {
            "bufferView" : 7,
            "componentType" : 5126,
            "count" : 132,
            "type" : "VEC2"
        },
        {
            "bufferView" : 8,
            "componentType" : 5123,
            "count" : 180,
            "type" : "SCALAR"
        }
    ],
    "bufferViews" : [
        {
            "buffer" : 0,
            "byteLength" : 648,
            "byteOffset" : 0
        },
        {
            "buffer" : 0,
            "byteLength" : 648,
            "byteOffset" : 648
        },
        {
            "buffer" : 0,
            "byteLength" : 432,
            "byteOffset" : 1296
        },
        {
            "buffer" : 0,
            "byteLength" : 120,
            "byteOffset" : 1728
        },
        {
            "buffer" : 0,
            "byteLength" : 6542,
            "byteOffset" : 1848
        },
        {
            "buffer" : 0,
            "byteLength" : 1584,
            "byteOffset" : 8392
        },
        {
            "buffer" : 0,
            "byteLength" : 1584,
            "byteOffset" : 9976
        },
        {
            "buffer" : 0,
            "byteLength" : 1056,
            "byteOffset" : 11560
        },
        {
            "buffer" : 0,
            "byteLength" : 360,
            "byteOffset" : 12616
        }
    ],
    "samplers" : [
        {
            "magFilter" : 9729,
            "minFilter" : 9987
        }
    ],
    "buffers" : [
        {
            "byteLength" : 12976,
            "uri" : "data:application/octet-stream;base64,"
        }
    ]
}
