{
    "asset" : {
        "generator" : "Khronos glTF Blender I/O v1.7.33",
        "version" : "2.0"
    },
    "scene" : 0,
    "scenes" : [
        {
            "name" : "Scene",
            "nodes" : [
                0,
                1,
                2,
                3
            ]
        }
    ],
    "nodes" : [
        {
            "mesh" : 0,
            "name" : "Plane.001",
            "rotation" : [
                0,
                0,
                -0.7071068286895752,
                0.7071067094802856
            ],
            "scale" : [
                3,
                5.9596943855285645,
                1.5
            ],
            "translation" : [
                -0.0008519476978108287,
                0,
                0
            ]
        },
        {
            "mesh" : 1,
            "name" : "knob",
            "rotation" : [
                0.7071068286895752,
                0,
                0,
                0.7071067094802856
            ],
            "scale" : [
                0.029999999329447746,
                0.029999978840351105,
                0.0299999937415123
            ],
            "translation" : [
                -0.18967048823833466,
                0.09554087370634079,
                1.1916687488555908
            ]
        },
        {
            "mesh" : 2,
            "name" : "knob.001",
            "rotation" : [
                0,
                -1,
                0,
                4.371138828673793e-08
            ],
            "scale" : [
                0.029999999329447746,
                0.029999984428286552,
                0.029999999329447746
            ],
            "translation" : [
                0.09542179107666016,
                -0.03887069970369339,
                1.3182578086853027
            ]
        },
        {
            "mesh" : 3,
            "name" : "trims",
            "rotation" : [
                0.7071068286895752,
                0,
                0,
                0.7071067094802856
            ],
            "scale" : [
                0.14574360847473145,
                1.5699999332427979,
                0.050000011920928955
            ],
            "translation" : [
                -0.05417201295495033,
                2.957080364227295,
                0.014678332954645157
            ]
        }
    ],
    "materials" : [
        {
            "doubleSided" : true,
            "emissiveFactor" : [
                0.25,
                0.25,
                0.25
            ],
            "name" : "Material.006",
            "pbrMetallicRoughness" : {
                "baseColorTexture" : {
                    "index" : 0
                },
                "metallicFactor" : 0,
                "roughnessFactor" : 0.5
            }
        },
        {
            "doubleSided" : true,
            "name" : "Material.001",
            "pbrMetallicRoughness" : {
                "baseColorFactor" : [
                    0.6266610026359558,
                    0.6266610026359558,
                    0.6266610026359558,
                    1
                ],
                "metallicFactor" : 0,
                "roughnessFactor" : 0.5
            }
        },
        {
            "doubleSided" : true,
            "name" : "Material.009",
            "pbrMetallicRoughness" : {
                "baseColorFactor" : [
                    0.6266610026359558,
                    0.6266610026359558,
                    0.6266610026359558,
                    1
                ],
                "metallicFactor" : 0,
                "roughnessFactor" : 0.5
            }
        },
        {
            "doubleSided" : true,
            "emissiveFactor" : [
                1,
                1,
                1
            ],
            "name" : "trims",
            "pbrMetallicRoughness" : {}
        }
    ],
    "meshes" : [
        {
            "name" : "Plane.001",
            "primitives" : [
                {
                    "attributes" : {
                        "POSITION" : 0,
                        "NORMAL" : 1,
                        "TEXCOORD_0" : 2
                    },
                    "indices" : 3,
                    "material" : 0
                }
            ]
        },
        {
            "name" : "knob.001",
            "primitives" : [
                {
                    "attributes" : {
                        "POSITION" : 4,
                        "NORMAL" : 5,
                        "TEXCOORD_0" : 6
                    },
                    "indices" : 7,
                    "material" : 1
                }
            ]
        },
        {
            "name" : "knob.004",
            "primitives" : [
                {
                    "attributes" : {
                        "POSITION" : 8,
                        "NORMAL" : 9,
                        "TEXCOORD_0" : 10
                    },
                    "indices" : 7,
                    "material" : 2
                }
            ]
        },
        {
            "name" : "trims",
            "primitives" : [
                {
                    "attributes" : {
                        "POSITION" : 11,
                        "NORMAL" : 12,
                        "TEXCOORD_0" : 13
                    },
                    "indices" : 14,
                    "material" : 3
                }
            ]
        }
    ],
    "textures" : [
        {
            "sampler" : 0,
            "source" : 0
        }
    ],
    "images" : [
        {
            "bufferView" : 4,
            "mimeType" : "image/png",
            "name" : "Image_0"
        }
    ],
    "accessors" : [
        {
            "bufferView" : 0,
            "componentType" : 5126,
            "count" : 1170,
            "max" : [
                1,
                0.010443061590194702,
                1.0000004768371582
            ],
            "min" : [
                -1,
                -0.03175215423107147,
                -1.0000003576278687
            ],
            "type" : "VEC3"
        },
        {
            "bufferView" : 1,
            "componentType" : 5126,
            "count" : 1170,
            "type" : "VEC3"
        },
        {
            "bufferView" : 2,
            "componentType" : 5126,
            "count" : 1170,
            "type" : "VEC2"
        },
        {
            "bufferView" : 3,
            "componentType" : 5123,
            "count" : 1368,
            "type" : "SCALAR"
        },
        {
            "bufferView" : 5,
            "componentType" : 5126,
            "count" : 29025,
            "max" : [
                4.447800159454346,
                8.349699974060059,
                4.3383002281188965
            ],
            "min" : [
                -5.354100227355957,
                0.025800000876188278,
                -3.985599994659424
            ],
            "type" : "VEC3"
        },
        {
            "bufferView" : 6,
            "componentType" : 5126,
            "count" : 29025,
            "type" : "VEC3"
        },
        {
            "bufferView" : 7,
            "componentType" : 5126,
            "count" : 29025,
            "type" : "VEC2"
        },
        {
            "bufferView" : 8,
            "componentType" : 5123,
            "count" : 135984,
            "type" : "SCALAR"
        },
        {
            "bufferView" : 9,
            "componentType" : 5126,
            "count" : 29025,
            "max" : [
                4.447800159454346,
                8.349699974060059,
                4.3383002281188965
            ],
            "min" : [
                -5.354100227355957,
                0.025800000876188278,
                -3.985599994659424
            ],
            "type" : "VEC3"
        },
        {
            "bufferView" : 10,
            "componentType" : 5126,
            "count" : 29025,
            "type" : "VEC3"
        },
        {
            "bufferView" : 11,
            "componentType" : 5126,
            "count" : 29025,
            "type" : "VEC2"
        },
        {
            "bufferView" : 12,
            "componentType" : 5126,
            "count" : 88,
            "max" : [
                0.9688167572021484,
                1.001843810081482,
                119.14158630371094
            ],
            "min" : [
                -1.1032638549804688,
                -1.000920295715332,
                -1.0000038146972656
            ],
            "type" : "VEC3"
        },
        {
            "bufferView" : 13,
            "componentType" : 5126,
            "count" : 88,
            "type" : "VEC3"
        },
        {
            "bufferView" : 14,
            "componentType" : 5126,
            "count" : 88,
            "type" : "VEC2"
        },
        {
            "bufferView" : 15,
            "componentType" : 5123,
            "count" : 108,
            "type" : "SCALAR"
        }
    ],
    "bufferViews" : [
        {
            "buffer" : 0,
            "byteLength" : 14040,
            "byteOffset" : 0
        },
        {
            "buffer" : 0,
            "byteLength" : 14040,
            "byteOffset" : 14040
        },
        {
            "buffer" : 0,
            "byteLength" : 9360,
            "byteOffset" : 28080
        },
        {
            "buffer" : 0,
            "byteLength" : 2736,
            "byteOffset" : 37440
        },
        {
            "buffer" : 0,
            "byteLength" : 581,
            "byteOffset" : 40176
        },
        {
            "buffer" : 0,
            "byteLength" : 348300,
            "byteOffset" : 40760
        },
        {
            "buffer" : 0,
            "byteLength" : 348300,
            "byteOffset" : 389060
        },
        {
            "buffer" : 0,
            "byteLength" : 232200,
            "byteOffset" : 737360
        },
        {
            "buffer" : 0,
            "byteLength" : 271968,
            "byteOffset" : 969560
        },
        {
            "buffer" : 0,
            "byteLength" : 348300,
            "byteOffset" : 1241528
        },
        {
            "buffer" : 0,
            "byteLength" : 348300,
            "byteOffset" : 1589828
        },
        {
            "buffer" : 0,
            "byteLength" : 232200,
            "byteOffset" : 1938128
        },
        {
            "buffer" : 0,
            "byteLength" : 1056,
            "byteOffset" : 2170328
        },
        {
            "buffer" : 0,
            "byteLength" : 1056,
            "byteOffset" : 2171384
        },
        {
            "buffer" : 0,
            "byteLength" : 704,
            "byteOffset" : 2172440
        },
        {
            "buffer" : 0,
            "byteLength" : 216,
            "byteOffset" : 2173144
        }
    ],
    "samplers" : [
        {
            "magFilter" : 9729,
            "minFilter" : 9987
        }
    ],
    "buffers" : [
        {
            "byteLength" : 2173360,
            "uri" : "data:application/octet-stream;base64,"
        }
    ]
}
