{
    "asset" : {
        "generator" : "Khronos glTF Blender I/O v1.6.16",
        "version" : "2.0"
    },
    "scene" : 0,
    "scenes" : [
        {
            "name" : "Scene",
            "nodes" : [
                0,
                1,
                2,
                3,
                4
            ]
        }
    ],
    "nodes" : [
        {
            "mesh" : 0,
            "name" : "Plane",
            "rotation" : [
                0,
                0,
                -0.7071068286895752,
                0.7071068286895752
            ],
            "scale" : [
                3,
                1,
                3
            ]
        },
        {
            "mesh" : 1,
            "name" : "Plane.001",
            "rotation" : [
                0,
                0,
                -0.7071068286895752,
                0.7071068286895752
            ],
            "scale" : [
                2.700000286102295,
                1,
                2.500000476837158
            ],
            "translation" : [
                -0.059999994933605194,
                0,
                0
            ]
        },
        {
            "mesh" : 2,
            "name" : "Cube",
            "rotation" : [
                0,
                0,
                -0.7071068286895752,
                0.7071068286895752
            ],
            "scale" : [
                2.750000238418579,
                0.04999999701976776,
                0.04999999701976776
            ],
            "translation" : [
                -0.059999994933605194,
                0,
                0
            ]
        },
        {
            "mesh" : 3,
            "name" : "Cube.001",
            "scale" : [
                0.04999984800815582,
                0.04999999701976776,
                2.6000003814697266
            ],
            "translation" : [
                -0.06999999284744263,
                -0.8599994778633118,
                0
            ]
        },
        {
            "mesh" : 4,
            "name" : "Cube.002",
            "scale" : [
                0.04999999701976776,
                0.04999999701976776,
                2.6000003814697266
            ],
            "translation" : [
                -0.07000000029802322,
                1.091462254524231,
                0.024083351716399193
            ]
        }
    ],
    "materials" : [
        {
            "doubleSided" : true,
            "name" : "Material.001",
            "pbrMetallicRoughness" : {
                "baseColorTexture" : {
                    "index" : 0
                },
                "metallicFactor" : 0,
                "roughnessFactor" : 0.5
            }
        }
    ],
    "meshes" : [
        {
            "name" : "Plane",
            "primitives" : [
                {
                    "attributes" : {
                        "POSITION" : 0,
                        "NORMAL" : 1,
                        "TEXCOORD_0" : 2
                    },
                    "indices" : 3
                }
            ]
        },
        {
            "name" : "Plane.001",
            "primitives" : [
                {
                    "attributes" : {
                        "POSITION" : 4,
                        "NORMAL" : 5,
                        "TEXCOORD_0" : 6
                    },
                    "indices" : 7,
                    "material" : 0
                }
            ]
        },
        {
            "name" : "Cube.001",
            "primitives" : [
                {
                    "attributes" : {
                        "POSITION" : 8,
                        "NORMAL" : 9,
                        "TEXCOORD_0" : 10
                    },
                    "indices" : 11
                }
            ]
        },
        {
            "name" : "Cube.002",
            "primitives" : [
                {
                    "attributes" : {
                        "POSITION" : 12,
                        "NORMAL" : 13,
                        "TEXCOORD_0" : 14
                    },
                    "indices" : 11
                }
            ]
        },
        {
            "name" : "Cube.003",
            "primitives" : [
                {
                    "attributes" : {
                        "POSITION" : 15,
                        "NORMAL" : 16,
                        "TEXCOORD_0" : 17
                    },
                    "indices" : 11
                }
            ]
        }
    ],
    "textures" : [
        {
            "sampler" : 0,
            "source" : 0
        }
    ],
    "images" : [
        {
            "bufferView" : 8,
            "mimeType" : "image/jpeg",
            "name" : "6"
        }
    ],
    "accessors" : [
        {
            "bufferView" : 0,
            "componentType" : 5126,
            "count" : 59,
            "max" : [
                1,
                0,
                1
            ],
            "min" : [
                -1,
                0,
                -1
            ],
            "type" : "VEC3"
        },
        {
            "bufferView" : 1,
            "componentType" : 5126,
            "count" : 59,
            "type" : "VEC3"
        },
        {
            "bufferView" : 2,
            "componentType" : 5126,
            "count" : 59,
            "type" : "VEC2"
        },
        {
            "bufferView" : 3,
            "componentType" : 5123,
            "count" : 186,
            "type" : "SCALAR"
        },
        {
            "bufferView" : 4,
            "componentType" : 5126,
            "count" : 4,
            "max" : [
                1,
                0,
                1
            ],
            "min" : [
                -1,
                0,
                -1
            ],
            "type" : "VEC3"
        },
        {
            "bufferView" : 5,
            "componentType" : 5126,
            "count" : 4,
            "type" : "VEC3"
        },
        {
            "bufferView" : 6,
            "componentType" : 5126,
            "count" : 4,
            "type" : "VEC2"
        },
        {
            "bufferView" : 7,
            "componentType" : 5123,
            "count" : 6,
            "type" : "SCALAR"
        },
        {
            "bufferView" : 9,
            "componentType" : 5126,
            "count" : 24,
            "max" : [
                1,
                1,
                1
            ],
            "min" : [
                -1,
                -1,
                -1
            ],
            "type" : "VEC3"
        },
        {
            "bufferView" : 10,
            "componentType" : 5126,
            "count" : 24,
            "type" : "VEC3"
        },
        {
            "bufferView" : 11,
            "componentType" : 5126,
            "count" : 24,
            "type" : "VEC2"
        },
        {
            "bufferView" : 12,
            "componentType" : 5123,
            "count" : 36,
            "type" : "SCALAR"
        },
        {
            "bufferView" : 13,
            "componentType" : 5126,
            "count" : 24,
            "max" : [
                1,
                1,
                1
            ],
            "min" : [
                -1,
                -1,
                -1
            ],
            "type" : "VEC3"
        },
        {
            "bufferView" : 14,
            "componentType" : 5126,
            "count" : 24,
            "type" : "VEC3"
        },
        {
            "bufferView" : 15,
            "componentType" : 5126,
            "count" : 24,
            "type" : "VEC2"
        },
        {
            "bufferView" : 16,
            "componentType" : 5126,
            "count" : 24,
            "max" : [
                1,
                1,
                1
            ],
            "min" : [
                -1,
                -1,
                -1
            ],
            "type" : "VEC3"
        },
        {
            "bufferView" : 17,
            "componentType" : 5126,
            "count" : 24,
            "type" : "VEC3"
        },
        {
            "bufferView" : 18,
            "componentType" : 5126,
            "count" : 24,
            "type" : "VEC2"
        }
    ],
    "bufferViews" : [
        {
            "buffer" : 0,
            "byteLength" : 708,
            "byteOffset" : 0
        },
        {
            "buffer" : 0,
            "byteLength" : 708,
            "byteOffset" : 708
        },
        {
            "buffer" : 0,
            "byteLength" : 472,
            "byteOffset" : 1416
        },
        {
            "buffer" : 0,
            "byteLength" : 372,
            "byteOffset" : 1888
        },
        {
            "buffer" : 0,
            "byteLength" : 48,
            "byteOffset" : 2260
        },
        {
            "buffer" : 0,
            "byteLength" : 48,
            "byteOffset" : 2308
        },
        {
            "buffer" : 0,
            "byteLength" : 32,
            "byteOffset" : 2356
        },
        {
            "buffer" : 0,
            "byteLength" : 12,
            "byteOffset" : 2388
        },
        {
            "buffer" : 0,
            "byteLength" : 18642,
            "byteOffset" : 2400
        },
        {
            "buffer" : 0,
            "byteLength" : 288,
            "byteOffset" : 21044
        },
        {
            "buffer" : 0,
            "byteLength" : 288,
            "byteOffset" : 21332
        },
        {
            "buffer" : 0,
            "byteLength" : 192,
            "byteOffset" : 21620
        },
        {
            "buffer" : 0,
            "byteLength" : 72,
            "byteOffset" : 21812
        },
        {
            "buffer" : 0,
            "byteLength" : 288,
            "byteOffset" : 21884
        },
        {
            "buffer" : 0,
            "byteLength" : 288,
            "byteOffset" : 22172
        },
        {
            "buffer" : 0,
            "byteLength" : 192,
            "byteOffset" : 22460
        },
        {
            "buffer" : 0,
            "byteLength" : 288,
            "byteOffset" : 22652
        },
        {
            "buffer" : 0,
            "byteLength" : 288,
            "byteOffset" : 22940
        },
        {
            "buffer" : 0,
            "byteLength" : 192,
            "byteOffset" : 23228
        }
    ],
    "samplers" : [
        {
            "magFilter" : 9729,
            "minFilter" : 9987
        }
    ],
    "buffers" : [
        {
            "byteLength" : 23420,
            "uri" : "data:application/octet-stream;base64,"
        }
    ]
}
