{
    "asset" : {
        "generator" : "Khronos glTF Blender I/O v3.4.50",
        "version" : "2.0"
    },
    "scene" : 0,
    "scenes" : [
        {
            "name" : "Scene",
            "nodes" : [
                0,
                1,
                2,
                3
            ]
        }
    ],
    "nodes" : [
        {
            "mesh" : 0,
            "name" : "window_box",
            "scale" : [
                3.0526387691497803,
                2.5,
                0.0750100165605545
            ]
        },
        {
            "mesh" : 1,
            "name" : "Middle",
            "scale" : [
                3.0526387691497803,
                2.5,
                0.0750100165605545
            ]
        },
        {
            "mesh" : 2,
            "name" : "trims",
            "rotation" : [
                -0.5,
                0.5,
                -0.5,
                0.5
            ],
            "scale" : [
                0.12999999523162842,
                0.7951061129570007,
                0.12210555374622345
            ]
        },
        {
            "mesh" : 3,
            "name" : "window_glass",
            "rotation" : [
                0.70710688829422,
                0,
                0,
                0.7071066498756409
            ],
            "scale" : [
                1.6117932796478271,
                0.7501001358032227,
                2.3799993991851807
            ]
        }
    ],
    "materials" : [
        {
            "doubleSided" : true,
            "name" : "Material.001",
            "pbrMetallicRoughness" : {
                "baseColorFactor" : [
                    0.800000011920929,
                    0.800000011920929,
                    0.800000011920929,
                    1
                ],
                "metallicFactor" : 0,
                "roughnessFactor" : 0.5
            }
        },
        {
            "doubleSided" : true,
            "name" : "Middle",
            "pbrMetallicRoughness" : {
                "baseColorFactor" : [
                    0.800000011920929,
                    0.800000011920929,
                    0.800000011920929,
                    1
                ],
                "metallicFactor" : 0,
                "roughnessFactor" : 0.5
            }
        },
        {
            "doubleSided" : true,
            "name" : "trims",
            "pbrMetallicRoughness" : {
                "baseColorFactor" : [
                    0,
                    0,
                    0,
                    1
                ],
                "metallicFactor" : 0,
                "roughnessFactor" : 0.5
            }
        },
        {
            "doubleSided" : true,
            "name" : "window",
            "pbrMetallicRoughness" : {
                "baseColorTexture" : {
                    "index" : 0
                },
                "metallicFactor" : 0,
                "roughnessFactor" : 0.5
            }
        },
        {
            "doubleSided" : true,
            "name" : "window_glass",
            "pbrMetallicRoughness" : {
                "baseColorTexture" : {
                    "index" : 1
                },
                "metallicFactor" : 0,
                "roughnessFactor" : 0.5
            }
        }
    ],
    "meshes" : [
        {
            "name" : "window_box",
            "primitives" : [
                {
                    "attributes" : {
                        "POSITION" : 0,
                        "TEXCOORD_0" : 1,
                        "NORMAL" : 2
                    },
                    "indices" : 3,
                    "material" : 0
                }
            ]
        },
        {
            "name" : "Middle_trims",
            "primitives" : [
                {
                    "attributes" : {
                        "POSITION" : 4,
                        "TEXCOORD_0" : 5,
                        "NORMAL" : 6
                    },
                    "indices" : 7,
                    "material" : 1
                }
            ]
        },
        {
            "name" : "Window_left_right_boxs",
            "primitives" : [
                {
                    "attributes" : {
                        "POSITION" : 8,
                        "TEXCOORD_0" : 9,
                        "NORMAL" : 10
                    },
                    "indices" : 11,
                    "material" : 2
                }
            ]
        },
        {
            "name" : "window_glass",
            "primitives" : [
                {
                    "attributes" : {
                        "POSITION" : 12,
                        "TEXCOORD_0" : 13,
                        "NORMAL" : 14
                    },
                    "indices" : 15,
                    "material" : 3
                },
                {
                    "attributes" : {
                        "POSITION" : 16,
                        "TEXCOORD_0" : 17,
                        "NORMAL" : 18
                    },
                    "indices" : 19,
                    "material" : 4
                }
            ]
        }
    ],
    "textures" : [
        {
            "sampler" : 0,
            "source" : 0
        },
        {
            "sampler" : 0,
            "source" : 1
        }
    ],
    "images" : [
        {
            "bufferView" : 16,
            "mimeType" : "image/png",
            "name" : "55"
        },
        {
            "bufferView" : 21,
            "mimeType" : "image/png",
            "name" : "door_glass_images "
        }
    ],
    "accessors" : [
        {
            "bufferView" : 0,
            "componentType" : 5126,
            "count" : 260,
            "max" : [
                0.01648261770606041,
                1.0000001192092896,
                34.38454055786133
            ],
            "min" : [
                -0.14753980934619904,
                -1.0000001192092896,
                -33.28118133544922
            ],
            "type" : "VEC3"
        },
        {
            "bufferView" : 1,
            "componentType" : 5126,
            "count" : 260,
            "type" : "VEC2"
        },
        {
            "bufferView" : 2,
            "componentType" : 5126,
            "count" : 260,
            "type" : "VEC3"
        },
        {
            "bufferView" : 3,
            "componentType" : 5123,
            "count" : 429,
            "type" : "SCALAR"
        },
        {
            "bufferView" : 4,
            "componentType" : 5126,
            "count" : 104,
            "max" : [
                -0.0633665919303894,
                0.9366054534912109,
                29.31375503540039
            ],
            "min" : [
                -0.13069210946559906,
                -0.9376603364944458,
                -27.99298667907715
            ],
            "type" : "VEC3"
        },
        {
            "bufferView" : 5,
            "componentType" : 5126,
            "count" : 104,
            "type" : "VEC2"
        },
        {
            "bufferView" : 6,
            "componentType" : 5126,
            "count" : 104,
            "type" : "VEC3"
        },
        {
            "bufferView" : 7,
            "componentType" : 5123,
            "count" : 138,
            "type" : "SCALAR"
        },
        {
            "bufferView" : 8,
            "componentType" : 5126,
            "count" : 702,
            "max" : [
                19.24153709411621,
                3.1399731636047363,
                0.4271414577960968
            ],
            "min" : [
                -19.230772018432617,
                -3.260634660720825,
                -3.688495635986328
            ],
            "type" : "VEC3"
        },
        {
            "bufferView" : 9,
            "componentType" : 5126,
            "count" : 702,
            "type" : "VEC2"
        },
        {
            "bufferView" : 10,
            "componentType" : 5126,
            "count" : 702,
            "type" : "VEC3"
        },
        {
            "bufferView" : 11,
            "componentType" : 5123,
            "count" : 918,
            "type" : "SCALAR"
        },
        {
            "bufferView" : 12,
            "componentType" : 5126,
            "count" : 7,
            "max" : [
                -0.17552408576011658,
                2.967073917388916,
                1.0116417407989502
            ],
            "min" : [
                -0.1755242645740509,
                -2.7221851348876953,
                -0.0028399229049682617
            ],
            "type" : "VEC3"
        },
        {
            "bufferView" : 13,
            "componentType" : 5126,
            "count" : 7,
            "type" : "VEC2"
        },
        {
            "bufferView" : 14,
            "componentType" : 5126,
            "count" : 7,
            "type" : "VEC3"
        },
        {
            "bufferView" : 15,
            "componentType" : 5123,
            "count" : 9,
            "type" : "SCALAR"
        },
        {
            "bufferView" : 17,
            "componentType" : 5126,
            "count" : 35,
            "max" : [
                0.004475793335586786,
                2.967074155807495,
                1.0116417407989502
            ],
            "min" : [
                -0.17552433907985687,
                -2.7221851348876953,
                -0.9883580207824707
            ],
            "type" : "VEC3"
        },
        {
            "bufferView" : 18,
            "componentType" : 5126,
            "count" : 35,
            "type" : "VEC2"
        },
        {
            "bufferView" : 19,
            "componentType" : 5126,
            "count" : 35,
            "type" : "VEC3"
        },
        {
            "bufferView" : 20,
            "componentType" : 5123,
            "count" : 39,
            "type" : "SCALAR"
        }
    ],
    "bufferViews" : [
        {
            "buffer" : 0,
            "byteLength" : 3120,
            "byteOffset" : 0,
            "target" : 34962
        },
        {
            "buffer" : 0,
            "byteLength" : 2080,
            "byteOffset" : 3120,
            "target" : 34962
        },
        {
            "buffer" : 0,
            "byteLength" : 3120,
            "byteOffset" : 5200,
            "target" : 34962
        },
        {
            "buffer" : 0,
            "byteLength" : 858,
            "byteOffset" : 8320,
            "target" : 34963
        },
        {
            "buffer" : 0,
            "byteLength" : 1248,
            "byteOffset" : 9180,
            "target" : 34962
        },
        {
            "buffer" : 0,
            "byteLength" : 832,
            "byteOffset" : 10428,
            "target" : 34962
        },
        {
            "buffer" : 0,
            "byteLength" : 1248,
            "byteOffset" : 11260,
            "target" : 34962
        },
        {
            "buffer" : 0,
            "byteLength" : 276,
            "byteOffset" : 12508,
            "target" : 34963
        },
        {
            "buffer" : 0,
            "byteLength" : 8424,
            "byteOffset" : 12784,
            "target" : 34962
        },
        {
            "buffer" : 0,
            "byteLength" : 5616,
            "byteOffset" : 21208,
            "target" : 34962
        },
        {
            "buffer" : 0,
            "byteLength" : 8424,
            "byteOffset" : 26824,
            "target" : 34962
        },
        {
            "buffer" : 0,
            "byteLength" : 1836,
            "byteOffset" : 35248,
            "target" : 34963
        },
        {
            "buffer" : 0,
            "byteLength" : 84,
            "byteOffset" : 37084,
            "target" : 34962
        },
        {
            "buffer" : 0,
            "byteLength" : 56,
            "byteOffset" : 37168,
            "target" : 34962
        },
        {
            "buffer" : 0,
            "byteLength" : 84,
            "byteOffset" : 37224,
            "target" : 34962
        },
        {
            "buffer" : 0,
            "byteLength" : 18,
            "byteOffset" : 37308,
            "target" : 34963
        },
        {
            "buffer" : 0,
            "byteLength" : 775,
            "byteOffset" : 37328
        },
        {
            "buffer" : 0,
            "byteLength" : 420,
            "byteOffset" : 38104,
            "target" : 34962
        },
        {
            "buffer" : 0,
            "byteLength" : 280,
            "byteOffset" : 38524,
            "target" : 34962
        },
        {
            "buffer" : 0,
            "byteLength" : 420,
            "byteOffset" : 38804,
            "target" : 34962
        },
        {
            "buffer" : 0,
            "byteLength" : 78,
            "byteOffset" : 39224,
            "target" : 34963
        },
        {
            "buffer" : 0,
            "byteLength" : 373,
            "byteOffset" : 39304
        }
    ],
    "samplers" : [
        {
            "magFilter" : 9729,
            "minFilter" : 9987
        }
    ],
    "buffers" : [
        {
            "byteLength" : 39680,
            "uri" : "data:application/octet-stream;base64,"
        }
    ]
}
