{
    "asset" : {
        "generator" : "Khronos glTF Blender I/O v1.7.33",
        "version" : "2.0"
    },
    "scene" : 0,
    "scenes" : [
        {
            "name" : "Scene",
            "nodes" : [
                0,
                1,
                2,
                3,
                4
            ]
        }
    ],
    "nodes" : [
        {
            "mesh" : 0,
            "name" : "Middle",
            "scale" : [
                3.0526387691497803,
                2.5,
                0.0750100165605545
            ]
        },
        {
            "mesh" : 1,
            "name" : "Shutters",
            "scale" : [
                0.6227383613586426,
                0.1809319704771042,
                0.08104267716407776
            ]
        },
        {
            "mesh" : 2,
            "name" : "trims",
            "rotation" : [
                -0.5,
                0.5,
                -0.5,
                0.5
            ],
            "scale" : [
                0.12999999523162842,
                0.7951061129570007,
                0.12210555374622345
            ]
        },
        {
            "mesh" : 3,
            "name" : "window_glass",
            "rotation" : [
                0.7071068286895752,
                0,
                0,
                0.7071067094802856
            ],
            "scale" : [
                1.6117932796478271,
                0.7501002550125122,
                2.379999876022339
            ]
        },
        {
            "mesh" : 4,
            "name" : "window_box",
            "scale" : [
                3.0526387691497803,
                2.5,
                0.0750100165605545
            ]
        }
    ],
    "materials" : [
        {
            "doubleSided" : true,
            "name" : "Middle",
            "pbrMetallicRoughness" : {
                "baseColorFactor" : [
                    0.800000011920929,
                    0.800000011920929,
                    0.800000011920929,
                    1
                ],
                "metallicFactor" : 0,
                "roughnessFactor" : 0.5
            }
        },
        {
            "doubleSided" : true,
            "name" : "Shutters",
            "pbrMetallicRoughness" : {
                "baseColorFactor" : [
                    0.800000011920929,
                    0.800000011920929,
                    0.800000011920929,
                    1
                ],
                "metallicFactor" : 0,
                "roughnessFactor" : 0.5
            }
        },
        {
            "doubleSided" : true,
            "name" : "trims",
            "pbrMetallicRoughness" : {
                "baseColorFactor" : [
                    0,
                    0,
                    0,
                    1
                ],
                "metallicFactor" : 0,
                "roughnessFactor" : 0.5
            }
        },
        {
            "doubleSided" : true,
            "name" : "window_glass",
            "pbrMetallicRoughness" : {
                "baseColorTexture" : {
                    "index" : 0
                },
                "metallicFactor" : 0,
                "roughnessFactor" : 0.5
            }
        },
        {
            "doubleSided" : true,
            "name" : "Material.002",
            "pbrMetallicRoughness" : {
                "baseColorFactor" : [
                    0.800000011920929,
                    0.800000011920929,
                    0.800000011920929,
                    1
                ],
                "metallicFactor" : 0,
                "roughnessFactor" : 0.5
            }
        }
    ],
    "meshes" : [
        {
            "name" : "Middle_trims",
            "primitives" : [
                {
                    "attributes" : {
                        "POSITION" : 0,
                        "NORMAL" : 1,
                        "TEXCOORD_0" : 2
                    },
                    "indices" : 3,
                    "material" : 0
                }
            ]
        },
        {
            "name" : "Shutters",
            "primitives" : [
                {
                    "attributes" : {
                        "POSITION" : 4,
                        "NORMAL" : 5,
                        "TEXCOORD_0" : 6
                    },
                    "indices" : 7,
                    "material" : 1
                }
            ]
        },
        {
            "name" : "Window_left_right_boxs",
            "primitives" : [
                {
                    "attributes" : {
                        "POSITION" : 8,
                        "NORMAL" : 9,
                        "TEXCOORD_0" : 10
                    },
                    "indices" : 11,
                    "material" : 2
                }
            ]
        },
        {
            "name" : "window_glass",
            "primitives" : [
                {
                    "attributes" : {
                        "POSITION" : 12,
                        "NORMAL" : 13,
                        "TEXCOORD_0" : 14
                    },
                    "indices" : 15,
                    "material" : 3
                }
            ]
        },
        {
            "name" : "window_box",
            "primitives" : [
                {
                    "attributes" : {
                        "POSITION" : 16,
                        "NORMAL" : 17,
                        "TEXCOORD_0" : 18
                    },
                    "indices" : 19,
                    "material" : 4
                }
            ]
        }
    ],
    "textures" : [
        {
            "sampler" : 0,
            "source" : 0
        }
    ],
    "images" : [
        {
            "bufferView" : 16,
            "mimeType" : "image/jpeg",
            "name" : "ImagesDoorsGlass"
        }
    ],
    "accessors" : [
        {
            "bufferView" : 0,
            "componentType" : 5126,
            "count" : 158,
            "max" : [
                -0.06351739168167114,
                0.9366054534912109,
                29.31375503540039
            ],
            "min" : [
                -0.14753983914852142,
                -0.9376603364944458,
                -27.99298667907715
            ],
            "type" : "VEC3"
        },
        {
            "bufferView" : 1,
            "componentType" : 5126,
            "count" : 158,
            "type" : "VEC3"
        },
        {
            "bufferView" : 2,
            "componentType" : 5126,
            "count" : 158,
            "type" : "VEC2"
        },
        {
            "bufferView" : 3,
            "componentType" : 5123,
            "count" : 210,
            "type" : "SCALAR"
        },
        {
            "bufferView" : 4,
            "componentType" : 5126,
            "count" : 170,
            "max" : [
                0.10957173258066177,
                12.536246299743652,
                51.883853912353516
            ],
            "min" : [
                -0.5240551829338074,
                -12.499998092651367,
                -51.50252151489258
            ],
            "type" : "VEC3"
        },
        {
            "bufferView" : 5,
            "componentType" : 5126,
            "count" : 170,
            "type" : "VEC3"
        },
        {
            "bufferView" : 6,
            "componentType" : 5126,
            "count" : 170,
            "type" : "VEC2"
        },
        {
            "bufferView" : 7,
            "componentType" : 5123,
            "count" : 204,
            "type" : "SCALAR"
        },
        {
            "bufferView" : 8,
            "componentType" : 5126,
            "count" : 698,
            "max" : [
                19.24153709411621,
                3.1399731636047363,
                0.41206541657447815
            ],
            "min" : [
                -19.230772018432617,
                -3.260634660720825,
                -3.688495635986328
            ],
            "type" : "VEC3"
        },
        {
            "bufferView" : 9,
            "componentType" : 5126,
            "count" : 698,
            "type" : "VEC3"
        },
        {
            "bufferView" : 10,
            "componentType" : 5126,
            "count" : 698,
            "type" : "VEC2"
        },
        {
            "bufferView" : 11,
            "componentType" : 5123,
            "count" : 918,
            "type" : "SCALAR"
        },
        {
            "bufferView" : 12,
            "componentType" : 5126,
            "count" : 34,
            "max" : [
                0.004475792869925499,
                2.967074155807495,
                1.0116417407989502
            ],
            "min" : [
                -0.17552432417869568,
                -2.7221851348876953,
                -0.9883580207824707
            ],
            "type" : "VEC3"
        },
        {
            "bufferView" : 13,
            "componentType" : 5126,
            "count" : 34,
            "type" : "VEC3"
        },
        {
            "bufferView" : 14,
            "componentType" : 5126,
            "count" : 34,
            "type" : "VEC2"
        },
        {
            "bufferView" : 15,
            "componentType" : 5123,
            "count" : 36,
            "type" : "SCALAR"
        },
        {
            "bufferView" : 17,
            "componentType" : 5126,
            "count" : 991,
            "max" : [
                0.01648261770606041,
                1.0000001192092896,
                34.38454055786133
            ],
            "min" : [
                -0.14753983914852142,
                -1.0000001192092896,
                -33.28118133544922
            ],
            "type" : "VEC3"
        },
        {
            "bufferView" : 18,
            "componentType" : 5126,
            "count" : 991,
            "type" : "VEC3"
        },
        {
            "bufferView" : 19,
            "componentType" : 5126,
            "count" : 991,
            "type" : "VEC2"
        },
        {
            "bufferView" : 20,
            "componentType" : 5123,
            "count" : 1992,
            "type" : "SCALAR"
        }
    ],
    "bufferViews" : [
        {
            "buffer" : 0,
            "byteLength" : 1896,
            "byteOffset" : 0
        },
        {
            "buffer" : 0,
            "byteLength" : 1896,
            "byteOffset" : 1896
        },
        {
            "buffer" : 0,
            "byteLength" : 1264,
            "byteOffset" : 3792
        },
        {
            "buffer" : 0,
            "byteLength" : 420,
            "byteOffset" : 5056
        },
        {
            "buffer" : 0,
            "byteLength" : 2040,
            "byteOffset" : 5476
        },
        {
            "buffer" : 0,
            "byteLength" : 2040,
            "byteOffset" : 7516
        },
        {
            "buffer" : 0,
            "byteLength" : 1360,
            "byteOffset" : 9556
        },
        {
            "buffer" : 0,
            "byteLength" : 408,
            "byteOffset" : 10916
        },
        {
            "buffer" : 0,
            "byteLength" : 8376,
            "byteOffset" : 11324
        },
        {
            "buffer" : 0,
            "byteLength" : 8376,
            "byteOffset" : 19700
        },
        {
            "buffer" : 0,
            "byteLength" : 5584,
            "byteOffset" : 28076
        },
        {
            "buffer" : 0,
            "byteLength" : 1836,
            "byteOffset" : 33660
        },
        {
            "buffer" : 0,
            "byteLength" : 408,
            "byteOffset" : 35496
        },
        {
            "buffer" : 0,
            "byteLength" : 408,
            "byteOffset" : 35904
        },
        {
            "buffer" : 0,
            "byteLength" : 272,
            "byteOffset" : 36312
        },
        {
            "buffer" : 0,
            "byteLength" : 72,
            "byteOffset" : 36584
        },
        {
            "buffer" : 0,
            "byteLength" : 18795,
            "byteOffset" : 36656
        },
        {
            "buffer" : 0,
            "byteLength" : 11892,
            "byteOffset" : 55452
        },
        {
            "buffer" : 0,
            "byteLength" : 11892,
            "byteOffset" : 67344
        },
        {
            "buffer" : 0,
            "byteLength" : 7928,
            "byteOffset" : 79236
        },
        {
            "buffer" : 0,
            "byteLength" : 3984,
            "byteOffset" : 87164
        }
    ],
    "samplers" : [
        {
            "magFilter" : 9729,
            "minFilter" : 9987
        }
    ],
    "buffers" : [
        {
            "byteLength" : 91148,
            "uri" : "data:application/octet-stream;base64,"
        }
    ]
}
