<svg width="50" height="35" viewBox="0 0 50 35" fill="none" xmlns="http://www.w3.org/2000/svg">
<path d="M49.871 20.857L47.3401 16.9846C46.2225 15.2734 44.3238 14.2516 42.2598 14.2516H35.7144V10.485C35.7144 8.18529 33.8442 6.31517 31.5445 6.31517H19.2916C18.604 2.72434 15.4432 0 11.6549 0C7.36512 0 3.87557 3.49001 3.87557 7.77929C3.87557 10.4764 5.25659 12.8556 7.34741 14.2516H0.793824C0.355132 14.2516 0 14.6067 0 15.0454C0 15.4841 0.355132 15.8392 0.793824 15.8392H8.73025V17.4264H5.5554C5.11717 17.4264 4.76203 17.7816 4.76203 18.2203C4.76203 18.6589 5.11717 19.0136 5.5554 19.0136H8.73025V20.6008H0.793824C0.355132 20.6008 0 20.956 0 21.3946C0 21.8333 0.355132 22.1885 0.793824 22.1885H8.73025V25.7035C7.33106 26.3206 6.34923 27.7166 6.34923 29.3415V30.1249C6.34923 30.5636 6.70481 30.9187 7.14305 30.9187H14.1821C14.6335 32.8606 16.3747 34.3138 18.4523 34.3138C20.5304 34.3138 22.2711 32.8606 22.7225 30.9187H37.9918C38.4437 32.8606 40.1848 34.3138 42.262 34.3138C44.3392 34.3138 46.0808 32.8606 46.5322 30.9187H49.2066C49.6453 30.9187 50 30.5636 50 30.1249V21.2911C50 21.1367 49.955 20.9855 49.871 20.857ZM5.46276 7.77929C5.46276 4.36512 8.24069 1.58719 11.6549 1.58719C15.0695 1.58719 17.847 4.36512 17.847 7.77929C17.847 11.1935 15.0695 13.9714 11.6549 13.9714C8.24069 13.9714 5.46276 11.1935 5.46276 7.77929ZM10.3174 22.1885H11.9046C12.3433 22.1885 12.6985 21.8333 12.6985 21.3946C12.6985 20.956 12.3433 20.6008 11.9046 20.6008H10.3174V19.0136H15.8733C16.3115 19.0136 16.6667 18.6589 16.6667 18.2203C16.6667 17.7816 16.3115 17.4264 15.8733 17.4264H10.3174V15.8392H20.6349C21.0731 15.8392 21.4287 15.4841 21.4287 15.0454C21.4287 14.6067 21.0731 14.2516 20.6349 14.2516H15.9623C18.0209 12.8769 19.3865 10.5481 19.4282 7.90236H31.545C32.9687 7.90236 34.1272 9.06131 34.1272 10.485V25.3629H10.3274C10.3243 25.3629 10.3211 25.3638 10.3174 25.3638V22.1885ZM34.1272 29.3311H22.7947C22.6698 28.4183 22.2648 27.5954 21.6667 26.95H34.1272V29.3311ZM10.3274 26.95H15.238C14.6403 27.5954 14.2348 28.4183 14.1104 29.3311H7.93642C7.94187 28.0177 9.01272 26.95 10.3274 26.95ZM18.4523 32.7266C16.9087 32.7266 15.6521 31.4705 15.6521 29.9264C15.6521 28.3828 16.9087 27.1263 18.4523 27.1263C19.9964 27.1263 21.2525 28.3828 21.2525 29.9264C21.2525 31.4705 19.9964 32.7266 18.4523 32.7266ZM42.262 32.7266C40.7184 32.7266 39.4619 31.4705 39.4619 29.9264C39.4619 28.3828 40.7184 27.1263 42.262 27.1263C43.8061 27.1263 45.0622 28.3828 45.0622 29.9264C45.0622 31.4705 43.8061 32.7266 42.262 32.7266ZM48.4128 29.3311H46.6045C46.3124 27.1935 44.4787 25.5391 42.262 25.5391C40.0454 25.5391 38.2121 27.1935 37.9196 29.3311H35.7144V15.8392H42.2598C43.7852 15.8392 45.188 16.5917 46.0118 17.8524L48.4128 21.5273V29.3311Z" fill="black"/>
</svg>
