<svg width="2853" height="1210" viewBox="0 0 2853 1210" fill="none" xmlns="http://www.w3.org/2000/svg">
<path d="M142.968 551V122.11H0.517657V0.449974H444.038V122.11H301.588V551H142.968ZM528.864 551V0.449974H687.484V210.66H868.434V0.449974H1026.28V551H868.434V333.86H687.484V551H528.864ZM1104.96 551L1281.29 0.449974H1485.34L1660.13 551H1493.04L1463.78 448.59H1281.29L1252.03 551H1104.96ZM1372.92 128.27L1312.09 340.02H1432.98L1372.92 128.27ZM1738.73 551V0.449974H1916.6L2092.93 310.76V0.449974H2230.76V551H2078.3L1877.33 205.27V551H1738.73ZM2352.68 551V0.449974H2511.3V218.36L2676.85 0.449974H2841.63L2639.89 256.09L2852.41 551H2669.92L2511.3 320.77V551H2352.68ZM752.095 1200V964.38L572.685 649.45H744.395L837.565 835.02L930.735 649.45H1081.65L910.715 964.38V1200H752.095ZM1372.86 1085.27C1450.63 1085.27 1499.14 1025.21 1499.14 926.65V920.49C1499.14 822.7 1449.86 764.95 1372.09 764.95C1294.32 764.95 1245.81 821.16 1245.81 921.26V927.42C1245.81 1027.52 1296.63 1085.27 1372.86 1085.27ZM1369.78 1209.24C1191.91 1209.24 1081.03 1093.74 1081.03 928.19V922.03C1081.03 754.17 1207.31 641.75 1372.09 641.75C1539.95 641.75 1663.92 747.24 1663.92 918.18V924.34C1663.92 1093.74 1547.65 1209.24 1369.78 1209.24ZM1996.82 1209.24C1841.28 1209.24 1752.73 1130.7 1752.73 976.7V649.45H1910.58V969.77C1910.58 1047.54 1929.83 1085.27 1996.82 1085.27C2062.27 1085.27 2083.06 1049.85 2083.06 967.46V649.45H2242.45V974.39C2242.45 1134.55 2148.51 1209.24 1996.82 1209.24Z" fill="black" fill-opacity="0.05"/>
</svg>
