<svg width="50" height="50" viewBox="0 0 50 50" fill="none" xmlns="http://www.w3.org/2000/svg">
<path d="M45.4585 21.6604C45.3389 20.6165 44.8638 19.7033 44.1804 19.096C44.0288 8.54035 35.4842 0 25.0005 0C14.5168 0 5.97175 8.54035 5.82031 19.096C5.13738 19.703 4.66244 20.6154 4.54254 21.6586C2.61764 22.1252 1.18359 23.8622 1.18359 25.9288V30.4555C1.18359 32.5219 2.61764 34.259 4.54254 34.7257C4.75891 36.6107 6.1367 38.069 7.79962 38.069H9.48072C11.2935 38.069 12.7681 36.3366 12.7681 34.207V22.1772C12.7681 20.9869 12.3072 19.921 11.5843 19.212C11.674 11.8037 17.6575 5.80452 25.0005 5.80452C32.3435 5.80452 38.3268 11.8035 38.4168 19.2117C37.6934 19.9207 37.2322 20.9868 37.2322 22.1772V34.207C37.2322 36.2476 38.5869 37.9224 40.2951 38.0589V41.4436C40.2951 43.7541 38.4155 45.6338 36.1049 45.6338H32.6569C32.2127 44.3351 30.9809 43.3985 29.5339 43.3985H27.2355C25.4155 43.3985 23.935 44.8793 23.935 46.6993C23.935 48.5194 25.4156 50 27.2355 50H29.5339C30.9811 50 32.2127 49.0635 32.6569 47.7648H36.1049C39.5903 47.7648 42.4262 44.9291 42.4262 41.4436V38.0589C43.9872 37.9343 45.2526 36.5239 45.4585 34.7239C47.3831 34.2572 48.8174 32.5215 48.8174 30.4554V25.9286C48.8173 23.8625 47.3831 22.127 45.4585 21.6604ZM4.51199 32.4468C3.80079 32.0655 3.31463 31.3177 3.31463 30.4555V25.9288C3.31463 25.0667 3.80079 24.3186 4.51199 23.9373V32.4468ZM29.5339 47.869H27.2355C26.5907 47.869 26.066 47.3443 26.066 46.6993C26.066 46.0543 26.5907 45.5295 27.2355 45.5295H29.5339C30.1788 45.5295 30.7035 46.0543 30.7035 46.6993C30.7035 47.3443 30.1788 47.869 29.5339 47.869ZM10.637 34.207C10.637 35.129 10.0967 35.938 9.48072 35.938H7.79948C7.18346 35.938 6.64289 35.1292 6.64289 34.207V22.1772C6.64289 21.2551 7.18346 20.4462 7.79948 20.4462H9.48072C10.0967 20.4462 10.637 21.255 10.637 22.1772V34.207ZM25.0005 3.67349C16.7812 3.67349 10.0327 10.1496 9.48854 18.3156C9.4857 18.3156 9.48328 18.3153 9.48072 18.3153H7.98161C8.52758 9.29815 15.9513 2.13104 25.0005 2.13104C34.0493 2.13104 41.473 9.29829 42.0191 18.3153H40.5202C40.5179 18.3153 40.5158 18.3156 40.5135 18.3156C39.9694 10.1496 33.2199 3.67349 25.0005 3.67349ZM43.3577 34.207C43.3577 35.129 42.8174 35.938 42.2011 35.938H40.5202C39.9039 35.938 39.3633 35.1292 39.3633 34.207V22.1772C39.3633 21.2551 39.9039 20.4462 40.5202 20.4462H42.2011C42.8174 20.4462 43.3577 21.255 43.3577 22.1772V34.207ZM46.6862 30.4555C46.6862 31.3177 46.2001 32.0659 45.4886 32.4471V23.9378C46.2001 24.3191 46.6862 25.0666 46.6862 25.9288V30.4555Z" fill="black"/>
</svg>
