<?xml version="1.0" encoding="utf-8"?>
<!-- Generator: Adobe Illustrator 24.2.3, SVG Export Plug-In . SVG Version: 6.00 Build 0)  -->
<svg version="1.1" id="Layer_1" xmlns="http://www.w3.org/2000/svg" xmlns:xlink="http://www.w3.org/1999/xlink" x="0px" y="0px"
	 viewBox="0 0 300 192.01" style="enable-background:new 0 0 300 192.01;" xml:space="preserve">
<style type="text/css">
	.st0{fill:#616362;}
	.st1{fill:#575757;}
	.st2{fill:#1E1E1E;}
	.st3{fill:url(#SVGID_1_);}
	.st4{fill:#707171;}
	.st5{fill:url(#SVGID_2_);}
	.st6{fill:#3F4040;}
	.st7{fill:url(#SVGID_3_);}
	.st8{fill:#808080;}
	.st9{fill:#9D9D9D;}
	.st10{fill:#6F6E6F;}
	.st11{fill:#1A1A1A;}
	.st12{fill:#161616;}
	.st13{fill:#2F2F2F;}
	.st14{fill:#121112;}
	.st15{fill:#2E2E2E;}
	.st16{fill:url(#SVGID_4_);}
	.st17{fill:url(#SVGID_5_);}
	.st18{fill:url(#SVGID_6_);}
	.st19{fill:url(#SVGID_7_);}
	.st20{fill:url(#SVGID_8_);}
	.st21{fill:#545452;}
	.st22{fill:url(#SVGID_9_);}
	.st23{fill:url(#SVGID_10_);}
	.st24{fill:url(#SVGID_11_);}
	.st25{fill:url(#SVGID_12_);}
	.st26{fill:url(#SVGID_13_);}
	.st27{fill:url(#SVGID_14_);}
	.st28{fill:url(#SVGID_15_);}
	.st29{fill:url(#SVGID_16_);}
	.st30{fill:url(#SVGID_17_);}
	.st31{fill:url(#SVGID_18_);}
	.st32{fill:url(#SVGID_19_);}
	.st33{fill:url(#SVGID_20_);}
	.st34{fill:url(#SVGID_21_);}
	.st35{fill:url(#SVGID_22_);}
	.st36{fill:url(#SVGID_23_);}
	.st37{fill:url(#SVGID_24_);}
	.st38{fill:url(#SVGID_25_);}
	.st39{fill:url(#SVGID_26_);}
	.st40{fill:url(#SVGID_27_);}
	.st41{fill:url(#SVGID_28_);}
	.st42{fill:url(#SVGID_29_);}
	.st43{fill:url(#SVGID_30_);}
	.st44{fill:url(#SVGID_31_);}
	.st45{fill:url(#SVGID_32_);}
	.st46{fill:url(#SVGID_33_);}
	.st47{fill:url(#SVGID_34_);}
	.st48{fill:url(#SVGID_35_);}
	.st49{fill:url(#SVGID_36_);}
	.st50{fill:#141414;}
	.st51{fill:#958932;}
	.st52{fill:url(#SVGID_37_);}
	.st53{fill:url(#SVGID_38_);}
	.st54{fill:#7F7F7F;}
	.st55{fill:url(#SVGID_39_);}
	.st56{fill:#515252;}
	.st57{fill:#A4A4A4;}
</style>
<g>
	<rect x="122" y="38.29" class="st0" width="14.95" height="1.15"/>
	<rect x="164.38" y="38.3" class="st0" width="14.95" height="1.15"/>
	<g>
		<rect x="74.23" y="39.2" class="st0" width="14.95" height="1.15"/>
		<rect x="211.86" y="39.2" class="st0" width="14.95" height="1.15"/>
		<rect x="17.41" y="39.2" class="st0" width="14.95" height="1.15"/>
		<g>
			<rect x="152.31" y="183.42" class="st1" width="1.35" height="8.59"/>
			<rect x="145.13" y="183.42" class="st1" width="1.35" height="8.59"/>
			<g>
				<g>
					<g>
						<g>
							
								<ellipse transform="matrix(0.0741 -0.9973 0.9973 0.0741 108.5766 133.7923)" class="st2" cx="126.34" cy="8.42" rx="8.35" ry="2.06"/>
							
								<ellipse transform="matrix(0.9985 -0.0544 0.0544 0.9985 -0.2923 7.2005)" class="st2" cx="132.12" cy="8.97" rx="0.91" ry="8.98"/>
							<g>
								
									<linearGradient id="SVGID_1_" gradientUnits="userSpaceOnUse" x1="128.1443" y1="162.7102" x2="129.4238" y2="192.7767" gradientTransform="matrix(1 0 0 -1 0 192.1856)">
									<stop  offset="0" style="stop-color:#BCBDBF"/>
									<stop  offset="0.084" style="stop-color:#B8B8B8"/>
									<stop  offset="0.214" style="stop-color:#929497"/>
									<stop  offset="0.544" style="stop-color:#FFFFFF"/>
									<stop  offset="0.766" style="stop-color:#929497"/>
									<stop  offset="1" style="stop-color:#7E7E7E"/>
								</linearGradient>
								<path class="st3" d="M134.14,24.46l-0.46-5.26l-3.16-3.49l0.5-8.15l-1,0.33l-0.33,6.82l-1.5,0.17l0.17-8.15h-0.83v8.32
									c-0.33,1.5-3.33,3.83-3.33,3.83l-2.83,9.65l10.96-0.17l2.69-0.33l0.04-3.64L134.14,24.46z M131.85,24.41l-0.19-1.83
									l-4.1-0.13l-0.13-1.39l5.49,0.13l0.06,3.22H131.85z"/>
								<path class="st2" d="M127.56,22.46l-1.61-0.05c0,0-1.06,0-0.86-1.84c0,0-0.06-1.09,1.78-1.15l4.77,0.06
									c0,0,1.48,0.05,1.28,1.72l-5.49-0.13L127.56,22.46z"/>
							</g>
							<rect x="126.5" y="8.2" class="st4" width="5.6" height="1.12"/>
							
								<linearGradient id="SVGID_2_" gradientUnits="userSpaceOnUse" x1="135.0714" y1="163.9015" x2="135.4978" y2="143.0043" gradientTransform="matrix(1 0 0 -1 0 192.1856)">
								<stop  offset="0.102" style="stop-color:#575757"/>
								<stop  offset="0.544" style="stop-color:#FFFFFF"/>
								<stop  offset="0.766" style="stop-color:#929497"/>
								<stop  offset="1" style="stop-color:#3A3A3A"/>
							</linearGradient>
							<path class="st5" d="M132.5,30.32c0,0-0.33-1.33,1.29-1.33l3.28,0.1c0,0,0.95-0.1,0.87,1.68l-0.06,17.8
								c0,0,0.18,1.17-1.35,1.17l-2.74,0.05c0,0-1.13,0.04-1.13-1.13L132.5,30.32z"/>
							<ellipse class="st6" cx="137.93" cy="39.5" rx="0.65" ry="9.3"/>
						</g>
						
							<linearGradient id="SVGID_3_" gradientUnits="userSpaceOnUse" x1="122.7364" y1="163.4086" x2="121.9738" y2="135.447" gradientTransform="matrix(1 0 0 -1 0 192.1856)">
							<stop  offset="0" style="stop-color:#B82025"/>
							<stop  offset="0.0643" style="stop-color:#EF5254"/>
							<stop  offset="0.9399" style="stop-color:#EE4344"/>
							<stop  offset="0.9566" style="stop-color:#DC3437"/>
							<stop  offset="0.9774" style="stop-color:#CB262B"/>
							<stop  offset="0.9931" style="stop-color:#C52127"/>
						</linearGradient>
						<rect x="112.37" y="28.35" class="st7" width="19.98" height="28.45"/>
					</g>
					<g>
						<path class="st8" d="M138.12,37.47L138.12,37.47c-0.22,0.09-0.39,0.98-0.39,2.07c0,1.14,0.19,2.07,0.42,2.07
							c0.02,0,0.6-0.02,0.6-0.02v-4.23L138.12,37.47z"/>
						<ellipse class="st9" cx="138.75" cy="39.46" rx="0.42" ry="2.11"/>
					</g>
					<polygon class="st0" points="119.05,141.56 121.92,141.56 121.92,56.8 119.05,56.76 					"/>
					<path class="st1" d="M121.92,61.91l8.62-0.01c0,0,2.5,0.17,2.11-3.17l-0.3-1.93h-10.43L121.92,61.91z"/>
					<g>
						<rect x="124.43" y="63.88" class="st1" width="1.11" height="78.58"/>
						<rect x="125.14" y="65.46" class="st10" width="5.15" height="1.11"/>
						<rect x="129.65" y="63.88" class="st1" width="1.11" height="78.58"/>
						<path class="st11" d="M127.42,69.14c0,0,0.84,0.32,0.97-2.4l0.19-4.82l-1.17-0.05L127.42,69.14L127.42,69.14z"/>
						<path class="st1" d="M126.45,61.87l-0.06,5.83c0,0,0.52,1.69,1.04,1.36V61.8C127.42,61.8,126.52,61.8,126.45,61.87z"/>
					</g>
				</g>
				<g>
					<rect x="113.62" y="149.6" class="st12" width="72.31" height="5.03"/>
					<rect x="113.62" y="149.9" class="st1" width="72.31" height="5.03"/>
				</g>
				<g>
					<rect x="113.62" y="139.21" class="st12" width="72.31" height="5.03"/>
					<rect x="113.62" y="139.51" class="st1" width="72.31" height="5.03"/>
				</g>
				<rect x="132.83" y="143.29" class="st8" width="33.9" height="5.03"/>
				<path class="st12" d="M132.83,143.29l1.85-3.44h5.03l-0.93,3.31C138.79,143.15,132.63,143.09,132.83,143.29z"/>
				<path class="st12" d="M166.72,143.29l-1.85-3.44h-5.03l0.93,3.31C160.77,143.15,166.92,143.09,166.72,143.29z"/>
				<g>
					<path class="st13" d="M32.44,60.79c0,0,3.51-8.71,5.68-8.71c0,0-4.68,8.44-5.18,10.69L32.44,60.79z"/>
					<path class="st14" d="M27.09,58.01c0,0,2.51,0.62,2.18,5.29l3.67-0.53c0,0-0.33-6.2-1.92-7.1L27.09,58.01z"/>
					<ellipse cx="31.27" cy="63.26" rx="2" ry="0.94"/>
				</g>
				<g>
					<path class="st15" d="M29.16,27.71c0,0-2.33,17.36,2.28,22.21v6.31c0,0-4.39,1.56-5.85,4.95
						C25.59,61.18,22.87,28.42,29.16,27.71z"/>
					<rect x="13.67" y="54.28" class="st0" width="2.86" height="62.13"/>
					<g>
						
							<ellipse transform="matrix(0.0741 -0.9973 0.9973 0.0741 14.2416 32.4195)" class="st2" cx="24.58" cy="8.54" rx="8.35" ry="2.06"/>
						
							<ellipse transform="matrix(0.9985 -0.0544 0.0544 0.9985 -0.4493 1.6649)" class="st2" cx="30.36" cy="9.08" rx="0.91" ry="8.98"/>
						<g>
							
								<linearGradient id="SVGID_4_" gradientUnits="userSpaceOnUse" x1="21.5013" y1="164.9581" x2="55.579" y2="206.3571" gradientTransform="matrix(1 0 0 -1 0 192.1856)">
								<stop  offset="0" style="stop-color:#BCBDBF"/>
								<stop  offset="0.084" style="stop-color:#B8B8B8"/>
								<stop  offset="0.214" style="stop-color:#929497"/>
								<stop  offset="0.544" style="stop-color:#FFFFFF"/>
								<stop  offset="0.766" style="stop-color:#929497"/>
								<stop  offset="1" style="stop-color:#7E7E7E"/>
							</linearGradient>
							<path class="st16" d="M32.41,24.81l-0.5-5.49l-3.16-3.49l0.5-8.15l-1,0.33l-0.33,6.82L26.42,15l0.17-8.15h-0.83v8.32
								c-0.33,1.5-3.33,3.83-3.33,3.83l-2.83,9.65l10.68-0.2l2.97-0.3v-3.49L32.41,24.81z M30.08,24.53l-0.19-1.83l-4.1-0.13
								l-0.13-1.39l5.49,0.13l0.06,3.22H30.08z"/>
							<path class="st2" d="M25.79,22.58l-1.61-0.05c0,0-1.49-0.23-0.86-1.84c0,0-0.06-1.09,1.78-1.15l4.77,0.06
								c0,0,1.48,0.05,1.28,1.72l-5.49-0.13L25.79,22.58z"/>
						</g>
						
							<linearGradient id="SVGID_5_" gradientUnits="userSpaceOnUse" x1="26.4239" y1="179.816" x2="19.3674" y2="157.5813" gradientTransform="matrix(1 0 0 -1 0 192.1856)">
							<stop  offset="0" style="stop-color:#BCBDBF"/>
							<stop  offset="0.084" style="stop-color:#B8B8B8"/>
							<stop  offset="0.214" style="stop-color:#929497"/>
							<stop  offset="0.544" style="stop-color:#FFFFFF"/>
							<stop  offset="1" style="stop-color:#7E7E7E"/>
						</linearGradient>
						<rect x="24.73" y="8.32" class="st17" width="5.6" height="1.12"/>
						
							<linearGradient id="SVGID_6_" gradientUnits="userSpaceOnUse" x1="33.0099" y1="143.5603" x2="33.9317" y2="161.9033" gradientTransform="matrix(1 0 0 -1 0 192.1856)">
							<stop  offset="0.102" style="stop-color:#575757"/>
							<stop  offset="0.544" style="stop-color:#FFFFFF"/>
							<stop  offset="0.766" style="stop-color:#929497"/>
							<stop  offset="1" style="stop-color:#3A3A3A"/>
						</linearGradient>
						<path class="st18" d="M31.14,31.67c0,0-0.01-1.22,1.11-1.15l2.83,0.09c0,0,0.82-0.09,0.75,1.45l-0.05,15.37
							c0,0,0.16,1.01-1.16,1.01l-2.36,0.05c0,0-0.97,0.03-0.97-0.98L31.14,31.67z"/>
						<path class="st6" d="M36.4,39.6c0,4.44-0.38,8.21-0.69,8.21c-0.31,0-0.44-3.77-0.44-8.21s0.04-8.62,0.35-8.62
							S36.4,35.17,36.4,39.6z"/>
					</g>
					
						<linearGradient id="SVGID_7_" gradientUnits="userSpaceOnUse" x1="25.2049" y1="171.1196" x2="19.2961" y2="124.1302" gradientTransform="matrix(1 0 0 -1 0 192.1856)">
						<stop  offset="0" style="stop-color:#BCBDBF"/>
						<stop  offset="0.084" style="stop-color:#B8B8B8"/>
						<stop  offset="0.214" style="stop-color:#929497"/>
						<stop  offset="0.544" style="stop-color:#FFFFFF"/>
						<stop  offset="0.766" style="stop-color:#929497"/>
						<stop  offset="1" style="stop-color:#7E7E7E"/>
					</linearGradient>
					<path class="st19" d="M21.78,21.12c0,0-8.69,29.63-5.05,39.83l8.87,0.24c0,0-1.21-31.7,5.22-39.96L21.78,21.12z"/>
					
						<linearGradient id="SVGID_8_" gradientUnits="userSpaceOnUse" x1="10.7088" y1="172.9156" x2="9.8386" y2="134.6253" gradientTransform="matrix(1 0 0 -1 0 192.1856)">
						<stop  offset="0.1914" style="stop-color:#B82025"/>
						<stop  offset="0.2844" style="stop-color:#EF5254"/>
						<stop  offset="0.9399" style="stop-color:#EE4344"/>
						<stop  offset="0.9566" style="stop-color:#DC3437"/>
						<stop  offset="0.9774" style="stop-color:#CB262B"/>
						<stop  offset="0.9931" style="stop-color:#C52127"/>
					</linearGradient>
					<rect y="28.09" class="st20" width="20.37" height="28.45"/>
					<path class="st21" d="M20.37,28.09c0,0,1.7,15.5,4.49,19.99l-0.49,5.95c0,0-3.04-0.44-4.01,2.51V28.09H20.37z"/>
					<g>
						<path class="st8" d="M36.38,37.09L36.38,37.09c-0.22,0.09-0.39,0.98-0.39,2.07c0,1.14,0.19,2.07,0.42,2.07
							c0.02,0,0.6-0.02,0.6-0.02v-4.23L36.38,37.09z"/>
						<ellipse class="st9" cx="37.02" cy="39.09" rx="0.42" ry="2.11"/>
					</g>
				</g>
				<g>
					<path class="st15" d="M84.21,27.71c0,0-2.33,17.36,2.28,22.21v6.31c0,0-4.39,1.56-5.85,4.95
						C80.64,61.18,77.92,28.42,84.21,27.71z"/>
					<rect x="68.71" y="54.28" class="st0" width="2.86" height="62.13"/>
					<g>
						
							<ellipse transform="matrix(0.0741 -0.9973 0.9973 0.0741 65.2081 87.3131)" class="st2" cx="79.63" cy="8.54" rx="8.35" ry="2.06"/>
						
							<ellipse transform="matrix(0.9985 -0.0544 0.0544 0.9985 -0.3679 4.6591)" class="st2" cx="85.4" cy="9.09" rx="0.91" ry="8.98"/>
						<g>
							
								<linearGradient id="SVGID_9_" gradientUnits="userSpaceOnUse" x1="76.5441" y1="164.9615" x2="110.6218" y2="206.3605" gradientTransform="matrix(1 0 0 -1 0 192.1856)">
								<stop  offset="0" style="stop-color:#BCBDBF"/>
								<stop  offset="0.084" style="stop-color:#B8B8B8"/>
								<stop  offset="0.214" style="stop-color:#929497"/>
								<stop  offset="0.544" style="stop-color:#FFFFFF"/>
								<stop  offset="0.766" style="stop-color:#929497"/>
								<stop  offset="1" style="stop-color:#7E7E7E"/>
							</linearGradient>
							<path class="st22" d="M87.46,24.81l-0.5-5.49l-3.16-3.49l0.5-8.15l-1,0.33l-0.33,6.82L81.47,15l0.17-8.15H80.8v8.32
								c-0.33,1.5-3.33,3.83-3.33,3.83l-2.83,9.65l10.68-0.2l2.97-0.3v-3.49L87.46,24.81z M85.13,24.53l-0.19-1.83l-4.1-0.13
								l-0.13-1.39l5.49,0.13l0.06,3.22H85.13z"/>
							<path class="st2" d="M80.84,22.58l-1.61-0.05c0,0-1.49-0.23-0.86-1.84c0,0-0.06-1.09,1.78-1.15l4.77,0.06
								c0,0,1.48,0.05,1.28,1.72l-5.49-0.13L80.84,22.58z"/>
						</g>
						
							<linearGradient id="SVGID_10_" gradientUnits="userSpaceOnUse" x1="81.4736" y1="179.8151" x2="74.4171" y2="157.5804" gradientTransform="matrix(1 0 0 -1 0 192.1856)">
							<stop  offset="0" style="stop-color:#BCBDBF"/>
							<stop  offset="0.084" style="stop-color:#B8B8B8"/>
							<stop  offset="0.214" style="stop-color:#929497"/>
							<stop  offset="0.544" style="stop-color:#FFFFFF"/>
							<stop  offset="1" style="stop-color:#7E7E7E"/>
						</linearGradient>
						<rect x="79.78" y="8.32" class="st23" width="5.6" height="1.12"/>
						
							<linearGradient id="SVGID_11_" gradientUnits="userSpaceOnUse" x1="88.0599" y1="143.5602" x2="88.9816" y2="161.9032" gradientTransform="matrix(1 0 0 -1 0 192.1856)">
							<stop  offset="0.102" style="stop-color:#575757"/>
							<stop  offset="0.544" style="stop-color:#FFFFFF"/>
							<stop  offset="0.766" style="stop-color:#929497"/>
							<stop  offset="1" style="stop-color:#3A3A3A"/>
						</linearGradient>
						<path class="st24" d="M86.19,31.67c0,0-0.01-1.22,1.11-1.15l2.83,0.09c0,0,0.82-0.09,0.75,1.45l-0.05,15.37
							c0,0,0.16,1.01-1.16,1.01l-2.37,0.05c0,0-0.97,0.03-0.97-0.98L86.19,31.67z"/>
						<path class="st6" d="M91.45,39.6c0,4.44-0.38,8.21-0.69,8.21c-0.31,0-0.44-3.77-0.44-8.21s0.04-8.62,0.35-8.62
							C90.98,30.98,91.45,35.17,91.45,39.6z"/>
					</g>
					
						<linearGradient id="SVGID_12_" gradientUnits="userSpaceOnUse" x1="80.2549" y1="171.1192" x2="74.346" y2="124.1298" gradientTransform="matrix(1 0 0 -1 0 192.1856)">
						<stop  offset="0" style="stop-color:#BCBDBF"/>
						<stop  offset="0.084" style="stop-color:#B8B8B8"/>
						<stop  offset="0.214" style="stop-color:#929497"/>
						<stop  offset="0.544" style="stop-color:#FFFFFF"/>
						<stop  offset="0.766" style="stop-color:#929497"/>
						<stop  offset="1" style="stop-color:#7E7E7E"/>
					</linearGradient>
					<path class="st25" d="M76.83,21.12c0,0-8.69,29.63-5.05,39.83l8.87,0.24c0,0-1.21-31.7,5.22-39.96L76.83,21.12z"/>
					
						<linearGradient id="SVGID_13_" gradientUnits="userSpaceOnUse" x1="65.7588" y1="172.9155" x2="64.8886" y2="134.6252" gradientTransform="matrix(1 0 0 -1 0 192.1856)">
						<stop  offset="0.1914" style="stop-color:#B82025"/>
						<stop  offset="0.2844" style="stop-color:#EF5254"/>
						<stop  offset="0.9399" style="stop-color:#EE4344"/>
						<stop  offset="0.9566" style="stop-color:#DC3437"/>
						<stop  offset="0.9774" style="stop-color:#CB262B"/>
						<stop  offset="0.9931" style="stop-color:#C52127"/>
					</linearGradient>
					<rect x="55.05" y="28.09" class="st26" width="20.37" height="28.45"/>
					<path class="st21" d="M75.42,28.09c0,0,1.7,15.5,4.49,19.99l-0.49,5.95c0,0-3.04-0.44-4.01,2.51V28.09H75.42z"/>
					<g>
						<path class="st8" d="M91.43,37.09L91.43,37.09c-0.22,0.09-0.39,0.98-0.39,2.07c0,1.14,0.19,2.07,0.42,2.07
							c0.02,0,0.6-0.02,0.6-0.02v-4.23L91.43,37.09z"/>
						<ellipse class="st9" cx="92.06" cy="39.09" rx="0.42" ry="2.11"/>
					</g>
				</g>
				<g>
					<g>
						<g>
							<g>
								
									<ellipse transform="matrix(0.9973 -0.0741 0.0741 0.9973 -0.1506 12.7957)" class="st2" cx="172.36" cy="8.43" rx="2.06" ry="8.35"/>
								
									<ellipse transform="matrix(0.0544 -0.9985 0.9985 0.0544 148.5713 174.8194)" class="st2" cx="166.59" cy="8.97" rx="8.98" ry="0.91"/>
								<g>
									
										<linearGradient id="SVGID_14_" gradientUnits="userSpaceOnUse" x1="2008.6709" y1="162.7102" x2="2009.9503" y2="192.7767" gradientTransform="matrix(-1 0 0 -1 2179.2461 192.1856)">
										<stop  offset="0" style="stop-color:#BCBDBF"/>
										<stop  offset="0.084" style="stop-color:#B8B8B8"/>
										<stop  offset="0.214" style="stop-color:#929497"/>
										<stop  offset="0.544" style="stop-color:#FFFFFF"/>
										<stop  offset="0.766" style="stop-color:#929497"/>
										<stop  offset="1" style="stop-color:#7E7E7E"/>
									</linearGradient>
									<path class="st27" d="M164.68,24.47l0.36-5.26l3.16-3.49l-0.5-8.15l1,0.33l0.33,6.82l1.5,0.17l-0.17-8.15h0.83v8.32
										c0.33,1.5,3.33,3.83,3.33,3.83l2.83,9.65l-10.98-0.16l-2.67-0.34v-3.49L164.68,24.47z M166.87,24.41l0.19-1.83l4.1-0.13
										l0.13-1.39l-5.49,0.13l-0.06,3.22H166.87z"/>
									<path class="st2" d="M171.16,22.46l1.61-0.05c0,0,1.49-0.23,0.86-1.84c0,0,0.06-1.09-1.78-1.15l-4.77,0.06
										c0,0-1.48,0.05-1.28,1.72l5.49-0.13L171.16,22.46z"/>
								</g>
								<rect x="166.62" y="8.21" class="st4" width="5.6" height="1.12"/>
								
									<linearGradient id="SVGID_15_" gradientUnits="userSpaceOnUse" x1="2015.5975" y1="163.9015" x2="2016.024" y2="143.0043" gradientTransform="matrix(-1 0 0 -1 2179.2461 192.1856)">
									<stop  offset="0.102" style="stop-color:#575757"/>
									<stop  offset="0.544" style="stop-color:#FFFFFF"/>
									<stop  offset="0.766" style="stop-color:#929497"/>
									<stop  offset="1" style="stop-color:#3A3A3A"/>
								</linearGradient>
								<path class="st28" d="M166.22,30.32c0,0,0.33-1.33-1.29-1.33l-3.28,0.1c0,0-0.95-0.1-0.87,1.68l0.06,17.8
									c0,0-0.18,1.17,1.35,1.17l2.74,0.05c0,0,1.13,0.04,1.13-1.13L166.22,30.32z"/>
								<ellipse class="st6" cx="160.79" cy="39.5" rx="0.65" ry="9.3"/>
							</g>
							
								<linearGradient id="SVGID_16_" gradientUnits="userSpaceOnUse" x1="2003.2627" y1="163.4086" x2="2002.5001" y2="135.447" gradientTransform="matrix(-1 0 0 -1 2179.2461 192.1856)">
								<stop  offset="0" style="stop-color:#B82025"/>
								<stop  offset="0.0643" style="stop-color:#EF5254"/>
								<stop  offset="0.9399" style="stop-color:#EE4344"/>
								<stop  offset="0.9566" style="stop-color:#DC3437"/>
								<stop  offset="0.9774" style="stop-color:#CB262B"/>
								<stop  offset="0.9931" style="stop-color:#C52127"/>
							</linearGradient>
							<polygon class="st29" points="166.37,56.8 186.35,56.8 186.35,28.35 166.37,28.35 							"/>
						</g>
						<g>
							<path class="st8" d="M160.6,37.47L160.6,37.47c0.22,0.09,0.39,0.98,0.39,2.07c0,1.14-0.19,2.07-0.42,2.07
								c-0.02,0-0.6-0.02-0.6-0.02v-4.23L160.6,37.47z"/>
							<ellipse class="st9" cx="159.97" cy="39.46" rx="0.42" ry="2.11"/>
						</g>
						<rect x="176.8" y="56.79" class="st0" width="2.86" height="84.77"/>
						<path class="st1" d="M176.8,61.9l-8.61-0.01c0,0-2.36-0.2-2.11-3.17l0.3-1.93l10.43-0.01L176.8,61.9z"/>
						<g>
							<rect x="173.18" y="63.89" class="st1" width="1.11" height="78.58"/>
							<rect x="168.44" y="65.45" class="st10" width="5.15" height="1.11"/>
							<rect x="167.96" y="63.89" class="st1" width="1.11" height="78.58"/>
							<path class="st11" d="M171.3,69.14c0,0-0.84,0.32-0.97-2.4l-0.16-4.86h1.13V69.14z"/>
							<path class="st1" d="M172.27,61.94l0.06,5.83c0,0-0.52,1.69-1.04,1.36v-7.26C171.3,61.88,172.2,61.88,172.27,61.94z"/>
						</g>
					</g>
					<g>
						<path class="st15" d="M270.84,27.71c0,0,2.33,17.36-2.28,22.21v6.31c0,0,4.39,1.56,5.85,4.95
							C274.41,61.18,277.13,28.42,270.84,27.71z"/>
						<rect x="283.47" y="54.28" class="st0" width="2.86" height="62.13"/>
						<g>
							
								<ellipse transform="matrix(0.9973 -0.0741 0.0741 0.9973 0.1236 20.4321)" class="st2" cx="275.41" cy="8.55" rx="2.06" ry="8.35"/>
							
								<ellipse transform="matrix(0.0544 -0.9985 0.9985 0.0544 245.8853 277.8301)" class="st2" cx="269.63" cy="9.09" rx="8.98" ry="0.91"/>
							<g>
								
									<linearGradient id="SVGID_17_" gradientUnits="userSpaceOnUse" x1="1900.7477" y1="164.9581" x2="1934.8253" y2="206.3571" gradientTransform="matrix(-1 0 0 -1 2179.2461 192.1856)">
									<stop  offset="0" style="stop-color:#BCBDBF"/>
									<stop  offset="0.084" style="stop-color:#B8B8B8"/>
									<stop  offset="0.214" style="stop-color:#929497"/>
									<stop  offset="0.544" style="stop-color:#FFFFFF"/>
									<stop  offset="0.766" style="stop-color:#929497"/>
									<stop  offset="1" style="stop-color:#7E7E7E"/>
								</linearGradient>
								<path class="st30" d="M267.59,24.81l0.5-5.49l3.16-3.49l-0.5-8.15l1,0.33l0.33,6.82l1.5,0.17l-0.17-8.15h0.83v8.32
									c0.33,1.5,3.33,3.83,3.33,3.83l2.83,9.65l-10.68-0.2l-2.97-0.3v-3.49L267.59,24.81z M269.92,24.53l0.19-1.83l4.1-0.13
									l0.13-1.39l-5.49,0.13l-0.06,3.22H269.92z"/>
								<path class="st2" d="M274.21,22.58l1.61-0.05c0,0,1.49-0.23,0.86-1.84c0,0,0.06-1.09-1.78-1.15l-4.77,0.06
									c0,0-1.48,0.05-1.28,1.72l5.49-0.13L274.21,22.58z"/>
							</g>
							
								<linearGradient id="SVGID_18_" gradientUnits="userSpaceOnUse" x1="1905.6702" y1="179.816" x2="1898.6136" y2="157.5813" gradientTransform="matrix(-1 0 0 -1 2179.2461 192.1856)">
								<stop  offset="0" style="stop-color:#BCBDBF"/>
								<stop  offset="0.084" style="stop-color:#B8B8B8"/>
								<stop  offset="0.214" style="stop-color:#929497"/>
								<stop  offset="0.544" style="stop-color:#FFFFFF"/>
								<stop  offset="1" style="stop-color:#7E7E7E"/>
							</linearGradient>
							<polygon class="st31" points="269.67,9.44 275.27,9.44 275.27,8.32 269.67,8.32 							"/>
							
								<linearGradient id="SVGID_19_" gradientUnits="userSpaceOnUse" x1="1912.2561" y1="143.5603" x2="1913.1779" y2="161.9033" gradientTransform="matrix(-1 0 0 -1 2179.2461 192.1856)">
								<stop  offset="0.102" style="stop-color:#575757"/>
								<stop  offset="0.544" style="stop-color:#FFFFFF"/>
								<stop  offset="0.766" style="stop-color:#929497"/>
								<stop  offset="1" style="stop-color:#3A3A3A"/>
							</linearGradient>
							<path class="st32" d="M268.86,31.67c0,0,0.01-1.22-1.11-1.15l-2.83,0.09c0,0-0.82-0.09-0.75,1.45l0.05,15.37
								c0,0-0.16,1.01,1.16,1.01l2.36,0.05c0,0,0.97,0.03,0.97-0.98L268.86,31.67z"/>
							<path class="st6" d="M263.6,39.6c0,4.44,0.38,8.21,0.69,8.21s0.44-3.77,0.44-8.21s-0.04-8.62-0.35-8.62
								S263.6,35.17,263.6,39.6z"/>
						</g>
						
							<linearGradient id="SVGID_20_" gradientUnits="userSpaceOnUse" x1="1904.4512" y1="171.1196" x2="1898.5424" y2="124.1302" gradientTransform="matrix(-1 0 0 -1 2179.2461 192.1856)">
							<stop  offset="0" style="stop-color:#BCBDBF"/>
							<stop  offset="0.084" style="stop-color:#B8B8B8"/>
							<stop  offset="0.214" style="stop-color:#929497"/>
							<stop  offset="0.544" style="stop-color:#FFFFFF"/>
							<stop  offset="0.766" style="stop-color:#929497"/>
							<stop  offset="1" style="stop-color:#7E7E7E"/>
						</linearGradient>
						<path class="st33" d="M278.22,21.12c0,0,8.69,29.63,5.05,39.83l-8.87,0.24c0,0,1.21-31.7-5.22-39.96L278.22,21.12z"/>
						
							<linearGradient id="SVGID_21_" gradientUnits="userSpaceOnUse" x1="1889.9551" y1="172.9156" x2="1889.0848" y2="134.6253" gradientTransform="matrix(-1 0 0 -1 2179.2461 192.1856)">
							<stop  offset="0.1914" style="stop-color:#B82025"/>
							<stop  offset="0.2844" style="stop-color:#EF5254"/>
							<stop  offset="0.9399" style="stop-color:#EE4344"/>
							<stop  offset="0.9566" style="stop-color:#DC3437"/>
							<stop  offset="0.9774" style="stop-color:#CB262B"/>
							<stop  offset="0.9931" style="stop-color:#C52127"/>
						</linearGradient>
						<polygon class="st34" points="279.63,56.54 300,56.54 300,28.09 279.63,28.09 						"/>
						<path class="st21" d="M279.63,28.09c0,0-1.7,15.5-4.49,19.99l0.49,5.95c0,0,3.04-0.44,4.01,2.51V28.09H279.63z"/>
						<g>
							<path class="st8" d="M263.62,37.09L263.62,37.09c0.22,0.09,0.39,0.98,0.39,2.07c0,1.14-0.19,2.07-0.42,2.07
								c-0.02,0-0.6-0.02-0.6-0.02v-4.23L263.62,37.09z"/>
							<ellipse class="st9" cx="262.98" cy="39.09" rx="0.42" ry="2.11"/>
						</g>
					</g>
					<g>
						<path class="st15" d="M215.79,27.71c0,0,2.33,17.36-2.28,22.21v6.31c0,0,4.39,1.56,5.85,4.95
							C219.36,61.18,222.08,28.42,215.79,27.71z"/>
						<rect x="228.43" y="54.28" class="st0" width="2.86" height="62.13"/>
						<g>
							
								<ellipse transform="matrix(0.9973 -0.0741 0.0741 0.9973 -0.0277 16.3528)" class="st2" cx="220.36" cy="8.55" rx="2.06" ry="8.35"/>
							
								<ellipse transform="matrix(0.0544 -0.9985 0.9985 0.0544 193.8433 222.8599)" class="st2" cx="214.59" cy="9.08" rx="8.98" ry="0.91"/>
							<g>
								
									<linearGradient id="SVGID_22_" gradientUnits="userSpaceOnUse" x1="1955.8011" y1="164.9526" x2="1989.8789" y2="206.3516" gradientTransform="matrix(-1 0 0 -1 2179.2461 192.1856)">
									<stop  offset="0" style="stop-color:#BCBDBF"/>
									<stop  offset="0.084" style="stop-color:#B8B8B8"/>
									<stop  offset="0.214" style="stop-color:#929497"/>
									<stop  offset="0.544" style="stop-color:#FFFFFF"/>
									<stop  offset="0.766" style="stop-color:#929497"/>
									<stop  offset="1" style="stop-color:#7E7E7E"/>
								</linearGradient>
								<path class="st35" d="M212.6,24.61l0.44-5.28l3.16-3.49l-0.5-8.15l1,0.33l0.33,6.82l1.5,0.17l-0.17-8.15h0.83v8.32
									c0.33,1.5,3.33,3.83,3.33,3.83l2.83,9.65l-10.68-0.2l-2.97-0.3v-3.49L212.6,24.61z M214.87,24.53l0.19-1.83l4.1-0.13
									l0.13-1.39l-5.49,0.13l-0.06,3.22H214.87z"/>
								<path class="st2" d="M219.16,22.58l1.61-0.05c0,0,1.27-0.04,0.86-1.84c0,0,0.06-1.09-1.78-1.15l-4.77,0.06
									c0,0-1.48,0.05-1.28,1.72l5.49-0.13L219.16,22.58z"/>
							</g>
							
								<linearGradient id="SVGID_23_" gradientUnits="userSpaceOnUse" x1="1960.7198" y1="179.8151" x2="1953.6633" y2="157.5804" gradientTransform="matrix(-1 0 0 -1 2179.2461 192.1856)">
								<stop  offset="0" style="stop-color:#BCBDBF"/>
								<stop  offset="0.084" style="stop-color:#B8B8B8"/>
								<stop  offset="0.214" style="stop-color:#929497"/>
								<stop  offset="0.544" style="stop-color:#FFFFFF"/>
								<stop  offset="1" style="stop-color:#7E7E7E"/>
							</linearGradient>
							<polygon class="st36" points="214.62,9.44 220.22,9.44 220.22,8.32 214.62,8.32 							"/>
							
								<linearGradient id="SVGID_24_" gradientUnits="userSpaceOnUse" x1="1967.3062" y1="143.5602" x2="1968.2279" y2="161.9032" gradientTransform="matrix(-1 0 0 -1 2179.2461 192.1856)">
								<stop  offset="0.102" style="stop-color:#575757"/>
								<stop  offset="0.544" style="stop-color:#FFFFFF"/>
								<stop  offset="0.766" style="stop-color:#929497"/>
								<stop  offset="1" style="stop-color:#3A3A3A"/>
							</linearGradient>
							<path class="st37" d="M213.81,31.67c0,0,0.01-1.22-1.11-1.15l-2.83,0.09c0,0-0.82-0.09-0.75,1.45l0.05,15.37
								c0,0-0.16,1.01,1.16,1.01l2.36,0.05c0,0,0.97,0.03,0.97-0.98L213.81,31.67z"/>
							<path class="st6" d="M208.55,39.6c0,4.44,0.38,8.21,0.69,8.21s0.44-3.77,0.44-8.21s-0.04-8.62-0.35-8.62
								S208.55,35.17,208.55,39.6z"/>
						</g>
						
							<linearGradient id="SVGID_25_" gradientUnits="userSpaceOnUse" x1="1959.4792" y1="171.0379" x2="1953.5825" y2="124.145" gradientTransform="matrix(-1 0 0 -1 2179.2461 192.1856)">
							<stop  offset="0" style="stop-color:#BCBDBF"/>
							<stop  offset="0.084" style="stop-color:#B8B8B8"/>
							<stop  offset="0.214" style="stop-color:#929497"/>
							<stop  offset="0.544" style="stop-color:#FFFFFF"/>
							<stop  offset="0.766" style="stop-color:#929497"/>
							<stop  offset="1" style="stop-color:#7E7E7E"/>
						</linearGradient>
						<path class="st38" d="M223.15,21.1c0,0,8.72,29.65,5.08,39.84l-8.87,0.24c0,0,1.24-31.62-5.2-39.87L223.15,21.1z"/>
						
							<linearGradient id="SVGID_26_" gradientUnits="userSpaceOnUse" x1="1945.0051" y1="172.9155" x2="1944.1348" y2="134.6252" gradientTransform="matrix(-1 0 0 -1 2179.2461 192.1856)">
							<stop  offset="0.1914" style="stop-color:#B82025"/>
							<stop  offset="0.2844" style="stop-color:#EF5254"/>
							<stop  offset="0.9399" style="stop-color:#EE4344"/>
							<stop  offset="0.9566" style="stop-color:#DC3437"/>
							<stop  offset="0.9774" style="stop-color:#CB262B"/>
							<stop  offset="0.9931" style="stop-color:#C52127"/>
						</linearGradient>
						<polygon class="st39" points="224.58,56.54 244.95,56.54 244.95,28.09 224.58,28.09 						"/>
						<path class="st21" d="M224.58,28.09c0,0-1.7,15.5-4.49,19.99l0.49,5.95c0,0,3.04-0.44,4.01,2.51L224.58,28.09L224.58,28.09z"
							/>
						<g>
							<path class="st8" d="M208.57,37.09L208.57,37.09c0.22,0.09,0.39,0.98,0.39,2.07c0,1.14-0.19,2.07-0.42,2.07
								c-0.02,0-0.6-0.02-0.6-0.02v-4.23L208.57,37.09z"/>
							<ellipse class="st9" cx="207.94" cy="39.09" rx="0.42" ry="2.11"/>
						</g>
					</g>
				</g>
				<g>
					
						<linearGradient id="SVGID_27_" gradientUnits="userSpaceOnUse" x1="55.3447" y1="90.4689" x2="56.4356" y2="-0.0772" gradientTransform="matrix(1 0 0 -1 0 192.1856)">
						<stop  offset="0.0229" style="stop-color:#EF5254"/>
						<stop  offset="0.9193" style="stop-color:#EE4344"/>
						<stop  offset="0.9424" style="stop-color:#DC3437"/>
						<stop  offset="0.9713" style="stop-color:#CB262B"/>
						<stop  offset="0.9931" style="stop-color:#C52127"/>
					</linearGradient>
					<rect x="0.08" y="112.95" class="st40" width="111.54" height="61.41"/>
					
						<linearGradient id="SVGID_28_" gradientUnits="userSpaceOnUse" x1="56.5586" y1="100.8991" x2="55.7015" y2="37.4723" gradientTransform="matrix(1 0 0 -1 0 192.1856)">
						<stop  offset="0.1497" style="stop-color:#B82025"/>
						<stop  offset="0.4035" style="stop-color:#EF5254"/>
						<stop  offset="0.9399" style="stop-color:#EE4344"/>
						<stop  offset="0.9566" style="stop-color:#DC3437"/>
						<stop  offset="0.9774" style="stop-color:#CB262B"/>
						<stop  offset="0.9931" style="stop-color:#C52127"/>
					</linearGradient>
					<path class="st41" d="M0.08,112.95L4.8,98.27h107.85l-1.04,14.68C111.61,112.95,0.31,113.39,0.08,112.95z"/>
					
						<linearGradient id="SVGID_29_" gradientUnits="userSpaceOnUse" x1="55.9321" y1="30.2267" x2="56.2049" y2="-9.3201" gradientTransform="matrix(1 0 0 -1 0 192.1856)">
						<stop  offset="0.2117" style="stop-color:#EF5254"/>
						<stop  offset="0.2253" style="stop-color:#EE4344"/>
						<stop  offset="0.4656" style="stop-color:#DC3437"/>
						<stop  offset="0.7659" style="stop-color:#CB262B"/>
						<stop  offset="0.9931" style="stop-color:#C52127"/>
					</linearGradient>
					<polygon class="st42" points="0.08,174.36 4.59,185.18 112.03,185.18 111.61,174.36 					"/>
					
						<linearGradient id="SVGID_30_" gradientUnits="userSpaceOnUse" x1="113.4808" y1="93.9119" x2="114.8444" y2="-12.4512" gradientTransform="matrix(1 0 0 -1 0 192.1856)">
						<stop  offset="0.1497" style="stop-color:#B82025"/>
						<stop  offset="0.8627" style="stop-color:#EF5254"/>
						<stop  offset="0.9399" style="stop-color:#EE4344"/>
						<stop  offset="0.9566" style="stop-color:#DC3437"/>
						<stop  offset="0.9774" style="stop-color:#CB262B"/>
						<stop  offset="0.9931" style="stop-color:#C52127"/>
					</linearGradient>
					<polygon class="st43" points="111.61,112.95 112.65,98.28 114.1,98.66 116.55,115.66 116.6,164.71 115.14,178.61 
						112.03,185.18 111.61,174.36 					"/>
				</g>
				<g>
					
						<linearGradient id="SVGID_31_" gradientUnits="userSpaceOnUse" x1="1631.2271" y1="90.4689" x2="1632.318" y2="-0.0773" gradientTransform="matrix(-1 0 0 -1 1875.9624 192.1856)">
						<stop  offset="0.0229" style="stop-color:#EF5254"/>
						<stop  offset="0.9193" style="stop-color:#EE4344"/>
						<stop  offset="0.9424" style="stop-color:#DC3437"/>
						<stop  offset="0.9713" style="stop-color:#CB262B"/>
						<stop  offset="0.9931" style="stop-color:#C52127"/>
					</linearGradient>
					<polygon class="st44" points="188.46,174.36 300,174.36 300,112.95 188.46,112.95 					"/>
					
						<linearGradient id="SVGID_32_" gradientUnits="userSpaceOnUse" x1="1632.441" y1="100.8992" x2="1631.584" y2="37.4724" gradientTransform="matrix(-1 0 0 -1 1875.9624 192.1856)">
						<stop  offset="0.1497" style="stop-color:#B82025"/>
						<stop  offset="0.4035" style="stop-color:#EF5254"/>
						<stop  offset="0.9399" style="stop-color:#EE4344"/>
						<stop  offset="0.9566" style="stop-color:#DC3437"/>
						<stop  offset="0.9774" style="stop-color:#CB262B"/>
						<stop  offset="0.9931" style="stop-color:#C52127"/>
					</linearGradient>
					<path class="st45" d="M300,112.95l-4.72-14.68H187.43l1.04,14.68C188.46,112.95,299.76,113.39,300,112.95z"/>
					
						<linearGradient id="SVGID_33_" gradientUnits="userSpaceOnUse" x1="1631.8145" y1="30.2267" x2="1632.0873" y2="-9.3201" gradientTransform="matrix(-1 0 0 -1 1875.9624 192.1856)">
						<stop  offset="0.2117" style="stop-color:#EF5254"/>
						<stop  offset="0.2253" style="stop-color:#EE4344"/>
						<stop  offset="0.4656" style="stop-color:#DC3437"/>
						<stop  offset="0.7659" style="stop-color:#CB262B"/>
						<stop  offset="0.9931" style="stop-color:#C52127"/>
					</linearGradient>
					<polygon class="st46" points="300,174.36 295.49,185.18 188.05,185.18 188.46,174.36 					"/>
					
						<linearGradient id="SVGID_34_" gradientUnits="userSpaceOnUse" x1="1689.3732" y1="93.912" x2="1690.7368" y2="-12.4511" gradientTransform="matrix(-1 0 0 -1 1875.9624 192.1856)">
						<stop  offset="0.1497" style="stop-color:#B82025"/>
						<stop  offset="0.8627" style="stop-color:#EF5254"/>
						<stop  offset="0.9399" style="stop-color:#EE4344"/>
						<stop  offset="0.9566" style="stop-color:#DC3437"/>
						<stop  offset="0.9774" style="stop-color:#CB262B"/>
						<stop  offset="0.9931" style="stop-color:#C52127"/>
					</linearGradient>
					<polygon class="st47" points="188.46,112.95 187.43,98.28 185.97,98.66 183.52,115.66 183.48,164.71 184.93,178.61 
						188.05,185.18 188.46,174.36 					"/>
				</g>
			</g>
			
				<linearGradient id="SVGID_35_" gradientUnits="userSpaceOnUse" x1="170.1442" y1="43.6207" x2="169.9331" y2="20.1962" gradientTransform="matrix(1 0 0 -1 0 192.1856)">
				<stop  offset="0.102" style="stop-color:#575757"/>
				<stop  offset="0.544" style="stop-color:#FFFFFF"/>
				<stop  offset="0.766" style="stop-color:#929497"/>
				<stop  offset="1" style="stop-color:#3A3A3A"/>
			</linearGradient>
			<polygon class="st48" points="168.62,164.6 171.49,164.6 171.49,150.2 168.62,152.31 			"/>
			
				<linearGradient id="SVGID_36_" gradientUnits="userSpaceOnUse" x1="130.0124" y1="43.982" x2="129.8014" y2="20.5575" gradientTransform="matrix(1 0 0 -1 0 192.1856)">
				<stop  offset="0.102" style="stop-color:#575757"/>
				<stop  offset="0.544" style="stop-color:#FFFFFF"/>
				<stop  offset="0.766" style="stop-color:#929497"/>
				<stop  offset="1" style="stop-color:#3A3A3A"/>
			</linearGradient>
			<polygon class="st49" points="128.49,164.6 131.35,164.6 131.35,150.2 128.49,152.31 			"/>
			<polygon class="st50" points="163.39,178.89 133.12,178 132.7,166.02 166.81,166.02 			"/>
			<path class="st51" d="M135.64,169.47c0,0,6.49,4.08,16.61,3.24c0,0,7.82-1.24,11.21-3.01l0.06,1.23c0,0-7.24,3.18-16.53,2.89
				c0,0-6.29-0.54-11.6-3.19L135.64,169.47z"/>
			
				<linearGradient id="SVGID_37_" gradientUnits="userSpaceOnUse" x1="142.37" y1="22.3717" x2="156.6011" y2="22.3717" gradientTransform="matrix(1 0 0 -1 0 192.1856)">
				<stop  offset="0.102" style="stop-color:#575757"/>
				<stop  offset="0.544" style="stop-color:#FFFFFF"/>
				<stop  offset="0.766" style="stop-color:#929497"/>
				<stop  offset="1" style="stop-color:#3A3A3A"/>
			</linearGradient>
			<path class="st52" d="M142.37,168.14c0,0,0.16,1.19,0.25,1.57c0.24,1.02,0.98,1.62,4.03,1.72c0,0,4.28,0.49,7.86-0.25
				c0,0,1.94-0.42,2.06-1.28c0.07-0.46,0-1.87,0-1.87S146.74,168.54,142.37,168.14z"/>
			
				<linearGradient id="SVGID_38_" gradientUnits="userSpaceOnUse" x1="150.0925" y1="3.624" x2="148.7195" y2="43.4407" gradientTransform="matrix(1 0 0 -1 0 192.1856)">
				<stop  offset="0.102" style="stop-color:#575757"/>
				<stop  offset="0.544" style="stop-color:#FFFFFF"/>
				<stop  offset="0.766" style="stop-color:#929497"/>
				<stop  offset="1" style="stop-color:#3A3A3A"/>
			</linearGradient>
			<path class="st53" d="M173.14,168.41l-1.53,0.52l-0.13-6.75l-8.16,4.14l0.23,5.37l-9.7,3.32l0.22,3.39l-1.83-0.01l-0.62-3.35
				l-4.68,0.13l-0.18,3.17l-1.56-0.04l0.02-3.5l-9.64-2.91v-4.03l-8.3-1.01l0.11,2.02l-1.56-0.61c0,0-0.8,4.53-0.13,6.55
				c0,0,0.22,1.12,2.47,1.68l16.82,6.72l9.64-0.11c0,0,9.87-4.59,17.16-6.61c0,0,1.79-0.56,1.91-2.69L173.14,168.41z"/>
			<polygon class="st54" points="144.83,178.51 144.29,183.57 154.58,183.47 154,178.45 152.17,178.64 151.54,175.29 146.86,175.43 
				146.68,178.59 			"/>
			
				<linearGradient id="SVGID_39_" gradientUnits="userSpaceOnUse" x1="117.2718" y1="27.5175" x2="169.4044" y2="27.5175" gradientTransform="matrix(1 0 0 -1 0 192.1856)">
				<stop  offset="0.102" style="stop-color:#575757"/>
				<stop  offset="0.544" style="stop-color:#FFFFFF"/>
				<stop  offset="0.766" style="stop-color:#929497"/>
				<stop  offset="1" style="stop-color:#3A3A3A"/>
			</linearGradient>
			<path class="st55" d="M169.02,161.03c0,0,1.35,3.7-1.01,4.93c0,0-3.81,3.7-34.09,1.79c0,0-14.47-1.12-16.26-4.15
				c0,0-1.26-1.9,0.76-2.56L169.02,161.03z"/>
			<g>
				<g>
					<path class="st56" d="M149.05,166.22c-15.69,0-31.55-3.55-31.78-3.61v-0.2c0.35,0.08,34.92,7.76,52.11,0.41l0.02,0.23
						C163.84,165.43,156.5,166.22,149.05,166.22z"/>
				</g>
			</g>
			<path class="st50" d="M118.67,160.92c0,0,7.96,0.11,11.44-1.12c0,0,5.72-2.24,11.55-2.35c0,0,12.45-0.9,19.62,0.45
				c0,0,8.63,0.9,7.74,3.14c0,0-0.22,2.58-21.75,2.8c0,0-15.47,0.11-23.21-1.68C124.05,162.15,116.99,161.37,118.67,160.92z"/>
			<rect x="148.55" y="146.5" class="st57" width="1.8" height="35.75"/>
			<polygon class="st12" points="148.54,146.5 148.98,145.1 149.95,145.1 150.34,146.5 			"/>
		</g>
	</g>
</g>
</svg>
