<?xml version="1.0" encoding="utf-8"?>
<!-- Generator: Adobe Illustrator 24.2.3, SVG Export Plug-In . SVG Version: 6.00 Build 0)  -->
<svg version="1.1" id="Layer_1" xmlns="http://www.w3.org/2000/svg" xmlns:xlink="http://www.w3.org/1999/xlink" x="0px" y="0px"
	 viewBox="0 0 300 667.5" style="enable-background:new 0 0 300 667.5;" xml:space="preserve">
<style type="text/css">
	.st0{fill:url(#Rectangle_23013_1_);}
	.st1{fill:#CF4D27;}
	.st2{fill:url(#Path_6076_1_);}
	.st3{fill:#993630;}
	.st4{fill:url(#Rectangle_23015_1_);}
	.st5{fill:url(#Path_6077_1_);}
	.st6{opacity:0.5;}
	.st7{fill:#636464;}
	.st8{fill:url(#Path_6080_1_);}
	.st9{fill:url(#Path_6083_1_);}
	.st10{fill:url(#Rectangle_23130_1_);}
	.st11{fill:url(#Path_6086_1_);}
	.st12{fill:#E85625;}
	.st13{opacity:0.5;fill:#F7714D;}
	.st14{fill:#918E89;}
	.st15{fill:#7B7975;}
	.st16{fill:#B3AEA8;}
	.st17{fill:#5C5D5D;}
	.st18{fill:url(#Path_6099_1_);}
	.st19{fill:url(#Path_6103_1_);}
	.st20{fill:url(#Path_6105_1_);}
	.st21{fill:url(#Path_6106_1_);}
	.st22{fill:url(#Path_6108_1_);}
	.st23{fill:url(#Subtraction_1_1_);}
	.st24{fill:url(#Rectangle_23197_1_);}
	.st25{fill:#262626;}
	.st26{fill:url(#Ellipse_394_1_);}
	.st27{fill:url(#Path_6326_1_);}
	.st28{fill:url(#Path_6327_1_);}
	.st29{fill:url(#Path_6110_1_);}
	.st30{fill:url(#Path_6111_1_);}
	.st31{fill:url(#Path_6112_1_);}
	.st32{fill:url(#Path_6113_1_);}
	.st33{fill:url(#Path_6114_1_);}
	.st34{fill:url(#Rectangle_23199_1_);}
	.st35{fill:url(#Path_6115_1_);}
	.st36{fill:url(#Path_6116_1_);}
	.st37{fill:url(#Path_6117_1_);}
	.st38{fill:url(#Rectangle_23200_1_);}
	.st39{fill:url(#Path_6118_1_);}
	.st40{fill:url(#Path_6119_1_);}
	.st41{fill:url(#Rectangle_23201_1_);}
	.st42{fill:#E75225;}
	.st43{fill:#5A230E;}
	.st44{fill:url(#Path_6127_1_);}
	.st45{fill:url(#Path_6128_1_);}
	.st46{fill:url(#Path_6129_1_);}
	.st47{fill:url(#Path_6130_1_);}
	.st48{fill:url(#Path_6328_1_);}
	.st49{fill:url(#Path_6329_1_);}
</style>
<g id="Group_5212" transform="translate(-154.024 -36.002)">
	
		<linearGradient id="Rectangle_23013_1_" gradientUnits="userSpaceOnUse" x1="-2505.0344" y1="-6063.5317" x2="-2509.4995" y2="-6064.3477" gradientTransform="matrix(10.164 0 0 39.865 25779.1191 242387.2344)">
		<stop  offset="4.000000e-03" style="stop-color:#000000"/>
		<stop  offset="1" style="stop-color:#787879"/>
	</linearGradient>
	<rect id="Rectangle_23013" x="292.51" y="613.45" class="st0" width="19.06" height="79.35"/>
	<g id="Group_5211" transform="translate(154.024 36.002)">
		<path id="Path_6075" class="st1" d="M20.18,495.22V273.74c0.01-12.12,9.27-21.94,20.69-21.94h217.74
			c11.42,0,20.68,9.82,20.69,21.94v221.48L20.18,495.22z"/>
		
			<linearGradient id="Path_6076_1_" gradientUnits="userSpaceOnUse" x1="-2845.9456" y1="-6072.4316" x2="-2845.9456" y2="-6070.1187" gradientTransform="matrix(134.9634 0 0 106.294 384248.2188 645735.5)">
			<stop  offset="0" style="stop-color:#3B3B3B"/>
			<stop  offset="0.043" style="stop-color:#49494A"/>
			<stop  offset="0.122" style="stop-color:#5F6060"/>
			<stop  offset="0.21" style="stop-color:#6E6E6F"/>
			<stop  offset="0.313" style="stop-color:#787878"/>
			<stop  offset="0.466" style="stop-color:#7B7B7B"/>
			<stop  offset="0.54" style="stop-color:#545554"/>
			<stop  offset="0.618" style="stop-color:#323232"/>
			<stop  offset="0.661" style="stop-color:#262626"/>
		</linearGradient>
		<path id="Path_6076" class="st2" d="M23.21,512.91V291.44c-0.13-11.98,8.91-21.8,20.2-21.94h212.65
			c11.29,0.14,20.33,9.96,20.2,21.94l0,0v221.48H23.21V512.91z"/>
		<rect id="Rectangle_23014" x="138.6" class="st3" width="22.27" height="5.49"/>
		
			<linearGradient id="Rectangle_23015_1_" gradientUnits="userSpaceOnUse" x1="-2836.9751" y1="-6070.48" x2="-2836.9751" y2="-6068.9595" gradientTransform="matrix(32.606 0 0 26.585 92718.3672 161461.7344)">
			<stop  offset="0" style="stop-color:#3B3B3B"/>
			<stop  offset="0.347" style="stop-color:#9B9B9B"/>
			<stop  offset="0.669" style="stop-color:#262626"/>
			<stop  offset="1" style="stop-color:#1B1C1C"/>
		</linearGradient>
		<rect id="Rectangle_23015" x="185.39" y="65.02" class="st4" width="61.14" height="52.92"/>
		<g id="Group_5161" transform="translate(126.092 11.804)">
			<g id="Group_5160">
				<rect id="Rectangle_23016" x="112.33" y="45.13" width="4.11" height="66.17"/>
				<g id="Group_5159" transform="translate(1.948)">
					
						<linearGradient id="Path_6077_1_" gradientUnits="userSpaceOnUse" x1="-3091.3257" y1="-6073.4043" x2="-3091.3257" y2="-6071.394" gradientTransform="matrix(30.352 0 0 68.308 93970.4063 414875.4375)">
						<stop  offset="0" style="stop-color:#3B3B3B"/>
						<stop  offset="0.21" style="stop-color:#6E6E6F"/>
						<stop  offset="0.388" style="stop-color:#7B7B7B"/>
						<stop  offset="0.54" style="stop-color:#444444"/>
						<stop  offset="0.898" style="stop-color:#161616"/>
						<stop  offset="1" style="stop-color:#262626"/>
					</linearGradient>
					<path id="Path_6077" class="st5" d="M158.29,147.66H126.7c-6.98,0-12.67-5.23-12.67-11.7V23.4c0-6.46,5.68-11.71,12.67-11.71
						h31.59c6.98,0,12.66,5.25,12.66,11.71v112.55C170.94,142.42,165.27,147.66,158.29,147.66z"/>
					<g id="Group_5153" transform="translate(0.246 5.291)" class="st6">
						<path id="Path_6078" class="st7" d="M115.65,130.66h12.65v7.88h-9.71C116.7,136.41,115.66,133.59,115.65,130.66z"/>
						<rect id="Rectangle_23017" x="114.25" y="111.71" class="st7" width="14.05" height="7.89"/>
						<rect id="Rectangle_23018" x="114.25" y="92.75" class="st7" width="14.05" height="7.89"/>
						<rect id="Rectangle_23019" x="114.25" y="73.8" class="st7" width="14.05" height="7.88"/>
						<rect id="Rectangle_23020" x="114.25" y="54.84" class="st7" width="14.05" height="7.89"/>
						<rect id="Rectangle_23021" x="114.25" y="35.89" class="st7" width="14.05" height="7.89"/>
						<rect id="Rectangle_23022" x="114.25" y="16.93" class="st7" width="14.05" height="7.89"/>
					</g>
					<g id="Group_5154" transform="translate(21.762 5.291)" class="st6">
						<path id="Path_6079" class="st7" d="M133.08,138.55v-7.88h16.1c-0.05,3.01-1.26,5.86-3.36,7.88H133.08z"/>
						<rect id="Rectangle_23023" x="133.08" y="111.71" class="st7" width="16.1" height="7.89"/>
						<rect id="Rectangle_23024" x="133.08" y="92.75" class="st7" width="16.1" height="7.89"/>
						<rect id="Rectangle_23025" x="133.08" y="73.8" class="st7" width="16.1" height="7.88"/>
						<rect id="Rectangle_23026" x="133.08" y="54.84" class="st7" width="16.1" height="7.89"/>
						<rect id="Rectangle_23027" x="133.08" y="35.89" class="st7" width="16.1" height="7.89"/>
						<rect id="Rectangle_23028" x="133.08" y="16.93" class="st7" width="16.1" height="7.89"/>
					</g>
					<g id="Group_5155" transform="translate(10.883 9.527)" class="st6">
						<rect id="Rectangle_23029" x="123.56" y="115.9" class="st7" width="16.11" height="7.89"/>
						<rect id="Rectangle_23030" x="123.56" y="96.94" class="st7" width="16.11" height="7.89"/>
						<rect id="Rectangle_23031" x="123.56" y="77.98" class="st7" width="16.11" height="7.9"/>
						<rect id="Rectangle_23032" x="123.56" y="59.04" class="st7" width="16.11" height="7.89"/>
						<rect id="Rectangle_23033" x="123.56" y="40.07" class="st7" width="16.11" height="7.89"/>
						<rect id="Rectangle_23034" x="123.56" y="21.13" class="st7" width="16.11" height="7.89"/>
					</g>
					<g id="Group_5156" transform="translate(10.883 5.291)" class="st6">
						<rect id="Rectangle_23035" x="123.56" y="130.66" class="st7" width="16.11" height="7.89"/>
						<rect id="Rectangle_23036" x="123.56" y="111.71" class="st7" width="16.11" height="7.89"/>
						<rect id="Rectangle_23037" x="123.56" y="92.75" class="st7" width="16.11" height="7.89"/>
						<rect id="Rectangle_23038" x="123.56" y="73.8" class="st7" width="16.11" height="7.88"/>
						<rect id="Rectangle_23039" x="123.56" y="54.84" class="st7" width="16.11" height="7.89"/>
						<rect id="Rectangle_23040" x="123.56" y="35.89" class="st7" width="16.11" height="7.89"/>
						<rect id="Rectangle_23041" x="123.56" y="16.93" class="st7" width="16.11" height="7.89"/>
					</g>
					<g id="Group_5157" transform="translate(21.762 9.527)" class="st6">
						<rect id="Rectangle_23042" x="133.08" y="115.9" class="st7" width="16.1" height="7.89"/>
						<rect id="Rectangle_23043" x="133.08" y="96.94" class="st7" width="16.1" height="7.89"/>
						<rect id="Rectangle_23044" x="133.08" y="77.98" class="st7" width="16.1" height="7.9"/>
						<rect id="Rectangle_23045" x="133.08" y="59.04" class="st7" width="16.1" height="7.89"/>
						<rect id="Rectangle_23046" x="133.08" y="40.07" class="st7" width="16.1" height="7.89"/>
						<rect id="Rectangle_23047" x="133.08" y="21.13" class="st7" width="16.1" height="7.89"/>
					</g>
					<g id="Group_5158" transform="translate(0.172 9.527)" class="st6">
						<rect id="Rectangle_23048" x="114.19" y="115.9" class="st7" width="14.18" height="7.89"/>
						<rect id="Rectangle_23049" x="114.19" y="96.94" class="st7" width="14.18" height="7.89"/>
						<rect id="Rectangle_23050" x="114.19" y="77.98" class="st7" width="14.18" height="7.9"/>
						<rect id="Rectangle_23051" x="114.19" y="59.04" class="st7" width="14.18" height="7.89"/>
						<rect id="Rectangle_23052" x="114.19" y="40.07" class="st7" width="14.18" height="7.89"/>
						<rect id="Rectangle_23053" x="114.19" y="21.13" class="st7" width="14.18" height="7.89"/>
					</g>
				</g>
			</g>
		</g>
		<g id="Group_5170" transform="translate(127.699 193.269)">
			<g id="Group_5169">
				<rect id="Rectangle_23054" x="111.74" y="299.17" width="4.12" height="66.17"/>
				<g id="Group_5168" transform="translate(1.947)">
					
						<linearGradient id="Path_6080_1_" gradientUnits="userSpaceOnUse" x1="-3094.5579" y1="-6069.6855" x2="-3094.5579" y2="-6067.6753" gradientTransform="matrix(30.354 0 0 68.307 94074.1094 414869.4375)">
						<stop  offset="0" style="stop-color:#3B3B3B"/>
						<stop  offset="0.21" style="stop-color:#6E6E6F"/>
						<stop  offset="0.388" style="stop-color:#7B7B7B"/>
						<stop  offset="0.54" style="stop-color:#444444"/>
						<stop  offset="0.898" style="stop-color:#161616"/>
						<stop  offset="1" style="stop-color:#262626"/>
					</linearGradient>
					<path id="Path_6080" class="st8" d="M157.7,401.7h-31.59c-6.98,0-12.67-5.23-12.67-11.7V277.45c0-6.46,5.68-11.71,12.67-11.71
						h31.59c6.98,0,12.66,5.25,12.66,11.71V390C170.35,396.47,164.68,401.7,157.7,401.7z"/>
					<g id="Group_5162" transform="translate(0.248 5.292)">
						<path id="Path_6081" class="st7" d="M115.05,384.71h12.65v7.88h-9.71C116.11,390.45,115.06,387.63,115.05,384.71z"/>
						<rect id="Rectangle_23055" x="113.66" y="365.75" class="st7" width="14.05" height="7.89"/>
						<rect id="Rectangle_23056" x="113.66" y="346.8" class="st7" width="14.05" height="7.89"/>
						<rect id="Rectangle_23057" x="113.66" y="327.85" class="st7" width="14.05" height="7.88"/>
						<rect id="Rectangle_23058" x="113.66" y="308.89" class="st7" width="14.05" height="7.89"/>
						<rect id="Rectangle_23059" x="113.66" y="289.94" class="st7" width="14.05" height="7.89"/>
						<rect id="Rectangle_23060" x="113.66" y="270.98" class="st7" width="14.05" height="7.89"/>
					</g>
					<g id="Group_5163" transform="translate(21.763 5.292)" class="st6">
						<path id="Path_6082" class="st7" d="M132.48,392.59v-7.88h16.11c-0.05,3.01-1.26,5.86-3.36,7.88H132.48z"/>
						<rect id="Rectangle_23061" x="132.48" y="365.75" class="st7" width="16.11" height="7.89"/>
						<rect id="Rectangle_23062" x="132.48" y="346.8" class="st7" width="16.11" height="7.89"/>
						<rect id="Rectangle_23063" x="132.48" y="327.85" class="st7" width="16.11" height="7.88"/>
						<rect id="Rectangle_23064" x="132.48" y="308.89" class="st7" width="16.11" height="7.89"/>
						<rect id="Rectangle_23065" x="132.48" y="289.94" class="st7" width="16.11" height="7.89"/>
						<rect id="Rectangle_23066" x="132.48" y="270.98" class="st7" width="16.11" height="7.89"/>
					</g>
					<g id="Group_5164" transform="translate(10.885 9.527)">
						<rect id="Rectangle_23067" x="122.96" y="369.94" class="st7" width="16.11" height="7.89"/>
						<rect id="Rectangle_23068" x="122.96" y="350.99" class="st7" width="16.11" height="7.89"/>
						<rect id="Rectangle_23069" x="122.96" y="332.02" class="st7" width="16.11" height="7.9"/>
						<rect id="Rectangle_23070" x="122.96" y="313.08" class="st7" width="16.11" height="7.89"/>
						<rect id="Rectangle_23071" x="122.96" y="294.12" class="st7" width="16.11" height="7.89"/>
						<rect id="Rectangle_23072" x="122.96" y="275.17" class="st7" width="16.11" height="7.89"/>
					</g>
					<g id="Group_5165" transform="translate(10.885 5.292)">
						<rect id="Rectangle_23073" x="122.96" y="384.71" class="st7" width="16.11" height="7.88"/>
						<rect id="Rectangle_23074" x="122.96" y="365.75" class="st7" width="16.11" height="7.89"/>
						<rect id="Rectangle_23075" x="122.96" y="346.8" class="st7" width="16.11" height="7.89"/>
						<rect id="Rectangle_23076" x="122.96" y="327.85" class="st7" width="16.11" height="7.88"/>
						<rect id="Rectangle_23077" x="122.96" y="308.89" class="st7" width="16.11" height="7.89"/>
						<rect id="Rectangle_23078" x="122.96" y="289.94" class="st7" width="16.11" height="7.89"/>
						<rect id="Rectangle_23079" x="122.96" y="270.98" class="st7" width="16.11" height="7.89"/>
					</g>
					<g id="Group_5166" transform="translate(21.763 9.527)" class="st6">
						<rect id="Rectangle_23080" x="132.48" y="369.94" class="st7" width="16.11" height="7.89"/>
						<rect id="Rectangle_23081" x="132.48" y="350.99" class="st7" width="16.11" height="7.89"/>
						<rect id="Rectangle_23082" x="132.48" y="332.02" class="st7" width="16.11" height="7.9"/>
						<rect id="Rectangle_23083" x="132.48" y="313.08" class="st7" width="16.11" height="7.89"/>
						<rect id="Rectangle_23084" x="132.48" y="294.12" class="st7" width="16.11" height="7.89"/>
						<rect id="Rectangle_23085" x="132.48" y="275.17" class="st7" width="16.11" height="7.89"/>
					</g>
					<g id="Group_5167" transform="translate(0.172 9.527)">
						<rect id="Rectangle_23086" x="113.59" y="369.94" class="st7" width="14.19" height="7.89"/>
						<rect id="Rectangle_23087" x="113.59" y="350.99" class="st7" width="14.19" height="7.89"/>
						<rect id="Rectangle_23088" x="113.59" y="332.02" class="st7" width="14.19" height="7.9"/>
						<rect id="Rectangle_23089" x="113.59" y="313.08" class="st7" width="14.19" height="7.89"/>
						<rect id="Rectangle_23090" x="113.59" y="294.12" class="st7" width="14.19" height="7.89"/>
						<rect id="Rectangle_23091" x="113.59" y="275.17" class="st7" width="14.19" height="7.89"/>
					</g>
				</g>
			</g>
		</g>
		<g id="Group_5179" transform="translate(0 193.269)">
			<g id="Group_5178">
				<rect id="Rectangle_23092" x="56.45" y="299.17" width="4.12" height="66.17"/>
				<g id="Group_5177">
					
						<linearGradient id="Path_6083_1_" gradientUnits="userSpaceOnUse" x1="-2839.0032" y1="-6069.6855" x2="-2839.0032" y2="-6067.6753" gradientTransform="matrix(30.354 0 0 68.307 86203.5625 414869.4375)">
						<stop  offset="0" style="stop-color:#3B3B3B"/>
						<stop  offset="0.21" style="stop-color:#6E6E6F"/>
						<stop  offset="0.388" style="stop-color:#7B7B7B"/>
						<stop  offset="0.54" style="stop-color:#444444"/>
						<stop  offset="0.898" style="stop-color:#161616"/>
						<stop  offset="1" style="stop-color:#262626"/>
					</linearGradient>
					<path id="Path_6083" class="st9" d="M12.66,401.7h31.59c6.98,0,12.67-5.23,12.67-11.7V277.45c0-6.46-5.68-11.71-12.67-11.71
						H12.66C5.67,265.74,0,270.99,0,277.45V390C0,396.47,5.67,401.7,12.66,401.7z"/>
					<g id="Group_5171" transform="translate(22.616 5.292)">
						<path id="Path_6084" class="st7" d="M32.44,384.71H19.79v7.88h9.71C31.38,390.45,32.43,387.63,32.44,384.71z"/>
						<rect id="Rectangle_23093" x="19.79" y="365.75" class="st7" width="14.05" height="7.89"/>
						<rect id="Rectangle_23094" x="19.79" y="346.8" class="st7" width="14.05" height="7.89"/>
						<rect id="Rectangle_23095" x="19.79" y="327.85" class="st7" width="14.05" height="7.88"/>
						<rect id="Rectangle_23096" x="19.79" y="308.89" class="st7" width="14.05" height="7.89"/>
						<rect id="Rectangle_23097" x="19.79" y="289.94" class="st7" width="14.05" height="7.89"/>
						<rect id="Rectangle_23098" x="19.79" y="270.98" class="st7" width="14.05" height="7.89"/>
					</g>
					<g id="Group_5172" transform="translate(0 5.292)" class="st6">
						<path id="Path_6085" class="st7" d="M16.11,392.59v-7.88H0c0.05,3.01,1.26,5.86,3.37,7.88H16.11z"/>
						<rect id="Rectangle_23099" x="0" y="365.75" class="st7" width="16.11" height="7.89"/>
						<rect id="Rectangle_23100" x="0" y="346.8" class="st7" width="16.11" height="7.89"/>
						<rect id="Rectangle_23101" x="0" y="327.85" class="st7" width="16.11" height="7.88"/>
						<rect id="Rectangle_23102" x="0" y="308.89" class="st7" width="16.11" height="7.89"/>
						<rect id="Rectangle_23103" x="0" y="289.94" class="st7" width="16.11" height="7.89"/>
						<rect id="Rectangle_23104" x="0" y="270.98" class="st7" width="16.11" height="7.89"/>
					</g>
					<g id="Group_5173" transform="translate(10.88 9.527)">
						<rect id="Rectangle_23105" x="9.52" y="369.94" class="st7" width="16.11" height="7.89"/>
						<rect id="Rectangle_23106" x="9.52" y="350.99" class="st7" width="16.11" height="7.89"/>
						<rect id="Rectangle_23107" x="9.52" y="332.02" class="st7" width="16.11" height="7.9"/>
						<rect id="Rectangle_23108" x="9.52" y="313.08" class="st7" width="16.11" height="7.89"/>
						<rect id="Rectangle_23109" x="9.52" y="294.12" class="st7" width="16.11" height="7.89"/>
						<rect id="Rectangle_23110" x="9.52" y="275.17" class="st7" width="16.11" height="7.89"/>
					</g>
					<g id="Group_5174" transform="translate(10.88 5.292)">
						<rect id="Rectangle_23111" x="9.52" y="384.71" class="st7" width="16.11" height="7.88"/>
						<rect id="Rectangle_23112" x="9.52" y="365.75" class="st7" width="16.11" height="7.89"/>
						<rect id="Rectangle_23113" x="9.52" y="346.8" class="st7" width="16.11" height="7.89"/>
						<rect id="Rectangle_23114" x="9.52" y="327.85" class="st7" width="16.11" height="7.88"/>
						<rect id="Rectangle_23115" x="9.52" y="308.89" class="st7" width="16.11" height="7.89"/>
						<rect id="Rectangle_23116" x="9.52" y="289.94" class="st7" width="16.11" height="7.89"/>
						<rect id="Rectangle_23117" x="9.52" y="270.98" class="st7" width="16.11" height="7.89"/>
					</g>
					<g id="Group_5175" transform="translate(0.001 9.527)" class="st6">
						<rect id="Rectangle_23118" x="0" y="369.94" class="st7" width="16.11" height="7.89"/>
						<rect id="Rectangle_23119" x="0" y="350.99" class="st7" width="16.11" height="7.89"/>
						<rect id="Rectangle_23120" x="0" y="332.02" class="st7" width="16.11" height="7.9"/>
						<rect id="Rectangle_23121" x="0" y="313.08" class="st7" width="16.11" height="7.89"/>
						<rect id="Rectangle_23122" x="0" y="294.12" class="st7" width="16.11" height="7.89"/>
						<rect id="Rectangle_23123" x="0" y="275.17" class="st7" width="16.11" height="7.89"/>
					</g>
					<g id="Group_5176" transform="translate(22.616 9.527)">
						<rect id="Rectangle_23124" x="19.79" y="369.94" class="st7" width="14.19" height="7.89"/>
						<rect id="Rectangle_23125" x="19.79" y="350.99" class="st7" width="14.19" height="7.89"/>
						<rect id="Rectangle_23126" x="19.79" y="332.02" class="st7" width="14.19" height="7.9"/>
						<rect id="Rectangle_23127" x="19.79" y="313.08" class="st7" width="14.19" height="7.89"/>
						<rect id="Rectangle_23128" x="19.79" y="294.12" class="st7" width="14.19" height="7.89"/>
						<rect id="Rectangle_23129" x="19.79" y="275.17" class="st7" width="14.19" height="7.89"/>
					</g>
				</g>
			</g>
		</g>
		
			<linearGradient id="Rectangle_23130_1_" gradientUnits="userSpaceOnUse" x1="-2838.8867" y1="-6070.48" x2="-2838.8867" y2="-6068.9595" gradientTransform="matrix(32.606 0 0 26.585 92647.125 161461.7344)">
			<stop  offset="0" style="stop-color:#3B3B3B"/>
			<stop  offset="0.347" style="stop-color:#9B9B9B"/>
			<stop  offset="0.669" style="stop-color:#262626"/>
			<stop  offset="1" style="stop-color:#1B1C1C"/>
		</linearGradient>
		<rect id="Rectangle_23130" x="51.82" y="65.02" class="st10" width="61.14" height="52.92"/>
		<g id="Group_5188" transform="translate(0.727 11.804)">
			<g id="Group_5187">
				<rect id="Rectangle_23131" x="57.09" y="45.13" width="4.11" height="66.17"/>
				<g id="Group_5186">
					
						<linearGradient id="Path_6086_1_" gradientUnits="userSpaceOnUse" x1="-2840.4348" y1="-6073.4043" x2="-2840.4348" y2="-6071.394" gradientTransform="matrix(30.351 0 0 68.308 86239.125 414875.4375)">
						<stop  offset="0" style="stop-color:#3B3B3B"/>
						<stop  offset="0.21" style="stop-color:#6E6E6F"/>
						<stop  offset="0.388" style="stop-color:#7B7B7B"/>
						<stop  offset="0.54" style="stop-color:#444444"/>
						<stop  offset="0.898" style="stop-color:#161616"/>
						<stop  offset="1" style="stop-color:#262626"/>
					</linearGradient>
					<path id="Path_6086" class="st11" d="M13.29,147.66h31.59c6.98,0,12.66-5.23,12.66-11.7V23.4c0-6.46-5.68-11.71-12.66-11.71
						H13.29c-6.98,0-12.66,5.25-12.66,11.71v112.55C0.64,142.42,6.31,147.66,13.29,147.66z"/>
					<g id="Group_5180" transform="translate(22.616 5.291)" class="st6">
						<path id="Path_6087" class="st7" d="M33.07,130.66H20.42v7.88h9.71C32.01,136.41,33.06,133.59,33.07,130.66z"/>
						<rect id="Rectangle_23132" x="20.43" y="111.71" class="st7" width="14.05" height="7.89"/>
						<rect id="Rectangle_23133" x="20.43" y="92.75" class="st7" width="14.05" height="7.89"/>
						<rect id="Rectangle_23134" x="20.43" y="73.8" class="st7" width="14.05" height="7.88"/>
						<rect id="Rectangle_23135" x="20.43" y="54.84" class="st7" width="14.05" height="7.89"/>
						<rect id="Rectangle_23136" x="20.43" y="35.89" class="st7" width="14.05" height="7.89"/>
						<rect id="Rectangle_23137" x="20.43" y="16.93" class="st7" width="14.05" height="7.89"/>
					</g>
					<g id="Group_5181" transform="translate(0 5.291)" class="st6">
						<path id="Path_6088" class="st7" d="M16.74,138.55v-7.88H0.64c0.05,3.01,1.26,5.86,3.36,7.88H16.74z"/>
						<rect id="Rectangle_23138" x="0.64" y="111.71" class="st7" width="16.1" height="7.89"/>
						<rect id="Rectangle_23139" x="0.64" y="92.75" class="st7" width="16.1" height="7.89"/>
						<rect id="Rectangle_23140" x="0.64" y="73.8" class="st7" width="16.1" height="7.88"/>
						<rect id="Rectangle_23141" x="0.64" y="54.84" class="st7" width="16.1" height="7.89"/>
						<rect id="Rectangle_23142" x="0.64" y="35.89" class="st7" width="16.1" height="7.89"/>
						<rect id="Rectangle_23143" x="0.64" y="16.93" class="st7" width="16.1" height="7.89"/>
					</g>
					<g id="Group_5182" transform="translate(10.879 9.527)" class="st6">
						<rect id="Rectangle_23144" x="10.16" y="115.9" class="st7" width="16.11" height="7.89"/>
						<rect id="Rectangle_23145" x="10.16" y="96.94" class="st7" width="16.11" height="7.89"/>
						<rect id="Rectangle_23146" x="10.16" y="77.98" class="st7" width="16.11" height="7.9"/>
						<rect id="Rectangle_23147" x="10.16" y="59.04" class="st7" width="16.11" height="7.89"/>
						<rect id="Rectangle_23148" x="10.16" y="40.07" class="st7" width="16.11" height="7.89"/>
						<rect id="Rectangle_23149" x="10.16" y="21.13" class="st7" width="16.11" height="7.89"/>
					</g>
					<g id="Group_5183" transform="translate(10.879 5.291)" class="st6">
						<rect id="Rectangle_23150" x="10.16" y="130.66" class="st7" width="16.11" height="7.89"/>
						<rect id="Rectangle_23151" x="10.16" y="111.71" class="st7" width="16.11" height="7.89"/>
						<rect id="Rectangle_23152" x="10.16" y="92.75" class="st7" width="16.11" height="7.89"/>
						<rect id="Rectangle_23153" x="10.16" y="73.8" class="st7" width="16.11" height="7.88"/>
						<rect id="Rectangle_23154" x="10.16" y="54.84" class="st7" width="16.11" height="7.89"/>
						<rect id="Rectangle_23155" x="10.16" y="35.89" class="st7" width="16.11" height="7.89"/>
						<rect id="Rectangle_23156" x="10.16" y="16.93" class="st7" width="16.11" height="7.89"/>
					</g>
					<g id="Group_5184" transform="translate(0.001 9.527)" class="st6">
						<rect id="Rectangle_23157" x="0.64" y="115.9" class="st7" width="16.1" height="7.89"/>
						<rect id="Rectangle_23158" x="0.64" y="96.94" class="st7" width="16.1" height="7.89"/>
						<rect id="Rectangle_23159" x="0.64" y="77.98" class="st7" width="16.1" height="7.9"/>
						<rect id="Rectangle_23160" x="0.64" y="59.04" class="st7" width="16.1" height="7.89"/>
						<rect id="Rectangle_23161" x="0.64" y="40.07" class="st7" width="16.1" height="7.89"/>
						<rect id="Rectangle_23162" x="0.64" y="21.13" class="st7" width="16.1" height="7.89"/>
					</g>
					<g id="Group_5185" transform="translate(22.616 9.527)" class="st6">
						<rect id="Rectangle_23163" x="20.43" y="115.9" class="st7" width="14.18" height="7.89"/>
						<rect id="Rectangle_23164" x="20.43" y="96.94" class="st7" width="14.18" height="7.89"/>
						<rect id="Rectangle_23165" x="20.43" y="77.98" class="st7" width="14.18" height="7.9"/>
						<rect id="Rectangle_23166" x="20.43" y="59.04" class="st7" width="14.18" height="7.89"/>
						<rect id="Rectangle_23167" x="20.43" y="40.07" class="st7" width="14.18" height="7.89"/>
						<rect id="Rectangle_23168" x="20.43" y="21.13" class="st7" width="14.18" height="7.89"/>
					</g>
				</g>
			</g>
		</g>
		<path id="Path_6089" class="st12" d="M218.2,272.89l-4.34-27.33l0.35-217.91c0-31.92-128.44-33.4-128.44,0l0.35,217.71
			l-4.85,27.53l9.29-9.24l0.36,16.14h118.13l0.36-15.77L218.2,272.89z"/>
		<path id="Path_6090" class="st13" d="M206.32,259.46c2.66-1.55,5.64-2.37,8.68-2.4h0.68l-1.82-11.5l0.35-217.91
			c0-10.82-14.78-18.14-34.31-21.79c10.36,27.67,26.39,131.92,26.39,249.67C206.3,256.87,206.32,258.15,206.32,259.46z"/>
		<g id="Group_5189" transform="translate(94.851 2.758)">
			<path id="Path_6091" class="st14" d="M119.37,18.99c0-8.23-15.84-13.69-36.37-16.27c3.05,7.05,8.69,16.55,18.1,20.96
				c9.44,4.42,14.52,3.71,18.25,4.75L119.37,18.99z"/>
			<path id="Path_6092" class="st15" d="M119.36,21.7V19c0-8.23-15.84-13.69-36.37-16.27c0.41,0.95,0.87,1.94,1.38,2.95
				C104.17,8.32,119.28,13.7,119.36,21.7z"/>
			<path id="Path_6093" class="st16" d="M119.35,24.42c-8.25-7.9-21.88-10.01-29.91-10.52c3.1,4.2,7.09,7.55,11.65,9.79
				c9.44,4.42,14.52,3.71,18.25,4.75L119.35,24.42z"/>
		</g>
		<g id="Group_5190" transform="translate(13.355 114.059)">
			<rect id="Rectangle_23169" x="107.68" y="155.44" class="st17" width="3.2" height="243.42"/>
			<rect id="Rectangle_23170" x="98.96" y="155.44" class="st17" width="3.2" height="243.42"/>
			<rect id="Rectangle_23171" x="90.23" y="155.44" class="st17" width="3.2" height="243.42"/>
			<rect id="Rectangle_23172" x="116.41" y="155.44" class="st17" width="3.2" height="243.42"/>
			<rect id="Rectangle_23173" x="81.5" y="155.44" class="st17" width="3.2" height="243.42"/>
			<rect id="Rectangle_23174" x="125.13" y="155.44" class="st17" width="3.2" height="243.42"/>
			<rect id="Rectangle_23175" x="133.86" y="155.44" class="st17" width="3.2" height="243.42"/>
			<rect id="Rectangle_23176" x="46.59" y="155.44" class="st17" width="3.2" height="243.42"/>
			<path id="Path_6094" class="st17" d="M20.41,398.86h3.2V156.69c-1.11,0.4-2.18,0.92-3.2,1.53V398.86z"/>
			<path id="Path_6095" class="st17" d="M32.34,155.43h-2.29c-0.31,0-0.6,0.09-0.91,0.1v243.32h3.2V155.43z"/>
			<rect id="Rectangle_23177" x="72.78" y="155.44" class="st17" width="3.2" height="243.42"/>
			<rect id="Rectangle_23178" x="37.87" y="155.44" class="st17" width="3.2" height="243.42"/>
			<rect id="Rectangle_23179" x="55.32" y="155.44" class="st17" width="3.2" height="243.42"/>
			<rect id="Rectangle_23180" x="64.05" y="155.44" class="st17" width="3.2" height="243.42"/>
			<rect id="Rectangle_23181" x="142.59" y="155.44" class="st17" width="3.2" height="243.42"/>
			<rect id="Rectangle_23182" x="229.86" y="155.44" class="st17" width="3.2" height="243.42"/>
			<rect id="Rectangle_23183" x="221.13" y="155.44" class="st17" width="3.2" height="243.42"/>
			<rect id="Rectangle_23184" x="151.32" y="155.44" class="st17" width="3.2" height="243.42"/>
			<rect id="Rectangle_23185" x="212.4" y="155.44" class="st17" width="3.2" height="243.42"/>
			<path id="Path_6096" class="st17" d="M259.24,164.82c-0.92-1.4-2-2.68-3.2-3.81v237.86h3.2V164.82z"/>
			<path id="Path_6097" class="st17" d="M11.69,398.86h3.2V163.03c-1.3,1.6-2.38,3.39-3.2,5.32V398.86z"/>
			<path id="Path_6098" class="st17" d="M247.31,398.86h3.19V157.13c-1.03-0.45-2.1-0.81-3.19-1.08V398.86z"/>
			<rect id="Rectangle_23186" x="238.58" y="155.44" class="st17" width="3.2" height="243.42"/>
			<rect id="Rectangle_23187" x="203.68" y="155.44" class="st17" width="3.2" height="243.42"/>
			<rect id="Rectangle_23188" x="177.5" y="155.44" class="st17" width="3.2" height="243.42"/>
			<rect id="Rectangle_23189" x="160.04" y="155.44" class="st17" width="3.2" height="243.42"/>
			<rect id="Rectangle_23190" x="168.77" y="155.44" class="st17" width="3.2" height="243.42"/>
			<rect id="Rectangle_23191" x="186.22" y="155.44" class="st17" width="3.2" height="243.42"/>
			<rect id="Rectangle_23192" x="194.95" y="155.44" class="st17" width="3.2" height="243.42"/>
		</g>
		
			<linearGradient id="Path_6099_1_" gradientUnits="userSpaceOnUse" x1="-2847.0903" y1="-6070.4995" x2="-2845.2153" y2="-6070.4995" gradientTransform="matrix(146.8888 0 0 102.2363 418217.6875 621146.125)">
			<stop  offset="4.000000e-03" style="stop-color:#8F342D"/>
			<stop  offset="0.161" style="stop-color:#C14427"/>
			<stop  offset="0.213" style="stop-color:#CB4827"/>
			<stop  offset="0.33" style="stop-color:#E04C26"/>
			<stop  offset="0.407" style="stop-color:#E84D25"/>
			<stop  offset="0.699" style="stop-color:#E74F25"/>
			<stop  offset="0.804" style="stop-color:#E85325"/>
			<stop  offset="0.879" style="stop-color:#E85A25"/>
			<stop  offset="0.939" style="stop-color:#E8652B"/>
			<stop  offset="0.99" style="stop-color:#E87544"/>
			<stop  offset="1" style="stop-color:#E77949"/>
		</linearGradient>
		<path id="Path_6099" class="st18" d="M287.36,468.57c-0.01-24.25-18.53-43.9-41.37-43.89l0,0H203.3
			c-4.14-3.23-26.19-5.7-52.86-5.7s-48.73,2.47-52.86,5.7H53.49c-22.84-0.01-41.36,19.64-41.37,43.89l0,0
			c0,0-1.99,103.01,13.17,130.31c11.19,20.14,22.79,23.39,54.82,23.31c-0.07-0.31-0.13-0.62-0.16-0.94
			c0-11.37,30.06-20.59,67.13-20.59s67.14,9.22,67.14,20.59c-0.03,0.39-0.09,0.78-0.19,1.15c36.22,0.58,48.12-1.89,60.16-23.53
			C289.37,571.6,287.36,468.57,287.36,468.57z"/>
		<g id="Group_5191" transform="translate(45.846 2.758)">
			<path id="Path_6100" class="st14" d="M40.12,18.99c0-8.23,15.84-13.69,36.37-16.27c-3.05,7.05-8.69,16.55-18.1,20.96
				c-9.44,4.42-14.52,3.71-18.25,4.75L40.12,18.99z"/>
			<path id="Path_6101" class="st15" d="M40.12,21.7V19c0-8.23,15.84-13.69,36.37-16.27c-0.41,0.95-0.87,1.94-1.38,2.95
				C55.31,8.32,40.21,13.7,40.12,21.7z"/>
			<path id="Path_6102" class="st16" d="M40.13,24.42c8.25-7.9,21.88-10.01,29.91-10.52c-3.09,4.2-7.09,7.56-11.65,9.79
				c-9.44,4.42-14.52,3.71-18.25,4.75L40.13,24.42z"/>
		</g>
		
			<linearGradient id="Path_6103_1_" gradientUnits="userSpaceOnUse" x1="-2844.1111" y1="-6069.7192" x2="-2842.2361" y2="-6069.7192" gradientTransform="matrix(64.707 0 0 81.204 184122.4844 493385.3125)">
			<stop  offset="4.000000e-03" style="stop-color:#8F342D"/>
			<stop  offset="1" style="stop-color:#C14427"/>
		</linearGradient>
		<path id="Path_6103" class="st19" d="M209.91,424.69h-6.61c-4.14-3.23-26.19-5.7-52.86-5.7s-48.73,2.47-52.86,5.7h-8.99v155.93
			H209.9L209.91,424.69z"/>
		<path id="Path_6104" class="st13" d="M135.9,3.62c-26.78,1.9-50.12,9.78-50.12,24.02l4.38,217.72l0.41,18.29l0.36,16.14h13.15
			c18.12-17.33,36.16-24.53,41.89-32.04C158.7,231.03,158,166.02,135.42,84.3C128.13,57.93,128.3,29.88,135.9,3.62z"/>
		
			<linearGradient id="Path_6105_1_" gradientUnits="userSpaceOnUse" x1="-2844.1064" y1="-6066.6763" x2="-2844.1064" y2="-6068.5054" gradientTransform="matrix(78.563 0 0 34.719 223591.8281 210944.2031)">
			<stop  offset="0" style="stop-color:#212120"/>
			<stop  offset="1" style="stop-color:#424243"/>
		</linearGradient>
		<path id="Path_6105" class="st20" d="M213.24,251.8H87.33c0,0-8.93,18.5-10.22,25.07c-1.07,5.42,0,22.02,0,22.02
			c0,12.16,18.52,22.02,41.37,22.02h63.61c22.85,0,41.37-9.86,41.37-22.02s1.07-16.59,0-22.02
			C222.17,270.3,213.24,251.8,213.24,251.8z"/>
		
			<linearGradient id="Path_6106_1_" gradientUnits="userSpaceOnUse" x1="-2831.7375" y1="-6055.417" x2="-2829.8625" y2="-6055.417" gradientTransform="matrix(20.558 0 0 12.569 58386.0234 76413.4688)">
			<stop  offset="4.000000e-03" style="stop-color:#8F342D"/>
			<stop  offset="0.788" style="stop-color:#C14427"/>
			<stop  offset="0.802" style="stop-color:#C44827"/>
			<stop  offset="0.885" style="stop-color:#D7622B"/>
			<stop  offset="0.955" style="stop-color:#E37341"/>
			<stop  offset="1" style="stop-color:#E77949"/>
		</linearGradient>
		<path id="Path_6106" class="st21" d="M171.16,307.26l38.55-16.84v13.44l-36.75,11.58L171.16,307.26z"/>
		<g id="Group_5196" transform="translate(48.907 107.423)">
			<path id="Path_6107" d="M124.05,208.02c0,11.65-10.28,21.1-22.95,21.1s-22.95-9.44-22.95-21.1s10.28-21.1,22.95-21.1
				S124.05,196.37,124.05,208.02z"/>
			
				<linearGradient id="Path_6108_1_" gradientUnits="userSpaceOnUse" x1="-2930.3455" y1="-6060.4282" x2="-2928.4702" y2="-6060.4282" gradientTransform="matrix(20.407 0 0 17.67 59881.5195 107295.7891)">
				<stop  offset="0" style="stop-color:#212120"/>
				<stop  offset="1" style="stop-color:#424243"/>
			</linearGradient>
			<path id="Path_6108" class="st22" d="M120.23,208.02c0,9.71-8.57,17.59-19.14,17.59s-19.13-7.87-19.13-17.59
				c0-9.71,8.56-17.59,19.13-17.59S120.23,198.31,120.23,208.02z"/>
			<g id="Group_5193" transform="translate(40.145 12.966)">
				<polygon id="Rectangle_23194" points="77.92,182.19 104.54,161.69 109.41,168.81 82.79,189.31 				"/>
			</g>
			<g id="Group_5194" transform="translate(5.256 12.962)">
				<polygon id="Rectangle_23195" points="47.39,168.83 52.23,161.69 79.1,182.18 74.26,189.32 				"/>
			</g>
			<g id="Group_5195" transform="translate(28.887 38.639)">
				<rect id="Rectangle_23196" x="68.07" y="187.13" width="8.28" height="30.08"/>
			</g>
			
				<radialGradient id="Subtraction_1_1_" cx="-2940.7493" cy="-6074.4014" r="0.9138" gradientTransform="matrix(61.998 0 0 58.3879 182421.8125 354876.2813)" gradientUnits="userSpaceOnUse">
				<stop  offset="0" style="stop-color:#FFFFFF"/>
				<stop  offset="0.853" style="stop-color:#4B4A4E"/>
				<stop  offset="0.925" style="stop-color:#616262"/>
				<stop  offset="1" style="stop-color:#C1C0C0"/>
			</radialGradient>
			<path id="Subtraction_1" class="st23" d="M101.09,259.48c-7.72,0.02-15.39-1.43-22.62-4.3c-6.79-2.67-13.05-6.65-18.48-11.73
				c-5.21-4.85-9.45-10.77-12.45-17.4c-6.09-13.47-6.09-29.14,0-42.61c3.01-6.63,7.24-12.55,12.45-17.4
				c5.43-5.08,11.69-9.06,18.48-11.73c14.6-5.74,30.65-5.74,45.25,0c6.79,2.67,13.05,6.65,18.48,11.73
				c5.21,4.85,9.45,10.77,12.46,17.4c6.09,13.47,6.09,29.14,0,42.61c-3.01,6.63-7.25,12.55-12.46,17.4
				c-5.43,5.08-11.69,9.06-18.48,11.73C116.48,258.05,108.82,259.51,101.09,259.48z M101.09,157.69c-27.84,0-50.5,21.1-50.5,47.05
				s22.65,47.06,50.5,47.06s50.51-21.11,50.51-47.06S128.94,157.69,101.09,157.69L101.09,157.69z"/>
		</g>
		
			<linearGradient id="Rectangle_23197_1_" gradientUnits="userSpaceOnUse" x1="-2803.9788" y1="-6058.3833" x2="-2803.9788" y2="-6056.373" gradientTransform="matrix(8.645 0 0 13.799 24475.8633 83879.7578)">
			<stop  offset="0" style="stop-color:#212120"/>
			<stop  offset="1" style="stop-color:#424243"/>
		</linearGradient>
		<rect id="Rectangle_23197" x="227.36" y="279.79" class="st24" width="16.21" height="27.47"/>
		<g id="Group_5197" transform="translate(114.182 126.5)">
			<path id="Path_6109" class="st25" d="M103.1,236.51l-3.19-2.79l17.66-22.69l1.64-43.27l4.12,0.18l-1.69,44.75L103.1,236.51z"/>
		</g>
		
			<radialGradient id="Ellipse_394_1_" cx="-2795.897" cy="-6074.1777" r="0.9375" gradientTransform="matrix(7.122 0 0 7.5542 20127.0508 46246.0938)" gradientUnits="userSpaceOnUse">
			<stop  offset="0" style="stop-color:#AFAFB0"/>
			<stop  offset="0.067" style="stop-color:#898989"/>
			<stop  offset="0.191" style="stop-color:#3C3C3C"/>
			<stop  offset="1" style="stop-color:#212120"/>
		</radialGradient>
		<ellipse id="Ellipse_394" class="st26" cx="215.69" cy="361.61" rx="6.68" ry="7.08"/>
		<g id="Group_5198" transform="translate(48 183.739)">
			<g id="Group_5383">
				<g id="Group_5382" transform="translate(-262.648 -259.739)">
					
						<linearGradient id="Path_6326_1_" gradientUnits="userSpaceOnUse" x1="-2413.8291" y1="-6070.7393" x2="-2413.8291" y2="-6068.749" gradientTransform="matrix(64.2178 0 0 84.5488 155375.6406 513790.25)">
						<stop  offset="0" style="stop-color:#302E2C"/>
						<stop  offset="0.062" style="stop-color:#464646"/>
						<stop  offset="0.279" style="stop-color:#242424"/>
						<stop  offset="0.524" style="stop-color:#32302E"/>
						<stop  offset="0.677" style="stop-color:#313131"/>
						<stop  offset="0.826" style="stop-color:#1E1E1E"/>
						<stop  offset="0.923" style="stop-color:#313131"/>
						<stop  offset="0.96" style="stop-color:#1D1D1D"/>
						<stop  offset="1" style="stop-color:#121112"/>
					</linearGradient>
					<path id="Path_6326" class="st27" d="M311.31,614.11c0,0,2.31-35.74-4.63-65.49s6.17-32.19,6.17-32.19h98.95
						c0,0,15.68-2.46,12.34,15.82s-10.03,59.75-3.09,91.4s6.17,45.84-12.59,53.74c-18.76,7.91-59.62,10.64-84.81,1.36
						s-16.96-33.29-16.96-33.29L311.31,614.11z"/>
					
						<linearGradient id="Path_6327_1_" gradientUnits="userSpaceOnUse" x1="-2413.8064" y1="-6067.811" x2="-2413.8481" y2="-6066.2012" gradientTransform="matrix(63.9375 0 0 50.2656 154697.5781 305536.1875)">
						<stop  offset="0" style="stop-color:#2D2C2C"/>
						<stop  offset="1" style="stop-color:#3A3735"/>
					</linearGradient>
					<path id="Path_6327" class="st28" d="M310.48,575.24l3,39.69h104.69v-39.69c0,0,7.71-31.07,6.43-45.49
						c-1.29-14.42-11.82-12.21-11.82-12.21s-47.74,2.25-59.37,0c-12.16-2.35-27.5-3.97-41.12-1.22
						c-13.11,11.91-4.87,37.55-4.87,37.55L310.48,575.24z"/>
				</g>
				
					<linearGradient id="Path_6110_1_" gradientUnits="userSpaceOnUse" x1="-2939.1018" y1="-6066.4067" x2="-2939.1018" y2="-6064.4165" gradientTransform="matrix(63.9531 0 0 44.2384 188066.9219 268705.4063)">
					<stop  offset="0.144" style="stop-color:#252524"/>
					<stop  offset="0.5" style="stop-color:#363636"/>
					<stop  offset="0.737" style="stop-color:#2A2A2A"/>
					<stop  offset="0.847" style="stop-color:#191919"/>
					<stop  offset="0.949" style="stop-color:#383838"/>
					<stop  offset="1" style="stop-color:#000000"/>
				</linearGradient>
				<path id="Path_6110" class="st29" d="M160.96,383.18c2.88,14.61,0.59,22.14-5,27.56c-19.11,18.5-87.39,20.07-108.13,0
					c-4.41-4.27-7.45-12.6-4.12-27.56l6.35-41.35c0-15.23,7.54,11.64,12.12,11.64h79.42c4.57,0,13-26.87,13-11.64L160.96,383.18z"/>
			</g>
			
				<linearGradient id="Path_6111_1_" gradientUnits="userSpaceOnUse" x1="-2935.3457" y1="-6067.5571" x2="-2935.3457" y2="-6065.5669" gradientTransform="matrix(37.554 0 0 48.3571 110333.5625 293701.6563)">
				<stop  offset="0" style="stop-color:#4F4E4E"/>
				<stop  offset="0.593" style="stop-color:#4D4E4E"/>
				<stop  offset="0.678" style="stop-color:#333230"/>
				<stop  offset="1" style="stop-color:#4C4B4B"/>
			</linearGradient>
			<path id="Path_6111" class="st30" d="M134.79,381.38c0,11.99-11.54,5.43-25.76,5.43H90.14c-14.23,0-25.77,6.56-25.77-5.43
				l15.9-78.15c0-11.99-4.36-10.85,9.87-10.85h18.89c14.23,0,9.86-1.13,9.86,10.85L134.79,381.38z"/>
		</g>
		<g id="Group_5199" transform="translate(123.222 191.515)">
			
				<linearGradient id="Path_6112_1_" gradientUnits="userSpaceOnUse" x1="-3073.3286" y1="-6066.4814" x2="-3071.4534" y2="-6066.4814" gradientTransform="matrix(17.31 0 0 46.3053 53307.1758 281220.3438)">
				<stop  offset="0" style="stop-color:#212120"/>
				<stop  offset="1" style="stop-color:#424243"/>
			</linearGradient>
			<path id="Path_6112" class="st31" d="M124.05,354.98c-8.96,4.02-16.23-2.54-16.23-14.66v-60.49c0-12.12,7.27-18.68,16.23-14.66
				s16.23,17.12,16.23,29.23v31.34C140.27,337.87,133.01,350.96,124.05,354.98z"/>
			
				<radialGradient id="Path_6113_1_" cx="-3033.5425" cy="-6063.6211" r="0.9375" gradientTransform="matrix(6.346 0 0 6.7368 19373.3516 41133.4531)" gradientUnits="userSpaceOnUse">
				<stop  offset="0.017" style="stop-color:#FDD800"/>
				<stop  offset="1" style="stop-color:#F58B1F"/>
			</radialGradient>
			<path id="Path_6113" class="st32" d="M128.42,284.09c0,3.49-2.66,6.32-5.94,6.32c-3.29,0-5.95-2.82-5.95-6.31
				s2.66-6.32,5.94-6.32c0,0,0,0,0.01,0C125.75,277.78,128.41,280.6,128.42,284.09L128.42,284.09z"/>
			
				<radialGradient id="Path_6114_1_" cx="-3033.5425" cy="-6061.8843" r="0.9375" gradientTransform="matrix(6.346 0 0 6.7368 19373.3516 41146.7773)" gradientUnits="userSpaceOnUse">
				<stop  offset="0.017" style="stop-color:#FDD800"/>
				<stop  offset="1" style="stop-color:#F58B1F"/>
			</radialGradient>
			<path id="Path_6114" class="st33" d="M128.42,309.17c0,3.49-2.66,6.32-5.94,6.32c-3.29,0-5.95-2.82-5.95-6.31
				s2.66-6.32,5.94-6.32c0,0,0,0,0.01,0C125.75,302.85,128.41,305.68,128.42,309.17L128.42,309.17z"/>
			
				<radialGradient id="Rectangle_23199_1_" cx="-3027.386" cy="-6058.7534" r="0.9371" gradientTransform="matrix(5.764 0 0 6.1136 17571.7773 37375.0352)" gradientUnits="userSpaceOnUse">
				<stop  offset="0.017" style="stop-color:#FDD800"/>
				<stop  offset="1" style="stop-color:#F58B1F"/>
			</radialGradient>
			<rect id="Rectangle_23199" x="116.52" y="328.28" class="st34" width="10.81" height="11.46"/>
		</g>
		<g id="Group_5200" transform="translate(19.471 191.515)">
			
				<linearGradient id="Path_6115_1_" gradientUnits="userSpaceOnUse" x1="-2859.8274" y1="-6066.4814" x2="-2857.9524" y2="-6066.4814" gradientTransform="matrix(17.307 0 0 46.3053 49706.6328 281220.3438)">
				<stop  offset="0" style="stop-color:#212120"/>
				<stop  offset="1" style="stop-color:#424243"/>
			</linearGradient>
			<path id="Path_6115" class="st35" d="M33.27,354.98c8.96,4.02,16.22-2.54,16.22-14.66v-60.49c0-12.12-7.27-18.68-16.22-14.66
				s-16.23,17.12-16.23,29.23v31.34C17.04,337.87,24.3,350.96,33.27,354.98z"/>
			
				<radialGradient id="Path_6116_1_" cx="-2962.9172" cy="-6063.6211" r="0.9375" gradientTransform="matrix(-6.346 0 0 6.7368 -18385.0996 41133.4531)" gradientUnits="userSpaceOnUse">
				<stop  offset="0.017" style="stop-color:#FDD800"/>
				<stop  offset="1" style="stop-color:#F58B1F"/>
			</radialGradient>
			<path id="Path_6116" class="st36" d="M28.89,284.09c0,3.49,2.66,6.32,5.94,6.32s5.95-2.82,5.95-6.31s-2.66-6.32-5.94-6.32
				c0,0,0,0-0.01,0C31.55,277.78,28.89,280.6,28.89,284.09L28.89,284.09z"/>
			
				<radialGradient id="Path_6117_1_" cx="-2962.9172" cy="-6061.8843" r="0.9375" gradientTransform="matrix(-6.346 0 0 6.7368 -18385.0996 41146.7773)" gradientUnits="userSpaceOnUse">
				<stop  offset="0.017" style="stop-color:#FDD800"/>
				<stop  offset="1" style="stop-color:#F58B1F"/>
			</radialGradient>
			<path id="Path_6117" class="st37" d="M28.89,309.17c0,3.49,2.66,6.32,5.94,6.32s5.95-2.82,5.95-6.31s-2.66-6.32-5.94-6.32
				c0,0,0,0-0.01,0C31.55,302.85,28.89,305.68,28.89,309.17L28.89,309.17z"/>
			
				<radialGradient id="Rectangle_23200_1_" cx="-2970.4019" cy="-6058.7534" r="0.9375" gradientTransform="matrix(-5.764 0 0 6.1136 -16705.4785 37375.0352)" gradientUnits="userSpaceOnUse">
				<stop  offset="0.017" style="stop-color:#FDD800"/>
				<stop  offset="1" style="stop-color:#F58B1F"/>
			</radialGradient>
			<rect id="Rectangle_23200" x="29.98" y="328.28" class="st38" width="10.81" height="11.46"/>
		</g>
		
			<radialGradient id="Path_6118_1_" cx="-2825.6218" cy="-6065.6191" r="0.937" gradientTransform="matrix(13.2 0 0 14.0128 37356.0234 85574.0547)" gradientUnits="userSpaceOnUse">
			<stop  offset="0.814" style="stop-color:#212120"/>
			<stop  offset="0.851" style="stop-color:#2A2A2A"/>
			<stop  offset="0.936" style="stop-color:#3B3B3B"/>
			<stop  offset="1" style="stop-color:#424243"/>
		</radialGradient>
		<path id="Path_6118" class="st39" d="M70.19,577.45c0,7.26-5.54,13.14-12.38,13.14s-12.37-5.88-12.37-13.14
			s5.54-13.14,12.37-13.14S70.19,570.19,70.19,577.45L70.19,577.45z"/>
		
			<radialGradient id="Path_6119_1_" cx="-2819.1438" cy="-6065.6191" r="0.9371" gradientTransform="matrix(13.2 0 0 14.0128 37453.7539 85574.0547)" gradientUnits="userSpaceOnUse">
			<stop  offset="0.814" style="stop-color:#212120"/>
			<stop  offset="0.851" style="stop-color:#2A2A2A"/>
			<stop  offset="0.936" style="stop-color:#3B3B3B"/>
			<stop  offset="1" style="stop-color:#424243"/>
		</radialGradient>
		<path id="Path_6119" class="st40" d="M253.43,577.45c0,7.26-5.54,13.14-12.38,13.14c-6.83,0-12.37-5.88-12.37-13.14
			s5.54-13.14,12.37-13.14C247.89,564.31,253.43,570.19,253.43,577.45L253.43,577.45z"/>
		
			<linearGradient id="Rectangle_23201_1_" gradientUnits="userSpaceOnUse" x1="-2798.5532" y1="-6052.6299" x2="-2796.679" y2="-6052.6299" gradientTransform="matrix(7.016 0 0 14.544 19803.7891 88455.4375)">
			<stop  offset="0" style="stop-color:#212120"/>
			<stop  offset="1" style="stop-color:#424243"/>
		</linearGradient>
		<rect id="Rectangle_23201" x="169.14" y="411.52" class="st41" width="13.15" height="28.95"/>
		<path id="Path_6124" class="st42" d="M215.81,303.89h-6.1v-13.47h6.1c3.51,0.14,6.24,3.28,6.11,7
			C221.79,300.94,219.13,303.77,215.81,303.89L215.81,303.89z"/>
		<path id="Path_6125" class="st43" d="M269.62,432.58c-6.93-5.14-15.17-7.9-23.63-7.89h-42.7l8.21,7.89H269.62z"/>
		<path id="Path_6126" class="st43" d="M29.99,432.58c6.93-5.14,15.17-7.9,23.63-7.89H96.3l-8.21,7.89H29.99z"/>
		
			<linearGradient id="Path_6127_1_" gradientUnits="userSpaceOnUse" x1="-2793.7102" y1="-5932.2744" x2="-2791.8352" y2="-5932.2744" gradientTransform="matrix(5.829 0 0 2.193 16385.8438 13435.4727)">
			<stop  offset="0" style="stop-color:#212120"/>
			<stop  offset="1" style="stop-color:#424243"/>
		</linearGradient>
		<path id="Path_6127" class="st44" d="M112.25,425.99c0,1.21-2.45,2.19-5.47,2.19c-3.02,0-5.46-0.97-5.46-2.19s2.44-2.18,5.46-2.18
			C109.81,423.81,112.25,424.79,112.25,425.99z"/>
		
			<linearGradient id="Path_6128_1_" gradientUnits="userSpaceOnUse" x1="-2792.5693" y1="-5932.2744" x2="-2790.6943" y2="-5932.2744" gradientTransform="matrix(5.829 0 0 2.193 16393.4434 13435.4727)">
			<stop  offset="0" style="stop-color:#212120"/>
			<stop  offset="1" style="stop-color:#424243"/>
		</linearGradient>
		<path id="Path_6128" class="st45" d="M126.5,425.99c0,1.21-2.44,2.19-5.46,2.19s-5.47-0.97-5.47-2.19s2.44-2.18,5.47-2.18
			S126.5,424.79,126.5,425.99z"/>
		
			<linearGradient id="Path_6129_1_" gradientUnits="userSpaceOnUse" x1="-2791.3984" y1="-5932.2744" x2="-2789.5239" y2="-5932.2744" gradientTransform="matrix(5.826 0 0 2.193 16392.4824 13435.4727)">
			<stop  offset="0" style="stop-color:#212120"/>
			<stop  offset="1" style="stop-color:#424243"/>
		</linearGradient>
		<path id="Path_6129" class="st46" d="M140.75,425.99c0,1.21-2.44,2.19-5.46,2.19s-5.46-0.97-5.46-2.19s2.44-2.18,5.46-2.18
			S140.75,424.79,140.75,425.99z"/>
	</g>
	
		<linearGradient id="Path_6130_1_" gradientUnits="userSpaceOnUse" x1="-2520.512" y1="-6049.7949" x2="-2521.9692" y2="-6050.8403" gradientTransform="matrix(17.71 0 0 17.71 44949.3906 107834.25)">
		<stop  offset="4.000000e-03" style="stop-color:#000000"/>
		<stop  offset="1" style="stop-color:#787879"/>
	</linearGradient>
	<path id="Path_6130" class="st47" d="M318.65,685.86c0.01,9.73-7.42,17.63-16.59,17.64s-16.61-7.88-16.62-17.61
		s7.42-17.63,16.59-17.64h0.01C311.21,668.25,318.64,676.13,318.65,685.86z"/>
	
		<linearGradient id="Path_6328_1_" gradientUnits="userSpaceOnUse" x1="-2521.0627" y1="-6069.1528" x2="-2521.9302" y2="-6067.5508" gradientTransform="matrix(21.1436 0 0 62.6074 53732.1367 380473.9375)">
		<stop  offset="0" style="stop-color:#252524"/>
		<stop  offset="0.465" style="stop-color:#4E4A4A"/>
		<stop  offset="1" style="stop-color:#0F0F10"/>
	</linearGradient>
	<path id="Path_6328" class="st48" d="M395.58,611.47c3.04-4.2,28.47-18.68,32.67-41.66c2.43-13.29,1.73-37.04-1.43-46.06
		c-4.15-17-5.87-19.32-12.41-26.1s-1.06-7.91-1.06-7.91c8.02,6.19,13.94,14.97,16.88,25.02c5.02,16.95,5.13,47.22,2.13,58.6
		s-10.34,22.12-25.24,34.87l-8.67,5.81C398.44,614.04,392.54,615.66,395.58,611.47z"/>
	
		<linearGradient id="Path_6329_1_" gradientUnits="userSpaceOnUse" x1="-2527.2029" y1="-6069.1577" x2="-2526.3352" y2="-6067.5557" gradientTransform="matrix(21.1436 0 0 62.6074 53614.1406 380473.9375)">
		<stop  offset="0" style="stop-color:#252524"/>
		<stop  offset="0.465" style="stop-color:#4E4A4A"/>
		<stop  offset="1" style="stop-color:#0F0F10"/>
	</linearGradient>
	<path id="Path_6329" class="st49" d="M212.24,611.47c-3.04-4.2-28.47-18.68-32.67-41.66c-2.43-13.29-1.73-37.04,1.43-46.06
		c4.15-17,5.87-19.32,12.41-26.1c6.54-6.78,1.06-7.91,1.06-7.91c-8.02,6.19-13.94,14.97-16.88,25.02
		c-5.02,16.95-5.13,47.22-2.13,58.6s10.34,22.12,25.24,34.87l8.67,5.81C209.38,614.04,215.28,615.66,212.24,611.47z"/>
</g>
</svg>
