<?xml version="1.0" encoding="utf-8"?>
<!-- Generator: Adobe Illustrator 24.2.3, SVG Export Plug-In . SVG Version: 6.00 Build 0)  -->
<svg version="1.1" id="Layer_1" xmlns="http://www.w3.org/2000/svg" xmlns:xlink="http://www.w3.org/1999/xlink" x="0px" y="0px"
	 viewBox="0 0 300 550" style="enable-background:new 0 0 300 550;" xml:space="preserve">
<style type="text/css">
	.st0{fill:url(#Rectangle_23013_1_);}
	.st1{fill:#CF4D27;}
	.st2{fill:url(#Path_6076_1_);}
	.st3{fill:#993630;}
	.st4{fill:url(#Rectangle_23015_1_);}
	.st5{fill:url(#Path_6077_1_);}
	.st6{opacity:0.5;}
	.st7{fill:#636464;}
	.st8{fill:url(#Path_6080_1_);}
	.st9{fill:url(#Path_6083_1_);}
	.st10{fill:url(#Rectangle_23130_1_);}
	.st11{fill:url(#Path_6086_1_);}
	.st12{fill:#E85625;}
	.st13{opacity:0.63;fill:url(#Path_6090_1_);enable-background:new    ;}
	.st14{fill:#918E89;}
	.st15{fill:#7B7975;}
	.st16{fill:#B3AEA8;}
	.st17{fill:#5C5D5D;}
	.st18{fill:url(#Path_6099_1_);}
	.st19{fill:url(#Path_6103_1_);}
	.st20{opacity:0.36;fill:url(#Path_6104_1_);enable-background:new    ;}
	.st21{fill:url(#Path_6105_1_);}
	.st22{fill:url(#Path_6106_1_);}
	.st23{fill:url(#Path_6108_1_);}
	.st24{fill:url(#Subtraction_1_1_);}
	.st25{fill:url(#Rectangle_23197_1_);}
	.st26{fill:#262626;}
	.st27{fill:url(#Ellipse_394_1_);}
	.st28{fill:url(#Path_6326_1_);}
	.st29{fill:url(#Path_6327_1_);}
	.st30{fill:url(#Path_6110_1_);}
	.st31{fill:url(#Path_6111_1_);}
	.st32{fill:url(#Path_6112_1_);}
	.st33{fill:url(#Path_6113_1_);}
	.st34{fill:url(#Path_6114_1_);}
	.st35{fill:url(#Rectangle_23199_1_);}
	.st36{fill:url(#Path_6115_1_);}
	.st37{fill:url(#Path_6116_1_);}
	.st38{fill:url(#Path_6117_1_);}
	.st39{fill:url(#Rectangle_23200_1_);}
	.st40{fill:url(#Path_6118_1_);}
	.st41{fill:url(#Path_6119_1_);}
	.st42{fill:url(#Rectangle_23201_1_);}
	.st43{fill:#E75225;}
	.st44{fill:#5A230E;}
	.st45{fill:url(#Path_6127_1_);}
	.st46{fill:url(#Path_6128_1_);}
	.st47{fill:url(#Path_6129_1_);}
	.st48{fill:url(#Path_6130_1_);}
	.st49{fill:url(#Path_6328_1_);}
	.st50{fill:url(#Path_6329_1_);}
	.st51{fill:url(#Path_6043_2_);}
	.st52{fill:url(#Path_6046_2_);}
	.st53{fill:url(#Path_6047_2_);}
	.st54{fill:url(#Path_6048_2_);}
	.st55{fill:url(#Path_6051_2_);}
	.st56{fill:url(#Path_6052_2_);}
	.st57{fill:url(#Path_6053_2_);}
	.st58{fill:url(#Path_6056_2_);}
	.st59{fill:url(#Path_6059_2_);}
	.st60{fill:url(#Path_6060_2_);}
	.st61{fill:#558D3F;}
	.st62{fill:url(#Path_6062_2_);}
	.st63{fill:url(#Rectangle_22992_2_);}
	.st64{fill:url(#Path_6063_2_);}
	.st65{fill:url(#Rectangle_22993_2_);}
	.st66{fill:url(#Path_6064_2_);}
	.st67{fill:url(#Path_6065_2_);}
	.st68{fill:#68A744;}
	.st69{opacity:0.4;fill:url(#Path_6067_2_);enable-background:new    ;}
	.st70{fill:url(#Path_6068_2_);}
	.st71{fill:url(#Path_6069_2_);}
	.st72{fill:url(#Path_6070_2_);}
	.st73{fill:#A1CC40;}
	.st74{fill:#CFCFCF;}
	.st75{fill:url(#Rectangle_22995_2_);}
	.st76{fill:url(#Rectangle_22996_2_);}
	.st77{fill:url(#Rectangle_22997_2_);}
	.st78{fill:url(#Rectangle_22998_2_);}
	.st79{opacity:0.37;fill:url(#Path_6072_2_);enable-background:new    ;}
	.st80{fill:url(#Path_6073_2_);}
	.st81{fill:url(#Path_6074_2_);}
	.st82{fill:url(#Rectangle_22999_2_);}
	.st83{fill:url(#Rectangle_23000_2_);}
	.st84{fill:url(#Rectangle_23001_2_);}
	.st85{fill:url(#Rectangle_23002_2_);}
	.st86{fill:url(#Rectangle_23003_2_);}
	.st87{fill:url(#Rectangle_23004_2_);}
	.st88{fill:url(#Rectangle_23005_2_);}
	.st89{fill:url(#Rectangle_23006_2_);}
	.st90{fill:url(#Rectangle_23007_2_);}
	.st91{fill:url(#Rectangle_23008_2_);}
	.st92{fill:url(#Rectangle_23009_2_);}
	.st93{fill:url(#Rectangle_23010_2_);}
	.st94{fill:url(#Rectangle_23011_2_);}
	.st95{fill:url(#Rectangle_23012_2_);}
	.st96{fill:url(#Path_6140_1_);}
	.st97{fill:url(#Path_6143_1_);}
	.st98{fill:#BED0BD;}
	.st99{fill:#B4B4B5;}
	.st100{fill:url(#Path_6140-2_1_);}
	.st101{fill:url(#Path_6143-2_1_);}
	.st102{fill:url(#SVGID_1_);}
	.st103{fill:#B1C3B4;}
	.st104{fill:#5F7270;}
	.st105{fill:#95A7A0;}
	.st106{fill:url(#Path_6133_1_);}
	.st107{fill:url(#Path_6134_1_);}
	.st108{fill:url(#Path_6144_1_);}
	.st109{fill:url(#Path_6145_1_);}
	.st110{fill:url(#Path_6151_2_);}
	.st111{fill:url(#Path_6151_3_);}
	.st112{fill:url(#Path_6154_1_);}
	.st113{fill:url(#Path_6157_1_);}
	.st114{fill:url(#Path_6158_1_);}
	.st115{fill:url(#Rectangle_23360_1_);}
	.st116{fill:url(#Rectangle_23361_1_);}
	.st117{fill:url(#Path_6159_1_);}
	.st118{fill:url(#Path_6160_1_);}
	.st119{fill:url(#Rectangle_23362_1_);}
	.st120{fill:url(#Rectangle_23363_1_);}
	.st121{fill:url(#Rectangle_23364_1_);}
	.st122{fill:url(#Rectangle_23365_1_);}
	.st123{fill:url(#Rectangle_23366_1_);}
	.st124{fill:url(#Rectangle_23367_1_);}
	.st125{fill:url(#Rectangle_23368_1_);}
	.st126{fill:url(#Rectangle_23369_1_);}
	.st127{fill:url(#Rectangle_23370_1_);}
	.st128{fill:url(#Rectangle_23371_1_);}
	.st129{fill:url(#Rectangle_23372_1_);}
	.st130{fill:url(#Rectangle_23373_1_);}
	.st131{fill:url(#Rectangle_23374_1_);}
	.st132{fill:url(#Rectangle_23375_1_);}
	.st133{fill:url(#Rectangle_23376_1_);}
	.st134{fill:url(#Rectangle_23377_1_);}
	.st135{fill:url(#Rectangle_23378_1_);}
	.st136{fill:url(#Rectangle_23379_1_);}
	.st137{fill:url(#Rectangle_23380_1_);}
	.st138{fill:url(#Rectangle_23381_1_);}
	.st139{fill:url(#Rectangle_23382_1_);}
	.st140{fill:url(#Rectangle_23383_1_);}
	.st141{fill:url(#Rectangle_23384_1_);}
	.st142{fill:url(#Rectangle_23385_1_);}
	.st143{fill:url(#Rectangle_23386_1_);}
	.st144{fill:url(#Rectangle_23387_1_);}
	.st145{fill:url(#Rectangle_23388_1_);}
	.st146{fill:url(#Rectangle_23389_1_);}
	.st147{fill:url(#Rectangle_23390_1_);}
	.st148{fill:url(#Rectangle_23391_1_);}
	.st149{fill:url(#Rectangle_23392_1_);}
	.st150{fill:url(#Rectangle_23393_1_);}
	.st151{fill:url(#Rectangle_23394_1_);}
	.st152{fill:url(#Rectangle_23395_1_);}
	.st153{fill:url(#Rectangle_23396_1_);}
	.st154{fill:url(#Rectangle_23397_1_);}
	.st155{fill:url(#Rectangle_23398_1_);}
	.st156{fill:url(#Rectangle_23399_1_);}
	.st157{fill:url(#Rectangle_23400_1_);}
	.st158{fill:url(#Rectangle_23401_1_);}
	.st159{fill:url(#Rectangle_23402_1_);}
	.st160{fill:url(#Rectangle_23403_1_);}
	.st161{fill:url(#Rectangle_23404_1_);}
	.st162{fill:url(#Rectangle_23405_1_);}
	.st163{fill:url(#Rectangle_23406_1_);}
	.st164{fill:url(#Rectangle_23407_1_);}
	.st165{fill:url(#Rectangle_23408_1_);}
	.st166{fill:url(#Rectangle_23409_1_);}
	.st167{fill:url(#Rectangle_23410_1_);}
	.st168{fill:url(#Rectangle_23411_1_);}
	.st169{fill:url(#Rectangle_23412_1_);}
	.st170{fill:url(#Rectangle_23413_1_);}
	.st171{fill:url(#Rectangle_23414_1_);}
	.st172{fill:url(#Rectangle_23415_1_);}
	.st173{fill:url(#Rectangle_23416_1_);}
	.st174{fill:url(#Rectangle_23417_1_);}
	.st175{fill:url(#Path_6161_1_);}
	.st176{fill:url(#Path_6162_1_);}
	.st177{fill:#898989;}
	.st178{fill:#212120;}
	.st179{fill:#595A5A;}
	.st180{fill:url(#Rectangle_23423_1_);}
	.st181{fill:url(#Rectangle_23424_1_);}
	.st182{fill:url(#Path_6166_1_);}
	.st183{fill:url(#Path_6167_1_);}
	.st184{fill:url(#Rectangle_23425_1_);}
	.st185{fill:url(#Path_6168_1_);}
	.st186{fill:url(#Path_6169_1_);}
	.st187{fill:url(#Path_6170_1_);}
	.st188{fill:url(#Rectangle_23426_1_);}
	.st189{fill:url(#Rectangle_23427_1_);}
	.st190{fill:url(#Path_6171_1_);}
	.st191{fill:url(#Rectangle_23428_1_);}
	.st192{fill:#025887;}
	.st193{fill:#035988;}
	.st194{fill:#104671;}
	.st195{fill:#0068A0;}
	.st196{opacity:0.3;fill:#0E4169;enable-background:new    ;}
	.st197{fill:#0E4169;}
</style>
<g id="Group_5215" transform="translate(-620.482 -713.291)">
	<g id="Group_5214" transform="translate(963.297 860.796)">
		
			<linearGradient id="Path_6140_1_" gradientUnits="userSpaceOnUse" x1="-1569.5428" y1="1604.49" x2="-1569.7841" y2="1604.0905" gradientTransform="matrix(7.000000e-15 116.338 -37.174 2.000000e-15 59526.875 182892.8125)">
			<stop  offset="0" style="stop-color:#5F7270"/>
			<stop  offset="0.3324" style="stop-color:#819996"/>
			<stop  offset="0.9228" style="stop-color:#485654"/>
		</linearGradient>
		<path id="Path_6140" class="st96" d="M-116.33,224.41l22.65,127.39l-16.7,3.94l-26.07-129.76L-116.33,224.41z"/>
		
			<linearGradient id="Path_6143_1_" gradientUnits="userSpaceOnUse" x1="-1443.5297" y1="1708.5892" x2="-1443.8387" y2="1707.6542" gradientTransform="matrix(2.000000e-15 31.99 -19.752 1.000000e-15 33645.3516 46559.6719)">
			<stop  offset="0" style="stop-color:#5F7270"/>
			<stop  offset="0.3324" style="stop-color:#819996"/>
			<stop  offset="0.9228" style="stop-color:#485654"/>
		</linearGradient>
		<path id="Path_6143" class="st97" d="M-91.41,359.81l6.44,32.17l-15.69,3.94l-7.04-32.31L-91.41,359.81z"/>
		<g id="Path_6142">
			<polygon class="st98" points="-103.37,395.54 -81.36,391.45 -80.19,398.65 -101.93,402.38 			"/>
			<path class="st99" d="M-81.44,391.57l1.14,7l-21.54,3.7l-1.4-6.65L-81.44,391.57 M-81.28,391.33l-22.2,4.12l1.48,7.04l21.93-3.77
				L-81.28,391.33L-81.28,391.33z"/>
		</g>
		<g id="Path_6141">
			<polygon class="st98" points="-116.25,355.82 -86.41,350.28 -84.35,359.27 -114.29,365.14 			"/>
			<path class="st99" d="M-86.48,350.39l2.01,8.8l-29.74,5.84l-1.92-9.13L-86.48,350.39 M-86.33,350.16l-30.04,5.58l2,9.52
				l30.13-5.92L-86.33,350.16L-86.33,350.16z"/>
		</g>
	</g>
	<g id="Group_5216" transform="translate(963.297 727.797)">
		
			<linearGradient id="Path_6140-2_1_" gradientUnits="userSpaceOnUse" x1="-1569.4651" y1="1737.6641" x2="-1569.908" y2="1738.4109" gradientTransform="matrix(7.000000e-15 116.338 -37.174 2.000000e-15 64349.8125 183025.8125)">
			<stop  offset="0" style="stop-color:#5F7270"/>
			<stop  offset="0.35" style="stop-color:#819996"/>
			<stop  offset="0.9228" style="stop-color:#485654"/>
		</linearGradient>
		<path id="Path_6140-2" class="st100" d="M-253.2,357.41l-22.65,127.39l16.7,3.94l26.07-129.76L-253.2,357.41z"/>
		
			<linearGradient id="Path_6143-2_1_" gradientUnits="userSpaceOnUse" x1="-1443.5258" y1="1842.0039" x2="-1443.7443" y2="1842.8781" gradientTransform="matrix(2.000000e-15 31.99 -19.752 1.000000e-15 36118.6172 46692.668)">
			<stop  offset="0" style="stop-color:#5F7270"/>
			<stop  offset="0.499" style="stop-color:#819996"/>
			<stop  offset="1" style="stop-color:#485654"/>
		</linearGradient>
		<path id="Path_6143-2" class="st101" d="M-278.11,492.81l-6.44,32.17l15.69,3.94l7.04-32.31L-278.11,492.81z"/>
		<g id="Path_6142-2">
			<polygon class="st98" points="-289.66,530.89 -288.17,524.45 -266.16,528.54 -267.6,535.38 			"/>
			<path class="st99" d="M-288.09,524.56l21.82,4.05l-1.4,6.64l-21.86-4.45L-288.09,524.56 M-288.24,524.33l-1.53,6.63l22.26,4.53
				l1.48-7.04L-288.24,524.33L-288.24,524.33z"/>
		</g>
		<g id="Path_6141-2">
			<polygon class="st98" points="-285.08,491.62 -283.11,482.45 -253.27,488.82 -255.23,498.14 			"/>
			<path class="st99" d="M-283.04,482.57l29.65,6.33l-1.92,9.13l-29.65-6.48L-283.04,482.57 M-283.19,482.33l-2,9.37l30.04,6.57
				l2-9.52L-283.19,482.33L-283.19,482.33z"/>
		</g>
	</g>
	<g>
		<g id="Path_6131">
			
				<linearGradient id="SVGID_1_" gradientUnits="userSpaceOnUse" x1="-638.436" y1="2370.3899" x2="-637.2355" y2="2370.3899" gradientTransform="matrix(2.100000e-14 344.0581 -190.0591 1.200000e-14 451284.75 220372.8906)">
				<stop  offset="0" style="stop-color:#B8B8B8"/>
				<stop  offset="0.07" style="stop-color:#D2D2D2"/>
				<stop  offset="0.247" style="stop-color:#D7E6CD"/>
				<stop  offset="0.356" style="stop-color:#7B8E8F"/>
				<stop  offset="0.589" style="stop-color:#B2C1C4"/>
				<stop  offset="0.705" style="stop-color:#DADDDD"/>
				<stop  offset="0.857" style="stop-color:#889B98"/>
				<stop  offset="0.905" style="stop-color:#9EB0A7"/>
				<stop  offset="0.949" style="stop-color:#B7C8B8"/>
				<stop  offset="1" style="stop-color:#E2EFD4"/>
			</linearGradient>
			<path class="st102" d="M659.87,1126.84c-17.9-1.79-18.23-25.18-18.24-25.42l-20.41-319.8c-0.69-4.56,0.15-8.29,2.48-11.12
				c4.49-5.45,13.11-5.87,13.2-5.88h94.97l0.13-19.8c1.21-28.8,28.48-31.04,36.8-31.04c1.36,0,2.18,0.06,2.18,0.06
				c36.78,2.29,38.5,28.77,38.51,29.03l0.87,22.02l88.84,0.23c7.42,0.26,13.01,2.36,16.6,6.26c4.41,4.79,4.17,10.69,4.17,10.75
				l-11.91,322.31c-2.23,20.6-23.95,21.65-28.29,21.65c-0.61,0-0.95-0.02-0.96-0.02L659.87,1126.84z M768.96,735.15
				c2.59,0,5.46,0.43,8.52,1.27c0.11,0.04,12.73,4.29,13.15,19.63v8.63l7.94,0.05l-0.09-10.98c0.01-0.2,1.07-23.58-22.83-27.32
				c-0.07-0.01-2.21-0.42-5.4-0.42c-7.94,0-26.53,2.81-27.6,28.79v9.89h7.95v-9.22C750.61,754.66,751.27,735.15,768.96,735.15z"/>
			<path class="st103" d="M768.8,714.29c1.34,0,2.14,0.06,2.16,0.06c15.04,0.94,26.39,6.17,32.8,15.13
				c4.85,6.77,5.23,13.37,5.24,13.42l0.85,21.55l0.04,0.96l0.96,0l88.33,0.23c7.29,0.25,12.76,2.3,16.25,6.08
				c4.26,4.62,4.05,10.34,4.05,10.41l-11.9,322.27c-0.93,8.49-5.24,14.57-12.82,18.08c-6.09,2.82-12.49,3.12-14.96,3.12
				c-0.58,0-0.92-0.02-0.93-0.02l-0.03,0l-0.03,0l-218.9,0.76c-7.26-0.73-12.45-5.09-15.42-12.95c-2.28-6.01-2.34-11.91-2.34-11.97
				l0-0.03l0-0.03l-20.41-319.77l0-0.04l-0.01-0.04c-0.66-4.37,0.14-7.96,2.38-10.68c4.34-5.28,12.75-5.69,12.79-5.7h94.5h0.99
				l0.01-0.99l0.12-19.26C733.69,716.5,760.59,714.29,768.8,714.29 M742.14,765.2h1h6.95h1v-1l0-8.7
				c0.02-0.81,0.68-19.85,17.87-19.85c2.54,0,5.37,0.42,8.35,1.24c0.51,0.16,12.41,4.2,12.82,19.15v8.14v0.99l0.99,0.01l6.93,0.04
				l1.01,0.01l-0.01-1.01l-0.09-10.45c0.04-1.11,0.63-24.1-23.22-27.82c-0.09-0.02-2.27-0.44-5.51-0.44
				c-8.08,0-27.01,2.85-28.1,29.31v9.37V765.2 M768.8,713.29c-8.16,0-36.07,2.16-37.3,31.54l-0.12,19.3h-94.5
				c0,0-18.71,0.76-16.16,17.53l20.41,319.77c0,0,0.12,24.08,18.71,25.92l218.96-0.76c0,0,0.35,0.02,0.99,0.02
				c4.91,0,26.52-1.2,28.78-22.13l11.91-322.3c0,0,0.85-16.77-21.26-17.53l-88.36-0.23L810,742.86c0,0-1.29-27.16-38.97-29.51
				C771.03,713.35,770.21,713.29,768.8,713.29L768.8,713.29z M743.14,764.2v-9.37c1.03-25.02,18.17-28.31,27.1-28.31
				c3.18,0,5.32,0.42,5.32,0.42c23.73,3.71,22.41,26.83,22.41,26.83l0.09,10.47l-6.93-0.04v-8.14c-0.44-15.9-13.52-20.1-13.52-20.1
				c-3.25-0.9-6.12-1.29-8.65-1.29c-18.4,0-18.87,20.82-18.87,20.82v8.72H743.14L743.14,764.2z"/>
		</g>
		<path id="Path_6132" class="st104" d="M896.77,781.46H647.6c0,0-8.84-1.13-8.21,5.09l20.2,318.23c0,0-0.22,7.26,6.94,7.92
			l213.82-0.56c0,0,8.21-0.57,10.1-6.22l11.86-315.5C902.32,790.41,901.82,781.46,896.77,781.46z"/>
		<path id="Path_6135" class="st105" d="M707.79,904.85l0.63,158.06c0,0-3.98,9.05,8.64,9.05l115.56,0.9c0,0,3.96-0.9,3.32-10.52
			l1.26-161.46c0,0,8.31-10.75-3.06-9.05l-118.9,1.13C715.26,892.96,708.42,891.83,707.79,904.85z"/>
		
			<linearGradient id="Path_6133_1_" gradientUnits="userSpaceOnUse" x1="-632.2305" y1="2454.9626" x2="-632.2154" y2="2452.231" gradientTransform="matrix(1.600000e-14 254.931 -41.759 3.000000e-15 103121.3047 162117.8281)">
			<stop  offset="0" style="stop-color:#9DA794"/>
			<stop  offset="1" style="stop-color:#384848"/>
		</linearGradient>
		<path id="Path_6133" class="st106" d="M644.53,781.49l72.92,111.77l1.06,178.7l-58.7,35.17l-20.43-320.58c0,0-0.39-2.43,1.37-3.8
			C642.57,781.34,644.53,781.49,644.53,781.49z"/>
		
			<linearGradient id="Path_6134_1_" gradientUnits="userSpaceOnUse" x1="-632.4717" y1="2470.2314" x2="-632.4556" y2="2473.1084" gradientTransform="matrix(1.600000e-14 257.8317 -34.9139 2.000000e-15 87177.3438 164016.1875)">
			<stop  offset="0" style="stop-color:#9DA794"/>
			<stop  offset="1" style="stop-color:#384848"/>
		</linearGradient>
		<path id="Path_6134" class="st107" d="M831.97,892.69l65.16-111.23c0,0,6.27,0.23,5.09,13.81l-10.39,304.98
			c0,0-0.16,11.59-10.64,11.64l-49.68-39.31L831.97,892.69z"/>
	</g>
</g>
</svg>
