<svg width="34" height="30" viewBox="0 0 34 30" fill="none" xmlns="http://www.w3.org/2000/svg">
<path d="M33.003 29.4289C32.5207 29.4289 32.102 29.0904 32.0214 28.621C31.3026 24.5474 27.2384 17.4376 16.9291 17.0221V22.2488C16.9291 22.611 16.7206 22.9428 16.3889 23.1085C16.057 23.2742 15.6577 23.246 15.3541 23.0356L0.417098 12.6801C0.155324 12.4986 0 12.2055 0 11.8933C0 11.581 0.155324 11.288 0.417098 11.1066L15.3541 0.75115C15.6577 0.540646 16.0571 0.51248 16.3889 0.678189C16.7206 0.843898 16.9291 1.1757 16.9291 1.53787V6.84332C23.3017 7.46027 34 11.9248 34 28.4621C34 28.9651 33.6026 29.3841 33.0861 29.4256C33.0582 29.4278 33.0305 29.4289 33.003 29.4289Z" fill="white"/>
</svg>
