<svg width="41" height="13" viewBox="0 0 41 13" fill="none" xmlns="http://www.w3.org/2000/svg">
<path d="M4.51953 7.15582H1.62109L1.60547 5.72614H4.13672C4.5638 5.72614 4.92578 5.66364 5.22266 5.53864C5.52474 5.40843 5.75391 5.22353 5.91016 4.98395C6.06641 4.73916 6.14453 4.44489 6.14453 4.10114C6.14453 3.72093 6.07161 3.41103 5.92578 3.17145C5.77995 2.93186 5.55599 2.75739 5.25391 2.64801C4.95703 2.53864 4.57682 2.48395 4.11328 2.48395H2.21484V12.2964H0.253906V0.921448H4.11328C4.73828 0.921448 5.29557 0.981344 5.78516 1.10114C6.27995 1.22093 6.69922 1.40843 7.04297 1.66364C7.39193 1.91364 7.65495 2.23134 7.83203 2.61676C8.01432 3.00218 8.10547 3.46051 8.10547 3.99176C8.10547 4.46051 7.99349 4.8902 7.76953 5.28082C7.54557 5.66624 7.21484 5.98134 6.77734 6.22614C6.33984 6.47093 5.79557 6.61676 5.14453 6.66364L4.51953 7.15582ZM4.43359 12.2964H1.00391L1.88672 10.7418H4.43359C4.8763 10.7418 5.24609 10.6688 5.54297 10.523C5.83984 10.372 6.0612 10.1662 6.20703 9.90582C6.35807 9.6402 6.43359 9.3303 6.43359 8.97614C6.43359 8.60634 6.36849 8.28603 6.23828 8.0152C6.10807 7.73916 5.90234 7.52822 5.62109 7.38239C5.33984 7.23134 4.97266 7.15582 4.51953 7.15582H2.31641L2.33203 5.72614H5.19922L5.64453 6.2652C6.26953 6.28603 6.78255 6.42405 7.18359 6.67926C7.58984 6.93447 7.89193 7.2652 8.08984 7.67145C8.28776 8.0777 8.38672 8.5152 8.38672 8.98395C8.38672 9.70791 8.22786 10.3147 7.91016 10.8043C7.59766 11.2938 7.14714 11.6662 6.55859 11.9214C5.97005 12.1714 5.26172 12.2964 4.43359 12.2964ZM14.793 2.43707L11.3945 12.2964H9.33984L13.6211 0.921448H14.9336L14.793 2.43707ZM17.6367 12.2964L14.2305 2.43707L14.082 0.921448H15.4023L19.6992 12.2964H17.6367ZM17.4727 8.0777V9.63239H11.2852V8.0777H17.4727ZM27.5664 8.59332H29.5195C29.457 9.33811 29.2487 10.0022 28.8945 10.5855C28.5404 11.1636 28.043 11.6194 27.4023 11.9527C26.7617 12.286 25.9831 12.4527 25.0664 12.4527C24.3633 12.4527 23.7305 12.3277 23.168 12.0777C22.6055 11.8225 22.1237 11.4631 21.7227 10.9996C21.3216 10.5308 21.0143 9.96572 20.8008 9.30426C20.5924 8.6428 20.4883 7.90322 20.4883 7.08551V6.1402C20.4883 5.32249 20.5951 4.58291 20.8086 3.92145C21.0273 3.25999 21.3398 2.69489 21.7461 2.22614C22.1523 1.75218 22.6393 1.3902 23.207 1.1402C23.7799 0.890198 24.4232 0.765198 25.1367 0.765198C26.043 0.765198 26.8086 0.931864 27.4336 1.2652C28.0586 1.59853 28.543 2.05947 28.8867 2.64801C29.2357 3.23655 29.4492 3.91103 29.5273 4.67145H27.5742C27.5221 4.18186 27.4076 3.76259 27.2305 3.41364C27.0586 3.06468 26.8034 2.79905 26.4648 2.61676C26.1263 2.42926 25.6836 2.33551 25.1367 2.33551C24.6888 2.33551 24.2982 2.41884 23.9648 2.58551C23.6315 2.75218 23.3529 2.99697 23.1289 3.31989C22.9049 3.6428 22.7357 4.04124 22.6211 4.5152C22.5117 4.98395 22.457 5.52041 22.457 6.12457V7.08551C22.457 7.65843 22.5065 8.17926 22.6055 8.64801C22.7096 9.11155 22.8659 9.50999 23.0742 9.84332C23.2878 10.1767 23.5586 10.4345 23.8867 10.6168C24.2148 10.7991 24.6081 10.8902 25.0664 10.8902C25.6237 10.8902 26.0742 10.8017 26.418 10.6246C26.7669 10.4475 27.0299 10.1897 27.207 9.85114C27.3893 9.50739 27.5091 9.08811 27.5664 8.59332ZM33.2617 0.921448V12.2964H31.3008V0.921448H33.2617ZM40.0977 0.921448L35.4883 6.39801L32.8633 9.17926L32.5195 7.23395L34.3945 4.92145L37.707 0.921448H40.0977ZM37.9883 12.2964L34.2461 6.90582L35.5977 5.56989L40.3164 12.2964H37.9883Z" fill="white"/>
</svg>
