<svg width="112" height="28" viewBox="0 0 112 28" fill="none" xmlns="http://www.w3.org/2000/svg">
<path d="M41.312 20V8.56H45.408C47.76 8.56 49.152 9.456 49.152 11.536V11.6C49.152 12.736 48.64 13.632 47.344 14.032C48.896 14.368 49.632 15.216 49.632 16.736V16.8C49.632 18.928 48.224 20 45.712 20H41.312ZM43.392 18.48H45.456C46.88 18.48 47.536 17.84 47.536 16.656V16.592C47.536 15.408 46.88 14.816 45.312 14.816H43.392V18.48ZM43.392 13.376H45.152C46.56 13.376 47.104 12.864 47.104 11.696V11.632C47.104 10.544 46.48 10.08 45.12 10.08H43.392V13.376ZM51.8682 20L55.6922 8.56H58.4763L62.2523 20H60.0443L59.1323 17.168H54.7642L53.8682 20H51.8682ZM56.9563 10.304L55.2602 15.616H58.6363L56.9563 10.304ZM69.6456 20.16C66.0616 20.16 64.0616 17.872 64.0616 14.352V14.224C64.0616 10.784 66.4296 8.384 69.6136 8.384C72.2376 8.384 74.2696 9.696 74.5256 12.384H72.3656C72.1256 10.864 71.2776 10.08 69.6296 10.08C67.6136 10.08 66.3016 11.648 66.3016 14.208V14.336C66.3016 16.912 67.5336 18.432 69.6456 18.432C71.2296 18.432 72.3496 17.632 72.5736 16.016H74.6536C74.3176 18.768 72.3656 20.16 69.6456 20.16ZM77.777 20V8.56H79.905V13.744L84.289 8.544H86.577L81.841 14.016L86.817 20H84.305L79.905 14.656V20H77.777Z" fill="black" fill-opacity="0.6"/>
<path d="M10.3183 23.6334C10.8681 24.1222 11.7569 24.1222 12.3067 23.6334C12.8566 23.1447 12.8566 22.3547 12.3067 21.8659L4.86344 15.2497H29.5938C30.37 15.2497 31 14.6897 31 13.9997C31 13.3097 30.37 12.7497 29.5938 12.7497H4.86344L12.3067 6.13344C12.8566 5.64469 12.8566 4.85469 12.3067 4.36594C11.7569 3.87719 10.8681 3.87719 10.3183 4.36594L0.474529 13.1159C-0.0837517 13.6109 -0.0654716 14.4047 0.474529 14.8847L10.3183 23.6334Z" fill="black"/>
</svg>
