<svg width="153" height="92" viewBox="0 0 153 92" fill="none" xmlns="http://www.w3.org/2000/svg">
<path d="M10 37V58H139V37H10ZM15.7211 49.3244L14.0351 47.8938L12.3491 49.3244L12.9898 47.0013L11.3038 45.5706H13.3944L14.0351 43.2475L14.6758 45.5706H16.7664L15.0804 47.0013L15.7211 49.3244ZM136.359 49.3244L134.673 47.8938L132.987 49.3244L133.627 47.0013L131.941 45.5706H134.032L134.673 43.2475L135.325 45.5706H137.415L135.729 47.0013L136.37 49.3244H136.359Z" fill="url(#paint0_linear_2614_7688)"/>
<path d="M75.9074 22.8477C83.2848 22.8477 89.8941 26.1457 94.3577 31.3245H96.1458C91.4305 25.3245 84.1193 21.4437 75.9074 21.4437C67.6954 21.4437 60.3842 25.3245 55.6689 31.3245H57.457C61.9338 26.1457 68.5299 22.8477 75.9074 22.8477Z" fill="#E2293C"/>
<path d="M75.9074 71.5894C68.5299 71.5894 61.9206 68.2914 57.457 63.1126H55.6689C60.3842 69.1126 67.6954 72.9934 75.9074 72.9934C84.1193 72.9934 91.4305 69.1126 96.1458 63.1126H94.3577C89.8941 68.3046 83.2848 71.5894 75.9074 71.5894Z" fill="#E2293C"/>
<path d="M54.702 59.2053H53.1259H20.7815V63.1126H55.6689H57.4437H94.3577H96.1457H131.02V59.2053H98.6888H97.0994H54.702Z" fill="url(#paint1_linear_2614_7688)"/>
<path d="M131.02 31.3245H96.1457H94.3577H57.4437H55.6689H20.7815V35.2185H53.1259H54.702H97.0994H98.6888H131.02V31.3245Z" fill="url(#paint2_linear_2614_7688)"/>
<path d="M75.9072 89.2053C58.6622 89.2053 43.788 79.0993 36.8476 64.4901H33.8013C40.9403 80.6623 57.1125 91.9868 75.9072 91.9868C94.7019 91.9868 110.874 80.6623 118.013 64.4901H114.967C108.04 79.0993 93.1523 89.2053 75.9072 89.2053Z" fill="#E2293C"/>
<path d="M75.9073 2.7947C94.0927 2.7947 109.642 14.0397 116.026 29.947H119.02C112.464 12.4768 95.6159 0 75.9073 0C56.1987 0 39.3245 12.4768 32.7947 29.9338H35.7881C42.1589 14.0265 57.7086 2.7947 75.9073 2.7947Z" fill="#E2293C"/>
<path d="M44.649 20.8874L46.4503 19.0464L53.0198 25.4834L56.1854 22.2517L57.7218 23.7616L52.7549 28.8344L44.6357 20.8874H44.649Z" fill="#144691"/>
<path d="M64.1591 13.5894C65.9075 16.8742 64.9671 19.9338 62.0399 21.4967C59.0598 23.0729 56.1194 21.7484 54.6094 18.9007C53.02 15.894 53.7353 12.6225 56.7022 11.0464C59.7883 9.40398 62.6889 10.8212 64.1591 13.5894ZM56.9803 17.5762C58.0267 19.5364 59.6823 20.4371 61.2055 19.6291C62.7419 18.8212 62.8479 16.8874 61.8015 14.9404C60.8479 13.1391 59.1657 12.053 57.6028 12.8742C56.0664 13.6954 55.9472 15.6291 56.9803 17.5762Z" fill="#144691"/>
<path d="M69.1789 18.2649L65.7219 7.11259L68.4636 6.92716L69.6425 11.5364C69.9868 12.8609 70.318 14.3046 70.5829 15.4437H70.6093C70.7153 14.1987 70.8875 12.8212 71.0862 11.404L71.7352 6.70199L74.4636 6.51656L75.6954 11.2318C76.0398 12.543 76.3047 13.7351 76.5564 14.9934H76.5961C76.6756 13.7219 76.8478 12.3709 76.9802 11.0066L77.5895 6.30464L80.1987 6.13245L78.0398 17.6556L75.2716 17.8411L73.9868 13.0331C73.6954 11.9073 73.4305 10.8609 73.2054 9.57616H73.1656C73.0464 10.8742 72.9405 11.9603 72.7418 13.1126L72.0001 18.0662L69.1921 18.2517L69.1789 18.2649Z" fill="#144691"/>
<path d="M89.1127 15.7351L85.1392 14.4503L84.3047 17.0199L88.7418 18.4503L88.0928 20.4503L81.1921 18.2252L84.6756 7.41722L91.3511 9.56292L90.7021 11.5629L86.4769 10.1987L85.7484 12.4503L89.7219 13.7351L89.0862 15.7219L89.1127 15.7351Z" fill="#144691"/>
<path d="M90.5166 18.7947C90.8875 19.4702 91.563 20.3576 92.4769 20.9801C93.4571 21.6424 94.2385 21.5894 94.6624 20.9801C95.0597 20.3974 94.8345 19.7616 93.9869 18.5828C92.7948 16.9801 92.3577 15.4305 93.2849 14.053C94.371 12.4503 96.5431 12.1325 98.7551 13.6291C99.8147 14.3444 100.437 15.0993 100.835 15.7351L99.1921 17.1258C98.9405 16.6887 98.4504 15.9735 97.5233 15.351C96.5961 14.7285 95.8676 14.8477 95.5365 15.3245C95.1259 15.9205 95.4835 16.5431 96.3842 17.8278C97.6292 19.5629 97.8279 20.9669 96.9272 22.2914C95.8544 23.8676 93.7352 24.3841 91.1524 22.6358C90.0796 21.9073 89.2054 20.9139 88.8743 20.2517L90.5034 18.7947H90.5166Z" fill="#144691"/>
<path d="M104.212 21.6159L102.278 19.2583L103.947 17.894L109.483 24.6358L107.815 26L105.854 23.6027L98.7418 29.4437L97.0994 27.457L104.212 21.6159Z" fill="#144691"/>
<path d="M106.596 72.596L104.795 74.4371L98.212 68.0133L95.0597 71.245L93.51 69.7351L98.4636 64.6623L106.583 72.596H106.596Z" fill="#144691"/>
<path d="M87.1525 79.9073C85.3909 76.6225 86.318 73.5629 89.2452 72C92.2121 70.4106 95.1525 71.7219 96.6889 74.5695C98.2915 77.5762 97.5763 80.8477 94.6227 82.4238C91.5498 84.0662 88.6359 82.6623 87.1525 79.9073ZM94.318 75.894C93.2717 73.9338 91.6028 73.0464 90.0929 73.8543C88.5564 74.6755 88.4637 76.596 89.5101 78.543C90.477 80.3444 92.1591 81.4305 93.722 80.596C95.2584 79.7748 95.3644 77.8411 94.318 75.894Z" fill="#144691"/>
<path d="M82.1192 75.245L85.6159 86.3841L82.8742 86.5828L81.6821 81.9735C81.3378 80.649 80.9934 79.2053 80.7285 78.0662H80.6888C80.596 79.3113 80.4239 80.6887 80.2384 82.106L79.6159 86.8212L76.8874 87.0199L75.6424 82.3046C75.298 80.9934 75.0199 79.8013 74.7682 78.543H74.7285C74.649 79.8146 74.4901 81.1656 74.3576 82.5298L73.7616 87.2318L71.1523 87.4172L73.2715 75.8675L76.053 75.6689L77.3643 80.4768C77.6689 81.6026 77.9206 82.649 78.1457 83.9338H78.1855C78.2914 82.6358 78.4106 81.5497 78.5961 80.3841L79.3245 75.4305L82.1325 75.2318L82.1192 75.245Z" fill="#144691"/>
<path d="M62.1722 77.8146L66.159 79.0861L66.9802 76.5166L62.5299 75.0993L63.1656 73.0993L70.0663 75.3113L66.6093 86.1324L59.9338 84L60.5696 82L64.7948 83.351L65.51 81.0993L61.5232 79.8278L62.159 77.8411L62.1722 77.8146Z" fill="#144691"/>
<path d="M60.7816 74.7682C60.4108 74.0927 59.722 73.2053 58.8214 72.596C57.8412 71.9338 57.0598 72 56.6359 72.596C56.2386 73.1788 56.4637 73.8146 57.3247 74.9934C58.5167 76.596 58.9538 78.1457 58.0399 79.5232C56.9538 81.1258 54.7816 81.457 52.5697 79.9603C51.5101 79.245 50.8743 78.4901 50.4902 77.8675L52.1194 76.4636C52.371 76.9007 52.8611 77.6159 53.7882 78.2384C54.7154 78.8609 55.4439 78.7417 55.775 78.2517C56.1856 77.6556 55.828 77.0331 54.9273 75.7483C53.6823 74.0132 53.4836 72.6225 54.371 71.298C55.4306 69.7219 57.5498 69.1921 60.1459 70.9404C61.2187 71.6689 62.0929 72.6622 62.424 73.3113L60.8081 74.7815L60.7816 74.7682Z" fill="#144691"/>
<path d="M47.0597 71.9868L48.9934 74.3444L47.3246 75.7218L41.7749 68.9934L43.4438 67.6159L45.4173 70.0132L52.5166 64.1589L54.159 66.1457L47.0597 72V71.9868Z" fill="#144691"/>
<path d="M24 42.2018C24.8477 42.0673 25.951 42 27.1123 42C29.04 42 30.2942 42.3363 31.2813 43.0538C32.3381 43.8161 33 45.0157 33 46.7534C33 48.6368 32.2916 49.926 31.3045 50.7332C30.2361 51.5964 28.5987 52 26.6129 52C25.4168 52 24.5806 51.9327 24 51.8543V42.2018ZM26.311 50.2175C26.5084 50.2623 26.8219 50.2623 27.1123 50.2623C29.191 50.2735 30.5497 49.1749 30.5497 46.8206C30.5613 44.7803 29.3303 43.704 27.3445 43.704C26.8335 43.704 26.4968 43.7489 26.2994 43.7937V50.2175H26.311Z" fill="white"/>
<path d="M43 46.895C43 50.0663 41.1401 52 38.4038 52C35.6675 52 34 49.8343 34 47.0718C34 44.1657 35.7957 42 38.5534 42C41.3112 42 43 44.232 43 46.895ZM36.234 47.0276C36.234 48.9282 37.0998 50.2541 38.5107 50.2541C39.9216 50.2541 40.766 48.8508 40.766 46.9613C40.766 45.2265 39.9644 43.7348 38.5 43.7348C37.0356 43.7348 36.234 45.1381 36.234 47.0276Z" fill="white"/>
<path d="M46.4186 52L44 42.0114H46.4651L47.2326 46.1277C47.4535 47.3136 47.6744 48.6021 47.8372 49.6055H47.8721C48.0349 48.5222 48.2791 47.325 48.5349 46.0935L49.3953 42H51.8488L52.6628 46.2075C52.8837 47.382 53.0581 48.4424 53.2093 49.5599H53.2442C53.3953 48.4538 53.6163 47.2794 53.8372 46.0935L54.6628 42H57L54.3721 51.9886H51.8837L51.0233 47.6899C50.8256 46.6864 50.6628 45.7514 50.5349 44.6112H50.5C50.314 45.74 50.1512 46.6864 49.907 47.6899L48.9419 51.9886H46.4186V52Z" fill="white"/>
<path d="M58 52V42H60.549L62.5572 45.6644C63.131 46.7146 63.7048 47.9589 64.1352 49.089H64.1793C64.0359 47.7648 63.9917 46.4178 63.9917 44.9224V42H66V52H63.7048L61.6414 48.1416C61.0676 47.0685 60.4386 45.7785 59.9641 44.6142H59.92C59.9752 45.9498 60.0083 47.3539 60.0083 48.9863V52H58Z" fill="white"/>
<path d="M68 42.2041C68.581 42.0907 69.4 42 70.5524 42C71.7048 42 72.5429 42.2608 73.1048 42.7936C73.6381 43.2925 74 44.1202 74 45.0952C74 46.0703 73.7238 46.898 73.2286 47.4535C72.581 48.1791 71.6286 48.4966 70.5143 48.4966C70.2667 48.4966 70.0476 48.4853 69.8667 48.4512V52H68V42.1927V42.2041ZM69.8667 46.7166C70.0286 46.7619 70.2286 46.7732 70.4952 46.7732C71.4952 46.7732 72.1143 46.1723 72.1143 45.1519C72.1143 44.2336 71.581 43.6893 70.6381 43.6893C70.2571 43.6893 69.9905 43.7347 69.8571 43.78V46.7166H69.8667Z" fill="white"/>
<path d="M77.3375 49.4315L76.5625 52H74L77.35 42H80.6L84 52H81.3375L80.4875 49.4315H77.35H77.3375ZM80.1125 47.742L79.425 45.6187C79.225 45.0251 79.0375 44.2831 78.875 43.6895H78.8375C78.675 44.2831 78.5125 45.0365 78.3375 45.6187L77.6875 47.742H80.1125Z" fill="white"/>
<path d="M85.9043 52V47.9018L83 42H85.3696L86.3132 44.4087C86.5963 45.1393 86.7955 45.6758 87.0262 46.3265H87.0577C87.2569 45.6986 87.4771 45.1279 87.7497 44.4087L88.6723 42H91L87.9699 47.8333V52H85.8938H85.9043Z" fill="white"/>
<path d="M99.6591 48.1688C99.6136 46.9715 99.5682 45.512 99.5682 44.0639H99.5227C99.2159 45.3409 98.7955 46.7662 98.4205 47.9293L97.2045 51.829H95.4432L94.375 47.9635C94.0455 46.7891 93.7159 45.3751 93.4773 44.0639H93.4432C93.3864 45.4093 93.3409 46.9601 93.2614 48.203L93.0795 52H91L91.6364 42.0114H94.6364L95.6136 45.3409C95.9205 46.4926 96.2386 47.7469 96.4545 48.9099H96.5C96.7841 47.7583 97.125 46.4356 97.4432 45.3181L98.5114 42H101.455L102 51.9886H99.7955L99.6477 48.1688H99.6591Z" fill="white"/>
<path d="M109.592 47.7763H106.136V50.1507H110V52H104V42H109.807V43.8493H106.136V45.9269H109.592V47.7648V47.7763Z" fill="white"/>
<path d="M111 52V42H113.868L116.127 45.6644C116.772 46.7146 117.418 47.9589 117.902 49.089H117.952C117.79 47.7648 117.741 46.4178 117.741 44.9224V42H120V52H117.418L115.097 48.1416C114.451 47.0685 113.743 45.7785 113.21 44.6142H113.16C113.222 45.9498 113.259 47.3539 113.259 48.9863V52H111Z" fill="white"/>
<path d="M122.793 43.895H120V42H128V43.895H125.159V52H122.793V43.895Z" fill="white"/>
<defs>
<linearGradient id="paint0_linear_2614_7688" x1="10" y1="47.5" x2="139" y2="47.5" gradientUnits="userSpaceOnUse">
<stop stop-color="#E2293C"/>
<stop offset="1" stop-color="#7C1621"/>
</linearGradient>
<linearGradient id="paint1_linear_2614_7688" x1="20.7815" y1="61.1589" x2="131.02" y2="61.1589" gradientUnits="userSpaceOnUse">
<stop stop-color="#14458E"/>
<stop offset="1" stop-color="#061328"/>
</linearGradient>
<linearGradient id="paint2_linear_2614_7688" x1="20.7815" y1="33.2715" x2="131.02" y2="33.2715" gradientUnits="userSpaceOnUse">
<stop stop-color="#14458E"/>
<stop offset="1" stop-color="#061328"/>
</linearGradient>
</defs>
</svg>
