<svg width="92" height="92" viewBox="0 0 92 92" fill="none" xmlns="http://www.w3.org/2000/svg">
<mask id="mask0_2614_7544" style="mask-type:luminance" maskUnits="userSpaceOnUse" x="0" y="0" width="92" height="92">
<path d="M46 0C20.6327 0 0 20.6327 0 46C0 71.3673 20.6327 92 46 92C71.3673 92 92 71.3673 92 46C92 20.6327 71.3609 0 46 0Z" fill="white"/>
</mask>
<g mask="url(#mask0_2614_7544)">
<path d="M36.4293 40.0152C23.7234 39.4757 11.2651 41.4241 -0.590339 49.5477C-2.03736 34.7412 -3.49073 19.9346 -4.94409 5.12169C6.91132 -3.00193 19.3697 -4.95033 32.0755 -4.41087C33.5289 10.3957 34.9822 25.2086 36.4293 40.0152Z" fill="url(#paint0_linear_2614_7544)"/>
<path d="M125.351 37.2036C97.4899 56.2942 66.2837 41.2845 36.4294 40.0152C34.9761 25.2086 33.5291 10.3957 32.0757 -4.41087C61.93 -3.14155 93.1361 11.8681 120.998 -7.2224C122.451 7.58416 123.904 22.3971 125.351 37.2036Z" fill="url(#paint1_linear_2614_7544)"/>
<path d="M121.62 -0.875826C93.7581 18.2147 62.552 3.20502 32.6976 1.93571C32.4882 -0.177702 32.2851 -2.29746 32.0757 -4.41087C61.93 -3.14155 93.1361 11.8681 120.998 -7.2224C121.207 -5.10899 121.41 -2.98924 121.62 -0.875826Z" fill="url(#paint2_linear_2614_7544)"/>
<path d="M122.863 11.8173C95.002 30.9078 63.7959 15.8982 33.9415 14.6289C33.7321 12.5155 33.529 10.3957 33.3196 8.28229C63.1739 9.55161 94.38 24.5613 122.241 5.47076C122.451 7.58417 122.654 9.70392 122.863 11.8173Z" fill="url(#paint3_linear_2614_7544)"/>
<path d="M124.107 24.5105C96.2459 43.601 65.0397 28.5913 35.1854 27.322C34.976 25.2086 34.7729 23.0889 34.5635 20.9754C64.4178 22.2448 95.6239 37.2544 123.485 18.1639C123.695 20.2773 123.898 22.3971 124.107 24.5105Z" fill="url(#paint4_linear_2614_7544)"/>
<path d="M125.351 37.2036C97.4898 56.2942 66.2836 41.2845 36.4293 40.0152C36.2199 37.9018 36.0168 35.782 35.8074 33.6686C65.6617 34.9379 96.8678 49.9476 124.729 30.8571C124.939 32.9705 125.142 35.0902 125.351 37.2036Z" fill="url(#paint5_linear_2614_7544)"/>
<path d="M17.5736 2.53863C17.8845 3.06539 18.1955 3.59216 18.5002 4.12527C19.1221 4.09989 19.7504 4.08085 20.3724 4.0745C19.9535 4.55049 19.5347 5.02649 19.1158 5.51517C19.2998 6.1054 19.4902 6.70198 19.6743 7.29222C19.1031 7.05739 18.5382 6.82892 17.9671 6.60678C17.4593 7.00662 16.9516 7.4128 16.4502 7.82533C16.5137 7.19067 16.5835 6.55601 16.6533 5.92135C16.1519 5.58498 15.6569 5.26131 15.1555 4.93763C15.7648 4.74089 16.3677 4.55684 16.977 4.37914C17.1737 3.76352 17.3705 3.15425 17.5736 2.54497V2.53863Z" fill="url(#paint6_radial_2614_7544)"/>
<path d="M18.462 11.5698C18.773 12.0966 19.084 12.6233 19.3886 13.1565C20.0106 13.1311 20.6389 13.112 21.2608 13.1057C20.842 13.5817 20.4231 14.0577 20.0042 14.5464C20.1883 15.1366 20.3787 15.7332 20.5627 16.3234C19.9915 16.0886 19.4267 15.8601 18.8555 15.638C18.3478 16.0378 17.84 16.444 17.3386 16.8565C17.4085 16.2219 17.4719 15.5872 17.5417 14.9525C17.0404 14.6162 16.5453 14.2925 16.0439 13.9688C16.6532 13.7721 17.2561 13.588 17.8654 13.4103C18.0622 12.7947 18.2589 12.1854 18.462 11.5762V11.5698Z" fill="url(#paint7_radial_2614_7544)"/>
<path d="M19.3443 20.601C19.6553 21.1278 19.9663 21.6545 20.2709 22.1876C20.8929 22.1623 21.5212 22.1432 22.1432 22.1369C21.7243 22.6129 21.3054 23.0889 20.8865 23.5775C21.0706 24.1678 21.261 24.7644 21.445 25.3546C20.8738 25.1198 20.309 24.8913 19.7378 24.6692C19.2301 25.069 18.7224 25.4752 18.221 25.8877C18.2844 25.253 18.3543 24.6184 18.4241 23.9837C17.9227 23.6474 17.4276 23.3237 16.9263 23C17.5355 22.8033 18.1385 22.6192 18.7477 22.4415C18.9445 21.8259 19.1412 21.2166 19.3443 20.6073V20.601Z" fill="url(#paint8_radial_2614_7544)"/>
<path d="M20.2327 29.6385C20.5437 30.1653 20.8547 30.6921 21.1593 31.2252C21.7813 31.1998 22.4096 31.1807 23.0316 31.1744C22.6127 31.6504 22.1938 32.1264 21.775 32.6151C21.959 33.2053 22.1494 33.8019 22.3335 34.3921C21.7623 34.1573 21.1974 33.9288 20.6262 33.7067C20.1185 34.1065 19.6108 34.5127 19.1094 34.9252C19.1792 34.2906 19.2427 33.6559 19.3125 33.0212C18.8111 32.6849 18.3161 32.3612 17.8147 32.0375C18.424 31.8408 19.0269 31.6567 19.6362 31.479C19.8329 30.8634 20.0297 30.2541 20.2327 29.6449V29.6385Z" fill="url(#paint9_radial_2614_7544)"/>
<path d="M26.846 6.22599C27.157 6.78449 27.4743 7.34933 27.7853 7.91418C28.4136 7.9713 29.0483 8.02842 29.6829 8.09823C29.2577 8.5171 28.8325 8.93598 28.4073 9.3612C28.5977 9.97047 28.7817 10.5797 28.9721 11.189C28.3946 10.8844 27.817 10.5861 27.2459 10.2941C26.7318 10.6178 26.2177 10.9542 25.7036 11.2906C25.7734 10.6749 25.8433 10.0593 25.9067 9.43736C25.399 9.03752 24.8976 8.65038 24.3899 8.25689C25.0055 8.149 25.6211 8.04746 26.2367 7.95861C26.4398 7.38107 26.6366 6.80353 26.8397 6.22599H26.846Z" fill="url(#paint10_radial_2614_7544)"/>
<path d="M27.7344 15.2572C28.0454 15.8157 28.3628 16.3805 28.6737 16.9454C29.3021 17.0025 29.9367 17.0596 30.5714 17.1294C30.1461 17.5483 29.7209 17.9672 29.2957 18.3924C29.4861 19.0017 29.6702 19.6109 29.8606 20.2202C29.283 19.9156 28.7055 19.6173 28.1343 19.3253C27.6202 19.649 27.1061 19.9854 26.5921 20.3217C26.6619 19.7061 26.7317 19.0905 26.7952 18.4685C26.2874 18.0687 25.786 17.6816 25.2783 17.2881C25.8939 17.1802 26.5096 17.0786 27.1252 16.9898C27.3283 16.4123 27.525 15.8347 27.7281 15.2572H27.7344Z" fill="url(#paint11_radial_2614_7544)"/>
<path d="M28.6168 24.2884C28.9278 24.8469 29.2451 25.4117 29.5561 25.9765C30.1844 26.0337 30.819 26.0908 31.4537 26.1606C31.0285 26.5795 30.6033 26.9983 30.178 27.4236C30.3684 28.0328 30.5525 28.6421 30.7429 29.2514C30.1653 28.9467 29.5878 28.6485 29.0166 28.3565C28.5025 28.6802 27.9885 29.0166 27.4744 29.3529C27.5442 28.7373 27.614 28.1217 27.6775 27.4997C27.1698 27.0999 26.6684 26.7127 26.1606 26.3193C26.7763 26.2114 27.3919 26.1098 28.0075 26.021C28.2106 25.4434 28.4073 24.8659 28.6104 24.2884H28.6168Z" fill="url(#paint12_radial_2614_7544)"/>
<path d="M0.329927 8.41556C0.628216 8.85347 0.932852 9.28504 1.23114 9.7293C1.83407 9.48178 2.43699 9.24696 3.03992 9.03118C2.63373 9.66583 2.2339 10.3068 1.82772 10.9542C2.01177 11.5 2.19582 12.0521 2.37353 12.598C1.82137 12.5535 1.27557 12.5154 0.723415 12.4901C0.234728 13.0866 -0.253958 13.6896 -0.736298 14.3052C-0.672832 13.6198 -0.609367 12.9407 -0.552248 12.2616C-1.03459 12.0966 -1.51693 11.9443 -1.99927 11.7983C-1.41538 11.3667 -0.831497 10.9478 -0.241265 10.5417C-0.0508679 9.83085 0.133183 9.12638 0.323581 8.42825L0.329927 8.41556Z" fill="url(#paint13_radial_2614_7544)"/>
<path d="M1.21835 17.4467C1.51664 17.8847 1.82128 18.3162 2.11957 18.7605C2.72249 18.513 3.32542 18.2781 3.92834 18.0624C3.52216 18.697 3.12233 19.338 2.71615 19.9854C2.9002 20.5312 3.08425 21.0833 3.26195 21.6291C2.7098 21.5847 2.164 21.5466 1.61184 21.5213C1.12316 22.1178 0.634469 22.7208 0.152129 23.3364C0.215595 22.6509 0.279061 21.9719 0.33618 21.2928C-0.14616 21.1278 -0.6285 20.9754 -1.11084 20.8295C-0.526955 20.3979 0.056931 19.979 0.647163 19.5729C0.83756 18.862 1.02161 18.1576 1.21201 17.4594L1.21835 17.4467Z" fill="url(#paint14_radial_2614_7544)"/>
<path d="M2.10068 26.4843C2.39897 26.9222 2.7036 27.3538 3.00189 27.798C3.60482 27.5505 4.20774 27.3157 4.81067 27.0999C4.40449 27.7346 4.00465 28.3756 3.59847 29.0229C3.78252 29.5687 3.96657 30.1209 4.14428 30.6667C3.59212 30.6223 3.04632 30.5842 2.49417 30.5588C2.00548 31.1554 1.51679 31.7583 1.03445 32.3739C1.09792 31.6885 1.16139 31.0094 1.2185 30.3303C0.736164 30.1653 0.253824 30.013 -0.228516 29.867C0.35537 29.4354 0.939255 29.0166 1.52949 28.6104C1.71988 27.8996 1.90393 27.1951 2.09433 26.497L2.10068 26.4843Z" fill="url(#paint15_radial_2614_7544)"/>
<path d="M2.98911 35.5154C3.2874 35.9534 3.59203 36.3849 3.89032 36.8292C4.49325 36.5817 5.09617 36.3469 5.6991 36.1311C5.29291 36.7657 4.89308 37.4067 4.4869 38.0541C4.67095 38.5999 4.855 39.152 5.0327 39.6978C4.48055 39.6534 3.93475 39.6153 3.38259 39.59C2.89391 40.1865 2.40522 40.7895 1.92288 41.4051C1.98635 40.7196 2.04981 40.0406 2.10693 39.3615C1.62459 39.1965 1.14225 39.0441 0.659912 38.8982C1.2438 38.4666 1.82768 38.0477 2.41791 37.6416C2.60831 36.9307 2.79236 36.2263 2.98276 35.5281L2.98911 35.5154Z" fill="url(#paint16_radial_2614_7544)"/>
<path d="M9.31674 9.1962C9.62137 9.67854 9.92601 10.1672 10.237 10.6559C10.8526 10.529 11.4682 10.4147 12.0838 10.3132C11.6713 10.859 11.2588 11.4112 10.8463 11.9697C11.0303 12.5408 11.2144 13.112 11.3984 13.6896C10.8399 13.5373 10.2751 13.3976 9.71657 13.2644C9.21519 13.753 8.72016 14.2481 8.22513 14.7558C8.28859 14.1021 8.35206 13.4421 8.42187 12.7884C7.93318 12.5345 7.43815 12.287 6.94946 12.0395C7.54604 11.7348 8.14262 11.4429 8.7392 11.1636C8.93594 10.5099 9.12634 9.8499 9.32308 9.1962H9.31674Z" fill="url(#paint17_radial_2614_7544)"/>
<path d="M10.2052 18.2274C10.5098 18.7097 10.8144 19.1984 11.1254 19.6871C11.741 19.5602 12.3567 19.4459 12.9723 19.3444C12.5597 19.8902 12.1472 20.4423 11.7347 21.0008C11.9187 21.572 12.1028 22.1432 12.2868 22.7207C11.7283 22.5684 11.1635 22.4288 10.605 22.2955C10.1036 22.7842 9.60859 23.2792 9.11355 23.787C9.17702 23.1333 9.24048 22.4732 9.3103 21.8195C8.82161 21.5657 8.32658 21.3182 7.83789 21.0706C8.43447 20.766 9.03105 20.4741 9.62763 20.1948C9.82437 19.5411 10.0148 18.8811 10.2115 18.2274H10.2052Z" fill="url(#paint18_radial_2614_7544)"/>
<path d="M11.0875 27.2586C11.3921 27.7409 11.6968 28.2296 12.0077 28.7183C12.6234 28.5913 13.239 28.4771 13.8546 28.3756C13.4421 28.9214 13.0295 29.4735 12.617 30.032C12.8011 30.6032 12.9851 31.1744 13.1692 31.7519C12.6107 31.5996 12.0458 31.46 11.4873 31.3267C10.9859 31.8154 10.4909 32.3104 9.99588 32.8182C10.0593 32.1645 10.1228 31.5044 10.1926 30.8507C9.70393 30.5969 9.2089 30.3493 8.72021 30.1018C9.31679 29.7972 9.91337 29.5052 10.5099 29.226C10.7067 28.5723 10.8971 27.9123 11.0938 27.2586H11.0875Z" fill="url(#paint19_radial_2614_7544)"/>
</g>
<path d="M9.0884 47.9674L10.0785 51.0011H13.2708L10.6877 52.8797L11.6715 55.9197L9.0884 54.0411L6.50535 55.9197L7.49541 52.8797L4.91235 51.0011H8.10468L9.0884 47.9674Z" fill="url(#paint20_linear_2614_7544)"/>
<path d="M82.9053 47.9675L83.8954 51.0011H87.0877L84.5046 52.8797L85.4884 55.9197L82.9053 54.0411L80.3222 55.9197L81.306 52.8797L78.7229 51.0011H81.9216L82.9053 47.9675Z" fill="url(#paint21_linear_2614_7544)"/>
<path d="M70.4231 47.8851H72.7083V56.1306H70.7882L67.1485 51.7369V56.1306H64.8633V47.8851H66.7833L70.4231 52.2788V47.8851Z" fill="#144691"/>
<path d="M60.8718 56.1306V47.8851H63.2041V56.1306H60.8718Z" fill="#144691"/>
<path d="M51.8383 54.3284H56.1495V56.1306H49.5295V47.8851H55.9963V49.6873H51.8383V51.0773H55.5016V52.8206H51.8383V54.3284Z" fill="#144691"/>
<path d="M39.7979 56.1306V47.8851H43.6968C46.4296 47.8851 48.3025 49.4753 48.3025 52.0079C48.3025 54.5404 46.4296 56.1306 43.6968 56.1306H39.7979ZM42.1301 54.2695H43.6026C45.0043 54.2695 45.9466 53.4331 45.9466 52.0079C45.9466 50.5826 45.0043 49.7462 43.6026 49.7462H42.1301V54.2695Z" fill="#144691"/>
<path d="M36.7101 56.1306L36.0623 54.5286H32.5756L31.9277 56.1306H29.5483L33.1881 47.8851H35.4851L39.1367 56.1306H36.7101ZM33.2588 52.8088H35.3791L34.3189 50.1703L33.2588 52.8088Z" fill="#144691"/>
<path d="M28.8876 56.1306H26.7438L26.7202 51.7605L24.6 55.3178H23.5634L21.4549 51.8783V56.1306H19.2993V47.8851H21.2193L24.117 52.6439L26.9441 47.8851H28.8641L28.8876 56.1306Z" fill="#144691"/>
<path d="M72.7246 81.9092L71.1393 77.989H62.6072L61.0218 81.9092H55.1992L64.1061 61.7319H69.7269L78.6625 81.9092H72.7246ZM64.279 73.7806H69.4674L66.8732 67.3239L64.279 73.7806Z" fill="#E2293C"/>
<path d="M46.0485 82.3127C42.7336 82.3127 39.4476 81.4192 37.5452 80.0932L39.4188 75.8848C41.2059 77.0666 43.7425 77.8737 46.0773 77.8737C48.4409 77.8737 49.3633 77.2108 49.3633 76.2307C49.3633 73.0312 37.8911 75.366 37.8911 67.8716C37.8911 64.2685 40.8312 61.3284 46.8267 61.3284C49.4498 61.3284 52.1593 61.9337 54.1482 63.0867L52.3899 67.3239C50.4586 66.2862 48.5562 65.7674 46.7979 65.7674C44.4054 65.7674 43.5407 66.5745 43.5407 67.5833C43.5407 70.6676 54.9841 68.3616 54.9841 75.7984C54.9841 79.315 52.044 82.3127 46.0485 82.3127Z" fill="#E2293C"/>
<path d="M25.6078 82.3127C19.6411 82.3127 16.1245 78.9403 16.1245 72.9159V61.7319H21.8318V72.7429C21.8318 76.2019 23.273 77.5855 25.6655 77.5855C28.0291 77.5855 29.4703 76.2019 29.4703 72.7429V61.7319H35.0912V72.9159C35.0912 78.9403 31.5746 82.3127 25.6078 82.3127Z" fill="#E2293C"/>
<defs>
<linearGradient id="paint0_linear_2614_7544" x1="18.2064" y1="47.7045" x2="13.1967" y2="-3.38791" gradientUnits="userSpaceOnUse">
<stop stop-color="#144691"/>
<stop offset="1" stop-color="#092B61"/>
</linearGradient>
<linearGradient id="paint1_linear_2614_7544" x1="81.8346" y1="48.2063" x2="76.2508" y2="-8.74138" gradientUnits="userSpaceOnUse">
<stop stop-color="white"/>
<stop offset="1" stop-color="#F0F0F0"/>
</linearGradient>
<linearGradient id="paint2_linear_2614_7544" x1="33.7068" y1="-0.558496" x2="78.0884" y2="0.272905" gradientUnits="userSpaceOnUse">
<stop stop-color="#73141F"/>
<stop offset="1" stop-color="#E2293C"/>
</linearGradient>
<linearGradient id="paint3_linear_2614_7544" x1="33.4656" y1="12.1093" x2="77.8535" y2="12.9343" gradientUnits="userSpaceOnUse">
<stop stop-color="#73141F"/>
<stop offset="1" stop-color="#E2293C"/>
</linearGradient>
<linearGradient id="paint4_linear_2614_7544" x1="33.2307" y1="24.777" x2="77.6187" y2="25.6021" gradientUnits="userSpaceOnUse">
<stop stop-color="#73141F"/>
<stop offset="1" stop-color="#E2293C"/>
</linearGradient>
<linearGradient id="paint5_linear_2614_7544" x1="32.9958" y1="37.4385" x2="77.3838" y2="38.2635" gradientUnits="userSpaceOnUse">
<stop stop-color="#73141F"/>
<stop offset="1" stop-color="#E2293C"/>
</linearGradient>
<radialGradient id="paint6_radial_2614_7544" cx="0" cy="0" r="1" gradientUnits="userSpaceOnUse" gradientTransform="translate(17.8295 5.09841) rotate(-5.6) scale(2.60844)">
<stop stop-color="white"/>
<stop offset="1" stop-color="#F0F0F0"/>
</radialGradient>
<radialGradient id="paint7_radial_2614_7544" cx="0" cy="0" r="1" gradientUnits="userSpaceOnUse" gradientTransform="translate(18.7151 14.1307) rotate(-5.6) scale(2.60844 2.60844)">
<stop stop-color="white"/>
<stop offset="1" stop-color="#F0F0F0"/>
</radialGradient>
<radialGradient id="paint8_radial_2614_7544" cx="0" cy="0" r="1" gradientUnits="userSpaceOnUse" gradientTransform="translate(19.6015 23.1693) rotate(-5.6) scale(2.60844 2.60844)">
<stop stop-color="white"/>
<stop offset="1" stop-color="#F0F0F0"/>
</radialGradient>
<radialGradient id="paint9_radial_2614_7544" cx="0" cy="0" r="1" gradientUnits="userSpaceOnUse" gradientTransform="translate(20.487 32.2016) rotate(-5.6) scale(2.60844)">
<stop stop-color="white"/>
<stop offset="1" stop-color="#F0F0F0"/>
</radialGradient>
<radialGradient id="paint10_radial_2614_7544" cx="0" cy="0" r="1" gradientUnits="userSpaceOnUse" gradientTransform="translate(27.1 8.78727) rotate(-5.6) scale(2.60844)">
<stop stop-color="white"/>
<stop offset="1" stop-color="#F0F0F0"/>
</radialGradient>
<radialGradient id="paint11_radial_2614_7544" cx="0" cy="0" r="1" gradientUnits="userSpaceOnUse" gradientTransform="translate(27.9855 17.8196) rotate(-5.6) scale(2.60844 2.60845)">
<stop stop-color="white"/>
<stop offset="1" stop-color="#F0F0F0"/>
</radialGradient>
<radialGradient id="paint12_radial_2614_7544" cx="0" cy="0" r="1" gradientUnits="userSpaceOnUse" gradientTransform="translate(28.8713 26.8519) rotate(-5.6) scale(2.60844)">
<stop stop-color="white"/>
<stop offset="1" stop-color="#F0F0F0"/>
</radialGradient>
<radialGradient id="paint13_radial_2614_7544" cx="0" cy="0" r="1" gradientUnits="userSpaceOnUse" gradientTransform="translate(0.611518 11.2761) rotate(-5.6) scale(2.76076)">
<stop stop-color="white"/>
<stop offset="1" stop-color="#F0F0F0"/>
</radialGradient>
<radialGradient id="paint14_radial_2614_7544" cx="0" cy="0" r="1" gradientUnits="userSpaceOnUse" gradientTransform="translate(1.49705 20.3084) rotate(-5.6) scale(2.76076)">
<stop stop-color="white"/>
<stop offset="1" stop-color="#F0F0F0"/>
</radialGradient>
<radialGradient id="paint15_radial_2614_7544" cx="0" cy="0" r="1" gradientUnits="userSpaceOnUse" gradientTransform="translate(2.38282 29.3407) rotate(-5.6) scale(2.76076)">
<stop stop-color="white"/>
<stop offset="1" stop-color="#F0F0F0"/>
</radialGradient>
<radialGradient id="paint16_radial_2614_7544" cx="0" cy="0" r="1" gradientUnits="userSpaceOnUse" gradientTransform="translate(3.26897 38.3793) rotate(-5.6) scale(2.76076 2.76076)">
<stop stop-color="white"/>
<stop offset="1" stop-color="#F0F0F0"/>
</radialGradient>
<radialGradient id="paint17_radial_2614_7544" cx="0" cy="0" r="1" gradientUnits="userSpaceOnUse" gradientTransform="translate(9.58097 11.8952) rotate(-5.6) scale(2.67826)">
<stop stop-color="white"/>
<stop offset="1" stop-color="#F0F0F0"/>
</radialGradient>
<radialGradient id="paint18_radial_2614_7544" cx="0" cy="0" r="1" gradientUnits="userSpaceOnUse" gradientTransform="translate(10.4665 20.9275) rotate(-5.6) scale(2.67826)">
<stop stop-color="white"/>
<stop offset="1" stop-color="#F0F0F0"/>
</radialGradient>
<radialGradient id="paint19_radial_2614_7544" cx="0" cy="0" r="1" gradientUnits="userSpaceOnUse" gradientTransform="translate(11.3523 29.9598) rotate(-5.6) scale(2.67826)">
<stop stop-color="white"/>
<stop offset="1" stop-color="#F0F0F0"/>
</radialGradient>
<linearGradient id="paint20_linear_2614_7544" x1="9.0884" y1="55.9197" x2="9.0884" y2="47.9674" gradientUnits="userSpaceOnUse">
<stop stop-color="#73141F"/>
<stop offset="1" stop-color="#E2293C"/>
</linearGradient>
<linearGradient id="paint21_linear_2614_7544" x1="82.9053" y1="55.9197" x2="82.9053" y2="47.9675" gradientUnits="userSpaceOnUse">
<stop stop-color="#73141F"/>
<stop offset="1" stop-color="#E2293C"/>
</linearGradient>
</defs>
</svg>
