<svg width="122" height="92" viewBox="0 0 122 92" fill="none" xmlns="http://www.w3.org/2000/svg">
<g clip-path="url(#clip0_2614_8007)">
<path d="M106.622 42.0927L104.291 45.7219L106.662 49.3245L103.801 52.5563L105.589 56.4901L103.603 58.1192H121.324L114.636 46.5695L121.324 35.0331H105.417L103.722 38.9007L106.622 42.0927Z" fill="url(#paint0_linear_2614_8007)"/>
<path d="M101.457 38.6093H119.245L120.212 36.9404H101.457V38.6093Z" fill="#FFF8F2"/>
<path d="M101.457 54.5298H119.245L120.212 56.1987H101.457V54.5298Z" fill="#FFF8F2"/>
<path d="M105.5 46C105.5 70.5767 85.5767 90.5 61 90.5C36.4233 90.5 16.5 70.5767 16.5 46C16.5 21.4233 36.4233 1.5 61 1.5C85.5767 1.5 105.5 21.4233 105.5 46Z" fill="white" stroke="#E2293C" stroke-width="3"/>
<path d="M61 72C75.3594 72 87 60.3594 87 46C87 31.6406 75.3594 20 61 20C46.6406 20 35 31.6406 35 46C35 60.3594 46.6406 72 61 72Z" fill="url(#paint1_linear_2614_8007)"/>
<path d="M80.6225 40.914C80.0265 38.8081 79.1258 36.8346 77.947 35.0332H0L4.49007 46.5697L0 58.1061H77.947C79.1258 56.3048 80.0265 54.3312 80.6225 52.2253C81.1258 50.424 81.4172 48.5299 81.4172 46.5564C81.4172 44.5829 81.1258 42.7021 80.6225 40.8875V40.914Z" fill="url(#paint2_linear_2614_8007)"/>
<path d="M16 38.6226H2.07968L1.11279 36.9538H16V38.6226Z" fill="#FFF8F2"/>
<path d="M15.5 54.5432H2.07968L1.11279 56.212H15.5V54.5432Z" fill="#FFF8F2"/>
<path d="M24.7574 26.7926C25.1134 26.0119 25.6594 25.034 26.2904 24.0676C27.3529 22.4507 28.3271 21.581 29.4984 21.171C30.7348 20.7233 32.1589 20.8539 33.6698 21.8387C35.3045 22.917 36.044 24.2364 36.1915 25.5251C36.3454 26.9147 35.8044 28.516 34.7115 30.1853C34.0489 31.1873 33.5345 31.8599 33.1398 32.289L24.7574 26.7926ZM32.9958 29.4323C33.1386 29.2886 33.3244 29.0242 33.4777 28.7787C34.6337 27.038 34.4222 25.2643 32.3836 23.9246C30.625 22.7529 28.9993 23.1743 27.9053 24.8269C27.6291 25.2654 27.479 25.5613 27.4065 25.7513L32.9948 29.4155L32.9958 29.4323Z" fill="url(#paint3_linear_2614_8007)"/>
<path d="M40.6386 17.0731L37.7907 19.5259L39.3717 21.3661L42.5555 18.6227L43.7913 20.0629L38.8639 24.3138L32.197 16.5868L36.9648 12.4807L38.2006 13.9209L35.1764 16.5195L36.557 18.1193L39.4049 15.6665L40.6229 17.091L40.6386 17.0731Z" fill="url(#paint4_linear_2614_8007)"/>
<path d="M39.9432 10.5087L42.0015 9.45353L45.7962 16.8029L49.4058 14.9433L50.2879 16.6584L44.621 19.5899L39.9442 10.5254L39.9432 10.5087Z" fill="url(#paint5_linear_2614_8007)"/>
<path d="M50.4564 6.07892L53.4402 15.8387L51.2236 16.516L48.2576 6.77195L50.4743 6.09467L50.4564 6.07892Z" fill="url(#paint6_linear_2614_8007)"/>
<path d="M57.2008 15.0653L53.0133 5.19503L55.5278 4.97121L57.1532 9.15167C57.6136 10.3198 58.0383 11.4565 58.3863 12.716L58.4367 12.7128C58.5787 11.4735 58.788 10.2299 59.0339 9.03469L59.9357 4.5622L62.3831 4.34256L59.8832 14.8311L57.2008 15.0653Z" fill="url(#paint7_linear_2614_8007)"/>
<path d="M70.4526 11.561L66.7545 10.9145L66.3298 13.3008L70.454 14.022L70.1312 15.8794L63.7226 14.744L65.4918 4.70552L71.6958 5.80302L71.3731 7.66045L67.4526 6.96033L67.0762 9.04023L70.7743 9.68676L70.4505 11.5274L70.4526 11.561Z" fill="url(#paint8_linear_2614_8007)"/>
<path d="M75.192 7.01832C75.9119 7.20954 76.9644 7.5992 78.0745 8.10327C79.4449 8.72601 80.3116 9.38008 80.7343 10.2135C81.0804 10.8999 81.0959 11.6912 80.6937 12.5422C80.1434 13.7227 78.9396 14.1515 78.0077 14.0746L78.0098 14.1082C78.5165 14.6667 78.5823 15.4548 78.4393 16.4077C78.2427 17.583 77.9894 18.9304 77.9998 19.3681L75.8487 18.3893C75.8278 18.0535 75.9435 17.2035 76.1842 15.9243C76.4595 14.6598 76.2089 14.1528 75.3579 13.7506L74.7325 13.4524L73.0712 17.0956L70.9894 16.1462L75.1742 7.00257L75.192 7.01832ZM75.4487 11.9582L76.2808 12.3278C77.3217 12.8025 78.1834 12.5635 78.5551 11.765C78.9405 10.915 78.5598 10.2139 77.6049 9.76756C77.1013 9.52918 76.7927 9.44723 76.6217 9.4073L75.4487 11.9582Z" fill="url(#paint9_linear_2614_8007)"/>
<path d="M80.099 21.1255L82.7467 17.8929L84.0836 11.202L86.1264 12.8786L85.3752 15.4369C85.1536 16.2092 84.9687 16.7602 84.7418 17.4485L84.7586 17.4475C85.3454 17.1244 85.8996 16.8203 86.6017 16.4563L88.9518 15.2145L90.9422 16.8606L84.5723 19.3301L81.8774 22.6162L80.1011 21.159L80.099 21.1255Z" fill="url(#paint10_linear_2614_8007)"/>
<path d="M89.5789 32.8916C89.6787 32.5989 89.7785 32.3061 89.8919 31.9619C89.1123 31.6227 88.3485 30.996 87.76 29.9369C86.5801 27.7684 87.3362 26.1031 88.5915 25.4182C89.765 24.7721 90.9918 24.9824 92.0819 25.7068L92.1302 25.6701C92.3445 25.0499 92.8432 24.3952 93.4792 24.0522C94.6034 23.4261 96.336 23.6386 97.3072 25.4324C98.0677 26.8179 97.8227 28.2996 96.5359 29.0202C95.6395 29.5142 94.5711 29.4121 93.268 28.5155L93.2008 28.5197C92.9162 29.3633 92.5675 30.2616 92.3574 30.9489C93.1193 31.0027 94.0869 30.8413 94.9434 30.5184L95.9325 32.3279C94.4473 32.8417 93.0421 33.0134 91.7251 32.7076C91.4383 33.5177 91.1369 34.3624 90.8375 35.2407L89.5453 32.8937L89.5789 32.8916ZM90.5032 30.4068C90.7532 29.5484 91.1691 28.3763 91.584 27.1874C91.115 26.9638 90.5515 26.8471 89.9647 27.1701C89.2153 27.5876 88.8687 28.5194 89.3806 29.4315C89.6669 29.97 90.1086 30.2965 90.5042 30.4236L90.5032 30.4068ZM94.6646 25.7653C94.208 26.0128 93.9319 26.4514 93.7186 27.0884C94.5193 27.4937 95.0502 27.6292 95.5719 27.344C95.996 27.1153 96.3183 26.6064 96.032 26.068C95.7467 25.5463 95.1369 25.4999 94.6646 25.7653Z" fill="url(#paint11_linear_2614_8007)"/>
<path d="M101.924 38.9507L91.9161 40.9217L91.4708 38.64L101.479 36.669L101.924 38.9507Z" fill="url(#paint12_linear_2614_8007)"/>
<path d="M92.3724 42.3092L102.569 42.5516L102.501 45.2528L98.7159 47.275C97.6222 47.8488 96.3438 48.434 95.1735 48.8607L95.1767 48.9111C96.5179 48.794 97.899 48.7755 99.4354 48.8148L102.423 48.8818L102.369 50.9922L92.1726 50.7499L92.2247 48.3362L96.208 46.2511C97.3185 45.6763 98.6442 45.0376 99.8459 44.5751L99.8428 44.5248C98.4796 44.559 97.046 44.547 95.3742 44.4993L92.3015 44.4207L92.3556 42.3103L92.3724 42.3092Z" fill="url(#paint13_linear_2614_8007)"/>
<path d="M94.0529 52.7906C93.5616 53.2931 92.9715 54.1052 92.6753 55.0339C92.3507 56.0486 92.6108 56.7067 93.2467 56.9032C93.848 57.0849 94.3487 56.7335 95.1277 55.7073C96.2007 54.2584 97.4172 53.4916 98.8443 53.9422C100.512 54.4622 101.348 56.2476 100.613 58.5352C100.26 59.6359 99.7837 60.3736 99.3428 60.873L97.727 59.8272C98.043 59.4873 98.528 58.884 98.8232 57.9385C99.1184 56.9931 98.8278 56.3875 98.3294 56.233C97.7103 56.0356 97.2673 56.5014 96.3917 57.6009C95.2221 59.1233 94.0749 59.6498 92.6992 59.2128C91.0665 58.7075 90.0679 57.0166 90.9125 54.3344C91.2644 53.2169 91.8933 52.2169 92.3709 51.7658L94.0529 52.7906Z" fill="url(#paint14_linear_2614_8007)"/>
<path d="M95.4431 65.1105L96.8648 62.7633L98.5289 63.7723L94.4456 70.4823L92.7815 69.4733L94.2346 67.0905L87.1742 62.7929L88.3827 60.813L95.4599 65.1095L95.4431 65.1105Z" fill="url(#paint15_linear_2614_8007)"/>
<path d="M86.188 68.3495L84.8444 65.9888L86.5429 64.2987L91.5449 73.7138L89.4023 75.853L79.9399 70.8789L81.7014 69.1174L84.1084 70.4173L86.1712 68.3505L86.188 68.3495ZM85.5858 71.4042L87.5741 72.4774C88.1324 72.7798 88.7976 73.1767 89.3233 73.498L89.3401 73.4969C89.0191 72.9438 88.5743 72.2972 88.2712 71.7598L87.172 69.8054L85.569 71.4053L85.5858 71.4042Z" fill="url(#paint16_linear_2614_8007)"/>
<path d="M84.3813 79.958L82.3797 81.1107L78.2596 73.9501L74.7444 75.9724L73.7804 74.2961L79.3141 71.1201L84.3992 79.9737L84.3813 79.958Z" fill="url(#paint17_linear_2614_8007)"/>
<path d="M75.9372 84.3096L73.7195 84.9701L71.3396 77.0607L67.4511 78.2297L66.8975 76.3762L73.0027 74.5299L75.9372 84.3096Z" fill="url(#paint18_linear_2614_8007)"/>
<path d="M63.8048 79.2318L64.4668 76.5948L66.8564 76.5304L64.0062 86.8047L60.9774 86.892L57.5498 76.7721L60.0234 76.7026L60.8758 79.296L63.787 79.2161L63.8048 79.2318ZM61.2699 81.0246L61.9598 83.173C62.1485 83.7681 62.3644 84.5301 62.5196 85.1273L62.5532 85.1252C62.6835 84.5102 62.8212 83.7431 62.9693 83.1439L63.5252 80.9686L61.2699 81.0246Z" fill="url(#paint19_linear_2614_8007)"/>
<path d="M54.4646 84.3472L57.1458 84.9053L56.7412 86.8015L49.0723 85.1883L49.4769 83.292L52.2095 83.8638L53.9152 75.7845L56.1871 76.2669L54.4814 84.3461L54.4646 84.3472Z" fill="url(#paint20_linear_2614_8007)"/>
<path d="M44.4685 83.2664L48.4005 73.8519L50.5296 74.7477L46.5976 84.1622L44.4685 83.2664Z" fill="url(#paint21_linear_2614_8007)"/>
<path d="M36.3695 72.2909C38.3077 69.5744 41.1434 69.0946 43.5776 70.8312C46.0465 72.5824 46.1589 75.4747 44.4696 77.8554C42.6859 80.3431 39.7818 81.08 37.313 79.3288C34.756 77.5156 34.7265 74.6013 36.3706 72.3077L36.3695 72.2909ZM42.4446 76.4643C43.6079 74.8411 43.6546 73.1526 42.4018 72.2528C41.1322 71.3541 39.54 72.0431 38.3925 73.6484C37.3226 75.1478 37.13 76.9297 38.4185 77.8609C39.6881 78.7596 41.2981 78.0864 42.4446 76.4643Z" fill="url(#paint22_linear_2614_8007)"/>
<path d="M38.9344 67.4621L30.6965 73.5034L29.1114 71.3263L30.8736 67.4072C31.3766 66.2802 32.0413 65.0421 32.7174 63.9886L32.7153 63.955C31.694 64.8782 30.6002 65.7217 29.3752 66.6238L26.9735 68.3914L25.721 66.6825L33.9589 60.6412L35.395 62.5915L33.509 66.687C32.9891 67.815 32.3129 69.1381 31.6567 70.2409L31.6923 70.2724C32.7525 69.4311 33.8946 68.5509 35.2319 67.5575L37.7144 65.7343L38.9669 67.4432L38.9344 67.4621Z" fill="url(#paint23_linear_2614_8007)"/>
<g opacity="0.96">
<path d="M15.1729 42.1417V51.6992H13V42.1417H15.1729Z" fill="white"/>
<path d="M17.0465 51.6992V42.1417H19.5658L21.5497 45.6372C22.1166 46.6449 22.6834 47.8416 23.1085 48.9123H23.1558C23.0141 47.6526 22.9668 46.3615 22.9668 44.9287V42.1417H24.9508V51.6992H22.6834L20.6365 48.0148C20.0696 46.9913 19.4398 45.7632 18.9832 44.6452H18.936C18.999 45.9206 19.0147 47.2747 19.0147 48.8335V51.715H17.0308L17.0465 51.6992Z" fill="white"/>
<path d="M33.8315 51.4316C33.4379 51.6363 32.5404 51.8409 31.3752 51.8409C28.0687 51.8409 26.3682 49.794 26.3682 47.0701C26.3682 43.8107 28.6985 42 31.5799 42C32.6979 42 33.5481 42.2204 33.926 42.4251L33.4851 44.1414C33.0443 43.9524 32.4302 43.795 31.6744 43.795C29.9581 43.795 28.6198 44.8342 28.6198 46.9598C28.6198 48.865 29.7534 50.0774 31.6744 50.0774C32.32 50.0774 33.0443 49.9357 33.4694 49.7625L33.8 51.4473L33.8315 51.4316Z" fill="white"/>
<path d="M35.2485 42.1417H37.4214V49.8885H41.2161V51.6992H35.2485V42.1417Z" fill="white"/>
<path d="M44.2074 42.1417V47.6369C44.2074 49.2744 44.8372 50.1247 45.9394 50.1247C47.0416 50.1247 47.7029 49.3374 47.7029 47.6369V42.1417H49.8601V47.4952C49.8601 50.4396 48.3642 51.8409 45.8765 51.8409C43.3887 51.8409 42.0503 50.5026 42.0503 47.4637V42.1417H44.2232H44.2074Z" fill="white"/>
<path d="M51.7179 42.2677C52.5052 42.1417 53.5444 42.063 54.6308 42.063C56.4415 42.063 57.6225 42.3936 58.5357 43.0864C59.5277 43.8265 60.1575 45.0074 60.1575 46.6922C60.1575 48.5186 59.4962 49.7783 58.5672 50.5656C57.5595 51.4001 56.0322 51.7937 54.1584 51.7937C53.0405 51.7937 52.2375 51.7307 51.7021 51.652V42.2677H51.7179ZM53.8908 50.0774C54.0797 50.1247 54.3789 50.1247 54.6466 50.1247C56.599 50.1247 57.8744 49.054 57.8744 46.7866C57.8744 44.8027 56.725 43.7477 54.867 43.7477C54.3789 43.7477 54.0797 43.795 53.8908 43.8265V50.0774Z" fill="white"/>
<path d="M67.2588 47.6684H63.7476V49.9357H67.6682V51.6992H61.5747V42.1417H67.4793V43.9052H63.7476V45.8891H67.2588V47.6526V47.6684Z" fill="white"/>
<path d="M69.1486 42.2677C69.9358 42.1417 70.975 42.063 72.0615 42.063C73.8722 42.063 75.0531 42.3936 75.9664 43.0864C76.9583 43.8265 77.5882 45.0074 77.5882 46.6922C77.5882 48.5186 76.9268 49.7783 75.9979 50.5656C74.9901 51.4001 73.4628 51.7937 71.5891 51.7937C70.4712 51.7937 69.6682 51.7307 69.1328 51.652V42.2677H69.1486ZM71.3214 50.0774C71.5104 50.1247 71.8096 50.1247 72.0772 50.1247C74.0297 50.1247 75.3051 49.054 75.3051 46.7866C75.3051 44.8027 74.1556 43.7477 72.2977 43.7477C71.8096 43.7477 71.5104 43.795 71.3214 43.8265V50.0774Z" fill="white"/>
</g>
</g>
<defs>
<linearGradient id="paint0_linear_2614_8007" x1="103.603" y1="46.5762" x2="121.324" y2="46.5762" gradientUnits="userSpaceOnUse">
<stop stop-color="#E2293C"/>
<stop offset="1" stop-color="#7C1621"/>
</linearGradient>
<linearGradient id="paint1_linear_2614_8007" x1="35" y1="46" x2="87" y2="46" gradientUnits="userSpaceOnUse">
<stop stop-color="#14458E"/>
<stop offset="1" stop-color="#061328"/>
</linearGradient>
<linearGradient id="paint2_linear_2614_8007" x1="0" y1="46.5697" x2="81.4172" y2="46.5697" gradientUnits="userSpaceOnUse">
<stop stop-color="#E2293C"/>
<stop offset="1" stop-color="#7C1621"/>
</linearGradient>
<linearGradient id="paint3_linear_2614_8007" x1="24.7736" y1="27.0535" x2="36.247" y2="26.3399" gradientUnits="userSpaceOnUse">
<stop stop-color="#14458E"/>
<stop offset="1" stop-color="#061328"/>
</linearGradient>
<linearGradient id="paint4_linear_2614_8007" x1="32.3312" y1="18.7445" x2="43.6655" y2="18.0395" gradientUnits="userSpaceOnUse">
<stop stop-color="#14458E"/>
<stop offset="1" stop-color="#061328"/>
</linearGradient>
<linearGradient id="paint5_linear_2614_8007" x1="40.2048" y1="14.7149" x2="50.1286" y2="14.0977" gradientUnits="userSpaceOnUse">
<stop stop-color="#14458E"/>
<stop offset="1" stop-color="#061328"/>
</linearGradient>
<linearGradient id="paint6_linear_2614_8007" x1="48.5479" y1="11.44" x2="53.1488" y2="11.1538" gradientUnits="userSpaceOnUse">
<stop stop-color="#14458E"/>
<stop offset="1" stop-color="#061328"/>
</linearGradient>
<linearGradient id="paint7_linear_2614_8007" x1="53.3188" y1="10.1066" x2="62.7052" y2="9.52275" gradientUnits="userSpaceOnUse">
<stop stop-color="#14458E"/>
<stop offset="1" stop-color="#061328"/>
</linearGradient>
<linearGradient id="paint8_linear_2614_8007" x1="63.4625" y1="10.5629" x2="71.959" y2="10.0345" gradientUnits="userSpaceOnUse">
<stop stop-color="#14458E"/>
<stop offset="1" stop-color="#061328"/>
</linearGradient>
<linearGradient id="paint9_linear_2614_8007" x1="70.8275" y1="13.5435" x2="81.0993" y2="12.9047" gradientUnits="userSpaceOnUse">
<stop stop-color="#14458E"/>
<stop offset="1" stop-color="#061328"/>
</linearGradient>
<linearGradient id="paint10_linear_2614_8007" x1="79.8489" y1="17.1039" x2="90.9145" y2="16.4156" gradientUnits="userSpaceOnUse">
<stop stop-color="#14458E"/>
<stop offset="1" stop-color="#061328"/>
</linearGradient>
<linearGradient id="paint11_linear_2614_8007" x1="87.2867" y1="29.8261" x2="97.8773" y2="29.1674" gradientUnits="userSpaceOnUse">
<stop stop-color="#14458E"/>
<stop offset="1" stop-color="#061328"/>
</linearGradient>
<linearGradient id="paint12_linear_2614_8007" x1="91.5005" y1="39.1186" x2="101.894" y2="38.4721" gradientUnits="userSpaceOnUse">
<stop stop-color="#14458E"/>
<stop offset="1" stop-color="#061328"/>
</linearGradient>
<linearGradient id="paint13_linear_2614_8007" x1="91.9386" y1="46.9886" x2="102.803" y2="46.3129" gradientUnits="userSpaceOnUse">
<stop stop-color="#14458E"/>
<stop offset="1" stop-color="#061328"/>
</linearGradient>
<linearGradient id="paint14_linear_2614_8007" x1="90.6276" y1="56.6446" x2="100.832" y2="56.01" gradientUnits="userSpaceOnUse">
<stop stop-color="#14458E"/>
<stop offset="1" stop-color="#061328"/>
</linearGradient>
<linearGradient id="paint15_linear_2614_8007" x1="87.3674" y1="65.8994" x2="98.6177" y2="65.1996" gradientUnits="userSpaceOnUse">
<stop stop-color="#14458E"/>
<stop offset="1" stop-color="#061328"/>
</linearGradient>
<linearGradient id="paint16_linear_2614_8007" x1="79.9211" y1="70.5766" x2="91.3057" y2="69.8685" gradientUnits="userSpaceOnUse">
<stop stop-color="#14458E"/>
<stop offset="1" stop-color="#061328"/>
</linearGradient>
<linearGradient id="paint17_linear_2614_8007" x1="73.9204" y1="76.5462" x2="84.1464" y2="75.9102" gradientUnits="userSpaceOnUse">
<stop stop-color="#14458E"/>
<stop offset="1" stop-color="#061328"/>
</linearGradient>
<linearGradient id="paint18_linear_2614_8007" x1="67.1314" y1="80.1375" x2="75.6448" y2="79.608" gradientUnits="userSpaceOnUse">
<stop stop-color="#14458E"/>
<stop offset="1" stop-color="#061328"/>
</linearGradient>
<linearGradient id="paint19_linear_2614_8007" x1="57.873" y1="81.9691" x2="67.1588" y2="81.3916" gradientUnits="userSpaceOnUse">
<stop stop-color="#14458E"/>
<stop offset="1" stop-color="#061328"/>
</linearGradient>
<linearGradient id="paint20_linear_2614_8007" x1="48.855" y1="81.6956" x2="56.915" y2="81.1943" gradientUnits="userSpaceOnUse">
<stop stop-color="#14458E"/>
<stop offset="1" stop-color="#061328"/>
</linearGradient>
<linearGradient id="paint21_linear_2614_8007" x1="44.2163" y1="79.2112" x2="50.7818" y2="78.8029" gradientUnits="userSpaceOnUse">
<stop stop-color="#14458E"/>
<stop offset="1" stop-color="#061328"/>
</linearGradient>
<linearGradient id="paint22_linear_2614_8007" x1="35.2246" y1="75.3717" x2="45.6247" y2="74.7248" gradientUnits="userSpaceOnUse">
<stop stop-color="#14458E"/>
<stop offset="1" stop-color="#061328"/>
</linearGradient>
<linearGradient id="paint23_linear_2614_8007" x1="25.7706" y1="67.4801" x2="38.9184" y2="66.6624" gradientUnits="userSpaceOnUse">
<stop stop-color="#14458E"/>
<stop offset="1" stop-color="#061328"/>
</linearGradient>
<clipPath id="clip0_2614_8007">
<rect width="121.325" height="92" fill="white"/>
</clipPath>
</defs>
</svg>
