<svg xmlns="http://www.w3.org/2000/svg" width="138.789" height="11.688" viewBox="0 0 138.789 11.688">
  <path id="BLF" d="M1.016,0V-11.375H5a5.232,5.232,0,0,1,3.141.793,2.712,2.712,0,0,1,1.07,2.324,2.57,2.57,0,0,1-.43,1.473,2.482,2.482,0,0,1-1.2.934,2.4,2.4,0,0,1,1.379.883,2.61,2.61,0,0,1,.5,1.625A3,3,0,0,1,8.422-.859,4.713,4.713,0,0,1,5.438,0ZM3.359-4.953v3.07H5.367A1.938,1.938,0,0,0,6.66-2.277a1.353,1.353,0,0,0,.465-1.09A1.428,1.428,0,0,0,5.508-4.953Zm0-1.656H5.094q1.773-.031,1.773-1.414a1.307,1.307,0,0,0-.449-1.113A2.363,2.363,0,0,0,5-9.477H3.359ZM17.648-2.344H13.539L12.758,0H10.266L14.5-11.375h2.172L20.93,0H18.438Zm-3.477-1.9h2.844L15.586-8.5Zm16.586.453A4.025,4.025,0,0,1,29.4-.9,4.76,4.76,0,0,1,26.18.156a4.28,4.28,0,0,1-3.441-1.473,6.038,6.038,0,0,1-1.254-4.043v-.7a6.819,6.819,0,0,1,.578-2.891,4.332,4.332,0,0,1,1.652-1.918,4.629,4.629,0,0,1,2.5-.668,4.637,4.637,0,0,1,3.172,1.055,4.326,4.326,0,0,1,1.391,2.961H28.43a2.376,2.376,0,0,0-.613-1.6,2.271,2.271,0,0,0-1.605-.5,1.991,1.991,0,0,0-1.754.84,4.707,4.707,0,0,0-.6,2.605V-5.3a5.038,5.038,0,0,0,.559,2.7,1.954,1.954,0,0,0,1.762.852,2.314,2.314,0,0,0,1.621-.5,2.241,2.241,0,0,0,.613-1.535Zm5.1-.773L34.641-3.25V0H32.3V-11.375h2.344v5.156l1.031-1.414,2.9-3.742h2.883L37.414-6.32,41.57,0H38.781Zm12.922,2.68h4.977V0h-7.32V-11.375h2.344ZM61.945-4.93h-4.5v3.047h5.281V0H55.1V-11.375h7.609v1.9H57.445v2.711h4.5Zm8.578,2.586H66.414L65.633,0H63.141l4.234-11.375h2.172L73.8,0H71.313Zm-3.477-1.9h2.844L68.461-8.5ZM84.117,0H81.773L77.211-7.484V0H74.867V-11.375h2.344l4.57,7.5v-7.5h2.336ZM96.992-4.648h-4.5V0H90.148V-11.375h7.406v1.9H92.492v2.938h4.5Zm6.133.484h-1.867V0H98.914V-11.375h4.227a4.778,4.778,0,0,1,3.109.9,3.1,3.1,0,0,1,1.094,2.539A3.5,3.5,0,0,1,106.84-6a3.437,3.437,0,0,1-1.527,1.238l2.461,4.648V0h-2.516Zm-1.867-1.9h1.891a1.936,1.936,0,0,0,1.367-.449A1.606,1.606,0,0,0,105-7.75a1.719,1.719,0,0,0-.457-1.266,1.9,1.9,0,0,0-1.4-.461h-1.883Zm17.211.633a6.867,6.867,0,0,1-.594,2.945,4.472,4.472,0,0,1-1.7,1.953,4.7,4.7,0,0,1-2.535.688,4.732,4.732,0,0,1-2.523-.68A4.515,4.515,0,0,1,109.4-2.465a6.67,6.67,0,0,1-.617-2.9V-5.93a6.831,6.831,0,0,1,.605-2.957,4.508,4.508,0,0,1,1.711-1.961,4.706,4.706,0,0,1,2.527-.684,4.706,4.706,0,0,1,2.527.684,4.508,4.508,0,0,1,1.711,1.961,6.811,6.811,0,0,1,.605,2.949Zm-2.375-.516a4.787,4.787,0,0,0-.641-2.719,2.088,2.088,0,0,0-1.828-.93,2.088,2.088,0,0,0-1.82.918,4.732,4.732,0,0,0-.648,2.691v.555a4.847,4.847,0,0,0,.641,2.7,2.082,2.082,0,0,0,1.844.961,2.064,2.064,0,0,0,1.813-.926,4.819,4.819,0,0,0,.641-2.7ZM129.422,0h-2.344l-4.562-7.484V0h-2.344V-11.375h2.344l4.57,7.5v-7.5h2.336ZM139.8-9.477H136.32V0h-2.344V-9.477h-3.437v-1.9H139.8Z" transform="translate(-1.016 11.531)" fill="#161615"/>
</svg>
