<svg xmlns="http://www.w3.org/2000/svg" width="138.773" height="11.688" viewBox="0 0 138.773 11.688">
  <path id="FLB" d="M7.859-4.648h-4.5V0H1.016V-11.375H8.422v1.9H3.359v2.938h4.5Zm6.133.484H12.125V0H9.781V-11.375h4.227a4.778,4.778,0,0,1,3.109.9,3.1,3.1,0,0,1,1.094,2.539A3.5,3.5,0,0,1,17.707-6,3.437,3.437,0,0,1,16.18-4.758L18.641-.109V0H16.125Zm-1.867-1.9h1.891a1.936,1.936,0,0,0,1.367-.449,1.606,1.606,0,0,0,.484-1.238,1.719,1.719,0,0,0-.457-1.266,1.9,1.9,0,0,0-1.4-.461H12.125Zm17.211.633a6.867,6.867,0,0,1-.594,2.945,4.472,4.472,0,0,1-1.7,1.953,4.7,4.7,0,0,1-2.535.688,4.732,4.732,0,0,1-2.523-.68,4.515,4.515,0,0,1-1.719-1.941,6.67,6.67,0,0,1-.617-2.9V-5.93a6.831,6.831,0,0,1,.605-2.957,4.508,4.508,0,0,1,1.711-1.961,4.706,4.706,0,0,1,2.527-.684,4.706,4.706,0,0,1,2.527.684A4.508,4.508,0,0,1,28.73-8.887a6.811,6.811,0,0,1,.605,2.949Zm-2.375-.516a4.787,4.787,0,0,0-.641-2.719,2.088,2.088,0,0,0-1.828-.93,2.088,2.088,0,0,0-1.82.918,4.732,4.732,0,0,0-.648,2.691v.555a4.847,4.847,0,0,0,.641,2.7,2.082,2.082,0,0,0,1.844.961,2.064,2.064,0,0,0,1.813-.926,4.819,4.819,0,0,0,.641-2.7ZM40.289,0H37.945L33.383-7.484V0H31.039V-11.375h2.344l4.57,7.5v-7.5h2.336ZM50.672-9.477H47.188V0H44.844V-9.477H41.406v-1.9h9.266Zm7.2,7.594h4.977V0h-7.32V-11.375h2.344ZM71.031-4.93h-4.5v3.047h5.281V0H64.188V-11.375H71.8v1.9H66.531v2.711h4.5Zm8.578,2.586H75.5L74.719,0H72.227l4.234-11.375h2.172L82.891,0H80.4Zm-3.477-1.9h2.844L77.547-8.5ZM93.2,0H90.859L86.3-7.484V0H83.953V-11.375H86.3l4.57,7.5v-7.5H93.2Zm6.031,0V-11.375h3.984a5.232,5.232,0,0,1,3.141.793,2.712,2.712,0,0,1,1.07,2.324A2.57,2.57,0,0,1,107-6.785a2.482,2.482,0,0,1-1.2.934,2.4,2.4,0,0,1,1.379.883,2.61,2.61,0,0,1,.5,1.625,3,3,0,0,1-1.047,2.484A4.713,4.713,0,0,1,103.656,0Zm2.344-4.953v3.07h2.008a1.938,1.938,0,0,0,1.293-.395,1.353,1.353,0,0,0,.465-1.09,1.428,1.428,0,0,0-1.617-1.586Zm0-1.656h1.734q1.773-.031,1.773-1.414a1.307,1.307,0,0,0-.449-1.113,2.363,2.363,0,0,0-1.418-.34h-1.641Zm14.289,4.266h-4.109L110.977,0h-2.492l4.234-11.375h2.172L119.148,0h-2.492Zm-3.477-1.9h2.844L113.8-8.5Zm16.586.453A4.025,4.025,0,0,1,127.621-.9,4.76,4.76,0,0,1,124.4.156a4.28,4.28,0,0,1-3.441-1.473A6.038,6.038,0,0,1,119.7-5.359v-.7a6.819,6.819,0,0,1,.578-2.891,4.332,4.332,0,0,1,1.652-1.918,4.629,4.629,0,0,1,2.5-.668,4.637,4.637,0,0,1,3.172,1.055,4.326,4.326,0,0,1,1.391,2.961h-2.344a2.376,2.376,0,0,0-.613-1.6,2.271,2.271,0,0,0-1.605-.5,1.991,1.991,0,0,0-1.754.84,4.707,4.707,0,0,0-.6,2.605V-5.3a5.038,5.038,0,0,0,.559,2.7,1.954,1.954,0,0,0,1.762.852,2.314,2.314,0,0,0,1.621-.5,2.241,2.241,0,0,0,.613-1.535Zm5.1-.773L132.859-3.25V0h-2.344V-11.375h2.344v5.156l1.031-1.414,2.9-3.742h2.883L135.633-6.32,139.789,0H137Z" transform="translate(-1.016 11.531)" fill="#161615"/>
</svg>
