<svg xmlns="http://www.w3.org/2000/svg" width="134.531" height="11.688" viewBox="0 0 134.531 11.688">
  <path id="RLB" d="M5.227-4.164H3.359V0H1.016V-11.375H5.242a4.778,4.778,0,0,1,3.109.9A3.1,3.1,0,0,1,9.445-7.937,3.5,3.5,0,0,1,8.941-6,3.437,3.437,0,0,1,7.414-4.758L9.875-.109V0H7.359Zm-1.867-1.9H5.25a1.936,1.936,0,0,0,1.367-.449A1.606,1.606,0,0,0,7.1-7.75a1.719,1.719,0,0,0-.457-1.266,1.9,1.9,0,0,0-1.4-.461H3.359ZM13.719,0H11.375V-11.375h2.344ZM24.891-1.437A4.068,4.068,0,0,1,23.1-.262a7.492,7.492,0,0,1-2.562.418,5.076,5.076,0,0,1-2.59-.645A4.3,4.3,0,0,1,16.23-2.359a6.585,6.585,0,0,1-.621-2.883v-.773a6.994,6.994,0,0,1,.574-2.949,4.248,4.248,0,0,1,1.656-1.906,4.771,4.771,0,0,1,2.535-.66,4.751,4.751,0,0,1,3.164.965,4.123,4.123,0,0,1,1.352,2.809H22.609a2.268,2.268,0,0,0-.691-1.43,2.208,2.208,0,0,0-1.473-.453,2.078,2.078,0,0,0-1.82.9,4.724,4.724,0,0,0-.633,2.672v.727a4.5,4.5,0,0,0,.68,2.7,2.327,2.327,0,0,0,1.992.914,2.6,2.6,0,0,0,1.883-.562V-4.25H20.414V-5.977h4.477ZM36.047,0H33.7V-4.875h-4.57V0H26.789V-11.375h2.344v4.609H33.7v-4.609h2.344ZM46.43-9.477H42.945V0H40.6V-9.477H37.164v-1.9H46.43Zm7.2,7.594H58.6V0h-7.32V-11.375h2.344ZM66.789-4.93h-4.5v3.047H67.57V0H59.945V-11.375h7.609v1.9H62.289v2.711h4.5Zm8.578,2.586H71.258L70.477,0H67.984l4.234-11.375h2.172L78.648,0H76.156Zm-3.477-1.9h2.844L73.3-8.5ZM88.961,0H86.617L82.055-7.484V0H79.711V-11.375h2.344l4.57,7.5v-7.5h2.336Zm6.031,0V-11.375h3.984a5.232,5.232,0,0,1,3.141.793,2.712,2.712,0,0,1,1.07,2.324,2.57,2.57,0,0,1-.43,1.473,2.482,2.482,0,0,1-1.2.934,2.4,2.4,0,0,1,1.379.883,2.61,2.61,0,0,1,.5,1.625A3,3,0,0,1,102.4-.859,4.713,4.713,0,0,1,99.414,0Zm2.344-4.953v3.07h2.008a1.938,1.938,0,0,0,1.293-.395,1.353,1.353,0,0,0,.465-1.09,1.428,1.428,0,0,0-1.617-1.586Zm0-1.656H99.07q1.773-.031,1.773-1.414a1.307,1.307,0,0,0-.449-1.113,2.363,2.363,0,0,0-1.418-.34H97.336Zm14.289,4.266h-4.109L106.734,0h-2.492l4.234-11.375h2.172L114.906,0h-2.492Zm-3.477-1.9h2.844L109.563-8.5Zm16.586.453A4.025,4.025,0,0,1,123.379-.9,4.76,4.76,0,0,1,120.156.156a4.28,4.28,0,0,1-3.441-1.473,6.038,6.038,0,0,1-1.254-4.043v-.7a6.819,6.819,0,0,1,.578-2.891,4.332,4.332,0,0,1,1.652-1.918,4.629,4.629,0,0,1,2.5-.668,4.637,4.637,0,0,1,3.172,1.055,4.326,4.326,0,0,1,1.391,2.961h-2.344a2.376,2.376,0,0,0-.613-1.6,2.271,2.271,0,0,0-1.605-.5,1.991,1.991,0,0,0-1.754.84,4.707,4.707,0,0,0-.6,2.605V-5.3a5.038,5.038,0,0,0,.559,2.7,1.954,1.954,0,0,0,1.762.852,2.314,2.314,0,0,0,1.621-.5,2.241,2.241,0,0,0,.613-1.535Zm5.1-.773L128.617-3.25V0h-2.344V-11.375h2.344v5.156l1.031-1.414,2.9-3.742h2.883L131.391-6.32,135.547,0h-2.789Z" transform="translate(-1.016 11.531)" fill="#161615"/>
</svg>
