<svg xmlns="http://www.w3.org/2000/svg" width="143.633" height="11.688" viewBox="0 0 143.633 11.688">
  <path id="RLF" d="M5.227-4.164H3.359V0H1.016V-11.375H5.242a4.778,4.778,0,0,1,3.109.9A3.1,3.1,0,0,1,9.445-7.937,3.5,3.5,0,0,1,8.941-6,3.437,3.437,0,0,1,7.414-4.758L9.875-.109V0H7.359Zm-1.867-1.9H5.25a1.936,1.936,0,0,0,1.367-.449A1.606,1.606,0,0,0,7.1-7.75a1.719,1.719,0,0,0-.457-1.266,1.9,1.9,0,0,0-1.4-.461H3.359ZM13.719,0H11.375V-11.375h2.344ZM24.891-1.437A4.068,4.068,0,0,1,23.1-.262a7.492,7.492,0,0,1-2.562.418,5.076,5.076,0,0,1-2.59-.645A4.3,4.3,0,0,1,16.23-2.359a6.585,6.585,0,0,1-.621-2.883v-.773a6.994,6.994,0,0,1,.574-2.949,4.248,4.248,0,0,1,1.656-1.906,4.771,4.771,0,0,1,2.535-.66,4.751,4.751,0,0,1,3.164.965,4.123,4.123,0,0,1,1.352,2.809H22.609a2.268,2.268,0,0,0-.691-1.43,2.208,2.208,0,0,0-1.473-.453,2.078,2.078,0,0,0-1.82.9,4.724,4.724,0,0,0-.633,2.672v.727a4.5,4.5,0,0,0,.68,2.7,2.327,2.327,0,0,0,1.992.914,2.6,2.6,0,0,0,1.883-.562V-4.25H20.414V-5.977h4.477ZM36.047,0H33.7V-4.875h-4.57V0H26.789V-11.375h2.344v4.609H33.7v-4.609h2.344ZM46.43-9.477H42.945V0H40.6V-9.477H37.164v-1.9H46.43Zm7.2,7.594H58.6V0h-7.32V-11.375h2.344ZM66.789-4.93h-4.5v3.047H67.57V0H59.945V-11.375h7.609v1.9H62.289v2.711h4.5Zm8.578,2.586H71.258L70.477,0H67.984l4.234-11.375h2.172L78.648,0H76.156Zm-3.477-1.9h2.844L73.3-8.5ZM88.961,0H86.617L82.055-7.484V0H79.711V-11.375h2.344l4.57,7.5v-7.5h2.336Zm12.875-4.648h-4.5V0H94.992V-11.375H102.4v1.9H97.336v2.938h4.5Zm6.133.484H106.1V0h-2.344V-11.375h4.227a4.778,4.778,0,0,1,3.109.9,3.1,3.1,0,0,1,1.094,2.539,3.5,3.5,0,0,1-.5,1.941,3.437,3.437,0,0,1-1.527,1.238l2.461,4.648V0H110.1Zm-1.867-1.9h1.891a1.936,1.936,0,0,0,1.367-.449,1.606,1.606,0,0,0,.484-1.238,1.719,1.719,0,0,0-.457-1.266,1.9,1.9,0,0,0-1.4-.461H106.1Zm17.211.633a6.867,6.867,0,0,1-.594,2.945,4.472,4.472,0,0,1-1.7,1.953,4.7,4.7,0,0,1-2.535.688,4.732,4.732,0,0,1-2.523-.68,4.515,4.515,0,0,1-1.719-1.941,6.67,6.67,0,0,1-.617-2.9V-5.93a6.831,6.831,0,0,1,.605-2.957,4.508,4.508,0,0,1,1.711-1.961,4.706,4.706,0,0,1,2.527-.684,4.706,4.706,0,0,1,2.527.684,4.508,4.508,0,0,1,1.711,1.961,6.811,6.811,0,0,1,.605,2.949Zm-2.375-.516a4.787,4.787,0,0,0-.641-2.719,2.088,2.088,0,0,0-1.828-.93,2.088,2.088,0,0,0-1.82.918A4.732,4.732,0,0,0,116-5.984v.555a4.847,4.847,0,0,0,.641,2.7,2.082,2.082,0,0,0,1.844.961,2.064,2.064,0,0,0,1.813-.926,4.819,4.819,0,0,0,.641-2.7ZM134.266,0h-2.344l-4.562-7.484V0h-2.344V-11.375h2.344l4.57,7.5v-7.5h2.336Zm10.383-9.477h-3.484V0H138.82V-9.477h-3.437v-1.9h9.266Z" transform="translate(-1.016 11.531)" fill="#161615"/>
</svg>
