<svg xmlns="http://www.w3.org/2000/svg" width="129.125" height="11.688" viewBox="0 0 129.125 11.688">
  <path id="RLL" d="M5.227-4.164H3.359V0H1.016V-11.375H5.242a4.778,4.778,0,0,1,3.109.9A3.1,3.1,0,0,1,9.445-7.937,3.5,3.5,0,0,1,8.941-6,3.437,3.437,0,0,1,7.414-4.758L9.875-.109V0H7.359Zm-1.867-1.9H5.25a1.936,1.936,0,0,0,1.367-.449A1.606,1.606,0,0,0,7.1-7.75a1.719,1.719,0,0,0-.457-1.266,1.9,1.9,0,0,0-1.4-.461H3.359ZM13.719,0H11.375V-11.375h2.344ZM24.891-1.437A4.068,4.068,0,0,1,23.1-.262a7.492,7.492,0,0,1-2.562.418,5.076,5.076,0,0,1-2.59-.645A4.3,4.3,0,0,1,16.23-2.359a6.585,6.585,0,0,1-.621-2.883v-.773a6.994,6.994,0,0,1,.574-2.949,4.248,4.248,0,0,1,1.656-1.906,4.771,4.771,0,0,1,2.535-.66,4.751,4.751,0,0,1,3.164.965,4.123,4.123,0,0,1,1.352,2.809H22.609a2.268,2.268,0,0,0-.691-1.43,2.208,2.208,0,0,0-1.473-.453,2.078,2.078,0,0,0-1.82.9,4.724,4.724,0,0,0-.633,2.672v.727a4.5,4.5,0,0,0,.68,2.7,2.327,2.327,0,0,0,1.992.914,2.6,2.6,0,0,0,1.883-.562V-4.25H20.414V-5.977h4.477ZM36.047,0H33.7V-4.875h-4.57V0H26.789V-11.375h2.344v4.609H33.7v-4.609h2.344ZM46.43-9.477H42.945V0H40.6V-9.477H37.164v-1.9H46.43Zm7.2,7.594H58.6V0h-7.32V-11.375h2.344ZM66.789-4.93h-4.5v3.047H67.57V0H59.945V-11.375h7.609v1.9H62.289v2.711h4.5Zm8.578,2.586H71.258L70.477,0H67.984l4.234-11.375h2.172L78.648,0H76.156Zm-3.477-1.9h2.844L73.3-8.5ZM88.961,0H86.617L82.055-7.484V0H79.711V-11.375h2.344l4.57,7.5v-7.5h2.336Zm8.375-1.883h4.977V0h-7.32V-11.375h2.344ZM110.5-4.93H106v3.047h5.281V0h-7.625V-11.375h7.609v1.9H106v2.711h4.5Zm9,.281H115V0h-2.344V-11.375h7.406v1.9H115v2.938h4.5Zm10.641-4.828h-3.484V0h-2.344V-9.477h-3.437v-1.9h9.266Z" transform="translate(-1.016 11.531)" fill="#161615"/>
</svg>
