<svg xmlns="http://www.w3.org/2000/svg" width="139.414" height="11.695" viewBox="0 0 139.414 11.695">
  <path id="Union_23" data-name="Union 23" d="M110.932,11.049a4.3,4.3,0,0,1-1.718-1.87,6.589,6.589,0,0,1-.621-2.883V5.523a6.976,6.976,0,0,1,.574-2.949A4.245,4.245,0,0,1,110.823.668a5.454,5.454,0,0,1,5.7.305,4.123,4.123,0,0,1,1.352,2.809h-2.281a2.273,2.273,0,0,0-.691-1.43,2.215,2.215,0,0,0-1.473-.453,2.078,2.078,0,0,0-1.82.9,4.724,4.724,0,0,0-.633,2.672V6.2a4.5,4.5,0,0,0,.679,2.7,2.327,2.327,0,0,0,1.992.913,2.6,2.6,0,0,0,1.884-.562V7.288H113.4V5.561h4.477V10.1a4.067,4.067,0,0,1-1.791,1.175,7.5,7.5,0,0,1-2.562.418h-.115A5.068,5.068,0,0,1,110.932,11.049Zm-94,0a4.3,4.3,0,0,1-1.718-1.87A6.589,6.589,0,0,1,14.593,6.3V5.523a7,7,0,0,1,.574-2.949A4.25,4.25,0,0,1,16.823.668a4.776,4.776,0,0,1,2.535-.66,4.751,4.751,0,0,1,3.163.965,4.124,4.124,0,0,1,1.353,2.809H21.593a2.269,2.269,0,0,0-.691-1.43A2.211,2.211,0,0,0,19.429,1.9a2.081,2.081,0,0,0-1.821.9,4.724,4.724,0,0,0-.633,2.672V6.2a4.5,4.5,0,0,0,.68,2.7,2.327,2.327,0,0,0,1.992.913,2.6,2.6,0,0,0,1.883-.562V7.288H19.4V5.561h4.477V10.1a4.067,4.067,0,0,1-1.791,1.175,7.5,7.5,0,0,1-2.562.418h-.115A5.071,5.071,0,0,1,16.932,11.049Zm116.653.489V2.061h-3.436V.161h9.266v1.9h-3.485v9.477Zm-6.9,0V6.663h-4.57v4.875h-2.341V.163h2.344V4.772h4.568V.163h2.344l0,11.375Zm-22.325,0V.163H106.7V11.538Zm-4.016,0L98.211,7.374H96.343v4.164H94V.163h4.226a4.78,4.78,0,0,1,3.109.9A3.1,3.1,0,0,1,102.429,3.6a3.5,3.5,0,0,1-.5,1.937A3.431,3.431,0,0,1,100.4,6.78l2.461,4.649v.109Zm-4-6.064h1.89A1.935,1.935,0,0,0,99.6,5.025a1.606,1.606,0,0,0,.482-1.237,1.722,1.722,0,0,0-.456-1.266,1.9,1.9,0,0,0-1.4-.461H96.343ZM85.6,11.538,81.039,4.055v7.484H78.7V.163h2.344l4.57,7.5V.163h2.336V11.538Zm-10.461,0-.789-2.344H70.242l-.781,2.344H66.968L71.2.163h2.173l4.258,11.375ZM70.874,7.295h2.844L72.284,3.038ZM58.929,11.538V.163h7.609v1.9H61.273V4.774h4.5V6.608h-4.5V9.655h5.281v1.883Zm-8.665,0V.163h2.344l.006,9.492h4.97v1.883Zm-10.68,0V2.061H36.148V.161h9.266v1.9H41.929v9.477Zm-6.9,0V6.663H28.114v4.875H25.773V.163h2.344V4.772h4.567V.163h2.344l0,11.375Zm-22.325,0V.163H12.7V11.538Zm-4.016,0L4.211,7.374H2.343v4.164H0V.163H4.226a4.783,4.783,0,0,1,3.109.9A3.1,3.1,0,0,1,8.429,3.6a3.49,3.49,0,0,1-.5,1.937A3.424,3.424,0,0,1,6.4,6.78l2.461,4.649v.109Zm-4-6.064h1.89A1.932,1.932,0,0,0,5.6,5.025a1.6,1.6,0,0,0,.483-1.237,1.719,1.719,0,0,0-.457-1.266,1.9,1.9,0,0,0-1.4-.461H2.343Z" fill="#161615"/>
</svg>
