<?xml version="1.0" encoding="utf-8"?>
<!-- Generator: Adobe Illustrator 24.2.3, SVG Export Plug-In . SVG Version: 6.00 Build 0)  -->
<svg version="1.1" id="Layer_1" xmlns="http://www.w3.org/2000/svg" xmlns:xlink="http://www.w3.org/1999/xlink" x="0px" y="0px"
	 viewBox="0 0 300 100.3" style="enable-background:new 0 0 300 100.3;" xml:space="preserve">
<style type="text/css">
	.st0{fill:#CA753B;}
	.st1{fill:url(#Rectangle_24673_2_);}
	.st2{clip-path:url(#SVGID_2_);}
	.st3{clip-path:url(#SVGID_4_);}
	.st4{opacity:0.32;fill:#D8AB6B;enable-background:new    ;}
	.st5{opacity:0.5;}
	.st6{clip-path:url(#SVGID_6_);}
	.st7{clip-path:url(#SVGID_8_);}
	.st8{clip-path:url(#SVGID_10_);}
	.st9{fill:#FFFFFF;}
	.st10{fill:#F15E22;}
	.st11{fill:none;stroke:#F0EFEF;}
	.st12{fill:#9C2E36;}
	.st13{fill:#1BA5B0;}
	.st14{clip-path:url(#SVGID_12_);}
	.st15{fill:#464C53;}
	.st16{clip-path:url(#SVGID_14_);}
	.st17{clip-path:url(#SVGID_16_);}
	.st18{clip-path:url(#SVGID_18_);}
	.st19{clip-path:url(#SVGID_20_);}
	.st20{clip-path:url(#SVGID_22_);}
</style>
<g>
	<rect id="Rectangle_24672_1_" x="0" y="0" class="st0" width="300" height="100.3"/>
	
		<linearGradient id="Rectangle_24673_2_" gradientUnits="userSpaceOnUse" x1="-3909.9221" y1="906.8007" x2="-3908.5164" y2="906.8007" gradientTransform="matrix(6.000000e-15 95.501 332.837 -2.000000e-14 -301667.0313 373413.2813)">
		<stop  offset="0" style="stop-color:#32190D"/>
		<stop  offset="0.876" style="stop-color:#5A270C"/>
		<stop  offset="1" style="stop-color:#6A2D12"/>
	</linearGradient>
	<rect id="Rectangle_24673_1_" x="10" y="11.8" class="st1" width="279.5" height="88.5"/>
	<g>
		<defs>
			<rect id="SVGID_1_" y="0.7" width="300" height="99.4"/>
		</defs>
		<clipPath id="SVGID_2_">
			<use xlink:href="#SVGID_1_"  style="overflow:visible;"/>
		</clipPath>
		<g id="Mask_Group_20_3_" transform="translate(-1004 -892)" class="st2">
			<g>
				<defs>
					<rect id="SVGID_3_" x="1004" y="886.9" width="300" height="111.4"/>
				</defs>
				<clipPath id="SVGID_4_">
					<use xlink:href="#SVGID_3_"  style="overflow:visible;"/>
				</clipPath>
				<g id="Mask_Group_11_3_" transform="translate(-14 -60.668)" class="st3">
					<g id="Group_6236_3_" transform="translate(1011.271 912.856)">
						<path id="Path_9688_4_" class="st4" d="M254.6,145.1c-20.7,2-103.5-6.6-115.4-6.1c-11.9,0.5-70,10.2-83.2,7.1
							c-9.4-2.2-38.9-3.1-55.1-3.4v1.4c22.2,3.2,71.4,9.5,83.1,5.6c15.2-5.2,74.2-4.4,91.8-3s74.4,6.6,103.5,3
							c11.2-1.4,22.6-1.4,33.8,0.3v-3.3C296.2,145.5,268.4,143.8,254.6,145.1z"/>
						<path id="Path_9689_4_" class="st4" d="M215.4,131.4c-23.3,0.5-79.7-5.6-92.5-4.1s-66.1,9-78,6.8c-8.4-1.6-31.4-2.3-44.1-2.6
							v1.3c17.3,2.9,55.2,9,65.6,8.2c13.7-1,70.9-9.2,84.6-7.1c13.6,2,86.8,6.1,105.7,5.1c13.1-0.7,40.6,0.6,56.3,1.5v-4.9
							C288.9,134.1,233.5,131,215.4,131.4z"/>
						<path id="Path_9690_4_" class="st4" d="M177.5,118.1c-14.1,1-55.1-1-91.2,2.6c-27.5,2.7-67.9,1.9-85.5,1.3v1.2
							c17.3,3,55.1,8.9,66.5,6.6c15-3.1,73.6-12.8,88.1-8.2c14.5,4.6,79.7,3.6,94.2,5.4c10.9,1.3,45.1,4,63.3,4.1v-5.6
							c-17.4-0.4-49-1.1-54.1-1.9C252,122.7,191.6,117.1,177.5,118.1z"/>
						<path id="Path_9691_4_" class="st4" d="M244.6,71.3c-9-3.9-46.5-9-56-10.5c-10.8-1.7-21.3-3.5-32.1-4.6
							c-24.1-2.3-48,2.3-71.9,3.5c-6.5,0.3-12.8,1.7-19.4,2.1c-4.9,0.2-9.8,1.3-14.5,3.1c9.5,4.1,21.5,5.4,31.7,6
							c11.5,0.7,22.5,3.1,33.8,4.3c20.8,2.2,43.5,2.2,64-1.7c7.1-1.3,14.5-1.6,21.6-3C204.9,70,243.6,74.3,244.6,71.3z M133.1,71.6
							c-10-0.6-20-0.5-29.9-2.6c-10.3-2.1-22.3-3.6-32.7-3c6.6,0,15.4-0.8,21.6-2.7c8.3-2.4,15.1-0.2,23.3,0.6
							c9.6,1,18-3.2,27.5-3.6c19.7-0.8,39.6,2.7,58.9,5.2c-5.5,2.4-13.9,2.7-20.1,4.1C166.3,73.1,149.2,72.5,133.1,71.6L133.1,71.6z
							"/>
						<path id="Path_9693_4_" class="st4" d="M99.2,65.5c3.4,0.7,6.8,1,10.3,1C106,65.7,102.6,65.3,99.2,65.5z"/>
						<path id="Path_9694_4_" class="st4" d="M182.4,66.7c-5.8-4.6-18.2-3.4-25.1-3.7c-6.9-0.4-12.5,1.4-18.9,2.6
							c-5.4,1-11,1-16.7,1c-2.9,0-7.6,0.1-12.2,0c4.3,0.9,8.6,2,12.5,2.5c6.8,0.6,13.6,0.7,20.4,0.1C154.9,68.3,171,73.2,182.4,66.7
							z"/>
						<path id="Path_9695_4_" class="st4" d="M11.5,101.7c7.6,1.3,15,3.7,22.6,4.6c5.6,0.9,11.4,1,17,0.5c4.5-0.5,11.1-1.9,15.4,0.1
							c-6.9,6.2-23.9,4.5-33,4.5c-6.6,0-12.6,0.2-19-0.5c-4.1-0.5-7.9,0.3-11.8,0.6c9.1,0.4,18.4,2,27.6,2c8.9,0,17.8,0,26.7,0
							c7.7,0,15-1.6,22.7-2c8.5-0.4,17.5,0,26.1-0.6c-4.5-5.7-21.8-4.9-28.6-6c-10.5-1.7-20.6-3.1-31.3-3.1c-10.4,0-21,0.7-31.3-1
							c-4.1-0.7-8.9-2.1-13.7-2.9v3.7C4.8,101.5,8.7,101.2,11.5,101.7z"/>
						<path id="Path_9697_4_" class="st4" d="M11.1,106.3c5.4,0.7,9.7,2.9,15.4,2.5c-4.8-2.7-11.9-3.1-17.6-3.5
							c-2.8-0.2-5.4-0.6-8-0.8v1.6C4.3,106,7.7,106,11.1,106.3z"/>
						<path id="Path_9698_4_" class="st4" d="M295.7,97.7c-17.3-0.7-33.6-1.3-50.8,0.5c-14.1,1.4-29,0.9-43.1,3.2
							c-5.7,0.9-10.9,3.2-16.5,4.4c-5.2,1.1-11.2,0.4-16.6,0.7c0,0.5,0,0.9,0,1.4c10.3,3.2,21.7,4.2,32.5,4.2
							c18.4-0.1,36.5,3.8,54.7,4.6c11.7,0.5,23.4-0.5,35.2-0.5c7.5,0,14.6-1.1,21.8-1.7v-4.5c-0.8,0-1.5,0.1-2.1,0.1h-14.5
							c-16,0-32.1,0.5-48.1-0.4c-16.4-0.9-35,5.9-50.4-2.7c9.4,0.2,18.5-1.4,27.6-1.5c7.8-0.1,14.5-2.7,22-3.6
							c8.8-1,17.8-0.2,26.5,0.4c10.4,0.7,20.2,1.5,30.3,3.3c1.3,0.2,4.8,0.8,8.7,1.1v-9.1C305.5,97.2,297.4,97.7,295.7,97.7z"/>
						<path id="Path_9699_4_" class="st4" d="M247.1,105.8c13.4-1.9,27.6,1.9,40.9,0.9c-4-3.3-15.5-2.9-20.7-3.5
							C263.5,102.8,248.6,100.8,247.1,105.8z"/>
						<path id="Path_9702_4_" class="st4" d="M28.6,93C42,93.7,56,97,69.2,99.7c13,2.6,25.9,3.4,39.1,4.6c9.3,0.8,18.1,5.7,27.4,5.1
							c13.3-0.8,26-3.9,39.2-4.6c6.8-0.4,12.3-2.1,18.8-3.7c6.2-1.5,15.9-0.2,21.1-4c-10.5,0.2-20.5,1.6-31.1,1.6
							c-13.2,0-25,2.9-37.9,5.1c-11,1.9-20.1-0.3-30.9-2.4c-13.9-2.7-28.1-4.5-41.9-7.3c-9.6-1.9-19.3-3.9-29-5.6
							c-4.9-0.9-9.6-3-14.5-3.6c-4.9-0.5-9.5-0.4-14.2-2c-4.7-1.6-9.6-2.2-14.4-1.7v9.5c2.2,0.6,4.4,1,6.6,1.3
							C14.6,92.6,21.5,92.7,28.6,93z"/>
						<path id="Path_9703_4_" class="st4" d="M206.3,88c-19.1,0-37.5,0.5-56.1,4.7c-9.9,2.2-20.8,1.9-30.8-0.1
							c-6.5-1.3-12.8-2.4-19.4-3.2c-6.4-0.7-13.2-0.7-19.3-3.1c-8.4-3.2-15.5-7.2-24.3-8.2c-9.2-1-18.1-1.9-26.9-5.5
							c-9-3.7-19.6-9.2-28.6-6.2v4.4c8,1.2,16.5,5,23.9,6.5c9,1.9,17.9,4.1,26.9,5.6c15.8,2.6,31.1,5.5,46.6,10.2
							c20.4,6.2,43.9,10.6,64.4,4.1c9.7-3.1,19.6-3.1,29.5-4.2c16.3-1.8,32.8-2.1,49.3-2.1c23.7,0,48,1.1,71.6-0.5v-1.9
							c-14.6-0.6-29.2-1.7-43.8-1.7C248.3,86.9,227.4,88,206.3,88z"/>
						<path id="Path_9704_4_" class="st4" d="M35.3,66.9c9.6,2.8,19.1,4.8,28.7,7.4c24.7,6.5,50.1,12.9,75.3,14.2
							c8.1,0.5,16.2-0.2,24.1-1.9c5.7-1.3,12.1-2,17.5-4.7c-4-0.4-7.6,1.2-11.3,1.6c-4.5,0.4-9.2,0-13.6,0c-9.1,0-18.2,1.9-27.3,1.5
							c-16.6-0.8-33.3-8-49.3-10.7c-6.1-1-12.9-1.3-18.9-3.1C54,69.2,47.8,66.2,41,64.3c-8.6-2.4-16.9-4.1-25.5-6
							c-2.8-0.6-6.2-0.8-9.6-1.3c3.6,1.8,7.4,3.3,11.2,4.5C23.2,63.3,29.2,65.1,35.3,66.9z"/>
						<path id="Path_9706_4_" class="st4" d="M245.4,78.3c-11.1,1.1-22.3,1-33.5,1c-7.4,0-17.9-0.6-24.2,3.5
							c5.4,0.8,10.8,1,16.3,0.6c19.3-0.9,38.7,0,58.1,0c11.2,0,22.1,1.2,33.1,1c3.3,0,11.2,0.3,17.9-0.9v-9.8
							c-8.6,2.7-16.1,4.6-25.9,4.6C273.3,78.3,259.2,76.9,245.4,78.3z"/>
						<path id="Path_9707_4_" class="st4" d="M266,62.9c-19.9-2.1-37.8-4.8-56.8-12.6c-23.1-9.6-46.2-7.6-70-4.7
							c-10.7,1.3-21.7,0.9-32.4,2c-11,1.2-21.4,2.2-32.4,2c-14.4-0.2-28.8,7.6-42.6,2.5C25.2,49.8,19,47.6,12,47.1
							c-3.6-0.2-7.5,0.7-11,0.1c1.2,0.7,2.4,1.4,3.5,1.9c3.8,1.7,7.5,2.3,11.5,3.2c5.3,1.2,10.3,3.9,15.5,5.4
							c8.7,2.4,16.6,1.6,25-0.8c10.4-3,20.3-3.7,31.2-3.7c12.1,0,24.1-1.5,36.2-1.5c8.4,0,16.3-2.5,24.7-2.1
							c14.4,0.7,28.4,3.6,42.7,5c11.8,1.2,23.3,1.9,34.7,5.6c13.9,4.5,27,9.5,41.7,10.3c12.3,0.7,24.9,1.2,37.2,0.1
							c2.1-0.2,5-0.2,8.2-0.4v-6.2c-3.9,0.4-7.8,0.9-10.9,0.9C290,65,278,64.2,266,62.9z"/>
						<path id="Path_9709_4_" class="st4" d="M56.8,46c21.4-7.5,44.1-3.3,66.2-5.7c1.6-0.2,8.1-0.2,8.4-3.2c0.4-4-10.5-5.1-12.8-5.5
							c-13.7-2.4-27.2-4.9-41-6.3c-15.8-1.6-31.5-4.8-47.2-6.8c-9.2-1.1-19.7-4.5-29.4-5.4v5.4c6.3,1.3,14.5,1.1,17.7,1.7
							c11.8,2.2,22.8,6.5,34.8,7.9c10.9,1.3,21.9,1.9,32.6,4.3c5.9,1.3,20.7,0.1,24.6,5.1c-7,4.2-20-0.8-27.7,0.2
							c-9.3,1.1-19.5-0.2-28.5,2.5c-8.9,2.7-14,5.8-23.6,1.4C21.2,37,11.2,34,0.9,32.6v2.6c10.1,3.1,20.2,7.8,29.9,11.6
							C40.2,50.4,47.4,49.2,56.8,46z"/>
						<path id="Path_9711_4_" class="st4" d="M300.1,56.8c-11.2,0-22.1-1.4-33.1-2.6c-18.7-1.9-36.2-7.4-53.8-14
							c-19.5-7.2-41.4-2.7-60.7-9.9c-21.8-8.1-46-7.9-67.8-16.6c-9.8-4-17.6-7-28.2-7c-7.5,0-15,0.4-22.5,0
							c-7.1-0.4-14.2,0.9-21.1-1C8.3,4.5,5.1,3.5,0.9,3.3v0.4c7.3,1.7,14.6,5.4,22.2,6.5c7.2,1.1,14.3,2.5,21.5,3.7
							c12.3,2.1,24.7,2.3,37,5.1c13.1,2.9,25.9,6.9,39.2,7.8c6.7,0.4,15.1,0.8,21.3,4c3.6,1.9,6.4,4.5,10.5,5.7
							c22,6.5,45.8,0.8,67.7,8.9c9.5,3.5,18.5,7.8,28.4,10.2c12.3,3,24.8,5,37.4,5.7c9,0.5,18,0,27.1,0v-4.6
							C308.8,56.9,304.4,56.8,300.1,56.8z"/>
						<path id="Path_9714_4_" class="st4" d="M263.6,15.9c-9.7,1-19.7,2.3-29.3,4.1c-5.6,1.1-16.3,3-20.6,7
							c10.4,4.6,19.4,10.6,30.8,13c11.5,2.4,23.1,4.8,34.7,6.7c10.5,1.7,21.1-0.2,31.7,0.4c0.6,0,1.4,0.1,2.2,0.2v-6.9
							c-3.4,0.4-6.8,0.4-10.1,0.3c-11.6-1.1-22.6-3.1-34.4-3.1c-8.8,0-17.3-0.1-25.9-1.5c-5.7-1-13-1.7-16.7-7.2
							c7.5-3.4,16-3.8,24.1-4.2c11-0.5,22.1-1.5,33.1-1.5c9.3-0.1,18.6-1,27.7-2.7c0.6-0.1,1.3-0.2,2.1-0.3v-9.2
							c-5.5,1.1-11,2.6-16.3,2.9C285.7,14.5,274.6,14.8,263.6,15.9z"/>
					</g>
				</g>
			</g>
		</g>
	</g>
	<g class="st5">
		<defs>
			<rect id="SVGID_5_" y="-0.3" class="st5" width="300" height="100.4"/>
		</defs>
		<clipPath id="SVGID_6_">
			<use xlink:href="#SVGID_5_"  style="overflow:visible;"/>
		</clipPath>
		<g id="Mask_Group_20_2_" transform="translate(-1004 -892)" class="st6">
			<g>
				<defs>
					<rect id="SVGID_7_" x="1004" y="884.9" width="300" height="107.2"/>
				</defs>
				<clipPath id="SVGID_8_">
					<use xlink:href="#SVGID_7_"  style="overflow:visible;"/>
				</clipPath>
				<g id="Mask_Group_11_2_" transform="translate(-14 -60.668)" class="st7">
					<g id="Group_6236_2_" transform="translate(1011.271 912.856)">
						<path id="Path_9688_3_" class="st4" d="M254.6,138.9c-20.7,2-103.5-6.4-115.4-5.9c-11.9,0.5-70,9.8-83.2,6.9
							c-9.4-2.1-38.9-2.9-55.1-3.3v1.4c22.2,3,71.4,9.2,83.1,5.4c15.2-5,74.2-4.2,91.8-2.9c17.6,1.3,74.4,6.3,103.5,2.9
							c11.2-1.4,22.6-1.3,33.8,0.2v-3.1C296.2,139.3,268.4,137.6,254.6,138.9z"/>
						<path id="Path_9689_3_" class="st4" d="M215.4,125.7c-23.3,0.5-79.7-5.4-92.5-3.9c-12.8,1.5-66.1,8.7-78,6.5
							c-8.4-1.5-31.4-2.2-44.1-2.5v1.3c17.3,2.8,55.2,8.6,65.6,7.9c13.7-1,70.9-8.8,84.6-6.9s86.8,5.9,105.7,4.9
							c13.1-0.7,40.6,0.6,56.3,1.4v-4.7C288.9,128.3,233.5,125.3,215.4,125.7z"/>
						<path id="Path_9690_3_" class="st4" d="M177.5,112.9c-14.1,1-55.1-1-91.2,2.5c-27.5,2.6-67.9,1.8-85.5,1.3v1.2
							c17.3,2.9,55.1,8.6,66.5,6.4c15-2.9,73.6-12.3,88.1-7.9c14.5,4.4,79.7,3.5,94.2,5.2c10.9,1.3,45.1,3.8,63.3,4v-5.4
							c-17.4-0.4-49-1.1-54.1-1.8C252,117.3,191.6,111.9,177.5,112.9z"/>
						<path id="Path_9691_3_" class="st4" d="M244.6,67.9c-9-3.7-46.5-8.6-56-10.1c-10.8-1.6-21.3-3.4-32.1-4.4
							c-24.1-2.3-48,2.2-71.9,3.4c-6.5,0.3-12.8,1.6-19.4,2c-4.9,0.2-9.8,1.2-14.5,2.9c9.5,3.9,21.5,5.2,31.7,5.8
							c11.5,0.7,22.5,3,33.8,4.1c20.8,2.1,43.5,2.1,64-1.6c7.1-1.3,14.5-1.5,21.6-2.9C204.9,66.6,243.6,70.8,244.6,67.9z
							 M133.1,68.2c-10-0.5-20-0.5-29.9-2.5c-10.3-2.1-22.3-3.4-32.7-2.9c6.6,0,15.4-0.8,21.6-2.6c8.3-2.3,15.1-0.2,23.3,0.6
							c9.6,0.9,18-3.1,27.5-3.4c19.7-0.8,39.6,2.6,58.9,5c-5.5,2.3-13.9,2.6-20.1,3.9C166.3,69.6,149.2,69.1,133.1,68.2L133.1,68.2z
							"/>
						<path id="Path_9693_3_" class="st4" d="M99.2,62.3c3.4,0.7,6.8,1,10.3,1C106,62.5,102.6,62.2,99.2,62.3z"/>
						<path id="Path_9694_3_" class="st4" d="M182.4,63.4c-5.8-4.4-18.2-3.2-25.1-3.6c-6.9-0.3-12.5,1.3-18.9,2.5
							c-5.4,1-11,1-16.7,1c-2.9,0-7.6,0.1-12.2,0c4.3,0.8,8.6,1.9,12.5,2.4c6.8,0.6,13.6,0.6,20.4,0.1C154.9,65,171,69.7,182.4,63.4
							z"/>
						<path id="Path_9695_3_" class="st4" d="M11.5,97.1c7.6,1.2,15,3.5,22.6,4.4c5.6,0.8,11.4,1,17,0.5c4.5-0.5,11.1-1.8,15.4,0.1
							c-6.9,5.9-23.9,4.3-33,4.3c-6.6,0-12.6,0.2-19-0.5c-4.1-0.5-7.9,0.3-11.8,0.5c9.1,0.3,18.4,1.9,27.6,1.9c8.9,0,17.8,0,26.7,0
							c7.7,0,15-1.6,22.7-1.9c8.5-0.4,17.5,0,26.1-0.6c-4.5-5.5-21.8-4.7-28.6-5.8c-10.5-1.6-20.6-2.9-31.3-2.9
							c-10.4,0-21,0.7-31.3-1c-4.1-0.7-8.9-2-13.7-2.8v3.5C4.8,97,8.7,96.7,11.5,97.1z"/>
						<path id="Path_9697_3_" class="st4" d="M11.1,101.6c5.4,0.6,9.7,2.8,15.4,2.4c-4.8-2.6-11.9-3-17.6-3.3
							c-2.8-0.2-5.4-0.6-8-0.8v1.5C4.3,101.2,7.7,101.3,11.1,101.6z"/>
						<path id="Path_9698_3_" class="st4" d="M295.7,93.2c-17.3-0.7-33.6-1.2-50.8,0.5c-14.1,1.4-29,0.8-43.1,3.1
							c-5.7,0.9-10.9,3-16.5,4.2c-5.2,1.1-11.2,0.3-16.6,0.7c0,0.4,0,0.9,0,1.3c10.3,3.1,21.7,4,32.5,4c18.4-0.1,36.5,3.7,54.7,4.4
							c11.7,0.5,23.4-0.5,35.2-0.5c7.5,0,14.6-1.1,21.8-1.6v-4.4c-0.8,0-1.5,0.1-2.1,0.1h-14.5c-16,0-32.1,0.4-48.1-0.4
							c-16.4-0.8-35,5.7-50.4-2.6c9.4,0.2,18.5-1.3,27.6-1.4c7.8-0.1,14.5-2.6,22-3.4c8.8-1,17.8-0.2,26.5,0.4
							c10.4,0.7,20.2,1.5,30.3,3.2c1.3,0.2,4.8,0.8,8.7,1.1v-8.8C305.5,92.8,297.4,93.3,295.7,93.2z"/>
						<path id="Path_9699_3_" class="st4" d="M247.1,101.1c13.4-1.8,27.6,1.8,40.9,0.9c-4-3.1-15.5-2.8-20.7-3.3
							C263.5,98.2,248.6,96.2,247.1,101.1z"/>
						<path id="Path_9702_3_" class="st4" d="M28.6,88.8C42,89.5,56,92.6,69.2,95.2c13,2.5,25.9,3.3,39.1,4.4
							c9.3,0.8,18.1,5.5,27.4,4.9c13.3-0.8,26-3.7,39.2-4.4c6.8-0.4,12.3-2,18.8-3.5c6.2-1.5,15.9-0.2,21.1-3.8
							c-10.5,0.2-20.5,1.5-31.1,1.5c-13.2,0-25,2.8-37.9,4.9c-11,1.8-20.1-0.3-30.9-2.3c-13.9-2.6-28.1-4.3-41.9-7
							c-9.6-1.9-19.3-3.7-29-5.4c-4.9-0.8-9.6-2.9-14.5-3.4c-4.9-0.5-9.5-0.4-14.2-2c-4.7-1.6-9.6-2.1-14.4-1.7v9.1
							c2.2,0.6,4.4,1,6.6,1.2C14.6,88.4,21.5,88.4,28.6,88.8z"/>
						<path id="Path_9703_3_" class="st4" d="M206.3,83.9c-19.1,0-37.5,0.5-56.1,4.5c-9.9,2.2-20.8,1.8-30.8-0.1
							c-6.5-1.2-12.8-2.4-19.4-3.1c-6.4-0.7-13.2-0.7-19.3-3c-8.4-3.1-15.5-6.9-24.3-7.8c-9.2-1-18.1-1.9-26.9-5.3
							c-9-3.5-19.6-8.8-28.6-5.9v4.3c8,1.1,16.5,4.8,23.9,6.2c9,1.8,17.9,3.9,26.9,5.4c15.8,2.5,31.1,5.3,46.6,9.8
							c20.4,5.9,43.9,10.2,64.4,3.9c9.7-3,19.6-3,29.5-4c16.3-1.7,32.8-2,49.3-2c23.7,0,48,1.1,71.6-0.5v-1.8
							c-14.6-0.6-29.2-1.6-43.8-1.6C248.3,82.9,227.4,83.9,206.3,83.9z"/>
						<path id="Path_9704_3_" class="st4" d="M35.3,63.7c9.6,2.7,19.1,4.7,28.7,7.1c24.7,6.3,50.1,12.4,75.3,13.6
							c8.1,0.4,16.2-0.2,24.1-1.9c5.7-1.2,12.1-1.9,17.5-4.6c-4-0.3-7.6,1.1-11.3,1.5c-4.5,0.4-9.2,0-13.6,0
							c-9.1,0-18.2,1.9-27.3,1.5c-16.6-0.7-33.3-7.7-49.3-10.3c-6.1-1-12.9-1.2-18.9-2.9C54,65.8,47.8,63,41,61.2
							c-8.6-2.3-16.9-3.9-25.5-5.8c-2.8-0.6-6.2-0.8-9.6-1.2c3.6,1.7,7.4,3.1,11.2,4.3C23.2,60.2,29.2,62,35.3,63.7z"/>
						<path id="Path_9706_3_" class="st4" d="M245.4,74.6c-11.1,1-22.3,1-33.5,1c-7.4,0-17.9-0.6-24.2,3.3c5.4,0.8,10.8,1,16.3,0.6
							c19.3-0.9,38.7,0,58.1,0c11.2,0,22.1,1.1,33.1,1c3.3,0,11.2,0.3,17.9-0.9v-9.4c-8.6,2.6-16.1,4.4-25.9,4.4
							C273.3,74.6,259.2,73.3,245.4,74.6z"/>
						<path id="Path_9707_3_" class="st4" d="M266,59.8c-19.9-2-37.8-4.6-56.8-12.2c-24.9-9.9-44.5-7.5-70-4.5
							c-10.7,1.2-21.7,0.9-32.4,2c-11,1.1-21.4,2.1-32.4,2c-14.4-0.2-28.8,7.3-42.6,2.4C25.2,47.2,19,45.1,12,44.6
							c-3.6-0.2-7.5,0.7-11,0.1c1.2,0.6,2.4,1.3,3.5,1.8c3.8,1.7,7.5,2.2,11.5,3.1c5.3,1.1,10.3,3.8,15.5,5.2
							c8.7,2.3,16.6,1.5,25-0.8c10.4-2.8,20.3-3.6,31.2-3.6c12.1,0,24.1-1.5,36.2-1.5c8.4,0,16.3-2.4,24.7-2
							c14.4,0.7,28.4,3.4,42.7,4.8c11.8,1.1,23.3,1.8,34.7,5.4c13.9,4.3,27,9.1,41.7,9.9c12.3,0.7,24.9,1.1,37.2,0.1
							c2.1-0.2,5-0.2,8.2-0.4v-6c-3.9,0.4-7.8,0.8-10.9,0.8C290,61.8,278,61,266,59.8z"/>
						<path id="Path_9709_3_" class="st4" d="M56.8,43.5c21.4-7.2,44.1-3.1,66.2-5.5c1.6-0.2,8.1-0.2,8.4-3
							c0.4-3.8-10.5-4.9-12.8-5.3c-13.7-2.3-27.2-4.7-41-6.1c-15.8-1.6-31.5-4.7-47.2-6.5c-9.2-1.1-19.7-4.3-29.4-5.2v5.2
							c6.3,1.3,14.5,1,17.7,1.6c11.8,2.1,22.8,6.3,34.8,7.6c10.9,1.2,21.9,1.9,32.6,4.1c5.9,1.2,20.7,0.1,24.6,4.9
							c-7,4-20-0.7-27.7,0.1c-9.3,1.1-19.5-0.2-28.5,2.4c-8.9,2.6-14,5.6-23.6,1.4c-9.6-4.4-19.6-7.3-29.9-8.6v2.5
							c10.1,3,20.2,7.5,29.9,11.1C40.2,47.8,47.4,46.6,56.8,43.5z"/>
						<path id="Path_9711_3_" class="st4" d="M300.1,53.9c-11.2,0-22.1-1.4-33.1-2.5c-18.7-1.9-36.2-7.2-53.8-13.4
							c-19.5-6.9-41.4-2.2-60.7-9.2c-21.8-7.8-46-7.9-67.8-16.3C74.8,8.7,67,5.8,56.4,5.8c-7.5,0-15,0.4-22.5,0
							c-7.1-0.4-14.2,0.8-21.1-1C8.3,3.6,5.1,2.7,0.9,2.4v0.4C8.2,4.5,15.6,8,23.1,9.1c7.2,1,14.3,2.4,21.5,3.6
							c12.3,2,24.7,2.3,37,4.9c13.1,2.8,25.9,6.6,39.2,7.5c6.7,0.4,15.1,0.8,21.3,3.9c3.6,1.8,6.4,4.4,10.5,5.5
							c22,6.3,45.8,0.8,67.7,8.5c9.5,3.3,18.5,7.5,28.4,9.8c12.3,2.9,24.8,4.8,37.4,5.5c9,0.5,18,0,27.1,0V54
							C308.8,54,304.4,53.9,300.1,53.9z"/>
						<path id="Path_9714_3_" class="st4" d="M263.6,14.6c-9.7,1-19.7,2.2-29.3,3.9c-5.6,1-16.3,2.9-20.6,6.8
							c10.4,4.4,19.4,10.2,30.8,12.5c11.5,2.3,23.1,4.6,34.7,6.4c10.5,1.7,21.1-0.1,31.7,0.3c0.6,0,1.4,0.1,2.2,0.2v-6.7
							c-3.4,0.3-6.8,0.4-10.1,0.2c-11.6-1.1-22.6-3-34.4-3c-8.8,0-17.3-0.1-25.9-1.5c-5.7-0.9-13-1.6-16.7-6.9
							c7.5-3.3,16-3.7,24.1-4c11-0.5,22.1-1.5,33.1-1.5c9.3-0.1,18.6-1,27.7-2.6c0.6-0.1,1.3-0.2,2.1-0.3V9.8
							c-5.5,1.1-11,2.5-16.3,2.8C285.7,13.2,274.6,13.5,263.6,14.6z"/>
					</g>
				</g>
			</g>
		</g>
	</g>
	<g>
		<defs>
			<rect id="SVGID_9_" x="18.3" y="17.9" width="263.4" height="79.5"/>
		</defs>
		<clipPath id="SVGID_10_">
			<use xlink:href="#SVGID_9_"  style="overflow:visible;"/>
		</clipPath>
		<g id="Repeat_Grid_16_1_" transform="translate(21 9.404)" class="st8">
			<g transform="translate(-1015.763 -901.404)">
				<g id="Group_6566_1_" transform="translate(1589.385 1215.763) rotate(90)">
					<g id="Group_6564_1_" transform="translate(-314.358 518.833)">
						<path id="Path_10460_1_" class="st9" d="M28.9,14.3H21c-3.9,0-6.9,2.2-6.9,4.7V25c0,2.5,3,4.6,6.9,4.6h64.8V14.3H28.9z"/>
						<path id="Path_10461_1_" class="st10" d="M20.8,29.3c-3.8,0-6.7-2.1-6.7-4.5v-5.9c0-2.5,3-4.6,6.7-4.6h64.8
							c1.2,0.1,2.2-0.8,2.3-2v-0.1c-0.1-1.2-1.1-2.1-2.3-2H16.1c-4.2,0-7.4,3.1-7.4,6.9v9.3c0,3.9,3.2,6.9,7.4,6.9h69.5
							c1.2,0.1,2.2-0.8,2.3-1.9c0,0,0,0,0,0v-0.1c-0.1-1.2-1.1-2.1-2.3-2H20.8z"/>
						<g id="Group_6570_1_" transform="translate(-901.404 1043.011) rotate(-90)">
							<g id="Group_6567_1_" transform="translate(1023.459 908.078)">
								<path id="Path_10466_1_" class="st11" d="M-7.5,7.6v71.5"/>
								<path id="Path_10467_1_" class="st11" d="M-4.9,7.6v71.5"/>
							</g>
							<g id="Group_6568_1_" transform="translate(1029.459 908.078)">
								<path id="Path_10468_1_" class="st11" d="M-8.3,7.6v71.5"/>
								<path id="Path_10469_1_" class="st11" d="M-5.7,7.6v71.5"/>
								<path id="Path_10470_1_" class="st11" d="M-3.1,7.6v71.5"/>
							</g>
						</g>
						<path id="Path_10462_1_" class="st12" d="M23.7,29.3l-2.9-0.1c-3.8,0-6.7-2-6.7-4.4l0-5.9c0-2.5,2.9-4.5,6.7-4.5l2.5-0.1
							l0-4.1l-7.2-0.1c-4.2,0-7.6,3.1-7.6,7v9.3c0,3.9,3.4,7,7.6,7l7.6-0.1V29.3z"/>
					</g>
					<g id="Group_6565_1_" transform="translate(-314.154 546.271)">
						<path id="Path_10463_1_" class="st9" d="M29.1,25.5h-7.9c-3.9,0-7.3-1.9-7.3-4.3v-5.9c0-2.5,3.4-4.3,7.3-4.3h64.4v14.5
							L29.1,25.5z"/>
						<path id="Path_10464_1_" class="st13" d="M21,11c-3.8,0-7.1,1.9-7.1,4.3v5.9c0,2.5,3.3,4.3,7.1,4.3h64.8c1.1,0,2,1,1.9,2.1
							c0,0,0,0.1,0,0.1v0.1c0.1,1.1-0.7,2.1-1.8,2.2c0,0-0.1,0-0.1,0H16.3c-4.2,0-7.8-3.3-7.8-7.1v-9.3c0-3.9,3.6-7.1,7.8-7.1h69.5
							c1.1,0,2,1,1.9,2.1c0,0,0,0.1,0,0.1v0.1c0.1,1.1-0.7,2.1-1.8,2.2c0,0-0.1,0-0.1,0L21,11L21,11z"/>
						<g>
							<defs>
								<path id="SVGID_11_" d="M29.1,25.5h-7.9c-3.9,0-7.3-1.9-7.3-4.3v-5.9c0-2.5,3.4-4.3,7.3-4.3h64.4v14.5L29.1,25.5z"/>
							</defs>
							<clipPath id="SVGID_12_">
								<use xlink:href="#SVGID_11_"  style="overflow:visible;"/>
							</clipPath>
							<g id="Mask_Group_19_1_" transform="translate(-901.608 1043.113) rotate(-90)" class="st14">
								<g id="Group_6569_1_">
									<g id="Group_6567-2_1_">
										<path id="Path_10466-2_1_" class="st11" d="M1019.7,915.7v72.4"/>
										<path id="Path_10467-2_1_" class="st11" d="M1022.3,915.7v72.4"/>
									</g>
									<g id="Group_6568-2_1_" transform="translate(6)">
										<path id="Path_10468-2_1_" class="st11" d="M1018.9,915.7v72.4"/>
										<path id="Path_10469-2_1_" class="st11" d="M1021.5,915.7v72.4"/>
										<path id="Path_10470-2_1_" class="st11" d="M1024.1,915.7v72.4"/>
									</g>
								</g>
							</g>
						</g>
						<path id="Path_10465_1_" class="st15" d="M23.5,11l-2.6,0c-3.8,0-6.7,1.9-6.7,4.3v5.9c0,2.5,3,4.3,6.8,4.3l2.5,0l0,4.5h-7.2
							c-4.2,0-7.8-3.3-7.8-7.1v-9.4c0-3.9,3.6-7.1,7.8-7.1h7.2L23.5,11z"/>
					</g>
				</g>
			</g>
		</g>
		<g id="Repeat_Grid_16_2_" transform="translate(21 9.404)" class="st8">
			<g transform="translate(-1015.763 -901.404)">
				<g id="Group_6566_2_" transform="translate(1589.385 1215.763) rotate(90)">
					<g id="Group_6564_2_" transform="translate(-314.358 518.833)">
						<path id="Path_10460_2_" class="st9" d="M28.9-33.6H21c-3.9,0-6.9,2.2-6.9,4.7v6.1c0,2.5,3,4.6,6.9,4.6h64.8v-15.4H28.9z"/>
						<path id="Path_10461_2_" class="st10" d="M20.8-18.6c-3.8,0-6.7-2.1-6.7-4.5V-29c0-2.5,3-4.6,6.7-4.6h64.8
							c1.2,0.1,2.2-0.8,2.3-2v-0.1c-0.1-1.2-1.1-2.1-2.3-2H16.1c-4.2,0-7.4,3.1-7.4,6.9v9.3c0,3.9,3.2,6.9,7.4,6.9h69.5
							c1.2,0.1,2.2-0.8,2.3-1.9c0,0,0,0,0,0v-0.1c-0.1-1.2-1.1-2.1-2.3-2H20.8z"/>
						<g id="Group_6570_2_" transform="translate(-901.404 1043.011) rotate(-90)">
							<g id="Group_6567_2_" transform="translate(1023.459 908.078)">
								<path id="Path_10466_2_" class="st11" d="M40.4,7.6v71.5"/>
								<path id="Path_10467_2_" class="st11" d="M43,7.6v71.5"/>
							</g>
							<g id="Group_6568_2_" transform="translate(1029.459 908.078)">
								<path id="Path_10468_2_" class="st11" d="M39.6,7.6v71.5"/>
								<path id="Path_10469_2_" class="st11" d="M42.2,7.6v71.5"/>
								<path id="Path_10470_2_" class="st11" d="M44.8,7.6v71.5"/>
							</g>
						</g>
						<path id="Path_10462_2_" class="st12" d="M23.7-18.6l-2.9-0.1c-3.8,0-6.7-2-6.7-4.4l0-5.9c0-2.5,2.9-4.5,6.7-4.5l2.5-0.1
							l0-4.1l-7.2-0.1c-4.2,0-7.6,3.1-7.6,7v9.3c0,3.9,3.4,7,7.6,7l7.6-0.1V-18.6z"/>
					</g>
					<g id="Group_6565_2_" transform="translate(-314.154 546.271)">
						<path id="Path_10463_2_" class="st9" d="M29.1-22.4h-7.9c-3.9,0-7.3-1.9-7.3-4.3v-5.9c0-2.5,3.4-4.3,7.3-4.3h64.4v14.5
							L29.1-22.4z"/>
						<path id="Path_10464_2_" class="st13" d="M21-36.9c-3.8,0-7.1,1.9-7.1,4.3v5.9c0,2.5,3.3,4.3,7.1,4.3h64.8c1.1,0,2,1,1.9,2.1
							c0,0,0,0.1,0,0.1v0.1c0.1,1.1-0.7,2.1-1.8,2.2c0,0-0.1,0-0.1,0H16.3c-4.2,0-7.8-3.3-7.8-7.1v-9.3c0-3.9,3.6-7.1,7.8-7.1h69.5
							c1.1,0,2,1,1.9,2.1c0,0,0,0.1,0,0.1v0.1c0.1,1.1-0.7,2.1-1.8,2.2c0,0-0.1,0-0.1,0L21-36.9L21-36.9z"/>
						<g>
							<defs>
								<path id="SVGID_13_" d="M29.1-22.4h-7.9c-3.9,0-7.3-1.9-7.3-4.3v-5.9c0-2.5,3.4-4.3,7.3-4.3h64.4v14.5L29.1-22.4z"/>
							</defs>
							<clipPath id="SVGID_14_">
								<use xlink:href="#SVGID_13_"  style="overflow:visible;"/>
							</clipPath>
							<g id="Mask_Group_19_2_" transform="translate(-901.608 1043.113) rotate(-90)" class="st16">
								<g id="Group_6569_2_">
									<g id="Group_6567-2_2_">
										<path id="Path_10466-2_2_" class="st11" d="M1067.6,915.7v72.4"/>
										<path id="Path_10467-2_2_" class="st11" d="M1070.2,915.7v72.4"/>
									</g>
									<g id="Group_6568-2_2_" transform="translate(6)">
										<path id="Path_10468-2_2_" class="st11" d="M1066.8,915.7v72.4"/>
										<path id="Path_10469-2_2_" class="st11" d="M1069.4,915.7v72.4"/>
										<path id="Path_10470-2_2_" class="st11" d="M1072,915.7v72.4"/>
									</g>
								</g>
							</g>
						</g>
						<path id="Path_10465_2_" class="st15" d="M23.5-36.9l-2.6,0c-3.8,0-6.7,1.9-6.7,4.3v5.9c0,2.5,3,4.3,6.8,4.3l2.5,0l0,4.5h-7.2
							c-4.2,0-7.8-3.3-7.8-7.1v-9.4c0-3.9,3.6-7.1,7.8-7.1h7.2L23.5-36.9z"/>
					</g>
				</g>
			</g>
		</g>
		<g id="Repeat_Grid_16_3_" transform="translate(21 9.404)" class="st8">
			<g transform="translate(-1015.763 -901.404)">
				<g id="Group_6566_3_" transform="translate(1589.385 1215.763) rotate(90)">
					<g id="Group_6564_3_" transform="translate(-314.358 518.833)">
						<path id="Path_10460_3_" class="st9" d="M28.9-81.5H21c-3.9,0-6.9,2.2-6.9,4.7v6.1c0,2.5,3,4.6,6.9,4.6h64.8v-15.4H28.9z"/>
						<path id="Path_10461_3_" class="st10" d="M20.8-66.5c-3.8,0-6.7-2.1-6.7-4.5v-5.9c0-2.5,3-4.6,6.7-4.6h64.8
							c1.2,0.1,2.2-0.8,2.3-2v-0.1c-0.1-1.2-1.1-2.1-2.3-2H16.1c-4.2,0-7.4,3.1-7.4,6.9v9.3c0,3.9,3.2,6.9,7.4,6.9h69.5
							c1.2,0.1,2.2-0.8,2.3-1.9c0,0,0,0,0,0v-0.1c-0.1-1.2-1.1-2.1-2.3-2H20.8z"/>
						<g id="Group_6570_3_" transform="translate(-901.404 1043.011) rotate(-90)">
							<g id="Group_6567_3_" transform="translate(1023.459 908.078)">
								<path id="Path_10466_3_" class="st11" d="M88.3,7.6v71.5"/>
								<path id="Path_10467_3_" class="st11" d="M90.9,7.6v71.5"/>
							</g>
							<g id="Group_6568_3_" transform="translate(1029.459 908.078)">
								<path id="Path_10468_3_" class="st11" d="M87.5,7.6v71.5"/>
								<path id="Path_10469_3_" class="st11" d="M90.1,7.6v71.5"/>
								<path id="Path_10470_3_" class="st11" d="M92.7,7.6v71.5"/>
							</g>
						</g>
						<path id="Path_10462_3_" class="st12" d="M23.7-66.5l-2.9-0.1c-3.8,0-6.7-2-6.7-4.4l0-5.9c0-2.5,2.9-4.5,6.7-4.5l2.5-0.1
							l0-4.1l-7.2-0.1c-4.2,0-7.6,3.1-7.6,7v9.3c0,3.9,3.4,7,7.6,7l7.6-0.1V-66.5z"/>
					</g>
					<g id="Group_6565_3_" transform="translate(-314.154 546.271)">
						<path id="Path_10463_3_" class="st9" d="M29.1-70.3h-7.9c-3.9,0-7.3-1.9-7.3-4.3v-5.9c0-2.5,3.4-4.3,7.3-4.3h64.4v14.5
							L29.1-70.3z"/>
						<path id="Path_10464_3_" class="st13" d="M21-84.8c-3.8,0-7.1,1.9-7.1,4.3v5.9c0,2.5,3.3,4.3,7.1,4.3h64.8c1.1,0,2,1,1.9,2.1
							c0,0,0,0.1,0,0.1v0.1c0.1,1.1-0.7,2.1-1.8,2.2c0,0-0.1,0-0.1,0H16.3c-4.2,0-7.8-3.3-7.8-7.1v-9.3c0-3.9,3.6-7.1,7.8-7.1h69.5
							c1.1,0,2,1,1.9,2.1c0,0,0,0.1,0,0.1v0.1c0.1,1.1-0.7,2.1-1.8,2.2c0,0-0.1,0-0.1,0L21-84.8L21-84.8z"/>
						<g>
							<defs>
								<path id="SVGID_15_" d="M29.1-70.3h-7.9c-3.9,0-7.3-1.9-7.3-4.3v-5.9c0-2.5,3.4-4.3,7.3-4.3h64.4v14.5L29.1-70.3z"/>
							</defs>
							<clipPath id="SVGID_16_">
								<use xlink:href="#SVGID_15_"  style="overflow:visible;"/>
							</clipPath>
							<g id="Mask_Group_19_3_" transform="translate(-901.608 1043.113) rotate(-90)" class="st17">
								<g id="Group_6569_3_">
									<g id="Group_6567-2_3_">
										<path id="Path_10466-2_3_" class="st11" d="M1115.5,915.7v72.4"/>
										<path id="Path_10467-2_3_" class="st11" d="M1118.1,915.7v72.4"/>
									</g>
									<g id="Group_6568-2_3_" transform="translate(6)">
										<path id="Path_10468-2_3_" class="st11" d="M1114.7,915.7v72.4"/>
										<path id="Path_10469-2_3_" class="st11" d="M1117.3,915.7v72.4"/>
										<path id="Path_10470-2_3_" class="st11" d="M1119.9,915.7v72.4"/>
									</g>
								</g>
							</g>
						</g>
						<path id="Path_10465_3_" class="st15" d="M23.5-84.8l-2.6,0c-3.8,0-6.7,1.9-6.7,4.3v5.9c0,2.5,3,4.3,6.8,4.3l2.5,0l0,4.5h-7.2
							c-4.2,0-7.8-3.3-7.8-7.1v-9.4c0-3.9,3.6-7.1,7.8-7.1h7.2L23.5-84.8z"/>
					</g>
				</g>
			</g>
		</g>
		<g id="Repeat_Grid_16_4_" transform="translate(21 9.404)" class="st8">
			<g transform="translate(-1015.763 -901.404)">
				<g id="Group_6566_4_" transform="translate(1589.385 1215.763) rotate(90)">
					<g id="Group_6564_4_" transform="translate(-314.358 518.833)">
						<path id="Path_10460_4_" class="st9" d="M28.9-129.4H21c-3.9,0-6.9,2.2-6.9,4.7v6.1c0,2.5,3,4.6,6.9,4.6h64.8v-15.4H28.9z"/>
						<path id="Path_10461_4_" class="st10" d="M20.8-114.4c-3.8,0-6.7-2.1-6.7-4.5v-5.9c0-2.5,3-4.6,6.7-4.6h64.8
							c1.2,0.1,2.2-0.8,2.3-2v-0.1c-0.1-1.2-1.1-2.1-2.3-2H16.1c-4.2,0-7.4,3.1-7.4,6.9v9.3c0,3.9,3.2,6.9,7.4,6.9h69.5
							c1.2,0.1,2.2-0.8,2.3-1.9c0,0,0,0,0,0v-0.1c-0.1-1.2-1.1-2.1-2.3-2H20.8z"/>
						<g id="Group_6570_4_" transform="translate(-901.404 1043.011) rotate(-90)">
							<g id="Group_6567_4_" transform="translate(1023.459 908.078)">
								<path id="Path_10466_4_" class="st11" d="M136.2,7.6v71.5"/>
								<path id="Path_10467_4_" class="st11" d="M138.8,7.6v71.5"/>
							</g>
							<g id="Group_6568_4_" transform="translate(1029.459 908.078)">
								<path id="Path_10468_4_" class="st11" d="M135.4,7.6v71.5"/>
								<path id="Path_10469_4_" class="st11" d="M138,7.6v71.5"/>
								<path id="Path_10470_4_" class="st11" d="M140.6,7.6v71.5"/>
							</g>
						</g>
						<path id="Path_10462_4_" class="st12" d="M23.7-114.4l-2.9-0.1c-3.8,0-6.7-2-6.7-4.4l0-5.9c0-2.5,2.9-4.5,6.7-4.5l2.5-0.1
							l0-4.1l-7.2-0.1c-4.2,0-7.6,3.1-7.6,7v9.3c0,3.9,3.4,7,7.6,7l7.6-0.1V-114.4z"/>
					</g>
					<g id="Group_6565_4_" transform="translate(-314.154 546.271)">
						<path id="Path_10463_4_" class="st9" d="M29.1-118.2h-7.9c-3.9,0-7.3-1.9-7.3-4.3v-5.9c0-2.5,3.4-4.3,7.3-4.3h64.4v14.5
							L29.1-118.2z"/>
						<path id="Path_10464_4_" class="st13" d="M21-132.7c-3.8,0-7.1,1.9-7.1,4.3v5.9c0,2.5,3.3,4.3,7.1,4.3h64.8c1.1,0,2,1,1.9,2.1
							c0,0,0,0.1,0,0.1v0.1c0.1,1.1-0.7,2.1-1.8,2.2c0,0-0.1,0-0.1,0H16.3c-4.2,0-7.8-3.3-7.8-7.1v-9.3c0-3.9,3.6-7.1,7.8-7.1h69.5
							c1.1,0,2,1,1.9,2.1c0,0,0,0.1,0,0.1v0.1c0.1,1.1-0.7,2.1-1.8,2.2c0,0-0.1,0-0.1,0L21-132.7L21-132.7z"/>
						<g>
							<defs>
								<path id="SVGID_17_" d="M29.1-118.2h-7.9c-3.9,0-7.3-1.9-7.3-4.3v-5.9c0-2.5,3.4-4.3,7.3-4.3h64.4v14.5L29.1-118.2z"/>
							</defs>
							<clipPath id="SVGID_18_">
								<use xlink:href="#SVGID_17_"  style="overflow:visible;"/>
							</clipPath>
							<g id="Mask_Group_19_4_" transform="translate(-901.608 1043.113) rotate(-90)" class="st18">
								<g id="Group_6569_4_">
									<g id="Group_6567-2_4_">
										<path id="Path_10466-2_4_" class="st11" d="M1163.4,915.7v72.4"/>
										<path id="Path_10467-2_4_" class="st11" d="M1166,915.7v72.4"/>
									</g>
									<g id="Group_6568-2_4_" transform="translate(6)">
										<path id="Path_10468-2_4_" class="st11" d="M1162.6,915.7v72.4"/>
										<path id="Path_10469-2_4_" class="st11" d="M1165.2,915.7v72.4"/>
										<path id="Path_10470-2_4_" class="st11" d="M1167.8,915.7v72.4"/>
									</g>
								</g>
							</g>
						</g>
						<path id="Path_10465_4_" class="st15" d="M23.5-132.7l-2.6,0c-3.8,0-6.7,1.9-6.7,4.3v5.9c0,2.5,3,4.3,6.8,4.3l2.5,0l0,4.5
							h-7.2c-4.2,0-7.8-3.3-7.8-7.1v-9.4c0-3.9,3.6-7.1,7.8-7.1h7.2L23.5-132.7z"/>
					</g>
				</g>
			</g>
		</g>
		<g id="Repeat_Grid_16_5_" transform="translate(21 9.404)" class="st8">
			<g transform="translate(-1015.763 -901.404)">
				<g id="Group_6566_5_" transform="translate(1589.385 1215.763) rotate(90)">
					<g id="Group_6564_5_" transform="translate(-314.358 518.833)">
						<path id="Path_10460_5_" class="st9" d="M28.9-177.3H21c-3.9,0-6.9,2.2-6.9,4.7v6.1c0,2.5,3,4.6,6.9,4.6h64.8v-15.4H28.9z"/>
						<path id="Path_10461_5_" class="st10" d="M20.8-162.3c-3.8,0-6.7-2.1-6.7-4.5v-5.9c0-2.5,3-4.6,6.7-4.6h64.8
							c1.2,0.1,2.2-0.8,2.3-2v-0.1c-0.1-1.2-1.1-2.1-2.3-2H16.1c-4.2,0-7.4,3.1-7.4,6.9v9.3c0,3.9,3.2,6.9,7.4,6.9h69.5
							c1.2,0.1,2.2-0.8,2.3-1.9c0,0,0,0,0,0v-0.1c-0.1-1.2-1.1-2.1-2.3-2H20.8z"/>
						<g id="Group_6570_5_" transform="translate(-901.404 1043.011) rotate(-90)">
							<g id="Group_6567_5_" transform="translate(1023.459 908.078)">
								<path id="Path_10466_5_" class="st11" d="M184.1,7.6v71.5"/>
								<path id="Path_10467_5_" class="st11" d="M186.7,7.6v71.5"/>
							</g>
							<g id="Group_6568_5_" transform="translate(1029.459 908.078)">
								<path id="Path_10468_5_" class="st11" d="M183.3,7.6v71.5"/>
								<path id="Path_10469_5_" class="st11" d="M185.9,7.6v71.5"/>
								<path id="Path_10470_5_" class="st11" d="M188.5,7.6v71.5"/>
							</g>
						</g>
						<path id="Path_10462_5_" class="st12" d="M23.7-162.3l-2.9-0.1c-3.8,0-6.7-2-6.7-4.4l0-5.9c0-2.5,2.9-4.5,6.7-4.5l2.5-0.1
							l0-4.1l-7.2-0.1c-4.2,0-7.6,3.1-7.6,7v9.3c0,3.9,3.4,7,7.6,7l7.6-0.1V-162.3z"/>
					</g>
					<g id="Group_6565_5_" transform="translate(-314.154 546.271)">
						<path id="Path_10463_5_" class="st9" d="M29.1-166.1h-7.9c-3.9,0-7.3-1.9-7.3-4.3v-5.9c0-2.5,3.4-4.3,7.3-4.3h64.4v14.5
							L29.1-166.1z"/>
						<path id="Path_10464_5_" class="st13" d="M21-180.6c-3.8,0-7.1,1.9-7.1,4.3v5.9c0,2.5,3.3,4.3,7.1,4.3h64.8c1.1,0,2,1,1.9,2.1
							c0,0,0,0.1,0,0.1v0.1c0.1,1.1-0.7,2.1-1.8,2.2c0,0-0.1,0-0.1,0H16.3c-4.2,0-7.8-3.3-7.8-7.1v-9.3c0-3.9,3.6-7.1,7.8-7.1h69.5
							c1.1,0,2,1,1.9,2.1c0,0,0,0.1,0,0.1v0.1c0.1,1.1-0.7,2.1-1.8,2.2c0,0-0.1,0-0.1,0L21-180.6L21-180.6z"/>
						<g>
							<defs>
								<path id="SVGID_19_" d="M29.1-166.1h-7.9c-3.9,0-7.3-1.9-7.3-4.3v-5.9c0-2.5,3.4-4.3,7.3-4.3h64.4v14.5L29.1-166.1z"/>
							</defs>
							<clipPath id="SVGID_20_">
								<use xlink:href="#SVGID_19_"  style="overflow:visible;"/>
							</clipPath>
							<g id="Mask_Group_19_5_" transform="translate(-901.608 1043.113) rotate(-90)" class="st19">
								<g id="Group_6569_5_">
									<g id="Group_6567-2_5_">
										<path id="Path_10466-2_5_" class="st11" d="M1211.3,915.7v72.4"/>
										<path id="Path_10467-2_5_" class="st11" d="M1213.9,915.7v72.4"/>
									</g>
									<g id="Group_6568-2_5_" transform="translate(6)">
										<path id="Path_10468-2_5_" class="st11" d="M1210.5,915.7v72.4"/>
										<path id="Path_10469-2_5_" class="st11" d="M1213.1,915.7v72.4"/>
										<path id="Path_10470-2_5_" class="st11" d="M1215.7,915.7v72.4"/>
									</g>
								</g>
							</g>
						</g>
						<path id="Path_10465_5_" class="st15" d="M23.5-180.6l-2.6,0c-3.8,0-6.7,1.9-6.7,4.3v5.9c0,2.5,3,4.3,6.8,4.3l2.5,0l0,4.5
							h-7.2c-4.2,0-7.8-3.3-7.8-7.1v-9.4c0-3.9,3.6-7.1,7.8-7.1h7.2L23.5-180.6z"/>
					</g>
				</g>
			</g>
		</g>
		<g id="Repeat_Grid_16_6_" transform="translate(21 9.404)" class="st8">
			<g transform="translate(-1015.763 -901.404)">
				<g id="Group_6566_6_" transform="translate(1589.385 1215.763) rotate(90)">
					<g id="Group_6565_6_" transform="translate(-314.154 546.271)">
						<path id="Path_10463_6_" class="st9" d="M29.1-214h-7.9c-3.9,0-7.3-1.9-7.3-4.3v-5.9c0-2.5,3.4-4.3,7.3-4.3h64.4v14.5
							L29.1-214z"/>
						<path id="Path_10464_6_" class="st13" d="M21-228.5c-3.8,0-7.1,1.9-7.1,4.3v5.9c0,2.5,3.3,4.3,7.1,4.3h64.8c1.1,0,2,1,1.9,2.1
							c0,0,0,0.1,0,0.1v0.1c0.1,1.1-0.7,2.1-1.8,2.2c0,0-0.1,0-0.1,0H16.3c-4.2,0-7.8-3.3-7.8-7.1v-9.3c0-3.9,3.6-7.1,7.8-7.1h69.5
							c1.1,0,2,1,1.9,2.1c0,0,0,0.1,0,0.1v0.1c0.1,1.1-0.7,2.1-1.8,2.2c0,0-0.1,0-0.1,0L21-228.5L21-228.5z"/>
						<g>
							<defs>
								<path id="SVGID_21_" d="M29.1-214h-7.9c-3.9,0-7.3-1.9-7.3-4.3v-5.9c0-2.5,3.4-4.3,7.3-4.3h64.4v14.5L29.1-214z"/>
							</defs>
							<clipPath id="SVGID_22_">
								<use xlink:href="#SVGID_21_"  style="overflow:visible;"/>
							</clipPath>
							<g id="Mask_Group_19_6_" transform="translate(-901.608 1043.113) rotate(-90)" class="st20">
								<g id="Group_6569_6_">
									<g id="Group_6567-2_6_">
										<path id="Path_10466-2_6_" class="st11" d="M1259.2,915.7v72.4"/>
										<path id="Path_10467-2_6_" class="st11" d="M1261.8,915.7v72.4"/>
									</g>
									<g id="Group_6568-2_6_" transform="translate(6)">
										<path id="Path_10468-2_6_" class="st11" d="M1258.4,915.7v72.4"/>
										<path id="Path_10469-2_6_" class="st11" d="M1261,915.7v72.4"/>
										<path id="Path_10470-2_6_" class="st11" d="M1263.6,915.7v72.4"/>
									</g>
								</g>
							</g>
						</g>
						<path id="Path_10465_6_" class="st15" d="M23.5-228.5l-2.6,0c-3.8,0-6.7,1.9-6.7,4.3v5.9c0,2.5,3,4.3,6.8,4.3l2.5,0l0,4.5
							h-7.2c-4.2,0-7.8-3.3-7.8-7.1v-9.4c0-3.9,3.6-7.1,7.8-7.1h7.2L23.5-228.5z"/>
					</g>
				</g>
			</g>
		</g>
	</g>
</g>
</svg>
