<?xml version="1.0" encoding="utf-8"?>
<!-- Generator: Adobe Illustrator 24.2.3, SVG Export Plug-In . SVG Version: 6.00 Build 0)  -->
<svg version="1.1" id="Layer_1" xmlns="http://www.w3.org/2000/svg" xmlns:xlink="http://www.w3.org/1999/xlink" x="0px" y="0px"
	 viewBox="0 0 300 507.69" style="enable-background:new 0 0 300 507.69;" xml:space="preserve">
<style type="text/css">
	.st0{fill:#841719;}
	.st1{fill:#B62026;}
	.st2{fill:#CB3131;}
	.st3{fill:#C72128;}
	.st4{opacity:0.5;fill:#B77C6B;}
	.st5{fill:#CC3634;}
	.st6{fill:#A61E22;}
	.st7{fill:#9B1C1F;}
	.st8{fill:#D03232;}
	.st9{fill:#DA3734;}
	.st10{fill:#D63232;}
	.st11{fill:#D43733;}
	.st12{opacity:0.3;fill:#EC8281;}
	.st13{fill:url(#Path_9127_1_);}
	.st14{fill:#0D151E;}
	.st15{fill:url(#Path_9129_1_);}
	.st16{fill:#3976BB;}
	.st17{fill:#00293F;}
	.st18{fill:url(#Path_9133_1_);}
	.st19{fill:url(#Path_9135_1_);}
	.st20{fill:url(#Path_9137_1_);}
	.st21{fill:url(#Path_9139_1_);}
	.st22{fill:url(#Path_9141_1_);}
	.st23{fill:url(#Path_9143_1_);}
	.st24{fill:url(#Path_9145_1_);}
	.st25{fill:url(#Path_9159_1_);}
	.st26{fill:url(#Path_9161_1_);}
	.st27{fill:url(#Path_9163_1_);}
	.st28{fill:url(#Path_9165_1_);}
	.st29{fill:url(#Path_9167_1_);}
	.st30{fill:url(#Path_9169_1_);}
	.st31{fill:url(#Path_9181_1_);}
	.st32{fill:url(#Path_9183_1_);}
	.st33{fill:url(#Path_9185_1_);}
	.st34{fill:url(#Path_9186_1_);}
	.st35{fill:url(#Path_9187_1_);}
	.st36{fill:url(#Path_9188_1_);}
	.st37{fill:url(#Path_9189_1_);}
	.st38{fill:url(#Path_9190_1_);}
	.st39{fill:url(#Path_9191_1_);}
	.st40{fill:url(#Path_9192_1_);}
	.st41{fill:url(#Path_9193_1_);}
	.st42{fill:url(#Path_9194_1_);}
	.st43{fill:url(#Path_9195_1_);}
	.st44{fill:url(#Path_9196_1_);}
	.st45{fill:url(#Path_9197_1_);}
	.st46{fill:url(#Path_9199_1_);}
	.st47{opacity:0.43;fill:url(#Path_9198_1_);enable-background:new    ;}
	.st48{fill:url(#Path_10375_1_);}
	.st49{fill:#424143;}
	.st50{fill:#6E6F72;}
	.st51{fill:#59595C;}
	.st52{fill:url(#Path_9590_1_);}
	.st53{fill:url(#Path_9587_1_);}
	.st54{fill:url(#Path_9588_1_);}
	.st55{fill:url(#Path_9589_1_);}
	.st56{fill:url(#Path_9591_1_);}
	.st57{fill:url(#Path_9592_1_);}
	.st58{fill:url(#Rectangle_24657_1_);}
	.st59{fill:url(#Rectangle_24658_1_);}
</style>
<g id="Group_6182" transform="translate(-302.326 -499.943)">
	<g>
		
			<linearGradient id="Path_9590_1_" gradientUnits="userSpaceOnUse" x1="-1014.0367" y1="1722.5331" x2="-1014.0367" y2="1720.8781" gradientTransform="matrix(129.9623 0 0 -124.0044 132239.7188 214214.8906)">
			<stop  offset="0" style="stop-color:#A6A6A6"/>
			<stop  offset="0.106" style="stop-color:#E3E2E2"/>
			<stop  offset="0.882" style="stop-color:#DCDCDB"/>
			<stop  offset="0.973" style="stop-color:#AEAEAE"/>
			<stop  offset="1" style="stop-color:#E8E7E7"/>
		</linearGradient>
		<path id="Path_9590" class="st52" d="M345.32,608.68l-0.22,181.98c0,0-2.41,24.99,14.62,24.4L551,815.13
			c0,0,7.83,0.93,10.39-16.15l-1.01-190.21L345.32,608.68z"/>
		
			<linearGradient id="Path_9587_1_" gradientUnits="userSpaceOnUse" x1="-997.6445" y1="1724.2692" x2="-996.3555" y2="1724.2692" gradientTransform="matrix(30.66 0 0 -193.955 30892.9922 335093.0938)">
			<stop  offset="0" style="stop-color:#ACACAC"/>
			<stop  offset="0.084" style="stop-color:#C5C4C4"/>
			<stop  offset="0.715" style="stop-color:#E5E5E4"/>
			<stop  offset="1" style="stop-color:#BEBDBD"/>
		</linearGradient>
		<path id="Path_9587" class="st53" d="M335.17,823.99h-22.99c-5.45,0-9.86-4.41-9.85-9.86c0.08-43.28,0.42-217.1,0.91-280.88
			c0.06-8.31-2-30.77,12.8-31.86c6.14-0.45,13.53-0.35,22.35-0.2c5.49,0.09,9.84,4.65,9.68,10.14l-3.05,303.1
			C344.85,819.76,340.49,823.99,335.17,823.99z"/>
		
			<linearGradient id="Path_9588_1_" gradientUnits="userSpaceOnUse" x1="-989.5465" y1="1724.2683" x2="-988.0967" y2="1724.27" gradientTransform="matrix(26.013 0 0 -193.9573 26305.7207 335097.0938)">
			<stop  offset="0" style="stop-color:#ACACAC"/>
			<stop  offset="0.198" style="stop-color:#C2C2C2"/>
			<stop  offset="0.707" style="stop-color:#E5E5E4"/>
			<stop  offset="1" style="stop-color:#CFCFCF"/>
		</linearGradient>
		<path id="Path_9588" class="st54" d="M567.11,823.99h27.14c4.47,0,8.09-3.62,8.08-8.09c-0.07-40.07-0.42-217.97-0.91-282.65
			c-0.06-8.31,2-30.77-12.8-31.86c-5.96-0.44-15.12-0.36-21.68-0.22c-4.4,0.09-7.91,3.68-7.91,8.08v306.66
			C559.03,820.37,562.64,823.99,567.11,823.99z"/>
		
			<linearGradient id="Path_9589_1_" gradientUnits="userSpaceOnUse" x1="-1014.382" y1="1718.1515" x2="-1014.382" y2="1716.0104" gradientTransform="matrix(138.3175 0 0 -69.3779 140761.625 119701.7422)">
			<stop  offset="0" style="stop-color:#DFDFDE"/>
			<stop  offset="0.259" style="stop-color:#FFFFFF"/>
			<stop  offset="0.32" style="stop-color:#D5D5D4"/>
			<stop  offset="0.516" style="stop-color:#E2E2E2"/>
			<stop  offset="0.778" style="stop-color:#BDBCBC"/>
			<stop  offset="1" style="stop-color:#7E7E7E"/>
		</linearGradient>
		<path id="Path_9589" class="st55" d="M345.32,615.37c0,0,3.33-30.21-0.29-36.92c0,0-7.75-19.63-4.65-53.2
			c0,0-3.1-24.79,15.5-25.31l200.87,0.1c0,0,12.81,0.38,13.03,10.94l-0.01,36.55c0,0,2.03,14.4-6.75,25.25
			c-4.63,6.85-5.6,15.54-2.58,23.24c0,0,3.64,6.86,2.08,19.44C562.51,615.45,345.32,613.55,345.32,615.37z"/>
		
			<linearGradient id="Path_9591_1_" gradientUnits="userSpaceOnUse" x1="-1013.5494" y1="1717.3191" x2="-1015.2145" y2="1717.3191" gradientTransform="matrix(138.3175 0 0 -69.3779 140761.625 119701.7422)">
			<stop  offset="0" style="stop-color:#9E9E9E;stop-opacity:0.702"/>
			<stop  offset="0.155" style="stop-color:#BDBCBC;stop-opacity:0"/>
			<stop  offset="0.892" style="stop-color:#AAAAAA;stop-opacity:0.302"/>
			<stop  offset="1" style="stop-color:#7E7E7E;stop-opacity:0.6"/>
		</linearGradient>
		<path id="Path_9591" class="st56" d="M345.32,615.37c0,0,3.33-30.21-0.29-36.92c0,0-7.75-19.63-4.65-53.2
			c0,0-3.1-24.79,15.5-25.31l200.87,0.1c0,0,12.51,0,13.03,10.94l-0.01,36.55c0,0,2.03,14.4-6.75,25.25
			c-4.63,6.85-5.6,15.54-2.58,23.24c0,0,3.64,6.86,2.08,19.44C562.51,615.45,345.32,613.55,345.32,615.37z"/>
		
			<linearGradient id="Path_9592_1_" gradientUnits="userSpaceOnUse" x1="-1013.2092" y1="1721.7118" x2="-1014.8693" y2="1721.7118" gradientTransform="matrix(129.9623 0 0 -124.0044 132239.7188 214214.8906)">
			<stop  offset="0" style="stop-color:#9E9E9E;stop-opacity:0.702"/>
			<stop  offset="0.155" style="stop-color:#BDBCBC;stop-opacity:0"/>
			<stop  offset="0.892" style="stop-color:#AAAAAA;stop-opacity:0.302"/>
			<stop  offset="1" style="stop-color:#7E7E7E;stop-opacity:0.6"/>
		</linearGradient>
		<path id="Path_9592" class="st57" d="M345.32,614.98L345.1,791.4c0,0-2.4,24.23,14.58,23.65l190.7,0.07c0,0,7.8,0.91,10.35-15.66
			l-1.01-184.41L345.32,614.98z"/>
	</g>
	<g>
		
			<linearGradient id="Rectangle_24657_1_" gradientUnits="userSpaceOnUse" x1="-1014.5815" y1="1719.0435" x2="-1014.5815" y2="1717.3519" gradientTransform="matrix(143.318 0 0 -90.582 145859.2188 156571.2188)">
			<stop  offset="0" style="stop-color:#A6A6A6"/>
			<stop  offset="0.106" style="stop-color:#EEEEEE"/>
			<stop  offset="0.868" style="stop-color:#F4F5F5"/>
			<stop  offset="0.973" style="stop-color:#AEAEAE"/>
			<stop  offset="1" style="stop-color:#E8E7E7"/>
		</linearGradient>
		<path id="Rectangle_24657" class="st58" d="M347.62,856.82h207.65c8.56,0,15.5,6.94,15.5,15.49v119.83
			c0,8.56-6.94,15.49-15.5,15.49H347.62c-8.56,0-15.5-6.94-15.5-15.49V872.31C332.12,863.76,339.06,856.82,347.62,856.82z"/>
		
			<linearGradient id="Rectangle_24658_1_" gradientUnits="userSpaceOnUse" x1="-1013.7489" y1="1718.2111" x2="-1015.4141" y2="1718.2111" gradientTransform="matrix(143.318 0 0 -90.582 145859.2188 156571.2188)">
			<stop  offset="0" style="stop-color:#9E9E9E;stop-opacity:0.702"/>
			<stop  offset="0.082" style="stop-color:#BDBCBC;stop-opacity:0"/>
			<stop  offset="0.941" style="stop-color:#AAAAAA;stop-opacity:0.302"/>
			<stop  offset="1" style="stop-color:#7E7E7E;stop-opacity:0.6"/>
		</linearGradient>
		<path id="Rectangle_24658" class="st59" d="M347.62,856.82h207.65c8.56,0,15.5,6.94,15.5,15.49v119.82
			c0,8.56-6.94,15.49-15.5,15.49H347.62c-8.56,0-15.5-6.94-15.5-15.49V872.32C332.12,863.76,339.06,856.82,347.62,856.82z"/>
	</g>
</g>
</svg>
