<?xml version="1.0" encoding="utf-8"?>
<!-- Generator: Adobe Illustrator 24.2.3, SVG Export Plug-In . SVG Version: 6.00 Build 0)  -->
<svg version="1.1" id="Layer_1" xmlns="http://www.w3.org/2000/svg" xmlns:xlink="http://www.w3.org/1999/xlink" x="0px" y="0px"
	 viewBox="0 0 300 178.38" style="enable-background:new 0 0 300 178.38;" xml:space="preserve">
<style type="text/css">
	.st0{fill:#BCBDBF;}
	.st1{fill:#808184;}
	.st2{fill:#59595C;}
	.st3{fill:#6E6F72;}
	.st4{fill:#E4F4FC;}
	.st5{fill:#FFFFFF;}
	.st6{fill:#929497;}
	.st7{clip-path:url(#SVGID_2_);}
	.st8{clip-path:url(#SVGID_4_);}
	.st9{fill:#BF4647;}
	.st10{fill:#B04343;}
	.st11{fill:#FAAF41;}
	.st12{fill:#6B471E;}
	.st13{fill:#A87C50;}
	.st14{fill:#DAB996;}
</style>
<path id="Path_9840" class="st0" d="M87.58,118.69H40.01l-2.04,3.68v46.47h5.35l1.76-3.76v5.78h-2.15v7.52h46.81v-7.52h-2.16v-5.89
	l1.81,3.88h5.35v-46.48l-2.04-3.68L87.58,118.69L87.58,118.69z M72.32,170.86h-2.9v-6.09h2.9V170.86z M63.24,164.77v6.09h-2.9v-6.09
	H63.24z M51.26,164.77h2.9v6.09h-2.9V164.77z M78.5,170.86v-6.09h2.89v6.09H78.5z"/>
<path id="Path_9875" class="st0" d="M87.58,59.68H40.01L37.97,56V9.53h5.35l1.76,3.76V7.51h-2.15v-7.52h46.81v7.52h-2.16v5.89
	l1.81-3.88h5.35V56l-2.04,3.68H87.58z M72.32,7.52h-2.9v6.09h2.9V7.52z M63.24,13.61V7.52h-2.9v6.09H63.24z M51.26,13.61h2.9V7.52
	h-2.9V13.61z M78.5,7.52v6.09h2.89V7.52C81.39,7.52,78.5,7.52,78.5,7.52z"/>
<g id="Group_6251" transform="translate(568.657 220.944)">
	<g id="Group_6246-2">
		<path id="Path_9842" class="st1" d="M-536.74-102.52l2.04-3.68h5.35l-2.04,3.68H-536.74z"/>
		<path id="Path_9843" class="st2" d="M-531.39-102.52v46.48l1.81-3.88v-45.97L-531.39-102.52z"/>
		<rect id="Rectangle_24708" x="-536.74" y="-102.52" class="st3" width="5.35" height="46.48"/>
	</g>
	<g id="Group_6247" transform="translate(8.208)">
		<rect id="Rectangle_24709" x="-537.84" y="-66.83" class="st2" width="42.5" height="6.7"/>
		<rect id="Rectangle_24710" x="-537.84" y="-86.51" class="st2" width="42.5" height="6.7"/>
		<rect id="Rectangle_24711" x="-537.84" y="-76.68" class="st2" width="42.5" height="6.7"/>
		<rect id="Rectangle_24712" x="-537.84" y="-96.36" class="st2" width="42.5" height="6.71"/>
		<rect id="Rectangle_24713" x="-537.84" y="-106.2" class="st2" width="42.5" height="6.7"/>
	</g>
	<g id="Group_6248" transform="translate(8.208)">
		<rect id="Rectangle_24714" x="-537.84" y="-106.2" class="st3" width="6.18" height="46.07"/>
		<rect id="Rectangle_24715" x="-519.68" y="-106.2" class="st3" width="6.18" height="46.07"/>
		<rect id="Rectangle_24716" x="-528.75" y="-106.2" class="st3" width="6.18" height="46.07"/>
		<rect id="Rectangle_24717" x="-510.6" y="-106.2" class="st3" width="6.18" height="46.07"/>
		<rect id="Rectangle_24718" x="-501.53" y="-106.2" class="st3" width="6.19" height="46.07"/>
	</g>
	<g id="Group_6249" transform="translate(8.208 54.243)">
		<rect id="Rectangle_24719" x="-537.84" y="-114.37" class="st2" width="6.18" height="8.38"/>
		<rect id="Rectangle_24720" x="-519.68" y="-114.37" class="st2" width="6.18" height="8.38"/>
		<rect id="Rectangle_24721" x="-528.75" y="-114.37" class="st2" width="6.18" height="8.38"/>
		<rect id="Rectangle_24722" x="-510.6" y="-114.37" class="st2" width="6.18" height="8.38"/>
		<rect id="Rectangle_24723" x="-501.53" y="-114.37" class="st2" width="6.19" height="8.38"/>
	</g>
	<path id="Path_9844" class="st4" d="M-490.02-72.85c0,5.37-3.99,9.72-8.91,9.72h-18.89c-4.92,0-8.92-4.35-8.92-9.72v-20.62
		c0-5.37,3.99-9.72,8.92-9.72h18.89c4.92,0,8.91,4.35,8.91,9.72V-72.85z"/>
	<path id="Path_9845" class="st5" d="M-492.17-73.69c0,4.93-3.52,8.93-7.87,8.93h-16.69c-4.35,0-7.87-4-7.87-8.93v-18.94
		c0-4.93,3.53-8.93,7.87-8.93h16.69c4.35,0,7.87,3.99,7.87,8.93V-73.69z"/>
	<g id="Group_6250" transform="translate(56.992)">
		<path id="Path_9846" class="st1" d="M-536.96-102.52l-2.04-3.68h-5.35l2.04,3.68H-536.96z"/>
		<path id="Path_9847" class="st2" d="M-542.31-102.52v46.48l-1.81-3.88v-45.97L-542.31-102.52z"/>
		<rect id="Rectangle_24724" x="-542.31" y="-102.52" class="st3" width="5.35" height="46.48"/>
	</g>
	<rect id="Rectangle_24725" x="-531.78" y="-51.75" class="st3" width="46.81" height="5.24"/>
	<rect id="Rectangle_24726" x="-531.78" y="-54.03" class="st2" width="46.81" height="2.28"/>
</g>
<g id="Group_6280" transform="translate(568.657 74.506)">
	<g id="Group_6246-3" transform="translate(0 11.22)">
		<path id="Path_9842-2" class="st1" d="M-536.74-25.77l2.04,3.68h5.35l-2.04-3.68H-536.74z"/>
		<path id="Path_9843-2" class="st2" d="M-531.39-25.77v-46.48l1.81,3.88v45.97L-531.39-25.77z"/>
		<rect id="Rectangle_24708-2" x="-536.74" y="-72.25" class="st3" width="5.35" height="46.48"/>
	</g>
	<g id="Group_6247-2" transform="translate(8.208 16.023)">
		<rect id="Rectangle_24709-2" x="-537.84" y="-72.97" class="st2" width="42.5" height="6.7"/>
		<rect id="Rectangle_24710-2" x="-537.84" y="-53.28" class="st2" width="42.5" height="6.7"/>
		<rect id="Rectangle_24711-2" x="-537.84" y="-63.12" class="st2" width="42.5" height="6.7"/>
		<rect id="Rectangle_24712-2" x="-537.84" y="-43.44" class="st2" width="42.5" height="6.71"/>
		<rect id="Rectangle_24713-2" x="-537.84" y="-33.6" class="st2" width="42.5" height="6.7"/>
	</g>
	<g id="Group_6248-2" transform="translate(8.208 16.023)">
		<rect id="Rectangle_24714-2" x="-537.84" y="-72.97" class="st3" width="6.18" height="46.08"/>
		<rect id="Rectangle_24715-2" x="-519.68" y="-72.97" class="st3" width="6.18" height="46.08"/>
		<rect id="Rectangle_24716-2" x="-528.75" y="-72.97" class="st3" width="6.18" height="46.08"/>
		<rect id="Rectangle_24717-2" x="-510.6" y="-72.97" class="st3" width="6.18" height="46.08"/>
		<rect id="Rectangle_24718-2" x="-501.53" y="-72.97" class="st3" width="6.19" height="46.08"/>
	</g>
	<g id="Group_6249-2" transform="translate(8.208 6.161)">
		<rect id="Rectangle_24719-2" x="-537.84" y="-71.49" class="st2" width="6.18" height="8.38"/>
		<rect id="Rectangle_24720-2" x="-519.68" y="-71.49" class="st2" width="6.18" height="8.38"/>
		<rect id="Rectangle_24721-2" x="-528.75" y="-71.49" class="st2" width="6.18" height="8.38"/>
		<rect id="Rectangle_24722-2" x="-510.6" y="-71.49" class="st2" width="6.18" height="8.38"/>
		<rect id="Rectangle_24723-2" x="-501.53" y="-71.49" class="st2" width="6.19" height="8.38"/>
	</g>
	<path id="Path_9844-2" class="st4" d="M-490.02-44.22c0-5.37-3.99-9.72-8.91-9.72h-18.89c-4.92,0-8.92,4.35-8.92,9.72v20.61
		c0,5.37,3.99,9.72,8.92,9.72h18.89c4.92,0,8.91-4.35,8.91-9.72V-44.22z"/>
	<path id="Path_9845-2" class="st5" d="M-492.17-43.38c0-4.93-3.52-8.93-7.87-8.93h-16.69c-4.35,0-7.87,4-7.87,8.93v18.94
		c0,4.93,3.53,8.93,7.87,8.93h16.69c4.35,0,7.87-3.99,7.87-8.93V-43.38z"/>
	<g id="Group_6250-2" transform="translate(56.993 11.22)">
		<path id="Path_9846-2" class="st1" d="M-536.96-25.77l-2.04,3.68h-5.35l2.04-3.68H-536.96z"/>
		<path id="Path_9847-2" class="st2" d="M-542.31-25.77v-46.48l-1.81,3.88v45.97L-542.31-25.77z"/>
		<rect id="Rectangle_24724-2" x="-542.31" y="-72.25" class="st3" width="5.35" height="46.48"/>
	</g>
	<rect id="Rectangle_24725-2" x="-531.78" y="-70.56" class="st3" width="46.81" height="5.24"/>
	<rect id="Rectangle_24726-2" x="-531.78" y="-65.32" class="st2" width="46.81" height="2.28"/>
</g>
<g>
	<path id="Path_9841" class="st0" d="M177.15,168.84h5.35v-46.47l-2.04-3.68h-52.7l-2.03,3.68v46.47h5.35l1.76-3.76v5.77h-2.16v7.52
		h46.81v-7.52h-2.15v-5.89L177.15,168.84z M160.07,170.86h-2.9v-6.09h2.9V170.86z M150.99,164.77v6.09h-2.9v-6.09H150.99z
		 M139.02,164.77h2.9v6.09h-2.9V164.77z M166.26,170.86v-6.09h2.89v6.09H166.26z"/>
	<g id="Group_6257" transform="translate(668.318 220.944)">
		<g id="Group_6252">
			<path id="Path_9848" class="st6" d="M-548.64-102.52l2.03-3.68h5.35l-2.04,3.68H-548.64z"/>
			<path id="Path_9849" class="st2" d="M-543.29-102.52v46.48l1.81-3.88v-45.97L-543.29-102.52z"/>
			<rect id="Rectangle_24727" x="-548.64" y="-102.52" class="st3" width="5.35" height="46.48"/>
		</g>
		<g id="Group_6253" transform="translate(8.205)">
			<rect id="Rectangle_24728" x="-549.74" y="-66.83" class="st2" width="42.5" height="6.7"/>
			<rect id="Rectangle_24729" x="-549.74" y="-86.51" class="st2" width="42.5" height="6.7"/>
			<rect id="Rectangle_24730" x="-549.74" y="-76.68" class="st2" width="42.5" height="6.7"/>
			<rect id="Rectangle_24731" x="-549.74" y="-96.36" class="st2" width="42.5" height="6.71"/>
			<rect id="Rectangle_24732" x="-549.74" y="-106.2" class="st2" width="42.5" height="6.7"/>
		</g>
		<g id="Group_6254" transform="translate(8.205)">
			<rect id="Rectangle_24733" x="-549.74" y="-106.2" class="st3" width="6.18" height="46.07"/>
			<rect id="Rectangle_24734" x="-531.58" y="-106.2" class="st3" width="6.18" height="46.07"/>
			<rect id="Rectangle_24735" x="-540.66" y="-106.2" class="st3" width="6.18" height="46.07"/>
			<rect id="Rectangle_24736" x="-522.51" y="-106.2" class="st3" width="6.19" height="46.07"/>
			<rect id="Rectangle_24737" x="-513.43" y="-106.2" class="st3" width="6.19" height="46.07"/>
		</g>
		<g id="Group_6255" transform="translate(8.205 54.243)">
			<rect id="Rectangle_24738" x="-549.74" y="-114.37" class="st2" width="6.18" height="8.38"/>
			<rect id="Rectangle_24739" x="-531.58" y="-114.37" class="st2" width="6.18" height="8.38"/>
			<rect id="Rectangle_24740" x="-540.66" y="-114.37" class="st2" width="6.18" height="8.38"/>
			<rect id="Rectangle_24741" x="-522.51" y="-114.37" class="st2" width="6.19" height="8.38"/>
			<rect id="Rectangle_24742" x="-513.43" y="-114.37" class="st2" width="6.19" height="8.38"/>
		</g>
		<path id="Path_9850" class="st4" d="M-501.93-72.85c0,5.37-3.99,9.72-8.92,9.72h-18.88c-4.92,0-8.91-4.35-8.91-9.72v-20.62
			c0-5.37,3.99-9.72,8.91-9.72h18.89c4.92,0,8.92,4.35,8.92,9.72L-501.93-72.85L-501.93-72.85z"/>
		<path id="Path_9851" class="st5" d="M-504.08-73.69c0,4.93-3.52,8.93-7.87,8.93h-16.68c-4.35,0-7.87-4-7.87-8.93v-18.94
			c0-4.93,3.52-8.93,7.87-8.93h16.69c4.35,0,7.87,3.99,7.87,8.93L-504.08-73.69z"/>
		<g id="Group_6256" transform="translate(56.995)">
			<path id="Path_9852" class="st6" d="M-548.86-102.52l-2.04-3.68h-5.36l2.04,3.68H-548.86z"/>
			<path id="Path_9853" class="st2" d="M-554.22-102.52v46.48l-1.81-3.88v-45.97L-554.22-102.52z"/>
			<rect id="Rectangle_24743" x="-554.22" y="-102.52" class="st3" width="5.35" height="46.48"/>
		</g>
		<rect id="Rectangle_24744" x="-543.69" y="-51.75" class="st3" width="46.81" height="5.24"/>
		<rect id="Rectangle_24745" x="-543.69" y="-54.03" class="st2" width="46.81" height="2.28"/>
	</g>
</g>
<g>
	<path id="Path_9876" class="st0" d="M177.15,9.53h5.35v46.48l-2.04,3.68h-52.7l-2.03-3.68V9.53h5.35l1.76,3.76V7.52h-2.16V0h46.81
		v7.52h-2.15v5.89L177.15,9.53z M160.07,7.52h-2.9v6.09h2.9V7.52z M150.99,13.61V7.52h-2.9v6.09H150.99z M139.02,13.61h2.9V7.52
		h-2.9V13.61z M166.26,7.52v6.09h2.89V7.52C169.15,7.52,166.26,7.52,166.26,7.52z"/>
	<g id="Group_6281" transform="translate(668.319 74.506)">
		<g id="Group_6252-2" transform="translate(0 11.22)">
			<path id="Path_9848-2" class="st6" d="M-548.64-25.77l2.03,3.68h5.35l-2.04-3.68H-548.64z"/>
			<path id="Path_9849-2" class="st2" d="M-543.29-25.77v-46.48l1.81,3.88v45.97L-543.29-25.77z"/>
			<rect id="Rectangle_24727-2" x="-548.64" y="-72.25" class="st3" width="5.35" height="46.48"/>
		</g>
		<g id="Group_6253-2" transform="translate(8.205 16.023)">
			<rect id="Rectangle_24728-2" x="-549.74" y="-72.97" class="st2" width="42.5" height="6.7"/>
			<rect id="Rectangle_24729-2" x="-549.74" y="-53.28" class="st2" width="42.5" height="6.7"/>
			<rect id="Rectangle_24730-2" x="-549.74" y="-63.12" class="st2" width="42.5" height="6.7"/>
			<rect id="Rectangle_24731-2" x="-549.74" y="-43.44" class="st2" width="42.5" height="6.71"/>
			<rect id="Rectangle_24732-2" x="-549.74" y="-33.6" class="st2" width="42.5" height="6.7"/>
		</g>
		<g id="Group_6254-2" transform="translate(8.205 16.023)">
			<rect id="Rectangle_24733-2" x="-549.74" y="-72.97" class="st3" width="6.18" height="46.08"/>
			<rect id="Rectangle_24734-2" x="-531.58" y="-72.97" class="st3" width="6.18" height="46.08"/>
			<rect id="Rectangle_24735-2" x="-540.66" y="-72.97" class="st3" width="6.18" height="46.08"/>
			<rect id="Rectangle_24736-2" x="-522.51" y="-72.97" class="st3" width="6.19" height="46.08"/>
			<rect id="Rectangle_24737-2" x="-513.43" y="-72.97" class="st3" width="6.19" height="46.08"/>
		</g>
		<g id="Group_6255-2" transform="translate(8.205 6.161)">
			<rect id="Rectangle_24738-2" x="-549.74" y="-71.49" class="st2" width="6.18" height="8.38"/>
			<rect id="Rectangle_24739-2" x="-531.58" y="-71.49" class="st2" width="6.18" height="8.38"/>
			<rect id="Rectangle_24740-2" x="-540.66" y="-71.49" class="st2" width="6.18" height="8.38"/>
			<rect id="Rectangle_24741-2" x="-522.51" y="-71.49" class="st2" width="6.19" height="8.38"/>
			<rect id="Rectangle_24742-2" x="-513.43" y="-71.49" class="st2" width="6.19" height="8.38"/>
		</g>
		<path id="Path_9850-2" class="st4" d="M-501.93-44.22c0-5.37-3.99-9.72-8.92-9.72h-18.88c-4.92,0-8.91,4.35-8.91,9.72v20.61
			c0,5.37,3.99,9.72,8.91,9.72h18.89c4.92,0,8.92-4.35,8.92-9.72v-20.61H-501.93z"/>
		<path id="Path_9851-2" class="st5" d="M-504.07-43.38c0-4.93-3.52-8.93-7.87-8.93h-16.69c-4.35,0-7.87,4-7.87,8.93v18.94
			c0,4.93,3.52,8.93,7.87,8.93h16.69c4.35,0,7.87-3.99,7.87-8.93V-43.38z"/>
		<g id="Group_6256-2" transform="translate(56.995 11.22)">
			<path id="Path_9852-2" class="st6" d="M-548.86-25.77l-2.04,3.68h-5.36l2.04-3.68H-548.86z"/>
			<path id="Path_9853-2" class="st2" d="M-554.22-25.77v-46.48l-1.81,3.88v45.97L-554.22-25.77z"/>
			<rect id="Rectangle_24743-2" x="-554.22" y="-72.25" class="st3" width="5.35" height="46.48"/>
		</g>
		<rect id="Rectangle_24744-2" x="-543.69" y="-70.56" class="st3" width="46.81" height="5.24"/>
		<rect id="Rectangle_24745-2" x="-543.69" y="-65.32" class="st2" width="46.81" height="2.28"/>
	</g>
</g>
<g>
	<path id="Path_9841_1_" class="st0" d="M267.93,168.84h5.35v-46.47l-2.04-3.68h-52.7l-2.03,3.68v46.47h5.35l1.76-3.76v5.77h-2.16
		v7.52h46.81v-7.52h-2.15v-5.89L267.93,168.84z M250.85,170.86h-2.9v-6.09h2.9V170.86z M241.78,164.77v6.09h-2.9v-6.09H241.78z
		 M229.8,164.77h2.9v6.09h-2.9V164.77z M257.04,170.86v-6.09h2.89v6.09H257.04z"/>
	<g id="Group_6257_1_" transform="translate(668.318 220.944)">
		<g id="Group_6252_1_">
			<path id="Path_9848_1_" class="st6" d="M-457.86-102.52l2.03-3.68h5.35l-2.04,3.68H-457.86z"/>
			<path id="Path_9849_1_" class="st2" d="M-452.51-102.52v46.48l1.81-3.88v-45.97L-452.51-102.52z"/>
			<rect id="Rectangle_24727_1_" x="-457.86" y="-102.52" class="st3" width="5.35" height="46.48"/>
		</g>
		<g id="Group_6253_1_" transform="translate(8.205)">
			<rect id="Rectangle_24728_1_" x="-458.96" y="-66.83" class="st2" width="42.5" height="6.7"/>
			<rect id="Rectangle_24729_1_" x="-458.96" y="-86.51" class="st2" width="42.5" height="6.7"/>
			<rect id="Rectangle_24730_1_" x="-458.96" y="-76.68" class="st2" width="42.5" height="6.7"/>
			<rect id="Rectangle_24731_1_" x="-458.96" y="-96.36" class="st2" width="42.5" height="6.71"/>
			<rect id="Rectangle_24732_1_" x="-458.96" y="-106.2" class="st2" width="42.5" height="6.7"/>
		</g>
		<g id="Group_6254_1_" transform="translate(8.205)">
			<rect id="Rectangle_24733_1_" x="-458.96" y="-106.2" class="st3" width="6.18" height="46.07"/>
			<rect id="Rectangle_24734_1_" x="-440.8" y="-106.2" class="st3" width="6.18" height="46.07"/>
			<rect id="Rectangle_24735_1_" x="-449.88" y="-106.2" class="st3" width="6.18" height="46.07"/>
			<rect id="Rectangle_24736_1_" x="-431.72" y="-106.2" class="st3" width="6.19" height="46.07"/>
			<rect id="Rectangle_24737_1_" x="-422.65" y="-106.2" class="st3" width="6.19" height="46.07"/>
		</g>
		<g id="Group_6255_1_" transform="translate(8.205 54.243)">
			<rect id="Rectangle_24738_1_" x="-458.96" y="-114.37" class="st2" width="6.18" height="8.38"/>
			<rect id="Rectangle_24739_1_" x="-440.8" y="-114.37" class="st2" width="6.18" height="8.38"/>
			<rect id="Rectangle_24740_1_" x="-449.88" y="-114.37" class="st2" width="6.18" height="8.38"/>
			<rect id="Rectangle_24741_1_" x="-431.72" y="-114.37" class="st2" width="6.19" height="8.38"/>
			<rect id="Rectangle_24742_1_" x="-422.65" y="-114.37" class="st2" width="6.19" height="8.38"/>
		</g>
		<path id="Path_9850_1_" class="st4" d="M-411.15-72.85c0,5.37-3.99,9.72-8.92,9.72h-18.88c-4.92,0-8.91-4.35-8.91-9.72v-20.62
			c0-5.37,3.99-9.72,8.91-9.72h18.89c4.92,0,8.92,4.35,8.92,9.72v20.62H-411.15z"/>
		<path id="Path_9851_1_" class="st5" d="M-413.29-73.69c0,4.93-3.52,8.93-7.87,8.93h-16.69c-4.35,0-7.87-4-7.87-8.93v-18.94
			c0-4.93,3.52-8.93,7.87-8.93h16.69c4.35,0,7.87,3.99,7.87,8.93V-73.69z"/>
		<g id="Group_6256_1_" transform="translate(56.995)">
			<path id="Path_9852_1_" class="st6" d="M-458.08-102.52l-2.04-3.68h-5.36l2.04,3.68H-458.08z"/>
			<path id="Path_9853_1_" class="st2" d="M-463.43-102.52v46.48l-1.81-3.88v-45.97L-463.43-102.52z"/>
			<rect id="Rectangle_24743_1_" x="-463.43" y="-102.52" class="st3" width="5.35" height="46.48"/>
		</g>
		<rect id="Rectangle_24744_1_" x="-452.91" y="-51.75" class="st3" width="46.81" height="5.24"/>
		<rect id="Rectangle_24745_1_" x="-452.91" y="-54.03" class="st2" width="46.81" height="2.28"/>
	</g>
</g>
<g>
	<path id="Path_9876_1_" class="st0" d="M267.93,9.53h5.35v46.48l-2.04,3.68h-52.7l-2.03-3.68V9.53h5.35l1.76,3.76V7.52h-2.16V0
		h46.81v7.52h-2.15v5.89L267.93,9.53z M250.85,7.52h-2.9v6.09h2.9V7.52z M241.78,13.61V7.52h-2.9v6.09H241.78z M229.8,13.61h2.9
		V7.52h-2.9V13.61z M257.04,7.52v6.09h2.89V7.52C259.93,7.52,257.04,7.52,257.04,7.52z"/>
	<g id="Group_6281_1_" transform="translate(668.319 74.506)">
		<g id="Group_6252-2_1_" transform="translate(0 11.22)">
			<path id="Path_9848-2_1_" class="st6" d="M-457.86-25.77l2.03,3.68h5.35l-2.04-3.68H-457.86z"/>
			<path id="Path_9849-2_1_" class="st2" d="M-452.51-25.77v-46.48l1.81,3.88v45.97L-452.51-25.77z"/>
			<rect id="Rectangle_24727-2_1_" x="-457.86" y="-72.25" class="st3" width="5.35" height="46.48"/>
		</g>
		<g id="Group_6253-2_1_" transform="translate(8.205 16.023)">
			<rect id="Rectangle_24728-2_1_" x="-458.96" y="-72.97" class="st2" width="42.5" height="6.7"/>
			<rect id="Rectangle_24729-2_1_" x="-458.96" y="-53.28" class="st2" width="42.5" height="6.7"/>
			<rect id="Rectangle_24730-2_1_" x="-458.96" y="-63.12" class="st2" width="42.5" height="6.7"/>
			<rect id="Rectangle_24731-2_1_" x="-458.96" y="-43.44" class="st2" width="42.5" height="6.71"/>
			<rect id="Rectangle_24732-2_1_" x="-458.96" y="-33.6" class="st2" width="42.5" height="6.7"/>
		</g>
		<g id="Group_6254-2_1_" transform="translate(8.205 16.023)">
			<rect id="Rectangle_24733-2_1_" x="-458.96" y="-72.97" class="st3" width="6.18" height="46.08"/>
			<rect id="Rectangle_24734-2_1_" x="-440.8" y="-72.97" class="st3" width="6.18" height="46.08"/>
			<rect id="Rectangle_24735-2_1_" x="-449.88" y="-72.97" class="st3" width="6.18" height="46.08"/>
			<rect id="Rectangle_24736-2_1_" x="-431.72" y="-72.97" class="st3" width="6.19" height="46.08"/>
			<rect id="Rectangle_24737-2_1_" x="-422.65" y="-72.97" class="st3" width="6.19" height="46.08"/>
		</g>
		<g id="Group_6255-2_1_" transform="translate(8.205 6.161)">
			<rect id="Rectangle_24738-2_1_" x="-458.96" y="-71.49" class="st2" width="6.18" height="8.38"/>
			<rect id="Rectangle_24739-2_1_" x="-440.8" y="-71.49" class="st2" width="6.18" height="8.38"/>
			<rect id="Rectangle_24740-2_1_" x="-449.88" y="-71.49" class="st2" width="6.18" height="8.38"/>
			<rect id="Rectangle_24741-2_1_" x="-431.72" y="-71.49" class="st2" width="6.19" height="8.38"/>
			<rect id="Rectangle_24742-2_1_" x="-422.65" y="-71.49" class="st2" width="6.19" height="8.38"/>
		</g>
		<path id="Path_9850-2_1_" class="st4" d="M-411.15-44.22c0-5.37-3.99-9.72-8.92-9.72h-18.88c-4.92,0-8.91,4.35-8.91,9.72v20.61
			c0,5.37,3.99,9.72,8.91,9.72h18.89c4.92,0,8.92-4.35,8.92-9.72v-20.61H-411.15z"/>
		<path id="Path_9851-2_1_" class="st5" d="M-413.29-43.38c0-4.93-3.52-8.93-7.87-8.93h-16.69c-4.35,0-7.87,4-7.87,8.93v18.94
			c0,4.93,3.52,8.93,7.87,8.93h16.69c4.35,0,7.87-3.99,7.87-8.93V-43.38z"/>
		<g id="Group_6256-2_1_" transform="translate(56.995 11.22)">
			<path id="Path_9852-2_1_" class="st6" d="M-458.08-25.77l-2.04,3.68h-5.36l2.04-3.68H-458.08z"/>
			<path id="Path_9853-2_1_" class="st2" d="M-463.44-25.77v-46.48l-1.81,3.88v45.97L-463.44-25.77z"/>
			<rect id="Rectangle_24743-2_1_" x="-463.44" y="-72.25" class="st3" width="5.35" height="46.48"/>
		</g>
		<rect id="Rectangle_24744-2_1_" x="-452.91" y="-70.56" class="st3" width="46.81" height="5.24"/>
		<rect id="Rectangle_24745-2_1_" x="-452.91" y="-65.32" class="st2" width="46.81" height="2.28"/>
	</g>
</g>
<path id="Rectangle_24746" class="st0" d="M22.69,31.37h258.64c10.31,0,18.66,8.19,18.66,18.29v84.66c0,10.1-8.35,18.29-18.66,18.29
	H22.69c-10.31,0-18.66-8.19-18.66-18.29V49.66C4.03,39.56,12.39,31.37,22.69,31.37L22.69,31.37z"/>
<path id="Rectangle_24747" class="st5" d="M18.66,25.44H277.3c10.31,0,18.66,8.19,18.66,18.29v84.66c0,10.1-8.35,18.29-18.66,18.29
	H18.66C8.36,146.68,0,138.49,0,128.39V43.73C0,33.63,8.35,25.44,18.66,25.44L18.66,25.44z"/>
<g>
	<defs>
		<path id="SVGID_1_" d="M18.66,25.44H277.3c10.31,0,18.66,8.19,18.66,18.29v84.66c0,10.1-8.35,18.29-18.66,18.29H18.66
			C8.36,146.68,0,138.49,0,128.39V43.73C0,33.63,8.35,25.44,18.66,25.44L18.66,25.44z"/>
	</defs>
	<clipPath id="SVGID_2_">
		<use xlink:href="#SVGID_1_"  style="overflow:visible;"/>
	</clipPath>
	<g id="Group_6260" class="st7">
		<g id="Group_6259" transform="translate(-107.325 -11.657)">
			<path id="Path_9877" class="st4" d="M3.05,29.62l3.48-3.41L153.08,169.6l-3.48,3.41L3.05,29.62z"/>
			<path id="Path_9878" class="st4" d="M21,29.62l3.48-3.41L171.03,169.6l-3.48,3.41L21,29.62z"/>
			<path id="Path_9879" class="st4" d="M38.97,29.6l3.48-3.41l146.53,143.37l-3.48,3.41L38.97,29.6z"/>
			<path id="Path_9880" class="st4" d="M56.91,29.6l3.48-3.41L206.9,169.62l-3.48,3.41L56.91,29.6z"/>
			<path id="Path_9881" class="st4" d="M74.84,29.62l3.48-3.41L224.87,169.6l-3.48,3.41L74.84,29.62z"/>
			<path id="Path_9882" class="st4" d="M92.78,29.62l3.48-3.41L242.81,169.6l-3.48,3.41L92.78,29.62z"/>
			<path id="Path_9883" class="st4" d="M110.73,29.62l3.48-3.41L260.76,169.6l-3.48,3.41L110.73,29.62z"/>
			<path id="Path_9884" class="st4" d="M128.7,29.6l3.48-3.41L278.7,169.57l-3.48,3.41L128.7,29.6z"/>
			<path id="Path_9885" class="st4" d="M146.64,29.6l3.48-3.41l146.51,143.43l-3.48,3.41L146.64,29.6z"/>
			<path id="Path_9886" class="st4" d="M164.59,29.6l3.48-3.41l146.51,143.43l-3.48,3.41L164.59,29.6z"/>
			<path id="Path_9887" class="st4" d="M182.51,29.62l3.48-3.41l146.52,143.37l-3.48,3.41L182.51,29.62z"/>
			<path id="Path_9888" class="st4" d="M200.46,29.62l3.48-3.41l123.32,120.66l-3.48,3.41L200.46,29.62z"/>
			<path id="Path_9889" class="st4" d="M218.41,29.61l3.48-3.41l108.54,106.2l-3.48,3.41L218.41,29.61z"/>
			<path id="Path_9890" class="st4" d="M236.37,29.61l3.48-3.41l89.46,87.54l-3.48,3.41L236.37,29.61z"/>
			<path id="Path_9891" class="st4" d="M254.3,29.62l3.48-3.41l75.01,73.4l-3.48,3.41L254.3,29.62z"/>
			<path id="Path_9892" class="st4" d="M254.29,169.6l75.96-74.32l3.48,3.41l-75.96,74.32L254.29,169.6z"/>
			<path id="Path_9893" class="st4" d="M236.33,169.59l90.95-88.94l3.48,3.41L239.81,173L236.33,169.59z"/>
			<path id="Path_9894" class="st4" d="M218.42,169.62L327.51,62.88l3.48,3.41L221.9,173.03L218.42,169.62z"/>
			<path id="Path_9895" class="st4" d="M200.47,169.62l126-123.28l3.48,3.41l-126,123.28L200.47,169.62z"/>
			<path id="Path_9896" class="st4" d="M182.53,169.62L329.05,26.25l3.48,3.41L186.01,173.03L182.53,169.62z"/>
			<path id="Path_9897" class="st4" d="M164.56,169.6L311.12,26.22l3.48,3.41L168.04,173.01L164.56,169.6z"/>
			<path id="Path_9898" class="st4" d="M146.62,169.6L293.17,26.22l3.48,3.41L150.1,173.01L146.62,169.6z"/>
			<path id="Path_9899" class="st4" d="M128.67,169.6L275.2,26.23l3.48,3.41L132.15,173.01L128.67,169.6z"/>
			<path id="Path_9900" class="st4" d="M110.75,169.62L257.27,26.25l3.48,3.41L114.23,173.03L110.75,169.62z"/>
			<path id="Path_9901" class="st4" d="M92.8,169.62L239.33,26.25l3.48,3.41L96.28,173.03L92.8,169.62z"/>
			<path id="Path_9902" class="st4" d="M74.83,169.6L221.39,26.22l3.48,3.41L78.31,173.01L74.83,169.6z"/>
			<path id="Path_9903" class="st4" d="M56.89,169.6L203.44,26.22l3.48,3.41L60.37,173.01L56.89,169.6z"/>
			<path id="Path_9904" class="st4" d="M38.94,169.6L185.5,26.22l3.48,3.41L42.42,173.01L38.94,169.6z"/>
			<path id="Path_9905" class="st4" d="M21.02,169.62L167.54,26.25l3.48,3.41L24.5,173.03L21.02,169.62z"/>
			<path id="Path_9906" class="st4" d="M3.07,169.62L149.6,26.25l3.48,3.41L6.55,173.03L3.07,169.62z"/>
		</g>
	</g>
</g>
<g>
	<defs>
		<path id="SVGID_3_" d="M18.66,25.44H277.3c10.31,0,18.66,8.19,18.66,18.29v84.66c0,10.1-8.35,18.29-18.66,18.29H18.66
			C8.36,146.68,0,138.49,0,128.39V43.73C0,33.63,8.35,25.44,18.66,25.44L18.66,25.44z"/>
	</defs>
	<clipPath id="SVGID_4_">
		<use xlink:href="#SVGID_3_"  style="overflow:visible;"/>
	</clipPath>
	<g id="Group_6260_1_" class="st8">
		<g id="Group_6259_1_" transform="translate(-107.325 -11.657)">
			<path id="Path_9877_1_" class="st4" d="M110.18,29.62l3.48-3.41L260.21,169.6l-3.48,3.41L110.18,29.62z"/>
			<path id="Path_9878_1_" class="st4" d="M128.12,29.62l3.48-3.41L278.15,169.6l-3.48,3.41L128.12,29.62z"/>
			<path id="Path_9879_1_" class="st4" d="M146.09,29.6l3.48-3.41L296.1,169.56l-3.48,3.41L146.09,29.6z"/>
			<path id="Path_9880_1_" class="st4" d="M164.03,29.6l3.48-3.41l146.51,143.43l-3.48,3.41L164.03,29.6z"/>
			<path id="Path_9881_1_" class="st4" d="M181.96,29.62l3.48-3.41L331.99,169.6l-3.48,3.41L181.96,29.62z"/>
			<path id="Path_9882_1_" class="st4" d="M199.91,29.62l3.48-3.41L349.94,169.6l-3.48,3.41L199.91,29.62z"/>
			<path id="Path_9883_1_" class="st4" d="M217.85,29.62l3.48-3.41L367.88,169.6l-3.48,3.41L217.85,29.62z"/>
			<path id="Path_9884_1_" class="st4" d="M235.82,29.6l3.48-3.41l146.53,143.37l-3.48,3.41L235.82,29.6z"/>
			<path id="Path_9885_1_" class="st4" d="M253.76,29.6l3.48-3.41l146.51,143.43l-3.48,3.41L253.76,29.6z"/>
			<path id="Path_9886_1_" class="st4" d="M271.71,29.6l3.48-3.41L421.7,169.63l-3.48,3.41L271.71,29.6z"/>
			<path id="Path_9887_1_" class="st4" d="M289.64,29.62l3.48-3.41l146.52,143.37l-3.48,3.41L289.64,29.62z"/>
			<path id="Path_9888_1_" class="st4" d="M307.58,29.62l3.48-3.41l123.32,120.66l-3.48,3.41L307.58,29.62z"/>
			<path id="Path_9889_1_" class="st4" d="M325.54,29.61l3.48-3.41l108.53,106.2l-3.48,3.41L325.54,29.61z"/>
			<path id="Path_9890_1_" class="st4" d="M343.49,29.61l3.48-3.41l89.46,87.54l-3.48,3.41L343.49,29.61z"/>
			<path id="Path_9891_1_" class="st4" d="M361.42,29.62l3.48-3.41l75.01,73.4l-3.48,3.41L361.42,29.62z"/>
			<path id="Path_9892_1_" class="st4" d="M361.42,169.6l75.96-74.32l3.48,3.41l-75.96,74.32L361.42,169.6z"/>
			<path id="Path_9893_1_" class="st4" d="M343.46,169.59l90.95-88.94l3.48,3.41L346.94,173L343.46,169.59z"/>
			<path id="Path_9894_1_" class="st4" d="M325.54,169.62L434.63,62.88l3.48,3.41L329.02,173.03L325.54,169.62z"/>
			<path id="Path_9895_1_" class="st4" d="M307.59,169.62l126-123.28l3.48,3.41l-126,123.28L307.59,169.62z"/>
			<path id="Path_9896_1_" class="st4" d="M289.65,169.62L436.18,26.25l3.48,3.41L293.13,173.03L289.65,169.62z"/>
			<path id="Path_9897_1_" class="st4" d="M271.69,169.6L418.24,26.22l3.48,3.41L275.17,173.01L271.69,169.6z"/>
			<path id="Path_9898_1_" class="st4" d="M253.74,169.6L400.29,26.22l3.48,3.41L257.22,173.01L253.74,169.6z"/>
			<path id="Path_9899_1_" class="st4" d="M235.79,169.6L382.32,26.23l3.48,3.41L239.27,173.01L235.79,169.6z"/>
			<path id="Path_9900_1_" class="st4" d="M217.87,169.62L364.39,26.25l3.48,3.41L221.35,173.03L217.87,169.62z"/>
			<path id="Path_9901_1_" class="st4" d="M199.92,169.62L346.45,26.25l3.48,3.41L203.4,173.03L199.92,169.62z"/>
			<path id="Path_9902_1_" class="st4" d="M181.96,169.6L328.51,26.22l3.48,3.41L185.44,173.01L181.96,169.6z"/>
			<path id="Path_9903_1_" class="st4" d="M164.01,169.6L310.56,26.22l3.48,3.41L167.49,173.01L164.01,169.6z"/>
			<path id="Path_9904_1_" class="st4" d="M146.07,169.6L292.62,26.22l3.48,3.41L149.55,173.01L146.07,169.6z"/>
			<path id="Path_9905_1_" class="st4" d="M128.14,169.62L274.66,26.25l3.48,3.41L131.62,173.03L128.14,169.62z"/>
			<path id="Path_9906_1_" class="st4" d="M110.19,169.62L256.72,26.25l3.48,3.41L113.67,173.03L110.19,169.62z"/>
		</g>
	</g>
</g>
<g>
	<g>
		<path id="Path_9854" class="st0" d="M141.35,60.69c9.79,0.02,17.71,7.81,17.69,17.41s-7.97,17.37-17.76,17.35
			c-9.78-0.02-17.69-7.79-17.7-17.38C123.6,68.46,131.55,60.68,141.35,60.69L141.35,60.69z"/>
		<g id="Group_6263" transform="translate(566.485 153.567)">
			<path id="Path_9855" class="st9" d="M-427.65-92.27c9.79,0.02,17.71,7.82,17.69,17.41c-0.02,9.59-7.97,17.36-17.76,17.34
				c-9.78-0.01-17.69-7.79-17.7-17.37C-445.41-84.5-437.45-92.28-427.65-92.27L-427.65-92.27z"/>
			<path id="Path_9856" class="st5" d="M-409.5-74.89c0.02,9.83-8.1,17.82-18.12,17.83c-10.03,0.02-18.17-7.93-18.19-17.76
				s8.1-17.82,18.12-17.83c0.01,0,0.02,0,0.04,0C-417.64-92.65-409.52-84.71-409.5-74.89z M-445.02-74.89
				c-0.02,9.4,7.74,17.04,17.33,17.06c9.59,0.02,17.38-7.59,17.4-16.99c0.02-9.4-7.74-17.04-17.33-17.06c-0.01,0-0.02,0-0.03,0
				C-437.23-91.87-445-84.28-445.02-74.89L-445.02-74.89z"/>
		</g>
		<path id="Path_9857" class="st10" d="M138.83,66.39c6.92,0.02,12.52,5.53,12.51,12.32s-5.64,12.28-12.56,12.26
			c-6.91-0.01-12.51-5.51-12.51-12.29C126.27,71.88,131.9,66.38,138.83,66.39L138.83,66.39z"/>
		<g>
			<path id="Path_9862" class="st5" d="M137.02,68.9c5.22,0,4.26,4.24,4.26,10.45s0.96,12.05-4.26,12.05
				c-5.22,0-12.18-3.71-12.18-9.93C124.84,75.27,131.79,68.9,137.02,68.9z"/>
			<path id="Path_9863" class="st11" d="M133.37,77.82c1.81,0,3.28,1.45,3.28,3.23s-1.48,3.22-3.29,3.21
				c-1.81,0-3.28-1.45-3.28-3.22C130.08,79.26,131.55,77.82,133.37,77.82L133.37,77.82z"/>
			<path id="Path_9864" class="st5" d="M148.73,86.04c-3.95,3.35-6.05-0.47-10.21-5.17s-8.8-8.49-4.85-11.84
				c3.95-3.35,11.68-5,15.84-0.3C153.67,73.42,152.68,82.69,148.73,86.04z"/>
			<path id="Path_9865" class="st11" d="M145.52,76.96c-1.37,1.17-3.45,1.02-4.64-0.32c-1.19-1.34-1.04-3.38,0.33-4.54
				s3.45-1.02,4.64,0.32l0,0C147.03,73.77,146.88,75.8,145.52,76.96z"/>
		</g>
	</g>
	<g>
		<path id="Path_9866" class="st0" d="M133,104.06c-0.85,0.92-1.53,1.98-1.99,3.14c-1-0.11-1.7-0.05-1.79,0.24
			c-0.09,0.29,0.45,0.72,1.34,1.18c-1.27,5.44,2.2,10.86,7.75,12.1s11.08-2.16,12.34-7.59c1.27-5.44-2.2-10.86-7.75-12.1
			C139.29,100.21,135.51,101.37,133,104.06L133,104.06z"/>
		<g id="Group_6277" transform="translate(574.414 201.589)">
			<g id="Group_6266" transform="translate(1.706)">
				<g id="Group_6265">
					<path id="Path_9867" class="st4" d="M-433.74-99.44c-5.44-1.64-11.2,1.35-12.87,6.68c-1.67,5.33,1.38,10.98,6.82,12.61
						c5.43,1.64,11.19-1.35,12.87-6.68C-425.27-92.15-428.31-97.79-433.74-99.44z"/>
				</g>
			</g>
			<g id="Group_6268" transform="translate(2.385 0.825)">
				<g id="Group_6267">
					<path id="Path_9868" class="st9" d="M-434.63-99.58c-5.08-1.45-10.39,1.41-11.87,6.39c-1.48,4.98,1.44,10.19,6.52,11.63
						c5.02,1.43,10.29-1.35,11.82-6.25C-426.64-92.81-429.54-98.07-434.63-99.58z"/>
				</g>
			</g>
			<g id="Group_6270" transform="translate(0 11.747)">
				<g id="Group_6269">
					<path id="Path_9869" class="st5" d="M-442.59-101.47c-2.45,0.35-4.36,1.06-4.28,1.59c0.08,0.53,2.12,0.68,4.57,0.33
						c2.45-0.34,4.36-1.05,4.28-1.58C-438.1-101.67-440.14-101.81-442.59-101.47z"/>
				</g>
			</g>
			<g id="Group_6272" transform="translate(5.198 3.605)">
				<g id="Group_6271">
					<path id="Path_9870" class="st5" d="M-438.01-100.11c-3.89-1.17-8.01,0.97-9.2,4.78c-1.19,3.81,0.99,7.85,4.88,9.02
						c3.89,1.17,8-0.97,9.2-4.77C-431.94-94.89-434.12-98.93-438.01-100.11z"/>
				</g>
			</g>
			<g id="Group_6274" transform="translate(5.936 4.437)">
				<g id="Group_6273">
					<path id="Path_9871" class="st10" d="M-438.96-100.26c-3.52-1-7.2,0.98-8.23,4.44c-1.02,3.45,1,7.06,4.52,8.06
						c3.48,0.99,7.13-0.94,8.2-4.33C-433.42-95.56-435.43-99.21-438.96-100.26z"/>
				</g>
			</g>
			<g id="Group_6276" transform="translate(7.758 6.237)">
				<g id="Group_6275">
					<path id="Path_9872" class="st12" d="M-441.24-100.6c-2.69-0.77-5.51,0.75-6.3,3.39c-0.78,2.64,0.76,5.4,3.46,6.17
						c2.66,0.76,5.46-0.72,6.27-3.31C-437-97-438.53-99.8-441.24-100.6z"/>
				</g>
			</g>
		</g>
	</g>
	<g>
		<path id="Path_9858" class="st0" d="M173.78,83.63c7.02,0.01,12.7,5.6,12.69,12.48c-0.01,6.88-5.71,12.45-12.73,12.44
			c-7.01-0.01-12.69-5.58-12.69-12.46C161.05,89.2,166.75,83.62,173.78,83.63z"/>
		<g id="Group_6264" transform="translate(610.672 180.498)">
			<path id="Path_9859" class="st9" d="M-438.7-96.43c7.02,0.01,12.7,5.6,12.68,12.48c-0.01,6.88-5.71,12.45-12.73,12.43
				c-7.01-0.01-12.68-5.59-12.68-12.46C-451.43-90.86-445.73-96.44-438.7-96.43L-438.7-96.43z"/>
			<path id="Path_9860" class="st5" d="M-425.68-83.97c0.01,7.05-5.8,12.77-12.99,12.78c-7.19,0.01-13.03-5.69-13.04-12.74
				c-0.01-7.05,5.8-12.77,12.99-12.78c0.01,0,0.02,0,0.02,0C-431.52-96.71-425.7-91.01-425.68-83.97z M-451.14-83.97
				c-0.02,6.73,5.55,12.21,12.42,12.22s12.46-5.44,12.47-12.18s-5.55-12.21-12.43-12.22c-0.01,0-0.01,0-0.02,0
				C-445.56-96.15-451.13-90.7-451.14-83.97z"/>
		</g>
		<path id="Path_9861" class="st10" d="M171.97,87.71c4.96,0.01,8.98,3.96,8.98,8.82c-0.01,4.87-4.04,8.81-9,8.8
			s-8.98-3.95-8.98-8.81C162.98,91.65,167.01,87.71,171.97,87.71z"/>
		<g id="Group_6278" transform="translate(609.421 179.947)">
			<path id="Path_9907" class="st13" d="M-450.64-85.73l16.12-10.32c0.5-0.32,1.17-0.18,1.5,0.31l7.43,11.12
				c0.33,0.49,0.19,1.14-0.31,1.46l0,0l-16.13,10.32c-0.5,0.32-1.17,0.18-1.5-0.31l-7.43-11.11
				C-451.28-84.75-451.14-85.41-450.64-85.73L-450.64-85.73z"/>
			<path id="Path_9908" class="st14" d="M-447.6-86.27l12.47-7.98c0.5-0.32,1.17-0.18,1.5,0.31l6.12,9.14
				c0.33,0.49,0.19,1.14-0.31,1.46l0,0l-12.48,7.98c-0.5,0.32-1.17,0.18-1.5-0.31l-6.11-9.15C-448.24-85.3-448.1-85.95-447.6-86.27
				L-447.6-86.27z"/>
		</g>
	</g>
	<path id="Path_9873" class="st6" d="M133.94,45.52c0.18-0.1,0.32-0.26,0.4-0.45l3.62-2.05c0.14-0.13,0.16-0.34,0.05-0.49
		c-0.12-0.18-0.31-0.28-0.45-0.2l-3.17,1.79c-0.04-0.19-0.11-0.36-0.21-0.53l-0.21-0.34l3.09-1.75c0.14-0.12,0.16-0.33,0.04-0.48
		c-0.11-0.19-0.32-0.28-0.45-0.2l-3.09,1.75l-0.2-0.34c-0.1-0.17-0.22-0.32-0.36-0.45l3.16-1.79c0.14-0.08,0.16-0.3,0.05-0.48
		c-0.11-0.19-0.31-0.28-0.45-0.2l-3.62,2.06c-0.2-0.03-0.41,0.01-0.59,0.1c-0.59,0.47-0.69,1.3-0.24,1.9l-10.55,5.42
		c-0.48,0.4-0.55,1.1-0.16,1.59c0.37,0.61,1.03,0.92,1.49,0.65l10.06-6.25C132.45,45.46,133.24,45.78,133.94,45.52z"/>
	<path id="Path_9874" class="st6" d="M139.88,47.33c0.41-0.25,0.95-0.14,1.21,0.25l0,0c0.22,0.41,0.06,0.93-0.36,1.15
		c-0.01,0-0.01,0.01-0.02,0.01l-13.76,7.81c-0.4,0.26-0.94,0.15-1.2-0.24c0-0.01-0.01-0.01-0.01-0.02l0,0
		c-0.22-0.42-0.06-0.94,0.37-1.16c0,0,0,0,0.01,0L139.88,47.33z"/>
</g>
</svg>
