<?xml version="1.0" encoding="utf-8"?>
<!-- Generator: Adobe Illustrator 24.2.3, SVG Export Plug-In . SVG Version: 6.00 Build 0)  -->
<svg version="1.1" id="Layer_1" xmlns="http://www.w3.org/2000/svg" xmlns:xlink="http://www.w3.org/1999/xlink" x="0px" y="0px"
	 viewBox="0 0 300 266.67" style="enable-background:new 0 0 300 266.67;" xml:space="preserve">
<style type="text/css">
	.st0{fill:#848485;}
	.st1{fill:#B2AEA8;}
	.st2{opacity:0.1;enable-background:new    ;}
	.st3{opacity:0.2;enable-background:new    ;}
	.st4{opacity:0.2;fill:#FFFFFF;enable-background:new    ;}
	.st5{fill:#841719;}
	.st6{fill:#B62026;}
	.st7{fill:#CB3131;}
	.st8{fill:#C72128;}
	.st9{opacity:0.2;fill:#E1B1A8;}
	.st10{fill:#CC3634;}
	.st11{fill:#A61E22;}
	.st12{fill:#9B1C1F;}
	.st13{fill:#D03232;}
	.st14{fill:#DA3734;}
	.st15{fill:#D63232;}
	.st16{fill:#D43733;}
	.st17{opacity:0.3;fill:#EC8281;}
	.st18{opacity:0.35;fill:#E4AB9D;}
	.st19{opacity:0.8;}
	.st20{opacity:0.2;fill:#EC8281;}
	.st21{fill:#85311B;}
	.st22{fill:#595A5A;}
	.st23{fill:#9D3E21;}
	.st24{fill:#A54724;}
	.st25{fill:#959595;}
	.st26{fill:#A34023;}
	.st27{fill:#AE4B25;}
	.st28{fill:#A84924;}
	.st29{fill:#BA5727;}
</style>
<g id="Group_5842" transform="translate(0 0)">
	<rect id="Rectangle_24529" x="24.41" y="26.19" class="st5" width="84.15" height="238.53"/>
	<rect id="Rectangle_24530" x="22.23" y="26.19" class="st5" width="257.87" height="80.46"/>
	<g id="Group_5796" transform="translate(113.696 76.956)">
		<path id="Path_7098" class="st6" d="M75.41,31.21c-26.13,1.47-52.33,1.47-78.46,0c-2.09-24.96-2.09-50.06,0-75.02
			c26.13-1.47,52.33-1.47,78.46,0C77.5-18.86,77.35,6.24,75.41,31.21z"/>
		<path id="Path_7291" class="st6" d="M157.14,31.21c-26.13,1.47-52.33,1.47-78.46,0c-2.09-24.96-2.09-50.06,0-75.02
			c26.13-1.47,52.33-1.47,78.46,0C159.23-18.86,159.08,6.24,157.14,31.21z"/>
	</g>
	<path id="Path_7099" class="st7" d="M149.88,106.65c-12.12,0-24.37-0.44-36.48-1.31c-0.9-11.52-1.35-23.18-1.35-34.69
		s0.45-23.17,1.35-34.69c12.13-0.87,24.39-1.31,36.48-1.31c12.1,0,24.36,0.44,36.49,1.31c0.89,11.52,1.35,23.18,1.35,34.69
		s-0.45,23.16-1.35,34.69c-12.12,0.87-24.37,1.31-36.46,1.31H149.88z"/>
	<path id="Path_7100" class="st7" d="M231.48,106.65c-12.12,0-24.37-0.44-36.48-1.31c-0.9-11.54-1.35-23.2-1.35-34.69
		c0-11.51,0.45-23.17,1.35-34.69c12.13-0.87,24.39-1.31,36.49-1.31c12.1,0,24.37,0.44,36.5,1.31c0.89,11.52,1.35,23.18,1.35,34.69
		c0,11.49-0.45,23.15-1.35,34.69c-12.12,0.87-24.37,1.31-36.46,1.31H231.48z"/>
	<g id="Group_5798" transform="translate(198.561 76.956)">
		<path id="Path_7101" class="st6" d="M-91.05,31.21c-26.13,1.47-52.33,1.47-78.46,0c-2.09-24.96-2.09-50.06,0-75.02
			c26.13-1.47,52.33-1.47,78.46,0C-88.96-18.82-88.43,6.26-91.05,31.21z"/>
	</g>
	<path id="Path_7102" class="st7" d="M68.28,106.65c-12.12,0-24.37-0.44-36.48-1.31c-0.9-11.53-1.35-23.18-1.35-34.69
		s0.45-23.17,1.35-34.69c12.12-0.87,24.39-1.31,36.48-1.31s24.36,0.44,36.48,1.31c0.9,11.53,1.35,23.19,1.35,34.69
		s-0.45,23.15-1.35,34.69c-12.12,0.87-24.37,1.31-36.45,1.31H68.28z"/>
	<path id="Path_7103" class="st8" d="M7.73,10.96c0.46-0.56,0.95-1.1,1.46-1.6C15.07,3.35,23.06-0.02,31.37,0h237.26
		c9.06-0.01,17.68,3.99,23.65,10.96l-5.25,5.5l-12.63,13.29l-2.1,2.2H27.71l-1.07-1.13L14.63,18.2L7.73,10.96z"/>
	<path id="Path_7104" class="st9" d="M14.63,18.2c1.17-0.31,2.29-0.76,3.36-1.34c1.44-0.9,2.36-2.48,3.81-3.36
		c1.35-0.82,3.08-0.42,4.57-1.07c1.03-0.44,1.95-1.07,2.92-1.59c2.72-1.4,5.81-1.83,8.79-1.22c4.62,0.95,9.6,2.66,14.36,1.38
		c1.44-0.4,2.79-1.13,4.26-1.49c2.98-0.74,5.51,0.59,8.42,0.52c2.43-0.2,4.81-0.81,7.05-1.81c1.44-0.59,2.53-1.18,4.09-0.95
		c1.57,0.25,3.22,0.1,4.8,0.4c2.08,0.44,3.97,1.39,6.13,1.62c4.37,0.46,8.66-1.45,13.07-1.55c1.58-0.01,3.16,0.14,4.71,0.45
		c2.87,0.53,5.34,1.55,8.29,1.32c3.94-0.32,7.84-2.25,11.68-1.3c2.31,0.57,4.27,1.87,6.73,1.64c2.16-0.21,4.16-1.28,6.36-1.39
		c6.15-0.29,12.43,2.88,18.28,0.97c0.71-0.27,1.43-0.51,2.16-0.71c1.63-0.16,3.27-0.05,4.86,0.34c3.99,0.55,8.06-0.19,12.09-0.21
		c3.05,0.05,6.1,0.32,9.11,0.79c2.19,0.29,4.54,0.94,6.71,0.46c2.18-0.46,4.29-1.2,6.51-1.51c3.22-0.46,6.26,0.49,9.43,0.4
		c3.32-0.13,7.03-1.41,10.29-0.59c3.11,0.79,5.64-0.49,8.76-1.01c6.77-1.11,13.67,2.73,20.4,1.41c4.22-0.84,8.16-3.65,12.39-3
		c1.74,0.27,3.36,1.11,5.1,1.38c3.23,0.52,6.77-0.9,9.66,0.67c0.99,0.65,1.92,1.37,2.79,2.18c0.98,0.75,2.09,1.3,3.26,1.64
		c0.87,0.25,1.91,0.02,2.7,0.29c1.47,0.64,2.74,1.7,3.64,3.05c0.32,0.46,0.6,0.95,0.84,1.45l-12.64,13.29
		c-0.45-0.36-0.96-0.65-1.5-0.86c-3.28-1.32-6.98-0.63-10.38-1.03c-2.42-0.29-4.78-1.13-7.21-1.11c-2.21,0.02-4.35,0.76-6.54,0.92
		c-3.41,0.25-6.75-0.86-10.14-1.13c-4.97-0.4-9.9,0.99-14.87,0.94c-2.22-0.18-4.44-0.19-6.66-0.04c-1.44,0.19-2.85,0.65-4.27,0.94
		c-2.43,0.48-4.93,0.48-7.37-0.02c-2.12-0.42-4.18-1.2-6.34-1.18c-3.3,0.04-6.99,1.77-10.22,1.07c-7.1,0.64-14.24,0.75-21.36,0.32
		c-1.87-0.17-3.75-0.17-5.62,0c-2.55,0.32-5.04,1.39-7.57,0.99c-2.32-0.34-4.35-1.87-6.66-2.22c-2.94-0.44-5.83,1.05-8.79,1.2
		c-3.24,0.17-6.41-1.28-9.66-1.15c-2.87,0.13-5.66,1.49-8.51,1.15c-1.5-0.17-2.94-0.82-4.46-0.86c-1.95-0.06-3.79,0.88-5.7,1.17
		c-3.96,0.59-7.84-1.59-11.81-1.39c-3.26,0.17-6.37,1.95-9.64,1.68c-1.88-0.29-3.72-0.81-5.47-1.55c-4.06-1.32-8.39-1.47-12.53-0.46
		c-1.72,0.53-3.47,0.94-5.25,1.22c-2.16,0.27-4.35,0.26-6.51-0.04c-3-0.46-6.04-1.53-9-0.86c-1.46,0.32-2.81,1.07-4.29,1.26
		c-2.06,0.27-4.11-0.57-6.17-0.84c-3.28-0.44-6.56,0.55-9.73,1.53c-1.22,0.32-2.39,0.79-3.49,1.41L14.63,18.2z"/>
	<path id="Path_7105" class="st10" d="M5.23,266.67h17.23c0.42,0,0.83-0.05,1.24-0.15v-0.02c2.35-0.57,4.01-2.71,4.01-5.17V31.95
		l-1.07-1.13L14.63,18.2l-6.9-7.24C2.74,16.76-0.01,24.22,0,31.95v229.37C0.01,264.27,2.35,266.67,5.23,266.67z"/>
	<path id="Path_7106" class="st10" d="M272.29,105.97V31.95l2.1-2.2l12.64-13.29l5.25-5.5c4.99,5.8,7.74,13.26,7.73,20.99v74.02
		c-0.01,2.9-2.27,5.26-5.1,5.35h-17.61C274.5,111.18,272.3,108.83,272.29,105.97z"/>
	<g id="Group_5836" transform="translate(4.287 3.575)">
		<g id="Group_5799" transform="translate(24.546 154.229)">
			<path id="Path_7107" class="st11" d="M236.15-134.72c0.45,0.21,0.88,0.44,1.3,0.7c0.92,0.55,1.8,1.16,2.63,1.83
				c0.84,0.67,1.63,1.39,2.38,2.16c0.35,0.35,0.67,0.73,0.98,1.12c-0.45-0.2-0.88-0.43-1.3-0.69c-0.92-0.55-1.8-1.16-2.63-1.83
				c-0.84-0.67-1.63-1.39-2.38-2.16C236.78-133.95,236.45-134.33,236.15-134.72z"/>
			<path id="Path_7108" class="st11" d="M236.95-128.09c0.2-0.46,0.43-0.9,0.68-1.33c0.54-0.93,1.14-1.83,1.79-2.69
				c0.65-0.86,1.36-1.67,2.12-2.43c0.35-0.35,0.71-0.69,1.1-1c-0.2,0.46-0.43,0.9-0.68,1.33c-1.08,1.87-2.39,3.59-3.91,5.12
				C237.7-128.74,237.34-128.4,236.95-128.09z"/>
			<path id="Path_7109" class="st11" d="M240.06-128.33c-0.11-0.35-0.21-0.71-0.28-1.07c-0.15-0.79-0.26-1.58-0.33-2.39
				c-0.05-0.8-0.06-1.61-0.03-2.41c0.02-0.37,0.06-0.74,0.12-1.1c0.11,0.35,0.21,0.71,0.28,1.07c0.15,0.79,0.27,1.58,0.33,2.39
				c0.05,0.8,0.06,1.61,0.03,2.41C240.16-129.06,240.12-128.7,240.06-128.33z"/>
			<path id="Path_7110" class="st11" d="M236.38-131.55c0.34-0.11,0.7-0.21,1.05-0.28c0.77-0.16,1.55-0.27,2.34-0.34
				c0.79-0.05,1.57-0.06,2.36-0.03c0.36,0.02,0.72,0.06,1.08,0.12c-0.34,0.12-0.7,0.21-1.05,0.28c-0.77,0.16-1.55,0.27-2.33,0.34
				c-0.79,0.05-1.57,0.06-2.36,0.03C237.1-131.45,236.74-131.49,236.38-131.55z"/>
			<ellipse id="Ellipse_447" class="st12" cx="239.9" cy="-131.92" rx="2.03" ry="2.07"/>
		</g>
		<g id="Group_5800" transform="translate(55.364 154.229)">
			<path id="Path_7111" class="st11" d="M175.7-134.72c0.45,0.21,0.88,0.44,1.3,0.7c0.92,0.55,1.8,1.16,2.63,1.83
				c0.84,0.67,1.63,1.39,2.38,2.16c0.35,0.35,0.67,0.73,0.98,1.12c-0.45-0.2-0.88-0.43-1.3-0.69c-0.91-0.55-1.79-1.17-2.63-1.84
				c-0.84-0.67-1.63-1.39-2.38-2.16C176.33-133.95,176-134.33,175.7-134.72z"/>
			<path id="Path_7112" class="st11" d="M176.5-128.09c0.2-0.46,0.43-0.9,0.68-1.33c0.54-0.93,1.14-1.83,1.79-2.69
				c0.65-0.86,1.36-1.67,2.12-2.43c0.35-0.35,0.71-0.69,1.1-1c-0.2,0.46-0.43,0.9-0.68,1.33c-1.08,1.87-2.4,3.59-3.91,5.12
				C177.25-128.74,176.89-128.4,176.5-128.09z"/>
			<path id="Path_7113" class="st11" d="M179.61-128.33c-0.11-0.35-0.2-0.71-0.28-1.07c-0.15-0.79-0.27-1.58-0.34-2.39
				c-0.05-0.8-0.06-1.61-0.03-2.41c0.02-0.37,0.05-0.74,0.11-1.1c0.11,0.35,0.21,0.71,0.28,1.07c0.15,0.79,0.27,1.58,0.33,2.39
				c0.05,0.8,0.06,1.61,0.03,2.41C179.7-129.06,179.67-128.7,179.61-128.33z"/>
			<path id="Path_7114" class="st11" d="M175.93-131.55c0.35-0.11,0.7-0.21,1.05-0.28c0.77-0.16,1.55-0.27,2.33-0.34
				c0.79-0.05,1.57-0.06,2.36-0.03c0.36,0.02,0.72,0.06,1.08,0.12c-0.34,0.12-0.7,0.21-1.05,0.28c-0.77,0.16-1.55,0.27-2.33,0.34
				c-0.79,0.05-1.57,0.06-2.36,0.03C176.65-131.45,176.29-131.49,175.93-131.55z"/>
			<path id="Path_7115" class="st12" d="M177.42-131.92c0-1.15,0.91-2.08,2.03-2.08c1.12,0,2.03,0.93,2.03,2.07
				c0,1.15-0.91,2.08-2.03,2.08c0,0,0,0,0,0C178.33-129.85,177.42-130.78,177.42-131.92z"/>
		</g>
		<g id="Group_5801" transform="translate(86.184 154.229)">
			<path id="Path_7116" class="st11" d="M115.24-134.72c0.45,0.21,0.88,0.44,1.3,0.7c0.92,0.55,1.8,1.16,2.63,1.83
				c0.84,0.67,1.63,1.39,2.38,2.16c0.35,0.35,0.67,0.73,0.98,1.12c-0.45-0.2-0.88-0.43-1.3-0.69c-0.92-0.55-1.8-1.16-2.63-1.83
				c-0.84-0.67-1.63-1.39-2.38-2.16C115.87-133.95,115.55-134.33,115.24-134.72z"/>
			<path id="Path_7117" class="st11" d="M116.05-128.09c0.2-0.46,0.43-0.9,0.69-1.33c0.54-0.93,1.14-1.83,1.79-2.69
				c0.65-0.86,1.36-1.67,2.12-2.43c0.35-0.35,0.71-0.69,1.1-1c-0.2,0.46-0.43,0.9-0.68,1.33c-1.08,1.87-2.39,3.59-3.91,5.12
				C116.8-128.74,116.43-128.4,116.05-128.09z"/>
			<path id="Path_7118" class="st11" d="M119.16-128.33c-0.11-0.35-0.21-0.71-0.28-1.07c-0.15-0.79-0.26-1.58-0.33-2.39
				c-0.05-0.8-0.06-1.61-0.03-2.41c0.02-0.37,0.06-0.74,0.11-1.1c0.11,0.35,0.21,0.71,0.28,1.07c0.16,0.79,0.27,1.58,0.33,2.39
				c0.05,0.8,0.06,1.61,0.03,2.41C119.25-129.06,119.21-128.7,119.16-128.33z"/>
			<path id="Path_7119" class="st11" d="M115.48-131.55c0.34-0.11,0.7-0.21,1.05-0.28c0.77-0.16,1.55-0.27,2.34-0.34
				c0.79-0.05,1.57-0.06,2.36-0.03c0.36,0.02,0.72,0.06,1.08,0.12c-0.34,0.12-0.7,0.21-1.05,0.28c-0.77,0.16-1.55,0.27-2.34,0.34
				c-0.79,0.05-1.57,0.06-2.36,0.03C116.2-131.45,115.84-131.49,115.48-131.55z"/>
			<path id="Path_7120" class="st12" d="M116.97-131.92c0-1.15,0.9-2.08,2.03-2.08s2.03,0.93,2.04,2.07s-0.9,2.08-2.03,2.08
				c0,0,0,0-0.01,0C117.88-129.85,116.97-130.78,116.97-131.92z"/>
		</g>
		<g id="Group_5802" transform="translate(117.001 154.229)">
			<path id="Path_7121" class="st11" d="M54.79-134.72c0.45,0.21,0.88,0.44,1.3,0.7c0.92,0.55,1.8,1.16,2.63,1.83
				c0.84,0.67,1.64,1.39,2.38,2.16c0.35,0.35,0.67,0.73,0.98,1.12c-0.45-0.2-0.88-0.43-1.3-0.69c-0.92-0.55-1.8-1.17-2.64-1.84
				c-0.84-0.67-1.63-1.39-2.37-2.16C55.43-133.95,55.1-134.33,54.79-134.72z"/>
			<path id="Path_7122" class="st11" d="M55.6-128.09c0.2-0.46,0.43-0.9,0.68-1.33c0.54-0.93,1.14-1.83,1.79-2.69
				c0.65-0.86,1.36-1.67,2.12-2.43c0.35-0.35,0.71-0.69,1.1-1c-0.2,0.46-0.43,0.9-0.68,1.33c-1.08,1.87-2.4,3.59-3.91,5.12
				C56.35-128.74,55.98-128.4,55.6-128.09z"/>
			<path id="Path_7123" class="st11" d="M58.7-128.33c-0.11-0.35-0.2-0.71-0.28-1.07c-0.16-0.79-0.27-1.58-0.34-2.39
				c-0.05-0.8-0.06-1.61-0.03-2.41c0.02-0.37,0.05-0.74,0.11-1.1c0.11,0.35,0.21,0.71,0.28,1.07c0.15,0.79,0.27,1.58,0.33,2.39
				c0.05,0.8,0.06,1.61,0.03,2.41C58.8-129.06,58.76-128.7,58.7-128.33z"/>
			<path id="Path_7124" class="st11" d="M55.03-131.55c0.35-0.11,0.7-0.21,1.05-0.28c0.77-0.16,1.55-0.27,2.33-0.34
				c0.79-0.05,1.57-0.06,2.36-0.03c0.36,0.02,0.72,0.06,1.08,0.12c-0.34,0.12-0.7,0.21-1.05,0.28c-0.77,0.16-1.55,0.27-2.33,0.34
				c-0.79,0.05-1.57,0.06-2.36,0.03C55.75-131.45,55.39-131.49,55.03-131.55z"/>
			<ellipse id="Ellipse_448" class="st12" cx="58.55" cy="-131.92" rx="2.03" ry="2.07"/>
		</g>
		<g id="Group_5803" transform="translate(147.821 154.229)">
			<path id="Path_7125" class="st11" d="M-5.66-134.72c0.45,0.21,0.88,0.44,1.3,0.7c0.92,0.55,1.8,1.16,2.63,1.83
				c0.84,0.67,1.63,1.39,2.38,2.16c0.35,0.35,0.67,0.73,0.98,1.12c-0.45-0.2-0.88-0.43-1.3-0.69c-0.92-0.55-1.8-1.16-2.63-1.83
				c-0.84-0.67-1.63-1.39-2.38-2.16C-5.03-133.95-5.35-134.33-5.66-134.72z"/>
			<path id="Path_7126" class="st11" d="M-4.86-128.09c0.2-0.45,0.43-0.9,0.68-1.33c0.54-0.93,1.14-1.83,1.79-2.69
				c0.65-0.86,1.36-1.67,2.12-2.43c0.35-0.36,0.71-0.69,1.1-1c-0.2,0.46-0.43,0.9-0.68,1.33c-1.08,1.87-2.4,3.59-3.91,5.12
				C-4.11-128.74-4.47-128.4-4.86-128.09z"/>
			<path id="Path_7127" class="st11" d="M-1.75-128.33c-0.11-0.35-0.21-0.71-0.28-1.07c-0.15-0.79-0.26-1.58-0.33-2.39
				c-0.05-0.8-0.06-1.61-0.03-2.41c0.02-0.37,0.06-0.74,0.11-1.1c0.11,0.35,0.21,0.71,0.28,1.07c0.15,0.79,0.27,1.58,0.33,2.39
				c0.05,0.8,0.06,1.61,0.03,2.41C-1.65-129.06-1.69-128.7-1.75-128.33z"/>
			<path id="Path_7128" class="st11" d="M-5.42-131.55c0.34-0.11,0.7-0.21,1.05-0.28c0.77-0.16,1.55-0.27,2.33-0.34
				c0.79-0.05,1.57-0.06,2.36-0.03c0.36,0.02,0.72,0.06,1.08,0.12c-0.34,0.12-0.7,0.21-1.05,0.28c-0.77,0.16-1.55,0.27-2.34,0.34
				c-0.79,0.05-1.57,0.06-2.36,0.03C-4.71-131.45-5.07-131.49-5.42-131.55z"/>
			<ellipse id="Ellipse_449" class="st12" cx="-1.91" cy="-131.92" rx="2.03" ry="2.07"/>
		</g>
		<g id="Group_5804" transform="translate(178.639 154.229)">
			<path id="Path_7129" class="st11" d="M-66.11-134.72c0.45,0.21,0.88,0.44,1.3,0.7c0.92,0.55,1.8,1.16,2.63,1.83
				c0.84,0.67,1.63,1.39,2.38,2.16c0.35,0.35,0.67,0.73,0.98,1.12c-0.45-0.2-0.88-0.43-1.3-0.69c-0.92-0.55-1.8-1.17-2.64-1.84
				c-0.84-0.67-1.63-1.39-2.37-2.16C-65.48-133.95-65.81-134.33-66.11-134.72z"/>
			<path id="Path_7130" class="st11" d="M-65.31-128.09c0.2-0.46,0.43-0.9,0.68-1.33c0.54-0.93,1.14-1.83,1.79-2.69
				c0.65-0.86,1.36-1.67,2.12-2.43c0.35-0.35,0.71-0.69,1.1-1c-0.2,0.46-0.43,0.9-0.68,1.33c-1.08,1.87-2.4,3.59-3.91,5.12
				C-64.56-128.74-64.92-128.4-65.31-128.09z"/>
			<path id="Path_7131" class="st11" d="M-62.2-128.33c-0.11-0.35-0.21-0.71-0.28-1.07c-0.15-0.79-0.26-1.58-0.33-2.39
				c-0.05-0.8-0.06-1.61-0.03-2.41c0.02-0.37,0.06-0.74,0.11-1.1c0.11,0.35,0.21,0.71,0.28,1.07c0.15,0.79,0.27,1.58,0.33,2.39
				c0.05,0.8,0.06,1.61,0.03,2.41C-62.1-129.06-62.14-128.7-62.2-128.33z"/>
			<path id="Path_7132" class="st11" d="M-65.88-131.55c0.34-0.11,0.7-0.21,1.05-0.28c0.77-0.16,1.55-0.27,2.34-0.34
				c0.79-0.05,1.57-0.06,2.36-0.03c0.36,0.02,0.72,0.06,1.08,0.12c-0.34,0.12-0.7,0.21-1.05,0.28c-0.77,0.16-1.55,0.27-2.33,0.34
				c-0.79,0.05-1.57,0.06-2.36,0.03C-65.16-131.45-65.52-131.49-65.88-131.55z"/>
			<path id="Path_7133" class="st12" d="M-64.39-131.92c0-1.15,0.9-2.08,2.03-2.08s2.03,0.93,2.04,2.07s-0.9,2.08-2.03,2.08
				c0,0,0,0,0,0C-63.48-129.85-64.39-130.77-64.39-131.92C-64.39-131.92-64.39-131.92-64.39-131.92z"/>
		</g>
		<g id="Group_5805" transform="translate(209.459 154.229)">
			<path id="Path_7134" class="st11" d="M-126.57-134.72c0.45,0.21,0.88,0.44,1.3,0.7c0.92,0.55,1.8,1.16,2.63,1.83
				c0.84,0.67,1.63,1.39,2.38,2.16c0.35,0.35,0.67,0.73,0.98,1.12c-0.45-0.2-0.88-0.43-1.3-0.69c-0.91-0.55-1.79-1.17-2.63-1.84
				c-0.84-0.67-1.63-1.39-2.38-2.16C-125.93-133.95-126.26-134.33-126.57-134.72z"/>
			<path id="Path_7135" class="st11" d="M-125.76-128.09c0.2-0.46,0.43-0.9,0.68-1.33c0.54-0.93,1.14-1.83,1.79-2.69
				c0.65-0.86,1.36-1.67,2.12-2.43c0.35-0.35,0.71-0.69,1.1-1c-0.2,0.46-0.43,0.9-0.68,1.33c-1.08,1.87-2.4,3.59-3.91,5.12
				C-125.01-128.74-125.38-128.4-125.76-128.09z"/>
			<path id="Path_7136" class="st11" d="M-122.65-128.33c-0.11-0.35-0.2-0.71-0.28-1.07c-0.15-0.79-0.27-1.58-0.34-2.39
				c-0.05-0.8-0.06-1.61-0.03-2.41c0.02-0.37,0.06-0.74,0.11-1.1c0.11,0.35,0.21,0.71,0.28,1.07c0.15,0.79,0.27,1.58,0.33,2.39
				c0.05,0.8,0.06,1.61,0.03,2.41C-122.56-129.06-122.6-128.7-122.65-128.33z"/>
			<path id="Path_7137" class="st11" d="M-126.33-131.55c0.35-0.11,0.7-0.21,1.05-0.28c0.77-0.16,1.55-0.27,2.33-0.34
				c0.79-0.05,1.57-0.06,2.36-0.03c0.36,0.02,0.72,0.06,1.08,0.12c-0.34,0.12-0.69,0.21-1.05,0.28c-0.77,0.16-1.55,0.27-2.34,0.34
				c-0.79,0.05-1.57,0.06-2.36,0.03C-125.61-131.45-125.97-131.49-126.33-131.55z"/>
			<path id="Path_7138" class="st12" d="M-124.84-131.92c0-1.15,0.91-2.08,2.03-2.08c1.12,0,2.03,0.93,2.03,2.07
				c0,1.15-0.91,2.08-2.03,2.08c0,0,0,0,0,0C-123.93-129.85-124.84-130.78-124.84-131.92z"/>
		</g>
		<g id="Group_5806" transform="translate(240.278 154.229)">
			<path id="Path_7139" class="st11" d="M-187.02-134.72c0.45,0.21,0.88,0.44,1.3,0.7c0.92,0.55,1.8,1.16,2.63,1.83
				c0.84,0.67,1.63,1.39,2.38,2.16c0.35,0.35,0.67,0.73,0.98,1.12c-0.45-0.2-0.88-0.43-1.3-0.69c-0.92-0.55-1.8-1.16-2.63-1.83
				c-0.84-0.67-1.63-1.39-2.38-2.16C-186.39-133.95-186.71-134.33-187.02-134.72z"/>
			<path id="Path_7140" class="st11" d="M-186.21-128.09c0.2-0.46,0.43-0.9,0.68-1.33c0.54-0.93,1.14-1.83,1.79-2.69
				c0.65-0.86,1.36-1.67,2.12-2.43c0.35-0.35,0.71-0.69,1.1-1c-0.2,0.46-0.43,0.9-0.68,1.33c-1.08,1.87-2.39,3.59-3.91,5.12
				C-185.46-128.74-185.83-128.4-186.21-128.09z"/>
			<path id="Path_7141" class="st11" d="M-183.11-128.33c-0.11-0.35-0.21-0.71-0.28-1.07c-0.15-0.79-0.26-1.58-0.33-2.39
				c-0.05-0.8-0.06-1.61-0.03-2.41c0.02-0.37,0.06-0.74,0.12-1.1c0.11,0.35,0.21,0.71,0.28,1.07c0.15,0.79,0.27,1.58,0.33,2.39
				c0.05,0.8,0.06,1.61,0.03,2.41C-183.01-129.06-183.05-128.7-183.11-128.33z"/>
			<path id="Path_7142" class="st11" d="M-186.78-131.55c0.34-0.11,0.7-0.21,1.05-0.28c0.77-0.16,1.55-0.27,2.34-0.34
				c0.79-0.05,1.57-0.06,2.36-0.03c0.36,0.02,0.72,0.06,1.08,0.12c-0.34,0.12-0.7,0.21-1.05,0.28c-0.77,0.16-1.55,0.27-2.33,0.34
				c-0.79,0.05-1.57,0.06-2.36,0.03C-186.06-131.45-186.42-131.49-186.78-131.55z"/>
			<ellipse id="Ellipse_450" class="st12" cx="-183.26" cy="-131.92" rx="2.03" ry="2.07"/>
		</g>
		<g id="Group_5807" transform="translate(271.096 154.229)">
			<path id="Path_7143" class="st11" d="M-247.47-134.72c0.45,0.21,0.88,0.44,1.3,0.7c0.92,0.55,1.8,1.16,2.63,1.83
				c0.84,0.67,1.63,1.39,2.38,2.16c0.35,0.35,0.67,0.73,0.98,1.12c-0.45-0.2-0.88-0.43-1.3-0.69c-0.91-0.55-1.79-1.17-2.63-1.84
				c-0.84-0.67-1.63-1.39-2.38-2.16C-246.84-133.95-247.16-134.33-247.47-134.72z"/>
			<path id="Path_7144" class="st11" d="M-246.66-128.09c0.2-0.46,0.43-0.9,0.68-1.33c0.54-0.93,1.14-1.83,1.79-2.69
				c0.65-0.86,1.36-1.67,2.12-2.43c0.35-0.35,0.71-0.69,1.1-1c-0.2,0.46-0.43,0.9-0.68,1.33c-1.08,1.87-2.4,3.59-3.91,5.12
				C-245.91-128.74-246.28-128.4-246.66-128.09z"/>
			<path id="Path_7145" class="st11" d="M-243.56-128.33c-0.11-0.35-0.2-0.71-0.28-1.07c-0.15-0.79-0.27-1.58-0.34-2.39
				c-0.05-0.8-0.06-1.61-0.03-2.41c0.02-0.37,0.05-0.74,0.11-1.1c0.11,0.35,0.21,0.71,0.28,1.07c0.15,0.79,0.27,1.58,0.33,2.39
				c0.05,0.8,0.06,1.61,0.03,2.41C-243.46-129.06-243.5-128.7-243.56-128.33z"/>
			<path id="Path_7146" class="st11" d="M-247.23-131.55c0.35-0.11,0.7-0.21,1.05-0.28c0.77-0.16,1.55-0.27,2.33-0.34
				c0.79-0.05,1.57-0.06,2.36-0.03c0.36,0.02,0.72,0.06,1.08,0.12c-0.34,0.12-0.7,0.21-1.05,0.28c-0.77,0.16-1.55,0.27-2.33,0.34
				c-0.79,0.05-1.57,0.06-2.36,0.03C-246.52-131.45-246.88-131.49-247.23-131.55z"/>
			<path id="Path_7147" class="st12" d="M-245.74-131.92c0-1.15,0.91-2.08,2.03-2.08c1.12,0,2.03,0.93,2.03,2.07
				c0,1.15-0.91,2.08-2.03,2.08c0,0,0,0,0,0C-244.83-129.85-245.74-130.78-245.74-131.92z"/>
		</g>
		<g id="Group_5808" transform="translate(8.021 166.97)">
			<path id="Path_7148" class="st11" d="M268.56-160c0.45,0.21,0.88,0.44,1.3,0.7c0.92,0.55,1.8,1.16,2.63,1.83
				c0.84,0.67,1.63,1.39,2.38,2.16c0.35,0.35,0.67,0.73,0.98,1.12c-0.45-0.2-0.88-0.43-1.3-0.69c-0.92-0.55-1.8-1.16-2.63-1.83
				c-0.84-0.67-1.63-1.39-2.38-2.16C269.19-159.23,268.87-159.61,268.56-160z"/>
			<path id="Path_7149" class="st11" d="M269.37-153.37c0.2-0.46,0.43-0.9,0.68-1.33c0.54-0.93,1.14-1.83,1.79-2.69
				c0.65-0.86,1.36-1.67,2.12-2.43c0.35-0.35,0.71-0.69,1.1-1c-0.2,0.46-0.43,0.9-0.68,1.33c-0.54,0.93-1.14,1.83-1.79,2.69
				c-0.65,0.86-1.36,1.67-2.12,2.43C270.12-154.01,269.75-153.68,269.37-153.37z"/>
			<path id="Path_7150" class="st11" d="M272.47-153.61c-0.11-0.35-0.2-0.71-0.28-1.07c-0.15-0.79-0.27-1.58-0.34-2.39
				c-0.05-0.8-0.06-1.61-0.03-2.41c0.02-0.37,0.06-0.74,0.11-1.1c0.11,0.35,0.21,0.71,0.28,1.07c0.15,0.79,0.27,1.58,0.33,2.39
				c0.05,0.8,0.06,1.61,0.03,2.41C272.57-154.34,272.53-153.97,272.47-153.61z"/>
			<path id="Path_7151" class="st11" d="M268.8-156.82c0.34-0.11,0.7-0.21,1.05-0.28c0.77-0.16,1.55-0.27,2.33-0.34
				c0.79-0.05,1.57-0.06,2.36-0.03c0.36,0.02,0.72,0.06,1.08,0.12c-0.34,0.12-0.7,0.21-1.05,0.28c-0.77,0.16-1.55,0.27-2.34,0.34
				c-0.79,0.05-1.57,0.06-2.36,0.03C269.52-156.73,269.16-156.77,268.8-156.82z"/>
			<ellipse id="Ellipse_451" class="st12" cx="272.32" cy="-157.2" rx="2.03" ry="2.07"/>
		</g>
		<g id="Group_5809" transform="translate(38.839 166.97)">
			<path id="Path_7152" class="st11" d="M208.11-160c0.45,0.21,0.88,0.44,1.3,0.7c0.92,0.55,1.8,1.16,2.63,1.83
				c0.84,0.67,1.63,1.39,2.38,2.16c0.35,0.35,0.67,0.73,0.98,1.12c-0.45-0.2-0.88-0.43-1.3-0.69c-0.92-0.55-1.8-1.17-2.64-1.84
				c-0.84-0.67-1.63-1.39-2.37-2.16C208.74-159.23,208.42-159.61,208.11-160z"/>
			<path id="Path_7153" class="st11" d="M208.92-153.37c0.2-0.46,0.43-0.9,0.68-1.33c0.54-0.93,1.14-1.83,1.79-2.69
				c0.65-0.86,1.36-1.67,2.12-2.43c0.35-0.35,0.71-0.69,1.1-1c-0.2,0.46-0.43,0.9-0.68,1.33c-0.54,0.93-1.14,1.83-1.79,2.69
				c-0.65,0.86-1.36,1.67-2.12,2.43C209.67-154.01,209.3-153.68,208.92-153.37z"/>
			<path id="Path_7154" class="st11" d="M212.02-153.61c-0.11-0.35-0.21-0.71-0.28-1.07c-0.15-0.79-0.26-1.58-0.33-2.39
				c-0.05-0.8-0.06-1.61-0.03-2.41c0.02-0.37,0.05-0.74,0.11-1.1c0.11,0.35,0.21,0.71,0.28,1.07c0.15,0.79,0.27,1.58,0.33,2.39
				c0.05,0.8,0.06,1.61,0.03,2.41C212.12-154.34,212.08-153.97,212.02-153.61z"/>
			<path id="Path_7155" class="st11" d="M208.35-156.82c0.34-0.11,0.7-0.21,1.05-0.28c0.77-0.16,1.55-0.27,2.34-0.34
				c0.79-0.05,1.57-0.06,2.36-0.03c0.36,0.02,0.72,0.06,1.08,0.12c-0.34,0.12-0.7,0.21-1.05,0.28c-0.77,0.16-1.55,0.27-2.33,0.34
				c-0.79,0.05-1.57,0.06-2.36,0.03C209.06-156.73,208.7-156.77,208.35-156.82z"/>
			<path id="Path_7156" class="st12" d="M209.83-157.2c0-1.15,0.9-2.08,2.03-2.08s2.03,0.93,2.04,2.07s-0.9,2.08-2.03,2.08
				c0,0,0,0,0,0C210.75-155.12,209.84-156.05,209.83-157.2C209.83-157.2,209.83-157.2,209.83-157.2z"/>
		</g>
		<g id="Group_5810" transform="translate(69.658 166.97)">
			<path id="Path_7157" class="st11" d="M147.66-160c0.45,0.21,0.88,0.44,1.3,0.7c0.92,0.55,1.8,1.16,2.63,1.83
				c0.84,0.67,1.63,1.39,2.38,2.16c0.35,0.35,0.67,0.73,0.98,1.12c-0.45-0.2-0.88-0.43-1.3-0.69c-0.91-0.55-1.79-1.17-2.63-1.84
				c-0.84-0.67-1.63-1.39-2.38-2.16C148.29-159.23,147.96-159.61,147.66-160z"/>
			<path id="Path_7158" class="st11" d="M148.46-153.37c0.2-0.46,0.43-0.9,0.68-1.33c0.54-0.93,1.14-1.83,1.79-2.69
				c0.65-0.86,1.36-1.67,2.12-2.43c0.35-0.35,0.71-0.69,1.1-1c-0.2,0.46-0.43,0.9-0.68,1.33c-0.54,0.93-1.14,1.83-1.79,2.69
				c-0.65,0.86-1.36,1.67-2.12,2.43C149.21-154.01,148.85-153.68,148.46-153.37z"/>
			<path id="Path_7159" class="st11" d="M151.57-153.61c-0.11-0.35-0.2-0.71-0.28-1.07c-0.15-0.79-0.27-1.58-0.34-2.39
				c-0.05-0.8-0.06-1.61-0.03-2.41c0.02-0.37,0.06-0.74,0.11-1.1c0.11,0.35,0.21,0.71,0.28,1.07c0.15,0.79,0.27,1.58,0.33,2.39
				c0.05,0.8,0.06,1.61,0.03,2.41C151.67-154.34,151.63-153.97,151.57-153.61z"/>
			<path id="Path_7160" class="st11" d="M147.89-156.82c0.35-0.11,0.7-0.21,1.05-0.28c0.77-0.16,1.55-0.27,2.33-0.34
				c0.79-0.05,1.57-0.06,2.36-0.03c0.36,0.02,0.72,0.06,1.08,0.12c-0.34,0.12-0.69,0.21-1.05,0.28c-0.77,0.16-1.55,0.27-2.34,0.34
				c-0.79,0.05-1.57,0.06-2.36,0.03C148.61-156.73,148.25-156.77,147.89-156.82z"/>
			<path id="Path_7161" class="st12" d="M149.38-157.2c0-1.15,0.91-2.08,2.03-2.08c1.12,0,2.03,0.93,2.03,2.07
				c0,1.15-0.91,2.08-2.03,2.08c0,0,0,0,0,0C150.29-155.13,149.38-156.05,149.38-157.2z"/>
		</g>
		<g id="Group_5811" transform="translate(100.478 166.97)">
			<path id="Path_7162" class="st11" d="M87.21-160c0.45,0.21,0.88,0.44,1.3,0.7c0.92,0.55,1.8,1.16,2.63,1.83
				c0.84,0.67,1.63,1.39,2.38,2.16c0.35,0.35,0.67,0.73,0.98,1.12c-0.45-0.2-0.88-0.43-1.3-0.69c-0.92-0.55-1.8-1.16-2.63-1.83
				c-0.84-0.67-1.63-1.39-2.38-2.16C87.84-159.23,87.51-159.61,87.21-160z"/>
			<path id="Path_7163" class="st11" d="M88.01-153.37c0.2-0.46,0.43-0.9,0.68-1.33c0.54-0.93,1.14-1.83,1.79-2.69
				c0.65-0.86,1.36-1.67,2.12-2.43c0.35-0.35,0.71-0.69,1.1-1c-0.2,0.46-0.43,0.9-0.68,1.33c-0.54,0.93-1.14,1.83-1.79,2.69
				c-0.65,0.86-1.36,1.67-2.12,2.43C88.76-154.01,88.4-153.68,88.01-153.37z"/>
			<path id="Path_7164" class="st11" d="M91.12-153.61c-0.11-0.35-0.21-0.71-0.28-1.07c-0.15-0.79-0.26-1.58-0.33-2.39
				c-0.05-0.8-0.06-1.61-0.03-2.41c0.02-0.37,0.06-0.74,0.12-1.1c0.11,0.35,0.21,0.71,0.28,1.07c0.16,0.79,0.27,1.58,0.33,2.39
				c0.05,0.8,0.06,1.61,0.03,2.41C91.21-154.34,91.18-153.97,91.12-153.61z"/>
			<path id="Path_7165" class="st11" d="M87.44-156.82c0.34-0.11,0.7-0.21,1.05-0.28c0.77-0.16,1.55-0.27,2.34-0.34
				c0.79-0.05,1.57-0.06,2.36-0.03c0.36,0.02,0.72,0.06,1.08,0.12c-0.34,0.12-0.7,0.21-1.05,0.28c-0.77,0.16-1.55,0.27-2.33,0.34
				c-0.79,0.05-1.57,0.06-2.36,0.03C88.16-156.73,87.8-156.77,87.44-156.82z"/>
			<path id="Path_7166" class="st12" d="M88.93-157.2c0-1.15,0.9-2.08,2.03-2.08s2.03,0.93,2.04,2.07s-0.9,2.08-2.03,2.08
				c0,0,0,0-0.01,0C89.84-155.13,88.93-156.05,88.93-157.2z"/>
		</g>
		<g id="Group_5812" transform="translate(131.296 166.97)">
			<path id="Path_7167" class="st11" d="M26.75-160c0.45,0.21,0.88,0.44,1.3,0.7c0.92,0.55,1.8,1.16,2.63,1.83
				c0.84,0.67,1.63,1.39,2.38,2.16c0.35,0.35,0.67,0.73,0.98,1.12c-0.45-0.2-0.88-0.43-1.3-0.69c-0.91-0.55-1.79-1.17-2.63-1.84
				c-0.84-0.67-1.63-1.39-2.38-2.16C27.39-159.23,27.06-159.61,26.75-160z"/>
			<path id="Path_7168" class="st11" d="M27.56-153.37c0.2-0.46,0.43-0.9,0.68-1.33c0.54-0.93,1.14-1.83,1.79-2.69
				c0.65-0.86,1.36-1.67,2.12-2.43c0.35-0.35,0.71-0.69,1.1-1c-0.2,0.46-0.43,0.9-0.68,1.33c-0.54,0.93-1.14,1.83-1.79,2.69
				c-0.65,0.86-1.36,1.67-2.12,2.43C28.31-154.01,27.94-153.68,27.56-153.37z"/>
			<path id="Path_7169" class="st11" d="M30.66-153.61c-0.11-0.35-0.2-0.71-0.28-1.07c-0.15-0.79-0.27-1.58-0.34-2.39
				c-0.05-0.8-0.06-1.61-0.03-2.41c0.02-0.37,0.05-0.74,0.11-1.1c0.11,0.35,0.21,0.71,0.28,1.07c0.15,0.79,0.27,1.58,0.33,2.39
				c0.05,0.8,0.06,1.61,0.03,2.41C30.76-154.34,30.72-153.97,30.66-153.61z"/>
			<path id="Path_7170" class="st11" d="M26.99-156.82c0.35-0.11,0.7-0.21,1.05-0.28c0.77-0.16,1.55-0.27,2.33-0.34
				c0.79-0.05,1.57-0.06,2.36-0.03c0.36,0.02,0.72,0.06,1.08,0.12c-0.34,0.12-0.7,0.21-1.05,0.28c-0.77,0.16-1.55,0.27-2.33,0.34
				c-0.79,0.05-1.57,0.06-2.36,0.03C27.71-156.73,27.35-156.77,26.99-156.82z"/>
			<ellipse id="Ellipse_452" class="st12" cx="30.51" cy="-157.2" rx="2.03" ry="2.07"/>
		</g>
		<g id="Group_5813" transform="translate(162.116 166.97)">
			<path id="Path_7171" class="st11" d="M-33.7-160c0.45,0.21,0.88,0.44,1.3,0.7c0.92,0.55,1.8,1.16,2.63,1.83
				c0.84,0.67,1.63,1.39,2.38,2.16c0.35,0.35,0.67,0.73,0.98,1.12c-0.45-0.2-0.88-0.43-1.3-0.69c-0.92-0.55-1.8-1.16-2.63-1.83
				c-0.84-0.67-1.63-1.39-2.38-2.16C-33.07-159.23-33.39-159.61-33.7-160z"/>
			<path id="Path_7172" class="st11" d="M-32.9-153.37c0.2-0.46,0.43-0.9,0.69-1.33c0.54-0.93,1.14-1.83,1.79-2.69
				c0.65-0.86,1.36-1.67,2.12-2.43c0.35-0.35,0.71-0.69,1.1-1c-0.2,0.46-0.43,0.9-0.68,1.33c-0.54,0.93-1.14,1.83-1.79,2.69
				c-0.65,0.86-1.36,1.67-2.12,2.43C-32.14-154.01-32.51-153.68-32.9-153.37z"/>
			<path id="Path_7173" class="st11" d="M-29.79-153.61c-0.11-0.35-0.21-0.71-0.28-1.07c-0.15-0.79-0.26-1.58-0.33-2.39
				c-0.05-0.8-0.06-1.61-0.03-2.41c0.02-0.37,0.06-0.74,0.11-1.1c0.11,0.35,0.21,0.71,0.28,1.07c0.16,0.79,0.27,1.58,0.33,2.39
				c0.05,0.8,0.06,1.61,0.03,2.41C-29.69-154.34-29.73-153.97-29.79-153.61z"/>
			<path id="Path_7174" class="st11" d="M-33.46-156.82c0.34-0.11,0.7-0.21,1.05-0.28c0.77-0.16,1.55-0.27,2.34-0.34
				c0.79-0.05,1.57-0.06,2.36-0.03c0.36,0.02,0.72,0.06,1.08,0.12c-0.34,0.12-0.7,0.21-1.05,0.28c-0.77,0.16-1.55,0.27-2.34,0.34
				c-0.79,0.05-1.57,0.06-2.36,0.03C-32.75-156.73-33.11-156.77-33.46-156.82z"/>
			<path id="Path_7175" class="st12" d="M-31.98-157.2c0-1.15,0.9-2.08,2.03-2.08c1.12,0,2.03,0.93,2.04,2.07s-0.9,2.08-2.03,2.08
				c0,0,0,0-0.01,0C-31.07-155.13-31.97-156.05-31.98-157.2z"/>
		</g>
		<g id="Group_5814" transform="translate(192.933 166.97)">
			<path id="Path_7176" class="st11" d="M-94.15-160c0.45,0.21,0.88,0.44,1.3,0.7c0.92,0.55,1.8,1.16,2.63,1.83
				c0.84,0.67,1.64,1.39,2.38,2.16c0.35,0.35,0.67,0.73,0.98,1.12c-0.45-0.2-0.88-0.43-1.3-0.69c-0.92-0.55-1.8-1.17-2.64-1.84
				c-0.84-0.67-1.63-1.39-2.37-2.16C-93.52-159.23-93.84-159.61-94.15-160z"/>
			<path id="Path_7177" class="st11" d="M-93.34-153.37c0.2-0.46,0.43-0.9,0.68-1.33c0.54-0.93,1.14-1.83,1.79-2.69
				c0.65-0.86,1.36-1.67,2.12-2.43c0.35-0.35,0.71-0.69,1.1-1c-0.2,0.46-0.43,0.9-0.68,1.33c-0.54,0.93-1.14,1.83-1.79,2.69
				c-0.65,0.86-1.36,1.67-2.12,2.43C-92.59-154.01-92.96-153.68-93.34-153.37z"/>
			<path id="Path_7178" class="st11" d="M-90.24-153.61c-0.11-0.35-0.21-0.71-0.28-1.07c-0.15-0.79-0.26-1.58-0.33-2.39
				c-0.05-0.8-0.06-1.61-0.03-2.41c0.02-0.37,0.05-0.74,0.11-1.1c0.11,0.35,0.21,0.71,0.28,1.07c0.15,0.79,0.27,1.58,0.33,2.39
				c0.05,0.8,0.06,1.61,0.03,2.41C-90.14-154.34-90.18-153.97-90.24-153.61z"/>
			<path id="Path_7179" class="st11" d="M-93.92-156.82c0.35-0.11,0.7-0.21,1.05-0.28c0.77-0.16,1.55-0.27,2.33-0.34
				c0.79-0.05,1.57-0.06,2.36-0.03c0.36,0.02,0.72,0.06,1.08,0.12c-0.34,0.12-0.7,0.21-1.05,0.28c-0.77,0.16-1.55,0.27-2.33,0.34
				c-0.79,0.05-1.57,0.06-2.36,0.03C-93.2-156.73-93.56-156.77-93.92-156.82z"/>
			<path id="Path_7180" class="st12" d="M-92.43-157.2c0-1.15,0.9-2.08,2.03-2.08s2.03,0.93,2.04,2.07s-0.9,2.08-2.03,2.08
				c0,0,0,0,0,0C-91.52-155.12-92.43-156.05-92.43-157.2C-92.43-157.2-92.43-157.2-92.43-157.2z"/>
		</g>
		<g id="Group_5815" transform="translate(223.753 166.97)">
			<path id="Path_7181" class="st11" d="M-154.6-160c0.45,0.21,0.88,0.44,1.3,0.7c0.92,0.55,1.8,1.16,2.63,1.83
				c0.84,0.67,1.63,1.39,2.38,2.16c0.35,0.35,0.67,0.73,0.98,1.12c-0.45-0.2-0.88-0.43-1.3-0.69c-0.92-0.55-1.8-1.16-2.63-1.83
				c-0.84-0.67-1.63-1.39-2.38-2.16C-153.97-159.23-154.3-159.61-154.6-160z"/>
			<path id="Path_7182" class="st11" d="M-153.8-153.37c0.2-0.46,0.43-0.9,0.68-1.33c0.54-0.93,1.14-1.83,1.79-2.69
				c0.65-0.86,1.36-1.67,2.12-2.43c0.35-0.35,0.71-0.69,1.1-1c-0.2,0.46-0.43,0.9-0.68,1.33c-0.54,0.93-1.14,1.83-1.79,2.69
				c-0.65,0.86-1.36,1.67-2.12,2.43C-153.05-154.01-153.42-153.68-153.8-153.37z"/>
			<path id="Path_7183" class="st11" d="M-150.69-153.61c-0.11-0.35-0.2-0.71-0.28-1.07c-0.15-0.79-0.27-1.58-0.34-2.39
				c-0.05-0.8-0.06-1.61-0.03-2.41c0.02-0.37,0.06-0.74,0.11-1.1c0.11,0.35,0.21,0.71,0.28,1.07c0.15,0.79,0.27,1.58,0.33,2.39
				c0.05,0.8,0.06,1.61,0.03,2.41C-150.6-154.34-150.63-153.97-150.69-153.61z"/>
			<path id="Path_7184" class="st11" d="M-154.37-156.82c0.34-0.11,0.7-0.21,1.05-0.28c0.77-0.16,1.55-0.27,2.33-0.34
				c0.79-0.05,1.57-0.06,2.36-0.03c0.36,0.02,0.72,0.06,1.08,0.12c-0.34,0.12-0.7,0.21-1.05,0.28c-0.77,0.16-1.55,0.27-2.34,0.34
				c-0.79,0.05-1.57,0.06-2.36,0.03C-153.65-156.73-154.01-156.77-154.37-156.82z"/>
			<ellipse id="Ellipse_453" class="st12" cx="-150.85" cy="-157.2" rx="2.03" ry="2.07"/>
		</g>
		<g id="Group_5816" transform="translate(254.571 166.97)">
			<path id="Path_7185" class="st11" d="M-215.06-160c0.45,0.21,0.88,0.44,1.3,0.7c0.92,0.55,1.8,1.16,2.63,1.83
				c0.84,0.67,1.63,1.39,2.38,2.16c0.35,0.35,0.67,0.73,0.98,1.12c-0.45-0.2-0.88-0.43-1.3-0.69c-0.92-0.55-1.8-1.17-2.64-1.84
				c-0.84-0.67-1.63-1.39-2.38-2.16C-214.42-159.23-214.75-159.61-215.06-160z"/>
			<path id="Path_7186" class="st11" d="M-214.25-153.37c0.2-0.46,0.43-0.9,0.68-1.33c0.54-0.93,1.14-1.83,1.79-2.69
				c0.65-0.86,1.36-1.67,2.12-2.43c0.35-0.35,0.71-0.69,1.1-1c-0.2,0.46-0.43,0.9-0.68,1.33c-0.54,0.93-1.14,1.83-1.79,2.69
				c-0.65,0.86-1.36,1.67-2.12,2.43C-213.5-154.01-213.87-153.68-214.25-153.37z"/>
			<path id="Path_7187" class="st11" d="M-211.14-153.61c-0.11-0.35-0.21-0.71-0.28-1.07c-0.15-0.79-0.26-1.58-0.33-2.39
				c-0.05-0.8-0.06-1.61-0.03-2.41c0.02-0.37,0.05-0.74,0.11-1.1c0.11,0.35,0.21,0.71,0.28,1.07c0.15,0.79,0.27,1.58,0.33,2.39
				c0.05,0.8,0.06,1.61,0.03,2.41C-211.05-154.34-211.09-153.97-211.14-153.61z"/>
			<path id="Path_7188" class="st11" d="M-214.82-156.82c0.34-0.11,0.7-0.21,1.05-0.28c0.77-0.16,1.55-0.27,2.34-0.34
				c0.79-0.05,1.57-0.06,2.36-0.03c0.36,0.02,0.72,0.06,1.08,0.12c-0.34,0.12-0.7,0.21-1.05,0.28c-0.77,0.16-1.55,0.27-2.33,0.34
				c-0.79,0.05-1.57,0.06-2.36,0.03C-214.1-156.73-214.46-156.77-214.82-156.82z"/>
			<ellipse id="Ellipse_454" class="st12" cx="-211.3" cy="-157.2" rx="2.03" ry="2.07"/>
		</g>
		<g id="Group_5817" transform="translate(285.391 166.97)">
			<path id="Path_7189" class="st11" d="M-275.51-160c0.45,0.21,0.88,0.44,1.3,0.7c0.92,0.55,1.8,1.16,2.63,1.83
				c0.84,0.67,1.63,1.39,2.38,2.16c0.35,0.35,0.67,0.73,0.98,1.12c-0.45-0.2-0.88-0.43-1.3-0.69c-0.91-0.55-1.79-1.17-2.63-1.84
				c-0.84-0.67-1.63-1.39-2.38-2.16C-274.88-159.23-275.2-159.61-275.51-160z"/>
			<path id="Path_7190" class="st11" d="M-274.7-153.37c0.2-0.46,0.43-0.9,0.68-1.33c0.54-0.93,1.14-1.83,1.79-2.69
				c0.65-0.86,1.36-1.67,2.12-2.43c0.35-0.35,0.71-0.69,1.1-1c-0.2,0.46-0.43,0.9-0.68,1.33c-0.54,0.93-1.14,1.83-1.79,2.69
				c-0.65,0.86-1.36,1.67-2.12,2.43C-273.95-154.01-274.32-153.68-274.7-153.37z"/>
			<path id="Path_7191" class="st11" d="M-271.6-153.61c-0.11-0.35-0.2-0.71-0.28-1.07c-0.15-0.79-0.27-1.58-0.34-2.39
				c-0.05-0.8-0.06-1.61-0.03-2.41c0.02-0.37,0.06-0.74,0.11-1.1c0.11,0.35,0.21,0.71,0.28,1.07c0.15,0.79,0.27,1.58,0.33,2.39
				c0.05,0.8,0.06,1.61,0.03,2.41C-271.5-154.34-271.54-153.97-271.6-153.61z"/>
			<path id="Path_7192" class="st11" d="M-275.28-156.82c0.35-0.11,0.7-0.21,1.05-0.28c0.77-0.16,1.55-0.27,2.33-0.34
				c0.79-0.05,1.57-0.06,2.36-0.03c0.36,0.02,0.72,0.06,1.08,0.12c-0.34,0.12-0.69,0.21-1.05,0.28c-0.77,0.16-1.55,0.27-2.34,0.34
				c-0.79,0.05-1.57,0.06-2.36,0.03C-274.56-156.73-274.92-156.77-275.28-156.82z"/>
			<path id="Path_7193" class="st12" d="M-273.78-157.2c0-1.15,0.91-2.08,2.03-2.08c1.12,0,2.03,0.93,2.03,2.07
				c0,1.15-0.91,2.08-2.03,2.08c0,0,0,0,0,0C-272.87-155.13-273.78-156.05-273.78-157.2z"/>
		</g>
		<g id="Group_5818" transform="translate(282.684 138.001)">
			<path id="Path_7194" class="st11" d="M-268.02-95.89c0.14-0.44,0.31-0.87,0.5-1.29c0.18-0.37,0.36-0.82,0.61-1.26l0.78-1.4
				l0.87-1.34c0.27-0.43,0.59-0.79,0.83-1.12c0.28-0.36,0.58-0.71,0.9-1.04c-0.14,0.44-0.31,0.87-0.5,1.29
				c-0.18,0.37-0.36,0.82-0.61,1.26c-0.25,0.44-0.51,0.92-0.78,1.4l-0.87,1.34c-0.28,0.43-0.59,0.79-0.83,1.12
				C-267.4-96.57-267.7-96.22-268.02-95.89z"/>
			<path id="Path_7195" class="st11" d="M-262.9-96.72c-0.37-0.23-0.72-0.47-1.06-0.74c-0.29-0.25-0.66-0.51-1.01-0.84l-1.1-1.03
				c-0.35-0.38-0.69-0.75-1.02-1.11c-0.32-0.35-0.59-0.72-0.83-1.02c-0.26-0.35-0.51-0.71-0.73-1.08c0.37,0.22,0.72,0.47,1.07,0.74
				c0.29,0.25,0.66,0.51,1.01,0.84l1.1,1.03l1.02,1.11c0.33,0.35,0.59,0.72,0.83,1.02C-263.37-97.45-263.13-97.09-262.9-96.72z"/>
			<path id="Path_7196" class="st11" d="M-263.09-99.89c-0.27,0.11-0.54,0.19-0.82,0.26c-0.61,0.15-1.22,0.25-1.84,0.32
				c-0.62,0.05-1.24,0.07-1.87,0.05c-0.29-0.01-0.57-0.04-0.85-0.09c0.27-0.11,0.54-0.19,0.82-0.26c0.6-0.15,1.22-0.25,1.83-0.32
				c0.62-0.06,1.24-0.07,1.87-0.05C-263.66-99.97-263.37-99.94-263.09-99.89z"/>
			<path id="Path_7197" class="st11" d="M-265.57-96.13c-0.1-0.35-0.18-0.71-0.24-1.08c-0.12-0.65-0.2-1.52-0.28-2.39
				c-0.03-0.87-0.05-1.75-0.01-2.4c0.02-0.37,0.05-0.74,0.11-1.1c0.1,0.36,0.18,0.72,0.24,1.08c0.12,0.64,0.21,1.51,0.28,2.38
				c0.03,0.87,0.05,1.75,0.01,2.4C-265.48-96.87-265.52-96.5-265.57-96.13z"/>
			<path id="Path_7198" class="st12" d="M-265.86-97.65c-1-0.13-1.71-1.05-1.6-2.07c-0.1-1.02,0.61-1.94,1.6-2.07
				c0.99,0.13,1.71,1.05,1.6,2.07C-264.16-98.71-264.87-97.79-265.86-97.65z"/>
		</g>
		<g id="Group_5819" transform="translate(282.684 107.253)">
			<path id="Path_7199" class="st11" d="M-268.02-34.89c0.14-0.44,0.31-0.87,0.5-1.29c0.18-0.37,0.36-0.82,0.61-1.26l0.78-1.4
				l0.87-1.34c0.27-0.43,0.59-0.79,0.83-1.12c0.28-0.36,0.58-0.71,0.9-1.04c-0.14,0.44-0.31,0.87-0.5,1.29
				c-0.18,0.37-0.36,0.82-0.61,1.26l-0.78,1.4c-0.3,0.45-0.59,0.91-0.87,1.34c-0.27,0.43-0.59,0.79-0.83,1.12
				C-267.4-35.57-267.71-35.22-268.02-34.89z"/>
			<path id="Path_7200" class="st11" d="M-262.9-35.71c-0.37-0.22-0.72-0.47-1.06-0.74c-0.29-0.25-0.66-0.51-1.01-0.84
				c-0.35-0.33-0.72-0.68-1.1-1.03c-0.35-0.38-0.69-0.75-1.02-1.11s-0.59-0.72-0.83-1.02c-0.26-0.34-0.51-0.7-0.73-1.08
				c0.37,0.22,0.72,0.47,1.07,0.74c0.29,0.25,0.66,0.51,1.01,0.84c0.35,0.33,0.72,0.68,1.1,1.03c0.35,0.38,0.69,0.75,1.02,1.11
				s0.59,0.72,0.83,1.02C-263.37-36.44-263.13-36.09-262.9-35.71z"/>
			<path id="Path_7201" class="st11" d="M-263.09-38.88c-0.27,0.1-0.55,0.19-0.82,0.26c-0.61,0.14-1.22,0.25-1.84,0.32
				c-0.62,0.05-1.24,0.07-1.87,0.05c-0.29-0.01-0.57-0.04-0.85-0.09c0.27-0.11,0.54-0.19,0.82-0.26c0.6-0.15,1.22-0.25,1.83-0.32
				c0.62-0.06,1.24-0.07,1.87-0.05C-263.66-38.96-263.37-38.93-263.09-38.88z"/>
			<path id="Path_7202" class="st11" d="M-265.57-35.13c-0.1-0.36-0.18-0.72-0.24-1.08c-0.12-0.64-0.2-1.51-0.28-2.38
				c-0.03-0.87-0.05-1.75-0.01-2.4c0.02-0.37,0.05-0.74,0.11-1.1c0.1,0.35,0.18,0.71,0.24,1.08c0.12,0.65,0.21,1.52,0.28,2.39
				c0.03,0.87,0.05,1.75,0.01,2.4C-265.48-35.86-265.52-35.49-265.57-35.13z"/>
			<ellipse id="Ellipse_455" class="st12" cx="-265.86" cy="-38.73" rx="1.6" ry="2.07"/>
		</g>
		<g id="Group_5820" transform="translate(282.684 76.506)">
			<path id="Path_7203" class="st11" d="M-268.02,26.11c0.14-0.44,0.31-0.87,0.5-1.29c0.18-0.37,0.36-0.82,0.61-1.26
				s0.51-0.92,0.78-1.4l0.87-1.34c0.27-0.43,0.59-0.79,0.83-1.13c0.28-0.36,0.58-0.71,0.9-1.04c-0.14,0.44-0.31,0.87-0.5,1.29
				c-0.18,0.37-0.36,0.82-0.61,1.26l-0.78,1.4l-0.87,1.34c-0.28,0.43-0.59,0.79-0.83,1.12C-267.4,25.43-267.71,25.78-268.02,26.11z"
				/>
			<path id="Path_7204" class="st11" d="M-262.9,25.29c-0.37-0.23-0.72-0.47-1.06-0.74c-0.29-0.25-0.66-0.51-1.01-0.84l-1.1-1.03
				l-1.02-1.1c-0.33-0.35-0.59-0.73-0.83-1.02c-0.26-0.35-0.51-0.71-0.73-1.08c0.37,0.22,0.72,0.47,1.07,0.74
				c0.29,0.25,0.66,0.51,1.01,0.84l1.1,1.03l1.02,1.11c0.33,0.35,0.59,0.72,0.83,1.02C-263.37,24.56-263.13,24.92-262.9,25.29z"/>
			<path id="Path_7205" class="st11" d="M-263.09,22.12c-0.27,0.11-0.54,0.19-0.82,0.26c-0.61,0.15-1.22,0.25-1.84,0.32
				c-0.62,0.05-1.24,0.07-1.87,0.05c-0.29-0.01-0.57-0.04-0.85-0.09c0.27-0.1,0.55-0.19,0.82-0.26c0.6-0.14,1.22-0.25,1.83-0.32
				c0.62-0.06,1.24-0.07,1.87-0.05C-263.66,22.04-263.37,22.07-263.09,22.12z"/>
			<path id="Path_7206" class="st11" d="M-265.57,25.87c-0.1-0.36-0.18-0.72-0.24-1.08c-0.12-0.65-0.2-1.52-0.28-2.39
				c-0.03-0.87-0.05-1.75-0.01-2.4c0.02-0.37,0.05-0.74,0.11-1.1c0.1,0.36,0.18,0.72,0.24,1.08c0.12,0.64,0.21,1.52,0.28,2.38
				c0.03,0.87,0.05,1.75,0.01,2.41C-265.48,25.14-265.52,25.51-265.57,25.87z"/>
			<ellipse id="Ellipse_456" class="st12" cx="-265.86" cy="22.28" rx="1.6" ry="2.07"/>
		</g>
		<g id="Group_5821" transform="translate(300.728 152.118)">
			<path id="Path_7207" class="st11" d="M-302.88-123.9c0.12-0.43,0.27-0.86,0.43-1.27c0.16-0.37,0.32-0.81,0.54-1.25
				c0.22-0.44,0.46-0.92,0.69-1.39c0.27-0.46,0.53-0.92,0.78-1.34c0.25-0.43,0.53-0.8,0.75-1.14c0.26-0.37,0.53-0.72,0.82-1.05
				c-0.12,0.43-0.27,0.86-0.43,1.27c-0.16,0.37-0.32,0.81-0.54,1.26c-0.22,0.45-0.46,0.92-0.69,1.39l-0.78,1.34
				c-0.25,0.43-0.53,0.8-0.75,1.13C-302.32-124.59-302.59-124.24-302.88-123.9z"/>
			<path id="Path_7208" class="st11" d="M-298.3-124.73c-0.34-0.23-0.66-0.49-0.97-0.75c-0.26-0.25-0.6-0.52-0.92-0.85
				c-0.31-0.33-0.65-0.68-0.98-1.03c-0.31-0.37-0.62-0.75-0.91-1.1c-0.29-0.35-0.52-0.72-0.74-1.01c-0.23-0.34-0.45-0.69-0.64-1.06
				c0.34,0.23,0.66,0.49,0.97,0.76c0.26,0.25,0.6,0.52,0.92,0.85c0.31,0.33,0.65,0.68,0.98,1.03c0.31,0.37,0.62,0.75,0.91,1.1
				c0.29,0.35,0.52,0.72,0.73,1.01C-298.71-125.44-298.49-125.09-298.3-124.73z"/>
			<path id="Path_7209" class="st11" d="M-298.46-127.9c-0.24,0.1-0.49,0.18-0.74,0.25c-0.54,0.14-1.09,0.25-1.64,0.31
				c-0.56,0.06-1.11,0.07-1.67,0.06c-0.26-0.01-0.51-0.04-0.77-0.08c0.24-0.1,0.48-0.18,0.73-0.25c0.54-0.14,1.09-0.25,1.64-0.31
				c0.56-0.06,1.11-0.07,1.67-0.06C-298.97-127.97-298.72-127.94-298.46-127.9z"/>
			<path id="Path_7210" class="st11" d="M-300.69-124.14c0,0-0.12-0.43-0.22-1.08c-0.11-0.65-0.19-1.52-0.26-2.39
				c-0.03-0.87-0.05-1.75,0-2.4c0.02-0.37,0.05-0.73,0.11-1.1c0,0,0.12,0.43,0.22,1.08s0.19,1.52,0.26,2.39
				c0.03,0.87,0.04,1.75,0,2.4C-300.63-124.58-300.69-124.14-300.69-124.14z"/>
			<path id="Path_7211" class="st12" d="M-300.95-125.66c-0.79,0-1.44-0.93-1.44-2.07c0-1.15,0.64-2.07,1.44-2.07
				s1.43,0.93,1.43,2.07S-300.16-125.66-300.95-125.66z"/>
		</g>
		<g id="Group_5822" transform="translate(300.728 121.37)">
			<path id="Path_7212" class="st11" d="M-302.88-62.9c0.12-0.43,0.27-0.86,0.43-1.27c0.16-0.37,0.32-0.81,0.54-1.25l0.69-1.39
				l0.78-1.34c0.25-0.43,0.53-0.8,0.75-1.14c0.26-0.37,0.53-0.72,0.82-1.05c-0.12,0.43-0.27,0.86-0.43,1.27
				c-0.16,0.37-0.32,0.81-0.54,1.25c-0.22,0.44-0.46,0.92-0.69,1.39l-0.78,1.34c-0.25,0.43-0.53,0.8-0.75,1.13
				C-302.32-63.59-302.59-63.24-302.88-62.9z"/>
			<path id="Path_7213" class="st11" d="M-298.3-63.72c-0.34-0.23-0.66-0.49-0.97-0.76c-0.26-0.25-0.6-0.52-0.92-0.85l-0.98-1.03
				l-0.91-1.1c-0.29-0.35-0.52-0.72-0.74-1.01c-0.23-0.34-0.45-0.69-0.64-1.06c0.34,0.23,0.66,0.48,0.97,0.75
				c0.26,0.25,0.6,0.52,0.92,0.85l0.98,1.03c0.31,0.37,0.62,0.75,0.91,1.1c0.29,0.35,0.52,0.72,0.73,1.01
				C-298.71-64.44-298.49-64.09-298.3-63.72z"/>
			<path id="Path_7214" class="st11" d="M-298.46-66.89c-0.24,0.1-0.49,0.18-0.74,0.25c-0.54,0.14-1.09,0.25-1.64,0.32
				c-0.56,0.05-1.11,0.07-1.67,0.05c-0.26-0.01-0.51-0.04-0.77-0.08c0.24-0.1,0.48-0.18,0.73-0.25c0.54-0.14,1.09-0.25,1.64-0.31
				c0.56-0.05,1.11-0.07,1.67-0.05C-298.97-66.97-298.72-66.94-298.46-66.89z"/>
			<path id="Path_7215" class="st11" d="M-300.69-63.14c0,0-0.12-0.43-0.22-1.08c-0.11-0.65-0.19-1.52-0.26-2.39
				c-0.03-0.87-0.05-1.74,0-2.4c0.02-0.37,0.05-0.73,0.11-1.1c0,0,0.12,0.43,0.22,1.08s0.19,1.52,0.26,2.39
				c0.03,0.87,0.04,1.75,0,2.4C-300.63-63.58-300.69-63.14-300.69-63.14z"/>
			<ellipse id="Ellipse_457" class="st12" cx="-300.95" cy="-66.73" rx="1.44" ry="2.07"/>
		</g>
		<g id="Group_5823" transform="translate(300.728 90.625)">
			<path id="Path_7216" class="st11" d="M-302.88-1.9c0.12-0.43,0.27-0.86,0.43-1.27c0.16-0.37,0.32-0.81,0.54-1.25
				c0.22-0.44,0.46-0.92,0.69-1.39c0.27-0.46,0.53-0.91,0.78-1.34c0.25-0.43,0.53-0.8,0.75-1.14c0.26-0.37,0.53-0.72,0.82-1.05
				c-0.12,0.43-0.27,0.86-0.43,1.27c-0.16,0.37-0.32,0.81-0.54,1.26c-0.22,0.45-0.46,0.92-0.69,1.39c-0.27,0.46-0.53,0.92-0.78,1.34
				c-0.25,0.43-0.53,0.8-0.75,1.13C-302.32-2.59-302.59-2.24-302.88-1.9z"/>
			<path id="Path_7217" class="st11" d="M-298.3-2.72c-0.34-0.23-0.66-0.49-0.97-0.76c-0.26-0.25-0.6-0.52-0.92-0.85
				c-0.31-0.33-0.65-0.68-0.98-1.03c-0.31-0.37-0.62-0.75-0.91-1.1c-0.29-0.35-0.52-0.72-0.74-1.01c-0.23-0.34-0.45-0.69-0.64-1.06
				c0.34,0.23,0.66,0.48,0.97,0.75c0.26,0.25,0.6,0.52,0.92,0.85l0.98,1.03c0.31,0.37,0.62,0.75,0.91,1.1
				c0.29,0.35,0.52,0.72,0.73,1.01C-298.71-3.44-298.49-3.09-298.3-2.72z"/>
			<path id="Path_7218" class="st11" d="M-298.46-5.89c-0.24,0.1-0.49,0.18-0.74,0.25c-0.54,0.14-1.09,0.25-1.64,0.31
				c-0.56,0.06-1.11,0.07-1.67,0.06c-0.26-0.01-0.51-0.04-0.77-0.08c0.24-0.1,0.48-0.18,0.73-0.25c0.54-0.14,1.09-0.25,1.64-0.31
				c0.56-0.06,1.11-0.07,1.67-0.05C-298.97-5.97-298.72-5.94-298.46-5.89z"/>
			<path id="Path_7219" class="st11" d="M-300.69-2.14c0,0-0.12-0.43-0.22-1.08c-0.11-0.65-0.19-1.52-0.26-2.39
				c-0.03-0.87-0.05-1.75,0-2.4c0.02-0.37,0.05-0.73,0.11-1.09c0,0,0.12,0.43,0.22,1.08s0.19,1.52,0.26,2.39
				c0.03,0.87,0.04,1.74,0,2.4C-300.63-2.58-300.69-2.14-300.69-2.14z"/>
			<ellipse id="Ellipse_458" class="st12" cx="-300.95" cy="-5.73" rx="1.44" ry="2.07"/>
		</g>
		<g id="Group_5824" transform="translate(282.684 47.376)">
			<path id="Path_7220" class="st11" d="M-268.02,83.91c0.14-0.44,0.31-0.87,0.5-1.29c0.18-0.37,0.36-0.82,0.61-1.26l0.78-1.4
				l0.87-1.34c0.27-0.43,0.59-0.79,0.83-1.12c0.28-0.36,0.58-0.71,0.9-1.04c-0.14,0.44-0.31,0.87-0.5,1.29
				c-0.18,0.37-0.36,0.82-0.61,1.26c-0.25,0.44-0.51,0.92-0.78,1.4c-0.3,0.45-0.59,0.91-0.87,1.34s-0.59,0.79-0.83,1.12
				C-267.4,83.23-267.71,83.58-268.02,83.91z"/>
			<path id="Path_7221" class="st11" d="M-262.9,83.08c-0.37-0.22-0.72-0.47-1.06-0.74c-0.29-0.25-0.66-0.51-1.01-0.84
				c-0.35-0.33-0.72-0.68-1.1-1.03c-0.35-0.38-0.69-0.75-1.02-1.11c-0.32-0.35-0.59-0.72-0.83-1.02c-0.26-0.35-0.51-0.71-0.73-1.08
				c0.37,0.23,0.72,0.47,1.07,0.74c0.29,0.25,0.66,0.51,1.01,0.84s0.72,0.68,1.1,1.03l1.02,1.11c0.33,0.35,0.59,0.72,0.83,1.02
				C-263.37,82.35-263.13,82.71-262.9,83.08z"/>
			<path id="Path_7222" class="st11" d="M-263.09,79.91c-0.27,0.1-0.55,0.19-0.82,0.26c-0.61,0.14-1.22,0.25-1.84,0.32
				c-0.62,0.05-1.24,0.07-1.87,0.05c-0.29-0.01-0.57-0.04-0.85-0.09c0.27-0.11,0.54-0.19,0.82-0.26c0.6-0.15,1.22-0.25,1.83-0.32
				c0.62-0.06,1.24-0.07,1.87-0.05C-263.66,79.83-263.37,79.86-263.09,79.91z"/>
			<path id="Path_7223" class="st11" d="M-265.57,83.67c-0.1-0.36-0.18-0.72-0.24-1.08c-0.12-0.64-0.2-1.51-0.28-2.38
				c-0.03-0.87-0.05-1.75-0.01-2.4c0.02-0.37,0.05-0.74,0.11-1.1c0.1,0.35,0.18,0.71,0.24,1.08c0.12,0.65,0.21,1.52,0.28,2.39
				c0.03,0.87,0.05,1.75,0.01,2.4C-265.48,82.94-265.52,83.3-265.57,83.67z"/>
			<path id="Path_7224" class="st12" d="M-265.86,82.15c-1-0.13-1.71-1.05-1.6-2.07c-0.1-1.02,0.61-1.94,1.6-2.07
				c0.99,0.13,1.7,1.05,1.6,2.07C-264.16,81.09-264.87,82.01-265.86,82.15z"/>
		</g>
		<g id="Group_5825" transform="translate(282.684 16.628)">
			<path id="Path_7225" class="st11" d="M-268.02,144.91c0.14-0.44,0.31-0.87,0.5-1.29c0.18-0.37,0.36-0.82,0.61-1.26
				c0.25-0.44,0.51-0.92,0.78-1.4l0.87-1.34c0.27-0.43,0.59-0.79,0.83-1.13c0.28-0.36,0.58-0.71,0.9-1.04
				c-0.14,0.44-0.31,0.87-0.5,1.29c-0.18,0.37-0.36,0.82-0.61,1.26l-0.78,1.4l-0.87,1.34c-0.28,0.43-0.59,0.79-0.83,1.12
				C-267.4,144.23-267.71,144.58-268.02,144.91z"/>
			<path id="Path_7226" class="st11" d="M-262.9,144.09c-0.37-0.23-0.72-0.47-1.06-0.74c-0.29-0.25-0.66-0.51-1.01-0.84l-1.1-1.03
				l-1.02-1.1c-0.33-0.35-0.59-0.73-0.83-1.02c-0.26-0.35-0.51-0.71-0.73-1.08c0.37,0.22,0.72,0.47,1.07,0.74
				c0.29,0.25,0.66,0.51,1.01,0.84s0.72,0.68,1.1,1.03c0.35,0.38,0.69,0.75,1.02,1.11c0.32,0.35,0.59,0.72,0.83,1.02
				C-263.37,143.36-263.13,143.71-262.9,144.09z"/>
			<path id="Path_7227" class="st11" d="M-263.09,140.92c-0.27,0.1-0.55,0.19-0.82,0.26c-0.61,0.15-1.22,0.25-1.84,0.32
				c-0.62,0.05-1.24,0.07-1.87,0.05c-0.29-0.01-0.57-0.05-0.86-0.1c0.27-0.1,0.55-0.19,0.82-0.26c0.61-0.14,1.22-0.25,1.84-0.31
				c0.62-0.06,1.24-0.07,1.87-0.05C-263.66,140.84-263.37,140.87-263.09,140.92z"/>
			<path id="Path_7228" class="st11" d="M-265.57,144.67c-0.1-0.36-0.18-0.72-0.24-1.08c-0.12-0.65-0.2-1.52-0.28-2.39
				c-0.03-0.87-0.05-1.75-0.01-2.4c0.02-0.37,0.05-0.74,0.11-1.1c0.1,0.36,0.18,0.72,0.24,1.08c0.12,0.64,0.21,1.52,0.28,2.38
				c0.03,0.87,0.05,1.75,0.01,2.41C-265.48,143.94-265.52,144.31-265.57,144.67z"/>
			<ellipse id="Ellipse_459" class="st12" cx="-265.86" cy="141.08" rx="1.6" ry="2.07"/>
		</g>
		<g id="Group_5826" transform="translate(285.991 1.323)">
			<path id="Path_7229" class="st11" d="M-285.11,256.65c0.14-0.44,0.31-0.87,0.5-1.29c0.18-0.37,0.36-0.82,0.61-1.26l0.78-1.4
				l0.87-1.34c0.28-0.43,0.59-0.79,0.83-1.13c0.28-0.36,0.58-0.71,0.9-1.04c-0.14,0.44-0.31,0.87-0.5,1.29
				c-0.18,0.37-0.36,0.82-0.61,1.26l-0.78,1.4c-0.3,0.45-0.59,0.91-0.87,1.34c-0.28,0.43-0.59,0.79-0.83,1.12
				C-284.5,255.97-284.8,256.32-285.11,256.65z"/>
			<path id="Path_7230" class="st11" d="M-279.99,255.83c-0.37-0.23-0.72-0.47-1.06-0.74c-0.29-0.25-0.66-0.51-1.01-0.84
				c-0.35-0.33-0.72-0.68-1.1-1.03l-1.02-1.1c-0.33-0.35-0.59-0.73-0.83-1.02c-0.26-0.35-0.51-0.71-0.73-1.08
				c0.37,0.22,0.72,0.47,1.07,0.74c0.29,0.25,0.66,0.51,1.01,0.84l1.1,1.03l1.02,1.11c0.33,0.35,0.59,0.72,0.83,1.02
				C-280.46,255.09-280.22,255.45-279.99,255.83z"/>
			<path id="Path_7231" class="st11" d="M-280.18,252.66c-0.27,0.1-0.54,0.19-0.82,0.26c-0.61,0.15-1.22,0.25-1.84,0.32
				c-0.62,0.05-1.24,0.07-1.87,0.05c-0.29-0.01-0.57-0.05-0.86-0.1c0.27-0.11,0.54-0.19,0.83-0.26c0.61-0.14,1.22-0.25,1.84-0.31
				c0.62-0.05,1.24-0.07,1.87-0.05C-280.75,252.57-280.46,252.61-280.18,252.66z"/>
			<path id="Path_7232" class="st11" d="M-282.66,256.41c0,0-0.12-0.43-0.24-1.08c-0.11-0.65-0.2-1.52-0.28-2.38
				c-0.04-0.8-0.04-1.6-0.01-2.41c0.02-0.37,0.05-0.74,0.11-1.1c0.1,0.36,0.18,0.72,0.24,1.08c0.13,0.65,0.21,1.52,0.28,2.38
				c0.03,0.87,0.05,1.75,0.01,2.41C-282.6,255.97-282.66,256.41-282.66,256.41z"/>
			<ellipse id="Ellipse_460" class="st12" cx="-282.95" cy="252.81" rx="1.6" ry="2.07"/>
		</g>
		<g id="Group_5827" transform="translate(300.728 61.493)">
			<path id="Path_7233" class="st11" d="M-302.88,55.9c0.12-0.43,0.27-0.86,0.43-1.27c0.16-0.37,0.32-0.81,0.54-1.25l0.69-1.39
				l0.78-1.34c0.25-0.43,0.53-0.8,0.75-1.14c0.26-0.37,0.53-0.72,0.82-1.05c-0.12,0.43-0.27,0.86-0.43,1.27
				c-0.16,0.37-0.32,0.81-0.54,1.25c-0.22,0.44-0.46,0.92-0.69,1.39l-0.78,1.34c-0.25,0.43-0.53,0.8-0.75,1.13
				C-302.32,55.21-302.59,55.56-302.88,55.9z"/>
			<path id="Path_7234" class="st11" d="M-298.3,55.08c-0.34-0.23-0.66-0.49-0.97-0.76c-0.26-0.25-0.6-0.52-0.92-0.85
				c-0.31-0.33-0.65-0.68-0.98-1.03l-0.91-1.1c-0.29-0.35-0.52-0.72-0.74-1.01c-0.23-0.34-0.45-0.69-0.64-1.06
				c0.34,0.23,0.66,0.49,0.97,0.76c0.26,0.25,0.6,0.52,0.92,0.85l0.98,1.03c0.31,0.37,0.62,0.75,0.91,1.1
				c0.29,0.35,0.52,0.72,0.73,1.01C-298.71,54.36-298.49,54.71-298.3,55.08z"/>
			<path id="Path_7235" class="st11" d="M-298.46,51.9c-0.24,0.1-0.49,0.18-0.74,0.25c-0.54,0.14-1.09,0.25-1.64,0.32
				c-0.56,0.05-1.11,0.07-1.67,0.05c-0.26-0.01-0.51-0.04-0.77-0.08c0.24-0.1,0.48-0.19,0.73-0.25c0.54-0.14,1.09-0.25,1.64-0.31
				c0.56-0.05,1.11-0.07,1.67-0.05C-298.97,51.83-298.72,51.86-298.46,51.9z"/>
			<path id="Path_7236" class="st11" d="M-300.69,55.66c0,0-0.12-0.43-0.22-1.08c-0.11-0.65-0.19-1.52-0.26-2.39
				c-0.03-0.87-0.05-1.75,0-2.4c0.02-0.37,0.05-0.73,0.11-1.1c0,0,0.12,0.43,0.22,1.08c0.1,0.65,0.19,1.52,0.26,2.39
				c0.03,0.87,0.04,1.75,0,2.4C-300.63,55.22-300.69,55.66-300.69,55.66z"/>
			<path id="Path_7237" class="st12" d="M-300.95,54.14c-0.79,0-1.44-0.93-1.44-2.07c0-1.15,0.64-2.07,1.44-2.07
				s1.43,0.93,1.43,2.07C-299.51,53.21-300.16,54.14-300.95,54.14z"/>
		</g>
		<g id="Group_5828" transform="translate(300.728 30.747)">
			<path id="Path_7238" class="st11" d="M-302.88,116.9c0.12-0.43,0.27-0.86,0.43-1.27c0.16-0.37,0.32-0.81,0.54-1.25
				c0.22-0.44,0.46-0.92,0.69-1.39c0.27-0.46,0.53-0.91,0.78-1.34c0.25-0.43,0.53-0.8,0.75-1.14c0.26-0.37,0.53-0.72,0.82-1.05
				c-0.12,0.43-0.27,0.86-0.43,1.27c-0.16,0.37-0.32,0.81-0.54,1.26c-0.22,0.45-0.46,0.92-0.69,1.39l-0.78,1.34
				c-0.25,0.43-0.53,0.8-0.75,1.13C-302.32,116.21-302.59,116.56-302.88,116.9z"/>
			<path id="Path_7239" class="st11" d="M-298.3,116.08c-0.34-0.23-0.66-0.49-0.97-0.76c-0.26-0.25-0.6-0.52-0.92-0.85l-0.98-1.03
				l-0.91-1.1c-0.29-0.35-0.52-0.72-0.74-1.01c-0.23-0.34-0.45-0.69-0.64-1.06c0.34,0.23,0.66,0.48,0.97,0.75
				c0.26,0.25,0.6,0.52,0.92,0.85c0.31,0.33,0.65,0.68,0.98,1.03c0.31,0.38,0.62,0.75,0.91,1.1c0.29,0.35,0.52,0.72,0.73,1.01
				C-298.71,115.36-298.49,115.71-298.3,116.08z"/>
			<path id="Path_7240" class="st11" d="M-298.46,112.9c-0.24,0.1-0.49,0.18-0.74,0.25c-0.54,0.14-1.09,0.25-1.64,0.31
				c-0.56,0.06-1.11,0.07-1.67,0.06c-0.26-0.01-0.51-0.04-0.77-0.08c0.24-0.1,0.48-0.18,0.73-0.25c0.54-0.14,1.09-0.25,1.64-0.31
				c0.56-0.05,1.11-0.07,1.67-0.05C-298.97,112.83-298.72,112.86-298.46,112.9z"/>
			<path id="Path_7241" class="st11" d="M-300.69,116.66c0,0-0.12-0.43-0.22-1.08c-0.11-0.65-0.19-1.52-0.26-2.39
				c-0.03-0.87-0.05-1.75,0-2.4c0.02-0.37,0.05-0.73,0.11-1.1c0,0,0.12,0.43,0.22,1.08c0.1,0.65,0.19,1.52,0.26,2.39
				c0.03,0.87,0.04,1.74,0,2.4C-300.63,116.22-300.69,116.66-300.69,116.66z"/>
			<ellipse id="Ellipse_461" class="st12" cx="-300.95" cy="113.06" rx="1.44" ry="2.07"/>
		</g>
		<g id="Group_5829" transform="translate(300.728 0)">
			<path id="Path_7242" class="st11" d="M-302.88,177.9c0.12-0.43,0.27-0.86,0.43-1.27c0.16-0.37,0.32-0.81,0.54-1.25
				c0.22-0.44,0.46-0.92,0.69-1.39c0.27-0.46,0.53-0.92,0.78-1.34c0.25-0.43,0.53-0.8,0.75-1.14c0.26-0.37,0.53-0.72,0.82-1.05
				c-0.12,0.43-0.27,0.86-0.43,1.27c-0.16,0.36-0.32,0.81-0.54,1.26c-0.22,0.45-0.46,0.92-0.69,1.39l-0.78,1.34
				c-0.25,0.43-0.53,0.8-0.75,1.13C-302.32,177.21-302.59,177.56-302.88,177.9z"/>
			<path id="Path_7243" class="st11" d="M-298.3,177.08c-0.34-0.23-0.66-0.49-0.97-0.75c-0.26-0.25-0.6-0.52-0.92-0.85
				c-0.31-0.33-0.65-0.68-0.98-1.03c-0.31-0.37-0.62-0.75-0.91-1.1c-0.29-0.35-0.52-0.72-0.74-1.01c-0.23-0.34-0.45-0.69-0.64-1.06
				c0.34,0.23,0.66,0.49,0.97,0.76c0.26,0.25,0.6,0.52,0.92,0.85l0.98,1.03l0.91,1.1c0.29,0.35,0.52,0.72,0.73,1.01
				C-298.71,176.36-298.49,176.71-298.3,177.08z"/>
			<path id="Path_7244" class="st11" d="M-298.46,173.91c-0.24,0.1-0.49,0.18-0.74,0.25c-0.54,0.14-1.09,0.25-1.64,0.31
				c-0.56,0.06-1.11,0.07-1.67,0.06c-0.26-0.01-0.51-0.04-0.77-0.08c0.24-0.1,0.48-0.18,0.73-0.25c0.54-0.14,1.09-0.25,1.64-0.31
				c0.56-0.06,1.11-0.07,1.67-0.06C-298.97,173.83-298.72,173.86-298.46,173.91z"/>
			<path id="Path_7245" class="st11" d="M-300.69,177.66c0,0-0.12-0.43-0.22-1.08c-0.11-0.65-0.19-1.52-0.26-2.39
				c-0.03-0.87-0.05-1.75,0-2.4c0.02-0.37,0.05-0.73,0.11-1.1c0,0,0.12,0.43,0.22,1.08c0.1,0.65,0.19,1.52,0.26,2.39
				c0.03,0.87,0.04,1.75,0,2.4C-300.63,177.22-300.69,177.66-300.69,177.66z"/>
			<ellipse id="Ellipse_462" class="st12" cx="-300.95" cy="174.07" rx="1.44" ry="2.07"/>
		</g>
		<g id="Group_5820_1_" transform="translate(282.684 76.506)">
			<path id="Path_7203_1_" class="st11" d="M-268.02,116.94c0.14-0.44,0.31-0.87,0.5-1.29c0.18-0.37,0.36-0.82,0.61-1.26
				s0.51-0.92,0.78-1.4l0.87-1.34c0.27-0.43,0.59-0.79,0.83-1.13c0.28-0.36,0.58-0.71,0.9-1.04c-0.14,0.44-0.31,0.87-0.5,1.29
				c-0.18,0.37-0.36,0.82-0.61,1.26l-0.78,1.4l-0.87,1.34c-0.28,0.43-0.59,0.79-0.83,1.12
				C-267.4,116.26-267.71,116.61-268.02,116.94z"/>
			<path id="Path_7204_1_" class="st11" d="M-262.9,116.12c-0.37-0.23-0.72-0.47-1.06-0.74c-0.29-0.25-0.66-0.51-1.01-0.84
				l-1.1-1.03l-1.02-1.1c-0.33-0.35-0.59-0.73-0.83-1.02c-0.26-0.35-0.51-0.71-0.73-1.08c0.37,0.22,0.72,0.47,1.07,0.74
				c0.29,0.25,0.66,0.51,1.01,0.84l1.1,1.03l1.02,1.11c0.33,0.35,0.59,0.72,0.83,1.02C-263.37,115.38-263.13,115.74-262.9,116.12z"
				/>
			<path id="Path_7205_1_" class="st11" d="M-263.09,112.94c-0.27,0.11-0.54,0.19-0.82,0.26c-0.61,0.15-1.22,0.25-1.84,0.32
				c-0.62,0.05-1.24,0.07-1.87,0.05c-0.29-0.01-0.57-0.04-0.85-0.09c0.27-0.1,0.55-0.19,0.82-0.26c0.6-0.14,1.22-0.25,1.83-0.32
				c0.62-0.06,1.24-0.07,1.87-0.05C-263.66,112.86-263.37,112.89-263.09,112.94z"/>
			<path id="Path_7206_1_" class="st11" d="M-265.57,116.7c-0.1-0.36-0.18-0.72-0.24-1.08c-0.12-0.65-0.2-1.52-0.28-2.39
				c-0.03-0.87-0.05-1.75-0.01-2.4c0.02-0.37,0.05-0.74,0.11-1.1c0.1,0.36,0.18,0.72,0.24,1.08c0.12,0.64,0.21,1.52,0.28,2.38
				c0.03,0.87,0.05,1.75,0.01,2.41C-265.48,115.97-265.52,116.34-265.57,116.7z"/>
			<ellipse id="Ellipse_456_1_" class="st12" cx="-265.86" cy="113.11" rx="1.6" ry="2.07"/>
		</g>
		<g id="Group_5824_1_" transform="translate(282.684 47.376)">
			<path id="Path_7220_1_" class="st11" d="M-268.02,174.73c0.14-0.44,0.31-0.87,0.5-1.29c0.18-0.37,0.36-0.82,0.61-1.26l0.78-1.4
				l0.87-1.34c0.27-0.43,0.59-0.79,0.83-1.12c0.28-0.36,0.58-0.71,0.9-1.04c-0.14,0.44-0.31,0.87-0.5,1.29
				c-0.18,0.37-0.36,0.82-0.61,1.26c-0.25,0.44-0.51,0.92-0.78,1.4c-0.3,0.45-0.59,0.91-0.87,1.34c-0.27,0.43-0.59,0.79-0.83,1.12
				C-267.4,174.06-267.71,174.4-268.02,174.73z"/>
			<path id="Path_7221_1_" class="st11" d="M-262.9,173.91c-0.37-0.22-0.72-0.47-1.06-0.74c-0.29-0.25-0.66-0.51-1.01-0.84
				c-0.35-0.33-0.72-0.68-1.1-1.03c-0.35-0.38-0.69-0.75-1.02-1.11c-0.32-0.35-0.59-0.72-0.83-1.02c-0.26-0.35-0.51-0.71-0.73-1.08
				c0.37,0.23,0.72,0.47,1.07,0.74c0.29,0.25,0.66,0.51,1.01,0.84s0.72,0.68,1.1,1.03l1.02,1.11c0.33,0.35,0.59,0.72,0.83,1.02
				C-263.37,173.18-263.13,173.54-262.9,173.91z"/>
			<path id="Path_7222_1_" class="st11" d="M-263.09,170.74c-0.27,0.1-0.55,0.19-0.82,0.26c-0.61,0.14-1.22,0.25-1.84,0.32
				c-0.62,0.05-1.24,0.07-1.87,0.05c-0.29-0.01-0.57-0.04-0.85-0.09c0.27-0.11,0.54-0.19,0.82-0.26c0.6-0.15,1.22-0.25,1.83-0.32
				c0.62-0.06,1.24-0.07,1.87-0.05C-263.66,170.66-263.37,170.69-263.09,170.74z"/>
			<path id="Path_7223_1_" class="st11" d="M-265.57,174.49c-0.1-0.36-0.18-0.72-0.24-1.08c-0.12-0.64-0.2-1.51-0.28-2.38
				c-0.03-0.87-0.05-1.75-0.01-2.4c0.02-0.37,0.05-0.74,0.11-1.1c0.1,0.35,0.18,0.71,0.24,1.08c0.12,0.65,0.21,1.52,0.28,2.39
				c0.03,0.87,0.05,1.75,0.01,2.4C-265.48,173.76-265.52,174.13-265.57,174.49z"/>
			<path id="Path_7224_1_" class="st12" d="M-265.86,172.97c-1-0.13-1.71-1.05-1.6-2.07c-0.1-1.02,0.61-1.94,1.6-2.07
				c0.99,0.13,1.7,1.05,1.6,2.07C-264.16,171.92-264.87,172.84-265.86,172.97z"/>
		</g>
		<g id="Group_5825_1_" transform="translate(282.684 16.628)">
			<path id="Path_7225_1_" class="st11" d="M-268.02,235.74c0.14-0.44,0.31-0.87,0.5-1.29c0.18-0.37,0.36-0.82,0.61-1.26
				c0.25-0.44,0.51-0.92,0.78-1.4l0.87-1.34c0.27-0.43,0.59-0.79,0.83-1.13c0.28-0.36,0.58-0.71,0.9-1.04
				c-0.14,0.44-0.31,0.87-0.5,1.29c-0.18,0.37-0.36,0.82-0.61,1.26l-0.78,1.4l-0.87,1.34c-0.28,0.43-0.59,0.79-0.83,1.12
				C-267.4,235.06-267.71,235.41-268.02,235.74z"/>
			<path id="Path_7226_1_" class="st11" d="M-262.9,234.92c-0.37-0.23-0.72-0.47-1.06-0.74c-0.29-0.25-0.66-0.51-1.01-0.84
				l-1.1-1.03l-1.02-1.1c-0.33-0.35-0.59-0.73-0.83-1.02c-0.26-0.35-0.51-0.71-0.73-1.08c0.37,0.22,0.72,0.47,1.07,0.74
				c0.29,0.25,0.66,0.51,1.01,0.84s0.72,0.68,1.1,1.03c0.35,0.38,0.69,0.75,1.02,1.11s0.59,0.72,0.83,1.02
				C-263.37,234.18-263.13,234.54-262.9,234.92z"/>
			<path id="Path_7227_1_" class="st11" d="M-263.09,231.75c-0.27,0.1-0.55,0.19-0.82,0.26c-0.61,0.15-1.22,0.25-1.84,0.32
				c-0.62,0.05-1.24,0.07-1.87,0.05c-0.29-0.01-0.57-0.05-0.86-0.1c0.27-0.1,0.55-0.19,0.82-0.26c0.61-0.14,1.22-0.25,1.84-0.31
				c0.62-0.06,1.24-0.07,1.87-0.05C-263.66,231.66-263.37,231.7-263.09,231.75z"/>
			<path id="Path_7228_1_" class="st11" d="M-265.57,235.5c-0.1-0.36-0.18-0.72-0.24-1.08c-0.12-0.65-0.2-1.52-0.28-2.39
				c-0.03-0.87-0.05-1.75-0.01-2.4c0.02-0.37,0.05-0.74,0.11-1.1c0.1,0.36,0.18,0.72,0.24,1.08c0.12,0.64,0.21,1.52,0.28,2.38
				c0.03,0.87,0.05,1.75,0.01,2.41C-265.48,234.77-265.52,235.13-265.57,235.5z"/>
			<ellipse id="Ellipse_459_1_" class="st12" cx="-265.86" cy="231.9" rx="1.6" ry="2.07"/>
		</g>
		<g id="Group_5827_1_" transform="translate(300.728 61.493)">
			<path id="Path_7233_1_" class="st11" d="M-302.88,146.73c0.12-0.43,0.27-0.86,0.43-1.27c0.16-0.37,0.32-0.81,0.54-1.25l0.69-1.39
				l0.78-1.34c0.25-0.43,0.53-0.8,0.75-1.14c0.26-0.37,0.53-0.72,0.82-1.05c-0.12,0.43-0.27,0.86-0.43,1.27
				c-0.16,0.37-0.32,0.81-0.54,1.25c-0.22,0.44-0.46,0.92-0.69,1.39l-0.78,1.34c-0.25,0.43-0.53,0.8-0.75,1.13
				C-302.32,146.04-302.59,146.39-302.88,146.73z"/>
			<path id="Path_7234_1_" class="st11" d="M-298.3,145.9c-0.34-0.23-0.66-0.49-0.97-0.76c-0.26-0.25-0.6-0.52-0.92-0.85
				c-0.31-0.33-0.65-0.68-0.98-1.03l-0.91-1.1c-0.29-0.35-0.52-0.72-0.74-1.01c-0.23-0.34-0.45-0.69-0.64-1.06
				c0.34,0.23,0.66,0.49,0.97,0.76c0.26,0.25,0.6,0.52,0.92,0.85l0.98,1.03c0.31,0.37,0.62,0.75,0.91,1.1
				c0.29,0.35,0.52,0.72,0.73,1.01C-298.71,145.19-298.49,145.54-298.3,145.9z"/>
			<path id="Path_7235_1_" class="st11" d="M-298.46,142.73c-0.24,0.1-0.49,0.18-0.74,0.25c-0.54,0.14-1.09,0.25-1.64,0.32
				c-0.56,0.05-1.11,0.07-1.67,0.05c-0.26-0.01-0.51-0.04-0.77-0.08c0.24-0.1,0.48-0.19,0.73-0.25c0.54-0.14,1.09-0.25,1.64-0.31
				c0.56-0.05,1.11-0.07,1.67-0.05C-298.97,142.66-298.72,142.69-298.46,142.73z"/>
			<path id="Path_7236_1_" class="st11" d="M-300.69,146.49c0,0-0.12-0.43-0.22-1.08c-0.11-0.65-0.19-1.52-0.26-2.39
				c-0.03-0.87-0.05-1.75,0-2.4c0.02-0.37,0.05-0.73,0.11-1.1c0,0,0.12,0.43,0.22,1.08s0.19,1.52,0.26,2.39
				c0.03,0.87,0.04,1.75,0,2.4C-300.63,146.05-300.69,146.49-300.69,146.49z"/>
			<path id="Path_7237_1_" class="st12" d="M-300.95,144.97c-0.79,0-1.44-0.93-1.44-2.07s0.64-2.07,1.44-2.07s1.43,0.93,1.43,2.07
				S-300.16,144.97-300.95,144.97z"/>
		</g>
		<g id="Group_5828_1_" transform="translate(300.728 30.747)">
			<path id="Path_7238_1_" class="st11" d="M-302.88,207.73c0.12-0.43,0.27-0.86,0.43-1.27c0.16-0.37,0.32-0.81,0.54-1.25
				c0.22-0.44,0.46-0.92,0.69-1.39c0.27-0.46,0.53-0.91,0.78-1.34c0.25-0.43,0.53-0.8,0.75-1.14c0.26-0.37,0.53-0.72,0.82-1.05
				c-0.12,0.43-0.27,0.86-0.43,1.27c-0.16,0.37-0.32,0.81-0.54,1.26c-0.22,0.45-0.46,0.92-0.69,1.39l-0.78,1.34
				c-0.25,0.43-0.53,0.8-0.75,1.13C-302.32,207.04-302.59,207.39-302.88,207.73z"/>
			<path id="Path_7239_1_" class="st11" d="M-298.3,206.9c-0.34-0.23-0.66-0.49-0.97-0.76c-0.26-0.25-0.6-0.52-0.92-0.85l-0.98-1.03
				l-0.91-1.1c-0.29-0.35-0.52-0.72-0.74-1.01c-0.23-0.34-0.45-0.69-0.64-1.06c0.34,0.23,0.66,0.48,0.97,0.75
				c0.26,0.25,0.6,0.52,0.92,0.85c0.31,0.33,0.65,0.68,0.98,1.03c0.31,0.38,0.62,0.75,0.91,1.1c0.29,0.35,0.52,0.72,0.73,1.01
				C-298.71,206.19-298.49,206.54-298.3,206.9z"/>
			<path id="Path_7240_1_" class="st11" d="M-298.46,203.73c-0.24,0.1-0.49,0.18-0.74,0.25c-0.54,0.14-1.09,0.25-1.64,0.31
				c-0.56,0.06-1.11,0.07-1.67,0.06c-0.26-0.01-0.51-0.04-0.77-0.08c0.24-0.1,0.48-0.18,0.73-0.25c0.54-0.14,1.09-0.25,1.64-0.31
				c0.56-0.05,1.11-0.07,1.67-0.05C-298.97,203.66-298.72,203.69-298.46,203.73z"/>
			<path id="Path_7241_1_" class="st11" d="M-300.69,207.49c0,0-0.12-0.43-0.22-1.08c-0.11-0.65-0.19-1.52-0.26-2.39
				c-0.03-0.87-0.05-1.75,0-2.4c0.02-0.37,0.05-0.73,0.11-1.1c0,0,0.12,0.43,0.22,1.08c0.1,0.65,0.19,1.52,0.26,2.39
				c0.03,0.87,0.04,1.74,0,2.4C-300.63,207.05-300.69,207.49-300.69,207.49z"/>
			<ellipse id="Ellipse_461_1_" class="st12" cx="-300.95" cy="203.89" rx="1.44" ry="2.07"/>
		</g>
		<g id="Group_5830" transform="translate(0 90.625)">
			<path id="Path_7246" class="st11" d="M286.47-9.35c0.32,0.33,0.62,0.68,0.9,1.04c0.24,0.33,0.55,0.7,0.83,1.12
				c0.28,0.43,0.58,0.89,0.87,1.34l0.78,1.4c0.25,0.44,0.43,0.89,0.61,1.26c0.19,0.42,0.36,0.85,0.5,1.29
				c-0.32-0.33-0.62-0.68-0.9-1.04c-0.24-0.33-0.55-0.69-0.82-1.12l-0.87-1.34l-0.78-1.4c-0.25-0.44-0.43-0.89-0.61-1.26
				C286.78-8.48,286.62-8.91,286.47-9.35z"/>
			<path id="Path_7247" class="st11" d="M291.59-8.53c-0.22,0.37-0.47,0.73-0.73,1.08c-0.25,0.3-0.51,0.67-0.83,1.02
				c-0.33,0.35-0.67,0.73-1.02,1.11l-1.1,1.03c-0.35,0.33-0.72,0.59-1.01,0.84c-0.34,0.27-0.7,0.51-1.07,0.74
				c0.22-0.37,0.47-0.73,0.73-1.08c0.25-0.3,0.5-0.67,0.83-1.02l1.02-1.11c0.37-0.35,0.75-0.7,1.1-1.03
				c0.35-0.33,0.72-0.59,1.01-0.84C290.87-8.06,291.22-8.3,291.59-8.53z"/>
			<path id="Path_7248" class="st11" d="M291.41-5.36c-0.29,0.05-0.58,0.08-0.87,0.1c-0.62,0.02-1.24,0-1.86-0.05
				c-0.62-0.07-1.23-0.18-1.84-0.32c-0.28-0.07-0.55-0.16-0.82-0.26c0.28-0.05,0.57-0.08,0.86-0.09c0.62-0.02,1.24-0.01,1.86,0.05
				c0.62,0.07,1.23,0.18,1.84,0.32C290.86-5.55,291.14-5.46,291.41-5.36z"/>
			<path id="Path_7249" class="st11" d="M288.92-9.11c0.05,0.36,0.09,0.73,0.11,1.1c0.05,0.66,0.03,1.53-0.01,2.4
				c-0.07,0.87-0.16,1.74-0.28,2.39c-0.06,0.36-0.14,0.72-0.24,1.08c-0.06-0.36-0.09-0.73-0.11-1.1c-0.05-0.66-0.02-1.53,0.01-2.4
				c0.07-0.87,0.16-1.74,0.28-2.39C288.74-8.39,288.82-8.75,288.92-9.11z"/>
			<ellipse id="Ellipse_463" class="st12" cx="288.63" cy="-5.51" rx="1.6" ry="2.07"/>
		</g>
		<g id="Group_5831" transform="translate(0 121.37)">
			<path id="Path_7250" class="st11" d="M286.47-70.35c0.32,0.33,0.62,0.68,0.9,1.04c0.24,0.33,0.55,0.7,0.83,1.12l0.87,1.34
				l0.78,1.4c0.25,0.44,0.43,0.89,0.61,1.26c0.19,0.42,0.36,0.85,0.5,1.29c-0.32-0.33-0.62-0.68-0.9-1.04
				c-0.24-0.33-0.55-0.7-0.82-1.13l-0.87-1.34l-0.78-1.4c-0.25-0.44-0.43-0.89-0.61-1.26C286.78-69.48,286.61-69.91,286.47-70.35z"
				/>
			<path id="Path_7251" class="st11" d="M291.59-69.53c-0.22,0.37-0.47,0.74-0.73,1.08c-0.25,0.3-0.51,0.67-0.83,1.02
				c-0.33,0.35-0.67,0.73-1.02,1.11l-1.1,1.02c-0.35,0.33-0.72,0.59-1.01,0.84c-0.34,0.27-0.7,0.51-1.07,0.74
				c0.22-0.37,0.47-0.73,0.73-1.08c0.25-0.3,0.5-0.67,0.83-1.02l1.02-1.1l1.1-1.03c0.35-0.33,0.72-0.59,1.01-0.84
				C290.87-69.06,291.22-69.3,291.59-69.53z"/>
			<path id="Path_7252" class="st11" d="M291.41-66.36c-0.29,0.05-0.58,0.09-0.87,0.1c-0.62,0.02-1.24,0-1.86-0.05
				c-0.62-0.07-1.23-0.18-1.84-0.32c-0.28-0.07-0.55-0.16-0.82-0.26c0.28-0.05,0.57-0.08,0.86-0.1c0.62-0.02,1.24,0,1.86,0.05
				c0.62,0.07,1.23,0.18,1.84,0.32C290.86-66.55,291.14-66.46,291.41-66.36z"/>
			<path id="Path_7253" class="st11" d="M288.92-70.11c0.05,0.36,0.09,0.73,0.11,1.1c0.05,0.66,0.03,1.53-0.01,2.41
				c-0.07,0.87-0.16,1.74-0.28,2.38c-0.06,0.36-0.14,0.73-0.24,1.08c-0.06-0.36-0.09-0.73-0.11-1.1c-0.05-0.66-0.02-1.53,0.01-2.41
				c0.07-0.87,0.16-1.74,0.28-2.39C288.74-69.39,288.82-69.76,288.92-70.11z"/>
			<ellipse id="Ellipse_464" class="st12" cx="288.63" cy="-66.51" rx="1.6" ry="2.07"/>
		</g>
		<g id="Group_5832" transform="translate(0 152.118)">
			<path id="Path_7254" class="st11" d="M286.47-131.35c0.32,0.33,0.62,0.68,0.9,1.04c0.24,0.33,0.55,0.7,0.83,1.12l0.87,1.34
				l0.78,1.4c0.25,0.44,0.43,0.89,0.61,1.26c0.19,0.42,0.36,0.85,0.5,1.29c-0.32-0.33-0.62-0.68-0.9-1.04
				c-0.24-0.33-0.55-0.7-0.82-1.12c-0.27-0.43-0.58-0.89-0.87-1.34c-0.26-0.48-0.53-0.95-0.78-1.4c-0.25-0.45-0.43-0.89-0.61-1.26
				C286.78-130.48,286.62-130.91,286.47-131.35z"/>
			<path id="Path_7255" class="st11" d="M291.59-130.53c-0.22,0.37-0.47,0.74-0.73,1.08c-0.25,0.3-0.51,0.67-0.83,1.02
				c-0.33,0.35-0.67,0.73-1.02,1.11l-1.1,1.02c-0.35,0.33-0.72,0.59-1.01,0.84c-0.34,0.27-0.7,0.51-1.07,0.74
				c0.22-0.37,0.47-0.73,0.73-1.08c0.25-0.3,0.5-0.67,0.83-1.02l1.02-1.11l1.1-1.03c0.35-0.33,0.72-0.59,1.01-0.84
				C290.87-130.06,291.22-130.31,291.59-130.53z"/>
			<path id="Path_7256" class="st11" d="M291.41-127.36c-0.29,0.05-0.58,0.08-0.87,0.09c-0.62,0.02-1.24,0.01-1.86-0.05
				c-0.62-0.07-1.23-0.18-1.84-0.32c-0.28-0.07-0.55-0.16-0.82-0.26c0.28-0.05,0.57-0.08,0.86-0.1c0.62-0.02,1.24,0,1.86,0.06
				c0.62,0.07,1.23,0.18,1.84,0.32C290.86-127.55,291.14-127.46,291.41-127.36z"/>
			<path id="Path_7257" class="st11" d="M288.92-131.11c0.05,0.36,0.09,0.73,0.11,1.1c0.05,0.66,0.03,1.53-0.01,2.4
				c-0.07,0.87-0.16,1.74-0.28,2.38c-0.06,0.36-0.14,0.73-0.24,1.08c-0.06-0.36-0.09-0.73-0.11-1.1c-0.05-0.66-0.02-1.53,0.01-2.4
				c0.07-0.87,0.16-1.74,0.28-2.39C288.74-130.4,288.82-130.76,288.92-131.11z"/>
			<ellipse id="Ellipse_465" class="st12" cx="288.63" cy="-127.52" rx="1.6" ry="2.07"/>
		</g>
		<g id="Group_5833" transform="translate(18.044 76.506)">
			<path id="Path_7258" class="st11" d="M251.61,18.66c0.29,0.34,0.57,0.69,0.82,1.05c0.21,0.33,0.5,0.71,0.75,1.14
				c0.25,0.43,0.52,0.89,0.78,1.34l0.69,1.39c0.22,0.44,0.38,0.89,0.54,1.25c0.17,0.42,0.31,0.84,0.43,1.27
				c-0.29-0.34-0.57-0.69-0.82-1.06c-0.22-0.33-0.5-0.7-0.75-1.13l-0.78-1.34l-0.69-1.39c-0.22-0.44-0.38-0.89-0.54-1.25
				C251.88,19.52,251.73,19.09,251.61,18.66z"/>
			<path id="Path_7259" class="st11" d="M256.2,19.48c-0.19,0.37-0.41,0.72-0.64,1.06c-0.22,0.3-0.44,0.66-0.74,1.01
				s-0.6,0.73-0.91,1.1l-0.98,1.03c-0.31,0.33-0.65,0.6-0.91,0.85c-0.31,0.27-0.63,0.52-0.97,0.76c0.19-0.36,0.41-0.72,0.64-1.06
				c0.22-0.3,0.44-0.66,0.74-1.01l0.91-1.1l0.98-1.03c0.31-0.33,0.65-0.6,0.92-0.85C255.54,19.97,255.86,19.72,256.2,19.48z"/>
			<path id="Path_7260" class="st11" d="M256.03,22.65c-0.25,0.05-0.51,0.08-0.77,0.09c-0.56,0.02-1.12,0-1.67-0.05
				c-0.55-0.07-1.1-0.17-1.64-0.31c-0.25-0.07-0.5-0.15-0.74-0.25c0.25-0.04,0.51-0.07,0.77-0.08c0.56-0.02,1.12,0,1.67,0.05
				c0.55,0.07,1.1,0.18,1.65,0.32C255.55,22.47,255.79,22.55,256.03,22.65z"/>
			<path id="Path_7261" class="st11" d="M253.81,18.9c0,0,0.07,0.44,0.11,1.1c0.04,0.66,0.03,1.53,0,2.4
				c-0.07,0.87-0.14,1.74-0.26,2.39s-0.23,1.08-0.23,1.08s-0.07-0.44-0.11-1.1c-0.04-0.66-0.03-1.53,0-2.4
				c0.07-0.87,0.14-1.74,0.26-2.39C253.7,19.33,253.81,18.9,253.81,18.9z"/>
			<path id="Path_7262" class="st12" d="M253.55,20.42c-0.79,0-1.44,0.93-1.44,2.07c0,1.15,0.64,2.07,1.44,2.07
				c0.79,0,1.43-0.93,1.43-2.07S254.34,20.42,253.55,20.42z"/>
		</g>
		<g id="Group_5834" transform="translate(18.044 107.253)">
			<path id="Path_7263" class="st11" d="M251.61-42.34c0.29,0.34,0.57,0.69,0.82,1.05c0.22,0.33,0.5,0.7,0.75,1.13
				c0.25,0.43,0.52,0.89,0.78,1.34c0.24,0.47,0.47,0.95,0.69,1.39c0.22,0.44,0.38,0.89,0.54,1.25c0.17,0.42,0.31,0.84,0.43,1.27
				c-0.29-0.34-0.57-0.69-0.82-1.05c-0.22-0.33-0.5-0.7-0.75-1.13c-0.25-0.43-0.52-0.89-0.78-1.34c-0.24-0.47-0.47-0.95-0.69-1.39
				c-0.22-0.45-0.38-0.89-0.54-1.25C251.88-41.48,251.73-41.91,251.61-42.34z"/>
			<path id="Path_7264" class="st11" d="M256.2-41.52c-0.19,0.37-0.41,0.72-0.64,1.06c-0.22,0.3-0.44,0.66-0.74,1.01
				s-0.6,0.73-0.91,1.1l-0.98,1.03c-0.31,0.33-0.65,0.6-0.91,0.85c-0.31,0.27-0.63,0.52-0.97,0.75c0.19-0.36,0.41-0.72,0.64-1.06
				c0.22-0.3,0.44-0.66,0.74-1.01l0.91-1.1l0.98-1.03c0.31-0.33,0.65-0.6,0.92-0.85C255.54-41.03,255.86-41.28,256.2-41.52z"/>
			<path id="Path_7265" class="st11" d="M256.03-38.35c-0.25,0.04-0.51,0.07-0.77,0.08c-0.56,0.02-1.12,0-1.67-0.05
				c-0.55-0.07-1.1-0.17-1.64-0.31c-0.25-0.07-0.5-0.15-0.74-0.25c0.25-0.05,0.51-0.07,0.77-0.08c0.56-0.02,1.12,0,1.67,0.05
				c0.55,0.07,1.1,0.17,1.65,0.31C255.55-38.53,255.79-38.45,256.03-38.35z"/>
			<path id="Path_7266" class="st11" d="M253.81-42.1c0,0,0.07,0.44,0.11,1.1c0.04,0.66,0.03,1.53,0,2.4
				c-0.07,0.87-0.14,1.74-0.26,2.39c-0.11,0.65-0.23,1.08-0.23,1.08s-0.07-0.44-0.11-1.1c-0.04-0.66-0.03-1.53,0-2.4
				c0.07-0.87,0.14-1.74,0.26-2.39C253.7-41.67,253.81-42.1,253.81-42.1z"/>
			<ellipse id="Ellipse_466" class="st12" cx="253.55" cy="-38.51" rx="1.44" ry="2.07"/>
		</g>
		<g id="Group_5835" transform="translate(18.044 138.001)">
			<path id="Path_7267" class="st11" d="M251.61-103.34c0.29,0.34,0.57,0.69,0.82,1.05c0.21,0.34,0.5,0.71,0.75,1.14l0.78,1.34
				c0.24,0.47,0.47,0.95,0.69,1.39c0.22,0.44,0.38,0.89,0.54,1.25c0.17,0.42,0.31,0.84,0.43,1.27c-0.29-0.34-0.57-0.69-0.82-1.05
				c-0.22-0.33-0.5-0.7-0.75-1.13l-0.78-1.34c-0.24-0.47-0.47-0.95-0.69-1.39c-0.22-0.44-0.38-0.89-0.54-1.25
				C251.88-102.49,251.73-102.91,251.61-103.34z"/>
			<path id="Path_7268" class="st11" d="M256.2-102.52c-0.19,0.37-0.41,0.72-0.64,1.06c-0.22,0.3-0.44,0.66-0.74,1.01l-0.91,1.1
				l-0.98,1.03c-0.31,0.33-0.65,0.6-0.91,0.85c-0.31,0.27-0.63,0.52-0.97,0.76c0.19-0.37,0.41-0.72,0.64-1.06
				c0.22-0.3,0.44-0.66,0.74-1.01c0.29-0.35,0.6-0.73,0.91-1.1c0.34-0.35,0.67-0.7,0.98-1.03s0.65-0.6,0.92-0.85
				C255.54-102.04,255.86-102.29,256.2-102.52z"/>
			<path id="Path_7269" class="st11" d="M256.03-99.35c-0.25,0.05-0.51,0.08-0.77,0.09c-0.56,0.02-1.12,0-1.67-0.06
				c-0.55-0.07-1.1-0.17-1.64-0.31c-0.25-0.07-0.5-0.15-0.74-0.25c0.25-0.05,0.51-0.07,0.77-0.08c0.56-0.02,1.12,0,1.67,0.05
				c0.55,0.07,1.1,0.17,1.65,0.31C255.55-99.53,255.79-99.45,256.03-99.35z"/>
			<path id="Path_7270" class="st11" d="M253.81-103.1c0,0,0.07,0.44,0.11,1.1c0.04,0.66,0.03,1.53,0,2.4
				c-0.07,0.87-0.14,1.74-0.26,2.39c-0.11,0.65-0.23,1.08-0.23,1.08s-0.07-0.44-0.11-1.1c-0.04-0.66-0.03-1.53,0-2.4
				c0.07-0.87,0.14-1.74,0.26-2.39C253.7-102.67,253.81-103.1,253.81-103.1z"/>
			<ellipse id="Ellipse_467" class="st12" cx="253.55" cy="-99.51" rx="1.44" ry="2.07"/>
		</g>
	</g>
	<g id="Group_5837" transform="translate(31.572 79.518)">
		<path id="Path_7271" class="st13" d="M238.07-11.54c-0.02,3.21-0.34,37.17-1.35,37.63h-0.02L200.49-8.8l35.61-34.28l0.03-0.02
			c2.58,1.87,1.63,9.35,1.72,12.51C238.02-24.24,238.09-17.89,238.07-11.54z"/>
		<path id="Path_7272" class="st14" d="M236.7,26.09c-12.09,0.75-24.27,1.14-36.21,1.14c-3.95,0-7.94-0.04-11.92-0.13
			c-8.07-0.17-16.2-0.52-24.3-1.01c-0.83-12.38-1.28-24.8-1.35-37.24c-0.03-6.22,0.03-12.43,0.2-18.65c0.07-3.1,0.18-6.2,0.32-9.3
			c0.08-2.15,0.03-3.83,1.03-4.39L200.49-8.8L236.7,26.09z"/>
		<path id="Path_7273" class="st15" d="M236.7,26.09c-12.09,0.75-24.27,1.14-36.21,1.14c-3.95,0-7.94-0.04-11.92-0.13l-24.3-1.01
			L200.49-8.8L236.7,26.09z"/>
		<path id="Path_7274" class="st16" d="M236.13-43.11l-0.03,0.02L200.49-8.8L164.47-43.5c0.59-0.28,1.25-0.32,1.87-0.11
			c1,0.22,2.17,3.32,3.2,3.27c1.05-0.04,1.88-3.25,2.93-3.43c1.94-0.28,3.8,0.91,5.74,1.14c2.79,0.32,5.54-1.34,8.3-0.95
			c0.83,0.11,1.63,1.7,2.47,1.62c0.95-0.09,1.87-1.94,2.82-2.02c1.42-0.13,2.77,0.86,4.19,0.95c1.88,0.15,3.67-1.27,5.55-1.08
			c1.47,0.15,3.49,3.08,4.95,3.23c1.95,0.21,3.12-3.1,5.09-3.1c1.65,0,3.2,1.05,4.85,1.05c1.73,0,3.39-1.18,5.12-1.08
			c1.42,0.11,1.98,2.59,3.4,2.67c0.9,0.06,2.53-1.72,3.44-1.94c2.23-0.56,4.56-0.64,6.82-0.24
			C235.55-43.44,235.86-43.31,236.13-43.11z"/>
	</g>
	<g id="Group_5838" transform="translate(117.092 79.518)">
		<path id="Path_7275" class="st13" d="M70.32-11.54c-0.02,3.21-0.33,37.17-1.35,37.63h-0.02L32.74-8.8l35.61-34.28l0.03-0.02
			c2.58,1.87,1.63,9.35,1.72,12.51C70.27-24.24,70.34-17.89,70.32-11.54z"/>
		<path id="Path_7276" class="st14" d="M68.95,26.09c-12.09,0.75-24.27,1.14-36.21,1.14c-3.95,0-7.94-0.04-11.92-0.13
			c-8.07-0.17-16.2-0.52-24.3-1.01C-4.31,13.7-4.76,1.29-4.83-11.15c-0.03-6.22,0.03-12.43,0.2-18.65c0.07-3.1,0.18-6.2,0.32-9.3
			c0.08-2.15,0.03-3.83,1.03-4.39L32.74-8.8L68.95,26.09z"/>
		<path id="Path_7277" class="st15" d="M68.95,26.09c-12.09,0.75-24.27,1.14-36.21,1.14c-3.95,0-7.94-0.04-11.92-0.13l-24.3-1.01
			L32.74-8.8L68.95,26.09z"/>
		<path id="Path_7278" class="st16" d="M68.38-43.11l-0.03,0.02L32.74-8.8L-3.28-43.5c0.59-0.28,1.25-0.32,1.87-0.11
			c1,0.22,2.17,3.32,3.2,3.27c1.05-0.04,1.88-3.25,2.94-3.43c1.93-0.28,3.8,0.91,5.74,1.14c2.79,0.32,5.54-1.34,8.3-0.95
			c0.83,0.11,1.63,1.7,2.47,1.62c0.95-0.09,1.87-1.94,2.82-2.02c1.42-0.13,2.77,0.86,4.19,0.95c1.88,0.15,3.67-1.27,5.55-1.08
			c1.47,0.15,3.49,3.08,4.95,3.23c1.95,0.21,3.12-3.1,5.09-3.1c1.65,0,3.2,1.05,4.85,1.05c1.73,0,3.38-1.18,5.12-1.08
			c1.42,0.11,1.99,2.59,3.4,2.67c0.9,0.06,2.53-1.72,3.44-1.94c2.23-0.56,4.56-0.64,6.82-0.24C67.8-43.44,68.11-43.31,68.38-43.11z"
			/>
	</g>
	<g id="Group_5839" transform="translate(201.905 79.518)">
		<path id="Path_7279" class="st13" d="M-96.04-11.54c-0.02,3.21-0.34,37.17-1.35,37.63h-0.02L-133.62-8.8l35.61-34.28l0.03-0.02
			c2.59,1.87,1.63,9.35,1.72,12.51C-96.1-24.24-96.02-17.89-96.04-11.54z"/>
		<path id="Path_7280" class="st14" d="M-97.41,26.09c-12.09,0.75-24.27,1.14-36.21,1.14c-3.95,0-7.94-0.04-11.92-0.13
			c-8.07-0.17-16.2-0.52-24.3-1.01c-0.83-12.38-1.29-24.8-1.35-37.24c-0.03-6.22,0.03-12.43,0.2-18.65c0.07-3.1,0.18-6.2,0.32-9.3
			c0.08-2.15,0.03-3.83,1.03-4.39l36.02,34.69L-97.41,26.09z"/>
		<path id="Path_7281" class="st15" d="M-97.41,26.09c-12.09,0.75-24.27,1.14-36.21,1.14c-3.95,0-7.94-0.04-11.92-0.13l-24.3-1.01
			l36.22-34.89L-97.41,26.09z"/>
		<path id="Path_7282" class="st16" d="M-97.98-43.11l-0.03,0.02L-133.62-8.8l-36.02-34.69c0.59-0.28,1.25-0.32,1.87-0.11
			c1,0.22,2.17,3.32,3.2,3.27c1.05-0.04,1.88-3.25,2.94-3.43c1.94-0.28,3.8,0.91,5.74,1.14c2.79,0.32,5.54-1.34,8.31-0.95
			c0.83,0.11,1.63,1.7,2.47,1.62c0.95-0.09,1.87-1.94,2.82-2.02c1.42-0.13,2.77,0.86,4.19,0.95c1.88,0.15,3.67-1.27,5.55-1.08
			c1.47,0.15,3.49,3.08,4.95,3.23c1.95,0.21,3.12-3.1,5.09-3.1c1.65,0,3.2,1.05,4.85,1.05c1.73,0,3.38-1.18,5.12-1.08
			c1.42,0.11,1.99,2.59,3.4,2.67c0.9,0.06,2.54-1.72,3.44-1.94c2.23-0.56,4.56-0.64,6.82-0.24C-98.57-43.44-98.25-43.31-97.98-43.11
			z"/>
	</g>
	<g>
		<g id="Group_5840" transform="translate(198.561 0)">
			<path id="Path_7283" class="st6" d="M-91.05,183.89c-26.13,1.47-52.33,1.47-78.46,0c-2.09-24.96-2.09-50.06,0-75.02
				c26.13-1.47,52.33-1.47,78.46,0C-88.97,133.81-89.29,158.92-91.05,183.89z"/>
		</g>
		<path id="Path_7284" class="st7" d="M68.28,182.37c-12.12,0-24.37-0.44-36.48-1.3c-0.9-11.53-1.35-23.19-1.35-34.69
			s0.45-23.16,1.35-34.69c12.12-0.87,24.39-1.31,36.48-1.31s24.36,0.44,36.48,1.31c0.9,11.53,1.35,23.19,1.35,34.69
			s-0.45,23.16-1.35,34.69c-12.12,0.87-24.37,1.3-36.45,1.3H68.28z"/>
		<g id="Group_5841" transform="translate(201.905 2.562)">
			<path id="Path_7285" class="st13" d="M-96.04,141.14c-0.02,3.21-0.34,37.17-1.35,37.62h-0.02l-36.21-34.89l35.61-34.29l0.03-0.02
				c2.59,1.87,1.63,9.35,1.72,12.51C-96.1,128.44-96.02,134.79-96.04,141.14z"/>
			<path id="Path_7286" class="st14" d="M-97.41,178.77c-12.09,0.75-24.27,1.14-36.21,1.14c-3.95,0-7.94-0.04-11.92-0.13
				c-8.08-0.17-16.2-0.52-24.3-1.01c-0.83-12.38-1.29-24.8-1.35-37.23c-0.03-6.23,0.03-12.43,0.2-18.65c0.07-3.1,0.18-6.2,0.32-9.3
				c0.08-2.15,0.03-3.84,1.03-4.39l36.02,34.7L-97.41,178.77z"/>
			<path id="Path_7287" class="st15" d="M-97.41,178.77c-12.09,0.75-24.27,1.14-36.21,1.14c-3.95,0-7.94-0.04-11.92-0.13l-24.3-1.01
				l36.22-34.89L-97.41,178.77z"/>
			<path id="Path_7288" class="st16" d="M-97.98,109.57l-0.03,0.02l-35.61,34.29l-36.02-34.7c0.59-0.28,1.25-0.32,1.87-0.11
				c1,0.21,2.17,3.32,3.2,3.27c1.05-0.04,1.88-3.25,2.94-3.42c1.94-0.28,3.8,0.9,5.74,1.14c2.79,0.32,5.54-1.34,8.31-0.95
				c0.83,0.11,1.63,1.7,2.47,1.62c0.95-0.09,1.87-1.94,2.82-2.02c1.42-0.13,2.77,0.86,4.19,0.95c1.88,0.15,3.67-1.27,5.55-1.08
				c1.47,0.15,3.49,3.08,4.95,3.23c1.95,0.22,3.12-3.1,5.09-3.1c1.65,0,3.2,1.06,4.85,1.06c1.73,0,3.38-1.19,5.12-1.08
				c1.42,0.11,1.99,2.58,3.4,2.67c0.9,0.06,2.54-1.72,3.44-1.94c2.23-0.56,4.56-0.64,6.82-0.24
				C-98.57,109.24-98.25,109.37-97.98,109.57z"/>
		</g>
	</g>
	<g>
		<g id="Group_5840_1_" transform="translate(198.561 0)">
			<path id="Path_7283_1_" class="st6" d="M-91.05,261.11c-26.13,1.47-52.33,1.47-78.46,0c-2.09-24.96-2.09-50.06,0-75.02
				c26.13-1.47,52.33-1.47,78.46,0C-88.97,211.03-89.29,236.14-91.05,261.11z"/>
		</g>
		<path id="Path_7284_1_" class="st7" d="M68.28,259.59c-12.12,0-24.37-0.44-36.48-1.3c-0.9-11.53-1.35-23.19-1.35-34.69
			s0.45-23.16,1.35-34.69c12.12-0.87,24.39-1.31,36.48-1.31s24.36,0.44,36.48,1.31c0.9,11.53,1.35,23.19,1.35,34.69
			s-0.45,23.16-1.35,34.69c-12.12,0.87-24.37,1.3-36.45,1.3H68.28z"/>
		<g id="Group_5841_1_" transform="translate(201.905 2.562)">
			<path id="Path_7285_1_" class="st13" d="M-96.04,218.37c-0.02,3.21-0.34,37.17-1.35,37.62h-0.02l-36.21-34.89l35.61-34.29
				l0.03-0.02c2.59,1.87,1.63,9.35,1.72,12.51C-96.1,205.66-96.02,212.01-96.04,218.37z"/>
			<path id="Path_7286_1_" class="st14" d="M-97.41,255.99c-12.09,0.75-24.27,1.14-36.21,1.14c-3.95,0-7.94-0.04-11.92-0.13
				c-8.08-0.17-16.2-0.52-24.3-1.01c-0.83-12.38-1.29-24.8-1.35-37.23c-0.03-6.23,0.03-12.43,0.2-18.65c0.07-3.1,0.18-6.2,0.32-9.3
				c0.08-2.15,0.03-3.84,1.03-4.39l36.02,34.7L-97.41,255.99z"/>
			<path id="Path_7287_1_" class="st15" d="M-97.41,255.99c-12.09,0.75-24.27,1.14-36.21,1.14c-3.95,0-7.94-0.04-11.92-0.13
				l-24.3-1.01l36.22-34.89L-97.41,255.99z"/>
			<path id="Path_7288_1_" class="st16" d="M-97.98,186.79l-0.03,0.02l-35.61,34.29l-36.02-34.7c0.59-0.28,1.25-0.32,1.87-0.11
				c1,0.21,2.17,3.32,3.2,3.27c1.05-0.04,1.88-3.25,2.94-3.42c1.94-0.28,3.8,0.9,5.74,1.14c2.79,0.32,5.54-1.34,8.31-0.95
				c0.83,0.11,1.63,1.7,2.47,1.62c0.95-0.09,1.87-1.94,2.82-2.02c1.42-0.13,2.77,0.86,4.19,0.95c1.88,0.15,3.67-1.27,5.55-1.08
				c1.47,0.15,3.49,3.08,4.95,3.23c1.95,0.22,3.12-3.1,5.09-3.1c1.65,0,3.2,1.06,4.85,1.06c1.73,0,3.38-1.19,5.12-1.08
				c1.42,0.11,1.99,2.58,3.4,2.67c0.9,0.06,2.54-1.72,3.44-1.94c2.23-0.56,4.56-0.64,6.82-0.24
				C-98.57,186.46-98.25,186.6-97.98,186.79z"/>
		</g>
	</g>
	<path id="Path_7289" class="st17" d="M274.39,29.75l12.63-13.29c1.37,2.64,1.97,5.71,3.97,7.98c0.55,0.51,1.02,1.11,1.41,1.76
		c0.29,0.77,0.4,1.6,0.32,2.43c-0.1,3.17-0.39,6.34-0.87,9.47c-0.29,1.12-0.27,2.31,0.08,3.42c0.34,0.82,1,1.45,1.41,2.23
		c1.22,2.41-0.36,5.31,0,7.98c0.23,1.7,1.24,3.29,1.11,4.98c-0.19,2.04-1.99,3.88-1.52,5.88c0.21,0.9,0.87,1.64,1.14,2.52
		c0.21,1.01,0.2,2.07-0.04,3.08c-0.45,3.28-0.62,6.59-0.51,9.89c0.11,4.08,0.49,8.14,1.15,12.17c0.43,1.95,0.58,3.95,0.45,5.94
		c-0.36,1.51-0.61,3.05-0.77,4.6c0.13,1.41,0.37,2.81,0.71,4.18c0.28,2.11,0.22,4.25-0.17,6.34h-17.61v-0.02
		c-0.2-0.5-0.3-1.04-0.3-1.59c-0.1-2.27-0.21-4.55-0.32-6.82c-0.15-3.4-0.32-6.78-0.47-10.16c-0.24-2.93-0.17-5.87,0.23-8.78
		c0.39-2.25,1.18-4.49,1.05-6.76c-0.06-1.07-0.32-2.1-0.47-3.15c-1.01-7.14,2.79-14.42,1.27-21.45c-0.69-3.21-2.46-6.19-2.4-9.47
		c0.04-2.23,0.96-4.35,1.26-6.57C277.52,33.94,276.46,31.33,274.39,29.75z"/>
	<path class="st17" d="M5.24,166.02c0.03,1.21,0.51,2.34,0.86,3.5c-0.41,1.17-0.87,2.33-0.86,3.57c0.02,1.02,0.37,1.99,0.69,2.97
		c-0.02,0.22-0.03,0.43-0.03,0.65c0.08,1,0.26,1.98,0.54,2.93c-0.13,1.38-0.54,2.75-0.54,4.15c0.14,1.93,0.68,3.8,1.57,5.5
		c-0.18,2.2-0.18,4.4,0,6.6c0.1,1.36,0.58,2.67,0.58,4.03c0,1.39-0.84,2.62-1.42,3.88c-0.97,2.1-1.29,4.46-0.92,6.76
		c0.54,3.13,2.38,5.98,2.57,9.15c0.19,3.04-1.12,5.96-1.46,8.98c-0.41,3.69,0.66,7.52-0.32,11.1c-0.43,1.6-1.27,3.13-1.26,4.81
		c0.04,1.73,1.02,3.32,1.21,5.06c0.21,1.87-0.54,3.74-0.54,5.63c0.15,1.97,0.71,3.89,1.63,5.63c0.07,0.15,0.13,0.31,0.2,0.46h14.72
		c0.42,0,0.83-0.05,1.24-0.15v-0.02c0.12-0.15,0.24-0.32,0.34-0.49c0.65-1.21,0.96-2.58,0.88-3.96c0.04-3.97-0.81-7.89-1.12-11.84
		c-0.41-4.74-0.1-9.53,0.94-14.17c0.39-1.43,0.64-2.89,0.77-4.37c0.02-1.17-0.06-2.34-0.24-3.5l-1.13-8.71
		c-0.24-1.5-0.32-3.03-0.24-4.55c0.23-1.3,0.35-2.62,0.36-3.94c-0.08-0.95-0.39-1.89-0.56-2.85c-0.16-1.63-0.12-3.27,0.13-4.89
		c0.26-2.62,0.3-5.25,0.11-7.87c-0.02-0.21-0.03-0.42-0.05-0.64c0.06-0.07,0.11-0.15,0.16-0.23c0.65-1.21,0.96-2.58,0.88-3.95
		c0.01-0.89-0.04-1.76-0.1-2.64c0.08-0.12,0.14-0.25,0.23-0.37c0.45-0.55,0.99-1.01,1.59-1.36l-1.74-1.82
		c0.02-0.29,0.03-0.58,0.01-0.88c0.04-3.97-0.81-7.89-1.12-11.84c-0.01-0.17-0.02-0.33-0.03-0.5c0.17-2.21,0.49-4.42,0.97-6.59
		c0.39-1.43,0.64-2.89,0.77-4.37c0.02-1.17-0.06-2.34-0.24-3.5l-0.13-1c0.16-0.86,0.3-1.72,0.37-2.59c0.02-1.17-0.06-2.34-0.24-3.5
		l-1.09-8.45c0.04-0.55,0.08-1.1,0.08-1.65c-0.05-0.67-0.23-1.34-0.39-2.01c0-0.38,0.01-0.76,0.03-1.14
		c0.23-1.3,0.35-2.62,0.36-3.94c-0.05-0.61-0.19-1.21-0.34-1.82c0.17-2.23,0.18-4.47,0.02-6.71c-0.01-0.11-0.02-0.22-0.02-0.34
		c0.13-1.71,0.17-3.43,0.1-5.15c0.19-0.85,0.5-1.64,1.04-2.34c0.45-0.55-0.14-3.2-0.14-3.2c0.02-0.29,0.03-0.59,0.01-0.88
		c0.01-0.89-0.04-1.76-0.1-2.64c0.08-0.12,0.14-0.25,0.23-0.37c0.45-0.55-0.67-3.74-0.67-3.74c-0.22-1.69-0.45-3.38-0.59-5.08
		c-0.41-4.74-0.1-9.53,0.94-14.17c0.39-1.43,0.64-2.89,0.77-4.37c0.02-1.17-0.06-2.34-0.24-3.5l-1.13-8.71
		c-0.24-1.5-0.32-3.03-0.24-4.55c0.23-1.3,0.35-2.62,0.36-3.94c-0.08-0.95-0.39-1.89-0.56-2.85c-0.16-1.63-0.12-3.27,0.13-4.89
		c0.26-2.62,0.3-5.25,0.11-7.87c-0.19-2.71-0.53-5.71,1.13-7.83c0.45-0.55,0.99-1.02,1.59-1.37L14.63,18.2
		c-1.63,0.49-3.21,1.05-4.14,2.43c-1.44,2.16-0.53,5.12-1.16,7.64C9,29.24,8.62,30.2,8.2,31.13c-0.92,2.41-0.32,4.6-0.62,7.05
		c-0.29,2.54-0.32,5.11-0.1,7.66c0.1,1.36,0.58,2.67,0.58,4.03c0,1.39-0.84,2.62-1.42,3.88c-0.97,2.1-1.29,4.46-0.92,6.76
		c0.54,3.13,2.38,5.98,2.57,9.15c0.19,3.04-1.12,5.96-1.46,8.98c-0.41,3.69,0.66,7.52-0.32,11.1c-0.42,1.6-1.27,3.13-1.25,4.81
		c0.04,1.74,1.01,3.32,1.2,5.06c0.21,1.87-0.54,3.74-0.54,5.63c0.14,1.93,0.68,3.8,1.57,5.5c-0.18,2.2-0.18,4.4,0,6.6
		c0.01,0.07,0.02,0.14,0.03,0.21c-0.18,2.02-0.21,4.06-0.08,6.08c-0.26,0.54-0.55,1.07-0.8,1.61c-0.97,2.1-1.29,4.46-0.92,6.76
		c0.1,0.56,0.24,1.11,0.41,1.65c-0.56,1.74-0.71,3.6-0.41,5.43c0.39,2.23,1.42,4.31,2.06,6.47c-0.35,1.52-0.78,3.04-0.95,4.58
		c-0.24,2.15,0.02,4.34,0.08,6.51c-0.03,0.19-0.06,0.38-0.08,0.57c-0.11,0.95-0.11,1.91-0.08,2.87c-0.06,0.39-0.13,0.77-0.24,1.15
		C6.07,162.82,5.23,164.34,5.24,166.02z"/>
</g>
</svg>
