<?xml version="1.0" encoding="utf-8"?>
<!-- Generator: Adobe Illustrator 24.2.3, SVG Export Plug-In . SVG Version: 6.00 Build 0)  -->
<svg version="1.1" id="Layer_1" xmlns="http://www.w3.org/2000/svg" xmlns:xlink="http://www.w3.org/1999/xlink" x="0px" y="0px"
	 viewBox="0 0 300 200" style="enable-background:new 0 0 300 200;" xml:space="preserve">
<style type="text/css">
	.st0{fill:#8E3E1F;}
	.st1{fill:#6D2F13;}
	.st2{fill:none;}
	.st3{opacity:0.1;}
	.st4{opacity:0.32;fill:#D8AB6B;enable-background:new    ;}
	.st5{fill:#A04A23;}
	.st6{fill:#773217;}
	.st7{fill:#A35625;}
	.st8{fill:#8C3F1E;}
	.st9{opacity:0.46;clip-path:url(#SVGID_2_);}
</style>
<rect id="Rectangle_24696" x="180" y="80" class="st0" width="120" height="115.96"/>
<path id="Path_9835" class="st1" d="M180,195.96h120l-2.95,4.04h-114.1L180,195.96z"/>
<rect x="179.15" y="81.37" class="st2" width="120" height="115.96"/>
<g id="Mask_Group_13_2_" class="st3">
	<g id="Group_6240_2_" transform="translate(1898.271 907.856)">
		<path id="Path_9754_3_" class="st4" d="M-1605.32-819.23c-7.16,0.97-14.36-1.9-21.18,1.25c-9.38,4.33-18.49,6.53-28.35,7.84
			c-10.31,1.36-20.31,2.59-30.11,7.35c-10.13,4.91-21.95,12.28-32.07,8.26v-5.92c8.95-1.57,18.46-6.61,26.76-8.66
			c10.13-2.49,20-5.47,30.08-7.48c17.72-3.54,33.01-4.95,50.33-9.22L-1605.32-819.23z"/>
		<path id="Path_9755_3_" class="st4" d="M-1598.52-814.02c-10.35,3.24-20.64,7.17-30.71,9.22c-6.85,1.39-14.48,1.69-21.18,4.09
			c-7.15,2.56-14.17,6.48-21.7,8.99c-9.61,3.2-18.92,5.44-28.6,7.99c-3.09,0.81-6.94,1.07-10.71,1.73
			c4.08-2.37,8.27-4.37,12.55-5.99c6.84-2.39,13.5-4.79,20.33-7.15c10.71-3.69,21.41-6.47,32.16-9.86
			c15.56-4.92,31.4-9.75,47.31-13.34L-1598.52-814.02z"/>
		<path id="Path_9758_3_" class="st4" d="M-1598.54-767.09c-12.32-1.54-23.95-2.9-36.27-2.71c-16.11,0.25-32.25-10.1-47.69-3.39
			c-7.38,3.21-14.33,6.13-22.19,6.76c-4.03,0.32-8.42-0.96-12.34-0.14c1.34-0.89,2.65-1.85,3.94-2.53
			c4.31-2.29,8.37-3.08,12.83-4.28c5.91-1.59,11.52-5.22,17.37-7.18c9.72-3.25,18.53-2.15,27.99,1.04
			c11.68,3.94,22.77,4.94,34.91,4.94c6.79,0,13.56,0.51,20.3,1.02L-1598.54-767.09z"/>
		<path id="Path_9760_5_" class="st4" d="M-1667.12-763.6c19.09,8.18,39.42,3.21,59.14,5.9c1.42,0.19,7.27,0.21,7.53,3.45
			c0.33,4.33-9.43,5.61-11.43,6.04c-12.23,2.62-24.28,5.71-36.62,7.26c-14.15,1.79-28.14,5.3-42.24,7.42
			c-8.26,1.25-17.59,4.92-26.3,5.94v-5.94c5.66-1.46,12.93-1.15,15.79-1.81c10.54-2.43,20.41-7.17,31.08-8.68
			c9.72-1.38,19.56-2.49,29.12-5.02c5.24-1.38,18.48-0.1,22-5.6c-6.28-4.55-17.87,0.83-24.74-0.18c-8.34-1.22-17.4,0.2-25.51-2.78
			c-7.95-2.93-12.56-6.39-21.05-1.54c-8.54,4.99-17.52,8.27-26.69,9.77v-2.8c9.01-3.42,18.01-8.13,26.7-12.29
			C-1681.88-768.49-1675.45-767.17-1667.12-763.6z"/>
		<path id="Path_9762_3_" class="st4" d="M-1598.89-735.67c-8.47,2.15-16.84,4.76-24.92,8.64c-11.02,5.3-19.73,9.36-31.57,9.36
			c-8.46,0-16.75-0.58-25.16,0c-7.91,0.54-15.94-1.17-23.66,1.38c-5.02,1.67-8.63,2.94-13.32,3.29v-0.59
			c8.19-2.23,16.39-7.2,24.82-8.7c8.06-1.43,16.02-3.35,24.04-4.94c13.77-2.75,27.67-3.13,41.4-6.81
			c9.39-2.51,18.62-5.57,27.93-7.76L-1598.89-735.67z"/>
	</g>
	<path id="Path_9760_4_" class="st4" d="M268.46,112.14c-9.73,5.84-21.07,4.66-31.54,7.57c-0.75,0.21-3.91,0.65-3.82,2.43
		c0.13,2.37,5.5,2.33,6.61,2.41c6.79,0.51,13.54,1.28,20.31,1.21c7.78-0.08,15.59,0.78,23.36,0.88c4.55,0.06,9.86,1.35,14.64,1.26
		l-0.42-3.21c-3.17-0.37-7.07,0.33-8.66,0.19c-5.87-0.53-11.54-2.36-17.42-2.39c-5.36-0.02-10.75,0.1-16.09-0.55
		c-2.93-0.36-10,1.32-12.29-1.39c3.07-2.93,9.72-0.88,13.35-1.93c4.41-1.28,9.42-1.18,13.59-3.4c4.09-2.17,6.33-4.39,11.27-2.39
		c4.97,2.06,10.06,3.17,15.12,3.3l-0.2-1.51c-5.11-1.18-10.32-3.06-15.32-4.66C276.09,108.4,272.71,109.59,268.46,112.14z"/>
</g>
<rect id="Rectangle_24695" x="90" y="40" class="st5" width="120" height="115.96"/>
<path id="Path_9737" class="st6" d="M90,155.96h120l-2.95,4.04H92.95L90,155.96z"/>
<g id="Mask_Group_13_1_" class="st3">
	<g id="Group_6240_1_" transform="translate(1898.271 907.856)">
		<path id="Path_9754_2_" class="st4" d="M-1694.69-858.61c-7.28,0.97-14.61-1.9-21.54,1.25c-9.54,4.33-18.81,6.53-28.84,7.84
			c-10.49,1.36-20.66,2.59-30.63,7.35c-10.3,4.91-22.33,12.28-32.62,8.26v-5.92c9.1-1.57,18.78-6.61,27.22-8.66
			c10.3-2.49,20.34-5.47,30.59-7.48c18.02-3.54,33.57-4.95,51.19-9.22L-1694.69-858.61z"/>
		<path id="Path_9755_2_" class="st4" d="M-1687.78-853.41c-10.53,3.24-20.99,7.17-31.24,9.22c-6.97,1.39-14.73,1.69-21.54,4.09
			c-7.27,2.56-14.41,6.48-22.07,8.99c-9.77,3.2-19.24,5.44-29.09,7.99c-3.14,0.81-7.06,1.07-10.89,1.73
			c4.15-2.37,8.41-4.37,12.76-5.99c6.96-2.39,13.73-4.79,20.68-7.15c10.89-3.69,21.78-6.47,32.71-9.86
			c15.83-4.92,31.94-9.75,48.12-13.34L-1687.78-853.41z"/>
		<path id="Path_9758_2_" class="st4" d="M-1687.79-806.47c-12.53-1.54-24.36-2.9-36.89-2.71c-16.39,0.25-32.8-10.1-48.51-3.39
			c-7.51,3.21-14.58,6.13-22.57,6.76c-4.1,0.32-8.56-0.96-12.55-0.14c1.36-0.89,2.7-1.85,4.01-2.53c4.38-2.29,8.51-3.08,13.05-4.28
			c6.01-1.59,11.72-5.22,17.67-7.18c9.89-3.25,18.85-2.15,28.47,1.04c11.88,3.94,23.16,4.94,35.51,4.94
			c6.92,0,13.79,0.51,20.65,1.02L-1687.79-806.47z"/>
		<path id="Path_9760_3_" class="st4" d="M-1757.55-802.98c19.42,8.18,40.09,3.21,60.15,5.9c1.44,0.19,7.39,0.21,7.66,3.45
			c0.34,4.33-9.59,5.61-11.63,6.04c-12.44,2.62-24.7,5.71-37.25,7.26c-14.39,1.79-28.62,5.3-42.96,7.42
			c-8.4,1.25-17.89,4.92-26.75,5.94v-5.94c5.76-1.46,13.15-1.15,16.06-1.81c10.72-2.43,20.76-7.17,31.61-8.68
			c9.89-1.38,19.89-2.49,29.62-5.02c5.33-1.38,18.8-0.1,22.38-5.6c-6.39-4.55-18.18,0.83-25.16-0.18c-8.48-1.22-17.7,0.2-25.95-2.78
			c-8.09-2.93-12.77-6.39-21.41-1.54c-8.69,4.99-17.82,8.27-27.15,9.77v-2.8c9.16-3.42,18.32-8.13,27.16-12.29
			C-1772.57-807.87-1766.02-806.55-1757.55-802.98z"/>
		<path id="Path_9762_2_" class="st4" d="M-1688.15-775.05c-8.62,2.15-17.13,4.76-25.35,8.64c-11.21,5.3-20.07,9.36-32.11,9.36
			c-8.6,0-17.04-0.58-25.59,0c-8.05,0.54-16.21-1.17-24.06,1.38c-5.11,1.67-8.78,2.94-13.55,3.29v-0.59
			c8.33-2.23,16.67-7.2,25.24-8.7c8.2-1.43,16.29-3.35,24.45-4.94c14.01-2.75,28.14-3.13,42.11-6.81
			c9.55-2.51,18.94-5.57,28.41-7.76L-1688.15-775.05z"/>
	</g>
	<path id="Path_9760_2_" class="st4" d="M178.67,72.76c-9.9,5.84-21.43,4.66-32.08,7.57c-0.76,0.21-3.98,0.65-3.89,2.43
		c0.13,2.37,5.59,2.33,6.72,2.41c6.91,0.51,13.77,1.28,20.66,1.21c7.91-0.08,15.86,0.78,23.76,0.88c4.63,0.06,10.03,1.35,14.89,1.26
		l-0.43-3.21c-3.22-0.37-7.19,0.33-8.81,0.19c-5.97-0.53-11.74-2.36-17.72-2.39c-5.45-0.02-10.93,0.1-16.37-0.55
		c-2.98-0.36-10.17,1.32-12.5-1.39c3.12-2.93,9.89-0.88,13.58-1.93c4.49-1.28,9.58-1.18,13.82-3.4c4.16-2.17,6.44-4.39,11.46-2.39
		c5.06,2.06,10.23,3.17,15.38,3.3l-0.2-1.51c-5.2-1.18-10.5-3.06-15.58-4.66C186.43,69.02,182.99,70.21,178.67,72.76z"/>
</g>
<rect id="Rectangle_24697" class="st7" width="120" height="115.96"/>
<path id="Path_9736" class="st8" d="M0,115.96h120l-2.95,4.04H2.95L0,115.96z"/>
<rect class="st2" width="120" height="115.96"/>
<g id="Mask_Group_13" class="st3">
	<g id="Group_6240" transform="translate(1898.271 907.856)">
		<path id="Path_9754_1_" class="st4" d="M-1784.64-798.8c-7.28-0.97-14.61,1.9-21.54-1.25c-9.54-4.33-18.81-6.53-28.84-7.84
			c-10.49-1.36-20.66-2.59-30.63-7.35c-10.3-4.91-22.33-12.28-32.62-8.26v5.92c9.1,1.57,18.78,6.61,27.22,8.66
			c10.3,2.49,20.34,5.47,30.59,7.48c18.02,3.54,33.57,4.95,51.19,9.22L-1784.64-798.8z"/>
		<path id="Path_9755_1_" class="st4" d="M-1777.73-804.01c-10.53-3.24-20.99-7.17-31.24-9.22c-6.97-1.39-14.73-1.69-21.54-4.09
			c-7.27-2.56-14.41-6.48-22.07-8.99c-9.77-3.2-19.24-5.44-29.09-7.99c-3.14-0.81-7.06-1.07-10.89-1.73
			c4.15,2.37,8.41,4.37,12.76,5.99c6.96,2.39,13.73,4.79,20.68,7.15c10.89,3.69,21.78,6.47,32.71,9.86
			c15.83,4.92,31.94,9.75,48.12,13.34L-1777.73-804.01z"/>
		<path id="Path_9758_1_" class="st4" d="M-1777.74-850.94c-12.53,1.54-24.36,2.9-36.89,2.71c-16.39-0.25-32.8,10.1-48.51,3.39
			c-7.51-3.21-14.58-6.13-22.57-6.76c-4.1-0.32-8.56,0.96-12.55,0.14c1.36,0.89,2.7,1.85,4.01,2.53c4.38,2.29,8.51,3.08,13.05,4.28
			c6.01,1.59,11.72,5.22,17.67,7.18c9.89,3.25,18.85,2.15,28.47-1.04c11.88-3.94,23.16-4.94,35.51-4.94
			c6.92,0,13.79-0.51,20.65-1.02L-1777.74-850.94z"/>
		<path id="Path_9760" class="st4" d="M-1847.5-854.43c19.42-8.18,40.09-3.21,60.15-5.9c1.44-0.19,7.39-0.21,7.66-3.45
			c0.34-4.33-9.59-5.61-11.63-6.04c-12.44-2.62-24.7-5.71-37.25-7.26c-14.39-1.79-28.62-5.3-42.96-7.42
			c-8.4-1.25-17.89-4.92-26.75-5.94v5.94c5.76,1.46,13.15,1.15,16.06,1.81c10.72,2.43,20.76,7.17,31.61,8.68
			c9.89,1.38,19.89,2.49,29.62,5.02c5.33,1.38,18.8,0.1,22.38,5.6c-6.39,4.55-18.18-0.83-25.16,0.18c-8.48,1.22-17.7-0.2-25.95,2.78
			c-8.09,2.93-12.77,6.39-21.41,1.54c-8.69-4.99-17.82-8.27-27.15-9.78v2.8c9.16,3.42,18.32,8.13,27.16,12.29
			C-1862.52-849.54-1855.97-850.86-1847.5-854.43z"/>
		<path id="Path_9762_1_" class="st4" d="M-1778.1-882.36c-8.62-2.15-17.13-4.76-25.35-8.64c-11.21-5.3-20.07-9.36-32.11-9.36
			c-8.6,0-17.04,0.58-25.59,0c-8.05-0.54-16.21,1.17-24.06-1.38c-5.11-1.67-8.78-2.94-13.55-3.29v0.59
			c8.33,2.23,16.67,7.2,25.24,8.7c8.2,1.43,16.29,3.35,24.45,4.94c14.01,2.75,28.14,3.13,42.11,6.81
			c9.55,2.51,18.94,5.57,28.41,7.76L-1778.1-882.36z"/>
	</g>
	<path id="Path_9760_1_" class="st4" d="M88.72,85.54c-9.9-5.84-21.43-4.66-32.08-7.57c-0.76-0.21-3.98-0.65-3.89-2.43
		c0.13-2.37,5.59-2.33,6.72-2.41c6.91-0.51,13.77-1.28,20.66-1.21C88.05,72,96,71.14,103.9,71.04c4.63-0.06,10.03-1.35,14.89-1.26
		L118.36,73c-3.22,0.37-7.19-0.33-8.81-0.19c-5.97,0.53-11.74,2.36-17.72,2.39c-5.45,0.02-10.93-0.1-16.37,0.55
		c-2.98,0.36-10.17-1.32-12.5,1.39c3.12,2.93,9.89,0.88,13.58,1.93c4.49,1.28,9.58,1.18,13.82,3.4c4.16,2.17,6.44,4.39,11.46,2.39
		c5.06-2.06,10.23-3.17,15.38-3.3l-0.2,1.51c-5.2,1.18-10.5,3.06-15.58,4.66C96.48,89.28,93.04,88.09,88.72,85.54z"/>
</g>
<g id="Group_6580" transform="translate(-1250 -1736)">
	<g id="Group_6578" transform="translate(234 66)">
		<g>
			<g>
				<g>
					<defs>
						<rect id="SVGID_1_" x="3048.21" y="5227.2" width="299.93" height="75.9"/>
					</defs>
					<clipPath id="SVGID_2_">
						<use xlink:href="#SVGID_1_"  style="overflow:visible;"/>
					</clipPath>
					<g id="Mask_Group_21" transform="translate(1016 1670)" class="st9">
						<g id="Group_6577" transform="translate(0.176 -23.31)">
							<path id="Path_10499" class="st4" d="M287.5,254.81c-10.78,0-21.23-0.86-31.83-1.56c-17.93-1.18-34.75-4.32-51.67-8.27
								c-18.73-4.37-39.77-1.63-58.32-5.99c-20.94-4.93-44.19-4.97-65.13-10.31c-9.45-2.41-16.92-4.26-27.08-4.26
								c-7.25,0-14.37,0.26-21.58,0c-6.79-0.24-13.67,0.53-20.29-0.63c-3.78-0.78-7.59-1.28-11.43-1.5v0.27
								c7.02,1.02,14.06,3.27,21.29,3.95c6.91,0.65,13.73,1.52,20.62,2.25c11.82,1.25,23.74,1.42,35.52,3.09
								c12.61,1.79,24.91,4.19,37.62,4.72c6.46,0.27,14.52,0.71,20.43,2.64c3.46,1.13,6.19,2.76,10.06,3.49
								c21.17,3.97,43.96,0.3,65.03,5.18c9.13,2.11,17.73,4.76,27.27,6.2c11.92,1.85,23.91,3.02,35.94,3.49
								c8.66,0.32,17.3,0,26.05,0.01v-2.77C295.83,254.88,291.65,254.81,287.5,254.81z"/>
							<path id="Path_10500" class="st4" d="M140.52,233.74c8.21,0.63,17.65,1.51,25.79-0.23c11.94-2.55,21.45-8.69,32.57-12.02
								h-14.83c-1.97,1.97-0.76,3.9-4.95,5.35c-8.26,2.86-20.13,3.51-29.07,3.8c-9.58,0.31-20.43,1.64-29.63-0.39
								c-8.73-1.93-16.24-5.82-25.06-7.59c-5.6-1.12-10.8-0.52-16.48-1.02c-0.53-0.05-1.02-0.1-1.51-0.16h-4.58
								c11.01,3.07,22.89,4.89,34.12,7.29C118,231.16,129.23,232.82,140.52,233.74z"/>
							<path id="Path_10501" class="st4" d="M168.22,222.57c0.15-0.35,0.12-0.77-0.09-1.08H146.8c-2.1,0.78-4.29,1.26-6.51,1.41
								c-5.97,0.34-11.16-0.72-16.91-1.25c-0.67-0.06-1.31-0.1-1.97-0.15h-13.34c10.15,4.63,21.02,7.1,32.01,7.29
								C146.71,228.78,165.75,228.86,168.22,222.57z"/>
							<path id="Path_10504" class="st4" d="M179.42,233.97c-4.95,0.99-10.01,3.22-15.02,3.49c8.28,0,17.53,1.22,25.26-0.69
								c9.41-2.33,18.69-5.1,28.36-7.14c19.69-4.14,45.87,1.94,62.86-8c-8.31,0.1-16.23,1.27-24.47,1.26
								c-8.53-0.01-17.14,0.06-25.61,0.6c-6.19,0.4-13.38,1.4-18.71,3.98c-3.8,1.83-6.8,4.15-11.71,4.35
								c6.69-4.47,18.46-8.03,27.34-9.24c3.09-0.42,6.49-0.68,9.8-1.09h-21.11c-7.09,1.76-13.14,4.9-19.96,7.21
								C190.72,230.64,185.54,232.75,179.42,233.97z"/>
						</g>
					</g>
				</g>
			</g>
		</g>
	</g>
</g>
</svg>
