<?xml version="1.0" encoding="utf-8"?>
<!-- Generator: Adobe Illustrator 24.2.3, SVG Export Plug-In . SVG Version: 6.00 Build 0)  -->
<svg version="1.1" id="Layer_1" xmlns="http://www.w3.org/2000/svg" xmlns:xlink="http://www.w3.org/1999/xlink" x="0px" y="0px"
	 viewBox="0 0 300 200" style="enable-background:new 0 0 300 200;" xml:space="preserve">
<style type="text/css">
	.st0{fill:url(#Path_10560_1_);}
	.st1{fill:url(#Path_10561_1_);}
	.st2{fill:url(#Rectangle_24799_1_);}
	.st3{fill:url(#Path_10136_1_);}
	.st4{fill:none;}
	.st5{opacity:0.18;}
	.st6{opacity:0.32;fill:#D8AB6B;enable-background:new    ;}
	.st7{opacity:0.32;fill:#6B3F32;enable-background:new    ;}
</style>
<linearGradient id="Path_10560_1_" gradientUnits="userSpaceOnUse" x1="356.5129" y1="1171.3326" x2="357.6327" y2="1171.3326" gradientTransform="matrix(15.2323 0 0 -3.1426 -5366.6982 3878.8198)">
	<stop  offset="1.000000e-03" style="stop-color:#BCBDBF"/>
	<stop  offset="0.214" style="stop-color:#929497"/>
	<stop  offset="0.544" style="stop-color:#FFFFFF"/>
	<stop  offset="0.723" style="stop-color:#929497"/>
	<stop  offset="1" style="stop-color:#424143"/>
</linearGradient>
<path id="Path_10560" class="st0" d="M63.95,195.58c0,0-1.3,4.08,4.11,4.4h8.99c0,0,3.68,0.44,3.75-2.8l0.07-1.6h-2.6
	c0,0-0.06,2.06-2.3,1.85l-5.52-0.21c0,0-2.6,0-3.25-1.63L63.95,195.58C63.95,195.59,63.95,195.58,63.95,195.58z"/>
<linearGradient id="Path_10561_1_" gradientUnits="userSpaceOnUse" x1="357.6808" y1="1171.3326" x2="358.8006" y2="1171.3326" gradientTransform="matrix(15.2323 0 0 -3.1426 -5217.6982 3878.8198)">
	<stop  offset="1.000000e-03" style="stop-color:#BCBDBF"/>
	<stop  offset="0.214" style="stop-color:#929497"/>
	<stop  offset="0.544" style="stop-color:#FFFFFF"/>
	<stop  offset="0.723" style="stop-color:#929497"/>
	<stop  offset="1" style="stop-color:#424143"/>
</linearGradient>
<path id="Path_10561" class="st1" d="M230.74,195.58c0,0-1.3,4.08,4.11,4.4h8.99c0,0,3.68,0.44,3.75-2.8l0.07-1.6h-2.6
	c0,0-0.06,2.06-2.3,1.85l-5.52-0.21c0,0-2.6,0-3.25-1.63L230.74,195.58L230.74,195.58z"/>
<g id="Group_6356" transform="translate(1404.998 1299.617)">
	<g id="Group_6355" transform="translate(201.002 115.359)">
		<g id="Group_6350" transform="translate(0 0)">
			<g id="Group_6342">
				
					<linearGradient id="Rectangle_24799_1_" gradientUnits="userSpaceOnUse" x1="-4484.5645" y1="88.8065" x2="-4484.5645" y2="86.4816" gradientTransform="matrix(268 0 0 -82.464 1200407.375 5913.3716)">
					<stop  offset="0" style="stop-color:#6B3F32"/>
					<stop  offset="0.621" style="stop-color:#6C3F32"/>
					<stop  offset="0.844" style="stop-color:#714636"/>
					<stop  offset="0.943" style="stop-color:#774D38"/>
					<stop  offset="0.972" style="stop-color:#784F39"/>
					<stop  offset="0.983" style="stop-color:#7D5440"/>
					<stop  offset="0.991" style="stop-color:#AD6E51"/>
					<stop  offset="0.997" style="stop-color:#977364"/>
					<stop  offset="1" style="stop-color:#9B786A"/>
				</linearGradient>
				<rect id="Rectangle_24799" x="-1606" y="-1414.98" class="st2" width="300" height="192.31"/>
				
					<linearGradient id="Path_10136_1_" gradientUnits="userSpaceOnUse" x1="-4485.1245" y1="-252.5092" x2="-4484.0049" y2="-252.5092" gradientTransform="matrix(268 0 0 -3.061 1200407.375 -1993.8859)">
					<stop  offset="0" style="stop-color:#7A543B"/>
					<stop  offset="1" style="stop-color:#875F4E"/>
				</linearGradient>
				<path id="Path_10136" class="st3" d="M-1601.62-1219.24h291.24l4.38-3.43h-300L-1601.62-1219.24z"/>
			</g>
		</g>
	</g>
</g>
<rect class="st4" width="300" height="192.31"/>
<g id="Mask_Group_16" class="st5">
	<g id="Group_6358" transform="translate(1594.091 1387.235)">
		<path id="Path_9688_1_" class="st6" d="M-1350.31-1229.17c-19.89,2.26-99.44-7.32-110.86-6.77c-11.42,0.57-67.28,11.25-79.98,7.88
			c-9.04-2.39-37.33-3.37-52.92-3.74v1.6c21.34,3.49,68.62,10.5,79.82,6.14c14.57-5.68,71.28-4.81,88.2-3.27
			c16.92,1.54,71.52,7.26,99.44,3.27c10.81-1.6,21.71-1.51,32.5,0.28v-3.6C-1310.37-1228.79-1337.04-1230.67-1350.31-1229.17z"/>
		<path id="Path_9689_1_" class="st6" d="M-1387.97-1244.38c-22.43,0.57-76.59-6.2-88.86-4.51c-12.28,1.69-63.47,9.95-74.9,7.5
			c-8.08-1.73-30.12-2.51-42.34-2.82v1.48c16.65,3.21,53.06,9.91,63.08,9.05c13.12-1.12,68.13-10.14,81.25-7.89
			c13.12,2.26,83.37,6.72,101.56,5.61c12.61-0.77,39.05,0.67,54.08,1.61v-5.42C-1317.37-1241.36-1370.63-1244.82-1387.97-1244.38z"
			/>
		<path id="Path_9690_1_" class="st6" d="M-1424.36-1259.03c-13.54,1.12-52.9-1.12-87.59,2.82c-26.46,3.01-65.2,2.09-82.11,1.47
			v1.37c16.61,3.28,52.94,9.88,63.92,7.3c14.38-3.38,70.66-14.09,84.63-9.01c13.97,5.07,76.59,3.96,90.55,5.92
			c10.47,1.47,43.29,4.4,60.86,4.57v-6.17c-16.75-0.42-47.11-1.26-51.97-2.07C-1352.85-1253.96-1410.82-1260.16-1424.36-1259.03z"/>
		<path id="Path_9691_1_" class="st6" d="M-1359.91-1310.62c-8.67-4.28-44.64-9.91-53.77-11.56c-10.35-1.87-20.44-3.87-30.87-5.04
			c-23.2-2.58-46.14,2.5-69.1,3.91c-6.27,0.39-12.33,1.89-18.62,2.29c-4.75,0.25-9.44,1.39-13.97,3.38
			c9.14,4.52,20.63,5.92,30.47,6.64c11.03,0.8,21.6,3.47,32.48,4.76c19.98,2.38,41.84,2.4,61.47-1.83
			c6.79-1.46,13.96-1.75,20.76-3.34C-1398.05-1312.11-1360.88-1307.3-1359.91-1310.62z M-1467.09-1310.31
			c-9.59-0.63-19.19-0.57-28.69-2.85c-10.35-2.59-20.88-3.72-31.39-3.35c6.97,0.04,13.93-0.93,20.74-2.93
			c7.93-2.67,14.52-0.23,22.41,0.69c9.26,1.08,17.32-3.55,26.37-3.95c18.92-0.86,38.04,3,56.55,5.76
			c-5.26,2.67-13.4,2.98-19.34,4.51C-1435.18-1308.65-1451.6-1309.3-1467.09-1310.31L-1467.09-1310.31z"/>
		<path id="Path_9692_1_" class="st7" d="M-1391.37-1315.96c-18.51-2.76-47.39-7.61-66.3-6.76c-9.06,0.42-17.11,5.04-26.37,3.95
			c-7.88-0.91-14.47-3.36-22.41-0.69c-6.81,1.99-13.77,2.97-20.74,2.93c10.53-0.36,21.05,0.77,31.39,3.35
			c9.5,2.29,19.11,2.23,28.69,2.85c15.51,1.01,31.92,1.66,46.64-2.13C-1414.52-1313.98-1396.63-1313.28-1391.37-1315.96z
			 M-1458.21-1313.12c-6.51,0.6-13.05,0.56-19.56-0.13c-3.8-0.49-7.95-1.76-12.06-2.72c-3.3,0.03-6.6-0.34-9.85-1.09
			c3.31-0.16,6.61,0.21,9.85,1.09c4.39,0.13,8.98,0.03,11.72,0.03c5.38,0.2,10.75-0.18,16.07-1.11c6.21-1.32,11.58-3.23,18.18-2.83
			c6.6,0.4,18.52-0.97,24.11,4.11C-1430.68-1308.55-1446.1-1313.96-1458.21-1313.12z"/>
		<path id="Path_9693_1_" class="st6" d="M-1499.68-1317.07c3.25,0.76,6.55,1.12,9.85,1.09
			C-1493.07-1316.86-1496.38-1317.23-1499.68-1317.07z"/>
		<path id="Path_9694_1_" class="st6" d="M-1419.74-1315.78c-5.59-5.09-17.49-3.72-24.11-4.11c-6.61-0.4-11.98,1.5-18.18,2.83
			c-5.33,0.93-10.71,1.31-16.07,1.11c-2.74,0-7.33,0.1-11.72-0.03c4.11,0.96,8.25,2.24,12.06,2.72c6.51,0.68,13.04,0.73,19.56,0.13
			C-1446.11-1313.96-1430.68-1308.56-1419.74-1315.78z"/>
		<path id="Path_9695_1_" class="st6" d="M-1583.89-1277.09c7.29,1.4,14.43,4.03,21.69,5.09c5.43,0.95,10.91,1.14,16.36,0.58
			c4.28-0.56,10.7-2.07,14.8,0.13c-6.64,6.83-22.98,4.95-31.69,4.95c-6.07,0.23-12.16,0.04-18.22-0.56
			c-3.95-0.53-7.62,0.34-11.35,0.63c8.76,0.39,17.7,2.2,26.49,2.19c8.54-0.01,17.08-0.01,25.61,0c7.44,0,14.39-1.81,21.78-2.23
			c8.2-0.47,16.77-0.02,25.03-0.7c-4.37-6.3-20.9-5.44-27.46-6.67c-9.94-2.06-19.97-3.19-30.03-3.38c-10.01,0-20.22,0.8-30.07-1.14
			c-3.91-0.78-8.55-2.28-13.14-3.25v4.04C-1590.36-1277.29-1586.6-1277.61-1583.89-1277.09z"/>
		<path id="Path_9697_1_" class="st6" d="M-1584.31-1272.01c5.15,0.74,9.3,3.24,14.77,2.7c-4.65-3.02-11.48-3.46-16.89-3.82
			c-2.69-0.18-5.18-0.66-7.63-0.87v1.74C-1590.81-1272.42-1587.55-1272.33-1584.31-1272.01z"/>
		<path id="Path_9698_1_" class="st6" d="M-1310.83-1281.58c-16.58-0.82-32.27-1.39-48.79,0.54c-13.58,1.58-27.87,0.95-41.36,3.54
			c-5.45,1.04-10.5,3.48-15.86,4.82c-5.04,1.26-10.8,0.4-15.92,0.78c0.03,0.51,0.03,1.02,0,1.53c9.87,3.59,20.85,4.62,31.24,4.59
			c17.69-0.06,35.03,4.24,52.57,5.07c11.23,0.53,22.53-0.57,33.85-0.57c7.19,0,13.99-1.21,20.99-1.85v-5.01
			c-0.73,0.05-1.42,0.1-2.03,0.1h-13.97c-15.4,0-30.85,0.51-46.22-0.44c-15.79-0.97-33.65,6.49-48.43-2.97
			c9.05,0.19,17.73-1.55,26.53-1.67c7.51-0.1,13.93-2.96,21.15-3.94c8.48-1.15,17.08-0.24,25.51,0.44
			c10.02,0.79,19.37,1.71,29.11,3.64c1.23,0.24,4.59,0.91,8.36,1.26v-10.04C-1301.43-1282.11-1309.17-1281.49-1310.83-1281.58z"/>
		<path id="Path_9699_1_" class="st6" d="M-1357.5-1272.56c12.82-2.05,26.47,2.09,39.31,1.01c-3.81-3.61-14.89-3.18-19.84-3.84
			C-1341.8-1275.87-1356.13-1278.15-1357.5-1272.56z"/>
		<path id="Path_9700_1_" class="st6" d="M-1427.42-1221.13c-6.67-2.23-13.48-3.59-20.34-4.08c-12.39-0.67-24.7,2.81-37.12,2.82
			c-17.38,0-33.6,5.09-51.31,2.94c-9.58-1.16-19.14,0.94-28.55-1.66c-5.73-1.79-11.59-2.6-17.47-2.42
			c-2.83,0.2-7.83-0.05-11.87,0.69v4.61c5.8,1.92,12.2,1.53,18.24,3.2c9.1,2.52,18.45,6.9,27.81,7.29
			c12.35,0.75,24.71-0.25,36.91-2.97c10.6-2.53,21.21-2.09,31.86-4.49c8.73-1.98,18.06-0.98,26.98-0.98c6.52,0,26.94-2.02,30.4,6.09
			c-3.27,4.32-8.79,5.61-12.64,9.11c-3.05,2.73-5.9,5.82-8.55,9.24h5.96c9.64-8.33,18.48-18.22,29.52-23.88
			C-1413.64-1218.3-1421.01-1219.14-1427.42-1221.13z"/>
		<path id="Path_9701_1_" class="st6" d="M-1321.21-1219.04c-9.79,0.55-19.73,0.59-29.62,0.58c-9.88-0.01-19.58,0.78-29.45-0.6
			c-6.58-0.91-19.3-4.24-25.42-0.41c2.27,4.42,9.27,8.66,12.66,12.27c6.48,6.88,14.85,13.59,23.25,15.21
			c0.46,0.09,0.84,0.16,1.17,0.21h1.48c0.86-0.26,1.28-1.2,2.8-3.44c-6.43-6.2-26.36-8.33-28.25-18.67
			c17.77-1.2,36.17,0.77,53.98,1.61c11.33,0.53,22.75,0,34.09,0c2.26,0,6.32,0.38,10.39,0.14v-8.14c-3.35,0.64-6.72,1.05-10.1,1.23
			C-1309.86-1219.04-1315.56-1219.35-1321.21-1219.04z"/>
		<path id="Path_9702_1_" class="st6" d="M-1567.48-1286.68c12.85,0.77,26.35,4.39,39.02,7.35c12.5,2.92,24.86,3.76,37.56,5.04
			c8.89,0.9,17.42,6.28,26.34,5.66c12.79-0.88,24.99-4.26,37.66-5.07c6.52-0.42,11.82-2.31,18.08-4.06
			c5.92-1.67,15.3-0.22,20.29-4.41c-10.11,0.24-19.72,1.72-29.91,1.72c-12.67,0-24.07,3.23-36.38,5.62
			c-10.53,2.05-19.31-0.32-29.71-2.67c-13.34-3.03-26.96-4.96-40.21-8.02c-9.24-2.13-18.56-4.29-27.83-6.2
			c-4.72-0.97-9.2-3.36-13.94-3.94c-4.74-0.59-9.11-0.41-13.68-2.25c-4.49-1.81-9.2-2.45-13.87-1.91v10.48
			c2.1,0.68,4.22,1.15,6.37,1.43C-1580.95-1287.15-1574.31-1287.08-1567.48-1286.68z"/>
		<path id="Path_9703_1_" class="st6" d="M-1396.76-1292.28c-18.34,0-36.07,0.59-53.86,5.21c-9.79,2.29-19.81,2.24-29.6-0.12
			c-6.21-1.4-12.27-2.7-18.6-3.53c-6.14-0.79-12.69-0.79-18.54-3.4c-8.05-3.58-14.89-7.92-23.35-9c-8.85-1.12-17.43-2.14-25.85-6.08
			c-8.68-4.05-18.84-10.14-27.52-6.83v4.89c7.68,1.29,15.85,5.46,22.96,7.15c8.7,2.06,17.16,4.52,25.82,6.18
			c15.2,2.92,29.84,6.11,44.78,11.29c19.58,6.79,42.14,11.72,61.87,4.49c9.27-3.4,18.84-3.44,28.35-4.62
			c15.66-1.95,31.51-2.29,47.36-2.29c22.74,0,46.07,1.26,68.81-0.59v-2.1c-14.08-0.66-28.04-1.83-42.12-1.83
			C-1356.38-1293.4-1376.47-1292.28-1396.76-1292.28z"/>
		<path id="Path_9704_1_" class="st6" d="M-1561.04-1315.51c9.19,3.06,18.37,5.35,27.6,8.16c23.7,7.21,48.12,14.19,72.38,15.64
			c7.76,0.52,15.55-0.2,23.18-2.13c5.45-1.41,11.65-2.18,16.78-5.23c-3.82-0.4-7.28,1.31-10.88,1.72c-4.29,0.49-8.8,0-13.11,0
			c-8.79,0-17.51,2.15-26.22,1.69c-15.91-0.83-31.94-8.83-47.42-11.86c-5.88-1.15-12.42-1.4-18.17-3.39
			c-6.13-2.12-12.16-5.36-18.62-7.43c-8.24-2.65-16.23-4.49-24.54-6.61c-2.65-0.68-5.96-0.88-9.19-1.43
			c3.51,1.96,7.1,3.61,10.77,4.95C-1572.61-1319.43-1566.9-1317.46-1561.04-1315.51z"/>
		<path id="Path_9705_1_" class="st6" d="M-1594.07-1328.88v1.23c1.58,0.59,3.19,1.01,4.82,1.27
			C-1590.85-1327.22-1592.45-1328.08-1594.07-1328.88z"/>
		<path id="Path_9706_1_" class="st6" d="M-1359.2-1302.99c-10.66,1.17-21.39,1.12-32.14,1.12c-7.13,0-17.16-0.67-23.25,3.82
			c5.18,0.86,10.42,1.09,15.63,0.7c18.57-1,37.19,0,55.86,0c10.73,0,21.19,1.28,31.84,1.12c3.14-0.05,10.74,0.3,17.15-1.02v-10.82
			c-8.28,2.97-15.49,5.09-24.89,5.09C-1332.4-1302.99-1345.9-1304.45-1359.2-1302.99z"/>
		<path id="Path_9707_1_" class="st6" d="M-1339.39-1319.89c-19.15-2.31-36.3-5.26-54.6-13.95c-22.24-10.57-44.38-8.36-67.29-5.19
			c-10.29,1.43-20.81,1-31.1,2.24c-10.34,1.46-20.73,2.21-31.13,2.24c-13.83-0.19-27.68,8.37-40.93,2.81
			c-6.33-2.65-12.3-5.07-19.05-5.59c-3.46-0.27-7.23,0.79-10.59,0.12c1.14,0.74,2.28,1.53,3.38,2.1c3.58,1.62,7.27,2.81,11.01,3.54
			c5.07,1.32,9.89,4.31,14.9,5.93c8.34,2.68,15.91,1.78,24.01-0.86c10.02-3.26,19.54-4.08,29.96-4.08c11.67,0,23.19-1.69,34.81-1.69
			c8.12,0,15.68-2.74,23.76-2.29c13.84,0.78,27.33,3.94,41.05,5.53c11.3,1.31,22.36,2.1,33.35,6.18
			c13.32,4.95,25.91,10.47,40.08,11.42c11.9,1.02,23.84,1.06,35.75,0.12c2-0.2,4.82-0.25,7.86-0.43v-6.85
			c-3.79,0.41-7.49,0.95-10.51,0.95C-1316.37-1317.64-1327.84-1318.5-1339.39-1319.89z"/>
		<path id="Path_9709_1_" class="st6" d="M-1540.43-1338.63c20.52-8.25,42.37-3.23,63.56-5.93c1.52-0.2,7.81-0.21,8.09-3.48
			c0.37-4.36-10.13-5.65-12.28-6.09c-13.14-2.64-26.1-5.75-39.37-7.32c-15.2-1.8-30.24-5.35-45.39-7.48
			c-8.88-1.25-18.91-4.96-28.26-5.98v5.98c6.09,1.48,13.9,1.17,16.97,1.84c11.33,2.45,21.94,7.23,33.4,8.75
			c10.46,1.39,21.01,2.51,31.3,5.06c5.63,1.39,19.87,0.11,23.65,5.64c-6.75,4.59-19.21-0.83-26.58,0.17
			c-8.96,1.22-18.7-0.21-27.42,2.8c-8.55,2.95-13.5,6.44-22.63,1.55c-9.19-5.02-18.84-8.34-28.69-9.85v2.82
			c9.67,3.45,19.36,8.19,28.7,12.38C-1556.3-1333.69-1549.37-1335.03-1540.43-1338.63z"/>
		<path id="Path_9710_1_" class="st6" d="M-1554.28-1349.19c5.33,0,9.53-1.44,14.4-2.37c5.17-0.99,10.71-0.02,15.95-0.57
			c-12.78-7.09-27.19,0.21-39.57-6.78c-7.78-4.39-14.19-7.91-22.93-7.18c-2.64,0.24-5.23,1.13-7.63,2.62v2.11
			c7.67,0.64,15.22,2.9,22.37,6.7C-1565.68-1351.44-1560.82-1349.19-1554.28-1349.19z"/>
		<path id="Path_9711_1_" class="st6" d="M-1306.61-1326.66c-10.79,0-21.24-1.56-31.84-2.83c-17.94-2.15-34.76-7.85-51.69-15.03
			c-18.73-7.95-39.78-2.96-58.34-10.89c-20.95-8.95-44.21-9.03-65.15-18.74c-9.45-4.38-16.93-7.74-27.09-7.73
			c-7.26,0-14.37,0.48-21.59,0c-6.79-0.45-13.68,0.97-20.3-1.14c-3.74-1.4-7.57-2.32-11.43-2.72v0.49
			c7.03,1.85,14.07,5.95,21.29,7.18c6.92,1.18,13.74,2.76,20.63,4.08c11.83,2.27,23.75,2.58,35.53,5.62
			c12.62,3.25,24.91,7.62,37.64,8.58c6.46,0.49,14.52,1.29,20.44,4.81c3.47,2.06,6.19,5.02,10.07,6.34
			c21.18,7.23,43.97,0.56,65.05,9.42c9.14,3.85,17.73,8.64,27.28,11.27c11.85,3.36,23.87,5.47,35.96,6.35
			c8.67,0.59,17.31,0.01,26.06,0.02v-5.05C-1298.28-1326.54-1302.45-1326.66-1306.61-1326.66z"/>
		<path id="Path_9712_1_" class="st6" d="M-1453.64-1364.96c8.21,1.14,17.66,2.74,25.8-0.42c11.94-4.64,21.45-15.81,32.59-21.86
			h-14.84c-1.98,3.59-0.77,7.09-4.95,9.73c-8.26,5.2-20.13,6.38-29.09,6.91c-9.58,0.56-20.45,2.99-29.64-0.71
			c-8.74-3.51-16.24-10.58-25.07-13.79c-5.6-2.04-10.81-0.95-16.49-1.85c-0.53-0.08-1.02-0.19-1.51-0.29h-4.58
			c11.01,5.58,22.9,8.89,34.13,13.24C-1476.3-1369.67-1465.04-1366.65-1453.64-1364.96z"/>
		<path id="Path_9713_1_" class="st6" d="M-1425.94-1385.27c0.15-0.65,0.12-1.35-0.09-1.97h-21.33c-2.03,1.39-4.24,2.26-6.51,2.55
			c-5.97,0.63-11.16-1.3-16.92-2.28c-0.67-0.11-1.31-0.19-1.97-0.28h-13.35c9.56,7.97,21.35,13.25,32.03,13.25
			C-1447.46-1373.99-1428.41-1373.83-1425.94-1385.27z"/>
		<path id="Path_9714_1_" class="st6" d="M-1341.73-1371.77c-9.34,1.09-18.94,2.51-28.13,4.52c-5.42,1.18-15.67,3.32-19.75,7.78
			c10.03,5.06,18.69,12.09,29.58,14.67c11,2.59,22.24,4.92,33.33,7.01c10.12,1.91,20.24-0.17,30.45,0.4
			c0.58,0.03,1.31,0.13,2.14,0.26v-7.25c-3.24,0.4-6.49,0.49-9.73,0.28c-11.1-1.2-21.75-3.4-33.02-3.4
			c-8.31,0.24-16.61-0.33-24.86-1.69c-5.46-1.05-12.45-2.24-16.02-8.33c7.23-3.74,15.36-4.22,23.11-4.63
			c10.59-0.57,21.19-1.69,31.84-1.69c8.93-0.13,17.83-1.11,26.66-2.94c0.6-0.12,1.28-0.24,2.04-0.36v-10.17
			c-5.28,1.2-10.61,2.83-15.68,3.2C-1320.49-1373.36-1331.1-1373-1341.73-1371.77z"/>
		<path id="Path_9715_1_" class="st6" d="M-1318.16-1357.65c-13.28-0.02-26.54,1.49-39.63,4.52c6.79-0.84,14.08,1.25,20.92,1.11
			c7.73-0.16,15.7-1,23.41,0.54c4.22,0.84,12.07,2.94,19.36,3.36v-4.67c-3.08-0.09-6.16-0.21-9.2-0.45c1.6-2.71,5.38-3.47,9.2-3.79
			v-4.77c-1.15,0.34-2.28,0.66-3.3,0.9C-1304.69-1359.22-1310.65-1357.65-1318.16-1357.65z"/>
		<path id="Path_9716_1_" class="st6" d="M-1414.74-1364.55c-4.95,1.79-10.01,5.85-15.02,6.34c8.29,0,17.55,2.24,25.27-1.25
			c9.41-4.24,18.7-9.28,28.37-12.98c19.69-7.53,45.89,3.54,62.89-14.54c-8.31,0.18-16.23,2.31-24.48,2.29
			c-8.54-0.03-17.15,0.1-25.63,1.1c-6.19,0.73-13.38,2.55-18.72,7.23c-3.8,3.33-6.81,7.54-11.71,7.92
			c6.69-8.13,18.47-14.6,27.35-16.8c3.09-0.77,6.49-1.23,9.8-1.98h-21.11c-7.1,3.2-13.14,8.89-19.97,13.11
			C-1403.43-1370.59-1408.61-1366.77-1414.74-1364.55z"/>
		<path id="Path_9717_1_" class="st6" d="M-1439.66-1211.05c-3.37-0.18-6.74-0.02-10.09,0.48c-11.23,1.51-22.92,1.12-34.26,1.12
			c-14.41,0-28.19,5.15-42.42,6.89c-11.71,1.44-23.01,2.16-34.63-0.81c-10.95-2.8-21.71-7.51-32.99-8.26v5.39
			c2.63,1.5,5.44,2.61,7.23,3.43c9.02,4.13,18.65,9.03,28.35,11.04h24.81c7.53-0.64,15.03-1.84,22.46-3.59
			c9.57-2.32,18.83-3.3,28.56-4.54c5.09-0.65,10.37-0.03,15.45-1.08c4.75-0.98,10.06-4.39,14.88-3.29
			c-3.03,3.74-9.97,6.93-11.24,12.49h7.14c2.16-0.51,4.17-1.79,5.82-3.72C-1448.04-1198.42-1439.2-1206.42-1439.66-1211.05z"/>
		<path id="Path_9718_1_" class="st6" d="M-1404.57-1207.2c-5.88-0.55-12.04,7.37-13.84,15.43h6.23c0.75-2.33,1.27-4.88,3.01-5.99
			c3.35-2.15,7.02,2.64,9.75,4.66c0.58,0.43,1.16,0.87,1.76,1.33h15.88c-1.6-1.72-3.28-3.3-5.04-4.72
			C-1391.27-1200.34-1399.22-1206.7-1404.57-1207.2z"/>
		<path id="Path_9719_1_" class="st6" d="M-1331.36-1206.07c-7.93-0.5-15.75,1.13-23.71,0.57c-3.62-0.26-6.98-1.27-10.57-1.69
			c-2.88-0.34-5.95,0.68-8.66-0.63c5.24,3.31,10.92,4.56,15.99,8.66c3.18,2.57,5.45,4.79,9.19,5.6c9.09,1.99,19.22,0.97,28.54,0.44
			c5.64-0.12,11.28,0.33,16.87,1.33h9.61v-14.18c-3.77,0.62-7.56,0.95-11.34,1.01C-1314.22-1204.93-1322.73-1205.52-1331.36-1206.07
			z"/>
	</g>
</g>
</svg>
