<?xml version="1.0" encoding="utf-8"?>
<!-- Generator: Adobe Illustrator 24.2.3, SVG Export Plug-In . SVG Version: 6.00 Build 0)  -->
<svg version="1.1" id="Layer_1" xmlns="http://www.w3.org/2000/svg" xmlns:xlink="http://www.w3.org/1999/xlink" x="0px" y="0px"
	 viewBox="0 0 300 83.08" style="enable-background:new 0 0 300 83.08;" xml:space="preserve">
<style type="text/css">
	.st0{fill:#CB763C;}
	.st1{fill:#DC8040;}
	.st2{fill:#C47036;}
	.st3{opacity:0.5;}
	.st4{opacity:0.46;}
	.st5{opacity:0.32;fill:#D8AB6B;enable-background:new    ;}
	.st6{fill:#2C2C2C;}
	.st7{fill:#FFFFFF;}
	.st8{fill:url(#Path_10508_4_);}
	.st9{fill:url(#Path_10508_5_);}
	.st10{fill:url(#Path_10508_6_);}
	.st11{fill:url(#Path_10508_7_);}
</style>
<g id="Group_6580" transform="translate(-1250 -1736)">
	<g id="Group_6578" transform="translate(234 66)">
		<rect id="Rectangle_24879" x="1016" y="1670" class="st0" width="299.93" height="75.91"/>
		<path id="Path_10472" class="st1" d="M1016,1746.72h75.49v3.26H1016V1746.72z"/>
		<path id="Path_10473" class="st2" d="M1091.49,1746.47l2.98-0.56v1.38l-2.98,2.47V1746.47z"/>
		<g id="Group_6575" transform="translate(1312.922 1763.313)">
			<path id="Path_10474" class="st1" d="M3.08-16.59h-75.49v3.26H3.08V-16.59z"/>
			<path id="Path_10475" class="st2" d="M-72.41-16.59l-2.98-0.56v1.38l2.98,2.47V-16.59z"/>
		</g>
		<rect id="Rectangle_24880" x="1093.59" y="1745.91" class="st1" width="71.63" height="1.63"/>
		<rect id="Rectangle_24881" x="1166.71" y="1745.91" class="st1" width="70.88" height="1.63"/>
		<g class="st3">
			<g>
				<g>
					<g id="Mask_Group_21" transform="translate(1016 1670)" class="st4">
						<g id="Group_6577" transform="translate(0.176 -23.31)">
							<path id="Path_10476" class="st5" d="M243.61,84.83c-19.88,0.88-99.4-2.86-110.82-2.64c-11.42,0.22-67.25,4.4-79.94,3.08
								c-9.03-0.93-37.32-1.31-52.89-1.46v0.63c21.34,1.36,68.59,4.11,79.78,2.4c14.56-2.22,71.24-1.88,88.16-1.28
								s71.48,2.84,99.4,1.28c10.82-0.63,21.68-0.59,32.49,0.11v-1.41C283.53,84.98,256.88,84.24,243.61,84.83z"/>
							<path id="Path_10477" class="st5" d="M205.96,78.88c-22.42,0.22-76.56-2.42-88.82-1.76c-12.26,0.66-63.44,3.89-74.87,2.93
								c-8.08-0.67-30.11-0.98-42.32-1.1v0.58C16.6,80.79,52.99,83.41,63,83.07c13.11-0.44,68.1-3.96,81.21-3.08
								c13.11,0.88,83.32,2.62,101.51,2.2c12.61-0.3,39.03,0.26,54.06,0.63V80.7C276.53,80.07,223.3,78.71,205.96,78.88z"/>
							<path id="Path_10478" class="st5" d="M169.59,73.16c-13.54,0.44-52.87-0.44-87.56,1.1c-26.45,1.17-65.17,0.81-82.08,0.58
								v0.53c16.61,1.28,52.92,3.86,63.89,2.85c14.38-1.32,70.64-5.51,84.59-3.52c13.95,1.99,76.56,1.55,90.52,2.32
								c10.46,0.58,43.27,1.72,60.83,1.79v-2.42c-16.75-0.16-47.09-0.49-51.94-0.81C241.07,75.14,183.12,72.72,169.59,73.16z"/>
							<path id="Path_10479" class="st5" d="M234.01,52.99c-8.66-1.67-44.62-3.87-53.75-4.51c-10.35-0.73-20.43-1.51-30.86-1.97
								c-23.19-1.01-46.12,0.98-69.07,1.53c-6.27,0.15-12.32,0.74-18.61,0.9c-4.7,0.09-9.37,0.54-13.96,1.32
								c9.14,1.77,20.61,2.32,30.45,2.59c11.03,0.31,21.59,1.36,32.46,1.86c19.98,0.93,41.82,0.94,61.44-0.72
								c6.79-0.58,13.95-0.68,20.75-1.31C195.89,52.41,233.04,54.29,234.01,52.99z M126.87,53.12c-9.59-0.25-19.18-0.22-28.68-1.12
								c-10.41-1.02-20.9-1.45-31.38-1.31c6.94,0.02,13.86-0.36,20.73-1.14c7.93-1.04,14.52-0.09,22.4,0.27
								c9.27,0.42,17.31-1.39,26.36-1.55c18.91-0.33,38.03,1.17,56.53,2.25c-5.26,1.04-13.39,1.17-19.33,1.76
								C158.78,53.77,142.37,53.51,126.87,53.12L126.87,53.12z"/>
							<path id="Path_10481" class="st5" d="M94.3,50.47c3.27,0.3,6.56,0.44,9.85,0.43C100.89,50.56,97.59,50.42,94.3,50.47z"/>
							<path id="Path_10482" class="st5" d="M174.22,50.98c-5.59-1.99-17.48-1.45-24.1-1.61c-6.62-0.16-11.97,0.59-18.18,1.11
								c-5.34,0.37-10.71,0.51-16.07,0.43c-2.74,0-7.32,0.04-11.72-0.01c4.1,0.38,8.25,0.87,12.05,1.07
								c6.5,0.33,13.05,0.22,19.55,0.05C147.85,51.69,163.27,53.8,174.22,50.98z"/>
							<path id="Path_10483" class="st5" d="M10.13,66.1c7.28,0.55,14.43,1.58,21.69,1.99c5.44,0.37,10.91,0.45,16.36,0.23
								c4.29-0.21,10.69-0.81,14.79,0.05c-6.64,2.66-22.98,1.93-31.68,1.93c-6.29,0-12.07,0.1-18.22-0.22
								c-3.94-0.21-7.62,0.13-11.34,0.25c8.76,0.15,17.69,0.86,26.49,0.85c8.53-0.01,17.07-0.01,25.6,0c7.44,0,14.39-0.7,21.77-0.87
								c8.2-0.18,16.77-0.01,25.03-0.27c-4.37-2.47-20.89-2.13-27.45-2.61c-10.09-0.73-19.79-1.32-30.02-1.32
								c-10.01,0-20.21,0.31-30.05-0.45c-3.9-0.3-8.55-0.89-13.13-1.27v1.58C3.65,66.02,7.43,65.9,10.13,66.1z"/>
							<path id="Path_10484" class="st5" d="M-0.04,70.3v0.05c0.59,0,1.18-0.01,1.77-0.03C1.13,70.31,0.54,70.31-0.04,70.3z"/>
							<path id="Path_10485" class="st5" d="M9.71,68.08c5.15,0.29,9.3,1.26,14.77,1.06c-4.65-1.18-11.47-1.35-16.89-1.49
								c-2.7-0.07-5.18-0.26-7.64-0.34v0.67C3.2,67.98,6.47,67.91,9.71,68.08z"/>
							<path id="Path_10486" class="st5" d="M283.07,64.35c-16.57-0.32-32.26-0.54-48.77,0.21c-13.57,0.62-27.87,0.37-41.34,1.38
								c-5.45,0.4-10.5,1.36-15.85,1.88c-5.03,0.49-10.79,0.16-15.91,0.31c0.03,0.2,0.03,0.4,0,0.6c9.87,1.4,20.83,1.8,31.23,1.79
								c17.67-0.02,35.01,1.66,52.55,1.98c11.23,0.21,22.52-0.22,33.84-0.22c7.18,0,13.98-0.47,20.97-0.72v-1.95
								c-0.72,0.02-1.42,0.04-2.03,0.04H283.8c-15.4,0-30.83,0.2-46.2-0.17c-15.78-0.38-33.63,2.54-48.42-1.16
								c9.04,0.07,17.73-0.6,26.52-0.65c7.5-0.04,13.92-1.16,21.15-1.54c8.47-0.45,17.07-0.09,25.49,0.17
								c10.01,0.31,19.36,0.67,29.09,1.42c1.23,0.09,4.59,0.36,8.36,0.49v-3.93C292.47,64.14,284.73,64.38,283.07,64.35z"/>
							<path id="Path_10487" class="st5" d="M236.42,67.87c12.82-0.8,26.47,0.81,39.29,0.4c-3.81-1.41-14.89-1.24-19.84-1.5
								C252.12,66.58,237.79,65.69,236.42,67.87z"/>
							<path id="Path_10488" class="st5" d="M166.53,87.97c-6.72-0.87-13.51-1.41-20.33-1.6c-12.38-0.26-24.7,1.1-37.1,1.1
								c-17.37,0-33.59,1.99-51.28,1.15c-9.58-0.45-19.13,0.37-28.54-0.65c-5.77-0.7-11.62-1.02-17.46-0.94
								c-2.83,0.08-7.83-0.02-11.86,0.27v1.8c5.8,0.75,12.19,0.6,18.23,1.25c9.1,0.99,18.44,2.69,27.79,2.85
								c12.32,0.29,24.65-0.09,36.89-1.16c10.59-0.99,21.21-0.81,31.85-1.75c8.72-0.77,18.05-0.38,26.97-0.38
								c6.51,0,26.93-0.79,30.39,2.38c-3.27,1.69-8.78,2.2-12.63,3.56c-2.96,1.03-5.82,2.24-8.55,3.61h5.96
								c9.64-3.25,18.47-7.12,29.52-9.33C180.31,89.08,172.94,88.74,166.53,87.97z"/>
							<path id="Path_10489" class="st5" d="M272.7,88.79c-9.79,0.21-19.73,0.23-29.61,0.23c-9.9-0.01-19.57,0.3-29.43-0.23
								c-6.58-0.36-19.29-1.66-25.41-0.16c2.26,1.73,9.26,3.39,12.66,4.8c6.47,2.69,14.85,5.31,23.24,5.95
								c0.46,0.04,0.84,0.06,1.17,0.09h1.48c0.87-0.1,1.28-0.47,2.8-1.34c-6.43-2.42-26.35-3.25-28.24-7.3
								c17.77-0.47,36.15,0.31,53.96,0.63c11.33,0.21,22.74,0,34.07,0c2.26,0,6.32,0.15,10.39,0.06v-3.21
								c-3.51,0.2-7.06,0.48-10.09,0.48C284.05,88.79,278.34,88.66,272.7,88.79z"/>
							<path id="Path_10490" class="st5" d="M26.53,62.36c12.85,0.3,26.34,1.72,39.01,2.88c12.5,1.14,24.85,1.46,37.54,1.97
								c8.89,0.36,17.41,2.45,26.33,2.22c12.79-0.34,24.98-1.66,37.64-1.98c6.52-0.16,11.82-0.9,18.07-1.59
								c5.93-0.65,15.3-0.09,20.28-1.73c-10.11,0.09-19.71,0.67-29.9,0.67c-12.67,0-24.06,1.26-36.37,2.2
								c-10.53,0.8-19.3-0.12-29.7-1.04c-13.33-1.19-26.95-1.95-40.19-3.15c-9.23-0.83-18.56-1.68-27.82-2.42
								c-4.72-0.38-9.19-1.31-13.93-1.54c-4.74-0.23-9.1-0.16-13.67-0.87c-4.56-0.71-9.22-0.96-13.87-0.75v4.1
								c2.11,0.25,4.23,0.46,6.37,0.56C13.07,62.17,19.71,62.19,26.53,62.36z"/>
							<path id="Path_10491" class="st5" d="M197.18,60.16c-18.33,0-36.06,0.23-53.83,2.04c-9.83,0.9-19.76,0.87-29.59-0.05
								c-6.2-0.55-12.27-1.06-18.59-1.38c-6.14-0.31-12.68-0.31-18.53-1.33c-8.04-1.4-14.89-3.1-23.35-3.52
								c-8.84-0.44-17.42-0.84-25.83-2.38c-8.68-1.58-18.83-3.96-27.51-2.66v1.91c7.68,0.5,15.83,2.14,22.96,2.8
								c8.69,0.8,17.15,1.77,25.8,2.42c15.2,1.14,29.83,2.39,44.77,4.41c19.58,2.65,42.12,4.58,61.85,1.75
								c9.27-1.33,18.83-1.34,28.34-1.8c15.65-0.76,31.5-0.9,47.34-0.9c22.72,0,46.05,0.49,68.78-0.23v-0.82
								c-14.07-0.26-28.03-0.71-42.11-0.71C237.54,59.72,217.46,60.16,197.18,60.16z"/>
							<path id="Path_10492" class="st5" d="M32.97,51.08c9.18,1.19,18.36,2.09,27.59,3.19c23.69,2.82,48.11,5.55,72.35,6.11
								c7.74,0.2,15.49-0.08,23.17-0.83c5.45-0.55,11.64-0.85,16.77-2.04c-3.82-0.16-7.28,0.51-10.87,0.67c-4.3,0.19-8.79,0-13.1,0
								c-8.78,0-17.5,0.84-26.21,0.66c-15.9-0.33-31.93-3.45-47.39-4.64c-5.87-0.45-12.42-0.55-18.16-1.32
								c-6.13-0.83-12.15-2.1-18.61-2.91c-8.24-1.04-16.23-1.75-24.53-2.58c-2.65-0.26-5.96-0.35-9.18-0.56
								c3.51,0.72,7.04,1.44,10.76,1.93C21.4,49.55,27.11,50.32,32.97,51.08z"/>
							<path id="Path_10493" class="st5" d="M-0.04,45.85v0.48c1.59,0.23,3.2,0.4,4.82,0.5C3.17,46.5,1.57,46.16-0.04,45.85z"/>
							<path id="Path_10494" class="st5" d="M234.72,55.98c-10.65,0.46-21.39,0.44-32.13,0.44c-7.12,0-17.15-0.26-23.24,1.49
								c5.19,0.34,10.41,0.43,15.62,0.27c18.56-0.39,37.17,0,55.84,0c10.72,0,21.19,0.5,31.83,0.44c3.14-0.02,10.73,0.11,17.14-0.4
								v-4.23c-8.27,1.16-15.48,1.99-24.89,1.99C261.51,55.98,248.02,55.41,234.72,55.98z"/>
							<path id="Path_10495" class="st5" d="M254.52,49.37c-19.14-0.9-36.29-2.05-54.57-5.45c-22.23-4.13-44.36-3.27-67.26-2.02
								c-10.29,0.55-20.8,0.39-31.08,0.87c-10.57,0.5-20.54,0.94-31.11,0.87c-13.82-0.09-27.66,3.26-40.91,1.09
								c-6.33-1.04-12.29-1.98-19.03-2.19c-3.46-0.11-7.22,0.31-10.58,0.04c1.15,0.28,2.28,0.6,3.38,0.82
								c3.63,0.64,7.3,1.1,11.01,1.39c5.06,0.51,9.89,1.68,14.9,2.32c8.34,1.05,15.9,0.7,24.01-0.33c10.02-1.28,19.53-1.6,29.95-1.6
								c11.67,0,23.18-0.66,34.8-0.66c8.11,0,15.67-1.07,23.75-0.9c13.83,0.31,27.31,1.54,41.03,2.17
								c11.3,0.51,22.35,0.82,33.34,2.42c13.31,1.93,25.89,4.09,40.07,4.46c11.79,0.31,23.94,0.5,35.73,0.05
								c1.99-0.08,4.82-0.09,7.86-0.17v-2.68c-3.79,0.16-7.49,0.37-10.5,0.37C277.54,50.25,266.07,49.92,254.52,49.37z"/>
							<path id="Path_10497" class="st5" d="M53.58,42.04c20.51-3.22,42.35-1.26,63.54-2.32c1.52-0.08,7.81-0.09,8.09-1.36
								c0.37-1.71-10.13-2.21-12.27-2.38c-13.14-1.03-26.09-2.25-39.35-2.86c-15.19-0.7-30.23-2.09-45.38-2.92
								c-8.88-0.49-18.9-1.94-28.25-2.34v2.34c6.09,0.58,13.89,0.45,16.96,0.72c11.33,0.96,21.93,2.83,33.38,3.42
								c10.45,0.54,21,0.99,31.29,1.97c5.62,0.54,19.86,0.04,23.64,2.21c-6.75,1.8-19.2-0.33-26.57,0.06
								c-8.96,0.48-18.7-0.08-27.41,1.09c-8.54,1.15-13.49,2.51-22.62,0.6c-9.38-1.99-18.98-3.28-28.68-3.85v1.1
								c9.67,1.34,19.36,3.2,28.69,4.84C37.72,43.97,44.64,43.45,53.58,42.04z"/>
							<path id="Path_10498" class="st5" d="M39.72,37.91c5.33,0,9.53-0.56,14.39-0.93c5.17-0.39,10.7-0.01,15.94-0.22
								c-12.78-2.77-27.18,0.08-39.55-2.65c-7.78-1.71-14.18-3.09-22.92-2.81C5,31.39,2.43,31.74-0.04,32.33v0.82
								c7.55,0.24,15.04,1.12,22.35,2.62C28.33,37.04,33.19,37.91,39.72,37.91z"/>
							<path id="Path_10499" class="st5" d="M287.29,46.72c-10.78,0-21.23-0.61-31.83-1.11c-17.93-0.84-34.75-3.07-51.67-5.88
								c-18.73-3.1-39.77-1.16-58.32-4.26c-20.94-3.5-44.19-3.53-65.13-7.32c-9.45-1.71-16.92-3.03-27.08-3.03
								c-7.25,0-14.37,0.18-21.58,0c-6.79-0.17-13.67,0.38-20.29-0.45c-3.78-0.54-7.6-0.9-11.44-1.05v0.19
								c7.02,0.72,14.06,2.32,21.29,2.81c6.91,0.46,13.73,1.08,20.62,1.6c11.82,0.89,23.74,1.01,35.52,2.2
								c12.61,1.27,24.91,2.98,37.62,3.35c6.46,0.19,14.52,0.5,20.43,1.88c3.46,0.8,6.19,1.96,10.06,2.48
								c21.17,2.82,43.96,0.21,65.03,3.68c9.13,1.5,17.73,3.38,27.27,4.4c11.92,1.31,23.91,2.15,35.94,2.48
								c8.66,0.23,17.3,0,26.05,0.01v-1.97C295.62,46.77,291.44,46.72,287.29,46.72z"/>
							<path id="Path_10502" class="st5" d="M252.18,29.09c-9.34,0.43-18.94,0.98-28.13,1.77c-5.42,0.46-15.66,1.29-19.74,3.04
								c10.03,1.97,18.68,4.72,29.57,5.73c11,1.02,22.23,1.92,33.32,2.74c10.11,0.75,20.23-0.06,30.43,0.16
								c0.58,0.01,1.31,0.05,2.14,0.1V39.8c-3.44,0.11-6.8,0.23-9.73,0.11c-11.1-0.47-21.74-1.33-33.01-1.33
								c-8.48,0-16.66-0.04-24.85-0.66c-5.45-0.41-12.44-0.87-16.02-3.25c7.23-1.46,15.35-1.65,23.11-1.81
								c10.58-0.22,21.19-0.66,31.83-0.66c8.79,0,18-0.49,26.65-1.15c0.6-0.04,1.28-0.09,2.04-0.14v-3.97
								c-5.28,0.47-10.6,1.11-15.67,1.25C273.41,28.47,262.81,28.61,252.18,29.09z"/>
							<path id="Path_10503" class="st5" d="M275.74,34.61c-13.24-0.01-26.47,0.58-39.62,1.77c6.79-0.33,14.07,0.49,20.91,0.43
								c7.73-0.06,15.69-0.39,23.4,0.21c4.22,0.33,12.06,1.15,19.35,1.31V36.5c-3.09-0.04-6.16-0.09-9.19-0.17
								c1.6-1.06,5.38-1.35,9.19-1.48v-1.87c-1.15,0.13-2.27,0.26-3.3,0.35C289.22,33.99,283.25,34.61,275.74,34.61z"/>
							<path id="Path_10505" class="st5" d="M154.3,91.91c-3.36-0.07-6.73-0.01-10.09,0.18c-11.22,0.59-22.91,0.44-34.25,0.44
								c-14.41,0-28.18,2.01-42.4,2.69c-11.7,0.56-23,0.85-34.62-0.32c-10.95-1.09-21.71-2.93-32.98-3.23v2.1
								c2.64,0.58,5.44,1.02,7.23,1.34c9.02,1.61,18.64,3.53,28.34,4.31h24.81c7.51-0.27,14.95-0.7,22.45-1.4
								c9.57-0.9,18.82-1.29,28.55-1.78c5.09-0.26,10.37-0.01,15.44-0.42c4.75-0.38,10.06-1.71,14.88-1.29
								c-3.03,1.46-9.96,2.71-11.24,4.88h7.14c2.05-0.17,4.03-0.67,5.82-1.45C145.93,96.85,154.76,93.72,154.3,91.91z"/>
							<path id="Path_10506" class="st5" d="M189.38,93.41c-5.87-0.21-12.03,2.88-13.83,6.03h6.24c0.75-0.91,1.27-1.9,3.01-2.34
								c3.35-0.84,7.01,1.03,9.75,1.83c0.57,0.16,1.16,0.34,1.76,0.52h15.87c-1.63-0.69-3.32-1.3-5.04-1.84
								C202.66,96.1,194.72,93.61,189.38,93.41z"/>
							<path id="Path_10507" class="st5" d="M262.55,93.86c-7.93-0.19-15.74,0.44-23.7,0.22c-3.62-0.1-6.98-0.5-10.56-0.66
								c-2.88-0.13-5.95,0.26-8.66-0.24c5.23,1.29,10.91,1.78,15.97,3.38c3.18,1.01,5.44,1.87,9.18,2.19
								c9.08,0.78,19.21,0.38,28.53,0.17c5.63-0.05,11.26,0.13,16.86,0.52h9.61V93.9c-3.75,0.21-7.53,0.4-11.34,0.4
								C279.69,94.3,271.18,94.07,262.55,93.86z"/>
						</g>
					</g>
				</g>
			</g>
		</g>
	</g>
	<g id="Group_6579" transform="translate(1296.842 1776.734)">
		<g id="Group_4338_1_" transform="translate(0 0)">
			<path id="Path_3691_1_" class="st6" d="M-11.89-1.8L3.14,5.79h198.5L215.9-1.8H-11.89z"/>
			<path id="Path_3687_1_" class="st7" d="M102.42-1.08H212.7l-13.26,6.5H4.49l-13.26-6.5L102.42-1.08"/>
			<rect id="Rectangle_20328_1_" x="-11.77" y="-7.48" width="227.56" height="5.71"/>
		</g>
	</g>
	
		<linearGradient id="Path_10508_4_" gradientUnits="userSpaceOnUse" x1="2784.7954" y1="-194.0975" x2="2785.5371" y2="-194.0975" gradientTransform="matrix(39.4724 0 0 4.0183 -108649.8906 2597.4648)">
		<stop  offset="1.000000e-03" style="stop-color:#BCBDBF"/>
		<stop  offset="0.214" style="stop-color:#929497"/>
		<stop  offset="0.544" style="stop-color:#FFFFFF"/>
		<stop  offset="0.723" style="stop-color:#929497"/>
		<stop  offset="1" style="stop-color:#424143"/>
	</linearGradient>
	<path id="Path_10508" class="st8" d="M1272.73,1816c0,0-0.77,2.78,3.39,3.08h22.58c0,0,2.89,0.19,3.19-2.07l0.06-1.04h-2.48
		c0,0,0.07,1.39-2.11,1.22l-19.94-0.16c0,0-1.85,0.13-2.34-1.03L1272.73,1816L1272.73,1816z"/>
	
		<linearGradient id="Path_10508_5_" gradientUnits="userSpaceOnUse" x1="2790.6179" y1="-194.0975" x2="2791.3596" y2="-194.0975" gradientTransform="matrix(39.4724 0 0 4.0183 -108649.8906 2597.4648)">
		<stop  offset="1.000000e-03" style="stop-color:#BCBDBF"/>
		<stop  offset="0.214" style="stop-color:#929497"/>
		<stop  offset="0.544" style="stop-color:#FFFFFF"/>
		<stop  offset="0.723" style="stop-color:#929497"/>
		<stop  offset="1" style="stop-color:#424143"/>
	</linearGradient>
	<path id="Path_10508_3_" class="st9" d="M1502.56,1816c0,0-0.77,2.78,3.39,3.08h22.58c0,0,2.89,0.19,3.19-2.07l0.06-1.04h-2.48
		c0,0,0.07,1.39-2.11,1.22l-19.94-0.16c0,0-1.85,0.13-2.34-1.03L1502.56,1816L1502.56,1816z"/>
	
		<linearGradient id="Path_10508_6_" gradientUnits="userSpaceOnUse" x1="2787.0103" y1="-194.8606" x2="2787.2666" y2="-194.8606" gradientTransform="matrix(39.4724 0 0 4.0183 -108649.8906 2597.4648)">
		<stop  offset="1.000000e-03" style="stop-color:#BCBDBF"/>
		<stop  offset="0.214" style="stop-color:#929497"/>
		<stop  offset="0.544" style="stop-color:#FFFFFF"/>
		<stop  offset="0.723" style="stop-color:#929497"/>
		<stop  offset="1" style="stop-color:#424143"/>
	</linearGradient>
	<path id="Path_10508_1_" class="st10" d="M1360.12,1813.58c0,0-0.26,1.6,1.17,1.78h7.81c0,0,1,0.11,1.1-1.2l0.02-0.6h-0.86
		c0,0,0.02,0.8-0.73,0.7l-6.89-0.09c0,0-0.64,0.08-0.81-0.59L1360.12,1813.58L1360.12,1813.58z"/>
	
		<linearGradient id="Path_10508_7_" gradientUnits="userSpaceOnUse" x1="2788.7659" y1="-194.8606" x2="2789.0222" y2="-194.8606" gradientTransform="matrix(39.4724 0 0 4.0183 -108649.8906 2597.4648)">
		<stop  offset="1.000000e-03" style="stop-color:#BCBDBF"/>
		<stop  offset="0.214" style="stop-color:#929497"/>
		<stop  offset="0.544" style="stop-color:#FFFFFF"/>
		<stop  offset="0.723" style="stop-color:#929497"/>
		<stop  offset="1" style="stop-color:#424143"/>
	</linearGradient>
	<path id="Path_10508_2_" class="st11" d="M1429.41,1813.58c0,0-0.26,1.6,1.17,1.78h7.81c0,0,1,0.11,1.1-1.2l0.02-0.6h-0.86
		c0,0,0.02,0.8-0.73,0.7l-6.89-0.09c0,0-0.64,0.08-0.81-0.59L1429.41,1813.58L1429.41,1813.58z"/>
</g>
</svg>
