<?xml version="1.0" encoding="utf-8"?>
<!-- Generator: Adobe Illustrator 24.2.3, SVG Export Plug-In . SVG Version: 6.00 Build 0)  -->
<svg version="1.1" id="Layer_1" xmlns="http://www.w3.org/2000/svg" xmlns:xlink="http://www.w3.org/1999/xlink" x="0px" y="0px"
	 viewBox="0 0 300 200" style="enable-background:new 0 0 300 200;" xml:space="preserve">
<style type="text/css">
	.st0{fill:#A38D82;}
	.st1{fill:#7C6C62;}
	.st2{opacity:0.55;}
	.st3{opacity:0.5;clip-path:url(#SVGID_2_);}
	.st4{opacity:0.8;clip-path:url(#SVGID_4_);}
	.st5{opacity:0.32;fill:#D8AB6B;enable-background:new    ;}
	.st6{fill:#B96A30;fill-opacity:0;}
	.st7{fill:#7C4330;}
	.st8{fill:#7B3E33;}
	.st9{fill:#783B2E;}
	.st10{fill:#763B26;}
	.st11{fill:#7C7C7C;}
	.st12{fill:#9B9B9B;}
	.st13{fill:url(#Rectangle_24833_2_);}
	.st14{fill:url(#Rectangle_24834_2_);}
	.st15{fill:url(#Rectangle_24835_2_);}
	.st16{opacity:0.5;fill:url(#Rectangle_24836_2_);enable-background:new    ;}
	.st17{opacity:0.5;fill:url(#Rectangle_24837_2_);enable-background:new    ;}
	.st18{opacity:0.6;fill:url(#Path_10247_2_);enable-background:new    ;}
</style>
<g id="Group_6397" transform="translate(294.203 -165.46) rotate(90)">
	<g id="Group_6371" transform="translate(165.46 32.203)">
		<path id="Rectangle_24805" class="st7" d="M200-32.22v288.44c0,3.19-2.98,5.78-6.65,5.78H6.65C2.98,262,0,259.41,0,256.22V-32.22
			C0-35.41,2.98-38,6.65-38h186.69C197.02-38,200-35.41,200-32.22z"/>
		<g id="Group_6370" transform="translate(7.357 4.334)">
			<g id="Group_6363" transform="translate(1.539 167.44)">
				
					<rect id="Rectangle_24806" x="-17.91" y="7.66" transform="matrix(2.535182e-06 1 -1 2.535182e-06 14.5388 4.8269)" class="st8" width="45.54" height="4.06"/>
				
					<rect id="Rectangle_24807" x="12.3" y="48.68" transform="matrix(2.535182e-06 1 -1 2.535182e-06 76.3133 25.1103)" class="st9" width="26.61" height="4.06"/>
			</g>
			<g id="Group_6364" transform="translate(31.44 0)">
				
					<rect id="Rectangle_24808" x="11.71" y="-16.63" transform="matrix(2.535182e-06 1 -1 2.535182e-06 19.8801 -49.0836)" class="st9" width="45.54" height="4.06"/>
				
					<rect id="Rectangle_24809" x="-10.53" y="6.14" transform="matrix(2.535182e-06 1 -1 2.535182e-06 22.5303 -6.1945)" class="st9" width="49.78" height="4.06"/>
			</g>
			<g id="Group_6365" transform="translate(77.709 0)">
				
					<rect id="Rectangle_24810" x="73.96" y="-16.63" transform="matrix(2.535182e-06 1 -1 2.535182e-06 82.1255 -111.3292)" class="st10" width="45.54" height="4.06"/>
				
					<rect id="Rectangle_24811" x="15.77" y="24.4" transform="matrix(2.535182e-06 1 -1 2.535182e-06 55.4993 -2.6461)" class="st8" width="26.61" height="4.06"/>
			</g>
			<g id="Group_6366" transform="translate(7.397 79.231)">
				
					<rect id="Rectangle_24812" x="21.13" y="7.78" transform="matrix(2.535182e-06 1 -1 2.535182e-06 66.6362 -47.0133)" class="st10" width="71.38" height="4.06"/>
				
					<rect id="Rectangle_24813" x="52.77" y="20.71" transform="matrix(2.535182e-06 1 -1 2.535182e-06 98.277 -52.8095)" class="st8" width="45.54" height="4.06"/>
				
					<rect id="Rectangle_24814" x="43.19" y="69.76" transform="matrix(2.535182e-06 1 -1 2.535182e-06 128.2815 15.2882)" class="st9" width="26.61" height="4.06"/>
				
					<rect id="Rectangle_24815" x="26.28" y="30.5" transform="matrix(2.535182e-06 1 -1 2.535182e-06 68.6042 -3.5542)" class="st9" width="19.6" height="4.06"/>
				
					<rect id="Rectangle_24816" x="-3.08" y="9.79" transform="matrix(2.535182e-06 1 -1 2.535182e-06 18.5389 5.1021)" class="st9" width="19.6" height="4.06"/>
				
					<rect id="Rectangle_24817" x="87.49" y="8.91" transform="matrix(2.535182e-06 1 -1 2.535182e-06 122.4902 -100.6185)" class="st9" width="48.12" height="4.06"/>
			</g>
			<g id="Group_6367" transform="translate(77.709 147.439)">
				
					<rect id="Rectangle_24818" x="22.24" y="17.68" transform="matrix(2.535182e-06 1 -1 2.535182e-06 77.6382 -38.2298)" class="st8" width="71.38" height="4.06"/>
				
					<rect id="Rectangle_24819" x="89.51" y="82.48" transform="matrix(2.535182e-06 1 -1 2.535182e-06 187.3242 -18.3057)" class="st9" width="26.61" height="4.06"/>
				
					<rect id="Rectangle_24820" x="8.78" y="42.88" transform="matrix(2.535182e-06 1 -1 2.535182e-06 73.9758 15.8303)" class="st10" width="40.58" height="4.06"/>
			</g>
			<g id="Group_6368" transform="translate(0 0.12)">
				
					<rect id="Rectangle_24821" x="-8.34" y="-24.65" transform="matrix(2.535182e-06 1 -1 2.535182e-06 -16.2259 -29.0157)" class="st9" width="29.47" height="4.06"/>
				
					<rect id="Rectangle_24822" x="-5.08" y="19.59" transform="matrix(2.535182e-06 1 -1 2.535182e-06 25.9855 17.2522)" class="st10" width="18.89" height="4.06"/>
			</g>
			<g id="Group_6369" transform="translate(40.801 187.325)">
				
					<rect id="Rectangle_24823" x="23.35" y="2.5" transform="matrix(2.535182e-06 1 -1 2.535182e-06 42.6151 -33.553)" class="st9" width="29.47" height="4.06"/>
				
					<rect id="Rectangle_24824" x="26.61" y="46.74" transform="matrix(2.535182e-06 1 -1 2.535182e-06 84.8272 12.713)" class="st9" width="18.89" height="4.06"/>
				
					<rect id="Rectangle_24825" x="-8.86" y="40.63" transform="matrix(2.535182e-06 1 -1 2.535182e-06 59.993 25.3159)" class="st8" width="52.4" height="4.06"/>
			</g>
		</g>
		<g id="Group_6399" transform="translate(8.431 242.524)">
			<path id="Path_10173" class="st11" d="M8.68,10.81c3.91-0.01,7.07-3.07,7.06-6.83s-3.18-6.81-7.09-6.8
				C4.75-2.82,1.59,0.23,1.59,4C1.59,7.77,4.76,10.82,8.68,10.81C8.68,10.81,8.68,10.81,8.68,10.81z"/>
			<path id="Path_10174" class="st12" d="M8.68,9.58c-3.2-0.01-5.79-2.51-5.78-5.6C2.9,0.9,5.5-1.6,8.7-1.59
				c3.2,0.01,5.78,2.51,5.78,5.59C14.48,7.08,11.88,9.58,8.68,9.58z"/>
		</g>
		<g id="Group_6402" transform="translate(8.431 11.289)">
			<path id="Path_10173-2" class="st11" d="M8.68-22.72c3.91-0.01,7.07-3.07,7.06-6.83s-3.18-6.81-7.09-6.8
				c-3.9,0.01-7.06,3.06-7.06,6.82C1.59-25.77,4.76-22.72,8.68-22.72C8.68-22.72,8.68-22.72,8.68-22.72z"/>
			<path id="Path_10174-2" class="st12" d="M8.68-23.96c-3.2-0.01-5.79-2.51-5.78-5.6c0.01-3.08,2.61-5.58,5.81-5.57
				c3.2,0.01,5.78,2.51,5.78,5.59C14.48-26.46,11.88-23.96,8.68-23.96z"/>
		</g>
		<g id="Group_6400" transform="translate(95.973 242.524)">
			<path id="Path_10173-3" class="st11" d="M86.03,10.81c3.91-0.01,7.07-3.07,7.06-6.83S89.91-2.83,86-2.82
				C82.1-2.82,78.94,0.23,78.94,4C78.94,7.77,82.12,10.82,86.03,10.81C86.03,10.81,86.03,10.81,86.03,10.81z"/>
			<path id="Path_10174-3" class="st12" d="M86.03,9.58c-3.2-0.01-5.79-2.51-5.78-5.6c0.01-3.08,2.61-5.58,5.81-5.57
				c3.2,0.01,5.78,2.51,5.78,5.59C91.83,7.08,89.23,9.58,86.03,9.58z"/>
		</g>
		<g id="Group_6401" transform="translate(95.973 11.289)">
			<path id="Path_10173-4" class="st11" d="M86.03-22.72c3.91-0.01,7.07-3.07,7.06-6.83s-3.18-6.81-7.09-6.8
				c-3.9,0.01-7.06,3.06-7.06,6.82C78.94-25.77,82.12-22.72,86.03-22.72C86.03-22.72,86.03-22.72,86.03-22.72z"/>
			<path id="Path_10174-4" class="st12" d="M86.03-23.96c-3.2-0.01-5.79-2.51-5.78-5.6c0.01-3.08,2.61-5.58,5.81-5.57
				c3.2,0.01,5.78,2.51,5.78,5.59C91.83-26.46,89.23-23.96,86.03-23.96z"/>
		</g>
	</g>
</g>
</svg>
