<svg id="payment-card" xmlns="http://www.w3.org/2000/svg" width="162" height="24" viewBox="0 0 162 24">
  <g id="v">
    <rect id="Rectangle" width="33" height="13.5" transform="translate(0 5.25)" fill="#f6f7fb"/>
    <path id="Path" d="M14.146,12.725l-3.566,9h-2.4l-2.025-7.9A8.968,8.968,0,0,0,3.8,12.866l.02-.141H7.474a.937.937,0,0,1,1.026.758l.792,4.1v0l.237,1.229,2.218-6.087Zm1.767,9,1.418-9H15.064l-1.417,9Zm8.217-8.774a5.483,5.483,0,0,0-2.028-.376c-2.242,0-3.818,1.21-3.831,2.942-.014,1.286,1.126,2,1.984,2.427.884.436,1.179.717,1.177,1.107-.009.595-.707.867-1.358.867a4.444,4.444,0,0,1-2.129-.468l-.3-.141L17.332,21.3a6.709,6.709,0,0,0,2.526.479c2.378,0,3.924-1.2,3.942-3.049.011-1.016-.594-1.787-1.9-2.424-.789-.412-1.279-.686-1.27-1.1,0-.37.41-.766,1.3-.766a3.854,3.854,0,0,1,1.695.342l.2.1Zm3.016,5.624h1.881c-.09-.45-.525-2.616-.525-2.616l-.151-.793c-.117.333-.316.908-.3.884,0,0-.715,1.925-.9,2.525Zm4.628,3.15h-2.1s-.207-1.06-.278-1.372c-.33,0-2.639.014-2.9.014-.087.242-.477,1.359-.477,1.359h-2.38L27,13.509a1.161,1.161,0,0,1,1.189-.784h1.75Z" transform="translate(-1.4 -5.225)" fill="#263d84" fill-rule="evenodd"/>
    <path id="Path-2" data-name="Path" d="M1,25.875v2.738a2.52,2.52,0,0,0,2.512,2.512H31.488A2.52,2.52,0,0,0,34,28.613V25.875Z" transform="translate(-1 -7.125)" fill="#f6bb43"/>
    <path id="Path-3" data-name="Path" d="M1,9.25V6.512A2.52,2.52,0,0,1,3.512,4H31.488A2.52,2.52,0,0,1,34,6.512V9.25Z" transform="translate(-1 -4)" fill="#3d73ad"/>
    <path id="Path-4" data-name="Path" d="M33.621,4H27.847L15.93,28H33.621a2.52,2.52,0,0,0,2.512-2.512V6.512A2.52,2.52,0,0,0,33.621,4Z" transform="translate(-3.133 -4)" fill="#231f20" opacity="0.06" style="isolation: isolate"/>
  </g>
  <g id="d" transform="translate(43)">
    <path id="Path-5" data-name="Path" d="M31.488,28H3.512A2.52,2.52,0,0,1,1,25.488V6.512A2.52,2.52,0,0,1,3.512,4H31.488A2.52,2.52,0,0,1,34,6.512V25.488A2.52,2.52,0,0,1,31.488,28Z" transform="translate(-1 -4)" fill="#e6e9ee"/>
    <path id="Path-6" data-name="Path" d="M8.383,30.373a99.817,99.817,0,0,0,15.891-4.386,53.779,53.779,0,0,0,10.781-5.374v7.455a2.285,2.285,0,0,1-2.283,2.286Z" transform="translate(-2.055 -6.373)" fill="#f16722" fill-rule="evenodd"/>
    <path id="Path-7" data-name="Path" d="M4.582,13.577H6a2.2,2.2,0,0,1,2.1,2.152v.033A2.2,2.2,0,0,1,6,17.915H4.582V13.577ZM5.4,17.192s1.825.206,1.825-1.408v-.026c0-1.614-1.825-1.409-1.825-1.409Zm3.081.73h.867V13.577H8.481Zm4-3.905a2.11,2.11,0,0,0-1.224-.513,1.277,1.277,0,0,0-1.387,1.309c0,.974,1.011,1.11,1.379,1.246s.5.355.5.577a.56.56,0,0,1-.632.6,1.219,1.219,0,0,1-.941-.576l-.541.54a1.855,1.855,0,0,0,1.558.825,1.415,1.415,0,0,0,1.44-1.459c0-.968-.806-1.131-1.353-1.36s-.541-.334-.541-.52a.552.552,0,0,1,.605-.441,1.006,1.006,0,0,1,.669.329Zm3.758-.285a2.285,2.285,0,1,0,0,4.054V16.763a1.5,1.5,0,0,1-1.056.473,1.478,1.478,0,1,1,1.055-2.476Zm6.559,4.3h.538l1.827-4.455h-.935L23.1,16.424l-1.2-2.847h-.935Zm5.657-4.455h1.416a1.27,1.27,0,0,1,1.353,1.281,1.254,1.254,0,0,1-.931,1.248l1.327,1.816H30.562L29.39,16.188H29.3v1.734h-.848V13.577Zm.847.724v1.268h.467a.606.606,0,0,0,.586-.607v-.054a.606.606,0,0,0-.586-.607Zm-2.953.988v-.946H27.89v-.766H25.484v4.345H27.89v-.765H26.347v-1.1h1.475V15.29Zm-14.3,5.3h.223V19.547a1.091,1.091,0,0,0,.145.168l.971.931V19.091h-.223v1.038l-.083-.1A.984.984,0,0,0,13,19.947l-.951-.914v1.555Zm2.092,0h.835V20.37h-.592v-.483h.592v-.213h-.592V19.3h.592v-.207h-.835Zm1.934-1.3H16.4v-.207h-.9v.207h.329v1.305h.243V19.289Zm.846-.2.578,1.555.335-.849a2.024,2.024,0,0,0,.071-.214,1.73,1.73,0,0,0,.074.21l.341.854.579-1.555h-.243l-.281.761c-.013.037-.027.078-.042.124s-.025.082-.031.109c-.023-.081-.05-.16-.078-.238l-.316-.813-.3.8-.031.091c-.017.052-.034.105-.051.16-.013-.043-.025-.082-.038-.119s-.027-.077-.042-.117l-.283-.756Zm3.567.354a.509.509,0,0,0-.385-.164.465.465,0,0,0-.348.122.7.7,0,0,0-.159.223.6.6,0,0,0-.04.218.547.547,0,0,0,.159.4.537.537,0,0,0,.773,0,.57.57,0,0,0,0-.794Zm.18.954a.781.781,0,0,1-.565.231.8.8,0,0,1-.567-.23.755.755,0,0,1-.174-.254.793.793,0,0,1-.058-.3.752.752,0,0,1,.233-.558.815.815,0,0,1,1.131,0,.776.776,0,0,1,0,1.113Zm1.09-.669a.583.583,0,0,0,.249-.038c.047-.025.071-.081.071-.168A.191.191,0,0,0,22,19.347a.481.481,0,0,0-.247-.046h-.044v.429Zm-.058.858H21.47v-1.5h.339a1.206,1.206,0,0,1,.222.016.354.354,0,0,1,.258.206.463.463,0,0,1,.038.19.358.358,0,0,1-.344.4l.515.681h-.273l-.5-.669H21.7v.669Zm1.317,0h.243v-.763l.591.764h.315l-.664-.831.592-.666h-.3l-.538.621v-.621h-.243Z" transform="translate(-1.512 -5.353)" fill="#434a54" fill-rule="evenodd"/>
    <path id="Path-8" data-name="Path" d="M23.126,15.779a2.254,2.254,0,1,1-2.253-2.253A2.254,2.254,0,0,1,23.126,15.779Z" transform="translate(-3.517 -5.361)" fill="#f16722" fill-rule="evenodd"/>
    <path id="Path-9" data-name="Path" d="M33.471,4H27.7L14.88,28H33.471a2.52,2.52,0,0,0,2.512-2.512V6.512A2.52,2.52,0,0,0,33.471,4Z" transform="translate(-2.983 -4)" fill="#231f20" opacity="0.06" style="isolation: isolate"/>
  </g>
  <g id="mc" transform="translate(86)">
    <path id="Path-10" data-name="Path" d="M31.488,28H3.512A2.52,2.52,0,0,1,1,25.488V6.512A2.52,2.52,0,0,1,3.512,4H31.488A2.52,2.52,0,0,1,34,6.512V25.488A2.52,2.52,0,0,1,31.488,28Z" transform="translate(-1 -4)" fill="#e6e9ee"/>
    <circle id="Ellipse" cx="7.95" cy="7.95" r="7.95" transform="translate(3.75 4.031)" fill="#db4453"/>
    <circle id="Ellipse-2" data-name="Ellipse" cx="7.95" cy="7.95" r="7.95" transform="translate(13.29 4.031)" fill="#f6bb43"/>
    <path id="Path-11" data-name="Path" d="M33.621,4H27.847L15.93,28H33.621a2.52,2.52,0,0,0,2.512-2.512V6.512A2.52,2.52,0,0,0,33.621,4Z" transform="translate(-3.133 -4)" fill="#231f20" opacity="0.06" style="isolation: isolate"/>
  </g>
  <g id="ae" transform="translate(129)">
    <path id="Path-12" data-name="Path" d="M31.488,28H3.512A2.52,2.52,0,0,1,1,25.488V6.512A2.52,2.52,0,0,1,3.512,4H31.488A2.52,2.52,0,0,1,34,6.512V25.488A2.52,2.52,0,0,1,31.488,28Z" transform="translate(-1 -4)" fill="#4097d3"/>
    <path id="Path-13" data-name="Path" d="M20.935,22.736V21.452h-.142v1.284H18.511v-1.5a3.524,3.524,0,0,1-1.137.357h-.289v1.141h-2.7l-.682-.752-.687.752H8.387V17.6h4.557l.767.835.769-.835h3.285c.032,0,.033-.068.086-.068a1.892,1.892,0,0,1,.661.059V17.6h3.048c.036,0,.037-.063.1-.063a1.848,1.848,0,0,1,.706.086V17.6H26.64v.021a2.574,2.574,0,0,1,.838-.082c.021,0,.125.061.137.061h2.3v.026a2.643,2.643,0,0,1,.862-.087c.02,0,.136.061.148.061h2.412v2.282H33.4a1.61,1.61,0,0,1,.2.766A1.918,1.918,0,0,1,31.631,22.7a1.24,1.24,0,0,0-.143.033H28.921v-.281a1.326,1.326,0,0,1-.71.221c-.06,0,0,.061-.038.061H20.935ZM18.8,16.462H17.371V15.178h-.143v1.284H9.955V16.32l.111.142H8.385l-.141-.16v.16H5.326L5,15.749H4.228l-.332.713H1.324l2.161-5.134h2.27l.066.457v-.457H8.655l.571,1.27.567-1.27h8.138c.036,0,0-.064.057-.064a1.365,1.365,0,0,1,.666.084v-.02h2.424v.157a2.345,2.345,0,0,1,1.042-.3l.062-.008,1.407.1.017.055h2.263l.057.411v-.411h2.608l.243.473v-.473H31.06v5.134H28.852l-.5-.747v.747h-2.9l-.333-.713h-.773l-.326.713h-2l-.111-.069a2.686,2.686,0,0,1-.832-.352v.422Zm3.754-2.982a.5.5,0,0,0-.037.163,1.715,1.715,0,0,0-.009.177l.144-.341Z" transform="translate(-1.046 -5.025)" fill="#fff"/>
    <path id="Path-14" data-name="Path" d="M18.342,15.9v-.72a.606.606,0,0,0-.626-.564H16.8V15.9h-.939V12.2h2.281a1.028,1.028,0,0,1,1.19,1.083.944.944,0,0,1-.526.865.908.908,0,0,1,.457.84V15.9h-.921M16.8,13.743h.971c.282,0,.514-.157.514-.351s-.232-.351-.514-.351H16.8v.7h0M29.434,15.9l-1.491-2.475V15.9H26.1l-.333-.777H24.052l-.327.777H22.253a1.606,1.606,0,0,1-1.266-1.748c0-2.055,1.436-1.974,1.485-1.987l1.159.032v.833l-.951.013s-.621,0-.7.808a2.514,2.514,0,0,0-.012.257.788.788,0,0,0,1.122.852L24.258,12.2h1.316l1.409,3.358V12.2h1.329l1.473,2.438V12.2h.946v3.7h-1.3m-4.981-1.723h.915l-.451-1.1-.464,1.1h0M10.968,15.9V13.343L9.789,15.9H9.018L7.834,13.355V15.9H5.979l-.325-.777H3.936L3.6,15.9H2.577l1.56-3.7H5.46l1.428,3.4V12.2H8.373l1.034,2.3,1.028-2.3H11.92v3.7h-.952m-6.63-1.723h.915l-.458-1.1-.457,1.1h0m8.1,1.723h2.932v-.8H13.386V14.47h1.936v-.839H13.386v-.57h1.986V12.2H12.44v3.7m7.281.013h.946V12.2h-.946v3.716m2.249,6.266v-.72a.607.607,0,0,0-.627-.564H20.43v1.284h-.94v-3.7H21.77a1.029,1.029,0,0,1,1.191,1.084.944.944,0,0,1-.526.865.907.907,0,0,1,.452.839v.915h-.915M20.43,20.022H21.4c.281,0,.513-.157.513-.351s-.232-.351-.513-.351H20.43v.7h0M15.7,22.171h-.821l-1-1.1-1,1.1h-3.5V18.462H12.81l1.077,1.178,1.084-1.172h.721v-.007h2.281a1.038,1.038,0,0,1,1.191,1.09c0,1.09-.4,1.429-1.611,1.429h-.921v1.191H15.7m-1.179-1.823,1.166,1.291V19.063l-1.166,1.285h0M10.334,21.37h1.98l.927-1.021-.927-1.016h-1.98V19.9h1.93v.841h-1.93v.627h0m6.3-1.354H17.6c.282,0,.513-.157.513-.351s-.231-.351-.513-.351h-.971v.7h0m11.749,2.15a1.059,1.059,0,0,0,.114.005,1.175,1.175,0,0,0,1.252-1.3c0-1.115-1.436-1.01-1.436-1.01s-.682.044-.682-.262c0-.364.5-.263.5-.263h1.454v-.865H27.78a1.084,1.084,0,0,0-1.172,1.141c0,1.215,1.3,1.1,1.3,1.1s.8-.026.8.308c0,.356-.526.294-.526.294H26.708v.852h1.673m-5.031.006h2.932v-.8H24.3v-.627h1.937V19.9H24.3v-.569h1.987v-.859H23.35v3.7m8.346-.006a1.059,1.059,0,0,0,.114.005,1.175,1.175,0,0,0,1.252-1.3c0-1.115-1.435-1.01-1.435-1.01s-.683.044-.683-.262c0-.364.5-.263.5-.263h1.448v-.865h-1.8a1.083,1.083,0,0,0-1.171,1.141c0,1.215,1.3,1.1,1.3,1.1s.8-.026.8.308c0,.356-.532.294-.532.294H30.023v.852H31.7" transform="translate(-1.225 -5.166)" fill="#3e99d6"/>
    <path id="Path-15" data-name="Path" d="M33.471,4H27.7L14.88,28H33.471a2.52,2.52,0,0,0,2.512-2.512V6.512A2.52,2.52,0,0,0,33.471,4Z" transform="translate(-2.983 -4)" fill="#231f20" opacity="0.06" style="isolation: isolate"/>
  </g>
</svg>
