<svg xmlns="http://www.w3.org/2000/svg" width="265" height="80" viewBox="0 0 265 80"><defs><style>.a,.c,.d{fill:#fff;}.a,.c,.e,.f,.g{stroke:#001E4C;stroke-width:2px;}.a,.g{stroke-miterlimit:10;}.b,.g,.j{fill:#001E4C;}.e,.i{fill:none;}.e,.f{stroke-linecap:round;}.f{fill:rgba(60,59,110,0);}.h,.j{stroke:none;}</style></defs><g transform="translate(-11410 -8294)"><path class="a" d="M-346.477,1092.594h-58v-31l29-17,29,17Z" transform="translate(11963.477 7277.405)"/><path class="a" d="M-375.972,1039.365l-32,19v5l3-2,29-17,29,17,4,2v-5Z" transform="translate(11963.972 7277.635)"/><rect class="b" width="28" height="26" transform="translate(11575 8345)"/><g class="c" transform="translate(11573 8343)"><rect class="h" width="32" height="5"/><rect class="i" x="1" y="1" width="30" height="3"/></g><g class="c" transform="translate(11642 8316)"><rect class="h" width="24" height="24"/><rect class="i" x="1" y="1" width="22" height="22"/></g><g class="c" transform="translate(11639 8368)"><rect class="h" width="30" height="2"/><rect class="i" x="1" y="1" width="28"/></g><g class="c" transform="translate(11651 8338)"><rect class="h" width="6" height="32"/><rect class="i" x="1" y="1" width="4" height="30"/></g><g class="d" transform="translate(11839.682 7261.711)"><path class="h" d="M -196.68212890625 1065.45458984375 L -239.6819763183594 1037.743408203125 L -239.6820831298828 1033.890747070312 L -196.68212890625 1054.912963867188 L -196.68212890625 1065.45458984375 Z"/><path class="j" d="M -238.6820373535156 1035.492797851562 L -238.6819915771484 1037.1982421875 L -197.68212890625 1063.620483398438 L -197.68212890625 1055.537109375 L -238.6820373535156 1035.492797851562 M -240.68212890625 1032.288696289062 L -195.68212890625 1054.288696289062 L -195.68212890625 1067.288696289062 L -240.6819610595703 1038.288696289062 L -240.68212890625 1032.288696289062 Z"/></g><line class="e" y2="13" transform="translate(11600 8295)"/><line class="e" x2="6" transform="translate(11597 8306)"/><path class="f" d="M-62.682,1072.712a3.982,3.982,0,0,1,2.528.286,4,4,0,0,1,1.934,5.314,4,4,0,0,1-5.314,1.935,3.983,3.983,0,0,1-1.945-1.957" transform="translate(11662.479 7236.377)"/><path class="a" d="M730,332v38h38V350l-16-18Z" transform="translate(10779 7993)"/><path class="g" d="M746,338h-7v9h14Z" transform="translate(10779 7993)"/><circle class="a" cx="7" cy="7" r="7" transform="translate(11466 8355)"/><circle class="a" cx="7" cy="7" r="7" transform="translate(11438 8355)"/><rect class="a" width="90" height="44" transform="translate(11419 8319)"/><circle class="a" cx="7" cy="7" r="7" transform="translate(11522 8356)"/><circle class="b" cx="3" cy="3" r="3" transform="translate(11526 8360)"/><circle class="a" cx="7" cy="7" r="7" transform="translate(11461 8356)"/><circle class="b" cx="3" cy="3" r="3" transform="translate(11465 8360)"/><circle class="a" cx="7" cy="7" r="7" transform="translate(11433 8356)"/><circle class="b" cx="3" cy="3" r="3" transform="translate(11437 8360)"/><rect class="b" width="265" height="4" transform="translate(11410 8370)"/></g></svg>