<svg xmlns="http://www.w3.org/2000/svg" width="32" height="32" viewBox="0 0 32 32">
  <g id="call" transform="translate(-1365 -40)">
    <rect id="Rectangle_3914" data-name="Rectangle 3914" width="32" height="32" transform="translate(1365 40)" fill="rgba(255,255,255,0)"/>
    <path id="path" d="M19.272,6.469a6.486,6.486,0,0,1,3.154,1.65,5.966,5.966,0,0,1,1.763,3.257M19.272,1.5A11.356,11.356,0,0,1,27.5,6.632a10.815,10.815,0,0,1,1.667,4.733m-1.245,9.914v3.727A2.488,2.488,0,0,1,25.21,27.49a24.663,24.663,0,0,1-10.742-3.814A24.249,24.249,0,0,1,7,16.222,24.556,24.556,0,0,1,3.178,5.451,2.487,2.487,0,0,1,5.655,2.742H9.389a2.488,2.488,0,0,1,2.489,2.137A15.926,15.926,0,0,0,12.75,8.37a2.481,2.481,0,0,1-.56,2.621l-1.581,1.578a19.9,19.9,0,0,0,7.468,7.454l1.581-1.578a2.493,2.493,0,0,1,2.626-.559,16.007,16.007,0,0,0,3.5.87A2.486,2.486,0,0,1,27.923,21.278Z" transform="translate(1364.832 41.5)" fill="rgba(255,159,0,0)"/>
    <path id="path_-_Outline" data-name="path - Outline" d="M9.414,1.742a3.488,3.488,0,0,1,3.455,3v.009a14.948,14.948,0,0,0,.817,3.272A3.49,3.49,0,0,1,12.9,11.7l0,0-1.029,1.027a18.906,18.906,0,0,0,6.053,6.041l1.031-1.029,0,0a3.493,3.493,0,0,1,3.68-.784,15.023,15.023,0,0,0,3.277.814h.009a3.486,3.486,0,0,1,3,3.524v3.716A3.487,3.487,0,0,1,25.434,28.5c-.1,0-.21,0-.314-.014l-.018,0a25.79,25.79,0,0,1-11.174-3.966,25.417,25.417,0,0,1-7.77-7.756A25.678,25.678,0,0,1,2.184,5.556l0-.016a3.487,3.487,0,0,1,3.472-3.8Zm1.474,3.273A1.494,1.494,0,0,0,9.414,3.742H5.655A1.487,1.487,0,0,0,4.173,5.354,23.668,23.668,0,0,0,7.838,15.677l0,.007A23.4,23.4,0,0,0,15,22.831l.008,0a23.778,23.778,0,0,0,10.3,3.658c.042,0,.085.005.127.005a1.487,1.487,0,0,0,1.489-1.491V21.278q0-.012,0-.025a1.486,1.486,0,0,0-1.277-1.506,17.03,17.03,0,0,1-3.711-.923,1.493,1.493,0,0,0-1.574.333l-1.578,1.575a1,1,0,0,1-1.2.162A20.906,20.906,0,0,1,9.74,13.064a1,1,0,0,1,.162-1.2l1.579-1.576a1.486,1.486,0,0,0,.333-1.563A16.956,16.956,0,0,1,10.888,5.016Z" transform="translate(1364.832 41.5)" fill="#001e4c"/>
    <path id="path-2" data-name="path" d="M19.272,6.469a6.486,6.486,0,0,1,3.154,1.65,5.966,5.966,0,0,1,1.763,3.257M19.272,1.5A11.356,11.356,0,0,1,27.5,6.632a10.815,10.815,0,0,1,1.667,4.733" transform="translate(1364.832 41.5)" fill="rgba(255,159,0,0)" stroke="#ff9f00" stroke-linecap="round" stroke-linejoin="round" stroke-width="2"/>
  </g>
</svg>
