<!-- Generated by IcoMoon.io -->
<svg version="1.1" xmlns="http://www.w3.org/2000/svg" width="1824" height="1024" viewBox="0 0 1824 1024">
<title></title>
<g id="icomoon-ignore">
</g>
<path fill="#fff" d="M1276.493 378.74v533.041h533.041v-280.548l-224.438-252.493h-308.603z"></path>
<path fill="#001E4C" d="M1823.562 925.808h-561.096v-561.096h328.241l232.855 260.91v300.186zM1290.521 897.753h504.986v-260.91l-216.022-244.077h-288.964v504.986z"></path>
<path fill="#001E4C" d="M1500.932 462.904h-98.192v126.247h196.384l-98.192-126.247z"></path>
<path fill="#001E4C" d="M1627.178 603.178h-238.466v-154.301h119.233l119.233 154.301zM1416.767 575.123h154.301l-75.748-98.192h-78.553v98.192z"></path>
<path fill="#fff" d="M813.589 897.753c0 54.23-43.962 98.192-98.192 98.192s-98.192-43.962-98.192-98.192c0-54.23 43.962-98.192 98.192-98.192s98.192 43.962 98.192 98.192z"></path>
<path fill="#001E4C" d="M715.397 1009.973c-61.721 0-112.219-50.499-112.219-112.219s50.499-112.219 112.219-112.219 112.219 50.499 112.219 112.219-50.499 112.219-112.219 112.219zM715.397 813.589c-46.29 0-84.164 37.874-84.164 84.164s37.874 84.164 84.164 84.164 84.164-37.874 84.164-84.164-37.874-84.164-84.164-84.164z"></path>
<path fill="#fff" d="M462.904 897.753c0 54.23-43.962 98.192-98.192 98.192s-98.192-43.962-98.192-98.192c0-54.23 43.962-98.192 98.192-98.192s98.192 43.962 98.192 98.192z"></path>
<path fill="#001E4C" d="M364.712 1009.973c-61.721 0-112.219-50.499-112.219-112.219s50.499-112.219 112.219-112.219 112.219 50.499 112.219 112.219-50.499 112.219-112.219 112.219zM364.712 813.589c-46.29 0-84.164 37.874-84.164 84.164s37.874 84.164 84.164 84.164 84.164-37.874 84.164-84.164-37.874-84.164-84.164-84.164z"></path>
<path fill="#fff" d="M14.027 210.411h1262.466v701.37h-1262.466v-701.37z"></path>
<path fill="#001E4C" d="M1290.521 925.808h-1290.521v-729.425h1290.521v729.425zM28.055 897.753h1234.411v-673.315h-1234.411v673.315z"></path>
<path fill="#fff" d="M715.397 911.781c0 54.23-43.962 98.192-98.192 98.192s-98.192-43.962-98.192-98.192c0-54.23 43.962-98.192 98.192-98.192s98.192 43.962 98.192 98.192z"></path>
<path fill="#001E4C" d="M617.205 1024c-61.721 0-112.219-50.499-112.219-112.219s50.499-112.219 112.219-112.219 112.219 50.499 112.219 112.219-50.499 112.219-112.219 112.219zM617.205 827.616c-46.29 0-84.164 37.874-84.164 84.164s37.874 84.164 84.164 84.164 84.164-37.874 84.164-84.164-37.874-84.164-84.164-84.164z"></path>
<path fill="#001E4C" d="M659.288 911.781c0 23.241-18.841 42.082-42.082 42.082s-42.082-18.841-42.082-42.082c0-23.241 18.841-42.082 42.082-42.082s42.082 18.841 42.082 42.082z"></path>
<path fill="#fff" d="M364.712 911.781c0 54.23-43.962 98.192-98.192 98.192s-98.192-43.962-98.192-98.192c0-54.23 43.962-98.192 98.192-98.192s98.192 43.962 98.192 98.192z"></path>
<path fill="#001E4C" d="M266.521 1024c-61.721 0-112.219-50.499-112.219-112.219s50.499-112.219 112.219-112.219 112.219 50.499 112.219 112.219-50.499 112.219-112.219 112.219zM266.521 827.616c-46.29 0-84.164 37.874-84.164 84.164s37.874 84.164 84.164 84.164 84.164-37.874 84.164-84.164-37.874-84.164-84.164-84.164z"></path>
<path fill="#001E4C" d="M308.603 911.781c0 23.241-18.841 42.082-42.082 42.082s-42.082-18.841-42.082-42.082c0-23.241 18.841-42.082 42.082-42.082s42.082 18.841 42.082 42.082z"></path>
<path fill="#fff" d="M1655.233 911.781c0 54.23-43.962 98.192-98.192 98.192s-98.192-43.962-98.192-98.192c0-54.23 43.962-98.192 98.192-98.192s98.192 43.962 98.192 98.192z"></path>
<path fill="#001E4C" d="M1557.041 1024c-61.721 0-112.219-50.499-112.219-112.219s50.499-112.219 112.219-112.219 112.219 50.499 112.219 112.219-50.499 112.219-112.219 112.219zM1557.041 827.616c-46.29 0-84.164 37.874-84.164 84.164s37.874 84.164 84.164 84.164 84.164-37.874 84.164-84.164-37.874-84.164-84.164-84.164z"></path>
<path fill="#001E4C" d="M1599.123 911.781c0 23.241-18.841 42.082-42.082 42.082s-42.082-18.841-42.082-42.082c0-23.241 18.841-42.082 42.082-42.082s42.082 18.841 42.082 42.082z"></path>
<path fill="#fff" d="M1444.822 210.411c0 116.207-94.204 210.411-210.411 210.411s-210.411-94.204-210.411-210.411c0-116.207 94.204-210.411 210.411-210.411s210.411 94.204 210.411 210.411z"></path>
<path fill="#001E4C" d="M1234.411 420.822c-116.427 0-210.411-93.984-210.411-210.411s93.984-210.411 210.411-210.411 210.411 93.984 210.411 210.411-93.984 210.411-210.411 210.411zM1234.411 28.055c-100.997 0-182.356 81.359-182.356 182.356s81.359 182.356 182.356 182.356 182.356-81.359 182.356-182.356-81.359-182.356-182.356-182.356z"></path>
<path fill="#001E4C" d="M1279.299 302.992l-72.942-86.97v-117.83h28.055v106.608l67.332 81.359z"></path>
</svg>
