<?xml version="1.0" encoding="utf-8"?>
<!-- Generator: Adobe Illustrator 24.2.3, SVG Export Plug-In . SVG Version: 6.00 Build 0)  -->
<svg version="1.1" id="Layer_1" xmlns="http://www.w3.org/2000/svg" xmlns:xlink="http://www.w3.org/1999/xlink" x="0px" y="0px"
	 viewBox="0 0 300 25" style="enable-background:new 0 0 300 25;" xml:space="preserve">
<style type="text/css">
	.st0{fill:#999999;}
</style>
<path class="st0" d="M289.3,0H10.7C4.8,0,0,5,0,11.1v2.9C0,20,4.8,25,10.7,25h278.6c5.9,0,10.7-5,10.7-11.1v-2.9
	C300,5,295.2,0,289.3,0z M298,11.1H150v-9h139.3C294.1,2.1,298,6.1,298,11.1z M10.7,2.1h136.5v9H2C2,6.1,5.9,2.1,10.7,2.1z M2,13.9
	h145.2v9H10.7C5.9,22.9,2,18.9,2,13.9z M289.3,22.9H150v-9h148C298,18.9,294.1,22.9,289.3,22.9z"/>
</svg>
