<?xml version="1.0" encoding="utf-8"?>
<!-- Generator: Adobe Illustrator 24.2.3, SVG Export Plug-In . SVG Version: 6.00 Build 0)  -->
<svg version="1.1" id="Layer_1" xmlns="http://www.w3.org/2000/svg" xmlns:xlink="http://www.w3.org/1999/xlink" x="0px" y="0px"
	 viewBox="0 0 300 225" style="enable-background:new 0 0 300 225;" xml:space="preserve">
<style type="text/css">
	.st0{fill:#A48E83;}
	.st1{fill:#7B6B62;}
	.st2{fill:#C1BEC6;}
	.st3{fill:#D3D0DA;}
	.st4{fill:#3B3947;}
	.st5{fill:#FFFFFF;}
	.st6{fill-rule:evenodd;clip-rule:evenodd;fill:#3B3947;}
	.st7{fill-rule:evenodd;clip-rule:evenodd;fill:#EDEBEF;}
	.st8{opacity:0.51;fill-rule:evenodd;clip-rule:evenodd;fill:#3B3947;enable-background:new    ;}
	.st9{opacity:0.3;fill-rule:evenodd;clip-rule:evenodd;fill:#FFFFFF;enable-background:new    ;}
	.st10{fill:#5B5B5F;}
	.st11{fill:#F0AF53;}
	.st12{fill-rule:evenodd;clip-rule:evenodd;fill:#D3D0DA;}
	.st13{fill-rule:evenodd;clip-rule:evenodd;fill:#FFFFFF;}
	.st14{fill-rule:evenodd;clip-rule:evenodd;fill:#F0AF53;}
	.st15{fill:#E5E5E5;}
</style>
<g id="Group_6168" transform="translate(0 -65)">
	<g id="Group_6125" transform="translate(0 65)">
		<rect id="Rectangle_24589" x="0" class="st0" width="300" height="221.7"/>
		<path id="Path_9572" class="st1" d="M0,221.7h300l-2.6,3.3H2.6L0,221.7z"/>
	</g>
	<g id="Group_6167" transform="translate(22.159 104.74)">
		<g id="Group_6132" transform="translate(12.538)">
			<path id="Path_9499" class="st2" d="M90.5,16.6l-4.2,15.3l63.6,0.3l-4.7-15.6L90.5,16.6z"/>
			<path id="Path_9500" class="st3" d="M130.7,38.7h-25.8c-2.3,0-4.1-1.9-4.1-4.1L90.5,16.6c0-2.3,1.8-4.1,4.1-4.1H141
				c2.3,0,4.1,1.9,4.1,4.1l-10.3,17.9C134.8,36.8,133,38.7,130.7,38.7z"/>
			<g id="Group_6131" transform="translate(0 22.267)">
				<path id="Path_9501" class="st4" d="M-3.3,24.6h242.2l-18,8.5H15.2L-3.3,24.6z"/>
				<g id="Group_6130">
					<rect id="Rectangle_24591" x="-3.3" y="21.7" class="st3" width="242.2" height="2.9"/>
					<path id="Path_9502" class="st5" d="M-3.3,21.7c0,0,13.5-7.8,48-10.5s117.5-1.5,140.2,0s48.5,5.8,53.9,10.5H-3.3z"/>
				</g>
			</g>
		</g>
		<g id="Group_6135" transform="translate(99.537 68.463)">
			<path id="Path_9503" class="st5" d="M76.6,4.5c0-0.7-0.5-1.2-1.2-1.2h-89.1c-0.7,0-1.2,0.5-1.2,1.2v35c0,0.7,0.5,1.2,1.2,1.2
				h89.1c0.7,0,1.2-0.5,1.2-1.2L76.6,4.5z"/>
			<g id="Group_6134" transform="translate(2.633 6.046)">
				<path id="Rectangle_24592" class="st3" d="M-14.8,2.6h4.2c0.2,0,0.4,0.2,0.4,0.4v4.2c0,0.2-0.2,0.4-0.4,0.4h-4.2
					c-0.2,0-0.4-0.2-0.4-0.4V3C-15.2,2.7-15,2.6-14.8,2.6z"/>
				<path id="Path_9504" class="st3" d="M-1.1,13.3c0,0.2-0.1,0.3-0.3,0.3c0,0,0,0,0,0h-4.4c-0.2,0-0.3-0.1-0.3-0.3c0,0,0,0,0,0V8.9
					c0-0.2,0.1-0.3,0.3-0.3h4.4c0.2,0,0.3,0.1,0.3,0.3c0,0,0,0,0,0V13.3z"/>
				<path id="Rectangle_24593" class="st3" d="M-4.2,14.7h4.2c0.2,0,0.4,0.2,0.4,0.4v4.2c0,0.2-0.2,0.4-0.4,0.4h0h-4.2
					c-0.2,0-0.4-0.2-0.4-0.4c0,0,0,0,0,0v-4.2C-4.6,14.9-4.5,14.7-4.2,14.7L-4.2,14.7z"/>
				<path id="Rectangle_24594" class="st3" d="M-7.2,20.8H-3c0.2,0,0.4,0.2,0.4,0.4l0,0v4.2c0,0.2-0.2,0.4-0.4,0.4h-4.2
					c-0.2,0-0.4-0.2-0.4-0.4c0,0,0,0,0,0v-4.2C-7.6,20.9-7.4,20.8-7.2,20.8z"/>
				<path id="Rectangle_24595" class="st3" d="M-14.8,26.8h4.2c0.2,0,0.4,0.2,0.4,0.4v4.9c0,0.2-0.2,0.4-0.4,0.4l0,0h-4.2
					c-0.2,0-0.4-0.2-0.4-0.4v-4.9C-15.2,27-15,26.8-14.8,26.8z"/>
				<path id="Rectangle_24596" class="st3" d="M-8.7,26.8h4.2c0.2,0,0.4,0.2,0.4,0.4l0,0v4.9c0,0.2-0.2,0.4-0.4,0.4l0,0h-4.2
					c-0.2,0-0.4-0.2-0.4-0.4l0,0v-4.9C-9.2,27-9,26.8-8.7,26.8z"/>
				<path id="Rectangle_24597" class="st3" d="M-2.7,26.8h4.2c0.2,0,0.4,0.2,0.4,0.4v4.9c0,0.2-0.2,0.4-0.4,0.4l0,0h-4.2
					c-0.2,0-0.4-0.2-0.4-0.4l0,0v-4.9C-3.1,27-2.9,26.8-2.7,26.8z"/>
				<path id="Path_9505" class="st3" d="M53.5,32.3c0,0.2-0.1,0.3-0.3,0.3h-4.4c-0.2,0-0.3-0.1-0.3-0.3v-5.2c0-0.2,0.1-0.3,0.3-0.3
					h4.4c0.2,0,0.3,0.1,0.3,0.3V32.3z"/>
				<path id="Path_9506" class="st3" d="M59.5,32.3c0,0.2-0.1,0.3-0.3,0.3h-4.4c-0.2,0-0.3-0.1-0.3-0.3c0,0,0,0,0,0V30
					c0-0.2,0.1-0.3,0.3-0.3h4.4c0.2,0,0.3,0.1,0.3,0.3V32.3z"/>
				<path id="Rectangle_24598" class="st3" d="M67.1,29.7h4.2c0.2,0,0.4,0.2,0.4,0.4v2.1c0,0.2-0.2,0.4-0.4,0.4l0,0h-4.2
					c-0.2,0-0.4-0.2-0.4-0.4l0,0v-2.1C66.7,29.9,66.9,29.7,67.1,29.7z"/>
				<path id="Rectangle_24599" class="st3" d="M3.3,26.8h5.7c0.2,0,0.4,0.2,0.4,0.4l0,0v4.9c0,0.2-0.2,0.4-0.4,0.4l0,0H3.3
					c-0.2,0-0.4-0.2-0.4-0.4v-4.9C2.9,27,3.1,26.8,3.3,26.8z"/>
				<path id="Rectangle_24600" class="st3" d="M41.3,26.8H47c0.2,0,0.4,0.2,0.4,0.4v4.9c0,0.2-0.2,0.4-0.4,0.4l0,0h-5.7
					c-0.2,0-0.4-0.2-0.4-0.4v-4.9C40.9,27,41,26.8,41.3,26.8z"/>
				<path id="Path_9507" class="st3" d="M39.8,32.3c0,0.2-0.1,0.3-0.3,0.3H10.9c-0.2,0-0.3-0.1-0.3-0.3v-5.2c0-0.2,0.1-0.3,0.3-0.3
					h28.6c0.2,0,0.3,0.1,0.3,0.3V32.3z"/>
				<path id="Rectangle_24601" class="st3" d="M-1.1,20.8H3c0.2,0,0.4,0.2,0.4,0.4l0,0v4.2c0,0.2-0.2,0.4-0.4,0.4h-4.2
					c-0.2,0-0.4-0.2-0.4-0.4c0,0,0,0,0,0v-4.2C-1.6,20.9-1.4,20.8-1.1,20.8z"/>
				<path id="Path_9508" class="st3" d="M9.5,25.4c0,0.2-0.1,0.3-0.3,0.3H4.8c-0.2,0-0.3-0.1-0.3-0.3V21c0-0.2,0.1-0.3,0.3-0.3h4.4
					c0.2,0,0.3,0.1,0.3,0.3V25.4z"/>
				<path id="Rectangle_24602" class="st3" d="M11,20.8h4.2c0.2,0,0.4,0.2,0.4,0.4v4.2c0,0.2-0.2,0.4-0.4,0.4H11
					c-0.2,0-0.4-0.2-0.4-0.4c0,0,0,0,0,0v-4.2C10.6,20.9,10.7,20.8,11,20.8z"/>
				<path id="Rectangle_24603" class="st3" d="M17,20.8h4.2c0.2,0,0.4,0.2,0.4,0.4v4.2c0,0.2-0.2,0.4-0.4,0.4H17
					c-0.2,0-0.4-0.2-0.4-0.4v-4.2C16.6,20.9,16.8,20.8,17,20.8z"/>
				<path id="Rectangle_24604" class="st3" d="M23.1,20.8h4.2c0.2,0,0.4,0.2,0.4,0.4l0,0v4.2c0,0.2-0.2,0.4-0.4,0.4h-4.2
					c-0.2,0-0.4-0.2-0.4-0.4l0,0v-4.2C22.7,20.9,22.9,20.8,23.1,20.8z"/>
				<path id="Rectangle_24605" class="st3" d="M29.2,20.8h4.2c0.2,0,0.4,0.2,0.4,0.4v4.2c0,0.2-0.2,0.4-0.4,0.4h-4.2
					c-0.2,0-0.4-0.2-0.4-0.4c0,0,0,0,0,0v-4.2C28.7,20.9,28.9,20.8,29.2,20.8z"/>
				<path id="Path_9509" class="st3" d="M39.8,25.4c0,0.2-0.1,0.3-0.3,0.3h-4.4c-0.2,0-0.3-0.1-0.3-0.3V21c0-0.2,0.1-0.3,0.3-0.3
					h4.4c0.2,0,0.3,0.1,0.3,0.3V25.4z"/>
				<path id="Rectangle_24606" class="st3" d="M41.3,20.8h4.2c0.2,0,0.4,0.2,0.4,0.4v4.2c0,0.2-0.2,0.4-0.4,0.4h-4.2
					c-0.2,0-0.4-0.2-0.4-0.4c0,0,0,0,0,0v-4.2C40.9,20.9,41,20.8,41.3,20.8z"/>
				<path id="Rectangle_24607" class="st3" d="M47.3,20.8h4.2c0.2,0,0.4,0.2,0.4,0.4v4.2c0,0.2-0.2,0.4-0.4,0.4h-4.2
					c-0.2,0-0.4-0.2-0.4-0.4c0,0,0,0,0,0v-4.2C46.9,20.9,47.1,20.8,47.3,20.8L47.3,20.8z"/>
				<path id="Rectangle_24608" class="st3" d="M53.4,20.8h4.2c0.2,0,0.4,0.2,0.4,0.4v4.2c0,0.2-0.2,0.4-0.4,0.4h-4.2
					c-0.2,0-0.4-0.2-0.4-0.4c0,0,0,0,0,0v-4.2C53,20.9,53.2,20.8,53.4,20.8z"/>
				<path id="Rectangle_24609" class="st3" d="M59.5,20.8h11.7c0.2,0,0.4,0.2,0.4,0.4v4.2c0,0.2-0.2,0.4-0.4,0.4l0,0H59.5
					c-0.2,0-0.4-0.2-0.4-0.4c0,0,0,0,0,0v-4.2C59,20.9,59.2,20.8,59.5,20.8z"/>
				<path id="Rectangle_24610" class="st3" d="M1.8,14.7H6c0.2,0,0.4,0.2,0.4,0.4v4.2c0,0.2-0.2,0.4-0.4,0.4h0H1.8
					c-0.2,0-0.4-0.2-0.4-0.4v-4.2C1.4,14.9,1.6,14.7,1.8,14.7L1.8,14.7z"/>
				<path id="Rectangle_24611" class="st3" d="M7.9,14.7H12c0.2,0,0.4,0.2,0.4,0.4l0,0v4.2c0,0.2-0.2,0.4-0.4,0.4h0H7.9
					c-0.2,0-0.4-0.2-0.4-0.4l0,0v-4.2C7.5,14.9,7.7,14.7,7.9,14.7L7.9,14.7z"/>
				<path id="Rectangle_24612" class="st3" d="M13.9,14.7h4.2c0.2,0,0.4,0.2,0.4,0.4l0,0v4.2c0,0.2-0.2,0.4-0.4,0.4h0h-4.2
					c-0.2,0-0.4-0.2-0.4-0.4l0,0v-4.2C13.5,14.9,13.7,14.7,13.9,14.7L13.9,14.7z"/>
				<path id="Rectangle_24613" class="st3" d="M20,14.7h4.2c0.2,0,0.4,0.2,0.4,0.4l0,0v4.2c0,0.2-0.2,0.4-0.4,0.4l0,0H20
					c-0.2,0-0.4-0.2-0.4-0.4c0,0,0,0,0,0v-4.2C19.6,14.9,19.8,14.7,20,14.7L20,14.7z"/>
				<path id="Rectangle_24614" class="st3" d="M26.1,14.7h4.2c0.2,0,0.4,0.2,0.4,0.4l0,0v4.2c0,0.2-0.2,0.4-0.4,0.4h-4.2
					c-0.2,0-0.4-0.2-0.4-0.4c0,0,0,0,0,0v-4.2C25.7,14.9,25.8,14.7,26.1,14.7L26.1,14.7z"/>
				<path id="Rectangle_24615" class="st3" d="M32.1,14.7h4.2c0.2,0,0.4,0.2,0.4,0.4l0,0v4.2c0,0.2-0.2,0.4-0.4,0.4l0,0h-4.2
					c-0.2,0-0.4-0.2-0.4-0.4c0,0,0,0,0,0v-4.2C31.7,14.9,31.9,14.7,32.1,14.7L32.1,14.7z"/>
				<path id="Rectangle_24616" class="st3" d="M38.2,14.7h4.2c0.2,0,0.4,0.2,0.4,0.4l0,0v4.2c0,0.2-0.2,0.4-0.4,0.4h0h-4.2
					c-0.2,0-0.4-0.2-0.4-0.4v-4.2C37.8,14.9,38,14.7,38.2,14.7L38.2,14.7z"/>
				<path id="Rectangle_24617" class="st3" d="M44.2,14.7h4.2c0.2,0,0.4,0.2,0.4,0.4l0,0v4.2c0,0.2-0.2,0.4-0.4,0.4l0,0h-4.2
					c-0.2,0-0.4-0.2-0.4-0.4c0,0,0,0,0,0v-4.2C43.8,14.9,44,14.7,44.2,14.7L44.2,14.7z"/>
				<path id="Rectangle_24618" class="st3" d="M50.3,14.7h4.2c0.2,0,0.4,0.2,0.4,0.4l0,0v4.2c0,0.2-0.2,0.4-0.4,0.4l0,0h-4.2
					c-0.2,0-0.4-0.2-0.4-0.4l0,0v-4.2C49.9,14.9,50.1,14.7,50.3,14.7L50.3,14.7z"/>
				<path id="Path_9510" class="st3" d="M60.9,19.4c0,0.2-0.1,0.3-0.3,0.3c0,0,0,0,0,0h-4.4c-0.2,0-0.3-0.1-0.3-0.3c0,0,0,0,0,0V15
					c0-0.2,0.1-0.3,0.3-0.3h4.4c0.2,0,0.3,0.1,0.3,0.3V19.4z"/>
				<path id="Rectangle_24619" class="st3" d="M62.4,14.7h4.2c0.2,0,0.4,0.2,0.4,0.4l0,0v4.2c0,0.2-0.2,0.4-0.4,0.4l0,0h-4.2
					c-0.2,0-0.4-0.2-0.4-0.4c0,0,0,0,0,0v-4.2C62,14.9,62.2,14.7,62.4,14.7L62.4,14.7z"/>
				<path id="Rectangle_24620" class="st3" d="M0.4,8.6h4.2C4.8,8.6,5,8.8,5,9v4.2c0,0.2-0.2,0.4-0.4,0.4l0,0H0.4
					c-0.2,0-0.4-0.2-0.4-0.4l0,0V9C0,8.8,0.2,8.6,0.4,8.6z"/>
				<path id="Path_9511" class="st3" d="M11,13.3c0,0.2-0.1,0.3-0.3,0.3H6.3c-0.2,0-0.3-0.1-0.3-0.3V8.9c0-0.2,0.1-0.3,0.3-0.3h4.4
					c0.2,0,0.3,0.1,0.3,0.3L11,13.3z"/>
				<path id="Path_9512" class="st3" d="M17.1,13.3c0,0.2-0.1,0.3-0.3,0.3l0,0h-4.4c-0.2,0-0.3-0.1-0.3-0.3V8.9
					c0-0.2,0.1-0.3,0.3-0.3h4.4c0.2,0,0.3,0.1,0.3,0.3V13.3z"/>
				<path id="Path_9513" class="st3" d="M23.1,13.3c0,0.2-0.1,0.3-0.3,0.3h-4.4c-0.2,0-0.3-0.1-0.3-0.3V8.9c0-0.2,0.1-0.3,0.3-0.3
					h4.4c0.2,0,0.3,0.1,0.3,0.3V13.3z"/>
				<path id="Path_9514" class="st3" d="M29.2,13.3c0,0.2-0.1,0.3-0.3,0.3c0,0,0,0,0,0h-4.4c-0.2,0-0.3-0.1-0.3-0.3c0,0,0,0,0,0V8.9
					c0-0.2,0.1-0.3,0.3-0.3h4.4c0.2,0,0.3,0.1,0.3,0.3V13.3z"/>
				<path id="Rectangle_24621" class="st3" d="M30.7,8.6h4.1c0.2,0,0.4,0.2,0.4,0.4v4.2c0,0.2-0.2,0.4-0.4,0.4l0,0h-4.2
					c-0.2,0-0.4-0.2-0.4-0.4l0,0V9C30.3,8.8,30.5,8.6,30.7,8.6z"/>
				<path id="Rectangle_24622" class="st3" d="M36.7,8.6h4.2c0.2,0,0.4,0.2,0.4,0.4v4.2c0,0.2-0.2,0.4-0.4,0.4l0,0h-4.2
					c-0.2,0-0.4-0.2-0.4-0.4V9C36.3,8.8,36.5,8.6,36.7,8.6z"/>
				<path id="Path_9515" class="st3" d="M47.4,13.3c0,0.2-0.1,0.3-0.3,0.3c0,0,0,0,0,0h-4.4c-0.2,0-0.3-0.1-0.3-0.3V8.9
					c0-0.2,0.1-0.3,0.3-0.3h4.4c0.2,0,0.3,0.1,0.3,0.3V13.3z"/>
				<path id="Path_9516" class="st3" d="M53.4,13.3c0,0.2-0.1,0.3-0.3,0.3h-4.4c-0.2,0-0.3-0.1-0.3-0.3V8.9c0-0.2,0.1-0.3,0.3-0.3
					h4.4c0.2,0,0.3,0.1,0.3,0.3L53.4,13.3z"/>
				<path id="Path_9517" class="st3" d="M59.5,13.3c0,0.2-0.1,0.3-0.3,0.3c0,0,0,0,0,0h-4.4c-0.2,0-0.3-0.1-0.3-0.3V8.9
					c0-0.2,0.1-0.3,0.3-0.3h4.4c0.2,0,0.3,0.1,0.3,0.3V13.3z"/>
				<path id="Rectangle_24623" class="st3" d="M61,8.6h4.1c0.2,0,0.4,0.2,0.4,0.4v4.2c0,0.2-0.2,0.4-0.4,0.4l0,0H61
					c-0.2,0-0.4-0.2-0.4-0.4l0,0V9C60.6,8.8,60.8,8.6,61,8.6z"/>
				<path id="Path_9518" class="st3" d="M-7.2,13.3c0,0.2-0.1,0.3-0.3,0.3h0h-7.5c-0.2,0-0.3-0.1-0.3-0.3c0,0,0,0,0,0V8.9
					c0-0.2,0.1-0.3,0.3-0.3h7.5c0.2,0,0.3,0.1,0.3,0.3V13.3z"/>
				<path id="Rectangle_24624" class="st3" d="M64,2.6h7.2c0.2,0,0.4,0.2,0.4,0.4l0,0v4.2c0,0.2-0.2,0.4-0.4,0.4H64
					c-0.2,0-0.4-0.2-0.4-0.4c0,0,0,0,0,0V3C63.6,2.7,63.8,2.6,64,2.6z"/>
				<path id="Rectangle_24625" class="st3" d="M-14.8,14.7h8.7c0.2,0,0.4,0.2,0.4,0.4v4.2c0,0.2-0.2,0.4-0.4,0.4h-8.7
					c-0.2,0-0.4-0.2-0.4-0.4c0,0,0,0,0,0v-4.2C-15.2,14.9-15,14.7-14.8,14.7L-14.8,14.7z"/>
				<path id="Rectangle_24626" class="st3" d="M-14.8,20.8h5.7c0.2,0,0.4,0.2,0.4,0.4v4.2c0,0.2-0.2,0.4-0.4,0.4h-5.7
					c-0.2,0-0.4-0.2-0.4-0.4c0,0,0,0,0,0v-4.2C-15.2,20.9-15,20.8-14.8,20.8z"/>
				<path id="Rectangle_24627" class="st3" d="M-8.7,2.6h4.2c0.2,0,0.4,0.2,0.4,0.4v4.2c0,0.2-0.2,0.4-0.4,0.4h-4.2
					c-0.2,0-0.4-0.2-0.4-0.4c0,0,0,0,0,0V3C-9.1,2.7-9,2.6-8.7,2.6z"/>
				<path id="Path_9519" class="st3" d="M1.9,7.3c0,0.2-0.1,0.3-0.3,0.3h-4.4c-0.2,0-0.3-0.1-0.3-0.3V2.8c0-0.2,0.1-0.3,0.3-0.3h4.4
					c0.2,0,0.3,0.1,0.3,0.3V7.3z"/>
				<path id="Path_9520" class="st3" d="M8,7.3c0,0.2-0.1,0.3-0.3,0.3H3.3C3.1,7.5,3,7.4,3,7.3V2.8c0-0.2,0.1-0.3,0.3-0.3h4.4
					C7.8,2.6,8,2.7,8,2.8V7.3z"/>
				<path id="Rectangle_24628" class="st3" d="M9.4,2.6h4.2C13.8,2.6,14,2.7,14,3v4.2c0,0.2-0.2,0.4-0.4,0.4H9.4
					C9.2,7.5,9,7.4,9,7.1c0,0,0,0,0,0V3C9,2.7,9.2,2.6,9.4,2.6z"/>
				<path id="Rectangle_24629" class="st3" d="M15.5,2.6h4.2c0.2,0,0.4,0.2,0.4,0.4l0,0v4.2c0,0.2-0.2,0.4-0.4,0.4h-4.2
					c-0.2,0-0.4-0.2-0.4-0.4c0,0,0,0,0,0V3C15.1,2.7,15.3,2.6,15.5,2.6z"/>
				<path id="Rectangle_24630" class="st3" d="M21.6,2.6h4.2c0.2,0,0.4,0.2,0.4,0.4v4.2c0,0.2-0.2,0.4-0.4,0.4h-4.2
					c-0.2,0-0.4-0.2-0.4-0.4V3C21.2,2.7,21.3,2.6,21.6,2.6z"/>
				<path id="Path_9521" class="st3" d="M32.2,7.3c0,0.2-0.1,0.3-0.3,0.3c0,0,0,0,0,0h-4.4c-0.2,0-0.3-0.1-0.3-0.3l0,0V2.8
					c0-0.2,0.1-0.3,0.3-0.3c0,0,0,0,0,0h4.4c0.2,0,0.3,0.1,0.3,0.3c0,0,0,0,0,0V7.3z"/>
				<path id="Rectangle_24631" class="st3" d="M33.7,2.6h4.2c0.2,0,0.4,0.2,0.4,0.4l0,0v4.2c0,0.2-0.2,0.4-0.4,0.4h-4.2
					c-0.2,0-0.4-0.2-0.4-0.4c0,0,0,0,0,0V3C33.3,2.7,33.5,2.6,33.7,2.6z"/>
				<path id="Rectangle_24632" class="st3" d="M39.7,2.6h4.2c0.2,0,0.4,0.2,0.4,0.4v4.2c0,0.2-0.2,0.4-0.4,0.4h-4.2
					c-0.2,0-0.4-0.2-0.4-0.4V3C39.3,2.7,39.5,2.6,39.7,2.6z"/>
				<path id="Rectangle_24633" class="st3" d="M45.8,2.6H50c0.2,0,0.4,0.2,0.4,0.4v0v4.2c0,0.2-0.2,0.4-0.4,0.4h-4.2
					c-0.2,0-0.4-0.2-0.4-0.4c0,0,0,0,0,0V3C45.4,2.7,45.6,2.6,45.8,2.6z"/>
				<path id="Rectangle_24634" class="st3" d="M51.9,2.6H56c0.2,0,0.4,0.2,0.4,0.4v4.2c0,0.2-0.2,0.4-0.4,0.4h-4.2
					c-0.2,0-0.4-0.2-0.4-0.4V3C51.5,2.7,51.6,2.6,51.9,2.6z"/>
				<path id="Path_9522" class="st3" d="M62.5,7.3c0,0.2-0.1,0.3-0.3,0.3c0,0,0,0,0,0h-4.4c-0.2,0-0.3-0.1-0.3-0.3V2.8
					c0-0.2,0.1-0.3,0.3-0.3l0,0h4.4c0.2,0,0.3,0.1,0.3,0.3c0,0,0,0,0,0V7.3z"/>
				<g id="Group_6133" transform="translate(87.426 27.982)">
					<path id="Path_9523" class="st3" d="M-26.8,1.9v2.4c0,0.1,0,0.1,0.1,0.2c0.1,0.1,0.1,0.1,0.2,0.1h4.4c0.1,0,0.1,0,0.2-0.1
						c0.1-0.1,0.1-0.1,0.1-0.2V1.9H-26.8z"/>
					<path id="Path_9524" class="st3" d="M-21.8,1.5v-2.4c0-0.1,0-0.1-0.1-0.2C-22-1.1-22-1.2-22.1-1.2h-4.4c-0.2,0-0.3,0.1-0.3,0.3
						v2.4H-21.8z"/>
				</g>
				<path id="Path_9525" class="st3" d="M66.9,8.6c-0.2,0-0.3,0.1-0.3,0.3c0,0,0,0,0,0v4.4c0,0.1,0,0.2,0.1,0.2
					c0.1,0.1,0.1,0.1,0.2,0.1h1.1v5.8c0,0.1,0,0.1,0.1,0.2c0.1,0.1,0.1,0.1,0.2,0.1h3c0.2,0,0.3-0.1,0.3-0.3V8.9
					c0-0.2-0.1-0.3-0.3-0.3H66.9z"/>
			</g>
		</g>
		<g id="Group_6139" transform="translate(166.681 130.282)">
			<g id="Group_6136">
				<path id="Path_9526" class="st6" d="M15.2-3.7C11.8-3.8,3.7-3.4-3.7-2.9C-11.1-3.5-19.1-4.1-22.6-4c-1.3-0.1-1.7,2.1,0.2,2.2
					c0.5,0,2.3,0.1,5,0.3c-0.3,0.1-0.6,0.1-0.8,0.1c-3.6,0.8-4,5.2-4,7s2.1,2.3,2.1-0.7s0.3-4.7,2.4-4.8c0.9-0.1,7.2-0.4,14-0.7
					c6.8,0.4,13,0.8,14,0.9c2.1,0.2,2.4,1.8,2.3,4.9c0,3,2.1,2.5,2.1,0.8c0-1.8-0.3-6.2-3.9-7c-0.2,0-0.5-0.1-0.8-0.2
					c2.6-0.1,4.5-0.2,5-0.2C16.9-1.6,16.6-3.8,15.2-3.7z"/>
				<path id="Path_9527" class="st6" d="M16.4-2.9c0-0.8-0.1-0.9-1.1-1.2c-2.9-0.5-5.8-0.7-8.8-0.5c-0.2,0-0.4,0-0.6,0
					C2.7-4.4-1-3.2-3.7-3.1c-1.2,0-6-1.3-9.5-1.6c-0.2,0-0.5,0-0.7-0.1c-2.9-0.2-5.8,0-8.7,0.4c-1.1,0.3-1.1,0.4-1.1,1.2
					s0.1,1.5,0.7,1.7c0.8,0.3,0.8,1.4,1.4,4.4c0.5,2.8,1.7,5,7,5.5c0.3,0,0.5,0,0.8,0c2.9,0.2,5.6-1.4,6.8-4c1-1.9,0.7-4.6,3.4-4.6
					s2.4,2.6,3.3,4.6c1.2,2.7,3.9,4.4,6.9,4.2c0.2,0,0.4,0,0.6,0c5.3-0.4,6.6-2.6,7.1-5.4c0.6-3.1,0.6-4.1,1.5-4.4
					C16.3-1.4,16.4-2.1,16.4-2.9z M-10.9,7.1c-0.9,0.4-1.9,0.6-2.9,0.5C-16.3,7.7-19,6.8-20,5c-1.3-2.5-1.6-7.4,0.1-8.4
					c0.8-0.4,3.3-0.7,6-0.6c2.8,0.1,5.7,0.8,6.7,2.1C-5.6,0.4-8.3,5.9-10.9,7.1L-10.9,7.1z M12.5,5.3c-1,1.7-3.6,2.5-6,2.5
					c-1.1,0-2.1-0.2-3.1-0.6C0.8,6-1.9,0.5-0.2-1.8c1-1.4,3.9-1.9,6.6-2c2.7-0.1,5.3,0.2,6,0.7C14.2-2.1,13.9,2.9,12.5,5.3L12.5,5.3
					z"/>
			</g>
			<g id="Group_6137" transform="translate(3.061 0.987)">
				<path id="Path_9528" class="st7" d="M-22.9-4.4c1.6-0.9,10.7-1.1,12.7,1.6c1.7,2.3-1.1,7.8-3.7,9c-2.5,1.2-7.7,0.5-9.1-2.1
					C-24.4,1.6-24.7-3.4-22.9-4.4L-22.9-4.4z"/>
				<path id="Path_9529" class="st7" d="M9.4-4.1C7.9-5-1.2-5.4-3.2-2.8c-1.7,2.2,1,7.8,3.6,9c2.5,1.2,7.7,0.6,9.1-2
					C10.8,1.9,11.2-3.1,9.4-4.1z"/>
			</g>
			<path id="Path_9530" class="st8" d="M10.3-3.7c-2.3,0.1-5,0.2-7.8,0.4c-0.7,0.2-1.4,0.4-2,0.8l0,0l0,0h0l0,0l0,0l0,0l0,0l0,0l0,0
				l0,0l0,0l0,0l0,0l0,0l0,0l0,0l0,0l0,0l0,0l0,0l0,0l0,0l0,0l0,0h0l0,0l0,0h0l0,0l0,0l0,0l0,0l0,0l0,0l0,0l0,0l0,0l0,0l0,0h0l0,0
				l0,0l0,0l0,0l0,0l0,0l0,0l0,0l0,0l0,0l0,0l0,0l0,0l0,0l0,0l0,0l0,0l0,0l0,0l0,0l0,0l0,0l0,0l0,0l0,0l0,0l0,0l0,0l0,0l0,0l0,0l0,0
				l0,0l0,0l0,0l0,0l0,0l0,0l0,0l0,0l0,0l0,0l0,0l0,0l0,0l0,0v0l0,0l0,0l0,0l0,0l0,0l0,0v0l0,0l0,0l0,0l0,0l0,0l0,0v0l0,0l0,0l0,0
				c-0.2,0.3-0.3,0.7-0.4,1.1C4.9-0.2,9.5,0.1,10.3,0.2c2.1,0.2,2.4,1.8,2.3,4.9v0c0.6-1.3,1-2.7,1.1-4.1c-0.6-1.1-1.6-1.9-2.8-2.2
				c-0.2-0.1-0.5-0.1-0.8-0.2c1.4-0.1,2.6-0.1,3.5-0.1c-0.1-0.7-0.5-1.2-1-1.6C11.9-3.5,11.1-3.7,10.3-3.7L10.3-3.7z M-17.7-3.9
				c2.3,0.1,5,0.3,7.8,0.5c0.7,0.2,1.4,0.5,2,0.9l0,0l0,0l0,0c0,0,0,0,0.1,0l0,0h0l0,0l0,0l0,0l0,0l0,0l0,0l0,0l0,0l0,0l0,0l0,0l0,0
				l0,0l0,0h0l0,0l0,0l0,0l0,0l0,0l0,0l0,0l0,0l0,0l0,0l0,0l0,0l0,0l0,0l0,0l0,0l0,0l0,0l0,0l0,0l0,0l0,0l0,0l0,0l0,0l0,0l0,0h0l0,0
				l0,0l0,0l0,0l0,0l0,0l0,0l0,0l0,0l0,0l0,0v0l0,0l0,0v0l0,0l0,0l0,0l0,0l0,0l0,0l0,0l0,0l0,0l0,0v0l0,0l0,0l0,0l0,0l0,0v0l0,0l0,0
				v0l0,0l0,0l0,0l0,0l0,0l0,0v0l0,0l0,0l0,0l0,0l0,0l0,0l0,0l0,0l0,0C-7-1.4-6.9-1-6.8-0.6c-5.5,0.3-10.1,0.5-10.9,0.6
				c-2.1,0.2-2.4,1.8-2.4,4.8v0c-0.6-1.3-0.9-2.7-1-4.1c0.6-1.1,1.7-1.9,2.9-2.2c0.2,0,0.5-0.1,0.8-0.1c-1.4-0.1-2.6-0.2-3.5-0.2
				c0.1-0.7,0.5-1.2,1-1.6C-19.2-3.7-18.5-3.9-17.7-3.9L-17.7-3.9z"/>
			<g id="Group_6138" transform="translate(3.061 0.986)">
				<path id="Path_9531" class="st9" d="M9.4-4.1C7.9-5-1.2-5.4-3.2-2.8c-1.7,2.2,1,7.8,3.6,9L9.4-4.1z"/>
				<path id="Path_9532" class="st9" d="M-20.9,5.9c-0.9-0.4-1.7-1-2.2-1.8c-1.3-2.5-1.6-7.4,0.1-8.4l0,0c1.4-0.8,8.5-1.1,11.6,0.7
					L-20.9,5.9z"/>
			</g>
		</g>
		<g id="Group_6142" transform="translate(14.952 56.073)">
			<path id="Path_9533" class="st5" d="M16.3,41.6c-0.1,1-1,1.8-2,1.8l-15.8,0c-1,0.1-2-0.7-2-1.8l0-34.8c0.1-1,1-1.8,2-1.8l15.8,0
				c1-0.1,1.9,0.7,2,1.8L16.3,41.6z"/>
			<path id="Path_9534" class="st4" d="M15.5,38.2c0,0.2-0.2,0.3-0.4,0.3l-17.5,0c-0.2,0-0.4-0.1-0.4-0.3c0,0,0,0,0,0l0-28.1
				c0-0.2,0.2-0.3,0.4-0.3l17.5,0c0.2,0,0.4,0.1,0.4,0.3L15.5,38.2z"/>
			<g id="Group_6141" transform="translate(9.541 1.237)">
				<path id="Path_9535" class="st3" d="M-1.7,39.7c0.1,0.9-0.5,1.6-1.3,1.7c-0.9,0.1-1.6-0.5-1.7-1.3c-0.1-0.9,0.5-1.6,1.3-1.7
					c0.1,0,0.1,0,0.2,0C-2.4,38.3-1.7,38.9-1.7,39.7z"/>
				<g id="Group_6140">
					<path id="Path_9536" class="st4" d="M-2.7,5.3c0,0.3-0.2,0.5-0.4,0.6c-0.3,0-0.5-0.2-0.6-0.4c0-0.3,0.2-0.5,0.4-0.6
						c0,0,0,0,0.1,0C-3,4.8-2.8,5-2.7,5.3z"/>
					<path id="Path_9537" class="st10" d="M-1.6,6.7c0,0.1-0.1,0.2-0.2,0.2h-2.9c-0.1,0-0.2-0.1-0.2-0.2l0,0c0-0.1,0.1-0.2,0.2-0.2
						h2.9C-1.7,6.5-1.6,6.6-1.6,6.7L-1.6,6.7z"/>
				</g>
			</g>
		</g>
		<g id="Group_6143" transform="translate(26.648 111.785)">
			<rect id="Rectangle_24635" x="10.7" y="-1.5" class="st3" width="2.8" height="5"/>
			<path id="Rectangle_24636" class="st11" d="M10.7-1.7v5.3c0,0.4-0.3,0.7-0.7,0.7H-4.5c-0.4,0-0.7-0.3-0.7-0.7v0v-5.3
				c0-0.4,0.3-0.7,0.7-0.7l0,0H10C10.4-2.4,10.7-2.1,10.7-1.7L10.7-1.7z"/>
			<path id="Path_9538" class="st4" d="M11.7-0.2L11.7-0.2c0-0.1,0.1-0.2,0.2-0.2h0.6c0.1,0,0.2,0.1,0.2,0.2l0,0
				c0,0.1-0.1,0.2-0.2,0.2h-0.6C11.8,0,11.7-0.1,11.7-0.2z"/>
			<path id="Path_9539" class="st4" d="M11.7,2.3L11.7,2.3c0-0.1,0.1-0.2,0.2-0.2h0.6c0.1,0,0.2,0.1,0.2,0.2l0,0
				c0,0.1-0.1,0.2-0.2,0.2h-0.6C11.8,2.5,11.7,2.4,11.7,2.3z"/>
		</g>
		<g id="Group_6145" transform="translate(0 57.36)">
			<path id="Path_9540" class="st12" d="M1.8,38.9c0,0.9-0.7,1.6-1.6,1.6c0,0,0,0,0,0l0,0c-0.9,0-1.6-0.7-1.6-1.6c0,0,0,0,0,0
				l0.1-32.4C-1.3,5.7-0.6,5,0.3,5c0,0,0,0,0,0l0,0c0.9,0,1.6,0.7,1.6,1.6c0,0,0,0,0,0L1.8,38.9z"/>
			<g id="Group_6144">
				<path id="Path_9541" class="st6" d="M2.2,6.8c0-1.1-0.9-1.9-1.9-1.9l0,0c-1.1,0-1.9,0.9-1.9,1.9c0,0,0,0,0,0l0,7.7l3.8,0
					L2.2,6.8z"/>
				<path id="Path_9542" class="st6" d="M2.7,6.9C2.7,6.9,2.7,6.9,2.7,6.9H2C1.9,6.9,1.9,6.9,1.9,7c0,0.1,0.1,0.2,0.2,0.2h0.5l0,7.1
					c0,0.1,0.1,0.1,0.2,0.1c0.1,0,0.1-0.1,0.1-0.1l0-7.3C2.9,6.9,2.8,6.9,2.7,6.9z"/>
			</g>
		</g>
		<g id="Group_6154" transform="translate(48.671 62.936)">
			<path id="Path_9543" class="st13" d="M15.7,35.1c0,0.8-0.6,1.4-1.4,1.4h0l-21.1,0c-0.8,0-1.4-0.6-1.4-1.4l0-29.7
				c0-0.8,0.6-1.4,1.4-1.4l21.1,0c0.8,0,1.4,0.6,1.4,1.4c0,0,0,0,0,0L15.7,35.1z"/>
			<g id="Group_6153" transform="translate(1.979 2.455)">
				<path id="Path_9544" class="st14" d="M12.1,7.1c0,0.8-0.7,1.4-1.5,1.4l-17.4,0c-0.8,0-1.5-0.6-1.5-1.4V5.1
					c0-0.8,0.7-1.4,1.5-1.4l17.4,0c0.8,0,1.5,0.6,1.5,1.4L12.1,7.1z"/>
				<g id="Group_6152" transform="translate(1.01 7.257)">
					<g id="Group_6146" transform="translate(0 3.978)">
						<path id="Path_9545" class="st12" d="M-7.7,11.8h2.5c0.4,0,0.7,0.3,0.7,0.7v2.6c0,0.4-0.3,0.7-0.7,0.7h-2.5
							c-0.4,0-0.7-0.3-0.7-0.7v-2.6C-8.4,12.1-8.1,11.8-7.7,11.8"/>
						<path id="Path_9546" class="st12" d="M-2.9,11.8h2.5c0.4,0,0.7,0.3,0.7,0.7v2.6c0,0.4-0.3,0.7-0.7,0.7h-2.5
							c-0.4,0-0.7-0.3-0.7-0.7v-2.6C-3.6,12.1-3.3,11.8-2.9,11.8"/>
						<path id="Path_9547" class="st12" d="M2,11.8h2.5c0.4,0,0.7,0.3,0.7,0.7v2.6c0,0.4-0.3,0.7-0.7,0.7H2c-0.4,0-0.7-0.3-0.7-0.7
							v-2.6C1.3,12.1,1.6,11.8,2,11.8"/>
						<path id="Path_9548" class="st12" d="M2,16.6h2.5c0.4,0,0.7,0.3,0.7,0.7v2.6c0,0.4-0.3,0.7-0.7,0.7H2c-0.4,0-0.7-0.3-0.7-0.7
							v-2.6C1.3,16.9,1.6,16.6,2,16.6"/>
						<path id="Path_9549" class="st12" d="M-7.7,7.1h2.5c0.4,0,0.7,0.3,0.7,0.7v2.6c0,0.4-0.3,0.7-0.7,0.7h-2.5
							c-0.4,0-0.7-0.3-0.7-0.7V7.8C-8.4,7.4-8.1,7.1-7.7,7.1"/>
						<path id="Path_9550" class="st12" d="M-2.9,7.1h2.5c0.4,0,0.7,0.3,0.7,0.7v2.6c0,0.4-0.3,0.7-0.7,0.7h-2.5
							c-0.4,0-0.7-0.3-0.7-0.7V7.8C-3.6,7.4-3.3,7.1-2.9,7.1"/>
						<path id="Path_9551" class="st12" d="M2,7.1h2.5c0.4,0,0.7,0.3,0.7,0.7v2.6c0,0.4-0.3,0.7-0.7,0.7c0,0,0,0,0,0H2
							c-0.4,0-0.7-0.3-0.7-0.7V7.8C1.3,7.4,1.6,7.1,2,7.1"/>
						<path id="Path_9552" class="st12" d="M-7.7,2.3h2.5c0.4,0,0.7,0.3,0.7,0.7v2.6c0,0.4-0.3,0.7-0.7,0.7c0,0,0,0,0,0h-2.5
							c-0.4,0-0.7-0.3-0.7-0.7V3C-8.4,2.6-8.1,2.3-7.7,2.3"/>
						<path id="Path_9553" class="st12" d="M-2.9,2.3h2.5c0.4,0,0.7,0.3,0.7,0.7v2.6c0,0.4-0.3,0.7-0.7,0.7h-2.5
							c-0.4,0-0.7-0.3-0.7-0.7V3C-3.6,2.6-3.3,2.3-2.9,2.3"/>
						<path id="Path_9554" class="st12" d="M2,2.3h2.5c0.4,0,0.7,0.3,0.7,0.7v2.6c0,0.4-0.3,0.7-0.7,0.7H2C1.6,6.3,1.3,6,1.3,5.6V3
							C1.3,2.6,1.6,2.3,2,2.3"/>
						<path id="Path_9555" class="st12" d="M-7.8,16.6h7.4c0.4,0,0.7,0.3,0.7,0.7v2.6c0,0.4-0.3,0.7-0.7,0.7h-7.4
							c-0.4,0-0.7-0.3-0.7-0.7v-2.6C-8.5,16.9-8.2,16.6-7.8,16.6"/>
						<path id="Path_9556" class="st6" d="M6.1,19.9v-7.3c0-0.4,0.3-0.7,0.7-0.7h2.6c0.4,0,0.7,0.3,0.7,0.7v7.3
							c0,0.4-0.3,0.7-0.7,0.7H6.9C6.5,20.6,6.1,20.3,6.1,19.9"/>
						<path id="Path_9557" class="st12" d="M6.1,10.3l0-7.3c0-0.4,0.3-0.7,0.7-0.7h2.6c0.4,0,0.7,0.3,0.7,0.7l0,7.3
							c0,0.4-0.3,0.7-0.7,0.7H6.9C6.5,11.1,6.1,10.7,6.1,10.3"/>
					</g>
					<g id="Group_6151" transform="translate(0.019)">
						<g id="Group_6147" transform="translate(16.368 0.009)">
							<path id="Path_9558" class="st6" d="M-6.2,3.6C-6.2,3.8-6.4,4-6.6,4h-3.7c-0.2,0-0.4-0.1-0.4-0.3V3.2c0-0.2,0.2-0.4,0.4-0.3
								h3.7c0.2,0,0.4,0.1,0.4,0.3L-6.2,3.6z"/>
							<path id="Path_9559" class="st6" d="M-6.2,5c0,0.2-0.2,0.4-0.4,0.3h-3.7c-0.2,0-0.4-0.1-0.4-0.3V4.5c0-0.2,0.2-0.4,0.4-0.3
								h3.7c0.2,0,0.4,0.1,0.4,0.3L-6.2,5z"/>
						</g>
						<g id="Group_6148" transform="translate(10.874 0.006)">
							<path id="Path_9560" class="st6" d="M-5.5,3.6C-5.5,3.8-5.7,4-5.9,4h-3.7c-0.2,0-0.4-0.1-0.4-0.3V3.2c0-0.2,0.2-0.4,0.4-0.3
								c0,0,0,0,0,0h3.7c0.2,0,0.4,0.1,0.4,0.3L-5.5,3.6z"/>
							<path id="Path_9561" class="st6" d="M-5.5,5c0,0.2-0.2,0.4-0.4,0.3h-3.7c-0.2,0-0.4-0.1-0.4-0.3V4.5c0-0.2,0.2-0.4,0.4-0.3
								h3.7c0.2,0,0.4,0.1,0.4,0.3L-5.5,5z"/>
						</g>
						<g id="Group_6149" transform="translate(5.438 0.004)">
							<path id="Path_9562" class="st6" d="M-4.8,3.6C-4.8,3.8-5,4-5.2,4h-3.7C-9,4-9.2,3.8-9.2,3.6V3.2C-9.2,3-9,2.8-8.8,2.8h3.7
								C-5,2.8-4.8,3-4.8,3.2V3.6z"/>
							<path id="Path_9563" class="st6" d="M-4.8,5c0,0.2-0.2,0.4-0.4,0.3h-3.7C-9,5.3-9.2,5.2-9.2,5V4.5c0-0.2,0.2-0.4,0.4-0.3h3.7
								c0.2,0,0.4,0.1,0.4,0.3L-4.8,5z"/>
						</g>
						<g id="Group_6150">
							<path id="Path_9564" class="st6" d="M-4.1,3.6C-4.1,3.8-4.2,4-4.4,4h-3.7c-0.2,0-0.4-0.1-0.4-0.3V3.2c0-0.2,0.2-0.4,0.4-0.3
								h3.7c0.2,0,0.4,0.1,0.4,0.3V3.6z"/>
							<path id="Path_9565" class="st6" d="M-4.1,5c0,0.2-0.2,0.4-0.4,0.3h-3.7c-0.2,0-0.4-0.1-0.4-0.3V4.5c0-0.2,0.2-0.4,0.4-0.3
								c0,0,0,0,0,0h3.7c0.2,0,0.4,0.1,0.4,0.3L-4.1,5z"/>
						</g>
					</g>
				</g>
			</g>
		</g>
		<g id="Group_6166" transform="translate(231.595 61.76)">
			<path id="Path_9566" class="st15" d="M25.7,86.3c0,0.4-0.3,0.7-0.7,0.7l-51.4,0c-0.4,0-0.7-0.3-0.7-0.7c0,0,0,0,0,0l0-71
				c0-0.4,0.3-0.7,0.7-0.7l51.4,0c0.4,0,0.7,0.3,0.7,0.7c0,0,0,0,0,0L25.7,86.3z"/>
			<g id="Group_6165">
				<path id="Path_9567" class="st5" d="M20.5,76c0,0.4-0.3,0.7-0.7,0.7l-51.4,0c-0.4,0-0.7-0.3-0.7-0.7c0,0,0,0,0,0l0-71
					c0-0.4,0.3-0.7,0.7-0.7l51.4,0c0.4,0,0.7,0.3,0.7,0.7c0,0,0,0,0,0L20.5,76z"/>
				<g id="Group_6164" transform="translate(5.079 10.008)">
					<g id="Group_6157" transform="translate(3.248 34.768)">
						<g id="Group_6155" transform="translate(3.97)">
							<rect id="Rectangle_24637" x="-34" y="-1.7" class="st0" width="2.3" height="16.5"/>
							<rect id="Rectangle_24638" x="-27.1" y="6.9" class="st0" width="2.3" height="7.9"/>
						</g>
						<g id="Group_6156" transform="translate(0 1.122)">
							<rect id="Rectangle_24639" x="-33.5" y="1.1" class="st11" width="2.3" height="12.6"/>
							<rect id="Rectangle_24640" x="-26.6" y="-1.9" class="st11" width="2.3" height="15.5"/>
							<rect id="Rectangle_24641" x="-19.7" y="3.6" class="st11" width="2.3" height="10"/>
						</g>
					</g>
					<g id="Group_6158" transform="translate(30.714 36.918)">
						<path id="Path_9568" class="st11" d="M-29.1-1.9c-3.9-0.5-7.5,2.3-8,6.2c-0.2,1.3,0,2.7,0.6,3.9l6.4-3.1L-29.1-1.9z"/>
						<path id="Path_9569" class="st0" d="M-36.4,8.4c1.5,3,5,4.6,8.3,3.7L-30,5.3L-36.4,8.4z"/>
						<path id="Path_9570" class="st11" d="M-27.9,12c1.3-0.4,2.5-1.2,3.4-2.2l-5.3-4.4L-27.9,12z"/>
						<path id="Path_9571" class="st0" d="M-24.4,9.6c2.5-3.1,2-7.6-1.1-10.1c-1-0.8-2.2-1.3-3.4-1.5l-1,7L-24.4,9.6z"/>
					</g>
					<g id="Group_6163">
						<g id="Group_6159">
							<rect id="Rectangle_24642" x="-33" y="2.9" class="st3" width="44.1" height="1.5"/>
							<rect id="Rectangle_24643" x="-33" y="6" class="st3" width="44.1" height="1.5"/>
							<rect id="Rectangle_24644" x="-33" y="9.1" class="st3" width="44.1" height="1.5"/>
							<rect id="Rectangle_24645" x="-33" y="12.3" class="st3" width="44.1" height="1.5"/>
							<rect id="Rectangle_24646" x="-33" y="15.4" class="st3" width="44.1" height="1.5"/>
							<rect id="Rectangle_24647" x="-33" y="18.5" class="st3" width="44.1" height="1.5"/>
							<rect id="Rectangle_24648" x="-33" y="21.6" class="st3" width="44.1" height="1.5"/>
							<rect id="Rectangle_24649" x="-33" y="24.7" class="st3" width="30.5" height="1.5"/>
						</g>
						<g id="Group_6162" transform="translate(0.333 61.488)">
							<g id="Group_6160">
								<rect id="Rectangle_24650" x="-33.1" y="-5.3" class="st3" width="19.1" height="1.5"/>
								<rect id="Rectangle_24651" x="-33.1" y="-2.6" class="st3" width="13.2" height="1.5"/>
							</g>
							<g id="Group_6161" transform="translate(28.147 0.005)">
								<rect id="Rectangle_24652" x="-36.8" y="-5.3" class="st3" width="19.1" height="1.5"/>
								<rect id="Rectangle_24653" x="-36.8" y="-2.6" class="st3" width="13.2" height="1.5"/>
							</g>
						</g>
					</g>
				</g>
			</g>
		</g>
	</g>
</g>
</svg>
