<?xml version="1.0" encoding="utf-8"?>
<!-- Generator: Adobe Illustrator 24.2.3, SVG Export Plug-In . SVG Version: 6.00 Build 0)  -->
<svg version="1.1" id="Layer_1" xmlns="http://www.w3.org/2000/svg" xmlns:xlink="http://www.w3.org/1999/xlink" x="0px" y="0px"
	 viewBox="0 0 300 366.67" style="enable-background:new 0 0 300 366.67;" xml:space="preserve">
<style type="text/css">
	.st0{fill:#0E0E0F;}
	.st1{fill:url(#SVGID_1_);}
	.st2{fill:none;stroke:#F3F4F5;stroke-width:2;stroke-miterlimit:10;}
	.st3{fill:url(#SVGID_2_);}
	.st4{fill:#F3F4F5;}
	.st5{fill:#75767A;}
	.st6{fill:url(#Path_3684_1_);}
	.st7{fill:#121112;}
	.st8{fill:url(#Ellipse_191_1_);}
	.st9{fill:url(#Ellipse_192_1_);stroke:#868686;stroke-miterlimit:10;}
	.st10{fill:url(#Ellipse_193_1_);}
	.st11{fill:url(#Ellipse_194_1_);}
	.st12{fill:url(#Ellipse_195_1_);}
	.st13{fill:url(#Ellipse_196_1_);}
	.st14{fill:url(#Ellipse_197_1_);}
	.st15{fill:url(#Ellipse_198_1_);}
	.st16{fill:url(#Ellipse_200_1_);stroke:#868686;stroke-miterlimit:10;}
	.st17{fill:url(#Ellipse_199_1_);stroke:#868686;stroke-miterlimit:10;}
	.st18{fill:url(#Ellipse_201_1_);stroke:#606161;stroke-width:0.5;stroke-miterlimit:10;}
	.st19{fill:none;stroke:#515252;stroke-miterlimit:10;}
	.st20{fill:url(#Ellipse_202_1_);stroke:#606161;stroke-width:0.5;stroke-miterlimit:10;}
	.st21{fill:url(#Ellipse_203_1_);stroke:#606161;stroke-width:0.5;stroke-miterlimit:10;}
	.st22{fill:url(#Ellipse_204_1_);stroke:#606161;stroke-width:0.5;stroke-miterlimit:10;}
	.st23{fill:url(#Ellipse_205_1_);stroke:#606161;stroke-width:0.5;stroke-miterlimit:10;}
</style>
<g id="Group_4144" transform="translate(-371 -360)">
	<rect id="Rectangle_20322" x="371" y="359.5" class="st0" width="300" height="366.67"/>
	<g id="Rectangle_20323" transform="translate(372.199 566.148)">
		
			<linearGradient id="SVGID_1_" gradientUnits="userSpaceOnUse" x1="-1446.7902" y1="-217.0564" x2="-1445.8224" y2="-217.0564" gradientTransform="matrix(306.402 0 0 34.956 443299.375 7704.2505)">
			<stop  offset="0" style="stop-color:#C2C5C6"/>
			<stop  offset="0.928" style="stop-color:#D5D6D5"/>
		</linearGradient>
		<rect x="-0.04" y="74.51" class="st1" width="296.52" height="84.63"/>
		<rect x="0.93" y="75.49" class="st2" width="294.58" height="82.68"/>
	</g>
	<g id="Path_3682" transform="translate(-1.201 -1.207)">
		
			<linearGradient id="SVGID_2_" gradientUnits="userSpaceOnUse" x1="-699.9666" y1="-233.5107" x2="-698.9988" y2="-233.5107" gradientTransform="matrix(304.4022 0 0 199.368 213446.2656 47055.2656)">
			<stop  offset="0" style="stop-color:#C2C5C6"/>
			<stop  offset="0.928" style="stop-color:#D5D6D5"/>
		</linearGradient>
		<path class="st3" d="M667.15,637.97H376.07c0.01-2.69,0.01-10.06-0.21-12.31c-0.12-1.2-0.7-2.51-0.95-3.03V368
			c0-2.52,2.04-4.57,4.55-4.57h285.49c2.51,0,4.55,2.05,4.55,4.57v254.55c-0.79,0.46-2.07,1.46-2.33,3.25
			C666.92,627.47,667.08,635.09,667.15,637.97z"/>
		<path class="st4" d="M666.16,637c-0.08-3.47-0.18-9.75,0.05-11.33c0.25-1.73,1.31-2.93,2.32-3.65V368c0-1.98-1.61-3.59-3.58-3.59
			H379.46c-1.97,0-3.58,1.61-3.58,3.59v254.4c0.31,0.67,0.83,1.94,0.95,3.16c0.21,2.06,0.22,8.23,0.22,11.43h289.11 M668.14,638.95
			H375.1c0,0,0.07-10.49-0.2-13.19c-0.13-1.32-0.96-2.9-0.96-2.9V368c0-3.06,2.47-5.55,5.51-5.55h285.49c3.05,0,5.51,2.48,5.51,5.55
			v255.16c0,0-2.05,0.75-2.34,2.78C667.84,627.87,668.14,638.95,668.14,638.95z"/>
	</g>
	<path id="Path_3683" class="st5" d="M375.35,402.41h290.14C665.49,402.41,505.91,417,375.35,402.41z"/>
	
		<linearGradient id="Path_3684_1_" gradientUnits="userSpaceOnUse" x1="-695.1382" y1="-205.2361" x2="-695.1421" y2="-210.1749" gradientTransform="matrix(106.2679 0 0 20.9478 74392 4786.4253)">
		<stop  offset="0.483" style="stop-color:#929497"/>
		<stop  offset="0.695" style="stop-color:#BCBDBF"/>
		<stop  offset="0.835" style="stop-color:#424143"/>
		<stop  offset="1" style="stop-color:#FFFFFF"/>
	</linearGradient>
	<path id="Path_3684" class="st6" d="M469.36,402.99c0,0,9.86,14.01,16.83,17.51c0,0,4.06,2.34,14.51,1.75l46.42,0.59
		c0,0,9.86,1.17,14.51-6.42l10.58-13.98L469.36,402.99z"/>
	<rect id="Rectangle_20324" x="372.45" y="638.03" class="st7" width="297.68" height="1.75"/>
	<g>
		<g>
			<ellipse id="Ellipse_190" class="st7" cx="574.01" cy="690.73" rx="12.57" ry="12.65"/>
			
				<radialGradient id="Ellipse_191_1_" cx="-648.9005" cy="-202.8403" r="0.6552" gradientTransform="matrix(19.188 0 0 19.303 13024.3213 4605.3652)" gradientUnits="userSpaceOnUse">
				<stop  offset="0.354" style="stop-color:#E1E2E5"/>
				<stop  offset="1" style="stop-color:#929497"/>
			</radialGradient>
			<ellipse id="Ellipse_191" class="st8" cx="573.22" cy="689.94" rx="12.57" ry="12.65"/>
		</g>
		
			<radialGradient id="Ellipse_192_1_" cx="-575.1619" cy="-159.2038" r="0.6556" gradientTransform="matrix(8.394 0 0 8.4461 5434.9189 2041.6945)" gradientUnits="userSpaceOnUse">
			<stop  offset="0.354" style="stop-color:#E1E2E5"/>
			<stop  offset="1" style="stop-color:#929497"/>
		</radialGradient>
		<ellipse id="Ellipse_192" class="st9" cx="607.01" cy="697.06" rx="5.5" ry="5.54"/>
		
			<radialGradient id="Ellipse_193_1_" cx="-399.0929" cy="-57.3181" r="0.6555" gradientTransform="matrix(3.598 0 0 3.6203 2078.3164 884.4201)" gradientUnits="userSpaceOnUse">
			<stop  offset="0.354" style="stop-color:#E1E2E5"/>
			<stop  offset="1" style="stop-color:#929497"/>
		</radialGradient>
		<ellipse id="Ellipse_193" class="st10" cx="642.38" cy="676.9" rx="2.36" ry="2.37"/>
		
			<radialGradient id="Ellipse_194_1_" cx="-399.0929" cy="-56.645" r="0.6555" gradientTransform="matrix(3.598 0 0 3.6203 2078.3164 892.2626)" gradientUnits="userSpaceOnUse">
			<stop  offset="0.354" style="stop-color:#E1E2E5"/>
			<stop  offset="1" style="stop-color:#929497"/>
		</radialGradient>
		<ellipse id="Ellipse_194" class="st11" cx="642.38" cy="687.18" rx="2.36" ry="2.37"/>
		
			<radialGradient id="Ellipse_195_1_" cx="-399.0929" cy="-55.972" r="0.6555" gradientTransform="matrix(3.598 0 0 3.6203 2078.3164 900.1049)" gradientUnits="userSpaceOnUse">
			<stop  offset="0.354" style="stop-color:#E1E2E5"/>
			<stop  offset="1" style="stop-color:#929497"/>
		</radialGradient>
		<ellipse id="Ellipse_195" class="st12" cx="642.38" cy="697.45" rx="2.36" ry="2.37"/>
		
			<radialGradient id="Ellipse_196_1_" cx="-398.4467" cy="-57.3181" r="0.656" gradientTransform="matrix(3.598 0 0 3.6203 2085.8113 884.4201)" gradientUnits="userSpaceOnUse">
			<stop  offset="0.354" style="stop-color:#E1E2E5"/>
			<stop  offset="1" style="stop-color:#929497"/>
		</radialGradient>
		<ellipse id="Ellipse_196" class="st13" cx="652.2" cy="676.9" rx="2.36" ry="2.37"/>
		
			<radialGradient id="Ellipse_197_1_" cx="-398.4467" cy="-56.645" r="0.656" gradientTransform="matrix(3.598 0 0 3.6203 2085.8113 892.2626)" gradientUnits="userSpaceOnUse">
			<stop  offset="0.354" style="stop-color:#E1E2E5"/>
			<stop  offset="1" style="stop-color:#929497"/>
		</radialGradient>
		<ellipse id="Ellipse_197" class="st14" cx="652.2" cy="687.18" rx="2.36" ry="2.37"/>
		
			<radialGradient id="Ellipse_198_1_" cx="-398.4467" cy="-55.972" r="0.656" gradientTransform="matrix(3.598 0 0 3.6203 2085.8113 900.1049)" gradientUnits="userSpaceOnUse">
			<stop  offset="0.354" style="stop-color:#E1E2E5"/>
			<stop  offset="1" style="stop-color:#929497"/>
		</radialGradient>
		<ellipse id="Ellipse_198" class="st15" cx="652.2" cy="697.45" rx="2.36" ry="2.37"/>
		
			<radialGradient id="Ellipse_200_1_" cx="-574.7392" cy="-159.2038" r="0.6551" gradientTransform="matrix(8.394 0 0 8.4461 5446.3105 2041.6945)" gradientUnits="userSpaceOnUse">
			<stop  offset="0.354" style="stop-color:#E1E2E5"/>
			<stop  offset="1" style="stop-color:#929497"/>
		</radialGradient>
		<ellipse id="Ellipse_200" class="st16" cx="621.95" cy="697.06" rx="5.5" ry="5.54"/>
	</g>
	<g>
		
			<radialGradient id="Ellipse_199_1_" cx="-620.0491" cy="-185.2712" r="0.7126" gradientTransform="matrix(12.592 0 0 12.6681 8206.5381 3039.5645)" gradientUnits="userSpaceOnUse">
			<stop  offset="0.354" style="stop-color:#E1E2E5"/>
			<stop  offset="1" style="stop-color:#929497"/>
		</radialGradient>
		<ellipse id="Ellipse_199" class="st17" cx="398.88" cy="692.53" rx="8.97" ry="9.03"/>
		<g id="Group_4139" transform="translate(452.248 572.422)">
			
				<radialGradient id="Ellipse_201_1_" cx="-1383.3558" cy="-102.9753" r="0.713" gradientTransform="matrix(4.796 0 0 4.8258 6617.9448 598.128)" gradientUnits="userSpaceOnUse">
				<stop  offset="0.354" style="stop-color:#E1E2E5"/>
				<stop  offset="1" style="stop-color:#929497"/>
			</radialGradient>
			<ellipse id="Ellipse_201" class="st18" cx="-16.63" cy="101.19" rx="3.42" ry="3.44"/>
			<line id="Line_46" class="st19" x1="-9.79" y1="101.19" x2="3.88" y2="101.19"/>
		</g>
		<g id="Group_4140" transform="translate(452.248 581.086)">
			
				<radialGradient id="Ellipse_202_1_" cx="-1383.3558" cy="-102.2051" r="0.713" gradientTransform="matrix(4.796 0 0 4.8258 6617.9448 598.2113)" gradientUnits="userSpaceOnUse">
				<stop  offset="0.354" style="stop-color:#E1E2E5"/>
				<stop  offset="1" style="stop-color:#929497"/>
			</radialGradient>
			<ellipse id="Ellipse_202" class="st20" cx="-16.63" cy="104.99" rx="3.42" ry="3.44"/>
			<line id="Line_47" class="st19" x1="-9.79" y1="104.99" x2="3.88" y2="104.99"/>
		</g>
		<g id="Group_4141" transform="translate(475.633 572.422)">
			
				<radialGradient id="Ellipse_203_1_" cx="-1428.0533" cy="-102.9753" r="0.7122" gradientTransform="matrix(4.796 0 0 4.8258 6842.2539 598.128)" gradientUnits="userSpaceOnUse">
				<stop  offset="0.354" style="stop-color:#E1E2E5"/>
				<stop  offset="1" style="stop-color:#929497"/>
			</radialGradient>
			<ellipse id="Ellipse_203" class="st21" cx="-6.69" cy="101.19" rx="3.42" ry="3.44"/>
			<line id="Line_48" class="st19" x1="0.14" y1="101.19" x2="13.82" y2="101.19"/>
		</g>
		<g id="Group_4142" transform="translate(475.633 581.086)">
			
				<radialGradient id="Ellipse_204_1_" cx="-1428.0533" cy="-102.2051" r="0.713" gradientTransform="matrix(4.796 0 0 4.8258 6842.2539 598.2113)" gradientUnits="userSpaceOnUse">
				<stop  offset="0.354" style="stop-color:#E1E2E5"/>
				<stop  offset="1" style="stop-color:#929497"/>
			</radialGradient>
			<ellipse id="Ellipse_204" class="st22" cx="-6.69" cy="104.99" rx="3.42" ry="3.44"/>
			<line id="Line_49" class="st19" x1="0.14" y1="104.99" x2="13.82" y2="104.99"/>
		</g>
		<g id="Group_4143" transform="translate(452.248 589.751)">
			
				<radialGradient id="Ellipse_205_1_" cx="-1383.3558" cy="-101.4349" r="0.713" gradientTransform="matrix(4.796 0 0 4.8258 6617.9448 598.2947)" gradientUnits="userSpaceOnUse">
				<stop  offset="0.354" style="stop-color:#E1E2E5"/>
				<stop  offset="1" style="stop-color:#929497"/>
			</radialGradient>
			<ellipse id="Ellipse_205" class="st23" cx="-16.63" cy="108.79" rx="3.42" ry="3.44"/>
			<line id="Line_50" class="st19" x1="-9.79" y1="108.79" x2="3.88" y2="108.79"/>
		</g>
	</g>
</g>
</svg>
