<?xml version="1.0" encoding="utf-8"?>
<!-- Generator: Adobe Illustrator 24.2.3, SVG Export Plug-In . SVG Version: 6.00 Build 0)  -->
<svg version="1.1" id="Layer_1" xmlns="http://www.w3.org/2000/svg" xmlns:xlink="http://www.w3.org/1999/xlink" x="0px" y="0px"
	 viewBox="0 0 300 514.29" style="enable-background:new 0 0 300 514.29;" xml:space="preserve">
<style type="text/css">
	.st0{fill:#3D3D3D;}
	.st1{fill:url(#Rectangle_20455_1_);}
	.st2{fill:url(#Rectangle_20457_1_);}
	.st3{fill:url(#Rectangle_20459_1_);}
	.st4{fill:url(#Rectangle_20461_1_);}
	.st5{fill:url(#Path_3931_1_);}
	.st6{fill:#CF8429;}
	.st7{fill:#59595C;}
	.st8{fill:#808182;}
	.st9{fill:url(#Path_3936_1_);}
	.st10{fill:url(#Ellipse_305_1_);}
	.st11{fill:#D9D9D8;}
	.st12{fill:#617181;}
	.st13{opacity:0.32;fill:#FFFFFF;enable-background:new    ;}
	.st14{opacity:0.41;}
	.st15{fill:#2A333E;}
	.st16{fill:url(#SVGID_1_);}
	.st17{fill:#D5D6D5;}
	.st18{fill:url(#Union_17_1_);}
	.st19{fill:url(#Path_3669_1_);stroke:#B4B4B5;stroke-width:0.2;stroke-linejoin:round;}
	.st20{fill:#474C4E;}
	.st21{fill:url(#SVGID_2_);}
	.st22{fill:#B1C3B4;}
	.st23{fill:url(#SVGID_3_);}
	.st24{opacity:0.28;fill:url(#Path_3650_2_);enable-background:new    ;}
	.st25{fill:url(#Path_3648_1_);stroke:#B4B4B5;stroke-width:0.2;}
	.st26{fill:url(#Ellipse_180_1_);stroke:#686969;stroke-width:0.2;stroke-miterlimit:10;}
	.st27{fill:url(#Ellipse_187_1_);stroke:#686969;stroke-width:0.2;stroke-miterlimit:10;}
	.st28{fill:url(#Ellipse_188_1_);stroke:#686969;stroke-width:0.2;stroke-miterlimit:10;}
	.st29{fill:url(#Ellipse_189_1_);stroke:#686969;stroke-width:0.2;stroke-miterlimit:10;}
	.st30{fill:url(#Ellipse_180-2_2_);stroke:#686969;stroke-width:0.2;stroke-miterlimit:10;}
	.st31{fill:url(#Ellipse_187-2_2_);stroke:#686969;stroke-width:0.2;stroke-miterlimit:10;}
	.st32{fill:url(#Ellipse_188-2_2_);stroke:#686969;stroke-width:0.2;stroke-miterlimit:10;}
	.st33{fill:url(#Ellipse_189-2_2_);stroke:#686969;stroke-width:0.2;stroke-miterlimit:10;}
	.st34{fill:url(#SVGID_4_);}
	.st35{fill:url(#SVGID_5_);}
	.st36{fill:#C6C6C6;}
	.st37{fill:url(#Rectangle_20485_1_);stroke:#BFBEBE;}
	.st38{fill:url(#Rectangle_20486_1_);}
	.st39{fill:#AEAEAF;}
	.st40{fill:url(#Rectangle_20488_1_);}
	.st41{fill:#34383B;}
	.st42{clip-path:url(#SVGID_7_);}
	.st43{fill:#DAD8D8;}
	.st44{fill:#9C9C9C;}
	.st45{fill:#EBEAEA;stroke:#A4A4A4;stroke-miterlimit:10;}
	.st46{fill:#3E3935;}
	.st47{fill:#5AB947;}
	.st48{fill:none;stroke:#9C9C9C;stroke-miterlimit:10;stroke-dasharray:5;}
	.st49{clip-path:url(#SVGID_9_);}
	.st50{opacity:0.54;fill:url(#Union_19_1_);stroke:#B4B4B5;stroke-width:0.2;enable-background:new    ;}
	.st51{fill:url(#Rectangle_20514_1_);stroke:#B4B4B5;stroke-width:0.2;}
	.st52{fill:url(#Rectangle_20515_1_);stroke:#B4B4B5;stroke-width:0.2;}
	.st53{fill:url(#Rectangle_20516_1_);stroke:#B4B4B5;stroke-width:0.2;}
	.st54{fill:url(#Rectangle_20517_1_);stroke:#B4B4B5;stroke-width:0.2;}
	.st55{fill:url(#Rectangle_20518_1_);stroke:#B4B4B5;stroke-width:0.2;}
	.st56{fill:url(#Rectangle_20519_1_);stroke:#B4B4B5;stroke-width:0.2;}
	.st57{fill:url(#Path_6043_1_);}
	.st58{opacity:0.5;}
	.st59{fill:#636464;}
	.st60{fill:url(#Path_6046_1_);}
	.st61{fill:url(#Path_6047_1_);}
	.st62{fill:url(#Path_6048_1_);}
	.st63{fill:url(#Path_6051_1_);}
	.st64{fill:url(#Path_6052_1_);}
	.st65{fill:url(#Path_6053_1_);}
	.st66{fill:url(#Path_6056_1_);}
	.st67{fill:url(#Path_6059_1_);}
	.st68{fill:url(#Path_6060_1_);}
	.st69{fill:#558D3F;}
	.st70{fill:url(#Path_6062_1_);}
	.st71{fill:url(#Rectangle_22992_1_);}
	.st72{fill:url(#Path_6063_1_);}
	.st73{fill:url(#Rectangle_22993_1_);}
	.st74{fill:url(#Path_6064_1_);}
	.st75{fill:url(#Path_6065_1_);}
	.st76{fill:#68A744;}
	.st77{opacity:0.27;fill:url(#Path_6067_1_);enable-background:new    ;}
	.st78{fill:url(#Path_6068_1_);}
	.st79{fill:url(#Path_6069_1_);}
	.st80{fill:url(#Path_6070_1_);}
	.st81{fill:#A1CC40;}
	.st82{fill:#CFCFCF;}
	.st83{fill:url(#Rectangle_22995_1_);}
	.st84{fill:url(#Rectangle_22996_1_);}
	.st85{fill:url(#Rectangle_22997_1_);}
	.st86{fill:url(#Rectangle_22998_1_);}
	.st87{opacity:0.3;fill:url(#Path_6072_1_);enable-background:new    ;}
	.st88{fill:url(#Path_6073_1_);}
	.st89{fill:url(#Path_6074_1_);}
	.st90{fill:url(#Rectangle_22999_1_);}
	.st91{fill:url(#Rectangle_23000_1_);}
	.st92{fill:url(#Rectangle_23001_1_);}
	.st93{fill:url(#Rectangle_23002_1_);}
	.st94{fill:url(#Rectangle_23003_1_);}
	.st95{fill:url(#Rectangle_23004_1_);}
	.st96{fill:url(#Rectangle_23005_1_);}
	.st97{fill:url(#Rectangle_23006_1_);}
	.st98{fill:url(#Rectangle_23007_1_);}
	.st99{fill:url(#Rectangle_23008_1_);}
	.st100{fill:url(#Rectangle_23009_1_);}
	.st101{fill:url(#Rectangle_23010_1_);}
	.st102{fill:url(#Rectangle_23011_1_);}
	.st103{fill:url(#Rectangle_23012_1_);}
</style>
<g>
	<g id="Group_4354" transform="translate(615.049 414.945)">
		<path id="Rectangle_20454" class="st0" d="M-578.3-380.03L-578.3-380.03c0-3.13,2.54-5.68,5.68-5.68h17.03
			c3.13,0,5.68,2.54,5.68,5.68l0,0c0,3.13-2.54,5.68-5.68,5.68h-17.03C-575.76-374.36-578.3-376.9-578.3-380.03z"/>
		
			<linearGradient id="Rectangle_20455_1_" gradientUnits="userSpaceOnUse" x1="-1901.0537" y1="1378.2701" x2="-1902.5875" y2="1378.2701" gradientTransform="matrix(3.000000e-15 -41.013 -12.063 -1.000000e-15 16060.542 -78379.1641)">
			<stop  offset="0" style="stop-color:#25313F"/>
			<stop  offset="0.446" style="stop-color:#687887"/>
			<stop  offset="1" style="stop-color:#445263"/>
		</linearGradient>
		<path id="Rectangle_20455" class="st1" d="M-574.99-357.8v-45.4c0-5.22,4.24-9.46,9.46-9.46h0c5.22,0,9.46,4.23,9.46,9.46v45.4
			c0,5.22-4.24,9.46-9.46,9.46h0C-570.76-348.34-574.99-352.58-574.99-357.8z"/>
	</g>
	<g id="Group_4355" transform="translate(615.049 532.556)">
		<path id="Rectangle_20456" class="st0" d="M-393.84-497.64L-393.84-497.64c0-3.13,2.54-5.68,5.68-5.68h17.03
			c3.13,0,5.68,2.54,5.68,5.68l0,0c0,3.13-2.54,5.68-5.68,5.68h-17.03C-391.3-491.97-393.84-494.51-393.84-497.64z"/>
		
			<linearGradient id="Rectangle_20457_1_" gradientUnits="userSpaceOnUse" x1="-1901.0537" y1="1255.0319" x2="-1902.5875" y2="1255.0319" gradientTransform="matrix(3.000000e-15 -41.013 -12.063 -1.000000e-15 14761.2197 -78496.7813)">
			<stop  offset="0" style="stop-color:#25313F"/>
			<stop  offset="0.446" style="stop-color:#687887"/>
			<stop  offset="1" style="stop-color:#445263"/>
		</linearGradient>
		<path id="Rectangle_20457" class="st2" d="M-387.69-475.41v-45.4c0-5.22,4.24-9.46,9.46-9.46h0c5.22,0,9.46,4.23,9.46,9.46v45.4
			c0,5.22-4.24,9.46-9.46,9.46h0C-383.45-465.95-387.69-470.19-387.69-475.41z"/>
	</g>
	<g id="Group_4356" transform="translate(462.909 529.239)">
		<path id="Rectangle_20458" class="st0" d="M-256.9-263.77L-256.9-263.77c0-3.13,2.54-5.68,5.68-5.68h32.23
			c3.13,0,5.68,2.54,5.68,5.68l0,0c0,3.13-2.54,5.68-5.68,5.68h-32.23C-254.36-258.09-256.9-260.63-256.9-263.77z"/>
		
			<linearGradient id="Rectangle_20459_1_" gradientUnits="userSpaceOnUse" x1="-1710.5945" y1="1258.3488" x2="-1712.1283" y2="1258.3488" gradientTransform="matrix(3.000000e-15 -50.663 -12.063 -1.000000e-15 14953.374 -86965.5938)">
			<stop  offset="0" style="stop-color:#25313F"/>
			<stop  offset="0.446" style="stop-color:#687887"/>
			<stop  offset="1" style="stop-color:#445263"/>
		</linearGradient>
		<path id="Rectangle_20459" class="st3" d="M-235.55-233.5v-60.54c0-5.22,4.24-9.46,9.46-9.46h0c5.22,0,9.46,4.23,9.46,9.46v60.54
			c0,5.22-4.24,9.46-9.46,9.46h0C-231.31-224.04-235.55-228.27-235.55-233.5z"/>
	</g>
	<g id="Group_4357" transform="translate(462.909 415.246)">
		<path id="Rectangle_20460" class="st0" d="M-425.69-149.77L-425.69-149.77c0-3.13,2.54-5.68,5.68-5.68h32.23
			c3.13,0,5.68,2.54,5.68,5.68l0,0c0,3.13-2.54,5.68-5.68,5.68h-32.23C-423.15-144.1-425.69-146.64-425.69-149.77z"/>
		
			<linearGradient id="Rectangle_20461_1_" gradientUnits="userSpaceOnUse" x1="-1710.5945" y1="1377.9551" x2="-1712.1283" y2="1377.9551" gradientTransform="matrix(3.000000e-15 -50.663 -12.063 -1.000000e-15 16209.3516 -86851.5938)">
			<stop  offset="0" style="stop-color:#25313F"/>
			<stop  offset="0.446" style="stop-color:#687887"/>
			<stop  offset="1" style="stop-color:#445263"/>
		</linearGradient>
		<path id="Rectangle_20461" class="st4" d="M-422.38-119.5v-60.54c0-5.22,4.24-9.46,9.46-9.46h0c5.22,0,9.46,4.23,9.46,9.46v60.54
			c0,5.22-4.24,9.46-9.46,9.46h0C-418.14-110.05-422.38-114.28-422.38-119.5z"/>
	</g>
	
		<radialGradient id="Path_3931_1_" cx="-1121.2507" cy="1779.5554" r="0.7841" gradientTransform="matrix(1.200000e-14 -195.0246 -135.7063 -8.000000e-15 241640.9375 -218518.5)" gradientUnits="userSpaceOnUse">
		<stop  offset="0" style="stop-color:#FFE8AE"/>
		<stop  offset="0.695" style="stop-color:#FAAC1B"/>
		<stop  offset="1" style="stop-color:#F89A1C"/>
	</radialGradient>
	<path id="Path_3931" class="st5" d="M62.61,21.2v60.22c-35.67,42.47-32.72,105.22,6.77,144.17v73.7c0,3.66,2.96,6.62,6.62,6.62l0,0
		h137.17c3.66,0,6.62-2.96,6.62-6.62v-74.64c39.49-39.93,41.14-103.66,3.78-145.58V19.31C129.04-24.99,62.61,21.2,62.61,21.2z"/>
	<path id="Path_3932" class="st6" d="M250.54,149.84c-0.01,58.78-47.66,106.42-106.44,106.41c-39.59,0-75.91-21.98-94.27-57.05
		c25.18,53.11,88.65,75.76,141.77,50.58s75.77-88.65,50.59-141.76c-0.6-1.27-1.23-2.52-1.88-3.77
		C247.06,118.5,250.56,134.07,250.54,149.84z"/>
	<path id="Path_3933" class="st6" d="M230.54,132.4c6.56,49.64-28.37,95.21-78.02,101.77c-33.44,4.42-66.57-10.09-86-37.66
		c27.23,42.03,83.38,54.03,125.41,26.81c42.03-27.23,54.04-83.37,26.81-125.4c-0.63-0.97-1.28-1.93-1.94-2.87
		C224.1,106.32,228.79,119.09,230.54,132.4z"/>
	<path id="Path_3934" class="st0" d="M125.2,63.72v15.18H96.43c-6.31,0-11.43,5.12-11.43,11.43v71.72c0,6.31,5.12,11.43,11.43,11.43
		h95.38c6.31,0,11.43-5.12,11.43-11.43V90.33c0-6.31-5.12-11.43-11.43-11.43h-28.77V63.72c0-4.85-3.93-8.78-8.78-8.78h-20.27
		C129.13,54.94,125.2,58.87,125.2,63.72z"/>
	<g id="Group_4358" transform="translate(515.231 485.511)">
		<path id="Rectangle_20462" class="st7" d="M-367.81-278.92L-367.81-278.92c0-9.14,7.41-16.55,16.55-16.55h42.1
			c9.14,0,16.55,7.41,16.55,16.55l0,0c0,9.14-7.41,16.55-16.55,16.55h-42.1C-360.39-262.37-367.81-269.78-367.81-278.92z"/>
		<circle id="Ellipse_304" class="st8" cx="-308.68" cy="-278.92" r="12.77"/>
	</g>
	<path id="Path_3935" class="st6" d="M62.76,74.23v7.02c37.89-44.93,105.03-50.64,149.96-12.76c5.55,4.68,10.61,9.92,15.09,15.62
		C193.6,36.32,127.12,25.32,79.33,59.53C73.31,63.84,67.76,68.76,62.76,74.23z"/>
	
		<linearGradient id="Path_3936_1_" gradientUnits="userSpaceOnUse" x1="-1167.4465" y1="1780.8583" x2="-1169.0164" y2="1780.8959" gradientTransform="matrix(6.000000e-15 -94.7095 -60.013 -4.000000e-15 107020.6094 -110492.0234)">
		<stop  offset="0" style="stop-color:#BBBBBB"/>
		<stop  offset="0.29" style="stop-color:#F3F4F5"/>
		<stop  offset="0.647" style="stop-color:#F4F5F5"/>
		<stop  offset="1" style="stop-color:#959595"/>
	</linearGradient>
	<path id="Path_3936" class="st9" d="M135.29,223.14h-25.65c0,0-12.35,0-11.4-11.35l-0.95-52.97c0,0,0.95-14.19,2.85-25.54
		l8.55-43.51c0,0,4.75-14.19,12.35-15.13h41.81c0,0,11.4-0.94,14.25,8.51l10.45,45.4c1.8,7.11,2.76,14.42,2.85,21.76l0.95,53.92
		c0,0,1.9,17.97-15.2,18.92L135.29,223.14z"/>
	
		<radialGradient id="Ellipse_305_1_" cx="-1234.5944" cy="1781.1095" r="0.756" gradientTransform="matrix(3.000000e-15 -54.8807 -54.886 -3.000000e-15 97902.0938 -67588.5)" gradientUnits="userSpaceOnUse">
		<stop  offset="0" style="stop-color:#25313F"/>
		<stop  offset="0.583" style="stop-color:#212A34"/>
		<stop  offset="1" style="stop-color:#6F8090"/>
	</radialGradient>
	<ellipse id="Ellipse_305" class="st10" cx="144.12" cy="166.86" rx="43.04" ry="43.04"/>
	<g id="Group_4384" transform="translate(532.421 465.382)">
		<ellipse id="Ellipse_306" class="st11" cx="-388.19" cy="-298.05" rx="28.38" ry="28.38"/>
		<circle id="Ellipse_307" class="st12" cx="-388.19" cy="-298.05" r="13.72"/>
		<path id="Path_3937" class="st13" d="M-361.73-300.28c0,15.67-12.7,28.38-28.38,28.38c-8.91,0-17.31-4.19-22.67-11.3
			c7.94,13.51,25.32,18.04,38.84,10.1c13.52-7.93,18.04-25.32,10.1-38.84c-0.55-0.94-1.15-1.84-1.81-2.71
			C-363.07-310.29-361.72-305.33-361.73-300.28z"/>
		<g id="Group_4383" transform="translate(2.413 1.583)" class="st14">
			<g id="Group_4359" transform="translate(15.078)">
				<rect id="Rectangle_20463" x="-431.58" y="-300.1" class="st15" width="7.57" height="1.89"/>
			</g>
			<g id="Group_4370" transform="translate(0 0.391)">
				<g id="Group_4364" transform="translate(18.736 0)">
					<g id="Group_4360" transform="translate(0 0)">
						
							<rect id="Rectangle_20464" x="-431.45" y="-310.68" transform="matrix(0.3511 -0.9363 0.9363 0.3511 7.7648 -602.0789)" class="st15" width="1.89" height="8.08"/>
					</g>
					<g id="Group_4361" transform="translate(3.72 2.841)">
						
							<rect id="Rectangle_20465" x="-431.39" y="-319.8" transform="matrix(0.64 -0.7684 0.7684 0.64 87.9207 -444.5687)" class="st15" width="1.89" height="7.39"/>
					</g>
					<g id="Group_4362" transform="translate(6.297 7.529)">
						
							<rect id="Rectangle_20466" x="-427.34" y="-329.34" transform="matrix(0.8682 -0.4962 0.4962 0.8682 105.3272 -254.4642)" class="st15" width="1.89" height="7.63"/>
					</g>
					<g id="Group_4363" transform="translate(7.802 12.878)">
						<rect id="Rectangle_20467" x="-422.22" y="-337.02" class="st15" width="1.89" height="7.57"/>
					</g>
				</g>
				<g id="Group_4369" transform="translate(0 0)">
					<g id="Group_4365" transform="translate(9.688 0)">
						
							<rect id="Rectangle_20468" x="-425.5" y="-293.4" transform="matrix(0.9363 -0.3512 0.3512 0.9363 75.8565 -166.619)" class="st15" width="8.08" height="1.89"/>
					</g>
					<g id="Group_4366" transform="translate(4.965 2.841)">
						
							<rect id="Rectangle_20469" x="-416.64" y="-289.62" transform="matrix(0.7682 -0.6402 0.6402 0.7682 89.0894 -331.3006)" class="st15" width="7.39" height="1.89"/>
					</g>
					<g id="Group_4367" transform="translate(1.51 7.529)">
						
							<rect id="Rectangle_20470" x="-406.69" y="-289.58" transform="matrix(0.4961 -0.8683 0.8683 0.4961 47.6028 -495.2394)" class="st15" width="7.63" height="1.89"/>
					</g>
					<g id="Group_4368" transform="translate(0 12.878)">
						<rect id="Rectangle_20471" x="-395.69" y="-295.4" class="st15" width="1.89" height="7.57"/>
					</g>
				</g>
			</g>
			<g id="Group_4381" transform="translate(0 18.094)">
				<g id="Group_4375" transform="translate(18.735)">
					<g id="Group_4371" transform="translate(0 8.835)">
						
							<rect id="Rectangle_20472" x="-392.92" y="-334.13" transform="matrix(0.9363 -0.3512 0.3512 0.9363 92.2323 -157.7735)" class="st15" width="8.08" height="1.89"/>
					</g>
					<g id="Group_4372" transform="translate(3.72 6.851)">
						
							<rect id="Rectangle_20473" x="-400.08" y="-338.76" transform="matrix(0.7682 -0.6402 0.6402 0.7682 124.3921 -332.0858)" class="st15" width="7.39" height="1.89"/>
					</g>
					<g id="Group_4373" transform="translate(6.297 3.095)">
						
							<rect id="Rectangle_20474" x="-409.4" y="-339.74" transform="matrix(0.4961 -0.8683 0.8683 0.4961 89.7876 -522.8672)" class="st15" width="7.63" height="1.89"/>
					</g>
					<g id="Group_4374" transform="translate(7.803)">
						<rect id="Rectangle_20475" x="-414.66" y="-341.84" class="st15" width="1.89" height="7.57"/>
					</g>
				</g>
				<g id="Group_4380">
					<g id="Group_4376" transform="translate(9.688 8.835)">
						
							<rect id="Rectangle_20476" x="-380.78" y="-323.03" transform="matrix(0.3514 -0.9362 0.9362 0.3514 52.294 -562.4991)" class="st15" width="1.89" height="8.08"/>
					</g>
					<g id="Group_4377" transform="translate(4.964 6.851)">
						
							<rect id="Rectangle_20477" x="-379.84" y="-314.08" transform="matrix(0.6401 -0.7683 0.7683 0.6401 102.108 -402.7784)" class="st15" width="1.89" height="7.39"/>
					</g>
					<g id="Group_4378" transform="translate(1.51 3.095)">
						
							<rect id="Rectangle_20478" x="-383.01" y="-305.71" transform="matrix(0.8682 -0.4962 0.4962 0.8682 99.449 -229.3535)" class="st15" width="1.89" height="7.63"/>
					</g>
					<g id="Group_4379">
						<rect id="Rectangle_20479" x="-388.12" y="-300.22" class="st15" width="1.89" height="7.57"/>
					</g>
				</g>
			</g>
			<g id="Group_4382" transform="translate(15.078 28.347)">
				<rect id="Rectangle_20480" x="-387.11" y="-328.45" class="st15" width="7.57" height="1.89"/>
			</g>
		</g>
	</g>
	<g id="Union_18">
		
			<linearGradient id="SVGID_1_" gradientUnits="userSpaceOnUse" x1="-1120.2437" y1="1780.4642" x2="-1120.2437" y2="1778.4598" gradientTransform="matrix(1.200000e-14 -200.8525 -146.4883 -9.000000e-15 260817.75 -224632.9219)">
			<stop  offset="0" style="stop-color:#BBBBBB"/>
			<stop  offset="0.29" style="stop-color:#F3F4F5"/>
			<stop  offset="0.647" style="stop-color:#F4F5F5"/>
			<stop  offset="1" style="stop-color:#959595"/>
		</linearGradient>
		<path class="st16" d="M21.73,513.75c-9.95,0-16.45-2.07-19.33-6.15c-3.23-4.58-1.46-11.08,0.14-15.58
			c59.17-191.15,59.18-191.38,59.18-191.47l0.67-70.6c0.01-1.15,0.96-2.08,2.11-2.08c1.16,0,2.11,0.94,2.11,2.09
			c0.08,24.7,0.21,71.52,0.16,73.09L47.1,382.57c-0.29,3.42,0.46,6.09,2.24,8.02c2.83,3.07,7.39,3.23,8.27,3.23l180.79-0.55
			c4.54-0.39,7.81-2.02,9.52-4.72c1.52-2.41,1.72-5.6,0.55-8.75l-26.63-76.55l0.65-69.88c0-0.79,0.65-1.43,1.44-1.43
			c0.84,0.04,1.46,0.69,1.44,1.46l0.03,40.9l1.37,28.55l69.27,174.05c0.08,0.42,0.32,1.11,0.64,2.06
			c1.72,5.05,5.75,16.89-0.19,25.38c-4.24,6.06-12.82,9.27-25.51,9.54h0L21.73,513.75z M19.85,475.66
			c-0.17,0.46-4.18,11.88,1.04,19.72c2.83,4.25,7.82,6.59,14.85,6.95l233.67,1.93c1.23,0,12.14-0.21,16.95-7.31
			c3.12-4.61,3.05-11.08-0.21-19.22l-32.72-85.23l-0.32,1.74c-0.93,5.02-7.96,5.62-8.03,5.63l-189.89,0.85
			c-5.96-0.48-9.36-2.16-10.35-5.13l-0.5-1.5L19.85,475.66z"/>
		<path class="st17" d="M64.51,228.36c0.89,0,1.61,0.72,1.61,1.59c0.08,24.43,0.21,70.63,0.16,73.01l-19.67,79.49l-0.02,0.08
			l-0.01,0.08c-0.29,3.49,0.51,6.29,2.38,8.32c2.89,3.15,7.35,3.39,8.64,3.39c0.12,0,0.19,0,0.2,0l180.59-0.55l0.04,0l0.04,0
			c5.88-0.51,8.61-2.97,9.86-4.95c1.61-2.54,1.83-5.89,0.61-9.17l-26.61-76.48l0.64-69.79c0-0.51,0.42-0.93,0.98-0.93c0,0,0,0,0,0
			c0.51,0.02,0.91,0.45,0.9,0.98l0.03,40.94l1.36,28.44l0.01,0.17l0.06,0.16l69.22,173.94c0.1,0.45,0.32,1.11,0.65,2.07
			c1.7,4.98,5.67,16.65-0.13,24.93c-4.14,5.92-12.59,9.06-25.09,9.33l-248.99-0.14l-0.25,0c-9.77,0-16.14-2-18.92-5.94
			c-3.09-4.39-1.37-10.73,0.22-15.16c59.18-191.2,59.19-191.4,59.2-191.61l0.67-70.59C62.91,229.07,63.63,228.36,64.51,228.36
			 M245.07,399.37l-189.84,0.86c-8.55-0.7-9.58-3.78-9.92-4.79l-1-3l-0.91,3.02L19.38,475.5c-0.28,0.79-4.19,12.22,1.1,20.17
			c2.92,4.39,8.04,6.8,15.28,7.17l233.46,1.93l0.19,0c2.05,0,12.52-0.36,17.37-7.53c3.22-4.76,3.17-11.38-0.15-19.67l-32.09-83.58
			l-1.27-3.31l-0.65,3.49C251.79,398.64,245.55,399.33,245.07,399.37 M64.51,227.36c-1.43,0-2.6,1.15-2.61,2.58l-0.67,70.59
			c-0.01,0.25-59.15,191.32-59.15,191.32c-3.6,10.08-4.89,22.4,19.66,22.4c0.08,0,0.17,0,0.25,0l248.99,0.14
			c42.46-0.91,26.17-34.03,25.54-37.61l-69.25-174.02l-1.36-28.44l-0.03-40.89c0.02-1.05-0.8-1.93-1.86-1.97c-0.03,0-0.06,0-0.09,0
			c-1.06,0-1.93,0.86-1.94,1.92l-0.65,69.96L248,379.98c1.95,5.24,0.33,11.93-9.6,12.79l-180.6,0.55c0,0-0.07,0-0.19,0
			c-1.46,0-10.88-0.39-10.03-10.63l19.69-79.58c0.08-0.24-0.16-73.16-0.16-73.16C67.12,228.52,65.95,227.36,64.51,227.36
			L64.51,227.36z M55.19,401.23l189.93-0.86c0,0,7.47-0.57,8.49-6.04l32.09,83.58c10.11,25.27-14.05,25.85-16.28,25.85
			c-0.11,0-0.16,0-0.16,0l-233.48-1.93c-24.34-1.26-15.43-26.03-15.43-26.03l24.03-80.05C45.17,398.19,47.6,400.62,55.19,401.23
			L55.19,401.23z"/>
	</g>
	
		<linearGradient id="Union_17_1_" gradientUnits="userSpaceOnUse" x1="-1121.4055" y1="1781.7341" x2="-1121.4055" y2="1780.3184" gradientTransform="matrix(1.200000e-14 -195.5488 -60.8604 -4.000000e-15 108484.0469 -218941.1719)">
		<stop  offset="0" style="stop-color:#BBBBBB"/>
		<stop  offset="0.29" style="stop-color:#F3F4F5"/>
		<stop  offset="0.647" style="stop-color:#F4F5F5"/>
		<stop  offset="1" style="stop-color:#959595"/>
	</linearGradient>
	<path id="Union_17" class="st18" d="M102.67,272.32c0,0-0.51,5.27-0.52,5.41c-1.13,20.63-17.71,52.92-18.45,54.3l-28.83,68.42
		c-16.07,44.83,5.76,102.18,5.87,102.54h-2.72c-0.11-0.36-21.03-57.76-4.76-103.16l28.88-68.54c0.21-0.41,16.97-33.75,18.03-53.94
		c0.06-1.22,0.26-2.52,0.44-4.85l0.82-27.49c-2.42-0.29-4.05-2.75-3.18-5.19c0.48-1.35,1.74-2.35,3.17-2.5
		c2.59-0.28,4.61,1.89,4.32,4.31c-0.17,1.47-1.17,2.71-2.57,3.2l-0.43,15.81c3.48-18.23,15.51-55.97,29.88-66.89l2.2,1
		C116.29,207.07,104.51,259.21,102.67,272.32z"/>
</g>
</svg>
