<?xml version="1.0" encoding="utf-8"?>
<!-- Generator: Adobe Illustrator 24.2.3, SVG Export Plug-In . SVG Version: 6.00 Build 0)  -->
<svg version="1.1" id="Layer_1" xmlns="http://www.w3.org/2000/svg" xmlns:xlink="http://www.w3.org/1999/xlink" x="0px" y="0px"
	 viewBox="0 0 300 112.5" style="enable-background:new 0 0 300 112.5;" xml:space="preserve">
<style type="text/css">
	.st0{fill:#575758;}
	.st1{fill:url(#Path_3927_1_);}
	.st2{fill:url(#Path_3928_1_);}
	.st3{fill:url(#Path_3929_1_);}
	.st4{fill:#A1A0A0;}
	.st5{fill:url(#Rectangle_20450_1_);}
	.st6{fill:url(#Rectangle_20451_1_);}
	.st7{fill:url(#Rectangle_20452_1_);}
	.st8{fill:url(#Path_3927_2_);}
	.st9{fill:url(#Path_3928_2_);}
	.st10{fill:url(#Path_3929_2_);}
	.st11{fill:url(#Path_3930_1_);}
	.st12{fill:url(#Rectangle_20450_2_);}
	.st13{fill:url(#Rectangle_20451_2_);}
	.st14{fill:url(#Rectangle_20452_2_);}
	.st15{fill:url(#Rectangle_20453_1_);}
	.st16{fill:url(#Path_3927_3_);}
	.st17{fill:url(#Path_3928_3_);}
	.st18{fill:url(#Path_3929_3_);}
	.st19{fill:url(#Path_3930_2_);}
	.st20{fill:url(#Rectangle_20450_3_);}
	.st21{fill:url(#Rectangle_20451_3_);}
	.st22{fill:url(#Rectangle_20452_3_);}
	.st23{fill:url(#Rectangle_20453_2_);}
	.st24{fill:url(#Path_3927_4_);}
	.st25{fill:url(#Path_3928_4_);}
	.st26{fill:url(#Path_3929_4_);}
	.st27{fill:url(#Path_3930_3_);}
	.st28{fill:url(#Rectangle_20450_4_);}
	.st29{fill:url(#Rectangle_20451_4_);}
	.st30{fill:url(#Rectangle_20452_4_);}
	.st31{fill:url(#Rectangle_20453_3_);}
	.st32{fill:url(#Path_3926_2_);}
	.st33{fill:#40536B;}
	.st34{fill:url(#Rectangle_20448_2_);}
	.st35{fill:url(#Path_3927_10_);}
	.st36{fill:url(#Path_3928_10_);}
	.st37{fill:url(#Path_3929_10_);}
	.st38{fill:url(#Path_3930_8_);}
	.st39{fill:url(#Rectangle_20450_10_);}
	.st40{fill:url(#Rectangle_20451_10_);}
	.st41{fill:url(#Rectangle_20452_10_);}
	.st42{fill:url(#Rectangle_20453_8_);}
	.st43{fill:url(#Rectangle_20449_2_);}
	.st44{fill:#FFFFFF;}
	.st45{fill:#707071;}
</style>
<g>
	<g id="Rectangle_20521_1_" transform="translate(1255 919)">
		<polygon class="st0" points="-1244.6,-918.6 -955.5,-918.6 -955.3,-806.7 -1244.6,-806.6 		"/>
	</g>
	<g id="Group_4353_1_" transform="translate(124.215 -63)">
		<g>
			
				<linearGradient id="Path_3927_1_" gradientUnits="userSpaceOnUse" x1="-3293.5173" y1="334.7184" x2="-3293.4993" y2="334.1098" gradientTransform="matrix(10.509 0 0 -13.136 34746.8945 4514.5063)">
				<stop  offset="0" style="stop-color:#888888"/>
				<stop  offset="1" style="stop-color:#545554"/>
			</linearGradient>
			<path id="Path_3927_9_" class="st1" d="M130.9,127v-11.3c0,0,3.4,1.5,4.6,1.5c1.2,0,4.6-1.5,4.6-1.5V127c0,0-3.6-1.5-4.8-1.5
				C134.2,125.5,130.9,127,130.9,127z"/>
			
				<linearGradient id="Path_3928_1_" gradientUnits="userSpaceOnUse" x1="-3293.8032" y1="334.7184" x2="-3293.7852" y2="334.1098" gradientTransform="matrix(10.509 0 0 -13.136 34763.8945 4514.5063)">
				<stop  offset="0" style="stop-color:#888888"/>
				<stop  offset="1" style="stop-color:#545554"/>
			</linearGradient>
			<path id="Path_3928_9_" class="st2" d="M144.9,127v-11.3c0,0,3.4,1.5,4.6,1.5c1.2,0,4.6-1.5,4.6-1.5V127c0,0-3.6-1.5-4.8-1.5
				C148.2,125.5,144.9,127,144.9,127z"/>
			
				<linearGradient id="Path_3929_1_" gradientUnits="userSpaceOnUse" x1="-3293.8918" y1="334.7184" x2="-3293.8738" y2="334.1098" gradientTransform="matrix(10.509 0 0 -13.136 34777.8945 4514.5063)">
				<stop  offset="0" style="stop-color:#888888"/>
				<stop  offset="1" style="stop-color:#545554"/>
			</linearGradient>
			<path id="Path_3929_9_" class="st3" d="M158,127v-11.3c0,0,3.4,1.5,4.6,1.5c1.2,0,4.6-1.5,4.6-1.5V127c0,0-3.6-1.5-4.8-1.5
				C161.2,125.5,158,127,158,127z"/>
			<path id="Path_3922_9_" class="st4" d="M140,64.9L138,86.5v73.6l2.1,13.8V64.9z"/>
			<path id="Path_3923_9_" class="st4" d="M154,64.9l-2.1,21.6v73.6l2.1,13.8V64.9z"/>
			<path id="Path_3924_9_" class="st4" d="M168,64.9l-2.1,21.6v73.6l2.1,13.8V64.9z"/>
			
				<linearGradient id="Rectangle_20450_1_" gradientUnits="userSpaceOnUse" x1="-3040.2734" y1="350.2025" x2="-3040.2734" y2="349.3583" gradientTransform="matrix(6 0 0 -130 18384.2891 45590)">
				<stop  offset="0" style="stop-color:#BCBCBC"/>
				<stop  offset="0.29" style="stop-color:#F4F4F5"/>
				<stop  offset="0.647" style="stop-color:#F5F5F5"/>
				<stop  offset="1" style="stop-color:#969696"/>
			</linearGradient>
			<path id="Rectangle_20450_9_" class="st5" d="M140.9,63.7h3.5c0.5,0,0.9,0.4,0.9,0.9v110c0,0.5-0.4,0.9-0.9,0.9h-3.5
				c-0.5,0-0.9-0.4-0.9-0.9v-110C140,64.1,140.4,63.7,140.9,63.7z"/>
			
				<linearGradient id="Rectangle_20451_1_" gradientUnits="userSpaceOnUse" x1="-3040.6121" y1="350.2025" x2="-3040.6121" y2="349.3583" gradientTransform="matrix(6 0 0 -130 18400.2891 45590)">
				<stop  offset="0" style="stop-color:#BCBCBC"/>
				<stop  offset="0.29" style="stop-color:#F4F4F5"/>
				<stop  offset="0.647" style="stop-color:#F5F5F5"/>
				<stop  offset="1" style="stop-color:#969696"/>
			</linearGradient>
			<path id="Rectangle_20451_9_" class="st6" d="M154.9,63.7h3.5c0.5,0,0.9,0.4,0.9,0.9v110c0,0.5-0.4,0.9-0.9,0.9h-3.5
				c-0.5,0-0.9-0.4-0.9-0.9v-110C154,64.1,154.4,63.7,154.9,63.7z"/>
			
				<linearGradient id="Rectangle_20452_1_" gradientUnits="userSpaceOnUse" x1="-3040.9507" y1="350.2025" x2="-3040.9507" y2="349.3583" gradientTransform="matrix(6 0 0 -130 18416.2891 45590)">
				<stop  offset="0" style="stop-color:#BCBCBC"/>
				<stop  offset="0.29" style="stop-color:#F4F4F5"/>
				<stop  offset="0.647" style="stop-color:#F5F5F5"/>
				<stop  offset="1" style="stop-color:#969696"/>
			</linearGradient>
			<path id="Rectangle_20452_9_" class="st7" d="M168.8,63.7h3.5c0.5,0,0.9,0.4,0.9,0.9v110c0,0.5-0.4,0.9-0.9,0.9h-3.5
				c-0.5,0-0.9-0.4-0.9-0.9v-110C168,64.1,168.4,63.7,168.8,63.7z"/>
		</g>
		<g>
			
				<linearGradient id="Path_3927_2_" gradientUnits="userSpaceOnUse" x1="-3298.802" y1="334.7184" x2="-3298.7839" y2="334.1098" gradientTransform="matrix(10.509 0 0 -13.136 34746.8945 4514.5063)">
				<stop  offset="0" style="stop-color:#888888"/>
				<stop  offset="1" style="stop-color:#545554"/>
			</linearGradient>
			<path id="Path_3927_8_" class="st8" d="M75.4,127v-11.3c0,0,3.4,1.5,4.6,1.5c1.2,0,4.6-1.5,4.6-1.5V127c0,0-3.6-1.5-4.8-1.5
				C78.6,125.5,75.4,127,75.4,127z"/>
			
				<linearGradient id="Path_3928_2_" gradientUnits="userSpaceOnUse" x1="-3299.0854" y1="334.7184" x2="-3299.0674" y2="334.1098" gradientTransform="matrix(10.509 0 0 -13.136 34763.8945 4514.5063)">
				<stop  offset="0" style="stop-color:#888888"/>
				<stop  offset="1" style="stop-color:#545554"/>
			</linearGradient>
			<path id="Path_3928_8_" class="st9" d="M89.4,127v-11.3c0,0,3.4,1.5,4.6,1.5c1.2,0,4.6-1.5,4.6-1.5V127c0,0-3.6-1.5-4.8-1.5
				C92.7,125.5,89.4,127,89.4,127z"/>
			
				<linearGradient id="Path_3929_2_" gradientUnits="userSpaceOnUse" x1="-3299.1765" y1="334.7184" x2="-3299.1584" y2="334.1098" gradientTransform="matrix(10.509 0 0 -13.136 34777.8945 4514.5063)">
				<stop  offset="0" style="stop-color:#888888"/>
				<stop  offset="1" style="stop-color:#545554"/>
			</linearGradient>
			<path id="Path_3929_8_" class="st10" d="M102.4,127v-11.3c0,0,3.4,1.5,4.6,1.5c1.2,0,4.6-1.5,4.6-1.5V127c0,0-3.6-1.5-4.8-1.5
				C105.7,125.5,102.4,127,102.4,127z"/>
			
				<linearGradient id="Path_3930_1_" gradientUnits="userSpaceOnUse" x1="-3299.3821" y1="334.7184" x2="-3299.3638" y2="334.1098" gradientTransform="matrix(10.509 0 0 -13.136 34794.8945 4514.5063)">
				<stop  offset="0" style="stop-color:#888888"/>
				<stop  offset="1" style="stop-color:#545554"/>
			</linearGradient>
			<path id="Path_3930_7_" class="st11" d="M117.3,127v-11.3c0,0,3.4,1.5,4.6,1.5c1.2,0,4.6-1.5,4.6-1.5V127c0,0-3.6-1.5-4.8-1.5
				C120.6,125.5,117.3,127,117.3,127z"/>
			<path id="Path_3922_8_" class="st4" d="M84.5,64.9l-2.1,21.6v73.6l2.1,13.8V64.9z"/>
			<path id="Path_3923_8_" class="st4" d="M98.5,64.9l-2.1,21.6v73.6l2.1,13.8V64.9z"/>
			<path id="Path_3924_8_" class="st4" d="M112.4,64.9l-2.1,21.6v73.6l2.1,13.8V64.9z"/>
			<path id="Path_3925_7_" class="st4" d="M126.4,64.9l-2.1,21.6v73.6l2.1,13.8V64.9z"/>
			
				<linearGradient id="Rectangle_20450_2_" gradientUnits="userSpaceOnUse" x1="-3049.5298" y1="350.2025" x2="-3049.5298" y2="349.3583" gradientTransform="matrix(6 0 0 -130 18384.2891 45590)">
				<stop  offset="0" style="stop-color:#BCBCBC"/>
				<stop  offset="0.29" style="stop-color:#F4F4F5"/>
				<stop  offset="0.647" style="stop-color:#F5F5F5"/>
				<stop  offset="1" style="stop-color:#969696"/>
			</linearGradient>
			<path id="Rectangle_20450_8_" class="st12" d="M85.4,63.7h3.5c0.5,0,0.9,0.4,0.9,0.9v110c0,0.5-0.4,0.9-0.9,0.9h-3.5
				c-0.5,0-0.9-0.4-0.9-0.9v-110C84.5,64.1,84.9,63.7,85.4,63.7z"/>
			
				<linearGradient id="Rectangle_20451_2_" gradientUnits="userSpaceOnUse" x1="-3049.8684" y1="350.2025" x2="-3049.8684" y2="349.3583" gradientTransform="matrix(6 0 0 -130 18400.2891 45590)">
				<stop  offset="0" style="stop-color:#BCBCBC"/>
				<stop  offset="0.29" style="stop-color:#F4F4F5"/>
				<stop  offset="0.647" style="stop-color:#F5F5F5"/>
				<stop  offset="1" style="stop-color:#969696"/>
			</linearGradient>
			<path id="Rectangle_20451_8_" class="st13" d="M99.3,63.7h3.5c0.5,0,0.9,0.4,0.9,0.9v110c0,0.5-0.4,0.9-0.9,0.9h-3.5
				c-0.5,0-0.9-0.4-0.9-0.9v-110C98.5,64.1,98.9,63.7,99.3,63.7z"/>
			
				<linearGradient id="Rectangle_20452_2_" gradientUnits="userSpaceOnUse" x1="-3050.2068" y1="350.2025" x2="-3050.2068" y2="349.3583" gradientTransform="matrix(6 0 0 -130 18416.2891 45590)">
				<stop  offset="0" style="stop-color:#BCBCBC"/>
				<stop  offset="0.29" style="stop-color:#F4F4F5"/>
				<stop  offset="0.647" style="stop-color:#F5F5F5"/>
				<stop  offset="1" style="stop-color:#969696"/>
			</linearGradient>
			<path id="Rectangle_20452_8_" class="st14" d="M113.3,63.7h3.5c0.5,0,0.9,0.4,0.9,0.9v110c0,0.5-0.4,0.9-0.9,0.9h-3.5
				c-0.5,0-0.9-0.4-0.9-0.9v-110C112.4,64.1,112.8,63.7,113.3,63.7z"/>
			
				<linearGradient id="Rectangle_20453_1_" gradientUnits="userSpaceOnUse" x1="-3050.5454" y1="350.2025" x2="-3050.5454" y2="349.3583" gradientTransform="matrix(6 0 0 -130 18432.2891 45590)">
				<stop  offset="0" style="stop-color:#BCBCBC"/>
				<stop  offset="0.29" style="stop-color:#F4F4F5"/>
				<stop  offset="0.647" style="stop-color:#F5F5F5"/>
				<stop  offset="1" style="stop-color:#969696"/>
			</linearGradient>
			<path id="Rectangle_20453_7_" class="st15" d="M127.3,63.7h3.5c0.5,0,0.9,0.4,0.9,0.9v110c0,0.5-0.4,0.9-0.9,0.9h-3.5
				c-0.5,0-0.9-0.4-0.9-0.9v-110C126.4,64.1,126.8,63.7,127.3,63.7z"/>
		</g>
		<g>
			
				<linearGradient id="Path_3927_3_" gradientUnits="userSpaceOnUse" x1="-3304.0869" y1="334.7184" x2="-3304.0688" y2="334.1098" gradientTransform="matrix(10.509 0 0 -13.136 34746.8945 4514.5063)">
				<stop  offset="0" style="stop-color:#888888"/>
				<stop  offset="1" style="stop-color:#545554"/>
			</linearGradient>
			<path id="Path_3927_7_" class="st16" d="M19.8,127v-11.3c0,0,3.4,1.5,4.6,1.5c1.2,0,4.6-1.5,4.6-1.5V127c0,0-3.6-1.5-4.8-1.5
				C23.1,125.5,19.8,127,19.8,127z"/>
			
				<linearGradient id="Path_3928_3_" gradientUnits="userSpaceOnUse" x1="-3304.3564" y1="334.7184" x2="-3304.3384" y2="334.1098" gradientTransform="matrix(10.509 0 0 -13.136 34763.8945 4514.5063)">
				<stop  offset="0" style="stop-color:#888888"/>
				<stop  offset="1" style="stop-color:#545554"/>
			</linearGradient>
			<path id="Path_3928_7_" class="st17" d="M34,127v-11.3c0,0,3.4,1.5,4.6,1.5c1.2,0,4.6-1.5,4.6-1.5V127c0,0-3.6-1.5-4.8-1.5
				C37.3,125.5,34,127,34,127z"/>
			
				<linearGradient id="Path_3929_3_" gradientUnits="userSpaceOnUse" x1="-3304.4614" y1="334.7184" x2="-3304.4434" y2="334.1098" gradientTransform="matrix(10.509 0 0 -13.136 34777.8945 4514.5063)">
				<stop  offset="0" style="stop-color:#888888"/>
				<stop  offset="1" style="stop-color:#545554"/>
			</linearGradient>
			<path id="Path_3929_7_" class="st18" d="M46.9,127v-11.3c0,0,3.4,1.5,4.6,1.5c1.2,0,4.6-1.5,4.6-1.5V127c0,0-3.6-1.5-4.8-1.5
				C50.2,125.5,46.9,127,46.9,127z"/>
			
				<linearGradient id="Path_3930_2_" gradientUnits="userSpaceOnUse" x1="-3304.6667" y1="334.7184" x2="-3304.6487" y2="334.1098" gradientTransform="matrix(10.509 0 0 -13.136 34794.8945 4514.5063)">
				<stop  offset="0" style="stop-color:#888888"/>
				<stop  offset="1" style="stop-color:#545554"/>
			</linearGradient>
			<path id="Path_3930_6_" class="st19" d="M61.7,127v-11.3c0,0,3.4,1.5,4.6,1.5c1.2,0,4.6-1.5,4.6-1.5V127c0,0-3.6-1.5-4.8-1.5
				C65,125.5,61.7,127,61.7,127z"/>
			<path id="Path_3922_7_" class="st4" d="M29,64.9l-2.1,21.6v73.6l2.1,13.8V64.9z"/>
			<path id="Path_3923_7_" class="st4" d="M42.9,64.9l-2.1,21.6v73.6l2.1,13.8V64.9z"/>
			<path id="Path_3924_7_" class="st4" d="M56.9,64.9l-2.1,21.6v73.6l2.1,13.8V64.9z"/>
			<path id="Path_3925_6_" class="st4" d="M70.9,64.9l-2.1,21.6v73.6l2.1,13.8V64.9z"/>
			
				<linearGradient id="Rectangle_20450_3_" gradientUnits="userSpaceOnUse" x1="-3058.7861" y1="350.2025" x2="-3058.7861" y2="349.3583" gradientTransform="matrix(6 0 0 -130 18384.2891 45590)">
				<stop  offset="0" style="stop-color:#BCBCBC"/>
				<stop  offset="0.29" style="stop-color:#F4F4F5"/>
				<stop  offset="0.647" style="stop-color:#F5F5F5"/>
				<stop  offset="1" style="stop-color:#969696"/>
			</linearGradient>
			<path id="Rectangle_20450_7_" class="st20" d="M29.8,63.7h3.5c0.5,0,0.9,0.4,0.9,0.9v110c0,0.5-0.4,0.9-0.9,0.9h-3.5
				c-0.5,0-0.9-0.4-0.9-0.9v-110C29,64.1,29.3,63.7,29.8,63.7z"/>
			
				<linearGradient id="Rectangle_20451_3_" gradientUnits="userSpaceOnUse" x1="-3059.1248" y1="350.2025" x2="-3059.1248" y2="349.3583" gradientTransform="matrix(6 0 0 -130 18400.2891 45590)">
				<stop  offset="0" style="stop-color:#BCBCBC"/>
				<stop  offset="0.29" style="stop-color:#F4F4F5"/>
				<stop  offset="0.647" style="stop-color:#F5F5F5"/>
				<stop  offset="1" style="stop-color:#969696"/>
			</linearGradient>
			<path id="Rectangle_20451_7_" class="st21" d="M43.8,63.7h3.5c0.5,0,0.9,0.4,0.9,0.9v110c0,0.5-0.4,0.9-0.9,0.9h-3.5
				c-0.5,0-0.9-0.4-0.9-0.9v-110C42.9,64.1,43.3,63.7,43.8,63.7z"/>
			
				<linearGradient id="Rectangle_20452_3_" gradientUnits="userSpaceOnUse" x1="-3059.4631" y1="350.2025" x2="-3059.4631" y2="349.3583" gradientTransform="matrix(6 0 0 -130 18416.2891 45590)">
				<stop  offset="0" style="stop-color:#BCBCBC"/>
				<stop  offset="0.29" style="stop-color:#F4F4F5"/>
				<stop  offset="0.647" style="stop-color:#F5F5F5"/>
				<stop  offset="1" style="stop-color:#969696"/>
			</linearGradient>
			<path id="Rectangle_20452_7_" class="st22" d="M57.8,63.7h3.5c0.5,0,0.9,0.4,0.9,0.9v110c0,0.5-0.4,0.9-0.9,0.9h-3.5
				c-0.5,0-0.9-0.4-0.9-0.9v-110C56.9,64.1,57.3,63.7,57.8,63.7z"/>
			
				<linearGradient id="Rectangle_20453_2_" gradientUnits="userSpaceOnUse" x1="-3059.8018" y1="350.2025" x2="-3059.8018" y2="349.3583" gradientTransform="matrix(6 0 0 -130 18432.2891 45590)">
				<stop  offset="0" style="stop-color:#BCBCBC"/>
				<stop  offset="0.29" style="stop-color:#F4F4F5"/>
				<stop  offset="0.647" style="stop-color:#F5F5F5"/>
				<stop  offset="1" style="stop-color:#969696"/>
			</linearGradient>
			<path id="Rectangle_20453_6_" class="st23" d="M71.7,63.7h3.5c0.5,0,0.9,0.4,0.9,0.9v110c0,0.5-0.4,0.9-0.9,0.9h-3.5
				c-0.5,0-0.9-0.4-0.9-0.9v-110C70.9,64.1,71.3,63.7,71.7,63.7z"/>
		</g>
		<g>
			
				<linearGradient id="Path_3927_4_" gradientUnits="userSpaceOnUse" x1="-3309.3489" y1="334.7184" x2="-3309.3306" y2="334.1098" gradientTransform="matrix(10.509 0 0 -13.136 34746.8945 4514.5063)">
				<stop  offset="0" style="stop-color:#888888"/>
				<stop  offset="1" style="stop-color:#545554"/>
			</linearGradient>
			<path id="Path_3927_6_" class="st24" d="M-35.5,127v-11.3c0,0,3.4,1.5,4.6,1.5c1.2,0,4.6-1.5,4.6-1.5V127c0,0-3.6-1.5-4.8-1.5
				C-32.2,125.5-35.5,127-35.5,127z"/>
			
				<linearGradient id="Path_3928_4_" gradientUnits="userSpaceOnUse" x1="-3309.6458" y1="334.7184" x2="-3309.6277" y2="334.1098" gradientTransform="matrix(10.509 0 0 -13.136 34763.8945 4514.5063)">
				<stop  offset="0" style="stop-color:#888888"/>
				<stop  offset="1" style="stop-color:#545554"/>
			</linearGradient>
			<path id="Path_3928_6_" class="st25" d="M-21.6,127v-11.3c0,0,3.4,1.5,4.6,1.5c1.2,0,4.6-1.5,4.6-1.5V127c0,0-3.6-1.5-4.8-1.5
				C-18.3,125.5-21.6,127-21.6,127z"/>
			
				<linearGradient id="Path_3929_4_" gradientUnits="userSpaceOnUse" x1="-3309.7461" y1="334.7184" x2="-3309.728" y2="334.1098" gradientTransform="matrix(10.509 0 0 -13.136 34777.8945 4514.5063)">
				<stop  offset="0" style="stop-color:#888888"/>
				<stop  offset="1" style="stop-color:#545554"/>
			</linearGradient>
			<path id="Path_3929_6_" class="st26" d="M-8.6,127v-11.3c0,0,3.4,1.5,4.6,1.5c1.2,0,4.6-1.5,4.6-1.5V127c0,0-3.6-1.5-4.8-1.5
				C-5.4,125.5-8.6,127-8.6,127z"/>
			
				<linearGradient id="Path_3930_3_" gradientUnits="userSpaceOnUse" x1="-3309.9517" y1="334.7184" x2="-3309.9333" y2="334.1098" gradientTransform="matrix(10.509 0 0 -13.136 34794.8945 4514.5063)">
				<stop  offset="0" style="stop-color:#888888"/>
				<stop  offset="1" style="stop-color:#545554"/>
			</linearGradient>
			<path id="Path_3930_5_" class="st27" d="M6.2,127v-11.3c0,0,3.4,1.5,4.6,1.5c1.2,0,4.6-1.5,4.6-1.5V127c0,0-3.6-1.5-4.8-1.5
				C9.5,125.5,6.2,127,6.2,127z"/>
			<path id="Path_3922_6_" class="st4" d="M-26.6,64.9l-2.1,21.6v73.6l2.1,13.8V64.9z"/>
			<path id="Path_3923_6_" class="st4" d="M-12.6,64.9l-2.1,21.6v73.6l2.1,13.8V64.9z"/>
			<path id="Path_3924_6_" class="st4" d="M1.4,64.9l-2.1,21.6v73.6l2.1,13.8V64.9z"/>
			<path id="Path_3925_5_" class="st4" d="M15.3,64.9l-2.1,21.6v73.6l2.1,13.8V64.9z"/>
			
				<linearGradient id="Rectangle_20450_4_" gradientUnits="userSpaceOnUse" x1="-3068.0425" y1="350.2025" x2="-3068.0425" y2="349.3583" gradientTransform="matrix(6 0 0 -130 18384.2891 45590)">
				<stop  offset="0" style="stop-color:#BCBCBC"/>
				<stop  offset="0.29" style="stop-color:#F4F4F5"/>
				<stop  offset="0.647" style="stop-color:#F5F5F5"/>
				<stop  offset="1" style="stop-color:#969696"/>
			</linearGradient>
			<path id="Rectangle_20450_6_" class="st28" d="M-25.7,63.7h3.5c0.5,0,0.9,0.4,0.9,0.9v110c0,0.5-0.4,0.9-0.9,0.9h-3.5
				c-0.5,0-0.9-0.4-0.9-0.9v-110C-26.6,64.1-26.2,63.7-25.7,63.7z"/>
			
				<linearGradient id="Rectangle_20451_4_" gradientUnits="userSpaceOnUse" x1="-3068.3809" y1="350.2025" x2="-3068.3809" y2="349.3583" gradientTransform="matrix(6 0 0 -130 18400.2891 45590)">
				<stop  offset="0" style="stop-color:#BCBCBC"/>
				<stop  offset="0.29" style="stop-color:#F4F4F5"/>
				<stop  offset="0.647" style="stop-color:#F5F5F5"/>
				<stop  offset="1" style="stop-color:#969696"/>
			</linearGradient>
			<path id="Rectangle_20451_6_" class="st29" d="M-11.7,63.7h3.5c0.5,0,0.9,0.4,0.9,0.9v110c0,0.5-0.4,0.9-0.9,0.9h-3.5
				c-0.5,0-0.9-0.4-0.9-0.9v-110C-12.6,64.1-12.2,63.7-11.7,63.7z"/>
			
				<linearGradient id="Rectangle_20452_4_" gradientUnits="userSpaceOnUse" x1="-3068.7195" y1="350.2025" x2="-3068.7195" y2="349.3583" gradientTransform="matrix(6 0 0 -130 18416.2891 45590)">
				<stop  offset="0" style="stop-color:#BCBCBC"/>
				<stop  offset="0.29" style="stop-color:#F4F4F5"/>
				<stop  offset="0.647" style="stop-color:#F5F5F5"/>
				<stop  offset="1" style="stop-color:#969696"/>
			</linearGradient>
			<path id="Rectangle_20452_6_" class="st30" d="M2.2,63.7h3.5c0.5,0,0.9,0.4,0.9,0.9v110c0,0.5-0.4,0.9-0.9,0.9H2.2
				c-0.5,0-0.9-0.4-0.9-0.9v-110C1.4,64.1,1.7,63.7,2.2,63.7z"/>
			
				<linearGradient id="Rectangle_20453_3_" gradientUnits="userSpaceOnUse" x1="-3069.0581" y1="350.2025" x2="-3069.0581" y2="349.3583" gradientTransform="matrix(6 0 0 -130 18432.2891 45590)">
				<stop  offset="0" style="stop-color:#BCBCBC"/>
				<stop  offset="0.29" style="stop-color:#F4F4F5"/>
				<stop  offset="0.647" style="stop-color:#F5F5F5"/>
				<stop  offset="1" style="stop-color:#969696"/>
			</linearGradient>
			<path id="Rectangle_20453_5_" class="st31" d="M16.2,63.7h3.5c0.5,0,0.9,0.4,0.9,0.9v110c0,0.5-0.4,0.9-0.9,0.9h-3.5
				c-0.5,0-0.9-0.4-0.9-0.9v-110C15.3,64.1,15.7,63.7,16.2,63.7z"/>
		</g>
		
			<linearGradient id="Path_3926_2_" gradientUnits="userSpaceOnUse" x1="-3314.4512" y1="334.7184" x2="-3314.4331" y2="334.1098" gradientTransform="matrix(10.509 0 0 -13.136 34729.8945 4514.5063)">
			<stop  offset="0" style="stop-color:#888888"/>
			<stop  offset="1" style="stop-color:#545554"/>
		</linearGradient>
		<path id="Path_3926_1_" class="st32" d="M-106.1,127v-11.3c0,0,3.4,1.5,4.6,1.5c1.2,0,4.6-1.5,4.6-1.5V127c0,0-3.6-1.5-4.8-1.5
			C-102.8,125.5-106.1,127-106.1,127z"/>
		<path id="Path_3919_1_" class="st4" d="M-116,64.3l-8.2,22.2v73.6l8.1,14.7L-116,64.3z"/>
		<path id="Path_3921_1_" class="st4" d="M-96.1,64.9l-2.1,21.6v73.6l2.1,13.8V64.9z"/>
		<path id="Path_3920_1_" class="st33" d="M-124.2,131.8l8.3,3.1v-26.4l-8.3,4.5V131.8z"/>
		
			<linearGradient id="Rectangle_20448_2_" gradientUnits="userSpaceOnUse" x1="-3455.187" y1="350.2025" x2="-3455.187" y2="349.3583" gradientTransform="matrix(19 0 0 -130 65545.0859 45590)">
			<stop  offset="0" style="stop-color:#BCBCBC"/>
			<stop  offset="0.29" style="stop-color:#F4F4F5"/>
			<stop  offset="0.647" style="stop-color:#F5F5F5"/>
			<stop  offset="1" style="stop-color:#969696"/>
		</linearGradient>
		<path id="Rectangle_20448_1_" class="st34" d="M-114.7,63.7h22.6c0.7,0,1.3,0.4,1.3,0.9v110c0,0.5-0.6,0.9-1.3,0.9h-22.6
			c-0.7,0-1.3-0.4-1.3-0.9v-110C-116.1,64.1-115.5,63.7-114.7,63.7z"/>
		<g>
			
				<linearGradient id="Path_3927_10_" gradientUnits="userSpaceOnUse" x1="-3314.6565" y1="334.7184" x2="-3314.6384" y2="334.1098" gradientTransform="matrix(10.509 0 0 -13.136 34746.8945 4514.5063)">
				<stop  offset="0" style="stop-color:#888888"/>
				<stop  offset="1" style="stop-color:#545554"/>
			</linearGradient>
			<path id="Path_3927_5_" class="st35" d="M-91.2,127v-11.3c0,0,3.4,1.5,4.6,1.5c1.2,0,4.6-1.5,4.6-1.5V127c0,0-3.6-1.5-4.8-1.5
				C-88,125.5-91.2,127-91.2,127z"/>
			
				<linearGradient id="Path_3928_10_" gradientUnits="userSpaceOnUse" x1="-3314.9443" y1="334.7184" x2="-3314.9263" y2="334.1098" gradientTransform="matrix(10.509 0 0 -13.136 34763.8945 4514.5063)">
				<stop  offset="0" style="stop-color:#888888"/>
				<stop  offset="1" style="stop-color:#545554"/>
			</linearGradient>
			<path id="Path_3928_5_" class="st36" d="M-77.3,127v-11.3c0,0,3.4,1.5,4.6,1.5c1.2,0,4.6-1.5,4.6-1.5V127c0,0-3.6-1.5-4.8-1.5
				C-74,125.5-77.3,127-77.3,127z"/>
			
				<linearGradient id="Path_3929_10_" gradientUnits="userSpaceOnUse" x1="-3315.031" y1="334.7184" x2="-3315.0129" y2="334.1098" gradientTransform="matrix(10.509 0 0 -13.136 34777.8945 4514.5063)">
				<stop  offset="0" style="stop-color:#888888"/>
				<stop  offset="1" style="stop-color:#545554"/>
			</linearGradient>
			<path id="Path_3929_5_" class="st37" d="M-64.2,127v-11.3c0,0,3.4,1.5,4.6,1.5c1.2,0,4.6-1.5,4.6-1.5V127c0,0-3.6-1.5-4.8-1.5
				C-60.9,125.5-64.2,127-64.2,127z"/>
			
				<linearGradient id="Path_3930_8_" gradientUnits="userSpaceOnUse" x1="-3315.2363" y1="334.7184" x2="-3315.2183" y2="334.1098" gradientTransform="matrix(10.509 0 0 -13.136 34794.8945 4514.5063)">
				<stop  offset="0" style="stop-color:#888888"/>
				<stop  offset="1" style="stop-color:#545554"/>
			</linearGradient>
			<path id="Path_3930_4_" class="st38" d="M-49.3,127v-11.3c0,0,3.4,1.5,4.6,1.5c1.2,0,4.6-1.5,4.6-1.5V127c0,0-3.6-1.5-4.8-1.5
				C-46.1,125.5-49.3,127-49.3,127z"/>
			<path id="Path_3922_5_" class="st4" d="M-82.1,64.9l-2.1,21.6v73.6l2.1,13.8V64.9z"/>
			<path id="Path_3923_5_" class="st4" d="M-68.2,64.9l-2.1,21.6v73.6l2.1,13.8V64.9z"/>
			<path id="Path_3924_5_" class="st4" d="M-54.2,64.9l-2.1,21.6v73.6l2.1,13.8V64.9z"/>
			<path id="Path_3925_4_" class="st4" d="M-40.2,64.9l-2.1,21.6v73.6l2.1,13.8V64.9z"/>
			
				<linearGradient id="Rectangle_20450_10_" gradientUnits="userSpaceOnUse" x1="-3077.2986" y1="350.2025" x2="-3077.2986" y2="349.3583" gradientTransform="matrix(6 0 0 -130 18384.2891 45590)">
				<stop  offset="0" style="stop-color:#BCBCBC"/>
				<stop  offset="0.29" style="stop-color:#F4F4F5"/>
				<stop  offset="0.647" style="stop-color:#F5F5F5"/>
				<stop  offset="1" style="stop-color:#969696"/>
			</linearGradient>
			<path id="Rectangle_20450_5_" class="st39" d="M-81.2,63.7h3.5c0.5,0,0.9,0.4,0.9,0.9v110c0,0.5-0.4,0.9-0.9,0.9h-3.5
				c-0.5,0-0.9-0.4-0.9-0.9v-110C-82.1,64.1-81.7,63.7-81.2,63.7z"/>
			
				<linearGradient id="Rectangle_20451_10_" gradientUnits="userSpaceOnUse" x1="-3077.6372" y1="350.2025" x2="-3077.6372" y2="349.3583" gradientTransform="matrix(6 0 0 -130 18400.2891 45590)">
				<stop  offset="0" style="stop-color:#BCBCBC"/>
				<stop  offset="0.29" style="stop-color:#F4F4F5"/>
				<stop  offset="0.647" style="stop-color:#F5F5F5"/>
				<stop  offset="1" style="stop-color:#969696"/>
			</linearGradient>
			<path id="Rectangle_20451_5_" class="st40" d="M-67.3,63.7h3.5c0.5,0,0.9,0.4,0.9,0.9v110c0,0.5-0.4,0.9-0.9,0.9h-3.5
				c-0.5,0-0.9-0.4-0.9-0.9v-110C-68.2,64.1-67.8,63.7-67.3,63.7z"/>
			
				<linearGradient id="Rectangle_20452_10_" gradientUnits="userSpaceOnUse" x1="-3077.9758" y1="350.2025" x2="-3077.9758" y2="349.3583" gradientTransform="matrix(6 0 0 -130 18416.2891 45590)">
				<stop  offset="0" style="stop-color:#BCBCBC"/>
				<stop  offset="0.29" style="stop-color:#F4F4F5"/>
				<stop  offset="0.647" style="stop-color:#F5F5F5"/>
				<stop  offset="1" style="stop-color:#969696"/>
			</linearGradient>
			<path id="Rectangle_20452_5_" class="st41" d="M-53.3,63.7h3.5c0.5,0,0.9,0.4,0.9,0.9v110c0,0.5-0.4,0.9-0.9,0.9h-3.5
				c-0.5,0-0.9-0.4-0.9-0.9v-110C-54.2,64.1-53.8,63.7-53.3,63.7z"/>
			
				<linearGradient id="Rectangle_20453_8_" gradientUnits="userSpaceOnUse" x1="-3078.3145" y1="350.2025" x2="-3078.3145" y2="349.3583" gradientTransform="matrix(6 0 0 -130 18432.2891 45590)">
				<stop  offset="0" style="stop-color:#BCBCBC"/>
				<stop  offset="0.29" style="stop-color:#F4F4F5"/>
				<stop  offset="0.647" style="stop-color:#F5F5F5"/>
				<stop  offset="1" style="stop-color:#969696"/>
			</linearGradient>
			<path id="Rectangle_20453_4_" class="st42" d="M-39.3,63.7h3.5c0.5,0,0.9,0.4,0.9,0.9v110c0,0.5-0.4,0.9-0.9,0.9h-3.5
				c-0.5,0-0.9-0.4-0.9-0.9v-110C-40.2,64.1-39.8,63.7-39.3,63.7z"/>
		</g>
		
			<linearGradient id="Rectangle_20449_2_" gradientUnits="userSpaceOnUse" x1="-3076.9602" y1="350.2025" x2="-3076.9602" y2="349.3583" gradientTransform="matrix(6 0 0 -130 18368.2891 45590)">
			<stop  offset="0" style="stop-color:#BCBCBC"/>
			<stop  offset="0.29" style="stop-color:#F4F4F5"/>
			<stop  offset="0.647" style="stop-color:#F5F5F5"/>
			<stop  offset="1" style="stop-color:#969696"/>
		</linearGradient>
		<path id="Rectangle_20449_1_" class="st43" d="M-95.2,63.7h3.5c0.5,0,0.9,0.4,0.9,0.9v110c0,0.5-0.4,0.9-0.9,0.9h-3.5
			c-0.5,0-0.9-0.4-0.9-0.9v-110C-96.1,64.1-95.7,63.7-95.2,63.7z"/>
		<ellipse id="Ellipse_303_1_" class="st44" cx="-120.2" cy="120.7" rx="1.2" ry="7.3"/>
	</g>
	<g>
		<path class="st45" d="M299,1l0,110.5l-287.6,0V1L299,1 M300,0L10.4,0v112.5l289.6,0L300,0L300,0z"/>
	</g>
</g>
</svg>
