<?xml version="1.0" encoding="utf-8"?>
<!-- Generator: Adobe Illustrator 24.2.3, SVG Export Plug-In . SVG Version: 6.00 Build 0)  -->
<svg version="1.1" id="Layer_1" xmlns="http://www.w3.org/2000/svg" xmlns:xlink="http://www.w3.org/1999/xlink" x="0px" y="0px"
	 viewBox="0 0 300 279.31" style="enable-background:new 0 0 300 279.31;" xml:space="preserve">
<style type="text/css">
	.st0{fill:url(#SVGID_1_);}
	.st1{fill:#707171;}
	.st2{fill:none;}
	.st3{fill:#131313;}
	.st4{fill:url(#SVGID_2_);}
	.st5{opacity:0.04;}
	.st6{fill:url(#SVGID_3_);}
	.st7{fill:#ADADAD;fill-opacity:0;}
	.st8{opacity:0.0909;fill:#ADADAD;enable-background:new    ;}
	.st9{opacity:0.1818;fill:#ADADAD;enable-background:new    ;}
	.st10{opacity:0.2727;fill:#ADADAD;enable-background:new    ;}
	.st11{opacity:0.3636;fill:#ADADAD;enable-background:new    ;}
	.st12{opacity:0.4545;fill:#ADADAD;enable-background:new    ;}
	.st13{opacity:0.5455;fill:#ADADAD;enable-background:new    ;}
	.st14{opacity:0.6364;fill:#ADADAD;enable-background:new    ;}
	.st15{opacity:0.7273;fill:#ADADAD;enable-background:new    ;}
	.st16{opacity:0.8182;fill:#ADADAD;enable-background:new    ;}
	.st17{opacity:0.9091;fill:#ADADAD;enable-background:new    ;}
	.st18{fill:#ADADAD;}
	.st19{fill:url(#SVGID_4_);}
	.st20{fill:url(#SVGID_5_);}
	.st21{fill:url(#SVGID_6_);}
	.st22{fill:url(#SVGID_7_);}
	.st23{fill:url(#SVGID_8_);}
	.st24{fill:url(#SVGID_9_);}
	.st25{fill:url(#SVGID_10_);}
	.st26{fill:url(#SVGID_11_);}
	.st27{fill:#070808;}
	.st28{fill:#161616;}
	.st29{fill:url(#SVGID_12_);}
	.st30{fill:url(#SVGID_13_);}
	.st31{fill:url(#SVGID_14_);}
	.st32{fill:url(#SVGID_15_);}
	.st33{fill:url(#SVGID_17_);}
	.st34{fill:url(#SVGID_18_);}
	.st35{fill:url(#SVGID_19_);}
	.st36{fill:url(#SVGID_20_);}
	.st37{fill:url(#SVGID_21_);}
	.st38{fill:url(#SVGID_22_);}
	.st39{fill:url(#SVGID_23_);}
	.st40{fill:url(#SVGID_24_);}
	.st41{fill:url(#SVGID_25_);}
	.st42{fill:url(#SVGID_26_);}
	.st43{fill:url(#SVGID_27_);}
	.st44{fill:url(#SVGID_29_);}
	.st45{fill:url(#SVGID_30_);}
	.st46{fill:url(#SVGID_31_);}
	.st47{fill:url(#SVGID_32_);}
	.st48{fill:url(#SVGID_33_);}
	.st49{fill:url(#SVGID_34_);}
	.st50{fill:url(#SVGID_35_);}
	.st51{fill:url(#SVGID_36_);}
	.st52{fill:url(#SVGID_37_);}
	.st53{fill:url(#SVGID_39_);}
	.st54{fill:url(#SVGID_40_);}
	.st55{fill:url(#SVGID_41_);}
	.st56{fill:url(#SVGID_42_);}
	.st57{fill:url(#SVGID_43_);}
	.st58{fill:url(#SVGID_44_);}
	.st59{fill:url(#SVGID_45_);}
	.st60{fill:url(#SVGID_46_);}
	.st61{fill:url(#SVGID_47_);}
	.st62{fill:url(#SVGID_48_);}
	.st63{fill:url(#SVGID_49_);}
	.st64{fill:url(#SVGID_50_);}
	.st65{fill:url(#SVGID_51_);}
	.st66{fill:url(#SVGID_52_);}
	.st67{fill:url(#SVGID_53_);}
	.st68{fill:url(#SVGID_54_);}
	.st69{fill:url(#SVGID_55_);}
	.st70{fill:url(#SVGID_57_);}
	.st71{opacity:0.5;}
	.st72{fill:url(#SVGID_58_);}
	.st73{fill:url(#SVGID_59_);}
	.st74{opacity:0.2;}
	.st75{fill:url(#SVGID_60_);}
	.st76{fill:url(#SVGID_61_);}
</style>
<g>
	<g>
		
			<linearGradient id="SVGID_1_" gradientUnits="userSpaceOnUse" x1="-1062.1635" y1="-279" x2="-774.6782" y2="8.4852" gradientTransform="matrix(0 -1 1 0 285.2549 -778.7683)">
			<stop  offset="1.000000e-03" style="stop-color:#BCBDBF"/>
			<stop  offset="0.214" style="stop-color:#929497"/>
			<stop  offset="0.544" style="stop-color:#FFFFFF"/>
			<stop  offset="0.723" style="stop-color:#929497"/>
			<stop  offset="1" style="stop-color:#424143"/>
		</linearGradient>
		<path class="st0" d="M2.47,278.81c-0.52,0-1.02-0.21-1.39-0.59s-0.58-0.89-0.58-1.43V2.52c0-0.54,0.21-1.05,0.58-1.43
			S1.94,0.5,2.47,0.5h295.06c0.52,0,1.02,0.21,1.39,0.59c0.38,0.38,0.58,0.89,0.58,1.43v274.26c0,0.54-0.21,1.05-0.58,1.43
			s-0.87,0.59-1.39,0.59H2.47V278.81z"/>
		<path class="st1" d="M297.53,1c0.39,0,0.75,0.16,1.03,0.44c0.28,0.29,0.44,0.67,0.44,1.08V160.7v116.09c0,0.41-0.16,0.8-0.44,1.08
			s-0.64,0.44-1.03,0.44H150H2.47c-0.39,0-0.76-0.16-1.03-0.44C1.16,277.58,1,277.2,1,276.79V160.7V2.52c0-0.41,0.16-0.8,0.44-1.08
			C1.71,1.16,2.08,1,2.47,1H150H297.53 M297.53,0H150H2.47c-0.68,0-1.3,0.28-1.75,0.74C0.28,1.2,0,1.83,0,2.52V160.7v116.09
			c0,0.7,0.28,1.33,0.72,1.78c0.45,0.46,1.06,0.74,1.75,0.74H150h147.53c0.68,0,1.3-0.28,1.75-0.74s0.72-1.09,0.72-1.78V160.7V2.52
			c0-0.7-0.28-1.33-0.72-1.78C298.83,0.28,298.21,0,297.53,0L297.53,0z"/>
	</g>
</g>
<path class="st2" d="M300,2.52V160.7v116.09c0,0.7-0.28,1.33-0.72,1.78c-0.45,0.46-1.06,0.74-1.75,0.74H150H2.47
	c-0.68,0-1.3-0.28-1.75-0.74C0.28,278.11,0,277.48,0,276.79V160.7V2.52c0-0.7,0.28-1.33,0.72-1.78C1.17,0.28,1.79,0,2.47,0H150
	h147.53c0.68,0,1.3,0.28,1.75,0.74C299.72,1.2,300,1.83,300,2.52z"/>
<path class="st3" d="M289.93,271.54H150H10.07c-0.68,0-1.3-0.28-1.75-0.74s-0.72-1.09-0.72-1.78V160.7V10.3
	c0-0.7,0.28-1.33,0.72-1.78c0.45-0.46,1.06-0.74,1.75-0.74H150h139.93c0.68,0,1.3,0.28,1.75,0.74s0.72,1.09,0.72,1.78v150.4v108.32
	c0,0.7-0.28,1.33-0.72,1.78C291.22,271.25,290.61,271.54,289.93,271.54z"/>
<g>
	
		<linearGradient id="SVGID_2_" gradientUnits="userSpaceOnUse" x1="-58.4023" y1="-40.3605" x2="217.076" y2="-278.2736" gradientTransform="matrix(1 0 0 1 0 360)">
		<stop  offset="0" style="stop-color:#7F7F7F"/>
		<stop  offset="1" style="stop-color:#BCBCBC"/>
	</linearGradient>
	<path id="SVGID_16_" class="st4" d="M10.07,271.02c-0.52,0-1.02-0.21-1.39-0.59s-0.57-0.88-0.57-1.42V10.3
		c0-0.54,0.2-1.04,0.57-1.42s0.86-0.59,1.39-0.59h279.85c0.52,0,1.02,0.21,1.39,0.59c0.37,0.38,0.58,0.88,0.58,1.42v258.72
		c0,0.54-0.2,1.04-0.58,1.42c-0.37,0.38-0.86,0.59-1.39,0.59H10.07V271.02z"/>
</g>
<path class="st2" d="M10.07,271.02c-0.52,0-1.02-0.21-1.39-0.59s-0.57-0.88-0.57-1.42V10.3c0-0.54,0.2-1.04,0.57-1.42
	s0.86-0.59,1.39-0.59h279.85c0.52,0,1.02,0.21,1.39,0.59c0.37,0.38,0.58,0.88,0.58,1.42v258.72c0,0.54-0.2,1.04-0.58,1.42
	c-0.37,0.38-0.86,0.59-1.39,0.59H10.07V271.02z"/>
<g class="st5">
	
		<radialGradient id="SVGID_3_" cx="206.3379" cy="158.7453" r="14.2774" gradientTransform="matrix(2.8513 2.5388 1.4412 -1.6954 -13307.4834 14795.999)" gradientUnits="userSpaceOnUse">
		<stop  offset="0" style="stop-color:#EFF1F8"/>
		<stop  offset="0.1702" style="stop-color:#B9BBC0"/>
		<stop  offset="0.395" style="stop-color:#78797C"/>
		<stop  offset="0.5987" style="stop-color:#444547"/>
		<stop  offset="0.7737" style="stop-color:#1F1F20"/>
		<stop  offset="0.9132" style="stop-color:#080809"/>
		<stop  offset="1" style="stop-color:#000000"/>
	</radialGradient>
	<path class="st6" d="M290.54,7.95C195.67,9.74,155.79,6.94,40.92,8.01c10.25,71.56,46.48,151.1,109.41,207.13
		c26.76,23.83,52.87,42.09,78.37,56.18c23.66-0.06,49.65,0.42,59.6,0.14c2.81-0.08,3.61-1.25,3.61-1.25s1.9-119.23,0.18-258.41
		C292.08,10.53,292.15,9.12,290.54,7.95z"/>
</g>
<g>
	<ellipse class="st7" cx="226.48" cy="197.98" rx="28.93" ry="29.57"/>
	<ellipse class="st8" cx="226.58" cy="197.88" rx="28.93" ry="29.57"/>
	<ellipse class="st9" cx="226.68" cy="197.78" rx="28.93" ry="29.57"/>
	<ellipse class="st10" cx="226.79" cy="197.67" rx="28.93" ry="29.57"/>
	<ellipse class="st11" cx="226.89" cy="197.57" rx="28.93" ry="29.57"/>
	<ellipse class="st12" cx="226.99" cy="197.47" rx="28.93" ry="29.57"/>
	<ellipse class="st13" cx="227.09" cy="197.36" rx="28.93" ry="29.57"/>
	<ellipse class="st14" cx="227.19" cy="197.26" rx="28.93" ry="29.57"/>
	<ellipse class="st15" cx="227.29" cy="197.16" rx="28.93" ry="29.57"/>
	<ellipse class="st16" cx="227.39" cy="197.05" rx="28.93" ry="29.57"/>
	<ellipse class="st17" cx="227.49" cy="196.95" rx="28.93" ry="29.57"/>
	<ellipse class="st18" cx="227.59" cy="196.85" rx="28.93" ry="29.57"/>
</g>
<g>
	<g>
		<g>
			<g>
				<g>
					
						<linearGradient id="SVGID_4_" gradientUnits="userSpaceOnUse" x1="206.9059" y1="-142.4659" x2="248.2741" y2="-183.8341" gradientTransform="matrix(1 0 0 1 0 360)">
						<stop  offset="0" style="stop-color:#2F2E2A"/>
						<stop  offset="1" style="stop-color:#222323"/>
					</linearGradient>
					<ellipse class="st19" cx="227.59" cy="196.85" rx="28.93" ry="29.57"/>
					
						<linearGradient id="SVGID_5_" gradientUnits="userSpaceOnUse" x1="207.2097" y1="-142.7678" x2="247.9703" y2="-183.5284" gradientTransform="matrix(1 0 0 1 0 360)">
						<stop  offset="0" style="stop-color:#363636"/>
						<stop  offset="1" style="stop-color:#717272"/>
					</linearGradient>
					<path class="st20" d="M227.59,226c-15.73,0-28.52-13.08-28.52-29.15c0-16.08,12.8-29.15,28.52-29.15s28.52,13.08,28.52,29.15
						C256.12,212.92,243.32,226,227.59,226z"/>
					
						<linearGradient id="SVGID_6_" gradientUnits="userSpaceOnUse" x1="207.2097" y1="-142.7716" x2="247.974" y2="-183.5359" gradientTransform="matrix(1 0 0 1 0 360)">
						<stop  offset="0" style="stop-color:#070808"/>
						<stop  offset="1" style="stop-color:#717272"/>
					</linearGradient>
					<path class="st21" d="M227.59,167.7c-15.73,0-28.52,13.08-28.52,29.15S211.87,226,227.59,226s28.52-13.08,28.52-29.15
						C256.12,180.77,243.32,167.7,227.59,167.7z M227.59,225.74c-15.59,0-28.27-12.96-28.27-28.9s12.68-28.89,28.27-28.89
						s28.27,12.96,28.27,28.89S243.18,225.74,227.59,225.74z"/>
					
						<linearGradient id="SVGID_7_" gradientUnits="userSpaceOnUse" x1="209.7836" y1="-145.3417" x2="245.3983" y2="-180.9564" gradientTransform="matrix(1 0 0 1 0 360)">
						<stop  offset="0" style="stop-color:#363636"/>
						<stop  offset="1" style="stop-color:#717272"/>
					</linearGradient>
					<path class="st22" d="M227.59,222.32c-13.74,0-24.92-11.43-24.92-25.47c0-14.05,11.18-25.47,24.92-25.47
						c13.74,0,24.92,11.43,24.92,25.47C252.52,210.89,241.34,222.32,227.59,222.32z"/>
					
						<linearGradient id="SVGID_8_" gradientUnits="userSpaceOnUse" x1="210.1315" y1="-145.7014" x2="245.0485" y2="-180.6186" gradientTransform="matrix(1 0 0 1 0 360)">
						<stop  offset="0" style="stop-color:#2F2E2A"/>
						<stop  offset="1" style="stop-color:#222323"/>
					</linearGradient>
					<path class="st23" d="M227.59,221.81c-13.47,0-24.43-11.2-24.43-24.97s10.96-24.97,24.43-24.97c13.47,0,24.43,11.2,24.43,24.97
						C252.02,210.61,241.06,221.81,227.59,221.81z"/>
					
						<linearGradient id="SVGID_9_" gradientUnits="userSpaceOnUse" x1="210.5441" y1="-146.1042" x2="244.6359" y2="-180.1958" gradientTransform="matrix(1 0 0 1 0 360)">
						<stop  offset="0" style="stop-color:#363636"/>
						<stop  offset="1" style="stop-color:#717272"/>
					</linearGradient>
					<ellipse class="st24" cx="227.59" cy="196.85" rx="23.84" ry="24.37"/>
					
						<linearGradient id="SVGID_10_" gradientUnits="userSpaceOnUse" x1="210.5508" y1="-146.1108" x2="244.6292" y2="-180.1892" gradientTransform="matrix(1 0 0 1 0 360)">
						<stop  offset="0" style="stop-color:#070808"/>
						<stop  offset="1" style="stop-color:#717272"/>
					</linearGradient>
					<path class="st25" d="M227.59,172.48c-13.15,0-23.84,10.93-23.84,24.37s10.69,24.37,23.84,24.37s23.84-10.93,23.84-24.37
						S240.74,172.48,227.59,172.48z M227.59,220.99c-13.02,0-23.62-10.83-23.62-24.14s10.6-24.14,23.62-24.14
						s23.62,10.83,23.62,24.14S240.62,220.99,227.59,220.99z"/>
					
						<linearGradient id="SVGID_11_" gradientUnits="userSpaceOnUse" x1="213.4965" y1="-149.0565" x2="241.6835" y2="-177.2435" gradientTransform="matrix(1 0 0 1 0 360)">
						<stop  offset="0" style="stop-color:#363636"/>
						<stop  offset="1" style="stop-color:#717272"/>
					</linearGradient>
					<ellipse class="st26" cx="227.59" cy="196.85" rx="19.71" ry="20.15"/>
					<path class="st27" d="M227.59,216.45c-10.57,0-19.18-8.79-19.18-19.6s8.6-19.6,19.18-19.6c10.57,0,19.18,8.79,19.18,19.6
						S238.17,216.45,227.59,216.45z"/>
					<g>
						<g>
							<g>
								<path id="SVGID_28_" class="st28" d="M227.59,215.64c-10.14,0-18.39-8.43-18.39-18.79c0-10.36,8.25-18.79,18.39-18.79
									s18.39,8.43,18.39,18.79C245.98,207.21,237.73,215.64,227.59,215.64z"/>
							</g>
						</g>
					</g>
				</g>
			</g>
		</g>
	</g>
</g>
<g>
	<g>
		<g>
			<g>
				
					<linearGradient id="SVGID_12_" gradientUnits="userSpaceOnUse" x1="210.5315" y1="-145.6952" x2="245.1848" y2="-180.3485" gradientTransform="matrix(1 0 0 1 0 360)">
					<stop  offset="0" style="stop-color:#2F2E2A"/>
					<stop  offset="1" style="stop-color:#222323"/>
				</linearGradient>
				<path class="st29" d="M227.86,221.76c-13.37,0-24.25-11.12-24.25-24.78s10.88-24.78,24.25-24.78s24.25,11.12,24.25,24.78
					C252.1,210.64,241.22,221.76,227.86,221.76z"/>
				
					<linearGradient id="SVGID_13_" gradientUnits="userSpaceOnUse" x1="210.7683" y1="-145.9382" x2="244.9517" y2="-180.1218" gradientTransform="matrix(1 0 0 1 0 360)">
					<stop  offset="0" style="stop-color:#363636"/>
					<stop  offset="1" style="stop-color:#717272"/>
				</linearGradient>
				<ellipse class="st30" cx="227.86" cy="196.97" rx="23.91" ry="24.43"/>
				
					<linearGradient id="SVGID_14_" gradientUnits="userSpaceOnUse" x1="210.7772" y1="-145.9471" x2="244.9428" y2="-180.1129" gradientTransform="matrix(1 0 0 1 0 360)">
					<stop  offset="0" style="stop-color:#070808"/>
					<stop  offset="1" style="stop-color:#717272"/>
				</linearGradient>
				<path class="st31" d="M227.86,172.54c-13.18,0-23.91,10.96-23.91,24.43s10.73,24.43,23.91,24.43s23.91-10.96,23.91-24.43
					S241.04,172.54,227.86,172.54z M227.86,221.19c-13.07,0-23.7-10.86-23.7-24.22s10.63-24.22,23.7-24.22s23.7,10.86,23.7,24.22
					S240.92,221.19,227.86,221.19z"/>
				
					<linearGradient id="SVGID_15_" gradientUnits="userSpaceOnUse" x1="212.9313" y1="-148.1031" x2="242.7868" y2="-177.9588" gradientTransform="matrix(1 0 0 1 0 360)">
					<stop  offset="0" style="stop-color:#363636"/>
					<stop  offset="1" style="stop-color:#717272"/>
				</linearGradient>
				<path class="st32" d="M227.86,218.32c-11.52,0-20.89-9.58-20.89-21.35s9.37-21.35,20.89-21.35s20.89,9.58,20.89,21.35
					S239.37,218.32,227.86,218.32z"/>
				
					<linearGradient id="SVGID_17_" gradientUnits="userSpaceOnUse" x1="213.2238" y1="-148.3982" x2="242.4894" y2="-177.6637" gradientTransform="matrix(1 0 0 1 0 360)">
					<stop  offset="0" style="stop-color:#2F2E2A"/>
					<stop  offset="1" style="stop-color:#222323"/>
				</linearGradient>
				<path class="st33" d="M227.86,217.9c-11.29,0-20.48-9.39-20.48-20.93s9.19-20.93,20.48-20.93s20.47,9.39,20.47,20.93
					S239.14,217.9,227.86,217.9z"/>
				
					<linearGradient id="SVGID_18_" gradientUnits="userSpaceOnUse" x1="213.5756" y1="-148.7456" x2="242.1444" y2="-177.3144" gradientTransform="matrix(1 0 0 1 0 360)">
					<stop  offset="0" style="stop-color:#363636"/>
					<stop  offset="1" style="stop-color:#717272"/>
				</linearGradient>
				<ellipse class="st34" cx="227.86" cy="196.97" rx="19.98" ry="20.42"/>
				
					<linearGradient id="SVGID_19_" gradientUnits="userSpaceOnUse" x1="213.5817" y1="-148.7516" x2="242.1364" y2="-177.3065" gradientTransform="matrix(1 0 0 1 0 360)">
					<stop  offset="0" style="stop-color:#070808"/>
					<stop  offset="1" style="stop-color:#717272"/>
				</linearGradient>
				<path class="st35" d="M227.86,176.55c-11.02,0-19.98,9.16-19.98,20.42s8.96,20.42,19.98,20.42c11.02,0,19.98-9.16,19.98-20.42
					S238.87,176.55,227.86,176.55z M227.86,217.21c-10.92,0-19.8-9.08-19.8-20.23s8.88-20.23,19.8-20.23s19.8,9.08,19.8,20.23
					S238.77,217.21,227.86,217.21z"/>
				
					<linearGradient id="SVGID_20_" gradientUnits="userSpaceOnUse" x1="216.047" y1="-151.2171" x2="239.673" y2="-174.8429" gradientTransform="matrix(1 0 0 1 0 360)">
					<stop  offset="0" style="stop-color:#363636"/>
					<stop  offset="1" style="stop-color:#717272"/>
				</linearGradient>
				<ellipse class="st36" cx="227.86" cy="196.97" rx="16.52" ry="16.89"/>
				<ellipse class="st27" cx="227.86" cy="196.97" rx="16.07" ry="16.43"/>
				<g>
					<g>
						<g>
							<ellipse id="SVGID_38_" class="st28" cx="227.86" cy="196.97" rx="15.41" ry="15.75"/>
						</g>
					</g>
				</g>
			</g>
		</g>
	</g>
</g>
<g>
	
		<linearGradient id="SVGID_21_" gradientUnits="userSpaceOnUse" x1="216.244" y1="-151.8121" x2="238.9378" y2="-174.506" gradientTransform="matrix(1 0 0 1 0 360)">
		<stop  offset="0" style="stop-color:#363636"/>
		<stop  offset="1" style="stop-color:#717272"/>
	</linearGradient>
	<path class="st37" d="M227.59,213.07c-8.75,0-15.88-7.28-15.88-16.23s7.12-16.23,15.88-16.23c8.75,0,15.88,7.28,15.88,16.23
		C243.47,205.8,236.35,213.07,227.59,213.07z"/>
	
		<linearGradient id="SVGID_22_" gradientUnits="userSpaceOnUse" x1="216.2412" y1="-151.8012" x2="238.9388" y2="-174.4988" gradientTransform="matrix(1 0 0 1 0 360)">
		<stop  offset="0" style="stop-color:#070808"/>
		<stop  offset="1" style="stop-color:#717272"/>
	</linearGradient>
	<path class="st38" d="M227.59,180.62c-8.75,0-15.88,7.28-15.88,16.23s7.12,16.23,15.88,16.23c8.75,0,15.88-7.28,15.88-16.23
		S236.35,180.62,227.59,180.62z M227.59,212.92c-8.67,0-15.73-7.21-15.73-16.08s7.06-16.08,15.73-16.08s15.73,7.21,15.73,16.08
		S236.27,212.92,227.59,212.92z"/>
</g>
<g>
	<g>
		<g>
			
				<linearGradient id="SVGID_23_" gradientUnits="userSpaceOnUse" x1="212.9007" y1="-183.9857" x2="207.1366" y2="-178.2216" gradientTransform="matrix(1 0 0 1 0 360)">
				<stop  offset="0" style="stop-color:#343434"/>
				<stop  offset="1" style="stop-color:#131313"/>
			</linearGradient>
			<path class="st39" d="M223.23,190.59l-11.04-13.16l-11.04-13.16c-0.19-0.23-0.46-0.35-0.73-0.36c-0.27-0.01-0.55,0.09-0.76,0.3
				l-2.13,2.18l-2.13,2.18c-0.21,0.21-0.31,0.5-0.3,0.77c0.01,0.28,0.13,0.55,0.35,0.75l12.9,11.31l12.9,11.31
				c0.26-0.42,0.56-0.8,0.89-1.16C222.47,191.2,222.84,190.88,223.23,190.59z"/>
			
				<linearGradient id="SVGID_24_" gradientUnits="userSpaceOnUse" x1="232.6368" y1="-168.5732" x2="259.5047" y2="-195.4411" gradientTransform="matrix(1 0 0 1 0 360)">
				<stop  offset="0" style="stop-color:#131313"/>
				<stop  offset="1" style="stop-color:#343434"/>
			</linearGradient>
			<path class="st40" d="M233.93,192.72l12.9-11.31l12.9-11.31c0.23-0.2,0.34-0.47,0.35-0.75s-0.09-0.56-0.3-0.77l-2.14-2.18
				l-2.13-2.18c-0.21-0.21-0.49-0.31-0.76-0.3c-0.27,0.01-0.54,0.13-0.73,0.36L243,177.44l-11.04,13.16
				c0.39,0.29,0.76,0.61,1.09,0.96C233.37,191.91,233.67,192.3,233.93,192.72z"/>
			
				<linearGradient id="SVGID_25_" gradientUnits="userSpaceOnUse" x1="224.3632" y1="-159.5509" x2="197.4952" y2="-132.6829" gradientTransform="matrix(1 0 0 1 0 360)">
				<stop  offset="0" style="stop-color:#343434"/>
				<stop  offset="1" style="stop-color:#131313"/>
			</linearGradient>
			<path class="st41" d="M221.25,200.98l-12.9,11.31l-12.9,11.31c-0.22,0.2-0.34,0.47-0.35,0.75c-0.01,0.28,0.09,0.56,0.3,0.77
				l2.13,2.18l2.13,2.18c0.21,0.21,0.49,0.31,0.76,0.3c0.27-0.01,0.54-0.13,0.73-0.36l11.04-13.16l11.04-13.16
				c-0.39-0.29-0.76-0.61-1.09-0.96C221.81,201.78,221.51,201.39,221.25,200.98z"/>
			
				<linearGradient id="SVGID_26_" gradientUnits="userSpaceOnUse" x1="248.0609" y1="-148.0909" x2="242.2918" y2="-142.3218" gradientTransform="matrix(1 0 0 1 0 360)">
				<stop  offset="0" style="stop-color:#343434"/>
				<stop  offset="1" style="stop-color:#131313"/>
			</linearGradient>
			<path class="st42" d="M231.96,203.1L243,216.26l11.04,13.16c0.19,0.23,0.46,0.35,0.73,0.36c0.27,0.01,0.55-0.09,0.76-0.3
				l2.13-2.18l2.14-2.18c0.21-0.21,0.31-0.5,0.3-0.77c-0.01-0.28-0.13-0.55-0.35-0.75l-12.9-11.31l-12.9-11.31
				c-0.26,0.42-0.56,0.8-0.89,1.16C232.71,202.49,232.35,202.81,231.96,203.1z"/>
		</g>
	</g>
	<g>
		
			<linearGradient id="SVGID_27_" gradientUnits="userSpaceOnUse" x1="220.7634" y1="-156.3233" x2="234.4185" y2="-169.9786" gradientTransform="matrix(1 0 0 1 0 360)">
			<stop  offset="0" style="stop-color:#363636"/>
			<stop  offset="1" style="stop-color:#717272"/>
		</linearGradient>
		<path class="st43" d="M227.59,187.09c-5.27,0-9.55,4.37-9.55,9.76s4.28,9.76,9.55,9.76s9.55-4.37,9.55-9.76
			C237.14,191.46,232.87,187.09,227.59,187.09z M227.59,202.67c-3.15,0-5.7-2.61-5.7-5.82c0-3.22,2.55-5.82,5.7-5.82
			s5.7,2.61,5.7,5.82C233.29,200.07,230.74,202.67,227.59,202.67z"/>
		
			<linearGradient id="SVGID_29_" gradientUnits="userSpaceOnUse" x1="220.6434" y1="-156.2033" x2="234.2966" y2="-169.8567" gradientTransform="matrix(1 0 0 1 0 360)">
			<stop  offset="0" style="stop-color:#131313"/>
			<stop  offset="1" style="stop-color:#343434"/>
		</linearGradient>
		<path class="st44" d="M227.47,187.21c-5.27,0-9.55,4.37-9.55,9.76s4.28,9.76,9.55,9.76s9.55-4.37,9.55-9.76
			S232.74,187.21,227.47,187.21z M227.47,202.8c-3.15,0-5.7-2.61-5.7-5.82s2.55-5.82,5.7-5.82s5.7,2.61,5.7,5.82
			S230.62,202.8,227.47,202.8z"/>
	</g>
</g>
<g>
	<ellipse class="st7" cx="82.81" cy="198.02" rx="21.7" ry="22.18"/>
	<ellipse class="st8" cx="82.89" cy="197.94" rx="21.7" ry="22.18"/>
	<ellipse class="st9" cx="82.96" cy="197.87" rx="21.7" ry="22.18"/>
	<ellipse class="st10" cx="83.04" cy="197.79" rx="21.7" ry="22.18"/>
	<ellipse class="st11" cx="83.11" cy="197.71" rx="21.7" ry="22.18"/>
	<ellipse class="st12" cx="83.19" cy="197.63" rx="21.7" ry="22.18"/>
	<ellipse class="st13" cx="83.26" cy="197.56" rx="21.7" ry="22.18"/>
	<ellipse class="st14" cx="83.34" cy="197.48" rx="21.7" ry="22.18"/>
	<ellipse class="st15" cx="83.42" cy="197.4" rx="21.7" ry="22.18"/>
	<ellipse class="st16" cx="83.49" cy="197.32" rx="21.7" ry="22.18"/>
	<ellipse class="st17" cx="83.57" cy="197.25" rx="21.7" ry="22.18"/>
	<ellipse class="st18" cx="83.64" cy="197.17" rx="21.7" ry="22.18"/>
</g>
<g>
	<g>
		<g>
			<g>
				<g>
					<g>
						
							<linearGradient id="SVGID_30_" gradientUnits="userSpaceOnUse" x1="68.2051" y1="-147.3152" x2="99.2349" y2="-178.3448" gradientTransform="matrix(1 0 0 1 0 360)">
							<stop  offset="0" style="stop-color:#2F2E2A"/>
							<stop  offset="1" style="stop-color:#222323"/>
						</linearGradient>
						<ellipse class="st45" cx="83.72" cy="197.17" rx="21.7" ry="22.18"/>
						
							<linearGradient id="SVGID_31_" gradientUnits="userSpaceOnUse" x1="68.4243" y1="-147.5343" x2="99.0157" y2="-178.1257" gradientTransform="matrix(1 0 0 1 0 360)">
							<stop  offset="0" style="stop-color:#363636"/>
							<stop  offset="1" style="stop-color:#717272"/>
						</linearGradient>
						<ellipse class="st46" cx="83.72" cy="197.17" rx="21.39" ry="21.87"/>
						
							<linearGradient id="SVGID_32_" gradientUnits="userSpaceOnUse" x1="68.4322" y1="-147.5422" x2="99.0078" y2="-178.1178" gradientTransform="matrix(1 0 0 1 0 360)">
							<stop  offset="0" style="stop-color:#070808"/>
							<stop  offset="1" style="stop-color:#717272"/>
						</linearGradient>
						<path class="st47" d="M83.72,175.3c-11.8,0-21.39,9.81-21.39,21.87s9.6,21.87,21.39,21.87c11.8,0,21.39-9.81,21.39-21.87
							S95.51,175.3,83.72,175.3z M83.72,218.84c-11.69,0-21.21-9.72-21.21-21.67s9.51-21.67,21.21-21.67
							c11.69,0,21.21,9.72,21.21,21.67C104.92,209.12,95.41,218.84,83.72,218.84z"/>
						
							<linearGradient id="SVGID_33_" gradientUnits="userSpaceOnUse" x1="70.3589" y1="-149.4707" x2="97.0793" y2="-176.1912" gradientTransform="matrix(1 0 0 1 0 360)">
							<stop  offset="0" style="stop-color:#363636"/>
							<stop  offset="1" style="stop-color:#717272"/>
						</linearGradient>
						<path class="st48" d="M83.72,216.28c-10.31,0-18.69-8.57-18.69-19.11s8.39-19.11,18.69-19.11c10.31,0,18.69,8.57,18.69,19.11
							C102.41,207.7,94.02,216.28,83.72,216.28z"/>
						
							<linearGradient id="SVGID_34_" gradientUnits="userSpaceOnUse" x1="70.6252" y1="-149.737" x2="96.813" y2="-175.9249" gradientTransform="matrix(1 0 0 1 0 360)">
							<stop  offset="0" style="stop-color:#2F2E2A"/>
							<stop  offset="1" style="stop-color:#222323"/>
						</linearGradient>
						<path class="st49" d="M83.72,215.9c-10.1,0-18.32-8.4-18.32-18.73s8.22-18.73,18.32-18.73s18.32,8.4,18.32,18.73
							C102.04,207.49,93.82,215.9,83.72,215.9z"/>
						
							<linearGradient id="SVGID_35_" gradientUnits="userSpaceOnUse" x1="70.9347" y1="-150.0447" x2="96.5053" y2="-175.6153" gradientTransform="matrix(1 0 0 1 0 360)">
							<stop  offset="0" style="stop-color:#363636"/>
							<stop  offset="1" style="stop-color:#717272"/>
						</linearGradient>
						<ellipse class="st50" cx="83.72" cy="197.17" rx="17.88" ry="18.28"/>
						
							<linearGradient id="SVGID_36_" gradientUnits="userSpaceOnUse" x1="70.9405" y1="-150.0505" x2="96.4995" y2="-175.6095" gradientTransform="matrix(1 0 0 1 0 360)">
							<stop  offset="0" style="stop-color:#070808"/>
							<stop  offset="1" style="stop-color:#717272"/>
						</linearGradient>
						<path class="st51" d="M83.72,178.89c-9.86,0-17.88,8.2-17.88,18.28s8.02,18.28,17.88,18.28s17.88-8.2,17.88-18.28
							S93.58,178.89,83.72,178.89z M83.72,215.28c-9.77,0-17.72-8.12-17.72-18.11c0-9.98,7.95-18.11,17.72-18.11
							s17.72,8.12,17.72,18.11C101.43,207.15,93.48,215.28,83.72,215.28z"/>
						
							<linearGradient id="SVGID_37_" gradientUnits="userSpaceOnUse" x1="73.1525" y1="-152.2663" x2="94.2838" y2="-173.3974" gradientTransform="matrix(1 0 0 1 0 360)">
							<stop  offset="0" style="stop-color:#363636"/>
							<stop  offset="1" style="stop-color:#717272"/>
						</linearGradient>
						<path class="st52" d="M83.72,212.28c-8.15,0-14.79-6.78-14.79-15.11s6.63-15.11,14.79-15.11c8.15,0,14.79,6.78,14.79,15.11
							C98.5,205.5,91.87,212.28,83.72,212.28z"/>
						<path class="st27" d="M83.72,211.87c-7.93,0-14.38-6.59-14.38-14.7s6.45-14.7,14.38-14.7s14.38,6.6,14.38,14.7
							S91.65,211.87,83.72,211.87z"/>
						<g>
							<g>
								<g>
									<ellipse id="SVGID_56_" class="st28" cx="83.72" cy="197.17" rx="13.79" ry="14.1"/>
								</g>
							</g>
						</g>
					</g>
				</g>
			</g>
		</g>
	</g>
</g>
<g>
	<g>
		<g>
			<g>
				
					<linearGradient id="SVGID_39_" gradientUnits="userSpaceOnUse" x1="70.9117" y1="-149.7417" x2="96.9083" y2="-175.7383" gradientTransform="matrix(1 0 0 1 0 360)">
					<stop  offset="0" style="stop-color:#2F2E2A"/>
					<stop  offset="1" style="stop-color:#222323"/>
				</linearGradient>
				<path class="st53" d="M83.91,215.85c-10.03,0-18.19-8.34-18.19-18.59s8.16-18.59,18.19-18.59s18.19,8.34,18.19,18.59
					C102.1,207.51,93.94,215.85,83.91,215.85z"/>
				
					<linearGradient id="SVGID_40_" gradientUnits="userSpaceOnUse" x1="71.0942" y1="-149.9242" x2="96.7258" y2="-175.5558" gradientTransform="matrix(1 0 0 1 0 360)">
					<stop  offset="0" style="stop-color:#363636"/>
					<stop  offset="1" style="stop-color:#717272"/>
				</linearGradient>
				<path class="st54" d="M83.91,215.59c-9.89,0-17.93-8.22-17.93-18.33s8.04-18.33,17.93-18.33s17.93,8.22,17.93,18.33
					S93.8,215.59,83.91,215.59z"/>
				
					<linearGradient id="SVGID_41_" gradientUnits="userSpaceOnUse" x1="71.0942" y1="-149.9142" x2="96.7258" y2="-175.5458" gradientTransform="matrix(1 0 0 1 0 360)">
					<stop  offset="0" style="stop-color:#070808"/>
					<stop  offset="1" style="stop-color:#717272"/>
				</linearGradient>
				<path class="st55" d="M83.91,178.94c-9.89,0-17.93,8.22-17.93,18.33s8.04,18.33,17.93,18.33s17.93-8.22,17.93-18.33
					S93.8,178.94,83.91,178.94z M83.91,215.43c-9.8,0-17.77-8.15-17.77-18.17s7.97-18.16,17.77-18.16s17.77,8.15,17.77,18.16
					S93.71,215.43,83.91,215.43z"/>
				
					<linearGradient id="SVGID_42_" gradientUnits="userSpaceOnUse" x1="72.7137" y1="-151.5337" x2="95.1063" y2="-173.9263" gradientTransform="matrix(1 0 0 1 0 360)">
					<stop  offset="0" style="stop-color:#363636"/>
					<stop  offset="1" style="stop-color:#717272"/>
				</linearGradient>
				<path class="st56" d="M83.91,213.28c-8.64,0-15.67-7.18-15.67-16.01s7.03-16.01,15.67-16.01s15.67,7.18,15.67,16.01
					S92.55,213.28,83.91,213.28z"/>
				
					<linearGradient id="SVGID_43_" gradientUnits="userSpaceOnUse" x1="72.9334" y1="-151.7615" x2="94.8885" y2="-173.7166" gradientTransform="matrix(1 0 0 1 0 360)">
					<stop  offset="0" style="stop-color:#2F2E2A"/>
					<stop  offset="1" style="stop-color:#222323"/>
				</linearGradient>
				<path class="st57" d="M83.91,212.96c-8.47,0-15.36-7.04-15.36-15.7c0-8.65,6.89-15.7,15.36-15.7s15.36,7.04,15.36,15.7
					C99.27,205.92,92.38,212.96,83.91,212.96z"/>
				
					<linearGradient id="SVGID_44_" gradientUnits="userSpaceOnUse" x1="73.1988" y1="-152.0287" x2="94.6231" y2="-173.4532" gradientTransform="matrix(1 0 0 1 0 360)">
					<stop  offset="0" style="stop-color:#363636"/>
					<stop  offset="1" style="stop-color:#717272"/>
				</linearGradient>
				<path class="st58" d="M83.91,212.58c-8.26,0-14.99-6.87-14.99-15.32s6.72-15.32,14.99-15.32s14.99,6.87,14.99,15.32
					C98.9,205.71,92.18,212.58,83.91,212.58z"/>
				
					<linearGradient id="SVGID_45_" gradientUnits="userSpaceOnUse" x1="73.1978" y1="-152.0159" x2="94.6241" y2="-173.4422" gradientTransform="matrix(1 0 0 1 0 360)">
					<stop  offset="0" style="stop-color:#070808"/>
					<stop  offset="1" style="stop-color:#717272"/>
				</linearGradient>
				<path class="st59" d="M83.91,181.95c-8.26,0-14.99,6.87-14.99,15.32s6.72,15.32,14.99,15.32s14.99-6.87,14.99-15.32
					C98.9,188.82,92.18,181.95,83.91,181.95z M83.91,212.44c-8.19,0-14.85-6.81-14.85-15.18s6.66-15.18,14.85-15.18
					s14.85,6.81,14.85,15.18S92.1,212.44,83.91,212.44z"/>
				
					<linearGradient id="SVGID_46_" gradientUnits="userSpaceOnUse" x1="75.056" y1="-153.8804" x2="92.7696" y2="-171.594" gradientTransform="matrix(1 0 0 1 0 360)">
					<stop  offset="0" style="stop-color:#363636"/>
					<stop  offset="1" style="stop-color:#717272"/>
				</linearGradient>
				<path class="st60" d="M83.91,209.93c-6.83,0-12.39-5.68-12.39-12.67c0-6.98,5.56-12.67,12.39-12.67s12.39,5.68,12.39,12.67
					C96.31,204.25,90.75,209.93,83.91,209.93z"/>
				<path class="st27" d="M83.91,209.59c-6.65,0-12.05-5.53-12.05-12.32c0-6.79,5.41-12.32,12.05-12.32
					c6.65,0,12.06,5.53,12.06,12.32S90.56,209.59,83.91,209.59z"/>
				<g>
					<g>
						<g>
							<path id="SVGID_66_" class="st28" d="M83.91,209.08c-6.37,0-11.56-5.3-11.56-11.81s5.19-11.81,11.56-11.81
								c6.37,0,11.56,5.3,11.56,11.81S90.29,209.08,83.91,209.08z"/>
						</g>
					</g>
				</g>
			</g>
		</g>
	</g>
</g>
<radialGradient id="SVGID_47_" cx="83.92" cy="-267.6548" r="10.7097" gradientTransform="matrix(1 0 0 1.022 0 470.8182)" gradientUnits="userSpaceOnUse">
	<stop  offset="0.7524" style="stop-color:#000000"/>
	<stop  offset="0.8475" style="stop-color:#010102"/>
	<stop  offset="0.8817" style="stop-color:#030709"/>
	<stop  offset="0.9061" style="stop-color:#070F14"/>
	<stop  offset="0.9258" style="stop-color:#0D1C25"/>
	<stop  offset="0.9427" style="stop-color:#152D3B"/>
	<stop  offset="0.9577" style="stop-color:#1F4157"/>
	<stop  offset="0.9712" style="stop-color:#2B5A77"/>
	<stop  offset="0.9837" style="stop-color:#38769D"/>
	<stop  offset="0.9948" style="stop-color:#4795C6"/>
	<stop  offset="1" style="stop-color:#4FA6DC"/>
</radialGradient>
<path class="st61" d="M91.49,189.53c-1.94-1.98-4.62-3.2-7.57-3.2c-2.96,0-5.64,1.22-7.57,3.2c-1.94,1.98-3.14,4.72-3.14,7.74
	s1.2,5.76,3.14,7.74c1.94,1.98,4.62,3.21,7.57,3.21c2.96,0,5.64-1.23,7.57-3.21c1.94-1.98,3.14-4.72,3.14-7.74
	C94.62,194.25,93.42,191.52,91.49,189.53z"/>
<g>
	
		<radialGradient id="SVGID_48_" cx="83.91" cy="-267.6695" r="18.7883" gradientTransform="matrix(1 0 0 1.022 0 470.8182)" gradientUnits="userSpaceOnUse">
		<stop  offset="0.5" style="stop-color:#000000"/>
		<stop  offset="0.6697" style="stop-color:#054F9A"/>
		<stop  offset="0.7677" style="stop-color:#0E4174"/>
		<stop  offset="0.8586" style="stop-color:#153759"/>
		<stop  offset="0.9389" style="stop-color:#193149"/>
		<stop  offset="1" style="stop-color:#1A2F43"/>
	</radialGradient>
	<ellipse class="st62" cx="83.91" cy="197.26" rx="18.79" ry="19.2"/>
</g>
<g>
	
		<linearGradient id="SVGID_49_" gradientUnits="userSpaceOnUse" x1="75.2059" y1="-154.3159" x2="92.2341" y2="-171.3441" gradientTransform="matrix(1 0 0 1 0 360)">
		<stop  offset="0" style="stop-color:#363636"/>
		<stop  offset="1" style="stop-color:#717272"/>
	</linearGradient>
	<ellipse class="st63" cx="83.72" cy="197.17" rx="11.91" ry="12.17"/>
	
		<linearGradient id="SVGID_50_" gradientUnits="userSpaceOnUse" x1="75.2095" y1="-154.3195" x2="92.2286" y2="-171.3386" gradientTransform="matrix(1 0 0 1 0 360)">
		<stop  offset="0" style="stop-color:#070808"/>
		<stop  offset="1" style="stop-color:#717272"/>
	</linearGradient>
	<path class="st64" d="M83.72,185c-6.57,0-11.91,5.46-11.91,12.17s5.34,12.17,11.91,12.17c6.57,0,11.91-5.46,11.91-12.17
		S90.28,185,83.72,185z M83.72,209.23c-6.51,0-11.8-5.41-11.8-12.06s5.29-12.06,11.8-12.06s11.8,5.41,11.8,12.06
		C95.51,203.82,90.22,209.23,83.72,209.23z"/>
</g>
<g>
	<g>
		<g>
			
				<linearGradient id="SVGID_51_" gradientUnits="userSpaceOnUse" x1="72.6998" y1="-178.4448" x2="68.3713" y2="-174.1163" gradientTransform="matrix(1 0 0 1 0 360)">
				<stop  offset="0" style="stop-color:#343434"/>
				<stop  offset="1" style="stop-color:#131313"/>
			</linearGradient>
			<path class="st65" d="M80.44,192.48l-8.28-9.87l-8.28-9.87c-0.14-0.17-0.35-0.26-0.55-0.27c-0.2-0.01-0.41,0.07-0.57,0.23
				l-1.6,1.64l-1.6,1.64c-0.16,0.16-0.23,0.37-0.22,0.58s0.1,0.41,0.27,0.56l9.68,8.48l9.68,8.48c0.2-0.31,0.42-0.6,0.67-0.87
				C79.87,192.94,80.15,192.69,80.44,192.48z"/>
			
				<linearGradient id="SVGID_52_" gradientUnits="userSpaceOnUse" x1="87.5069" y1="-166.8931" x2="107.6603" y2="-187.0464" gradientTransform="matrix(1 0 0 1 0 360)">
				<stop  offset="0" style="stop-color:#131313"/>
				<stop  offset="1" style="stop-color:#343434"/>
			</linearGradient>
			<path class="st66" d="M88.47,194.07l9.68-8.48l9.68-8.48c0.17-0.15,0.26-0.35,0.27-0.56c0.01-0.21-0.07-0.42-0.22-0.58l-1.6-1.64
				l-1.6-1.64c-0.16-0.16-0.36-0.24-0.57-0.23c-0.2,0.01-0.41,0.1-0.55,0.27l-8.28,9.87L87,192.47c0.29,0.22,0.57,0.46,0.81,0.72
				C88.05,193.47,88.27,193.76,88.47,194.07z"/>
			
				<linearGradient id="SVGID_53_" gradientUnits="userSpaceOnUse" x1="81.2894" y1="-160.1333" x2="61.1365" y2="-139.9804" gradientTransform="matrix(1 0 0 1 0 360)">
				<stop  offset="0" style="stop-color:#343434"/>
				<stop  offset="1" style="stop-color:#131313"/>
			</linearGradient>
			<path class="st67" d="M78.96,200.27l-9.68,8.48l-9.68,8.48c-0.17,0.15-0.26,0.35-0.27,0.56s0.07,0.42,0.22,0.58l1.6,1.64
				l1.6,1.64c0.16,0.16,0.36,0.24,0.57,0.23c0.2-0.01,0.41-0.1,0.55-0.27l8.28-9.87l8.28-9.87c-0.29-0.22-0.57-0.46-0.81-0.72
				C79.38,200.87,79.16,200.58,78.96,200.27z"/>
			
				<linearGradient id="SVGID_54_" gradientUnits="userSpaceOnUse" x1="99.0587" y1="-151.5437" x2="94.7302" y2="-147.2152" gradientTransform="matrix(1 0 0 1 0 360)">
				<stop  offset="0" style="stop-color:#343434"/>
				<stop  offset="1" style="stop-color:#131313"/>
			</linearGradient>
			<path class="st68" d="M86.99,201.86l8.28,9.87l8.28,9.87c0.14,0.17,0.35,0.26,0.55,0.27c0.2,0.01,0.41-0.07,0.57-0.23l1.6-1.64
				l1.6-1.64c0.16-0.16,0.23-0.37,0.22-0.58s-0.1-0.41-0.27-0.56l-9.68-8.48l-9.68-8.48c-0.2,0.31-0.42,0.6-0.67,0.87
				C87.56,201.4,87.28,201.64,86.99,201.86z"/>
		</g>
	</g>
	<g>
		
			<linearGradient id="SVGID_55_" gradientUnits="userSpaceOnUse" x1="78.6016" y1="-157.7115" x2="88.8384" y2="-167.9485" gradientTransform="matrix(1 0 0 1 0 360)">
			<stop  offset="0" style="stop-color:#363636"/>
			<stop  offset="1" style="stop-color:#717272"/>
		</linearGradient>
		<path class="st69" d="M83.72,189.85c-3.96,0-7.16,3.28-7.16,7.32c0,4.04,3.21,7.32,7.16,7.32c3.96,0,7.16-3.28,7.16-7.32
			C90.88,193.13,87.67,189.85,83.72,189.85z M83.72,201.54c-2.36,0-4.27-1.96-4.27-4.37c0-2.41,1.91-4.37,4.27-4.37
			c2.36,0,4.27,1.96,4.27,4.37C87.99,199.58,86.08,201.54,83.72,201.54z"/>
		
			<linearGradient id="SVGID_57_" gradientUnits="userSpaceOnUse" x1="78.5015" y1="-157.6216" x2="88.7422" y2="-167.8622" gradientTransform="matrix(1 0 0 1 0 360)">
			<stop  offset="0" style="stop-color:#131313"/>
			<stop  offset="1" style="stop-color:#343434"/>
		</linearGradient>
		<path class="st70" d="M83.62,189.94c-3.96,0-7.16,3.28-7.16,7.32c0,4.04,3.21,7.32,7.16,7.32c3.96,0,7.16-3.28,7.16-7.32
			C90.79,193.22,87.58,189.94,83.62,189.94z M83.62,201.63c-2.36,0-4.28-1.96-4.28-4.37c0-2.41,1.91-4.37,4.28-4.37
			c2.36,0,4.27,1.96,4.27,4.37C87.9,199.68,85.98,201.63,83.62,201.63z"/>
	</g>
</g>
<g class="st71">
	<linearGradient id="SVGID_58_" gradientUnits="userSpaceOnUse" x1="48.58" y1="85.23" x2="118.86" y2="85.23">
		<stop  offset="0" style="stop-color:#363636"/>
		<stop  offset="1" style="stop-color:#717272"/>
	</linearGradient>
	<path class="st72" d="M83.72,121.14c-19.37,0-35.14-16.11-35.14-35.91s15.76-35.91,35.14-35.91c19.37,0,35.14,16.11,35.14,35.91
		C118.85,105.03,103.09,121.14,83.72,121.14z M83.72,50.19c-18.9,0-34.28,15.72-34.28,35.04s15.38,35.04,34.28,35.04
		S118,104.55,118,85.23S102.62,50.19,83.72,50.19z"/>
</g>
<g class="st71">
	<linearGradient id="SVGID_59_" gradientUnits="userSpaceOnUse" x1="54.66" y1="85.23" x2="112.77" y2="85.23">
		<stop  offset="0" style="stop-color:#363636"/>
		<stop  offset="1" style="stop-color:#717272"/>
	</linearGradient>
	<path class="st73" d="M83.72,114.92c-16.02,0-29.06-13.32-29.06-29.69s13.03-29.69,29.06-29.69c16.02,0,29.05,13.32,29.05,29.69
		C112.77,101.6,99.74,114.92,83.72,114.92z M83.72,56.03c-15.75,0-28.56,13.1-28.56,29.19c0,16.1,12.81,29.19,28.56,29.19
		s28.56-13.1,28.56-29.19S99.46,56.03,83.72,56.03z"/>
</g>
<g class="st74">
	<linearGradient id="SVGID_60_" gradientUnits="userSpaceOnUse" x1="202.63" y1="85.31" x2="253.07" y2="85.31">
		<stop  offset="0" style="stop-color:#363636"/>
		<stop  offset="1" style="stop-color:#717272"/>
	</linearGradient>
	<path class="st75" d="M227.85,111.08c-13.9,0-25.22-11.56-25.22-25.77s11.31-25.77,25.22-25.77c13.9,0,25.22,11.56,25.22,25.77
		C253.07,99.51,241.76,111.08,227.85,111.08z M227.85,60.03c-13.63,0-24.72,11.34-24.72,25.27s11.09,25.27,24.72,25.27
		s24.73-11.34,24.73-25.27S241.49,60.03,227.85,60.03z"/>
</g>
<g class="st74">
	<linearGradient id="SVGID_61_" gradientUnits="userSpaceOnUse" x1="196.61" y1="85.3" x2="259.11" y2="85.3">
		<stop  offset="0" style="stop-color:#363636"/>
		<stop  offset="1" style="stop-color:#717272"/>
	</linearGradient>
	<path class="st76" d="M227.86,117.24c-17.23,0-31.25-14.33-31.25-31.94s14.02-31.94,31.25-31.94s31.25,14.33,31.25,31.94
		S245.09,117.24,227.86,117.24z M227.86,54.14c-16.81,0-30.49,13.98-30.49,31.16s13.68,31.16,30.49,31.16s30.49-13.98,30.49-31.16
		S244.67,54.14,227.86,54.14z"/>
</g>
</svg>
