<?xml version="1.0" encoding="utf-8"?>
<!-- Generator: Adobe Illustrator 24.2.3, SVG Export Plug-In . SVG Version: 6.00 Build 0)  -->
<svg version="1.1" id="Layer_1" xmlns="http://www.w3.org/2000/svg" xmlns:xlink="http://www.w3.org/1999/xlink" x="0px" y="0px"
	 viewBox="0 0 300 150" style="enable-background:new 0 0 300 150;" xml:space="preserve">
<style type="text/css">
	.st0{fill-rule:evenodd;clip-rule:evenodd;fill:url(#Path_9448_1_);}
	.st1{fill:#8C341D;}
	.st2{opacity:0.1;fill:#C1C0C0;enable-background:new    ;}
	.st3{fill:#DED8D7;}
	.st4{fill:#5E5F5E;}
	.st5{fill:#B3BBC1;}
	.st6{fill:#D5D6D5;stroke:#C2C1C1;}
	.st7{fill:#D1D1D1;}
	.st8{fill:#E9E8E8;}
	.st9{fill:#745A7A;}
	.st10{fill:none;}
	.st11{fill:#EFEFEF;}
	.st12{opacity:0.5;fill:#DED8D7;}
	.st13{fill:url(#Ellipse_289_1_);}
	.st14{fill:#57585A;}
	.st15{fill:#A2A1A1;stroke:#FFFFFF;stroke-miterlimit:10;}
	.st16{fill:#9492A0;}
	.st17{fill:url(#Path_3859_1_);}
	.st18{fill:#FFFFFF;}
</style>
<g id="Group_6116">
	
		<linearGradient id="Path_9448_1_" gradientUnits="userSpaceOnUse" x1="-454.9965" y1="-544.3392" x2="-454.9965" y2="-545.1555" gradientTransform="matrix(1.200000e-14 -194.356 367.508 2.300000e-14 200349.0156 -88356.2969)">
		<stop  offset="0" style="stop-color:#E16226"/>
		<stop  offset="1" style="stop-color:#F48136"/>
	</linearGradient>
	<path id="Path_9448" class="st0" d="M0,0v150h300V0H0z"/>
	<rect id="Rectangle_24587" x="110.66" y="38.59" class="st1" width="140.41" height="73.32"/>
</g>
<path id="Rectangle_20405" class="st2" d="M93.19,59.03h131.34c14.44,0,26.14,11.71,26.14,26.14l0,0
	c0,14.44-11.71,26.14-26.14,26.14H93.19c-14.44,0-26.14-11.71-26.14-26.14l0,0C67.05,70.73,78.75,59.03,93.19,59.03z"/>
<g id="Group_4330" transform="translate(476.107 532.767)">
	<rect id="Rectangle_20406" x="-315.96" y="-428.86" class="st3" width="29.92" height="8.69"/>
	<g id="Group_4329" transform="translate(13.111 2.819)">
		<rect id="Rectangle_20407" x="-318.37" y="-429.38" class="st4" width="0.52" height="3.2"/>
		<rect id="Rectangle_20408" x="-315.9" y="-429.38" class="st4" width="0.52" height="3.2"/>
		<rect id="Rectangle_20409" x="-313.43" y="-429.38" class="st4" width="0.52" height="3.2"/>
		<rect id="Rectangle_20410" x="-310.96" y="-429.38" class="st4" width="0.52" height="3.2"/>
		<rect id="Rectangle_20411" x="-308.49" y="-429.38" class="st4" width="0.52" height="3.2"/>
		<rect id="Rectangle_20412" x="-306.02" y="-429.38" class="st4" width="0.52" height="3.2"/>
		<rect id="Rectangle_20413" x="-303.56" y="-429.38" class="st4" width="0.52" height="3.2"/>
		<rect id="Rectangle_20414" x="-301.09" y="-429.38" class="st4" width="0.52" height="3.2"/>
	</g>
</g>
<rect id="Rectangle_20415" x="79.17" y="103.9" class="st5" width="16.51" height="4.09"/>
<path id="Rectangle_20416" class="st6" d="M79.25,52.38h150.97c9.02,0,16.33,7.31,16.33,16.33v19.64c0,9.02-7.31,16.33-16.33,16.33
	H79.25c-9.02,0-16.33-7.31-16.33-16.33V68.71C62.92,59.69,70.23,52.38,79.25,52.38z"/>
<g id="Group_4331" transform="translate(367.855 447.176)">
	<path id="Rectangle_20417" class="st7" d="M-287.91-413.14h39.24c4.51,0,8.16,3.65,8.16,8.16v10.12c0,4.51-3.65,8.16-8.16,8.16
		h-39.24c-4.51,0-8.16-3.65-8.16-8.16v-10.12C-296.07-409.49-292.42-413.14-287.91-413.14z"/>
	<path id="Path_3856" class="st8" d="M-249.1-407.07c1.29,1.15,2.34,2.54,3.09,4.09c0,0,0.52,1.79,2.06,1.79
		c0,0,2.84-0.26,1.29-4.09c0,0-1.55-4.09-5.16-5.63c0,0-2.58-1.02-2.06,1.79C-249.86-408.36-249.59-407.64-249.1-407.07z"/>
</g>
<path id="Rectangle_20418" class="st5" d="M130.31,45.99h89.72c2.68,0,4.85,2.17,4.85,4.85v4.88c0,2.68-2.17,4.85-4.85,4.85h-89.72
	c-2.68,0-4.85-2.17-4.85-4.85v-4.88C125.46,48.16,127.63,45.99,130.31,45.99z"/>
<path id="Path_3857" class="st9" d="M102.38,93.68c-0.71,0-1.29,0.57-1.29,1.28v19.43c0.02,0.71,0.61,1.27,1.32,1.26
	c0.69-0.02,1.24-0.57,1.26-1.26V94.96C103.67,94.25,103.09,93.67,102.38,93.68z M102.77,114.52H102v-6.65h0.77V114.52z"/>
<path class="st10" d="M79.25,52.38h150.97c9.02,0,16.33,7.31,16.33,16.33v19.64c0,9.02-7.31,16.33-16.33,16.33H79.25
	c-9.02,0-16.33-7.31-16.33-16.33V68.71C62.92,59.69,70.23,52.38,79.25,52.38z"/>
<path id="Rectangle_20419" class="st11" d="M76.8,52.13h151.87c7.66,0,13.88,6.21,13.88,13.88v14.95c0,7.66-6.21,13.88-13.88,13.88
	H62.92l0,0V66C62.92,58.34,69.13,52.13,76.8,52.13z"/>
<path id="Rectangle_20420" class="st12" d="M186.84,51.87h39.42c0,0,5.52,0.14,7.56,1.17c3.68,1.31,5.9,4.68,5.9,4.68
	s2.78,3.52,2.87,7.55c0.06,2.78-0.09,12.17-0.09,12.17h-40.15c-8.57,0-15.51-6.94-15.51-15.51V51.87L186.84,51.87z"/>
<path id="Path_3858" class="st11" d="M228.98,63.16c0,0,4.64,0.26,5.93,5.88c0,0,1.03,3.84,4.13,3.07c0,0,5.16-1.53,1.81-8.95
	c0,0-3.87-6.9-13.41-6.39c0,0-4.38,0-2.32,4.09C225.11,60.86,225.63,62.65,228.98,63.16z"/>
<g id="Group_4336" transform="translate(531.396 476.698)">
	
		<radialGradient id="Ellipse_289_1_" cx="-1544.1462" cy="-29.1479" r="0.5011" gradientTransform="matrix(15.7162 0.7331 -0.7394 15.5824 23928.2793 1175.4507)" gradientUnits="userSpaceOnUse">
		<stop  offset="0" style="stop-color:#BCBDBF"/>
		<stop  offset="0.481" style="stop-color:#EEEEEE"/>
		<stop  offset="1" style="stop-color:#9C9C9C"/>
	</radialGradient>
	<ellipse id="Ellipse_289" class="st13" cx="-318.25" cy="-410.76" rx="7.87" ry="7.8"/>
	<ellipse id="Ellipse_290" class="st14" cx="-318.25" cy="-410.77" rx="1.55" ry="1.53"/>
	<ellipse id="Ellipse_291" class="st15" cx="-323.15" cy="-411.02" rx="1.55" ry="1.53"/>
	<ellipse id="Ellipse_292" class="st15" cx="-313.61" cy="-411.02" rx="1.55" ry="1.53"/>
	<g id="Group_4334" transform="translate(3.633 1.566)">
		<ellipse id="Ellipse_293" class="st15" cx="-321.75" cy="-417.32" rx="1.55" ry="1.53"/>
		<ellipse id="Ellipse_294" class="st15" cx="-325.23" cy="-415.91" rx="1.55" ry="1.53"/>
		<ellipse id="Ellipse_295" class="st15" cx="-318.53" cy="-415.91" rx="1.55" ry="1.53"/>
	</g>
	<g id="Group_4335" transform="translate(3.633 11.59)">
		<ellipse id="Ellipse_296" class="st15" cx="-321.56" cy="-417.89" rx="1.67" ry="1.65"/>
		<ellipse id="Ellipse_297" class="st15" cx="-325.23" cy="-419.16" rx="1.55" ry="1.53"/>
		<ellipse id="Ellipse_298" class="st15" cx="-318.53" cy="-419.16" rx="1.55" ry="1.53"/>
	</g>
</g>
<ellipse id="Ellipse_299" class="st16" cx="201.28" cy="65.42" rx="1.55" ry="1.53"/>
<linearGradient id="Path_3859_1_" gradientUnits="userSpaceOnUse" x1="-550.4874" y1="-102.828" x2="-551.3193" y2="-102.828" gradientTransform="matrix(101.8886 0 0 38.2408 56271.1133 4004.1782)">
	<stop  offset="0" style="stop-color:#BCBDBF"/>
	<stop  offset="0.481" style="stop-color:#EEEEEE"/>
	<stop  offset="1" style="stop-color:#9C9C9C"/>
</linearGradient>
<path id="Path_3859" class="st17" d="M98.77,56.34v25.31c0,0-0.26,4.6,4.9,5.63l71.7,0.26c0,0,6.58,0.64,6.58-4.99V56.47h-7.48
	v17.64c0,0,0.52,6.14-3.35,6.39h-59.06c0,0-5.03,0.13-5.93-3.84c-1.09-4.8,0-20.2,0-20.2S98.67,56.34,98.77,56.34z"/>
<path id="Path_3860" class="st18" d="M68.34,70.15c0,0,4.9-8.44,10.32-8.69c0,0,4.26-0.13,4-3.2c0,0-1.81-5.37-10.06-2.3
	c0,0-7.74,2.81-5.67,13.55C66.92,69.51,67.18,72.32,68.34,70.15z"/>
<ellipse id="Ellipse_300" class="st16" cx="69.63" cy="88.31" rx="2.84" ry="2.81"/>
</svg>
