<?xml version="1.0" encoding="utf-8"?>
<!-- Generator: Adobe Illustrator 24.2.3, SVG Export Plug-In . SVG Version: 6.00 Build 0)  -->
<svg version="1.1" id="Layer_1" xmlns="http://www.w3.org/2000/svg" xmlns:xlink="http://www.w3.org/1999/xlink" x="0px" y="0px"
	 viewBox="0 0 300 300" style="enable-background:new 0 0 300 300;" xml:space="preserve">
<style type="text/css">
	.st0{fill:#222B32;}
	.st1{fill:url(#Ellipse_207_1_);}
	.st2{fill:url(#Path_3692_2_);}
	.st3{fill:#9AAEBB;}
	.st4{fill:none;}
	.st5{fill:url(#Path_3695_1_);}
	.st6{opacity:0.3;fill:#F6A2A4;enable-background:new    ;}
	.st7{fill:#2E4147;}
	.st8{fill:url(#Ellipse_213_1_);stroke:#25313F;}
	.st9{fill:url(#Ellipse_215_1_);}
	.st10{opacity:0.2;}
	.st11{fill:#E5EFF5;}
</style>
<circle id="Ellipse_206" class="st0" cx="150" cy="162.35" r="137.65"/>
<radialGradient id="Ellipse_207_1_" cx="-227.3939" cy="73.4575" r="0.8398" gradientTransform="matrix(171.878 0 0 -171.878 39234.0078 12788.0859)" gradientUnits="userSpaceOnUse">
	<stop  offset="0" style="stop-color:#25313F"/>
	<stop  offset="0.724" style="stop-color:#2F3A47"/>
	<stop  offset="1" style="stop-color:#687B8E"/>
</radialGradient>
<circle id="Ellipse_207" class="st1" cx="150" cy="162.35" r="132.92"/>
<radialGradient id="Path_3692_2_" cx="-225.7096" cy="71.987" r="0.7984" gradientTransform="matrix(128.6721 0 0 -128.6275 29192.5391 9415.4648)" gradientUnits="userSpaceOnUse">
	<stop  offset="0.014" style="stop-color:#F1696A"/>
	<stop  offset="1" style="stop-color:#CB2A27"/>
</radialGradient>
<path id="Path_3692" class="st2" d="M150,56.49C91.53,56.5,44.14,103.9,44.15,162.37c0,35,17.31,67.73,46.22,87.45
	c0,0,16.67,12.3,20.06-1.24c0,0,7.44-31.79,35.85-31.79c0,0,33.14-4.06,41.26,23.67c0,0,5.41,18.94,13.53,14.2l4.06-2.03
	c31.75-18.95,51.06-53.33,50.73-90.3C255.85,103.88,208.46,56.49,150,56.49z"/>
<g id="Group_4147" transform="translate(531.973 790.381)">
	<circle id="Ellipse_208" class="st3" cx="-381.3" cy="-531.31" r="19.28"/>
</g>
<path class="st4" d="M150.5,54.3c-58.31,0-105.58,47.81-105.58,106.79c-0.08,35.21,17.16,68.21,46.11,88.24c0,0,16.63,12.4,20-1.24
	c0,0,7.42-32.07,35.76-32.07c0,0,33.06-4.09,41.15,23.88c0,0,5.4,19.11,13.49,14.33l4.05-2.05c30.81-18.65,50.6-52.13,50.6-91.1
	C256.08,102.11,208.81,54.3,150.5,54.3z"/>
<g>
	<path id="Path_3694" class="st0" d="M184.16,46h-66.97c-20.97,0-23-10.3-23-23l0,0c0-12.7,10.3-23,23-23l0,0h66.97
		c12.7,0,23,10.3,23,23l0,0C207.16,35.7,206.48,46,184.16,46z"/>
	
		<radialGradient id="Path_3695_1_" cx="-190.4184" cy="48.1533" r="1.8452" gradientTransform="matrix(20.5312 0 0 -24.1358 4060.1689 1184.6741)" gradientUnits="userSpaceOnUse">
		<stop  offset="0.014" style="stop-color:#F1696A"/>
		<stop  offset="1" style="stop-color:#CB2A27"/>
	</radialGradient>
	<path id="Path_3695" class="st5" d="M183.15,41.07h-64.94c-21.27,0.82-18.49-8.35-18.49-18.64l0,0
		c-0.04-10.25,8.23-18.6,18.48-18.64h0.01h64.94c10.25,0.04,18.53,8.38,18.49,18.63v0.01l0,0
		C201.64,32.72,203.72,41.88,183.15,41.07z"/>
</g>
<path id="Path_3692_1_" class="st6" d="M166.8,57.28C93.39,48.23,44.14,103.9,44.15,162.37c0,35,17.31,67.73,46.22,87.45
	c0,0,16.67,12.3,20.06-1.24c0,0,7.44-31.79,35.85-31.79C146.28,216.79,123.13,79.1,166.8,57.28z"/>
<g id="Group_4149" transform="translate(515.943 710.537)">
	<circle id="Ellipse_212" class="st7" cx="-365.64" cy="-550.53" r="43.7"/>
	
		<radialGradient id="Ellipse_213_1_" cx="-2789.8933" cy="-652.2493" r="1.2594" gradientTransform="matrix(38.776 0 0 -38.776 107815.2656 -25842.1484)" gradientUnits="userSpaceOnUse">
		<stop  offset="0" style="stop-color:#D5E1E7"/>
		<stop  offset="1" style="stop-color:#354651"/>
	</radialGradient>
	<circle id="Ellipse_213" class="st8" cx="-365.64" cy="-550.53" r="29.99"/>
	
		<radialGradient id="Ellipse_215_1_" cx="-2782.1675" cy="-659.059" r="1.2592" gradientTransform="matrix(28.776 0 0 -28.776 79694.0078 -19515.6094)" gradientUnits="userSpaceOnUse">
		<stop  offset="0" style="stop-color:#D5E1E7"/>
		<stop  offset="1" style="stop-color:#354651"/>
	</radialGradient>
	<circle id="Ellipse_215" class="st9" cx="-365.64" cy="-550.53" r="22.25"/>
</g>
<g id="Group_4147_1_" transform="translate(531.973 790.381)" class="st10">
	<path id="Ellipse_208_1_" class="st11" d="M-381.3-550.59c-3.23,14.87-1.93,26.75,7.79,36.92c-2.38,1.05-5.02,1.64-7.79,1.64
		c-10.65,0-19.28-8.63-19.28-19.28S-391.95-550.59-381.3-550.59z"/>
</g>
</svg>
