<svg width="48" height="50" viewBox="0 0 48 50" fill="none" xmlns="http://www.w3.org/2000/svg">
<path fill-rule="evenodd" clip-rule="evenodd" d="M17.8223 24.5545C17.8216 21.5316 19.9032 18.9288 22.794 18.3386C25.6848 17.7482 28.5797 19.3344 29.7079 22.1273C30.8364 24.9198 29.8844 28.1414 27.4337 29.8212C24.9833 31.5014 21.7171 31.1718 19.6326 29.0345C18.4738 27.8464 17.8226 26.235 17.8223 24.5545Z" stroke="white" stroke-width="3.75" stroke-linecap="round" stroke-linejoin="round"/>
<path d="M2.37624 22.1782C1.06389 22.1782 0 23.2421 0 24.5545C0 25.8668 1.06389 26.9307 2.37624 26.9307V22.1782ZM7.18289 26.9307C8.49524 26.9307 9.55913 25.8668 9.55913 24.5545C9.55913 23.2421 8.49524 22.1782 7.18289 22.1782V26.9307ZM4.80665 24.5545C4.80665 25.8668 5.87054 26.9307 7.18289 26.9307C8.49524 26.9307 9.55913 25.8668 9.55913 24.5545H4.80665ZM24 9.68238C25.3123 9.68238 26.3762 8.61849 26.3762 7.30614C26.3762 5.99379 25.3123 4.9299 24 4.9299V9.68238ZM9.55913 24.5545C9.55913 23.2421 8.49524 22.1782 7.18289 22.1782C5.87054 22.1782 4.80665 23.2421 4.80665 24.5545H9.55913ZM24 44.179C25.3123 44.179 26.3762 43.1151 26.3762 41.8028C26.3762 40.4905 25.3123 39.4265 24 39.4265V44.179ZM7.18289 22.1782C5.87054 22.1782 4.80665 23.2421 4.80665 24.5545C4.80665 25.8668 5.87054 26.9307 7.18289 26.9307V22.1782ZM11.9864 26.9307C13.2988 26.9307 14.3627 25.8668 14.3627 24.5545C14.3627 23.2421 13.2988 22.1782 11.9864 22.1782V26.9307ZM21.6238 7.30614C21.6238 8.61849 22.6877 9.68238 24 9.68238C25.3123 9.68238 26.3762 8.61849 26.3762 7.30614H21.6238ZM26.3762 2.37624C26.3762 1.06389 25.3123 0 24 0C22.6877 0 21.6238 1.06389 21.6238 2.37624H26.3762ZM26.3762 7.30614C26.3762 5.99379 25.3123 4.9299 24 4.9299C22.6877 4.9299 21.6238 5.99379 21.6238 7.30614H26.3762ZM21.6238 12.2329C21.6238 13.5452 22.6877 14.6091 24 14.6091C25.3123 14.6091 26.3762 13.5452 26.3762 12.2329H21.6238ZM24 4.9299C22.6877 4.9299 21.6238 5.99379 21.6238 7.30614C21.6238 8.61849 22.6877 9.68238 24 9.68238V4.9299ZM38.4409 24.5545C38.4409 25.8668 39.5048 26.9307 40.8171 26.9307C42.1294 26.9307 43.1933 25.8668 43.1933 24.5545H38.4409ZM21.6238 46.7327C21.6238 48.045 22.6877 49.1089 24 49.1089C25.3123 49.1089 26.3762 48.045 26.3762 46.7327H21.6238ZM26.3762 41.8028C26.3762 40.4905 25.3123 39.4265 24 39.4265C22.6877 39.4265 21.6238 40.4905 21.6238 41.8028H26.3762ZM21.6238 41.8028C21.6238 43.1151 22.6877 44.179 24 44.179C25.3123 44.179 26.3762 43.1151 26.3762 41.8028H21.6238ZM26.3762 36.876C26.3762 35.5637 25.3123 34.4998 24 34.4998C22.6877 34.4998 21.6238 35.5637 21.6238 36.876H26.3762ZM24 39.4265C22.6877 39.4265 21.6238 40.4905 21.6238 41.8028C21.6238 43.1151 22.6877 44.179 24 44.179V39.4265ZM43.1933 24.5545C43.193 23.2421 42.1291 22.1779 40.8168 22.1782C39.5045 22.1785 38.4406 23.2421 38.4409 24.5545H43.1933ZM45.6238 26.9307C46.9361 26.9307 48 25.8668 48 24.5545C48 23.2421 46.9361 22.1782 45.6238 22.1782V26.9307ZM40.8168 22.1782C39.5045 22.1785 38.4406 23.2421 38.4409 24.5545C38.4409 25.8668 39.5048 26.9307 40.8171 26.9307L40.8168 22.1782ZM40.8171 26.9307C42.1294 26.9307 43.1933 25.8668 43.1933 24.5545C43.193 23.2421 42.1291 22.1779 40.8168 22.1782L40.8171 26.9307ZM36.0136 22.1782C34.7013 22.1782 33.6374 23.2421 33.6374 24.5545C33.6374 25.8668 34.7013 26.9307 36.0136 26.9307V22.1782ZM2.37624 26.9307H7.18289V22.1782H2.37624V26.9307ZM9.55913 24.5545C9.55913 16.2838 16.0809 9.68238 24 9.68238V4.9299C13.3435 4.9299 4.80665 13.7732 4.80665 24.5545H9.55913ZM4.80665 24.5545C4.80665 35.3356 13.3435 44.179 24 44.179V39.4265C16.0809 39.4265 9.55913 32.825 9.55913 24.5545H4.80665ZM7.18289 26.9307H11.9864V22.1782H7.18289V26.9307ZM26.3762 7.30614V2.37624H21.6238V7.30614H26.3762ZM21.6238 7.30614V12.2329H26.3762V7.30614H21.6238ZM24 9.68238C27.8102 9.68238 31.4769 11.2343 34.1903 14.0169L37.593 10.6992C33.9983 7.0125 29.1102 4.9299 24 4.9299V9.68238ZM34.1903 14.0169C36.9052 16.8016 38.4409 20.5909 38.4409 24.5545H43.1933C43.1933 19.3689 41.1856 14.3839 37.593 10.6992L34.1903 14.0169ZM26.3762 46.7327V41.8028H21.6238V46.7327H26.3762ZM26.3762 41.8028V36.876H21.6238V41.8028H26.3762ZM24 44.179C29.1108 44.179 33.9995 42.099 37.594 38.4117L34.1909 35.0942C31.4779 37.8775 27.8109 39.4265 24 39.4265V44.179ZM37.594 38.4117C41.1869 34.726 43.1943 29.7407 43.1933 24.5545H38.4409C38.4415 28.5187 36.9061 32.3089 34.1909 35.0942L37.594 38.4117ZM45.6238 22.1782H40.8168L40.8171 26.9307H45.6238V22.1782ZM40.8168 22.1782H36.0136V26.9307H40.8171L40.8168 22.1782Z" fill="white"/>
</svg>
