<svg width="62" height="62" viewBox="0 0 62 62" fill="none" xmlns="http://www.w3.org/2000/svg">
<path d="M37.1587 30.9902C45.5888 30.9902 52.4461 24.2267 52.4461 15.9134C52.4461 7.60015 45.5888 0.83667 37.1587 0.83667C28.7286 0.83667 21.8701 7.60015 21.8701 15.9134C21.8701 24.2267 28.7286 30.9902 37.1587 30.9902ZM35.3481 7.0514V6.64193C35.3481 5.65514 36.1581 4.85643 37.1587 4.85643C38.1582 4.85643 38.9693 5.65514 38.9693 6.64193V7.05378C41.1239 7.50968 42.745 9.40231 42.745 11.6616C42.745 12.6472 41.9338 13.4471 40.9344 13.4471C39.9337 13.4471 39.1238 12.6472 39.1238 11.6616C39.1238 11.0319 38.6036 10.5188 37.965 10.5188H36.3415C35.703 10.5188 35.1828 11.0319 35.1828 11.6616C35.1828 12.0222 35.3578 12.365 35.6523 12.5793L37.1587 13.6792L40.8185 16.3503C42.0207 17.2276 42.745 18.631 42.7546 20.107V20.1236C42.7631 21.383 42.2742 22.571 41.3762 23.4673C40.7099 24.1327 39.877 24.5791 38.9693 24.7671V25.1849C38.9693 26.1717 38.1582 26.9704 37.1587 26.9704C36.1581 26.9704 35.3481 26.1717 35.3481 25.1849V24.7731C34.4646 24.5874 33.6522 24.1589 32.9956 23.5185C32.0867 22.6341 31.5821 21.4532 31.5749 20.1939C31.5688 19.2083 32.3739 18.4036 33.3734 18.3977H33.3855C34.3801 18.3977 35.19 19.1904 35.196 20.1724C35.1985 20.7887 35.7012 21.308 36.3609 21.308C37.3613 21.3021 36.9886 21.3042 37.9819 21.2985C38.6246 21.2935 39.1384 20.7792 39.1335 20.1474V20.1308C39.1311 19.7737 38.956 19.4333 38.6639 19.2202L37.1587 18.1215L33.4977 15.4504C32.2858 14.5648 31.5616 13.1483 31.5616 11.6616C31.5616 9.39755 33.1875 7.50373 35.3481 7.0514Z" fill="#062C44"/>
<path d="M12.3876 39.5691C11.9235 38.7756 10.8926 38.4996 10.083 38.9601L1.56625 43.8083C0.759811 44.2686 0.483153 45.2858 0.948716 46.0821L9.65329 60.9496C10.1192 61.7446 11.15 62.0177 11.9579 61.5586L20.4747 56.7092C21.2823 56.2499 21.5579 55.2328 21.0922 54.4365L12.3876 39.5691Z" fill="#062C44"/>
<path d="M61.1873 36.6015C60.3677 35.479 58.7816 35.2255 57.6446 36.0337C54.1948 38.4846 47.5704 43.1912 47.0442 43.5662C46.8016 43.7697 46.5469 43.9542 46.2813 44.1173C45.2396 44.7636 44.0314 45.1088 42.77 45.1088H34.0973C33.0978 45.1088 32.2867 44.3101 32.2867 43.3233C32.2867 42.3354 33.099 41.5378 34.0973 41.5378H43.3723C44.7351 41.5378 45.8262 40.4189 45.7695 39.0727C45.7164 37.7954 44.6107 36.8051 43.3144 36.8051H36.2543C35.7763 36.3063 35.2524 35.8492 34.6911 35.4409C32.7611 34.0375 30.3759 33.2079 27.794 33.2079C23.2036 33.2079 18.6361 36.0599 16.7422 39.8666L24.1487 52.5163H38.0419C40.7699 52.5163 43.4568 51.8283 45.8214 50.4868C46.641 50.0225 47.5185 49.4643 48.4697 48.7905C52.4554 45.9671 60.6043 40.1011 60.6103 40.0975C61.7498 39.2905 62.0081 37.724 61.1873 36.6015Z" fill="#062C44"/>
</svg>
