<svg width="62" height="62" viewBox="0 0 62 62" fill="none" xmlns="http://www.w3.org/2000/svg">
<path d="M49.2834 35.2765C50.2168 34.4106 51.2622 33.73 52.3828 33.2492V19.8122L36.1562 11.0663L19.9297 19.8122V32.9475C21.2791 32.9946 27.8712 32.8164 29.0693 33.0947V24.9976H43.2431V40.8777L49.2834 35.2765Z" fill="#062C44"/>
<path d="M38.1434 42.4171H39.6668C39.6668 42.3957 39.6668 28.7072 39.6668 28.6771H32.6455V34.3801C35.5125 36.0297 37.5914 38.9622 38.1434 42.4171Z" fill="#062C44"/>
<path d="M18.1427 16.6223C23.0076 13.9998 31.3003 9.53179 36.1573 6.91368C42.7702 10.4778 51.6597 15.268 58.2453 18.8176V12.7406C56.1397 11.6061 51.9564 9.3515 49.8066 8.19287C49.8066 6.6208 49.8066 4.3737 49.8066 2.80752C48.9824 2.80752 47.0325 2.80752 46.2304 2.80752V6.26489L36.1573 0.836609C33.7099 2.15566 16.0324 11.683 14.0693 12.7406V18.8176C15.0741 18.2763 17.1489 17.1582 18.1427 16.6223Z" fill="#062C44"/>
<path d="M57.1361 36.0959C55.1511 35.9283 53.1491 36.6288 51.6764 38.0104C49.208 40.3 45.3937 43.8358 42.9564 46.0964C37.0039 46.0964 28.1694 46.0964 22.2119 46.0964C22.2119 45.0926 22.2119 43.423 22.2119 42.4171H34.4938C33.7126 39.0668 30.6396 36.5906 27.2949 36.627C23.2864 36.6284 17.0945 36.6259 13.1402 36.627L9.5127 39.958V57.3283L17.0514 52.7352H45.0091C49.6168 48.3938 56.4689 41.9401 61.0402 37.6327C59.9244 36.7447 58.5821 36.2112 57.1361 36.0959Z" fill="#062C44"/>
<path d="M0.0957031 61.7816H5.93688V36.6271H0.0957031V61.7816Z" fill="#062C44"/>
</svg>
