<?xml version="1.0" encoding="utf-8"?>
<!-- Generator: Adobe Illustrator 24.2.3, SVG Export Plug-In . SVG Version: 6.00 Build 0)  -->
<svg version="1.1" id="Layer_1" xmlns="http://www.w3.org/2000/svg" xmlns:xlink="http://www.w3.org/1999/xlink" x="0px" y="0px"
	 viewBox="0 0 300 741.2" style="enable-background:new 0 0 300 741.2;" xml:space="preserve">
<style type="text/css">
	.st0{fill:url(#Path_2815-2_1_);}
	.st1{fill:url(#Path_2768_1_);}
	.st2{fill:url(#Path_2769_1_);}
	.st3{fill:#EBEBEB;}
	.st4{fill:#FFFFFF;}
	.st5{fill:#00384B;}
	.st6{fill:#F2F2F3;}
	.st7{fill:#2B5766;}
	.st8{fill:#356D81;}
	.st9{fill:url(#Path_2779_1_);}
	.st10{fill:url(#Path_2780_1_);}
	.st11{fill:url(#Path_2781_1_);}
	.st12{fill:url(#Path_2782_1_);}
	.st13{fill:url(#Path_2783_1_);}
	.st14{fill:#595A5A;}
	.st15{fill:url(#Path_2786_1_);}
	.st16{fill:#0A0A0B;}
	.st17{fill:url(#Rectangle_20159_1_);}
	.st18{fill:url(#Rectangle_20160_1_);}
	.st19{fill:url(#Path_2788_1_);}
	.st20{fill:url(#Path_2789_1_);}
	.st21{fill:url(#Path_2791_1_);}
	.st22{fill:url(#Path_2792_1_);}
	.st23{fill:url(#Path_2794_1_);}
	.st24{fill:url(#Path_2795_1_);}
	.st25{fill:url(#Path_2797_1_);}
	.st26{fill:url(#Path_2798_1_);}
	.st27{fill:url(#Path_2799_1_);}
	.st28{fill:url(#Path_2800_1_);}
	.st29{fill:url(#Path_2801_1_);}
	.st30{fill:#C2C2C1;}
	.st31{fill:url(#Path_2803_1_);}
	.st32{fill:url(#Path_2804_1_);}
	.st33{fill:url(#Path_2805_1_);}
	.st34{fill:url(#Path_2806_1_);}
	.st35{fill:#9B9B9B;}
	.st36{fill:url(#Path_2808_1_);}
	.st37{fill:url(#Path_2809_1_);}
	.st38{fill:url(#Path_2810_1_);}
	.st39{fill:#D04B4B;}
	.st40{fill:#F6A84B;}
	.st41{opacity:0.8;fill:#356D81;enable-background:new    ;}
	.st42{fill:#F26B77;}
	.st43{fill:#EC5A66;}
	.st44{clip-path:url(#SVGID_2_);}
	.st45{fill:#AE2425;}
	.st46{fill:#E6E3DE;}
	.st47{fill:#06314E;}
	.st48{clip-path:url(#SVGID_4_);}
	.st49{fill:#8293A0;}
	.st50{clip-path:url(#SVGID_6_);}
	.st51{clip-path:url(#SVGID_8_);}
	.st52{clip-path:url(#SVGID_10_);}
	.st53{fill:#E3E5DA;}
	.st54{fill:#EADFDD;}
	.st55{fill:#EAEAEA;}
	.st56{fill:#2D86A5;}
	.st57{clip-path:url(#SVGID_12_);}
	.st58{fill:#296277;}
	.st59{clip-path:url(#SVGID_14_);}
	.st60{fill:#FCF8F7;}
	.st61{fill:#E7E3E4;}
	.st62{fill:none;stroke:#06314E;stroke-width:3;stroke-linecap:round;stroke-miterlimit:10;}
	.st63{fill:#929FB1;}
	.st64{fill:#E8ECEE;}
	.st65{fill:#ED1C24;}
	.st66{fill:#F15959;}
	.st67{opacity:0.5;fill:#A2ADAF;enable-background:new    ;}
	.st68{clip-path:url(#SVGID_16_);}
	.st69{fill:#059DD1;}
	.st70{fill:#33ACE2;}
	.st71{opacity:0.8;fill:#39C6F4;enable-background:new    ;}
	.st72{fill:#061C23;}
	.st73{opacity:0.52;fill:#296277;enable-background:new    ;}
	.st74{opacity:0.7;fill:#2B5766;enable-background:new    ;}
	.st75{opacity:0.3;fill:#296277;enable-background:new    ;}
	.st76{fill:#1E4E5D;}
	.st77{clip-path:url(#SVGID_18_);}
	.st78{fill:#CBE3EA;}
	.st79{clip-path:url(#SVGID_20_);}
	.st80{fill:#AF2E2B;}
	.st81{fill:#2CB7EA;}
	.st82{clip-path:url(#SVGID_22_);}
	.st83{fill:#2697D4;}
	.st84{clip-path:url(#SVGID_24_);}
	.st85{opacity:0.7;fill:#39C6F4;enable-background:new    ;}
	.st86{fill:#343C43;}
	.st87{fill:none;stroke:#1A1F23;stroke-width:0.5;stroke-linecap:round;stroke-miterlimit:10;}
	.st88{fill:#BEBEC0;}
	.st89{fill:#C1C1C5;}
	.st90{fill:#E6E7E9;}
	.st91{fill:#181415;}
	.st92{fill:#004D65;}
	.st93{fill:#00364D;}
	.st94{fill:#F3F3F1;}
	.st95{fill:#242021;}
	.st96{fill:#D2D3D5;}
	.st97{clip-path:url(#SVGID_26_);}
	.st98{clip-path:url(#SVGID_28_);}
	.st99{clip-path:url(#SVGID_30_);}
	.st100{fill:#BEBFC1;}
	.st101{fill:#0C151A;}
	.st102{fill:#E86255;}
	.st103{fill:#010101;}
	.st104{fill:#065E7B;}
	.st105{fill:#F5B4D1;stroke:#CE2527;stroke-width:0.5;stroke-miterlimit:10;}
	.st106{fill:#F3766B;}
	.st107{fill:#CE2527;}
	.st108{fill:#171314;}
	.st109{fill:#AE1F24;}
	.st110{clip-path:url(#SVGID_32_);}
	.st111{fill:#096E8E;}
	.st112{clip-path:url(#SVGID_34_);}
	.st113{fill:#E9DCE6;}
	.st114{fill:none;stroke:#CE2527;stroke-width:0.5;stroke-linecap:round;stroke-miterlimit:10;}
	.st115{clip-path:url(#SVGID_36_);}
	.st116{fill:#F4858F;}
	.st117{clip-path:url(#SVGID_38_);}
	.st118{fill:#D7CDD5;}
	.st119{clip-path:url(#SVGID_40_);}
	.st120{opacity:0.2;fill:#A21D21;enable-background:new    ;}
	.st121{opacity:0.3;fill:#991B1F;enable-background:new    ;}
	.st122{fill:#050203;}
	.st123{clip-path:url(#SVGID_42_);}
	.st124{clip-path:url(#SVGID_44_);}
	.st125{fill:#F5B4D1;}
	.st126{fill:url(#Path_3060_2_);}
	.st127{fill:url(#Path_3061_2_);}
	.st128{fill:#2E2E2E;}
	.st129{fill:#BD202E;}
	.st130{fill:#DCDBDB;}
	.st131{fill:#F6F6F6;}
	.st132{fill:url(#Path_3069_2_);}
	.st133{fill:#094F66;}
	.st134{fill:#848585;}
	.st135{fill:url(#Path_3079_2_);}
	.st136{fill:url(#Path_3080_2_);}
	.st137{fill:url(#Path_3081_2_);}
	.st138{fill:url(#Path_3082_2_);}
	.st139{fill:url(#Path_3083_2_);}
	.st140{fill:url(#Path_3084_2_);}
	.st141{fill:url(#Path_3085_2_);}
	.st142{fill:url(#Path_3086_2_);}
	.st143{fill:#7B7B7B;}
	.st144{fill:#49A9C9;}
	.st145{fill:none;}
	.st146{fill:#00253A;}
	.st147{opacity:0.49;fill:#DCDBDB;enable-background:new    ;}
	.st148{fill:#DFE0D5;}
	.st149{fill:#333333;}
	.st150{fill:#F6F8EB;}
	.st151{opacity:0.2;fill:url(#Path_6732_1_);enable-background:new    ;}
	.st152{fill:#EFEFEA;}
	.st153{fill:#CCCCCB;}
	.st154{opacity:0.5;fill:url(#Path_6742_1_);enable-background:new    ;}
	.st155{opacity:0.3;fill:url(#Path_6743_1_);enable-background:new    ;}
	.st156{opacity:0.3;fill:url(#Path_6744_1_);enable-background:new    ;}
	.st157{fill:#666766;}
	.st158{fill:#F26722;}
	.st159{fill:#E0F2F6;}
	.st160{fill:#F7F7F7;}
	.st161{fill:url(#Path_6755_1_);}
	.st162{fill:#676B86;}
	.st163{opacity:0.2;enable-background:new    ;}
	.st164{opacity:0.5;fill:url(#Path_6770_1_);enable-background:new    ;}
	.st165{opacity:0.3;fill:url(#Path_6771_1_);enable-background:new    ;}
	.st166{opacity:0.4;enable-background:new    ;}
	.st167{opacity:0.5;fill:url(#Path_6777_1_);enable-background:new    ;}
	.st168{opacity:0.3;fill:url(#Path_6778_1_);enable-background:new    ;}
	.st169{fill:url(#Path_6780_1_);}
	.st170{fill:#CB2026;}
	.st171{fill:url(#Path_6782_1_);}
	.st172{opacity:0.3;fill:#640D0D;enable-background:new    ;}
	.st173{opacity:0.5;fill:#EF3C23;enable-background:new    ;}
	.st174{fill:url(#Path_6786_1_);}
	.st175{fill:url(#Path_6788_1_);}
	.st176{fill:url(#Path_6792_1_);}
	.st177{fill:url(#Path_6794_1_);}
	.st178{opacity:0.5;fill:url(#Path_6798_1_);enable-background:new    ;}
	.st179{opacity:0.3;fill:url(#Path_6799_1_);enable-background:new    ;}
	.st180{opacity:0.4;fill:url(#Path_6801_1_);enable-background:new    ;}
	.st181{opacity:0.4;fill:url(#Path_6803_1_);enable-background:new    ;}
	.st182{fill:url(#Path_6805_1_);}
	.st183{opacity:0.5;fill:url(#Path_6809_1_);enable-background:new    ;}
	.st184{opacity:0.3;fill:url(#Path_6810_1_);enable-background:new    ;}
	.st185{opacity:0.4;fill:url(#Path_6812_1_);enable-background:new    ;}
	.st186{opacity:0.4;fill:url(#Path_6814_1_);enable-background:new    ;}
</style>
<g id="Group_3773" transform="translate(-2295.193 -54.069)">
	<g transform="matrix(1, 0, 0, 1, 2295.19, 54.07)">
		<path id="Path_2970-2" class="st69" d="M15.6,204.5V96.1c-0.6-2.4,0.2-4.9,2.1-6.4c0,0,3.6-1.6,3.6-8c0,0,8.3-51,66.4-71.2
			c0,0,8.3-5.3,35.3-8.5c0,0,63.3-9.6,102.7,13.8c0,0,40.5,19.1,50.8,60.6c0,0,2.1,10.6,6.2,13.8c1.8,13,2.8,26.2,3.1,39.3l-1,65.9
			l-1,65.9l2.1,180.6l1,175.3l-1,11.7l-1,6.4c-3.7,8-5.9,16.7-6.2,25.5c0,0-3.1,63.7-42.5,70.1c0,0-63.3,19.1-154.6,5.3
			c0,0-43.6-3.2-52.9-40.4l-8.3-38.2l-4.2-22.3c0,0-3.1-2.1-3.1-18.1l-2.1-78.6c0,0,2.1-41.4,2.1-65.9l3.1-257.1L15.6,204.5z"/>
	</g>
	<g id="Group_3772" transform="translate(1794 27.497)">
		<g id="Group_3770" transform="translate(506 32.572)">
			<path id="Path_2934" class="st69" d="M10.8,198.5V90.1c-0.6-2.4,0.2-4.9,2.1-6.4c0,0,3.6-1.6,3.6-8c0,0,8.3-51,66.4-71.2
				c0,0,8.3-5.3,35.3-8.5c0,0,63.3-9.6,102.7,13.8c0,0,40.5,19.1,50.8,60.6c0,0,2.1,10.6,6.2,13.8c1.8,13,2.8,26.2,3.1,39.3l-1,65.9
				l-1,65.9l2.1,180.6l1,175.3l-1,11.7l-1,6.4c-3.7,8-5.9,16.7-6.2,25.5c0,0-3.1,63.7-42.5,70.1c0,0-63.3,19.1-154.6,5.3
				c0,0-43.6-3.2-52.9-40.4l-8.3-38.2l-4.2-22.3c0,0-3.1-2.1-3.1-18.1l-2.1-78.6c0,0,2.1-41.4,2.1-65.9l3.1-257.1L10.8,198.5z"/>
			<path id="Path_2935" class="st70" d="M73.5,704.7c0,0,98.6,18.1,160.8-5.3c0,0,27-8.5,29.1-35.1c0,0,1-15.9,2.1-22.3
				c3.2-14.7,4.9-29.6,5.2-44.6l4.2-136l-2.1-289l-4.2-90.3c0,0-16.6-53.1-57.1-69.1c0,0-111-27.6-166.5,30.3
				c0,0-22.3,16.5-23.3,51.5l-5.2,117.9l-2.1,134.9l2.1,160.4l4.2,123.2c0,0,2.1,48.9,23.9,61.6C53.3,698.9,63.2,702.9,73.5,704.7z"
				/>
			<path id="Path_2936" class="st71" d="M33.1,218.1c0,0,18.7-148.7,33.2-176.3c0,0,7.4-34.2,41.6-43.7c0,0,75.7-11.6,101.6,10.7
				c0,0,12.4,9.6,23.9,64.8l21.8,144.5C255.1,218.1,158.6,156.5,33.1,218.1z"/>
			<path id="Path_2937" class="st5" d="M263.4,228.8c0,0-23.9,82.9-27,116.9c0,0-6.2,71.2-2.1,111.5c0,0,3.1,51,6.2,75.4l9.3,70.1
				c0,0,3.1,21.2,7.3-2.1c4.2-23.4,5.2-109.4,5.2-109.4l2.1-145.5L263.4,228.8z"/>
			<path id="Path_2939" class="st72" d="M233,400l31.1-15.2l-0.7,24.4l-30.9,7.5L233,400z"/>
			<path id="Path_2940" class="st72" d="M261.4,533l-23.6-26.8l1.2,10.9l22,24.6L261.4,533z"/>
			<path id="Path_2938" class="st73" d="M241.1,313.2c0,0,4.2,83.9,4.2,120c0,0-2,87.6-4.1,104.3c0,0-12.5-105.4-7.3-156.4
				C233.8,381.2,235.9,327,241.1,313.2z"/>
			<g id="Group_3755" transform="translate(11.486 87.986)">
				<path id="Path_2941" class="st5" d="M14.8,140.8c0,0,23.9,82.9,27,116.9c0,0,6.2,71.2,2.1,111.5c0,0-3.1,51-6.2,75.4l-9.3,70.1
					c0,0-3.1,21.2-7.3-2.1c-4.2-23.4-5.2-109.4-5.2-109.4l-2.1-145.5L14.8,140.8z"/>
				<path id="Path_2942" class="st72" d="M45.2,312l-30.9-14.7l0.5,23.9l30.5,7.6L45.2,312z"/>
				<path id="Path_2943" class="st72" d="M16.8,445.1l23.6-25.8l-1.1,10l-22,24.6L16.8,445.1z"/>
			</g>
			<g id="Group_3756" transform="translate(14.777 73.471)">
				<path id="Path_2945" class="st5" d="M40.6,240.8l-21.8-95.6c0,0,105.8-62.7,222,0l-21.3,96.1C219.6,241.3,145.9,219,40.6,240.8z
					"/>
				<path id="Path_2946" class="st74" d="M28.9,188.9c0,0,164.2,10.5,200.5,3l11.4-47.8c0,0-96.5-62.7-222,1.1L28.9,188.9z"/>
				<path id="Path_2947" class="st75" d="M129.6,117.8c0,0,22,88.3,18.6,113.9c0,0,59.9,1.2,71.4,9.6l20.7-96.7
					C240.3,144.7,207.7,116.4,129.6,117.8z"/>
			</g>
			<g id="Group_3757" transform="translate(23.363 203.335)">
				<path id="Path_2948" class="st5" d="M39.8,334.6c0,0,101.7,18.1,162.9-1.1l8.3,105.2c0,0-83,35.1-178.5-1.1L39.8,334.6z"/>
				<path id="Path_2949" class="st76" d="M135.1,342.1c0,0-5.3,92.4-15.3,111.2c0,0,68.9,0.7,90.7-15.2L202.2,333
					C202.2,333,175.9,341.7,135.1,342.1z"/>
			</g>
			<g id="Group_3760" transform="translate(10.8 9.108)">
				<path id="Path_2950" class="st4" d="M14.4,65c0,0-6.6-9,4.8-22.8c0,0,15.6-21.2,37.4-30.8c0,0,11.3-6.6,7.7,3.6
					c0,0,0.6,3.8-12.9,11.3C51.3,26.3,26.2,43.2,14.4,65z"/>
				<g id="Group_3759">
					<g>
						<defs>
							<path id="SVGID_17_" d="M14.4,65c0,0-6.6-9,4.8-22.8c0,0,15.6-21.2,37.4-30.8c0,0,11.3-6.6,7.7,3.6c0,0,0.6,3.8-12.9,11.3
								C51.3,26.3,26.2,43.2,14.4,65z"/>
						</defs>
						<clipPath id="SVGID_2_">
							<use xlink:href="#SVGID_17_"  style="overflow:visible;"/>
						</clipPath>
						<g id="Group_3758" class="st44">
							<path id="Path_2951" class="st78" d="M11.9,59.2c0,0,20.7-39.3,54-46.7c0,0,0-6.4-9.3-2.1c0,0-26.4,15-35,28.8
								C21.5,39.1,11.9,49.7,11.9,59.2z"/>
						</g>
					</g>
				</g>
			</g>
			<g id="Group_3763" transform="translate(84.284 9.108)">
				<path id="Path_2953" class="st4" d="M180.4,65c0,0,6.6-9-4.8-22.8c0,0-15.6-21.2-37.4-30.8c0,0-11.3-6.6-7.7,3.6
					c0,0-0.6,3.8,12.9,11.3C143.5,26.3,168.6,43.2,180.4,65z"/>
				<g id="Group_3762">
					<g>
						<defs>
							<path id="SVGID_19_" d="M180.4,65c0,0,6.6-9-4.8-22.8c0,0-15.6-21.2-37.4-30.8c0,0-11.3-6.6-7.7,3.6c0,0-0.6,3.8,12.9,11.3
								C143.5,26.3,168.6,43.2,180.4,65z"/>
						</defs>
						<clipPath id="SVGID_4_">
							<use xlink:href="#SVGID_19_"  style="overflow:visible;"/>
						</clipPath>
						<g id="Group_3761" class="st48">
							<path id="Path_2954" class="st78" d="M182.9,59.2c0,0-20.7-39.3-54-46.7c0,0,0-6.4,9.3-2.1c0,0,26.4,15,35,28.8
								C173.3,39.1,182.9,49.7,182.9,59.2z"/>
						</g>
					</g>
				</g>
			</g>
			<path id="Path_2956" class="st80" d="M224,712.1c9.7-2.1,18.7-6.9,25.9-13.8c4.2-6.2,7.4-13.1,9.4-20.3c0,0,5.1-5.2,4.1,5.5
				c0,0-3.1,17-17.6,25.5c0,0-6.2,5.3-20.7,8.5C225,717.4,216.7,717.4,224,712.1z"/>
			<path id="Path_2957" class="st80" d="M65.5,712.1c-9.7-2.1-18.7-6.9-25.9-13.8c-4.2-6.2-7.4-13.1-9.4-20.3c0,0-5.1-5.2-4.1,5.5
				c0,0,3.1,17,17.6,25.5c0,0,6.2,5.3,20.7,8.5C64.5,717.4,72.8,717.4,65.5,712.1z"/>
			<g id="Group_3766" transform="translate(103.036 95.242)">
				<path id="Path_2958" class="st81" d="M160.8,152.9c9.6,3.5,18.6,8.2,27,14.1c0,0,5.2,3.2,4.2,11.7l-32.2-13.8L160.8,152.9z"/>
				<g id="Group_3765">
					<g>
						<defs>
							<path id="SVGID_21_" d="M160.8,152.9c9.6,3.5,18.6,8.2,27,14.1c0,0,5.2,3.2,4.2,11.7l-32.2-13.8L160.8,152.9z"/>
						</defs>
						<clipPath id="SVGID_6_">
							<use xlink:href="#SVGID_21_"  style="overflow:visible;"/>
						</clipPath>
						<g id="Group_3764" class="st50">
							<path id="Path_2959" class="st83" d="M160.4,159c11.5,2.7,22.3,8.1,31.3,16l6-13.8l-40.2-14.8l-5.5,11.6L160.4,159z"/>
						</g>
					</g>
				</g>
			</g>
			<g id="Group_3769" transform="translate(0 95.242)">
				<path id="Path_2961" class="st81" d="M26.5,152.9c-9.6,3.5-18.6,8.2-27,14.1c0,0-5.2,3.2-4.2,11.7l32.2-13.8L26.5,152.9z"/>
				<g id="Group_3768">
					<g>
						<defs>
							<path id="SVGID_23_" d="M26.5,152.9c-9.6,3.5-18.6,8.2-27,14.1c0,0-5.2,3.2-4.2,11.7l32.2-13.8L26.5,152.9z"/>
						</defs>
						<clipPath id="SVGID_8_">
							<use xlink:href="#SVGID_23_"  style="overflow:visible;"/>
						</clipPath>
						<g id="Group_3767" class="st51">
							<path id="Path_2962" class="st83" d="M27,159c-11.5,2.7-22.3,8.1-31.3,16l-6-13.8l40.2-14.8l5.5,11.6L27,159z"/>
						</g>
					</g>
				</g>
			</g>
			<path id="Path_2964" class="st85" d="M58.5,321.7c0,0,105.8-25.5,170.2,4.2c0,0-19.7,100.9,1,198.7c0,0-82,15.9-166,0
				C63.7,524.6,76.1,350.4,58.5,321.7z"/>
		</g>
		<g id="Group_3771" transform="translate(543.072 32.503)">
			<path id="Path_2965" class="st4" d="M66.8-1.8c0,0-11.2,4.9-12.2,12.4c0,0-2.6,6.9,11.9,5.8c0,0,77.8,0,89.2,1.1
				c0,0,11.4-1.1,4.2-10.6c0,0-1-4.2-11.4-9.6C148.5-2.7,105.5-10.5,66.8-1.8z"/>
			<path id="Path_2966" class="st86" d="M70.7-2.9c0,0-10.1,3.7-11.1,9.3c0,0-2.4,5.2,10.8,4.4c0,0,70.6,0,80.9,0.8
				c0,0,10.4-0.8,3.8-8c0,0-0.9-3.2-10.4-7.2C144.8-3.5,105.7-9.3,70.7-2.9z"/>
			<path id="Path_2967" class="st87" d="M71.2-0.1c24.8-3.1,49.9-3.1,74.7,0"/>
			<path id="Path_2968" class="st87" d="M64,4.4c28.9-3.6,58.2-3.6,87.2,0"/>
			<path id="Path_2969" class="st87" d="M61.9,8.3c31.1-2.7,62.3-2.7,93.4,0"/>
		</g>
	</g>
</g>
</svg>
