<?xml version="1.0" encoding="utf-8"?>
<!-- Generator: Adobe Illustrator 24.2.3, SVG Export Plug-In . SVG Version: 6.00 Build 0)  -->
<svg version="1.1" id="Layer_1" xmlns="http://www.w3.org/2000/svg" xmlns:xlink="http://www.w3.org/1999/xlink" x="0px" y="0px"
	 viewBox="0 0 300 778.4" style="enable-background:new 0 0 300 778.4;" xml:space="preserve">
<style type="text/css">
	.st0{fill:#FAA859;}
	.st1{fill:#EF4849;}
	.st2{fill:#ED2324;}
	.st3{fill:#F48182;}
	.st4{fill:#00364D;}
	.st5{fill:#BD202E;}
	.st6{opacity:0.4;}
	.st7{fill:#02566E;}
	.st8{opacity:0.4;enable-background:new    ;}
	.st9{fill:#FFFAF1;}
	.st10{opacity:0.65;fill:url(#Rectangle_24586_2_);enable-background:new    ;}
	.st11{fill:#FEC769;}
	.st12{fill:#4EC9F5;}
	.st13{fill:#F15A2A;}
	.st14{fill:#4A1210;}
	.st15{opacity:0.3;}
	.st16{fill:#FFFFFF;}
	.st17{fill:#C1C1C5;}
	.st18{fill:url(#Path_2973_1_);}
	.st19{fill:url(#Path_2974_1_);}
	.st20{fill:#181415;}
	.st21{fill:#004D65;}
	.st22{fill:#00384B;}
	.st23{fill:#FFDD68;}
	.st24{fill:#FDCE2E;}
	.st25{fill:#242021;}
	.st26{clip-path:url(#SVGID_2_);}
	.st27{fill:#0C151A;}
	.st28{fill:#FEDE54;}
	.st29{fill:#505051;}
	.st30{fill:url(#Path_2823_1_);}
	.st31{fill:#E3BD22;}
	.st32{opacity:0.2;fill:#D0D2D3;enable-background:new    ;}
	.st33{opacity:0.1;fill:#FBCED0;enable-background:new    ;}
	.st34{opacity:0.3;fill:#FEF8E2;enable-background:new    ;}
	.st35{fill:url(#Path_2833_1_);}
	.st36{fill:#221F1F;}
	.st37{fill:#C92127;}
	.st38{fill:#D6A029;}
	.st39{fill:#152426;}
	.st40{fill:url(#Path_2845_1_);}
	.st41{fill:#3CB39E;}
	.st42{opacity:0.4;fill:#7BCCC3;enable-background:new    ;}
	.st43{opacity:0.81;fill:#55C1AF;enable-background:new    ;}
	.st44{fill:#59C2AF;}
	.st45{fill:#158772;}
	.st46{fill:#228E79;}
	.st47{fill:#1C1D1D;}
	.st48{fill:url(#Path_2652_1_);}
	.st49{opacity:0.3;fill:#D1EDF3;enable-background:new    ;}
	.st50{fill:#3ABBA2;}
	.st51{fill:#424143;}
	.st52{fill:none;}
	.st53{fill:#ED2024;}
	.st54{fill:#EF3E3D;}
	.st55{fill:url(#Path_2679_1_);}
	.st56{fill:#991B1E;}
	.st57{opacity:0.3;fill:#FFFFFF;enable-background:new    ;}
	.st58{fill:#F05050;}
	.st59{fill:#FDFEFE;}
	.st60{opacity:0.5;fill:#F38096;enable-background:new    ;}
	.st61{opacity:0.55;fill:#F38096;enable-background:new    ;}
	.st62{fill:#8F191C;}
	.st63{fill:#A3A3A3;}
	.st64{fill:#DCDBDB;}
	.st65{fill:#B6B6B6;}
	.st66{fill:#D2D2D1;}
	.st67{fill:#F6F6F6;}
	.st68{fill:url(#Path_2702_1_);}
	.st69{fill:url(#Path_2703_1_);}
	.st70{fill:#F48789;}
	.st71{fill:#4D4D4E;}
	.st72{fill:#EECAE0;}
	.st73{fill:#F287B6;}
	.st74{fill:#2B5766;}
	.st75{fill:#396B7B;}
	.st76{fill:#EBEBEB;}
</style>
<g id="Group_3713" transform="translate(-53.154 -54.819)">
	<path id="Path_2816" class="st28" d="M335.5,634.7c-0.8,14.4-2.9,144.9-30.9,177.2c0,0-20.7,24.1-100.7,21
		c-80,3.1-100.7-21-100.7-21c-28-32.3-30-162.8-30.9-177.2c-0.8-14.4-4.4-167,2.4-233.6c6.8-66.6-3.1-136.2-2.4-170.2
		s-1.6-32,6.6-90.5s68.3-70.1,68.3-70.1c14.2-12.8,56.7-15.4,56.7-15.4s42.5,2.6,56.7,15.4c0,0,60.1,11.6,68.3,70.1
		c8.2,58.5,5.8,56.4,6.6,90.5c0.8,34-9.2,103.6-2.4,170.2C339.9,467.7,336.3,620.3,335.5,634.7z"/>
	<g id="Group_3706" transform="translate(66.606 63.91)">
		<g id="Group_3704">
			<path id="Path_2817" class="st29" d="M17.6,89.8c0,0-0.6-63.6,59.3-74.2l-7.2,26.9C69.7,42.4,27.7,52.6,17.6,89.8z"/>
			<ellipse id="Ellipse_145" class="st16" cx="62.1" cy="32" rx="9.1" ry="10.6"/>
			<path id="Path_2818" class="st16" d="M47.8,44.8c0,3.9-2.7,7.1-6,7.1c-3.3,0-6-3.2-6-7.1c0-3.9,2.7-7.1,6-7.1c0,0,0,0,0,0
				C45.1,37.7,47.8,40.9,47.8,44.8z"/>
		</g>
		<g id="Group_3705" transform="translate(76.773)">
			<path id="Path_2819" class="st29" d="M177,89.8c0,0,0.9-63.6-59-74.2l7.2,26.9C125.2,42.5,166.9,52.6,177,89.8z"/>
			<path id="Path_2820" class="st16" d="M123.4,32c0,5.9,4.1,10.6,9.1,10.6c5,0,9.1-4.8,9.1-10.6c0-5.9-4.1-10.6-9.1-10.6
				c0,0,0,0,0,0C127.5,21.4,123.4,26.2,123.4,32L123.4,32z"/>
			<path id="Path_2821" class="st16" d="M146.8,44.8c0,3.9,2.7,7.1,6,7.1c3.3,0,6-3.2,6-7.1c0-3.9-2.7-7.1-6-7.1c0,0,0,0,0,0
				C149.5,37.7,146.8,40.9,146.8,44.8z"/>
		</g>
	</g>
	<path id="Path_2822" class="st29" d="M166.1,72.4c0,0,39.1-22,72.6-0.5C238.8,71.8,202.4,69.9,166.1,72.4z"/>
	<g id="Group_3707" transform="translate(53.154 153.392)">
		
			<linearGradient id="Path_2823_1_" gradientUnits="userSpaceOnUse" x1="-3381.792" y1="5498.7886" x2="-3379.5374" y2="5498.7886" gradientTransform="matrix(17.2614 0 0 -12.2382 59241.9883 67480.7109)">
			<stop  offset="0" style="stop-color:#F5C14B"/>
			<stop  offset="0.222" style="stop-color:#F6C44B"/>
			<stop  offset="0.426" style="stop-color:#F9D04B"/>
			<stop  offset="0.48" style="stop-color:#FAD54B"/>
			<stop  offset="0.558" style="stop-color:#F9D652"/>
			<stop  offset="0.672" style="stop-color:#F9D867"/>
			<stop  offset="0.808" style="stop-color:#F7DC86"/>
			<stop  offset="0.961" style="stop-color:#F6E3B3"/>
			<stop  offset="0.985" style="stop-color:#F6E5BB"/>
		</linearGradient>
		<path id="Path_2823" class="st30" d="M39.7,192.3c0,0,1.6-28.2-7-23.1c-8.6,5.1-25.9,5.9-30.5,21.3c0,0-3.3,6.5-1.8,9.9
			c2,4.6,23.8-3.4,30.4-11.4C30.8,189,37.8,213.2,39.7,192.3z"/>
		<path id="Path_2824" class="st31" d="M2.2,193.3C6.7,178,24.1,177.1,32.7,172c5.9-3.5,7,8.8,7.1,16.8c0.1-7.4-0.4-23.5-7.1-19.6
			c-8.6,5.1-25.9,5.9-30.5,21.3c0,0-2.7,5.4-2,9C0.6,197.3,1.3,195.2,2.2,193.3z"/>
	</g>
	<g id="Group_3708" transform="translate(63.65 160.93)">
		<path id="Path_2825" class="st22" d="M20.2,181.5c0,0-0.3,66.1-4.5,110.2c-5.1,52.5,0.5,215.5,6.1,251.7c0,0,28.5-102,26.2-195.8
			C46.6,290.9,37.2,234.8,20.2,181.5z"/>
		<path id="Path_2826" class="st32" d="M20.2,181.5c0,0-0.3,66.1-4.5,110.2c-1.8,18.8-2.3,51.9-1.8,88.2
			c11.5-18.6,22.3-37.7,33.1-56.9C43.8,274.6,34.8,227,20.2,181.5z"/>
		<path id="Path_2827" class="st22" d="M259.2,181.5c0,0,0.3,66.1,4.5,110.2c5.1,52.5-0.5,215.5-6.1,251.7c0,0-28.5-102-26.2-195.8
			C232.8,290.9,242.2,234.8,259.2,181.5z"/>
		<path id="Path_2828" class="st32" d="M263.7,291.8c-4.3-44.1-4.5-110.2-4.5-110.2s-15.3,43.5-23.3,106.6
			c10.7,22.4,20.5,45.3,29.8,68.6C265.9,335.1,265.3,313.4,263.7,291.8z"/>
	</g>
	<path id="Path_2829" class="st22" d="M109.9,757.3l17.5-81c0,0,80.2,24.9,159.3,0l16.1,81C302.8,757.3,216.4,831.2,109.9,757.3z"/>
	<path id="Path_2830" class="st33" d="M127.4,676.3l-17.5,81c15.2,10.6,21.8,13.2,35,19.6c14.2-29.4,27-59.6,38.4-90.7
		C164.4,684.8,145.8,681.5,127.4,676.3z"/>
	<path id="Path_2831" class="st28" d="M289.5,422.5c-40.4-19.7-86.3-17.9-86.3-17.9s-45.8-1.8-86.3,17.9c0,0,22,61.5-6.2,233.4
		c-0.3,1.8,0.5,3.6,1.9,4.3c9,4.4,42.5,19.2,90.5,20.2c56.9,0,93.9-18.1,93.9-18.1C268.1,488.1,289.5,422.5,289.5,422.5z"/>
	<path id="Path_2832" class="st34" d="M284.4,625.8c-0.9,1.8-2,3.6-3.1,5.2c-0.1,0.2-0.3,0.4-0.4,0.5c-22.7,26-105.5,22.6-123.7,1.6
		c-27.7-31.9-35.6-166.8-4.3-194.8c11.8-10.6,30.8-18.4,51.5-24.5c2.1-0.6,3.4-3.2,2.9-5.7c-0.5-2.1-2.1-3.6-4-3.5l0,0
		c0,0-43.2-1.7-82.7,16.2c-1.9,0.9-3,3.4-2.4,5.7c4.2,16.2,16.7,82.3-7.3,228.6c-0.4,2.2,0.6,4.4,2.4,5.2c9.8,4.7,42.9,19,90,19.9
		c47.2,0,80.6-12.4,90.7-16.7c1.8-0.8,2.9-3,2.5-5.3c-1.8-10.8-3.3-21.1-4.7-31c-0.4-2.5-2.4-4.3-4.6-3.8
		C286,623.8,285,624.6,284.4,625.8z"/>
	<g id="Group_3709" transform="translate(165.895 153.393)">
		
			<linearGradient id="Path_2833_1_" gradientUnits="userSpaceOnUse" x1="-3502.4407" y1="5498.7822" x2="-3500.186" y2="5498.7822" gradientTransform="matrix(17.2587 0 0 -12.2368 61178.4766 67472.8281)">
			<stop  offset="0" style="stop-color:#F5C14B"/>
			<stop  offset="0.222" style="stop-color:#F6C44B"/>
			<stop  offset="0.426" style="stop-color:#F9D04B"/>
			<stop  offset="0.48" style="stop-color:#FAD54B"/>
			<stop  offset="0.558" style="stop-color:#F9D652"/>
			<stop  offset="0.672" style="stop-color:#F9D867"/>
			<stop  offset="0.808" style="stop-color:#F7DC86"/>
			<stop  offset="0.961" style="stop-color:#F6E3B3"/>
			<stop  offset="0.985" style="stop-color:#F6E5BB"/>
		</linearGradient>
		<path id="Path_2833" class="st35" d="M147.5,192.3c0,0-1.6-28.2,7-23.1c8.6,5.1,25.9,5.9,30.5,21.3c0,0,3.3,6.5,1.8,9.9
			c-2,4.6-23.8-3.4-30.4-11.4C156.5,189,149.5,213.2,147.5,192.3z"/>
		<path id="Path_2834" class="st31" d="M185.1,193.3c-4.5-15.3-21.9-16.2-30.5-21.3c-5.9-3.5-7,8.8-7.1,16.8
			c-0.1-7.4,0.5-23.5,7.1-19.6c8.6,5.1,25.9,5.9,30.5,21.3c0,0,2.7,5.4,2,9C186.7,197.3,186,195.2,185.1,193.3z"/>
	</g>
	<g id="Group_3711" transform="translate(69.366 315.837)">
		<path id="Path_2835" class="st36" d="M28.5,451.7c0.2,0.2,0.5,0.3,0.7,0.5c9.3,6.5,18.2,13.6,26.7,21.2c6.1,5.9,9.2,12.9,12.2,20
			c0.7,1.5,1.4,3.1,2,4.6c2,4.7,4.6,8.9,7.6,12.8c0,0-57.8-14.2-56.6-64.3"/>
		<path id="Path_2836" class="st37" d="M65,493.4c-30-9.1-37.3-33.3-39-41.2c9.3,6.5,18.2,13.6,26.7,21.2
			C58.9,479.3,61.9,486.3,65,493.4z"/>
		<g id="Group_3710" transform="translate(73.698)">
			<path id="Path_2837" class="st36" d="M117.6,510.8c0,0,57.8-14.2,56.6-64.3c0,0-3,2-7.3,5.1c-0.2,0.2-0.5,0.3-0.7,0.5
				c-9.3,6.5-18.2,13.6-26.7,21.2c-6.1,5.9-9.2,12.9-12.2,20c-0.7,1.5-1.4,3.1-2,4.6C123.1,502.7,120.6,507,117.6,510.8z"/>
			<path id="Path_2838" class="st37" d="M127.2,493.4c30-9.1,37.3-33.3,39-41.2c-9.3,6.5-18.2,13.6-26.7,21.2
				C133.3,479.3,130.2,486.3,127.2,493.4z"/>
		</g>
	</g>
	<path id="Path_2839" class="st38" d="M318.3,151.6c-7.1-34.5-67.1-49.6-67.1-49.6c-15.9-4.3-32.3-6.3-48.6-6
		c-16.3-0.3-32.7,1.7-48.6,6c0,0-59.9,15.2-67.1,49.6c-13.9,67.2,3.4,111.3,4.7,132.2h221.9C314.9,262.9,332.2,218.9,318.3,151.6z"
		/>
	<path id="Path_2840" class="st28" d="M317,152.1c-7-34.1-66.3-49-66.3-49c-15.7-4.2-31.9-6.2-48-5.9c-16.2-0.3-32.3,1.7-48,5.9
		c0,0-59.2,15-66.3,49c-13.7,66.5,3.4,110,4.7,130.7h219.3C313.6,262.1,330.7,218.5,317,152.1z"/>
	<path id="Path_2841" class="st34" d="M202.6,97.1c-16.2-0.3-32.3,1.7-48,5.9c0,0-59.2,15-66.3,49c-13.7,66.5,3.4,110,4.7,130.7
		h36.6C163.9,227.2,180,173.5,202.6,97.1z"/>
	<g id="Group_3712" transform="translate(69.047 119.5)">
		<path id="Path_2842" class="st39" d="M46.3,295.2c0,0,81-40.6,178.2-0.5c0,0,32.5-111.1,19.6-147.3s-170.5-60.1-218.8,0
			C25.2,147.3,6.4,171.2,46.3,295.2z"/>
		<path id="Path_2843" class="st22" d="M48.5,292.9c0,0,79-39.6,173.7-0.5c0,0,31.7-108.3,19.1-143.6s-166.2-58.6-213.4,0
			C28,148.7,9.6,172,48.5,292.9z"/>
		<path id="Path_2844" class="st32" d="M28,148.7c0,0-18.4,23.3,20.5,144.2c0,0,3.9-2.5,18.1-7c16.7-35.3,42.8-120.2,46.5-172.2
			C78.4,116.2,45.7,126.7,28,148.7z"/>
	</g>
	
		<linearGradient id="Path_2845_1_" gradientUnits="userSpaceOnUse" x1="-3447.8474" y1="5664.4854" x2="-3445.4175" y2="5664.4854" gradientTransform="matrix(98.2171 0 0 -25.7577 338716.4375 146700.3125)">
		<stop  offset="0" style="stop-color:#ECBF45;stop-opacity:0"/>
		<stop  offset="0.22" style="stop-color:#F0CB5D;stop-opacity:0.149"/>
		<stop  offset="0.524" style="stop-color:#F7DB7A;stop-opacity:0.341"/>
		<stop  offset="0.681" style="stop-color:#F2CF63;stop-opacity:0.212"/>
		<stop  offset="0.89" style="stop-color:#EDC048;stop-opacity:5.900000e-02"/>
		<stop  offset="1" style="stop-color:#EBBB40;stop-opacity:0"/>
		<stop  offset="1" style="stop-color:#E9BA3F;stop-opacity:0.114"/>
		<stop  offset="1" style="stop-color:#E9B93D;stop-opacity:0.427"/>
		<stop  offset="1" style="stop-color:#EAB83A;stop-opacity:0.671"/>
		<stop  offset="1" style="stop-color:#EAB838;stop-opacity:0.851"/>
		<stop  offset="1" style="stop-color:#EAB837;stop-opacity:0.961"/>
		<stop  offset="1" style="stop-color:#EAB837"/>
	</linearGradient>
	<path id="Path_2845" class="st40" d="M306.9,765.8c-12.7,5-24.9,12-36,20.8c-12.2,9.9-11.8,18-21.7,26.1
		c-6.3,5.2-41.5,5.5-45.3,5.6c-3.8-0.1-38.9-0.4-45.3-5.6c-9.8-8.1-9.4-16.2-21.7-26.1c-11.2-8.8-23.3-15.7-36-20.8
		c-7-2.7-10.3-5.3-10.3-3.8c-0.1,1.2,37.5,24.7,42.4,33.7c4.9,9.1,11.9,30.2,22.1,33.6c7.7,2.6,35.5,2.3,48.9,1.9
		c13.4,0.3,41.2,0.6,48.9-1.9c10.2-3.4,17.2-24.5,22.1-33.6c4.8-8.9,42.4-32.5,42.4-33.7C317.2,760.5,313.9,763.1,306.9,765.8z"/>
</g>
</svg>
