<?xml version="1.0" encoding="utf-8"?>
<!-- Generator: Adobe Illustrator 24.2.3, SVG Export Plug-In . SVG Version: 6.00 Build 0)  -->
<svg version="1.1" id="Layer_1" xmlns="http://www.w3.org/2000/svg" xmlns:xlink="http://www.w3.org/1999/xlink" x="0px" y="0px"
	 viewBox="0 0 300 750" style="enable-background:new 0 0 300 750;" xml:space="preserve">
<style type="text/css">
	.st0{fill:#FAA859;}
	.st1{fill:#C1C1C5;}
	.st2{fill:url(#Path_2973_1_);}
	.st3{fill:url(#Path_2974_1_);}
	.st4{fill:#181415;}
	.st5{fill:#00364D;}
	.st6{fill:#00384B;}
	.st7{fill:#FFDD68;}
	.st8{fill:#FDCE2E;}
	.st9{fill:#242021;}
	.st10{clip-path:url(#SVGID_2_);}
	.st11{fill:#004D65;}
	.st12{fill:#0C151A;}
</style>
<g>
	<g transform="matrix(1, 0, 0, 1, 571, 50)">
		<path id="Path_9462-2" class="st0" d="M-543.6,178.7l-7.2-8.6V71.8l7.8-8.6v-3.9l-5.5,0.4c0,0-1.3,0-1.3-14.9
			c0,0-7.8-53.4,45-76.2c0,0,43.7-29.1,134.9-14.1c0,0,78.2,18.1,76.9,77l-0.7,23.6c0,0,3.3,4.7-5.2,3.9c0,0-3.9,1.6,2,6.3
			c0,0,7.2,3.1,6.5,16.5l-1.3,84.1c0,0,2,7.9-5.9,16.5l-1.3,316.7c0,0-2,7.1,2,10.2l5.2,7.1l0.7,94.3c0,0,1.3,1.6-3.9,9.4l-4.6,6.3
			c0,0,1.3,0,1.3,5.5c0,0,6.5,34.6-22.2,46.4c0,0-63.2,37.7-169.4,14.1c0,0-53.4-10.2-53.4-51.1V194L-543.6,178.7z"/>
	</g>
	<path id="Path_2972" class="st1" d="M32,227.9L35.9,66l10.8-26.4l13.9-7.4L49.6,160.3l3.3,55l-5.8,8l-4.8,8.6L32,227.9z"/>
	
		<linearGradient id="Path_2973_1_" gradientUnits="userSpaceOnUse" x1="-2440.5833" y1="5665.769" x2="-2440.4802" y2="5663.0557" gradientTransform="matrix(116.2766 0 0 -276.0193 283930.2188 1563862.5)">
		<stop  offset="0" style="stop-color:#FEC322"/>
		<stop  offset="0.544" style="stop-color:#FFF195"/>
		<stop  offset="1" style="stop-color:#FFDD6B"/>
	</linearGradient>
	<path id="Path_2973" class="st2" d="M27.4,228.7l-7.2-8.6v-98.2l7.8-8.6v-3.9l-5.5,0.4c0,0-1.3,0-1.3-14.9c0,0-7.8-53.4,45-76.2
		c0,0,43.7-29.1,134.9-14.1c0,0,78.2,18.1,76.9,77l-0.7,23.6c0,0,3.3,4.7-5.2,3.9c0,0-3.9,1.6,2,6.3c0,0,7.2,3.1,6.5,16.5l-1.3,84.1
		c0,0,2,7.9-5.9,16.5l-1.3,316.7c0,0-2,7.1,2,10.2l5.2,7.1l0.7,94.3c0,0,1.3,1.6-3.9,9.4l-4.6,6.3c0,0,1.3,0,1.3,5.5
		c0,0,6.5,34.6-22.2,46.4c0,0-63.2,37.7-169.4,14.1c0,0-53.4-10.2-53.4-51.1V244L27.4,228.7z"/>
	
		<linearGradient id="Path_2974_1_" gradientUnits="userSpaceOnUse" x1="-2440.3323" y1="5664.2559" x2="-2440.3323" y2="5661.604" gradientTransform="matrix(110.0095 0 0 -84.7551 268610.6875 479969.8125)">
		<stop  offset="0" style="stop-color:#FAA223"/>
		<stop  offset="1" style="stop-color:#FFDD6B"/>
	</linearGradient>
	<path id="Path_2974" class="st3" d="M27.8,228.3V78.1c0,0-1.3-25.2,26.1-45.6c0,0,31.3-33,110.1-26.7c0,0,52.1-3.1,94.5,38.5
		c0,0,16.3,12.6,13.7,64.4c0,0-3.9,0.8,2,6.3l-3.9,114l-9.1-8.6c0,0,8.5-157.2-6.5-174.5l-5.2-7.1c2.2,6.5,3.5,13.4,3.9,20.4
		c0,0,5.2,92.7,2.6,161.9c0,0,3.3-48.7-64.5-51.9c0,0-82.7-9.4-123.1,10.2c0,0-26.7,10.2-24.1,55.8l-0.7-158c0,0-0.7-25.9,11.1-40.1
		c0,0-17.6,11.8-16.3,44.8L36.9,222L27.8,228.3z"/>
	<path id="Path_2975" class="st4" d="M77.9,694.3h-0.6c-1.5,0-2.6-1.4-2.6-3.2c0,0,0,0,0,0V285.9l5.9-2.4v407.6
		C80.5,692.9,79.3,694.3,77.9,694.3L77.9,694.3z"/>
	<path id="Path_2976" class="st4" d="M223.2,694.3h-0.6c-1.5,0-2.6-1.4-2.6-3.2c0,0,0,0,0,0V281.9l5.9,1.6v407.6
		C225.8,692.9,224.6,694.3,223.2,694.3C223.2,694.3,223.2,694.3,223.2,694.3z"/>
	<path id="Path_2978" class="st5" d="M38.2,205.7c-3.1,27.9-4.7,56-4.6,84.1L33,388.6l28,4.7v-61.9c0,0-2-34.6-7.2-51.1L38.2,205.7z
		"/>
	<path id="Path_2980" class="st5" d="M61.6,566.8c0,0-17.6,25.9-17.6,41.7v55.8c0,0,0.7,29.9,16.3,33.8L61.6,566.8z"/>
	<path id="Path_2981" class="st6" d="M262.3,205.7c3.1,27.9,4.7,56,4.6,84.1l0.7,98.8l-28,4.7v-61.9c0,0,2-34.6,7.2-51.1
		L262.3,205.7z"/>
	<path id="Path_2982" class="st6" d="M266.9,404.3l-27.4,3.1v131c0,0-2.6,15.7,9.8,19.6l17.6,6.3L266.9,404.3z"/>
	<path id="Path_2983" class="st6" d="M238.9,566.8c0,0,17.6,25.9,17.6,41.7v55.8c0,0-0.7,29.9-16.3,33.8L238.9,566.8z"/>
	<path id="Path_2986" class="st7" d="M92.9,119.8l18.9-84.1c0,0,7.8-22.8,27.4-25.2c0,0-20.8,11-26.1,33
		C113.1,43.6,92.9,117.4,92.9,119.8z"/>
	<path id="Path_2988" class="st8" d="M39.5,552.1l-0.4,145.7c0,0-3.5,12.3,8.8,23.3c0,0,12.4,10.2,17.6,12.6
		c0,0-22.8-11.8-20.8-33.8V549.7L39.5,552.1z"/>
	<path id="Path_2987" class="st7" d="M205.6,119.8l-18.9-84.1c0,0-7.8-22.8-27.4-25.2c0,0,20.8,11,26.1,33
		C185.4,43.6,205.6,117.4,205.6,119.8z"/>
	<rect id="Rectangle_20168" x="25.2" y="361.9" class="st9" width="2.6" height="25.2"/>
	<rect id="Rectangle_20169" x="272.7" y="361.9" class="st9" width="2.6" height="25.2"/>
	<rect id="Rectangle_20170" x="25.2" y="513.6" class="st9" width="2.6" height="25.2"/>
	<rect id="Rectangle_20171" x="272.7" y="513.6" class="st9" width="2.6" height="25.2"/>
	<path id="Path_2989" class="st8" d="M68,289.6l-2.1,394.1c0,0-1,23.2,13.5,32.1c0,0-8-5.7-8-34l1.3-395.1L68,289.6z"/>
	<g id="Group_3779" transform="translate(555.932 192.602)">
		<path id="Path_2991" class="st5" d="M-490.4,98l-15-62.9c0,0-13-32.2,11.7-55c0,0,23.7-17.3,96.6-15.3c0,0,75.8-4.1,90.3,30
			c0,0,7.1,14.6-1.2,48.2l-13,55.8c0,0-9.9-8.6-41-13.4C-399.3,79.7-460.9,79.1-490.4,98z"/>
		<g>
			<defs>
				<path id="SVGID_1_" d="M-490.4,98l-15-62.9c0,0-13-32.2,11.7-55c0,0,23.7-17.3,96.6-15.3c0,0,75.8-4.1,90.3,30
					c0,0,7.7,13.4-1.2,48.2l-13,55.8c0,0-9.9-8.6-41-13.4C-399.3,79.7-460.9,79.1-490.4,98z"/>
			</defs>
			<clipPath id="SVGID_2_">
				<use xlink:href="#SVGID_1_"  style="overflow:visible;"/>
			</clipPath>
			<g id="Group_3777" class="st10">
				<path id="Path_2992" class="st11" d="M-506.4-0.3c0,0,55.1-31.4,145,35.4c0,0,40.4,36.9,45,63.7l25.7-74.2L-326.2-60l-102.9,0.8
					l-82.7,26v14.5L-506.4-0.3z"/>
			</g>
		</g>
	</g>
	<path id="Path_2979" class="st5" d="M33.6,404.3l27.4,3.1v131c0,0,2.6,15.7-9.8,19.6l-17.6,6.3V404.3z"/>
	<path id="Path_2977" class="st11" d="M75.3,712.4c0,0,5.2,7.1,22.8,5.5h113.4c4.8,0.2,9.4-1.7,13-5.5c0,0-1.3,12.6-24.8,17.3
		c0,0-53.4,3.9-86,2.4C113.8,732,83.1,732,75.3,712.4z"/>
	<path id="Path_2997" class="st12" d="M37.5,221.2c-4.8,4.1-10.1,7.3-15.6,9.4c0,0-25.4,10.2-21.5,24.4l24.8-9.4c0,0,4.6-3.1,5.9,0
		c0,0,2.6,1.6,3.9,11C34.9,256.6,37.9,228.6,37.5,221.2z"/>
	<path id="Path_2998" class="st12" d="M263,222.8c4.4,4.1,9.5,7.1,15,8.6c0,0,25.5,9.4,21.6,23.6l-24.8-9.4c0,0-4.6-3.1-5.9,0
		c0,0-2,1.6-3.3,11C265.7,256.6,262.9,231.4,263,222.8z"/>
</g>
</svg>
