<svg xmlns="http://www.w3.org/2000/svg" xmlns:xlink="http://www.w3.org/1999/xlink" width="180" height="292.911" viewBox="0 0 180 292.911">
  <defs>
    <clipPath id="clip-path">
      <rect id="Rectangle_20265" data-name="Rectangle 20265" width="26.54" height="39.907" rx="8.017" fill="none"/>
    </clipPath>
    <clipPath id="clip-path-2">
      <rect id="Rectangle_20271" data-name="Rectangle 20271" width="26.54" height="39.907" rx="8.017" transform="translate(26.54 39.907) rotate(180)" fill="none"/>
    </clipPath>
  </defs>
  <g id="Group_4114" data-name="Group 4114" transform="translate(-366.922 -167.5)">
    <g id="Group_3994" data-name="Group 3994" transform="translate(367.533 242.859)">
      <rect id="Rectangle_20257" data-name="Rectangle 20257" width="26.54" height="39.907" rx="8.017" fill="#262223"/>
    </g>
    <g id="Group_3999" data-name="Group 3999" transform="translate(404.535 202.37)">
      <g id="Group_3995" data-name="Group 3995" transform="translate(0 0.194)">
        <path id="Path_3583" data-name="Path 3583" d="M569.58,462.766l-104.03-.387L464,258H567.836Z" transform="translate(-464 -258)" fill="#256233"/>
      </g>
      <g id="Group_3998" data-name="Group 3998" transform="translate(7.555)">
        <g id="Group_3996" data-name="Group 3996">
          <rect id="Rectangle_20258" data-name="Rectangle 20258" width="2.325" height="180.551" fill="#378037"/>
        </g>
        <g id="Group_3997" data-name="Group 3997" transform="translate(85.82 0.194)">
          <rect id="Rectangle_20259" data-name="Rectangle 20259" width="2.325" height="180.551" fill="#378037"/>
        </g>
      </g>
    </g>
    <g id="Group_4003" data-name="Group 4003" transform="translate(471.354 206.932)">
      <g id="Group_4000" data-name="Group 4000">
        <path id="Path_3584" data-name="Path 3584" d="M637.251,274.785l21.31,41.844,3.1-1.55-25.2-45.807Z" transform="translate(-636.461 -269.273)" fill="#7b695f"/>
      </g>
      <g id="Group_4001" data-name="Group 4001" transform="translate(22.099 45.807)">
        <path id="Path_3585" data-name="Path 3585" d="M693.5,389.05l6.2,11.623,3.1-1.937L696.6,387.5Z" transform="translate(-693.5 -387.5)" fill="#f69471"/>
      </g>
      <g id="Group_4002" data-name="Group 4002" transform="translate(28.299 57.043)">
        <path id="Path_3586" data-name="Path 3586" d="M709.5,418.437s1.162,2.712,3.487,2.325c0,0,1.937-1.162-.387-4.262Z" transform="translate(-709.5 -416.5)" fill="#fad427"/>
      </g>
    </g>
    <g id="Group_4010" data-name="Group 4010" transform="translate(369.815 253.126)">
      <g id="Group_4004" data-name="Group 4004" transform="translate(0 0)">
        <path id="Path_3587" data-name="Path 3587" d="M409.3,388.5l-10.461,41.844s-21.31,4.649-24.409,47.269c0,0-.775,25.572,4.262,36.033l18.985-8.911,10.461,37.2,2.325.387-.1-10.779-8.04-29.128.387-69.353,6.858-26.283Z" transform="translate(-374.389 -388.5)" fill="#2d2928"/>
      </g>
      <g id="Group_4009" data-name="Group 4009" transform="translate(5.729 49.4)">
        <g id="Group_4005" data-name="Group 4005" transform="translate(12.604 6.78)">
          <path id="Path_3588" data-name="Path 3588" d="M425.5,533.5c-7.362,23.247-1.744,61.411-1.744,61.411l2.906-1.356C421.239,568.758,425.5,533.5,425.5,533.5Z" transform="translate(-421.707 -533.5)" fill="#8b7547"/>
        </g>
        <g id="Group_4006" data-name="Group 4006" transform="translate(8.589)">
          <path id="Path_3589" data-name="Path 3589" d="M417.41,516c-9.686,19.76-4.867,70.593-4.867,70.593l3.775-1.788C409.219,555.779,417.41,516,417.41,516Z" transform="translate(-411.343 -516)" fill="#8b7547"/>
        </g>
        <g id="Group_4007" data-name="Group 4007" transform="translate(4.07 12.786)">
          <path id="Path_3590" data-name="Path 3590" d="M402.9,549c-6.2,21.31-1.55,59.667-1.55,59.667l3.1-1.55C400.191,596.656,402.9,549,402.9,549Z" transform="translate(-399.68 -549)" fill="#8b7547"/>
        </g>
        <g id="Group_4008" data-name="Group 4008" transform="translate(0 6.974)">
          <path id="Path_3591" data-name="Path 3591" d="M395.307,534c-8.911,19.372-5.482,67.989-5.482,67.989L393.6,600.2C387.049,570.122,395.307,534,395.307,534Z" transform="translate(-389.176 -534)" fill="#8b7547"/>
        </g>
      </g>
    </g>
    <g id="Group_4017" data-name="Group 4017" transform="translate(507.359 253.126)">
      <g id="Group_4011" data-name="Group 4011" transform="translate(0 0)">
        <path id="Path_3592" data-name="Path 3592" d="M730.551,388.5l10.461,41.844s21.31,4.649,24.409,47.269c0,0,.775,25.572-4.262,36.033l-18.985-8.911-10.461,37.2-2.325.387.1-10.779,8.04-29.128-.388-69.353-6.858-26.283Z" transform="translate(-729.389 -388.5)" fill="#2d2928"/>
      </g>
      <g id="Group_4016" data-name="Group 4016" transform="translate(12.786 49.4)">
        <g id="Group_4012" data-name="Group 4012" transform="translate(0 6.78)">
          <path id="Path_3593" data-name="Path 3593" d="M763.551,533.5c7.362,23.247,1.744,61.411,1.744,61.411l-2.906-1.356C767.813,568.758,763.551,533.5,763.551,533.5Z" transform="translate(-762.389 -533.5)" fill="#8b7547"/>
        </g>
        <g id="Group_4013" data-name="Group 4013" transform="translate(2.906)">
          <path id="Path_3594" data-name="Path 3594" d="M769.889,516c9.686,19.76,4.868,70.593,4.868,70.593l-3.775-1.788C778.081,555.779,769.889,516,769.889,516Z" transform="translate(-769.889 -516)" fill="#8b7547"/>
        </g>
        <g id="Group_4014" data-name="Group 4014" transform="translate(8.718 12.786)">
          <path id="Path_3595" data-name="Path 3595" d="M786.439,549c6.2,21.31,1.55,59.667,1.55,59.667l-3.1-1.55C789.151,596.656,786.439,549,786.439,549Z" transform="translate(-784.889 -549)" fill="#8b7547"/>
        </g>
        <g id="Group_4015" data-name="Group 4015" transform="translate(11.43 6.974)">
          <path id="Path_3596" data-name="Path 3596" d="M791.889,534c8.911,19.372,5.483,67.989,5.483,67.989L793.6,600.2C800.148,570.122,791.889,534,791.889,534Z" transform="translate(-791.889 -534)" fill="#8b7547"/>
        </g>
      </g>
    </g>
    <g id="Group_4018" data-name="Group 4018" transform="translate(386.131 195.396)">
      <path id="Path_3597" data-name="Path 3597" d="M422.506,279.6V257.9s0-8.911,7.749-10.074l41.651-.194s-.775,15.885-8.136,27.9l-10.461,24.022s-3.1,5.037-1.162,6.974c0,0,2.325,5.037,17.048,3.874,0,0,32.933-.775,37.97-.387,0,0,8.911,0,12.4-1.55,0,0,5.424-1.937,2.712-6.587,0,0-18.21-37.2-19.372-43.394l-1.55-10.849,37.2-.387s10.849-1.162,11.236,7.362v23.634h5.812l4.093-23.81L545.52,239.5l-75.165,2.712-45.719.387-4.262,3.874-3.874,3.1v30.221Z" transform="translate(-416.5 -239.5)" fill="#41af41"/>
    </g>
    <g id="Group_4019" data-name="Group 4019" transform="translate(366.922 167.5)">
      <path id="Path_3598" data-name="Path 3598" d="M366.952,235.11s-1.937-36.808,25.184-54.63c0,0,13.754-10.655,28.865-11.817l64.316-1.162s20.922.775,35.258,13.173c0,0,26.734,16.273,24.409,53.468H524.063l-.775-24.022s.387-8.136-6.587-10.074l-119.722.387s-7.749,1.162-8.136,7.361l-.387,27.509Z" transform="translate(-366.922 -167.5)" fill="#2d292a"/>
    </g>
    <g id="Group_4022" data-name="Group 4022" transform="translate(368.165 176.411)">
      <g id="Group_4020" data-name="Group 4020">
        <path id="Path_3599" data-name="Path 3599" d="M370.13,249.35s1.306-30.566,16.8-43.352c0,0,9.3-10.074,27.9-15.5,0,0-30.221,10.849-36.033,37.2,0,0-2.948,14.167-1.086,21.807Z" transform="translate(-370.13 -190.5)" fill="#e9c164" opacity="0.5"/>
      </g>
      <g id="Group_4021" data-name="Group 4021" transform="translate(10.734 5.81)">
        <path id="Path_3600" data-name="Path 3600" d="M397.865,258.688s-1.322-31.105,13.4-42.341S428.313,205.5,428.313,205.5s-22.085,9.3-24.409,32.158c0,0-.118,17.57.329,21.183Z" transform="translate(-397.834 -205.496)" fill="#e9c164" opacity="0.5"/>
      </g>
    </g>
    <g id="Group_4025" data-name="Group 4025" transform="translate(497.96 175.636)">
      <g id="Group_4023" data-name="Group 4023" transform="translate(0 0)">
        <path id="Path_3601" data-name="Path 3601" d="M749.636,247.2s-1.112-30.415-16.61-43.2c0,0-9.3-10.074-27.9-15.5,0,0,30.221,10.849,36.033,37.2,0,0,3.361,13.864,1.5,21.5Z" transform="translate(-705.13 -188.5)" fill="#e9c164" opacity="0.5"/>
      </g>
      <g id="Group_4024" data-name="Group 4024" transform="translate(3.487 5.81)">
        <path id="Path_3602" data-name="Path 3602" d="M745.076,256.384s.825-30.8-13.9-42.038S714.13,203.5,714.13,203.5s22.085,9.3,24.409,32.158c0,0,.009,17.115-.438,20.728Z" transform="translate(-714.13 -203.496)" fill="#e9c164" opacity="0.5"/>
      </g>
    </g>
    <g id="Group_4026" data-name="Group 4026" transform="translate(412.284 190.941)">
      <ellipse id="Ellipse_171" data-name="Ellipse 171" cx="43.588" cy="1.937" rx="43.588" ry="1.937" fill="#070707"/>
    </g>
    <g id="Group_4030" data-name="Group 4030" transform="translate(422.72 171.355)">
      <g id="Group_4027" data-name="Group 4027" transform="translate(0 0)">
        <path id="Path_3603" data-name="Path 3603" d="M510.961,178.437s55.405-1.937,68.579-.387c0,0,1.55,2.712-3.681,8.33,0,0-9.1,8.718-37.97,6.974C537.889,193.354,509.992,191.8,510.961,178.437Z" transform="translate(-510.936 -177.449)" fill="#e5814d"/>
      </g>
      <g id="Group_4028" data-name="Group 4028" transform="translate(19.828 0)">
        <path id="Path_3604" data-name="Path 3604" d="M562.111,177.927s.926,4.041,13.324,4.041,15.016-1.678,16.032-4.52C591.467,177.449,563.51,177.76,562.111,177.927Z" transform="translate(-562.111 -177.449)" fill="#fdd42e"/>
      </g>
      <g id="Group_4029" data-name="Group 4029" transform="translate(3.955 0.245)">
        <path id="Path_3605" data-name="Path 3605" d="M526.785,178.559s3.214,6.077,14.063,7.239c0,0,14.917,2.518,24.215-.581,0,0,9.52-2.262,11.54-7.136l4.733.162s2.325,6.2-12.4,10.461a68.785,68.785,0,0,1-32.933.387s-12.676-1.31-14.861-10.341Z" transform="translate(-521.143 -178.081)" fill="#fdd42e"/>
      </g>
    </g>
    <g id="Group_4038" data-name="Group 4038" transform="translate(367.533 242.859)">
      <g id="Group_4031" data-name="Group 4031" transform="translate(25.765 16.467)">
        <rect id="Rectangle_20260" data-name="Rectangle 20260" width="12.98" height="6.587" fill="#231f20"/>
      </g>
      <g id="Group_4032" data-name="Group 4032">
        <rect id="Rectangle_20261" data-name="Rectangle 20261" width="26.54" height="39.907" rx="8.017" fill="#262223"/>
      </g>
      <g id="Group_4037" data-name="Group 4037">
        <g id="Group_4036" data-name="Group 4036" clip-path="url(#clip-path)">
          <g id="Group_4033" data-name="Group 4033" transform="translate(5.424 -0.194)">
            <rect id="Rectangle_20262" data-name="Rectangle 20262" width="1.55" height="40.682" fill="#040404"/>
          </g>
          <g id="Group_4034" data-name="Group 4034" transform="translate(12.592)">
            <rect id="Rectangle_20263" data-name="Rectangle 20263" width="1.55" height="40.682" fill="#040404"/>
          </g>
          <g id="Group_4035" data-name="Group 4035" transform="translate(19.566)">
            <rect id="Rectangle_20264" data-name="Rectangle 20264" width="1.55" height="40.682" fill="#040404"/>
          </g>
        </g>
      </g>
    </g>
    <g id="Group_4046" data-name="Group 4046" transform="translate(508.177 242.859)">
      <g id="Group_4039" data-name="Group 4039" transform="translate(0 16.467)">
        <rect id="Rectangle_20266" data-name="Rectangle 20266" width="12.98" height="6.587" fill="#231f20"/>
      </g>
      <g id="Group_4040" data-name="Group 4040" transform="translate(12.205)">
        <rect id="Rectangle_20267" data-name="Rectangle 20267" width="26.54" height="39.907" rx="8.017" fill="#262223"/>
      </g>
      <g id="Group_4045" data-name="Group 4045" transform="translate(12.205)">
        <g id="Group_4044" data-name="Group 4044" clip-path="url(#clip-path-2)">
          <g id="Group_4041" data-name="Group 4041" transform="translate(19.566 -0.194)">
            <rect id="Rectangle_20268" data-name="Rectangle 20268" width="1.55" height="40.682" fill="#040404"/>
          </g>
          <g id="Group_4042" data-name="Group 4042" transform="translate(12.398)">
            <rect id="Rectangle_20269" data-name="Rectangle 20269" width="1.55" height="40.682" fill="#040404"/>
          </g>
          <g id="Group_4043" data-name="Group 4043" transform="translate(5.424)">
            <rect id="Rectangle_20270" data-name="Rectangle 20270" width="1.55" height="40.682" fill="#040404"/>
          </g>
        </g>
      </g>
    </g>
    <g id="Group_4054" data-name="Group 4054" transform="translate(367.533 389.314)">
      <g id="Group_4047" data-name="Group 4047" transform="translate(25.765 16.467)">
        <rect id="Rectangle_20272" data-name="Rectangle 20272" width="12.98" height="6.587" fill="#231f20"/>
      </g>
      <g id="Group_4048" data-name="Group 4048" transform="translate(0 0)">
        <rect id="Rectangle_20273" data-name="Rectangle 20273" width="26.54" height="39.907" rx="8.017" fill="#262223"/>
      </g>
      <g id="Group_4053" data-name="Group 4053" transform="translate(0 0)">
        <g id="Group_4052" data-name="Group 4052" clip-path="url(#clip-path)">
          <g id="Group_4049" data-name="Group 4049" transform="translate(5.424 -0.194)">
            <rect id="Rectangle_20274" data-name="Rectangle 20274" width="1.55" height="40.682" fill="#040404"/>
          </g>
          <g id="Group_4050" data-name="Group 4050" transform="translate(12.592)">
            <rect id="Rectangle_20275" data-name="Rectangle 20275" width="1.55" height="40.682" fill="#040404"/>
          </g>
          <g id="Group_4051" data-name="Group 4051" transform="translate(19.566)">
            <rect id="Rectangle_20276" data-name="Rectangle 20276" width="1.55" height="40.682" fill="#040404"/>
          </g>
        </g>
      </g>
    </g>
    <g id="Group_4062" data-name="Group 4062" transform="translate(508.177 389.314)">
      <g id="Group_4055" data-name="Group 4055" transform="translate(0 16.467)">
        <rect id="Rectangle_20278" data-name="Rectangle 20278" width="12.98" height="6.587" fill="#231f20"/>
      </g>
      <g id="Group_4056" data-name="Group 4056" transform="translate(12.205 0)">
        <rect id="Rectangle_20279" data-name="Rectangle 20279" width="26.54" height="39.907" rx="8.017" fill="#262223"/>
      </g>
      <g id="Group_4061" data-name="Group 4061" transform="translate(12.205 0)">
        <g id="Group_4060" data-name="Group 4060" clip-path="url(#clip-path-2)">
          <g id="Group_4057" data-name="Group 4057" transform="translate(19.566 -0.194)">
            <rect id="Rectangle_20280" data-name="Rectangle 20280" width="1.55" height="40.682" fill="#040404"/>
          </g>
          <g id="Group_4058" data-name="Group 4058" transform="translate(12.398)">
            <rect id="Rectangle_20281" data-name="Rectangle 20281" width="1.55" height="40.682" fill="#040404"/>
          </g>
          <g id="Group_4059" data-name="Group 4059" transform="translate(5.424)">
            <rect id="Rectangle_20282" data-name="Rectangle 20282" width="1.55" height="40.682" fill="#040404"/>
          </g>
        </g>
      </g>
    </g>
    <g id="Group_4063" data-name="Group 4063" transform="translate(441.923 200.132)">
      <path id="Path_3606" data-name="Path 3606" d="M573.953,251.894s-9.191,29.189-11.516,47.4l-1.55,9.686s-1.55,6.974,1.55,8.136l25.284.22s3.774-.608,2.612-6.42l-13.491-59.193Z" transform="translate(-560.5 -251.724)" fill="#e4ab48"/>
    </g>
    <g id="Group_4064" data-name="Group 4064" transform="translate(448.897 209.344)">
      <path id="Path_3607" data-name="Path 3607" d="M578.5,325.093h14.336L585.474,275.5Z" transform="translate(-578.5 -275.5)" fill="#f0e075"/>
    </g>
    <g id="Group_4067" data-name="Group 4067" transform="translate(429.138 227.554)">
      <g id="Group_4065" data-name="Group 4065" transform="translate(0 1.162)">
        <path id="Path_3608" data-name="Path 3608" d="M534.862,355.721l4.262-30.221L527.5,351.846Z" transform="translate(-527.5 -325.5)" fill="#52c456"/>
      </g>
      <g id="Group_4066" data-name="Group 4066" transform="translate(39.52)">
        <path id="Path_3609" data-name="Path 3609" d="M629.5,322.5l6.2,29.059,7.361-3.874Z" transform="translate(-629.5 -322.5)" fill="#52c456"/>
      </g>
    </g>
    <g id="Group_4068" data-name="Group 4068" transform="translate(406.859 389.702)">
      <rect id="Rectangle_20284" data-name="Rectangle 20284" width="51.918" height="38.357" transform="translate(0)" fill="none"/>
    </g>
    <g id="Group_4069" data-name="Group 4069" transform="translate(406.278 382.534)">
      <path id="Path_3610" data-name="Path 3610" d="M468.5,723.275l103.449-.775.252,48.08-103.314,2.675Z" transform="translate(-468.5 -722.5)" fill="#41af74"/>
    </g>
    <g id="Group_4070" data-name="Group 4070" transform="translate(407.053 389.895)">
      <rect id="Rectangle_20285" data-name="Rectangle 20285" width="51.531" height="38.745" rx="3" transform="translate(0)" fill="#2d292a"/>
    </g>
    <g id="Group_4071" data-name="Group 4071" transform="translate(411.521 394.606)">
      <path id="Path_3611" data-name="Path 3611" d="M482.771,784.012c-.1-2.485-.172-4.971-.255-7.456s-.128-4.971-.194-7.457-.128-4.971-.161-7.458l-.124-5.458-.006-.369.36-.005,4.7-.066,4.7-.029,9.392-.056,9.393.024c3.131.026,6.262.048,9.393.108-3.13.126-6.259.212-9.389.3l-9.39.217-9.391.138-4.7.068-4.7.031.354-.374.064,5.459c.03,2.486.025,4.973.027,7.459s.013,4.973-.006,7.459S482.813,781.525,482.771,784.012Z" transform="translate(-480.842 -753.659)" fill="#fff"/>
    </g>
    <g id="Group_4075" data-name="Group 4075" transform="translate(414.415 399.582)">
      <g id="Group_4072" data-name="Group 4072">
        <path id="Path_3612" data-name="Path 3612" d="M491.244,769.987h33.321a1.744,1.744,0,0,0,0-3.487H491.244a1.744,1.744,0,0,0,0,3.487Z" transform="translate(-489.5 -766.5)" fill="#050706"/>
      </g>
      <g id="Group_4073" data-name="Group 4073" transform="translate(0.194 7.555)">
        <path id="Path_3613" data-name="Path 3613" d="M525.064,786h-33.32a1.743,1.743,0,1,0,0,3.487h33.32a1.743,1.743,0,1,0,0-3.487Z" transform="translate(-490 -786)" fill="#050706"/>
      </g>
      <g id="Group_4074" data-name="Group 4074" transform="translate(0.194 14.917)">
        <path id="Path_3614" data-name="Path 3614" d="M525.064,805h-33.32a1.744,1.744,0,0,0,0,3.487h33.32a1.744,1.744,0,0,0,0-3.487Z" transform="translate(-490 -805)" fill="#050706"/>
      </g>
    </g>
    <g id="Group_4080" data-name="Group 4080" transform="translate(461.877 418.373)">
      <g id="Group_4077" data-name="Group 4077" transform="translate(0 0)">
        <g id="Group_4076" data-name="Group 4076">
          <rect id="Rectangle_20286" data-name="Rectangle 20286" width="23.247" height="22.859" rx="5.193" fill="#2d292a"/>
        </g>
      </g>
      <g id="Group_4079" data-name="Group 4079" transform="translate(25.184 0)">
        <g id="Group_4078" data-name="Group 4078">
          <rect id="Rectangle_20287" data-name="Rectangle 20287" width="23.247" height="22.859" rx="5.193" fill="#2d292a"/>
        </g>
      </g>
    </g>
    <g id="Group_4081" data-name="Group 4081" transform="translate(462.071 384.665)">
      <rect id="Rectangle_20288" data-name="Rectangle 20288" width="47.85" height="31.383" rx="3.728" transform="translate(0 0)" fill="#2d292a"/>
    </g>
    <g id="Group_4082" data-name="Group 4082" transform="translate(463.369 386.544)">
      <path id="Path_3615" data-name="Path 3615" d="M616.1,760.3a.248.248,0,0,1-.252-.244V732.85H659.5a.244.244,0,1,1,0,.487H616.354v26.721A.248.248,0,0,1,616.1,760.3Z" transform="translate(-615.85 -732.85)" fill="#fff"/>
    </g>
    <g id="Group_4085" data-name="Group 4085" transform="translate(478.731 394.157)">
      <g id="Group_4083" data-name="Group 4083" transform="translate(0.194 0.194)">
        <circle id="Ellipse_172" data-name="Ellipse 172" cx="7.168" cy="7.168" r="7.168" fill="#555"/>
      </g>
      <g id="Group_4084" data-name="Group 4084" transform="translate(0)">
        <path id="Path_3616" data-name="Path 3616" d="M662.862,767.223a7.361,7.361,0,1,1,7.361-7.361A7.37,7.37,0,0,1,662.862,767.223Zm0-14.336a6.974,6.974,0,1,0,6.974,6.974A6.982,6.982,0,0,0,662.862,752.888Z" transform="translate(-655.5 -752.5)" fill="#fff"/>
      </g>
    </g>
    <g id="Group_4090" data-name="Group 4090" transform="translate(465.945 390.283)">
      <g id="Group_4086" data-name="Group 4086" transform="translate(0)">
        <path id="Path_3617" data-name="Path 3617" d="M634.123,751.411l1.937-3.487L622.5,742.5Z" transform="translate(-622.5 -742.5)" fill="#b0b1b5"/>
      </g>
      <g id="Group_4087" data-name="Group 4087" transform="translate(0 13.948)">
        <path id="Path_3618" data-name="Path 3618" d="M622.5,787.411l13.56-5.424-1.937-3.487Z" transform="translate(-622.5 -778.5)" fill="#b0b1b5"/>
      </g>
      <g id="Group_4088" data-name="Group 4088" transform="translate(26.734)">
        <path id="Path_3619" data-name="Path 3619" d="M705.061,742.5,691.5,747.924l1.937,3.487Z" transform="translate(-691.5 -742.5)" fill="#b0b1b5"/>
      </g>
      <g id="Group_4089" data-name="Group 4089" transform="translate(26.734 13.948)">
        <path id="Path_3620" data-name="Path 3620" d="M691.5,781.987l13.561,5.424L693.437,778.5Z" transform="translate(-691.5 -778.5)" fill="#b0b1b5"/>
      </g>
    </g>
    <g id="Group_4092" data-name="Group 4092" transform="translate(393.47 423.991)">
      <g id="Group_4091" data-name="Group 4091" transform="translate(0 0)">
        <path id="Path_3621" data-name="Path 3621" d="M559.448,844.223C551.7,830.662,534.264,829.5,534.264,829.5H507.143l-40.295.775c-15.111,0-23.247,7.749-23.247,7.749-10.849,7.749-7.749,24.409-7.749,24.409-.387,3.487,2.712,3.487,2.712,3.487l120.5-.775c3.875-.775,3.1-3.487,3.1-3.487C562.935,848.1,559.448,844.223,559.448,844.223Zm-94.925,17.048s-24.6.387-24.409.387c0,0-3.1-25.959,24.409-27.121Zm17.477,0H469.56s.236-26.667.009-26.894L482,834.225Zm28.629-.387H486.608V834.537l17.823-.388V845s-1.162,1.55,1.937,1.55h4.262Zm17.435,0H515.279V846.935h9.3s2.712.775,2.712-2.712l-.388-10.074,1.162-.387Zm29.446,0h-24.8V846.548h16.66s3.874.775,3.1-3.874C552.474,842.673,558.286,846.16,557.511,860.883Z" transform="translate(-435.442 -829.5)" fill="#2c2829"/>
      </g>
    </g>
    <g id="Group_4093" data-name="Group 4093" transform="translate(429.331 299.039)">
      <rect id="Rectangle_20289" data-name="Rectangle 20289" width="57.73" height="56.955" rx="19.295" transform="translate(0 0)" fill="#221e1f"/>
    </g>
    <g id="Group_4094" data-name="Group 4094" transform="translate(421.582 362.193)">
      <path id="Path_3622" data-name="Path 3622" d="M573.479,690.922h-57.73L508,670h73.228Z" transform="translate(-508 -670)" fill="#2c2829"/>
    </g>
    <g id="Group_4095" data-name="Group 4095" transform="translate(434.437 304.076)">
      <rect id="Rectangle_20290" data-name="Rectangle 20290" width="47.519" height="46.881" rx="19.295" transform="translate(0 0)" fill="#2c2829"/>
    </g>
    <g id="Group_4096" data-name="Group 4096" transform="translate(455.678 271.917)">
      <rect id="Rectangle_20291" data-name="Rectangle 20291" width="3.1" height="20.147" transform="translate(0)" fill="#2c2829"/>
    </g>
    <g id="Group_4099" data-name="Group 4099" transform="translate(444.442 277.729)">
      <g id="Group_4097" data-name="Group 4097" transform="translate(0 0)">
        <ellipse id="Ellipse_173" data-name="Ellipse 173" cx="12.592" cy="4.649" rx="12.592" ry="4.649" fill="#211d1e"/>
      </g>
      <g id="Group_4098" data-name="Group 4098" transform="translate(6.78 1.085)">
        <path id="Path_3623" data-name="Path 3623" d="M584.5,455.846a14.915,14.915,0,0,1,2.88-.775,18.444,18.444,0,0,1,2.982-.271,14.8,14.8,0,0,1,2.99.31,9.031,9.031,0,0,1,2.772,1.124,16.738,16.738,0,0,0-2.853-.678,24.324,24.324,0,0,0-2.908-.175c-.974,0-1.948.06-2.925.138S585.485,455.714,584.5,455.846Z" transform="translate(-584.5 -454.8)" fill="#fff"/>
      </g>
    </g>
    <g id="Group_4107" data-name="Group 4107" transform="translate(422.938 266.493)">
      <g id="Group_4101" data-name="Group 4101">
        <g id="Group_4100" data-name="Group 4100">
          <path id="Path_3624" data-name="Path 3624" d="M545.789,423c-18.937,0-34.289,6.288-34.289,14.045s15.352,14.045,34.289,14.045,34.289-6.288,34.289-14.045S564.727,423,545.789,423Zm0,25.959c-15.3,0-27.7-4.814-27.7-10.752s12.4-10.752,27.7-10.752,27.7,4.814,27.7,10.752S561.089,448.959,545.789,448.959Z" transform="translate(-511.5 -423)" fill="#6d6c71"/>
        </g>
      </g>
      <g id="Group_4102" data-name="Group 4102" transform="translate(0 0.775)">
        <path id="Path_3625" data-name="Path 3625" d="M545.789,425c-18.937,0-34.289,6.288-34.289,14.045s15.352,14.045,34.289,14.045,34.289-6.288,34.289-14.045S564.727,425,545.789,425Zm0,25.959c-15.3,0-27.7-4.814-27.7-10.752s12.4-10.752,27.7-10.752,27.7,4.814,27.7,10.752S561.089,450.959,545.789,450.959Z" transform="translate(-511.5 -425)" fill="#2c2829"/>
      </g>
      <g id="Group_4104" data-name="Group 4104" transform="translate(14.11 1.744)" opacity="0.2">
        <g id="Group_4103" data-name="Group 4103">
          <path id="Path_3626" data-name="Path 3626" d="M548.531,430.6s6.2-3.1,19.76-3.1c0,0,12.011.387,17.435,3.1,0,0,3.875,2.325-3.487,1.162,0,0-16.273-2.712-31,0C551.243,431.762,546.206,432.924,548.531,430.6Z" transform="translate(-547.918 -427.5)" fill="#fefefe"/>
        </g>
      </g>
      <g id="Group_4106" data-name="Group 4106" transform="translate(24.792 25.857)" opacity="0.1">
        <g id="Group_4105" data-name="Group 4105">
          <path id="Path_3627" data-name="Path 3627" d="M576.074,490.749s14.335.621,20.147-.931c0,0,4.649-.621-2.325,1.553,0,0-9.3,1.553-16.273.311C577.623,491.681,574.136,490.749,576.074,490.749Z" transform="translate(-575.488 -489.736)" fill="#fdfdfd"/>
        </g>
      </g>
    </g>
    <g id="Group_4110" data-name="Group 4110" transform="translate(463.194 419.923)">
      <g id="Group_4108" data-name="Group 4108" transform="translate(0 0)">
        <rect id="Rectangle_20292" data-name="Rectangle 20292" width="0.465" height="18.985" fill="#fff"/>
      </g>
      <g id="Group_4109" data-name="Group 4109" transform="translate(1.007 20.109)">
        <rect id="Rectangle_20293" data-name="Rectangle 20293" width="18.985" height="0.465" fill="#fff"/>
      </g>
    </g>
    <g id="Group_4113" data-name="Group 4113" transform="translate(488.378 419.923)">
      <g id="Group_4111" data-name="Group 4111" transform="translate(0 0)">
        <rect id="Rectangle_20294" data-name="Rectangle 20294" width="0.465" height="18.985" fill="#fff"/>
      </g>
      <g id="Group_4112" data-name="Group 4112" transform="translate(1.007 20.109)">
        <rect id="Rectangle_20295" data-name="Rectangle 20295" width="18.985" height="0.465" fill="#fff"/>
      </g>
    </g>
  </g>
</svg>
