<?xml version="1.0" encoding="utf-8"?>
<!-- Generator: Adobe Illustrator 24.2.3, SVG Export Plug-In . SVG Version: 6.00 Build 0)  -->
<svg version="1.1" id="Layer_1" xmlns="http://www.w3.org/2000/svg" xmlns:xlink="http://www.w3.org/1999/xlink" x="0px" y="0px"
	 viewBox="0 0 300 778.4" style="enable-background:new 0 0 300 778.4;" xml:space="preserve">
<style type="text/css">
	.st0{fill:#E86255;}
	.st1{fill:#010101;}
	.st2{fill:#00364D;}
	.st3{fill:#004D65;}
	.st4{fill:#065E7B;}
	.st5{fill:#F5B4D1;}
	.st6{fill:#00384B;}
	.st7{fill:#F3766B;}
	.st8{fill:#CE2527;}
	.st9{fill:#171314;}
	.st10{fill:#AE1F24;}
	.st11{clip-path:url(#SVGID_2_);}
	.st12{fill:#096E8E;}
	.st13{clip-path:url(#SVGID_4_);}
	.st14{fill:#E9DCE6;}
	.st15{fill:none;stroke:#CE2527;stroke-width:0.5;stroke-linecap:round;stroke-miterlimit:10;}
	.st16{clip-path:url(#SVGID_6_);}
	.st17{fill:#F4858F;}
	.st18{clip-path:url(#SVGID_8_);}
	.st19{fill:#D7CDD5;}
	.st20{clip-path:url(#SVGID_10_);}
	.st21{opacity:0.2;fill:#A21D21;enable-background:new    ;}
	.st22{opacity:0.3;fill:#991B1F;enable-background:new    ;}
	.st23{fill:#050203;}
	.st24{clip-path:url(#SVGID_12_);}
	.st25{clip-path:url(#SVGID_14_);}
</style>
<g id="Group_3804" transform="translate(-343 -435.016)">
	<g transform="matrix(1, 0, 0, 1, 343, 435.02)">
		<path id="Path_3058-2" class="st0" d="M26.4,256.2l0.7-41.8c0,0,0.7-1.6-0.7-8.7c-1.6-10.4-2.7-21-3.3-31.6c0,0-1.3-43.4,0.7-62.4
			c0,0,2-21.3,10.6-35.5c0,0,4.6-8.7,8.6-15c0,0,23.2-36.3,52.3-50.5c0,0,22.5-15,84.8-9.5c0,0,20.5-1.6,48.4,22.9
			c0,0,28.5,22.9,35.8,37.9c0,0,8.6,12.6,10.6,23.7c0,0,6,32.4,4.6,84.5c0,0-1.3,27.6-3.3,45.8l2.6,84.5c0,0,0.9,35.8,1.5,54
			c0.7,18.2,1.1,18.7,1.1,18.7s2.6,16.6,0.7,26.8c-0.5,3.1-0.7,6.3-0.7,9.5l0.7,102.6l-0.7,22.9v3.9c1.7,13.1,2.8,26.3,3.3,39.5
			c0,0,2.6,76.6-7.9,127.9c0,0-6,38.7-19.2,48.2c0,0-29.8,23.7-92.1,23.7c0,0-67.6,4.7-105.3-20.5c0,0-15.9-7.9-21.2-45l-6-41.8
			l-2-4.7c0,0-6.6-37.9-6-61.6l1.3-31.6c0,0-4-2.4-2-24.5c0,0,1.1-8.4,3.3-11.1L25.1,407c0,0-5.5-6.7-2.6-24.5c0,0,1.3-5.5,2.6-9.5
			l1.3-93.1V256.2z"/>
	</g>
	<g id="Group_3803" transform="translate(-104.661 343.102)">
		<path id="Path_3003" class="st0" d="M474,348.2l0.7-41.8c0,0,0.7-1.6-0.7-8.7c-1.6-10.4-2.7-21-3.3-31.6c0,0-1.3-43.4,0.7-62.4
			c0,0,2-21.3,10.6-35.5c0,0,4.6-8.7,8.6-15c0,0,23.2-36.3,52.3-50.5c0,0,22.5-15,84.8-9.5c0,0,20.5-1.6,48.4,22.9
			c0,0,28.5,22.9,35.8,37.9c0,0,8.6,12.6,10.6,23.7c0,0,6,32.4,4.6,84.5c0,0-1.3,27.6-3.3,45.8l2.6,84.5c0,0,0.9,35.8,1.5,54
			c0.7,18.2,1.1,18.7,1.1,18.7s2.6,16.6,0.7,26.8c-0.5,3.1-0.7,6.3-0.7,9.5l0.7,102.6L729,627v3.9c1.7,13.1,2.8,26.3,3.3,39.5
			c0,0,2.6,76.6-7.9,127.9c0,0-6,38.7-19.2,48.2c0,0-29.8,23.7-92.1,23.7c0,0-67.6,4.7-105.3-20.5c0,0-15.9-7.9-21.2-45l-6-41.8
			l-2-4.7c0,0-6.6-37.9-6-61.6l1.3-31.6c0,0-4-2.4-2-24.5c0,0,1.1-8.4,3.3-11.1l-2.6-130.3c0,0-5.5-6.7-2.6-24.5
			c0,0,1.3-5.5,2.6-9.5l1.3-93.1L474,348.2z"/>
		<path id="Path_3004" class="st1" d="M556.4,97.5c0,0-21.4,7.5-8.1,6.7c0,0,57-11.1,94.7-2.4c0,0,16.9,2.8,3.5-4.1
			c0,0-19.2-7.3-54.4-5.6C592.1,92.2,566.5,92.4,556.4,97.5z"/>
		<path id="Path_3005" class="st2" d="M503.5,397.7c0,0-9.3-81.2-8.6-103.2c0,0-3-8.4,14.9-18.7c0,0,22.5-22.7,90.7-22.7
			c0,0,56.3-6.6,92.7,27.1c3.5,1.9,5.6,5.9,5.3,10.2L688,395.2C688,395.2,599.2,379.8,503.5,397.7z"/>
		<path id="Path_3006" class="st3" d="M507.8,381.3c0,0-7.9-76.1-6.6-87.8c0,0,95.4-37.3,190.1-2.9l-7.3,85.7
			C684,376.1,550.2,365.1,507.8,381.3z"/>
		<path id="Path_3007" class="st2" d="M541.6,733.2c0,0-9.3,2.6-8.6-9.7l-3.3-244.9v-50.2c0,0-2.6-13.2,7.9-13.2
			s113.9-0.9,113.9-0.9s10.6-1.8,9.3,8.8l1.3,294.2c0,0,3.3,15-8.6,15.9H542.3"/>
		<path id="Path_3008" class="st4" d="M536.3,510.3v-80.2c0,0,100.7-3.5,117.2-0.9l1.3,80.2L536.3,510.3z"/>
		<path id="Path_3009" class="st4" d="M536.3,529.7l118.6-0.9l0.7,87.2L537,616.9L536.3,529.7z"/>
		<path id="Path_3010" class="st4" d="M537.6,633.6l2,88.1c0,0,50.3,3.5,116.6-0.9l-0.7-88.1L537.6,633.6z"/>
		<path id="Path_3011" class="st5" d="M526.4,749.9c0,0-11.9-274-8.6-333.9h5.3C523.1,416,525.1,698.8,526.4,749.9z"/>
		<path id="Path_3012" class="st5" d="M669.8,747.7c0,0,5-273.1,1.7-333h-5.3C666.2,414.7,671.1,696.6,669.8,747.7z"/>
		<path id="Path_3013" class="st2" d="M487,336.7c0,0,12.9,99.9,12.3,132.2l2.6,176.8c0,0,5.3,97.1-6,131.8c0,0-9.9-100.3-9.3-157.1
			C486.6,620.5,480.7,363.1,487,336.7z"/>
		<path id="Path_3014" class="st6" d="M706.2,777.2c0,0-11.9-34.7-12.6-71l-1-110.1l-1.3-97.9c0,0,0.7-57.6,2.6-75
			c0,0,7.9-77.4,13.2-91.6c0,0,5.3,87.6,6,105.8l0.7,138.9l-3.3,135.8C710.5,712.1,709.9,776,706.2,777.2z"/>
		<path id="Path_3015" class="st7" d="M494.6,288.3l6.6-41c0,0,20.5-106.1,27.8-127.4c5.3-8.6,13.7-14.2,23-15.3
			c0,0,48.7-11.2,88-2.3c0,0,16.2,1.5,20.8,11.8c0,0,34,99.3,37.9,172.3C698.7,286.4,601.9,215.1,494.6,288.3z"/>
		<path id="Path_3016" class="st8" d="M510.8,770.7c0,0,77.5,29.2,176.2-0.8C687,769.9,607.5,796.7,510.8,770.7z"/>
		<path id="Rectangle_20174" class="st9" d="M598.3,746.5L598.3,746.5c2.3,0,4.2,2.2,4.2,5v5c0,2.8-1.9,5-4.2,5l0,0
			c-2.3,0-4.2-2.2-4.2-5v-5C594.1,748.7,595.9,746.5,598.3,746.5z"/>
		<path id="Path_3017" class="st2" d="M510.2,776.1c3.5,5.8,7.5,10.9,11.9,15.1c0,0,87.8,24.6,152.7,0.5c0,0,11.3-9.1,13.9-15.1
			c0,0,2.6,28.2,2.6,37.2c0,0,4.7,29.3-28.5,37.2c0,0-66.7,11.3-117.2,1c0,0-30-3.3-33.9-24.9C511.7,827.1,508.5,812.8,510.2,776.1z
			"/>
		<path id="Path_3018" class="st10" d="M489.9,806c0,0,5.3,30.8,18.5,38.7c0,0,11.3,9.5,39.1,15.8c-10.5-0.5-20.8-3.1-30.5-7.9
			c0,0-14.6-6.3-20.5-18.9C492.2,825.4,489.9,815.8,489.9,806z"/>
		<path id="Path_3019" class="st10" d="M658.9,859.7c0,0,36.4-6.3,47-25.3c0,0,6.6-14.2,7.3-26c0,0,0-4.7,2-3.9c0,0,4,5.5,0.7,17.4
			c0,0-4,17.4-25.2,29.2C690.7,851,674.1,860.5,658.9,859.7z"/>
		<g id="Group_3785" transform="translate(553.246 185.045)">
			<g>
				<g>
					<defs>
						<path id="SVGID_1_" d="M153,592.1c0,0-11.9-34.7-12.6-71l-1-110.1l-1.3-97.9c0,0,0.7-57.6,2.6-75c0,0,7.9-77.4,13.2-91.6
							c0,0,5.3,87.6,6,105.8l0.7,138.9L157.3,527C157.3,527,156.6,590.9,153,592.1z"/>
					</defs>
					<clipPath id="SVGID_2_">
						<use xlink:href="#SVGID_1_"  style="overflow:visible;"/>
					</clipPath>
					<g id="Group_3784" transform="translate(0 0)" class="st11">
						<path id="Path_3020" class="st12" d="M149.5,580.4c0,0,5.1-80.3,5.1-123.7V348.6l0.7-87.6l-2.6-75l0.7-8.7l11.3,15l0.7,320.5
							l-4.6,50.5l-4.6,39.5l-9.9,2.4L149.5,580.4z"/>
					</g>
				</g>
			</g>
		</g>
		<g id="Group_3787" transform="translate(463.444 186.911)">
			<g>
				<g>
					<defs>
						<path id="SVGID_3_" d="M23.5,149.8c0,0,12.9,99.9,12.3,132.2l2.6,176.8c0,0,5.3,97.1-6,131.8c0,0-9.9-100.3-9.3-157.1
							C23.2,433.6,17.2,176.2,23.5,149.8z"/>
					</defs>
					<clipPath id="SVGID_4_">
						<use xlink:href="#SVGID_3_"  style="overflow:visible;"/>
					</clipPath>
					<g id="Group_3786" transform="translate(0 0)" class="st13">
						<path id="Path_3022" class="st12" d="M35.4,577.7c0,0-7.6-95.2-7.6-131.5l-2-107.4V184.9l-6.6,0.8L24.5,593l15.2,2.4
							L35.4,577.7z"/>
					</g>
				</g>
			</g>
		</g>
		<path id="Path_3024" class="st14" d="M484.3,189.1c0,0-0.3-24.9,10.9-38.3c0,0,25.2-27.6,30.5-31.6
			C524.4,121.6,487.3,170.1,484.3,189.1z"/>
		<path id="Path_3025" class="st14" d="M710.5,186.3c0,0,2.6-29.2-10.6-42.6c0,0-27.8-25.3-33.1-29.2
			C666.8,121.6,709.6,163.9,710.5,186.3z"/>
		<path id="Path_3026" class="st15" d="M494.3,302.8c0,0-6.3-5.1-7.6-20.9l4-104.2"/>
		<line id="Line_1" class="st15" x1="483.3" y1="188.7" x2="476" y2="278.7"/>
		<g id="Group_3788" transform="translate(556.978 124.192)">
			<path id="Path_3027" class="st15" d="M143,174.2c0,0,6.6-7.1,7.9-22.9L143.6,40"/>
			<line id="Line_2" class="st15" x1="151.2" y1="59" x2="158.5" y2="149"/>
		</g>
		<g id="Group_3791" transform="translate(474.565 353.108)">
			<g>
				<g>
					<defs>
						<path id="SVGID_5_" d="M35.6,423c3.5,5.8,7.5,10.9,11.9,15.1c0,0,87.8,24.6,152.7,0.5c0,0,11.3-9.1,13.9-15.1
							c0,0,2.6,28.2,2.6,37.2c0,0,6,30.2-28.5,37.2c0,0-69.6,15.1-117.2,1c0,0-25.8-2-33.1-25.2C37.9,473.8,33.9,459.7,35.6,423z"/>
					</defs>
					<clipPath id="SVGID_6_">
						<use xlink:href="#SVGID_5_"  style="overflow:visible;"/>
					</clipPath>
					<g id="Group_3790" class="st16">
						<g id="Group_3789" transform="translate(3.719 2.727)">
							<path id="Path_3028" class="st3" d="M40.4,431.8c0,0-1.6,34.2,1.7,46.3c0,0,11.9,16.1,79.5,17.1c0,0,70.9,0,82.8-19.1
								c0,0,4.6-16.1-2.6-46.3L81.2,439.9l-37.1-8.1H40.4z"/>
							<path id="Path_3029" class="st12" d="M62.3,439.8c0,0,13,17.1,20.2,20.2s30.5,10.1,44.4,10.1s36.4-6.3,43.1-10.1
								c15.9-9.1,23.2-18.1,23.5-22.5L62.3,439.8z"/>
						</g>
					</g>
				</g>
			</g>
		</g>
		<path id="Path_3031" class="st9" d="M600.6,850.2c0,0-2.6,6.3-0.7,10.3c0,0,48.4-1.6,62.9-6.3c0,0,0.7-7.9-1.3-9.5
			C661.5,844.7,608.5,847.8,600.6,850.2z"/>
		<path id="Path_3034" class="st9" d="M484.4,495.9l0.5,31.6l15.2,5V509C500.1,509,487.7,503.8,484.4,495.9z"/>
		<path id="Path_3053" class="st9" d="M713.6,491.4v34.2c-2.9,2.3-6.2,3.9-9.6,4.6c-4,0.5-8.1,0.4-12.1-0.4l-0.7-24.9
			C691.2,504.9,710.3,499.3,713.6,491.4z"/>
		<path id="Path_3035" class="st9" d="M488.3,678.5c0,0-0.2-3-0.5-8.6c-0.3-5.7-0.4-9.9-0.4-9.9s7.5-11,14.8-11.7
			c0,0,0.4,13.5,0.7,20.6L488.3,678.5z"/>
		<path id="Path_3052" class="st9" d="M711.6,682.7v-21.5c0,0-11.4-12.9-18.7-13.7c0,0,0.8,15.2,0.4,22.3c2.9,0.1,5.7,1.1,8.2,3
			C705.1,675.7,708.5,679,711.6,682.7z"/>
		<path id="Path_3036" class="st17" d="M528,122.8c0,0-27.2,86.8-33.8,176.8C494.3,299.6,519.4,155.9,528,122.8z"/>
		<path id="Path_3037" class="st17" d="M663.8,119.6c0,0,28.5,85.3,35.1,175.2C698.9,294.9,672.4,152.8,663.8,119.6z"/>
		<g id="Group_3793" transform="translate(463.545 107.831)">
			<g>
				<g>
					<defs>
						<path id="SVGID_7_" d="M20.8,81.2c0,0-0.3-24.9,10.9-38.3c0,0,25.2-27.6,30.5-31.6C60.8,13.8,23.8,62.3,20.8,81.2z"/>
					</defs>
					<clipPath id="SVGID_8_">
						<use xlink:href="#SVGID_7_"  style="overflow:visible;"/>
					</clipPath>
					<g id="Group_3792" transform="translate(0 0)" class="st18">
						<path id="Path_3038" class="st19" d="M20.8,81.3c0,0,7.9-38.7,41.1-69.5L48.6,46.5L29.4,71L20.8,81.3z"/>
					</g>
				</g>
			</g>
		</g>
		<g id="Group_3795" transform="translate(542.626 106.109)">
			<g>
				<g>
					<defs>
						<path id="SVGID_9_" d="M167.9,80.2c0,0,2.6-29.2-10.6-42.6c0,0-27.8-25.3-33.1-29.2C124.2,15.5,166.9,57.8,167.9,80.2z"/>
					</defs>
					<clipPath id="SVGID_10_">
						<use xlink:href="#SVGID_9_"  style="overflow:visible;"/>
					</clipPath>
					<g id="Group_3794" class="st20">
						<path id="Path_3040" class="st19" d="M119.9,5.6c0,0,49,38.7,47.7,74.2l-35.8-49L119.9,5.6z"/>
					</g>
				</g>
			</g>
		</g>
		<path id="Path_3042" class="st21" d="M488.3,345.4c0,0-2.7-6-13.9-5.4l-0.3,9.6L488.3,345.4z"/>
		<path id="Path_3043" class="st22" d="M704.2,342.2c0,0,14.2-2.3,20.7,1.6l1.2,16.5l-15.2-1.6L704.2,342.2z"/>
		<g id="Group_3799" transform="translate(557.408 188.92)">
			<path id="Path_3044" class="st23" d="M156.8,154.9c0,0-5.3,7.1-0.7,23.7l-12.6-4.7l3.3-20.5L156.8,154.9z"/>
			<g id="Group_3798" transform="translate(4.098 0.454)">
				<path id="Path_3045" class="st0" d="M152.6,154.1c0,0,35,7.9,33.5,36.6l-35-13.1C151.1,177.6,145.2,169.4,152.6,154.1z"/>
				<g id="Group_3797">
					<g>
						<g>
							<defs>
								<path id="SVGID_11_" d="M152.6,154.1c0,0,35,7.9,33.5,36.6l-35-13.1C151.1,177.6,145.2,169.4,152.6,154.1z"/>
							</defs>
							<clipPath id="SVGID_12_">
								<use xlink:href="#SVGID_11_"  style="overflow:visible;"/>
							</clipPath>
							<g id="Group_3796" class="st24">
								<path id="Path_3046" class="st8" d="M186.1,190.7c0,0-5.1-13.4-37.4-22.2l-0.2,14.5l34,12.8L186.1,190.7z"/>
							</g>
						</g>
					</g>
				</g>
			</g>
		</g>
		<path id="Path_3048" class="st23" d="M478.7,346.6c0,0,7.9,6.3,3.3,22.9l8.9-3.2l-2.8-20.8L478.7,346.6z"/>
		<g id="Group_3802" transform="translate(447.661 190.355)">
			<path id="Path_3049" class="st0" d="M31.4,155.8c0,0-34.4,11.1-31.1,39.5l34.1-16.2C34.3,179.1,39.6,170.4,31.4,155.8z"/>
			<g id="Group_3801" transform="translate(0)">
				<g>
					<g>
						<defs>
							<path id="SVGID_13_" d="M31.4,155.8c0,0-34.4,11.1-31.1,39.5l34.1-16.2C34.3,179.1,39.6,170.4,31.4,155.8z"/>
						</defs>
						<clipPath id="SVGID_14_">
							<use xlink:href="#SVGID_13_"  style="overflow:visible;"/>
						</clipPath>
						<g id="Group_3800" class="st25">
							<path id="Path_3050" class="st8" d="M0.2,195.3c0,0,4.3-13.8,35.9-25.5l1.1,14.4L4.2,200L0.2,195.3z"/>
						</g>
					</g>
				</g>
			</g>
		</g>
	</g>
	<path id="Path_3054" class="st5" d="M368.3,811.9c-2.2,8.1-2.5,16.8-0.7,25.1C370.6,850,368.3,811.9,368.3,811.9z"/>
	<path id="Path_3056" class="st5" d="M622.7,839.5c2.2-8,2.7-16.6,1.4-25C621.8,801.7,622.7,839.5,622.7,839.5z"/>
	<path id="Path_3055" class="st5" d="M370.8,975.8c0,0-4.3,13.6-2.1,25.9C370.9,1013.9,370.8,975.8,370.8,975.8z"/>
	<path id="Path_3057" class="st5" d="M621.9,975.8c0,0,4.4,15.3,3.1,25.2C623.7,1010.9,621.9,975.8,621.9,975.8z"/>
</g>
</svg>
