<?xml version="1.0" encoding="utf-8"?>
<!-- Generator: Adobe Illustrator 24.2.3, SVG Export Plug-In . SVG Version: 6.00 Build 0)  -->
<svg version="1.1" id="Layer_1" xmlns="http://www.w3.org/2000/svg" xmlns:xlink="http://www.w3.org/1999/xlink" x="0px" y="0px"
	 viewBox="0 0 300 778" style="enable-background:new 0 0 300 778;" xml:space="preserve">
<style type="text/css">
	.st0{fill:url(#Path_2815-2_1_);}
	.st1{fill:url(#Path_2768_1_);}
	.st2{fill:url(#Path_2769_1_);}
	.st3{fill:#EBEBEB;}
	.st4{fill:#FFFFFF;}
	.st5{fill:#00384B;}
	.st6{fill:#F2F2F3;}
	.st7{fill:#2B5766;}
	.st8{fill:#356D81;}
	.st9{fill:url(#Path_2779_1_);}
	.st10{fill:url(#Path_2780_1_);}
	.st11{fill:url(#Path_2781_1_);}
	.st12{fill:url(#Path_2782_1_);}
	.st13{fill:url(#Path_2783_1_);}
	.st14{fill:#595A5A;}
	.st15{fill:url(#Path_2786_1_);}
	.st16{fill:#0A0A0B;}
	.st17{fill:url(#Rectangle_20159_1_);}
	.st18{fill:url(#Rectangle_20160_1_);}
	.st19{fill:url(#Path_2788_1_);}
	.st20{fill:url(#Path_2789_1_);}
	.st21{fill:url(#Path_2791_1_);}
	.st22{fill:url(#Path_2792_1_);}
	.st23{fill:url(#Path_2794_1_);}
	.st24{fill:url(#Path_2795_1_);}
	.st25{fill:url(#Path_2797_1_);}
	.st26{fill:url(#Path_2798_1_);}
	.st27{fill:url(#Path_2799_1_);}
	.st28{fill:url(#Path_2800_1_);}
	.st29{fill:url(#Path_2801_1_);}
	.st30{fill:#C2C2C1;}
	.st31{fill:url(#Path_2803_1_);}
	.st32{fill:url(#Path_2804_1_);}
	.st33{fill:url(#Path_2805_1_);}
	.st34{fill:url(#Path_2806_1_);}
	.st35{fill:#9B9B9B;}
	.st36{fill:url(#Path_2808_1_);}
	.st37{fill:url(#Path_2809_1_);}
	.st38{fill:url(#Path_2810_1_);}
	.st39{fill:#D04B4B;}
	.st40{fill:#F6A84B;}
	.st41{opacity:0.8;fill:#356D81;enable-background:new    ;}
	.st42{fill:#F26B77;}
	.st43{fill:#EC5A66;}
	.st44{clip-path:url(#SVGID_2_);}
	.st45{fill:#AE2425;}
	.st46{fill:#E6E3DE;}
	.st47{fill:#06314E;}
	.st48{clip-path:url(#SVGID_4_);}
	.st49{fill:#8293A0;}
	.st50{clip-path:url(#SVGID_6_);}
	.st51{clip-path:url(#SVGID_8_);}
	.st52{clip-path:url(#SVGID_10_);}
	.st53{fill:#E3E5DA;}
	.st54{fill:#EADFDD;}
	.st55{fill:#EAEAEA;}
	.st56{fill:#2D86A5;}
	.st57{clip-path:url(#SVGID_12_);}
	.st58{fill:#296277;}
	.st59{clip-path:url(#SVGID_14_);}
	.st60{fill:#FCF8F7;}
	.st61{fill:#E7E3E4;}
	.st62{fill:none;stroke:#06314E;stroke-width:3;stroke-linecap:round;stroke-miterlimit:10;}
	.st63{fill:#929FB1;}
	.st64{fill:#E8ECEE;}
	.st65{fill:#ED1C24;}
	.st66{fill:#F15959;}
	.st67{opacity:0.5;fill:#A2ADAF;enable-background:new    ;}
	.st68{clip-path:url(#SVGID_16_);}
	.st69{fill:#059DD1;}
	.st70{fill:#33ACE2;}
	.st71{opacity:0.8;fill:#39C6F4;enable-background:new    ;}
	.st72{fill:#061C23;}
	.st73{opacity:0.52;fill:#296277;enable-background:new    ;}
	.st74{opacity:0.7;fill:#2B5766;enable-background:new    ;}
	.st75{opacity:0.3;fill:#296277;enable-background:new    ;}
	.st76{fill:#1E4E5D;}
	.st77{clip-path:url(#SVGID_18_);}
	.st78{fill:#CBE3EA;}
	.st79{clip-path:url(#SVGID_20_);}
	.st80{fill:#AF2E2B;}
	.st81{fill:#2CB7EA;}
	.st82{clip-path:url(#SVGID_22_);}
	.st83{fill:#2697D4;}
	.st84{clip-path:url(#SVGID_24_);}
	.st85{opacity:0.7;fill:#39C6F4;enable-background:new    ;}
	.st86{fill:#343C43;}
	.st87{fill:none;stroke:#1A1F23;stroke-width:0.5;stroke-linecap:round;stroke-miterlimit:10;}
	.st88{fill:#BEBEC0;}
	.st89{fill:#C1C1C5;}
	.st90{fill:#E6E7E9;}
	.st91{fill:#181415;}
	.st92{fill:#004D65;}
	.st93{fill:#00364D;}
	.st94{fill:#F3F3F1;}
	.st95{fill:#242021;}
	.st96{fill:#D2D3D5;}
	.st97{clip-path:url(#SVGID_26_);}
	.st98{clip-path:url(#SVGID_28_);}
	.st99{clip-path:url(#SVGID_30_);}
	.st100{fill:#BEBFC1;}
	.st101{fill:#0C151A;}
	.st102{fill:#E86255;}
	.st103{fill:#010101;}
	.st104{fill:#065E7B;}
	.st105{fill:#F5B4D1;stroke:#CE2527;stroke-width:0.5;stroke-miterlimit:10;}
	.st106{fill:#F3766B;}
	.st107{fill:#CE2527;}
	.st108{fill:#171314;}
	.st109{fill:#AE1F24;}
	.st110{clip-path:url(#SVGID_32_);}
	.st111{fill:#096E8E;}
	.st112{clip-path:url(#SVGID_34_);}
	.st113{fill:#E9DCE6;}
	.st114{fill:none;stroke:#CE2527;stroke-width:0.5;stroke-linecap:round;stroke-miterlimit:10;}
	.st115{clip-path:url(#SVGID_36_);}
	.st116{fill:#F4858F;}
	.st117{clip-path:url(#SVGID_38_);}
	.st118{fill:#D7CDD5;}
	.st119{clip-path:url(#SVGID_40_);}
	.st120{opacity:0.2;fill:#A21D21;enable-background:new    ;}
	.st121{opacity:0.3;fill:#991B1F;enable-background:new    ;}
	.st122{fill:#050203;}
	.st123{clip-path:url(#SVGID_42_);}
	.st124{clip-path:url(#SVGID_44_);}
	.st125{fill:#F5B4D1;}
	.st126{fill:url(#Path_3060_2_);}
	.st127{fill:url(#Path_3061_2_);}
	.st128{fill:#2E2E2E;}
	.st129{fill:#BD202E;}
	.st130{fill:#DCDBDB;}
	.st131{fill:#F6F6F6;}
	.st132{fill:url(#Path_3069_2_);}
	.st133{fill:#094F66;}
	.st134{fill:#848585;}
	.st135{fill:url(#Path_3079_2_);}
	.st136{fill:url(#Path_3080_2_);}
	.st137{fill:url(#Path_3081_2_);}
	.st138{fill:url(#Path_3082_2_);}
	.st139{fill:url(#Path_3083_2_);}
	.st140{fill:url(#Path_3084_2_);}
	.st141{fill:url(#Path_3085_2_);}
	.st142{fill:url(#Path_3086_2_);}
	.st143{fill:#7B7B7B;}
	.st144{fill:#49A9C9;}
	.st145{fill:none;}
	.st146{fill:#00253A;}
	.st147{opacity:0.49;fill:#DCDBDB;enable-background:new    ;}
	.st148{fill:#DFE0D5;}
	.st149{fill:#333333;}
	.st150{fill:#F6F8EB;}
	.st151{opacity:0.2;fill:url(#Path_6732_1_);enable-background:new    ;}
	.st152{fill:#EFEFEA;}
	.st153{fill:#CCCCCB;}
	.st154{opacity:0.5;fill:url(#Path_6742_1_);enable-background:new    ;}
	.st155{opacity:0.3;fill:url(#Path_6743_1_);enable-background:new    ;}
	.st156{opacity:0.3;fill:url(#Path_6744_1_);enable-background:new    ;}
	.st157{fill:#666766;}
	.st158{fill:#F26722;}
	.st159{fill:#E0F2F6;}
	.st160{fill:#F7F7F7;}
	.st161{fill:url(#Path_6755_1_);}
	.st162{fill:#676B86;}
	.st163{opacity:0.2;enable-background:new    ;}
	.st164{opacity:0.5;fill:url(#Path_6770_1_);enable-background:new    ;}
	.st165{opacity:0.3;fill:url(#Path_6771_1_);enable-background:new    ;}
	.st166{opacity:0.4;enable-background:new    ;}
	.st167{opacity:0.5;fill:url(#Path_6777_1_);enable-background:new    ;}
	.st168{opacity:0.3;fill:url(#Path_6778_1_);enable-background:new    ;}
	.st169{fill:url(#Path_6780_1_);}
	.st170{fill:#CB2026;}
	.st171{fill:url(#Path_6782_1_);}
	.st172{opacity:0.3;fill:#640D0D;enable-background:new    ;}
	.st173{opacity:0.5;fill:#EF3C23;enable-background:new    ;}
	.st174{fill:url(#Path_6786_1_);}
	.st175{fill:url(#Path_6788_1_);}
	.st176{fill:url(#Path_6792_1_);}
	.st177{fill:url(#Path_6794_1_);}
	.st178{opacity:0.5;fill:url(#Path_6798_1_);enable-background:new    ;}
	.st179{opacity:0.3;fill:url(#Path_6799_1_);enable-background:new    ;}
	.st180{opacity:0.4;fill:url(#Path_6801_1_);enable-background:new    ;}
	.st181{opacity:0.4;fill:url(#Path_6803_1_);enable-background:new    ;}
	.st182{fill:url(#Path_6805_1_);}
	.st183{opacity:0.5;fill:url(#Path_6809_1_);enable-background:new    ;}
	.st184{opacity:0.3;fill:url(#Path_6810_1_);enable-background:new    ;}
	.st185{opacity:0.4;fill:url(#Path_6812_1_);enable-background:new    ;}
	.st186{opacity:0.4;fill:url(#Path_6814_1_);enable-background:new    ;}
</style>
<g id="Group_3721" transform="translate(-275 -33.051) rotate(-90)">
	<path id="Path_2846" class="st39" d="M-33.3,503.7l-2.6-180.2c-7.7-39.2-52.7-32.5-52.7-32.5l-169.8-0.3
		c0.8-21.8-26.4-14.6-26.4-14.6l8.5,14.5l-510.2-0.1c-27,2.2-24.4,26.9-24.4,26.9v89.5l0.6,125.9c0,34.7,41.2,28,41.2,28l492.9-0.8
		l-9.3,9.6c0,0,21.3,17.2,28.4-9.5l-0.5-0.1l175.5-0.3C-26.8,556.3-33.3,503.7-33.3,503.7z"/>
	<path id="Path_2847" class="st40" d="M-805.2,315.7h9v50.4h-9C-805.2,366.1-804.1,314.8-805.2,315.7z"/>
	<path id="Path_2848" class="st40" d="M-804.5,485.3h9v50.4h-9C-804.5,535.6-803.5,484.4-804.5,485.3z"/>
	<g id="Group_3714" transform="translate(-46.698 294.572)">
		<path id="Path_2849" class="st4" d="M-5.2,72.1c0,0,2.9-35-3.7-45.5H6.6c0,0,4.9,27.6,2.3,45.5C8.9,72.1-5.6,71.7-5.2,72.1z"/>
		<path id="Path_2850" class="st40" d="M-25.8,10.5H-4c5.6,5.9,9.5,12.7,11.6,20.1H-7.8C-7.8,30.6-11.7,15-25.8,10.5z"/>
	</g>
	<path id="Path_2851" class="st5" d="M-777.5,552.4c0,0-15.4-198.1,9-255.2l530.6,2.8l40.6,106.9l7.7,106.3l-43.7,41.4L-777.5,552.4
		z"/>
	<g id="Group_3715" transform="translate(-46.698 365.745)">
		<path id="Path_2852" class="st4" d="M-5.2,118.4c0,0,2.9,35-3.7,45.5H6.6c0,0,4.9-27.6,2.3-45.5C8.9,118.4-5.6,118.7-5.2,118.4z"
			/>
		<path id="Path_2853" class="st40" d="M-25.8,179.9H-4c5.6-5.9,9.5-12.7,11.6-20.1H-7.8C-7.8,159.8-11.7,175.5-25.8,179.9z"/>
	</g>
	<path id="Path_2854" class="st7" d="M-729.5,323h420.2c0,0,43.7,114.3,0,203.7h-421.5C-730.9,526.7-746.4,396.3-729.5,323z"/>
	<g id="Group_3716" transform="translate(-292.881 329.408)">
		<path id="Path_2855" class="st41" d="M-490.8,156.9l100.1,31.4l10.3-47l-110.3-31.4L-490.8,156.9z"/>
		<path id="Path_2856" class="st41" d="M-491.6,89.8l107.3,33.6l10.3-26.9l-116.6-33.2L-491.6,89.8z"/>
	</g>
	<path id="Path_2857" class="st39" d="M-777.5,302.8L-708,342l11.7-8.1l-72-39.3L-777.5,302.8z"/>
	
		<rect id="Rectangle_20162" x="-747.8" y="417.1" transform="matrix(-2.535182e-06 -1 1 -2.535182e-06 -1042.8009 -193.146)" class="st39" width="259.6" height="15.4"/>
	
		<rect id="Rectangle_20163" x="-578" y="417.1" transform="matrix(-2.535182e-06 -1 1 -2.535182e-06 -872.9888 -23.3343)" class="st39" width="259.6" height="15.4"/>
	<path id="Path_2858" class="st39" d="M-698.3,516l-76.7,43.2l-11.6-11.2l77.7-40.3L-698.3,516z"/>
	<path id="Path_2859" class="st41" d="M-207.6,466.2l-128.6-40.3l-10.3,47l145.4,41.4L-207.6,466.2z"/>
	<path id="Path_2860" class="st41" d="M-207.6,417l-128.6-40.3l-10.3,26.9l145.4,41.4L-207.6,417z"/>
	<g id="Group_3717" transform="translate(-140.556 291.459)">
		<path id="Path_2861" class="st39" d="M-195.7,42.7l85.4-38.3L-92,9.8L-189.3,55L-195.7,42.7z"/>
		<path id="Path_2862" class="st39" d="M-79,256.3l-18.2,10l-103.2-40.5l15.8-10L-79,256.3z"/>
	</g>
	<path id="Path_2863" class="st42" d="M-710.6,333.1h389.1c0,0,34.1,103-5.8,183.5h-384.6C-711.9,516.6-726,399.1-710.6,333.1z"/>
	<path id="Path_2864" class="st43" d="M-437.9,354.3v139.9h68.2c0,0,25.7-85.1-1.3-137.7C-371,356.6-436.4,354.3-437.9,354.3z"/>
	<path id="Path_2865" class="st42" d="M-241.7,302.3H-104c0,0,45-3.4,46.3,32.5l1.3,165.6c0,0,12.9,44.8-43.7,49.2H-243
		C-243,549.6-190.2,423.1-241.7,302.3z"/>
	<g id="Group_3720" transform="translate(-105.637 293.427)">
		<g>
			<defs>
				<path id="SVGID_1_" d="M-136,8.9H1.6c0,0,45-3.4,46.3,32.5l1.3,165.6c0,0,12.9,44.8-43.7,49.2h-142.8
					C-137.3,256.2-84.6,129.7-136,8.9z"/>
			</defs>
			<clipPath id="SVGID_2_">
				<use xlink:href="#SVGID_1_"  style="overflow:visible;"/>
			</clipPath>
			<g id="Group_3719" transform="translate(0 0)" class="st44">
				<g id="Group_3718" transform="translate(4.787 18.59)">
					<path id="Path_2866" class="st43" d="M-125.8,36.9L5.8,49.6L-124.4,51L-125.8,36.9z"/>
					<path id="Path_2867" class="st43" d="M-127,178.5l138.7-1.9l-139.9,15.9L-127,178.5z"/>
				</g>
			</g>
		</g>
	</g>
	<path id="Path_2869" class="st42" d="M-777.5,302.8c0,0-30.9,108.6-1.3,246.2l9.6-0.6c0,0-21.9-174.6,0-244L-777.5,302.8z"/>
	<path id="Path_2870" class="st45" d="M-276.1,560.1h12.6c0,0-7,4-22.1,9.5C-281.3,561.9-276.1,560.1-276.1,560.1z"/>
	<path id="Path_2871" class="st45" d="M-277.7,291.1h13.4c0,0-5.3-9.4-20.4-14.9C-281.6,292.4-277.7,291.1-277.7,291.1z"/>
</g>
</svg>
