<?xml version="1.0" encoding="utf-8"?>
<!-- Generator: Adobe Illustrator 24.2.3, SVG Export Plug-In . SVG Version: 6.00 Build 0)  -->
<svg version="1.1" id="Layer_1" xmlns="http://www.w3.org/2000/svg" xmlns:xlink="http://www.w3.org/1999/xlink" x="0px" y="0px"
	 viewBox="0 0 300 851.3" style="enable-background:new 0 0 300 851.3;" xml:space="preserve">
<style type="text/css">
	.st0{fill:#E6E3DE;}
	.st1{fill:#06314E;}
	.st2{clip-path:url(#SVGID_2_);}
	.st3{fill:#8293A0;}
	.st4{clip-path:url(#SVGID_4_);}
	.st5{clip-path:url(#SVGID_6_);}
	.st6{clip-path:url(#SVGID_8_);}
	.st7{fill:#E3E5DA;}
	.st8{fill:#EADFDD;}
	.st9{fill:#EAEAEA;}
	.st10{fill:#2D86A5;}
	.st11{clip-path:url(#SVGID_10_);}
	.st12{fill:#296277;}
	.st13{clip-path:url(#SVGID_12_);}
	.st14{fill:#FFFFFF;}
	.st15{fill:#FCF8F7;}
	.st16{fill:#00384B;}
	.st17{opacity:0.7;fill:#296277;}
	.st18{fill:#E7E3E4;}
	.st19{fill:none;stroke:#06314E;stroke-width:3;stroke-linecap:round;stroke-miterlimit:10;}
	.st20{fill:#929FB1;}
	.st21{fill:#E8ECEE;}
	.st22{fill:#ED1C24;}
	.st23{fill:#F15959;}
	.st24{opacity:0.5;fill:#A2ADAF;enable-background:new    ;}
	.st25{fill:#DFE0D5;}
	.st26{fill:#333333;}
	.st27{fill:#F6F8EB;}
	.st28{opacity:0.2;fill:url(#Path_6732_1_);enable-background:new    ;}
	.st29{fill:#EFEFEA;}
	.st30{fill:#CCCCCB;}
	.st31{fill:none;}
	.st32{opacity:0.5;fill:url(#Path_6742_1_);enable-background:new    ;}
	.st33{opacity:0.3;fill:url(#Path_6743_1_);enable-background:new    ;}
	.st34{opacity:0.3;fill:url(#Path_6744_1_);enable-background:new    ;}
	.st35{fill:#666766;}
	.st36{fill:#F26722;}
	.st37{fill:#E0F2F6;}
	.st38{fill:#F7F7F7;}
	.st39{fill:url(#Path_6755_1_);}
	.st40{fill:#676B86;}
	.st41{opacity:0.2;enable-background:new    ;}
	.st42{opacity:0.5;fill:url(#Path_6770_1_);enable-background:new    ;}
	.st43{opacity:0.3;fill:url(#Path_6771_1_);enable-background:new    ;}
	.st44{opacity:0.4;enable-background:new    ;}
	.st45{opacity:0.5;fill:url(#Path_6777_1_);enable-background:new    ;}
	.st46{opacity:0.3;fill:url(#Path_6778_1_);enable-background:new    ;}
	.st47{fill:url(#Path_6780_1_);}
	.st48{fill:#CB2026;}
	.st49{fill:url(#Path_6782_1_);}
	.st50{opacity:0.3;fill:#640D0D;enable-background:new    ;}
	.st51{opacity:0.5;fill:#EF3C23;enable-background:new    ;}
	.st52{fill:url(#Path_6786_1_);}
	.st53{fill:url(#Path_6788_1_);}
	.st54{fill:url(#Path_6792_1_);}
	.st55{fill:url(#Path_6794_1_);}
	.st56{opacity:0.5;fill:url(#Path_6798_1_);enable-background:new    ;}
	.st57{opacity:0.3;fill:url(#Path_6799_1_);enable-background:new    ;}
	.st58{opacity:0.4;fill:url(#Path_6801_1_);enable-background:new    ;}
	.st59{opacity:0.4;fill:url(#Path_6803_1_);enable-background:new    ;}
	.st60{fill:url(#Path_6805_1_);}
	.st61{opacity:0.5;fill:url(#Path_6809_1_);enable-background:new    ;}
	.st62{opacity:0.3;fill:url(#Path_6810_1_);enable-background:new    ;}
	.st63{opacity:0.4;fill:url(#Path_6812_1_);enable-background:new    ;}
	.st64{opacity:0.4;fill:url(#Path_6814_1_);enable-background:new    ;}
</style>
<g id="Group_5637" transform="translate(281.853 409.152) rotate(90)">
	<path id="Path_6728" class="st25" d="M-325.1-0.3h705.6c36.4,0,61.7,19.4,61.7,43.3v177.1c0,23.9-25.4,43.3-56.7,43.3h-711
		c-46.2,0-83.7-28.6-83.7-64V63.7C-409.1,28.4-366.3-0.3-325.1-0.3z"/>
	<path id="Path_6729" class="st26" d="M442.2,220.1V43.1c0.3-23.7-23.6-43.1-53.2-43.3h-17.4v263.7H389
		C418.6,263.2,442.4,243.8,442.2,220.1z"/>
	<path id="Path_6730" class="st26" d="M-330.3-0.3h-0.3c-43.7,0.3-78.9,28.9-78.5,64v135.7c-0.4,35,34.8,63.7,78.5,64h0.3V-0.3z"/>
	<path id="Path_6731" class="st27" d="M384.2,255h-708.3c-35.5,0-64.3-22.1-64.3-49.3V57.4c0-27.2,28.8-49.3,64.3-49.3h708.3
		c20.6,0,37.2,12.8,37.2,28.5v189.9C421.4,242.3,404.8,255,384.2,255z"/>
	
		<linearGradient id="Path_6732_1_" gradientUnits="userSpaceOnUse" x1="46.4538" y1="1759.64" x2="45.3839" y2="1759.64" gradientTransform="matrix(0 -108.646 -285.374 0 512221.2188 5178.5986)">
		<stop  offset="5.000000e-03" style="stop-color:#333333"/>
		<stop  offset="1" style="stop-color:#333333;stop-opacity:0"/>
	</linearGradient>
	<path id="Path_6732" class="st28" d="M384.2,255h-708.3c-35.5,0-64.3-22.1-64.3-49.3V57.4c0-27.2,28.8-49.3,64.3-49.3h708.3
		c20.6,0,37.2,12.8,37.2,28.5v189.9C421.4,242.3,404.8,255,384.2,255z"/>
	
		<rect id="Rectangle_24372" x="110.5" y="-203.4" transform="matrix(2.535182e-06 1 -1 2.535182e-06 160.2867 -63.993)" class="st29" width="3.4" height="503.2"/>
	
		<rect id="Rectangle_24373" x="110.5" y="-32.9" transform="matrix(2.535182e-06 1 -1 2.535182e-06 330.8326 106.5525)" class="st29" width="3.4" height="503.2"/>
	<g id="Group_5631" transform="translate(-198.806 157.723)">
		<path id="Path_6733" class="st29" d="M391,66.5h-4.5l4.2,39.2h4.5L391,66.5z"/>
		<path id="Path_6734" class="st29" d="M391-115.3L391-115.3l4.8-42.7h-4.5l-4.8,42.7l0,0H391z"/>
	</g>
	<path id="Path_6735" class="st29" d="M371.6,263.4h-3.5l-8.9-42.2V45.6l9.2-44.3l3.1-1.6v8.9l-7.9,37v175.6l7.9,37.6L371.6,263.4z"
		/>
	
		<rect id="Rectangle_24374" x="109.1" y="-205" transform="matrix(2.535182e-06 1 -1 2.535182e-06 157.3927 -64.2309)" class="st25" width="3.4" height="503.2"/>
	
		<rect id="Rectangle_24375" x="109.1" y="-34.4" transform="matrix(2.535182e-06 1 -1 2.535182e-06 327.9387 106.3146)" class="st25" width="3.4" height="503.2"/>
	<g id="Group_5632" transform="translate(-199.31 157.723)">
		<path id="Path_6736" class="st25" d="M390.1,65h-4.5l4.5,40.7h4.5L390.1,65z"/>
		<path id="Path_6737" class="st25" d="M390.1-116.8L390.1-116.8l4.5-41.2h-4.5l-4.5,41.2l0,0H390.1z"/>
	</g>
	<path id="Path_6738" class="st25" d="M371.6,263.4h-4.5l-9.2-43.7V44.1l9.2-44.3h4.5l-9.2,44.3v175.6L371.6,263.4z"/>
	<path id="Path_6739" class="st30" d="M364.1,33.1h11v-3.4h-10.2L364.1,33.1z"/>
	<path id="Path_6740" class="st30" d="M364.1,230.7h11v3.4h-10.2L364.1,230.7z"/>
	<path id="Path_6741" class="st30" d="M421.4,35.1v193.1c0.4,15.7-15.2,28.7-34.8,29h6.4c19.6-0.3,35.2-13.3,34.8-29V35.1
		c0.4-15.7-15.2-28.7-34.8-29h-6.4C406.2,6.4,421.8,19.4,421.4,35.1z"/>
	
		<radialGradient id="Path_6742_1_" cx="-24.6662" cy="1860.9958" r="2.1886" gradientTransform="matrix(-137.8745 0 0 -106.2493 12643.1738 188585.1094)" gradientUnits="userSpaceOnUse">
		<stop  offset="0" style="stop-color:#FFFFFF;stop-opacity:0"/>
		<stop  offset="1" style="stop-color:#FFFFFF"/>
	</radialGradient>
	<path id="Path_6742" class="st32" d="M419,228.4V36.9c-0.4-16.2-17.1-29-37.3-28.7h-709.3c-16.4,0-32.2,4.8-44.3,13.7
		c12.3-10,29.2-15.6,46.7-15.5h709.3C404.4,6,421,18.9,421.4,35.1v191.5c0,8.1-4.5,15.9-12.2,21.2C415.5,242.6,419,235.7,419,228.4z
		"/>
	
		<linearGradient id="Path_6743_1_" gradientUnits="userSpaceOnUse" x1="185.4075" y1="1895.4484" x2="185.1947" y2="1895.4484" gradientTransform="matrix(0 -10.212 -52.968 0 94459.6328 2079.387)">
		<stop  offset="5.000000e-03" style="stop-color:#333333"/>
		<stop  offset="1" style="stop-color:#333333;stop-opacity:0"/>
	</linearGradient>
	<path id="Path_6743" class="st33" d="M-388.4,174.4l-1.5,14.8l148.9,8.4l1.5-14.8L-388.4,174.4z"/>
	
		<linearGradient id="Path_6744_1_" gradientUnits="userSpaceOnUse" x1="191.3942" y1="1834.1545" x2="191.1814" y2="1834.1545" gradientTransform="matrix(0 -10.211 -52.968 0 94459.6328 2031.4446)">
		<stop  offset="5.000000e-03" style="stop-color:#333333"/>
		<stop  offset="1" style="stop-color:#333333;stop-opacity:0"/>
	</linearGradient>
	<path id="Path_6744" class="st34" d="M-388.4,88.7l-1.5-14.8l148.9-8.4l1.5,14.8L-388.4,88.7z"/>
	<path id="Path_6745" class="st35" d="M-395.1,57.4v148.4c-0.4,26.9,26.6,49,60.2,49.3h6.7c-33.6-0.3-60.5-22.4-60.2-49.3V57.4
		c-0.4-26.9,26.6-49,60.2-49.3h-6.7C-368.6,8.4-395.5,30.5-395.1,57.4z"/>
	<path id="Path_6746" class="st36" d="M-375.1,238h-6.7c11.8,10.9,28.9,17.2,46.9,17.1h6.7C-346.2,255.1-363.4,248.9-375.1,238z"/>
	<path id="Path_6747" class="st37" d="M-375.1,234.3c-8.5-7.9-13.2-18-13.3-28.5v-29.5l-6.7-2v31.5c0,10.5,4.7,20.6,13.3,28.5
		L-375.1,234.3z"/>
	<path id="Path_6748" class="st36" d="M-375.1,25.2h-6.7C-370.1,14.3-353,8-335,8.1h6.7C-346.2,8-363.4,14.3-375.1,25.2z"/>
	<path id="Path_6749" class="st37" d="M-375.1,28.8c-8.5,7.9-13.2,18-13.3,28.5v29.6l-6.7,2V57.3c0-10.5,4.7-20.6,13.3-28.5
		L-375.1,28.8z"/>
	<path id="Path_6750" class="st26" d="M-393.4,94.8v73.4l-1.1-0.4V95.3L-393.4,94.8z"/>
	<path id="Path_6751" class="st26" d="M-391.2,94.3v74.5l-1.1-0.4V94.8L-391.2,94.3z"/>
	<path id="Path_6752" class="st26" d="M-389,93.4v76.4l-1.1-0.4V93.8L-389,93.4z"/>
	<path id="Path_6753" class="st30" d="M-391.8,126.6c1.2,0,2.2,2.2,2.2,4.9s-1,4.9-2.2,4.9c-1.2,0-2.2-2.2-2.2-4.9
		S-393,126.6-391.8,126.6z"/>
	<path id="Path_6754" class="st38" d="M-184.4,216.4c-4.7-26.1-15.8-109.5-1-166.6c1.5-5.6-2.1-11.3-8.6-13.7l-86.1-26.6
		c-6.1-2.2-13.3,0.1-16,5c-0.2,0.4-0.4,0.8-0.5,1.2c-11,29.1-36.3,116.2,1.2,231.4c1.7,5.2,8.3,8.4,14.8,7c0.5-0.1,1.1-0.3,1.6-0.4
		l85.5-24.3C-187.2,227.3-183.4,221.9-184.4,216.4z"/>
	
		<linearGradient id="Path_6755_1_" gradientUnits="userSpaceOnUse" x1="116.1486" y1="1787.2192" x2="116.1486" y2="1787.2897" gradientTransform="matrix(0 -108.1111 -46.1692 0 82264.625 5161.6289)">
		<stop  offset="5.000000e-03" style="stop-color:#333333"/>
		<stop  offset="1" style="stop-color:#333333;stop-opacity:0"/>
	</linearGradient>
	<path id="Path_6755" class="st39" d="M-184.4,216.4c-4.7-26.1-15.8-109.5-1-166.6c1.5-5.6-2.1-11.3-8.6-13.7l-86.1-26.6
		c-6.1-2.2-13.3,0.1-16,5c-0.2,0.4-0.4,0.8-0.5,1.2c-11,29.1-36.3,116.2,1.2,231.4c1.7,5.2,8.3,8.4,14.8,7c0.5-0.1,1.1-0.3,1.6-0.4
		l85.5-24.3C-187.2,227.3-183.4,221.9-184.4,216.4z"/>
	<path id="Path_6756" d="M-190.3,218.5c0,2.9-2.2,5.6-5.6,6.7l-85.5,24.3c-1.7,0.6-3.6,0.5-5.2-0.2c-1.6-0.6-2.7-1.8-3.1-3.2
		c-12.9-39.3-19.5-79.7-19.6-120.3c0-52.7,11.5-90.9,18.3-109c0.5-1.4,1.7-2.5,3.3-3.1c1.6-0.6,3.5-0.6,5.1,0l86.1,26.7
		c3.3,1.2,5.3,3.8,5.3,6.7c0,0.5-0.1,1-0.2,1.5c-5,19.4-7.6,46.6-7.6,73c0.3,32.1,3.1,64.1,8.5,95.8
		C-190.3,217.7-190.3,218.1-190.3,218.5z"/>
	<path id="Path_6757" class="st40" d="M-193.3,218.6c0,1.9-1.4,3.7-3.7,4.5l-85.5,24.4c-0.9,0.3-1.9,0.3-2.7-0.1
		c-0.8-0.3-1.4-0.9-1.6-1.6c-12.8-39.1-19.4-79.4-19.5-119.9c0-52.4,11.4-90.5,18.2-108.5c0.3-0.7,0.9-1.3,1.7-1.6
		c0.8-0.3,1.8-0.3,2.7,0l86.1,26.7c2.2,0.8,3.5,2.5,3.5,4.4c0,0.3,0,0.7-0.1,1c-5.1,19.6-7.6,47.1-7.6,73.7
		c0.3,32.2,3.1,64.4,8.5,96.3C-193.3,218.1-193.3,218.4-193.3,218.6z"/>
	<path id="Path_6758" class="st41" d="M-260.8,240.2c-8.5-28.8-13.7-66.9-13.7-108.6c0-41.3,5.1-79,13.4-107.7l-22.7-8.1
		c-0.8-0.3-1.8-0.3-2.7,0c-0.8,0.3-1.4,0.9-1.7,1.6c-6.8,18-18.2,56-18.2,108.5c0.1,40.5,6.7,80.8,19.5,119.9
		c0.2,0.7,0.8,1.3,1.6,1.6c0.8,0.3,1.8,0.4,2.7,0.1L-260.8,240.2z"/>
	<path id="Path_6759" class="st26" d="M-280.8,246.9c-9.3-30.8-14.9-71.1-14.9-115.3c0-43.9,5.6-84,14.7-114.8l-2.8-1
		c-0.8-0.3-1.8-0.3-2.7,0c-0.8,0.3-1.4,0.9-1.7,1.6c-6.8,18-18.2,56-18.2,108.5c0.1,40.5,6.7,80.8,19.5,119.9
		c0.2,0.7,0.8,1.3,1.6,1.6c0.8,0.3,1.8,0.4,2.7,0.1L-280.8,246.9z"/>
	<path id="Path_6760" d="M-282.3,207.4l-8.2-29.7l2-0.3l7.2,29.8L-282.3,207.4z"/>
	<path id="Path_6761" d="M-298.4,133.8l9.8,40.5l-2.5-2l-9.2-38.3L-298.4,133.8z"/>
	<g id="Group_5633" transform="translate(-370.423 216.673)">
		<path id="Path_6762" class="st26" d="M89.2-12.2L72.2-83l-1,0.1l17.4,72.5L89.2-12.2z"/>
	</g>
	<path id="Path_6763" d="M-298.8,132.3c-1.5,0.2-2.9-0.5-3.2-1.7c-0.2-1.1,0.7-2.2,2.1-2.4c0,0,0,0,0.1,0c1.5-0.2,2.9,0.5,3.2,1.7
		C-296.3,131.1-297.3,132.1-298.8,132.3C-298.8,132.3-298.8,132.3-298.8,132.3z"/>
	<path id="Path_6764" class="st26" d="M-298.3,132.3c-1.2,0.2-2.4-0.4-2.6-1.4c-0.2-0.9,0.6-1.8,1.8-2c0,0,0,0,0.1,0
		c1.2-0.2,2.4,0.4,2.6,1.4C-296.3,131.2-297.1,132.1-298.3,132.3C-298.3,132.3-298.3,132.3-298.3,132.3z"/>
	<path id="Path_6765" d="M-286.6,136.8l-4.2-30.1l2-0.1l3.2,30.2L-286.6,136.8z"/>
	<path id="Path_6766" d="M-293.3,62.1l4.4,41.1l-2.2-2.2l-4.1-38.8L-293.3,62.1z"/>
	<g id="Group_5634" transform="translate(-368.56 184.782)">
		<path id="Path_6767" class="st26" d="M83.2-51.8l-7.6-71.7l-1.1,0.1l7.8,73.4L83.2-51.8z"/>
	</g>
	<path id="Path_6768" d="M-293.7,61.2c-1.5,0.1-2.8-0.7-3-1.9c-0.1-1.2,1-2.2,2.5-2.2c0,0,0,0,0,0c1.5-0.1,2.8,0.7,3,1.9
		C-291.1,60.2-292.3,61.2-293.7,61.2C-293.7,61.2-293.7,61.2-293.7,61.2z"/>
	<path id="Path_6769" class="st26" d="M-293.2,61.2c-1.2,0.1-2.3-0.6-2.4-1.6c-0.1-1,0.8-1.8,2.1-1.8c0,0,0,0,0,0
		c1.2-0.1,2.3,0.6,2.4,1.6C-291.1,60.4-292,61.2-293.2,61.2C-293.2,61.2-293.2,61.2-293.2,61.2z"/>
	
		<radialGradient id="Path_6770_1_" cx="22.2147" cy="1685.5607" r="1.9727" gradientTransform="matrix(-124.0852 0 0 102.1179 6913.7573 -189475.2969)" gradientUnits="userSpaceOnUse">
		<stop  offset="0" style="stop-color:#FFFFFF;stop-opacity:0"/>
		<stop  offset="1" style="stop-color:#FFFFFF"/>
	</radialGradient>
	<path id="Path_6770" class="st42" d="M-193.3,218.6c0,1.9-1.4,3.7-3.7,4.5l-85.5,24.4c-0.9,0.3-1.9,0.3-2.7-0.1
		c-0.8-0.3-1.4-0.9-1.6-1.6c-12.8-39.1-19.4-79.4-19.5-119.9c0-52.4,11.4-90.5,18.2-108.5c0.3-0.7,0.9-1.3,1.7-1.6
		c0.8-0.3,1.8-0.3,2.7,0l86.1,26.7c2.2,0.8,3.5,2.5,3.5,4.4c0,0.3,0,0.7-0.1,1c-5.1,19.6-7.6,47.1-7.6,73.7
		c0.3,32.2,3.1,64.4,8.5,96.3C-193.3,218.1-193.3,218.4-193.3,218.6z"/>
	
		<radialGradient id="Path_6771_1_" cx="22.3813" cy="1685.6655" r="1.9" gradientTransform="matrix(-124.0852 0 0 102.1179 6919.6733 -189444.4531)" gradientUnits="userSpaceOnUse">
		<stop  offset="1.000000e-02" style="stop-color:#000000"/>
		<stop  offset="1" style="stop-color:#000000;stop-opacity:0"/>
	</radialGradient>
	<path id="Path_6771" class="st43" d="M-193.3,218.6c0,1.9-1.4,3.7-3.7,4.5l-85.5,24.4c-0.9,0.3-1.9,0.3-2.7-0.1
		c-0.8-0.3-1.4-0.9-1.6-1.6c-12.8-39.1-19.4-79.4-19.5-119.9c0-52.4,11.4-90.5,18.2-108.5c0.3-0.7,0.9-1.3,1.7-1.6
		c0.8-0.3,1.8-0.3,2.7,0l86.1,26.7c2.2,0.8,3.5,2.5,3.5,4.4c0,0.3,0,0.7-0.1,1c-5.1,19.6-7.6,47.1-7.6,73.7
		c0.3,32.2,3.1,64.4,8.5,96.3C-193.3,218.1-193.3,218.4-193.3,218.6z"/>
	<path id="Path_6772" class="st14" d="M371.7,229.3c1.8-26.4,6.2-134.7,0.4-192.2c-0.6-5.7,0.8-11.5,3.4-13.8l33.6-2.5
		c2.6-2.4,5.6,0.5,6.5,6.2c4.3,29.3,14.2,92.9-0.5,209c-0.7,5.8-3.7,8.9-6.4,6.7l-33.4-0.2C372.8,240.3,371.3,234.9,371.7,229.3z"/>
	<path id="Path_6773" d="M374,231.4c-0.2,2.4,0.5,4.8,2.2,6.8l33.4,0.2c0.7,0.6,1.4,0.5,2-0.2c0.7-1,1.2-2.1,1.2-3.2
		c5.1-36.3,7.6-72.7,7.7-109.2c0.4-32.7-2-65.4-7.1-97.8c-0.1-1.1-0.5-2.2-1.3-3.1c-0.3-0.4-1-0.6-1.6-0.4c-0.2,0.1-0.3,0.2-0.4,0.3
		l-33.6,2.5c-1.5,2-2.3,4.4-2.1,6.7c0,0.5,0,1,0.1,1.5c2,19.6,2.9,59.2,2.9,85.9c0,38.8-2.1,90.9-3.3,108.9
		C374,230.7,374,231.1,374,231.4z"/>
	<path id="Path_6774" class="st40" d="M375.1,231.6c-0.1,1.6,0.4,3.2,1.4,4.5l33.4,0.2c0.5,0.4,0.9,0.1,1.1-0.1
		c0.4-0.5,0.6-1,0.6-1.6c5-36.1,7.6-72.5,7.6-108.8c0.4-32.5-2-65-7.1-97.3c0-0.6-0.3-1.1-0.7-1.6c-0.2-0.2-0.5-0.3-0.8-0.2
		c-0.1,0-0.2,0.1-0.2,0.2l-33.6,2.5c-1,1.3-1.5,2.9-1.4,4.4c0,0.3,0,0.7,0.1,1c2,19.8,3,59.7,3,86.6c0,39-2.1,91.4-3.3,109.4
		C375.2,231.2,375.1,231.4,375.1,231.6z"/>
	<path id="Path_6775" class="st44" d="M409.9,236.3c0.5,0.4,0.9,0.1,1.1-0.1c0.4-0.5,0.6-1,0.6-1.6c5-36.1,7.6-72.5,7.6-108.8
		c0.4-32.5-2-65-7.1-97.3c0-0.6-0.3-1.1-0.7-1.6c-0.2-0.2-0.5-0.3-0.8-0.2c-0.1,0-0.2,0.1-0.2,0.2l-9.6,0.7v208.9L409.9,236.3z"/>
	<path id="Path_6776" d="M409.3,235.7c4.1-34.6,6.1-69.4,5.8-104.1c0.3-34.6-1.7-69.2-5.7-103.7l1.1-1c0.2-0.2,0.6-0.3,0.8-0.2
		c0.1,0,0.2,0.1,0.2,0.2c0.4,0.5,0.6,1,0.7,1.6c5.1,32.3,7.5,64.8,7.1,97.3c0,36.4-2.6,72.7-7.6,108.8c0,0.6-0.2,1.1-0.6,1.6
		c-0.2,0.2-0.6,0.5-1.1,0.1L409.3,235.7z"/>
	
		<radialGradient id="Path_6777_1_" cx="93.2114" cy="1778.1958" r="1.9841" gradientTransform="matrix(43.4241 0 0 92.3193 2917.821 -164274.5625)" gradientUnits="userSpaceOnUse">
		<stop  offset="0" style="stop-color:#FFFFFF;stop-opacity:0"/>
		<stop  offset="1" style="stop-color:#FFFFFF"/>
	</radialGradient>
	<path id="Path_6777" class="st45" d="M375.1,231.6c-0.1,1.6,0.4,3.2,1.4,4.5l33.4,0.2c0.5,0.4,0.9,0.1,1.1-0.1
		c0.4-0.5,0.6-1,0.6-1.6c5-36.1,7.6-72.5,7.6-108.8c0.4-32.5-2-65-7.1-97.3c0-0.6-0.3-1.1-0.7-1.6c-0.2-0.2-0.5-0.3-0.8-0.2
		c-0.1,0-0.2,0.1-0.2,0.2l-33.6,2.5c-1,1.3-1.5,2.9-1.4,4.4c0,0.3,0,0.7,0.1,1c2,19.8,3,59.7,3,86.6c0,39-2.1,91.4-3.3,109.4
		C375.2,231.2,375.1,231.4,375.1,231.6z"/>
	
		<radialGradient id="Path_6778_1_" cx="13.5739" cy="1515.0958" r="2.6522" gradientTransform="matrix(-43.4241 0 0 92.3193 4132.998 -183421.7656)" gradientUnits="userSpaceOnUse">
		<stop  offset="1.000000e-02" style="stop-color:#000000"/>
		<stop  offset="1" style="stop-color:#000000;stop-opacity:0"/>
	</radialGradient>
	<path id="Path_6778" class="st46" d="M375.1,231.6c-0.1,1.6,0.4,3.2,1.4,4.5l33.4,0.2c0.5,0.4,0.9,0.1,1.1-0.1
		c0.4-0.5,0.6-1,0.6-1.6c5-36.1,7.6-72.5,7.6-108.8c0.4-32.5-2-65-7.1-97.3c0-0.6-0.3-1.1-0.7-1.6c-0.2-0.2-0.5-0.3-0.8-0.2
		c-0.1,0-0.2,0.1-0.2,0.2l-33.6,2.5c-1,1.3-1.5,2.9-1.4,4.4c0,0.3,0,0.7,0.1,1c2,19.8,3,59.7,3,86.6c0,39-2.1,91.4-3.3,109.4
		C375.2,231.2,375.1,231.4,375.1,231.6z"/>
	<path id="Path_6779" class="st36" d="M422.8,242.3h-6.4c-6.6,8-17.8,12.8-29.8,12.7h6.4C405,255.1,416.2,250.3,422.8,242.3z"/>
	
		<radialGradient id="Path_6780_1_" cx="-75.2299" cy="650.1189" r="1.7045" gradientTransform="matrix(-7.4012 0 0 5.6085 3016.1204 -12144.6143)" gradientUnits="userSpaceOnUse">
		<stop  offset="0" style="stop-color:#FFFFFF;stop-opacity:0"/>
		<stop  offset="1" style="stop-color:#FFFFFF"/>
	</radialGradient>
	<path id="Path_6780" class="st47" d="M386.6,255h1.7c12,0.1,23.2-4.7,29.8-12.7h-1.7C409.8,250.3,398.6,255.1,386.6,255z"/>
	<path id="Path_6781" class="st48" d="M422.8,242.3c3.3-4.1,5-8.8,5-13.6V212l-6.4-1.1v17.7c0,4.8-1.8,9.6-5,13.6L422.8,242.3z"/>
	
		<radialGradient id="Path_6782_1_" cx="160.9766" cy="2728.4919" r="0.8134" gradientTransform="matrix(-18.2077 0 0 13.793 3350.665 -37407.4609)" gradientUnits="userSpaceOnUse">
		<stop  offset="0" style="stop-color:#FFFFFF;stop-opacity:0"/>
		<stop  offset="1" style="stop-color:#FFFFFF"/>
	</radialGradient>
	<path id="Path_6782" class="st49" d="M422.9,211.2l-1.5-0.3v17.7c0,4.8-1.8,9.6-5,13.6h1.5c3.3-4.1,5-8.8,5-13.6L422.9,211.2z"/>
	<path id="Path_6783" class="st50" d="M419.9,239.3c-0.5,0.6-1.1,1.4-0.6,2c0.6,0.6,1.6,0.7,2.3,0.3c0.7-0.4,1.2-0.9,1.5-1.6
		c2.2-4.1,3.3-8.4,3.4-12.8c0.1-2.5,0.1-5,0.1-7.5c0-1.4,0.9-4.8-1-5.8c-1-0.3-2.1-0.5-3.1-0.5c0.1,4.2,0.1,8.4,0,12.5
		c0.1,3.6-0.3,7.2-1.3,10.7C421,237.6,420.5,238.5,419.9,239.3z"/>
	<path id="Path_6784" class="st51" d="M399.4,254.1c3.6-1.2,7.1-2.6,10.4-4.3c3.2-1.6,5.8-4,7.5-6.8c1.1-0.2,2.2-0.1,3.2,0.4
		C415.5,249.1,407.9,253,399.4,254.1z"/>
	<path id="Path_6785" class="st36" d="M422.8,18.8h-6.4c-6.6-8-17.8-12.8-29.8-12.7h6.4C405,5.9,416.2,10.7,422.8,18.8z"/>
	
		<radialGradient id="Path_6786_1_" cx="992.5777" cy="1421.2758" r="1.7058" gradientTransform="matrix(-7.3999 0 0 -5.6095 7747.3579 7985.0854)" gradientUnits="userSpaceOnUse">
		<stop  offset="0" style="stop-color:#FFFFFF;stop-opacity:0"/>
		<stop  offset="1" style="stop-color:#FFFFFF"/>
	</radialGradient>
	<path id="Path_6786" class="st52" d="M386.6,6h1.7c12-0.1,23.2,4.7,29.8,12.7h-1.7C409.8,10.7,398.6,5.9,386.6,6z"/>
	<path id="Path_6787" class="st48" d="M422.8,18.8c3.3,4.1,5,8.8,5,13.6V49l-6.4,1.1V32.4c0-4.8-1.8-9.6-5-13.6H422.8z"/>
	
		<radialGradient id="Path_6788_1_" cx="422.2383" cy="856.8551" r="0.8134" gradientTransform="matrix(-18.2077 0 0 -13.792 8107.6348 11852.1992)" gradientUnits="userSpaceOnUse">
		<stop  offset="0" style="stop-color:#FFFFFF;stop-opacity:0"/>
		<stop  offset="1" style="stop-color:#FFFFFF"/>
	</radialGradient>
	<path id="Path_6788" class="st53" d="M422.9,49.9l-1.5,0.3V32.4c0-4.8-1.8-9.6-5-13.6h1.5c3.3,4.1,5,8.8,5,13.6L422.9,49.9z"/>
	<path id="Path_6789" class="st50" d="M419.9,21.8c-0.5-0.6-1.1-1.4-0.6-2c0.6-0.6,1.6-0.7,2.3-0.3c0.7,0.4,1.2,0.9,1.5,1.6
		c2.2,4.1,3.3,8.4,3.4,12.8c0.1,2.5,0.1,5,0.1,7.5c0,1.4,0.9,4.8-1,5.8c-1,0.3-2.1,0.5-3.1,0.5c0.1-4.2,0.1-8.4,0-12.5
		c0.1-3.6-0.3-7.2-1.3-10.7C421,23.5,420.5,22.6,419.9,21.8z"/>
	<path id="Path_6790" class="st51" d="M399.4,7c3.6,1.2,7.1,2.6,10.4,4.3c3.2,1.6,5.8,4,7.5,6.8c1.1,0.2,2.2,0.1,3.2-0.4
		C415.5,11.9,407.9,8.1,399.4,7z"/>
	<path id="Path_6791" class="st30" d="M424.7,120.9L424.7,120.9c1,0,1.8,1.9,1.8,4.2v20.1c0,2.3-0.8,4.2-1.8,4.2l0,0
		c-1,0-1.8-1.9-1.8-4.2v-20.1C422.9,122.8,423.7,120.9,424.7,120.9z"/>
	
		<linearGradient id="Path_6792_1_" gradientUnits="userSpaceOnUse" x1="171.2033" y1="599.5072" x2="174.0411" y2="599.5072" gradientTransform="matrix(0 -11.456 -0.743 0 869.4418 2096.5002)">
		<stop  offset="5.000000e-03" style="stop-color:#333333"/>
		<stop  offset="1" style="stop-color:#333333;stop-opacity:0"/>
	</linearGradient>
	<path id="Path_6792" class="st54" d="M425,148.2c0.8-1.1,1.1-2.4,1-3.6v-18.8c0.1-1.3-0.3-2.5-1-3.6c-0.8,1.1-1.1,2.4-1,3.6v18.8
		C423.9,145.8,424.3,147.1,425,148.2z"/>
	<g id="Group_5635" transform="translate(-358.391 255.847)">
		<path id="Path_6793" class="st14" d="M264.2-3c0-0.2,0-0.5-0.1-0.7L258.5-29c-0.9-2.6-4-4.3-7.3-4.1h-45.7c-1,0-1.9,0.1-2.9,0.4
			L95.9-3.4c-1.4,0.3-2.5,1.3-2.6,2.5c0.2,1.7,2.1,2.9,4.2,2.7l0,0h159.4c1.9,0,3.8-0.5,5.2-1.4C263.4-0.4,264.2-1.6,264.2-3
			L264.2-3z"/>
		
			<linearGradient id="Path_6794_1_" gradientUnits="userSpaceOnUse" x1="490.1853" y1="1422.3573" x2="490.1399" y2="1422.3573" gradientTransform="matrix(0 -15.38 -60.229 0 92504.5547 7523.4307)">
			<stop  offset="5.000000e-03" style="stop-color:#333333"/>
			<stop  offset="1" style="stop-color:#333333;stop-opacity:0"/>
		</linearGradient>
		<path id="Path_6794" class="st55" d="M264.2-3c0-0.2,0-0.5-0.1-0.7L258.5-29c-0.9-2.6-4-4.3-7.3-4.1h-45.7c-1,0-1.9,0.1-2.9,0.4
			L95.9-3.4c-1.4,0.3-2.5,1.3-2.6,2.5c0.2,1.7,2.1,2.9,4.2,2.7l0,0h159.4c1.9,0,3.8-0.5,5.2-1.4C263.4-0.4,264.2-1.6,264.2-3
			L264.2-3z"/>
		<path id="Path_6795" d="M96.9-1.7l106.7-29.3c0.6-0.2,1.2-0.2,1.8-0.2h45.7c2.1-0.1,4,1,4.6,2.6l5.7,25.3c0.4,1.8-1.8,3.4-4.6,3.4
			H97.5C95.9,0,95.5-1.3,96.9-1.7z"/>
		<path id="Path_6796" class="st40" d="M258.7-3.2L253-28.5c-0.2-0.6-1-1.1-1.8-1h-45.7c-0.2,0-0.5,0-0.7,0.1L104.2-1.8h152.7
			c0.5,0,0.9-0.1,1.3-0.4c0.3-0.2,0.5-0.5,0.5-0.8L258.7-3.2z"/>
		<path id="Path_6797" class="st41" d="M257-10.6l1.7,7.5l0,0.2c0,0.3-0.2,0.6-0.5,0.8c-0.4,0.2-0.8,0.4-1.3,0.4H104.2l32.2-8.8H257
			z"/>
		
			<linearGradient id="Path_6798_1_" gradientUnits="userSpaceOnUse" x1="516.2326" y1="1409.8481" x2="516.0255" y2="1409.8481" gradientTransform="matrix(0 -12.2035 -54.452 0 83601.9609 6284.1865)">
			<stop  offset="0" style="stop-color:#FFFFFF"/>
			<stop  offset="1" style="stop-color:#FFFFFF;stop-opacity:0"/>
		</linearGradient>
		<path id="Path_6798" class="st56" d="M258.7-3.2L253-28.5c-0.2-0.6-1-1.1-1.8-1h-45.7c-0.2,0-0.5,0-0.7,0.1L104.2-1.8h152.7
			c0.5,0,0.9-0.1,1.3-0.4c0.3-0.2,0.5-0.5,0.5-0.8L258.7-3.2z"/>
		
			<linearGradient id="Path_6799_1_" gradientUnits="userSpaceOnUse" x1="516.2326" y1="1410.1943" x2="515.9545" y2="1410.1943" gradientTransform="matrix(0 -12.2035 -54.452 0 83601.9609 6284.1865)">
			<stop  offset="0" style="stop-color:#000000;stop-opacity:0"/>
			<stop  offset="0.99" style="stop-color:#000000"/>
		</linearGradient>
		<path id="Path_6799" class="st57" d="M258.7-3.2L253-28.5c-0.2-0.6-1-1.1-1.8-1h-45.7c-0.2,0-0.5,0-0.7,0.1L104.2-1.8h152.7
			c0.5,0,0.9-0.1,1.3-0.4c0.3-0.2,0.5-0.5,0.5-0.8L258.7-3.2z"/>
	</g>
	<path id="Path_6800" d="M-242.5,253.5l14.4,28.4h-7c-3.2,0-6.2-1.5-7.4-3.9l-12.5-24.5L-242.5,253.5z"/>
	
		<linearGradient id="Path_6801_1_" gradientUnits="userSpaceOnUse" x1="821.6652" y1="2070.7412" x2="821.7659" y2="2070.95" gradientTransform="matrix(0 -12.4843 -9.479 0 16333.8467 2187.4146)">
		<stop  offset="0" style="stop-color:#FFFFFF"/>
		<stop  offset="1" style="stop-color:#FFFFFF;stop-opacity:0"/>
	</linearGradient>
	<path id="Path_6801" class="st58" d="M-241.6,253.5l14.4,28.4h-7c-3.2,0-6.2-1.5-7.4-3.9l-12.5-24.5L-241.6,253.5z"/>
	<path id="Path_6802" class="st27" d="M-232.2,261.6l7.7,17.9c0.4,1-0.3,2-1.5,2.3c-0.2,0.1-0.5,0.1-0.8,0.1h-8.6l-9.2-21.5h10.1
		C-233.4,260.4-232.5,260.9-232.2,261.6z"/>
	
		<linearGradient id="Path_6803_1_" gradientUnits="userSpaceOnUse" x1="76.8269" y1="2007.0017" x2="73.9958" y2="2008.1946" gradientTransform="matrix(0 -9.4518 -7.1104 0 12079.4395 2092.7131)">
		<stop  offset="5.000000e-03" style="stop-color:#333333"/>
		<stop  offset="1" style="stop-color:#333333;stop-opacity:0"/>
	</linearGradient>
	<path id="Path_6803" class="st59" d="M-232.2,261.6l7.7,17.9c0.4,1-0.3,2-1.5,2.3c-0.2,0.1-0.5,0.1-0.8,0.1h-8.6l-9.2-21.5h10.1
		C-233.4,260.4-232.5,260.9-232.2,261.6z"/>
	<g id="Group_5636" transform="translate(-358.391 160.492)">
		<path id="Path_6804" class="st14" d="M264.2-149.7c0,0.2,0,0.5-0.1,0.7l-5.7,25.3c-0.9,2.6-4,4.3-7.3,4.1h-45.7
			c-1,0-1.9-0.1-2.9-0.4L95.9-149.2c-1.4-0.3-2.5-1.3-2.6-2.5c0.2-1.7,2.1-2.9,4.2-2.7h159.4c1.9,0,3.8,0.5,5.2,1.4
			C263.4-152.2,264.2-151,264.2-149.7L264.2-149.7z"/>
		
			<linearGradient id="Path_6805_1_" gradientUnits="userSpaceOnUse" x1="498.076" y1="1566.8291" x2="498.0334" y2="1566.8291" gradientTransform="matrix(0 -15.38 -60.229 0 98247.6953 7523.4297)">
			<stop  offset="5.000000e-03" style="stop-color:#333333"/>
			<stop  offset="1" style="stop-color:#333333;stop-opacity:0"/>
		</linearGradient>
		<path id="Path_6805" class="st60" d="M264.2-149.7c0,0.2,0,0.5-0.1,0.7l-5.7,25.3c-0.9,2.6-4,4.3-7.3,4.1h-45.7
			c-1,0-1.9-0.1-2.9-0.4L95.9-149.2c-1.4-0.3-2.5-1.3-2.6-2.5c0.2-1.7,2.1-2.9,4.2-2.7h159.4c1.9,0,3.8,0.5,5.2,1.4
			C263.4-152.2,264.2-151,264.2-149.7L264.2-149.7z"/>
		<path id="Path_6806" d="M96.9-150.9l106.7,29.3c0.6,0.2,1.2,0.2,1.8,0.2h45.7c2.1,0.1,4-1,4.6-2.6l5.7-25.3
			c0.4-1.8-1.8-3.4-4.6-3.4H97.5C95.9-152.7,95.5-151.3,96.9-150.9z"/>
		<path id="Path_6807" class="st40" d="M258.7-149.5l-5.7,25.3c-0.2,0.6-1,1.1-1.8,1h-45.7c-0.2,0-0.5,0-0.7-0.1l-100.6-27.6h152.7
			c0.5,0,0.9,0.1,1.3,0.4c0.3,0.2,0.5,0.5,0.5,0.8L258.7-149.5z"/>
		<path id="Path_6808" class="st41" d="M257-142l1.7-7.5l0-0.2c0-0.3-0.2-0.6-0.5-0.8c-0.4-0.2-0.8-0.4-1.3-0.4H104.2l32.2,8.8H257z
			"/>
		
			<linearGradient id="Path_6809_1_" gradientUnits="userSpaceOnUse" x1="526.1877" y1="1559.5328" x2="525.9805" y2="1559.5328" gradientTransform="matrix(0 -12.2025 -54.452 0 88794.2266 6283.8184)">
			<stop  offset="0" style="stop-color:#FFFFFF"/>
			<stop  offset="1" style="stop-color:#FFFFFF;stop-opacity:0"/>
		</linearGradient>
		<path id="Path_6809" class="st61" d="M258.7-149.5l-5.7,25.3c-0.2,0.6-1,1.1-1.8,1h-45.7c-0.2,0-0.5,0-0.7-0.1l-100.6-27.6h152.7
			c0.5,0,0.9,0.1,1.3,0.4c0.3,0.2,0.5,0.5,0.5,0.8L258.7-149.5z"/>
		
			<linearGradient id="Path_6810_1_" gradientUnits="userSpaceOnUse" x1="526.1877" y1="1559.8792" x2="525.9095" y2="1559.8792" gradientTransform="matrix(0 -12.2025 -54.452 0 88794.2266 6283.8184)">
			<stop  offset="0" style="stop-color:#000000;stop-opacity:0"/>
			<stop  offset="0.99" style="stop-color:#000000"/>
		</linearGradient>
		<path id="Path_6810" class="st62" d="M258.7-149.5l-5.7,25.3c-0.2,0.6-1,1.1-1.8,1h-45.7c-0.2,0-0.5,0-0.7-0.1l-100.6-27.6h152.7
			c0.5,0,0.9,0.1,1.3,0.4c0.3,0.2,0.5,0.5,0.5,0.8L258.7-149.5z"/>
	</g>
	<path id="Path_6811" d="M-242.5,10.2l14.4-28.4h-7c-3.2,0-6.2,1.5-7.4,3.9L-255,10.2L-242.5,10.2z"/>
	
		<linearGradient id="Path_6812_1_" gradientUnits="userSpaceOnUse" x1="662.8378" y1="1988.2113" x2="662.9297" y2="1988.4019" gradientTransform="matrix(0 -12.4863 -9.479 0 16333.8467 2067.9612)">
		<stop  offset="0" style="stop-color:#FFFFFF"/>
		<stop  offset="1" style="stop-color:#FFFFFF;stop-opacity:0"/>
	</linearGradient>
	<path id="Path_6812" class="st63" d="M-241.6,10.2l14.4-28.4h-7c-3.2,0-6.2,1.5-7.4,3.9l-12.5,24.5L-241.6,10.2z"/>
	<path id="Path_6813" class="st27" d="M-232.2,2.1l7.7-17.9c0.4-1-0.3-2-1.5-2.3c-0.2-0.1-0.5-0.1-0.8-0.1h-8.6l-9.2,21.5h10.1
		C-233.4,3.3-232.5,2.9-232.2,2.1z"/>
	
		<linearGradient id="Path_6814_1_" gradientUnits="userSpaceOnUse" x1="247.1276" y1="1641.8771" x2="244.745" y2="1642.881" gradientTransform="matrix(0 -9.4517 -7.11 0 12078.7266 1970.1626)">
		<stop  offset="5.000000e-03" style="stop-color:#333333"/>
		<stop  offset="1" style="stop-color:#333333;stop-opacity:0"/>
	</linearGradient>
	<path id="Path_6814" class="st64" d="M-232.2,2.1l7.7-17.9c0.4-1-0.3-2-1.5-2.3c-0.2-0.1-0.5-0.1-0.8-0.1h-8.6l-9.2,21.5h10.1
		C-233.4,3.3-232.5,2.9-232.2,2.1z"/>
</g>
</svg>
