<?xml version="1.0" encoding="utf-8"?>
<!-- Generator: Adobe Illustrator 24.2.3, SVG Export Plug-In . SVG Version: 6.00 Build 0)  -->
<svg version="1.1" id="Layer_1" xmlns="http://www.w3.org/2000/svg" xmlns:xlink="http://www.w3.org/1999/xlink" x="0px" y="0px"
	 viewBox="0 0 300 851.4" style="enable-background:new 0 0 300 851.4;" xml:space="preserve">
<style type="text/css">
	.st0{fill:url(#Path_2815-2_1_);}
	.st1{fill:url(#Path_2768_1_);}
	.st2{fill:url(#Path_2769_1_);}
	.st3{fill:#EBEBEB;}
	.st4{fill:#FFFFFF;}
	.st5{fill:#00384B;}
	.st6{fill:#F2F2F3;}
	.st7{fill:#2B5766;}
	.st8{fill:#356D81;}
	.st9{fill:url(#Path_2779_1_);}
	.st10{fill:url(#Path_2780_1_);}
	.st11{fill:url(#Path_2781_1_);}
	.st12{fill:url(#Path_2782_1_);}
	.st13{fill:url(#Path_2783_1_);}
	.st14{fill:#595A5A;}
	.st15{fill:url(#Path_2786_1_);}
	.st16{fill:#0A0A0B;}
	.st17{fill:url(#Rectangle_20159_1_);}
	.st18{fill:url(#Rectangle_20160_1_);}
	.st19{fill:url(#Path_2788_1_);}
	.st20{fill:url(#Path_2789_1_);}
	.st21{fill:url(#Path_2791_1_);}
	.st22{fill:url(#Path_2792_1_);}
	.st23{fill:url(#Path_2794_1_);}
	.st24{fill:url(#Path_2795_1_);}
	.st25{fill:url(#Path_2797_1_);}
	.st26{fill:url(#Path_2798_1_);}
	.st27{fill:url(#Path_2799_1_);}
	.st28{fill:url(#Path_2800_1_);}
	.st29{fill:url(#Path_2801_1_);}
	.st30{fill:#C2C2C1;}
	.st31{fill:url(#Path_2803_1_);}
	.st32{fill:url(#Path_2804_1_);}
	.st33{fill:url(#Path_2805_1_);}
	.st34{fill:url(#Path_2806_1_);}
	.st35{fill:#9B9B9B;}
	.st36{fill:url(#Path_2808_1_);}
	.st37{fill:url(#Path_2809_1_);}
	.st38{fill:url(#Path_2810_1_);}
	.st39{fill:#D04B4B;}
	.st40{fill:#F6A84B;}
	.st41{opacity:0.8;fill:#356D81;enable-background:new    ;}
	.st42{fill:#F26B77;}
	.st43{fill:#EC5A66;}
	.st44{clip-path:url(#SVGID_2_);}
	.st45{fill:#AE2425;}
	.st46{fill:#E6E3DE;}
	.st47{fill:#06314E;}
	.st48{clip-path:url(#SVGID_4_);}
	.st49{fill:#8293A0;}
	.st50{clip-path:url(#SVGID_6_);}
	.st51{clip-path:url(#SVGID_8_);}
	.st52{clip-path:url(#SVGID_10_);}
	.st53{fill:#E3E5DA;}
	.st54{fill:#EADFDD;}
	.st55{fill:#EAEAEA;}
	.st56{fill:#2D86A5;}
	.st57{clip-path:url(#SVGID_12_);}
	.st58{fill:#296277;}
	.st59{clip-path:url(#SVGID_14_);}
	.st60{fill:#FCF8F7;}
	.st61{fill:#E7E3E4;}
	.st62{fill:none;stroke:#06314E;stroke-width:3;stroke-linecap:round;stroke-miterlimit:10;}
	.st63{fill:#929FB1;}
	.st64{fill:#E8ECEE;}
	.st65{fill:#ED1C24;}
	.st66{fill:#F15959;}
	.st67{opacity:0.5;fill:#A2ADAF;enable-background:new    ;}
	.st68{clip-path:url(#SVGID_16_);}
	.st69{fill:#059DD1;}
	.st70{fill:#33ACE2;}
	.st71{opacity:0.8;fill:#39C6F4;enable-background:new    ;}
	.st72{fill:#061C23;}
	.st73{opacity:0.52;fill:#296277;enable-background:new    ;}
	.st74{opacity:0.7;fill:#2B5766;enable-background:new    ;}
	.st75{opacity:0.3;fill:#296277;enable-background:new    ;}
	.st76{fill:#1E4E5D;}
	.st77{clip-path:url(#SVGID_18_);}
	.st78{fill:#CBE3EA;}
	.st79{clip-path:url(#SVGID_20_);}
	.st80{fill:#AF2E2B;}
	.st81{fill:#2CB7EA;}
	.st82{clip-path:url(#SVGID_22_);}
	.st83{fill:#2697D4;}
	.st84{clip-path:url(#SVGID_24_);}
	.st85{opacity:0.7;fill:#39C6F4;enable-background:new    ;}
	.st86{fill:#343C43;}
	.st87{fill:none;stroke:#1A1F23;stroke-width:0.5;stroke-linecap:round;stroke-miterlimit:10;}
	.st88{fill:#BEBEC0;}
	.st89{fill:#C1C1C5;}
	.st90{fill:#E6E7E9;}
	.st91{fill:#181415;}
	.st92{fill:#004D65;}
	.st93{fill:#00364D;}
	.st94{fill:#F3F3F1;}
	.st95{fill:#242021;}
	.st96{fill:#D2D3D5;}
	.st97{clip-path:url(#SVGID_26_);}
	.st98{clip-path:url(#SVGID_28_);}
	.st99{clip-path:url(#SVGID_30_);}
	.st100{fill:#BEBFC1;}
	.st101{fill:#0C151A;}
	.st102{fill:#E86255;}
	.st103{fill:#010101;}
	.st104{fill:#065E7B;}
	.st105{fill:#F5B4D1;stroke:#CE2527;stroke-width:0.5;stroke-miterlimit:10;}
	.st106{fill:#F3766B;}
	.st107{fill:#CE2527;}
	.st108{fill:#171314;}
	.st109{fill:#AE1F24;}
	.st110{clip-path:url(#SVGID_32_);}
	.st111{fill:#096E8E;}
	.st112{clip-path:url(#SVGID_34_);}
	.st113{fill:#E9DCE6;}
	.st114{fill:none;stroke:#CE2527;stroke-width:0.5;stroke-linecap:round;stroke-miterlimit:10;}
	.st115{clip-path:url(#SVGID_36_);}
	.st116{fill:#F4858F;}
	.st117{clip-path:url(#SVGID_38_);}
	.st118{fill:#D7CDD5;}
	.st119{clip-path:url(#SVGID_40_);}
	.st120{opacity:0.2;fill:#A21D21;enable-background:new    ;}
	.st121{opacity:0.3;fill:#991B1F;enable-background:new    ;}
	.st122{fill:#050203;}
	.st123{clip-path:url(#SVGID_42_);}
	.st124{clip-path:url(#SVGID_44_);}
	.st125{fill:#F5B4D1;}
	.st126{fill:url(#Path_3060_2_);}
	.st127{fill:url(#Path_3061_2_);}
	.st128{fill:#2E2E2E;}
	.st129{fill:#BD202E;}
	.st130{fill:#DCDBDB;}
	.st131{fill:#F6F6F6;}
	.st132{fill:url(#Path_3069_2_);}
	.st133{fill:#094F66;}
	.st134{fill:#848585;}
	.st135{fill:url(#Path_3079_2_);}
	.st136{fill:url(#Path_3080_2_);}
	.st137{fill:url(#Path_3081_2_);}
	.st138{fill:url(#Path_3082_2_);}
	.st139{fill:url(#Path_3083_2_);}
	.st140{fill:url(#Path_3084_2_);}
	.st141{fill:url(#Path_3085_2_);}
	.st142{fill:url(#Path_3086_2_);}
	.st143{fill:#7B7B7B;}
	.st144{fill:#49A9C9;}
	.st145{fill:none;}
	.st146{fill:#00253A;}
	.st147{opacity:0.49;fill:#DCDBDB;enable-background:new    ;}
	.st148{fill:#DFE0D5;}
	.st149{fill:#333333;}
	.st150{fill:#F6F8EB;}
	.st151{opacity:0.2;fill:url(#Path_6732_1_);enable-background:new    ;}
	.st152{fill:#EFEFEA;}
	.st153{fill:#CCCCCB;}
	.st154{opacity:0.5;fill:url(#Path_6742_1_);enable-background:new    ;}
	.st155{opacity:0.3;fill:url(#Path_6743_1_);enable-background:new    ;}
	.st156{opacity:0.3;fill:url(#Path_6744_1_);enable-background:new    ;}
	.st157{fill:#666766;}
	.st158{fill:#F26722;}
	.st159{fill:#E0F2F6;}
	.st160{fill:#F7F7F7;}
	.st161{fill:url(#Path_6755_1_);}
	.st162{fill:#676B86;}
	.st163{opacity:0.2;enable-background:new    ;}
	.st164{opacity:0.5;fill:url(#Path_6770_1_);enable-background:new    ;}
	.st165{opacity:0.3;fill:url(#Path_6771_1_);enable-background:new    ;}
	.st166{opacity:0.4;enable-background:new    ;}
	.st167{opacity:0.5;fill:url(#Path_6777_1_);enable-background:new    ;}
	.st168{opacity:0.3;fill:url(#Path_6778_1_);enable-background:new    ;}
	.st169{fill:url(#Path_6780_1_);}
	.st170{fill:#CB2026;}
	.st171{fill:url(#Path_6782_1_);}
	.st172{opacity:0.3;fill:#640D0D;enable-background:new    ;}
	.st173{opacity:0.5;fill:#EF3C23;enable-background:new    ;}
	.st174{fill:url(#Path_6786_1_);}
	.st175{fill:url(#Path_6788_1_);}
	.st176{fill:url(#Path_6792_1_);}
	.st177{fill:url(#Path_6794_1_);}
	.st178{opacity:0.5;fill:url(#Path_6798_1_);enable-background:new    ;}
	.st179{opacity:0.3;fill:url(#Path_6799_1_);enable-background:new    ;}
	.st180{opacity:0.4;fill:url(#Path_6801_1_);enable-background:new    ;}
	.st181{opacity:0.4;fill:url(#Path_6803_1_);enable-background:new    ;}
	.st182{fill:url(#Path_6805_1_);}
	.st183{opacity:0.5;fill:url(#Path_6809_1_);enable-background:new    ;}
	.st184{opacity:0.3;fill:url(#Path_6810_1_);enable-background:new    ;}
	.st185{opacity:0.4;fill:url(#Path_6812_1_);enable-background:new    ;}
	.st186{opacity:0.4;fill:url(#Path_6814_1_);enable-background:new    ;}
</style>
<g id="Group_3821_1_" transform="translate(0 0)">
	<g id="Group_3820_1_" transform="translate(0 0)">
		<g id="Group_3819_1_">
			<g id="Group_3816_1_">
				<g id="Group_3805_1_" transform="translate(4.807 205.701)">
					
						<linearGradient id="Path_3060_2_" gradientUnits="userSpaceOnUse" x1="-4530.0498" y1="5439.2344" x2="-4530.0498" y2="5441.6484" gradientTransform="matrix(13.6 0 0 -43.363 61877.5742 236223.9063)">
						<stop  offset="0" style="stop-color:#363B39"/>
						<stop  offset="1" style="stop-color:#0D0E0E"/>
					</linearGradient>
					<path id="Path_3060_1_" class="st126" d="M268.9,551.6c-8.3,0-15-14-15-31.3V451c0-17.3,6.7-31.3,15-31.3c8.3,0,15,14,15,31.3
						v69.3C283.9,537.6,277.2,551.6,268.9,551.6z"/>
					
						<linearGradient id="Path_3061_2_" gradientUnits="userSpaceOnUse" x1="-4540.02" y1="5439.2344" x2="-4540.02" y2="5441.6484" gradientTransform="matrix(13.6 0 0 -43.363 61765.1055 236223.9063)">
						<stop  offset="0" style="stop-color:#363B39"/>
						<stop  offset="1" style="stop-color:#0D0E0E"/>
					</linearGradient>
					<path id="Path_3061_1_" class="st127" d="M20.8,551.6c-8.3,0-15-14-15-31.3V451c0-17.3,6.7-31.3,15-31.3s15,14,15,31.3v69.3
						C35.8,537.6,29.1,551.6,20.8,551.6z"/>
				</g>
				<g id="Group_3806_1_" transform="translate(5.496 42.113)">
					<path id="Path_3062_1_" class="st128" d="M266.8,217.8c-8.3,0-15-14-15-31.3v-69.3c0-17.3,6.7-31.3,15-31.3
						c8.3,0,15,14,15,31.3v69.3C281.8,203.8,275,217.8,266.8,217.8z"/>
					<path id="Path_3063_1_" class="st128" d="M21.6,217.8c-8.3,0-15-14-15-31.3v-69.3c0-17.3,6.7-31.3,15-31.3s15,14,15,31.3v69.3
						C36.6,203.8,29.9,217.8,21.6,217.8z"/>
				</g>
				<g id="Group_3807_1_" transform="translate(13.787 275.468)">
					<path id="Path_3064_1_" class="st129" d="M43.4,573.3c0,1.4-1.9,2.6-4.1,2.6H20.8c-2.3,0-4.2-1.1-4.2-2.6v-8.6
						c0-1.4,1.9-2.6,4.2-2.6h18.4c2.3,0,4.1,1.2,4.1,2.6V573.3z"/>
					<path id="Path_3065_1_" class="st129" d="M255.7,573.3c0,1.4-1.9,2.6-4.1,2.6h-18.4c-2.3,0-4.1-1.1-4.1-2.6v-8.6
						c0-1.4,1.8-2.6,4.1-2.6h18.4c2.3,0,4.1,1.2,4.1,2.6V573.3z"/>
				</g>
				<path id="Path_3066_1_" class="st103" d="M209.4,49V11.1c-36.1-14.8-82.6-14.8-118.7,0V49H209.4z"/>
				<path id="Path_3067_1_" class="st130" d="M277.3,107.4c-3-34.4-7.8-34.2-16.3-48.5c-3.7,1.1-7.5,0-10.6-3L219.5,26
					c-3.1-3-5.2-7.7-5.7-12.9c-1.5-0.7-3-1.3-4.5-2V49H90.7V11.1c-1.5,0.6-3,1.3-4.5,2c-0.5,5.2-2.6,9.9-5.7,12.9L49.7,55.9
					c-3.1,3-6.9,4.1-10.6,3C30.6,73.2,25.8,73,22.8,107.4c-7.9,91.1-6,252.3-6.3,287.5c-0.2,23.3-4.1,427.7,7,442.6
					c13.7,18.4,239.4,18.4,253.1,0c11.2-14.9,7.3-419.3,7-442.6C283.3,359.7,285.3,198.5,277.3,107.4z"/>
				<path id="Path_3068_1_" class="st131" d="M31.7,389.5c-0.2,24.9-12.5,430-0.6,445.8c14.3,19.1,228.5,15.8,238.1,0
					c10.5-17.4-0.4-420.8-0.6-445.8c-0.3-33.9,8.5-189.3,1-276.7c-4.9-57-14.7-48.5-39-75.2c-32.9-36.3-127.8-36.3-160.7,0
					c-24.3,26.7-34.1,18.2-39,75.2C23.2,200.2,32,355.6,31.7,389.5z"/>
				
					<linearGradient id="Path_3069_2_" gradientUnits="userSpaceOnUse" x1="-4706.6753" y1="5652.855" x2="-4704.4937" y2="5652.855" gradientTransform="matrix(104.1 0 0 -100.731 490008.3438 570099.9375)">
					<stop  offset="0" style="stop-color:#171818"/>
					<stop  offset="3.100000e-02" style="stop-color:#272828"/>
					<stop  offset="8.400000e-02" style="stop-color:#3D3E3E"/>
					<stop  offset="0.146" style="stop-color:#4E4E4E"/>
					<stop  offset="0.223" style="stop-color:#5A5B5B"/>
					<stop  offset="0.331" style="stop-color:#616261"/>
					<stop  offset="0.631" style="stop-color:#636464"/>
					<stop  offset="0.78" style="stop-color:#606161"/>
					<stop  offset="0.846" style="stop-color:#595A5A"/>
					<stop  offset="0.895" style="stop-color:#4D4D4E"/>
					<stop  offset="0.936" style="stop-color:#3B3B3B"/>
					<stop  offset="0.972" style="stop-color:#242424"/>
					<stop  offset="1" style="stop-color:#0D0E0E"/>
				</linearGradient>
				<path id="Path_3069_1_" class="st132" d="M36.8,529.1c-0.9,1.2-1.5,1.9-1.5,1.9s2.1,238.1,2.5,294.2c37.1,6.6,74.6,10,112,10.1
					c37.6-0.5,75.2-3.9,112.6-10.1c0.4-56.2,2.5-294.9,2.5-294.9l-1-1.3H36.8z"/>
				<path id="Path_3070_1_" class="st133" d="M36.8,453.9c-0.9,1.5-1.5,2.4-1.5,2.4s2.1,296.7,2.5,366.5
					c37.1,8.2,74.6,12.5,112,12.6c37.6-0.6,75.2-4.9,112.6-12.6c0.4-70,2.5-367.3,2.5-367.3l-1-1.6H36.8z"/>
				<path id="Path_3071_1_" class="st93" d="M99.7,292.7c-14.5,2-28.7,5.9-42.3,11.6l1.7,9.7c13.6-6.4,28-10.7,42.8-12.7
					c22.5-3.4,73.7-3.4,96.3,0c14.8,2,29.2,6.3,42.8,12.7l1.7-9.7c-13.6-5.7-27.8-9.6-42.3-11.6C176.8,289.3,123.3,289.3,99.7,292.7
					z"/>
				<path id="Path_3072_1_" class="st93" d="M50.9,226.1c14.6-8.4,29.8-14.9,45.3-19.2c35.6-9.3,72.2-9.3,107.8,0
					c15.5,4.3,30.7,10.7,45.3,19.2c2.6,1.2,5,3.1,7.1,5.5l0.1-0.4c0,0,1.5-9,0.5-11.5c-0.9-2.1-3.3-4.1-7.7-6.6
					c-14.6-8.4-29.8-14.9-45.3-19.2c-35.6-9.3-72.2-9.3-107.8,0c-15.5,4.3-30.7,10.7-45.3,19.2c-4.4,2.5-6.8,4.5-7.7,6.6
					c-1,2.4,0.6,11.5,0.6,11.5l0,0.4C45.8,229.1,48.3,227.3,50.9,226.1z"/>
				<path id="Path_3073_1_" class="st92" d="M99.6,293.2c23.6-3.4,77-3.4,100.6,0c14.5,2,28.7,5.9,42.3,11.6l13.8-81
					c-2.1-1.9-4.5-3.3-7.1-4.3c-14.6-6.5-29.8-11.5-45.3-14.8c-35.6-7.2-72.2-7.2-107.8,0c-15.5,3.3-30.7,8.3-45.3,14.8
					c-2.6,0.9-5,2.4-7.1,4.3l13.6,81C70.9,299.1,85.2,295.2,99.6,293.2z"/>
				<g id="Group_3808_1_" transform="translate(16.113 74.986)">
					<path id="Path_3074_1_" class="st5" d="M23.7,288.8c0,19.2-0.7,32.3-1.3,39l17,5.9h1.1l-3.1-82.5L20.1,153c0,0-1.5,25.2,0,61.3
						C21.1,237.1,23.7,268.5,23.7,288.8z"/>
					<path id="Path_3075_1_" class="st5" d="M228.5,333.7l17-5.9c-0.7-6.5-1.3-19.7-1.3-39c-0.1-20.3,2.6-51.7,3.6-74.5
						c1.5-36.1,0-61.3,0-61.3l-17.2,98.2l-3.1,82.5L228.5,333.7z"/>
				</g>
				<g id="Group_3809_1_" transform="translate(17.741 4.305)">
					<path id="Path_3076_1_" class="st134" d="M32,51.6l30.8-29.9c3.1-3,5.2-7.7,5.7-12.9c-7.9,3.4-15.3,8.5-21.9,15.2
						c-10.8,11.7-19,20.2-25.2,30.6C25.1,55.7,28.9,54.6,32,51.6z"/>
					<path id="Path_3077_1_" class="st134" d="M201.8,21.7l30.8,29.9c3.1,3,6.9,4.1,10.6,3C237,44.2,228.9,35.7,218.1,24
						c-6.6-6.7-14.1-11.8-21.9-15.2C196.6,14,198.7,18.7,201.8,21.7z"/>
				</g>
				
					<linearGradient id="Path_3079_2_" gradientUnits="userSpaceOnUse" x1="-4623.6416" y1="5643.3398" x2="-4620.8018" y2="5646.5591" gradientTransform="matrix(22.884 0 0 -58.033 105650.6484 328210.375)">
					<stop  offset="0" style="stop-color:#F7F7F7"/>
					<stop  offset="1" style="stop-color:#DCDBDB"/>
				</linearGradient>
				<path id="Path_3079_1_" class="st135" d="M81.9,42.9c0,0-38.9,8.6-43.1,67.7c-4.2,60.4-7.4,108.8-7.4,108.8S48.6,75,81.9,42.9z"
					/>
				
					<linearGradient id="Path_3080_2_" gradientUnits="userSpaceOnUse" x1="-4606.0615" y1="5657.6196" x2="-4602.4136" y2="5661.7544" gradientTransform="matrix(22.885 0 0 -58.033 105740.1094 328210.375)">
					<stop  offset="0" style="stop-color:#F7F7F7"/>
					<stop  offset="1" style="stop-color:#DCDBDB"/>
				</linearGradient>
				<path id="Path_3080_1_" class="st136" d="M218.4,42.9c0,0,38.9,8.6,43.1,67.7c4.2,60.4,7.4,108.8,7.4,108.8S251.7,75,218.4,42.9
					z"/>
				
					<linearGradient id="Path_3081_2_" gradientUnits="userSpaceOnUse" x1="-4192.6274" y1="5604.666" x2="-4187.6025" y2="5608.3896" gradientTransform="matrix(4.9994 0 0 -13.0306 21116.3203 73498.2109)">
					<stop  offset="0" style="stop-color:#363B39"/>
					<stop  offset="1" style="stop-color:#1B1C1B"/>
				</linearGradient>
				<path id="Path_3081_1_" class="st137" d="M263.1,235.9c0,0,10.3,2.7,10.5,14.4c0.2,11.7-10.3,35.4-10.5,20.4
					C262.9,255.7,262.2,240.4,263.1,235.9z"/>
				
					<radialGradient id="Path_3082_2_" cx="-4291.8013" cy="5837.7642" r="1.8395" gradientTransform="matrix(6.421 0 0 -8.5076 27858.0977 51253.1719)" gradientUnits="userSpaceOnUse">
					<stop  offset="0" style="stop-color:#FFFFFF"/>
					<stop  offset="1" style="stop-color:#D3D6D5"/>
				</radialGradient>
				<path id="Path_3082_1_" class="st138" d="M299,261.5c-2.3-4-23-12.6-23-12.6c-4.1-1.8-5.5,3-6,7.1l29.8,12
					C300.3,265.8,300,263.4,299,261.5z"/>
				
					<linearGradient id="Path_3083_2_" gradientUnits="userSpaceOnUse" x1="-4525.9287" y1="5551.3984" x2="-4523.7051" y2="5551.3984" gradientTransform="matrix(13.6018 0 0 -4.817 61830.6875 27004.3906)">
					<stop  offset="0" style="stop-color:#363B39"/>
					<stop  offset="1" style="stop-color:#1B1C1B"/>
				</linearGradient>
				<path id="Path_3083_1_" class="st139" d="M270,256.1c-0.2,1.7-0.3,3.3-0.2,5l29.2,9.6c0.3-0.8,0.6-1.7,0.8-2.7L270,256.1z"/>
				
					<linearGradient id="Path_3084_2_" gradientUnits="userSpaceOnUse" x1="-4250.2012" y1="5600.7915" x2="-4245.9888" y2="5604.5522" gradientTransform="matrix(5.3176 0 0 -13.0309 22514.6309 73499.3281)">
					<stop  offset="0" style="stop-color:#363B39"/>
					<stop  offset="1" style="stop-color:#1B1C1B"/>
				</linearGradient>
				<path id="Path_3084_1_" class="st140" d="M36.8,235.1c0,0-11,2.7-11.2,14.4s11,35.4,11.2,20.4C37.1,254.9,37.8,239.6,36.8,235.1
					z"/>
				
					<radialGradient id="Path_3085_2_" cx="-4326.373" cy="5832.9272" r="1.802" gradientTransform="matrix(6.611 0 0 -8.742 28636.582 52580.5625)" gradientUnits="userSpaceOnUse">
					<stop  offset="0" style="stop-color:#FFFFFF"/>
					<stop  offset="1" style="stop-color:#D3D6D5"/>
				</radialGradient>
				<path id="Path_3085_1_" class="st141" d="M24,248.1c0,0-20.8,8.5-23,12.6c-1.1,2.1-1.3,4.7-0.7,7.1l29.7-12.1
					C29.6,251.6,28.3,246.3,24,248.1z"/>
				
					<linearGradient id="Path_3086_2_" gradientUnits="userSpaceOnUse" x1="-4536.1177" y1="5547.937" x2="-4533.8857" y2="5547.937" gradientTransform="matrix(13.5559 0 0 -4.666 61491.2695 26149.4043)">
					<stop  offset="0" style="stop-color:#363B39"/>
					<stop  offset="1" style="stop-color:#1B1C1B"/>
				</linearGradient>
				<path id="Path_3086_1_" class="st142" d="M0.4,267.8c0.2,0.7,0.4,1.5,0.7,2.1l29.2-9.6c0-1.5,0-3-0.2-4.5L0.4,267.8z"/>
				<path id="Path_3087_1_" class="st14" d="M16.7,389.5c-1.5,0-2.7,1.6-2.7,3.6v30.1c0,2.1,1.3,3.7,2.7,3.6V389.5z"/>
				<path id="Path_3088_1_" class="st14" d="M283.3,389.5c1.5,0,2.7,1.6,2.7,3.6v30.1c0,2-1.3,3.7-2.7,3.6V389.5z"/>
				<g id="Group_3814_1_" transform="translate(35.438 58.046)">
					<g id="Group_3811_1_" transform="translate(0 0)">
						<g id="Group_3810_1_">
							<path id="Path_3089_1_" class="st143" d="M43.5,125.5c5.3-0.5,7.9-4.5,13.1-5c0.4,0,0.8-0.5,0.8-1.1c0-0.5-0.3-1-0.7-1
								c0,0,0,0-0.1,0c-5.3,0.6-7.9,4.5-13.1,5c-0.4,0-0.8,0.5-0.8,1.1C42.7,125.1,43.1,125.5,43.5,125.5
								C43.5,125.5,43.5,125.5,43.5,125.5z"/>
							<path id="Path_3090_1_" class="st143" d="M56.7,122.5c-5.3,0.6-7.9,4.5-13.1,5c-0.4,0-0.8,0.5-0.8,1.1c0,0.5,0.3,1,0.7,1
								c0,0,0,0,0.1,0c5.3-0.6,7.9-4.5,13.1-5c0.4,0,0.8-0.5,0.8-1.1C57.4,123,57.1,122.5,56.7,122.5
								C56.7,122.5,56.7,122.5,56.7,122.5z"/>
							<path id="Path_3091_1_" class="st143" d="M56.7,126.6c-5.3,0.6-7.9,4.5-13.1,5c-0.4,0-0.8,0.5-0.8,1.1c0,0.5,0.3,1,0.7,1
								c0,0,0.1,0,0.1,0c5.3-0.6,7.9-4.5,13.1-5c0.4,0,0.8-0.5,0.8-1.1C57.4,127.1,57.1,126.6,56.7,126.6
								C56.7,126.6,56.7,126.6,56.7,126.6z"/>
						</g>
					</g>
					<g id="Group_3813_1_" transform="translate(58.464 0)">
						<g id="Group_3812_1_">
							<path id="Path_3092_1_" class="st143" d="M127.1,125.5c-5.3-0.5-7.9-4.5-13.1-5c-0.4,0-0.8-0.5-0.8-1.1c0-0.5,0.3-1,0.7-1
								c0,0,0,0,0,0c5.3,0.6,7.9,4.5,13.1,5c0.4,0,0.8,0.5,0.8,1.1C127.9,125.1,127.6,125.5,127.1,125.5
								C127.2,125.5,127.2,125.5,127.1,125.5z"/>
							<path id="Path_3093_1_" class="st143" d="M114,122.5c5.3,0.6,7.9,4.5,13.1,5c0.4,0,0.8,0.5,0.8,1.1c0,0.5-0.3,1-0.7,1
								c0,0,0,0-0.1,0c-5.3-0.6-7.9-4.5-13.1-5c-0.4,0-0.8-0.5-0.8-1.1C113.2,123,113.6,122.5,114,122.5
								C114,122.5,114,122.5,114,122.5z"/>
							<path id="Path_3094_1_" class="st143" d="M114,126.6c5.3,0.6,7.9,4.5,13.1,5c0.4,0,0.8,0.5,0.8,1.1c0,0.5-0.3,1-0.7,1
								c0,0-0.1,0-0.1,0c-5.3-0.6-7.9-4.5-13.1-5c-0.4,0-0.7-0.5-0.8-1.1C113.2,127.1,113.5,126.6,114,126.6
								C114,126.6,114,126.6,114,126.6z"/>
						</g>
					</g>
				</g>
				<g id="Group_3815_1_" transform="translate(27.108 177.11)">
					<path id="Path_3095_1_" class="st144" d="M202,295.3c0-3.9,1.9-7,4.2-6.9c0,0,0,0,0,0l0,0c2.3-0.1,4.1,3,4.2,6.9c0,0,0,0,0,0
						v347.6c0,3.9-1.9,7-4.2,6.9l0,0c-2.3,0.1-4.1-3-4.2-6.9V295.3z"/>
					<path id="Path_3096_1_" class="st144" d="M185.1,295.3c0-3.9,1.9-6.9,4.1-6.9c0,0,0,0,0,0l0,0c2.3-0.1,4.1,3,4.2,6.9v347.6
						c0,3.9-1.9,7-4.2,6.9l0,0c-2.3,0.1-4.1-3-4.2-6.9c0,0,0,0,0,0V295.3z"/>
					<path id="Path_3097_1_" class="st144" d="M168.1,295.3c0-3.9,1.9-7,4.2-6.9c0,0,0,0,0,0l0,0c2.3-0.1,4.1,3,4.2,6.9v347.6
						c-0.1,3.9-1.9,7-4.2,6.9l0,0c-2.3,0.1-4.1-3-4.2-6.9V295.3z"/>
					<path id="Path_3098_1_" class="st144" d="M151.2,295.3c0-3.9,1.9-7,4.2-6.9c0,0,0,0,0,0l0,0c2.3-0.1,4.1,3,4.2,6.9c0,0,0,0,0,0
						v347.6c0,3.9-1.9,7-4.2,6.9l0,0c-2.3,0.1-4.1-3-4.2-6.9V295.3z"/>
					<path id="Path_3099_1_" class="st144" d="M134.3,295.3c0-3.9,1.9-7,4.2-6.9c0,0,0,0,0,0l0,0c2.3-0.1,4.1,3,4.2,6.9c0,0,0,0,0,0
						v347.6c0,3.9-1.9,7-4.2,6.9l0,0c-2.3,0.1-4.1-3-4.2-6.9V295.3z"/>
					<path id="Path_3100_1_" class="st144" d="M117.4,295.3c0-3.9,1.9-7,4.2-6.9c0,0,0,0,0,0l0,0c2.3-0.1,4.1,3,4.2,6.9c0,0,0,0,0,0
						v347.6c0,3.9-1.9,7-4.2,6.9l0,0c-2.3,0.1-4.1-3-4.2-6.9c0,0,0,0,0,0V295.3z"/>
					<path id="Path_3101_1_" class="st144" d="M100.4,295.3c0-3.9,1.9-7,4.2-6.9c0,0,0,0,0,0l0,0c2.3-0.1,4.1,3,4.2,6.9c0,0,0,0,0,0
						v347.6c0,3.9-1.9,7-4.2,6.9l0,0c-2.3,0.1-4.1-3-4.2-6.9V295.3z"/>
					<path id="Path_3102_1_" class="st144" d="M83.5,295.3c0-3.9,1.9-7,4.2-6.9c0,0,0,0,0,0l0,0c2.3-0.1,4.1,3,4.2,6.9c0,0,0,0,0,0
						v347.6c0,3.9-1.9,7-4.2,6.9l0,0c-2.3,0.1-4.1-3-4.2-6.9V295.3z"/>
					<path id="Path_3103_1_" class="st144" d="M66.6,295.3c0-3.9,1.9-7,4.2-6.9c0,0,0,0,0,0l0,0c2.3-0.1,4.1,3,4.2,6.9c0,0,0,0,0,0
						v347.6c0,3.9-1.9,7-4.2,6.9l0,0c-2.3,0.1-4.1-3-4.2-6.9V295.3z"/>
					<path id="Path_3104_1_" class="st144" d="M49.6,295.3c0-3.9,1.9-7,4.2-6.9c0,0,0,0,0,0l0,0c2.3-0.1,4.1,3,4.2,6.9c0,0,0,0,0,0
						v347.6c0,3.9-1.9,7-4.2,6.9l0,0c-2.3,0.1-4.1-3-4.2-6.9V295.3z"/>
					<path id="Path_3105_1_" class="st144" d="M32.7,295.3c0-3.9,1.9-7,4.2-6.9c0,0,0,0,0,0l0,0c2.3-0.1,4.1,3,4.2,6.9c0,0,0,0,0,0
						v347.6c0,3.9-1.9,7-4.2,6.9l0,0c-2.3,0.1-4.1-3-4.2-6.9V295.3z"/>
				</g>
				<path id="Path_3106_1_" class="st5" d="M56.5,416H37.8l-2.5,31.8C35.2,447.8,57,437.5,56.5,416z"/>
				<path id="Path_3107_1_" class="st5" d="M243.4,416h18.7l2.5,31.8C264.7,447.8,242.9,437.5,243.4,416z"/>
				<path id="Path_3108_1_" class="st145" d="M214.6,542.8H88.6l-53.4-13.6h228.6L214.6,542.8z"/>
				<path id="Path_3109_1_" class="st146" d="M88.9,467.7L49.5,454h200.2l-35.4,13.7H88.9z"/>
			</g>
		</g>
		<path id="Path_3110_1_" class="st146" d="M36.1,625.8l15.8,24.5V738l-14.5,45.1L36.1,625.8z"/>
		<path id="Path_3111_1_" class="st146" d="M263.8,625.8l-13.5,27.7v87.7l12.2,42L263.8,625.8z"/>
	</g>
	<path id="Path_3112_1_" class="st147" d="M51,192.2c0,0-5.7-132.3,60.8-159.9C60,81.9,51,192.2,51,192.2z"/>
	<path id="Path_3113_1_" class="st147" d="M249.7,192.2c0,0,5.7-132.3-60.8-159.9C240.8,81.9,249.7,192.2,249.7,192.2z"/>
</g>
</svg>
