<?xml version="1.0" encoding="utf-8"?>
<!-- Generator: Adobe Illustrator 24.2.3, SVG Export Plug-In . SVG Version: 6.00 Build 0)  -->
<svg version="1.1" id="Layer_1" xmlns="http://www.w3.org/2000/svg" xmlns:xlink="http://www.w3.org/1999/xlink" x="0px" y="0px"
	 viewBox="0 0 300 1107.69" style="enable-background:new 0 0 300 1107.69;" xml:space="preserve">
<style type="text/css">
	.st0{fill:url(#SVGID_1_);}
	.st1{fill:url(#SVGID_2_);}
	.st2{fill:url(#Path_7011_2_);}
	.st3{fill:url(#Path_7012_2_);}
	.st4{fill:url(#Path_7013_2_);}
	.st5{fill:url(#Path_7016_2_);}
	.st6{fill:url(#Path_7017_2_);}
	.st7{fill:url(#Path_7020_2_);}
	.st8{fill:url(#Path_7021_2_);}
	.st9{fill:url(#Path_7024_2_);}
	.st10{fill:url(#Path_7025_2_);}
	.st11{fill:url(#Path_7026_2_);}
	.st12{fill:url(#Path_7027_2_);}
	.st13{fill:url(#Rectangle_24421_4_);}
	.st14{fill:url(#Rectangle_24421_5_);}
	.st15{fill:url(#Rectangle_24421_6_);}
	.st16{fill:url(#Rectangle_24421_8_);}
	.st17{fill:url(#Path_7028_2_);}
	.st18{fill:url(#Path_7029_2_);}
	.st19{fill:#B2B3B3;}
	.st20{fill:url(#Rectangle_24435_2_);}
	.st21{fill:#9E3E22;}
	.st22{fill:url(#Path_7034_2_);}
	.st23{fill:url(#Path_7035_2_);}
	.st24{opacity:0.2;}
	.st25{fill:#C1840C;}
</style>
<g>
	
		<linearGradient id="SVGID_1_" gradientUnits="userSpaceOnUse" x1="22.513" y1="1025.2896" x2="134.9944" y2="1008.1203" gradientTransform="matrix(1 0 0 -1 0 1108)">
		<stop  offset="0" style="stop-color:#C97229"/>
		<stop  offset="0.056" style="stop-color:#E49725"/>
		<stop  offset="0.1375" style="stop-color:#F7B318"/>
		<stop  offset="0.1885" style="stop-color:#F9BC19"/>
		<stop  offset="0.233" style="stop-color:#EFC01A"/>
		<stop  offset="1" style="stop-color:#EEBB1C"/>
	</linearGradient>
	<path class="st0" d="M64.68,14.45c0,0-36.76,0-38.3,40.28L18.6,156.81l34.2-1.05L64.68,14.45z"/>
	
		<linearGradient id="SVGID_2_" gradientUnits="userSpaceOnUse" x1="358.6" y1="1025.2897" x2="471.0813" y2="1008.1204" gradientTransform="matrix(-1 0 0 -1 635.458 1108)">
		<stop  offset="0" style="stop-color:#C97229"/>
		<stop  offset="0.056" style="stop-color:#E49725"/>
		<stop  offset="0.1375" style="stop-color:#F7B318"/>
		<stop  offset="0.1885" style="stop-color:#F9BC19"/>
		<stop  offset="0.233" style="stop-color:#EFC01A"/>
		<stop  offset="1" style="stop-color:#EEBB1C"/>
	</linearGradient>
	<path class="st1" d="M234.69,14.45c0,0,36.76,0,38.3,40.28l7.78,102.08l-34.2-1.05L234.69,14.45z"/>
	
		<linearGradient id="Path_7011_2_" gradientUnits="userSpaceOnUse" x1="-749.6636" y1="85.0618" x2="-749.6636" y2="83.5144" gradientTransform="matrix(10.683 0 0 10.443 8040.4609 -733.5846)">
		<stop  offset="0" style="stop-color:#CCCBCB"/>
		<stop  offset="1" style="stop-color:#FFFFFF"/>
	</linearGradient>
	<path id="Path_7011_1_" class="st2" d="M42.56,154.31l-23.96,2.5c0,0,0.55-11.17,2.12-24.63h24.29L42.56,154.31z"/>
	
		<linearGradient id="Path_7012_2_" gradientUnits="userSpaceOnUse" x1="-736.5477" y1="85.0618" x2="-736.5477" y2="83.5144" gradientTransform="matrix(10.683 0 0 10.443 8135.6143 -733.5846)">
		<stop  offset="0" style="stop-color:#CCCBCB"/>
		<stop  offset="1" style="stop-color:#FFFFFF"/>
	</linearGradient>
	<path id="Path_7012_1_" class="st3" d="M256.32,154.31l23.96,2.5c0,0-0.55-11.17-2.12-24.63h-24.29L256.32,154.31z"/>
	
		<linearGradient id="Path_7013_2_" gradientUnits="userSpaceOnUse" x1="149.9439" y1="-1008.4445" x2="148.77" y2="-645.7054" gradientTransform="matrix(1 0 0 1 0 1008)">
		<stop  offset="0" style="stop-color:#C97229"/>
		<stop  offset="0.056" style="stop-color:#E49725"/>
		<stop  offset="0.106" style="stop-color:#F7B318"/>
		<stop  offset="0.166" style="stop-color:#F9BC19"/>
		<stop  offset="0.275" style="stop-color:#FFC521"/>
		<stop  offset="0.469" style="stop-color:#FFC820"/>
		<stop  offset="0.756" style="stop-color:#FFCB1D"/>
		<stop  offset="0.88" style="stop-color:#F8D01C"/>
		<stop  offset="0.906" style="stop-color:#F6D41C"/>
		<stop  offset="0.918" style="stop-color:#F5CF17"/>
		<stop  offset="0.965" style="stop-color:#EFC01A"/>
		<stop  offset="1" style="stop-color:#EEBB1C"/>
	</linearGradient>
	<path id="Path_7013_1_" class="st4" d="M35.93,156.81l27.6-138.79C66.48,8.99,75.08,2.7,84.98,2.33H213.9
		c9.91,0.37,18.5,6.66,21.44,15.69l27.6,138.79H35.93z"/>
	<g id="Group_5705_1_" transform="translate(0 42.864)">
		
			<radialGradient id="Path_7016_2_" cx="-743.2624" cy="-16167.3682" r="8.234" gradientTransform="matrix(4.0161 0 0 1.2474 2994.8608 20280.9531)" gradientUnits="userSpaceOnUse">
			<stop  offset="0" style="stop-color:#F6D41C"/>
			<stop  offset="0.334" style="stop-color:#E8B520"/>
			<stop  offset="1" style="stop-color:#C97229"/>
		</radialGradient>
		<path id="Path_7016_1_" class="st5" d="M19.69,98.85c0,2.45-0.18,4.52-0.87,8.11L4.64,127.25c-2.56,0-4.64-6.41-4.64-8.86
			L19.69,98.85z"/>
		
			<linearGradient id="Path_7017_2_" gradientUnits="userSpaceOnUse" x1="-761.308" y1="-528.3965" x2="-759.7339" y2="-528.3965" gradientTransform="matrix(12.235 0 0 1.443 9316.0127 878.701)">
			<stop  offset="0" style="stop-color:#363B39"/>
			<stop  offset="1" style="stop-color:#1B1C1C"/>
		</linearGradient>
		<path id="Path_7017_1_" class="st6" d="M1.41,123.84c0.84,1.86,1.98,3.4,3.21,3.4l15.78-19.76c1.26,0-2.37-0.41-1.55-2.27
			L1.41,123.84z"/>
		<g id="Group_5703_1_" transform="translate(10.695 2.549)">
			<path id="Path_7014_1_" d="M25.24,109.5c-0.1,0-0.2-0.01-0.29-0.04L5.73,103.7c-0.52-0.16-0.81-0.69-0.65-1.18
				c0.16-0.5,0.72-0.78,1.24-0.62l0,0l19.21,5.76c0.52,0.15,0.82,0.68,0.66,1.18C26.07,109.24,25.68,109.51,25.24,109.5L25.24,109.5
				z"/>
		</g>
		<g id="Group_5704_1_" transform="translate(12.308 0.05)">
			<path id="Path_7015_1_" d="M25.69,112.14c-0.38,0-0.74-0.1-1.06-0.29l-16.3-9.91c-0.92-0.56-1.2-1.73-0.61-2.61
				s1.81-1.14,2.74-0.58l16.3,9.91c0.93,0.55,1.22,1.71,0.64,2.6C27.03,111.82,26.38,112.15,25.69,112.14L25.69,112.14z"/>
		</g>
	</g>
	<g id="Group_5708_1_" transform="translate(109.496 42.864)">
		<g id="Group_5706_1_" transform="translate(1.236 2.55)">
			<path id="Path_7018_1_" d="M153.33,109.5c-0.55,0-0.99-0.41-1-0.93c0-0.42,0.28-0.79,0.7-0.91l19.21-5.76
				c0.52-0.16,1.08,0.12,1.24,0.62s-0.13,1.03-0.65,1.19l-19.21,5.76C153.53,109.49,153.43,109.5,153.33,109.5z"/>
		</g>
		<g id="Group_5707_1_" transform="translate(0 0.049)">
			<path id="Path_7019_1_" d="M152.5,112.14c-1.09,0.01-1.99-0.82-2-1.86c-0.01-0.66,0.35-1.28,0.94-1.63l16.3-9.91
				c0.92-0.56,2.15-0.3,2.74,0.58c0.59,0.88,0.32,2.05-0.61,2.61l-16.3,9.91C153.25,112.04,152.88,112.14,152.5,112.14z"/>
		</g>
		
			<radialGradient id="Path_7020_2_" cx="-2193.3738" cy="-16167.5703" r="8.3916" gradientTransform="matrix(-4.0161 0 0 1.2474 -8628.7227 20280.9531)" gradientUnits="userSpaceOnUse">
			<stop  offset="0" style="stop-color:#F6D41C"/>
			<stop  offset="0.334" style="stop-color:#E8B520"/>
			<stop  offset="1" style="stop-color:#C97229"/>
		</radialGradient>
		<path id="Path_7020_1_" class="st7" d="M169.67,98.36c0,2.45,0.12,8.76,2.68,8.76l13.51,20.13c2.56,0,4.64-6.41,4.64-8.86
			L169.67,98.36z"/>
		
			<linearGradient id="Path_7021_2_" gradientUnits="userSpaceOnUse" x1="-1494.5342" y1="-528.329" x2="-1492.9282" y2="-528.329" gradientTransform="matrix(12.237 0 0 1.443 14684.4209 878.701)">
			<stop  offset="0" style="stop-color:#363B39"/>
			<stop  offset="1" style="stop-color:#1B1C1C"/>
		</linearGradient>
		<path id="Path_7021_1_" class="st8" d="M189.09,123.84c-0.84,1.86-1.98,3.4-3.21,3.4l-16.15-19.8c-0.92,0,0.58-0.6,1.1-1.66
			c0.2-0.41,0.78-0.51,1.1-0.17L189.09,123.84z"/>
	</g>
	
		<linearGradient id="Path_7024_2_" gradientUnits="userSpaceOnUse" x1="-818.7374" y1="93.8028" x2="-818.7374" y2="90.6137" gradientTransform="matrix(92.221 0 0 11.5168 75654.2188 -932.2419)">
		<stop  offset="0" style="stop-color:#363B39"/>
		<stop  offset="1" style="stop-color:#1B1C1C"/>
	</linearGradient>
	<path id="Path_7024_1_" class="st9" d="M263.45,154.84c-37.81-2.36-79.12-6.15-114.01-6.15s-77.3,5.21-114.01,6.15
		c10.7-2.87,11.48-19.79,21.29-22.66c49.84-6.01,133.96-6.01,183.8,0C250.33,135.04,252.75,151.97,263.45,154.84z"/>
	
		<linearGradient id="Path_7025_2_" gradientUnits="userSpaceOnUse" x1="-819.7348" y1="138.1667" x2="-819.7348" y2="143.4813" gradientTransform="matrix(102.494 0 0 7.827 84166.6328 8.8899)">
		<stop  offset="0" style="stop-color:#F19D1F"/>
		<stop  offset="7.000001e-03" style="stop-color:#F09B20"/>
		<stop  offset="0.17" style="stop-color:#E78824"/>
		<stop  offset="0.358" style="stop-color:#E47C25"/>
		<stop  offset="0.59" style="stop-color:#DF7426"/>
		<stop  offset="1" style="stop-color:#DE7126"/>
	</linearGradient>
	<path id="Path_7025_1_" class="st10" d="M22.02,1101.12c3.19,4.12,8.23,6.56,13.6,6.57h227.64c4.59,0,8.99-1.78,12.18-4.93
		c-15.59-7.81-67.27-13.54-128.66-13.54C89.79,1089.22,41.17,1094.16,22.02,1101.12z"/>
	
		<linearGradient id="Path_7026_2_" gradientUnits="userSpaceOnUse" x1="-821.248" y1="181.0834" x2="-818.7755" y2="181.0834" gradientTransform="matrix(105.837 0 0 261.8919 86937.0234 -46797.3516)">
		<stop  offset="0" style="stop-color:#C97229"/>
		<stop  offset="0.056" style="stop-color:#E49725"/>
		<stop  offset="0.106" style="stop-color:#F7B318"/>
		<stop  offset="0.166" style="stop-color:#F9BC19"/>
		<stop  offset="0.275" style="stop-color:#FFC521"/>
		<stop  offset="0.469" style="stop-color:#FFC820"/>
		<stop  offset="0.756" style="stop-color:#FFCB1D"/>
		<stop  offset="0.88" style="stop-color:#F8D01C"/>
		<stop  offset="0.906" style="stop-color:#F6D41C"/>
		<stop  offset="0.918" style="stop-color:#F5CF17"/>
		<stop  offset="0.965" style="stop-color:#EFC01A"/>
		<stop  offset="1" style="stop-color:#EEBB1C"/>
	</linearGradient>
	<path id="Path_7026_1_" class="st11" d="M280.28,158.45c0-5.7-58.58-7.37-130.84-7.37S18.6,152.75,18.6,158.45v934.04
		c0.01,3.17,1.21,6.25,3.42,8.77c19.15-6.31,67.77-10.79,124.77-10.79c61.39,0,113.07,5.19,128.66,12.28
		c3.1-2.74,4.84-6.43,4.84-10.27L280.28,158.45z"/>
	
		<linearGradient id="Path_7027_2_" gradientUnits="userSpaceOnUse" x1="-820.0123" y1="-11.0733" x2="-820.0123" y2="-10.1628" gradientTransform="matrix(105.8359 0 0 5.344 86936.1797 207.6599)">
		<stop  offset="0" style="stop-color:#C97229"/>
		<stop  offset="0.271" style="stop-color:#DCA273"/>
		<stop  offset="0.522" style="stop-color:#EACAAF"/>
		<stop  offset="0.734" style="stop-color:#F4E5D9"/>
		<stop  offset="0.899" style="stop-color:#FCF8F5"/>
		<stop  offset="0.996" style="stop-color:#FFFFFF"/>
	</linearGradient>
	<path id="Path_7027_1_" class="st12" d="M149.44,148.69c-72.26,0-130.84,1.84-130.84,8.12v4.48c0-6.28,58.58-8.12,130.84-8.12
		s130.84,1.84,130.84,8.12v-4.48C280.28,150.53,221.72,148.69,149.44,148.69z"/>
	
		<linearGradient id="Rectangle_24421_4_" gradientUnits="userSpaceOnUse" x1="-844.903" y1="244.8514" x2="-841.4063" y2="244.8514" gradientTransform="matrix(27.217 0 0 35.54 23094.916 -8403.6279)">
		<stop  offset="0" style="stop-color:#F19D1F"/>
		<stop  offset="0.074" style="stop-color:#F5AE1B"/>
		<stop  offset="0.164" style="stop-color:#F9BC19"/>
		<stop  offset="0.274" style="stop-color:#FFC521"/>
		<stop  offset="0.469" style="stop-color:#FFC820"/>
		<stop  offset="0.774" style="stop-color:#FFCB1D"/>
		<stop  offset="0.905" style="stop-color:#F8D01C"/>
		<stop  offset="0.932" style="stop-color:#F6D41C"/>
		<stop  offset="1" style="stop-color:#EED711"/>
	</linearGradient>
	<path id="Rectangle_24421_7_" class="st13" d="M108.2,222.93h77.16c4.98,0,9,3.49,9,7.8l0,0v135.32c0,4.31-4.03,7.8-9,7.8l0,0
		h-77.17c-4.98,0-9-3.49-9-7.8l0,0V230.72C99.2,226.42,103.23,222.93,108.2,222.93z"/>
	
		<linearGradient id="Rectangle_24421_5_" gradientUnits="userSpaceOnUse" x1="-844.903" y1="250.7087" x2="-841.4063" y2="250.7087" gradientTransform="matrix(27.217 0 0 35.54 23094.916 -8403.6279)">
		<stop  offset="0" style="stop-color:#F19D1F"/>
		<stop  offset="0.074" style="stop-color:#F5AE1B"/>
		<stop  offset="0.164" style="stop-color:#F9BC19"/>
		<stop  offset="0.274" style="stop-color:#FFC521"/>
		<stop  offset="0.469" style="stop-color:#FFC820"/>
		<stop  offset="0.774" style="stop-color:#FFCB1D"/>
		<stop  offset="0.905" style="stop-color:#F8D01C"/>
		<stop  offset="0.932" style="stop-color:#F6D41C"/>
		<stop  offset="1" style="stop-color:#EED711"/>
	</linearGradient>
	<path id="Rectangle_24421_1_" class="st14" d="M108.2,431.1h77.16c4.98,0,9,3.49,9,7.8l0,0v135.32c0,4.31-4.03,7.8-9,7.8l0,0
		h-77.17c-4.98,0-9-3.49-9-7.8l0,0V438.9C99.2,434.59,103.23,431.1,108.2,431.1z"/>
	
		<linearGradient id="Rectangle_24421_6_" gradientUnits="userSpaceOnUse" x1="-844.903" y1="256.5661" x2="-841.4063" y2="256.5661" gradientTransform="matrix(27.217 0 0 35.54 23094.916 -8403.6279)">
		<stop  offset="0" style="stop-color:#F19D1F"/>
		<stop  offset="0.074" style="stop-color:#F5AE1B"/>
		<stop  offset="0.164" style="stop-color:#F9BC19"/>
		<stop  offset="0.274" style="stop-color:#FFC521"/>
		<stop  offset="0.469" style="stop-color:#FFC820"/>
		<stop  offset="0.774" style="stop-color:#FFCB1D"/>
		<stop  offset="0.905" style="stop-color:#F8D01C"/>
		<stop  offset="0.932" style="stop-color:#F6D41C"/>
		<stop  offset="1" style="stop-color:#EED711"/>
	</linearGradient>
	<path id="Rectangle_24421_2_" class="st15" d="M108.2,639.27h77.16c4.98,0,9,3.49,9,7.8l0,0v135.32c0,4.31-4.03,7.8-9,7.8l0,0
		h-77.17c-4.98,0-9-3.49-9-7.8l0,0V647.07C99.2,642.76,103.23,639.27,108.2,639.27z"/>
	
		<linearGradient id="Rectangle_24421_8_" gradientUnits="userSpaceOnUse" x1="-844.903" y1="262.4237" x2="-841.4063" y2="262.4237" gradientTransform="matrix(27.217 0 0 35.54 23094.916 -8403.6279)">
		<stop  offset="0" style="stop-color:#F19D1F"/>
		<stop  offset="0.074" style="stop-color:#F5AE1B"/>
		<stop  offset="0.164" style="stop-color:#F9BC19"/>
		<stop  offset="0.274" style="stop-color:#FFC521"/>
		<stop  offset="0.469" style="stop-color:#FFC820"/>
		<stop  offset="0.774" style="stop-color:#FFCB1D"/>
		<stop  offset="0.905" style="stop-color:#F8D01C"/>
		<stop  offset="0.932" style="stop-color:#F6D41C"/>
		<stop  offset="1" style="stop-color:#EED711"/>
	</linearGradient>
	<path id="Rectangle_24421_3_" class="st16" d="M108.2,847.45h77.16c4.98,0,9,3.49,9,7.8l0,0v135.32c0,4.31-4.03,7.8-9,7.8l0,0
		h-77.17c-4.98,0-9-3.49-9-7.8l0,0V855.24C99.2,850.94,103.23,847.45,108.2,847.45z"/>
	
		<linearGradient id="Path_7028_2_" gradientUnits="userSpaceOnUse" x1="-799.1561" y1="94.3452" x2="-796.6835" y2="94.3452" gradientTransform="matrix(28.055 0 0 3.8683 22448.1152 738.1767)">
		<stop  offset="0" style="stop-color:#363B39"/>
		<stop  offset="1" style="stop-color:#1B1C1C"/>
	</linearGradient>
	<path id="Path_7028_1_" class="st17" d="M96.23,1101.46c-0.51-3.44-15.97-3.88-34.52-0.97l-33.92,5.3c2.41,1.24,5.1,1.89,7.84,1.91
		h61.53C97.15,1107.69,96.74,1104.9,96.23,1101.46z"/>
	
		<linearGradient id="Path_7029_2_" gradientUnits="userSpaceOnUse" x1="-995.7565" y1="94.3452" x2="-993.284" y2="94.3452" gradientTransform="matrix(28.056 0 0 3.8683 22519.3281 738.1767)">
		<stop  offset="0" style="stop-color:#363B39"/>
		<stop  offset="1" style="stop-color:#1B1C1C"/>
	</linearGradient>
	<path id="Path_7029_1_" class="st18" d="M202.8,1101.46c0.51-3.44,15.97-3.88,34.52-0.97l33.92,5.3c-2.41,1.24-5.1,1.89-7.84,1.91
		h-61.53C201.88,1107.69,202.29,1104.9,202.8,1101.46z"/>
	<g id="Group_5717_1_" transform="translate(13.068 301.69)">
		<path id="Path_7030_1_" class="st19" d="M261.82,802.08c-15.76-7.9-68.44-13.41-128.1-13.41c-54.9,0-104.87,4.75-124.34,11.82
			l-0.85-2.12c20.03-7.27,69.16-11.97,125.19-11.97c60.01,0,113.15,5.62,129.21,13.68L261.82,802.08z"/>
	</g>
	
		<linearGradient id="Rectangle_24435_2_" gradientUnits="userSpaceOnUse" x1="-801.0343" y1="-124.878" x2="-801.0343" y2="-119.5634" gradientTransform="matrix(33.095 0 0 1.118 26659.6758 1244.8195)">
		<stop  offset="0" style="stop-color:#363B39"/>
		<stop  offset="1" style="stop-color:#1B1C1C"/>
	</linearGradient>
	<rect id="Rectangle_24435_1_" x="108.53" y="1105.05" class="st20" width="81.83" height="2.64"/>
	<g id="Group_5718_1_" transform="translate(57.569 46.018)">
		<path id="Path_7031_1_" class="st21" d="M82.86,102.68l-8.8,0.03v4.44h8.8V102.68z"/>
		<path id="Path_7032_1_" class="st21" d="M96.27,102.67h-8.8v4.48h8.8V102.67z"/>
		<path id="Path_7033_1_" class="st21" d="M100.89,102.68v4.47h8.8v-4.44L100.89,102.68z"/>
	</g>
	
		<linearGradient id="Path_7034_2_" gradientUnits="userSpaceOnUse" x1="-803.5992" y1="81.2286" x2="-804.2901" y2="76.9226" gradientTransform="matrix(36.384 0 0 9.82 29367.7246 -621.2515)">
		<stop  offset="0" style="stop-color:#3B3B3B"/>
		<stop  offset="1" style="stop-color:#000000"/>
	</linearGradient>
	<path id="Path_7034_1_" class="st22" d="M151.95,127.62c-20.25,0.45-40.41,0.92-60.5,3.32c-9.8,2.87-19.04,16.41-28.84,19.27
		c16.93-0.47,34.02-0.64,51.69-1.12C125.85,140.33,138.39,133.2,151.95,127.62z"/>
	
		<linearGradient id="Path_7035_2_" gradientUnits="userSpaceOnUse" x1="-812.666" y1="-687.831" x2="-812.666" y2="-691.0178" gradientTransform="matrix(57.1865 0 0 1.307 46622.9688 901.3115)">
		<stop  offset="0" style="stop-color:#363B39"/>
		<stop  offset="1" style="stop-color:#1B1C1C"/>
	</linearGradient>
	<path id="Path_7035_1_" class="st23" d="M220.14,1.55c0.07,0.78-0.53,1.46-1.34,1.54H80.09c-0.81-0.08-1.4-0.76-1.34-1.54l0,0
		C78.68,0.77,79.28,0.08,80.09,0H218.8C219.61,0.08,220.21,0.77,220.14,1.55z"/>
	<g id="Group_5719_1_" transform="translate(19.357 51.873)" class="st24">
		<path id="Path_7036_1_" class="st25" d="M18.64,1038.05c-0.47,0-0.85-0.32-0.85-0.73c0,0,0,0,0-0.01V112.47
			c0-0.41,0.38-0.74,0.85-0.74c0.47,0,0.85,0.33,0.85,0.74v924.85C19.5,1037.72,19.12,1038.05,18.64,1038.05
			C18.65,1038.05,18.64,1038.05,18.64,1038.05z"/>
	</g>
	<g id="Group_5720_1_" transform="translate(109.502 51.873)" class="st24">
		<path id="Path_7037_1_" class="st25" d="M151.38,1038.05c-0.47,0-0.85-0.32-0.85-0.73c0,0,0,0,0-0.01V112.47
			c0-0.41,0.38-0.74,0.85-0.74s0.85,0.33,0.85,0.74v924.85C152.24,1037.72,151.86,1038.05,151.38,1038.05
			C151.39,1038.05,151.38,1038.05,151.38,1038.05z"/>
	</g>
	<g id="Group_5721_1_" transform="translate(51.383 36.12)">
		<path id="Path_7038_1_" d="M199.45,106.34c-37.57-9.04-81.5-12.43-120.24-11.69c0-0.94,0.01-1.9,0.04-2.86
			c39.35-0.74,79.11,0.86,117.27,10.05C198.44,104.65,199.22,105.33,199.45,106.34z"/>
	</g>
</g>
</svg>
