<?xml version="1.0" encoding="utf-8"?>
<!-- Generator: Adobe Illustrator 24.2.3, SVG Export Plug-In . SVG Version: 6.00 Build 0)  -->
<svg version="1.1" id="Layer_1" xmlns="http://www.w3.org/2000/svg" xmlns:xlink="http://www.w3.org/1999/xlink" x="0px" y="0px"
	 viewBox="0 0 300 714.7" style="enable-background:new 0 0 300 714.7;" xml:space="preserve">
<style type="text/css">
	.st0{fill:#E6E3DE;}
	.st1{fill:#06314E;}
	.st2{clip-path:url(#SVGID_2_);}
	.st3{fill:#8293A0;}
	.st4{clip-path:url(#SVGID_4_);}
	.st5{clip-path:url(#SVGID_6_);}
	.st6{clip-path:url(#SVGID_8_);}
	.st7{fill:#E3E5DA;}
	.st8{fill:#EADFDD;}
	.st9{fill:#EAEAEA;}
	.st10{fill:#2D86A5;}
	.st11{clip-path:url(#SVGID_10_);}
	.st12{fill:#296277;}
	.st13{clip-path:url(#SVGID_12_);}
	.st14{fill:#FFFFFF;}
	.st15{fill:#FCF8F7;}
	.st16{fill:#00384B;}
	.st17{opacity:0.7;fill:#296277;}
	.st18{fill:#E7E3E4;}
	.st19{fill:none;stroke:#06314E;stroke-width:3;stroke-linecap:round;stroke-miterlimit:10;}
	.st20{fill:#929FB1;}
	.st21{fill:#E8ECEE;}
	.st22{fill:#ED1C24;}
	.st23{fill:#F15959;}
	.st24{opacity:0.5;fill:#A2ADAF;enable-background:new    ;}
	.st25{fill:#DFE0D5;}
	.st26{fill:#333333;}
	.st27{fill:#F6F8EB;}
	.st28{opacity:0.2;fill:url(#Path_6732_1_);enable-background:new    ;}
	.st29{fill:#EFEFEA;}
	.st30{fill:#CCCCCB;}
	.st31{fill:none;}
	.st32{opacity:0.5;fill:url(#Path_6742_1_);enable-background:new    ;}
	.st33{opacity:0.3;fill:url(#Path_6743_1_);enable-background:new    ;}
	.st34{opacity:0.3;fill:url(#Path_6744_1_);enable-background:new    ;}
	.st35{fill:#666766;}
	.st36{fill:#F26722;}
	.st37{fill:#E0F2F6;}
	.st38{fill:#F7F7F7;}
	.st39{fill:url(#Path_6755_1_);}
	.st40{fill:#676B86;}
	.st41{opacity:0.2;enable-background:new    ;}
	.st42{opacity:0.5;fill:url(#Path_6770_1_);enable-background:new    ;}
	.st43{opacity:0.3;fill:url(#Path_6771_1_);enable-background:new    ;}
	.st44{opacity:0.4;enable-background:new    ;}
	.st45{opacity:0.5;fill:url(#Path_6777_1_);enable-background:new    ;}
	.st46{opacity:0.3;fill:url(#Path_6778_1_);enable-background:new    ;}
	.st47{fill:url(#Path_6780_1_);}
	.st48{fill:#CB2026;}
	.st49{fill:url(#Path_6782_1_);}
	.st50{opacity:0.3;fill:#640D0D;enable-background:new    ;}
	.st51{opacity:0.5;fill:#EF3C23;enable-background:new    ;}
	.st52{fill:url(#Path_6786_1_);}
	.st53{fill:url(#Path_6788_1_);}
	.st54{fill:url(#Path_6792_1_);}
	.st55{fill:url(#Path_6794_1_);}
	.st56{opacity:0.5;fill:url(#Path_6798_1_);enable-background:new    ;}
	.st57{opacity:0.3;fill:url(#Path_6799_1_);enable-background:new    ;}
	.st58{opacity:0.4;fill:url(#Path_6801_1_);enable-background:new    ;}
	.st59{opacity:0.4;fill:url(#Path_6803_1_);enable-background:new    ;}
	.st60{fill:url(#Path_6805_1_);}
	.st61{opacity:0.5;fill:url(#Path_6809_1_);enable-background:new    ;}
	.st62{opacity:0.3;fill:url(#Path_6810_1_);enable-background:new    ;}
	.st63{opacity:0.4;fill:url(#Path_6812_1_);enable-background:new    ;}
	.st64{opacity:0.4;fill:url(#Path_6814_1_);enable-background:new    ;}
</style>
<g id="Group_3754" transform="translate(-2019 -58)">
	<g transform="matrix(1, 0, 0, 1, 2019, 58)">
		<path id="Path_2933-2" class="st0" d="M27.2,190.7l0.9-80.1c3.9-38,22.2-71.4,49.3-89.7c0,0,56.9-42.9,133.8-5.6
			c0,0,51.5,30.5,59.7,86.9c0,0,1.8,42.9,1.8,64.3l0.9,111.7l-3.6,150.1l-7.2,135.4l-5.4,72.2c0,0,1.8,53-46.1,66.6
			c0,0-85.9,37.2-151-18.1c0,0-19-15.8-19-55.3l-9.1-177.2l-5.4-186.2L27.2,190.7z"/>
	</g>
	<g id="Group_3753" transform="translate(1816.094 8.974)">
		<g id="Group_3724" transform="translate(213.751 100.572)">
			<path id="Path_2873" class="st1" d="M17.2,66.4c0,0-6.3-2.9-5.4,59.2v74.5c0,0-0.1,17,4.5,18.1L17.2,66.4z"/>
			<g id="Group_3723" transform="translate(0)">
				<g>
					<defs>
						<path id="SVGID_1_" d="M17.2,66.4c0,0-6.3-2.9-5.4,59.2v74.5c0,0-0.1,17,4.5,18.1L17.2,66.4z"/>
					</defs>
					<clipPath id="SVGID_2_">
						<use xlink:href="#SVGID_1_"  style="overflow:visible;"/>
					</clipPath>
					<g id="Group_3722" class="st2">
						<rect id="Rectangle_20164" x="9.1" y="121.1" class="st3" width="9" height="44"/>
					</g>
				</g>
			</g>
		</g>
		<g id="Group_3727" transform="translate(333.502 100.572)">
			<path id="Path_2875" class="st1" d="M141.5,66.4c0,0,6.3-2.9,5.4,59.2v74.5c0,0,0.1,17-4.5,18.1L141.5,66.4z"/>
			<g id="Group_3726">
				<g>
					<defs>
						<path id="SVGID_3_" d="M141.5,66.4c0,0,6.3-2.9,5.4,59.2v74.5c0,0,0.1,17-4.5,18.1L141.5,66.4z"/>
					</defs>
					<clipPath id="SVGID_4_">
						<use xlink:href="#SVGID_3_"  style="overflow:visible;"/>
					</clipPath>
					<g id="Group_3725" class="st4">
						<rect id="Rectangle_20165" x="140.6" y="121.1" class="st3" width="9" height="44"/>
					</g>
				</g>
			</g>
		</g>
		<g id="Group_3730" transform="translate(217.452 243.188)">
			<path id="Path_2877" class="st1" d="M19,293.1c0,0-6-2.1-1.6,54.8l4.2,68.4c0,0,0.8,15.6,5.1,16.2L19,293.1z"/>
			<g id="Group_3729">
				<g>
					<defs>
						<path id="SVGID_5_" d="M19,293.1c0,0-6-2.1-1.6,54.8l4.2,68.4c0,0,0.8,15.6,5.1,16.2L19,293.1z"/>
					</defs>
					<clipPath id="SVGID_6_">
						<use xlink:href="#SVGID_5_"  style="overflow:visible;"/>
					</clipPath>
					<g id="Group_3728" class="st5">
						<polygon id="Rectangle_20166" class="st3" points="14.6,344 22.9,343.2 25.4,383.7 17.1,384.5 						"/>
					</g>
				</g>
			</g>
		</g>
		<g id="Group_3733" transform="translate(327.224 243.188)">
			<path id="Path_2879" class="st1" d="M142.4,293.1c0,0,6-2.1,1.6,54.8l-4.2,68.4c0,0-0.8,15.6-5.1,16.2L142.4,293.1z"/>
			<g id="Group_3732">
				<g>
					<defs>
						<path id="SVGID_7_" d="M142.4,293.1c0,0,6-2.1,1.6,54.8l-4.2,68.4c0,0-0.8,15.6-5.1,16.2L142.4,293.1z"/>
					</defs>
					<clipPath id="SVGID_8_">
						<use xlink:href="#SVGID_7_"  style="overflow:visible;"/>
					</clipPath>
					<g id="Group_3731" class="st6">
						<polygon id="Rectangle_20167" class="st3" points="144.3,384.5 136,383.7 138.5,343.2 146.8,344 						"/>
					</g>
				</g>
			</g>
		</g>
		<g id="Group_3752" transform="translate(202.906 55.026)">
			<path id="Path_2881" class="st7" d="M27.2,184.7l0.9-80.1c3.9-38,22.2-71.4,49.3-89.7c0,0,56.9-42.9,133.8-5.6
				c0,0,51.5,30.5,59.7,86.9c0,0,1.8,42.9,1.8,64.3l0.9,111.7l-3.6,150.1l-7.2,135.4l-5.4,72.2c0,0,1.8,53-46.1,66.6
				c0,0-85.9,37.2-151-18.1c0,0-19-15.8-19-55.3l-9.1-177.2l-5.4-186.2L27.2,184.7z"/>
			<path id="Path_2882" class="st8" d="M27.2,184.7l0.9-80.1c3.9-38,22.2-71.4,49.3-89.7c0,0,56.9-42.9,133.8-5.6
				c0,0,51.5,30.5,59.7,86.9c0,0,1.8,42.9,1.8,64.3l0.9,111.7l-3.6,150.1l-7.2,135.4l-5.4,72.2c0,0,1.8,53-46.1,66.6
				c0,0-85.9,37.2-151-18.1c0,0-19-15.8-19-55.3l-9.1-177.2l-5.4-186.2L27.2,184.7z"/>
			<path id="Path_2883" class="st9" d="M27.2,184.7l0.9-80.1c3.9-38,22.2-71.4,49.3-89.7c0,0,56.9-42.9,133.8-5.6
				c0,0,51.5,30.5,59.7,86.9c0,0,1.8,42.9,1.8,64.3l0.9,111.7l-3.6,150.1l-7.2,135.4l-5.4,72.2c0,0,1.8,53-46.1,66.6
				c0,0-85.9,37.2-151-18.1c0,0-19-15.8-19-55.3l-9.1-177.2l-5.4-186.2L27.2,184.7z"/>
			<path id="Path_2884" class="st1" d="M44.8,100.6l-9,3.4c0,0-6.3,2.3-0.9-11.3l17.1-40.8l21.7-22.2l18.2-3.5
				c0,0,53.7-38.8,116.6,0l16.3,2.3l24.4,21.4l18.1,46.3c0,0,5.4,10.2-6.3,6.8l-6.3-1.1l-39.8-58.7c0,0-58.4-47.8-128.4,0
				C71.8,53.1,44.8,100.6,44.8,100.6z"/>
			<g id="Group_3736" transform="translate(18.047 15.023)">
				<path id="Path_2885" class="st10" d="M19.5,81.1l17.2-39.5c1.1-2.6,2.6-5,4.5-6.8l15.4-14.7l12.7-2.3c0,0,3.6,0,0,4.5L32.2,76.6
					c0,0-2.9,4.3-7.2,4.5L19.5,81.1z"/>
				<g id="Group_3735">
					<g>
						<defs>
							<path id="SVGID_9_" d="M19.5,81.1l17.2-39.5c1.1-2.6,2.6-5,4.5-6.8l15.4-14.7l12.7-2.3c0,0,3.6,0,0,4.5L32.2,76.6
								c0,0-0.9,4.5-7.2,4.5L19.5,81.1z"/>
						</defs>
						<clipPath id="SVGID_10_">
							<use xlink:href="#SVGID_9_"  style="overflow:visible;"/>
						</clipPath>
						<g id="Group_3734" class="st11">
							<path id="Path_2886" class="st12" d="M69.7,17.3c0,0-38,37.2-47.9,64.3l-3.5,0.4l15.2-51.2l18.1-16.9l22.6-5.6L69.7,17.3z"/>
						</g>
					</g>
				</g>
			</g>
			<g id="Group_3739" transform="translate(101.785 15.241)">
				<path id="Path_2888" class="st10" d="M161.6,81.4l-17.2-39.5c-1.1-2.6-2.6-5-4.5-6.8l-15.4-14.7l-12.7-2.2c0,0-3.6,0,0,4.5
					l37.1,54.2c0,0,0.9,4.5,7.2,4.5L161.6,81.4z"/>
				<g id="Group_3738">
					<g>
						<defs>
							<path id="SVGID_11_" d="M161.6,81.4l-17.2-39.5c-1.1-2.6-2.6-5-4.5-6.8l-15.4-14.7l-12.7-2.2c0,0-3.6,0,0,4.5l37.1,54.2
								c0,0,0.9,4.5,7.2,4.5L161.6,81.4z"/>
						</defs>
						<clipPath id="SVGID_12_">
							<use xlink:href="#SVGID_11_"  style="overflow:visible;"/>
						</clipPath>
						<g id="Group_3737" class="st13">
							<path id="Path_2889" class="st12" d="M111.4,17.7c0,0,38,37.2,47.9,64.3l-0.9-12.4l-10.9-38.4l-18.1-16.9l-22.6-5.6
								L111.4,17.7z"/>
						</g>
					</g>
				</g>
			</g>
			<path id="Path_2891" class="st14" d="M38.5,251.8c0,0,0.9-132,15.4-159.1c0,0,23-41.6,43.1-55.2c0,0,50.2-31.8,111.1,2.7l6.7,2.9
				l39.8,58.7c0,0,9,95.9,5.4,150.1c0,0-9.9-36.1-37.1-49.7c0,0,6.3-89.1-12.7-141.1c0,0,14.5,81.2,8.1,136.5
				c0,0-61.5-45.1-136.5-1.1c0,0-4.5-93.7,9-137.7c0,0-18.1,46.3-14.5,142.2C76.5,201.1,53.9,212.3,38.5,251.8z"/>
			<path id="Path_2892" class="st15" d="M76.9,611.2c0,0-13.6-138.8-10.8-225.7l-0.5-20.9c0,0-0.9-23.7,5.4-26c0,0,8.1-6.8,5.4,49.7
				L76.9,611.2z"/>
			<path id="Path_2893" class="st15" d="M224.3,611.2c0,0,11.8-138.8,9.5-225.7l0.4-20.9c0,0,0.8-23.7-4.7-26c0,0-7.1-6.8-4.7,49.7
				L224.3,611.2z"/>
			<path id="Path_2894" class="st14" d="M78.7,585.3l0.9-221.2c0,0-1.8-28.2,3.6-36.1c0,0,5-9.6,11.3-2.8c0,0,2.7,2.3,2.7,30.5
				c0,0-0.9,217.8,5.4,233.6L101.8,332c0,0-3.6-18.1,10.8-20.3c0,0,38.9-10.2,71.4-1.1c0,0,14.5,0,14.5,20.3l-1.8,258.4
				c0,0,7.2-212.1,6.3-246c0,0-0.9-20.3,3.6-21.4c0,0,13.6-1.1,13.6,31.6l0.9,231.3c0,0,1.8,16.9-8.1,16.9c0,0-59.7,16.9-122.9,0
				C90,601.6,78.3,602.8,78.7,585.3z"/>
			<path id="Path_2895" class="st15" d="M79.6,598.8c0,0-2.7,12.4,15.4,21.4c0,0,35.7,22,90.8,7.3c0,0,30.7-5.6,34.3-16.9
				c0,0,1.8-3.4,0.9-12.4c0,0-3.6,9-45.2,12.4C175.9,610.7,108.1,615.2,79.6,598.8z"/>
			<g id="Group_3740" transform="translate(12.982 46.434)">
				<path id="Path_2896" class="st15" d="M14.8,67.8c0,0,9.4,12.9,9.4,45.6c0,0,1.5,100.2-10.1,102.6L14.8,67.8z"/>
				<path id="Path_2897" class="st15" d="M259.4,67.8c0,0-9.4,12.9-9.4,45.6c0,0-1.5,100.2,10.1,102.6L259.4,67.8z"/>
				<path id="Path_2898" class="st15" d="M20.7,431.2c0,0,12.5,17.3,13.4,62.5c0,0,4.5,87-4.6,87.5L20.7,431.2z"/>
				<path id="Path_2899" class="st15" d="M254,431.2c0,0-12.5,17.3-13.4,62.5c0,0-4.5,87,4.6,87.5L254,431.2z"/>
			</g>
			<path id="Path_2900" class="st1" d="M36.2,271.6c0,0,12.7,5.6,6.3,21.4l3.6-1.1c0,0,1.4,97.6,1.4,155.2c0,0,0.9,79,10.8,118.5
				c0,0,1.8,14.7,7.2,15.8c0,0,5.4,6.8,2.7-38.4l-4.5-149c0,0-6.3-55.3,11.8-68.8c0,0,51.5-44,139.2-5.6c0,0,19.9,10.2,21.7,35v55.3
				l-0.9,75.6c0,0-1.8,64.3-3.6,74.5c0,0-1.8,20.3,2.7,22.6c0,0,4.5,4.5,13.6-46.3c0,0,5.4-62.1,4.5-86.9v-158h2.7
				c0.2-3.4,0.5-6.8,0.9-10.2c0.6-2.9,6.3-9,6.3-9h-9.9c0,0-2.7-80.1-90.4-89.1c0,0-104.9-11.3-115.7,89.1L36.2,271.6z"/>
			<path id="Path_2901" class="st16" d="M71.5,326.9l-17.2-59.8c0,0-1.8-5.6,3.6-16.9c0,0,12.2-31,45.6-51.3
				c0,0,42.5-31.6,106.7,7.9c12.2,9.8,22.4,22.9,29.8,38.4l6.3,14.7l-18.1,66.6c0,0-22.6-29.3-79.5-28.2
				C148.8,298.1,91.8,298.1,71.5,326.9z"/>
			<g id="Group_3741" transform="translate(23.42 117.214)">
				<path id="Path_2902" class="st12" d="M27.3,343.9c0,0-3.6-150.1-0.9-163.6l13.6,46.3c0,0-2.3,50.2-0.5,122.4L27.3,343.9z"/>
			</g>
			<g id="Group_3742" transform="translate(24.989 185.85)">
				<path id="Path_2904" class="st12" d="M27.1,289.4c0,0,0.9,48.5,4.5,73.3c0,0,4.5,29.3,9,30.5c0,0,2.7,5.6,0.9-31.6l-3.6-67.7
					L27.1,289.4z"/>
			</g>
			<g id="Group_3745" transform="translate(111.497 117.214)">
				<g id="Group_3743" transform="translate(2.169)">
					<path id="Path_2906" class="st12" d="M135.8,343.9c0,0,3.6-150.1,0.9-163.6l-13.6,46.3c0,0,2.3,50.2,0.5,122.4L135.8,343.9z"/>
				</g>
				<g id="Group_3744" transform="translate(0 68.636)">
					<path id="Path_2908" class="st12" d="M136.6,289.4c0,0-0.9,48.5-4.5,73.3c0,0-4.5,29.3-9,30.5c0,0-0.7,6.8,1.1-30.5l1.6-68.8
						L136.6,289.4z"/>
				</g>
			</g>
			<path id="Path_2913" class="st1" d="M77.8,619.1c0,0-14.5,6.8-9,21.4c0,0,2.3,8.5,21.3,17.5c0,0,23.5,11.3,43.4,12.4
				c0,0,47,2.3,66.9-7.9c0,0,24.4-9,28.9-19.2c0,0,9.9-13.5-7.2-24.8c0,0-28,28.2-88.6,20.3C133.4,638.9,103.6,637.8,77.8,619.1z"/>
			<path id="Path_2914" class="st17" d="M80.6,621.3c0,0-10.9,10.3,0.8,21.6c0,0,14.5,16.9,46.1,20.3c0,0,39.3,5.1,68.2-6.2
				c0,0,42.5-14,22.5-35.2c0,0-23.5,18.3-60.5,18.3C157.8,640,110.9,642,80.6,621.3z"/>
			<path id="Path_2915" class="st18" d="M66.1,677.8c0,0,8.1,1.1,11.8-3.4c0,0,38.4,25.4,93.6,17.5c0,0,40.7-6.8,50.6-18.1
				c3.2,3.5,7.6,4.8,11.8,3.4c0,0-27.1,26-85,23.7C148.8,701,100.9,702.1,66.1,677.8z"/>
			<path id="Path_2916" class="st19" d="M101.3,672.2c31.7,10.7,65.1,10.7,96.7,0"/>
			<g id="Group_3746" transform="translate(44.296 7.373)">
				<path id="Path_2917" class="st20" d="M49.8,19.3c0,0,24.4-14.7,46.1-13.5v2.3c0,0-28.9,2.3-45.2,14.7c0,0-1.8,1.1-1.8-1.1
					C48.9,21.6,48,20.5,49.8,19.3z"/>
				<path id="Path_2918" class="st20" d="M49.8,23.8c0,0,24.4-14.7,46.1-13.5l1.8,2.3c0,0-30.7,2.3-47,14.7c0,0-2.7,2.3-2.7,0
					C48.1,25.8,48.7,24.5,49.8,23.8z"/>
			</g>
			<g id="Group_3747" transform="translate(75.535 7.373)">
				<path id="Path_2919" class="st20" d="M129.7,19.3c0,0-24.4-14.7-46.1-13.5V8c0,0,28.9,2.3,45.2,14.7c0,0,1.8,1.1,1.8-1.1
					C130.6,21.6,131.6,20.5,129.7,19.3z"/>
				<path id="Path_2920" class="st20" d="M129.7,23.8c0,0-24.4-14.7-46.1-13.5l-1.8,2.3c0,0,30.7,2.3,47,14.7c0,0,2.7,2.3,2.7,0
					C131.5,25.8,130.8,24.5,129.7,23.8z"/>
			</g>
			<ellipse id="Ellipse_146" class="st1" cx="149.7" cy="17.7" rx="10.4" ry="7.9"/>
			<ellipse id="Ellipse_147" class="st21" cx="149.7" cy="15.4" rx="10.4" ry="7.9"/>
			<g id="Group_3748" transform="translate(23.37 234.967)">
				<path id="Path_2921" class="st22" d="M29.1,370.6c0,0-7.3,20.9-1.5,45.8c0,0,3.3,13.7,14.6,19.1c0,0,11.4,7.2,20.8-4.5
					c0,0,2.6-5-3.6-6.8c0,0-22.6-6.8-25.3-50.8C34.1,373.5,32.3,362.2,29.1,370.6z"/>
				<path id="Path_2922" class="st23" d="M29.6,374.6c0,0-3.3,21.6,3.1,37.8c0,0,4.9,13.2,13.2,18.6c0,0,8.5,6.7,13.3-0.1
					c0,0,1.7-4.1-3.3-5.5c0,0-17.2-8.1-21.4-35.9c0,0-1.3-17.2-3-18.3c0,0-0.9-1.1-1.8,4.5"/>
			</g>
			<g id="Group_3749" transform="translate(101.468 234.967)">
				<path id="Path_2923" class="st22" d="M145.4,370.6c0,0,7.2,22.6,1.8,46.3c0,0-3,12.8-14.4,18.8c0,0-12.4,7.7-21.4-3.6
					c0,0-3.9-6.7,3.7-7.8c0,0,22.6-6.8,25.3-50.8C140.5,373.5,142.3,362.2,145.4,370.6z"/>
				<path id="Path_2924" class="st23" d="M145,374.6c0,0,3.6,21.1-3,37.4c0,0-5.6,13.3-12.9,19c0,0-7.4,6.1-14.5,0.1
					c0,0-3.2-4.5,4.2-5.7c0,0,18.3-10.4,21.6-36.2c0,0,1.2-18.1,2.8-18c0,0,0.9-1.1,1.8,4.5"/>
			</g>
			<g id="Group_3750" transform="translate(0 107.009)">
				<path id="Path_2925" class="st24" d="M0.1,198.4c0,0,4.5-26,29.8-31.6c0,0,9.6-3.3,12.9,7.4c2.7,6.2,1.2,14-3.4,18
					c0,0-15.4,13.5-25.3,15.8C14.1,208-1.3,214.8,0.1,198.4z"/>
				<path id="Path_2926" class="st15" d="M0.1,196.2c0,0,4.5-26,29.8-31.6c0,0,9.6-3.3,12.9,7.4c2.7,6.2,1.2,14-3.4,18
					c0,0-15.4,13.5-25.3,15.8C14.1,205.8-1.3,212.5,0.1,196.2z"/>
				<path id="Path_2927" class="st12" d="M6,202.4c0,0,14.5-20.3,28.9-24.8c0,0,6.3-3.4,7.2,2.3c0,0,1.8,6.8-12.7,13.5
					C29.5,193.4,6.9,208,6,202.4z"/>
				<path id="Path_2928" class="st1" d="M31.3,178.7c0,0-0.2,12.2-5.5,16.8c0,0,14.6-7.7,15.9-12.8
					C41.7,182.7,44.8,171.9,31.3,178.7z"/>
			</g>
			<g id="Group_3751" transform="translate(122.787 107.009)">
				<path id="Path_2929" class="st24" d="M177.1,198.4c0,0-4.5-26-29.8-31.6c0,0-9.6-3.3-12.9,7.4c-2.7,6.2-1.2,14,3.4,18
					c0,0,15.4,13.5,25.3,15.8C163.1,208,178.5,214.8,177.1,198.4z"/>
				<path id="Path_2930" class="st15" d="M177.1,196.2c0,0-4.5-26-29.8-31.6c0,0-9.6-3.3-12.9,7.4c-2.7,6.2-1.2,14,3.4,18
					c0,0,15.4,13.5,25.3,15.8C163.1,205.8,178.5,212.5,177.1,196.2z"/>
				<path id="Path_2931" class="st12" d="M171.3,202.4c0,0-14.5-20.3-28.9-24.8c0,0-6.3-3.4-7.2,2.3c0,0-1.8,6.8,12.7,13.5
					C147.8,193.4,170.3,208,171.3,202.4z"/>
				<path id="Path_2932" class="st1" d="M146,178.9c0,0-0.1,11.9,5.3,16.5c0,0-14.5-6.9-15.8-12.5
					C135.5,182.9,131.9,171.7,146,178.9z"/>
			</g>
		</g>
		<path class="st17" d="M367.4,243.4c0,0,31,5.4,47.1,18.3c12.2,9.8,20.9,22.9,28.4,38.3l6.3,14.7l-18.1,66.6
			c0,0-22.6-29.3-79.5-28.2C351.7,353.1,367.4,243.4,367.4,243.4z"/>
	</g>
</g>
</svg>
