<?xml version="1.0" encoding="utf-8"?>
<!-- Generator: Adobe Illustrator 24.2.3, SVG Export Plug-In . SVG Version: 6.00 Build 0)  -->
<svg version="1.1" id="Layer_1" xmlns="http://www.w3.org/2000/svg" xmlns:xlink="http://www.w3.org/1999/xlink" x="0px" y="0px"
	 viewBox="0 0 300 858.14" style="enable-background:new 0 0 300 858.14;" xml:space="preserve">
<style type="text/css">
	.st0{fill:#E29026;}
	.st1{fill:#F6B518;}
	.st2{fill:#1D1C1A;}
	.st3{fill:#3B3B37;}
	.st4{fill:#624427;}
	.st5{fill:#FFE4A8;}
	.st6{fill:#F26E21;}
	.st7{fill:#B11F24;}
	.st8{fill:#131029;}
	.st9{fill:#6CC6C6;}
	.st10{fill:#2A252C;}
	.st11{fill:#CA2027;}
	.st12{fill:none;stroke:#000000;stroke-width:1.0001;stroke-miterlimit:10.0014;}
	.st13{fill:none;stroke:#131029;stroke-width:1.0001;stroke-miterlimit:10.0014;}
	.st14{fill:#26262C;}
	.st15{fill:none;stroke:#000000;stroke-miterlimit:10;}
	.st16{fill:#333333;}
	.st17{fill:#010101;}
	.st18{fill:#323232;}
	.st19{fill:#CCCBCB;}
	.st20{fill:#989898;}
	.st21{fill:#313131;}
	.st22{fill:#0D0C0D;}
	.st23{fill:#D2D2D2;}
	.st24{fill:#59C1AE;}
	.st25{fill:#74C8BC;}
	.st26{fill:#33342E;}
	.st27{fill:#CA2026;}
	.st28{fill:#666667;}
	.st29{fill:#575858;}
	.st30{opacity:0.44;enable-background:new    ;}
	.st31{opacity:0.11;fill:#FFFFFF;enable-background:new    ;}
	.st32{opacity:0.24;enable-background:new    ;}
	.st33{fill:none;stroke:#0D0C0D;stroke-miterlimit:10;}
	.st34{fill:#F16422;}
	.st35{fill:#646565;}
	.st36{fill:#989898;stroke:#818282;stroke-miterlimit:10;}
	.st37{opacity:0.5;fill:#CCCBCB;enable-background:new    ;}
	.st38{clip-path:url(#SVGID_2_);}
	.st39{fill:#FFFFFF;}
	.st40{fill:#979998;}
	.st41{fill:#BFBEBE;}
	.st42{fill:none;stroke:#0D0C0D;stroke-width:2;stroke-miterlimit:10;}
	.st43{fill:#2A2A2A;}
	.st44{clip-path:url(#SVGID_4_);}
	.st45{fill:#CBCACA;}
	.st46{fill:#F16622;}
	.st47{fill:#CDCCCC;}
	.st48{fill:#3A3A3A;}
	.st49{fill:#676767;}
	.st50{fill:#F89C1C;}
	.st51{fill:#C07A2A;}
	.st52{fill:#FDC672;}
	.st53{fill:#FDC56F;}
	.st54{fill:#979797;}
	.st55{fill:url(#Path_3543_1_);}
	.st56{fill:url(#Path_3545_1_);}
	.st57{fill:url(#Path_3546_1_);}
	.st58{fill:url(#Path_3547_1_);}
	.st59{clip-path:url(#SVGID_6_);}
	.st60{fill:none;stroke:#0E0E0E;stroke-width:1.5;stroke-miterlimit:10;}
	.st61{fill:#0C0C0C;}
	.st62{clip-path:url(#SVGID_8_);}
</style>
<g id="Group_3919_1_" transform="translate(118.367 -237.346)">
	<g>
		<path id="Path_3308_1_" class="st0" d="M-78.93,296.31c-19.22,22.26-32.25,52.43-36.35,90.75h-0.04v0.35
			c-0.91,8.68-0.23,529.08-0.19,538.07c0.18,48.46,14.52,87.03,37.96,114.58L34.37,926.83l112.76,112.41
			c23.24-27.71,37.27-66.39,37.09-114.84l-1.27-538.41h-1.49c-4.38-38.28-17.66-68.36-37.03-90.49L33.17,408.04L-78.93,296.31z"/>
		<path id="Path_3309_1_" class="st0" d="M33.27,432.81l109.24-110.51c11.28,18.14,18.45,40.12,21.37,65.61l1.43,12.59l1.21,523.96
			c0.12,33.89-7.32,63.86-21.7,87.81L34.27,902.05l-109.74,111.02c-14.56-23.87-22.24-53.76-22.37-87.65
			c-0.05-14.87-0.67-519.75,0.12-536.42l0.03-0.14c2.72-25.52,9.72-47.55,20.88-65.75L33.27,432.81z"/>
		<g id="Group_3907_1_" transform="translate(-54.041 272.615)">
			<path id="Path_3310_1_" class="st1" d="M191.09,115.4l1.16,12.6l1.21,523.96c0.43,24.29-3.18,48.48-10.7,71.64l16.12,16.07
				c14.38-23.97,21.82-53.92,21.7-87.81l-1.21-523.96l-1.43-12.59c-2.92-25.49-10.09-47.46-21.37-65.61L180.7,65.74
				C186.22,81.81,189.71,98.49,191.09,115.4z"/>
			<path id="Path_3311_1_" class="st1" d="M-21.42,740.45l15.99-16.18c-7.7-23.1-11.49-47.27-11.24-71.57
				c-0.05-14.86-0.79-519.74-0.16-536.4v-0.16c1.26-16.91,4.63-33.61,10.03-49.73l-15.97-15.92
				c-11.15,18.21-18.15,40.23-20.88,65.75l-0.03,0.14c-0.8,16.67-0.18,521.55-0.12,536.42C-43.65,686.68-35.98,716.58-21.42,740.45z
				"/>
		</g>
		<path id="Path_3312_1_" class="st1" d="M32.57,248.86c-44.39,0.16-84.18,15.81-111.5,47.45l112.1,111.73L144.42,295.5
			C116.86,264.08,76.95,248.71,32.57,248.86z"/>
		<path id="Path_3313_1_" class="st2" d="M-78.6,611.96c-0.51-136.09,49.37-297.64,111.42-297.87
			c62.04-0.22,112.74,160.98,113.26,297.06c0.51,136.08-49.35,396.77-111.4,396.99S-78.09,748.06-78.6,611.96z"/>
		<path id="Path_3314_1_" class="st1" d="M-77.55,1040.05c27.57,32.42,67.77,49.56,112.53,49.4c44.76-0.17,84.82-17.6,112.15-50.21
			L34.38,926.83L-77.55,1040.05z"/>
		<path id="Path_3315_1_" class="st3" d="M32.81,312.53c61.7-0.22,79.67,43.68,83.89,80.54l1.15,10.17l1.21,521.39
			c0.24,63.15-31.28,100.96-84.31,101.15c-53.03,0.19-84.86-37.39-85.1-100.54c-0.12-32.4-0.56-508.25,0.05-533.15
			C-46.15,355.93-28.28,312.75,32.81,312.53z"/>
		<g id="Group_3908_1_" transform="translate(-29.554 268.48)">
			<path id="Path_3316_1_" class="st2" d="M92.61,753.01c5.64-1.82,11.03-4.3,16.06-7.38l-1.85-691.24
				c-5.08-2.85-10.49-5.1-16.12-6.7L92.61,753.01z"/>
			<path id="Path_3317_1_" class="st2" d="M135.94,716.01l-1.63-632.79c-4.07-7.84-9.56-14.89-16.2-20.81l1.79,674.75
				C126.44,731.06,131.86,723.91,135.94,716.01z"/>
			<path id="Path_3318_1_" class="st2" d="M57.3,44.19l1.94,712.91c1.69,0.06,3.32,0.21,5.07,0.21c3.69-0.03,7.38-0.25,11.04-0.66
				L73.41,44.52c-3.52-0.32-7.2-0.47-11.05-0.47C60.64,44.06,58.97,44.12,57.3,44.19z"/>
			<path id="Path_3319_1_" class="st2" d="M25.84,749.14c5.14,2.47,10.55,4.36,16.13,5.64L40.06,46.37
				c-5.54,1.18-10.94,2.94-16.09,5.25L25.84,749.14z"/>
			<path id="Path_3320_1_" class="st2" d="M-9.29,83.7l1.63,632.84c4.13,7.85,9.61,14.96,16.19,21.01L6.73,62.81
				C0.14,68.77-5.28,75.85-9.29,83.7z"/>
		</g>
		
			<rect id="Rectangle_20236_1_" x="-49.29" y="309.89" transform="matrix(1 -3.908631e-03 3.908631e-03 1 -1.3003 0.1311)" class="st4" width="164.34" height="45.7"/>
		
			<rect id="Rectangle_20237_1_" x="-70.38" y="898.71" transform="matrix(1 -3.908631e-03 3.908631e-03 1 -3.612 0.1413)" class="st4" width="209.46" height="50.94"/>
		
			<rect id="Rectangle_20238_3_" x="-88.24" y="500.78" transform="matrix(1 -3.615600e-03 3.615600e-03 1 -1.9025 0.1247)" class="st4" width="243.57" height="50.94"/>
		
			<rect id="Rectangle_20238_2_" x="-88.24" y="725.96" transform="matrix(1 -3.615600e-03 3.615600e-03 1 -2.7167 0.1262)" class="st4" width="243.57" height="50.94"/>
		<path id="Path_3321_1_" d="M8.34,1083.07l53.25-0.19l-6.14,13.99l-40.88,0.14L8.34,1083.07z"/>
		<path id="Path_3322_1_" d="M74.59,253.95c-13.73-3.42-27.85-5.13-42.02-5.08c-14.17,0.05-28.28,1.86-41.98,5.38l7.4,21.11
			l69.36-0.26L74.59,253.95z"/>
		
			<rect id="Rectangle_20239_1_" x="2.23" y="238.99" transform="matrix(1 -3.908631e-03 3.908631e-03 1 -0.9615 0.1291)" width="60.64" height="14.14"/>
		<g>
			<g>
				<g id="Group_3918_8_" transform="translate(-118.367 270.471)">
					<g id="Group_3915_8_" transform="translate(137.932 9.238)">
						<path id="Path_3329_8_" class="st5" d="M-120.41,176.2l61.11,27.38c15.56,6.99,24.9,20.94,20.85,31.17
							c-4.05,10.23-19.94,12.9-35.51,5.91l-61.11-27.39L-120.41,176.2z"/>
						<g id="Group_3914_8_" transform="translate(0 22.201)">
							<polygon id="Rectangle_20242_8_" class="st6" points="45.82,250.06 -37.04,209.02 -39.86,216.08 43.01,257.11 							"/>
						</g>
						<path id="Path_3330_8_" class="st6" d="M-43.1,232.68c4.05-10.25-5.3-24.21-20.86-31.19l4.65,2.09
							c15.56,6.99,24.9,20.94,20.85,31.17c-4.05,10.23-19.94,12.9-35.51,5.91l-4.67-2.08C-63.06,245.54-47.16,242.91-43.1,232.68z"
							/>
						<path id="Path_3331_8_" class="st6" d="M-127.88,195.1c0,0,5.6,2.43,13.9,6.38c8.26,4.02,19.39,9.11,30.34,14.64
							s21.93,10.98,30.16,15.1c8.17,4.24,13.63,7.06,13.63,7.06l2.79-7.06l-14.27-5.45c-8.52-3.38-19.87-7.89-31.22-12.41
							c-11.38-4.46-22.56-9.38-31.05-12.87c-8.44-3.54-14-6.11-14-6.11L-127.88,195.1z"/>
					</g>
				</g>
				<g id="Group_3918_7_" transform="translate(-118.367 270.471)">
					<g id="Group_3915_7_" transform="translate(137.932 9.238)">
						<path id="Path_3329_7_" class="st5" d="M144.55,176.73l-61.11,27.38c-15.56,6.99-24.9,20.94-20.85,31.17
							s19.94,12.9,35.51,5.91l61.11-27.39L144.55,176.73z"/>
						<g id="Group_3914_7_" transform="translate(0 22.201)">
							<polygon id="Rectangle_20242_7_" class="st6" points="-21.69,250.59 61.18,209.55 64,216.61 -18.87,257.64 							"/>
						</g>
						<path id="Path_3330_7_" class="st6" d="M67.24,233.21c-4.05-10.25,5.3-24.21,20.86-31.19l-4.65,2.09
							c-15.56,6.99-24.9,20.94-20.85,31.17c4.05,10.23,19.94,12.9,35.51,5.91l4.67-2.08C87.19,246.07,71.29,243.44,67.24,233.21z"/>
						<path id="Path_3331_7_" class="st6" d="M152.01,195.63c0,0-5.6,2.43-13.9,6.38c-8.26,4.02-19.39,9.11-30.34,14.64
							s-21.93,10.98-30.16,15.1c-8.17,4.24-13.63,7.06-13.63,7.06l-2.79-7.06l14.27-5.45c8.52-3.38,19.87-7.89,31.22-12.41
							c11.38-4.46,22.56-9.38,31.05-12.87c8.44-3.54,14-6.11,14-6.11L152.01,195.63z"/>
					</g>
				</g>
				
					<rect id="Rectangle_20245_7_" x="-6.59" y="505.7" transform="matrix(1 -3.512916e-03 3.512916e-03 1 -1.8337 -8.594282e-03)" width="6.45" height="32.54"/>
				
					<rect id="Rectangle_20245_6_" x="61.73" y="505.7" transform="matrix(1 -3.512916e-03 3.512916e-03 1 -1.8332 0.2314)" width="6.45" height="32.54"/>
			</g>
			<g>
				<g id="Group_3918_6_" transform="translate(-118.367 270.471)">
					<g id="Group_3915_6_" transform="translate(137.932 9.238)">
						<path id="Path_3329_6_" class="st5" d="M-120.41,542.42l61.11-27.38c15.56-6.99,24.9-20.94,20.85-31.17
							s-19.94-12.9-35.51-5.91l-61.11,27.39L-120.41,542.42z"/>
						<g id="Group_3914_6_" transform="translate(0 22.201)">
							<polygon id="Rectangle_20242_6_" class="st6" points="45.82,424.16 -37.04,465.19 -39.86,458.14 43.01,417.1 							"/>
						</g>
						<path id="Path_3330_6_" class="st6" d="M-43.1,485.94c4.05,10.25-5.3,24.21-20.86,31.19l4.65-2.09
							c15.56-6.99,24.9-20.94,20.85-31.17s-19.94-12.9-35.51-5.91l-4.67,2.08C-63.06,473.08-47.16,475.71-43.1,485.94z"/>
						<path id="Path_3331_6_" class="st6" d="M-127.88,523.52c0,0,5.6-2.43,13.9-6.38c8.26-4.02,19.39-9.11,30.34-14.64
							s21.93-10.98,30.16-15.1c8.17-4.24,13.63-7.06,13.63-7.06l2.79,7.06l-14.27,5.45c-8.52,3.38-19.87,7.89-31.22,12.41
							c-11.38,4.46-22.56,9.38-31.05,12.87c-8.44,3.54-14,6.11-14,6.11L-127.88,523.52z"/>
					</g>
				</g>
				<g id="Group_3918_5_" transform="translate(-118.367 270.471)">
					<g id="Group_3915_5_" transform="translate(137.932 9.238)">
						<path id="Path_3329_5_" class="st5" d="M144.55,541.89l-61.11-27.38c-15.56-6.99-24.9-20.94-20.85-31.17
							c4.05-10.23,19.94-12.9,35.51-5.91l61.11,27.39L144.55,541.89z"/>
						<g id="Group_3914_5_" transform="translate(0 22.201)">
							<polygon id="Rectangle_20242_5_" class="st6" points="-21.69,423.63 61.18,464.67 64,457.61 -18.87,416.58 							"/>
						</g>
						<path id="Path_3330_5_" class="st6" d="M67.24,485.41c-4.05,10.25,5.3,24.21,20.86,31.19l-4.65-2.09
							c-15.56-6.99-24.9-20.94-20.85-31.17c4.05-10.23,19.94-12.9,35.51-5.91l4.67,2.08C87.19,472.55,71.29,475.18,67.24,485.41z"/>
						<path id="Path_3331_5_" class="st6" d="M152.01,522.99c0,0-5.6-2.43-13.9-6.38c-8.26-4.02-19.39-9.11-30.34-14.64
							c-10.95-5.53-21.93-10.98-30.16-15.1c-8.17-4.24-13.63-7.06-13.63-7.06l-2.79,7.06l14.27,5.45
							c8.52,3.38,19.87,7.89,31.22,12.41c11.38,4.46,22.56,9.38,31.05,12.87c8.44,3.54,14,6.11,14,6.11L152.01,522.99z"/>
					</g>
				</g>
				
					<rect id="Rectangle_20245_5_" x="-19.63" y="752.84" transform="matrix(3.512916e-03 -1 1 3.512916e-03 -759.4128 750.0467)" width="32.54" height="6.45"/>
				
					<rect id="Rectangle_20245_4_" x="48.69" y="752.84" transform="matrix(3.512916e-03 -1 1 3.512916e-03 -691.328 818.3712)" width="32.54" height="6.45"/>
			</g>
		</g>
	</g>
</g>
</svg>
