<svg xmlns="http://www.w3.org/2000/svg" width="63.203" height="80" viewBox="0 0 63.203 80"><defs><style>.a{fill:#253031;}</style></defs><g transform="translate(281.402 139.374)"><path class="a" d="M-241.7-96.5a2.329,2.329,0,0,1-2.515,2.274,32.548,32.548,0,0,1-4.529-1.344c-1.753-.57-1.933-2.067-1.5-4.371,1.384,3.053,2.911,2.743,4.768,3.022a13.208,13.208,0,0,0,1.848.223c.372.037,1.461.121,1.933.2" transform="translate(-10.319 -13.143)"/><path class="a" d="M-230.427-96.593a2.329,2.329,0,0,0,2.515,2.274,32.449,32.449,0,0,0,4.529-1.344c1.752-.569,1.933-2.066,1.5-4.371-1.384,3.053-2.911,2.742-4.768,3.022a13.323,13.323,0,0,1-1.848.223c-.372.037-1.461.121-1.933.2" transform="translate(-16.992 -13.113)"/><g transform="translate(-264.833 -75.451)"><path class="a" d="M-249.4-42.723l.408,2.813a2.757,2.757,0,0,0-1.919-.75,2.883,2.883,0,0,0-2.123.858,2.741,2.741,0,0,0-.822,2.015v.12a2.7,2.7,0,0,0,.984,2,2.808,2.808,0,0,0,1.865.7,1.137,1.137,0,0,0,.2-.012,3.008,3.008,0,0,0,1.841-.749l-.378,2.717a4.016,4.016,0,0,1-1.277.354,5.489,5.489,0,0,1-.63.036,5.2,5.2,0,0,1-1.643-.258,5.094,5.094,0,0,1-1.919-1.091,5.05,5.05,0,0,1-1.278-1.733,4.8,4.8,0,0,1-.456-2.076,5.309,5.309,0,0,1,.372-1.943,5.259,5.259,0,0,1,1.032-1.655,5.121,5.121,0,0,1,1.559-1.158,5.112,5.112,0,0,1,1.931-.474h.528A5.516,5.516,0,0,1-249.4-42.723Z" transform="translate(256.549 43.328)"/><path class="a" d="M-237.9-37.084l2.741,3.749-2.621.81-3.017-4.631v4.373l-2.627.15V-42.7h3.073q3.878,0,4.058,2.891a1.628,1.628,0,0,1,.013.234A2.754,2.754,0,0,1-237.9-37.084Zm-2.9-1.031h.575a1.263,1.263,0,0,0,1.032-.414,1.306,1.306,0,0,0,.33-.876v-.072a1.226,1.226,0,0,0-1.41-1.29h-.527Z" transform="translate(252.173 43.226)"/><path class="a" d="M-228.864-33.071l2.7-10.419L-223-37l3.293-6.466,2.621,10.371-2.543.222-.827-4.4L-223-32.285l-2.465-5.039-.888,4.535Z" transform="translate(247.321 43.49)"/></g><g transform="translate(-281.402 -139.374)"><path class="a" d="M-218.2-114.109c-10.768-8.468-21.349-16.911-31.97-25.265-10.441,8.371-31.267,25.207-31.233,25.265h0l15.893,27.529h2.677l-14.555-25.211h12.5c-.008,1.951-.017,3.864.013,5.775.1,6.513,3.3,11.021,9.043,13.881a2.749,2.749,0,0,1,1.066.979c1.157,1.9,1.132,1.917,2.253,3.841.318.545,1.81.519,2.345.472.437-.038,2.079.155,2.336-.285,1.031-1.769,1.053-1.758,2.041-3.551a2.761,2.761,0,0,1,1.555-1.328c5.027-1.909,9.669-7.549,9.449-13.944-.067-1.944-.033-3.892-.017-5.839h12.594l-14.555,25.211h2.676l15.894-27.529Zm-39.784-14.072a9.7,9.7,0,0,1,3.811-4.771c1.354-1.009,2.623-2.132,4.021-3.279l24.67,19.337c-.022.065-.045.129-.067.194h-.755c-6.125,0-12.25.06-18.374-.023a21.954,21.954,0,0,1-10.309-2.452,6.435,6.435,0,0,1-3.581-4.727A8.98,8.98,0,0,1-257.983-128.181Zm11.023,34.137a.8.8,0,0,1-.621.367c-1.8-.029-3.592-.085-5.385-.181a.906.906,0,0,1-.66-.46c-.677-1.734-1.3-3.488-1.945-5.237,3.6-2.425,7.156-2.329,10.8,0C-245.495-97.715-246.206-95.871-246.96-94.045Zm9.442-9.84a11.633,11.633,0,0,1-5.769,8.666,1.176,1.176,0,0,1-.24.1c-.018.006-.047-.019-.149-.065.723-1.859,1.449-3.723,2.215-5.691a23.86,23.86,0,0,1-3.085-1.563c-2.55-1.779-5.41-1.445-8.242-1.405a.629.629,0,0,0-.262.037c-1.33.669-3.865,2.155-5.4,2.852,0,0,1.233,4.975.626,5.283-4.377-4.867-5.358-9.489-4.641-16.121H-237.3A72.764,72.764,0,0,1-237.518-103.885Z" transform="translate(281.402 139.374)"/><path class="a" d="M-235.319-21.658l2.638-4.569h-5.276Z" transform="translate(266.92 101.658)"/></g><g transform="translate(-273.119 -86.578)"><path class="a" d="M-261.857-58.264l-1.457,1.757a.889.889,0,0,0-.186-.258,2.2,2.2,0,0,0-.575-.353A2.6,2.6,0,0,0-265-57.3h-.084a1.111,1.111,0,0,0-.569.15.664.664,0,0,0-.329.5.312.312,0,0,0-.012.1.566.566,0,0,0,.233.48,2.011,2.011,0,0,0,.725.342c.168.052.32.1.455.135s.274.079.414.123a3.311,3.311,0,0,1,1.816,1.146,3.661,3.661,0,0,1,.569,1.979v.144a2.812,2.812,0,0,1-.408,1.488,3.106,3.106,0,0,1-1.265,1.127,4.626,4.626,0,0,1-1.9.444h-.078a4.654,4.654,0,0,1-1.63-.282,6.248,6.248,0,0,1-1.3-.611q-.5-.342-.617-.444l1.534-1.842a3.859,3.859,0,0,0,.725.564,1.758,1.758,0,0,0,.995.282,1.879,1.879,0,0,0,.246-.012,2.031,2.031,0,0,0,.821-.21.705.705,0,0,0,.311-.624v-.024a.629.629,0,0,0-.371-.557,6.331,6.331,0,0,0-1.139-.426,5.132,5.132,0,0,1-1.007-.348,4.721,4.721,0,0,1-.827-.575,2.569,2.569,0,0,1-.623-.858,2.871,2.871,0,0,1-.258-1.29v-.078a2.976,2.976,0,0,1,.467-1.559,3.2,3.2,0,0,1,1.2-1.116,3.563,3.563,0,0,1,1.619-.419h.071A4.535,4.535,0,0,1-261.857-58.264Z" transform="translate(268.977 59.979)"/><path class="a" d="M-256.183-49.3V-59.19h5.9l.5,2.189h-3.857v1.559h2.777v2.189h-2.8v1.763h4.157l-.653,2.189Z" transform="translate(264.712 59.85)"/><path class="a" d="M-244.369-49.407V-60.18l6.244,5.662v-5l2.5-.258v10.851l-6.2-5.554v4.852Z" transform="translate(260.774 60.18)"/><path class="a" d="M-222.073-58.264l-1.456,1.757a.9.9,0,0,0-.186-.258,2.211,2.211,0,0,0-.575-.353,2.6,2.6,0,0,0-.923-.186h-.084a1.109,1.109,0,0,0-.569.15.665.665,0,0,0-.33.5.313.313,0,0,0-.012.1.565.565,0,0,0,.234.48,2,2,0,0,0,.725.342c.168.052.32.1.456.135s.273.079.413.123a3.305,3.305,0,0,1,1.816,1.146A3.66,3.66,0,0,1-222-52.35v.144a2.817,2.817,0,0,1-.407,1.488,3.114,3.114,0,0,1-1.265,1.127,4.627,4.627,0,0,1-1.9.444h-.078a4.654,4.654,0,0,1-1.63-.282,6.263,6.263,0,0,1-1.3-.611q-.5-.342-.617-.444l1.535-1.842a3.85,3.85,0,0,0,.725.564,1.76,1.76,0,0,0,1,.282,1.866,1.866,0,0,0,.245-.012,2.029,2.029,0,0,0,.821-.21.7.7,0,0,0,.311-.624v-.024a.627.627,0,0,0-.371-.557,6.327,6.327,0,0,0-1.139-.426,5.15,5.15,0,0,1-1.007-.348,4.693,4.693,0,0,1-.827-.575,2.572,2.572,0,0,1-.623-.858,2.871,2.871,0,0,1-.258-1.29v-.078a2.976,2.976,0,0,1,.467-1.559,3.2,3.2,0,0,1,1.2-1.116,3.566,3.566,0,0,1,1.619-.419h.072A4.533,4.533,0,0,1-222.073-58.264Z" transform="translate(255.716 59.979)"/><path class="a" d="M-216.4-49.3V-59.19h5.9L-210-57h-3.857v1.559h2.777v2.189h-2.8v1.763h4.157l-.654,2.189Z" transform="translate(251.451 59.85)"/><path class="a" d="M-203.586-49.23V-59.319l2.531-.258v10.149Z" transform="translate(247.18 59.979)"/></g></g></svg>