<?xml version="1.0" encoding="utf-8"?>
<!-- Generator: Adobe Illustrator 24.2.3, SVG Export Plug-In . SVG Version: 6.00 Build 0)  -->
<svg version="1.1" id="Layer_1" xmlns="http://www.w3.org/2000/svg" xmlns:xlink="http://www.w3.org/1999/xlink" x="0px" y="0px"
	 viewBox="0 0 300 214.29" style="enable-background:new 0 0 300 214.29;" xml:space="preserve">
<style type="text/css">
	.st0{fill:url(#SVGID_1_);}
	.st1{fill:#C6C6C6;}
	.st2{fill:url(#SVGID_2_);}
	.st3{fill:#BFBEBE;}
	.st4{fill:url(#Rectangle_20486_1_);}
	.st5{fill:#AEAEAF;}
	.st6{fill:url(#Rectangle_20488_1_);}
	.st7{fill:#34383B;}
	.st8{clip-path:url(#SVGID_4_);}
	.st9{fill:#DAD8D8;}
	.st10{fill:#9C9C9C;}
	.st11{fill:#EBEAEA;}
	.st12{fill:#A4A4A4;}
	.st13{fill:#3E3935;}
	.st14{enable-background:new    ;}
	.st15{fill:#5AB947;}
	.st16{fill:none;}
	.st17{opacity:0.54;enable-background:new    ;}
	.st18{fill:url(#SVGID_5_);}
	.st19{fill:#B4B4B5;}
	.st20{fill:url(#SVGID_6_);}
	.st21{fill:url(#SVGID_7_);}
	.st22{fill:url(#SVGID_8_);}
	.st23{fill:url(#SVGID_9_);}
	.st24{fill:url(#SVGID_10_);}
	.st25{fill:url(#SVGID_11_);}
</style>
<linearGradient id="SVGID_1_" gradientUnits="userSpaceOnUse" x1="-474.6133" y1="491.6128" x2="-473.6455" y2="491.6128" gradientTransform="matrix(310.01 0 0 230.279 147134.8594 -113100.9531)">
	<stop  offset="0" style="stop-color:#C2C5C6"/>
	<stop  offset="0.928" style="stop-color:#D5D6D5"/>
</linearGradient>
<path class="st0" d="M9.68,0h280.64c5.34,0,9.68,4.34,9.68,9.7v194.9c0,5.36-4.33,9.7-9.68,9.7H9.68c-5.34,0-9.68-4.34-9.68-9.7V9.7
	C0,4.34,4.33,0,9.68,0z"/>
<g>
	<path class="st1" d="M290.32,2.97c3.72,0,6.74,3.02,6.74,6.73v194.9c0,3.71-3.02,6.73-6.74,6.73H8.74c-3.72,0-6.74-3.02-6.74-6.73
		V9.7c0-3.71,3.02-6.73,6.74-6.73L290.32,2.97 M290.32,0.97H8.74C3.91,0.97,0,4.88,0,9.7v194.9c0,4.82,3.91,8.73,8.74,8.73h281.58
		c4.83,0,8.74-3.91,8.74-8.73V9.7C299.05,4.88,295.14,0.97,290.32,0.97L290.32,0.97z"/>
</g>
<g id="Rectangle_20485">
	
		<linearGradient id="SVGID_2_" gradientUnits="userSpaceOnUse" x1="-473.8852" y1="505.427" x2="-473.8852" y2="506.3967" gradientTransform="matrix(256.543 0 0 51.121 121720.125 -25818.3828)">
		<stop  offset="0" style="stop-color:#DDDDDC"/>
		<stop  offset="1" style="stop-color:#A4A4A4"/>
	</linearGradient>
	<path class="st2" d="M53.11,19.55h190.2c16.03,0,29.03,13.02,29.03,29.09v10.78c0,5.36-4.33,9.7-9.68,9.7H33.75
		c-5.34,0-9.68-4.34-9.68-9.7V48.65C24.08,32.58,37.08,19.55,53.11,19.55z"/>
	<path class="st3" d="M262.66,69.62H33.75c-5.61,0-10.18-4.58-10.18-10.2V48.65c0.01-16.32,13.26-29.6,29.54-29.6h190.2
		c16.28,0,29.53,13.27,29.53,29.59v10.78C272.84,65.04,268.27,69.62,262.66,69.62z M53.11,20.05c-15.73,0-28.53,12.83-28.54,28.6
		v10.77c0,5.07,4.12,9.2,9.18,9.2h228.91c5.06,0,9.18-4.13,9.18-9.2V48.64c0-15.76-12.8-28.59-28.53-28.59H53.11z"/>
</g>
<linearGradient id="Rectangle_20486_1_" gradientUnits="userSpaceOnUse" x1="-473.3925" y1="499.9702" x2="-474.3786" y2="499.9702" gradientTransform="matrix(256.543 0 0 74.571 121719.1875 -37121.8594)">
	<stop  offset="0" style="stop-color:#BCBDBF"/>
	<stop  offset="0.134" style="stop-color:#929497"/>
	<stop  offset="0.514" style="stop-color:#FFFFFF"/>
	<stop  offset="1" style="stop-color:#929497"/>
</linearGradient>
<path id="Rectangle_20486" class="st4" d="M32.85,125.26h228.9c5.34,0,9.68,4.34,9.68,9.7v33.52c0,16.07-13,29.09-29.03,29.09H52.2
	c-16.03,0-29.03-13.02-29.03-29.09v-33.52C23.17,129.6,27.5,125.26,32.85,125.26z"/>
<g id="Group_4387" transform="translate(334 749.264)">
	<path id="Path_3941" class="st5" d="M-333.95-648.38l300.04-0.07v1.36l-300.04,0.07V-648.38z"/>
</g>
<linearGradient id="Rectangle_20488_1_" gradientUnits="userSpaceOnUse" x1="-474.3065" y1="501.6628" x2="-473.3387" y2="501.6415" gradientTransform="matrix(246.225 0 0 65.66 116815.0469 -32777.1289)">
	<stop  offset="0" style="stop-color:#5A5B5B"/>
	<stop  offset="0.107" style="stop-color:#929497"/>
	<stop  offset="0.825" style="stop-color:#FFFFFF"/>
	<stop  offset="1" style="stop-color:#929497"/>
</linearGradient>
<path id="Rectangle_20488" class="st6" d="M37.84,129.58h218.92c5.34,0,9.68,4.34,9.68,9.7v24.88c0,16.07-13,29.09-29.03,29.09l0,0
	H57.19c-16.03,0-29.03-13.02-29.03-29.09v-24.88C28.16,133.92,32.49,129.58,37.84,129.58z"/>
<path id="Rectangle_20489" class="st7" d="M47.62,133.33h199.36c7.74,0,14.01,6.29,14.01,14.04l0,0c0,23.27-18.82,42.13-42.04,42.13
	l0,0H75.65c-23.22,0-42.04-18.86-42.04-42.13l0,0l0,0C33.61,139.62,39.88,133.33,47.62,133.33L47.62,133.33z"/>
<g>
	<defs>
		<path id="SVGID_3_" d="M43.28,133.34h208.03c5.34,0,9.68,4.34,9.68,9.7v17.38c0,16.07-13,29.09-29.03,29.09H62.64
			c-16.03,0-29.03-13.02-29.03-29.09v-17.38C33.6,137.68,37.94,133.34,43.28,133.34z"/>
	</defs>
	<clipPath id="SVGID_4_">
		<use xlink:href="#SVGID_3_"  style="overflow:visible;"/>
	</clipPath>
	<g id="Group_4388" transform="translate(0)" class="st8">
		<rect id="Rectangle_20490" x="26.35" y="119.69" class="st9" width="59.91" height="76.41"/>
		<rect id="Rectangle_20491" x="239.2" y="118.33" class="st9" width="48.11" height="84.59"/>
	</g>
</g>
<path id="Rectangle_20505" class="st10" d="M114.3,26.83h16.07c3.21,0,5.81,2.6,5.81,5.82v8.83c0,3.21-2.6,5.82-5.81,5.82H114.3
	c-3.21,0-5.81-2.6-5.81-5.82v-8.83C108.5,29.43,111.1,26.83,114.3,26.83z"/>
<path class="st11" d="M148.44,27.05L148.44,27.05c3.13,0,5.67,2.55,5.67,5.69v9.1c0,3.14-2.54,5.69-5.67,5.69l0,0
	c-3.13,0-5.67-2.55-5.67-5.69v-9.1C142.76,29.6,145.3,27.05,148.44,27.05z"/>
<path class="st12" d="M148.44,48.03c-3.4,0-6.17-2.78-6.17-6.19v-9.1c-0.01-1.65,0.63-3.21,1.8-4.38c1.17-1.17,2.72-1.81,4.37-1.81
	c3.4,0,6.17,2.78,6.17,6.19v9.1C154.61,45.26,151.84,48.03,148.44,48.03z M148.44,27.55c-1.38,0-2.68,0.54-3.66,1.52
	c-0.98,0.98-1.51,2.28-1.51,3.67v9.1c0,2.86,2.32,5.19,5.17,5.19c2.85,0,5.17-2.33,5.17-5.19v-9.1
	C153.61,29.88,151.29,27.55,148.44,27.55z"/>
<path id="Rectangle_20507" class="st13" d="M117.03,28.84h6.09c3.21,0,5.81,2.6,5.81,5.82v4.8c0,3.21-2.6,5.82-5.81,5.82h-6.09
	c-3.21,0-5.81-2.6-5.81-5.82v-4.8C111.22,31.45,113.82,28.84,117.03,28.84z"/>
<g class="st14">
	<path class="st15" d="M118.15,33.92h-2.16l-0.22,1.46c0.13-0.02,0.25-0.03,0.46-0.03c0.44,0,0.87,0.1,1.22,0.31
		c0.44,0.25,0.81,0.74,0.81,1.46c0,1.11-0.88,1.94-2.11,1.94c-0.62,0-1.14-0.17-1.41-0.35l0.19-0.58c0.24,0.14,0.7,0.31,1.21,0.31
		c0.72,0,1.34-0.47,1.34-1.23c-0.01-0.73-0.5-1.26-1.63-1.26c-0.32,0-0.58,0.04-0.78,0.06l0.37-2.72h2.71V33.92z"/>
	<path class="st15" d="M123,36.05c0,1.93-0.71,2.99-1.97,2.99c-1.11,0-1.86-1.04-1.87-2.92c0-1.9,0.82-2.95,1.97-2.95
		C122.32,33.18,123,34.24,123,36.05z M119.93,36.14c0,1.48,0.45,2.31,1.15,2.31c0.78,0,1.16-0.92,1.16-2.37
		c0-1.4-0.36-2.31-1.15-2.31C120.41,33.77,119.93,34.59,119.93,36.14z"/>
</g>
<g class="st14">
	<path class="st10" d="M145.72,32.49h1.96v-1.97h0.91v1.97h1.96v0.91h-1.96v1.97h-0.91V33.4h-1.96V32.49z"/>
</g>
<g class="st14">
	<path class="st10" d="M146.83,41.9v-0.84h2.88v0.84H146.83z"/>
</g>
<ellipse id="Ellipse_309" class="st15" cx="167.95" cy="28.87" rx="1.82" ry="1.82"/>
<ellipse id="Ellipse_310" class="st10" cx="167.95" cy="36.04" rx="1.82" ry="1.82"/>
<ellipse id="Ellipse_311" class="st10" cx="167.95" cy="43.2" rx="1.82" ry="1.82"/>
<ellipse id="Ellipse_312" class="st10" cx="97.6" cy="28.87" rx="1.82" ry="1.82"/>
<ellipse id="Ellipse_313" class="st10" cx="97.6" cy="36.04" rx="1.82" ry="1.82"/>
<ellipse id="Ellipse_314" class="st10" cx="97.6" cy="43.2" rx="1.82" ry="1.82"/>
<path class="st10" d="M226.5,28.7h-3.56v-1h3.56V28.7z M217.94,28.7h-5v-1h5V28.7z M207.94,28.7h-5v-1h5V28.7z M197.94,28.7h-5v-1h5
	V28.7z M187.94,28.7h-5v-1h5V28.7z M177.94,28.7h-5v-1h5V28.7z"/>
<path class="st10" d="M226.5,36.2h-3.56v-1h3.56V36.2z M217.94,36.2h-5v-1h5V36.2z M207.94,36.2h-5v-1h5V36.2z M197.94,36.2h-5v-1h5
	V36.2z M187.94,36.2h-5v-1h5V36.2z M177.94,36.2h-5v-1h5V36.2z"/>
<path class="st10" d="M226.5,43.48h-3.56v-1h3.56V43.48z M217.94,43.48h-5v-1h5V43.48z M207.94,43.48h-5v-1h5V43.48z M197.94,43.48
	h-5v-1h5V43.48z M187.94,43.48h-5v-1h5V43.48z M177.94,43.48h-5v-1h5V43.48z"/>
<path class="st10" d="M89.94,28.7h-5v-1h5V28.7z M79.94,28.7h-5v-1h5V28.7z M69.94,28.7h-5v-1h5V28.7z M59.94,28.7h-5v-1h5V28.7z"/>
<path class="st10" d="M89.94,36.2h-5v-1h5V36.2z M79.94,36.2h-5v-1h5V36.2z M69.94,36.2h-5v-1h5V36.2z M59.94,36.2h-5v-1h5V36.2z"/>
<path class="st10" d="M89.94,43.48h-5v-1h5V43.48z M79.94,43.48h-5v-1h5V43.48z M69.94,43.48h-5v-1h5V43.48z M59.94,43.48h-5v-1h5
	V43.48z"/>
<ellipse class="st11" cx="77.63" cy="58.67" rx="6.13" ry="6.14"/>
<path class="st12" d="M77.63,65.31c-3.66,0-6.63-2.98-6.63-6.64s2.97-6.64,6.63-6.64s6.63,2.98,6.63,6.64S81.29,65.31,77.63,65.31z
	 M77.63,53.03c-3.1,0-5.63,2.53-5.63,5.64s2.53,5.64,5.63,5.64s5.63-2.53,5.63-5.64S80.73,53.03,77.63,53.03z"/>
<ellipse class="st11" cx="99.33" cy="58.67" rx="6.13" ry="6.14"/>
<path class="st12" d="M99.33,65.31c-3.66,0-6.63-2.98-6.63-6.64s2.97-6.64,6.63-6.64s6.63,2.98,6.63,6.64S102.99,65.31,99.33,65.31z
	 M99.33,53.03c-3.1,0-5.63,2.53-5.63,5.64s2.53,5.64,5.63,5.64s5.63-2.53,5.63-5.64S102.43,53.03,99.33,53.03z"/>
<ellipse class="st11" cx="121.02" cy="58.67" rx="6.13" ry="6.14"/>
<path class="st12" d="M121.02,65.31c-3.66,0-6.63-2.98-6.63-6.64s2.97-6.64,6.63-6.64s6.63,2.98,6.63,6.64
	S124.68,65.31,121.02,65.31z M121.02,53.03c-3.1,0-5.63,2.53-5.63,5.64s2.53,5.64,5.63,5.64s5.63-2.53,5.63-5.64
	S124.12,53.03,121.02,53.03z"/>
<ellipse class="st11" cx="142.72" cy="58.67" rx="6.13" ry="6.14"/>
<path class="st12" d="M142.72,65.31c-3.66,0-6.63-2.98-6.63-6.64s2.97-6.64,6.63-6.64s6.63,2.98,6.63,6.64
	S146.38,65.31,142.72,65.31z M142.72,53.03c-3.1,0-5.63,2.53-5.63,5.64s2.53,5.64,5.63,5.64s5.63-2.53,5.63-5.64
	S145.82,53.03,142.72,53.03z"/>
<ellipse class="st11" cx="164.41" cy="58.67" rx="6.13" ry="6.14"/>
<path class="st12" d="M164.41,65.31c-3.66,0-6.63-2.98-6.63-6.64s2.97-6.64,6.63-6.64s6.63,2.98,6.63,6.64
	S168.07,65.31,164.41,65.31z M164.41,53.03c-3.1,0-5.63,2.53-5.63,5.64s2.53,5.64,5.63,5.64s5.63-2.53,5.63-5.64
	S167.51,53.03,164.41,53.03z"/>
<ellipse class="st11" cx="186.1" cy="58.67" rx="6.13" ry="6.14"/>
<path class="st12" d="M186.1,65.31c-3.66,0-6.63-2.98-6.63-6.64s2.97-6.64,6.63-6.64c3.66,0,6.63,2.98,6.63,6.64
	S189.76,65.31,186.1,65.31z M186.1,53.03c-3.1,0-5.63,2.53-5.63,5.64s2.53,5.64,5.63,5.64s5.63-2.53,5.63-5.64
	S189.2,53.03,186.1,53.03z"/>
<path class="st16" d="M43.28,133.41h208.03c5.34,0,9.68,4.34,9.68,9.7v17.38c0,16.07-13,29.09-29.03,29.09H62.63
	c-16.03,0-29.03-13.02-29.03-29.09v-17.38C33.6,137.75,37.93,133.41,43.28,133.41z"/>
<g id="Mask_Group_7" transform="translate(-1225.761 -292.572)">
	<g id="Group_4394" transform="translate(1225.761 292.572)">
		<g id="Union_19" class="st17">
			
				<linearGradient id="SVGID_5_" gradientUnits="userSpaceOnUse" x1="-472.8575" y1="502.7404" x2="-472.8575" y2="503.6969" gradientTransform="matrix(148.6758 0 0 59.0938 70451.3438 -29575.5137)">
				<stop  offset="0" style="stop-color:#B7B7B7"/>
				<stop  offset="0.406" style="stop-color:#F3F4F5"/>
				<stop  offset="1" style="stop-color:#959595"/>
			</linearGradient>
			<path class="st18" d="M218.09,189.85v-56.39h2.72v56.39H218.09z M189.5,189.85v-56.43h2.72v56.43H189.5z M164.08,189.85v-56.41
				h2.72v56.41H164.08z M138.67,189.85v-56.43h2.72v56.43H138.67z M106.9,189.85v-56.52h2.73v56.52H106.9z M76.94,189.85v-56.52
				h2.72v56.52H76.94z"/>
			<path class="st19" d="M220.91,189.95h-2.92v-56.58h2.92V189.95z M218.19,189.75h2.52v-56.19h-2.52V189.75z M192.32,189.95h-2.92
				v-56.63h2.92V189.95z M189.6,189.75h2.52v-56.23h-2.52V189.75z M166.9,189.95h-2.92v-56.61h2.92V189.95z M164.18,189.75h2.52
				v-56.21h-2.52V189.75z M141.49,189.95h-2.92v-56.63h2.92V189.95z M138.77,189.75h2.52v-56.23h-2.52V189.75z M109.73,189.95h-2.93
				v-56.72h2.93V189.95z M107,189.75h2.53v-56.32H107V189.75z M79.76,189.95h-2.92v-56.71h2.92V189.95z M77.04,189.75h2.52v-56.32
				h-2.52V189.75z"/>
		</g>
		<g id="Rectangle_20514">
			
				<linearGradient id="SVGID_6_" gradientUnits="userSpaceOnUse" x1="-473.8609" y1="815.6375" x2="-473.8609" y2="816.6077" gradientTransform="matrix(252.239 0 0 2.814 119673.5078 -2140.218)">
				<stop  offset="0" style="stop-color:#B7B7B7"/>
				<stop  offset="0.406" style="stop-color:#F3F4F5"/>
				<stop  offset="1" style="stop-color:#959595"/>
			</linearGradient>
			<rect x="33.71" y="154.98" class="st20" width="227.19" height="2.73"/>
			<path class="st19" d="M261,157.81H33.61v-2.93H261V157.81z M33.81,157.61H260.8v-2.53H33.81V157.61z"/>
		</g>
		<g id="Rectangle_20515">
			
				<linearGradient id="SVGID_7_" gradientUnits="userSpaceOnUse" x1="-473.8609" y1="815.7368" x2="-473.8609" y2="816.7069" gradientTransform="matrix(252.239 0 0 2.814 119673.5078 -2149.4121)">
				<stop  offset="0" style="stop-color:#B7B7B7"/>
				<stop  offset="0.406" style="stop-color:#F3F4F5"/>
				<stop  offset="1" style="stop-color:#959595"/>
			</linearGradient>
			<rect x="33.71" y="146.07" class="st21" width="227.19" height="2.73"/>
			<path class="st19" d="M261,148.9H33.61v-2.93H261V148.9z M33.81,148.7H260.8v-2.53H33.81V148.7z"/>
		</g>
		<g id="Rectangle_20516">
			
				<linearGradient id="SVGID_8_" gradientUnits="userSpaceOnUse" x1="-473.861" y1="815.8352" x2="-473.861" y2="816.8054" gradientTransform="matrix(252.239 0 0 2.814 119673.5078 -2158.603)">
				<stop  offset="0" style="stop-color:#B7B7B7"/>
				<stop  offset="0.406" style="stop-color:#F3F4F5"/>
				<stop  offset="1" style="stop-color:#959595"/>
			</linearGradient>
			<path class="st22" d="M35.72,137.16h223.24c0,0,0.67,1.04,0.86,1.42c0.16,0.31,0.59,1.31,0.59,1.31H34.18
				c0,0,0.56-1.25,0.77-1.63C35.12,137.96,35.72,137.16,35.72,137.16z"/>
			<path class="st19" d="M260.56,139.99H34.02l0.06-0.14c0.02-0.05,0.56-1.25,0.78-1.64c0.17-0.3,0.75-1.08,0.78-1.11l0.03-0.04
				h223.35l0.03,0.05c0.03,0.04,0.67,1.05,0.86,1.42c0.16,0.31,0.57,1.28,0.59,1.32L260.56,139.99z M34.33,139.79h225.92
				c-0.12-0.29-0.4-0.93-0.52-1.17c-0.17-0.32-0.69-1.16-0.82-1.36H35.77c-0.12,0.17-0.59,0.8-0.73,1.05
				C34.87,138.61,34.48,139.45,34.33,139.79z"/>
		</g>
		<g id="Rectangle_20517">
			
				<linearGradient id="SVGID_9_" gradientUnits="userSpaceOnUse" x1="-473.8609" y1="815.5392" x2="-473.8609" y2="816.5093" gradientTransform="matrix(252.239 0 0 2.814 119673.5078 -2131.0261)">
				<stop  offset="0" style="stop-color:#B7B7B7"/>
				<stop  offset="0.406" style="stop-color:#F3F4F5"/>
				<stop  offset="1" style="stop-color:#959595"/>
			</linearGradient>
			<path class="st23" d="M33.92,163.9H260.7l-0.41,2.73H34.37c0,0-0.17-0.94-0.22-1.23C34.08,165.01,33.92,163.9,33.92,163.9z"/>
			<path class="st19" d="M260.37,166.73H34.28l-0.01-0.08c0,0-0.17-0.94-0.22-1.23c-0.07-0.38-0.22-1.49-0.22-1.5l-0.02-0.11h227
				L260.37,166.73z M34.45,166.53H260.2l0.38-2.53H34.04c0.04,0.29,0.15,1.07,0.2,1.38C34.29,165.62,34.41,166.3,34.45,166.53z"/>
		</g>
		<g id="Rectangle_20518">
			
				<linearGradient id="SVGID_10_" gradientUnits="userSpaceOnUse" x1="-473.8609" y1="815.4397" x2="-473.8609" y2="816.4099" gradientTransform="matrix(252.239 0 0 2.814 119673.5078 -2121.8333)">
				<stop  offset="0" style="stop-color:#B7B7B7"/>
				<stop  offset="0.406" style="stop-color:#F3F4F5"/>
				<stop  offset="1" style="stop-color:#959595"/>
			</linearGradient>
			<path class="st24" d="M36.49,172.81h221.65c0,0-0.47,0.98-0.65,1.3c-0.2,0.36-0.83,1.43-0.83,1.43H37.98c0,0-0.57-0.94-0.75-1.27
				C37.03,173.92,36.49,172.81,36.49,172.81z"/>
			<path class="st19" d="M256.72,175.64H37.92l-0.03-0.05c-0.02-0.04-0.57-0.95-0.75-1.27c-0.2-0.36-0.72-1.42-0.74-1.47l-0.07-0.14
				H258.3l-0.07,0.14c-0.02,0.04-0.48,0.98-0.65,1.3c-0.2,0.36-0.83,1.43-0.84,1.44L256.72,175.64z M38.03,175.44h218.57
				c0.13-0.21,0.63-1.07,0.8-1.38c0.13-0.24,0.44-0.86,0.57-1.15H36.65c0.15,0.31,0.51,1.04,0.66,1.32
				C37.47,174.5,37.91,175.24,38.03,175.44z"/>
		</g>
		<g id="Rectangle_20519">
			
				<linearGradient id="SVGID_11_" gradientUnits="userSpaceOnUse" x1="-473.8607" y1="815.3294" x2="-473.8607" y2="816.311" gradientTransform="matrix(252.239 0 0 2.814 119673.5078 -2112.6411)">
				<stop  offset="0" style="stop-color:#B7B7B7"/>
				<stop  offset="0.406" style="stop-color:#F3F4F5"/>
				<stop  offset="1" style="stop-color:#959595"/>
			</linearGradient>
			<path class="st25" d="M43.01,181.7l208.68,0.03c0,0-1.18,1.02-1.61,1.36c-0.44,0.35-1.89,1.37-1.89,1.37H46.44
				c0,0-1.35-0.98-1.81-1.34C44.21,182.79,43.01,181.7,43.01,181.7z"/>
			<path class="st19" d="M248.23,184.56H46.41l-0.03-0.02c-0.01-0.01-1.36-0.99-1.81-1.34c-0.42-0.33-1.58-1.38-1.63-1.43
				l-0.19-0.17h0.26l208.95,0.03l-0.2,0.17c-0.01,0.01-1.18,1.03-1.61,1.36c-0.44,0.34-1.88,1.37-1.89,1.38L248.23,184.56z
				 M46.47,184.36h201.69c0.2-0.14,1.45-1.04,1.86-1.35c0.31-0.25,1.04-0.87,1.4-1.18L43.27,181.8c0.36,0.32,1.11,1,1.42,1.24
				C45.11,183.37,46.28,184.22,46.47,184.36z"/>
		</g>
	</g>
</g>
</svg>
