<?xml version="1.0" encoding="utf-8"?>
<!-- Generator: Adobe Illustrator 24.2.3, SVG Export Plug-In . SVG Version: 6.00 Build 0)  -->
<svg version="1.1" id="Layer_1" xmlns="http://www.w3.org/2000/svg" xmlns:xlink="http://www.w3.org/1999/xlink" x="0px" y="0px"
	 viewBox="0 0 300 75" style="enable-background:new 0 0 300 75;" xml:space="preserve">
<style type="text/css">
	.st0{fill:url(#Path_3879_1_);}
	.st1{fill:#AC9D80;}
	.st2{fill:#84755A;}
	.st3{clip-path:url(#SVGID_2_);}
	.st4{fill:#483B24;}
	.st5{fill:url(#Path_3868_1_);}
	.st6{fill:url(#Path_3869_1_);}
	.st7{fill:url(#Path_3870_1_);}
	.st8{fill:url(#Path_3871_1_);}
	.st9{fill:url(#Path_3872_1_);}
	.st10{fill:url(#Path_3873_1_);}
	.st11{fill:url(#Path_3874_1_);}
	.st12{fill:url(#Path_3875_1_);}
	.st13{fill:url(#Path_3876_1_);}
	.st14{fill:url(#Path_3877_1_);}
	.st15{fill:url(#Path_3878_1_);}
	.st16{fill:#B3B4B4;}
	.st17{fill:url(#Rectangle_20435_1_);}
	.st18{fill:url(#Rectangle_20436_1_);}
	.st19{fill:url(#Rectangle_20437_1_);}
	.st20{fill:url(#Rectangle_20438_1_);}
	.st21{fill:url(#Rectangle_20439_1_);}
	.st22{fill:url(#Rectangle_20440_1_);}
	.st23{fill:url(#Rectangle_20441_1_);}
	.st24{fill:url(#Rectangle_20442_1_);}
	.st25{fill:url(#Rectangle_20443_1_);}
	.st26{fill:url(#Rectangle_20444_1_);}
	.st27{fill:url(#Path_3880_1_);}
	.st28{fill:url(#Path_3881_1_);}
	.st29{fill:url(#Rectangle_20445_1_);}
</style>
<g id="Group_4348" transform="translate(-330 -1221)">
	<g id="Group_4349">
		
			<linearGradient id="Path_3879_1_" gradientUnits="userSpaceOnUse" x1="-3035.0981" y1="3868.7119" x2="-3035.0981" y2="3867.9287" gradientTransform="matrix(26.1346 0 0 -19.5673 79940.3203 76952.7188)">
			<stop  offset="0" style="stop-color:#CFCFCE"/>
			<stop  offset="0.43" style="stop-color:#FFFFFF"/>
			<stop  offset="1" style="stop-color:#949494"/>
		</linearGradient>
		<path id="Path_3879" class="st0" d="M608.2,1252.3c2.4-0.7,5-0.8,7.5-0.4c3.2,0.6,12.8,2.9,12.8,2.9s3.6,4-0.4,10.2
			c0,0-11.9,4.7-19.9,2.2C608.2,1267.2,610.8,1253.7,608.2,1252.3z"/>
		<g id="Group_4344" transform="translate(660.153 1238.077)">
			<ellipse id="Ellipse_301" class="st1" cx="-51.8" cy="21.7" rx="1.5" ry="7.5"/>
			<ellipse id="Ellipse_302" class="st2" cx="-52.6" cy="21.7" rx="0.7" ry="4.9"/>
		</g>
		<g id="Group_4347" transform="translate(662.781 1237.338)">
			<g>
				<defs>
					<path id="SVGID_1_" d="M-55.5,14.9c2.8-0.6,5.6-0.8,8.4-0.4c3.2,0.6,12.8,2.9,12.8,2.9s3.6,4-0.4,10.2c0,0-12.8,4.7-20.8,2.2
						C-55.5,29.9-52.9,16.4-55.5,14.9z"/>
				</defs>
				<clipPath id="SVGID_2_">
					<use xlink:href="#SVGID_1_"  style="overflow:visible;"/>
				</clipPath>
				<g id="Group_4346" transform="translate(0 0)" class="st3">
					<g id="Group_4345" transform="translate(10.071 2.49)">
						<path id="Path_3882" class="st4" d="M-42.6,16.1l-16.7-2.4l16.5,2.9L-42.6,16.1z"/>
						<path id="Path_3883" class="st4" d="M-58.5,26l15.9-1.6v-0.9L-58.5,26z"/>
						<path id="Path_3884" class="st4" d="M-42.2,21.9V21l-14.6,0.4L-42.2,21.9z"/>
						<path id="Path_3885" class="st4" d="M-57.5,17.4l15.3,2l-0.4-1.1L-57.5,17.4z"/>
					</g>
				</g>
			</g>
		</g>
	</g>
	<g>
		
			<linearGradient id="Path_3868_1_" gradientUnits="userSpaceOnUse" x1="-2867.3115" y1="3860.0935" x2="-2867.2939" y2="3859.5051" gradientTransform="matrix(10.509 0 0 -13.136 30482.2051 51961.082)">
			<stop  offset="0" style="stop-color:#888888"/>
			<stop  offset="1" style="stop-color:#545554"/>
		</linearGradient>
		<path id="Path_3868" class="st5" d="M345.3,1264V1253c0,0,3.3,1.5,4.3,1.5c1.1,0,4.4-1.5,4.4-1.5v10.9c0,0-3.4-1.5-4.6-1.5
			C348.4,1262.5,345.3,1264,345.3,1264z"/>
		
			<linearGradient id="Path_3869_1_" gradientUnits="userSpaceOnUse" x1="-2867.749" y1="3860.0935" x2="-2867.7314" y2="3859.5051" gradientTransform="matrix(10.509 0 0 -13.136 30509.7891 51961.082)">
			<stop  offset="0" style="stop-color:#888888"/>
			<stop  offset="1" style="stop-color:#545554"/>
		</linearGradient>
		<path id="Path_3869" class="st6" d="M368.3,1264V1253c0,0,3.3,1.5,4.3,1.5c1.1,0,4.4-1.5,4.4-1.5v10.9c0,0-3.4-1.5-4.6-1.5
			C371.4,1262.5,368.3,1264,368.3,1264z"/>
		
			<linearGradient id="Path_3870_1_" gradientUnits="userSpaceOnUse" x1="-2868.1587" y1="3860.0935" x2="-2868.1411" y2="3859.5051" gradientTransform="matrix(10.509 0 0 -13.136 30535.625 51961.082)">
			<stop  offset="0" style="stop-color:#888888"/>
			<stop  offset="1" style="stop-color:#545554"/>
		</linearGradient>
		<path id="Path_3870" class="st7" d="M389.8,1264V1253c0,0,3.3,1.5,4.3,1.5c1.1,0,4.4-1.5,4.4-1.5v10.9c0,0-3.4-1.5-4.6-1.5
			C393,1262.5,389.8,1264,389.8,1264z"/>
		
			<linearGradient id="Path_3871_1_" gradientUnits="userSpaceOnUse" x1="-2868.6907" y1="3860.0935" x2="-2868.6731" y2="3859.5051" gradientTransform="matrix(10.509 0 0 -13.136 30563.1133 51961.082)">
			<stop  offset="0" style="stop-color:#888888"/>
			<stop  offset="1" style="stop-color:#545554"/>
		</linearGradient>
		<path id="Path_3871" class="st8" d="M411.8,1264V1253c0,0,3.3,1.5,4.3,1.5c1.1,0,4.4-1.5,4.4-1.5v10.9c0,0-3.4-1.5-4.6-1.5
			C415,1262.5,411.8,1264,411.8,1264z"/>
		
			<linearGradient id="Path_3872_1_" gradientUnits="userSpaceOnUse" x1="-2869.1211" y1="3860.0935" x2="-2869.1035" y2="3859.5051" gradientTransform="matrix(10.509 0 0 -13.136 30590.2617 51961.082)">
			<stop  offset="0" style="stop-color:#888888"/>
			<stop  offset="1" style="stop-color:#545554"/>
		</linearGradient>
		<path id="Path_3872" class="st9" d="M434.5,1264V1253c0,0,3.3,1.5,4.3,1.5c1.1,0,4.4-1.5,4.4-1.5v10.9c0,0-3.4-1.5-4.6-1.5
			C437.6,1262.5,434.5,1264,434.5,1264z"/>
		
			<linearGradient id="Path_3873_1_" gradientUnits="userSpaceOnUse" x1="-2869.4426" y1="3860.0935" x2="-2869.425" y2="3859.5051" gradientTransform="matrix(10.509 0 0 -13.136 30616.5352 51961.082)">
			<stop  offset="0" style="stop-color:#888888"/>
			<stop  offset="1" style="stop-color:#545554"/>
		</linearGradient>
		<path id="Path_3873" class="st10" d="M457.3,1264V1253c0,0,3.3,1.5,4.3,1.5c1.1,0,4.4-1.5,4.4-1.5v10.9c0,0-3.4-1.5-4.6-1.5
			C460.5,1262.5,457.3,1264,457.3,1264z"/>
		
			<linearGradient id="Path_3874_1_" gradientUnits="userSpaceOnUse" x1="-2869.8733" y1="3860.0935" x2="-2869.8557" y2="3859.5051" gradientTransform="matrix(10.509 0 0 -13.136 30643.6816 51961.082)">
			<stop  offset="0" style="stop-color:#888888"/>
			<stop  offset="1" style="stop-color:#545554"/>
		</linearGradient>
		<path id="Path_3874" class="st11" d="M480,1264V1253c0,0,3.3,1.5,4.3,1.5c1.1,0,4.4-1.5,4.4-1.5v10.9c0,0-3.4-1.5-4.6-1.5
			C483.1,1262.5,480,1264,480,1264z"/>
		
			<linearGradient id="Path_3875_1_" gradientUnits="userSpaceOnUse" x1="-2870.3037" y1="3860.0935" x2="-2870.2861" y2="3859.5051" gradientTransform="matrix(10.509 0 0 -13.136 30670.8301 51961.082)">
			<stop  offset="0" style="stop-color:#888888"/>
			<stop  offset="1" style="stop-color:#545554"/>
		</linearGradient>
		<path id="Path_3875" class="st12" d="M502.6,1264V1253c0,0,3.3,1.5,4.3,1.5c1.1,0,4.4-1.5,4.4-1.5v10.9c0,0-3.4-1.5-4.6-1.5
			C505.7,1262.5,502.6,1264,502.6,1264z"/>
		
			<linearGradient id="Path_3876_1_" gradientUnits="userSpaceOnUse" x1="-2870.7273" y1="3860.0935" x2="-2870.7097" y2="3859.5051" gradientTransform="matrix(10.509 0 0 -13.136 30697.5391 51961.082)">
			<stop  offset="0" style="stop-color:#888888"/>
			<stop  offset="1" style="stop-color:#545554"/>
		</linearGradient>
		<path id="Path_3876" class="st13" d="M524.9,1264V1253c0,0,3.3,1.5,4.3,1.5c1.1,0,4.4-1.5,4.4-1.5v10.9c0,0-3.4-1.5-4.6-1.5
			C528,1262.5,524.9,1264,524.9,1264z"/>
		
			<linearGradient id="Path_3877_1_" gradientUnits="userSpaceOnUse" x1="-2882.1294" y1="3860.0935" x2="-2882.1121" y2="3859.5051" gradientTransform="matrix(10.948 0 0 -13.136 32105.8613 51961.082)">
			<stop  offset="0" style="stop-color:#888888"/>
			<stop  offset="1" style="stop-color:#545554"/>
		</linearGradient>
		<path id="Path_3877" class="st14" d="M547.8,1264V1253c0,0,3.4,1.5,4.5,1.5c1.1,0,4.6-1.5,4.6-1.5v10.9c0,0-3.6-1.5-4.8-1.5
			C551.1,1262.5,547.8,1264,547.8,1264z"/>
		
			<linearGradient id="Path_3878_1_" gradientUnits="userSpaceOnUse" x1="-2871.5955" y1="3860.0935" x2="-2871.5779" y2="3859.5051" gradientTransform="matrix(10.509 0 0 -13.136 30752.2734 51961.082)">
			<stop  offset="0" style="stop-color:#888888"/>
			<stop  offset="1" style="stop-color:#545554"/>
		</linearGradient>
		<path id="Path_3878" class="st15" d="M570.5,1264V1253c0,0,3.3,1.5,4.3,1.5c1.1,0,4.4-1.5,4.4-1.5v10.9c0,0-3.4-1.5-4.6-1.5
			C573.6,1262.5,570.5,1264,570.5,1264z"/>
	</g>
	<g>
		<path id="Path_3889" class="st16" d="M375.1,1293.4l4.5,2.5h5.8l4.9-2.5H375.1z"/>
		
			<linearGradient id="Rectangle_20435_1_" gradientUnits="userSpaceOnUse" x1="-2986.4998" y1="3878.3862" x2="-2986.5251" y2="3876.6946" gradientTransform="matrix(18.391 0 0 -42.473 55307.8711 165948.0781)">
			<stop  offset="0" style="stop-color:#CFCFCE"/>
			<stop  offset="0.473" style="stop-color:#F4F4F5"/>
			<stop  offset="1" style="stop-color:#969696"/>
		</linearGradient>
		<rect id="Rectangle_20435" x="375.3" y="1221" class="st17" width="15.3" height="72.4"/>
	</g>
	<g>
		<path id="Path_3890" class="st16" d="M397.8,1293.4l4.5,2.5h5.8l4.9-2.5H397.8z"/>
		
			<linearGradient id="Rectangle_20436_1_" gradientUnits="userSpaceOnUse" x1="-2986.6799" y1="3878.3862" x2="-2986.7053" y2="3876.6946" gradientTransform="matrix(18.391 0 0 -42.473 55333.7031 165948.0781)">
			<stop  offset="0" style="stop-color:#CFCFCE"/>
			<stop  offset="0.473" style="stop-color:#F4F4F5"/>
			<stop  offset="1" style="stop-color:#969696"/>
		</linearGradient>
		<rect id="Rectangle_20436" x="397.8" y="1221" class="st18" width="15.3" height="72.4"/>
	</g>
	<g>
		<path id="Path_3891" class="st16" d="M420.4,1293.4l4.5,2.5h5.8l4.9-2.5H420.4z"/>
		
			<linearGradient id="Rectangle_20437_1_" gradientUnits="userSpaceOnUse" x1="-2986.9739" y1="3878.3862" x2="-2986.9993" y2="3876.6946" gradientTransform="matrix(18.391 0 0 -42.473 55361.6992 165948.0781)">
			<stop  offset="0" style="stop-color:#CFCFCE"/>
			<stop  offset="0.473" style="stop-color:#F4F4F5"/>
			<stop  offset="1" style="stop-color:#969696"/>
		</linearGradient>
		<rect id="Rectangle_20437" x="420.4" y="1221" class="st19" width="15.3" height="72.4"/>
	</g>
	<g>
		<path id="Path_3892" class="st16" d="M443,1293.4l4.5,2.5h5.8l4.9-2.5H443z"/>
		
			<linearGradient id="Rectangle_20438_1_" gradientUnits="userSpaceOnUse" x1="-2987.2234" y1="3878.3862" x2="-2987.2485" y2="3876.6946" gradientTransform="matrix(18.391 0 0 -42.473 55388.875 165948.0781)">
			<stop  offset="0" style="stop-color:#CFCFCE"/>
			<stop  offset="0.473" style="stop-color:#F4F4F5"/>
			<stop  offset="1" style="stop-color:#969696"/>
		</linearGradient>
		<rect id="Rectangle_20438" x="443" y="1221" class="st20" width="15.3" height="72.4"/>
	</g>
	<g>
		<path id="Path_3893" class="st16" d="M465.6,1293.4l4.5,2.5l5.9,0l4.9-2.5L465.6,1293.4z"/>
		
			<linearGradient id="Rectangle_20439_1_" gradientUnits="userSpaceOnUse" x1="-2987.3997" y1="3878.3862" x2="-2987.425" y2="3876.6946" gradientTransform="matrix(18.391 0 0 -42.473 55414.7109 165948.0781)">
			<stop  offset="0" style="stop-color:#CFCFCE"/>
			<stop  offset="0.473" style="stop-color:#F4F4F5"/>
			<stop  offset="1" style="stop-color:#969696"/>
		</linearGradient>
		<rect id="Rectangle_20439" x="465.5" y="1221" class="st21" width="15.3" height="72.4"/>
	</g>
	<g>
		<path id="Path_3894" class="st16" d="M488.1,1293.4l4.5,2.5h5.9l4.9-2.5H488.1z"/>
		
			<linearGradient id="Rectangle_20440_1_" gradientUnits="userSpaceOnUse" x1="-2987.7188" y1="3878.3862" x2="-2987.7441" y2="3876.6946" gradientTransform="matrix(18.391 0 0 -42.473 55443.1719 165948.0781)">
			<stop  offset="0" style="stop-color:#CFCFCE"/>
			<stop  offset="0.473" style="stop-color:#F4F4F5"/>
			<stop  offset="1" style="stop-color:#969696"/>
		</linearGradient>
		<rect id="Rectangle_20440" x="488.1" y="1221" class="st22" width="15.3" height="72.4"/>
	</g>
	<g>
		<path id="Path_3895" class="st16" d="M510.7,1293.4l4.5,2.5h5.9l4.9-2.5H510.7z"/>
		
			<linearGradient id="Rectangle_20441_1_" gradientUnits="userSpaceOnUse" x1="-2987.9429" y1="3878.3862" x2="-2987.9683" y2="3876.6946" gradientTransform="matrix(18.391 0 0 -42.473 55469.8789 165948.0781)">
			<stop  offset="0" style="stop-color:#CFCFCE"/>
			<stop  offset="0.473" style="stop-color:#F4F4F5"/>
			<stop  offset="1" style="stop-color:#969696"/>
		</linearGradient>
		<rect id="Rectangle_20441" x="510.7" y="1221" class="st23" width="15.3" height="72.4"/>
	</g>
	<g>
		<path id="Path_3896" class="st16" d="M533.3,1293.4l4.5,2.5h5.9l4.9-2.5H533.3z"/>
		
			<linearGradient id="Rectangle_20442_1_" gradientUnits="userSpaceOnUse" x1="-2988.1184" y1="3878.3862" x2="-2988.1438" y2="3876.6946" gradientTransform="matrix(18.391 0 0 -42.473 55495.7148 165948.0781)">
			<stop  offset="0" style="stop-color:#CFCFCE"/>
			<stop  offset="0.473" style="stop-color:#F4F4F5"/>
			<stop  offset="1" style="stop-color:#969696"/>
		</linearGradient>
		<rect id="Rectangle_20442" x="533.3" y="1221" class="st24" width="15.3" height="72.4"/>
	</g>
	<g>
		<path id="Path_3897" class="st16" d="M555.9,1293.4l4.5,2.5h5.9l4.9-2.5H555.9z"/>
		
			<linearGradient id="Rectangle_20443_1_" gradientUnits="userSpaceOnUse" x1="-2988.4387" y1="3878.3862" x2="-2988.4639" y2="3876.6946" gradientTransform="matrix(18.391 0 0 -42.473 55524.1758 165948.0781)">
			<stop  offset="0" style="stop-color:#CFCFCE"/>
			<stop  offset="0.473" style="stop-color:#F4F4F5"/>
			<stop  offset="1" style="stop-color:#969696"/>
		</linearGradient>
		<rect id="Rectangle_20443" x="555.9" y="1221" class="st25" width="15.3" height="72.4"/>
	</g>
	<g>
		<path id="Path_3887" class="st16" d="M330,1293.4l4.5,2.5h5.8l4.9-2.5H330z"/>
		
			<linearGradient id="Rectangle_20444_1_" gradientUnits="userSpaceOnUse" x1="-2985.9604" y1="3878.3862" x2="-2985.9858" y2="3876.6946" gradientTransform="matrix(18.391 0 0 -42.473 55252.6992 165948.0781)">
			<stop  offset="0" style="stop-color:#CFCFCE"/>
			<stop  offset="0.473" style="stop-color:#F4F4F5"/>
			<stop  offset="1" style="stop-color:#969696"/>
		</linearGradient>
		<rect id="Rectangle_20444" x="330" y="1221" class="st26" width="15.3" height="72.4"/>
	</g>
	<g>
		<path id="Path_3888" class="st16" d="M352.6,1293.4l4.5,2.5h5.8l4.9-2.5H352.6z"/>
		
			<linearGradient id="Path_3880_1_" gradientUnits="userSpaceOnUse" x1="-2986.2712" y1="3878.3862" x2="-2986.2966" y2="3876.6946" gradientTransform="matrix(18.39 0 0 -42.473 55278.0586 165948.1719)">
			<stop  offset="0" style="stop-color:#CFCFCE"/>
			<stop  offset="0.473" style="stop-color:#F4F4F5"/>
			<stop  offset="1" style="stop-color:#969696"/>
		</linearGradient>
		<path id="Path_3880" class="st27" d="M352.6,1221h15.3v72.4h-15.3"/>
	</g>
	
		<linearGradient id="Path_3881_1_" gradientUnits="userSpaceOnUse" x1="-2977.2688" y1="3873.7332" x2="-2977.2512" y2="3873.145" gradientTransform="matrix(17.1179 0 0 -28.022 51565 109794.0156)">
		<stop  offset="0" style="stop-color:#888888"/>
		<stop  offset="1" style="stop-color:#545554"/>
	</linearGradient>
	<path id="Path_3881" class="st28" d="M603.9,1256.3V1243c0-1.5-1.2-2.8-2.7-2.8h0h-1.8c-1.5,0-2.8,1.2-2.8,2.7v0v13.3h-3.2v7.3H608
		c-0.5-1.1-0.3-2.3-0.2-3.5c-0.1-1.3-0.3-2.6-0.8-3.8L603.9,1256.3z"/>
	<g>
		<path id="Path_3898" class="st16" d="M578.6,1293.4l4.5,2.5h6.5l4.3-2.5H578.6z"/>
		
			<linearGradient id="Rectangle_20445_1_" gradientUnits="userSpaceOnUse" x1="-2988.6628" y1="3878.3862" x2="-2988.6882" y2="3876.6946" gradientTransform="matrix(18.391 0 0 -42.473 55550.8867 165948.0781)">
			<stop  offset="0" style="stop-color:#CFCFCE"/>
			<stop  offset="0.473" style="stop-color:#F4F4F5"/>
			<stop  offset="1" style="stop-color:#969696"/>
		</linearGradient>
		<rect id="Rectangle_20445" x="578.5" y="1221" class="st29" width="15.3" height="72.4"/>
	</g>
</g>
</svg>
