<?xml version="1.0" encoding="utf-8"?>
<!-- Generator: Adobe Illustrator 24.2.3, SVG Export Plug-In . SVG Version: 6.00 Build 0)  -->
<svg version="1.1" id="Layer_1" xmlns="http://www.w3.org/2000/svg" xmlns:xlink="http://www.w3.org/1999/xlink" x="0px" y="0px"
	 viewBox="0 0 300 342.86" style="enable-background:new 0 0 300 342.86;" xml:space="preserve">
<style type="text/css">
	.st0{fill:url(#SVGID_1_);}
	.st1{fill:#707171;}
	.st2{fill:url(#Path_3629_1_);}
	.st3{fill:#411416;}
	.st4{fill:url(#Path_3631_1_);}
	.st5{opacity:0.2;}
	.st6{fill:#AEAEAF;}
	.st7{fill:url(#Path_3633_1_);}
	.st8{fill:#C33C27;}
	.st9{fill:url(#Path_3636_1_);}
	.st10{opacity:0.23;fill:none;stroke:#707171;stroke-miterlimit:10;enable-background:new    ;}
</style>
<g id="Group_4116" transform="translate(-685.844 -395.5)">
	<g id="Path_3628">
		
			<linearGradient id="SVGID_1_" gradientUnits="userSpaceOnUse" x1="-441.8085" y1="-979.7411" x2="-440.2487" y2="-979.7411" gradientTransform="matrix(240 0 0 239.9991 106720.3828 235703.8125)">
			<stop  offset="0" style="stop-color:#EAEAE9"/>
			<stop  offset="0.406" style="stop-color:#F3F4F5"/>
			<stop  offset="1" style="stop-color:#959595"/>
		</linearGradient>
		<path class="st0" d="M707.25,737.75c-2.41,0-10.68-0.43-16.04-6.01c-3.46-3.59-5.09-8.67-4.84-15.09l0.01-320.67l298.96-0.09
			l-0.03,323.91c0,0.11,0.2,9.41-4.65,14.39c-2.02,2.07-4.65,3.13-7.83,3.13c0,0-0.34,0-0.51-0.01l-264.29,0.42
			C707.99,737.73,707.72,737.75,707.25,737.75z"/>
		<path class="st1" d="M984.85,396.39l-0.03,323.44c0,0.09,0.2,9.18-4.51,14.01c-1.92,1.97-4.44,2.98-7.48,2.98
			c-0.16,0-0.33,0-0.53-0.01l-264.28,0.42h-0.03h-0.03c-0.02,0-0.27,0.02-0.71,0.02c-2.36,0-10.46-0.42-15.68-5.85
			c-3.36-3.49-4.94-8.45-4.7-14.77l0.01-320.15L984.85,396.39 M985.85,395.39l-299.97,0.09l-0.01,321.15
			c-0.79,20.49,17.38,21.62,21.38,21.62c0.49,0,0.77-0.02,0.77-0.02l264.28-0.42c0.18,0.01,0.35,0.01,0.53,0.01
			c13.48,0,12.98-18.02,12.98-18.02L985.85,395.39L985.85,395.39z"/>
	</g>
	
		<linearGradient id="Path_3629_1_" gradientUnits="userSpaceOnUse" x1="-441.7036" y1="-971.7407" x2="-440.4473" y2="-971.7407" gradientTransform="matrix(234.4501 0 0 35.2207 104245.4219 34941.1094)">
		<stop  offset="0" style="stop-color:#CCCBCB"/>
		<stop  offset="0.515" style="stop-color:#F3F4F5"/>
		<stop  offset="1" style="stop-color:#CFCFCF"/>
	</linearGradient>
	<path id="Path_3629" class="st2" d="M697.46,693.58c0,0-11.55,14.45-9.18,32.79c0,0,2.66,9.55,18.16,11.51l265.86-0.08
		c0,0,11.16-0.8,10.15-13.61c0,0-1.69-24.66-8.46-30.62C973.99,693.58,858.51,767.69,697.46,693.58z"/>
	<path id="Path_3630" class="st3" d="M697.46,434.69l60.04-8.1l158.14,0.85l59.2,7.25L974,693.59c0,0-58.35,34.87-145.46,33.17
		c0,0-76.11-3.4-131.08-33.17L697.46,434.69L697.46,434.69z"/>
	
		<linearGradient id="Path_3631_1_" gradientUnits="userSpaceOnUse" x1="-440.142" y1="-979.4366" x2="-441.396" y2="-979.4127" gradientTransform="matrix(212.448 0 0 189.9214 94433.8906 186594.2031)">
		<stop  offset="0" style="stop-color:#FFFFFF"/>
		<stop  offset="0.445" style="stop-color:#FFFFFF"/>
		<stop  offset="0.606" style="stop-color:#F5F6F7"/>
		<stop  offset="0.72" style="stop-color:#EAEAE9"/>
		<stop  offset="0.813" style="stop-color:#D9D9D8"/>
		<stop  offset="0.892" style="stop-color:#C2C2C2"/>
		<stop  offset="0.961" style="stop-color:#A9A9A9"/>
		<stop  offset="1" style="stop-color:#959595"/>
	</linearGradient>
	<path id="Path_3631" class="st4" d="M703.8,689.76V441.07h265.54l-0.85,246.99C968.5,688.06,851.79,760.35,703.8,689.76z"/>
	<g id="Group_4115" transform="translate(758.218 596.129)" class="st5">
		<path id="Path_3632" class="st6" d="M17.46,91.93H138.4c0,0-21.14,22.11-52.43,23.81C85.96,115.74,50.87,122.12,17.46,91.93z"/>
	</g>
	
		<linearGradient id="Path_3633_1_" gradientUnits="userSpaceOnUse" x1="-433.1977" y1="-958.5522" x2="-431.9478" y2="-958.5522" gradientTransform="matrix(85.587 0 0 14.2572 37858.543 14363.6436)">
		<stop  offset="0" style="stop-color:#FFFFFF"/>
		<stop  offset="1" style="stop-color:#959595"/>
	</linearGradient>
	<path id="Path_3633" class="st7" d="M782.45,688.39c0,0,22.83,19.56,54.12,17.86c0,0,33.57,0.18,52.86-17.77L782.45,688.39z"/>
	<ellipse id="Ellipse_174" class="st8" cx="719.02" cy="726.33" rx="3.81" ry="3.83"/>
	<ellipse id="Ellipse_175" class="st8" cx="730.86" cy="726.33" rx="3.81" ry="3.83"/>
	<ellipse id="Ellipse_176" class="st8" cx="919.45" cy="726.33" rx="3.81" ry="3.83"/>
	<ellipse id="Ellipse_177" class="st8" cx="932.13" cy="726.33" rx="3.81" ry="3.83"/>
	<ellipse id="Ellipse_178" class="st8" cx="943.13" cy="726.33" rx="3.81" ry="3.83"/>
	<ellipse id="Ellipse_179" class="st8" cx="943.13" cy="716.12" rx="3.81" ry="3.83"/>
	<path id="Path_3634" class="st8" d="M951.16,719.95l5.07-4.25h12.68v4.25H951.16z"/>
	<path id="Path_3635" class="st8" d="M951.16,728.45l5.07-4.25h12.68v4.25H951.16z"/>
	
		<linearGradient id="Path_3636_1_" gradientUnits="userSpaceOnUse" x1="-437.189" y1="-966.2432" x2="-435.9391" y2="-966.2432" gradientTransform="matrix(121.9484 0 0 15.869 54074.6133 15768.6445)">
		<stop  offset="0" style="stop-color:#BEBDBD"/>
		<stop  offset="0.515" style="stop-color:#F3F4F5"/>
		<stop  offset="1" style="stop-color:#959595"/>
	</linearGradient>
	<path id="Path_3636" class="st9" d="M760.4,425.33c0,0-2.9,15.32,9.78,18.72c0,0,1.27,0.42,19.03,1.28h107.41
		c0,0,12.69,0,14.37-8.51c0,0,2.43-6.04,1.2-10.71L760.4,425.33z"/>
	<rect id="Rectangle_20296" x="794.29" y="429.16" class="st8" width="83.72" height="2.55"/>
	<rect id="Rectangle_20297" x="794.71" y="437.24" class="st8" width="83.72" height="2.55"/>
	<path id="Path_3637" class="st10" d="M724.1,688.06h221.57V461.91H722.4C722.4,461.91,724.22,687.92,724.1,688.06z"/>
</g>
</svg>
