<svg width="382" height="301" viewBox="0 0 382 301" fill="none" xmlns="http://www.w3.org/2000/svg">
<path d="M19.9021 75V17.072H0.662119V0.639997H60.5661V17.072H41.3261V75H19.9021ZM70.9832 75V0.639997H92.4072V29.032H116.847V0.639997H138.167V75H116.847V45.672H92.4072V75H70.9832ZM147.754 75L171.57 0.639997H199.13L222.738 75H200.17L196.218 61.168H171.57L167.618 75H147.754ZM183.946 17.904L175.73 46.504H192.058L183.946 17.904ZM232.313 75V0.639997H256.337L280.153 42.552V0.639997H298.769V75H278.177L251.033 28.304V75H232.313ZM314.197 75V0.639997H335.621V30.072L357.981 0.639997H380.237L352.989 35.168L381.693 75H357.045L335.621 43.904V75H314.197ZM100.614 299V267.176L76.3818 224.64H99.5738L112.158 249.704L124.742 224.64H145.126L122.038 267.176V299H100.614ZM183.417 283.504C193.921 283.504 200.473 275.392 200.473 262.08V261.248C200.473 248.04 193.817 240.24 183.313 240.24C172.809 240.24 166.257 247.832 166.257 261.352V262.184C166.257 275.704 173.121 283.504 183.417 283.504ZM183.001 300.248C158.977 300.248 144.001 284.648 144.001 262.288V261.456C144.001 238.784 161.057 223.6 183.313 223.6C205.985 223.6 222.729 237.848 222.729 260.936V261.768C222.729 284.648 207.025 300.248 183.001 300.248ZM266.652 300.248C245.644 300.248 233.684 289.64 233.684 268.84V224.64H255.004V267.904C255.004 278.408 257.604 283.504 266.652 283.504C275.492 283.504 278.3 278.72 278.3 267.592V224.64H299.828V268.528C299.828 290.16 287.14 300.248 266.652 300.248Z" fill="black" fill-opacity="0.05"/>
</svg>
